<?xml version="1.0" encoding="UTF-8" standalone="no"?>
<!DOCTYPE svg PUBLIC "-//W3C//DTD SVG 1.1//EN"
 "http://www.w3.org/Graphics/SVG/1.1/DTD/svg11.dtd">
<!-- Generated by graphviz version 2.43.0 (0)
 -->
<!-- Title: adc.c Pages: 1 -->
<svg width="472pt" height="137pt"
 viewBox="0.00 0.00 472.00 137.00" xmlns="http://www.w3.org/2000/svg" xmlns:xlink="http://www.w3.org/1999/xlink">
<g id="graph0" class="graph" transform="scale(1 1) rotate(0) translate(4 133)">
<title>adc.c</title>
<!-- Node1 -->
<g id="Node000001" class="node">
<title>Node1</title>
<g id="a_Node000001"><a xlink:title=" ">
<polygon fill="#999999" stroke="#666666" points="300,-129 258,-129 258,-110 300,-110 300,-129"/>
<text text-anchor="middle" x="279" y="-117" font-family="Helvetica,sans-Serif" font-size="10.00">adc.c</text>
</a>
</g>
</g>
<!-- Node2 -->
<g id="Node000002" class="node">
<title>Node2</title>
<g id="a_Node000002"><a xlink:title=" ">
<polygon fill="#e0e0e0" stroke="#999999" points="306,-19 260,-19 260,0 306,0 306,-19"/>
<text text-anchor="middle" x="283" y="-7" font-family="Helvetica,sans-Serif" font-size="10.00">pico.h</text>
</a>
</g>
</g>
<!-- Node1&#45;&gt;Node2 -->
<g id="edge1_Node000001_Node000002" class="edge">
<title>Node1&#45;&gt;Node2</title>
<g id="a_edge1_Node000001_Node000002"><a xlink:title=" ">
<path fill="none" stroke="#63b8ff" d="M279.33,-109.66C279.98,-92.17 281.43,-52.8 282.3,-29.27"/>
<polygon fill="#63b8ff" stroke="#63b8ff" points="285.81,-29.28 282.68,-19.16 278.81,-29.02 285.81,-29.28"/>
</a>
</g>
</g>
<!-- Node3 -->
<g id="Node000003" class="node">
<title>Node3</title>
<g id="a_Node000003"><a xlink:href="rp2__common_2hardware__adc_2include_2hardware_2adc_8h.html" target="_top" xlink:title=" ">
<polygon fill="white" stroke="#666666" points="247,-74 155,-74 155,-55 247,-55 247,-74"/>
<text text-anchor="middle" x="201" y="-62" font-family="Helvetica,sans-Serif" font-size="10.00">hardware/adc.h</text>
</a>
</g>
</g>
<!-- Node1&#45;&gt;Node3 -->
<g id="edge2_Node000001_Node000003" class="edge">
<title>Node1&#45;&gt;Node3</title>
<g id="a_edge2_Node000001_Node000003"><a xlink:title=" ">
<path fill="none" stroke="#63b8ff" d="M266.47,-109.98C254.6,-101.92 236.54,-89.65 222.39,-80.03"/>
<polygon fill="#63b8ff" stroke="#63b8ff" points="224,-76.9 213.76,-74.17 220.06,-82.69 224,-76.9"/>
</a>
</g>
</g>
<!-- Node6 -->
<g id="Node000006" class="node">
<title>Node6</title>
<g id="a_Node000006"><a xlink:href="rp2__common_2hardware__resets_2include_2hardware_2resets_8h.html" target="_top" xlink:title=" ">
<polygon fill="white" stroke="#666666" points="411,-74 307,-74 307,-55 411,-55 411,-74"/>
<text text-anchor="middle" x="359" y="-62" font-family="Helvetica,sans-Serif" font-size="10.00">hardware/resets.h</text>
</a>
</g>
</g>
<!-- Node1&#45;&gt;Node6 -->
<g id="edge6_Node000001_Node000006" class="edge">
<title>Node1&#45;&gt;Node6</title>
<g id="a_edge6_Node000001_Node000006"><a xlink:title=" ">
<path fill="none" stroke="#63b8ff" d="M291.85,-109.98C304.14,-101.84 322.91,-89.41 337.48,-79.76"/>
<polygon fill="#63b8ff" stroke="#63b8ff" points="339.51,-82.61 345.91,-74.17 335.64,-76.78 339.51,-82.61"/>
</a>
</g>
</g>
<!-- Node3&#45;&gt;Node2 -->
<g id="edge3_Node000003_Node000002" class="edge">
<title>Node3&#45;&gt;Node2</title>
<g id="a_edge3_Node000003_Node000002"><a xlink:title=" ">
<path fill="none" stroke="#63b8ff" d="M214.17,-54.98C226.77,-46.84 246,-34.41 260.94,-24.76"/>
<polygon fill="#63b8ff" stroke="#63b8ff" points="263.09,-27.54 269.59,-19.17 259.29,-21.66 263.09,-27.54"/>
</a>
</g>
</g>
<!-- Node4 -->
<g id="Node000004" class="node">
<title>Node4</title>
<g id="a_Node000004"><a xlink:title=" ">
<polygon fill="#e0e0e0" stroke="#999999" points="128,-19 0,-19 0,0 128,0 128,-19"/>
<text text-anchor="middle" x="64" y="-7" font-family="Helvetica,sans-Serif" font-size="10.00">hardware/structs/adc.h</text>
</a>
</g>
</g>
<!-- Node3&#45;&gt;Node4 -->
<g id="edge4_Node000003_Node000004" class="edge">
<title>Node3&#45;&gt;Node4</title>
<g id="a_edge4_Node000003_Node000004"><a xlink:title=" ">
<path fill="none" stroke="#63b8ff" d="M178.99,-54.98C156.55,-46.3 121.52,-32.75 96.01,-22.88"/>
<polygon fill="#63b8ff" stroke="#63b8ff" points="97,-19.51 86.41,-19.17 94.48,-26.04 97,-19.51"/>
</a>
</g>
</g>
<!-- Node5 -->
<g id="Node000005" class="node">
<title>Node5</title>
<g id="a_Node000005"><a xlink:title=" ">
<polygon fill="#e0e0e0" stroke="#999999" points="241.5,-19 146.5,-19 146.5,0 241.5,0 241.5,-19"/>
<text text-anchor="middle" x="194" y="-7" font-family="Helvetica,sans-Serif" font-size="10.00">hardware/gpio.h</text>
</a>
</g>
</g>
<!-- Node3&#45;&gt;Node5 -->
<g id="edge5_Node000003_Node000005" class="edge">
<title>Node3&#45;&gt;Node5</title>
<g id="a_edge5_Node000003_Node000005"><a xlink:title=" ">
<path fill="none" stroke="#63b8ff" d="M199.84,-54.75C198.93,-47.8 197.61,-37.85 196.46,-29.13"/>
<polygon fill="#63b8ff" stroke="#63b8ff" points="199.91,-28.54 195.13,-19.09 192.97,-29.46 199.91,-28.54"/>
</a>
</g>
</g>
<!-- Node6&#45;&gt;Node2 -->
<g id="edge7_Node000006_Node000002" class="edge">
<title>Node6&#45;&gt;Node2</title>
<g id="a_edge7_Node000006_Node000002"><a xlink:title=" ">
<path fill="none" stroke="#63b8ff" d="M346.79,-54.98C335.22,-46.92 317.62,-34.65 303.84,-25.03"/>
<polygon fill="#63b8ff" stroke="#63b8ff" points="305.64,-22.02 295.43,-19.17 301.63,-27.76 305.64,-22.02"/>
</a>
</g>
</g>
<!-- Node7 -->
<g id="Node000007" class="node">
<title>Node7</title>
<g id="a_Node000007"><a xlink:title=" ">
<polygon fill="#e0e0e0" stroke="#999999" points="464,-19 324,-19 324,0 464,0 464,-19"/>
<text text-anchor="middle" x="394" y="-7" font-family="Helvetica,sans-Serif" font-size="10.00">hardware/structs/resets.h</text>
</a>
</g>
</g>
<!-- Node6&#45;&gt;Node7 -->
<g id="edge8_Node000006_Node000007" class="edge">
<title>Node6&#45;&gt;Node7</title>
<g id="a_edge8_Node000006_Node000007"><a xlink:title=" ">
<path fill="none" stroke="#63b8ff" d="M364.78,-54.75C369.62,-47.42 376.68,-36.73 382.64,-27.7"/>
<polygon fill="#63b8ff" stroke="#63b8ff" points="385.74,-29.36 388.33,-19.09 379.9,-25.5 385.74,-29.36"/>
</a>
</g>
</g>
</g>
</svg>
