<?xml version="1.0" encoding="UTF-8" standalone="no"?>
<!DOCTYPE svg PUBLIC "-//W3C//DTD SVG 1.1//EN"
 "http://www.w3.org/Graphics/SVG/1.1/DTD/svg11.dtd">
<!-- Generated by graphviz version 2.43.0 (0)
 -->
<!-- Title: aon_timer.h Pages: 1 -->
<svg width="381pt" height="203pt"
 viewBox="0.00 0.00 381.00 203.00" xmlns="http://www.w3.org/2000/svg" xmlns:xlink="http://www.w3.org/1999/xlink">
<g id="graph0" class="graph" transform="scale(1 1) rotate(0) translate(4 199)">
<title>aon_timer.h</title>
<!-- Node1 -->
<g id="Node000001" class="node">
<title>Node1</title>
<g id="a_Node000001"><a xlink:title=" ">
<polygon fill="#999999" stroke="#666666" points="213,-195 138,-195 138,-176 213,-176 213,-195"/>
<text text-anchor="middle" x="175.5" y="-183" font-family="Helvetica,sans-Serif" font-size="10.00">aon_timer.h</text>
</a>
</g>
</g>
<!-- Node2 -->
<g id="Node000002" class="node">
<title>Node2</title>
<g id="a_Node000002"><a xlink:title=" ">
<polygon fill="#e0e0e0" stroke="#999999" points="77.5,-85 31.5,-85 31.5,-66 77.5,-66 77.5,-85"/>
<text text-anchor="middle" x="54.5" y="-73" font-family="Helvetica,sans-Serif" font-size="10.00">pico.h</text>
</a>
</g>
</g>
<!-- Node1&#45;&gt;Node2 -->
<g id="edge1_Node000001_Node000002" class="edge">
<title>Node1&#45;&gt;Node2</title>
<g id="a_edge1_Node000001_Node000002"><a xlink:title=" ">
<path fill="none" stroke="#63b8ff" d="M137.81,-177.97C114.52,-171.98 85.87,-160.75 68.5,-140 58.2,-127.69 55.02,-109.47 54.23,-95.69"/>
<polygon fill="#63b8ff" stroke="#63b8ff" points="57.73,-95.33 54.03,-85.4 50.73,-95.47 57.73,-95.33"/>
</a>
</g>
</g>
<!-- Node3 -->
<g id="Node000003" class="node">
<title>Node3</title>
<g id="a_Node000003"><a xlink:title=" ">
<polygon fill="#e0e0e0" stroke="#999999" points="237.5,-85 189.5,-85 189.5,-66 237.5,-66 237.5,-85"/>
<text text-anchor="middle" x="213.5" y="-73" font-family="Helvetica,sans-Serif" font-size="10.00">time.h</text>
</a>
</g>
</g>
<!-- Node1&#45;&gt;Node3 -->
<g id="edge2_Node000001_Node000003" class="edge">
<title>Node1&#45;&gt;Node3</title>
<g id="a_edge2_Node000001_Node000003"><a xlink:title=" ">
<path fill="none" stroke="#63b8ff" d="M180.74,-175.93C185.89,-167.17 193.67,-153.05 198.5,-140 203.91,-125.37 207.84,-108.12 210.32,-95.28"/>
<polygon fill="#63b8ff" stroke="#63b8ff" points="213.78,-95.79 212.12,-85.33 206.9,-94.54 213.78,-95.79"/>
</a>
</g>
</g>
<!-- Node4 -->
<g id="Node000004" class="node">
<title>Node4</title>
<g id="a_Node000004"><a xlink:href="datetime_8h.html" target="_top" xlink:title=" ">
<polygon fill="white" stroke="#666666" points="189.5,-140 77.5,-140 77.5,-121 189.5,-121 189.5,-140"/>
<text text-anchor="middle" x="133.5" y="-128" font-family="Helvetica,sans-Serif" font-size="10.00">pico/util/datetime.h</text>
</a>
</g>
</g>
<!-- Node1&#45;&gt;Node4 -->
<g id="edge3_Node000001_Node000004" class="edge">
<title>Node1&#45;&gt;Node4</title>
<g id="a_edge3_Node000001_Node000004"><a xlink:title=" ">
<path fill="none" stroke="#63b8ff" d="M168.56,-175.75C162.63,-168.26 153.93,-157.28 146.68,-148.13"/>
<polygon fill="#63b8ff" stroke="#63b8ff" points="149.26,-145.75 140.31,-140.09 143.77,-150.1 149.26,-145.75"/>
</a>
</g>
</g>
<!-- Node8 -->
<g id="Node000008" class="node">
<title>Node8</title>
<g id="a_Node000008"><a xlink:title=" ">
<polygon fill="#e0e0e0" stroke="#999999" points="373,-140 246,-140 246,-121 373,-121 373,-140"/>
<text text-anchor="middle" x="309.5" y="-128" font-family="Helvetica,sans-Serif" font-size="10.00">hardware/regs/intctrl.h</text>
</a>
</g>
</g>
<!-- Node1&#45;&gt;Node8 -->
<g id="edge9_Node000001_Node000008" class="edge">
<title>Node1&#45;&gt;Node8</title>
<g id="a_edge9_Node000001_Node000008"><a xlink:title=" ">
<path fill="none" stroke="#63b8ff" d="M197.03,-175.98C218.97,-167.3 253.24,-153.75 278.19,-143.88"/>
<polygon fill="#63b8ff" stroke="#63b8ff" points="279.57,-147.1 287.58,-140.17 276.99,-140.59 279.57,-147.1"/>
</a>
</g>
</g>
<!-- Node4&#45;&gt;Node2 -->
<g id="edge4_Node000004_Node000002" class="edge">
<title>Node4&#45;&gt;Node2</title>
<g id="a_edge4_Node000004_Node000002"><a xlink:title=" ">
<path fill="none" stroke="#63b8ff" d="M120.81,-120.98C108.67,-112.84 90.14,-100.41 75.75,-90.76"/>
<polygon fill="#63b8ff" stroke="#63b8ff" points="77.68,-87.84 67.42,-85.17 73.78,-93.65 77.68,-87.84"/>
</a>
</g>
</g>
<!-- Node4&#45;&gt;Node3 -->
<g id="edge5_Node000004_Node000003" class="edge">
<title>Node4&#45;&gt;Node3</title>
<g id="a_edge5_Node000004_Node000003"><a xlink:title=" ">
<path fill="none" stroke="#63b8ff" d="M146.35,-120.98C158.64,-112.84 177.41,-100.41 191.98,-90.76"/>
<polygon fill="#63b8ff" stroke="#63b8ff" points="194.01,-93.61 200.41,-85.17 190.14,-87.78 194.01,-93.61"/>
</a>
</g>
</g>
<!-- Node5 -->
<g id="Node000005" class="node">
<title>Node5</title>
<g id="a_Node000005"><a xlink:href="rp2__common_2pico__clib__interface_2include_2llvm__libc_2sys_2time_8h.html" target="_top" xlink:title=" ">
<polygon fill="white" stroke="#666666" points="167.5,-85 99.5,-85 99.5,-66 167.5,-66 167.5,-85"/>
<text text-anchor="middle" x="133.5" y="-73" font-family="Helvetica,sans-Serif" font-size="10.00">sys/time.h</text>
</a>
</g>
</g>
<!-- Node4&#45;&gt;Node5 -->
<g id="edge6_Node000004_Node000005" class="edge">
<title>Node4&#45;&gt;Node5</title>
<g id="a_edge6_Node000004_Node000005"><a xlink:title=" ">
<path fill="none" stroke="#63b8ff" d="M133.5,-120.75C133.5,-113.8 133.5,-103.85 133.5,-95.13"/>
<polygon fill="#63b8ff" stroke="#63b8ff" points="137,-95.09 133.5,-85.09 130,-95.09 137,-95.09"/>
</a>
</g>
</g>
<!-- Node6 -->
<g id="Node000006" class="node">
<title>Node6</title>
<g id="a_Node000006"><a xlink:title=" ">
<polygon fill="#e0e0e0" stroke="#999999" points="125,-24.5 0,-24.5 0,-5.5 125,-5.5 125,-24.5"/>
<text text-anchor="middle" x="62.5" y="-12.5" font-family="Helvetica,sans-Serif" font-size="10.00">__llvm&#45;libc&#45;common.h</text>
</a>
</g>
</g>
<!-- Node5&#45;&gt;Node6 -->
<g id="edge7_Node000005_Node000006" class="edge">
<title>Node5&#45;&gt;Node6</title>
<g id="a_edge7_Node000005_Node000006"><a xlink:title=" ">
<path fill="none" stroke="#63b8ff" d="M123.02,-65.87C112.01,-56.8 94.46,-42.34 81.09,-31.32"/>
<polygon fill="#63b8ff" stroke="#63b8ff" points="82.96,-28.33 73.02,-24.67 78.51,-33.73 82.96,-28.33"/>
</a>
</g>
</g>
<!-- Node7 -->
<g id="Node000007" class="node">
<title>Node7</title>
<g id="a_Node000007"><a xlink:title=" ">
<polygon fill="#e0e0e0" stroke="#999999" points="264,-30 143,-30 143,0 264,0 264,-30"/>
<text text-anchor="start" x="151" y="-18" font-family="Helvetica,sans-Serif" font-size="10.00">llvm&#45;libc&#45;types/struct</text>
<text text-anchor="middle" x="203.5" y="-7" font-family="Helvetica,sans-Serif" font-size="10.00">_timeval.h</text>
</a>
</g>
</g>
<!-- Node5&#45;&gt;Node7 -->
<g id="edge8_Node000005_Node000007" class="edge">
<title>Node5&#45;&gt;Node7</title>
<g id="a_edge8_Node000005_Node000007"><a xlink:title=" ">
<path fill="none" stroke="#63b8ff" d="M143.83,-65.87C152.98,-58.22 166.69,-46.76 178.67,-36.75"/>
<polygon fill="#63b8ff" stroke="#63b8ff" points="181.18,-39.21 186.61,-30.11 176.69,-33.84 181.18,-39.21"/>
</a>
</g>
</g>
</g>
</svg>
