<?xml version="1.0" encoding="UTF-8" standalone="no"?>
<!DOCTYPE svg PUBLIC "-//W3C//DTD SVG 1.1//EN"
 "http://www.w3.org/Graphics/SVG/1.1/DTD/svg11.dtd">
<!-- Generated by graphviz version 2.43.0 (0)
 -->
<!-- Title: assert.h Pages: 1 -->
<svg width="1241pt" height="203pt"
 viewBox="0.00 0.00 1240.50 203.50" xmlns="http://www.w3.org/2000/svg" xmlns:xlink="http://www.w3.org/1999/xlink">
<g id="graph0" class="graph" transform="scale(1 1) rotate(0) translate(4 199.5)">
<title>assert.h</title>
<!-- Node1 -->
<g id="Node000001" class="node">
<title>Node1</title>
<g id="a_Node000001"><a xlink:title=" ">
<polygon fill="#999999" stroke="#666666" points="783.5,-195 727.5,-195 727.5,-176 783.5,-176 783.5,-195"/>
<text text-anchor="middle" x="755.5" y="-183" font-family="Helvetica,sans-Serif" font-size="10.00">assert.h</text>
</a>
</g>
</g>
<!-- Node1&#45;&gt;Node1 -->
<g id="edge1_Node000001_Node000001" class="edge">
<title>Node1&#45;&gt;Node1</title>
<g id="a_edge1_Node000001_Node000001"><a xlink:title=" ">
<path fill="none" stroke="#63b8ff" d="M787.41,-195.5C795.47,-194.82 801.5,-191.49 801.5,-185.5 801.5,-177.17 789.82,-173.98 777.27,-175.93"/>
<polygon fill="#63b8ff" stroke="#63b8ff" points="787.41,-191.99 777.27,-195.07 787.11,-198.99 787.41,-191.99"/>
</a>
</g>
</g>
<!-- Node2 -->
<g id="Node000002" class="node">
<title>Node2</title>
<g id="a_Node000002"><a xlink:href="cybt__shared__bus__driver_8c.html" target="_top" xlink:title=" ">
<polygon fill="white" stroke="#666666" points="394.5,-140 254.5,-140 254.5,-121 394.5,-121 394.5,-140"/>
<text text-anchor="middle" x="324.5" y="-128" font-family="Helvetica,sans-Serif" font-size="10.00">cybt_shared_bus_driver.c</text>
</a>
</g>
</g>
<!-- Node1&#45;&gt;Node2 -->
<g id="edge2_Node000001_Node000002" class="edge">
<title>Node1&#45;&gt;Node2</title>
<g id="a_edge2_Node000001_Node000002"><a xlink:title=" ">
<path fill="none" stroke="#63b8ff" d="M717.13,-179.78C644.38,-170.84 485.48,-151.3 393.69,-140.01"/>
<polygon fill="#63b8ff" stroke="#63b8ff" points="716.87,-183.28 727.22,-181.02 717.72,-176.33 716.87,-183.28"/>
</a>
</g>
</g>
<!-- Node3 -->
<g id="Node000003" class="node">
<title>Node3</title>
<g id="a_Node000003"><a xlink:href="rp2__common_2hardware__dma_2include_2hardware_2dma_8h.html" target="_top" xlink:title=" ">
<polygon fill="white" stroke="#666666" points="460,-140 413,-140 413,-121 460,-121 460,-140"/>
<text text-anchor="middle" x="436.5" y="-128" font-family="Helvetica,sans-Serif" font-size="10.00">dma.h</text>
</a>
</g>
</g>
<!-- Node1&#45;&gt;Node3 -->
<g id="edge3_Node000001_Node000003" class="edge">
<title>Node1&#45;&gt;Node3</title>
<g id="a_edge3_Node000001_Node000003"><a xlink:title=" ">
<path fill="none" stroke="#63b8ff" d="M717.41,-178.17C650.86,-167.11 515.29,-144.59 460.39,-135.47"/>
<polygon fill="#63b8ff" stroke="#63b8ff" points="717.03,-181.66 727.47,-179.84 718.18,-174.75 717.03,-181.66"/>
</a>
</g>
</g>
<!-- Node13 -->
<g id="Node000013" class="node">
<title>Node13</title>
<g id="a_Node000013"><a xlink:href="rp2__common_2hardware__irq_2irq_8c.html" target="_top" xlink:title=" ">
<polygon fill="white" stroke="#666666" points="608.5,-140 570.5,-140 570.5,-121 608.5,-121 608.5,-140"/>
<text text-anchor="middle" x="589.5" y="-128" font-family="Helvetica,sans-Serif" font-size="10.00">irq.c</text>
</a>
</g>
</g>
<!-- Node1&#45;&gt;Node13 -->
<g id="edge13_Node000001_Node000013" class="edge">
<title>Node1&#45;&gt;Node13</title>
<g id="a_edge13_Node000001_Node000013"><a xlink:title=" ">
<path fill="none" stroke="#63b8ff" d="M719.26,-172.93C685.3,-162.09 635.84,-146.29 608.84,-137.68"/>
<polygon fill="#63b8ff" stroke="#63b8ff" points="718.24,-176.28 728.83,-175.98 720.37,-169.61 718.24,-176.28"/>
</a>
</g>
</g>
<!-- Node14 -->
<g id="Node000014" class="node">
<title>Node14</title>
<g id="a_Node000014"><a xlink:href="picoboot_8h.html" target="_top" xlink:title=" ">
<polygon fill="white" stroke="#666666" points="694.5,-140 626.5,-140 626.5,-121 694.5,-121 694.5,-140"/>
<text text-anchor="middle" x="660.5" y="-128" font-family="Helvetica,sans-Serif" font-size="10.00">picoboot.h</text>
</a>
</g>
</g>
<!-- Node1&#45;&gt;Node14 -->
<g id="edge14_Node000001_Node000014" class="edge">
<title>Node1&#45;&gt;Node14</title>
<g id="a_edge14_Node000001_Node000014"><a xlink:title=" ">
<path fill="none" stroke="#63b8ff" d="M731.24,-170.97C713.87,-161.28 691.01,-148.52 676.04,-140.17"/>
<polygon fill="#63b8ff" stroke="#63b8ff" points="729.8,-174.17 740.24,-175.98 733.21,-168.06 729.8,-174.17"/>
</a>
</g>
</g>
<!-- Node16 -->
<g id="Node000016" class="node">
<title>Node16</title>
<g id="a_Node000016"><a xlink:href="ssd1306__i2c_8c.html" target="_top" xlink:title=" ">
<polygon fill="white" stroke="#666666" points="798,-140 713,-140 713,-121 798,-121 798,-140"/>
<text text-anchor="middle" x="755.5" y="-128" font-family="Helvetica,sans-Serif" font-size="10.00">ssd1306_i2c.c</text>
</a>
</g>
</g>
<!-- Node1&#45;&gt;Node16 -->
<g id="edge16_Node000001_Node000016" class="edge">
<title>Node1&#45;&gt;Node16</title>
<g id="a_edge16_Node000001_Node000016"><a xlink:title=" ">
<path fill="none" stroke="#63b8ff" d="M755.5,-165.66C755.5,-156.93 755.5,-146.99 755.5,-140.09"/>
<polygon fill="#63b8ff" stroke="#63b8ff" points="752,-165.75 755.5,-175.75 759,-165.75 752,-165.75"/>
</a>
</g>
</g>
<!-- Node17 -->
<g id="Node000017" class="node">
<title>Node17</title>
<g id="a_Node000017"><a xlink:href="rp2__common_2pico__time__adapter_2include_2pico_2time__adapter_8h.html" target="_top" xlink:title=" ">
<polygon fill="white" stroke="#666666" points="907,-140 816,-140 816,-121 907,-121 907,-140"/>
<text text-anchor="middle" x="861.5" y="-128" font-family="Helvetica,sans-Serif" font-size="10.00">time_adapter.h</text>
</a>
</g>
</g>
<!-- Node1&#45;&gt;Node17 -->
<g id="edge17_Node000001_Node000017" class="edge">
<title>Node1&#45;&gt;Node17</title>
<g id="a_edge17_Node000001_Node000017"><a xlink:title=" ">
<path fill="none" stroke="#63b8ff" d="M781.5,-171.5C801,-161.75 827.15,-148.68 844.16,-140.17"/>
<polygon fill="#63b8ff" stroke="#63b8ff" points="779.91,-168.38 772.53,-175.98 783.04,-174.64 779.91,-168.38"/>
</a>
</g>
</g>
<!-- Node18 -->
<g id="Node000018" class="node">
<title>Node18</title>
<g id="a_Node000018"><a xlink:href="common_2pico__base__headers_2include_2pico_2types_8h.html" target="_top" xlink:title=" ">
<polygon fill="white" stroke="#666666" points="978,-140 925,-140 925,-121 978,-121 978,-140"/>
<text text-anchor="middle" x="951.5" y="-128" font-family="Helvetica,sans-Serif" font-size="10.00">types.h</text>
</a>
</g>
</g>
<!-- Node1&#45;&gt;Node18 -->
<g id="edge18_Node000001_Node000018" class="edge">
<title>Node1&#45;&gt;Node18</title>
<g id="a_edge18_Node000001_Node000018"><a xlink:title=" ">
<path fill="none" stroke="#63b8ff" d="M793.4,-174.25C831.97,-163.82 890.76,-147.92 924.73,-138.74"/>
<polygon fill="#63b8ff" stroke="#63b8ff" points="792.32,-170.92 783.58,-176.91 794.15,-177.67 792.32,-170.92"/>
</a>
</g>
</g>
<!-- Node28 -->
<g id="Node000028" class="node">
<title>Node28</title>
<g id="a_Node000028"><a xlink:href="rp2__common_2hardware__uart_2uart_8c.html" target="_top" xlink:title=" ">
<polygon fill="white" stroke="#666666" points="1040.5,-140 996.5,-140 996.5,-121 1040.5,-121 1040.5,-140"/>
<text text-anchor="middle" x="1018.5" y="-128" font-family="Helvetica,sans-Serif" font-size="10.00">uart.c</text>
</a>
</g>
</g>
<!-- Node1&#45;&gt;Node28 -->
<g id="edge28_Node000001_Node000028" class="edge">
<title>Node1&#45;&gt;Node28</title>
<g id="a_edge28_Node000001_Node000028"><a xlink:title=" ">
<path fill="none" stroke="#63b8ff" d="M793.65,-178.13C839.78,-170.2 919.68,-155.78 987.5,-140 990.33,-139.34 993.28,-138.6 996.2,-137.84"/>
<polygon fill="#63b8ff" stroke="#63b8ff" points="792.77,-174.72 783.5,-179.86 793.95,-181.62 792.77,-174.72"/>
</a>
</g>
</g>
<!-- Node29 -->
<g id="Node000029" class="node">
<title>Node29</title>
<g id="a_Node000029"><a xlink:href="uf2_8h.html" target="_top" xlink:title=" ">
<polygon fill="white" stroke="#666666" points="1100,-140 1059,-140 1059,-121 1100,-121 1100,-140"/>
<text text-anchor="middle" x="1079.5" y="-128" font-family="Helvetica,sans-Serif" font-size="10.00">uf2.h</text>
</a>
</g>
</g>
<!-- Node1&#45;&gt;Node29 -->
<g id="edge29_Node000001_Node000029" class="edge">
<title>Node1&#45;&gt;Node29</title>
<g id="a_edge29_Node000001_Node000029"><a xlink:title=" ">
<path fill="none" stroke="#63b8ff" d="M793.93,-180.25C850.34,-173.66 958.73,-159.65 1049.5,-140 1052.57,-139.34 1055.79,-138.54 1058.93,-137.7"/>
<polygon fill="#63b8ff" stroke="#63b8ff" points="793.22,-176.81 783.68,-181.43 794.02,-183.76 793.22,-176.81"/>
</a>
</g>
</g>
<!-- Node4 -->
<g id="Node000004" class="node">
<title>Node4</title>
<g id="a_Node000004"><a xlink:href="cyw43__bus__pio__spi_8c.html" target="_top" xlink:title=" ">
<polygon fill="white" stroke="#666666" points="119,-79.5 0,-79.5 0,-60.5 119,-60.5 119,-79.5"/>
<text text-anchor="middle" x="59.5" y="-67.5" font-family="Helvetica,sans-Serif" font-size="10.00">cyw43_bus_pio_spi.c</text>
</a>
</g>
</g>
<!-- Node3&#45;&gt;Node4 -->
<g id="edge4_Node000003_Node000004" class="edge">
<title>Node3&#45;&gt;Node4</title>
<g id="a_edge4_Node000003_Node000004"><a xlink:title=" ">
<path fill="none" stroke="#63b8ff" d="M402.65,-121.07C280.26,-97.93 246.28,-104.95 127.5,-85 118.11,-83.42 108.04,-81.49 98.6,-79.56"/>
<polygon fill="#63b8ff" stroke="#63b8ff" points="402.31,-124.57 412.79,-123.02 403.63,-117.7 402.31,-124.57"/>
</a>
</g>
</g>
<!-- Node5 -->
<g id="Node000005" class="node">
<title>Node5</title>
<g id="a_Node000005"><a xlink:href="dma_8c.html" target="_top" xlink:title=" ">
<polygon fill="white" stroke="#666666" points="184,-79.5 137,-79.5 137,-60.5 184,-60.5 184,-79.5"/>
<text text-anchor="middle" x="160.5" y="-67.5" font-family="Helvetica,sans-Serif" font-size="10.00">dma.c</text>
</a>
</g>
</g>
<!-- Node3&#45;&gt;Node5 -->
<g id="edge5_Node000003_Node000005" class="edge">
<title>Node3&#45;&gt;Node5</title>
<g id="a_edge5_Node000003_Node000005"><a xlink:title=" ">
<path fill="none" stroke="#63b8ff" d="M402.82,-121.05C308.62,-101.82 280.62,-111.36 192.5,-85 187.74,-83.57 182.74,-81.63 178.15,-79.64"/>
<polygon fill="#63b8ff" stroke="#63b8ff" points="402.26,-124.51 412.76,-123.13 403.69,-117.66 402.26,-124.51"/>
</a>
</g>
</g>
<!-- Node6 -->
<g id="Node000006" class="node">
<title>Node6</title>
<g id="a_Node000006"><a xlink:href="hardware__irq__test_8c.html" target="_top" xlink:title=" ">
<polygon fill="white" stroke="#666666" points="315,-79.5 202,-79.5 202,-60.5 315,-60.5 315,-79.5"/>
<text text-anchor="middle" x="258.5" y="-67.5" font-family="Helvetica,sans-Serif" font-size="10.00">hardware_irq_test.c</text>
</a>
</g>
</g>
<!-- Node3&#45;&gt;Node6 -->
<g id="edge6_Node000003_Node000006" class="edge">
<title>Node3&#45;&gt;Node6</title>
<g id="a_edge6_Node000003_Node000006"><a xlink:title=" ">
<path fill="none" stroke="#63b8ff" d="M403.27,-118.58C368.92,-107.29 315.99,-89.9 284.55,-79.56"/>
<polygon fill="#63b8ff" stroke="#63b8ff" points="402.27,-121.93 412.86,-121.73 404.46,-115.28 402.27,-121.93"/>
</a>
</g>
</g>
<!-- Node7 -->
<g id="Node000007" class="node">
<title>Node7</title>
<g id="a_Node000007"><a xlink:href="kitchen__sink_8c.html" target="_top" xlink:title=" ">
<polygon fill="white" stroke="#666666" points="419.5,-79.5 333.5,-79.5 333.5,-60.5 419.5,-60.5 419.5,-79.5"/>
<text text-anchor="middle" x="376.5" y="-67.5" font-family="Helvetica,sans-Serif" font-size="10.00">kitchen_sink.c</text>
</a>
</g>
</g>
<!-- Node3&#45;&gt;Node7 -->
<g id="edge7_Node000003_Node000007" class="edge">
<title>Node3&#45;&gt;Node7</title>
<g id="a_edge7_Node000003_Node000007"><a xlink:title=" ">
<path fill="none" stroke="#63b8ff" d="M420.18,-113.59C408.98,-102.67 394.53,-88.58 385.39,-79.67"/>
<polygon fill="#63b8ff" stroke="#63b8ff" points="418.04,-116.39 427.65,-120.87 422.93,-111.38 418.04,-116.39"/>
</a>
</g>
</g>
<!-- Node9 -->
<g id="Node000009" class="node">
<title>Node9</title>
<g id="a_Node000009"><a xlink:href="pico__divider__nesting__test_8c.html" target="_top" xlink:title=" ">
<polygon fill="white" stroke="#666666" points="555,-85 438,-85 438,-55 555,-55 555,-85"/>
<text text-anchor="start" x="446" y="-73" font-family="Helvetica,sans-Serif" font-size="10.00">pico_divider_nesting</text>
<text text-anchor="middle" x="496.5" y="-62" font-family="Helvetica,sans-Serif" font-size="10.00">_test.c</text>
</a>
</g>
</g>
<!-- Node3&#45;&gt;Node9 -->
<g id="edge9_Node000003_Node000009" class="edge">
<title>Node3&#45;&gt;Node9</title>
<g id="a_edge9_Node000003_Node000009"><a xlink:title=" ">
<path fill="none" stroke="#63b8ff" d="M452.71,-113.7C461.85,-104.78 473.18,-93.74 482.02,-85.11"/>
<polygon fill="#63b8ff" stroke="#63b8ff" points="450.07,-111.38 445.35,-120.87 454.96,-116.39 450.07,-111.38"/>
</a>
</g>
</g>
<!-- Node10 -->
<g id="Node000010" class="node">
<title>Node10</title>
<g id="a_Node000010"><a xlink:href="rp2__common_2pico__sha256_2include_2pico_2sha256_8h.html" target="_top" xlink:title=" ">
<polygon fill="white" stroke="#666666" points="634,-79.5 573,-79.5 573,-60.5 634,-60.5 634,-79.5"/>
<text text-anchor="middle" x="603.5" y="-67.5" font-family="Helvetica,sans-Serif" font-size="10.00">sha256.h</text>
</a>
</g>
</g>
<!-- Node3&#45;&gt;Node10 -->
<g id="edge10_Node000003_Node000010" class="edge">
<title>Node3&#45;&gt;Node10</title>
<g id="a_edge10_Node000003_Node000010"><a xlink:title=" ">
<path fill="none" stroke="#63b8ff" d="M469.55,-117.92C501.86,-106.6 550.32,-89.63 579.23,-79.5"/>
<polygon fill="#63b8ff" stroke="#63b8ff" points="468.35,-114.63 460.07,-121.24 470.67,-121.24 468.35,-114.63"/>
</a>
</g>
</g>
<!-- Node8 -->
<g id="Node000008" class="node">
<title>Node8</title>
<g id="a_Node000008"><a xlink:href="kitchen__sink__cpp_8cpp.html" target="_top" xlink:title=" ">
<polygon fill="white" stroke="#666666" points="437,-19 316,-19 316,0 437,0 437,-19"/>
<text text-anchor="middle" x="376.5" y="-7" font-family="Helvetica,sans-Serif" font-size="10.00">kitchen_sink_cpp.cpp</text>
</a>
</g>
</g>
<!-- Node7&#45;&gt;Node8 -->
<g id="edge8_Node000007_Node000008" class="edge">
<title>Node7&#45;&gt;Node8</title>
<g id="a_edge8_Node000007_Node000008"><a xlink:title=" ">
<path fill="none" stroke="#63b8ff" d="M376.5,-50.16C376.5,-39.74 376.5,-27.3 376.5,-19.17"/>
<polygon fill="#63b8ff" stroke="#63b8ff" points="373,-50.37 376.5,-60.37 380,-50.37 373,-50.37"/>
</a>
</g>
</g>
<!-- Node11 -->
<g id="Node000011" class="node">
<title>Node11</title>
<g id="a_Node000011"><a xlink:href="pico__sha256__test_8c.html" target="_top" xlink:title=" ">
<polygon fill="white" stroke="#666666" points="584.5,-19 474.5,-19 474.5,0 584.5,0 584.5,-19"/>
<text text-anchor="middle" x="529.5" y="-7" font-family="Helvetica,sans-Serif" font-size="10.00">pico_sha256_test.c</text>
</a>
</g>
</g>
<!-- Node10&#45;&gt;Node11 -->
<g id="edge11_Node000010_Node000011" class="edge">
<title>Node10&#45;&gt;Node11</title>
<g id="a_edge11_Node000010_Node000011"><a xlink:title=" ">
<path fill="none" stroke="#63b8ff" d="M584.57,-54.04C570.6,-42.99 552.07,-28.34 540.46,-19.17"/>
<polygon fill="#63b8ff" stroke="#63b8ff" points="582.57,-56.91 592.58,-60.37 586.91,-51.42 582.57,-56.91"/>
</a>
</g>
</g>
<!-- Node12 -->
<g id="Node000012" class="node">
<title>Node12</title>
<g id="a_Node000012"><a xlink:href="pico__sha256_2sha256_8c.html" target="_top" xlink:title=" ">
<polygon fill="white" stroke="#666666" points="662.5,-19 602.5,-19 602.5,0 662.5,0 662.5,-19"/>
<text text-anchor="middle" x="632.5" y="-7" font-family="Helvetica,sans-Serif" font-size="10.00">sha256.c</text>
</a>
</g>
</g>
<!-- Node10&#45;&gt;Node12 -->
<g id="edge12_Node000010_Node000012" class="edge">
<title>Node10&#45;&gt;Node12</title>
<g id="a_edge12_Node000010_Node000012"><a xlink:title=" ">
<path fill="none" stroke="#63b8ff" d="M612.35,-51.15C617.61,-40.54 624.04,-27.56 628.2,-19.17"/>
<polygon fill="#63b8ff" stroke="#63b8ff" points="609.08,-49.85 607.78,-60.37 615.36,-52.96 609.08,-49.85"/>
</a>
</g>
</g>
<!-- Node15 -->
<g id="Node000015" class="node">
<title>Node15</title>
<g id="a_Node000015"><a xlink:href="bootrom_8c.html" target="_top" xlink:title=" ">
<polygon fill="white" stroke="#666666" points="718.5,-79.5 652.5,-79.5 652.5,-60.5 718.5,-60.5 718.5,-79.5"/>
<text text-anchor="middle" x="685.5" y="-67.5" font-family="Helvetica,sans-Serif" font-size="10.00">bootrom.c</text>
</a>
</g>
</g>
<!-- Node14&#45;&gt;Node15 -->
<g id="edge15_Node000014_Node000015" class="edge">
<title>Node14&#45;&gt;Node15</title>
<g id="a_edge15_Node000014_Node000015"><a xlink:title=" ">
<path fill="none" stroke="#63b8ff" d="M668.13,-111.65C672.66,-101.04 678.21,-88.06 681.8,-79.67"/>
<polygon fill="#63b8ff" stroke="#63b8ff" points="664.9,-110.3 664.19,-120.87 671.34,-113.05 664.9,-110.3"/>
</a>
</g>
</g>
<!-- Node19 -->
<g id="Node000019" class="node">
<title>Node19</title>
<g id="a_Node000019"><a xlink:href="compiler_8h.html" target="_top" xlink:title="Macros and definitions (and functions when included by non assembly code) to adapt for different comp...">
<polygon fill="white" stroke="#666666" points="804.5,-79.5 736.5,-79.5 736.5,-60.5 804.5,-60.5 804.5,-79.5"/>
<text text-anchor="middle" x="770.5" y="-67.5" font-family="Helvetica,sans-Serif" font-size="10.00">compiler.h</text>
</a>
</g>
</g>
<!-- Node18&#45;&gt;Node19 -->
<g id="edge19_Node000018_Node000019" class="edge">
<title>Node18&#45;&gt;Node19</title>
<g id="a_edge19_Node000018_Node000019"><a xlink:title=" ">
<path fill="none" stroke="#63b8ff" d="M915.33,-117.87C887.49,-108.91 848.05,-96.2 813.5,-85 808.12,-83.26 802.37,-81.39 796.88,-79.6"/>
<polygon fill="#63b8ff" stroke="#63b8ff" points="914.45,-121.26 925.04,-120.99 916.59,-114.6 914.45,-121.26"/>
</a>
</g>
</g>
<!-- Node22 -->
<g id="Node000022" class="node">
<title>Node22</title>
<g id="a_Node000022"><a xlink:href="int64__ops_8h.html" target="_top" xlink:title=" ">
<polygon fill="white" stroke="#666666" points="896,-79.5 823,-79.5 823,-60.5 896,-60.5 896,-79.5"/>
<text text-anchor="middle" x="859.5" y="-67.5" font-family="Helvetica,sans-Serif" font-size="10.00">int64_ops.h</text>
</a>
</g>
</g>
<!-- Node18&#45;&gt;Node22 -->
<g id="edge22_Node000018_Node000022" class="edge">
<title>Node18&#45;&gt;Node22</title>
<g id="a_edge22_Node000018_Node000022"><a xlink:title=" ">
<path fill="none" stroke="#63b8ff" d="M929.43,-115.47C911.91,-104.32 887.97,-89.1 873.13,-79.67"/>
<polygon fill="#63b8ff" stroke="#63b8ff" points="927.61,-118.46 937.93,-120.87 931.36,-112.55 927.61,-118.46"/>
</a>
</g>
</g>
<!-- Node23 -->
<g id="Node000023" class="node">
<title>Node23</title>
<g id="a_Node000023"><a xlink:href="mem__ops_8h.html" target="_top" xlink:title=" ">
<polygon fill="white" stroke="#666666" points="988.5,-79.5 914.5,-79.5 914.5,-60.5 988.5,-60.5 988.5,-79.5"/>
<text text-anchor="middle" x="951.5" y="-67.5" font-family="Helvetica,sans-Serif" font-size="10.00">mem_ops.h</text>
</a>
</g>
</g>
<!-- Node18&#45;&gt;Node23 -->
<g id="edge23_Node000018_Node000023" class="edge">
<title>Node18&#45;&gt;Node23</title>
<g id="a_edge23_Node000018_Node000023"><a xlink:title=" ">
<path fill="none" stroke="#63b8ff" d="M951.5,-110.66C951.5,-100.24 951.5,-87.8 951.5,-79.67"/>
<polygon fill="#63b8ff" stroke="#63b8ff" points="948,-110.87 951.5,-120.87 955,-110.87 948,-110.87"/>
</a>
</g>
</g>
<!-- Node25 -->
<g id="Node000025" class="node">
<title>Node25</title>
<g id="a_Node000025"><a xlink:href="host_2pico__multicore_2include_2pico_2multicore_8h.html" target="_top" xlink:title=" ">
<polygon fill="white" stroke="#666666" points="1078.5,-79.5 1006.5,-79.5 1006.5,-60.5 1078.5,-60.5 1078.5,-79.5"/>
<text text-anchor="middle" x="1042.5" y="-67.5" font-family="Helvetica,sans-Serif" font-size="10.00">multicore.h</text>
</a>
</g>
</g>
<!-- Node18&#45;&gt;Node25 -->
<g id="edge25_Node000018_Node000025" class="edge">
<title>Node18&#45;&gt;Node25</title>
<g id="a_edge25_Node000018_Node000025"><a xlink:title=" ">
<path fill="none" stroke="#63b8ff" d="M973.81,-115.16C991.1,-104.05 1014.48,-89.01 1029.02,-79.67"/>
<polygon fill="#63b8ff" stroke="#63b8ff" points="971.45,-112.52 964.93,-120.87 975.23,-118.4 971.45,-112.52"/>
</a>
</g>
</g>
<!-- Node26 -->
<g id="Node000026" class="node">
<title>Node26</title>
<g id="a_Node000026"><a xlink:href="rp2__common_2pico__multicore_2include_2pico_2multicore_8h.html" target="_top" xlink:title=" ">
<polygon fill="white" stroke="#666666" points="1168.5,-79.5 1096.5,-79.5 1096.5,-60.5 1168.5,-60.5 1168.5,-79.5"/>
<text text-anchor="middle" x="1132.5" y="-67.5" font-family="Helvetica,sans-Serif" font-size="10.00">multicore.h</text>
</a>
</g>
</g>
<!-- Node18&#45;&gt;Node26 -->
<g id="edge26_Node000018_Node000026" class="edge">
<title>Node18&#45;&gt;Node26</title>
<g id="a_edge26_Node000018_Node000026"><a xlink:title=" ">
<path fill="none" stroke="#63b8ff" d="M987.65,-117.82C1022.65,-106.5 1074.9,-89.62 1106.15,-79.52"/>
<polygon fill="#63b8ff" stroke="#63b8ff" points="986.26,-114.59 977.82,-120.99 988.41,-121.25 986.26,-114.59"/>
</a>
</g>
</g>
<!-- Node27 -->
<g id="Node000027" class="node">
<title>Node27</title>
<g id="a_Node000027"><a xlink:href="common_2pico__base__headers_2include_2pico_8h.html" target="_top" xlink:title=" ">
<polygon fill="white" stroke="#666666" points="1232.5,-79.5 1186.5,-79.5 1186.5,-60.5 1232.5,-60.5 1232.5,-79.5"/>
<text text-anchor="middle" x="1209.5" y="-67.5" font-family="Helvetica,sans-Serif" font-size="10.00">pico.h</text>
</a>
</g>
</g>
<!-- Node18&#45;&gt;Node27 -->
<g id="edge27_Node000018_Node000027" class="edge">
<title>Node18&#45;&gt;Node27</title>
<g id="a_edge27_Node000018_Node000027"><a xlink:title=" ">
<path fill="none" stroke="#63b8ff" d="M988.06,-121C1073.36,-103.6 1098.35,-109.47 1177.5,-85 1182.25,-83.53 1187.24,-81.57 1191.83,-79.58"/>
<polygon fill="#63b8ff" stroke="#63b8ff" points="987.28,-117.58 978.21,-123.05 988.71,-124.44 987.28,-117.58"/>
</a>
</g>
</g>
<!-- Node20 -->
<g id="Node000020" class="node">
<title>Node20</title>
<g id="a_Node000020"><a xlink:href="rp2040_2pico__platform_2include_2pico_2platform_8h.html" target="_top" xlink:title=" ">
<polygon fill="white" stroke="#666666" points="767.5,-19 699.5,-19 699.5,0 767.5,0 767.5,-19"/>
<text text-anchor="middle" x="733.5" y="-7" font-family="Helvetica,sans-Serif" font-size="10.00">platform.h</text>
</a>
</g>
</g>
<!-- Node19&#45;&gt;Node20 -->
<g id="edge20_Node000019_Node000020" class="edge">
<title>Node19&#45;&gt;Node20</title>
<g id="a_edge20_Node000019_Node000020"><a xlink:title=" ">
<path fill="none" stroke="#63b8ff" d="M759.62,-51.8C752.84,-41.08 744.4,-27.73 738.98,-19.17"/>
<polygon fill="#63b8ff" stroke="#63b8ff" points="756.74,-53.79 765.04,-60.37 762.65,-50.05 756.74,-53.79"/>
</a>
</g>
</g>
<!-- Node21 -->
<g id="Node000021" class="node">
<title>Node21</title>
<g id="a_Node000021"><a xlink:href="rp2350_2pico__platform_2include_2pico_2platform_8h.html" target="_top" xlink:title=" ">
<polygon fill="white" stroke="#666666" points="853.5,-19 785.5,-19 785.5,0 853.5,0 853.5,-19"/>
<text text-anchor="middle" x="819.5" y="-7" font-family="Helvetica,sans-Serif" font-size="10.00">platform.h</text>
</a>
</g>
</g>
<!-- Node19&#45;&gt;Node21 -->
<g id="edge21_Node000019_Node000021" class="edge">
<title>Node19&#45;&gt;Node21</title>
<g id="a_edge21_Node000019_Node000021"><a xlink:title=" ">
<path fill="none" stroke="#63b8ff" d="M784.36,-52.45C793.43,-41.62 804.92,-27.91 812.24,-19.17"/>
<polygon fill="#63b8ff" stroke="#63b8ff" points="781.47,-50.45 777.73,-60.37 786.83,-54.95 781.47,-50.45"/>
</a>
</g>
</g>
<!-- Node24 -->
<g id="Node000024" class="node">
<title>Node24</title>
<g id="a_Node000024"><a xlink:href="mem__ops_8c.html" target="_top" xlink:title=" ">
<polygon fill="white" stroke="#666666" points="988,-19 915,-19 915,0 988,0 988,-19"/>
<text text-anchor="middle" x="951.5" y="-7" font-family="Helvetica,sans-Serif" font-size="10.00">mem_ops.c</text>
</a>
</g>
</g>
<!-- Node23&#45;&gt;Node24 -->
<g id="edge24_Node000023_Node000024" class="edge">
<title>Node23&#45;&gt;Node24</title>
<g id="a_edge24_Node000023_Node000024"><a xlink:title=" ">
<path fill="none" stroke="#63b8ff" d="M951.5,-50.16C951.5,-39.74 951.5,-27.3 951.5,-19.17"/>
<polygon fill="#63b8ff" stroke="#63b8ff" points="948,-50.37 951.5,-60.37 955,-50.37 948,-50.37"/>
</a>
</g>
</g>
</g>
</svg>
