<?xml version="1.0" encoding="UTF-8" standalone="no"?>
<!DOCTYPE svg PUBLIC "-//W3C//DTD SVG 1.1//EN"
 "http://www.w3.org/Graphics/SVG/1.1/DTD/svg11.dtd">
<!-- Generated by graphviz version 2.43.0 (0)
 -->
<!-- Title: async_context_base.c Pages: 1 -->
<svg width="181pt" height="258pt"
 viewBox="0.00 0.00 180.50 258.00" xmlns="http://www.w3.org/2000/svg" xmlns:xlink="http://www.w3.org/1999/xlink">
<g id="graph0" class="graph" transform="scale(1 1) rotate(0) translate(4 254)">
<title>async_context_base.c</title>
<!-- Node1 -->
<g id="Node000001" class="node">
<title>Node1</title>
<g id="a_Node000001"><a xlink:title=" ">
<polygon fill="#999999" stroke="#666666" points="124,-250 0,-250 0,-231 124,-231 124,-250"/>
<text text-anchor="middle" x="62" y="-238" font-family="Helvetica,sans-Serif" font-size="10.00">async_context_base.c</text>
</a>
</g>
</g>
<!-- Node2 -->
<g id="Node000002" class="node">
<title>Node2</title>
<g id="a_Node000002"><a xlink:href="async__context__base_8h.html" target="_top" xlink:title=" ">
<polygon fill="white" stroke="#666666" points="117,-195 7,-195 7,-165 117,-165 117,-195"/>
<text text-anchor="start" x="15" y="-183" font-family="Helvetica,sans-Serif" font-size="10.00">pico/async_context</text>
<text text-anchor="middle" x="62" y="-172" font-family="Helvetica,sans-Serif" font-size="10.00">_base.h</text>
</a>
</g>
</g>
<!-- Node1&#45;&gt;Node2 -->
<g id="edge1_Node000001_Node000002" class="edge">
<title>Node1&#45;&gt;Node2</title>
<g id="a_edge1_Node000001_Node000002"><a xlink:title=" ">
<path fill="none" stroke="#63b8ff" d="M62,-230.87C62,-224.11 62,-214.35 62,-205.26"/>
<polygon fill="#63b8ff" stroke="#63b8ff" points="65.5,-205.11 62,-195.11 58.5,-205.11 65.5,-205.11"/>
</a>
</g>
</g>
<!-- Node3 -->
<g id="Node000003" class="node">
<title>Node3</title>
<g id="a_Node000003"><a xlink:href="async__context_8h.html" target="_top" xlink:title=" ">
<polygon fill="white" stroke="#666666" points="121.5,-129 2.5,-129 2.5,-110 121.5,-110 121.5,-129"/>
<text text-anchor="middle" x="62" y="-117" font-family="Helvetica,sans-Serif" font-size="10.00">pico/async_context.h</text>
</a>
</g>
</g>
<!-- Node2&#45;&gt;Node3 -->
<g id="edge2_Node000002_Node000003" class="edge">
<title>Node2&#45;&gt;Node3</title>
<g id="a_edge2_Node000002_Node000003"><a xlink:title=" ">
<path fill="none" stroke="#63b8ff" d="M62,-164.84C62,-157.21 62,-147.7 62,-139.45"/>
<polygon fill="#63b8ff" stroke="#63b8ff" points="65.5,-139.27 62,-129.27 58.5,-139.27 65.5,-139.27"/>
</a>
</g>
</g>
<!-- Node4 -->
<g id="Node000004" class="node">
<title>Node4</title>
<g id="a_Node000004"><a xlink:title=" ">
<polygon fill="#e0e0e0" stroke="#999999" points="53,-19 7,-19 7,0 53,0 53,-19"/>
<text text-anchor="middle" x="30" y="-7" font-family="Helvetica,sans-Serif" font-size="10.00">pico.h</text>
</a>
</g>
</g>
<!-- Node3&#45;&gt;Node4 -->
<g id="edge3_Node000003_Node000004" class="edge">
<title>Node3&#45;&gt;Node4</title>
<g id="a_edge3_Node000003_Node000004"><a xlink:title=" ">
<path fill="none" stroke="#63b8ff" d="M59.38,-109.66C54.18,-92.09 42.43,-52.45 35.47,-28.95"/>
<polygon fill="#63b8ff" stroke="#63b8ff" points="38.76,-27.75 32.57,-19.16 32.05,-29.74 38.76,-27.75"/>
</a>
</g>
</g>
<!-- Node5 -->
<g id="Node000005" class="node">
<title>Node5</title>
<g id="a_Node000005"><a xlink:href="common_2pico__time_2include_2pico_2time_8h.html" target="_top" xlink:title=" ">
<polygon fill="white" stroke="#666666" points="129.5,-74 58.5,-74 58.5,-55 129.5,-55 129.5,-74"/>
<text text-anchor="middle" x="94" y="-62" font-family="Helvetica,sans-Serif" font-size="10.00">pico/time.h</text>
</a>
</g>
</g>
<!-- Node3&#45;&gt;Node5 -->
<g id="edge4_Node000003_Node000005" class="edge">
<title>Node3&#45;&gt;Node5</title>
<g id="a_edge4_Node000003_Node000005"><a xlink:title=" ">
<path fill="none" stroke="#63b8ff" d="M67.28,-109.75C71.71,-102.42 78.16,-91.73 83.62,-82.7"/>
<polygon fill="#63b8ff" stroke="#63b8ff" points="86.64,-84.46 88.81,-74.09 80.65,-80.84 86.64,-84.46"/>
</a>
</g>
</g>
<!-- Node5&#45;&gt;Node4 -->
<g id="edge5_Node000005_Node000004" class="edge">
<title>Node5&#45;&gt;Node4</title>
<g id="a_edge5_Node000005_Node000004"><a xlink:title=" ">
<path fill="none" stroke="#63b8ff" d="M83.72,-54.98C74.16,-47.07 59.72,-35.11 48.22,-25.58"/>
<polygon fill="#63b8ff" stroke="#63b8ff" points="50.4,-22.85 40.47,-19.17 45.94,-28.24 50.4,-22.85"/>
</a>
</g>
</g>
<!-- Node6 -->
<g id="Node000006" class="node">
<title>Node6</title>
<g id="a_Node000006"><a xlink:title=" ">
<polygon fill="#e0e0e0" stroke="#999999" points="172.5,-19 71.5,-19 71.5,0 172.5,0 172.5,-19"/>
<text text-anchor="middle" x="122" y="-7" font-family="Helvetica,sans-Serif" font-size="10.00">hardware/timer.h</text>
</a>
</g>
</g>
<!-- Node5&#45;&gt;Node6 -->
<g id="edge6_Node000005_Node000006" class="edge">
<title>Node5&#45;&gt;Node6</title>
<g id="a_edge6_Node000005_Node000006"><a xlink:title=" ">
<path fill="none" stroke="#63b8ff" d="M98.62,-54.75C102.46,-47.49 108.02,-36.95 112.76,-27.98"/>
<polygon fill="#63b8ff" stroke="#63b8ff" points="115.89,-29.57 117.46,-19.09 109.7,-26.3 115.89,-29.57"/>
</a>
</g>
</g>
</g>
</svg>
