<?xml version="1.0" encoding="UTF-8" standalone="no"?>
<!DOCTYPE svg PUBLIC "-//W3C//DTD SVG 1.1//EN"
 "http://www.w3.org/Graphics/SVG/1.1/DTD/svg11.dtd">
<!-- Generated by graphviz version 2.43.0 (0)
 -->
<!-- Title: async_context_base.h Pages: 1 -->
<svg width="590pt" height="93pt"
 viewBox="0.00 0.00 589.50 93.00" xmlns="http://www.w3.org/2000/svg" xmlns:xlink="http://www.w3.org/1999/xlink">
<g id="graph0" class="graph" transform="scale(1 1) rotate(0) translate(4 89)">
<title>async_context_base.h</title>
<!-- Node1 -->
<g id="Node000001" class="node">
<title>Node1</title>
<g id="a_Node000001"><a xlink:title=" ">
<polygon fill="#999999" stroke="#666666" points="347.5,-85 222.5,-85 222.5,-66 347.5,-66 347.5,-85"/>
<text text-anchor="middle" x="285" y="-73" font-family="Helvetica,sans-Serif" font-size="10.00">async_context_base.h</text>
</a>
</g>
</g>
<!-- Node2 -->
<g id="Node000002" class="node">
<title>Node2</title>
<g id="a_Node000002"><a xlink:href="async__context__base_8c.html" target="_top" xlink:title=" ">
<polygon fill="white" stroke="#666666" points="124,-24.5 0,-24.5 0,-5.5 124,-5.5 124,-24.5"/>
<text text-anchor="middle" x="62" y="-12.5" font-family="Helvetica,sans-Serif" font-size="10.00">async_context_base.c</text>
</a>
</g>
</g>
<!-- Node1&#45;&gt;Node2 -->
<g id="edge1_Node000001_Node000002" class="edge">
<title>Node1&#45;&gt;Node2</title>
<g id="a_edge1_Node000001_Node000002"><a xlink:title=" ">
<path fill="none" stroke="#63b8ff" d="M242.67,-63.4C199.55,-52.08 133.62,-34.79 94.47,-24.52"/>
<polygon fill="#63b8ff" stroke="#63b8ff" points="242.01,-66.84 252.57,-65.99 243.79,-60.07 242.01,-66.84"/>
</a>
</g>
</g>
<!-- Node3 -->
<g id="Node000003" class="node">
<title>Node3</title>
<g id="a_Node000003"><a xlink:href="async__context__freertos_8c.html" target="_top" xlink:title=" ">
<polygon fill="white" stroke="#666666" points="281.5,-24.5 142.5,-24.5 142.5,-5.5 281.5,-5.5 281.5,-24.5"/>
<text text-anchor="middle" x="212" y="-12.5" font-family="Helvetica,sans-Serif" font-size="10.00">async_context_freertos.c</text>
</a>
</g>
</g>
<!-- Node1&#45;&gt;Node3 -->
<g id="edge2_Node000001_Node000003" class="edge">
<title>Node1&#45;&gt;Node3</title>
<g id="a_edge2_Node000001_Node000003"><a xlink:title=" ">
<path fill="none" stroke="#63b8ff" d="M266.33,-59.54C252.54,-48.49 234.26,-33.84 222.82,-24.67"/>
<polygon fill="#63b8ff" stroke="#63b8ff" points="264.24,-62.35 274.23,-65.87 268.61,-56.88 264.24,-62.35"/>
</a>
</g>
</g>
<!-- Node4 -->
<g id="Node000004" class="node">
<title>Node4</title>
<g id="a_Node000004"><a xlink:href="async__context__poll_8c.html" target="_top" xlink:title=" ">
<polygon fill="white" stroke="#666666" points="418.5,-24.5 299.5,-24.5 299.5,-5.5 418.5,-5.5 418.5,-24.5"/>
<text text-anchor="middle" x="359" y="-12.5" font-family="Helvetica,sans-Serif" font-size="10.00">async_context_poll.c</text>
</a>
</g>
</g>
<!-- Node1&#45;&gt;Node4 -->
<g id="edge3_Node000001_Node000004" class="edge">
<title>Node1&#45;&gt;Node4</title>
<g id="a_edge3_Node000001_Node000004"><a xlink:title=" ">
<path fill="none" stroke="#63b8ff" d="M303.93,-59.54C317.9,-48.49 336.43,-33.84 348.04,-24.67"/>
<polygon fill="#63b8ff" stroke="#63b8ff" points="301.59,-56.92 295.92,-65.87 305.93,-62.41 301.59,-56.92"/>
</a>
</g>
</g>
<!-- Node5 -->
<g id="Node000005" class="node">
<title>Node5</title>
<g id="a_Node000005"><a xlink:href="async__context__threadsafe__background_8c.html" target="_top" xlink:title=" ">
<polygon fill="white" stroke="#666666" points="581.5,-30 436.5,-30 436.5,0 581.5,0 581.5,-30"/>
<text text-anchor="start" x="444.5" y="-18" font-family="Helvetica,sans-Serif" font-size="10.00">async_context_threadsafe</text>
<text text-anchor="middle" x="509" y="-7" font-family="Helvetica,sans-Serif" font-size="10.00">_background.c</text>
</a>
</g>
</g>
<!-- Node1&#45;&gt;Node5 -->
<g id="edge4_Node000001_Node000005" class="edge">
<title>Node1&#45;&gt;Node5</title>
<g id="a_edge4_Node000001_Node000005"><a xlink:title=" ">
<path fill="none" stroke="#63b8ff" d="M327.34,-63.44C363.57,-53.98 415.94,-40.3 455.15,-30.06"/>
<polygon fill="#63b8ff" stroke="#63b8ff" points="326.36,-60.08 317.57,-65.99 328.13,-66.85 326.36,-60.08"/>
</a>
</g>
</g>
</g>
</svg>
