<?xml version="1.0" encoding="UTF-8" standalone="no"?>
<!DOCTYPE svg PUBLIC "-//W3C//DTD SVG 1.1//EN"
 "http://www.w3.org/Graphics/SVG/1.1/DTD/svg11.dtd">
<!-- Generated by graphviz version 2.43.0 (0)
 -->
<!-- Title: async_context_poll.c Pages: 1 -->
<svg width="544pt" height="313pt"
 viewBox="0.00 0.00 543.50 313.00" xmlns="http://www.w3.org/2000/svg" xmlns:xlink="http://www.w3.org/1999/xlink">
<g id="graph0" class="graph" transform="scale(1 1) rotate(0) translate(4 309)">
<title>async_context_poll.c</title>
<!-- Node1 -->
<g id="Node000001" class="node">
<title>Node1</title>
<g id="a_Node000001"><a xlink:title=" ">
<polygon fill="#999999" stroke="#666666" points="250,-305 131,-305 131,-286 250,-286 250,-305"/>
<text text-anchor="middle" x="190.5" y="-293" font-family="Helvetica,sans-Serif" font-size="10.00">async_context_poll.c</text>
</a>
</g>
</g>
<!-- Node2 -->
<g id="Node000002" class="node">
<title>Node2</title>
<g id="a_Node000002"><a xlink:title=" ">
<polygon fill="#e0e0e0" stroke="#999999" points="53,-244.5 0,-244.5 0,-225.5 53,-225.5 53,-244.5"/>
<text text-anchor="middle" x="26.5" y="-232.5" font-family="Helvetica,sans-Serif" font-size="10.00">string.h</text>
</a>
</g>
</g>
<!-- Node1&#45;&gt;Node2 -->
<g id="edge1_Node000001_Node000002" class="edge">
<title>Node1&#45;&gt;Node2</title>
<g id="a_edge1_Node000001_Node000002"><a xlink:title=" ">
<path fill="none" stroke="#63b8ff" d="M164.9,-285.91C138.99,-277.14 97.83,-263 62.5,-250 60.9,-249.41 59.26,-248.8 57.61,-248.18"/>
<polygon fill="#63b8ff" stroke="#63b8ff" points="58.74,-244.87 48.15,-244.57 56.25,-251.41 58.74,-244.87"/>
</a>
</g>
</g>
<!-- Node3 -->
<g id="Node000003" class="node">
<title>Node3</title>
<g id="a_Node000003"><a xlink:href="async__context__poll_8h.html" target="_top" xlink:title=" ">
<polygon fill="white" stroke="#666666" points="309.5,-250 199.5,-250 199.5,-220 309.5,-220 309.5,-250"/>
<text text-anchor="start" x="207.5" y="-238" font-family="Helvetica,sans-Serif" font-size="10.00">pico/async_context</text>
<text text-anchor="middle" x="254.5" y="-227" font-family="Helvetica,sans-Serif" font-size="10.00">_poll.h</text>
</a>
</g>
</g>
<!-- Node1&#45;&gt;Node3 -->
<g id="edge2_Node000001_Node000003" class="edge">
<title>Node1&#45;&gt;Node3</title>
<g id="a_edge2_Node000001_Node000003"><a xlink:title=" ">
<path fill="none" stroke="#63b8ff" d="M199.94,-285.87C208.23,-278.3 220.61,-266.98 231.49,-257.04"/>
<polygon fill="#63b8ff" stroke="#63b8ff" points="234.04,-259.44 239.06,-250.11 229.32,-254.28 234.04,-259.44"/>
</a>
</g>
</g>
<!-- Node11 -->
<g id="Node000011" class="node">
<title>Node11</title>
<g id="a_Node000011"><a xlink:href="async__context__base_8h.html" target="_top" xlink:title=" ">
<polygon fill="white" stroke="#666666" points="181.5,-250 71.5,-250 71.5,-220 181.5,-220 181.5,-250"/>
<text text-anchor="start" x="79.5" y="-238" font-family="Helvetica,sans-Serif" font-size="10.00">pico/async_context</text>
<text text-anchor="middle" x="126.5" y="-227" font-family="Helvetica,sans-Serif" font-size="10.00">_base.h</text>
</a>
</g>
</g>
<!-- Node1&#45;&gt;Node11 -->
<g id="edge13_Node000001_Node000011" class="edge">
<title>Node1&#45;&gt;Node11</title>
<g id="a_edge13_Node000001_Node000011"><a xlink:title=" ">
<path fill="none" stroke="#63b8ff" d="M181.06,-285.87C172.77,-278.3 160.39,-266.98 149.51,-257.04"/>
<polygon fill="#63b8ff" stroke="#63b8ff" points="151.68,-254.28 141.94,-250.11 146.96,-259.44 151.68,-254.28"/>
</a>
</g>
</g>
<!-- Node12 -->
<g id="Node000012" class="node">
<title>Node12</title>
<g id="a_Node000012"><a xlink:href="common_2pico__sync_2include_2pico_2sync_8h.html" target="_top" xlink:title=" ">
<polygon fill="white" stroke="#666666" points="399,-244.5 328,-244.5 328,-225.5 399,-225.5 399,-244.5"/>
<text text-anchor="middle" x="363.5" y="-232.5" font-family="Helvetica,sans-Serif" font-size="10.00">pico/sync.h</text>
</a>
</g>
</g>
<!-- Node1&#45;&gt;Node12 -->
<g id="edge15_Node000001_Node000012" class="edge">
<title>Node1&#45;&gt;Node12</title>
<g id="a_edge15_Node000001_Node000012"><a xlink:title=" ">
<path fill="none" stroke="#63b8ff" d="M215.66,-285.99C245.38,-275.94 295.02,-259.16 328.49,-247.84"/>
<polygon fill="#63b8ff" stroke="#63b8ff" points="329.96,-251.04 338.31,-244.52 327.72,-244.4 329.96,-251.04"/>
</a>
</g>
</g>
<!-- Node4 -->
<g id="Node000004" class="node">
<title>Node4</title>
<g id="a_Node000004"><a xlink:href="async__context_8h.html" target="_top" xlink:title=" ">
<polygon fill="white" stroke="#666666" points="255,-129 136,-129 136,-110 255,-110 255,-129"/>
<text text-anchor="middle" x="195.5" y="-117" font-family="Helvetica,sans-Serif" font-size="10.00">pico/async_context.h</text>
</a>
</g>
</g>
<!-- Node3&#45;&gt;Node4 -->
<g id="edge3_Node000003_Node000004" class="edge">
<title>Node3&#45;&gt;Node4</title>
<g id="a_edge3_Node000003_Node000004"><a xlink:title=" ">
<path fill="none" stroke="#63b8ff" d="M242.66,-219.82C235.03,-210.17 225.29,-196.86 218.5,-184 210.8,-169.42 204.62,-151.7 200.61,-138.68"/>
<polygon fill="#63b8ff" stroke="#63b8ff" points="203.95,-137.64 197.77,-129.03 197.24,-139.61 203.95,-137.64"/>
</a>
</g>
</g>
<!-- Node8 -->
<g id="Node000008" class="node">
<title>Node8</title>
<g id="a_Node000008"><a xlink:href="sem_8h.html" target="_top" xlink:title=" ">
<polygon fill="white" stroke="#666666" points="297.5,-184 227.5,-184 227.5,-165 297.5,-165 297.5,-184"/>
<text text-anchor="middle" x="262.5" y="-172" font-family="Helvetica,sans-Serif" font-size="10.00">pico/sem.h</text>
</a>
</g>
</g>
<!-- Node3&#45;&gt;Node8 -->
<g id="edge8_Node000003_Node000008" class="edge">
<title>Node3&#45;&gt;Node8</title>
<g id="a_edge8_Node000003_Node000008"><a xlink:title=" ">
<path fill="none" stroke="#63b8ff" d="M256.44,-219.84C257.48,-212.21 258.78,-202.7 259.91,-194.45"/>
<polygon fill="#63b8ff" stroke="#63b8ff" points="263.41,-194.65 261.3,-184.27 256.48,-193.7 263.41,-194.65"/>
</a>
</g>
</g>
<!-- Node5 -->
<g id="Node000005" class="node">
<title>Node5</title>
<g id="a_Node000005"><a xlink:title=" ">
<polygon fill="#e0e0e0" stroke="#999999" points="412.5,-19 366.5,-19 366.5,0 412.5,0 412.5,-19"/>
<text text-anchor="middle" x="389.5" y="-7" font-family="Helvetica,sans-Serif" font-size="10.00">pico.h</text>
</a>
</g>
</g>
<!-- Node4&#45;&gt;Node5 -->
<g id="edge4_Node000004_Node000005" class="edge">
<title>Node4&#45;&gt;Node5</title>
<g id="a_edge4_Node000004_Node000005"><a xlink:title=" ">
<path fill="none" stroke="#63b8ff" d="M194.76,-109.79C194.11,-96.17 195,-69.87 209.5,-55 229.67,-34.31 310.06,-20.76 356.3,-14.5"/>
<polygon fill="#63b8ff" stroke="#63b8ff" points="356.98,-17.94 366.44,-13.17 356.07,-11 356.98,-17.94"/>
</a>
</g>
</g>
<!-- Node6 -->
<g id="Node000006" class="node">
<title>Node6</title>
<g id="a_Node000006"><a xlink:href="common_2pico__time_2include_2pico_2time_8h.html" target="_top" xlink:title=" ">
<polygon fill="white" stroke="#666666" points="290,-74 219,-74 219,-55 290,-55 290,-74"/>
<text text-anchor="middle" x="254.5" y="-62" font-family="Helvetica,sans-Serif" font-size="10.00">pico/time.h</text>
</a>
</g>
</g>
<!-- Node4&#45;&gt;Node6 -->
<g id="edge5_Node000004_Node000006" class="edge">
<title>Node4&#45;&gt;Node6</title>
<g id="a_edge5_Node000004_Node000006"><a xlink:title=" ">
<path fill="none" stroke="#63b8ff" d="M204.98,-109.98C213.7,-102.15 226.84,-90.34 237.4,-80.86"/>
<polygon fill="#63b8ff" stroke="#63b8ff" points="239.75,-83.46 244.85,-74.17 235.07,-78.25 239.75,-83.46"/>
</a>
</g>
</g>
<!-- Node6&#45;&gt;Node5 -->
<g id="edge6_Node000006_Node000005" class="edge">
<title>Node6&#45;&gt;Node5</title>
<g id="a_edge6_Node000006_Node000005"><a xlink:title=" ">
<path fill="none" stroke="#63b8ff" d="M276.19,-54.98C298.3,-46.3 332.82,-32.75 357.95,-22.88"/>
<polygon fill="#63b8ff" stroke="#63b8ff" points="359.39,-26.08 367.42,-19.17 356.83,-19.57 359.39,-26.08"/>
</a>
</g>
</g>
<!-- Node7 -->
<g id="Node000007" class="node">
<title>Node7</title>
<g id="a_Node000007"><a xlink:title=" ">
<polygon fill="#e0e0e0" stroke="#999999" points="305,-19 204,-19 204,0 305,0 305,-19"/>
<text text-anchor="middle" x="254.5" y="-7" font-family="Helvetica,sans-Serif" font-size="10.00">hardware/timer.h</text>
</a>
</g>
</g>
<!-- Node6&#45;&gt;Node7 -->
<g id="edge7_Node000006_Node000007" class="edge">
<title>Node6&#45;&gt;Node7</title>
<g id="a_edge7_Node000006_Node000007"><a xlink:title=" ">
<path fill="none" stroke="#63b8ff" d="M254.5,-54.75C254.5,-47.8 254.5,-37.85 254.5,-29.13"/>
<polygon fill="#63b8ff" stroke="#63b8ff" points="258,-29.09 254.5,-19.09 251,-29.09 258,-29.09"/>
</a>
</g>
</g>
<!-- Node9 -->
<g id="Node000009" class="node">
<title>Node9</title>
<g id="a_Node000009"><a xlink:href="lock__core_8h.html" target="_top" xlink:title="Base implementation for locking primitives protected by a spin lock.">
<polygon fill="white" stroke="#666666" points="403,-129 308,-129 308,-110 403,-110 403,-129"/>
<text text-anchor="middle" x="355.5" y="-117" font-family="Helvetica,sans-Serif" font-size="10.00">pico/lock_core.h</text>
</a>
</g>
</g>
<!-- Node8&#45;&gt;Node9 -->
<g id="edge9_Node000008_Node000009" class="edge">
<title>Node8&#45;&gt;Node9</title>
<g id="a_edge9_Node000008_Node000009"><a xlink:title=" ">
<path fill="none" stroke="#63b8ff" d="M277.44,-164.98C292,-156.69 314.37,-143.94 331.43,-134.22"/>
<polygon fill="#63b8ff" stroke="#63b8ff" points="333.33,-137.16 340.29,-129.17 329.86,-131.08 333.33,-137.16"/>
</a>
</g>
</g>
<!-- Node9&#45;&gt;Node5 -->
<g id="edge10_Node000009_Node000005" class="edge">
<title>Node9&#45;&gt;Node5</title>
<g id="a_edge10_Node000009_Node000005"><a xlink:title=" ">
<path fill="none" stroke="#63b8ff" d="M374.77,-109.9C388.62,-102.55 406.26,-90.54 414.5,-74 422.14,-58.66 413.17,-40.39 403.92,-27.39"/>
<polygon fill="#63b8ff" stroke="#63b8ff" points="406.56,-25.09 397.67,-19.34 401.03,-29.38 406.56,-25.09"/>
</a>
</g>
</g>
<!-- Node9&#45;&gt;Node6 -->
<g id="edge11_Node000009_Node000006" class="edge">
<title>Node9&#45;&gt;Node6</title>
<g id="a_edge11_Node000009_Node000006"><a xlink:title=" ">
<path fill="none" stroke="#63b8ff" d="M339.27,-109.98C323.32,-101.61 298.72,-88.7 280.12,-78.95"/>
<polygon fill="#63b8ff" stroke="#63b8ff" points="281.5,-75.72 271.02,-74.17 278.25,-81.92 281.5,-75.72"/>
</a>
</g>
</g>
<!-- Node10 -->
<g id="Node000010" class="node">
<title>Node10</title>
<g id="a_Node000010"><a xlink:title=" ">
<polygon fill="#e0e0e0" stroke="#999999" points="405,-74 308,-74 308,-55 405,-55 405,-74"/>
<text text-anchor="middle" x="356.5" y="-62" font-family="Helvetica,sans-Serif" font-size="10.00">hardware/sync.h</text>
</a>
</g>
</g>
<!-- Node9&#45;&gt;Node10 -->
<g id="edge12_Node000009_Node000010" class="edge">
<title>Node9&#45;&gt;Node10</title>
<g id="a_edge12_Node000009_Node000010"><a xlink:title=" ">
<path fill="none" stroke="#63b8ff" d="M355.67,-109.75C355.8,-102.8 355.98,-92.85 356.15,-84.13"/>
<polygon fill="#63b8ff" stroke="#63b8ff" points="359.65,-84.15 356.34,-74.09 352.65,-84.02 359.65,-84.15"/>
</a>
</g>
</g>
<!-- Node11&#45;&gt;Node4 -->
<g id="edge14_Node000011_Node000004" class="edge">
<title>Node11&#45;&gt;Node4</title>
<g id="a_edge14_Node000011_Node000004"><a xlink:title=" ">
<path fill="none" stroke="#63b8ff" d="M135.24,-219.63C147.87,-198.84 171.22,-160.44 184.85,-138.02"/>
<polygon fill="#63b8ff" stroke="#63b8ff" points="187.99,-139.59 190.19,-129.23 182.01,-135.96 187.99,-139.59"/>
</a>
</g>
</g>
<!-- Node12&#45;&gt;Node8 -->
<g id="edge16_Node000012_Node000008" class="edge">
<title>Node12&#45;&gt;Node8</title>
<g id="a_edge16_Node000012_Node000008"><a xlink:title=" ">
<path fill="none" stroke="#63b8ff" d="M348.6,-225.37C332.19,-215.86 305.57,-200.45 286.27,-189.27"/>
<polygon fill="#63b8ff" stroke="#63b8ff" points="287.87,-186.15 277.46,-184.17 284.36,-192.21 287.87,-186.15"/>
</a>
</g>
</g>
<!-- Node13 -->
<g id="Node000013" class="node">
<title>Node13</title>
<g id="a_Node000013"><a xlink:href="mutex_8h.html" target="_top" xlink:title=" ">
<polygon fill="white" stroke="#666666" points="395.5,-184 315.5,-184 315.5,-165 395.5,-165 395.5,-184"/>
<text text-anchor="middle" x="355.5" y="-172" font-family="Helvetica,sans-Serif" font-size="10.00">pico/mutex.h</text>
</a>
</g>
</g>
<!-- Node12&#45;&gt;Node13 -->
<g id="edge17_Node000012_Node000013" class="edge">
<title>Node12&#45;&gt;Node13</title>
<g id="a_edge17_Node000012_Node000013"><a xlink:title=" ">
<path fill="none" stroke="#63b8ff" d="M362.32,-225.37C361.21,-217.25 359.51,-204.81 358.08,-194.39"/>
<polygon fill="#63b8ff" stroke="#63b8ff" points="361.51,-193.6 356.69,-184.17 354.57,-194.55 361.51,-193.6"/>
</a>
</g>
</g>
<!-- Node14 -->
<g id="Node000014" class="node">
<title>Node14</title>
<g id="a_Node000014"><a xlink:href="critical__section_8h.html" target="_top" xlink:title=" ">
<polygon fill="white" stroke="#666666" points="535.5,-184 413.5,-184 413.5,-165 535.5,-165 535.5,-184"/>
<text text-anchor="middle" x="474.5" y="-172" font-family="Helvetica,sans-Serif" font-size="10.00">pico/critical_section.h</text>
</a>
</g>
</g>
<!-- Node12&#45;&gt;Node14 -->
<g id="edge19_Node000012_Node000014" class="edge">
<title>Node12&#45;&gt;Node14</title>
<g id="a_edge19_Node000012_Node000014"><a xlink:title=" ">
<path fill="none" stroke="#63b8ff" d="M379.88,-225.37C398.08,-215.78 427.7,-200.17 448.95,-188.97"/>
<polygon fill="#63b8ff" stroke="#63b8ff" points="450.84,-191.93 458.05,-184.17 447.58,-185.73 450.84,-191.93"/>
</a>
</g>
</g>
<!-- Node13&#45;&gt;Node9 -->
<g id="edge18_Node000013_Node000009" class="edge">
<title>Node13&#45;&gt;Node9</title>
<g id="a_edge18_Node000013_Node000009"><a xlink:title=" ">
<path fill="none" stroke="#63b8ff" d="M355.5,-164.75C355.5,-157.8 355.5,-147.85 355.5,-139.13"/>
<polygon fill="#63b8ff" stroke="#63b8ff" points="359,-139.09 355.5,-129.09 352,-139.09 359,-139.09"/>
</a>
</g>
</g>
<!-- Node14&#45;&gt;Node5 -->
<g id="edge20_Node000014_Node000005" class="edge">
<title>Node14&#45;&gt;Node5</title>
<g id="a_edge20_Node000014_Node000005"><a xlink:title=" ">
<path fill="none" stroke="#63b8ff" d="M472.43,-164.97C467.28,-144.79 452.64,-92.95 429.5,-55 423.17,-44.62 414.27,-34.44 406.48,-26.43"/>
<polygon fill="#63b8ff" stroke="#63b8ff" points="408.76,-23.77 399.18,-19.23 403.84,-28.75 408.76,-23.77"/>
</a>
</g>
</g>
<!-- Node14&#45;&gt;Node9 -->
<g id="edge21_Node000014_Node000009" class="edge">
<title>Node14&#45;&gt;Node9</title>
<g id="a_edge21_Node000014_Node000009"><a xlink:title=" ">
<path fill="none" stroke="#63b8ff" d="M455.38,-164.98C436.15,-156.42 406.27,-143.11 384.19,-133.28"/>
<polygon fill="#63b8ff" stroke="#63b8ff" points="385.53,-130.04 374.97,-129.17 382.68,-136.44 385.53,-130.04"/>
</a>
</g>
</g>
</g>
</svg>
