<?xml version="1.0" encoding="UTF-8" standalone="no"?>
<!DOCTYPE svg PUBLIC "-//W3C//DTD SVG 1.1//EN"
 "http://www.w3.org/Graphics/SVG/1.1/DTD/svg11.dtd">
<!-- Generated by graphviz version 2.43.0 (0)
 -->
<!-- Title: async_context.h Pages: 1 -->
<svg width="1480pt" height="159pt"
 viewBox="0.00 0.00 1480.00 159.00" xmlns="http://www.w3.org/2000/svg" xmlns:xlink="http://www.w3.org/1999/xlink">
<g id="graph0" class="graph" transform="scale(1 1) rotate(0) translate(4 155)">
<title>async_context.h</title>
<!-- Node1 -->
<g id="Node000001" class="node">
<title>Node1</title>
<g id="a_Node000001"><a xlink:title=" ">
<polygon fill="#999999" stroke="#666666" points="896,-151 800,-151 800,-132 896,-132 896,-151"/>
<text text-anchor="middle" x="848" y="-139" font-family="Helvetica,sans-Serif" font-size="10.00">async_context.h</text>
</a>
</g>
</g>
<!-- Node2 -->
<g id="Node000002" class="node">
<title>Node2</title>
<g id="a_Node000002"><a xlink:href="async__context__base_8h.html" target="_top" xlink:title=" ">
<polygon fill="white" stroke="#666666" points="283.5,-90.5 158.5,-90.5 158.5,-71.5 283.5,-71.5 283.5,-90.5"/>
<text text-anchor="middle" x="221" y="-78.5" font-family="Helvetica,sans-Serif" font-size="10.00">async_context_base.h</text>
</a>
</g>
</g>
<!-- Node1&#45;&gt;Node2 -->
<g id="edge1_Node000001_Node000002" class="edge">
<title>Node1&#45;&gt;Node2</title>
<g id="a_edge1_Node000001_Node000002"><a xlink:title=" ">
<path fill="none" stroke="#63b8ff" d="M789.78,-138.04C688.31,-133.27 472.61,-120.95 292,-96 281.55,-94.56 270.31,-92.55 259.93,-90.51"/>
<polygon fill="#63b8ff" stroke="#63b8ff" points="789.68,-141.54 799.83,-138.51 790,-134.55 789.68,-141.54"/>
</a>
</g>
</g>
<!-- Node7 -->
<g id="Node000007" class="node">
<title>Node7</title>
<g id="a_Node000007"><a xlink:href="async__context__freertos_8h.html" target="_top" xlink:title=" ">
<polygon fill="white" stroke="#666666" points="140,-90.5 0,-90.5 0,-71.5 140,-71.5 140,-90.5"/>
<text text-anchor="middle" x="70" y="-78.5" font-family="Helvetica,sans-Serif" font-size="10.00">async_context_freertos.h</text>
</a>
</g>
</g>
<!-- Node1&#45;&gt;Node7 -->
<g id="edge6_Node000001_Node000007" class="edge">
<title>Node1&#45;&gt;Node7</title>
<g id="a_edge6_Node000001_Node000007"><a xlink:title=" ">
<path fill="none" stroke="#63b8ff" d="M789.87,-139C669.77,-135.41 385.68,-124.42 149,-96 137.24,-94.59 124.59,-92.57 112.92,-90.51"/>
<polygon fill="#63b8ff" stroke="#63b8ff" points="789.85,-142.5 799.95,-139.29 790.06,-135.5 789.85,-142.5"/>
</a>
</g>
</g>
<!-- Node8 -->
<g id="Node000008" class="node">
<title>Node8</title>
<g id="a_Node000008"><a xlink:href="async__context__poll_8h.html" target="_top" xlink:title=" ">
<polygon fill="white" stroke="#666666" points="420.5,-90.5 301.5,-90.5 301.5,-71.5 420.5,-71.5 420.5,-90.5"/>
<text text-anchor="middle" x="361" y="-78.5" font-family="Helvetica,sans-Serif" font-size="10.00">async_context_poll.h</text>
</a>
</g>
</g>
<!-- Node1&#45;&gt;Node8 -->
<g id="edge8_Node000001_Node000008" class="edge">
<title>Node1&#45;&gt;Node8</title>
<g id="a_edge8_Node000001_Node000008"><a xlink:title=" ">
<path fill="none" stroke="#63b8ff" d="M789.71,-136.11C708.56,-129.59 557.06,-115.94 429,-96 419.23,-94.48 408.75,-92.5 399,-90.5"/>
<polygon fill="#63b8ff" stroke="#63b8ff" points="789.48,-139.6 799.73,-136.91 790.04,-132.63 789.48,-139.6"/>
</a>
</g>
</g>
<!-- Node9 -->
<g id="Node000009" class="node">
<title>Node9</title>
<g id="a_Node000009"><a xlink:href="async__context__threadsafe__background_8h.html" target="_top" xlink:title=" ">
<polygon fill="white" stroke="#666666" points="583.5,-96 438.5,-96 438.5,-66 583.5,-66 583.5,-96"/>
<text text-anchor="start" x="446.5" y="-84" font-family="Helvetica,sans-Serif" font-size="10.00">async_context_threadsafe</text>
<text text-anchor="middle" x="511" y="-73" font-family="Helvetica,sans-Serif" font-size="10.00">_background.h</text>
</a>
</g>
</g>
<!-- Node1&#45;&gt;Node9 -->
<g id="edge10_Node000001_Node000009" class="edge">
<title>Node1&#45;&gt;Node9</title>
<g id="a_edge10_Node000001_Node000009"><a xlink:title=" ">
<path fill="none" stroke="#63b8ff" d="M789.76,-130.39C732.63,-120.47 645.35,-105.32 583.7,-94.62"/>
<polygon fill="#63b8ff" stroke="#63b8ff" points="789.26,-133.86 799.72,-132.12 790.46,-126.96 789.26,-133.86"/>
</a>
</g>
</g>
<!-- Node10 -->
<g id="Node000010" class="node">
<title>Node10</title>
<g id="a_Node000010"><a xlink:href="btstack__cyw43_8h.html" target="_top" xlink:title=" ">
<polygon fill="white" stroke="#666666" points="700,-90.5 602,-90.5 602,-71.5 700,-71.5 700,-90.5"/>
<text text-anchor="middle" x="651" y="-78.5" font-family="Helvetica,sans-Serif" font-size="10.00">btstack_cyw43.h</text>
</a>
</g>
</g>
<!-- Node1&#45;&gt;Node10 -->
<g id="edge12_Node000001_Node000010" class="edge">
<title>Node1&#45;&gt;Node10</title>
<g id="a_edge12_Node000001_Node000010"><a xlink:title=" ">
<path fill="none" stroke="#63b8ff" d="M809.64,-129.11C771.53,-117.79 713.98,-100.7 679.68,-90.52"/>
<polygon fill="#63b8ff" stroke="#63b8ff" points="808.77,-132.5 819.35,-131.99 810.76,-125.79 808.77,-132.5"/>
</a>
</g>
</g>
<!-- Node12 -->
<g id="Node000012" class="node">
<title>Node12</title>
<g id="a_Node000012"><a xlink:href="btstack__run__loop__async__context_8h.html" target="_top" xlink:title=" ">
<polygon fill="white" stroke="#666666" points="852,-96 718,-96 718,-66 852,-66 852,-96"/>
<text text-anchor="start" x="726" y="-84" font-family="Helvetica,sans-Serif" font-size="10.00">btstack_run_loop_async</text>
<text text-anchor="middle" x="785" y="-73" font-family="Helvetica,sans-Serif" font-size="10.00">_context.h</text>
</a>
</g>
</g>
<!-- Node1&#45;&gt;Node12 -->
<g id="edge14_Node000001_Node000012" class="edge">
<title>Node1&#45;&gt;Node12</title>
<g id="a_edge14_Node000001_Node000012"><a xlink:title=" ">
<path fill="none" stroke="#63b8ff" d="M831.27,-124.97C821.62,-116.01 809.58,-104.82 800.2,-96.11"/>
<polygon fill="#63b8ff" stroke="#63b8ff" points="828.99,-127.63 838.7,-131.87 833.76,-122.5 828.99,-127.63"/>
</a>
</g>
</g>
<!-- Node14 -->
<g id="Node000014" class="node">
<title>Node14</title>
<g id="a_Node000014"><a xlink:href="cyw43__arch_8h.html" target="_top" xlink:title=" ">
<polygon fill="white" stroke="#666666" points="953.5,-90.5 870.5,-90.5 870.5,-71.5 953.5,-71.5 953.5,-90.5"/>
<text text-anchor="middle" x="912" y="-78.5" font-family="Helvetica,sans-Serif" font-size="10.00">cyw43_arch.h</text>
</a>
</g>
</g>
<!-- Node1&#45;&gt;Node14 -->
<g id="edge17_Node000001_Node000014" class="edge">
<title>Node1&#45;&gt;Node14</title>
<g id="a_edge17_Node000001_Node000014"><a xlink:title=" ">
<path fill="none" stroke="#63b8ff" d="M865.06,-124.91C877.06,-113.94 892.67,-99.67 902.52,-90.67"/>
<polygon fill="#63b8ff" stroke="#63b8ff" points="862.46,-122.54 857.44,-131.87 867.19,-127.7 862.46,-122.54"/>
</a>
</g>
</g>
<!-- Node16 -->
<g id="Node000016" class="node">
<title>Node16</title>
<g id="a_Node000016"><a xlink:href="cyw43__driver_8c.html" target="_top" xlink:title=" ">
<polygon fill="white" stroke="#666666" points="1062,-90.5 972,-90.5 972,-71.5 1062,-71.5 1062,-90.5"/>
<text text-anchor="middle" x="1017" y="-78.5" font-family="Helvetica,sans-Serif" font-size="10.00">cyw43_driver.c</text>
</a>
</g>
</g>
<!-- Node1&#45;&gt;Node16 -->
<g id="edge19_Node000001_Node000016" class="edge">
<title>Node1&#45;&gt;Node16</title>
<g id="a_edge19_Node000001_Node000016"><a xlink:title=" ">
<path fill="none" stroke="#63b8ff" d="M882.17,-128.67C914.86,-117.36 963.35,-100.57 992.4,-90.52"/>
<polygon fill="#63b8ff" stroke="#63b8ff" points="880.88,-125.41 872.57,-131.99 883.17,-132.03 880.88,-125.41"/>
</a>
</g>
</g>
<!-- Node17 -->
<g id="Node000017" class="node">
<title>Node17</title>
<g id="a_Node000017"><a xlink:href="lwip__freertos_8c.html" target="_top" xlink:title=" ">
<polygon fill="white" stroke="#666666" points="1169.5,-90.5 1080.5,-90.5 1080.5,-71.5 1169.5,-71.5 1169.5,-90.5"/>
<text text-anchor="middle" x="1125" y="-78.5" font-family="Helvetica,sans-Serif" font-size="10.00">lwip_freertos.c</text>
</a>
</g>
</g>
<!-- Node1&#45;&gt;Node17 -->
<g id="edge20_Node000001_Node000017" class="edge">
<title>Node1&#45;&gt;Node17</title>
<g id="a_edge20_Node000001_Node000017"><a xlink:title=" ">
<path fill="none" stroke="#63b8ff" d="M904.62,-130.12C949.81,-121.61 1014.65,-108.92 1071,-96 1078.27,-94.33 1086.05,-92.4 1093.38,-90.52"/>
<polygon fill="#63b8ff" stroke="#63b8ff" points="903.9,-126.69 894.72,-131.98 905.19,-133.57 903.9,-126.69"/>
</a>
</g>
</g>
<!-- Node18 -->
<g id="Node000018" class="node">
<title>Node18</title>
<g id="a_Node000018"><a xlink:href="lwip__freertos_8h.html" target="_top" xlink:title=" ">
<polygon fill="white" stroke="#666666" points="1276.5,-90.5 1187.5,-90.5 1187.5,-71.5 1276.5,-71.5 1276.5,-90.5"/>
<text text-anchor="middle" x="1232" y="-78.5" font-family="Helvetica,sans-Serif" font-size="10.00">lwip_freertos.h</text>
</a>
</g>
</g>
<!-- Node1&#45;&gt;Node18 -->
<g id="edge21_Node000001_Node000018" class="edge">
<title>Node1&#45;&gt;Node18</title>
<g id="a_edge21_Node000001_Node000018"><a xlink:title=" ">
<path fill="none" stroke="#63b8ff" d="M906.54,-134.86C972.97,-127.94 1084.39,-114.78 1179,-96 1186.65,-94.48 1194.84,-92.5 1202.44,-90.51"/>
<polygon fill="#63b8ff" stroke="#63b8ff" points="905.86,-131.41 896.27,-135.92 906.58,-138.37 905.86,-131.41"/>
</a>
</g>
</g>
<!-- Node19 -->
<g id="Node000019" class="node">
<title>Node19</title>
<g id="a_Node000019"><a xlink:href="lwip__nosys_8c.html" target="_top" xlink:title=" ">
<polygon fill="white" stroke="#666666" points="1373.5,-90.5 1294.5,-90.5 1294.5,-71.5 1373.5,-71.5 1373.5,-90.5"/>
<text text-anchor="middle" x="1334" y="-78.5" font-family="Helvetica,sans-Serif" font-size="10.00">lwip_nosys.c</text>
</a>
</g>
</g>
<!-- Node1&#45;&gt;Node19 -->
<g id="edge22_Node000001_Node000019" class="edge">
<title>Node1&#45;&gt;Node19</title>
<g id="a_edge22_Node000001_Node000019"><a xlink:title=" ">
<path fill="none" stroke="#63b8ff" d="M906.21,-137.97C990.59,-133.54 1151.51,-122.22 1286,-96 1293.24,-94.59 1300.97,-92.57 1308.06,-90.5"/>
<polygon fill="#63b8ff" stroke="#63b8ff" points="905.86,-134.48 896.06,-138.49 906.22,-141.47 905.86,-134.48"/>
</a>
</g>
</g>
<!-- Node20 -->
<g id="Node000020" class="node">
<title>Node20</title>
<g id="a_Node000020"><a xlink:href="lwip__nosys_8h.html" target="_top" xlink:title=" ">
<polygon fill="white" stroke="#666666" points="1472,-90.5 1392,-90.5 1392,-71.5 1472,-71.5 1472,-90.5"/>
<text text-anchor="middle" x="1432" y="-78.5" font-family="Helvetica,sans-Serif" font-size="10.00">lwip_nosys.h</text>
</a>
</g>
</g>
<!-- Node1&#45;&gt;Node20 -->
<g id="edge23_Node000001_Node000020" class="edge">
<title>Node1&#45;&gt;Node20</title>
<g id="a_edge23_Node000001_Node000020"><a xlink:title=" ">
<path fill="none" stroke="#63b8ff" d="M906.08,-139.37C1004.83,-136.64 1211.43,-127.33 1383,-96 1390.48,-94.63 1398.47,-92.6 1405.78,-90.51"/>
<polygon fill="#63b8ff" stroke="#63b8ff" points="905.91,-135.88 896.01,-139.64 906.1,-142.88 905.91,-135.88"/>
</a>
</g>
</g>
<!-- Node3 -->
<g id="Node000003" class="node">
<title>Node3</title>
<g id="a_Node000003"><a xlink:href="async__context__base_8c.html" target="_top" xlink:title=" ">
<polygon fill="white" stroke="#666666" points="283,-24.5 159,-24.5 159,-5.5 283,-5.5 283,-24.5"/>
<text text-anchor="middle" x="221" y="-12.5" font-family="Helvetica,sans-Serif" font-size="10.00">async_context_base.c</text>
</a>
</g>
</g>
<!-- Node2&#45;&gt;Node3 -->
<g id="edge2_Node000002_Node000003" class="edge">
<title>Node2&#45;&gt;Node3</title>
<g id="a_edge2_Node000002_Node000003"><a xlink:title=" ">
<path fill="none" stroke="#63b8ff" d="M221,-61.08C221,-49.13 221,-34.22 221,-24.91"/>
<polygon fill="#63b8ff" stroke="#63b8ff" points="217.5,-61.37 221,-71.37 224.5,-61.37 217.5,-61.37"/>
</a>
</g>
</g>
<!-- Node4 -->
<g id="Node000004" class="node">
<title>Node4</title>
<g id="a_Node000004"><a xlink:href="async__context__freertos_8c.html" target="_top" xlink:title=" ">
<polygon fill="white" stroke="#666666" points="140.5,-24.5 1.5,-24.5 1.5,-5.5 140.5,-5.5 140.5,-24.5"/>
<text text-anchor="middle" x="71" y="-12.5" font-family="Helvetica,sans-Serif" font-size="10.00">async_context_freertos.c</text>
</a>
</g>
</g>
<!-- Node2&#45;&gt;Node4 -->
<g id="edge3_Node000002_Node000004" class="edge">
<title>Node2&#45;&gt;Node4</title>
<g id="a_edge3_Node000002_Node000004"><a xlink:title=" ">
<path fill="none" stroke="#63b8ff" d="M191.37,-67.36C161.81,-54.75 117.19,-35.71 91.39,-24.7"/>
<polygon fill="#63b8ff" stroke="#63b8ff" points="190.2,-70.66 200.77,-71.37 192.95,-64.23 190.2,-70.66"/>
</a>
</g>
</g>
<!-- Node5 -->
<g id="Node000005" class="node">
<title>Node5</title>
<g id="a_Node000005"><a xlink:href="async__context__poll_8c.html" target="_top" xlink:title=" ">
<polygon fill="white" stroke="#666666" points="420.5,-24.5 301.5,-24.5 301.5,-5.5 420.5,-5.5 420.5,-24.5"/>
<text text-anchor="middle" x="361" y="-12.5" font-family="Helvetica,sans-Serif" font-size="10.00">async_context_poll.c</text>
</a>
</g>
</g>
<!-- Node2&#45;&gt;Node5 -->
<g id="edge4_Node000002_Node000005" class="edge">
<title>Node2&#45;&gt;Node5</title>
<g id="a_edge4_Node000002_Node000005"><a xlink:title=" ">
<path fill="none" stroke="#63b8ff" d="M249.01,-67.19C276.6,-54.58 318,-35.66 341.97,-24.7"/>
<polygon fill="#63b8ff" stroke="#63b8ff" points="247.52,-64.03 239.88,-71.37 250.43,-70.39 247.52,-64.03"/>
</a>
</g>
</g>
<!-- Node6 -->
<g id="Node000006" class="node">
<title>Node6</title>
<g id="a_Node000006"><a xlink:href="async__context__threadsafe__background_8c.html" target="_top" xlink:title=" ">
<polygon fill="white" stroke="#666666" points="583.5,-30 438.5,-30 438.5,0 583.5,0 583.5,-30"/>
<text text-anchor="start" x="446.5" y="-18" font-family="Helvetica,sans-Serif" font-size="10.00">async_context_threadsafe</text>
<text text-anchor="middle" x="511" y="-7" font-family="Helvetica,sans-Serif" font-size="10.00">_background.c</text>
</a>
</g>
</g>
<!-- Node2&#45;&gt;Node6 -->
<g id="edge5_Node000002_Node000006" class="edge">
<title>Node2&#45;&gt;Node6</title>
<g id="a_edge5_Node000002_Node000006"><a xlink:title=" ">
<path fill="none" stroke="#63b8ff" d="M269.81,-69.23C318.64,-58.45 393.98,-41.83 447.45,-30.02"/>
<polygon fill="#63b8ff" stroke="#63b8ff" points="268.82,-65.86 259.81,-71.44 270.33,-72.7 268.82,-65.86"/>
</a>
</g>
</g>
<!-- Node7&#45;&gt;Node4 -->
<g id="edge7_Node000007_Node000004" class="edge">
<title>Node7&#45;&gt;Node4</title>
<g id="a_edge7_Node000007_Node000004"><a xlink:title=" ">
<path fill="none" stroke="#63b8ff" d="M70.3,-61.08C70.48,-49.13 70.72,-34.22 70.86,-24.91"/>
<polygon fill="#63b8ff" stroke="#63b8ff" points="66.79,-61.32 70.13,-71.37 73.79,-61.42 66.79,-61.32"/>
</a>
</g>
</g>
<!-- Node8&#45;&gt;Node5 -->
<g id="edge9_Node000008_Node000005" class="edge">
<title>Node8&#45;&gt;Node5</title>
<g id="a_edge9_Node000008_Node000005"><a xlink:title=" ">
<path fill="none" stroke="#63b8ff" d="M361,-61.08C361,-49.13 361,-34.22 361,-24.91"/>
<polygon fill="#63b8ff" stroke="#63b8ff" points="357.5,-61.37 361,-71.37 364.5,-61.37 357.5,-61.37"/>
</a>
</g>
</g>
<!-- Node9&#45;&gt;Node6 -->
<g id="edge11_Node000009_Node000006" class="edge">
<title>Node9&#45;&gt;Node6</title>
<g id="a_edge11_Node000009_Node000006"><a xlink:title=" ">
<path fill="none" stroke="#63b8ff" d="M511,-55.54C511,-46.96 511,-37.61 511,-30.16"/>
<polygon fill="#63b8ff" stroke="#63b8ff" points="507.5,-55.8 511,-65.8 514.5,-55.8 507.5,-55.8"/>
</a>
</g>
</g>
<!-- Node11 -->
<g id="Node000011" class="node">
<title>Node11</title>
<g id="a_Node000011"><a xlink:href="btstack__cyw43_8c.html" target="_top" xlink:title=" ">
<polygon fill="white" stroke="#666666" points="700,-24.5 602,-24.5 602,-5.5 700,-5.5 700,-24.5"/>
<text text-anchor="middle" x="651" y="-12.5" font-family="Helvetica,sans-Serif" font-size="10.00">btstack_cyw43.c</text>
</a>
</g>
</g>
<!-- Node10&#45;&gt;Node11 -->
<g id="edge13_Node000010_Node000011" class="edge">
<title>Node10&#45;&gt;Node11</title>
<g id="a_edge13_Node000010_Node000011"><a xlink:title=" ">
<path fill="none" stroke="#63b8ff" d="M651,-61.08C651,-49.13 651,-34.22 651,-24.91"/>
<polygon fill="#63b8ff" stroke="#63b8ff" points="647.5,-61.37 651,-71.37 654.5,-61.37 647.5,-61.37"/>
</a>
</g>
</g>
<!-- Node12&#45;&gt;Node11 -->
<g id="edge15_Node000012_Node000011" class="edge">
<title>Node12&#45;&gt;Node11</title>
<g id="a_edge15_Node000012_Node000011"><a xlink:title=" ">
<path fill="none" stroke="#63b8ff" d="M746.52,-61.62C720.95,-49.41 688.56,-33.94 668.83,-24.52"/>
<polygon fill="#63b8ff" stroke="#63b8ff" points="745.06,-64.8 755.59,-65.95 748.08,-58.49 745.06,-64.8"/>
</a>
</g>
</g>
<!-- Node13 -->
<g id="Node000013" class="node">
<title>Node13</title>
<g id="a_Node000013"><a xlink:href="btstack__run__loop__async__context_8c.html" target="_top" xlink:title=" ">
<polygon fill="white" stroke="#666666" points="852,-30 718,-30 718,0 852,0 852,-30"/>
<text text-anchor="start" x="726" y="-18" font-family="Helvetica,sans-Serif" font-size="10.00">btstack_run_loop_async</text>
<text text-anchor="middle" x="785" y="-7" font-family="Helvetica,sans-Serif" font-size="10.00">_context.c</text>
</a>
</g>
</g>
<!-- Node12&#45;&gt;Node13 -->
<g id="edge16_Node000012_Node000013" class="edge">
<title>Node12&#45;&gt;Node13</title>
<g id="a_edge16_Node000012_Node000013"><a xlink:title=" ">
<path fill="none" stroke="#63b8ff" d="M785,-55.54C785,-46.96 785,-37.61 785,-30.16"/>
<polygon fill="#63b8ff" stroke="#63b8ff" points="781.5,-55.8 785,-65.8 788.5,-55.8 781.5,-55.8"/>
</a>
</g>
</g>
<!-- Node15 -->
<g id="Node000015" class="node">
<title>Node15</title>
<g id="a_Node000015"><a xlink:href="cyw43__arch_8c.html" target="_top" xlink:title=" ">
<polygon fill="white" stroke="#666666" points="953.5,-24.5 870.5,-24.5 870.5,-5.5 953.5,-5.5 953.5,-24.5"/>
<text text-anchor="middle" x="912" y="-12.5" font-family="Helvetica,sans-Serif" font-size="10.00">cyw43_arch.c</text>
</a>
</g>
</g>
<!-- Node14&#45;&gt;Node15 -->
<g id="edge18_Node000014_Node000015" class="edge">
<title>Node14&#45;&gt;Node15</title>
<g id="a_edge18_Node000014_Node000015"><a xlink:title=" ">
<path fill="none" stroke="#63b8ff" d="M912,-61.08C912,-49.13 912,-34.22 912,-24.91"/>
<polygon fill="#63b8ff" stroke="#63b8ff" points="908.5,-61.37 912,-71.37 915.5,-61.37 908.5,-61.37"/>
</a>
</g>
</g>
</g>
</svg>
