<?xml version="1.0" encoding="UTF-8" standalone="no"?>
<!DOCTYPE svg PUBLIC "-//W3C//DTD SVG 1.1//EN"
 "http://www.w3.org/Graphics/SVG/1.1/DTD/svg11.dtd">
<!-- Generated by graphviz version 2.43.0 (0)
 -->
<!-- Title: async_context_freertos.c Pages: 1 -->
<svg width="616pt" height="313pt"
 viewBox="0.00 0.00 615.50 313.00" xmlns="http://www.w3.org/2000/svg" xmlns:xlink="http://www.w3.org/1999/xlink">
<g id="graph0" class="graph" transform="scale(1 1) rotate(0) translate(4 309)">
<title>async_context_freertos.c</title>
<!-- Node1 -->
<g id="Node000001" class="node">
<title>Node1</title>
<g id="a_Node000001"><a xlink:title=" ">
<polygon fill="#999999" stroke="#666666" points="320,-305 181,-305 181,-286 320,-286 320,-305"/>
<text text-anchor="middle" x="250.5" y="-293" font-family="Helvetica,sans-Serif" font-size="10.00">async_context_freertos.c</text>
</a>
</g>
</g>
<!-- Node2 -->
<g id="Node000002" class="node">
<title>Node2</title>
<g id="a_Node000002"><a xlink:title=" ">
<polygon fill="#e0e0e0" stroke="#999999" points="53,-244.5 0,-244.5 0,-225.5 53,-225.5 53,-244.5"/>
<text text-anchor="middle" x="26.5" y="-232.5" font-family="Helvetica,sans-Serif" font-size="10.00">string.h</text>
</a>
</g>
</g>
<!-- Node1&#45;&gt;Node2 -->
<g id="edge1_Node000001_Node000002" class="edge">
<title>Node1&#45;&gt;Node2</title>
<g id="a_edge1_Node000001_Node000002"><a xlink:title=" ">
<path fill="none" stroke="#63b8ff" d="M206.73,-285.93C168.33,-277.99 111.18,-265.15 62.5,-250 60.63,-249.42 58.71,-248.78 56.79,-248.12"/>
<polygon fill="#63b8ff" stroke="#63b8ff" points="57.86,-244.79 47.27,-244.64 55.46,-251.36 57.86,-244.79"/>
</a>
</g>
</g>
<!-- Node3 -->
<g id="Node000003" class="node">
<title>Node3</title>
<g id="a_Node000003"><a xlink:href="async__context__freertos_8h.html" target="_top" xlink:title=" ">
<polygon fill="white" stroke="#666666" points="181.5,-250 71.5,-250 71.5,-220 181.5,-220 181.5,-250"/>
<text text-anchor="start" x="79.5" y="-238" font-family="Helvetica,sans-Serif" font-size="10.00">pico/async_context</text>
<text text-anchor="middle" x="126.5" y="-227" font-family="Helvetica,sans-Serif" font-size="10.00">_freertos.h</text>
</a>
</g>
</g>
<!-- Node1&#45;&gt;Node3 -->
<g id="edge2_Node000001_Node000003" class="edge">
<title>Node1&#45;&gt;Node3</title>
<g id="a_edge2_Node000001_Node000003"><a xlink:title=" ">
<path fill="none" stroke="#63b8ff" d="M232.47,-285.99C215.07,-277.79 188.16,-265.09 165.81,-254.55"/>
<polygon fill="#63b8ff" stroke="#63b8ff" points="167.09,-251.28 156.55,-250.18 164.1,-257.61 167.09,-251.28"/>
</a>
</g>
</g>
<!-- Node9 -->
<g id="Node000009" class="node">
<title>Node9</title>
<g id="a_Node000009"><a xlink:title=" ">
<polygon fill="#e0e0e0" stroke="#999999" points="243.5,-184 181.5,-184 181.5,-165 243.5,-165 243.5,-184"/>
<text text-anchor="middle" x="212.5" y="-172" font-family="Helvetica,sans-Serif" font-size="10.00">semphr.h</text>
</a>
</g>
</g>
<!-- Node1&#45;&gt;Node9 -->
<g id="edge25_Node000001_Node000009" class="edge">
<title>Node1&#45;&gt;Node9</title>
<g id="a_edge25_Node000001_Node000009"><a xlink:title=" ">
<path fill="none" stroke="#63b8ff" d="M245.45,-285.91C240.5,-277.15 233.04,-263.02 228.5,-250 222.12,-231.68 217.8,-209.91 215.27,-194.65"/>
<polygon fill="#63b8ff" stroke="#63b8ff" points="218.67,-193.76 213.68,-184.41 211.76,-194.83 218.67,-193.76"/>
</a>
</g>
</g>
<!-- Node11 -->
<g id="Node000011" class="node">
<title>Node11</title>
<g id="a_Node000011"><a xlink:href="async__context__base_8h.html" target="_top" xlink:title=" ">
<polygon fill="white" stroke="#666666" points="347.5,-250 237.5,-250 237.5,-220 347.5,-220 347.5,-250"/>
<text text-anchor="start" x="245.5" y="-238" font-family="Helvetica,sans-Serif" font-size="10.00">pico/async_context</text>
<text text-anchor="middle" x="292.5" y="-227" font-family="Helvetica,sans-Serif" font-size="10.00">_base.h</text>
</a>
</g>
</g>
<!-- Node1&#45;&gt;Node11 -->
<g id="edge11_Node000001_Node000011" class="edge">
<title>Node1&#45;&gt;Node11</title>
<g id="a_edge11_Node000001_Node000011"><a xlink:title=" ">
<path fill="none" stroke="#63b8ff" d="M256.7,-285.87C261.87,-278.67 269.48,-268.07 276.35,-258.49"/>
<polygon fill="#63b8ff" stroke="#63b8ff" points="279.38,-260.28 282.37,-250.11 273.69,-256.2 279.38,-260.28"/>
</a>
</g>
</g>
<!-- Node12 -->
<g id="Node000012" class="node">
<title>Node12</title>
<g id="a_Node000012"><a xlink:href="common_2pico__sync_2include_2pico_2sync_8h.html" target="_top" xlink:title=" ">
<polygon fill="white" stroke="#666666" points="437,-244.5 366,-244.5 366,-225.5 437,-225.5 437,-244.5"/>
<text text-anchor="middle" x="401.5" y="-232.5" font-family="Helvetica,sans-Serif" font-size="10.00">pico/sync.h</text>
</a>
</g>
</g>
<!-- Node1&#45;&gt;Node12 -->
<g id="edge13_Node000001_Node000012" class="edge">
<title>Node1&#45;&gt;Node12</title>
<g id="a_edge13_Node000001_Node000012"><a xlink:title=" ">
<path fill="none" stroke="#63b8ff" d="M272.46,-285.99C298.18,-276.03 340.98,-259.45 370.18,-248.13"/>
<polygon fill="#63b8ff" stroke="#63b8ff" points="371.46,-251.39 379.52,-244.52 368.93,-244.87 371.46,-251.39"/>
</a>
</g>
</g>
<!-- Node18 -->
<g id="Node000018" class="node">
<title>Node18</title>
<g id="a_Node000018"><a xlink:title=" ">
<polygon fill="#e0e0e0" stroke="#999999" points="542,-244.5 455,-244.5 455,-225.5 542,-225.5 542,-244.5"/>
<text text-anchor="middle" x="498.5" y="-232.5" font-family="Helvetica,sans-Serif" font-size="10.00">hardware/irq.h</text>
</a>
</g>
</g>
<!-- Node1&#45;&gt;Node18 -->
<g id="edge24_Node000001_Node000018" class="edge">
<title>Node1&#45;&gt;Node18</title>
<g id="a_edge24_Node000001_Node000018"><a xlink:title=" ">
<path fill="none" stroke="#63b8ff" d="M290.4,-285.93C330.08,-277.29 392.65,-263.36 446.5,-250 450.12,-249.1 453.87,-248.15 457.62,-247.17"/>
<polygon fill="#63b8ff" stroke="#63b8ff" points="458.71,-250.5 467.48,-244.57 456.92,-243.74 458.71,-250.5"/>
</a>
</g>
</g>
<!-- Node4 -->
<g id="Node000004" class="node">
<title>Node4</title>
<g id="a_Node000004"><a xlink:href="async__context_8h.html" target="_top" xlink:title=" ">
<polygon fill="white" stroke="#666666" points="328,-129 209,-129 209,-110 328,-110 328,-129"/>
<text text-anchor="middle" x="268.5" y="-117" font-family="Helvetica,sans-Serif" font-size="10.00">pico/async_context.h</text>
</a>
</g>
</g>
<!-- Node3&#45;&gt;Node4 -->
<g id="edge3_Node000003_Node000004" class="edge">
<title>Node3&#45;&gt;Node4</title>
<g id="a_edge3_Node000003_Node000004"><a xlink:title=" ">
<path fill="none" stroke="#63b8ff" d="M77.66,-219.92C47.95,-210.25 14.12,-196.9 5.5,-184 0.81,-176.98 0.05,-171.45 5.5,-165 29.82,-136.22 129.51,-126.05 198.91,-122.45"/>
<polygon fill="#63b8ff" stroke="#63b8ff" points="199.1,-125.95 208.92,-121.97 198.76,-118.96 199.1,-125.95"/>
</a>
</g>
</g>
<!-- Node8 -->
<g id="Node000008" class="node">
<title>Node8</title>
<g id="a_Node000008"><a xlink:title=" ">
<polygon fill="#e0e0e0" stroke="#999999" points="163,-184 90,-184 90,-165 163,-165 163,-184"/>
<text text-anchor="middle" x="126.5" y="-172" font-family="Helvetica,sans-Serif" font-size="10.00">FreeRTOS.h</text>
</a>
</g>
</g>
<!-- Node3&#45;&gt;Node8 -->
<g id="edge8_Node000003_Node000008" class="edge">
<title>Node3&#45;&gt;Node8</title>
<g id="a_edge8_Node000003_Node000008"><a xlink:title=" ">
<path fill="none" stroke="#63b8ff" d="M126.5,-219.84C126.5,-212.21 126.5,-202.7 126.5,-194.45"/>
<polygon fill="#63b8ff" stroke="#63b8ff" points="130,-194.27 126.5,-184.27 123,-194.27 130,-194.27"/>
</a>
</g>
</g>
<!-- Node3&#45;&gt;Node9 -->
<g id="edge9_Node000003_Node000009" class="edge">
<title>Node3&#45;&gt;Node9</title>
<g id="a_edge9_Node000003_Node000009"><a xlink:title=" ">
<path fill="none" stroke="#63b8ff" d="M147.32,-219.84C160.65,-210.77 177.89,-199.04 191.29,-189.92"/>
<polygon fill="#63b8ff" stroke="#63b8ff" points="193.57,-192.61 199.87,-184.09 189.63,-186.83 193.57,-192.61"/>
</a>
</g>
</g>
<!-- Node10 -->
<g id="Node000010" class="node">
<title>Node10</title>
<g id="a_Node000010"><a xlink:title=" ">
<polygon fill="#e0e0e0" stroke="#999999" points="72,-184 15,-184 15,-165 72,-165 72,-184"/>
<text text-anchor="middle" x="43.5" y="-172" font-family="Helvetica,sans-Serif" font-size="10.00">timers.h</text>
</a>
</g>
</g>
<!-- Node3&#45;&gt;Node10 -->
<g id="edge10_Node000003_Node000010" class="edge">
<title>Node3&#45;&gt;Node10</title>
<g id="a_edge10_Node000003_Node000010"><a xlink:title=" ">
<path fill="none" stroke="#63b8ff" d="M106.41,-219.84C93.62,-210.83 77.1,-199.18 64.2,-190.09"/>
<polygon fill="#63b8ff" stroke="#63b8ff" points="66.13,-187.17 55.94,-184.27 62.09,-192.89 66.13,-187.17"/>
</a>
</g>
</g>
<!-- Node5 -->
<g id="Node000005" class="node">
<title>Node5</title>
<g id="a_Node000005"><a xlink:title=" ">
<polygon fill="#e0e0e0" stroke="#999999" points="418.5,-19 372.5,-19 372.5,0 418.5,0 418.5,-19"/>
<text text-anchor="middle" x="395.5" y="-7" font-family="Helvetica,sans-Serif" font-size="10.00">pico.h</text>
</a>
</g>
</g>
<!-- Node4&#45;&gt;Node5 -->
<g id="edge4_Node000004_Node000005" class="edge">
<title>Node4&#45;&gt;Node5</title>
<g id="a_edge4_Node000004_Node000005"><a xlink:title=" ">
<path fill="none" stroke="#63b8ff" d="M268.79,-109.98C269.69,-96.64 273.3,-70.7 287.5,-55 297.92,-43.48 334.54,-29.81 362.28,-20.69"/>
<polygon fill="#63b8ff" stroke="#63b8ff" points="363.58,-23.95 372.03,-17.55 361.43,-17.29 363.58,-23.95"/>
</a>
</g>
</g>
<!-- Node6 -->
<g id="Node000006" class="node">
<title>Node6</title>
<g id="a_Node000006"><a xlink:href="common_2pico__time_2include_2pico_2time_8h.html" target="_top" xlink:title=" ">
<polygon fill="white" stroke="#666666" points="367,-74 296,-74 296,-55 367,-55 367,-74"/>
<text text-anchor="middle" x="331.5" y="-62" font-family="Helvetica,sans-Serif" font-size="10.00">pico/time.h</text>
</a>
</g>
</g>
<!-- Node4&#45;&gt;Node6 -->
<g id="edge5_Node000004_Node000006" class="edge">
<title>Node4&#45;&gt;Node6</title>
<g id="a_edge5_Node000004_Node000006"><a xlink:title=" ">
<path fill="none" stroke="#63b8ff" d="M278.62,-109.98C287.94,-102.15 301.97,-90.34 313.24,-80.86"/>
<polygon fill="#63b8ff" stroke="#63b8ff" points="315.79,-83.29 321.19,-74.17 311.29,-77.93 315.79,-83.29"/>
</a>
</g>
</g>
<!-- Node6&#45;&gt;Node5 -->
<g id="edge6_Node000006_Node000005" class="edge">
<title>Node6&#45;&gt;Node5</title>
<g id="a_edge6_Node000006_Node000005"><a xlink:title=" ">
<path fill="none" stroke="#63b8ff" d="M341.78,-54.98C351.34,-47.07 365.78,-35.11 377.28,-25.58"/>
<polygon fill="#63b8ff" stroke="#63b8ff" points="379.56,-28.24 385.03,-19.17 375.1,-22.85 379.56,-28.24"/>
</a>
</g>
</g>
<!-- Node7 -->
<g id="Node000007" class="node">
<title>Node7</title>
<g id="a_Node000007"><a xlink:title=" ">
<polygon fill="#e0e0e0" stroke="#999999" points="354,-19 253,-19 253,0 354,0 354,-19"/>
<text text-anchor="middle" x="303.5" y="-7" font-family="Helvetica,sans-Serif" font-size="10.00">hardware/timer.h</text>
</a>
</g>
</g>
<!-- Node6&#45;&gt;Node7 -->
<g id="edge7_Node000006_Node000007" class="edge">
<title>Node6&#45;&gt;Node7</title>
<g id="a_edge7_Node000006_Node000007"><a xlink:title=" ">
<path fill="none" stroke="#63b8ff" d="M326.88,-54.75C323.04,-47.49 317.48,-36.95 312.74,-27.98"/>
<polygon fill="#63b8ff" stroke="#63b8ff" points="315.8,-26.3 308.04,-19.09 309.61,-29.57 315.8,-26.3"/>
</a>
</g>
</g>
<!-- Node11&#45;&gt;Node4 -->
<g id="edge12_Node000011_Node000004" class="edge">
<title>Node11&#45;&gt;Node4</title>
<g id="a_edge12_Node000011_Node000004"><a xlink:title=" ">
<path fill="none" stroke="#63b8ff" d="M289.46,-219.63C285.14,-199.21 277.23,-161.81 272.46,-139.24"/>
<polygon fill="#63b8ff" stroke="#63b8ff" points="275.84,-138.29 270.35,-129.23 268.99,-139.74 275.84,-138.29"/>
</a>
</g>
</g>
<!-- Node13 -->
<g id="Node000013" class="node">
<title>Node13</title>
<g id="a_Node000013"><a xlink:href="sem_8h.html" target="_top" xlink:title=" ">
<polygon fill="white" stroke="#666666" points="467.5,-184 397.5,-184 397.5,-165 467.5,-165 467.5,-184"/>
<text text-anchor="middle" x="432.5" y="-172" font-family="Helvetica,sans-Serif" font-size="10.00">pico/sem.h</text>
</a>
</g>
</g>
<!-- Node12&#45;&gt;Node13 -->
<g id="edge14_Node000012_Node000013" class="edge">
<title>Node12&#45;&gt;Node13</title>
<g id="a_edge14_Node000012_Node000013"><a xlink:title=" ">
<path fill="none" stroke="#63b8ff" d="M406.07,-225.37C410.56,-216.9 417.53,-203.74 423.19,-193.07"/>
<polygon fill="#63b8ff" stroke="#63b8ff" points="426.32,-194.64 427.91,-184.17 420.13,-191.36 426.32,-194.64"/>
</a>
</g>
</g>
<!-- Node16 -->
<g id="Node000016" class="node">
<title>Node16</title>
<g id="a_Node000016"><a xlink:href="mutex_8h.html" target="_top" xlink:title=" ">
<polygon fill="white" stroke="#666666" points="379.5,-184 299.5,-184 299.5,-165 379.5,-165 379.5,-184"/>
<text text-anchor="middle" x="339.5" y="-172" font-family="Helvetica,sans-Serif" font-size="10.00">pico/mutex.h</text>
</a>
</g>
</g>
<!-- Node12&#45;&gt;Node16 -->
<g id="edge19_Node000012_Node000016" class="edge">
<title>Node12&#45;&gt;Node16</title>
<g id="a_edge19_Node000012_Node000016"><a xlink:title=" ">
<path fill="none" stroke="#63b8ff" d="M392.35,-225.37C382.83,-216.38 367.7,-202.11 356.07,-191.14"/>
<polygon fill="#63b8ff" stroke="#63b8ff" points="358.36,-188.48 348.69,-184.17 353.56,-193.58 358.36,-188.48"/>
</a>
</g>
</g>
<!-- Node17 -->
<g id="Node000017" class="node">
<title>Node17</title>
<g id="a_Node000017"><a xlink:href="critical__section_8h.html" target="_top" xlink:title=" ">
<polygon fill="white" stroke="#666666" points="607.5,-184 485.5,-184 485.5,-165 607.5,-165 607.5,-184"/>
<text text-anchor="middle" x="546.5" y="-172" font-family="Helvetica,sans-Serif" font-size="10.00">pico/critical_section.h</text>
</a>
</g>
</g>
<!-- Node12&#45;&gt;Node17 -->
<g id="edge21_Node000012_Node000017" class="edge">
<title>Node12&#45;&gt;Node17</title>
<g id="a_edge21_Node000012_Node000017"><a xlink:title=" ">
<path fill="none" stroke="#63b8ff" d="M422.58,-225.49C447.18,-215.57 488.03,-199.09 516.06,-187.78"/>
<polygon fill="#63b8ff" stroke="#63b8ff" points="517.43,-191 525.39,-184.02 514.81,-184.51 517.43,-191"/>
</a>
</g>
</g>
<!-- Node14 -->
<g id="Node000014" class="node">
<title>Node14</title>
<g id="a_Node000014"><a xlink:href="lock__core_8h.html" target="_top" xlink:title="Base implementation for locking primitives protected by a spin lock.">
<polygon fill="white" stroke="#666666" points="463,-129 368,-129 368,-110 463,-110 463,-129"/>
<text text-anchor="middle" x="415.5" y="-117" font-family="Helvetica,sans-Serif" font-size="10.00">pico/lock_core.h</text>
</a>
</g>
</g>
<!-- Node13&#45;&gt;Node14 -->
<g id="edge15_Node000013_Node000014" class="edge">
<title>Node13&#45;&gt;Node14</title>
<g id="a_edge15_Node000013_Node000014"><a xlink:title=" ">
<path fill="none" stroke="#63b8ff" d="M429.69,-164.75C427.44,-157.72 424.2,-147.62 421.38,-138.84"/>
<polygon fill="#63b8ff" stroke="#63b8ff" points="424.64,-137.54 418.25,-129.09 417.98,-139.68 424.64,-137.54"/>
</a>
</g>
</g>
<!-- Node14&#45;&gt;Node5 -->
<g id="edge16_Node000014_Node000005" class="edge">
<title>Node14&#45;&gt;Node5</title>
<g id="a_edge16_Node000014_Node000005"><a xlink:title=" ">
<path fill="none" stroke="#63b8ff" d="M413.86,-109.66C410.62,-92.17 403.33,-52.8 398.98,-29.27"/>
<polygon fill="#63b8ff" stroke="#63b8ff" points="402.37,-28.35 397.1,-19.16 395.48,-29.63 402.37,-28.35"/>
</a>
</g>
</g>
<!-- Node14&#45;&gt;Node6 -->
<g id="edge17_Node000014_Node000006" class="edge">
<title>Node14&#45;&gt;Node6</title>
<g id="a_edge17_Node000014_Node000006"><a xlink:title=" ">
<path fill="none" stroke="#63b8ff" d="M402,-109.98C389.1,-101.84 369.4,-89.41 354.1,-79.76"/>
<polygon fill="#63b8ff" stroke="#63b8ff" points="355.57,-76.55 345.24,-74.17 351.83,-82.47 355.57,-76.55"/>
</a>
</g>
</g>
<!-- Node15 -->
<g id="Node000015" class="node">
<title>Node15</title>
<g id="a_Node000015"><a xlink:title=" ">
<polygon fill="#e0e0e0" stroke="#999999" points="521,-74 424,-74 424,-55 521,-55 521,-74"/>
<text text-anchor="middle" x="472.5" y="-62" font-family="Helvetica,sans-Serif" font-size="10.00">hardware/sync.h</text>
</a>
</g>
</g>
<!-- Node14&#45;&gt;Node15 -->
<g id="edge18_Node000014_Node000015" class="edge">
<title>Node14&#45;&gt;Node15</title>
<g id="a_edge18_Node000014_Node000015"><a xlink:title=" ">
<path fill="none" stroke="#63b8ff" d="M424.66,-109.98C433,-102.23 445.53,-90.58 455.68,-81.14"/>
<polygon fill="#63b8ff" stroke="#63b8ff" points="458.24,-83.54 463.18,-74.17 453.47,-78.42 458.24,-83.54"/>
</a>
</g>
</g>
<!-- Node16&#45;&gt;Node14 -->
<g id="edge20_Node000016_Node000014" class="edge">
<title>Node16&#45;&gt;Node14</title>
<g id="a_edge20_Node000016_Node000014"><a xlink:title=" ">
<path fill="none" stroke="#63b8ff" d="M351.71,-164.98C363.28,-156.92 380.88,-144.65 394.66,-135.03"/>
<polygon fill="#63b8ff" stroke="#63b8ff" points="396.87,-137.76 403.07,-129.17 392.86,-132.02 396.87,-137.76"/>
</a>
</g>
</g>
<!-- Node17&#45;&gt;Node5 -->
<g id="edge22_Node000017_Node000005" class="edge">
<title>Node17&#45;&gt;Node5</title>
<g id="a_edge22_Node000017_Node000005"><a xlink:title=" ">
<path fill="none" stroke="#63b8ff" d="M548.14,-164.85C551.66,-143.48 557.56,-87.57 530.5,-55 505.56,-24.99 459.93,-15.07 428.67,-11.88"/>
<polygon fill="#63b8ff" stroke="#63b8ff" points="428.94,-8.39 418.68,-11.03 428.35,-15.36 428.94,-8.39"/>
</a>
</g>
</g>
<!-- Node17&#45;&gt;Node14 -->
<g id="edge23_Node000017_Node000014" class="edge">
<title>Node17&#45;&gt;Node14</title>
<g id="a_edge23_Node000017_Node000014"><a xlink:title=" ">
<path fill="none" stroke="#63b8ff" d="M525.45,-164.98C504.09,-156.34 470.8,-142.87 446.44,-133.02"/>
<polygon fill="#63b8ff" stroke="#63b8ff" points="447.51,-129.68 436.93,-129.17 444.89,-136.17 447.51,-129.68"/>
</a>
</g>
</g>
</g>
</svg>
