<?xml version="1.0" encoding="UTF-8" standalone="no"?>
<!DOCTYPE svg PUBLIC "-//W3C//DTD SVG 1.1//EN"
 "http://www.w3.org/Graphics/SVG/1.1/DTD/svg11.dtd">
<!-- Generated by graphviz version 2.43.0 (0)
 -->
<!-- Title: async_context_threadsafe_background.c Pages: 1 -->
<svg width="515pt" height="324pt"
 viewBox="0.00 0.00 515.00 324.00" xmlns="http://www.w3.org/2000/svg" xmlns:xlink="http://www.w3.org/1999/xlink">
<g id="graph0" class="graph" transform="scale(1 1) rotate(0) translate(4 320)">
<title>async_context_threadsafe_background.c</title>
<!-- Node1 -->
<g id="Node000001" class="node">
<title>Node1</title>
<g id="a_Node000001"><a xlink:title=" ">
<polygon fill="#999999" stroke="#666666" points="308,-316 163,-316 163,-286 308,-286 308,-316"/>
<text text-anchor="start" x="171" y="-304" font-family="Helvetica,sans-Serif" font-size="10.00">async_context_threadsafe</text>
<text text-anchor="middle" x="235.5" y="-293" font-family="Helvetica,sans-Serif" font-size="10.00">_background.c</text>
</a>
</g>
</g>
<!-- Node2 -->
<g id="Node000002" class="node">
<title>Node2</title>
<g id="a_Node000002"><a xlink:title=" ">
<polygon fill="#e0e0e0" stroke="#999999" points="53,-244.5 0,-244.5 0,-225.5 53,-225.5 53,-244.5"/>
<text text-anchor="middle" x="26.5" y="-232.5" font-family="Helvetica,sans-Serif" font-size="10.00">string.h</text>
</a>
</g>
</g>
<!-- Node1&#45;&gt;Node2 -->
<g id="edge1_Node000001_Node000002" class="edge">
<title>Node1&#45;&gt;Node2</title>
<g id="a_edge1_Node000001_Node000002"><a xlink:title=" ">
<path fill="none" stroke="#63b8ff" d="M182.12,-285.9C147.73,-276.49 102.19,-263.42 62.5,-250 60.84,-249.44 59.14,-248.85 57.44,-248.23"/>
<polygon fill="#63b8ff" stroke="#63b8ff" points="58.3,-244.82 47.7,-244.61 55.85,-251.38 58.3,-244.82"/>
</a>
</g>
</g>
<!-- Node3 -->
<g id="Node000003" class="node">
<title>Node3</title>
<g id="a_Node000003"><a xlink:href="async__context__threadsafe__background_8h.html" target="_top" xlink:title=" ">
<polygon fill="white" stroke="#666666" points="435.5,-250 289.5,-250 289.5,-220 435.5,-220 435.5,-250"/>
<text text-anchor="start" x="297.5" y="-238" font-family="Helvetica,sans-Serif" font-size="10.00">pico/async_context</text>
<text text-anchor="middle" x="362.5" y="-227" font-family="Helvetica,sans-Serif" font-size="10.00">_threadsafe_background.h</text>
</a>
</g>
</g>
<!-- Node1&#45;&gt;Node3 -->
<g id="edge2_Node000001_Node000003" class="edge">
<title>Node1&#45;&gt;Node3</title>
<g id="a_edge2_Node000001_Node000003"><a xlink:title=" ">
<path fill="none" stroke="#63b8ff" d="M263.37,-285.95C281.65,-276.74 305.75,-264.6 325.62,-254.59"/>
<polygon fill="#63b8ff" stroke="#63b8ff" points="327.34,-257.64 334.69,-250.01 324.19,-251.39 327.34,-257.64"/>
</a>
</g>
</g>
<!-- Node12 -->
<g id="Node000012" class="node">
<title>Node12</title>
<g id="a_Node000012"><a xlink:title=" ">
<polygon fill="#e0e0e0" stroke="#999999" points="507,-184 420,-184 420,-165 507,-165 507,-184"/>
<text text-anchor="middle" x="463.5" y="-172" font-family="Helvetica,sans-Serif" font-size="10.00">hardware/irq.h</text>
</a>
</g>
</g>
<!-- Node1&#45;&gt;Node12 -->
<g id="edge24_Node000001_Node000012" class="edge">
<title>Node1&#45;&gt;Node12</title>
<g id="a_edge24_Node000001_Node000012"><a xlink:title=" ">
<path fill="none" stroke="#63b8ff" d="M308.17,-290.7C360.52,-282.55 425.2,-269.02 444.5,-250 459.18,-235.54 463.06,-211.43 463.83,-194.56"/>
<polygon fill="#63b8ff" stroke="#63b8ff" points="467.34,-194.3 463.96,-184.25 460.34,-194.21 467.34,-194.3"/>
</a>
</g>
</g>
<!-- Node13 -->
<g id="Node000013" class="node">
<title>Node13</title>
<g id="a_Node000013"><a xlink:href="async__context__base_8h.html" target="_top" xlink:title=" ">
<polygon fill="white" stroke="#666666" points="181.5,-250 71.5,-250 71.5,-220 181.5,-220 181.5,-250"/>
<text text-anchor="start" x="79.5" y="-238" font-family="Helvetica,sans-Serif" font-size="10.00">pico/async_context</text>
<text text-anchor="middle" x="126.5" y="-227" font-family="Helvetica,sans-Serif" font-size="10.00">_base.h</text>
</a>
</g>
</g>
<!-- Node1&#45;&gt;Node13 -->
<g id="edge16_Node000001_Node000013" class="edge">
<title>Node1&#45;&gt;Node13</title>
<g id="a_edge16_Node000001_Node000013"><a xlink:title=" ">
<path fill="none" stroke="#63b8ff" d="M211.58,-285.95C196.25,-276.95 176.14,-265.14 159.32,-255.27"/>
<polygon fill="#63b8ff" stroke="#63b8ff" points="160.76,-252.06 150.36,-250.01 157.22,-258.09 160.76,-252.06"/>
</a>
</g>
</g>
<!-- Node14 -->
<g id="Node000014" class="node">
<title>Node14</title>
<g id="a_Node000014"><a xlink:href="common_2pico__sync_2include_2pico_2sync_8h.html" target="_top" xlink:title=" ">
<polygon fill="white" stroke="#666666" points="271,-244.5 200,-244.5 200,-225.5 271,-225.5 271,-244.5"/>
<text text-anchor="middle" x="235.5" y="-232.5" font-family="Helvetica,sans-Serif" font-size="10.00">pico/sync.h</text>
</a>
</g>
</g>
<!-- Node1&#45;&gt;Node14 -->
<g id="edge18_Node000001_Node000014" class="edge">
<title>Node1&#45;&gt;Node14</title>
<g id="a_edge18_Node000001_Node000014"><a xlink:title=" ">
<path fill="none" stroke="#63b8ff" d="M235.5,-285.8C235.5,-276.7 235.5,-264.79 235.5,-254.9"/>
<polygon fill="#63b8ff" stroke="#63b8ff" points="239,-254.84 235.5,-244.84 232,-254.84 239,-254.84"/>
</a>
</g>
</g>
<!-- Node4 -->
<g id="Node000004" class="node">
<title>Node4</title>
<g id="a_Node000004"><a xlink:href="async__context_8h.html" target="_top" xlink:title=" ">
<polygon fill="white" stroke="#666666" points="420,-129 301,-129 301,-110 420,-110 420,-129"/>
<text text-anchor="middle" x="360.5" y="-117" font-family="Helvetica,sans-Serif" font-size="10.00">pico/async_context.h</text>
</a>
</g>
</g>
<!-- Node3&#45;&gt;Node4 -->
<g id="edge3_Node000003_Node000004" class="edge">
<title>Node3&#45;&gt;Node4</title>
<g id="a_edge3_Node000003_Node000004"><a xlink:title=" ">
<path fill="none" stroke="#63b8ff" d="M366.88,-219.74C370.61,-205.8 375.01,-183.96 372.5,-165 371.34,-156.27 368.97,-146.83 366.63,-138.9"/>
<polygon fill="#63b8ff" stroke="#63b8ff" points="369.93,-137.72 363.59,-129.23 363.25,-139.82 369.93,-137.72"/>
</a>
</g>
</g>
<!-- Node8 -->
<g id="Node000008" class="node">
<title>Node8</title>
<g id="a_Node000008"><a xlink:href="sem_8h.html" target="_top" xlink:title=" ">
<polygon fill="white" stroke="#666666" points="363.5,-184 293.5,-184 293.5,-165 363.5,-165 363.5,-184"/>
<text text-anchor="middle" x="328.5" y="-172" font-family="Helvetica,sans-Serif" font-size="10.00">pico/sem.h</text>
</a>
</g>
</g>
<!-- Node3&#45;&gt;Node8 -->
<g id="edge8_Node000003_Node000008" class="edge">
<title>Node3&#45;&gt;Node8</title>
<g id="a_edge8_Node000003_Node000008"><a xlink:title=" ">
<path fill="none" stroke="#63b8ff" d="M354.27,-219.84C349.59,-211.78 343.68,-201.62 338.7,-193.06"/>
<polygon fill="#63b8ff" stroke="#63b8ff" points="341.65,-191.15 333.59,-184.27 335.59,-194.67 341.65,-191.15"/>
</a>
</g>
</g>
<!-- Node11 -->
<g id="Node000011" class="node">
<title>Node11</title>
<g id="a_Node000011"><a xlink:href="mutex_8h.html" target="_top" xlink:title=" ">
<polygon fill="white" stroke="#666666" points="275.5,-184 195.5,-184 195.5,-165 275.5,-165 275.5,-184"/>
<text text-anchor="middle" x="235.5" y="-172" font-family="Helvetica,sans-Serif" font-size="10.00">pico/mutex.h</text>
</a>
</g>
</g>
<!-- Node3&#45;&gt;Node11 -->
<g id="edge13_Node000003_Node000011" class="edge">
<title>Node3&#45;&gt;Node11</title>
<g id="a_edge13_Node000003_Node000011"><a xlink:title=" ">
<path fill="none" stroke="#63b8ff" d="M332.08,-219.99C311.27,-210.4 283.88,-197.79 263.59,-188.44"/>
<polygon fill="#63b8ff" stroke="#63b8ff" points="264.8,-185.14 254.26,-184.14 261.87,-191.5 264.8,-185.14"/>
</a>
</g>
</g>
<!-- Node3&#45;&gt;Node12 -->
<g id="edge15_Node000003_Node000012" class="edge">
<title>Node3&#45;&gt;Node12</title>
<g id="a_edge15_Node000003_Node000012"><a xlink:title=" ">
<path fill="none" stroke="#63b8ff" d="M386.69,-219.99C402.79,-210.66 423.84,-198.47 439.83,-189.21"/>
<polygon fill="#63b8ff" stroke="#63b8ff" points="441.69,-192.18 448.58,-184.14 438.18,-186.12 441.69,-192.18"/>
</a>
</g>
</g>
<!-- Node5 -->
<g id="Node000005" class="node">
<title>Node5</title>
<g id="a_Node000005"><a xlink:title=" ">
<polygon fill="#e0e0e0" stroke="#999999" points="257.5,-19 211.5,-19 211.5,0 257.5,0 257.5,-19"/>
<text text-anchor="middle" x="234.5" y="-7" font-family="Helvetica,sans-Serif" font-size="10.00">pico.h</text>
</a>
</g>
</g>
<!-- Node4&#45;&gt;Node5 -->
<g id="edge4_Node000004_Node000005" class="edge">
<title>Node4&#45;&gt;Node5</title>
<g id="a_edge4_Node000004_Node000005"><a xlink:title=" ">
<path fill="none" stroke="#63b8ff" d="M360.52,-110C360.09,-96.67 357.38,-70.75 343.5,-55 333.09,-43.19 295.73,-29.47 267.62,-20.43"/>
<polygon fill="#63b8ff" stroke="#63b8ff" points="268.35,-16.98 257.76,-17.32 266.24,-23.66 268.35,-16.98"/>
</a>
</g>
</g>
<!-- Node6 -->
<g id="Node000006" class="node">
<title>Node6</title>
<g id="a_Node000006"><a xlink:href="common_2pico__time_2include_2pico_2time_8h.html" target="_top" xlink:title=" ">
<polygon fill="white" stroke="#666666" points="334,-74 263,-74 263,-55 334,-55 334,-74"/>
<text text-anchor="middle" x="298.5" y="-62" font-family="Helvetica,sans-Serif" font-size="10.00">pico/time.h</text>
</a>
</g>
</g>
<!-- Node4&#45;&gt;Node6 -->
<g id="edge5_Node000004_Node000006" class="edge">
<title>Node4&#45;&gt;Node6</title>
<g id="a_edge5_Node000004_Node000006"><a xlink:title=" ">
<path fill="none" stroke="#63b8ff" d="M350.54,-109.98C341.37,-102.15 327.56,-90.34 316.47,-80.86"/>
<polygon fill="#63b8ff" stroke="#63b8ff" points="318.52,-78.01 308.64,-74.17 313.97,-83.33 318.52,-78.01"/>
</a>
</g>
</g>
<!-- Node6&#45;&gt;Node5 -->
<g id="edge6_Node000006_Node000005" class="edge">
<title>Node6&#45;&gt;Node5</title>
<g id="a_edge6_Node000006_Node000005"><a xlink:title=" ">
<path fill="none" stroke="#63b8ff" d="M288.22,-54.98C278.66,-47.07 264.22,-35.11 252.72,-25.58"/>
<polygon fill="#63b8ff" stroke="#63b8ff" points="254.9,-22.85 244.97,-19.17 250.44,-28.24 254.9,-22.85"/>
</a>
</g>
</g>
<!-- Node7 -->
<g id="Node000007" class="node">
<title>Node7</title>
<g id="a_Node000007"><a xlink:title=" ">
<polygon fill="#e0e0e0" stroke="#999999" points="377,-19 276,-19 276,0 377,0 377,-19"/>
<text text-anchor="middle" x="326.5" y="-7" font-family="Helvetica,sans-Serif" font-size="10.00">hardware/timer.h</text>
</a>
</g>
</g>
<!-- Node6&#45;&gt;Node7 -->
<g id="edge7_Node000006_Node000007" class="edge">
<title>Node6&#45;&gt;Node7</title>
<g id="a_edge7_Node000006_Node000007"><a xlink:title=" ">
<path fill="none" stroke="#63b8ff" d="M303.12,-54.75C306.96,-47.49 312.52,-36.95 317.26,-27.98"/>
<polygon fill="#63b8ff" stroke="#63b8ff" points="320.39,-29.57 321.96,-19.09 314.2,-26.3 320.39,-29.57"/>
</a>
</g>
</g>
<!-- Node9 -->
<g id="Node000009" class="node">
<title>Node9</title>
<g id="a_Node000009"><a xlink:href="lock__core_8h.html" target="_top" xlink:title="Base implementation for locking primitives protected by a spin lock.">
<polygon fill="white" stroke="#666666" points="282,-129 187,-129 187,-110 282,-110 282,-129"/>
<text text-anchor="middle" x="234.5" y="-117" font-family="Helvetica,sans-Serif" font-size="10.00">pico/lock_core.h</text>
</a>
</g>
</g>
<!-- Node8&#45;&gt;Node9 -->
<g id="edge9_Node000008_Node000009" class="edge">
<title>Node8&#45;&gt;Node9</title>
<g id="a_edge9_Node000008_Node000009"><a xlink:title=" ">
<path fill="none" stroke="#63b8ff" d="M313.4,-164.98C298.68,-156.69 276.08,-143.94 258.83,-134.22"/>
<polygon fill="#63b8ff" stroke="#63b8ff" points="260.31,-131.03 249.88,-129.17 256.87,-137.13 260.31,-131.03"/>
</a>
</g>
</g>
<!-- Node9&#45;&gt;Node5 -->
<g id="edge10_Node000009_Node000005" class="edge">
<title>Node9&#45;&gt;Node5</title>
<g id="a_edge10_Node000009_Node000005"><a xlink:title=" ">
<path fill="none" stroke="#63b8ff" d="M234.5,-109.66C234.5,-92.17 234.5,-52.8 234.5,-29.27"/>
<polygon fill="#63b8ff" stroke="#63b8ff" points="238,-29.16 234.5,-19.16 231,-29.16 238,-29.16"/>
</a>
</g>
</g>
<!-- Node9&#45;&gt;Node6 -->
<g id="edge11_Node000009_Node000006" class="edge">
<title>Node9&#45;&gt;Node6</title>
<g id="a_edge11_Node000009_Node000006"><a xlink:title=" ">
<path fill="none" stroke="#63b8ff" d="M244.78,-109.98C254.34,-102.07 268.78,-90.11 280.28,-80.58"/>
<polygon fill="#63b8ff" stroke="#63b8ff" points="282.56,-83.24 288.03,-74.17 278.1,-77.85 282.56,-83.24"/>
</a>
</g>
</g>
<!-- Node10 -->
<g id="Node000010" class="node">
<title>Node10</title>
<g id="a_Node000010"><a xlink:title=" ">
<polygon fill="#e0e0e0" stroke="#999999" points="206,-74 109,-74 109,-55 206,-55 206,-74"/>
<text text-anchor="middle" x="157.5" y="-62" font-family="Helvetica,sans-Serif" font-size="10.00">hardware/sync.h</text>
</a>
</g>
</g>
<!-- Node9&#45;&gt;Node10 -->
<g id="edge12_Node000009_Node000010" class="edge">
<title>Node9&#45;&gt;Node10</title>
<g id="a_edge12_Node000009_Node000010"><a xlink:title=" ">
<path fill="none" stroke="#63b8ff" d="M222.13,-109.98C210.41,-101.92 192.58,-89.65 178.61,-80.03"/>
<polygon fill="#63b8ff" stroke="#63b8ff" points="180.32,-76.96 170.1,-74.17 176.35,-82.72 180.32,-76.96"/>
</a>
</g>
</g>
<!-- Node11&#45;&gt;Node9 -->
<g id="edge14_Node000011_Node000009" class="edge">
<title>Node11&#45;&gt;Node9</title>
<g id="a_edge14_Node000011_Node000009"><a xlink:title=" ">
<path fill="none" stroke="#63b8ff" d="M235.33,-164.75C235.2,-157.8 235.02,-147.85 234.85,-139.13"/>
<polygon fill="#63b8ff" stroke="#63b8ff" points="238.35,-139.02 234.66,-129.09 231.35,-139.15 238.35,-139.02"/>
</a>
</g>
</g>
<!-- Node13&#45;&gt;Node4 -->
<g id="edge17_Node000013_Node000004" class="edge">
<title>Node13&#45;&gt;Node4</title>
<g id="a_edge17_Node000013_Node000004"><a xlink:title=" ">
<path fill="none" stroke="#63b8ff" d="M135.03,-219.83C145.28,-204.04 163.94,-178.92 186.5,-165 206.2,-152.85 261.55,-139.83 304.59,-131.03"/>
<polygon fill="#63b8ff" stroke="#63b8ff" points="305.29,-134.46 314.4,-129.06 303.91,-127.6 305.29,-134.46"/>
</a>
</g>
</g>
<!-- Node14&#45;&gt;Node8 -->
<g id="edge19_Node000014_Node000008" class="edge">
<title>Node14&#45;&gt;Node8</title>
<g id="a_edge19_Node000014_Node000008"><a xlink:title=" ">
<path fill="none" stroke="#63b8ff" d="M249.22,-225.37C264.2,-215.95 288.39,-200.73 306.12,-189.58"/>
<polygon fill="#63b8ff" stroke="#63b8ff" points="308.12,-192.45 314.72,-184.17 304.39,-186.53 308.12,-192.45"/>
</a>
</g>
</g>
<!-- Node14&#45;&gt;Node11 -->
<g id="edge20_Node000014_Node000011" class="edge">
<title>Node14&#45;&gt;Node11</title>
<g id="a_edge20_Node000014_Node000011"><a xlink:title=" ">
<path fill="none" stroke="#63b8ff" d="M235.5,-225.37C235.5,-217.25 235.5,-204.81 235.5,-194.39"/>
<polygon fill="#63b8ff" stroke="#63b8ff" points="239,-194.17 235.5,-184.17 232,-194.17 239,-194.17"/>
</a>
</g>
</g>
<!-- Node15 -->
<g id="Node000015" class="node">
<title>Node15</title>
<g id="a_Node000015"><a xlink:href="critical__section_8h.html" target="_top" xlink:title=" ">
<polygon fill="white" stroke="#666666" points="139.5,-184 17.5,-184 17.5,-165 139.5,-165 139.5,-184"/>
<text text-anchor="middle" x="78.5" y="-172" font-family="Helvetica,sans-Serif" font-size="10.00">pico/critical_section.h</text>
</a>
</g>
</g>
<!-- Node14&#45;&gt;Node15 -->
<g id="edge21_Node000014_Node000015" class="edge">
<title>Node14&#45;&gt;Node15</title>
<g id="a_edge21_Node000014_Node000015"><a xlink:title=" ">
<path fill="none" stroke="#63b8ff" d="M212.67,-225.49C185.93,-215.53 141.42,-198.95 111.06,-187.63"/>
<polygon fill="#63b8ff" stroke="#63b8ff" points="111.95,-184.23 101.36,-184.02 109.51,-190.79 111.95,-184.23"/>
</a>
</g>
</g>
<!-- Node15&#45;&gt;Node5 -->
<g id="edge22_Node000015_Node000005" class="edge">
<title>Node15&#45;&gt;Node5</title>
<g id="a_edge22_Node000015_Node000005"><a xlink:title=" ">
<path fill="none" stroke="#63b8ff" d="M77.38,-164.8C75.14,-143.32 72.45,-87.18 100.5,-55 125.78,-25.99 170.45,-15.82 201.22,-12.3"/>
<polygon fill="#63b8ff" stroke="#63b8ff" points="201.85,-15.76 211.47,-11.31 201.18,-8.79 201.85,-15.76"/>
</a>
</g>
</g>
<!-- Node15&#45;&gt;Node9 -->
<g id="edge23_Node000015_Node000009" class="edge">
<title>Node15&#45;&gt;Node9</title>
<g id="a_edge23_Node000015_Node000009"><a xlink:title=" ">
<path fill="none" stroke="#63b8ff" d="M103.56,-164.98C129.53,-156.16 170.31,-142.31 199.46,-132.41"/>
<polygon fill="#63b8ff" stroke="#63b8ff" points="200.9,-135.61 209.24,-129.08 198.65,-128.99 200.9,-135.61"/>
</a>
</g>
</g>
</g>
</svg>
