<?xml version="1.0" encoding="UTF-8" standalone="no"?>
<!DOCTYPE svg PUBLIC "-//W3C//DTD SVG 1.1//EN"
 "http://www.w3.org/Graphics/SVG/1.1/DTD/svg11.dtd">
<!-- Generated by graphviz version 2.43.0 (0)
 -->
<!-- Title: async_context_poll.h Pages: 1 -->
<svg width="318pt" height="247pt"
 viewBox="0.00 0.00 318.00 247.00" xmlns="http://www.w3.org/2000/svg" xmlns:xlink="http://www.w3.org/1999/xlink">
<g id="graph0" class="graph" transform="scale(1 1) rotate(0) translate(4 243)">
<title>async_context_poll.h</title>
<!-- Node1 -->
<g id="Node000001" class="node">
<title>Node1</title>
<g id="a_Node000001"><a xlink:title=" ">
<polygon fill="#999999" stroke="#666666" points="181,-239 62,-239 62,-220 181,-220 181,-239"/>
<text text-anchor="middle" x="121.5" y="-227" font-family="Helvetica,sans-Serif" font-size="10.00">async_context_poll.h</text>
</a>
</g>
</g>
<!-- Node2 -->
<g id="Node000002" class="node">
<title>Node2</title>
<g id="a_Node000002"><a xlink:href="async__context_8h.html" target="_top" xlink:title=" ">
<polygon fill="white" stroke="#666666" points="119,-129 0,-129 0,-110 119,-110 119,-129"/>
<text text-anchor="middle" x="59.5" y="-117" font-family="Helvetica,sans-Serif" font-size="10.00">pico/async_context.h</text>
</a>
</g>
</g>
<!-- Node1&#45;&gt;Node2 -->
<g id="edge1_Node000001_Node000002" class="edge">
<title>Node1&#45;&gt;Node2</title>
<g id="a_edge1_Node000001_Node000002"><a xlink:title=" ">
<path fill="none" stroke="#63b8ff" d="M116.43,-219.66C106.2,-201.85 82.96,-161.37 69.55,-138.01"/>
<polygon fill="#63b8ff" stroke="#63b8ff" points="72.48,-136.09 64.47,-129.16 66.41,-139.57 72.48,-136.09"/>
</a>
</g>
</g>
<!-- Node6 -->
<g id="Node000006" class="node">
<title>Node6</title>
<g id="a_Node000006"><a xlink:href="sem_8h.html" target="_top" xlink:title=" ">
<polygon fill="white" stroke="#666666" points="203.5,-184 133.5,-184 133.5,-165 203.5,-165 203.5,-184"/>
<text text-anchor="middle" x="168.5" y="-172" font-family="Helvetica,sans-Serif" font-size="10.00">pico/sem.h</text>
</a>
</g>
</g>
<!-- Node1&#45;&gt;Node6 -->
<g id="edge6_Node000001_Node000006" class="edge">
<title>Node1&#45;&gt;Node6</title>
<g id="a_edge6_Node000001_Node000006"><a xlink:title=" ">
<path fill="none" stroke="#63b8ff" d="M129.26,-219.75C135.97,-212.18 145.84,-201.05 154.01,-191.84"/>
<polygon fill="#63b8ff" stroke="#63b8ff" points="156.87,-193.89 160.88,-184.09 151.63,-189.25 156.87,-193.89"/>
</a>
</g>
</g>
<!-- Node3 -->
<g id="Node000003" class="node">
<title>Node3</title>
<g id="a_Node000003"><a xlink:title=" ">
<polygon fill="#e0e0e0" stroke="#999999" points="175.5,-19 129.5,-19 129.5,0 175.5,0 175.5,-19"/>
<text text-anchor="middle" x="152.5" y="-7" font-family="Helvetica,sans-Serif" font-size="10.00">pico.h</text>
</a>
</g>
</g>
<!-- Node2&#45;&gt;Node3 -->
<g id="edge2_Node000002_Node000003" class="edge">
<title>Node2&#45;&gt;Node3</title>
<g id="a_edge2_Node000002_Node000003"><a xlink:title=" ">
<path fill="none" stroke="#63b8ff" d="M59.61,-109.79C60.2,-96.64 63.03,-71.51 75.5,-55 86.67,-40.2 104.31,-29.5 119.88,-22.3"/>
<polygon fill="#63b8ff" stroke="#63b8ff" points="121.44,-25.44 129.23,-18.27 118.67,-19.01 121.44,-25.44"/>
</a>
</g>
</g>
<!-- Node4 -->
<g id="Node000004" class="node">
<title>Node4</title>
<g id="a_Node000004"><a xlink:href="common_2pico__time_2include_2pico_2time_8h.html" target="_top" xlink:title=" ">
<polygon fill="white" stroke="#666666" points="156,-74 85,-74 85,-55 156,-55 156,-74"/>
<text text-anchor="middle" x="120.5" y="-62" font-family="Helvetica,sans-Serif" font-size="10.00">pico/time.h</text>
</a>
</g>
</g>
<!-- Node2&#45;&gt;Node4 -->
<g id="edge3_Node000002_Node000004" class="edge">
<title>Node2&#45;&gt;Node4</title>
<g id="a_edge3_Node000002_Node000004"><a xlink:title=" ">
<path fill="none" stroke="#63b8ff" d="M69.3,-109.98C78.32,-102.15 91.91,-90.34 102.82,-80.86"/>
<polygon fill="#63b8ff" stroke="#63b8ff" points="105.27,-83.37 110.52,-74.17 100.68,-78.09 105.27,-83.37"/>
</a>
</g>
</g>
<!-- Node4&#45;&gt;Node3 -->
<g id="edge4_Node000004_Node000003" class="edge">
<title>Node4&#45;&gt;Node3</title>
<g id="a_edge4_Node000004_Node000003"><a xlink:title=" ">
<path fill="none" stroke="#63b8ff" d="M125.78,-54.75C130.21,-47.42 136.66,-36.73 142.12,-27.7"/>
<polygon fill="#63b8ff" stroke="#63b8ff" points="145.14,-29.46 147.31,-19.09 139.15,-25.84 145.14,-29.46"/>
</a>
</g>
</g>
<!-- Node5 -->
<g id="Node000005" class="node">
<title>Node5</title>
<g id="a_Node000005"><a xlink:title=" ">
<polygon fill="#e0e0e0" stroke="#999999" points="111,-19 10,-19 10,0 111,0 111,-19"/>
<text text-anchor="middle" x="60.5" y="-7" font-family="Helvetica,sans-Serif" font-size="10.00">hardware/timer.h</text>
</a>
</g>
</g>
<!-- Node4&#45;&gt;Node5 -->
<g id="edge5_Node000004_Node000005" class="edge">
<title>Node4&#45;&gt;Node5</title>
<g id="a_edge5_Node000004_Node000005"><a xlink:title=" ">
<path fill="none" stroke="#63b8ff" d="M110.86,-54.98C101.99,-47.15 88.63,-35.34 77.89,-25.86"/>
<polygon fill="#63b8ff" stroke="#63b8ff" points="80.13,-23.17 70.32,-19.17 75.49,-28.41 80.13,-23.17"/>
</a>
</g>
</g>
<!-- Node7 -->
<g id="Node000007" class="node">
<title>Node7</title>
<g id="a_Node000007"><a xlink:href="lock__core_8h.html" target="_top" xlink:title="Base implementation for locking primitives protected by a spin lock.">
<polygon fill="white" stroke="#666666" points="232,-129 137,-129 137,-110 232,-110 232,-129"/>
<text text-anchor="middle" x="184.5" y="-117" font-family="Helvetica,sans-Serif" font-size="10.00">pico/lock_core.h</text>
</a>
</g>
</g>
<!-- Node6&#45;&gt;Node7 -->
<g id="edge7_Node000006_Node000007" class="edge">
<title>Node6&#45;&gt;Node7</title>
<g id="a_edge7_Node000006_Node000007"><a xlink:title=" ">
<path fill="none" stroke="#63b8ff" d="M171.14,-164.75C173.26,-157.72 176.31,-147.62 178.96,-138.84"/>
<polygon fill="#63b8ff" stroke="#63b8ff" points="182.37,-139.67 181.91,-129.09 175.67,-137.65 182.37,-139.67"/>
</a>
</g>
</g>
<!-- Node7&#45;&gt;Node3 -->
<g id="edge8_Node000007_Node000003" class="edge">
<title>Node7&#45;&gt;Node3</title>
<g id="a_edge8_Node000007_Node000003"><a xlink:title=" ">
<path fill="none" stroke="#63b8ff" d="M181.88,-109.66C176.68,-92.09 164.93,-52.45 157.97,-28.95"/>
<polygon fill="#63b8ff" stroke="#63b8ff" points="161.26,-27.75 155.07,-19.16 154.55,-29.74 161.26,-27.75"/>
</a>
</g>
</g>
<!-- Node7&#45;&gt;Node4 -->
<g id="edge9_Node000007_Node000004" class="edge">
<title>Node7&#45;&gt;Node4</title>
<g id="a_edge9_Node000007_Node000004"><a xlink:title=" ">
<path fill="none" stroke="#63b8ff" d="M174.22,-109.98C164.66,-102.07 150.22,-90.11 138.72,-80.58"/>
<polygon fill="#63b8ff" stroke="#63b8ff" points="140.9,-77.85 130.97,-74.17 136.44,-83.24 140.9,-77.85"/>
</a>
</g>
</g>
<!-- Node8 -->
<g id="Node000008" class="node">
<title>Node8</title>
<g id="a_Node000008"><a xlink:title=" ">
<polygon fill="#e0e0e0" stroke="#999999" points="310,-74 213,-74 213,-55 310,-55 310,-74"/>
<text text-anchor="middle" x="261.5" y="-62" font-family="Helvetica,sans-Serif" font-size="10.00">hardware/sync.h</text>
</a>
</g>
</g>
<!-- Node7&#45;&gt;Node8 -->
<g id="edge10_Node000007_Node000008" class="edge">
<title>Node7&#45;&gt;Node8</title>
<g id="a_edge10_Node000007_Node000008"><a xlink:title=" ">
<path fill="none" stroke="#63b8ff" d="M196.87,-109.98C208.59,-101.92 226.42,-89.65 240.39,-80.03"/>
<polygon fill="#63b8ff" stroke="#63b8ff" points="242.65,-82.72 248.9,-74.17 238.68,-76.96 242.65,-82.72"/>
</a>
</g>
</g>
</g>
</svg>
