<?xml version="1.0" encoding="UTF-8" standalone="no"?>
<!DOCTYPE svg PUBLIC "-//W3C//DTD SVG 1.1//EN"
 "http://www.w3.org/Graphics/SVG/1.1/DTD/svg11.dtd">
<!-- Generated by graphviz version 2.43.0 (0)
 -->
<!-- Title: atomic.c Pages: 1 -->
<svg width="400pt" height="302pt"
 viewBox="0.00 0.00 399.55 302.00" xmlns="http://www.w3.org/2000/svg" xmlns:xlink="http://www.w3.org/1999/xlink">
<g id="graph0" class="graph" transform="scale(1 1) rotate(0) translate(4 298)">
<title>atomic.c</title>
<!-- Node1 -->
<g id="Node000001" class="node">
<title>Node1</title>
<g id="a_Node000001"><a xlink:title=" ">
<polygon fill="#999999" stroke="#666666" points="121.05,-294 62.05,-294 62.05,-275 121.05,-275 121.05,-294"/>
<text text-anchor="middle" x="91.55" y="-282" font-family="Helvetica,sans-Serif" font-size="10.00">atomic.c</text>
</a>
</g>
</g>
<!-- Node2 -->
<g id="Node000002" class="node">
<title>Node2</title>
<g id="a_Node000002"><a xlink:href="stdatomic_8h.html" target="_top" xlink:title=" ">
<polygon fill="white" stroke="#666666" points="75.55,-239 1.55,-239 1.55,-220 75.55,-220 75.55,-239"/>
<text text-anchor="middle" x="38.55" y="-227" font-family="Helvetica,sans-Serif" font-size="10.00">stdatomic.h</text>
</a>
</g>
</g>
<!-- Node1&#45;&gt;Node2 -->
<g id="edge1_Node000001_Node000002" class="edge">
<title>Node1&#45;&gt;Node2</title>
<g id="a_edge1_Node000001_Node000002"><a xlink:title=" ">
<path fill="none" stroke="#63b8ff" d="M82.79,-274.75C75.08,-267.03 63.64,-255.6 54.33,-246.28"/>
<polygon fill="#63b8ff" stroke="#63b8ff" points="56.68,-243.69 47.14,-239.09 51.73,-248.64 56.68,-243.69"/>
</a>
</g>
</g>
<!-- Node5 -->
<g id="Node000005" class="node">
<title>Node5</title>
<g id="a_Node000005"><a xlink:href="common_2pico__sync_2include_2pico_2sync_8h.html" target="_top" xlink:title=" ">
<polygon fill="white" stroke="#666666" points="237.05,-239 166.05,-239 166.05,-220 237.05,-220 237.05,-239"/>
<text text-anchor="middle" x="201.55" y="-227" font-family="Helvetica,sans-Serif" font-size="10.00">pico/sync.h</text>
</a>
</g>
</g>
<!-- Node1&#45;&gt;Node5 -->
<g id="edge4_Node000001_Node000005" class="edge">
<title>Node1&#45;&gt;Node5</title>
<g id="a_edge4_Node000001_Node000005"><a xlink:title=" ">
<path fill="none" stroke="#63b8ff" d="M109.22,-274.98C126.84,-266.5 154.12,-253.35 174.47,-243.54"/>
<polygon fill="#63b8ff" stroke="#63b8ff" points="176.06,-246.66 183.55,-239.17 173.02,-240.36 176.06,-246.66"/>
</a>
</g>
</g>
<!-- Node3 -->
<g id="Node000003" class="node">
<title>Node3</title>
<g id="a_Node000003"><a xlink:title=" ">
<polygon fill="#e0e0e0" stroke="#999999" points="65.05,-184 12.05,-184 12.05,-165 65.05,-165 65.05,-184"/>
<text text-anchor="middle" x="38.55" y="-172" font-family="Helvetica,sans-Serif" font-size="10.00">stdint.h</text>
</a>
</g>
</g>
<!-- Node2&#45;&gt;Node3 -->
<g id="edge2_Node000002_Node000003" class="edge">
<title>Node2&#45;&gt;Node3</title>
<g id="a_edge2_Node000002_Node000003"><a xlink:title=" ">
<path fill="none" stroke="#63b8ff" d="M38.55,-219.75C38.55,-212.8 38.55,-202.85 38.55,-194.13"/>
<polygon fill="#63b8ff" stroke="#63b8ff" points="42.05,-194.09 38.55,-184.09 35.05,-194.09 42.05,-194.09"/>
</a>
</g>
</g>
<!-- Node4 -->
<g id="Node000004" class="node">
<title>Node4</title>
<g id="a_Node000004"><a xlink:title=" ">
<polygon fill="#e0e0e0" stroke="#999999" points="190.55,-19 144.55,-19 144.55,0 190.55,0 190.55,-19"/>
<text text-anchor="middle" x="167.55" y="-7" font-family="Helvetica,sans-Serif" font-size="10.00">pico.h</text>
</a>
</g>
</g>
<!-- Node2&#45;&gt;Node4 -->
<g id="edge3_Node000002_Node000004" class="edge">
<title>Node2&#45;&gt;Node4</title>
<g id="a_edge3_Node000002_Node000004"><a xlink:title=" ">
<path fill="none" stroke="#63b8ff" d="M27.64,-219.79C14.11,-207.84 -6.17,-185.53 2.55,-165 30.83,-98.4 103.96,-47.59 142.67,-24.38"/>
<polygon fill="#63b8ff" stroke="#63b8ff" points="144.86,-27.15 151.72,-19.07 141.32,-21.11 144.86,-27.15"/>
</a>
</g>
</g>
<!-- Node6 -->
<g id="Node000006" class="node">
<title>Node6</title>
<g id="a_Node000006"><a xlink:href="sem_8h.html" target="_top" xlink:title=" ">
<polygon fill="white" stroke="#666666" points="293.55,-184 223.55,-184 223.55,-165 293.55,-165 293.55,-184"/>
<text text-anchor="middle" x="258.55" y="-172" font-family="Helvetica,sans-Serif" font-size="10.00">pico/sem.h</text>
</a>
</g>
</g>
<!-- Node5&#45;&gt;Node6 -->
<g id="edge5_Node000005_Node000006" class="edge">
<title>Node5&#45;&gt;Node6</title>
<g id="a_edge5_Node000005_Node000006"><a xlink:title=" ">
<path fill="none" stroke="#63b8ff" d="M210.7,-219.98C219.05,-212.23 231.58,-200.58 241.72,-191.14"/>
<polygon fill="#63b8ff" stroke="#63b8ff" points="244.28,-193.54 249.22,-184.17 239.52,-188.42 244.28,-193.54"/>
</a>
</g>
</g>
<!-- Node11 -->
<g id="Node000011" class="node">
<title>Node11</title>
<g id="a_Node000011"><a xlink:href="mutex_8h.html" target="_top" xlink:title=" ">
<polygon fill="white" stroke="#666666" points="391.55,-184 311.55,-184 311.55,-165 391.55,-165 391.55,-184"/>
<text text-anchor="middle" x="351.55" y="-172" font-family="Helvetica,sans-Serif" font-size="10.00">pico/mutex.h</text>
</a>
</g>
</g>
<!-- Node5&#45;&gt;Node11 -->
<g id="edge12_Node000005_Node000011" class="edge">
<title>Node5&#45;&gt;Node11</title>
<g id="a_edge12_Node000005_Node000011"><a xlink:title=" ">
<path fill="none" stroke="#63b8ff" d="M225.65,-219.98C250.43,-211.23 289.25,-197.51 317.23,-187.62"/>
<polygon fill="#63b8ff" stroke="#63b8ff" points="318.75,-190.8 327.01,-184.17 316.41,-184.2 318.75,-190.8"/>
</a>
</g>
</g>
<!-- Node12 -->
<g id="Node000012" class="node">
<title>Node12</title>
<g id="a_Node000012"><a xlink:href="critical__section_8h.html" target="_top" xlink:title=" ">
<polygon fill="white" stroke="#666666" points="205.55,-184 83.55,-184 83.55,-165 205.55,-165 205.55,-184"/>
<text text-anchor="middle" x="144.55" y="-172" font-family="Helvetica,sans-Serif" font-size="10.00">pico/critical_section.h</text>
</a>
</g>
</g>
<!-- Node5&#45;&gt;Node12 -->
<g id="edge14_Node000005_Node000012" class="edge">
<title>Node5&#45;&gt;Node12</title>
<g id="a_edge14_Node000005_Node000012"><a xlink:title=" ">
<path fill="none" stroke="#63b8ff" d="M192.39,-219.98C184.05,-212.23 171.51,-200.58 161.37,-191.14"/>
<polygon fill="#63b8ff" stroke="#63b8ff" points="163.58,-188.42 153.87,-184.17 158.81,-193.54 163.58,-188.42"/>
</a>
</g>
</g>
<!-- Node7 -->
<g id="Node000007" class="node">
<title>Node7</title>
<g id="a_Node000007"><a xlink:href="lock__core_8h.html" target="_top" xlink:title="Base implementation for locking primitives protected by a spin lock.">
<polygon fill="white" stroke="#666666" points="306.05,-129 211.05,-129 211.05,-110 306.05,-110 306.05,-129"/>
<text text-anchor="middle" x="258.55" y="-117" font-family="Helvetica,sans-Serif" font-size="10.00">pico/lock_core.h</text>
</a>
</g>
</g>
<!-- Node6&#45;&gt;Node7 -->
<g id="edge6_Node000006_Node000007" class="edge">
<title>Node6&#45;&gt;Node7</title>
<g id="a_edge6_Node000006_Node000007"><a xlink:title=" ">
<path fill="none" stroke="#63b8ff" d="M258.55,-164.75C258.55,-157.8 258.55,-147.85 258.55,-139.13"/>
<polygon fill="#63b8ff" stroke="#63b8ff" points="262.05,-139.09 258.55,-129.09 255.05,-139.09 262.05,-139.09"/>
</a>
</g>
</g>
<!-- Node7&#45;&gt;Node4 -->
<g id="edge7_Node000007_Node000004" class="edge">
<title>Node7&#45;&gt;Node4</title>
<g id="a_edge7_Node000007_Node000004"><a xlink:title=" ">
<path fill="none" stroke="#63b8ff" d="M257.9,-109.82C256.52,-96.7 252.29,-71.62 239.55,-55 229.06,-41.32 213.07,-30.83 198.81,-23.49"/>
<polygon fill="#63b8ff" stroke="#63b8ff" points="200.3,-20.32 189.78,-19.11 197.25,-26.62 200.3,-20.32"/>
</a>
</g>
</g>
<!-- Node8 -->
<g id="Node000008" class="node">
<title>Node8</title>
<g id="a_Node000008"><a xlink:href="common_2pico__time_2include_2pico_2time_8h.html" target="_top" xlink:title=" ">
<polygon fill="white" stroke="#666666" points="358.05,-74 287.05,-74 287.05,-55 358.05,-55 358.05,-74"/>
<text text-anchor="middle" x="322.55" y="-62" font-family="Helvetica,sans-Serif" font-size="10.00">pico/time.h</text>
</a>
</g>
</g>
<!-- Node7&#45;&gt;Node8 -->
<g id="edge8_Node000007_Node000008" class="edge">
<title>Node7&#45;&gt;Node8</title>
<g id="a_edge8_Node000007_Node000008"><a xlink:title=" ">
<path fill="none" stroke="#63b8ff" d="M268.83,-109.98C278.38,-102.07 292.83,-90.11 304.33,-80.58"/>
<polygon fill="#63b8ff" stroke="#63b8ff" points="306.61,-83.24 312.08,-74.17 302.14,-77.85 306.61,-83.24"/>
</a>
</g>
</g>
<!-- Node10 -->
<g id="Node000010" class="node">
<title>Node10</title>
<g id="a_Node000010"><a xlink:title=" ">
<polygon fill="#e0e0e0" stroke="#999999" points="230.05,-74 133.05,-74 133.05,-55 230.05,-55 230.05,-74"/>
<text text-anchor="middle" x="181.55" y="-62" font-family="Helvetica,sans-Serif" font-size="10.00">hardware/sync.h</text>
</a>
</g>
</g>
<!-- Node7&#45;&gt;Node10 -->
<g id="edge11_Node000007_Node000010" class="edge">
<title>Node7&#45;&gt;Node10</title>
<g id="a_edge11_Node000007_Node000010"><a xlink:title=" ">
<path fill="none" stroke="#63b8ff" d="M246.18,-109.98C234.46,-101.92 216.63,-89.65 202.66,-80.03"/>
<polygon fill="#63b8ff" stroke="#63b8ff" points="204.36,-76.96 194.14,-74.17 200.4,-82.72 204.36,-76.96"/>
</a>
</g>
</g>
<!-- Node8&#45;&gt;Node4 -->
<g id="edge9_Node000008_Node000004" class="edge">
<title>Node8&#45;&gt;Node4</title>
<g id="a_edge9_Node000008_Node000004"><a xlink:title=" ">
<path fill="none" stroke="#63b8ff" d="M297.64,-54.98C271.31,-45.98 229.64,-31.73 200.57,-21.79"/>
<polygon fill="#63b8ff" stroke="#63b8ff" points="201.46,-18.4 190.87,-18.47 199.2,-25.02 201.46,-18.4"/>
</a>
</g>
</g>
<!-- Node9 -->
<g id="Node000009" class="node">
<title>Node9</title>
<g id="a_Node000009"><a xlink:title=" ">
<polygon fill="#e0e0e0" stroke="#999999" points="373.05,-19 272.05,-19 272.05,0 373.05,0 373.05,-19"/>
<text text-anchor="middle" x="322.55" y="-7" font-family="Helvetica,sans-Serif" font-size="10.00">hardware/timer.h</text>
</a>
</g>
</g>
<!-- Node8&#45;&gt;Node9 -->
<g id="edge10_Node000008_Node000009" class="edge">
<title>Node8&#45;&gt;Node9</title>
<g id="a_edge10_Node000008_Node000009"><a xlink:title=" ">
<path fill="none" stroke="#63b8ff" d="M322.55,-54.75C322.55,-47.8 322.55,-37.85 322.55,-29.13"/>
<polygon fill="#63b8ff" stroke="#63b8ff" points="326.05,-29.09 322.55,-19.09 319.05,-29.09 326.05,-29.09"/>
</a>
</g>
</g>
<!-- Node11&#45;&gt;Node7 -->
<g id="edge13_Node000011_Node000007" class="edge">
<title>Node11&#45;&gt;Node7</title>
<g id="a_edge13_Node000011_Node000007"><a xlink:title=" ">
<path fill="none" stroke="#63b8ff" d="M336.6,-164.98C322.05,-156.69 299.68,-143.94 282.61,-134.22"/>
<polygon fill="#63b8ff" stroke="#63b8ff" points="284.18,-131.08 273.76,-129.17 280.72,-137.16 284.18,-131.08"/>
</a>
</g>
</g>
<!-- Node12&#45;&gt;Node4 -->
<g id="edge15_Node000012_Node000004" class="edge">
<title>Node12&#45;&gt;Node4</title>
<g id="a_edge15_Node000012_Node000004"><a xlink:title=" ">
<path fill="none" stroke="#63b8ff" d="M140,-164.83C130.12,-144.76 108.83,-93.88 124.55,-55 129.23,-43.41 138.54,-33.16 147.31,-25.43"/>
<polygon fill="#63b8ff" stroke="#63b8ff" points="149.54,-28.12 155.05,-19.07 145.1,-22.71 149.54,-28.12"/>
</a>
</g>
</g>
<!-- Node12&#45;&gt;Node7 -->
<g id="edge16_Node000012_Node000007" class="edge">
<title>Node12&#45;&gt;Node7</title>
<g id="a_edge16_Node000012_Node000007"><a xlink:title=" ">
<path fill="none" stroke="#63b8ff" d="M162.86,-164.98C181.2,-156.46 209.66,-143.23 230.77,-133.41"/>
<polygon fill="#63b8ff" stroke="#63b8ff" points="232.31,-136.56 239.9,-129.17 229.35,-130.21 232.31,-136.56"/>
</a>
</g>
</g>
</g>
</svg>
