<?xml version="1.0" encoding="UTF-8" standalone="no"?>
<!DOCTYPE svg PUBLIC "-//W3C//DTD SVG 1.1//EN"
 "http://www.w3.org/Graphics/SVG/1.1/DTD/svg11.dtd">
<!-- Generated by graphviz version 2.43.0 (0)
 -->
<!-- Title: bootrom.c Pages: 1 -->
<svg width="830pt" height="302pt"
 viewBox="0.00 0.00 830.26 302.00" xmlns="http://www.w3.org/2000/svg" xmlns:xlink="http://www.w3.org/1999/xlink">
<g id="graph0" class="graph" transform="scale(1 1) rotate(0) translate(4 298)">
<title>bootrom.c</title>
<!-- Node1 -->
<g id="Node000001" class="node">
<title>Node1</title>
<g id="a_Node000001"><a xlink:title=" ">
<polygon fill="#999999" stroke="#666666" points="394.86,-294 328.86,-294 328.86,-275 394.86,-275 394.86,-294"/>
<text text-anchor="middle" x="361.86" y="-282" font-family="Helvetica,sans-Serif" font-size="10.00">bootrom.c</text>
</a>
</g>
</g>
<!-- Node2 -->
<g id="Node000002" class="node">
<title>Node2</title>
<g id="a_Node000002"><a xlink:href="bootrom_8h.html" target="_top" xlink:title=" ">
<polygon fill="white" stroke="#666666" points="293.86,-239 203.86,-239 203.86,-220 293.86,-220 293.86,-239"/>
<text text-anchor="middle" x="248.86" y="-227" font-family="Helvetica,sans-Serif" font-size="10.00">pico/bootrom.h</text>
</a>
</g>
</g>
<!-- Node1&#45;&gt;Node2 -->
<g id="edge1_Node000001_Node000002" class="edge">
<title>Node1&#45;&gt;Node2</title>
<g id="a_edge1_Node000001_Node000002"><a xlink:title=" ">
<path fill="none" stroke="#63b8ff" d="M343.71,-274.98C325.61,-266.5 297.58,-253.35 276.67,-243.54"/>
<polygon fill="#63b8ff" stroke="#63b8ff" points="277.89,-240.25 267.35,-239.17 274.91,-246.59 277.89,-240.25"/>
</a>
</g>
</g>
<!-- Node11 -->
<g id="Node000011" class="node">
<title>Node11</title>
<g id="a_Node000011"><a xlink:href="picoboot_8h.html" target="_top" xlink:title=" ">
<polygon fill="white" stroke="#666666" points="682.86,-239 590.86,-239 590.86,-220 682.86,-220 682.86,-239"/>
<text text-anchor="middle" x="636.86" y="-227" font-family="Helvetica,sans-Serif" font-size="10.00">boot/picoboot.h</text>
</a>
</g>
</g>
<!-- Node1&#45;&gt;Node11 -->
<g id="edge13_Node000001_Node000011" class="edge">
<title>Node1&#45;&gt;Node11</title>
<g id="a_edge13_Node000001_Node000011"><a xlink:title=" ">
<path fill="none" stroke="#63b8ff" d="M395.03,-277.11C441.56,-268.14 526.77,-251.72 582.6,-240.96"/>
<polygon fill="#63b8ff" stroke="#63b8ff" points="583.51,-244.35 592.67,-239.02 582.19,-237.47 583.51,-244.35"/>
</a>
</g>
</g>
<!-- Node16 -->
<g id="Node000016" class="node">
<title>Node16</title>
<g id="a_Node000016"><a xlink:href="picobin_8h.html" target="_top" xlink:title=" ">
<polygon fill="white" stroke="#666666" points="468.86,-184 382.86,-184 382.86,-165 468.86,-165 468.86,-184"/>
<text text-anchor="middle" x="425.86" y="-172" font-family="Helvetica,sans-Serif" font-size="10.00">boot/picobin.h</text>
</a>
</g>
</g>
<!-- Node1&#45;&gt;Node16 -->
<g id="edge21_Node000001_Node000016" class="edge">
<title>Node1&#45;&gt;Node16</title>
<g id="a_edge21_Node000001_Node000016"><a xlink:title=" ">
<path fill="none" stroke="#63b8ff" d="M367.1,-274.66C377.65,-256.85 401.64,-216.37 415.49,-193.01"/>
<polygon fill="#63b8ff" stroke="#63b8ff" points="418.64,-194.55 420.73,-184.16 412.62,-190.98 418.64,-194.55"/>
</a>
</g>
</g>
<!-- Node17 -->
<g id="Node000017" class="node">
<title>Node17</title>
<g id="a_Node000017"><a xlink:href="rcp_8h.html" target="_top" xlink:title=" ">
<polygon fill="white" stroke="#666666" points="132.36,-239 43.36,-239 43.36,-220 132.36,-220 132.36,-239"/>
<text text-anchor="middle" x="87.86" y="-227" font-family="Helvetica,sans-Serif" font-size="10.00">hardware/rcp.h</text>
</a>
</g>
</g>
<!-- Node1&#45;&gt;Node17 -->
<g id="edge24_Node000001_Node000017" class="edge">
<title>Node1&#45;&gt;Node17</title>
<g id="a_edge24_Node000001_Node000017"><a xlink:title=" ">
<path fill="none" stroke="#63b8ff" d="M328.81,-277.11C282.45,-268.14 197.56,-251.72 141.92,-240.96"/>
<polygon fill="#63b8ff" stroke="#63b8ff" points="142.37,-237.48 131.89,-239.02 141.04,-244.35 142.37,-237.48"/>
</a>
</g>
</g>
<!-- Node3 -->
<g id="Node000003" class="node">
<title>Node3</title>
<g id="a_Node000003"><a xlink:title=" ">
<polygon fill="#e0e0e0" stroke="#999999" points="104.86,-74 58.86,-74 58.86,-55 104.86,-55 104.86,-74"/>
<text text-anchor="middle" x="81.86" y="-62" font-family="Helvetica,sans-Serif" font-size="10.00">pico.h</text>
</a>
</g>
</g>
<!-- Node2&#45;&gt;Node3 -->
<g id="edge2_Node000002_Node000003" class="edge">
<title>Node2&#45;&gt;Node3</title>
<g id="a_edge2_Node000002_Node000003"><a xlink:title=" ">
<path fill="none" stroke="#63b8ff" d="M204.53,-220C181.07,-213.54 153.2,-202.5 133.86,-184 118.68,-169.48 97.93,-112.92 87.84,-83.51"/>
<polygon fill="#63b8ff" stroke="#63b8ff" points="91.16,-82.38 84.64,-74.02 84.53,-84.62 91.16,-82.38"/>
</a>
</g>
</g>
<!-- Node4 -->
<g id="Node000004" class="node">
<title>Node4</title>
<g id="a_Node000004"><a xlink:href="pico__bootrom_2include_2pico_2bootrom__constants_8h.html" target="_top" xlink:title=" ">
<polygon fill="white" stroke="#666666" points="426.36,-129 283.36,-129 283.36,-110 426.36,-110 426.36,-129"/>
<text text-anchor="middle" x="354.86" y="-117" font-family="Helvetica,sans-Serif" font-size="10.00">pico/bootrom_constants.h</text>
</a>
</g>
</g>
<!-- Node2&#45;&gt;Node4 -->
<g id="edge3_Node000002_Node000004" class="edge">
<title>Node2&#45;&gt;Node4</title>
<g id="a_edge3_Node000002_Node000004"><a xlink:title=" ">
<path fill="none" stroke="#63b8ff" d="M278.97,-219.87C297.81,-213.01 321.21,-201.6 335.86,-184 346.33,-171.43 351.03,-153.23 353.14,-139.54"/>
<polygon fill="#63b8ff" stroke="#63b8ff" points="356.65,-139.66 354.38,-129.32 349.7,-138.82 356.65,-139.66"/>
</a>
</g>
</g>
<!-- Node7 -->
<g id="Node000007" class="node">
<title>Node7</title>
<g id="a_Node000007"><a xlink:title=" ">
<polygon fill="#e0e0e0" stroke="#999999" points="326.36,-184 273.36,-184 273.36,-165 326.36,-165 326.36,-184"/>
<text text-anchor="middle" x="299.86" y="-172" font-family="Helvetica,sans-Serif" font-size="10.00">string.h</text>
</a>
</g>
</g>
<!-- Node2&#45;&gt;Node7 -->
<g id="edge6_Node000002_Node000007" class="edge">
<title>Node2&#45;&gt;Node7</title>
<g id="a_edge6_Node000002_Node000007"><a xlink:title=" ">
<path fill="none" stroke="#63b8ff" d="M257.28,-219.75C264.64,-212.11 275.49,-200.82 284.4,-191.56"/>
<polygon fill="#63b8ff" stroke="#63b8ff" points="287.18,-193.72 291.6,-184.09 282.14,-188.87 287.18,-193.72"/>
</a>
</g>
</g>
<!-- Node8 -->
<g id="Node000008" class="node">
<title>Node8</title>
<g id="a_Node000008"><a xlink:href="lock_8h.html" target="_top" xlink:title=" ">
<polygon fill="white" stroke="#666666" points="255.36,-184 142.36,-184 142.36,-165 255.36,-165 255.36,-184"/>
<text text-anchor="middle" x="198.86" y="-172" font-family="Helvetica,sans-Serif" font-size="10.00">pico/bootrom/lock.h</text>
</a>
</g>
</g>
<!-- Node2&#45;&gt;Node8 -->
<g id="edge7_Node000002_Node000008" class="edge">
<title>Node2&#45;&gt;Node8</title>
<g id="a_edge7_Node000002_Node000008"><a xlink:title=" ">
<path fill="none" stroke="#63b8ff" d="M240.6,-219.75C233.4,-212.11 222.75,-200.82 214.02,-191.56"/>
<polygon fill="#63b8ff" stroke="#63b8ff" points="216.37,-188.96 206.96,-184.09 211.28,-193.76 216.37,-188.96"/>
</a>
</g>
</g>
<!-- Node10 -->
<g id="Node000010" class="node">
<title>Node10</title>
<g id="a_Node000010"><a xlink:href="pico__flash_2include_2pico_2flash_8h.html" target="_top" xlink:title=" ">
<polygon fill="white" stroke="#666666" points="85.36,-129 12.36,-129 12.36,-110 85.36,-110 85.36,-129"/>
<text text-anchor="middle" x="48.86" y="-117" font-family="Helvetica,sans-Serif" font-size="10.00">pico/flash.h</text>
</a>
</g>
</g>
<!-- Node2&#45;&gt;Node10 -->
<g id="edge11_Node000002_Node000010" class="edge">
<title>Node2&#45;&gt;Node10</title>
<g id="a_edge11_Node000002_Node000010"><a xlink:title=" ">
<path fill="none" stroke="#63b8ff" d="M203.79,-222.3C172.55,-216.35 131.11,-205.02 99.86,-184 82.32,-172.2 67.87,-152.53 58.89,-138.2"/>
<polygon fill="#63b8ff" stroke="#63b8ff" points="61.71,-136.09 53.57,-129.3 55.7,-139.68 61.71,-136.09"/>
</a>
</g>
</g>
<!-- Node5 -->
<g id="Node000005" class="node">
<title>Node5</title>
<g id="a_Node000005"><a xlink:href="boot__bootrom__headers_2include_2boot_2bootrom__constants_8h.html" target="_top" xlink:title=" ">
<polygon fill="white" stroke="#666666" points="426.86,-74 282.86,-74 282.86,-55 426.86,-55 426.86,-74"/>
<text text-anchor="middle" x="354.86" y="-62" font-family="Helvetica,sans-Serif" font-size="10.00">boot/bootrom_constants.h</text>
</a>
</g>
</g>
<!-- Node4&#45;&gt;Node5 -->
<g id="edge4_Node000004_Node000005" class="edge">
<title>Node4&#45;&gt;Node5</title>
<g id="a_edge4_Node000004_Node000005"><a xlink:title=" ">
<path fill="none" stroke="#63b8ff" d="M354.86,-109.75C354.86,-102.8 354.86,-92.85 354.86,-84.13"/>
<polygon fill="#63b8ff" stroke="#63b8ff" points="358.36,-84.09 354.86,-74.09 351.36,-84.09 358.36,-84.09"/>
</a>
</g>
</g>
<!-- Node6 -->
<g id="Node000006" class="node">
<title>Node6</title>
<g id="a_Node000006"><a xlink:title=" ">
<polygon fill="#e0e0e0" stroke="#999999" points="500.36,-19 409.36,-19 409.36,0 500.36,0 500.36,-19"/>
<text text-anchor="middle" x="454.86" y="-7" font-family="Helvetica,sans-Serif" font-size="10.00">pico/platform.h</text>
</a>
</g>
</g>
<!-- Node5&#45;&gt;Node6 -->
<g id="edge5_Node000005_Node000006" class="edge">
<title>Node5&#45;&gt;Node6</title>
<g id="a_edge5_Node000005_Node000006"><a xlink:title=" ">
<path fill="none" stroke="#63b8ff" d="M370.93,-54.98C386.73,-46.61 411.08,-33.7 429.49,-23.95"/>
<polygon fill="#63b8ff" stroke="#63b8ff" points="431.31,-26.95 438.5,-19.17 428.03,-20.76 431.31,-26.95"/>
</a>
</g>
</g>
<!-- Node8&#45;&gt;Node4 -->
<g id="edge10_Node000008_Node000004" class="edge">
<title>Node8&#45;&gt;Node4</title>
<g id="a_edge10_Node000008_Node000004"><a xlink:title=" ">
<path fill="none" stroke="#63b8ff" d="M223.93,-164.98C249.89,-156.16 290.67,-142.31 319.82,-132.41"/>
<polygon fill="#63b8ff" stroke="#63b8ff" points="321.26,-135.61 329.6,-129.08 319.01,-128.99 321.26,-135.61"/>
</a>
</g>
</g>
<!-- Node9 -->
<g id="Node000009" class="node">
<title>Node9</title>
<g id="a_Node000009"><a xlink:href="boot__lock_8h.html" target="_top" xlink:title=" ">
<polygon fill="white" stroke="#666666" points="263.86,-129 141.86,-129 141.86,-110 263.86,-110 263.86,-129"/>
<text text-anchor="middle" x="202.86" y="-117" font-family="Helvetica,sans-Serif" font-size="10.00">hardware/boot_lock.h</text>
</a>
</g>
</g>
<!-- Node8&#45;&gt;Node9 -->
<g id="edge8_Node000008_Node000009" class="edge">
<title>Node8&#45;&gt;Node9</title>
<g id="a_edge8_Node000008_Node000009"><a xlink:title=" ">
<path fill="none" stroke="#63b8ff" d="M199.52,-164.75C200.05,-157.8 200.8,-147.85 201.45,-139.13"/>
<polygon fill="#63b8ff" stroke="#63b8ff" points="204.95,-139.32 202.21,-129.09 197.97,-138.8 204.95,-139.32"/>
</a>
</g>
</g>
<!-- Node9&#45;&gt;Node3 -->
<g id="edge9_Node000009_Node000003" class="edge">
<title>Node9&#45;&gt;Node3</title>
<g id="a_edge9_Node000009_Node000003"><a xlink:title=" ">
<path fill="none" stroke="#63b8ff" d="M183.42,-109.98C163.87,-101.42 133.48,-88.11 111.04,-78.28"/>
<polygon fill="#63b8ff" stroke="#63b8ff" points="112.22,-74.98 101.66,-74.17 109.41,-81.39 112.22,-74.98"/>
</a>
</g>
</g>
<!-- Node10&#45;&gt;Node3 -->
<g id="edge12_Node000010_Node000003" class="edge">
<title>Node10&#45;&gt;Node3</title>
<g id="a_edge12_Node000010_Node000003"><a xlink:title=" ">
<path fill="none" stroke="#63b8ff" d="M54.31,-109.75C58.88,-102.42 65.53,-91.73 71.15,-82.7"/>
<polygon fill="#63b8ff" stroke="#63b8ff" points="74.2,-84.43 76.51,-74.09 68.26,-80.73 74.2,-84.43"/>
</a>
</g>
</g>
<!-- Node11&#45;&gt;Node6 -->
<g id="edge19_Node000011_Node000006" class="edge">
<title>Node11&#45;&gt;Node6</title>
<g id="a_edge19_Node000011_Node000006"><a xlink:title=" ">
<path fill="none" stroke="#63b8ff" d="M590.85,-221.41C565.75,-215.35 535.82,-204.24 515.86,-184 493.53,-161.35 469,-68.84 459.23,-28.95"/>
<polygon fill="#63b8ff" stroke="#63b8ff" points="462.63,-28.1 456.88,-19.2 455.82,-29.74 462.63,-28.1"/>
</a>
</g>
</g>
<!-- Node12 -->
<g id="Node000012" class="node">
<title>Node12</title>
<g id="a_Node000012"><a xlink:title=" ">
<polygon fill="#e0e0e0" stroke="#999999" points="716.36,-184 663.36,-184 663.36,-165 716.36,-165 716.36,-184"/>
<text text-anchor="middle" x="689.86" y="-172" font-family="Helvetica,sans-Serif" font-size="10.00">stdint.h</text>
</a>
</g>
</g>
<!-- Node11&#45;&gt;Node12 -->
<g id="edge14_Node000011_Node000012" class="edge">
<title>Node11&#45;&gt;Node12</title>
<g id="a_edge14_Node000011_Node000012"><a xlink:title=" ">
<path fill="none" stroke="#63b8ff" d="M645.61,-219.75C653.33,-212.03 664.77,-200.6 674.08,-191.28"/>
<polygon fill="#63b8ff" stroke="#63b8ff" points="676.68,-193.64 681.27,-184.09 671.73,-188.69 676.68,-193.64"/>
</a>
</g>
</g>
<!-- Node13 -->
<g id="Node000013" class="node">
<title>Node13</title>
<g id="a_Node000013"><a xlink:title=" ">
<polygon fill="#e0e0e0" stroke="#999999" points="793.86,-129 731.86,-129 731.86,-110 793.86,-110 793.86,-129"/>
<text text-anchor="middle" x="762.86" y="-117" font-family="Helvetica,sans-Serif" font-size="10.00">stdbool.h</text>
</a>
</g>
</g>
<!-- Node11&#45;&gt;Node13 -->
<g id="edge15_Node000011_Node000013" class="edge">
<title>Node11&#45;&gt;Node13</title>
<g id="a_edge15_Node000011_Node000013"><a xlink:title=" ">
<path fill="none" stroke="#63b8ff" d="M682.97,-223.59C730.96,-217.42 801.39,-205.01 817.86,-184 831.73,-166.3 808.95,-146.89 788.62,-134.25"/>
<polygon fill="#63b8ff" stroke="#63b8ff" points="790.28,-131.16 779.89,-129.1 786.73,-137.19 790.28,-131.16"/>
</a>
</g>
</g>
<!-- Node14 -->
<g id="Node000014" class="node">
<title>Node14</title>
<g id="a_Node000014"><a xlink:href="assert_8h.html" target="_top" xlink:title=" ">
<polygon fill="white" stroke="#666666" points="790.86,-184 734.86,-184 734.86,-165 790.86,-165 790.86,-184"/>
<text text-anchor="middle" x="762.86" y="-172" font-family="Helvetica,sans-Serif" font-size="10.00">assert.h</text>
</a>
</g>
</g>
<!-- Node11&#45;&gt;Node14 -->
<g id="edge16_Node000011_Node000014" class="edge">
<title>Node11&#45;&gt;Node14</title>
<g id="a_edge16_Node000011_Node000014"><a xlink:title=" ">
<path fill="none" stroke="#63b8ff" d="M657.11,-219.98C677.56,-211.38 709.39,-197.99 732.79,-188.15"/>
<polygon fill="#63b8ff" stroke="#63b8ff" points="734.39,-191.27 742.25,-184.17 731.67,-184.82 734.39,-191.27"/>
</a>
</g>
</g>
<!-- Node15 -->
<g id="Node000015" class="node">
<title>Node15</title>
<g id="a_Node000015"><a xlink:href="picoboot__constants_8h.html" target="_top" xlink:title=" ">
<polygon fill="white" stroke="#666666" points="644.86,-184 524.86,-184 524.86,-165 644.86,-165 644.86,-184"/>
<text text-anchor="middle" x="584.86" y="-172" font-family="Helvetica,sans-Serif" font-size="10.00">picoboot_constants.h</text>
</a>
</g>
</g>
<!-- Node11&#45;&gt;Node15 -->
<g id="edge20_Node000011_Node000015" class="edge">
<title>Node11&#45;&gt;Node15</title>
<g id="a_edge20_Node000011_Node000015"><a xlink:title=" ">
<path fill="none" stroke="#63b8ff" d="M628.27,-219.75C620.7,-212.03 609.48,-200.6 600.35,-191.28"/>
<polygon fill="#63b8ff" stroke="#63b8ff" points="602.79,-188.78 593.29,-184.09 597.79,-193.68 602.79,-188.78"/>
</a>
</g>
</g>
<!-- Node14&#45;&gt;Node13 -->
<g id="edge17_Node000014_Node000013" class="edge">
<title>Node14&#45;&gt;Node13</title>
<g id="a_edge17_Node000014_Node000013"><a xlink:title=" ">
<path fill="none" stroke="#63b8ff" d="M762.86,-164.75C762.86,-157.8 762.86,-147.85 762.86,-139.13"/>
<polygon fill="#63b8ff" stroke="#63b8ff" points="766.36,-139.09 762.86,-129.09 759.36,-139.09 766.36,-139.09"/>
</a>
</g>
</g>
<!-- Node14&#45;&gt;Node14 -->
<g id="edge18_Node000014_Node000014" class="edge">
<title>Node14&#45;&gt;Node14</title>
<g id="a_edge18_Node000014_Node000014"><a xlink:title=" ">
<path fill="none" stroke="#63b8ff" d="M784.63,-184.07C797.18,-186.02 808.86,-182.83 808.86,-174.5 808.86,-168.51 802.83,-165.18 794.77,-164.5"/>
<polygon fill="#63b8ff" stroke="#63b8ff" points="794.47,-161.01 784.63,-164.93 794.77,-168.01 794.47,-161.01"/>
</a>
</g>
</g>
<!-- Node16&#45;&gt;Node6 -->
<g id="edge22_Node000016_Node000006" class="edge">
<title>Node16&#45;&gt;Node6</title>
<g id="a_edge22_Node000016_Node000006"><a xlink:title=" ">
<path fill="none" stroke="#63b8ff" d="M428.02,-164.67C430.16,-155.71 433.47,-141.44 435.86,-129 442.63,-93.83 448.87,-52.47 452.25,-29.09"/>
<polygon fill="#63b8ff" stroke="#63b8ff" points="455.71,-29.55 453.66,-19.16 448.79,-28.56 455.71,-29.55"/>
</a>
</g>
</g>
<!-- Node16&#45;&gt;Node13 -->
<g id="edge23_Node000016_Node000013" class="edge">
<title>Node16&#45;&gt;Node13</title>
<g id="a_edge23_Node000016_Node000013"><a xlink:title=" ">
<path fill="none" stroke="#63b8ff" d="M468.88,-166.73C534.1,-156.48 657.18,-137.12 721.43,-127.02"/>
<polygon fill="#63b8ff" stroke="#63b8ff" points="722.26,-130.43 731.6,-125.42 721.18,-123.51 722.26,-130.43"/>
</a>
</g>
</g>
<!-- Node17&#45;&gt;Node3 -->
<g id="edge25_Node000017_Node000003" class="edge">
<title>Node17&#45;&gt;Node3</title>
<g id="a_edge25_Node000017_Node000003"><a xlink:title=" ">
<path fill="none" stroke="#63b8ff" d="M76.5,-219.9C56.97,-204.32 17.73,-169.28 2.86,-129 -0.06,-121.08 -1.4,-117.29 2.86,-110 12.82,-92.96 31.98,-81.94 48.93,-75.12"/>
<polygon fill="#63b8ff" stroke="#63b8ff" points="50.39,-78.32 58.57,-71.58 47.98,-71.74 50.39,-78.32"/>
</a>
</g>
</g>
</g>
</svg>
