<?xml version="1.0" encoding="UTF-8" standalone="no"?>
<!DOCTYPE svg PUBLIC "-//W3C//DTD SVG 1.1//EN"
 "http://www.w3.org/Graphics/SVG/1.1/DTD/svg11.dtd">
<!-- Generated by graphviz version 2.43.0 (0)
 -->
<!-- Title: boot_lock.c Pages: 1 -->
<svg width="256pt" height="137pt"
 viewBox="0.00 0.00 256.00 137.00" xmlns="http://www.w3.org/2000/svg" xmlns:xlink="http://www.w3.org/1999/xlink">
<g id="graph0" class="graph" transform="scale(1 1) rotate(0) translate(4 133)">
<title>boot_lock.c</title>
<!-- Node1 -->
<g id="Node000001" class="node">
<title>Node1</title>
<g id="a_Node000001"><a xlink:title=" ">
<polygon fill="#999999" stroke="#666666" points="163,-129 91,-129 91,-110 163,-110 163,-129"/>
<text text-anchor="middle" x="127" y="-117" font-family="Helvetica,sans-Serif" font-size="10.00">boot_lock.c</text>
</a>
</g>
</g>
<!-- Node2 -->
<g id="Node000002" class="node">
<title>Node2</title>
<g id="a_Node000002"><a xlink:href="boot__lock_8h.html" target="_top" xlink:title=" ">
<polygon fill="white" stroke="#666666" points="122,-74 0,-74 0,-55 122,-55 122,-74"/>
<text text-anchor="middle" x="61" y="-62" font-family="Helvetica,sans-Serif" font-size="10.00">hardware/boot_lock.h</text>
</a>
</g>
</g>
<!-- Node1&#45;&gt;Node2 -->
<g id="edge1_Node000001_Node000002" class="edge">
<title>Node1&#45;&gt;Node2</title>
<g id="a_edge1_Node000001_Node000002"><a xlink:title=" ">
<path fill="none" stroke="#63b8ff" d="M116.4,-109.98C106.54,-102.07 91.65,-90.11 79.78,-80.58"/>
<polygon fill="#63b8ff" stroke="#63b8ff" points="81.79,-77.7 71.8,-74.17 77.4,-83.16 81.79,-77.7"/>
</a>
</g>
</g>
<!-- Node4 -->
<g id="Node000004" class="node">
<title>Node4</title>
<g id="a_Node000004"><a xlink:title=" ">
<polygon fill="#e0e0e0" stroke="#999999" points="248,-74 140,-74 140,-55 248,-55 248,-74"/>
<text text-anchor="middle" x="194" y="-62" font-family="Helvetica,sans-Serif" font-size="10.00">pico/runtime_init.h</text>
</a>
</g>
</g>
<!-- Node1&#45;&gt;Node4 -->
<g id="edge3_Node000001_Node000004" class="edge">
<title>Node1&#45;&gt;Node4</title>
<g id="a_edge3_Node000001_Node000004"><a xlink:title=" ">
<path fill="none" stroke="#63b8ff" d="M137.76,-109.98C147.77,-102.07 162.89,-90.11 174.93,-80.58"/>
<polygon fill="#63b8ff" stroke="#63b8ff" points="177.37,-83.12 183.04,-74.17 173.03,-77.63 177.37,-83.12"/>
</a>
</g>
</g>
<!-- Node3 -->
<g id="Node000003" class="node">
<title>Node3</title>
<g id="a_Node000003"><a xlink:title=" ">
<polygon fill="#e0e0e0" stroke="#999999" points="84,-19 38,-19 38,0 84,0 84,-19"/>
<text text-anchor="middle" x="61" y="-7" font-family="Helvetica,sans-Serif" font-size="10.00">pico.h</text>
</a>
</g>
</g>
<!-- Node2&#45;&gt;Node3 -->
<g id="edge2_Node000002_Node000003" class="edge">
<title>Node2&#45;&gt;Node3</title>
<g id="a_edge2_Node000002_Node000003"><a xlink:title=" ">
<path fill="none" stroke="#63b8ff" d="M61,-54.75C61,-47.8 61,-37.85 61,-29.13"/>
<polygon fill="#63b8ff" stroke="#63b8ff" points="64.5,-29.09 61,-19.09 57.5,-29.09 64.5,-29.09"/>
</a>
</g>
</g>
</g>
</svg>
