<?xml version="1.0" encoding="UTF-8" standalone="no"?>
<!DOCTYPE svg PUBLIC "-//W3C//DTD SVG 1.1//EN"
 "http://www.w3.org/Graphics/SVG/1.1/DTD/svg11.dtd">
<!-- Generated by graphviz version 2.43.0 (0)
 -->
<!-- Title: bootrom.h Pages: 1 -->
<svg width="1178pt" height="93pt"
 viewBox="0.00 0.00 1178.00 93.00" xmlns="http://www.w3.org/2000/svg" xmlns:xlink="http://www.w3.org/1999/xlink">
<g id="graph0" class="graph" transform="scale(1 1) rotate(0) translate(4 89)">
<title>bootrom.h</title>
<!-- Node1 -->
<g id="Node000001" class="node">
<title>Node1</title>
<g id="a_Node000001"><a xlink:title=" ">
<polygon fill="#999999" stroke="#666666" points="659.5,-85 592.5,-85 592.5,-66 659.5,-66 659.5,-85"/>
<text text-anchor="middle" x="626" y="-73" font-family="Helvetica,sans-Serif" font-size="10.00">bootrom.h</text>
</a>
</g>
</g>
<!-- Node2 -->
<g id="Node000002" class="node">
<title>Node2</title>
<g id="a_Node000002"><a xlink:href="bootrom_8c.html" target="_top" xlink:title=" ">
<polygon fill="white" stroke="#666666" points="66,-24.5 0,-24.5 0,-5.5 66,-5.5 66,-24.5"/>
<text text-anchor="middle" x="33" y="-12.5" font-family="Helvetica,sans-Serif" font-size="10.00">bootrom.c</text>
</a>
</g>
</g>
<!-- Node1&#45;&gt;Node2 -->
<g id="edge1_Node000001_Node000002" class="edge">
<title>Node1&#45;&gt;Node2</title>
<g id="a_edge1_Node000001_Node000002"><a xlink:title=" ">
<path fill="none" stroke="#63b8ff" d="M582.12,-74.53C488.14,-73.8 260.85,-67.9 75,-30 68.52,-28.68 61.66,-26.67 55.4,-24.57"/>
<polygon fill="#63b8ff" stroke="#63b8ff" points="582.36,-78.03 592.38,-74.59 582.4,-71.03 582.36,-78.03"/>
</a>
</g>
</g>
<!-- Node3 -->
<g id="Node000003" class="node">
<title>Node3</title>
<g id="a_Node000003"><a xlink:href="cyw43__partition__firmware_8h.html" target="_top" xlink:title=" ">
<polygon fill="white" stroke="#666666" points="237.5,-24.5 84.5,-24.5 84.5,-5.5 237.5,-5.5 237.5,-24.5"/>
<text text-anchor="middle" x="161" y="-12.5" font-family="Helvetica,sans-Serif" font-size="10.00">cyw43_partition_firmware.h</text>
</a>
</g>
</g>
<!-- Node1&#45;&gt;Node3 -->
<g id="edge2_Node000001_Node000003" class="edge">
<title>Node1&#45;&gt;Node3</title>
<g id="a_edge2_Node000001_Node000003"><a xlink:title=" ">
<path fill="none" stroke="#63b8ff" d="M582.06,-70.03C511.21,-62.66 367.37,-47.09 246,-30 234.45,-28.37 222.05,-26.44 210.38,-24.53"/>
<polygon fill="#63b8ff" stroke="#63b8ff" points="582.08,-73.55 592.38,-71.1 582.8,-66.59 582.08,-73.55"/>
</a>
</g>
</g>
<!-- Node4 -->
<g id="Node000004" class="node">
<title>Node4</title>
<g id="a_Node000004"><a xlink:href="double__init__rom__rp2040_8c.html" target="_top" xlink:title=" ">
<polygon fill="white" stroke="#666666" points="398.5,-24.5 255.5,-24.5 255.5,-5.5 398.5,-5.5 398.5,-24.5"/>
<text text-anchor="middle" x="327" y="-12.5" font-family="Helvetica,sans-Serif" font-size="10.00">double_init_rom_rp2040.c</text>
</a>
</g>
</g>
<!-- Node1&#45;&gt;Node4 -->
<g id="edge3_Node000001_Node000004" class="edge">
<title>Node1&#45;&gt;Node4</title>
<g id="a_edge3_Node000001_Node000004"><a xlink:title=" ">
<path fill="none" stroke="#63b8ff" d="M582.19,-65.93C525.43,-54.82 427.07,-35.58 370.48,-24.51"/>
<polygon fill="#63b8ff" stroke="#63b8ff" points="581.8,-69.42 592.28,-67.9 583.14,-62.55 581.8,-69.42"/>
</a>
</g>
</g>
<!-- Node5 -->
<g id="Node000005" class="node">
<title>Node5</title>
<g id="a_Node000005"><a xlink:href="hardware__flash_2flash_8c.html" target="_top" xlink:title=" ">
<polygon fill="white" stroke="#666666" points="465.5,-24.5 416.5,-24.5 416.5,-5.5 465.5,-5.5 465.5,-24.5"/>
<text text-anchor="middle" x="441" y="-12.5" font-family="Helvetica,sans-Serif" font-size="10.00">flash.c</text>
</a>
</g>
</g>
<!-- Node1&#45;&gt;Node5 -->
<g id="edge4_Node000001_Node000005" class="edge">
<title>Node1&#45;&gt;Node5</title>
<g id="a_edge4_Node000001_Node000005"><a xlink:title=" ">
<path fill="none" stroke="#63b8ff" d="M583.71,-63.31C553.23,-54.93 511.25,-42.76 475,-30 470.42,-28.39 465.57,-26.5 461,-24.64"/>
<polygon fill="#63b8ff" stroke="#63b8ff" points="583.01,-66.74 593.58,-66 584.85,-59.99 583.01,-66.74"/>
</a>
</g>
</g>
<!-- Node6 -->
<g id="Node000006" class="node">
<title>Node6</title>
<g id="a_Node000006"><a xlink:href="float__init__rom__rp2040_8c.html" target="_top" xlink:title=" ">
<polygon fill="white" stroke="#666666" points="616,-24.5 484,-24.5 484,-5.5 616,-5.5 616,-24.5"/>
<text text-anchor="middle" x="550" y="-12.5" font-family="Helvetica,sans-Serif" font-size="10.00">float_init_rom_rp2040.c</text>
</a>
</g>
</g>
<!-- Node1&#45;&gt;Node6 -->
<g id="edge5_Node000001_Node000006" class="edge">
<title>Node1&#45;&gt;Node6</title>
<g id="a_edge5_Node000001_Node000006"><a xlink:title=" ">
<path fill="none" stroke="#63b8ff" d="M606.56,-59.54C592.21,-48.49 573.18,-33.84 561.26,-24.67"/>
<polygon fill="#63b8ff" stroke="#63b8ff" points="604.73,-62.54 614.79,-65.87 609,-56.99 604.73,-62.54"/>
</a>
</g>
</g>
<!-- Node7 -->
<g id="Node000007" class="node">
<title>Node7</title>
<g id="a_Node000007"><a xlink:href="pico__bootsel__via__double__reset_8c.html" target="_top" xlink:title=" ">
<polygon fill="white" stroke="#666666" points="771.5,-30 634.5,-30 634.5,0 771.5,0 771.5,-30"/>
<text text-anchor="start" x="642.5" y="-18" font-family="Helvetica,sans-Serif" font-size="10.00">pico_bootsel_via_double</text>
<text text-anchor="middle" x="703" y="-7" font-family="Helvetica,sans-Serif" font-size="10.00">_reset.c</text>
</a>
</g>
</g>
<!-- Node1&#45;&gt;Node7 -->
<g id="edge6_Node000001_Node000007" class="edge">
<title>Node1&#45;&gt;Node7</title>
<g id="a_edge6_Node000001_Node000007"><a xlink:title=" ">
<path fill="none" stroke="#63b8ff" d="M645.39,-59.77C657.35,-50.68 672.61,-39.09 684.42,-30.11"/>
<polygon fill="#63b8ff" stroke="#63b8ff" points="643.21,-57.03 637.36,-65.87 647.44,-62.61 643.21,-57.03"/>
</a>
</g>
</g>
<!-- Node8 -->
<g id="Node000008" class="node">
<title>Node8</title>
<g id="a_Node000008"><a xlink:href="reset__interface_8c.html" target="_top" xlink:title=" ">
<polygon fill="white" stroke="#666666" points="888,-24.5 790,-24.5 790,-5.5 888,-5.5 888,-24.5"/>
<text text-anchor="middle" x="839" y="-12.5" font-family="Helvetica,sans-Serif" font-size="10.00">reset_interface.c</text>
</a>
</g>
</g>
<!-- Node1&#45;&gt;Node8 -->
<g id="edge7_Node000001_Node000008" class="edge">
<title>Node1&#45;&gt;Node8</title>
<g id="a_edge7_Node000001_Node000008"><a xlink:title=" ">
<path fill="none" stroke="#63b8ff" d="M666.69,-63.32C707.88,-52.01 770.67,-34.77 807.99,-24.52"/>
<polygon fill="#63b8ff" stroke="#63b8ff" points="665.69,-59.97 656.97,-65.99 667.54,-66.72 665.69,-59.97"/>
</a>
</g>
</g>
<!-- Node9 -->
<g id="Node000009" class="node">
<title>Node9</title>
<g id="a_Node000009"><a xlink:href="runtime__init_8c.html" target="_top" xlink:title=" ">
<polygon fill="white" stroke="#666666" points="990,-24.5 906,-24.5 906,-5.5 990,-5.5 990,-24.5"/>
<text text-anchor="middle" x="948" y="-12.5" font-family="Helvetica,sans-Serif" font-size="10.00">runtime_init.c</text>
</a>
</g>
</g>
<!-- Node1&#45;&gt;Node9 -->
<g id="edge8_Node000001_Node000009" class="edge">
<title>Node1&#45;&gt;Node9</title>
<g id="a_edge8_Node000001_Node000009"><a xlink:title=" ">
<path fill="none" stroke="#63b8ff" d="M669.8,-68.75C723.61,-61.36 817.53,-47.38 897,-30 904.18,-28.43 911.85,-26.47 919,-24.53"/>
<polygon fill="#63b8ff" stroke="#63b8ff" points="669.03,-65.33 659.59,-70.14 669.97,-72.26 669.03,-65.33"/>
</a>
</g>
</g>
<!-- Node10 -->
<g id="Node000010" class="node">
<title>Node10</title>
<g id="a_Node000010"><a xlink:href="unique__id_8c.html" target="_top" xlink:title=" ">
<polygon fill="white" stroke="#666666" points="1080,-24.5 1008,-24.5 1008,-5.5 1080,-5.5 1080,-24.5"/>
<text text-anchor="middle" x="1044" y="-12.5" font-family="Helvetica,sans-Serif" font-size="10.00">unique_id.c</text>
</a>
</g>
</g>
<!-- Node1&#45;&gt;Node10 -->
<g id="edge9_Node000001_Node000010" class="edge">
<title>Node1&#45;&gt;Node10</title>
<g id="a_edge9_Node000001_Node000010"><a xlink:title=" ">
<path fill="none" stroke="#63b8ff" d="M669.74,-71.88C739.85,-67.11 881.46,-55.08 999,-30 1005.72,-28.57 1012.88,-26.57 1019.46,-24.53"/>
<polygon fill="#63b8ff" stroke="#63b8ff" points="669.26,-68.41 659.52,-72.56 669.73,-75.39 669.26,-68.41"/>
</a>
</g>
</g>
<!-- Node11 -->
<g id="Node000011" class="node">
<title>Node11</title>
<g id="a_Node000011"><a xlink:href="watchdog_8c.html" target="_top" xlink:title=" ">
<polygon fill="white" stroke="#666666" points="1170,-24.5 1098,-24.5 1098,-5.5 1170,-5.5 1170,-24.5"/>
<text text-anchor="middle" x="1134" y="-12.5" font-family="Helvetica,sans-Serif" font-size="10.00">watchdog.c</text>
</a>
</g>
</g>
<!-- Node1&#45;&gt;Node11 -->
<g id="edge10_Node000001_Node000011" class="edge">
<title>Node1&#45;&gt;Node11</title>
<g id="a_edge10_Node000001_Node000011"><a xlink:title=" ">
<path fill="none" stroke="#63b8ff" d="M669.8,-73.29C752.5,-70.34 936.98,-60.61 1089,-30 1095.74,-28.64 1102.9,-26.67 1109.48,-24.63"/>
<polygon fill="#63b8ff" stroke="#63b8ff" points="669.63,-69.79 659.76,-73.63 669.87,-76.79 669.63,-69.79"/>
</a>
</g>
</g>
</g>
</svg>
