<?xml version="1.0" encoding="UTF-8" standalone="no"?>
<!DOCTYPE svg PUBLIC "-//W3C//DTD SVG 1.1//EN"
 "http://www.w3.org/Graphics/SVG/1.1/DTD/svg11.dtd">
<!-- Generated by graphviz version 2.43.0 (0)
 -->
<!-- Title: boot_lock.h Pages: 1 -->
<svg width="1178pt" height="203pt"
 viewBox="0.00 0.00 1178.00 203.00" xmlns="http://www.w3.org/2000/svg" xmlns:xlink="http://www.w3.org/1999/xlink">
<g id="graph0" class="graph" transform="scale(1 1) rotate(0) translate(4 199)">
<title>boot_lock.h</title>
<!-- Node1 -->
<g id="Node000001" class="node">
<title>Node1</title>
<g id="a_Node000001"><a xlink:title=" ">
<polygon fill="#999999" stroke="#666666" points="721.5,-195 648.5,-195 648.5,-176 721.5,-176 721.5,-195"/>
<text text-anchor="middle" x="685" y="-183" font-family="Helvetica,sans-Serif" font-size="10.00">boot_lock.h</text>
</a>
</g>
</g>
<!-- Node2 -->
<g id="Node000002" class="node">
<title>Node2</title>
<g id="a_Node000002"><a xlink:href="boot__lock_8c.html" target="_top" xlink:title=" ">
<polygon fill="white" stroke="#666666" points="683,-140 611,-140 611,-121 683,-121 683,-140"/>
<text text-anchor="middle" x="647" y="-128" font-family="Helvetica,sans-Serif" font-size="10.00">boot_lock.c</text>
</a>
</g>
</g>
<!-- Node1&#45;&gt;Node2 -->
<g id="edge1_Node000001_Node000002" class="edge">
<title>Node1&#45;&gt;Node2</title>
<g id="a_edge1_Node000001_Node000002"><a xlink:title=" ">
<path fill="none" stroke="#63b8ff" d="M672.73,-167.39C666.19,-158.27 658.43,-147.45 653.16,-140.09"/>
<polygon fill="#63b8ff" stroke="#63b8ff" points="670.05,-169.66 678.73,-175.75 675.74,-165.58 670.05,-169.66"/>
</a>
</g>
</g>
<!-- Node3 -->
<g id="Node000003" class="node">
<title>Node3</title>
<g id="a_Node000003"><a xlink:href="lock_8h.html" target="_top" xlink:title=" ">
<polygon fill="white" stroke="#666666" points="747,-140 701,-140 701,-121 747,-121 747,-140"/>
<text text-anchor="middle" x="724" y="-128" font-family="Helvetica,sans-Serif" font-size="10.00">lock.h</text>
</a>
</g>
</g>
<!-- Node1&#45;&gt;Node3 -->
<g id="edge2_Node000001_Node000003" class="edge">
<title>Node1&#45;&gt;Node3</title>
<g id="a_edge2_Node000001_Node000003"><a xlink:title=" ">
<path fill="none" stroke="#63b8ff" d="M697.38,-167.67C704.14,-158.5 712.21,-147.52 717.68,-140.09"/>
<polygon fill="#63b8ff" stroke="#63b8ff" points="694.55,-165.62 691.44,-175.75 700.19,-169.77 694.55,-165.62"/>
</a>
</g>
</g>
<!-- Node4 -->
<g id="Node000004" class="node">
<title>Node4</title>
<g id="a_Node000004"><a xlink:href="bootrom_8h.html" target="_top" xlink:title=" ">
<polygon fill="white" stroke="#666666" points="659.5,-85 592.5,-85 592.5,-66 659.5,-66 659.5,-85"/>
<text text-anchor="middle" x="626" y="-73" font-family="Helvetica,sans-Serif" font-size="10.00">bootrom.h</text>
</a>
</g>
</g>
<!-- Node3&#45;&gt;Node4 -->
<g id="edge3_Node000003_Node000004" class="edge">
<title>Node3&#45;&gt;Node4</title>
<g id="a_edge3_Node000003_Node000004"><a xlink:title=" ">
<path fill="none" stroke="#63b8ff" d="M698.97,-115.97C681.06,-106.28 657.47,-93.52 642.03,-85.17"/>
<polygon fill="#63b8ff" stroke="#63b8ff" points="697.79,-119.31 708.25,-120.98 701.12,-113.15 697.79,-119.31"/>
</a>
</g>
</g>
<!-- Node15 -->
<g id="Node000015" class="node">
<title>Node15</title>
<g id="a_Node000015"><a xlink:href="bootrom__lock_8c.html" target="_top" xlink:title=" ">
<polygon fill="white" stroke="#666666" points="770,-85 678,-85 678,-66 770,-66 770,-85"/>
<text text-anchor="middle" x="724" y="-73" font-family="Helvetica,sans-Serif" font-size="10.00">bootrom_lock.c</text>
</a>
</g>
</g>
<!-- Node3&#45;&gt;Node15 -->
<g id="edge14_Node000003_Node000015" class="edge">
<title>Node3&#45;&gt;Node15</title>
<g id="a_edge14_Node000003_Node000015"><a xlink:title=" ">
<path fill="none" stroke="#63b8ff" d="M724,-110.66C724,-101.93 724,-91.99 724,-85.09"/>
<polygon fill="#63b8ff" stroke="#63b8ff" points="720.5,-110.75 724,-120.75 727.5,-110.75 720.5,-110.75"/>
</a>
</g>
</g>
<!-- Node16 -->
<g id="Node000016" class="node">
<title>Node16</title>
<g id="a_Node000016"><a xlink:href="pico__sha256_2sha256_8c.html" target="_top" xlink:title=" ">
<polygon fill="white" stroke="#666666" points="848,-85 788,-85 788,-66 848,-66 848,-85"/>
<text text-anchor="middle" x="818" y="-73" font-family="Helvetica,sans-Serif" font-size="10.00">sha256.c</text>
</a>
</g>
</g>
<!-- Node3&#45;&gt;Node16 -->
<g id="edge15_Node000003_Node000016" class="edge">
<title>Node3&#45;&gt;Node16</title>
<g id="a_edge15_Node000003_Node000016"><a xlink:title=" ">
<path fill="none" stroke="#63b8ff" d="M748,-115.97C765.19,-106.28 787.81,-93.52 802.62,-85.17"/>
<polygon fill="#63b8ff" stroke="#63b8ff" points="746.09,-113.02 739.1,-120.98 749.53,-119.12 746.09,-113.02"/>
</a>
</g>
</g>
<!-- Node5 -->
<g id="Node000005" class="node">
<title>Node5</title>
<g id="a_Node000005"><a xlink:href="bootrom_8c.html" target="_top" xlink:title=" ">
<polygon fill="white" stroke="#666666" points="66,-24.5 0,-24.5 0,-5.5 66,-5.5 66,-24.5"/>
<text text-anchor="middle" x="33" y="-12.5" font-family="Helvetica,sans-Serif" font-size="10.00">bootrom.c</text>
</a>
</g>
</g>
<!-- Node4&#45;&gt;Node5 -->
<g id="edge4_Node000004_Node000005" class="edge">
<title>Node4&#45;&gt;Node5</title>
<g id="a_edge4_Node000004_Node000005"><a xlink:title=" ">
<path fill="none" stroke="#63b8ff" d="M582.12,-74.53C488.14,-73.8 260.85,-67.9 75,-30 68.52,-28.68 61.66,-26.67 55.4,-24.57"/>
<polygon fill="#63b8ff" stroke="#63b8ff" points="582.36,-78.03 592.38,-74.59 582.4,-71.03 582.36,-78.03"/>
</a>
</g>
</g>
<!-- Node6 -->
<g id="Node000006" class="node">
<title>Node6</title>
<g id="a_Node000006"><a xlink:href="cyw43__partition__firmware_8h.html" target="_top" xlink:title=" ">
<polygon fill="white" stroke="#666666" points="237.5,-24.5 84.5,-24.5 84.5,-5.5 237.5,-5.5 237.5,-24.5"/>
<text text-anchor="middle" x="161" y="-12.5" font-family="Helvetica,sans-Serif" font-size="10.00">cyw43_partition_firmware.h</text>
</a>
</g>
</g>
<!-- Node4&#45;&gt;Node6 -->
<g id="edge5_Node000004_Node000006" class="edge">
<title>Node4&#45;&gt;Node6</title>
<g id="a_edge5_Node000004_Node000006"><a xlink:title=" ">
<path fill="none" stroke="#63b8ff" d="M582.06,-70.03C511.21,-62.66 367.37,-47.09 246,-30 234.45,-28.37 222.05,-26.44 210.38,-24.53"/>
<polygon fill="#63b8ff" stroke="#63b8ff" points="582.08,-73.55 592.38,-71.1 582.8,-66.59 582.08,-73.55"/>
</a>
</g>
</g>
<!-- Node7 -->
<g id="Node000007" class="node">
<title>Node7</title>
<g id="a_Node000007"><a xlink:href="double__init__rom__rp2040_8c.html" target="_top" xlink:title=" ">
<polygon fill="white" stroke="#666666" points="398.5,-24.5 255.5,-24.5 255.5,-5.5 398.5,-5.5 398.5,-24.5"/>
<text text-anchor="middle" x="327" y="-12.5" font-family="Helvetica,sans-Serif" font-size="10.00">double_init_rom_rp2040.c</text>
</a>
</g>
</g>
<!-- Node4&#45;&gt;Node7 -->
<g id="edge6_Node000004_Node000007" class="edge">
<title>Node4&#45;&gt;Node7</title>
<g id="a_edge6_Node000004_Node000007"><a xlink:title=" ">
<path fill="none" stroke="#63b8ff" d="M582.19,-65.93C525.43,-54.82 427.07,-35.58 370.48,-24.51"/>
<polygon fill="#63b8ff" stroke="#63b8ff" points="581.8,-69.42 592.28,-67.9 583.14,-62.55 581.8,-69.42"/>
</a>
</g>
</g>
<!-- Node8 -->
<g id="Node000008" class="node">
<title>Node8</title>
<g id="a_Node000008"><a xlink:href="hardware__flash_2flash_8c.html" target="_top" xlink:title=" ">
<polygon fill="white" stroke="#666666" points="465.5,-24.5 416.5,-24.5 416.5,-5.5 465.5,-5.5 465.5,-24.5"/>
<text text-anchor="middle" x="441" y="-12.5" font-family="Helvetica,sans-Serif" font-size="10.00">flash.c</text>
</a>
</g>
</g>
<!-- Node4&#45;&gt;Node8 -->
<g id="edge7_Node000004_Node000008" class="edge">
<title>Node4&#45;&gt;Node8</title>
<g id="a_edge7_Node000004_Node000008"><a xlink:title=" ">
<path fill="none" stroke="#63b8ff" d="M583.71,-63.31C553.23,-54.93 511.25,-42.76 475,-30 470.42,-28.39 465.57,-26.5 461,-24.64"/>
<polygon fill="#63b8ff" stroke="#63b8ff" points="583.01,-66.74 593.58,-66 584.85,-59.99 583.01,-66.74"/>
</a>
</g>
</g>
<!-- Node9 -->
<g id="Node000009" class="node">
<title>Node9</title>
<g id="a_Node000009"><a xlink:href="float__init__rom__rp2040_8c.html" target="_top" xlink:title=" ">
<polygon fill="white" stroke="#666666" points="616,-24.5 484,-24.5 484,-5.5 616,-5.5 616,-24.5"/>
<text text-anchor="middle" x="550" y="-12.5" font-family="Helvetica,sans-Serif" font-size="10.00">float_init_rom_rp2040.c</text>
</a>
</g>
</g>
<!-- Node4&#45;&gt;Node9 -->
<g id="edge8_Node000004_Node000009" class="edge">
<title>Node4&#45;&gt;Node9</title>
<g id="a_edge8_Node000004_Node000009"><a xlink:title=" ">
<path fill="none" stroke="#63b8ff" d="M606.56,-59.54C592.21,-48.49 573.18,-33.84 561.26,-24.67"/>
<polygon fill="#63b8ff" stroke="#63b8ff" points="604.73,-62.54 614.79,-65.87 609,-56.99 604.73,-62.54"/>
</a>
</g>
</g>
<!-- Node10 -->
<g id="Node000010" class="node">
<title>Node10</title>
<g id="a_Node000010"><a xlink:href="pico__bootsel__via__double__reset_8c.html" target="_top" xlink:title=" ">
<polygon fill="white" stroke="#666666" points="771.5,-30 634.5,-30 634.5,0 771.5,0 771.5,-30"/>
<text text-anchor="start" x="642.5" y="-18" font-family="Helvetica,sans-Serif" font-size="10.00">pico_bootsel_via_double</text>
<text text-anchor="middle" x="703" y="-7" font-family="Helvetica,sans-Serif" font-size="10.00">_reset.c</text>
</a>
</g>
</g>
<!-- Node4&#45;&gt;Node10 -->
<g id="edge9_Node000004_Node000010" class="edge">
<title>Node4&#45;&gt;Node10</title>
<g id="a_edge9_Node000004_Node000010"><a xlink:title=" ">
<path fill="none" stroke="#63b8ff" d="M645.39,-59.77C657.35,-50.68 672.61,-39.09 684.42,-30.11"/>
<polygon fill="#63b8ff" stroke="#63b8ff" points="643.21,-57.03 637.36,-65.87 647.44,-62.61 643.21,-57.03"/>
</a>
</g>
</g>
<!-- Node11 -->
<g id="Node000011" class="node">
<title>Node11</title>
<g id="a_Node000011"><a xlink:href="reset__interface_8c.html" target="_top" xlink:title=" ">
<polygon fill="white" stroke="#666666" points="888,-24.5 790,-24.5 790,-5.5 888,-5.5 888,-24.5"/>
<text text-anchor="middle" x="839" y="-12.5" font-family="Helvetica,sans-Serif" font-size="10.00">reset_interface.c</text>
</a>
</g>
</g>
<!-- Node4&#45;&gt;Node11 -->
<g id="edge10_Node000004_Node000011" class="edge">
<title>Node4&#45;&gt;Node11</title>
<g id="a_edge10_Node000004_Node000011"><a xlink:title=" ">
<path fill="none" stroke="#63b8ff" d="M666.69,-63.32C707.88,-52.01 770.67,-34.77 807.99,-24.52"/>
<polygon fill="#63b8ff" stroke="#63b8ff" points="665.69,-59.97 656.97,-65.99 667.54,-66.72 665.69,-59.97"/>
</a>
</g>
</g>
<!-- Node12 -->
<g id="Node000012" class="node">
<title>Node12</title>
<g id="a_Node000012"><a xlink:href="runtime__init_8c.html" target="_top" xlink:title=" ">
<polygon fill="white" stroke="#666666" points="990,-24.5 906,-24.5 906,-5.5 990,-5.5 990,-24.5"/>
<text text-anchor="middle" x="948" y="-12.5" font-family="Helvetica,sans-Serif" font-size="10.00">runtime_init.c</text>
</a>
</g>
</g>
<!-- Node4&#45;&gt;Node12 -->
<g id="edge11_Node000004_Node000012" class="edge">
<title>Node4&#45;&gt;Node12</title>
<g id="a_edge11_Node000004_Node000012"><a xlink:title=" ">
<path fill="none" stroke="#63b8ff" d="M669.87,-65.92C771.75,-48.25 799.85,-50.94 897,-30 904.18,-28.45 911.85,-26.51 919.01,-24.56"/>
<polygon fill="#63b8ff" stroke="#63b8ff" points="669.02,-62.52 659.78,-67.7 670.23,-69.41 669.02,-62.52"/>
</a>
</g>
</g>
<!-- Node13 -->
<g id="Node000013" class="node">
<title>Node13</title>
<g id="a_Node000013"><a xlink:href="unique__id_8c.html" target="_top" xlink:title=" ">
<polygon fill="white" stroke="#666666" points="1080,-24.5 1008,-24.5 1008,-5.5 1080,-5.5 1080,-24.5"/>
<text text-anchor="middle" x="1044" y="-12.5" font-family="Helvetica,sans-Serif" font-size="10.00">unique_id.c</text>
</a>
</g>
</g>
<!-- Node4&#45;&gt;Node13 -->
<g id="edge12_Node000004_Node000013" class="edge">
<title>Node4&#45;&gt;Node13</title>
<g id="a_edge12_Node000004_Node000013"><a xlink:title=" ">
<path fill="none" stroke="#63b8ff" d="M670.03,-65.99C816.67,-44.39 857.8,-59.38 999,-30 1005.73,-28.6 1012.89,-26.61 1019.47,-24.57"/>
<polygon fill="#63b8ff" stroke="#63b8ff" points="669.12,-62.59 659.75,-67.54 670.16,-69.51 669.12,-62.59"/>
</a>
</g>
</g>
<!-- Node14 -->
<g id="Node000014" class="node">
<title>Node14</title>
<g id="a_Node000014"><a xlink:href="watchdog_8c.html" target="_top" xlink:title=" ">
<polygon fill="white" stroke="#666666" points="1170,-24.5 1098,-24.5 1098,-5.5 1170,-5.5 1170,-24.5"/>
<text text-anchor="middle" x="1134" y="-12.5" font-family="Helvetica,sans-Serif" font-size="10.00">watchdog.c</text>
</a>
</g>
</g>
<!-- Node4&#45;&gt;Node14 -->
<g id="edge13_Node000004_Node000014" class="edge">
<title>Node4&#45;&gt;Node14</title>
<g id="a_edge13_Node000004_Node000014"><a xlink:title=" ">
<path fill="none" stroke="#63b8ff" d="M669.88,-66.06C856.33,-40.7 908.38,-65.4 1089,-30 1095.9,-28.65 1103.25,-26.62 1109.96,-24.53"/>
<polygon fill="#63b8ff" stroke="#63b8ff" points="669.16,-62.62 659.74,-67.47 670.13,-69.56 669.16,-62.62"/>
</a>
</g>
</g>
</g>
</svg>
