<?xml version="1.0" encoding="UTF-8" standalone="no"?>
<!DOCTYPE svg PUBLIC "-//W3C//DTD SVG 1.1//EN"
 "http://www.w3.org/Graphics/SVG/1.1/DTD/svg11.dtd">
<!-- Generated by graphviz version 2.43.0 (0)
 -->
<!-- Title: btstack_cyw43.h Pages: 1 -->
<svg width="178pt" height="192pt"
 viewBox="0.00 0.00 178.00 192.00" xmlns="http://www.w3.org/2000/svg" xmlns:xlink="http://www.w3.org/1999/xlink">
<g id="graph0" class="graph" transform="scale(1 1) rotate(0) translate(4 188)">
<title>btstack_cyw43.h</title>
<!-- Node1 -->
<g id="Node000001" class="node">
<title>Node1</title>
<g id="a_Node000001"><a xlink:title=" ">
<polygon fill="#999999" stroke="#666666" points="108.5,-184 10.5,-184 10.5,-165 108.5,-165 108.5,-184"/>
<text text-anchor="middle" x="59.5" y="-172" font-family="Helvetica,sans-Serif" font-size="10.00">btstack_cyw43.h</text>
</a>
</g>
</g>
<!-- Node2 -->
<g id="Node000002" class="node">
<title>Node2</title>
<g id="a_Node000002"><a xlink:href="async__context_8h.html" target="_top" xlink:title=" ">
<polygon fill="white" stroke="#666666" points="119,-129 0,-129 0,-110 119,-110 119,-129"/>
<text text-anchor="middle" x="59.5" y="-117" font-family="Helvetica,sans-Serif" font-size="10.00">pico/async_context.h</text>
</a>
</g>
</g>
<!-- Node1&#45;&gt;Node2 -->
<g id="edge1_Node000001_Node000002" class="edge">
<title>Node1&#45;&gt;Node2</title>
<g id="a_edge1_Node000001_Node000002"><a xlink:title=" ">
<path fill="none" stroke="#63b8ff" d="M59.5,-164.75C59.5,-157.8 59.5,-147.85 59.5,-139.13"/>
<polygon fill="#63b8ff" stroke="#63b8ff" points="63,-139.09 59.5,-129.09 56,-139.09 63,-139.09"/>
</a>
</g>
</g>
<!-- Node3 -->
<g id="Node000003" class="node">
<title>Node3</title>
<g id="a_Node000003"><a xlink:title=" ">
<polygon fill="#e0e0e0" stroke="#999999" points="50.5,-19 4.5,-19 4.5,0 50.5,0 50.5,-19"/>
<text text-anchor="middle" x="27.5" y="-7" font-family="Helvetica,sans-Serif" font-size="10.00">pico.h</text>
</a>
</g>
</g>
<!-- Node2&#45;&gt;Node3 -->
<g id="edge2_Node000002_Node000003" class="edge">
<title>Node2&#45;&gt;Node3</title>
<g id="a_edge2_Node000002_Node000003"><a xlink:title=" ">
<path fill="none" stroke="#63b8ff" d="M56.88,-109.66C51.68,-92.09 39.93,-52.45 32.97,-28.95"/>
<polygon fill="#63b8ff" stroke="#63b8ff" points="36.26,-27.75 30.07,-19.16 29.55,-29.74 36.26,-27.75"/>
</a>
</g>
</g>
<!-- Node4 -->
<g id="Node000004" class="node">
<title>Node4</title>
<g id="a_Node000004"><a xlink:href="common_2pico__time_2include_2pico_2time_8h.html" target="_top" xlink:title=" ">
<polygon fill="white" stroke="#666666" points="127,-74 56,-74 56,-55 127,-55 127,-74"/>
<text text-anchor="middle" x="91.5" y="-62" font-family="Helvetica,sans-Serif" font-size="10.00">pico/time.h</text>
</a>
</g>
</g>
<!-- Node2&#45;&gt;Node4 -->
<g id="edge3_Node000002_Node000004" class="edge">
<title>Node2&#45;&gt;Node4</title>
<g id="a_edge3_Node000002_Node000004"><a xlink:title=" ">
<path fill="none" stroke="#63b8ff" d="M64.78,-109.75C69.21,-102.42 75.66,-91.73 81.12,-82.7"/>
<polygon fill="#63b8ff" stroke="#63b8ff" points="84.14,-84.46 86.31,-74.09 78.15,-80.84 84.14,-84.46"/>
</a>
</g>
</g>
<!-- Node4&#45;&gt;Node3 -->
<g id="edge4_Node000004_Node000003" class="edge">
<title>Node4&#45;&gt;Node3</title>
<g id="a_edge4_Node000004_Node000003"><a xlink:title=" ">
<path fill="none" stroke="#63b8ff" d="M81.22,-54.98C71.66,-47.07 57.22,-35.11 45.72,-25.58"/>
<polygon fill="#63b8ff" stroke="#63b8ff" points="47.9,-22.85 37.97,-19.17 43.44,-28.24 47.9,-22.85"/>
</a>
</g>
</g>
<!-- Node5 -->
<g id="Node000005" class="node">
<title>Node5</title>
<g id="a_Node000005"><a xlink:title=" ">
<polygon fill="#e0e0e0" stroke="#999999" points="170,-19 69,-19 69,0 170,0 170,-19"/>
<text text-anchor="middle" x="119.5" y="-7" font-family="Helvetica,sans-Serif" font-size="10.00">hardware/timer.h</text>
</a>
</g>
</g>
<!-- Node4&#45;&gt;Node5 -->
<g id="edge5_Node000004_Node000005" class="edge">
<title>Node4&#45;&gt;Node5</title>
<g id="a_edge5_Node000004_Node000005"><a xlink:title=" ">
<path fill="none" stroke="#63b8ff" d="M96.12,-54.75C99.96,-47.49 105.52,-36.95 110.26,-27.98"/>
<polygon fill="#63b8ff" stroke="#63b8ff" points="113.39,-29.57 114.96,-19.09 107.2,-26.3 113.39,-29.57"/>
</a>
</g>
</g>
</g>
</svg>
