<?xml version="1.0" encoding="UTF-8" standalone="no"?>
<!DOCTYPE svg PUBLIC "-//W3C//DTD SVG 1.1//EN"
 "http://www.w3.org/Graphics/SVG/1.1/DTD/svg11.dtd">
<!-- Generated by graphviz version 2.43.0 (0)
 -->
<!-- Title: btstack_hci_transport_cyw43.c Pages: 1 -->
<svg width="708pt" height="159pt"
 viewBox="0.00 0.00 708.00 159.00" xmlns="http://www.w3.org/2000/svg" xmlns:xlink="http://www.w3.org/1999/xlink">
<g id="graph0" class="graph" transform="scale(1 1) rotate(0) translate(4 155)">
<title>btstack_hci_transport_cyw43.c</title>
<!-- Node1 -->
<g id="Node000001" class="node">
<title>Node1</title>
<g id="a_Node000001"><a xlink:title=" ">
<polygon fill="#999999" stroke="#666666" points="336,-151 214,-151 214,-121 336,-121 336,-151"/>
<text text-anchor="start" x="222" y="-139" font-family="Helvetica,sans-Serif" font-size="10.00">btstack_hci_transport</text>
<text text-anchor="middle" x="275" y="-128" font-family="Helvetica,sans-Serif" font-size="10.00">_cyw43.c</text>
</a>
</g>
</g>
<!-- Node2 -->
<g id="Node000002" class="node">
<title>Node2</title>
<g id="a_Node000002"><a xlink:title=" ">
<polygon fill="#e0e0e0" stroke="#999999" points="46,-79.5 0,-79.5 0,-60.5 46,-60.5 46,-79.5"/>
<text text-anchor="middle" x="23" y="-67.5" font-family="Helvetica,sans-Serif" font-size="10.00">pico.h</text>
</a>
</g>
</g>
<!-- Node1&#45;&gt;Node2 -->
<g id="edge1_Node000001_Node000002" class="edge">
<title>Node1&#45;&gt;Node2</title>
<g id="a_edge1_Node000001_Node000002"><a xlink:title=" ">
<path fill="none" stroke="#63b8ff" d="M213.8,-124.04C169.44,-115.37 108.32,-101.92 56,-85 54.37,-84.47 52.71,-83.9 51.05,-83.29"/>
<polygon fill="#63b8ff" stroke="#63b8ff" points="52.22,-79.99 41.63,-79.58 49.65,-86.5 52.22,-79.99"/>
</a>
</g>
</g>
<!-- Node3 -->
<g id="Node000003" class="node">
<title>Node3</title>
<g id="a_Node000003"><a xlink:title=" ">
<polygon fill="#e0e0e0" stroke="#999999" points="121.5,-79.5 64.5,-79.5 64.5,-60.5 121.5,-60.5 121.5,-79.5"/>
<text text-anchor="middle" x="93" y="-67.5" font-family="Helvetica,sans-Serif" font-size="10.00">cyw43.h</text>
</a>
</g>
</g>
<!-- Node1&#45;&gt;Node3 -->
<g id="edge2_Node000001_Node000003" class="edge">
<title>Node1&#45;&gt;Node3</title>
<g id="a_edge2_Node000001_Node000003"><a xlink:title=" ">
<path fill="none" stroke="#63b8ff" d="M233.96,-120.98C205.11,-111.07 165.64,-97.39 131,-85 129.16,-84.34 127.28,-83.66 125.38,-82.97"/>
<polygon fill="#63b8ff" stroke="#63b8ff" points="126.48,-79.65 115.88,-79.51 124.08,-86.23 126.48,-79.65"/>
</a>
</g>
</g>
<!-- Node4 -->
<g id="Node000004" class="node">
<title>Node4</title>
<g id="a_Node000004"><a xlink:href="btstack__config_8h.html" target="_top" xlink:title=" ">
<polygon fill="white" stroke="#666666" points="236.5,-79.5 139.5,-79.5 139.5,-60.5 236.5,-60.5 236.5,-79.5"/>
<text text-anchor="middle" x="188" y="-67.5" font-family="Helvetica,sans-Serif" font-size="10.00">btstack_config.h</text>
</a>
</g>
</g>
<!-- Node1&#45;&gt;Node4 -->
<g id="edge3_Node000001_Node000004" class="edge">
<title>Node1&#45;&gt;Node4</title>
<g id="a_edge3_Node000001_Node000004"><a xlink:title=" ">
<path fill="none" stroke="#63b8ff" d="M255.69,-120.8C241.51,-110.37 222.31,-96.24 207.98,-85.69"/>
<polygon fill="#63b8ff" stroke="#63b8ff" points="209.9,-82.76 199.77,-79.66 205.75,-88.4 209.9,-82.76"/>
</a>
</g>
</g>
<!-- Node5 -->
<g id="Node000005" class="node">
<title>Node5</title>
<g id="a_Node000005"><a xlink:title=" ">
<polygon fill="#e0e0e0" stroke="#999999" points="295,-79.5 255,-79.5 255,-60.5 295,-60.5 295,-79.5"/>
<text text-anchor="middle" x="275" y="-67.5" font-family="Helvetica,sans-Serif" font-size="10.00">hci.h</text>
</a>
</g>
</g>
<!-- Node1&#45;&gt;Node5 -->
<g id="edge4_Node000001_Node000005" class="edge">
<title>Node1&#45;&gt;Node5</title>
<g id="a_edge4_Node000001_Node000005"><a xlink:title=" ">
<path fill="none" stroke="#63b8ff" d="M275,-120.8C275,-111.7 275,-99.79 275,-89.9"/>
<polygon fill="#63b8ff" stroke="#63b8ff" points="278.5,-89.84 275,-79.84 271.5,-89.84 278.5,-89.84"/>
</a>
</g>
</g>
<!-- Node6 -->
<g id="Node000006" class="node">
<title>Node6</title>
<g id="a_Node000006"><a xlink:title=" ">
<polygon fill="#e0e0e0" stroke="#999999" points="402.5,-79.5 313.5,-79.5 313.5,-60.5 402.5,-60.5 402.5,-79.5"/>
<text text-anchor="middle" x="358" y="-67.5" font-family="Helvetica,sans-Serif" font-size="10.00">hci_transport.h</text>
</a>
</g>
</g>
<!-- Node1&#45;&gt;Node6 -->
<g id="edge5_Node000001_Node000006" class="edge">
<title>Node1&#45;&gt;Node6</title>
<g id="a_edge5_Node000001_Node000006"><a xlink:title=" ">
<path fill="none" stroke="#63b8ff" d="M293.42,-120.8C306.74,-110.53 324.71,-96.67 338.31,-86.18"/>
<polygon fill="#63b8ff" stroke="#63b8ff" points="340.75,-88.72 346.53,-79.84 336.47,-83.18 340.75,-88.72"/>
</a>
</g>
</g>
<!-- Node7 -->
<g id="Node000007" class="node">
<title>Node7</title>
<g id="a_Node000007"><a xlink:href="btstack__hci__transport__cyw43_8h.html" target="_top" xlink:title="Adds low level Bluetooth HCI support.">
<polygon fill="white" stroke="#666666" points="565.5,-85 420.5,-85 420.5,-55 565.5,-55 565.5,-85"/>
<text text-anchor="start" x="428.5" y="-73" font-family="Helvetica,sans-Serif" font-size="10.00">pico/btstack_hci_transport</text>
<text text-anchor="middle" x="493" y="-62" font-family="Helvetica,sans-Serif" font-size="10.00">_cyw43.h</text>
</a>
</g>
</g>
<!-- Node1&#45;&gt;Node7 -->
<g id="edge6_Node000001_Node000007" class="edge">
<title>Node1&#45;&gt;Node7</title>
<g id="a_edge6_Node000001_Node000007"><a xlink:title=" ">
<path fill="none" stroke="#63b8ff" d="M322.84,-120.95C356.06,-111.2 400.5,-98.16 435.63,-87.84"/>
<polygon fill="#63b8ff" stroke="#63b8ff" points="436.66,-91.19 445.27,-85.01 434.69,-84.47 436.66,-91.19"/>
</a>
</g>
</g>
<!-- Node8 -->
<g id="Node000008" class="node">
<title>Node8</title>
<g id="a_Node000008"><a xlink:href="btstack__chipset__cyw43_8h.html" target="_top" xlink:title=" ">
<polygon fill="white" stroke="#666666" points="700,-85 584,-85 584,-55 700,-55 700,-85"/>
<text text-anchor="start" x="592" y="-73" font-family="Helvetica,sans-Serif" font-size="10.00">pico/btstack_chipset</text>
<text text-anchor="middle" x="642" y="-62" font-family="Helvetica,sans-Serif" font-size="10.00">_cyw43.h</text>
</a>
</g>
</g>
<!-- Node1&#45;&gt;Node8 -->
<g id="edge7_Node000001_Node000008" class="edge">
<title>Node1&#45;&gt;Node8</title>
<g id="a_edge7_Node000001_Node000008"><a xlink:title=" ">
<path fill="none" stroke="#63b8ff" d="M336.03,-125.58C394.55,-116.37 485.61,-101.61 574,-85.14"/>
<polygon fill="#63b8ff" stroke="#63b8ff" points="574.74,-88.57 583.92,-83.29 573.45,-81.69 574.74,-88.57"/>
</a>
</g>
</g>
<!-- Node9 -->
<g id="Node000009" class="node">
<title>Node9</title>
<g id="a_Node000009"><a xlink:title=" ">
<polygon fill="#e0e0e0" stroke="#999999" points="693,-19 591,-19 591,0 693,0 693,-19"/>
<text text-anchor="middle" x="642" y="-7" font-family="Helvetica,sans-Serif" font-size="10.00">btstack_chipset.h</text>
</a>
</g>
</g>
<!-- Node8&#45;&gt;Node9 -->
<g id="edge8_Node000008_Node000009" class="edge">
<title>Node8&#45;&gt;Node9</title>
<g id="a_edge8_Node000008_Node000009"><a xlink:title=" ">
<path fill="none" stroke="#63b8ff" d="M642,-54.84C642,-47.21 642,-37.7 642,-29.45"/>
<polygon fill="#63b8ff" stroke="#63b8ff" points="645.5,-29.27 642,-19.27 638.5,-29.27 645.5,-29.27"/>
</a>
</g>
</g>
</g>
</svg>
