<?xml version="1.0" encoding="UTF-8" standalone="no"?>
<!DOCTYPE svg PUBLIC "-//W3C//DTD SVG 1.1//EN"
 "http://www.w3.org/Graphics/SVG/1.1/DTD/svg11.dtd">
<!-- Generated by graphviz version 2.43.0 (0)
 -->
<!-- Title: btstack_chipset_cyw43.h Pages: 1 -->
<svg width="286pt" height="93pt"
 viewBox="0.00 0.00 286.00 93.00" xmlns="http://www.w3.org/2000/svg" xmlns:xlink="http://www.w3.org/1999/xlink">
<g id="graph0" class="graph" transform="scale(1 1) rotate(0) translate(4 89)">
<title>btstack_chipset_cyw43.h</title>
<!-- Node1 -->
<g id="Node000001" class="node">
<title>Node1</title>
<g id="a_Node000001"><a xlink:title=" ">
<polygon fill="#999999" stroke="#666666" points="212.5,-85 73.5,-85 73.5,-66 212.5,-66 212.5,-85"/>
<text text-anchor="middle" x="143" y="-73" font-family="Helvetica,sans-Serif" font-size="10.00">btstack_chipset_cyw43.h</text>
</a>
</g>
</g>
<!-- Node2 -->
<g id="Node000002" class="node">
<title>Node2</title>
<g id="a_Node000002"><a xlink:href="btstack__chipset__cyw43_8c.html" target="_top" xlink:title=" ">
<polygon fill="white" stroke="#666666" points="138,-24.5 0,-24.5 0,-5.5 138,-5.5 138,-24.5"/>
<text text-anchor="middle" x="69" y="-12.5" font-family="Helvetica,sans-Serif" font-size="10.00">btstack_chipset_cyw43.c</text>
</a>
</g>
</g>
<!-- Node1&#45;&gt;Node2 -->
<g id="edge1_Node000001_Node000002" class="edge">
<title>Node1&#45;&gt;Node2</title>
<g id="a_edge1_Node000001_Node000002"><a xlink:title=" ">
<path fill="none" stroke="#63b8ff" d="M124.07,-59.54C110.1,-48.49 91.57,-33.84 79.96,-24.67"/>
<polygon fill="#63b8ff" stroke="#63b8ff" points="122.07,-62.41 132.08,-65.87 126.41,-56.92 122.07,-62.41"/>
</a>
</g>
</g>
<!-- Node3 -->
<g id="Node000003" class="node">
<title>Node3</title>
<g id="a_Node000003"><a xlink:href="btstack__hci__transport__cyw43_8c.html" target="_top" xlink:title=" ">
<polygon fill="white" stroke="#666666" points="278,-30 156,-30 156,0 278,0 278,-30"/>
<text text-anchor="start" x="164" y="-18" font-family="Helvetica,sans-Serif" font-size="10.00">btstack_hci_transport</text>
<text text-anchor="middle" x="217" y="-7" font-family="Helvetica,sans-Serif" font-size="10.00">_cyw43.c</text>
</a>
</g>
</g>
<!-- Node1&#45;&gt;Node3 -->
<g id="edge2_Node000001_Node000003" class="edge">
<title>Node1&#45;&gt;Node3</title>
<g id="a_edge2_Node000001_Node000003"><a xlink:title=" ">
<path fill="none" stroke="#63b8ff" d="M161.97,-59.5C173.42,-50.45 187.91,-39 199.15,-30.11"/>
<polygon fill="#63b8ff" stroke="#63b8ff" points="159.59,-56.92 153.92,-65.87 163.93,-62.41 159.59,-56.92"/>
</a>
</g>
</g>
</g>
</svg>
