<?xml version="1.0" encoding="UTF-8" standalone="no"?>
<!DOCTYPE svg PUBLIC "-//W3C//DTD SVG 1.1//EN"
 "http://www.w3.org/Graphics/SVG/1.1/DTD/svg11.dtd">
<!-- Generated by graphviz version 2.43.0 (0)
 -->
<!-- Title: btstack_chipset_cyw43.c Pages: 1 -->
<svg width="146pt" height="148pt"
 viewBox="0.00 0.00 146.00 148.00" xmlns="http://www.w3.org/2000/svg" xmlns:xlink="http://www.w3.org/1999/xlink">
<g id="graph0" class="graph" transform="scale(1 1) rotate(0) translate(4 144)">
<title>btstack_chipset_cyw43.c</title>
<!-- Node1 -->
<g id="Node000001" class="node">
<title>Node1</title>
<g id="a_Node000001"><a xlink:title=" ">
<polygon fill="#999999" stroke="#666666" points="138,-140 0,-140 0,-121 138,-121 138,-140"/>
<text text-anchor="middle" x="69" y="-128" font-family="Helvetica,sans-Serif" font-size="10.00">btstack_chipset_cyw43.c</text>
</a>
</g>
</g>
<!-- Node2 -->
<g id="Node000002" class="node">
<title>Node2</title>
<g id="a_Node000002"><a xlink:href="btstack__chipset__cyw43_8h.html" target="_top" xlink:title=" ">
<polygon fill="white" stroke="#666666" points="127,-85 11,-85 11,-55 127,-55 127,-85"/>
<text text-anchor="start" x="19" y="-73" font-family="Helvetica,sans-Serif" font-size="10.00">pico/btstack_chipset</text>
<text text-anchor="middle" x="69" y="-62" font-family="Helvetica,sans-Serif" font-size="10.00">_cyw43.h</text>
</a>
</g>
</g>
<!-- Node1&#45;&gt;Node2 -->
<g id="edge1_Node000001_Node000002" class="edge">
<title>Node1&#45;&gt;Node2</title>
<g id="a_edge1_Node000001_Node000002"><a xlink:title=" ">
<path fill="none" stroke="#63b8ff" d="M69,-120.87C69,-114.11 69,-104.35 69,-95.26"/>
<polygon fill="#63b8ff" stroke="#63b8ff" points="72.5,-95.11 69,-85.11 65.5,-95.11 72.5,-95.11"/>
</a>
</g>
</g>
<!-- Node3 -->
<g id="Node000003" class="node">
<title>Node3</title>
<g id="a_Node000003"><a xlink:title=" ">
<polygon fill="#e0e0e0" stroke="#999999" points="120,-19 18,-19 18,0 120,0 120,-19"/>
<text text-anchor="middle" x="69" y="-7" font-family="Helvetica,sans-Serif" font-size="10.00">btstack_chipset.h</text>
</a>
</g>
</g>
<!-- Node2&#45;&gt;Node3 -->
<g id="edge2_Node000002_Node000003" class="edge">
<title>Node2&#45;&gt;Node3</title>
<g id="a_edge2_Node000002_Node000003"><a xlink:title=" ">
<path fill="none" stroke="#63b8ff" d="M69,-54.84C69,-47.21 69,-37.7 69,-29.45"/>
<polygon fill="#63b8ff" stroke="#63b8ff" points="72.5,-29.27 69,-19.27 65.5,-29.27 72.5,-29.27"/>
</a>
</g>
</g>
</g>
</svg>
