<?xml version="1.0" encoding="UTF-8" standalone="no"?>
<!DOCTYPE svg PUBLIC "-//W3C//DTD SVG 1.1//EN"
 "http://www.w3.org/Graphics/SVG/1.1/DTD/svg11.dtd">
<!-- Generated by graphviz version 2.43.0 (0)
 -->
<!-- Title: btstack_cyw43.c Pages: 1 -->
<svg width="1365pt" height="269pt"
 viewBox="0.00 0.00 1365.00 269.00" xmlns="http://www.w3.org/2000/svg" xmlns:xlink="http://www.w3.org/1999/xlink">
<g id="graph0" class="graph" transform="scale(1 1) rotate(0) translate(4 265)">
<title>btstack_cyw43.c</title>
<!-- Node1 -->
<g id="Node000001" class="node">
<title>Node1</title>
<g id="a_Node000001"><a xlink:title=" ">
<polygon fill="#999999" stroke="#666666" points="676.5,-261 578.5,-261 578.5,-242 676.5,-242 676.5,-261"/>
<text text-anchor="middle" x="627.5" y="-249" font-family="Helvetica,sans-Serif" font-size="10.00">btstack_cyw43.c</text>
</a>
</g>
</g>
<!-- Node2 -->
<g id="Node000002" class="node">
<title>Node2</title>
<g id="a_Node000002"><a xlink:title=" ">
<polygon fill="#e0e0e0" stroke="#999999" points="125,-200.5 0,-200.5 0,-181.5 125,-181.5 125,-200.5"/>
<text text-anchor="middle" x="62.5" y="-188.5" font-family="Helvetica,sans-Serif" font-size="10.00">ble/le_device_db_tlv.h</text>
</a>
</g>
</g>
<!-- Node1&#45;&gt;Node2 -->
<g id="edge1_Node000001_Node000002" class="edge">
<title>Node1&#45;&gt;Node2</title>
<g id="a_edge1_Node000001_Node000002"><a xlink:title=" ">
<path fill="none" stroke="#63b8ff" d="M578.33,-247.73C489.42,-242.35 296.16,-228.95 134.5,-206 127.31,-204.98 119.74,-203.72 112.33,-202.37"/>
<polygon fill="#63b8ff" stroke="#63b8ff" points="112.84,-198.91 102.37,-200.5 111.55,-205.79 112.84,-198.91"/>
</a>
</g>
</g>
<!-- Node3 -->
<g id="Node000003" class="node">
<title>Node3</title>
<g id="a_Node000003"><a xlink:title=" ">
<polygon fill="#e0e0e0" stroke="#999999" points="255.5,-206 143.5,-206 143.5,-176 255.5,-176 255.5,-206"/>
<text text-anchor="start" x="151.5" y="-194" font-family="Helvetica,sans-Serif" font-size="10.00">classic/btstack_link</text>
<text text-anchor="middle" x="199.5" y="-183" font-family="Helvetica,sans-Serif" font-size="10.00">_key_db_tlv.h</text>
</a>
</g>
</g>
<!-- Node1&#45;&gt;Node3 -->
<g id="edge2_Node000001_Node000003" class="edge">
<title>Node1&#45;&gt;Node3</title>
<g id="a_edge2_Node000001_Node000003"><a xlink:title=" ">
<path fill="none" stroke="#63b8ff" d="M578.27,-245.89C510.19,-239.19 383.28,-225.59 265.7,-206.11"/>
<polygon fill="#63b8ff" stroke="#63b8ff" points="266.25,-202.65 255.81,-204.45 265.09,-209.56 266.25,-202.65"/>
</a>
</g>
</g>
<!-- Node4 -->
<g id="Node000004" class="node">
<title>Node4</title>
<g id="a_Node000004"><a xlink:title=" ">
<polygon fill="#e0e0e0" stroke="#999999" points="353,-200.5 274,-200.5 274,-181.5 353,-181.5 353,-200.5"/>
<text text-anchor="middle" x="313.5" y="-188.5" font-family="Helvetica,sans-Serif" font-size="10.00">btstack_tlv.h</text>
</a>
</g>
</g>
<!-- Node1&#45;&gt;Node4 -->
<g id="edge3_Node000001_Node000004" class="edge">
<title>Node1&#45;&gt;Node4</title>
<g id="a_edge3_Node000001_Node000004"><a xlink:title=" ">
<path fill="none" stroke="#63b8ff" d="M578.34,-243.93C524.89,-236.39 437.12,-222.87 362.5,-206 358.83,-205.17 355.03,-204.23 351.24,-203.24"/>
<polygon fill="#63b8ff" stroke="#63b8ff" points="351.91,-199.8 341.35,-200.54 350.07,-206.55 351.91,-199.8"/>
</a>
</g>
</g>
<!-- Node5 -->
<g id="Node000005" class="node">
<title>Node5</title>
<g id="a_Node000005"><a xlink:title=" ">
<polygon fill="#e0e0e0" stroke="#999999" points="509.5,-200.5 371.5,-200.5 371.5,-181.5 509.5,-181.5 509.5,-200.5"/>
<text text-anchor="middle" x="440.5" y="-188.5" font-family="Helvetica,sans-Serif" font-size="10.00">btstack_tlv_flash_bank.h</text>
</a>
</g>
</g>
<!-- Node1&#45;&gt;Node5 -->
<g id="edge4_Node000001_Node000005" class="edge">
<title>Node1&#45;&gt;Node5</title>
<g id="a_edge4_Node000001_Node000005"><a xlink:title=" ">
<path fill="none" stroke="#63b8ff" d="M600.31,-241.99C567.9,-231.86 513.6,-214.87 477.42,-203.55"/>
<polygon fill="#63b8ff" stroke="#63b8ff" points="478.31,-200.16 467.72,-200.52 476.22,-206.84 478.31,-200.16"/>
</a>
</g>
</g>
<!-- Node6 -->
<g id="Node000006" class="node">
<title>Node6</title>
<g id="a_Node000006"><a xlink:title=" ">
<polygon fill="#e0e0e0" stroke="#999999" points="635,-200.5 528,-200.5 528,-181.5 635,-181.5 635,-200.5"/>
<text text-anchor="middle" x="581.5" y="-188.5" font-family="Helvetica,sans-Serif" font-size="10.00">btstack_memory.h</text>
</a>
</g>
</g>
<!-- Node1&#45;&gt;Node6 -->
<g id="edge5_Node000001_Node000006" class="edge">
<title>Node1&#45;&gt;Node6</title>
<g id="a_edge5_Node000001_Node000006"><a xlink:title=" ">
<path fill="none" stroke="#63b8ff" d="M620.71,-241.87C613.85,-233.14 603.07,-219.43 594.55,-208.59"/>
<polygon fill="#63b8ff" stroke="#63b8ff" points="597.25,-206.36 588.32,-200.67 591.75,-210.69 597.25,-206.36"/>
</a>
</g>
</g>
<!-- Node7 -->
<g id="Node000007" class="node">
<title>Node7</title>
<g id="a_Node000007"><a xlink:title=" ">
<polygon fill="#e0e0e0" stroke="#999999" points="693.5,-200.5 653.5,-200.5 653.5,-181.5 693.5,-181.5 693.5,-200.5"/>
<text text-anchor="middle" x="673.5" y="-188.5" font-family="Helvetica,sans-Serif" font-size="10.00">hci.h</text>
</a>
</g>
</g>
<!-- Node1&#45;&gt;Node7 -->
<g id="edge6_Node000001_Node000007" class="edge">
<title>Node1&#45;&gt;Node7</title>
<g id="a_edge6_Node000001_Node000007"><a xlink:title=" ">
<path fill="none" stroke="#63b8ff" d="M634.29,-241.87C641.15,-233.14 651.93,-219.43 660.45,-208.59"/>
<polygon fill="#63b8ff" stroke="#63b8ff" points="663.25,-210.69 666.68,-200.67 657.75,-206.36 663.25,-210.69"/>
</a>
</g>
</g>
<!-- Node8 -->
<g id="Node000008" class="node">
<title>Node8</title>
<g id="a_Node000008"><a xlink:href="btstack__hci__transport__cyw43_8h.html" target="_top" xlink:title="Adds low level Bluetooth HCI support.">
<polygon fill="white" stroke="#666666" points="857,-206 712,-206 712,-176 857,-176 857,-206"/>
<text text-anchor="start" x="720" y="-194" font-family="Helvetica,sans-Serif" font-size="10.00">pico/btstack_hci_transport</text>
<text text-anchor="middle" x="784.5" y="-183" font-family="Helvetica,sans-Serif" font-size="10.00">_cyw43.h</text>
</a>
</g>
</g>
<!-- Node1&#45;&gt;Node8 -->
<g id="edge7_Node000001_Node000008" class="edge">
<title>Node1&#45;&gt;Node8</title>
<g id="a_edge7_Node000001_Node000008"><a xlink:title=" ">
<path fill="none" stroke="#63b8ff" d="M650.33,-241.99C673.02,-233.54 708.5,-220.32 737.28,-209.59"/>
<polygon fill="#63b8ff" stroke="#63b8ff" points="738.61,-212.84 746.75,-206.06 736.16,-206.28 738.61,-212.84"/>
</a>
</g>
</g>
<!-- Node9 -->
<g id="Node000009" class="node">
<title>Node9</title>
<g id="a_Node000009"><a xlink:href="btstack__run__loop__async__context_8h.html" target="_top" xlink:title=" ">
<polygon fill="white" stroke="#666666" points="998,-206 875,-206 875,-176 998,-176 998,-206"/>
<text text-anchor="start" x="883" y="-194" font-family="Helvetica,sans-Serif" font-size="10.00">pico/btstack_run_loop</text>
<text text-anchor="middle" x="936.5" y="-183" font-family="Helvetica,sans-Serif" font-size="10.00">_async_context.h</text>
</a>
</g>
</g>
<!-- Node1&#45;&gt;Node9 -->
<g id="edge8_Node000001_Node000009" class="edge">
<title>Node1&#45;&gt;Node9</title>
<g id="a_edge8_Node000001_Node000009"><a xlink:title=" ">
<path fill="none" stroke="#63b8ff" d="M674.04,-241.94C719.88,-233.47 792.18,-220.04 864.7,-206.14"/>
<polygon fill="#63b8ff" stroke="#63b8ff" points="865.77,-209.5 874.93,-204.18 864.45,-202.63 865.77,-209.5"/>
</a>
</g>
</g>
<!-- Node15 -->
<g id="Node000015" class="node">
<title>Node15</title>
<g id="a_Node000015"><a xlink:href="btstack__flash__bank_8h.html" target="_top" xlink:title=" ">
<polygon fill="white" stroke="#666666" points="1243,-140 1138,-140 1138,-110 1243,-110 1243,-140"/>
<text text-anchor="start" x="1146" y="-128" font-family="Helvetica,sans-Serif" font-size="10.00">pico/btstack_flash</text>
<text text-anchor="middle" x="1190.5" y="-117" font-family="Helvetica,sans-Serif" font-size="10.00">_bank.h</text>
</a>
</g>
</g>
<!-- Node1&#45;&gt;Node15 -->
<g id="edge15_Node000001_Node000015" class="edge">
<title>Node1&#45;&gt;Node15</title>
<g id="a_edge15_Node000001_Node000015"><a xlink:title=" ">
<path fill="none" stroke="#63b8ff" d="M676.57,-248.94C798.59,-244.7 1108.7,-231.51 1147.5,-206 1166.98,-193.2 1178.3,-168.51 1184.39,-149.93"/>
<polygon fill="#63b8ff" stroke="#63b8ff" points="1187.82,-150.67 1187.32,-140.09 1181.11,-148.67 1187.82,-150.67"/>
</a>
</g>
</g>
<!-- Node18 -->
<g id="Node000018" class="node">
<title>Node18</title>
<g id="a_Node000018"><a xlink:href="btstack__cyw43_8h.html" target="_top" xlink:title=" ">
<polygon fill="white" stroke="#666666" points="1138.5,-200.5 1016.5,-200.5 1016.5,-181.5 1138.5,-181.5 1138.5,-200.5"/>
<text text-anchor="middle" x="1077.5" y="-188.5" font-family="Helvetica,sans-Serif" font-size="10.00">pico/btstack_cyw43.h</text>
</a>
</g>
</g>
<!-- Node1&#45;&gt;Node18 -->
<g id="edge20_Node000001_Node000018" class="edge">
<title>Node1&#45;&gt;Node18</title>
<g id="a_edge20_Node000001_Node000018"><a xlink:title=" ">
<path fill="none" stroke="#63b8ff" d="M676.73,-245.95C749.18,-238.99 888.69,-224.5 1006.5,-206 1013.17,-204.95 1020.17,-203.73 1027.07,-202.45"/>
<polygon fill="#63b8ff" stroke="#63b8ff" points="1027.88,-205.85 1037.05,-200.54 1026.57,-198.98 1027.88,-205.85"/>
</a>
</g>
</g>
<!-- Node10 -->
<g id="Node000010" class="node">
<title>Node10</title>
<g id="a_Node000010"><a xlink:title=" ">
<polygon fill="#e0e0e0" stroke="#999999" points="983,-134.5 874,-134.5 874,-115.5 983,-115.5 983,-134.5"/>
<text text-anchor="middle" x="928.5" y="-122.5" font-family="Helvetica,sans-Serif" font-size="10.00">btstack_run_loop.h</text>
</a>
</g>
</g>
<!-- Node9&#45;&gt;Node10 -->
<g id="edge9_Node000009_Node000010" class="edge">
<title>Node9&#45;&gt;Node10</title>
<g id="a_edge9_Node000009_Node000010"><a xlink:title=" ">
<path fill="none" stroke="#63b8ff" d="M934.72,-175.8C933.59,-166.7 932.1,-154.79 930.86,-144.9"/>
<polygon fill="#63b8ff" stroke="#63b8ff" points="934.32,-144.33 929.61,-134.84 927.37,-145.2 934.32,-144.33"/>
</a>
</g>
</g>
<!-- Node11 -->
<g id="Node000011" class="node">
<title>Node11</title>
<g id="a_Node000011"><a xlink:href="async__context_8h.html" target="_top" xlink:title=" ">
<polygon fill="white" stroke="#666666" points="1120,-134.5 1001,-134.5 1001,-115.5 1120,-115.5 1120,-134.5"/>
<text text-anchor="middle" x="1060.5" y="-122.5" font-family="Helvetica,sans-Serif" font-size="10.00">pico/async_context.h</text>
</a>
</g>
</g>
<!-- Node9&#45;&gt;Node11 -->
<g id="edge10_Node000009_Node000011" class="edge">
<title>Node9&#45;&gt;Node11</title>
<g id="a_edge10_Node000009_Node000011"><a xlink:title=" ">
<path fill="none" stroke="#63b8ff" d="M963.71,-175.95C984.98,-164.98 1014.32,-149.83 1035.11,-139.11"/>
<polygon fill="#63b8ff" stroke="#63b8ff" points="1036.72,-142.21 1044,-134.52 1033.51,-135.99 1036.72,-142.21"/>
</a>
</g>
</g>
<!-- Node12 -->
<g id="Node000012" class="node">
<title>Node12</title>
<g id="a_Node000012"><a xlink:title=" ">
<polygon fill="#e0e0e0" stroke="#999999" points="1131.5,-19 1085.5,-19 1085.5,0 1131.5,0 1131.5,-19"/>
<text text-anchor="middle" x="1108.5" y="-7" font-family="Helvetica,sans-Serif" font-size="10.00">pico.h</text>
</a>
</g>
</g>
<!-- Node11&#45;&gt;Node12 -->
<g id="edge11_Node000011_Node000012" class="edge">
<title>Node11&#45;&gt;Node12</title>
<g id="a_edge11_Node000011_Node000012"><a xlink:title=" ">
<path fill="none" stroke="#63b8ff" d="M1064.11,-115.47C1071.89,-97.06 1090.4,-53.29 1100.9,-28.48"/>
<polygon fill="#63b8ff" stroke="#63b8ff" points="1104.18,-29.7 1104.85,-19.13 1097.73,-26.98 1104.18,-29.7"/>
</a>
</g>
</g>
<!-- Node13 -->
<g id="Node000013" class="node">
<title>Node13</title>
<g id="a_Node000013"><a xlink:href="common_2pico__time_2include_2pico_2time_8h.html" target="_top" xlink:title=" ">
<polygon fill="white" stroke="#666666" points="1047,-74 976,-74 976,-55 1047,-55 1047,-74"/>
<text text-anchor="middle" x="1011.5" y="-62" font-family="Helvetica,sans-Serif" font-size="10.00">pico/time.h</text>
</a>
</g>
</g>
<!-- Node11&#45;&gt;Node13 -->
<g id="edge12_Node000011_Node000013" class="edge">
<title>Node11&#45;&gt;Node13</title>
<g id="a_edge12_Node000011_Node000013"><a xlink:title=" ">
<path fill="none" stroke="#63b8ff" d="M1053.27,-115.37C1045.96,-106.64 1034.48,-92.93 1025.4,-82.09"/>
<polygon fill="#63b8ff" stroke="#63b8ff" points="1027.86,-79.59 1018.76,-74.17 1022.5,-84.08 1027.86,-79.59"/>
</a>
</g>
</g>
<!-- Node13&#45;&gt;Node12 -->
<g id="edge13_Node000013_Node000012" class="edge">
<title>Node13&#45;&gt;Node12</title>
<g id="a_edge13_Node000013_Node000012"><a xlink:title=" ">
<path fill="none" stroke="#63b8ff" d="M1027.08,-54.98C1042.27,-46.69 1065.6,-33.94 1083.4,-24.22"/>
<polygon fill="#63b8ff" stroke="#63b8ff" points="1085.53,-27.04 1092.63,-19.17 1082.18,-20.89 1085.53,-27.04"/>
</a>
</g>
</g>
<!-- Node14 -->
<g id="Node000014" class="node">
<title>Node14</title>
<g id="a_Node000014"><a xlink:title=" ">
<polygon fill="#e0e0e0" stroke="#999999" points="1062,-19 961,-19 961,0 1062,0 1062,-19"/>
<text text-anchor="middle" x="1011.5" y="-7" font-family="Helvetica,sans-Serif" font-size="10.00">hardware/timer.h</text>
</a>
</g>
</g>
<!-- Node13&#45;&gt;Node14 -->
<g id="edge14_Node000013_Node000014" class="edge">
<title>Node13&#45;&gt;Node14</title>
<g id="a_edge14_Node000013_Node000014"><a xlink:title=" ">
<path fill="none" stroke="#63b8ff" d="M1011.5,-54.75C1011.5,-47.8 1011.5,-37.85 1011.5,-29.13"/>
<polygon fill="#63b8ff" stroke="#63b8ff" points="1015,-29.09 1011.5,-19.09 1008,-29.09 1015,-29.09"/>
</a>
</g>
</g>
<!-- Node15&#45;&gt;Node12 -->
<g id="edge16_Node000015_Node000012" class="edge">
<title>Node15&#45;&gt;Node12</title>
<g id="a_edge16_Node000015_Node000012"><a xlink:title=" ">
<path fill="none" stroke="#63b8ff" d="M1169.38,-109.88C1157.21,-100.83 1142.41,-88.16 1132.5,-74 1123,-60.42 1116.7,-42.6 1112.94,-29.29"/>
<polygon fill="#63b8ff" stroke="#63b8ff" points="1116.27,-28.17 1110.37,-19.37 1109.49,-29.93 1116.27,-28.17"/>
</a>
</g>
</g>
<!-- Node16 -->
<g id="Node000016" class="node">
<title>Node16</title>
<g id="a_Node000016"><a xlink:href="hardware__flash_2include_2hardware_2flash_8h.html" target="_top" xlink:title=" ">
<polygon fill="white" stroke="#666666" points="1239.5,-74 1141.5,-74 1141.5,-55 1239.5,-55 1239.5,-74"/>
<text text-anchor="middle" x="1190.5" y="-62" font-family="Helvetica,sans-Serif" font-size="10.00">hardware/flash.h</text>
</a>
</g>
</g>
<!-- Node15&#45;&gt;Node16 -->
<g id="edge17_Node000015_Node000016" class="edge">
<title>Node15&#45;&gt;Node16</title>
<g id="a_edge17_Node000015_Node000016"><a xlink:title=" ">
<path fill="none" stroke="#63b8ff" d="M1190.5,-109.84C1190.5,-102.21 1190.5,-92.7 1190.5,-84.45"/>
<polygon fill="#63b8ff" stroke="#63b8ff" points="1194,-84.27 1190.5,-74.27 1187,-84.27 1194,-84.27"/>
</a>
</g>
</g>
<!-- Node17 -->
<g id="Node000017" class="node">
<title>Node17</title>
<g id="a_Node000017"><a xlink:title=" ">
<polygon fill="#e0e0e0" stroke="#999999" points="1357,-74 1258,-74 1258,-55 1357,-55 1357,-74"/>
<text text-anchor="middle" x="1307.5" y="-62" font-family="Helvetica,sans-Serif" font-size="10.00">hal_flash_bank.h</text>
</a>
</g>
</g>
<!-- Node15&#45;&gt;Node17 -->
<g id="edge19_Node000015_Node000017" class="edge">
<title>Node15&#45;&gt;Node17</title>
<g id="a_edge19_Node000015_Node000017"><a xlink:title=" ">
<path fill="none" stroke="#63b8ff" d="M1218.52,-109.99C1237.52,-100.49 1262.47,-88.02 1281.11,-78.69"/>
<polygon fill="#63b8ff" stroke="#63b8ff" points="1282.84,-81.74 1290.22,-74.14 1279.71,-75.48 1282.84,-81.74"/>
</a>
</g>
</g>
<!-- Node16&#45;&gt;Node12 -->
<g id="edge18_Node000016_Node000012" class="edge">
<title>Node16&#45;&gt;Node12</title>
<g id="a_edge18_Node000016_Node000012"><a xlink:title=" ">
<path fill="none" stroke="#63b8ff" d="M1177.33,-54.98C1164.73,-46.84 1145.5,-34.41 1130.56,-24.76"/>
<polygon fill="#63b8ff" stroke="#63b8ff" points="1132.21,-21.66 1121.91,-19.17 1128.41,-27.54 1132.21,-21.66"/>
</a>
</g>
</g>
<!-- Node18&#45;&gt;Node11 -->
<g id="edge21_Node000018_Node000011" class="edge">
<title>Node18&#45;&gt;Node11</title>
<g id="a_edge21_Node000018_Node000011"><a xlink:title=" ">
<path fill="none" stroke="#63b8ff" d="M1075.21,-181.37C1072.74,-172.07 1068.73,-156.98 1065.52,-144.9"/>
<polygon fill="#63b8ff" stroke="#63b8ff" points="1068.82,-143.67 1062.87,-134.91 1062.05,-145.47 1068.82,-143.67"/>
</a>
</g>
</g>
</g>
</svg>
