<?xml version="1.0" encoding="UTF-8" standalone="no"?>
<!DOCTYPE svg PUBLIC "-//W3C//DTD SVG 1.1//EN"
 "http://www.w3.org/Graphics/SVG/1.1/DTD/svg11.dtd">
<!-- Generated by graphviz version 2.43.0 (0)
 -->
<!-- Title: btstack_hci_transport_cyw43.h Pages: 1 -->
<svg width="246pt" height="104pt"
 viewBox="0.00 0.00 246.00 104.00" xmlns="http://www.w3.org/2000/svg" xmlns:xlink="http://www.w3.org/1999/xlink">
<g id="graph0" class="graph" transform="scale(1 1) rotate(0) translate(4 100)">
<title>btstack_hci_transport_cyw43.h</title>
<!-- Node1 -->
<g id="Node000001" class="node">
<title>Node1</title>
<g id="a_Node000001"><a xlink:title="Adds low level Bluetooth HCI support.">
<polygon fill="#999999" stroke="#666666" points="174,-96 52,-96 52,-66 174,-66 174,-96"/>
<text text-anchor="start" x="60" y="-84" font-family="Helvetica,sans-Serif" font-size="10.00">btstack_hci_transport</text>
<text text-anchor="middle" x="113" y="-73" font-family="Helvetica,sans-Serif" font-size="10.00">_cyw43.h</text>
</a>
</g>
</g>
<!-- Node2 -->
<g id="Node000002" class="node">
<title>Node2</title>
<g id="a_Node000002"><a xlink:href="btstack__cyw43_8c.html" target="_top" xlink:title=" ">
<polygon fill="white" stroke="#666666" points="98,-24.5 0,-24.5 0,-5.5 98,-5.5 98,-24.5"/>
<text text-anchor="middle" x="49" y="-12.5" font-family="Helvetica,sans-Serif" font-size="10.00">btstack_cyw43.c</text>
</a>
</g>
</g>
<!-- Node1&#45;&gt;Node2 -->
<g id="edge1_Node000001_Node000002" class="edge">
<title>Node1&#45;&gt;Node2</title>
<g id="a_edge1_Node000001_Node000002"><a xlink:title=" ">
<path fill="none" stroke="#63b8ff" d="M91.6,-58.6C80.1,-47.1 66.52,-33.52 57.84,-24.84"/>
<polygon fill="#63b8ff" stroke="#63b8ff" points="89.25,-61.2 98.8,-65.8 94.2,-56.25 89.25,-61.2"/>
</a>
</g>
</g>
<!-- Node3 -->
<g id="Node000003" class="node">
<title>Node3</title>
<g id="a_Node000003"><a xlink:href="btstack__hci__transport__cyw43_8c.html" target="_top" xlink:title=" ">
<polygon fill="white" stroke="#666666" points="238,-30 116,-30 116,0 238,0 238,-30"/>
<text text-anchor="start" x="124" y="-18" font-family="Helvetica,sans-Serif" font-size="10.00">btstack_hci_transport</text>
<text text-anchor="middle" x="177" y="-7" font-family="Helvetica,sans-Serif" font-size="10.00">_cyw43.c</text>
</a>
</g>
</g>
<!-- Node1&#45;&gt;Node3 -->
<g id="edge2_Node000001_Node000003" class="edge">
<title>Node1&#45;&gt;Node3</title>
<g id="a_edge2_Node000001_Node000003"><a xlink:title=" ">
<path fill="none" stroke="#63b8ff" d="M134.35,-58.65C143.73,-49.27 154.47,-38.53 162.84,-30.16"/>
<polygon fill="#63b8ff" stroke="#63b8ff" points="131.8,-56.25 127.2,-65.8 136.75,-61.2 131.8,-56.25"/>
</a>
</g>
</g>
</g>
</svg>
