<?xml version="1.0" encoding="UTF-8" standalone="no"?>
<!DOCTYPE svg PUBLIC "-//W3C//DTD SVG 1.1//EN"
 "http://www.w3.org/Graphics/SVG/1.1/DTD/svg11.dtd">
<!-- Generated by graphviz version 2.43.0 (0)
 -->
<!-- Title: btstack_flash_bank.c Pages: 1 -->
<svg width="423pt" height="203pt"
 viewBox="0.00 0.00 423.48 203.00" xmlns="http://www.w3.org/2000/svg" xmlns:xlink="http://www.w3.org/1999/xlink">
<g id="graph0" class="graph" transform="scale(1 1) rotate(0) translate(4 199)">
<title>btstack_flash_bank.c</title>
<!-- Node1 -->
<g id="Node000001" class="node">
<title>Node1</title>
<g id="a_Node000001"><a xlink:title=" ">
<polygon fill="#999999" stroke="#666666" points="278.48,-195 159.48,-195 159.48,-176 278.48,-176 278.48,-195"/>
<text text-anchor="middle" x="218.98" y="-183" font-family="Helvetica,sans-Serif" font-size="10.00">btstack_flash_bank.c</text>
</a>
</g>
</g>
<!-- Node2 -->
<g id="Node000002" class="node">
<title>Node2</title>
<g id="a_Node000002"><a xlink:href="btstack__flash__bank_8h.html" target="_top" xlink:title=" ">
<polygon fill="white" stroke="#666666" points="134.48,-140 29.48,-140 29.48,-110 134.48,-110 134.48,-140"/>
<text text-anchor="start" x="37.48" y="-128" font-family="Helvetica,sans-Serif" font-size="10.00">pico/btstack_flash</text>
<text text-anchor="middle" x="81.98" y="-117" font-family="Helvetica,sans-Serif" font-size="10.00">_bank.h</text>
</a>
</g>
</g>
<!-- Node1&#45;&gt;Node2 -->
<g id="edge1_Node000001_Node000002" class="edge">
<title>Node1&#45;&gt;Node2</title>
<g id="a_edge1_Node000001_Node000002"><a xlink:title=" ">
<path fill="none" stroke="#63b8ff" d="M199.06,-175.99C179.52,-167.65 149.11,-154.66 124.17,-144.02"/>
<polygon fill="#63b8ff" stroke="#63b8ff" points="125.49,-140.77 114.92,-140.06 122.74,-147.21 125.49,-140.77"/>
</a>
</g>
</g>
<!-- Node4 -->
<g id="Node000004" class="node">
<title>Node4</title>
<g id="a_Node000004"><a xlink:href="hardware__flash_2include_2hardware_2flash_8h.html" target="_top" xlink:title=" ">
<polygon fill="white" stroke="#666666" points="229.98,-74 131.98,-74 131.98,-55 229.98,-55 229.98,-74"/>
<text text-anchor="middle" x="180.98" y="-62" font-family="Helvetica,sans-Serif" font-size="10.00">hardware/flash.h</text>
</a>
</g>
</g>
<!-- Node1&#45;&gt;Node4 -->
<g id="edge9_Node000001_Node000004" class="edge">
<title>Node1&#45;&gt;Node4</title>
<g id="a_edge9_Node000001_Node000004"><a xlink:title=" ">
<path fill="none" stroke="#63b8ff" d="M216.25,-175.94C210.15,-156.82 195.28,-110.27 186.93,-84.12"/>
<polygon fill="#63b8ff" stroke="#63b8ff" points="190.17,-82.76 183.8,-74.3 183.5,-84.89 190.17,-82.76"/>
</a>
</g>
</g>
<!-- Node6 -->
<g id="Node000006" class="node">
<title>Node6</title>
<g id="a_Node000006"><a xlink:href="pico__flash_2include_2pico_2flash_8h.html" target="_top" xlink:title=" ">
<polygon fill="white" stroke="#666666" points="321.48,-74 248.48,-74 248.48,-55 321.48,-55 321.48,-74"/>
<text text-anchor="middle" x="284.98" y="-62" font-family="Helvetica,sans-Serif" font-size="10.00">pico/flash.h</text>
</a>
</g>
</g>
<!-- Node1&#45;&gt;Node6 -->
<g id="edge6_Node000001_Node000006" class="edge">
<title>Node1&#45;&gt;Node6</title>
<g id="a_edge6_Node000001_Node000006"><a xlink:title=" ">
<path fill="none" stroke="#63b8ff" d="M219.82,-175.65C221.52,-161.07 226.35,-131.46 238.98,-110 245.63,-98.71 255.91,-88.38 265.07,-80.52"/>
<polygon fill="#63b8ff" stroke="#63b8ff" points="267.49,-83.07 273.03,-74.04 263.07,-77.64 267.49,-83.07"/>
</a>
</g>
</g>
<!-- Node7 -->
<g id="Node000007" class="node">
<title>Node7</title>
<g id="a_Node000007"><a xlink:title=" ">
<polygon fill="#e0e0e0" stroke="#999999" points="344.48,-134.5 247.48,-134.5 247.48,-115.5 344.48,-115.5 344.48,-134.5"/>
<text text-anchor="middle" x="295.98" y="-122.5" font-family="Helvetica,sans-Serif" font-size="10.00">hardware/sync.h</text>
</a>
</g>
</g>
<!-- Node1&#45;&gt;Node7 -->
<g id="edge8_Node000001_Node000007" class="edge">
<title>Node1&#45;&gt;Node7</title>
<g id="a_edge8_Node000001_Node000007"><a xlink:title=" ">
<path fill="none" stroke="#63b8ff" d="M230.35,-175.87C242.4,-166.71 261.68,-152.06 276.23,-141.01"/>
<polygon fill="#63b8ff" stroke="#63b8ff" points="278.73,-143.5 284.58,-134.67 274.5,-137.93 278.73,-143.5"/>
</a>
</g>
</g>
<!-- Node8 -->
<g id="Node000008" class="node">
<title>Node8</title>
<g id="a_Node000008"><a xlink:title=" ">
<polygon fill="#e0e0e0" stroke="#999999" points="415.48,-134.5 362.48,-134.5 362.48,-115.5 415.48,-115.5 415.48,-134.5"/>
<text text-anchor="middle" x="388.98" y="-122.5" font-family="Helvetica,sans-Serif" font-size="10.00">string.h</text>
</a>
</g>
</g>
<!-- Node1&#45;&gt;Node8 -->
<g id="edge10_Node000001_Node000008" class="edge">
<title>Node1&#45;&gt;Node8</title>
<g id="a_edge10_Node000001_Node000008"><a xlink:title=" ">
<path fill="none" stroke="#63b8ff" d="M246.56,-175.96C273.97,-167.35 317.12,-153.43 353.98,-140 355.59,-139.41 357.23,-138.8 358.89,-138.18"/>
<polygon fill="#63b8ff" stroke="#63b8ff" points="360.28,-141.39 368.34,-134.51 357.75,-134.86 360.28,-141.39"/>
</a>
</g>
</g>
<!-- Node3 -->
<g id="Node000003" class="node">
<title>Node3</title>
<g id="a_Node000003"><a xlink:title=" ">
<polygon fill="#e0e0e0" stroke="#999999" points="203.98,-19 157.98,-19 157.98,0 203.98,0 203.98,-19"/>
<text text-anchor="middle" x="180.98" y="-7" font-family="Helvetica,sans-Serif" font-size="10.00">pico.h</text>
</a>
</g>
</g>
<!-- Node2&#45;&gt;Node3 -->
<g id="edge2_Node000002_Node000003" class="edge">
<title>Node2&#45;&gt;Node3</title>
<g id="a_edge2_Node000002_Node000003"><a xlink:title=" ">
<path fill="none" stroke="#63b8ff" d="M46.16,-109.88C18.71,-96.95 -11.83,-76.6 4.98,-55 22.32,-32.74 101.5,-19.85 147.54,-14.11"/>
<polygon fill="#63b8ff" stroke="#63b8ff" points="148.14,-17.56 157.65,-12.9 147.3,-10.61 148.14,-17.56"/>
</a>
</g>
</g>
<!-- Node2&#45;&gt;Node4 -->
<g id="edge3_Node000002_Node000004" class="edge">
<title>Node2&#45;&gt;Node4</title>
<g id="a_edge3_Node000002_Node000004"><a xlink:title=" ">
<path fill="none" stroke="#63b8ff" d="M105.7,-109.99C121.33,-100.75 141.72,-88.7 157.34,-79.47"/>
<polygon fill="#63b8ff" stroke="#63b8ff" points="159.54,-82.24 166.36,-74.14 155.97,-76.21 159.54,-82.24"/>
</a>
</g>
</g>
<!-- Node5 -->
<g id="Node000005" class="node">
<title>Node5</title>
<g id="a_Node000005"><a xlink:title=" ">
<polygon fill="#e0e0e0" stroke="#999999" points="113.48,-74 14.48,-74 14.48,-55 113.48,-55 113.48,-74"/>
<text text-anchor="middle" x="63.98" y="-62" font-family="Helvetica,sans-Serif" font-size="10.00">hal_flash_bank.h</text>
</a>
</g>
</g>
<!-- Node2&#45;&gt;Node5 -->
<g id="edge5_Node000002_Node000005" class="edge">
<title>Node2&#45;&gt;Node5</title>
<g id="a_edge5_Node000002_Node000005"><a xlink:title=" ">
<path fill="none" stroke="#63b8ff" d="M77.63,-109.84C75.23,-102.04 72.22,-92.27 69.64,-83.89"/>
<polygon fill="#63b8ff" stroke="#63b8ff" points="72.97,-82.79 66.68,-74.27 66.28,-84.85 72.97,-82.79"/>
</a>
</g>
</g>
<!-- Node4&#45;&gt;Node3 -->
<g id="edge4_Node000004_Node000003" class="edge">
<title>Node4&#45;&gt;Node3</title>
<g id="a_edge4_Node000004_Node000003"><a xlink:title=" ">
<path fill="none" stroke="#63b8ff" d="M180.98,-54.75C180.98,-47.8 180.98,-37.85 180.98,-29.13"/>
<polygon fill="#63b8ff" stroke="#63b8ff" points="184.49,-29.09 180.98,-19.09 177.49,-29.09 184.49,-29.09"/>
</a>
</g>
</g>
<!-- Node6&#45;&gt;Node3 -->
<g id="edge7_Node000006_Node000003" class="edge">
<title>Node6&#45;&gt;Node3</title>
<g id="a_edge7_Node000006_Node000003"><a xlink:title=" ">
<path fill="none" stroke="#63b8ff" d="M268.28,-54.98C251.77,-46.57 226.29,-33.59 207.11,-23.81"/>
<polygon fill="#63b8ff" stroke="#63b8ff" points="208.5,-20.59 198,-19.17 205.32,-26.83 208.5,-20.59"/>
</a>
</g>
</g>
</g>
</svg>
