<?xml version="1.0" encoding="UTF-8" standalone="no"?>
<!DOCTYPE svg PUBLIC "-//W3C//DTD SVG 1.1//EN"
 "http://www.w3.org/Graphics/SVG/1.1/DTD/svg11.dtd">
<!-- Generated by graphviz version 2.43.0 (0)
 -->
<!-- Title: claim.h Pages: 1 -->
<svg width="592pt" height="82pt"
 viewBox="0.00 0.00 591.50 82.00" xmlns="http://www.w3.org/2000/svg" xmlns:xlink="http://www.w3.org/1999/xlink">
<g id="graph0" class="graph" transform="scale(1 1) rotate(0) translate(4 78)">
<title>claim.h</title>
<!-- Node1 -->
<g id="Node000001" class="node">
<title>Node1</title>
<g id="a_Node000001"><a xlink:title=" ">
<polygon fill="#999999" stroke="#666666" points="308.5,-74 255.5,-74 255.5,-55 308.5,-55 308.5,-74"/>
<text text-anchor="middle" x="282" y="-62" font-family="Helvetica,sans-Serif" font-size="10.00">claim.h</text>
</a>
</g>
</g>
<!-- Node2 -->
<g id="Node000002" class="node">
<title>Node2</title>
<g id="a_Node000002"><a xlink:href="claim_8c.html" target="_top" xlink:title=" ">
<polygon fill="white" stroke="#666666" points="52,-19 0,-19 0,0 52,0 52,-19"/>
<text text-anchor="middle" x="26" y="-7" font-family="Helvetica,sans-Serif" font-size="10.00">claim.c</text>
</a>
</g>
</g>
<!-- Node1&#45;&gt;Node2 -->
<g id="edge1_Node000001_Node000002" class="edge">
<title>Node1&#45;&gt;Node2</title>
<g id="a_edge1_Node000001_Node000002"><a xlink:title=" ">
<path fill="none" stroke="#63b8ff" d="M245.47,-56.6C201.58,-48.21 125.73,-33.37 61,-19 58.19,-18.38 55.26,-17.7 52.35,-17.02"/>
<polygon fill="#63b8ff" stroke="#63b8ff" points="244.92,-60.06 255.39,-58.5 246.23,-53.18 244.92,-60.06"/>
</a>
</g>
</g>
<!-- Node3 -->
<g id="Node000003" class="node">
<title>Node3</title>
<g id="a_Node000003"><a xlink:href="dma_8c.html" target="_top" xlink:title=" ">
<polygon fill="white" stroke="#666666" points="117.5,-19 70.5,-19 70.5,0 117.5,0 117.5,-19"/>
<text text-anchor="middle" x="94" y="-7" font-family="Helvetica,sans-Serif" font-size="10.00">dma.c</text>
</a>
</g>
</g>
<!-- Node1&#45;&gt;Node3 -->
<g id="edge2_Node000001_Node000003" class="edge">
<title>Node1&#45;&gt;Node3</title>
<g id="a_edge2_Node000001_Node000003"><a xlink:title=" ">
<path fill="none" stroke="#63b8ff" d="M245.38,-53.18C207.64,-42.54 149.89,-26.26 117.73,-17.19"/>
<polygon fill="#63b8ff" stroke="#63b8ff" points="244.89,-56.67 255.46,-56.02 246.79,-49.94 244.89,-56.67"/>
</a>
</g>
</g>
<!-- Node4 -->
<g id="Node000004" class="node">
<title>Node4</title>
<g id="a_Node000004"><a xlink:href="interp_8c.html" target="_top" xlink:title=" ">
<polygon fill="white" stroke="#666666" points="188.5,-19 135.5,-19 135.5,0 188.5,0 188.5,-19"/>
<text text-anchor="middle" x="162" y="-7" font-family="Helvetica,sans-Serif" font-size="10.00">interp.c</text>
</a>
</g>
</g>
<!-- Node1&#45;&gt;Node4 -->
<g id="edge3_Node000001_Node000004" class="edge">
<title>Node1&#45;&gt;Node4</title>
<g id="a_edge3_Node000001_Node000004"><a xlink:title=" ">
<path fill="none" stroke="#63b8ff" d="M253.47,-50.9C231.3,-41.11 201.15,-27.79 181.63,-19.17"/>
<polygon fill="#63b8ff" stroke="#63b8ff" points="252.16,-54.15 262.72,-54.98 254.99,-47.74 252.16,-54.15"/>
</a>
</g>
</g>
<!-- Node5 -->
<g id="Node000005" class="node">
<title>Node5</title>
<g id="a_Node000005"><a xlink:href="host_2hardware__irq_2irq_8c.html" target="_top" xlink:title=" ">
<polygon fill="white" stroke="#666666" points="245,-19 207,-19 207,0 245,0 245,-19"/>
<text text-anchor="middle" x="226" y="-7" font-family="Helvetica,sans-Serif" font-size="10.00">irq.c</text>
</a>
</g>
</g>
<!-- Node1&#45;&gt;Node5 -->
<g id="edge4_Node000001_Node000005" class="edge">
<title>Node1&#45;&gt;Node5</title>
<g id="a_edge4_Node000001_Node000005"><a xlink:title=" ">
<path fill="none" stroke="#63b8ff" d="M265.67,-48.04C255.74,-38.64 243.41,-26.98 235.16,-19.17"/>
<polygon fill="#63b8ff" stroke="#63b8ff" points="263.33,-50.65 273,-54.98 268.15,-45.57 263.33,-50.65"/>
</a>
</g>
</g>
<!-- Node6 -->
<g id="Node000006" class="node">
<title>Node6</title>
<g id="a_Node000006"><a xlink:href="rp2__common_2hardware__irq_2irq_8c.html" target="_top" xlink:title=" ">
<polygon fill="white" stroke="#666666" points="301,-19 263,-19 263,0 301,0 301,-19"/>
<text text-anchor="middle" x="282" y="-7" font-family="Helvetica,sans-Serif" font-size="10.00">irq.c</text>
</a>
</g>
</g>
<!-- Node1&#45;&gt;Node6 -->
<g id="edge5_Node000001_Node000006" class="edge">
<title>Node1&#45;&gt;Node6</title>
<g id="a_edge5_Node000001_Node000006"><a xlink:title=" ">
<path fill="none" stroke="#63b8ff" d="M282,-44.66C282,-35.93 282,-25.99 282,-19.09"/>
<polygon fill="#63b8ff" stroke="#63b8ff" points="278.5,-44.75 282,-54.75 285.5,-44.75 278.5,-44.75"/>
</a>
</g>
</g>
<!-- Node7 -->
<g id="Node000007" class="node">
<title>Node7</title>
<g id="a_Node000007"><a xlink:href="multicore_8c.html" target="_top" xlink:title=" ">
<polygon fill="white" stroke="#666666" points="390.5,-19 319.5,-19 319.5,0 390.5,0 390.5,-19"/>
<text text-anchor="middle" x="355" y="-7" font-family="Helvetica,sans-Serif" font-size="10.00">multicore.c</text>
</a>
</g>
</g>
<!-- Node1&#45;&gt;Node7 -->
<g id="edge6_Node000001_Node000007" class="edge">
<title>Node1&#45;&gt;Node7</title>
<g id="a_edge6_Node000001_Node000007"><a xlink:title=" ">
<path fill="none" stroke="#63b8ff" d="M302.14,-48.88C315.28,-39.34 331.98,-27.21 343.06,-19.17"/>
<polygon fill="#63b8ff" stroke="#63b8ff" points="299.76,-46.28 293.73,-54.98 303.88,-51.94 299.76,-46.28"/>
</a>
</g>
</g>
<!-- Node8 -->
<g id="Node000008" class="node">
<title>Node8</title>
<g id="a_Node000008"><a xlink:href="pio_8c.html" target="_top" xlink:title=" ">
<polygon fill="white" stroke="#666666" points="449,-19 409,-19 409,0 449,0 449,-19"/>
<text text-anchor="middle" x="429" y="-7" font-family="Helvetica,sans-Serif" font-size="10.00">pio.c</text>
</a>
</g>
</g>
<!-- Node1&#45;&gt;Node8 -->
<g id="edge7_Node000001_Node000008" class="edge">
<title>Node1&#45;&gt;Node8</title>
<g id="a_edge7_Node000001_Node000008"><a xlink:title=" ">
<path fill="none" stroke="#63b8ff" d="M315.25,-51.51C344,-41.15 384.63,-26.5 408.75,-17.8"/>
<polygon fill="#63b8ff" stroke="#63b8ff" points="313.84,-48.3 305.62,-54.98 316.21,-54.89 313.84,-48.3"/>
</a>
</g>
</g>
<!-- Node9 -->
<g id="Node000009" class="node">
<title>Node9</title>
<g id="a_Node000009"><a xlink:href="sync_8c.html" target="_top" xlink:title=" ">
<polygon fill="white" stroke="#666666" points="514.5,-19 467.5,-19 467.5,0 514.5,0 514.5,-19"/>
<text text-anchor="middle" x="491" y="-7" font-family="Helvetica,sans-Serif" font-size="10.00">sync.c</text>
</a>
</g>
</g>
<!-- Node1&#45;&gt;Node9 -->
<g id="edge8_Node000001_Node000009" class="edge">
<title>Node1&#45;&gt;Node9</title>
<g id="a_edge8_Node000001_Node000009"><a xlink:title=" ">
<path fill="none" stroke="#63b8ff" d="M318.48,-54.33C354.08,-45.36 409.78,-31.31 458,-19 460.98,-18.24 464.11,-17.44 467.21,-16.64"/>
<polygon fill="#63b8ff" stroke="#63b8ff" points="317.39,-50.99 308.55,-56.83 319.1,-57.78 317.39,-50.99"/>
</a>
</g>
</g>
<!-- Node10 -->
<g id="Node000010" class="node">
<title>Node10</title>
<g id="a_Node000010"><a xlink:href="rp2__common_2hardware__timer_2timer_8c.html" target="_top" xlink:title=" ">
<polygon fill="white" stroke="#666666" points="583.5,-19 532.5,-19 532.5,0 583.5,0 583.5,-19"/>
<text text-anchor="middle" x="558" y="-7" font-family="Helvetica,sans-Serif" font-size="10.00">timer.c</text>
</a>
</g>
</g>
<!-- Node1&#45;&gt;Node10 -->
<g id="edge9_Node000001_Node000010" class="edge">
<title>Node1&#45;&gt;Node10</title>
<g id="a_edge9_Node000001_Node000010"><a xlink:title=" ">
<path fill="none" stroke="#63b8ff" d="M318.72,-57.49C366.27,-49.54 451.61,-34.69 524,-19 526.74,-18.41 529.59,-17.75 532.42,-17.08"/>
<polygon fill="#63b8ff" stroke="#63b8ff" points="317.9,-54.08 308.61,-59.17 319.05,-60.98 317.9,-54.08"/>
</a>
</g>
</g>
</g>
</svg>
