<?xml version="1.0" encoding="UTF-8" standalone="no"?>
<!DOCTYPE svg PUBLIC "-//W3C//DTD SVG 1.1//EN"
 "http://www.w3.org/Graphics/SVG/1.1/DTD/svg11.dtd">
<!-- Generated by graphviz version 2.43.0 (0)
 -->
<!-- Title: yy::parser::semantic_type Pages: 1 -->
<svg width="145pt" height="252pt"
 viewBox="0.00 0.00 145.00 252.00" xmlns="http://www.w3.org/2000/svg" xmlns:xlink="http://www.w3.org/1999/xlink">
<g id="graph0" class="graph" transform="scale(1 1) rotate(0) translate(4 248)">
<title>yy::parser::semantic_type</title>
<!-- Node1 -->
<g id="Node000001" class="node">
<title>Node1</title>
<g id="a_Node000001"><a xlink:title="A buffer to store and retrieve objects.">
<polygon fill="#999999" stroke="transparent" points="137,-244 0,-244 0,0 137,0 137,-244"/>
<text text-anchor="start" x="5.5" y="-232" font-family="Helvetica,sans-Serif" font-size="10.00">yy::parser::semantic_type</text>
<text text-anchor="start" x="11.5" y="-217" font-family="Helvetica,sans-Serif" font-size="10.00">+</text>
<text text-anchor="start" x="31.5" y="-217" font-family="Helvetica,sans-Serif" font-size="10.00">yyalign_me</text>
<text text-anchor="start" x="11.5" y="-202" font-family="Helvetica,sans-Serif" font-size="10.00">+</text>
<text text-anchor="start" x="31.5" y="-202" font-family="Helvetica,sans-Serif" font-size="10.00">yyraw</text>
<text text-anchor="start" x="11.5" y="-187" font-family="Helvetica,sans-Serif" font-size="10.00">+</text>
<text text-anchor="start" x="31.5" y="-187" font-family="Helvetica,sans-Serif" font-size="10.00">as()</text>
<text text-anchor="start" x="11.5" y="-172" font-family="Helvetica,sans-Serif" font-size="10.00">+</text>
<text text-anchor="start" x="31.5" y="-172" font-family="Helvetica,sans-Serif" font-size="10.00">as()</text>
<text text-anchor="start" x="11.5" y="-157" font-family="Helvetica,sans-Serif" font-size="10.00">+</text>
<text text-anchor="start" x="31.5" y="-157" font-family="Helvetica,sans-Serif" font-size="10.00">build()</text>
<text text-anchor="start" x="11.5" y="-142" font-family="Helvetica,sans-Serif" font-size="10.00">+</text>
<text text-anchor="start" x="31.5" y="-142" font-family="Helvetica,sans-Serif" font-size="10.00">build()</text>
<text text-anchor="start" x="11.5" y="-127" font-family="Helvetica,sans-Serif" font-size="10.00">+</text>
<text text-anchor="start" x="31.5" y="-127" font-family="Helvetica,sans-Serif" font-size="10.00">copy()</text>
<text text-anchor="start" x="11.5" y="-112" font-family="Helvetica,sans-Serif" font-size="10.00">+</text>
<text text-anchor="start" x="31.5" y="-112" font-family="Helvetica,sans-Serif" font-size="10.00">destroy()</text>
<text text-anchor="start" x="11.5" y="-97" font-family="Helvetica,sans-Serif" font-size="10.00">+</text>
<text text-anchor="start" x="31.5" y="-97" font-family="Helvetica,sans-Serif" font-size="10.00">emplace()</text>
<text text-anchor="start" x="11.5" y="-82" font-family="Helvetica,sans-Serif" font-size="10.00">+</text>
<text text-anchor="start" x="31.5" y="-82" font-family="Helvetica,sans-Serif" font-size="10.00">emplace()</text>
<text text-anchor="start" x="11.5" y="-67" font-family="Helvetica,sans-Serif" font-size="10.00">+</text>
<text text-anchor="start" x="31.5" y="-67" font-family="Helvetica,sans-Serif" font-size="10.00">move()</text>
<text text-anchor="start" x="11.5" y="-52" font-family="Helvetica,sans-Serif" font-size="10.00">+</text>
<text text-anchor="start" x="31.5" y="-52" font-family="Helvetica,sans-Serif" font-size="10.00">semantic_type()</text>
<text text-anchor="start" x="11.5" y="-37" font-family="Helvetica,sans-Serif" font-size="10.00">+</text>
<text text-anchor="start" x="31.5" y="-37" font-family="Helvetica,sans-Serif" font-size="10.00">semantic_type()</text>
<text text-anchor="start" x="11.5" y="-22" font-family="Helvetica,sans-Serif" font-size="10.00">+</text>
<text text-anchor="start" x="31.5" y="-22" font-family="Helvetica,sans-Serif" font-size="10.00">swap()</text>
<text text-anchor="start" x="11.5" y="-7" font-family="Helvetica,sans-Serif" font-size="10.00">+</text>
<text text-anchor="start" x="31.5" y="-7" font-family="Helvetica,sans-Serif" font-size="10.00">~semantic_type()</text>
<polygon fill="#666666" stroke="#666666" points="0.5,-227 0.5,-227 137.5,-227 137.5,-227 0.5,-227"/>
<polygon fill="#666666" stroke="#666666" points="0.5,-197 0.5,-197 29.5,-197 29.5,-197 0.5,-197"/>
<polygon fill="#666666" stroke="#666666" points="29.5,-197 29.5,-197 137.5,-197 137.5,-197 29.5,-197"/>
<polygon fill="none" stroke="#666666" points="0,0 0,-244 137,-244 137,0 0,0"/>
</a>
</g>
</g>
</g>
</svg>
