<?xml version="1.0" encoding="UTF-8" standalone="no"?>
<!DOCTYPE svg PUBLIC "-//W3C//DTD SVG 1.1//EN"
 "http://www.w3.org/Graphics/SVG/1.1/DTD/svg11.dtd">
<!-- Generated by graphviz version 2.43.0 (0)
 -->
<!-- Title: clocks.c Pages: 1 -->
<svg width="800pt" height="137pt"
 viewBox="0.00 0.00 800.00 137.00" xmlns="http://www.w3.org/2000/svg" xmlns:xlink="http://www.w3.org/1999/xlink">
<g id="graph0" class="graph" transform="scale(1 1) rotate(0) translate(4 133)">
<title>clocks.c</title>
<!-- Node1 -->
<g id="Node000001" class="node">
<title>Node1</title>
<g id="a_Node000001"><a xlink:title=" ">
<polygon fill="#999999" stroke="#666666" points="487.5,-129 431.5,-129 431.5,-110 487.5,-110 487.5,-129"/>
<text text-anchor="middle" x="459.5" y="-117" font-family="Helvetica,sans-Serif" font-size="10.00">clocks.c</text>
</a>
</g>
</g>
<!-- Node2 -->
<g id="Node000002" class="node">
<title>Node2</title>
<g id="a_Node000002"><a xlink:title=" ">
<polygon fill="#e0e0e0" stroke="#999999" points="466.5,-19 420.5,-19 420.5,0 466.5,0 466.5,-19"/>
<text text-anchor="middle" x="443.5" y="-7" font-family="Helvetica,sans-Serif" font-size="10.00">pico.h</text>
</a>
</g>
</g>
<!-- Node1&#45;&gt;Node2 -->
<g id="edge1_Node000001_Node000002" class="edge">
<title>Node1&#45;&gt;Node2</title>
<g id="a_edge1_Node000001_Node000002"><a xlink:title=" ">
<path fill="none" stroke="#63b8ff" d="M458.19,-109.66C455.6,-92.17 449.77,-52.8 446.28,-29.27"/>
<polygon fill="#63b8ff" stroke="#63b8ff" points="449.71,-28.54 444.78,-19.16 442.79,-29.56 449.71,-28.54"/>
</a>
</g>
</g>
<!-- Node3 -->
<g id="Node000003" class="node">
<title>Node3</title>
<g id="a_Node000003"><a xlink:title=" ">
<polygon fill="#e0e0e0" stroke="#999999" points="270,-74 141,-74 141,-55 270,-55 270,-74"/>
<text text-anchor="middle" x="205.5" y="-62" font-family="Helvetica,sans-Serif" font-size="10.00">hardware/regs/clocks.h</text>
</a>
</g>
</g>
<!-- Node1&#45;&gt;Node3 -->
<g id="edge2_Node000001_Node000003" class="edge">
<title>Node1&#45;&gt;Node3</title>
<g id="a_edge2_Node000001_Node000003"><a xlink:title=" ">
<path fill="none" stroke="#63b8ff" d="M431.35,-112.63C389.12,-103.81 308.74,-87.04 256.14,-76.07"/>
<polygon fill="#63b8ff" stroke="#63b8ff" points="256.84,-72.64 246.34,-74.02 255.41,-79.49 256.84,-72.64"/>
</a>
</g>
</g>
<!-- Node4 -->
<g id="Node000004" class="node">
<title>Node4</title>
<g id="a_Node000004"><a xlink:title=" ">
<polygon fill="#e0e0e0" stroke="#999999" points="431,-74 288,-74 288,-55 431,-55 431,-74"/>
<text text-anchor="middle" x="359.5" y="-62" font-family="Helvetica,sans-Serif" font-size="10.00">hardware/platform_defs.h</text>
</a>
</g>
</g>
<!-- Node1&#45;&gt;Node4 -->
<g id="edge3_Node000001_Node000004" class="edge">
<title>Node1&#45;&gt;Node4</title>
<g id="a_edge3_Node000001_Node000004"><a xlink:title=" ">
<path fill="none" stroke="#63b8ff" d="M443.43,-109.98C427.64,-101.61 403.28,-88.7 384.87,-78.95"/>
<polygon fill="#63b8ff" stroke="#63b8ff" points="386.33,-75.76 375.86,-74.17 383.06,-81.95 386.33,-75.76"/>
</a>
</g>
</g>
<!-- Node5 -->
<g id="Node000005" class="node">
<title>Node5</title>
<g id="a_Node000005"><a xlink:href="rp2__common_2hardware__clocks_2include_2hardware_2clocks_8h.html" target="_top" xlink:title=" ">
<polygon fill="white" stroke="#666666" points="123,-74 18,-74 18,-55 123,-55 123,-74"/>
<text text-anchor="middle" x="70.5" y="-62" font-family="Helvetica,sans-Serif" font-size="10.00">hardware/clocks.h</text>
</a>
</g>
</g>
<!-- Node1&#45;&gt;Node5 -->
<g id="edge4_Node000001_Node000005" class="edge">
<title>Node1&#45;&gt;Node5</title>
<g id="a_edge4_Node000001_Node000005"><a xlink:title=" ">
<path fill="none" stroke="#63b8ff" d="M431.42,-114.72C376.32,-107.31 249.94,-90.27 133.25,-74.24"/>
<polygon fill="#63b8ff" stroke="#63b8ff" points="133.45,-70.73 123.07,-72.84 132.5,-77.67 133.45,-70.73"/>
</a>
</g>
</g>
<!-- Node7 -->
<g id="Node000007" class="node">
<title>Node7</title>
<g id="a_Node000007"><a xlink:href="rp2__common_2hardware__pll_2include_2hardware_2pll_8h.html" target="_top" xlink:title=" ">
<polygon fill="white" stroke="#666666" points="573.5,-74 487.5,-74 487.5,-55 573.5,-55 573.5,-74"/>
<text text-anchor="middle" x="530.5" y="-62" font-family="Helvetica,sans-Serif" font-size="10.00">hardware/pll.h</text>
</a>
</g>
</g>
<!-- Node1&#45;&gt;Node7 -->
<g id="edge7_Node000001_Node000007" class="edge">
<title>Node1&#45;&gt;Node7</title>
<g id="a_edge7_Node000001_Node000007"><a xlink:title=" ">
<path fill="none" stroke="#63b8ff" d="M470.91,-109.98C481.61,-102 497.84,-89.88 510.66,-80.31"/>
<polygon fill="#63b8ff" stroke="#63b8ff" points="512.97,-82.96 518.89,-74.17 508.78,-77.35 512.97,-82.96"/>
</a>
</g>
</g>
<!-- Node9 -->
<g id="Node000009" class="node">
<title>Node9</title>
<g id="a_Node000009"><a xlink:title=" ">
<polygon fill="#e0e0e0" stroke="#999999" points="679,-74 592,-74 592,-55 679,-55 679,-74"/>
<text text-anchor="middle" x="635.5" y="-62" font-family="Helvetica,sans-Serif" font-size="10.00">hardware/irq.h</text>
</a>
</g>
</g>
<!-- Node1&#45;&gt;Node9 -->
<g id="edge10_Node000001_Node000009" class="edge">
<title>Node1&#45;&gt;Node9</title>
<g id="a_edge10_Node000001_Node000009"><a xlink:title=" ">
<path fill="none" stroke="#63b8ff" d="M487.78,-109.98C517.45,-101.05 564.29,-86.94 597.25,-77.02"/>
<polygon fill="#63b8ff" stroke="#63b8ff" points="598.43,-80.32 607,-74.08 596.42,-73.61 598.43,-80.32"/>
</a>
</g>
</g>
<!-- Node10 -->
<g id="Node000010" class="node">
<title>Node10</title>
<g id="a_Node000010"><a xlink:title=" ">
<polygon fill="#e0e0e0" stroke="#999999" points="792,-74 697,-74 697,-55 792,-55 792,-74"/>
<text text-anchor="middle" x="744.5" y="-62" font-family="Helvetica,sans-Serif" font-size="10.00">hardware/gpio.h</text>
</a>
</g>
</g>
<!-- Node1&#45;&gt;Node10 -->
<g id="edge11_Node000001_Node000010" class="edge">
<title>Node1&#45;&gt;Node10</title>
<g id="a_edge11_Node000001_Node000010"><a xlink:title=" ">
<path fill="none" stroke="#63b8ff" d="M487.61,-113.27C534.14,-104.62 628.03,-87.16 688.49,-75.92"/>
<polygon fill="#63b8ff" stroke="#63b8ff" points="689.45,-79.3 698.64,-74.03 688.17,-72.42 689.45,-79.3"/>
</a>
</g>
</g>
<!-- Node5&#45;&gt;Node2 -->
<g id="edge5_Node000005_Node000002" class="edge">
<title>Node5&#45;&gt;Node2</title>
<g id="a_edge5_Node000005_Node000002"><a xlink:title=" ">
<path fill="none" stroke="#63b8ff" d="M123.15,-56.02C201.14,-44.94 345.14,-24.48 410.13,-15.24"/>
<polygon fill="#63b8ff" stroke="#63b8ff" points="410.82,-18.68 420.23,-13.81 409.83,-11.75 410.82,-18.68"/>
</a>
</g>
</g>
<!-- Node6 -->
<g id="Node000006" class="node">
<title>Node6</title>
<g id="a_Node000006"><a xlink:title=" ">
<polygon fill="#e0e0e0" stroke="#999999" points="141,-19 0,-19 0,0 141,0 141,-19"/>
<text text-anchor="middle" x="70.5" y="-7" font-family="Helvetica,sans-Serif" font-size="10.00">hardware/structs/clocks.h</text>
</a>
</g>
</g>
<!-- Node5&#45;&gt;Node6 -->
<g id="edge6_Node000005_Node000006" class="edge">
<title>Node5&#45;&gt;Node6</title>
<g id="a_edge6_Node000005_Node000006"><a xlink:title=" ">
<path fill="none" stroke="#63b8ff" d="M70.5,-54.75C70.5,-47.8 70.5,-37.85 70.5,-29.13"/>
<polygon fill="#63b8ff" stroke="#63b8ff" points="74,-29.09 70.5,-19.09 67,-29.09 74,-29.09"/>
</a>
</g>
</g>
<!-- Node7&#45;&gt;Node2 -->
<g id="edge8_Node000007_Node000002" class="edge">
<title>Node7&#45;&gt;Node2</title>
<g id="a_edge8_Node000007_Node000002"><a xlink:title=" ">
<path fill="none" stroke="#63b8ff" d="M516.52,-54.98C503.03,-46.77 482.37,-34.18 466.46,-24.49"/>
<polygon fill="#63b8ff" stroke="#63b8ff" points="468.09,-21.38 457.73,-19.17 464.45,-27.36 468.09,-21.38"/>
</a>
</g>
</g>
<!-- Node8 -->
<g id="Node000008" class="node">
<title>Node8</title>
<g id="a_Node000008"><a xlink:title=" ">
<polygon fill="#e0e0e0" stroke="#999999" points="606.5,-19 484.5,-19 484.5,0 606.5,0 606.5,-19"/>
<text text-anchor="middle" x="545.5" y="-7" font-family="Helvetica,sans-Serif" font-size="10.00">hardware/structs/pll.h</text>
</a>
</g>
</g>
<!-- Node7&#45;&gt;Node8 -->
<g id="edge9_Node000007_Node000008" class="edge">
<title>Node7&#45;&gt;Node8</title>
<g id="a_edge9_Node000007_Node000008"><a xlink:title=" ">
<path fill="none" stroke="#63b8ff" d="M532.98,-54.75C534.96,-47.72 537.82,-37.62 540.31,-28.84"/>
<polygon fill="#63b8ff" stroke="#63b8ff" points="543.71,-29.66 543.07,-19.09 536.98,-27.76 543.71,-29.66"/>
</a>
</g>
</g>
</g>
</svg>
