<?xml version="1.0" encoding="UTF-8" standalone="no"?>
<!DOCTYPE svg PUBLIC "-//W3C//DTD SVG 1.1//EN"
 "http://www.w3.org/Graphics/SVG/1.1/DTD/svg11.dtd">
<!-- Generated by graphviz version 2.43.0 (0)
 -->
<!-- Title: cmsis_version.h Pages: 1 -->
<svg width="327pt" height="192pt"
 viewBox="0.00 0.00 327.00 192.00" xmlns="http://www.w3.org/2000/svg" xmlns:xlink="http://www.w3.org/1999/xlink">
<g id="graph0" class="graph" transform="scale(1 1) rotate(0) translate(4 188)">
<title>cmsis_version.h</title>
<!-- Node1 -->
<g id="Node000001" class="node">
<title>Node1</title>
<g id="a_Node000001"><a xlink:title=" ">
<polygon fill="#999999" stroke="#666666" points="153,-184 58,-184 58,-165 153,-165 153,-184"/>
<text text-anchor="middle" x="105.5" y="-172" font-family="Helvetica,sans-Serif" font-size="10.00">cmsis_version.h</text>
</a>
</g>
</g>
<!-- Node2 -->
<g id="Node000002" class="node">
<title>Node2</title>
<g id="a_Node000002"><a xlink:href="core__cm0plus_8h.html" target="_top" xlink:title=" ">
<polygon fill="white" stroke="#666666" points="100,-129 7,-129 7,-110 100,-110 100,-129"/>
<text text-anchor="middle" x="53.5" y="-117" font-family="Helvetica,sans-Serif" font-size="10.00">core_cm0plus.h</text>
</a>
</g>
</g>
<!-- Node1&#45;&gt;Node2 -->
<g id="edge1_Node000001_Node000002" class="edge">
<title>Node1&#45;&gt;Node2</title>
<g id="a_edge1_Node000001_Node000002"><a xlink:title=" ">
<path fill="none" stroke="#63b8ff" d="M89.82,-157.52C80.66,-148.18 69.45,-136.75 61.93,-129.09"/>
<polygon fill="#63b8ff" stroke="#63b8ff" points="87.41,-160.06 96.91,-164.75 92.41,-155.16 87.41,-160.06"/>
</a>
</g>
</g>
<!-- Node5 -->
<g id="Node000005" class="node">
<title>Node5</title>
<g id="a_Node000005"><a xlink:href="core__cm33_8h.html" target="_top" xlink:title=" ">
<polygon fill="white" stroke="#666666" points="199,-129 120,-129 120,-110 199,-110 199,-129"/>
<text text-anchor="middle" x="159.5" y="-117" font-family="Helvetica,sans-Serif" font-size="10.00">core_cm33.h</text>
</a>
</g>
</g>
<!-- Node1&#45;&gt;Node5 -->
<g id="edge4_Node000001_Node000005" class="edge">
<title>Node1&#45;&gt;Node5</title>
<g id="a_edge4_Node000001_Node000005"><a xlink:title=" ">
<path fill="none" stroke="#63b8ff" d="M121.78,-157.52C131.3,-148.18 142.94,-136.75 150.75,-129.09"/>
<polygon fill="#63b8ff" stroke="#63b8ff" points="119.1,-155.25 114.42,-164.75 124.01,-160.24 119.1,-155.25"/>
</a>
</g>
</g>
<!-- Node3 -->
<g id="Node000003" class="node">
<title>Node3</title>
<g id="a_Node000003"><a xlink:href="RP2040_8h.html" target="_top" xlink:title=" ">
<polygon fill="white" stroke="#666666" points="83.5,-74 21.5,-74 21.5,-55 83.5,-55 83.5,-74"/>
<text text-anchor="middle" x="52.5" y="-62" font-family="Helvetica,sans-Serif" font-size="10.00">RP2040.h</text>
</a>
</g>
</g>
<!-- Node2&#45;&gt;Node3 -->
<g id="edge2_Node000002_Node000003" class="edge">
<title>Node2&#45;&gt;Node3</title>
<g id="a_edge2_Node000002_Node000003"><a xlink:title=" ">
<path fill="none" stroke="#63b8ff" d="M53.14,-99.66C52.98,-90.93 52.79,-80.99 52.66,-74.09"/>
<polygon fill="#63b8ff" stroke="#63b8ff" points="49.65,-99.82 53.33,-109.75 56.65,-99.68 49.65,-99.82"/>
</a>
</g>
</g>
<!-- Node4 -->
<g id="Node000004" class="node">
<title>Node4</title>
<g id="a_Node000004"><a xlink:href="system__RP2040_8c.html" target="_top" xlink:title="CMSIS&#45;Core(M) Device Peripheral Access Layer Header File for Device RP2040.">
<polygon fill="white" stroke="#666666" points="103,-19 0,-19 0,0 103,0 103,-19"/>
<text text-anchor="middle" x="51.5" y="-7" font-family="Helvetica,sans-Serif" font-size="10.00">system_RP2040.c</text>
</a>
</g>
</g>
<!-- Node3&#45;&gt;Node4 -->
<g id="edge3_Node000003_Node000004" class="edge">
<title>Node3&#45;&gt;Node4</title>
<g id="a_edge3_Node000003_Node000004"><a xlink:title=" ">
<path fill="none" stroke="#63b8ff" d="M52.14,-44.66C51.98,-35.93 51.79,-25.99 51.66,-19.09"/>
<polygon fill="#63b8ff" stroke="#63b8ff" points="48.65,-44.82 52.33,-54.75 55.65,-44.68 48.65,-44.82"/>
</a>
</g>
</g>
<!-- Node6 -->
<g id="Node000006" class="node">
<title>Node6</title>
<g id="a_Node000006"><a xlink:href="RP2350_8h.html" target="_top" xlink:title=" ">
<polygon fill="white" stroke="#666666" points="190.5,-74 128.5,-74 128.5,-55 190.5,-55 190.5,-74"/>
<text text-anchor="middle" x="159.5" y="-62" font-family="Helvetica,sans-Serif" font-size="10.00">RP2350.h</text>
</a>
</g>
</g>
<!-- Node5&#45;&gt;Node6 -->
<g id="edge5_Node000005_Node000006" class="edge">
<title>Node5&#45;&gt;Node6</title>
<g id="a_edge5_Node000005_Node000006"><a xlink:title=" ">
<path fill="none" stroke="#63b8ff" d="M159.5,-99.66C159.5,-90.93 159.5,-80.99 159.5,-74.09"/>
<polygon fill="#63b8ff" stroke="#63b8ff" points="156,-99.75 159.5,-109.75 163,-99.75 156,-99.75"/>
</a>
</g>
</g>
<!-- Node7 -->
<g id="Node000007" class="node">
<title>Node7</title>
<g id="a_Node000007"><a xlink:href="cmsis__test_8c.html" target="_top" xlink:title=" ">
<polygon fill="white" stroke="#666666" points="198,-19 121,-19 121,0 198,0 198,-19"/>
<text text-anchor="middle" x="159.5" y="-7" font-family="Helvetica,sans-Serif" font-size="10.00">cmsis_test.c</text>
</a>
</g>
</g>
<!-- Node6&#45;&gt;Node7 -->
<g id="edge6_Node000006_Node000007" class="edge">
<title>Node6&#45;&gt;Node7</title>
<g id="a_edge6_Node000006_Node000007"><a xlink:title=" ">
<path fill="none" stroke="#63b8ff" d="M159.5,-44.66C159.5,-35.93 159.5,-25.99 159.5,-19.09"/>
<polygon fill="#63b8ff" stroke="#63b8ff" points="156,-44.75 159.5,-54.75 163,-44.75 156,-44.75"/>
</a>
</g>
</g>
<!-- Node8 -->
<g id="Node000008" class="node">
<title>Node8</title>
<g id="a_Node000008"><a xlink:href="system__RP2350_8c.html" target="_top" xlink:title="CMSIS&#45;Core(M) Device Peripheral Access Layer Header File for Device RP2350.">
<polygon fill="white" stroke="#666666" points="319,-19 216,-19 216,0 319,0 319,-19"/>
<text text-anchor="middle" x="267.5" y="-7" font-family="Helvetica,sans-Serif" font-size="10.00">system_RP2350.c</text>
</a>
</g>
</g>
<!-- Node6&#45;&gt;Node8 -->
<g id="edge7_Node000006_Node000008" class="edge">
<title>Node6&#45;&gt;Node8</title>
<g id="a_edge7_Node000006_Node000008"><a xlink:title=" ">
<path fill="none" stroke="#63b8ff" d="M185.99,-50.5C205.86,-40.75 232.5,-27.68 249.83,-19.17"/>
<polygon fill="#63b8ff" stroke="#63b8ff" points="184.29,-47.44 176.85,-54.98 187.37,-53.72 184.29,-47.44"/>
</a>
</g>
</g>
</g>
</svg>
