<?xml version="1.0" encoding="UTF-8" standalone="no"?>
<!DOCTYPE svg PUBLIC "-//W3C//DTD SVG 1.1//EN"
 "http://www.w3.org/Graphics/SVG/1.1/DTD/svg11.dtd">
<!-- Generated by graphviz version 2.43.0 (0)
 -->
<!-- Title: common.h Pages: 1 -->
<svg width="162pt" height="82pt"
 viewBox="0.00 0.00 162.00 82.00" xmlns="http://www.w3.org/2000/svg" xmlns:xlink="http://www.w3.org/1999/xlink">
<g id="graph0" class="graph" transform="scale(1 1) rotate(0) translate(4 78)">
<title>common.h</title>
<!-- Node1 -->
<g id="Node000001" class="node">
<title>Node1</title>
<g id="a_Node000001"><a xlink:title="Macros and definitions common to all rp2 platforms but not specific to any library.">
<polygon fill="#999999" stroke="#666666" points="111,-74 43,-74 43,-55 111,-55 111,-74"/>
<text text-anchor="middle" x="77" y="-62" font-family="Helvetica,sans-Serif" font-size="10.00">common.h</text>
</a>
</g>
</g>
<!-- Node2 -->
<g id="Node000002" class="node">
<title>Node2</title>
<g id="a_Node000002"><a xlink:href="rp2040_2pico__platform_2include_2pico_2platform_8h.html" target="_top" xlink:title=" ">
<polygon fill="white" stroke="#666666" points="68,-19 0,-19 0,0 68,0 68,-19"/>
<text text-anchor="middle" x="34" y="-7" font-family="Helvetica,sans-Serif" font-size="10.00">platform.h</text>
</a>
</g>
</g>
<!-- Node1&#45;&gt;Node2 -->
<g id="edge1_Node000001_Node000002" class="edge">
<title>Node1&#45;&gt;Node2</title>
<g id="a_edge1_Node000001_Node000002"><a xlink:title=" ">
<path fill="none" stroke="#63b8ff" d="M63.58,-46.96C56.09,-37.72 47.06,-26.6 40.97,-19.09"/>
<polygon fill="#63b8ff" stroke="#63b8ff" points="60.88,-49.19 69.9,-54.75 66.32,-44.78 60.88,-49.19"/>
</a>
</g>
</g>
<!-- Node3 -->
<g id="Node000003" class="node">
<title>Node3</title>
<g id="a_Node000003"><a xlink:href="rp2350_2pico__platform_2include_2pico_2platform_8h.html" target="_top" xlink:title=" ">
<polygon fill="white" stroke="#666666" points="154,-19 86,-19 86,0 154,0 154,-19"/>
<text text-anchor="middle" x="120" y="-7" font-family="Helvetica,sans-Serif" font-size="10.00">platform.h</text>
</a>
</g>
</g>
<!-- Node1&#45;&gt;Node3 -->
<g id="edge2_Node000001_Node000003" class="edge">
<title>Node1&#45;&gt;Node3</title>
<g id="a_edge2_Node000001_Node000003"><a xlink:title=" ">
<path fill="none" stroke="#63b8ff" d="M90.42,-46.96C97.91,-37.72 106.94,-26.6 113.03,-19.09"/>
<polygon fill="#63b8ff" stroke="#63b8ff" points="87.68,-44.78 84.1,-54.75 93.12,-49.19 87.68,-44.78"/>
</a>
</g>
</g>
</g>
</svg>
