<?xml version="1.0" encoding="UTF-8" standalone="no"?>
<!DOCTYPE svg PUBLIC "-//W3C//DTD SVG 1.1//EN"
 "http://www.w3.org/Graphics/SVG/1.1/DTD/svg11.dtd">
<!-- Generated by graphviz version 2.43.0 (0)
 -->
<!-- Title: divider.h Pages: 1 -->
<svg width="319pt" height="82pt"
 viewBox="0.00 0.00 318.50 82.00" xmlns="http://www.w3.org/2000/svg" xmlns:xlink="http://www.w3.org/1999/xlink">
<g id="graph0" class="graph" transform="scale(1 1) rotate(0) translate(4 78)">
<title>divider.h</title>
<!-- Node1 -->
<g id="Node000001" class="node">
<title>Node1</title>
<g id="a_Node000001"><a xlink:title="High level APIs including combined quotient and remainder functions for 32 and 64 bit accelerated by ...">
<polygon fill="#999999" stroke="#666666" points="160,-74 101,-74 101,-55 160,-55 160,-74"/>
<text text-anchor="middle" x="130.5" y="-62" font-family="Helvetica,sans-Serif" font-size="10.00">divider.h</text>
</a>
</g>
</g>
<!-- Node2 -->
<g id="Node000002" class="node">
<title>Node2</title>
<g id="a_Node000002"><a xlink:href="host_2pico__divider_2divider_8c.html" target="_top" xlink:title=" ">
<polygon fill="white" stroke="#666666" points="59,-19 0,-19 0,0 59,0 59,-19"/>
<text text-anchor="middle" x="29.5" y="-7" font-family="Helvetica,sans-Serif" font-size="10.00">divider.c</text>
</a>
</g>
</g>
<!-- Node1&#45;&gt;Node2 -->
<g id="edge1_Node000001_Node000002" class="edge">
<title>Node1&#45;&gt;Node2</title>
<g id="a_edge1_Node000001_Node000002"><a xlink:title=" ">
<path fill="none" stroke="#63b8ff" d="M105.22,-50.23C86.7,-40.51 62.08,-27.6 46.02,-19.17"/>
<polygon fill="#63b8ff" stroke="#63b8ff" points="103.79,-53.44 114.27,-54.98 107.04,-47.24 103.79,-53.44"/>
</a>
</g>
</g>
<!-- Node3 -->
<g id="Node000003" class="node">
<title>Node3</title>
<g id="a_Node000003"><a xlink:href="divider__compiler_8c.html" target="_top" xlink:title=" ">
<polygon fill="white" stroke="#666666" points="184,-19 77,-19 77,0 184,0 184,-19"/>
<text text-anchor="middle" x="130.5" y="-7" font-family="Helvetica,sans-Serif" font-size="10.00">divider_compiler.c</text>
</a>
</g>
</g>
<!-- Node1&#45;&gt;Node3 -->
<g id="edge2_Node000001_Node000003" class="edge">
<title>Node1&#45;&gt;Node3</title>
<g id="a_edge2_Node000001_Node000003"><a xlink:title=" ">
<path fill="none" stroke="#63b8ff" d="M130.5,-44.66C130.5,-35.93 130.5,-25.99 130.5,-19.09"/>
<polygon fill="#63b8ff" stroke="#63b8ff" points="127,-44.75 130.5,-54.75 134,-44.75 127,-44.75"/>
</a>
</g>
</g>
<!-- Node4 -->
<g id="Node000004" class="node">
<title>Node4</title>
<g id="a_Node000004"><a xlink:href="pico__divider__test_8c.html" target="_top" xlink:title=" ">
<polygon fill="white" stroke="#666666" points="310.5,-19 202.5,-19 202.5,0 310.5,0 310.5,-19"/>
<text text-anchor="middle" x="256.5" y="-7" font-family="Helvetica,sans-Serif" font-size="10.00">pico_divider_test.c</text>
</a>
</g>
</g>
<!-- Node1&#45;&gt;Node4 -->
<g id="edge3_Node000001_Node000004" class="edge">
<title>Node1&#45;&gt;Node4</title>
<g id="a_edge3_Node000001_Node000004"><a xlink:title=" ">
<path fill="none" stroke="#63b8ff" d="M160.15,-51.03C183.45,-41.23 215.3,-27.83 235.89,-19.17"/>
<polygon fill="#63b8ff" stroke="#63b8ff" points="158.6,-47.88 150.74,-54.98 161.32,-54.33 158.6,-47.88"/>
</a>
</g>
</g>
</g>
</svg>
