<?xml version="1.0" encoding="UTF-8" standalone="no"?>
<!DOCTYPE svg PUBLIC "-//W3C//DTD SVG 1.1//EN"
 "http://www.w3.org/Graphics/SVG/1.1/DTD/svg11.dtd">
<!-- Generated by graphviz version 2.43.0 (0)
 -->
<!-- Title: types.h Pages: 1 -->
<svg width="547pt" height="137pt"
 viewBox="0.00 0.00 547.00 137.00" xmlns="http://www.w3.org/2000/svg" xmlns:xlink="http://www.w3.org/1999/xlink">
<g id="graph0" class="graph" transform="scale(1 1) rotate(0) translate(4 133)">
<title>types.h</title>
<!-- Node1 -->
<g id="Node000001" class="node">
<title>Node1</title>
<g id="a_Node000001"><a xlink:title=" ">
<polygon fill="#999999" stroke="#666666" points="329.5,-129 276.5,-129 276.5,-110 329.5,-110 329.5,-129"/>
<text text-anchor="middle" x="303" y="-117" font-family="Helvetica,sans-Serif" font-size="10.00">types.h</text>
</a>
</g>
</g>
<!-- Node2 -->
<g id="Node000002" class="node">
<title>Node2</title>
<g id="a_Node000002"><a xlink:href="compiler_8h.html" target="_top" xlink:title="Macros and definitions (and functions when included by non assembly code) to adapt for different comp...">
<polygon fill="white" stroke="#666666" points="111,-74 43,-74 43,-55 111,-55 111,-74"/>
<text text-anchor="middle" x="77" y="-62" font-family="Helvetica,sans-Serif" font-size="10.00">compiler.h</text>
</a>
</g>
</g>
<!-- Node1&#45;&gt;Node2 -->
<g id="edge1_Node000001_Node000002" class="edge">
<title>Node1&#45;&gt;Node2</title>
<g id="a_edge1_Node000001_Node000002"><a xlink:title=" ">
<path fill="none" stroke="#63b8ff" d="M266.43,-109.92C223.53,-99.86 152.96,-83.31 111.14,-73.51"/>
<polygon fill="#63b8ff" stroke="#63b8ff" points="265.65,-113.34 276.19,-112.21 267.25,-106.52 265.65,-113.34"/>
</a>
</g>
</g>
<!-- Node5 -->
<g id="Node000005" class="node">
<title>Node5</title>
<g id="a_Node000005"><a xlink:href="int64__ops_8h.html" target="_top" xlink:title=" ">
<polygon fill="white" stroke="#666666" points="202.5,-74 129.5,-74 129.5,-55 202.5,-55 202.5,-74"/>
<text text-anchor="middle" x="166" y="-62" font-family="Helvetica,sans-Serif" font-size="10.00">int64_ops.h</text>
</a>
</g>
</g>
<!-- Node1&#45;&gt;Node5 -->
<g id="edge4_Node000001_Node000005" class="edge">
<title>Node1&#45;&gt;Node5</title>
<g id="a_edge4_Node000001_Node000005"><a xlink:title=" ">
<path fill="none" stroke="#63b8ff" d="M271.44,-106.29C246.05,-96.47 211,-82.91 188.41,-74.17"/>
<polygon fill="#63b8ff" stroke="#63b8ff" points="270.4,-109.64 280.99,-109.98 272.92,-103.11 270.4,-109.64"/>
</a>
</g>
</g>
<!-- Node6 -->
<g id="Node000006" class="node">
<title>Node6</title>
<g id="a_Node000006"><a xlink:href="mem__ops_8h.html" target="_top" xlink:title=" ">
<polygon fill="white" stroke="#666666" points="295,-74 221,-74 221,-55 295,-55 295,-74"/>
<text text-anchor="middle" x="258" y="-62" font-family="Helvetica,sans-Serif" font-size="10.00">mem_ops.h</text>
</a>
</g>
</g>
<!-- Node1&#45;&gt;Node6 -->
<g id="edge5_Node000001_Node000006" class="edge">
<title>Node1&#45;&gt;Node6</title>
<g id="a_edge5_Node000001_Node000006"><a xlink:title=" ">
<path fill="none" stroke="#63b8ff" d="M288.95,-101.96C281.11,-92.72 271.67,-81.6 265.29,-74.09"/>
<polygon fill="#63b8ff" stroke="#63b8ff" points="286.43,-104.39 295.57,-109.75 291.76,-99.86 286.43,-104.39"/>
</a>
</g>
</g>
<!-- Node8 -->
<g id="Node000008" class="node">
<title>Node8</title>
<g id="a_Node000008"><a xlink:href="host_2pico__multicore_2include_2pico_2multicore_8h.html" target="_top" xlink:title=" ">
<polygon fill="white" stroke="#666666" points="385,-74 313,-74 313,-55 385,-55 385,-74"/>
<text text-anchor="middle" x="349" y="-62" font-family="Helvetica,sans-Serif" font-size="10.00">multicore.h</text>
</a>
</g>
</g>
<!-- Node1&#45;&gt;Node8 -->
<g id="edge7_Node000001_Node000008" class="edge">
<title>Node1&#45;&gt;Node8</title>
<g id="a_edge7_Node000001_Node000008"><a xlink:title=" ">
<path fill="none" stroke="#63b8ff" d="M317.36,-101.96C325.37,-92.72 335.03,-81.6 341.55,-74.09"/>
<polygon fill="#63b8ff" stroke="#63b8ff" points="314.51,-99.9 310.6,-109.75 319.79,-104.49 314.51,-99.9"/>
</a>
</g>
</g>
<!-- Node9 -->
<g id="Node000009" class="node">
<title>Node9</title>
<g id="a_Node000009"><a xlink:href="rp2__common_2pico__multicore_2include_2pico_2multicore_8h.html" target="_top" xlink:title=" ">
<polygon fill="white" stroke="#666666" points="475,-74 403,-74 403,-55 475,-55 475,-74"/>
<text text-anchor="middle" x="439" y="-62" font-family="Helvetica,sans-Serif" font-size="10.00">multicore.h</text>
</a>
</g>
</g>
<!-- Node1&#45;&gt;Node9 -->
<g id="edge8_Node000001_Node000009" class="edge">
<title>Node1&#45;&gt;Node9</title>
<g id="a_edge8_Node000001_Node000009"><a xlink:title=" ">
<path fill="none" stroke="#63b8ff" d="M334.33,-106.29C359.54,-96.47 394.33,-82.91 416.75,-74.17"/>
<polygon fill="#63b8ff" stroke="#63b8ff" points="332.9,-103.09 324.85,-109.98 335.44,-109.61 332.9,-103.09"/>
</a>
</g>
</g>
<!-- Node10 -->
<g id="Node000010" class="node">
<title>Node10</title>
<g id="a_Node000010"><a xlink:href="common_2pico__base__headers_2include_2pico_8h.html" target="_top" xlink:title=" ">
<polygon fill="white" stroke="#666666" points="539,-74 493,-74 493,-55 539,-55 539,-74"/>
<text text-anchor="middle" x="516" y="-62" font-family="Helvetica,sans-Serif" font-size="10.00">pico.h</text>
</a>
</g>
</g>
<!-- Node1&#45;&gt;Node10 -->
<g id="edge9_Node000001_Node000010" class="edge">
<title>Node1&#45;&gt;Node10</title>
<g id="a_edge9_Node000001_Node000010"><a xlink:title=" ">
<path fill="none" stroke="#63b8ff" d="M339.45,-109.75C376.04,-100.92 433.99,-86.79 484,-74 486.9,-73.26 489.94,-72.47 492.94,-71.68"/>
<polygon fill="#63b8ff" stroke="#63b8ff" points="338.62,-106.35 329.72,-112.09 340.26,-113.15 338.62,-106.35"/>
</a>
</g>
</g>
<!-- Node3 -->
<g id="Node000003" class="node">
<title>Node3</title>
<g id="a_Node000003"><a xlink:href="rp2040_2pico__platform_2include_2pico_2platform_8h.html" target="_top" xlink:title=" ">
<polygon fill="white" stroke="#666666" points="68,-19 0,-19 0,0 68,0 68,-19"/>
<text text-anchor="middle" x="34" y="-7" font-family="Helvetica,sans-Serif" font-size="10.00">platform.h</text>
</a>
</g>
</g>
<!-- Node2&#45;&gt;Node3 -->
<g id="edge2_Node000002_Node000003" class="edge">
<title>Node2&#45;&gt;Node3</title>
<g id="a_edge2_Node000002_Node000003"><a xlink:title=" ">
<path fill="none" stroke="#63b8ff" d="M63.58,-46.96C56.09,-37.72 47.06,-26.6 40.97,-19.09"/>
<polygon fill="#63b8ff" stroke="#63b8ff" points="60.88,-49.19 69.9,-54.75 66.32,-44.78 60.88,-49.19"/>
</a>
</g>
</g>
<!-- Node4 -->
<g id="Node000004" class="node">
<title>Node4</title>
<g id="a_Node000004"><a xlink:href="rp2350_2pico__platform_2include_2pico_2platform_8h.html" target="_top" xlink:title=" ">
<polygon fill="white" stroke="#666666" points="154,-19 86,-19 86,0 154,0 154,-19"/>
<text text-anchor="middle" x="120" y="-7" font-family="Helvetica,sans-Serif" font-size="10.00">platform.h</text>
</a>
</g>
</g>
<!-- Node2&#45;&gt;Node4 -->
<g id="edge3_Node000002_Node000004" class="edge">
<title>Node2&#45;&gt;Node4</title>
<g id="a_edge3_Node000002_Node000004"><a xlink:title=" ">
<path fill="none" stroke="#63b8ff" d="M90.42,-46.96C97.91,-37.72 106.94,-26.6 113.03,-19.09"/>
<polygon fill="#63b8ff" stroke="#63b8ff" points="87.68,-44.78 84.1,-54.75 93.12,-49.19 87.68,-44.78"/>
</a>
</g>
</g>
<!-- Node7 -->
<g id="Node000007" class="node">
<title>Node7</title>
<g id="a_Node000007"><a xlink:href="mem__ops_8c.html" target="_top" xlink:title=" ">
<polygon fill="white" stroke="#666666" points="294.5,-19 221.5,-19 221.5,0 294.5,0 294.5,-19"/>
<text text-anchor="middle" x="258" y="-7" font-family="Helvetica,sans-Serif" font-size="10.00">mem_ops.c</text>
</a>
</g>
</g>
<!-- Node6&#45;&gt;Node7 -->
<g id="edge6_Node000006_Node000007" class="edge">
<title>Node6&#45;&gt;Node7</title>
<g id="a_edge6_Node000006_Node000007"><a xlink:title=" ">
<path fill="none" stroke="#63b8ff" d="M258,-44.66C258,-35.93 258,-25.99 258,-19.09"/>
<polygon fill="#63b8ff" stroke="#63b8ff" points="254.5,-44.75 258,-54.75 261.5,-44.75 254.5,-44.75"/>
</a>
</g>
</g>
</g>
</svg>
