<?xml version="1.0" encoding="UTF-8" standalone="no"?>
<!DOCTYPE svg PUBLIC "-//W3C//DTD SVG 1.1//EN"
 "http://www.w3.org/Graphics/SVG/1.1/DTD/svg11.dtd">
<!-- Generated by graphviz version 2.43.0 (0)
 -->
<!-- Title: compiler.h Pages: 1 -->
<svg width="337pt" height="192pt"
 viewBox="0.00 0.00 336.50 192.00" xmlns="http://www.w3.org/2000/svg" xmlns:xlink="http://www.w3.org/1999/xlink">
<g id="graph0" class="graph" transform="scale(1 1) rotate(0) translate(4 188)">
<title>compiler.h</title>
<!-- Node1 -->
<g id="Node000001" class="node">
<title>Node1</title>
<g id="a_Node000001"><a xlink:title="Macros and definitions (and functions when included by non assembly code) to adapt for different comp...">
<polygon fill="#999999" stroke="#666666" points="169.5,-184 101.5,-184 101.5,-165 169.5,-165 169.5,-184"/>
<text text-anchor="middle" x="135.5" y="-172" font-family="Helvetica,sans-Serif" font-size="10.00">compiler.h</text>
</a>
</g>
</g>
<!-- Node2 -->
<g id="Node000002" class="node">
<title>Node2</title>
<g id="a_Node000002"><a xlink:title=" ">
<polygon fill="#e0e0e0" stroke="#999999" points="143,-129 0,-129 0,-110 143,-110 143,-129"/>
<text text-anchor="middle" x="71.5" y="-117" font-family="Helvetica,sans-Serif" font-size="10.00">hardware/platform_defs.h</text>
</a>
</g>
</g>
<!-- Node1&#45;&gt;Node2 -->
<g id="edge1_Node000001_Node000002" class="edge">
<title>Node1&#45;&gt;Node2</title>
<g id="a_edge1_Node000001_Node000002"><a xlink:title=" ">
<path fill="none" stroke="#63b8ff" d="M125.22,-164.98C115.66,-157.07 101.22,-145.11 89.72,-135.58"/>
<polygon fill="#63b8ff" stroke="#63b8ff" points="91.9,-132.85 81.97,-129.17 87.44,-138.24 91.9,-132.85"/>
</a>
</g>
</g>
<!-- Node3 -->
<g id="Node000003" class="node">
<title>Node3</title>
<g id="a_Node000003"><a xlink:href="common_2pico__base__headers_2include_2pico_2types_8h.html" target="_top" xlink:title=" ">
<polygon fill="white" stroke="#666666" points="237.5,-129 161.5,-129 161.5,-110 237.5,-110 237.5,-129"/>
<text text-anchor="middle" x="199.5" y="-117" font-family="Helvetica,sans-Serif" font-size="10.00">pico/types.h</text>
</a>
</g>
</g>
<!-- Node1&#45;&gt;Node3 -->
<g id="edge2_Node000001_Node000003" class="edge">
<title>Node1&#45;&gt;Node3</title>
<g id="a_edge2_Node000001_Node000003"><a xlink:title=" ">
<path fill="none" stroke="#63b8ff" d="M145.78,-164.98C155.34,-157.07 169.78,-145.11 181.28,-135.58"/>
<polygon fill="#63b8ff" stroke="#63b8ff" points="183.56,-138.24 189.03,-129.17 179.1,-132.85 183.56,-138.24"/>
</a>
</g>
</g>
<!-- Node4 -->
<g id="Node000004" class="node">
<title>Node4</title>
<g id="a_Node000004"><a xlink:href="assert_8h.html" target="_top" xlink:title=" ">
<polygon fill="white" stroke="#666666" points="126,-74 47,-74 47,-55 126,-55 126,-74"/>
<text text-anchor="middle" x="86.5" y="-62" font-family="Helvetica,sans-Serif" font-size="10.00">pico/assert.h</text>
</a>
</g>
</g>
<!-- Node3&#45;&gt;Node4 -->
<g id="edge3_Node000003_Node000004" class="edge">
<title>Node3&#45;&gt;Node4</title>
<g id="a_edge3_Node000003_Node000004"><a xlink:title=" ">
<path fill="none" stroke="#63b8ff" d="M181.34,-109.98C163.25,-101.5 135.22,-88.35 114.31,-78.54"/>
<polygon fill="#63b8ff" stroke="#63b8ff" points="115.53,-75.25 104.99,-74.17 112.55,-81.59 115.53,-75.25"/>
</a>
</g>
</g>
<!-- Node5 -->
<g id="Node000005" class="node">
<title>Node5</title>
<g id="a_Node000005"><a xlink:title=" ">
<polygon fill="#e0e0e0" stroke="#999999" points="160.5,-19 98.5,-19 98.5,0 160.5,0 160.5,-19"/>
<text text-anchor="middle" x="129.5" y="-7" font-family="Helvetica,sans-Serif" font-size="10.00">stdbool.h</text>
</a>
</g>
</g>
<!-- Node3&#45;&gt;Node5 -->
<g id="edge7_Node000003_Node000005" class="edge">
<title>Node3&#45;&gt;Node5</title>
<g id="a_edge7_Node000003_Node000005"><a xlink:title=" ">
<path fill="none" stroke="#63b8ff" d="M193.77,-109.66C182.18,-91.77 155.75,-51 140.64,-27.69"/>
<polygon fill="#63b8ff" stroke="#63b8ff" points="143.49,-25.65 135.11,-19.16 137.61,-29.45 143.49,-25.65"/>
</a>
</g>
</g>
<!-- Node6 -->
<g id="Node000006" class="node">
<title>Node6</title>
<g id="a_Node000006"><a xlink:title=" ">
<polygon fill="#e0e0e0" stroke="#999999" points="254,-74 201,-74 201,-55 254,-55 254,-74"/>
<text text-anchor="middle" x="227.5" y="-62" font-family="Helvetica,sans-Serif" font-size="10.00">stdint.h</text>
</a>
</g>
</g>
<!-- Node3&#45;&gt;Node6 -->
<g id="edge6_Node000003_Node000006" class="edge">
<title>Node3&#45;&gt;Node6</title>
<g id="a_edge6_Node000003_Node000006"><a xlink:title=" ">
<path fill="none" stroke="#63b8ff" d="M204.12,-109.75C207.96,-102.49 213.52,-91.95 218.26,-82.98"/>
<polygon fill="#63b8ff" stroke="#63b8ff" points="221.39,-84.57 222.96,-74.09 215.2,-81.3 221.39,-84.57"/>
</a>
</g>
</g>
<!-- Node7 -->
<g id="Node000007" class="node">
<title>Node7</title>
<g id="a_Node000007"><a xlink:title=" ">
<polygon fill="#e0e0e0" stroke="#999999" points="328.5,-74 272.5,-74 272.5,-55 328.5,-55 328.5,-74"/>
<text text-anchor="middle" x="300.5" y="-62" font-family="Helvetica,sans-Serif" font-size="10.00">stddef.h</text>
</a>
</g>
</g>
<!-- Node3&#45;&gt;Node7 -->
<g id="edge8_Node000003_Node000007" class="edge">
<title>Node3&#45;&gt;Node7</title>
<g id="a_edge8_Node000003_Node000007"><a xlink:title=" ">
<path fill="none" stroke="#63b8ff" d="M215.73,-109.98C231.68,-101.61 256.28,-88.7 274.88,-78.95"/>
<polygon fill="#63b8ff" stroke="#63b8ff" points="276.75,-81.92 283.98,-74.17 273.5,-75.72 276.75,-81.92"/>
</a>
</g>
</g>
<!-- Node4&#45;&gt;Node4 -->
<g id="edge5_Node000004_Node000004" class="edge">
<title>Node4&#45;&gt;Node4</title>
<g id="a_edge5_Node000004_Node000004"><a xlink:title=" ">
<path fill="none" stroke="#63b8ff" d="M113.41,-74.03C129.21,-76.06 144,-72.88 144,-64.5 144,-57.95 134.97,-54.58 123.49,-54.38"/>
<polygon fill="#63b8ff" stroke="#63b8ff" points="123.19,-50.9 113.41,-54.97 123.6,-57.88 123.19,-50.9"/>
</a>
</g>
</g>
<!-- Node4&#45;&gt;Node5 -->
<g id="edge4_Node000004_Node000005" class="edge">
<title>Node4&#45;&gt;Node5</title>
<g id="a_edge4_Node000004_Node000005"><a xlink:title=" ">
<path fill="none" stroke="#63b8ff" d="M93.6,-54.75C99.67,-47.26 108.59,-36.28 116.01,-27.13"/>
<polygon fill="#63b8ff" stroke="#63b8ff" points="118.95,-29.06 122.53,-19.09 113.51,-24.65 118.95,-29.06"/>
</a>
</g>
</g>
</g>
</svg>
