<?xml version="1.0" encoding="UTF-8" standalone="no"?>
<!DOCTYPE svg PUBLIC "-//W3C//DTD SVG 1.1//EN"
 "http://www.w3.org/Graphics/SVG/1.1/DTD/svg11.dtd">
<!-- Generated by graphviz version 2.43.0 (0)
 -->
<!-- Title: critical_section.h Pages: 1 -->
<svg width="784pt" height="203pt"
 viewBox="0.00 0.00 784.00 203.00" xmlns="http://www.w3.org/2000/svg" xmlns:xlink="http://www.w3.org/1999/xlink">
<g id="graph0" class="graph" transform="scale(1 1) rotate(0) translate(4 199)">
<title>critical_section.h</title>
<!-- Node1 -->
<g id="Node000001" class="node">
<title>Node1</title>
<g id="a_Node000001"><a xlink:title=" ">
<polygon fill="#999999" stroke="#666666" points="490,-195 391,-195 391,-176 490,-176 490,-195"/>
<text text-anchor="middle" x="440.5" y="-183" font-family="Helvetica,sans-Serif" font-size="10.00">critical_section.h</text>
</a>
</g>
</g>
<!-- Node2 -->
<g id="Node000002" class="node">
<title>Node2</title>
<g id="a_Node000002"><a xlink:href="critical__section_8c.html" target="_top" xlink:title=" ">
<polygon fill="white" stroke="#666666" points="444.5,-140 346.5,-140 346.5,-121 444.5,-121 444.5,-140"/>
<text text-anchor="middle" x="395.5" y="-128" font-family="Helvetica,sans-Serif" font-size="10.00">critical_section.c</text>
</a>
</g>
</g>
<!-- Node1&#45;&gt;Node2 -->
<g id="edge1_Node000001_Node000002" class="edge">
<title>Node1&#45;&gt;Node2</title>
<g id="a_edge1_Node000001_Node000002"><a xlink:title=" ">
<path fill="none" stroke="#63b8ff" d="M426.45,-167.96C418.61,-158.72 409.17,-147.6 402.79,-140.09"/>
<polygon fill="#63b8ff" stroke="#63b8ff" points="423.93,-170.39 433.07,-175.75 429.26,-165.86 423.93,-170.39"/>
</a>
</g>
</g>
<!-- Node3 -->
<g id="Node000003" class="node">
<title>Node3</title>
<g id="a_Node000003"><a xlink:href="common_2pico__sync_2include_2pico_2sync_8h.html" target="_top" xlink:title=" ">
<polygon fill="white" stroke="#666666" points="510.5,-140 462.5,-140 462.5,-121 510.5,-121 510.5,-140"/>
<text text-anchor="middle" x="486.5" y="-128" font-family="Helvetica,sans-Serif" font-size="10.00">sync.h</text>
</a>
</g>
</g>
<!-- Node1&#45;&gt;Node3 -->
<g id="edge2_Node000001_Node000003" class="edge">
<title>Node1&#45;&gt;Node3</title>
<g id="a_edge2_Node000001_Node000003"><a xlink:title=" ">
<path fill="none" stroke="#63b8ff" d="M454.86,-167.96C462.87,-158.72 472.53,-147.6 479.05,-140.09"/>
<polygon fill="#63b8ff" stroke="#63b8ff" points="452.01,-165.9 448.1,-175.75 457.29,-170.49 452.01,-165.9"/>
</a>
</g>
</g>
<!-- Node4 -->
<g id="Node000004" class="node">
<title>Node4</title>
<g id="a_Node000004"><a xlink:href="async__context__freertos_8c.html" target="_top" xlink:title=" ">
<polygon fill="white" stroke="#666666" points="139,-79.5 0,-79.5 0,-60.5 139,-60.5 139,-79.5"/>
<text text-anchor="middle" x="69.5" y="-67.5" font-family="Helvetica,sans-Serif" font-size="10.00">async_context_freertos.c</text>
</a>
</g>
</g>
<!-- Node3&#45;&gt;Node4 -->
<g id="edge3_Node000003_Node000004" class="edge">
<title>Node3&#45;&gt;Node4</title>
<g id="a_edge3_Node000003_Node000004"><a xlink:title=" ">
<path fill="none" stroke="#63b8ff" d="M452.55,-121.06C317.6,-96.33 280.37,-104.45 148.5,-85 137.61,-83.39 125.92,-81.45 114.96,-79.52"/>
<polygon fill="#63b8ff" stroke="#63b8ff" points="451.96,-124.51 462.43,-122.9 453.24,-117.63 451.96,-124.51"/>
</a>
</g>
</g>
<!-- Node5 -->
<g id="Node000005" class="node">
<title>Node5</title>
<g id="a_Node000005"><a xlink:href="async__context__poll_8c.html" target="_top" xlink:title=" ">
<polygon fill="white" stroke="#666666" points="276,-79.5 157,-79.5 157,-60.5 276,-60.5 276,-79.5"/>
<text text-anchor="middle" x="216.5" y="-67.5" font-family="Helvetica,sans-Serif" font-size="10.00">async_context_poll.c</text>
</a>
</g>
</g>
<!-- Node3&#45;&gt;Node5 -->
<g id="edge4_Node000003_Node000005" class="edge">
<title>Node3&#45;&gt;Node5</title>
<g id="a_edge4_Node000003_Node000005"><a xlink:title=" ">
<path fill="none" stroke="#63b8ff" d="M452.6,-120.89C403.6,-109.67 311.76,-90.6 257.98,-79.52"/>
<polygon fill="#63b8ff" stroke="#63b8ff" points="451.85,-124.3 462.38,-123.16 453.43,-117.49 451.85,-124.3"/>
</a>
</g>
</g>
<!-- Node6 -->
<g id="Node000006" class="node">
<title>Node6</title>
<g id="a_Node000006"><a xlink:href="async__context__threadsafe__background_8c.html" target="_top" xlink:title=" ">
<polygon fill="white" stroke="#666666" points="439,-85 294,-85 294,-55 439,-55 439,-85"/>
<text text-anchor="start" x="302" y="-73" font-family="Helvetica,sans-Serif" font-size="10.00">async_context_threadsafe</text>
<text text-anchor="middle" x="366.5" y="-62" font-family="Helvetica,sans-Serif" font-size="10.00">_background.c</text>
</a>
</g>
</g>
<!-- Node3&#45;&gt;Node6 -->
<g id="edge5_Node000003_Node000006" class="edge">
<title>Node3&#45;&gt;Node6</title>
<g id="a_edge5_Node000003_Node000006"><a xlink:title=" ">
<path fill="none" stroke="#63b8ff" d="M460.02,-116.59C440.94,-107.29 415.22,-94.75 395.58,-85.18"/>
<polygon fill="#63b8ff" stroke="#63b8ff" points="458.53,-119.76 469.05,-120.99 461.6,-113.47 458.53,-119.76"/>
</a>
</g>
</g>
<!-- Node7 -->
<g id="Node000007" class="node">
<title>Node7</title>
<g id="a_Node000007"><a xlink:href="atomic_8c.html" target="_top" xlink:title=" ">
<polygon fill="white" stroke="#666666" points="516,-79.5 457,-79.5 457,-60.5 516,-60.5 516,-79.5"/>
<text text-anchor="middle" x="486.5" y="-67.5" font-family="Helvetica,sans-Serif" font-size="10.00">atomic.c</text>
</a>
</g>
</g>
<!-- Node3&#45;&gt;Node7 -->
<g id="edge6_Node000003_Node000007" class="edge">
<title>Node3&#45;&gt;Node7</title>
<g id="a_edge6_Node000003_Node000007"><a xlink:title=" ">
<path fill="none" stroke="#63b8ff" d="M486.5,-110.66C486.5,-100.24 486.5,-87.8 486.5,-79.67"/>
<polygon fill="#63b8ff" stroke="#63b8ff" points="483,-110.87 486.5,-120.87 490,-110.87 483,-110.87"/>
</a>
</g>
</g>
<!-- Node8 -->
<g id="Node000008" class="node">
<title>Node8</title>
<g id="a_Node000008"><a xlink:href="kitchen__sink_8c.html" target="_top" xlink:title=" ">
<polygon fill="white" stroke="#666666" points="620.5,-79.5 534.5,-79.5 534.5,-60.5 620.5,-60.5 620.5,-79.5"/>
<text text-anchor="middle" x="577.5" y="-67.5" font-family="Helvetica,sans-Serif" font-size="10.00">kitchen_sink.c</text>
</a>
</g>
</g>
<!-- Node3&#45;&gt;Node8 -->
<g id="edge7_Node000003_Node000008" class="edge">
<title>Node3&#45;&gt;Node8</title>
<g id="a_edge7_Node000003_Node000008"><a xlink:title=" ">
<path fill="none" stroke="#63b8ff" d="M508.81,-115.16C526.1,-104.05 549.48,-89.01 564.02,-79.67"/>
<polygon fill="#63b8ff" stroke="#63b8ff" points="506.45,-112.52 499.93,-120.87 510.23,-118.4 506.45,-112.52"/>
</a>
</g>
</g>
<!-- Node10 -->
<g id="Node000010" class="node">
<title>Node10</title>
<g id="a_Node000010"><a xlink:href="rp2__common_2pico__multicore_2include_2pico_2multicore_8h.html" target="_top" xlink:title=" ">
<polygon fill="white" stroke="#666666" points="710.5,-79.5 638.5,-79.5 638.5,-60.5 710.5,-60.5 710.5,-79.5"/>
<text text-anchor="middle" x="674.5" y="-67.5" font-family="Helvetica,sans-Serif" font-size="10.00">multicore.h</text>
</a>
</g>
</g>
<!-- Node3&#45;&gt;Node10 -->
<g id="edge9_Node000003_Node000010" class="edge">
<title>Node3&#45;&gt;Node10</title>
<g id="a_edge9_Node000003_Node000010"><a xlink:title=" ">
<path fill="none" stroke="#63b8ff" d="M520.34,-118.97C556.6,-107.69 613.46,-89.99 647.05,-79.54"/>
<polygon fill="#63b8ff" stroke="#63b8ff" points="519.2,-115.66 510.69,-121.97 521.28,-122.34 519.2,-115.66"/>
</a>
</g>
</g>
<!-- Node11 -->
<g id="Node000011" class="node">
<title>Node11</title>
<g id="a_Node000011"><a xlink:href="time_8c.html" target="_top" xlink:title=" ">
<polygon fill="white" stroke="#666666" points="776,-79.5 729,-79.5 729,-60.5 776,-60.5 776,-79.5"/>
<text text-anchor="middle" x="752.5" y="-67.5" font-family="Helvetica,sans-Serif" font-size="10.00">time.c</text>
</a>
</g>
</g>
<!-- Node3&#45;&gt;Node11 -->
<g id="edge10_Node000003_Node000011" class="edge">
<title>Node3&#45;&gt;Node11</title>
<g id="a_edge10_Node000003_Node000011"><a xlink:title=" ">
<path fill="none" stroke="#63b8ff" d="M520.74,-125.28C566.66,-119.1 650.41,-105.99 719.5,-85 724.38,-83.52 729.52,-81.55 734.26,-79.55"/>
<polygon fill="#63b8ff" stroke="#63b8ff" points="520.18,-121.83 510.72,-126.6 521.09,-128.77 520.18,-121.83"/>
</a>
</g>
</g>
<!-- Node9 -->
<g id="Node000009" class="node">
<title>Node9</title>
<g id="a_Node000009"><a xlink:href="kitchen__sink__cpp_8cpp.html" target="_top" xlink:title=" ">
<polygon fill="white" stroke="#666666" points="638,-19 517,-19 517,0 638,0 638,-19"/>
<text text-anchor="middle" x="577.5" y="-7" font-family="Helvetica,sans-Serif" font-size="10.00">kitchen_sink_cpp.cpp</text>
</a>
</g>
</g>
<!-- Node8&#45;&gt;Node9 -->
<g id="edge8_Node000008_Node000009" class="edge">
<title>Node8&#45;&gt;Node9</title>
<g id="a_edge8_Node000008_Node000009"><a xlink:title=" ">
<path fill="none" stroke="#63b8ff" d="M577.5,-50.16C577.5,-39.74 577.5,-27.3 577.5,-19.17"/>
<polygon fill="#63b8ff" stroke="#63b8ff" points="574,-50.37 577.5,-60.37 581,-50.37 574,-50.37"/>
</a>
</g>
</g>
</g>
</svg>
