<?xml version="1.0" encoding="UTF-8" standalone="no"?>
<!DOCTYPE svg PUBLIC "-//W3C//DTD SVG 1.1//EN"
 "http://www.w3.org/Graphics/SVG/1.1/DTD/svg11.dtd">
<!-- Generated by graphviz version 2.43.0 (0)
 -->
<!-- Title: critical_section.c Pages: 1 -->
<svg width="284pt" height="247pt"
 viewBox="0.00 0.00 283.50 247.00" xmlns="http://www.w3.org/2000/svg" xmlns:xlink="http://www.w3.org/1999/xlink">
<g id="graph0" class="graph" transform="scale(1 1) rotate(0) translate(4 243)">
<title>critical_section.c</title>
<!-- Node1 -->
<g id="Node000001" class="node">
<title>Node1</title>
<g id="a_Node000001"><a xlink:title=" ">
<polygon fill="#999999" stroke="#666666" points="110,-239 12,-239 12,-220 110,-220 110,-239"/>
<text text-anchor="middle" x="61" y="-227" font-family="Helvetica,sans-Serif" font-size="10.00">critical_section.c</text>
</a>
</g>
</g>
<!-- Node2 -->
<g id="Node000002" class="node">
<title>Node2</title>
<g id="a_Node000002"><a xlink:href="critical__section_8h.html" target="_top" xlink:title=" ">
<polygon fill="white" stroke="#666666" points="122,-184 0,-184 0,-165 122,-165 122,-184"/>
<text text-anchor="middle" x="61" y="-172" font-family="Helvetica,sans-Serif" font-size="10.00">pico/critical_section.h</text>
</a>
</g>
</g>
<!-- Node1&#45;&gt;Node2 -->
<g id="edge1_Node000001_Node000002" class="edge">
<title>Node1&#45;&gt;Node2</title>
<g id="a_edge1_Node000001_Node000002"><a xlink:title=" ">
<path fill="none" stroke="#63b8ff" d="M61,-219.75C61,-212.8 61,-202.85 61,-194.13"/>
<polygon fill="#63b8ff" stroke="#63b8ff" points="64.5,-194.09 61,-184.09 57.5,-194.09 64.5,-194.09"/>
</a>
</g>
</g>
<!-- Node3 -->
<g id="Node000003" class="node">
<title>Node3</title>
<g id="a_Node000003"><a xlink:title=" ">
<polygon fill="#e0e0e0" stroke="#999999" points="70,-19 24,-19 24,0 70,0 70,-19"/>
<text text-anchor="middle" x="47" y="-7" font-family="Helvetica,sans-Serif" font-size="10.00">pico.h</text>
</a>
</g>
</g>
<!-- Node2&#45;&gt;Node3 -->
<g id="edge2_Node000002_Node000003" class="edge">
<title>Node2&#45;&gt;Node3</title>
<g id="a_edge2_Node000002_Node000003"><a xlink:title=" ">
<path fill="none" stroke="#63b8ff" d="M59.95,-164.98C58.87,-156.03 57.18,-141.54 56,-129 52.69,-93.85 49.79,-52.76 48.22,-29.36"/>
<polygon fill="#63b8ff" stroke="#63b8ff" points="51.7,-28.88 47.55,-19.13 44.71,-29.34 51.7,-28.88"/>
</a>
</g>
</g>
<!-- Node4 -->
<g id="Node000004" class="node">
<title>Node4</title>
<g id="a_Node000004"><a xlink:href="lock__core_8h.html" target="_top" xlink:title="Base implementation for locking primitives protected by a spin lock.">
<polygon fill="white" stroke="#666666" points="159.5,-129 64.5,-129 64.5,-110 159.5,-110 159.5,-129"/>
<text text-anchor="middle" x="112" y="-117" font-family="Helvetica,sans-Serif" font-size="10.00">pico/lock_core.h</text>
</a>
</g>
</g>
<!-- Node2&#45;&gt;Node4 -->
<g id="edge3_Node000002_Node000004" class="edge">
<title>Node2&#45;&gt;Node4</title>
<g id="a_edge3_Node000002_Node000004"><a xlink:title=" ">
<path fill="none" stroke="#63b8ff" d="M69.42,-164.75C76.77,-157.11 87.63,-145.82 96.54,-136.56"/>
<polygon fill="#63b8ff" stroke="#63b8ff" points="99.32,-138.72 103.74,-129.09 94.28,-133.87 99.32,-138.72"/>
</a>
</g>
</g>
<!-- Node4&#45;&gt;Node3 -->
<g id="edge4_Node000004_Node000003" class="edge">
<title>Node4&#45;&gt;Node3</title>
<g id="a_edge4_Node000004_Node000003"><a xlink:title=" ">
<path fill="none" stroke="#63b8ff" d="M105.51,-109.84C99.02,-101.01 88.87,-86.84 81,-74 71.82,-59.03 62.48,-41.37 55.92,-28.48"/>
<polygon fill="#63b8ff" stroke="#63b8ff" points="58.92,-26.67 51.31,-19.31 52.67,-29.81 58.92,-26.67"/>
</a>
</g>
</g>
<!-- Node5 -->
<g id="Node000005" class="node">
<title>Node5</title>
<g id="a_Node000005"><a xlink:href="common_2pico__time_2include_2pico_2time_8h.html" target="_top" xlink:title=" ">
<polygon fill="white" stroke="#666666" points="160.5,-74 89.5,-74 89.5,-55 160.5,-55 160.5,-74"/>
<text text-anchor="middle" x="125" y="-62" font-family="Helvetica,sans-Serif" font-size="10.00">pico/time.h</text>
</a>
</g>
</g>
<!-- Node4&#45;&gt;Node5 -->
<g id="edge5_Node000004_Node000005" class="edge">
<title>Node4&#45;&gt;Node5</title>
<g id="a_edge5_Node000004_Node000005"><a xlink:title=" ">
<path fill="none" stroke="#63b8ff" d="M114.15,-109.75C115.87,-102.72 118.35,-92.62 120.5,-83.84"/>
<polygon fill="#63b8ff" stroke="#63b8ff" points="123.91,-84.63 122.89,-74.09 117.11,-82.97 123.91,-84.63"/>
</a>
</g>
</g>
<!-- Node7 -->
<g id="Node000007" class="node">
<title>Node7</title>
<g id="a_Node000007"><a xlink:title=" ">
<polygon fill="#e0e0e0" stroke="#999999" points="275.5,-74 178.5,-74 178.5,-55 275.5,-55 275.5,-74"/>
<text text-anchor="middle" x="227" y="-62" font-family="Helvetica,sans-Serif" font-size="10.00">hardware/sync.h</text>
</a>
</g>
</g>
<!-- Node4&#45;&gt;Node7 -->
<g id="edge8_Node000004_Node000007" class="edge">
<title>Node4&#45;&gt;Node7</title>
<g id="a_edge8_Node000004_Node000007"><a xlink:title=" ">
<path fill="none" stroke="#63b8ff" d="M130.48,-109.98C148.98,-101.46 177.68,-88.23 198.98,-78.41"/>
<polygon fill="#63b8ff" stroke="#63b8ff" points="200.57,-81.53 208.19,-74.17 197.64,-75.18 200.57,-81.53"/>
</a>
</g>
</g>
<!-- Node5&#45;&gt;Node3 -->
<g id="edge6_Node000005_Node000003" class="edge">
<title>Node5&#45;&gt;Node3</title>
<g id="a_edge6_Node000005_Node000003"><a xlink:title=" ">
<path fill="none" stroke="#63b8ff" d="M112.47,-54.98C100.6,-46.92 82.54,-34.65 68.39,-25.03"/>
<polygon fill="#63b8ff" stroke="#63b8ff" points="70,-21.9 59.76,-19.17 66.06,-27.69 70,-21.9"/>
</a>
</g>
</g>
<!-- Node6 -->
<g id="Node000006" class="node">
<title>Node6</title>
<g id="a_Node000006"><a xlink:title=" ">
<polygon fill="#e0e0e0" stroke="#999999" points="189.5,-19 88.5,-19 88.5,0 189.5,0 189.5,-19"/>
<text text-anchor="middle" x="139" y="-7" font-family="Helvetica,sans-Serif" font-size="10.00">hardware/timer.h</text>
</a>
</g>
</g>
<!-- Node5&#45;&gt;Node6 -->
<g id="edge7_Node000005_Node000006" class="edge">
<title>Node5&#45;&gt;Node6</title>
<g id="a_edge7_Node000005_Node000006"><a xlink:title=" ">
<path fill="none" stroke="#63b8ff" d="M127.31,-54.75C129.17,-47.72 131.84,-37.62 134.15,-28.84"/>
<polygon fill="#63b8ff" stroke="#63b8ff" points="137.56,-29.65 136.73,-19.09 130.79,-27.86 137.56,-29.65"/>
</a>
</g>
</g>
</g>
</svg>
