<?xml version="1.0" encoding="UTF-8" standalone="no"?>
<!DOCTYPE svg PUBLIC "-//W3C//DTD SVG 1.1//EN"
 "http://www.w3.org/Graphics/SVG/1.1/DTD/svg11.dtd">
<!-- Generated by graphviz version 2.43.0 (0)
 -->
<!-- Title: cybt_shared_bus_driver.c Pages: 1 -->
<svg width="732pt" height="137pt"
 viewBox="0.00 0.00 731.50 137.00" xmlns="http://www.w3.org/2000/svg" xmlns:xlink="http://www.w3.org/1999/xlink">
<g id="graph0" class="graph" transform="scale(1 1) rotate(0) translate(4 133)">
<title>cybt_shared_bus_driver.c</title>
<!-- Node1 -->
<g id="Node000001" class="node">
<title>Node1</title>
<g id="a_Node000001"><a xlink:title=" ">
<polygon fill="#999999" stroke="#666666" points="385.5,-129 245.5,-129 245.5,-110 385.5,-110 385.5,-129"/>
<text text-anchor="middle" x="315.5" y="-117" font-family="Helvetica,sans-Serif" font-size="10.00">cybt_shared_bus_driver.c</text>
</a>
</g>
</g>
<!-- Node2 -->
<g id="Node000002" class="node">
<title>Node2</title>
<g id="a_Node000002"><a xlink:title=" ">
<polygon fill="#e0e0e0" stroke="#999999" points="65,-74 0,-74 0,-55 65,-55 65,-74"/>
<text text-anchor="middle" x="32.5" y="-62" font-family="Helvetica,sans-Serif" font-size="10.00">inttypes.h</text>
</a>
</g>
</g>
<!-- Node1&#45;&gt;Node2 -->
<g id="edge1_Node000001_Node000002" class="edge">
<title>Node1&#45;&gt;Node2</title>
<g id="a_edge1_Node000001_Node000002"><a xlink:title=" ">
<path fill="none" stroke="#63b8ff" d="M267.9,-109.96C221.34,-101.55 148.17,-88.18 74.91,-74.05"/>
<polygon fill="#63b8ff" stroke="#63b8ff" points="75.53,-70.61 65.05,-72.14 74.2,-77.48 75.53,-70.61"/>
</a>
</g>
</g>
<!-- Node3 -->
<g id="Node000003" class="node">
<title>Node3</title>
<g id="a_Node000003"><a xlink:title=" ">
<polygon fill="#e0e0e0" stroke="#999999" points="139.5,-74 83.5,-74 83.5,-55 139.5,-55 139.5,-74"/>
<text text-anchor="middle" x="111.5" y="-62" font-family="Helvetica,sans-Serif" font-size="10.00">stddef.h</text>
</a>
</g>
</g>
<!-- Node1&#45;&gt;Node3 -->
<g id="edge2_Node000001_Node000003" class="edge">
<title>Node1&#45;&gt;Node3</title>
<g id="a_edge2_Node000001_Node000003"><a xlink:title=" ">
<path fill="none" stroke="#63b8ff" d="M282.72,-109.98C246.33,-100.53 187.68,-85.29 149.35,-75.33"/>
<polygon fill="#63b8ff" stroke="#63b8ff" points="150.16,-71.93 139.6,-72.8 148.4,-78.7 150.16,-71.93"/>
</a>
</g>
</g>
<!-- Node4 -->
<g id="Node000004" class="node">
<title>Node4</title>
<g id="a_Node000004"><a xlink:href="assert_8h.html" target="_top" xlink:title=" ">
<polygon fill="white" stroke="#666666" points="213.5,-74 157.5,-74 157.5,-55 213.5,-55 213.5,-74"/>
<text text-anchor="middle" x="185.5" y="-62" font-family="Helvetica,sans-Serif" font-size="10.00">assert.h</text>
</a>
</g>
</g>
<!-- Node1&#45;&gt;Node4 -->
<g id="edge3_Node000001_Node000004" class="edge">
<title>Node1&#45;&gt;Node4</title>
<g id="a_edge3_Node000001_Node000004"><a xlink:title=" ">
<path fill="none" stroke="#63b8ff" d="M294.61,-109.98C273.42,-101.34 240.37,-87.87 216.2,-78.02"/>
<polygon fill="#63b8ff" stroke="#63b8ff" points="217.35,-74.7 206.77,-74.17 214.71,-81.19 217.35,-74.7"/>
</a>
</g>
</g>
<!-- Node6 -->
<g id="Node000006" class="node">
<title>Node6</title>
<g id="a_Node000006"><a xlink:title=" ">
<polygon fill="#e0e0e0" stroke="#999999" points="303,-74 250,-74 250,-55 303,-55 303,-74"/>
<text text-anchor="middle" x="276.5" y="-62" font-family="Helvetica,sans-Serif" font-size="10.00">string.h</text>
</a>
</g>
</g>
<!-- Node1&#45;&gt;Node6 -->
<g id="edge6_Node000001_Node000006" class="edge">
<title>Node1&#45;&gt;Node6</title>
<g id="a_edge6_Node000001_Node000006"><a xlink:title=" ">
<path fill="none" stroke="#63b8ff" d="M309.06,-109.75C303.61,-102.34 295.64,-91.5 288.94,-82.41"/>
<polygon fill="#63b8ff" stroke="#63b8ff" points="291.57,-80.07 282.82,-74.09 285.93,-84.22 291.57,-80.07"/>
</a>
</g>
</g>
<!-- Node7 -->
<g id="Node000007" class="node">
<title>Node7</title>
<g id="a_Node000007"><a xlink:title=" ">
<polygon fill="#e0e0e0" stroke="#999999" points="389.5,-74 321.5,-74 321.5,-55 389.5,-55 389.5,-74"/>
<text text-anchor="middle" x="355.5" y="-62" font-family="Helvetica,sans-Serif" font-size="10.00">cyw43_ll.h</text>
</a>
</g>
</g>
<!-- Node1&#45;&gt;Node7 -->
<g id="edge7_Node000001_Node000007" class="edge">
<title>Node1&#45;&gt;Node7</title>
<g id="a_edge7_Node000001_Node000007"><a xlink:title=" ">
<path fill="none" stroke="#63b8ff" d="M322.11,-109.75C327.76,-102.26 336.04,-91.28 342.95,-82.13"/>
<polygon fill="#63b8ff" stroke="#63b8ff" points="345.79,-84.18 349.02,-74.09 340.2,-79.96 345.79,-84.18"/>
</a>
</g>
</g>
<!-- Node8 -->
<g id="Node000008" class="node">
<title>Node8</title>
<g id="a_Node000008"><a xlink:href="cybt__shared__bus__driver_8h.html" target="_top" xlink:title=" ">
<polygon fill="white" stroke="#666666" points="549,-74 408,-74 408,-55 549,-55 549,-74"/>
<text text-anchor="middle" x="478.5" y="-62" font-family="Helvetica,sans-Serif" font-size="10.00">cybt_shared_bus_driver.h</text>
</a>
</g>
</g>
<!-- Node1&#45;&gt;Node8 -->
<g id="edge8_Node000001_Node000008" class="edge">
<title>Node1&#45;&gt;Node8</title>
<g id="a_edge8_Node000001_Node000008"><a xlink:title=" ">
<path fill="none" stroke="#63b8ff" d="M341.69,-109.98C368.94,-101.13 411.8,-87.19 442.28,-77.28"/>
<polygon fill="#63b8ff" stroke="#63b8ff" points="443.68,-80.5 452.11,-74.08 441.51,-73.85 443.68,-80.5"/>
</a>
</g>
</g>
<!-- Node9 -->
<g id="Node000009" class="node">
<title>Node9</title>
<g id="a_Node000009"><a xlink:href="cybt__logging_8h.html" target="_top" xlink:title=" ">
<polygon fill="white" stroke="#666666" points="655.5,-74 567.5,-74 567.5,-55 655.5,-55 655.5,-74"/>
<text text-anchor="middle" x="611.5" y="-62" font-family="Helvetica,sans-Serif" font-size="10.00">cybt_logging.h</text>
</a>
</g>
</g>
<!-- Node1&#45;&gt;Node9 -->
<g id="edge9_Node000001_Node000009" class="edge">
<title>Node1&#45;&gt;Node9</title>
<g id="a_edge9_Node000001_Node000009"><a xlink:title=" ">
<path fill="none" stroke="#63b8ff" d="M363.06,-109.98C416.13,-100.48 501.85,-85.13 557.43,-75.18"/>
<polygon fill="#63b8ff" stroke="#63b8ff" points="558.22,-78.6 567.44,-73.39 556.98,-71.71 558.22,-78.6"/>
</a>
</g>
</g>
<!-- Node10 -->
<g id="Node000010" class="node">
<title>Node10</title>
<g id="a_Node000010"><a xlink:title=" ">
<polygon fill="#e0e0e0" stroke="#999999" points="723.5,-74 673.5,-74 673.5,-55 723.5,-55 723.5,-74"/>
<text text-anchor="middle" x="698.5" y="-62" font-family="Helvetica,sans-Serif" font-size="10.00">stdio.h</text>
</a>
</g>
</g>
<!-- Node1&#45;&gt;Node10 -->
<g id="edge10_Node000001_Node000010" class="edge">
<title>Node1&#45;&gt;Node10</title>
<g id="a_edge10_Node000001_Node000010"><a xlink:title=" ">
<path fill="none" stroke="#63b8ff" d="M385.74,-112.01C454.28,-105.11 561.64,-92.83 663.48,-73.99"/>
<polygon fill="#63b8ff" stroke="#63b8ff" points="664.14,-77.43 673.32,-72.15 662.85,-70.55 664.14,-77.43"/>
</a>
</g>
</g>
<!-- Node4&#45;&gt;Node4 -->
<g id="edge5_Node000004_Node000004" class="edge">
<title>Node4&#45;&gt;Node4</title>
<g id="a_edge5_Node000004_Node000004"><a xlink:title=" ">
<path fill="none" stroke="#63b8ff" d="M207.27,-74.07C219.82,-76.02 231.5,-72.83 231.5,-64.5 231.5,-58.51 225.47,-55.18 217.41,-54.5"/>
<polygon fill="#63b8ff" stroke="#63b8ff" points="217.11,-51.01 207.27,-54.93 217.41,-58.01 217.11,-51.01"/>
</a>
</g>
</g>
<!-- Node5 -->
<g id="Node000005" class="node">
<title>Node5</title>
<g id="a_Node000005"><a xlink:title=" ">
<polygon fill="#e0e0e0" stroke="#999999" points="216.5,-19 154.5,-19 154.5,0 216.5,0 216.5,-19"/>
<text text-anchor="middle" x="185.5" y="-7" font-family="Helvetica,sans-Serif" font-size="10.00">stdbool.h</text>
</a>
</g>
</g>
<!-- Node4&#45;&gt;Node5 -->
<g id="edge4_Node000004_Node000005" class="edge">
<title>Node4&#45;&gt;Node5</title>
<g id="a_edge4_Node000004_Node000005"><a xlink:title=" ">
<path fill="none" stroke="#63b8ff" d="M185.5,-54.75C185.5,-47.8 185.5,-37.85 185.5,-29.13"/>
<polygon fill="#63b8ff" stroke="#63b8ff" points="189,-29.09 185.5,-19.09 182,-29.09 189,-29.09"/>
</a>
</g>
</g>
</g>
</svg>
