<?xml version="1.0" encoding="UTF-8" standalone="no"?>
<!DOCTYPE svg PUBLIC "-//W3C//DTD SVG 1.1//EN"
 "http://www.w3.org/Graphics/SVG/1.1/DTD/svg11.dtd">
<!-- Generated by graphviz version 2.43.0 (0)
 -->
<!-- Title: cyw43_configport.h Pages: 1 -->
<svg width="219pt" height="137pt"
 viewBox="0.00 0.00 219.44 137.00" xmlns="http://www.w3.org/2000/svg" xmlns:xlink="http://www.w3.org/1999/xlink">
<g id="graph0" class="graph" transform="scale(1 1) rotate(0) translate(4 133)">
<title>cyw43_configport.h</title>
<!-- Node1 -->
<g id="Node000001" class="node">
<title>Node1</title>
<g id="a_Node000001"><a xlink:title=" ">
<polygon fill="#999999" stroke="#666666" points="115.94,-129 3.94,-129 3.94,-110 115.94,-110 115.94,-129"/>
<text text-anchor="middle" x="59.94" y="-117" font-family="Helvetica,sans-Serif" font-size="10.00">cyw43_configport.h</text>
</a>
</g>
</g>
<!-- Node2 -->
<g id="Node000002" class="node">
<title>Node2</title>
<g id="a_Node000002"><a xlink:title=" ">
<polygon fill="#e0e0e0" stroke="#999999" points="49.94,-19 3.94,-19 3.94,0 49.94,0 49.94,-19"/>
<text text-anchor="middle" x="26.94" y="-7" font-family="Helvetica,sans-Serif" font-size="10.00">pico.h</text>
</a>
</g>
</g>
<!-- Node1&#45;&gt;Node2 -->
<g id="edge1_Node000001_Node000002" class="edge">
<title>Node1&#45;&gt;Node2</title>
<g id="a_edge1_Node000001_Node000002"><a xlink:title=" ">
<path fill="none" stroke="#63b8ff" d="M41.58,-109.88C28.15,-102.46 10.92,-90.36 2.94,-74 -4.54,-58.68 4.09,-40.4 13.02,-27.4"/>
<polygon fill="#63b8ff" stroke="#63b8ff" points="15.86,-29.45 19.05,-19.34 10.25,-25.25 15.86,-29.45"/>
</a>
</g>
</g>
<!-- Node3 -->
<g id="Node000003" class="node">
<title>Node3</title>
<g id="a_Node000003"><a xlink:title=" ">
<polygon fill="#e0e0e0" stroke="#999999" points="107.44,-74 12.44,-74 12.44,-55 107.44,-55 107.44,-74"/>
<text text-anchor="middle" x="59.94" y="-62" font-family="Helvetica,sans-Serif" font-size="10.00">hardware/gpio.h</text>
</a>
</g>
</g>
<!-- Node1&#45;&gt;Node3 -->
<g id="edge2_Node000001_Node000003" class="edge">
<title>Node1&#45;&gt;Node3</title>
<g id="a_edge2_Node000001_Node000003"><a xlink:title=" ">
<path fill="none" stroke="#63b8ff" d="M59.94,-109.75C59.94,-102.8 59.94,-92.85 59.94,-84.13"/>
<polygon fill="#63b8ff" stroke="#63b8ff" points="63.44,-84.09 59.94,-74.09 56.44,-84.09 63.44,-84.09"/>
</a>
</g>
</g>
<!-- Node4 -->
<g id="Node000004" class="node">
<title>Node4</title>
<g id="a_Node000004"><a xlink:href="common_2pico__time_2include_2pico_2time_8h.html" target="_top" xlink:title=" ">
<polygon fill="white" stroke="#666666" points="196.44,-74 125.44,-74 125.44,-55 196.44,-55 196.44,-74"/>
<text text-anchor="middle" x="160.94" y="-62" font-family="Helvetica,sans-Serif" font-size="10.00">pico/time.h</text>
</a>
</g>
</g>
<!-- Node1&#45;&gt;Node4 -->
<g id="edge3_Node000001_Node000004" class="edge">
<title>Node1&#45;&gt;Node4</title>
<g id="a_edge3_Node000001_Node000004"><a xlink:title=" ">
<path fill="none" stroke="#63b8ff" d="M76.16,-109.98C92.12,-101.61 116.72,-88.7 135.31,-78.95"/>
<polygon fill="#63b8ff" stroke="#63b8ff" points="137.18,-81.92 144.41,-74.17 133.93,-75.72 137.18,-81.92"/>
</a>
</g>
</g>
<!-- Node4&#45;&gt;Node2 -->
<g id="edge4_Node000004_Node000002" class="edge">
<title>Node4&#45;&gt;Node2</title>
<g id="a_edge4_Node000004_Node000002"><a xlink:title=" ">
<path fill="none" stroke="#63b8ff" d="M139.41,-54.98C117.46,-46.3 83.19,-32.75 58.25,-22.88"/>
<polygon fill="#63b8ff" stroke="#63b8ff" points="59.44,-19.59 48.86,-19.17 56.87,-26.1 59.44,-19.59"/>
</a>
</g>
</g>
<!-- Node5 -->
<g id="Node000005" class="node">
<title>Node5</title>
<g id="a_Node000005"><a xlink:title=" ">
<polygon fill="#e0e0e0" stroke="#999999" points="211.44,-19 110.44,-19 110.44,0 211.44,0 211.44,-19"/>
<text text-anchor="middle" x="160.94" y="-7" font-family="Helvetica,sans-Serif" font-size="10.00">hardware/timer.h</text>
</a>
</g>
</g>
<!-- Node4&#45;&gt;Node5 -->
<g id="edge5_Node000004_Node000005" class="edge">
<title>Node4&#45;&gt;Node5</title>
<g id="a_edge5_Node000004_Node000005"><a xlink:title=" ">
<path fill="none" stroke="#63b8ff" d="M160.94,-54.75C160.94,-47.8 160.94,-37.85 160.94,-29.13"/>
<polygon fill="#63b8ff" stroke="#63b8ff" points="164.44,-29.09 160.94,-19.09 157.44,-29.09 164.44,-29.09"/>
</a>
</g>
</g>
</g>
</svg>
