<?xml version="1.0" encoding="UTF-8" standalone="no"?>
<!DOCTYPE svg PUBLIC "-//W3C//DTD SVG 1.1//EN"
 "http://www.w3.org/Graphics/SVG/1.1/DTD/svg11.dtd">
<!-- Generated by graphviz version 2.43.0 (0)
 -->
<!-- Title: cyw43_arch.h Pages: 1 -->
<svg width="332pt" height="192pt"
 viewBox="0.00 0.00 332.13 192.00" xmlns="http://www.w3.org/2000/svg" xmlns:xlink="http://www.w3.org/1999/xlink">
<g id="graph0" class="graph" transform="scale(1 1) rotate(0) translate(4 188)">
<title>cyw43_arch.h</title>
<!-- Node1 -->
<g id="Node000001" class="node">
<title>Node1</title>
<g id="a_Node000001"><a xlink:title=" ">
<polygon fill="#999999" stroke="#666666" points="131.13,-184 48.13,-184 48.13,-165 131.13,-165 131.13,-184"/>
<text text-anchor="middle" x="89.63" y="-172" font-family="Helvetica,sans-Serif" font-size="10.00">cyw43_arch.h</text>
</a>
</g>
</g>
<!-- Node2 -->
<g id="Node000002" class="node">
<title>Node2</title>
<g id="a_Node000002"><a xlink:title=" ">
<polygon fill="#e0e0e0" stroke="#999999" points="202.63,-19 156.63,-19 156.63,0 202.63,0 202.63,-19"/>
<text text-anchor="middle" x="179.63" y="-7" font-family="Helvetica,sans-Serif" font-size="10.00">pico.h</text>
</a>
</g>
</g>
<!-- Node1&#45;&gt;Node2 -->
<g id="edge1_Node000001_Node000002" class="edge">
<title>Node1&#45;&gt;Node2</title>
<g id="a_edge1_Node000001_Node000002"><a xlink:title=" ">
<path fill="none" stroke="#63b8ff" d="M58.35,-164.98C27.9,-154.96 -11.71,-136.29 3.63,-110 34.43,-57.2 104.76,-30.19 146.6,-18.32"/>
<polygon fill="#63b8ff" stroke="#63b8ff" points="147.59,-21.68 156.33,-15.69 145.76,-14.92 147.59,-21.68"/>
</a>
</g>
</g>
<!-- Node3 -->
<g id="Node000003" class="node">
<title>Node3</title>
<g id="a_Node000003"><a xlink:title=" ">
<polygon fill="#e0e0e0" stroke="#999999" points="70.13,-129 13.13,-129 13.13,-110 70.13,-110 70.13,-129"/>
<text text-anchor="middle" x="41.63" y="-117" font-family="Helvetica,sans-Serif" font-size="10.00">cyw43.h</text>
</a>
</g>
</g>
<!-- Node1&#45;&gt;Node3 -->
<g id="edge2_Node000001_Node000003" class="edge">
<title>Node1&#45;&gt;Node3</title>
<g id="a_edge2_Node000001_Node000003"><a xlink:title=" ">
<path fill="none" stroke="#63b8ff" d="M81.7,-164.75C74.78,-157.11 64.56,-145.82 56.17,-136.56"/>
<polygon fill="#63b8ff" stroke="#63b8ff" points="58.71,-134.15 49.41,-129.09 53.52,-138.85 58.71,-134.15"/>
</a>
</g>
</g>
<!-- Node4 -->
<g id="Node000004" class="node">
<title>Node4</title>
<g id="a_Node000004"><a xlink:title=" ">
<polygon fill="#e0e0e0" stroke="#999999" points="186.63,-129 88.63,-129 88.63,-110 186.63,-110 186.63,-129"/>
<text text-anchor="middle" x="137.63" y="-117" font-family="Helvetica,sans-Serif" font-size="10.00">cyw43_country.h</text>
</a>
</g>
</g>
<!-- Node1&#45;&gt;Node4 -->
<g id="edge3_Node000001_Node000004" class="edge">
<title>Node1&#45;&gt;Node4</title>
<g id="a_edge3_Node000001_Node000004"><a xlink:title=" ">
<path fill="none" stroke="#63b8ff" d="M97.55,-164.75C104.47,-157.11 114.69,-145.82 123.08,-136.56"/>
<polygon fill="#63b8ff" stroke="#63b8ff" points="125.73,-138.85 129.85,-129.09 120.54,-134.15 125.73,-138.85"/>
</a>
</g>
</g>
<!-- Node5 -->
<g id="Node000005" class="node">
<title>Node5</title>
<g id="a_Node000005"><a xlink:href="async__context_8h.html" target="_top" xlink:title=" ">
<polygon fill="white" stroke="#666666" points="324.13,-129 205.13,-129 205.13,-110 324.13,-110 324.13,-129"/>
<text text-anchor="middle" x="264.63" y="-117" font-family="Helvetica,sans-Serif" font-size="10.00">pico/async_context.h</text>
</a>
</g>
</g>
<!-- Node1&#45;&gt;Node5 -->
<g id="edge4_Node000001_Node000005" class="edge">
<title>Node1&#45;&gt;Node5</title>
<g id="a_edge4_Node000001_Node000005"><a xlink:title=" ">
<path fill="none" stroke="#63b8ff" d="M117.74,-164.98C147.25,-156.05 193.82,-141.94 226.59,-132.02"/>
<polygon fill="#63b8ff" stroke="#63b8ff" points="227.73,-135.33 236.29,-129.08 225.7,-128.63 227.73,-135.33"/>
</a>
</g>
</g>
<!-- Node5&#45;&gt;Node2 -->
<g id="edge5_Node000005_Node000002" class="edge">
<title>Node5&#45;&gt;Node2</title>
<g id="a_edge5_Node000005_Node000002"><a xlink:title=" ">
<path fill="none" stroke="#63b8ff" d="M254.94,-109.81C245.62,-101.2 231.37,-87.39 220.63,-74 208.84,-59.32 197.39,-41.16 189.6,-28.02"/>
<polygon fill="#63b8ff" stroke="#63b8ff" points="192.46,-25.98 184.41,-19.1 186.41,-29.5 192.46,-25.98"/>
</a>
</g>
</g>
<!-- Node6 -->
<g id="Node000006" class="node">
<title>Node6</title>
<g id="a_Node000006"><a xlink:href="common_2pico__time_2include_2pico_2time_8h.html" target="_top" xlink:title=" ">
<polygon fill="white" stroke="#666666" points="300.13,-74 229.13,-74 229.13,-55 300.13,-55 300.13,-74"/>
<text text-anchor="middle" x="264.63" y="-62" font-family="Helvetica,sans-Serif" font-size="10.00">pico/time.h</text>
</a>
</g>
</g>
<!-- Node5&#45;&gt;Node6 -->
<g id="edge6_Node000005_Node000006" class="edge">
<title>Node5&#45;&gt;Node6</title>
<g id="a_edge6_Node000005_Node000006"><a xlink:title=" ">
<path fill="none" stroke="#63b8ff" d="M264.63,-109.75C264.63,-102.8 264.63,-92.85 264.63,-84.13"/>
<polygon fill="#63b8ff" stroke="#63b8ff" points="268.13,-84.09 264.63,-74.09 261.13,-84.09 268.13,-84.09"/>
</a>
</g>
</g>
<!-- Node6&#45;&gt;Node2 -->
<g id="edge7_Node000006_Node000002" class="edge">
<title>Node6&#45;&gt;Node2</title>
<g id="a_edge7_Node000006_Node000002"><a xlink:title=" ">
<path fill="none" stroke="#63b8ff" d="M250.97,-54.98C237.79,-46.77 217.6,-34.18 202.06,-24.49"/>
<polygon fill="#63b8ff" stroke="#63b8ff" points="203.87,-21.49 193.53,-19.17 200.17,-27.43 203.87,-21.49"/>
</a>
</g>
</g>
<!-- Node7 -->
<g id="Node000007" class="node">
<title>Node7</title>
<g id="a_Node000007"><a xlink:title=" ">
<polygon fill="#e0e0e0" stroke="#999999" points="322.13,-19 221.13,-19 221.13,0 322.13,0 322.13,-19"/>
<text text-anchor="middle" x="271.63" y="-7" font-family="Helvetica,sans-Serif" font-size="10.00">hardware/timer.h</text>
</a>
</g>
</g>
<!-- Node6&#45;&gt;Node7 -->
<g id="edge8_Node000006_Node000007" class="edge">
<title>Node6&#45;&gt;Node7</title>
<g id="a_edge8_Node000006_Node000007"><a xlink:title=" ">
<path fill="none" stroke="#63b8ff" d="M265.78,-54.75C266.7,-47.8 268.02,-37.85 269.17,-29.13"/>
<polygon fill="#63b8ff" stroke="#63b8ff" points="272.65,-29.46 270.49,-19.09 265.71,-28.54 272.65,-29.46"/>
</a>
</g>
</g>
</g>
</svg>
