<?xml version="1.0" encoding="UTF-8" standalone="no"?>
<!DOCTYPE svg PUBLIC "-//W3C//DTD SVG 1.1//EN"
 "http://www.w3.org/Graphics/SVG/1.1/DTD/svg11.dtd">
<!-- Generated by graphviz version 2.43.0 (0)
 -->
<!-- Title: cyw43_partition_firmware.h Pages: 1 -->
<svg width="514pt" height="302pt"
 viewBox="0.00 0.00 513.80 302.00" xmlns="http://www.w3.org/2000/svg" xmlns:xlink="http://www.w3.org/1999/xlink">
<g id="graph0" class="graph" transform="scale(1 1) rotate(0) translate(4 298)">
<title>cyw43_partition_firmware.h</title>
<!-- Node1 -->
<g id="Node000001" class="node">
<title>Node1</title>
<g id="a_Node000001"><a xlink:title=" ">
<polygon fill="#999999" stroke="#666666" points="243.5,-294 90.5,-294 90.5,-275 243.5,-275 243.5,-294"/>
<text text-anchor="middle" x="167" y="-282" font-family="Helvetica,sans-Serif" font-size="10.00">cyw43_partition_firmware.h</text>
</a>
</g>
</g>
<!-- Node2 -->
<g id="Node000002" class="node">
<title>Node2</title>
<g id="a_Node000002"><a xlink:href="picobin_8h.html" target="_top" xlink:title=" ">
<polygon fill="white" stroke="#666666" points="133,-239 47,-239 47,-220 133,-220 133,-239"/>
<text text-anchor="middle" x="90" y="-227" font-family="Helvetica,sans-Serif" font-size="10.00">boot/picobin.h</text>
</a>
</g>
</g>
<!-- Node1&#45;&gt;Node2 -->
<g id="edge1_Node000001_Node000002" class="edge">
<title>Node1&#45;&gt;Node2</title>
<g id="a_edge1_Node000001_Node000002"><a xlink:title=" ">
<path fill="none" stroke="#63b8ff" d="M154.63,-274.98C142.91,-266.92 125.08,-254.65 111.11,-245.03"/>
<polygon fill="#63b8ff" stroke="#63b8ff" points="112.82,-241.96 102.6,-239.17 108.85,-247.72 112.82,-241.96"/>
</a>
</g>
</g>
<!-- Node5 -->
<g id="Node000005" class="node">
<title>Node5</title>
<g id="a_Node000005"><a xlink:href="bootrom_8h.html" target="_top" xlink:title=" ">
<polygon fill="white" stroke="#666666" points="338,-239 248,-239 248,-220 338,-220 338,-239"/>
<text text-anchor="middle" x="293" y="-227" font-family="Helvetica,sans-Serif" font-size="10.00">pico/bootrom.h</text>
</a>
</g>
</g>
<!-- Node1&#45;&gt;Node5 -->
<g id="edge4_Node000001_Node000005" class="edge">
<title>Node1&#45;&gt;Node5</title>
<g id="a_edge4_Node000001_Node000005"><a xlink:title=" ">
<path fill="none" stroke="#63b8ff" d="M187.24,-274.98C207.7,-266.38 239.53,-252.99 262.93,-243.15"/>
<polygon fill="#63b8ff" stroke="#63b8ff" points="264.53,-246.27 272.39,-239.17 261.81,-239.82 264.53,-246.27"/>
</a>
</g>
</g>
<!-- Node3 -->
<g id="Node000003" class="node">
<title>Node3</title>
<g id="a_Node000003"><a xlink:title=" ">
<polygon fill="#e0e0e0" stroke="#999999" points="185.5,-19 94.5,-19 94.5,0 185.5,0 185.5,-19"/>
<text text-anchor="middle" x="140" y="-7" font-family="Helvetica,sans-Serif" font-size="10.00">pico/platform.h</text>
</a>
</g>
</g>
<!-- Node2&#45;&gt;Node3 -->
<g id="edge2_Node000002_Node000003" class="edge">
<title>Node2&#45;&gt;Node3</title>
<g id="a_edge2_Node000002_Node000003"><a xlink:title=" ">
<path fill="none" stroke="#63b8ff" d="M89.47,-219.85C88.2,-193.91 86.55,-114.87 109,-55 112.75,-45.01 119.25,-35.14 125.34,-27.25"/>
<polygon fill="#63b8ff" stroke="#63b8ff" points="128.24,-29.23 131.87,-19.27 122.82,-24.79 128.24,-29.23"/>
</a>
</g>
</g>
<!-- Node4 -->
<g id="Node000004" class="node">
<title>Node4</title>
<g id="a_Node000004"><a xlink:title=" ">
<polygon fill="#e0e0e0" stroke="#999999" points="62,-184 0,-184 0,-165 62,-165 62,-184"/>
<text text-anchor="middle" x="31" y="-172" font-family="Helvetica,sans-Serif" font-size="10.00">stdbool.h</text>
</a>
</g>
</g>
<!-- Node2&#45;&gt;Node4 -->
<g id="edge3_Node000002_Node000004" class="edge">
<title>Node2&#45;&gt;Node4</title>
<g id="a_edge3_Node000002_Node000004"><a xlink:title=" ">
<path fill="none" stroke="#63b8ff" d="M80.52,-219.98C71.8,-212.15 58.66,-200.34 48.1,-190.86"/>
<polygon fill="#63b8ff" stroke="#63b8ff" points="50.43,-188.25 40.65,-184.17 45.75,-193.46 50.43,-188.25"/>
</a>
</g>
</g>
<!-- Node6 -->
<g id="Node000006" class="node">
<title>Node6</title>
<g id="a_Node000006"><a xlink:title=" ">
<polygon fill="#e0e0e0" stroke="#999999" points="480,-74 434,-74 434,-55 480,-55 480,-74"/>
<text text-anchor="middle" x="457" y="-62" font-family="Helvetica,sans-Serif" font-size="10.00">pico.h</text>
</a>
</g>
</g>
<!-- Node5&#45;&gt;Node6 -->
<g id="edge5_Node000005_Node000006" class="edge">
<title>Node5&#45;&gt;Node6</title>
<g id="a_edge5_Node000005_Node000006"><a xlink:title=" ">
<path fill="none" stroke="#63b8ff" d="M338.02,-223.24C390.25,-214.32 473.02,-190.68 503,-129 511.79,-110.92 495.13,-92.57 479.47,-80.28"/>
<polygon fill="#63b8ff" stroke="#63b8ff" points="481.17,-77.19 471.03,-74.11 477.04,-82.84 481.17,-77.19"/>
</a>
</g>
</g>
<!-- Node7 -->
<g id="Node000007" class="node">
<title>Node7</title>
<g id="a_Node000007"><a xlink:href="pico__bootrom_2include_2pico_2bootrom__constants_8h.html" target="_top" xlink:title=" ">
<polygon fill="white" stroke="#666666" points="261.5,-129 118.5,-129 118.5,-110 261.5,-110 261.5,-129"/>
<text text-anchor="middle" x="190" y="-117" font-family="Helvetica,sans-Serif" font-size="10.00">pico/bootrom_constants.h</text>
</a>
</g>
</g>
<!-- Node5&#45;&gt;Node7 -->
<g id="edge6_Node000005_Node000007" class="edge">
<title>Node5&#45;&gt;Node7</title>
<g id="a_edge6_Node000005_Node000007"><a xlink:title=" ">
<path fill="none" stroke="#63b8ff" d="M263.06,-219.92C244.36,-213.09 221.23,-201.68 207,-184 196.83,-171.36 192.71,-153.17 191.06,-139.5"/>
<polygon fill="#63b8ff" stroke="#63b8ff" points="194.53,-138.95 190.18,-129.29 187.55,-139.56 194.53,-138.95"/>
</a>
</g>
</g>
<!-- Node9 -->
<g id="Node000009" class="node">
<title>Node9</title>
<g id="a_Node000009"><a xlink:title=" ">
<polygon fill="#e0e0e0" stroke="#999999" points="269.5,-184 216.5,-184 216.5,-165 269.5,-165 269.5,-184"/>
<text text-anchor="middle" x="243" y="-172" font-family="Helvetica,sans-Serif" font-size="10.00">string.h</text>
</a>
</g>
</g>
<!-- Node5&#45;&gt;Node9 -->
<g id="edge9_Node000005_Node000009" class="edge">
<title>Node5&#45;&gt;Node9</title>
<g id="a_edge9_Node000005_Node000009"><a xlink:title=" ">
<path fill="none" stroke="#63b8ff" d="M284.74,-219.75C277.54,-212.11 266.89,-200.82 258.15,-191.56"/>
<polygon fill="#63b8ff" stroke="#63b8ff" points="260.51,-188.96 251.1,-184.09 255.42,-193.76 260.51,-188.96"/>
</a>
</g>
</g>
<!-- Node10 -->
<g id="Node000010" class="node">
<title>Node10</title>
<g id="a_Node000010"><a xlink:href="lock_8h.html" target="_top" xlink:title=" ">
<polygon fill="white" stroke="#666666" points="400.5,-184 287.5,-184 287.5,-165 400.5,-165 400.5,-184"/>
<text text-anchor="middle" x="344" y="-172" font-family="Helvetica,sans-Serif" font-size="10.00">pico/bootrom/lock.h</text>
</a>
</g>
</g>
<!-- Node5&#45;&gt;Node10 -->
<g id="edge10_Node000005_Node000010" class="edge">
<title>Node5&#45;&gt;Node10</title>
<g id="a_edge10_Node000005_Node000010"><a xlink:title=" ">
<path fill="none" stroke="#63b8ff" d="M301.42,-219.75C308.77,-212.11 319.63,-200.82 328.54,-191.56"/>
<polygon fill="#63b8ff" stroke="#63b8ff" points="331.32,-193.72 335.74,-184.09 326.28,-188.87 331.32,-193.72"/>
</a>
</g>
</g>
<!-- Node12 -->
<g id="Node000012" class="node">
<title>Node12</title>
<g id="a_Node000012"><a xlink:href="pico__flash_2include_2pico_2flash_8h.html" target="_top" xlink:title=" ">
<polygon fill="white" stroke="#666666" points="493.5,-129 420.5,-129 420.5,-110 493.5,-110 493.5,-129"/>
<text text-anchor="middle" x="457" y="-117" font-family="Helvetica,sans-Serif" font-size="10.00">pico/flash.h</text>
</a>
</g>
</g>
<!-- Node5&#45;&gt;Node12 -->
<g id="edge14_Node000005_Node000012" class="edge">
<title>Node5&#45;&gt;Node12</title>
<g id="a_edge14_Node000005_Node000012"><a xlink:title=" ">
<path fill="none" stroke="#63b8ff" d="M331.04,-219.95C355.36,-213.13 386.62,-201.72 410,-184 426.34,-171.61 439.63,-152.04 447.85,-137.9"/>
<polygon fill="#63b8ff" stroke="#63b8ff" points="450.92,-139.57 452.71,-129.13 444.8,-136.18 450.92,-139.57"/>
</a>
</g>
</g>
<!-- Node8 -->
<g id="Node000008" class="node">
<title>Node8</title>
<g id="a_Node000008"><a xlink:href="boot__bootrom__headers_2include_2boot_2bootrom__constants_8h.html" target="_top" xlink:title=" ">
<polygon fill="white" stroke="#666666" points="262,-74 118,-74 118,-55 262,-55 262,-74"/>
<text text-anchor="middle" x="190" y="-62" font-family="Helvetica,sans-Serif" font-size="10.00">boot/bootrom_constants.h</text>
</a>
</g>
</g>
<!-- Node7&#45;&gt;Node8 -->
<g id="edge7_Node000007_Node000008" class="edge">
<title>Node7&#45;&gt;Node8</title>
<g id="a_edge7_Node000007_Node000008"><a xlink:title=" ">
<path fill="none" stroke="#63b8ff" d="M190,-109.75C190,-102.8 190,-92.85 190,-84.13"/>
<polygon fill="#63b8ff" stroke="#63b8ff" points="193.5,-84.09 190,-74.09 186.5,-84.09 193.5,-84.09"/>
</a>
</g>
</g>
<!-- Node8&#45;&gt;Node3 -->
<g id="edge8_Node000008_Node000003" class="edge">
<title>Node8&#45;&gt;Node3</title>
<g id="a_edge8_Node000008_Node000003"><a xlink:title=" ">
<path fill="none" stroke="#63b8ff" d="M181.74,-54.75C174.54,-47.11 163.89,-35.82 155.15,-26.56"/>
<polygon fill="#63b8ff" stroke="#63b8ff" points="157.51,-23.96 148.1,-19.09 152.42,-28.76 157.51,-23.96"/>
</a>
</g>
</g>
<!-- Node10&#45;&gt;Node7 -->
<g id="edge13_Node000010_Node000007" class="edge">
<title>Node10&#45;&gt;Node7</title>
<g id="a_edge13_Node000010_Node000007"><a xlink:title=" ">
<path fill="none" stroke="#63b8ff" d="M319.26,-164.98C293.63,-156.16 253.37,-142.31 224.59,-132.41"/>
<polygon fill="#63b8ff" stroke="#63b8ff" points="225.53,-129.03 214.94,-129.08 223.25,-135.65 225.53,-129.03"/>
</a>
</g>
</g>
<!-- Node11 -->
<g id="Node000011" class="node">
<title>Node11</title>
<g id="a_Node000011"><a xlink:href="boot__lock_8h.html" target="_top" xlink:title=" ">
<polygon fill="white" stroke="#666666" points="402,-129 280,-129 280,-110 402,-110 402,-129"/>
<text text-anchor="middle" x="341" y="-117" font-family="Helvetica,sans-Serif" font-size="10.00">hardware/boot_lock.h</text>
</a>
</g>
</g>
<!-- Node10&#45;&gt;Node11 -->
<g id="edge11_Node000010_Node000011" class="edge">
<title>Node10&#45;&gt;Node11</title>
<g id="a_edge11_Node000010_Node000011"><a xlink:title=" ">
<path fill="none" stroke="#63b8ff" d="M343.5,-164.75C343.11,-157.8 342.55,-147.85 342.05,-139.13"/>
<polygon fill="#63b8ff" stroke="#63b8ff" points="345.55,-138.88 341.49,-129.09 338.56,-139.27 345.55,-138.88"/>
</a>
</g>
</g>
<!-- Node11&#45;&gt;Node6 -->
<g id="edge12_Node000011_Node000006" class="edge">
<title>Node11&#45;&gt;Node6</title>
<g id="a_edge12_Node000011_Node000006"><a xlink:title=" ">
<path fill="none" stroke="#63b8ff" d="M359.64,-109.98C378.3,-101.46 407.25,-88.23 428.74,-78.41"/>
<polygon fill="#63b8ff" stroke="#63b8ff" points="430.38,-81.51 438.02,-74.17 427.47,-75.14 430.38,-81.51"/>
</a>
</g>
</g>
<!-- Node12&#45;&gt;Node6 -->
<g id="edge15_Node000012_Node000006" class="edge">
<title>Node12&#45;&gt;Node6</title>
<g id="a_edge15_Node000012_Node000006"><a xlink:title=" ">
<path fill="none" stroke="#63b8ff" d="M457,-109.75C457,-102.8 457,-92.85 457,-84.13"/>
<polygon fill="#63b8ff" stroke="#63b8ff" points="460.5,-84.09 457,-74.09 453.5,-84.09 460.5,-84.09"/>
</a>
</g>
</g>
</g>
</svg>
