<?xml version="1.0" encoding="UTF-8" standalone="no"?>
<!DOCTYPE svg PUBLIC "-//W3C//DTD SVG 1.1//EN"
 "http://www.w3.org/Graphics/SVG/1.1/DTD/svg11.dtd">
<!-- Generated by graphviz version 2.43.0 (0)
 -->
<!-- Title: cyw43_bus_pio_spi.c Pages: 1 -->
<svg width="1880pt" height="247pt"
 viewBox="0.00 0.00 1879.50 247.00" xmlns="http://www.w3.org/2000/svg" xmlns:xlink="http://www.w3.org/1999/xlink">
<g id="graph0" class="graph" transform="scale(1 1) rotate(0) translate(4 243)">
<title>cyw43_bus_pio_spi.c</title>
<!-- Node1 -->
<g id="Node000001" class="node">
<title>Node1</title>
<g id="a_Node000001"><a xlink:title=" ">
<polygon fill="#999999" stroke="#666666" points="918.5,-239 799.5,-239 799.5,-220 918.5,-220 918.5,-239"/>
<text text-anchor="middle" x="859" y="-227" font-family="Helvetica,sans-Serif" font-size="10.00">cyw43_bus_pio_spi.c</text>
</a>
</g>
</g>
<!-- Node2 -->
<g id="Node000002" class="node">
<title>Node2</title>
<g id="a_Node000002"><a xlink:href="stdlib_8h.html" target="_top" xlink:title=" ">
<polygon fill="white" stroke="#666666" points="297.5,-184 244.5,-184 244.5,-165 297.5,-165 297.5,-184"/>
<text text-anchor="middle" x="271" y="-172" font-family="Helvetica,sans-Serif" font-size="10.00">stdlib.h</text>
</a>
</g>
</g>
<!-- Node1&#45;&gt;Node2 -->
<g id="edge1_Node000001_Node000002" class="edge">
<title>Node1&#45;&gt;Node2</title>
<g id="a_edge1_Node000001_Node000002"><a xlink:title=" ">
<path fill="none" stroke="#63b8ff" d="M799.38,-223.13C678.25,-212.21 406.49,-187.71 307.75,-178.81"/>
<polygon fill="#63b8ff" stroke="#63b8ff" points="307.93,-175.31 297.66,-177.9 307.3,-182.29 307.93,-175.31"/>
</a>
</g>
</g>
<!-- Node7 -->
<g id="Node000007" class="node">
<title>Node7</title>
<g id="a_Node000007"><a xlink:title=" ">
<polygon fill="#e0e0e0" stroke="#999999" points="426.5,-129 331.5,-129 331.5,-110 426.5,-110 426.5,-129"/>
<text text-anchor="middle" x="379" y="-117" font-family="Helvetica,sans-Serif" font-size="10.00">hardware/gpio.h</text>
</a>
</g>
</g>
<!-- Node1&#45;&gt;Node7 -->
<g id="edge11_Node000001_Node000007" class="edge">
<title>Node1&#45;&gt;Node7</title>
<g id="a_edge11_Node000001_Node000007"><a xlink:title=" ">
<path fill="none" stroke="#63b8ff" d="M799.39,-226.09C702.72,-221.49 516.46,-209.55 456,-184 430.95,-173.42 407.68,-151.94 393.41,-136.91"/>
<polygon fill="#63b8ff" stroke="#63b8ff" points="395.8,-134.34 386.46,-129.33 390.64,-139.07 395.8,-134.34"/>
</a>
</g>
</g>
<!-- Node9 -->
<g id="Node000009" class="node">
<title>Node9</title>
<g id="a_Node000009"><a xlink:title=" ">
<polygon fill="#e0e0e0" stroke="#999999" points="518.5,-184 465.5,-184 465.5,-165 518.5,-165 518.5,-184"/>
<text text-anchor="middle" x="492" y="-172" font-family="Helvetica,sans-Serif" font-size="10.00">string.h</text>
</a>
</g>
</g>
<!-- Node1&#45;&gt;Node9 -->
<g id="edge9_Node000001_Node000009" class="edge">
<title>Node1&#45;&gt;Node9</title>
<g id="a_edge9_Node000001_Node000009"><a xlink:title=" ">
<path fill="none" stroke="#63b8ff" d="M799.23,-222.25C734.86,-215.13 629.3,-202.28 528.71,-183.95"/>
<polygon fill="#63b8ff" stroke="#63b8ff" points="529.14,-180.48 518.67,-182.11 527.87,-187.36 529.14,-180.48"/>
</a>
</g>
</g>
<!-- Node10 -->
<g id="Node000010" class="node">
<title>Node10</title>
<g id="a_Node000010"><a xlink:title=" ">
<polygon fill="#e0e0e0" stroke="#999999" points="587,-184 537,-184 537,-165 587,-165 587,-184"/>
<text text-anchor="middle" x="562" y="-172" font-family="Helvetica,sans-Serif" font-size="10.00">stdio.h</text>
</a>
</g>
</g>
<!-- Node1&#45;&gt;Node10 -->
<g id="edge10_Node000001_Node000010" class="edge">
<title>Node1&#45;&gt;Node10</title>
<g id="a_edge10_Node000001_Node000010"><a xlink:title=" ">
<path fill="none" stroke="#63b8ff" d="M801.8,-219.97C748.58,-211.75 667.15,-198.46 597,-184 596.9,-183.98 596.8,-183.96 596.7,-183.94"/>
<polygon fill="#63b8ff" stroke="#63b8ff" points="597.71,-180.58 587.19,-181.84 596.2,-187.41 597.71,-180.58"/>
</a>
</g>
</g>
<!-- Node11 -->
<g id="Node000011" class="node">
<title>Node11</title>
<g id="a_Node000011"><a xlink:href="rp2__common_2hardware__pio_2include_2hardware_2pio_8h.html" target="_top" xlink:title=" ">
<polygon fill="white" stroke="#666666" points="694.5,-184 605.5,-184 605.5,-165 694.5,-165 694.5,-184"/>
<text text-anchor="middle" x="650" y="-172" font-family="Helvetica,sans-Serif" font-size="10.00">hardware/pio.h</text>
</a>
</g>
</g>
<!-- Node1&#45;&gt;Node11 -->
<g id="edge12_Node000001_Node000011" class="edge">
<title>Node1&#45;&gt;Node11</title>
<g id="a_edge12_Node000001_Node000011"><a xlink:title=" ">
<path fill="none" stroke="#63b8ff" d="M825.42,-219.98C789.65,-210.91 732.88,-196.52 693.66,-186.57"/>
<polygon fill="#63b8ff" stroke="#63b8ff" points="694.4,-183.15 683.84,-184.08 692.68,-189.93 694.4,-183.15"/>
</a>
</g>
</g>
<!-- Node19 -->
<g id="Node000019" class="node">
<title>Node19</title>
<g id="a_Node000019"><a xlink:href="rp2__common_2hardware__clocks_2include_2hardware_2clocks_8h.html" target="_top" xlink:title=" ">
<polygon fill="white" stroke="#666666" points="971.5,-184 866.5,-184 866.5,-165 971.5,-165 971.5,-184"/>
<text text-anchor="middle" x="919" y="-172" font-family="Helvetica,sans-Serif" font-size="10.00">hardware/clocks.h</text>
</a>
</g>
</g>
<!-- Node1&#45;&gt;Node19 -->
<g id="edge25_Node000001_Node000019" class="edge">
<title>Node1&#45;&gt;Node19</title>
<g id="a_edge25_Node000001_Node000019"><a xlink:title=" ">
<path fill="none" stroke="#63b8ff" d="M868.64,-219.98C877.51,-212.15 890.87,-200.34 901.61,-190.86"/>
<polygon fill="#63b8ff" stroke="#63b8ff" points="904.01,-193.41 909.18,-184.17 899.37,-188.17 904.01,-193.41"/>
</a>
</g>
</g>
<!-- Node21 -->
<g id="Node000021" class="node">
<title>Node21</title>
<g id="a_Node000021"><a xlink:title=" ">
<polygon fill="#e0e0e0" stroke="#999999" points="848.5,-184 751.5,-184 751.5,-165 848.5,-165 848.5,-184"/>
<text text-anchor="middle" x="800" y="-172" font-family="Helvetica,sans-Serif" font-size="10.00">hardware/sync.h</text>
</a>
</g>
</g>
<!-- Node1&#45;&gt;Node21 -->
<g id="edge28_Node000001_Node000021" class="edge">
<title>Node1&#45;&gt;Node21</title>
<g id="a_edge28_Node000001_Node000021"><a xlink:title=" ">
<path fill="none" stroke="#63b8ff" d="M849.52,-219.98C840.8,-212.15 827.66,-200.34 817.1,-190.86"/>
<polygon fill="#63b8ff" stroke="#63b8ff" points="819.43,-188.25 809.65,-184.17 814.75,-193.46 819.43,-188.25"/>
</a>
</g>
</g>
<!-- Node22 -->
<g id="Node000022" class="node">
<title>Node22</title>
<g id="a_Node000022"><a xlink:href="rp2__common_2hardware__dma_2include_2hardware_2dma_8h.html" target="_top" xlink:title=" ">
<polygon fill="white" stroke="#666666" points="1666,-184 1570,-184 1570,-165 1666,-165 1666,-184"/>
<text text-anchor="middle" x="1618" y="-172" font-family="Helvetica,sans-Serif" font-size="10.00">hardware/dma.h</text>
</a>
</g>
</g>
<!-- Node1&#45;&gt;Node22 -->
<g id="edge29_Node000001_Node000022" class="edge">
<title>Node1&#45;&gt;Node22</title>
<g id="a_edge29_Node000001_Node000022"><a xlink:title=" ">
<path fill="none" stroke="#63b8ff" d="M918.78,-226.42C1038.45,-221.88 1316.16,-209.49 1559.73,-184.04"/>
<polygon fill="#63b8ff" stroke="#63b8ff" points="1560.26,-187.51 1569.83,-182.98 1559.52,-180.54 1560.26,-187.51"/>
</a>
</g>
</g>
<!-- Node27 -->
<g id="Node000027" class="node">
<title>Node27</title>
<g id="a_Node000027"><a xlink:title=" ">
<polygon fill="#e0e0e0" stroke="#999999" points="1126.5,-184 989.5,-184 989.5,-165 1126.5,-165 1126.5,-184"/>
<text text-anchor="middle" x="1058" y="-172" font-family="Helvetica,sans-Serif" font-size="10.00">cyw43_bus_pio_spi.pio.h</text>
</a>
</g>
</g>
<!-- Node1&#45;&gt;Node27 -->
<g id="edge37_Node000001_Node000027" class="edge">
<title>Node1&#45;&gt;Node27</title>
<g id="a_edge37_Node000001_Node000027"><a xlink:title=" ">
<path fill="none" stroke="#63b8ff" d="M890.97,-219.98C924.82,-210.97 978.4,-196.7 1015.71,-186.76"/>
<polygon fill="#63b8ff" stroke="#63b8ff" points="1017.01,-190.04 1025.78,-184.08 1015.21,-183.27 1017.01,-190.04"/>
</a>
</g>
</g>
<!-- Node28 -->
<g id="Node000028" class="node">
<title>Node28</title>
<g id="a_Node000028"><a xlink:title=" ">
<polygon fill="#e0e0e0" stroke="#999999" points="1201.5,-184 1144.5,-184 1144.5,-165 1201.5,-165 1201.5,-184"/>
<text text-anchor="middle" x="1173" y="-172" font-family="Helvetica,sans-Serif" font-size="10.00">cyw43.h</text>
</a>
</g>
</g>
<!-- Node1&#45;&gt;Node28 -->
<g id="edge38_Node000001_Node000028" class="edge">
<title>Node1&#45;&gt;Node28</title>
<g id="a_edge38_Node000001_Node000028"><a xlink:title=" ">
<path fill="none" stroke="#63b8ff" d="M918.64,-220.09C972.57,-212.22 1054.37,-199.63 1134.14,-184.26"/>
<polygon fill="#63b8ff" stroke="#63b8ff" points="1135.21,-187.62 1144.36,-182.28 1133.87,-180.75 1135.21,-187.62"/>
</a>
</g>
</g>
<!-- Node29 -->
<g id="Node000029" class="node">
<title>Node29</title>
<g id="a_Node000029"><a xlink:title=" ">
<polygon fill="#e0e0e0" stroke="#999999" points="1320,-184 1220,-184 1220,-165 1320,-165 1320,-184"/>
<text text-anchor="middle" x="1270" y="-172" font-family="Helvetica,sans-Serif" font-size="10.00">cyw43_internal.h</text>
</a>
</g>
</g>
<!-- Node1&#45;&gt;Node29 -->
<g id="edge39_Node000001_Node000029" class="edge">
<title>Node1&#45;&gt;Node29</title>
<g id="a_edge39_Node000001_Node000029"><a xlink:title=" ">
<path fill="none" stroke="#63b8ff" d="M918.52,-221.29C986.43,-213 1101.09,-198.78 1209.65,-184.16"/>
<polygon fill="#63b8ff" stroke="#63b8ff" points="1210.35,-187.6 1219.8,-182.79 1209.42,-180.66 1210.35,-187.6"/>
</a>
</g>
</g>
<!-- Node30 -->
<g id="Node000030" class="node">
<title>Node30</title>
<g id="a_Node000030"><a xlink:title=" ">
<polygon fill="#e0e0e0" stroke="#999999" points="1415.5,-184 1338.5,-184 1338.5,-165 1415.5,-165 1415.5,-184"/>
<text text-anchor="middle" x="1377" y="-172" font-family="Helvetica,sans-Serif" font-size="10.00">cyw43_spi.h</text>
</a>
</g>
</g>
<!-- Node1&#45;&gt;Node30 -->
<g id="edge40_Node000001_Node000030" class="edge">
<title>Node1&#45;&gt;Node30</title>
<g id="a_edge40_Node000001_Node000030"><a xlink:title=" ">
<path fill="none" stroke="#63b8ff" d="M918.53,-224.41C1005.99,-218.07 1174.55,-204.54 1328.17,-184"/>
<polygon fill="#63b8ff" stroke="#63b8ff" points="1328.83,-187.44 1338.27,-182.64 1327.89,-180.51 1328.83,-187.44"/>
</a>
</g>
</g>
<!-- Node31 -->
<g id="Node000031" class="node">
<title>Node31</title>
<g id="a_Node000031"><a xlink:title=" ">
<polygon fill="#e0e0e0" stroke="#999999" points="1552,-184 1434,-184 1434,-165 1552,-165 1552,-184"/>
<text text-anchor="middle" x="1493" y="-172" font-family="Helvetica,sans-Serif" font-size="10.00">cyw43_debug_pins.h</text>
</a>
</g>
</g>
<!-- Node1&#45;&gt;Node31 -->
<g id="edge41_Node000001_Node000031" class="edge">
<title>Node1&#45;&gt;Node31</title>
<g id="a_edge41_Node000001_Node000031"><a xlink:title=" ">
<path fill="none" stroke="#63b8ff" d="M918.57,-224.72C1020,-218.08 1232.99,-203.29 1423.48,-184.11"/>
<polygon fill="#63b8ff" stroke="#63b8ff" points="1424.08,-187.57 1433.68,-183.08 1423.38,-180.6 1424.08,-187.57"/>
</a>
</g>
</g>
<!-- Node32 -->
<g id="Node000032" class="node">
<title>Node32</title>
<g id="a_Node000032"><a xlink:href="cyw43__driver_8h.html" target="_top" xlink:title=" ">
<polygon fill="white" stroke="#666666" points="911,-129 797,-129 797,-110 911,-110 911,-129"/>
<text text-anchor="middle" x="854" y="-117" font-family="Helvetica,sans-Serif" font-size="10.00">pico/cyw43_driver.h</text>
</a>
</g>
</g>
<!-- Node1&#45;&gt;Node32 -->
<g id="edge42_Node000001_Node000032" class="edge">
<title>Node1&#45;&gt;Node32</title>
<g id="a_edge42_Node000001_Node000032"><a xlink:title=" ">
<path fill="none" stroke="#63b8ff" d="M799.53,-219.98C778.07,-213.71 755.95,-202.84 743,-184 725.12,-158 761.32,-141.29 797.05,-131.58"/>
<polygon fill="#63b8ff" stroke="#63b8ff" points="798.24,-134.89 807.07,-129.02 796.51,-128.1 798.24,-134.89"/>
</a>
</g>
</g>
<!-- Node3 -->
<g id="Node000003" class="node">
<title>Node3</title>
<g id="a_Node000003"><a xlink:title=" ">
<polygon fill="#e0e0e0" stroke="#999999" points="801,-74 755,-74 755,-55 801,-55 801,-74"/>
<text text-anchor="middle" x="778" y="-62" font-family="Helvetica,sans-Serif" font-size="10.00">pico.h</text>
</a>
</g>
</g>
<!-- Node2&#45;&gt;Node3 -->
<g id="edge2_Node000002_Node000003" class="edge">
<title>Node2&#45;&gt;Node3</title>
<g id="a_edge2_Node000002_Node000003"><a xlink:title=" ">
<path fill="none" stroke="#63b8ff" d="M275.17,-164.66C282.43,-150.36 298.87,-122.51 322,-110 395.02,-70.51 652.13,-65.83 744.58,-65.45"/>
<polygon fill="#63b8ff" stroke="#63b8ff" points="744.77,-68.95 754.76,-65.43 744.75,-61.95 744.77,-68.95"/>
</a>
</g>
</g>
<!-- Node4 -->
<g id="Node000004" class="node">
<title>Node4</title>
<g id="a_Node000004"><a xlink:title=" ">
<polygon fill="#e0e0e0" stroke="#999999" points="274.5,-129 201.5,-129 201.5,-110 274.5,-110 274.5,-129"/>
<text text-anchor="middle" x="238" y="-117" font-family="Helvetica,sans-Serif" font-size="10.00">pico/stdio.h</text>
</a>
</g>
</g>
<!-- Node2&#45;&gt;Node4 -->
<g id="edge3_Node000002_Node000004" class="edge">
<title>Node2&#45;&gt;Node4</title>
<g id="a_edge3_Node000002_Node000004"><a xlink:title=" ">
<path fill="none" stroke="#63b8ff" d="M265.55,-164.75C260.99,-157.42 254.33,-146.73 248.71,-137.7"/>
<polygon fill="#63b8ff" stroke="#63b8ff" points="251.6,-135.73 243.35,-129.09 245.66,-139.43 251.6,-135.73"/>
</a>
</g>
</g>
<!-- Node5 -->
<g id="Node000005" class="node">
<title>Node5</title>
<g id="a_Node000005"><a xlink:href="common_2pico__time_2include_2pico_2time_8h.html" target="_top" xlink:title=" ">
<polygon fill="white" stroke="#666666" points="183.5,-129 112.5,-129 112.5,-110 183.5,-110 183.5,-129"/>
<text text-anchor="middle" x="148" y="-117" font-family="Helvetica,sans-Serif" font-size="10.00">pico/time.h</text>
</a>
</g>
</g>
<!-- Node2&#45;&gt;Node5 -->
<g id="edge4_Node000002_Node000005" class="edge">
<title>Node2&#45;&gt;Node5</title>
<g id="a_edge4_Node000002_Node000005"><a xlink:title=" ">
<path fill="none" stroke="#63b8ff" d="M251.24,-164.98C231.27,-156.38 200.2,-142.99 177.35,-133.15"/>
<polygon fill="#63b8ff" stroke="#63b8ff" points="178.69,-129.91 168.12,-129.17 175.92,-136.34 178.69,-129.91"/>
</a>
</g>
</g>
<!-- Node2&#45;&gt;Node7 -->
<g id="edge7_Node000002_Node000007" class="edge">
<title>Node2&#45;&gt;Node7</title>
<g id="a_edge7_Node000002_Node000007"><a xlink:title=" ">
<path fill="none" stroke="#63b8ff" d="M288.35,-164.98C305.57,-156.54 332.2,-143.47 352.15,-133.68"/>
<polygon fill="#63b8ff" stroke="#63b8ff" points="353.9,-136.72 361.33,-129.17 350.81,-130.43 353.9,-136.72"/>
</a>
</g>
</g>
<!-- Node8 -->
<g id="Node000008" class="node">
<title>Node8</title>
<g id="a_Node000008"><a xlink:title=" ">
<polygon fill="#e0e0e0" stroke="#999999" points="94,-129 0,-129 0,-110 94,-110 94,-129"/>
<text text-anchor="middle" x="47" y="-117" font-family="Helvetica,sans-Serif" font-size="10.00">hardware/uart.h</text>
</a>
</g>
</g>
<!-- Node2&#45;&gt;Node8 -->
<g id="edge8_Node000002_Node000008" class="edge">
<title>Node2&#45;&gt;Node8</title>
<g id="a_edge8_Node000002_Node000008"><a xlink:title=" ">
<path fill="none" stroke="#63b8ff" d="M244.42,-167.21C207.15,-158.39 138.78,-142.22 93.11,-131.41"/>
<polygon fill="#63b8ff" stroke="#63b8ff" points="93.69,-127.95 83.16,-129.05 92.08,-134.76 93.69,-127.95"/>
</a>
</g>
</g>
<!-- Node5&#45;&gt;Node3 -->
<g id="edge5_Node000005_Node000003" class="edge">
<title>Node5&#45;&gt;Node3</title>
<g id="a_edge5_Node000005_Node000003"><a xlink:title=" ">
<path fill="none" stroke="#63b8ff" d="M183.96,-111.2C186.68,-110.76 189.38,-110.35 192,-110 401.17,-81.95 654.89,-70.18 744.61,-66.69"/>
<polygon fill="#63b8ff" stroke="#63b8ff" points="744.87,-70.18 754.73,-66.3 744.6,-63.19 744.87,-70.18"/>
</a>
</g>
</g>
<!-- Node6 -->
<g id="Node000006" class="node">
<title>Node6</title>
<g id="a_Node000006"><a xlink:title=" ">
<polygon fill="#e0e0e0" stroke="#999999" points="198.5,-74 97.5,-74 97.5,-55 198.5,-55 198.5,-74"/>
<text text-anchor="middle" x="148" y="-62" font-family="Helvetica,sans-Serif" font-size="10.00">hardware/timer.h</text>
</a>
</g>
</g>
<!-- Node5&#45;&gt;Node6 -->
<g id="edge6_Node000005_Node000006" class="edge">
<title>Node5&#45;&gt;Node6</title>
<g id="a_edge6_Node000005_Node000006"><a xlink:title=" ">
<path fill="none" stroke="#63b8ff" d="M148,-109.75C148,-102.8 148,-92.85 148,-84.13"/>
<polygon fill="#63b8ff" stroke="#63b8ff" points="151.5,-84.09 148,-74.09 144.5,-84.09 151.5,-84.09"/>
</a>
</g>
</g>
<!-- Node11&#45;&gt;Node3 -->
<g id="edge13_Node000011_Node000003" class="edge">
<title>Node11&#45;&gt;Node3</title>
<g id="a_edge13_Node000011_Node000003"><a xlink:title=" ">
<path fill="none" stroke="#63b8ff" d="M605.23,-165.13C555.82,-155.44 482.16,-139.48 474,-129 468.81,-122.34 468.48,-116.39 474,-110 508.67,-69.89 672.81,-65.24 744.44,-65.16"/>
<polygon fill="#63b8ff" stroke="#63b8ff" points="744.7,-68.66 754.71,-65.18 744.71,-61.66 744.7,-68.66"/>
</a>
</g>
</g>
<!-- Node11&#45;&gt;Node7 -->
<g id="edge21_Node000011_Node000007" class="edge">
<title>Node11&#45;&gt;Node7</title>
<g id="a_edge21_Node000011_Node000007"><a xlink:title=" ">
<path fill="none" stroke="#63b8ff" d="M606.46,-164.98C559.19,-155.74 483.65,-140.97 432.72,-131.01"/>
<polygon fill="#63b8ff" stroke="#63b8ff" points="433.37,-127.57 422.88,-129.08 432.02,-134.44 433.37,-127.57"/>
</a>
</g>
</g>
<!-- Node12 -->
<g id="Node000012" class="node">
<title>Node12</title>
<g id="a_Node000012"><a xlink:href="address__mapped_8h.html" target="_top" xlink:title=" ">
<polygon fill="white" stroke="#666666" points="1461,-129 1303,-129 1303,-110 1461,-110 1461,-129"/>
<text text-anchor="middle" x="1382" y="-117" font-family="Helvetica,sans-Serif" font-size="10.00">hardware/address_mapped.h</text>
</a>
</g>
</g>
<!-- Node11&#45;&gt;Node12 -->
<g id="edge14_Node000011_Node000012" class="edge">
<title>Node11&#45;&gt;Node12</title>
<g id="a_edge14_Node000011_Node000012"><a xlink:title=" ">
<path fill="none" stroke="#63b8ff" d="M694.92,-169.2C710.18,-167.79 727.32,-166.26 743,-165 796.27,-160.71 1129.82,-137.77 1292.71,-126.61"/>
<polygon fill="#63b8ff" stroke="#63b8ff" points="1292.97,-130.1 1302.71,-125.93 1292.49,-123.12 1292.97,-130.1"/>
</a>
</g>
</g>
<!-- Node16 -->
<g id="Node000016" class="node">
<title>Node16</title>
<g id="a_Node000016"><a xlink:title=" ">
<polygon fill="#e0e0e0" stroke="#999999" points="608.5,-129 483.5,-129 483.5,-110 608.5,-110 608.5,-129"/>
<text text-anchor="middle" x="546" y="-117" font-family="Helvetica,sans-Serif" font-size="10.00">hardware/structs/pio.h</text>
</a>
</g>
</g>
<!-- Node11&#45;&gt;Node16 -->
<g id="edge20_Node000011_Node000016" class="edge">
<title>Node11&#45;&gt;Node16</title>
<g id="a_edge20_Node000011_Node000016"><a xlink:title=" ">
<path fill="none" stroke="#63b8ff" d="M633.29,-164.98C616.79,-156.57 591.3,-143.59 572.12,-133.81"/>
<polygon fill="#63b8ff" stroke="#63b8ff" points="573.51,-130.59 563.01,-129.17 570.33,-136.83 573.51,-130.59"/>
</a>
</g>
</g>
<!-- Node17 -->
<g id="Node000017" class="node">
<title>Node17</title>
<g id="a_Node000017"><a xlink:title=" ">
<polygon fill="#e0e0e0" stroke="#999999" points="1087,-129 967,-129 967,-110 1087,-110 1087,-129"/>
<text text-anchor="middle" x="1027" y="-117" font-family="Helvetica,sans-Serif" font-size="10.00">hardware/regs/dreq.h</text>
</a>
</g>
</g>
<!-- Node11&#45;&gt;Node17 -->
<g id="edge22_Node000011_Node000017" class="edge">
<title>Node11&#45;&gt;Node17</title>
<g id="a_edge22_Node000011_Node000017"><a xlink:title=" ">
<path fill="none" stroke="#63b8ff" d="M694.73,-167.21C759.5,-158.11 880.03,-141.16 956.75,-130.38"/>
<polygon fill="#63b8ff" stroke="#63b8ff" points="957.39,-133.82 966.8,-128.96 956.41,-126.89 957.39,-133.82"/>
</a>
</g>
</g>
<!-- Node18 -->
<g id="Node000018" class="node">
<title>Node18</title>
<g id="a_Node000018"><a xlink:href="pio__instructions_8h.html" target="_top" xlink:title=" ">
<polygon fill="white" stroke="#666666" points="779,-129 627,-129 627,-110 779,-110 779,-129"/>
<text text-anchor="middle" x="703" y="-117" font-family="Helvetica,sans-Serif" font-size="10.00">hardware/pio_instructions.h</text>
</a>
</g>
</g>
<!-- Node11&#45;&gt;Node18 -->
<g id="edge23_Node000011_Node000018" class="edge">
<title>Node11&#45;&gt;Node18</title>
<g id="a_edge23_Node000011_Node000018"><a xlink:title=" ">
<path fill="none" stroke="#63b8ff" d="M658.75,-164.75C666.47,-157.03 677.9,-145.6 687.22,-136.28"/>
<polygon fill="#63b8ff" stroke="#63b8ff" points="689.81,-138.64 694.41,-129.09 684.86,-133.69 689.81,-138.64"/>
</a>
</g>
</g>
<!-- Node12&#45;&gt;Node3 -->
<g id="edge15_Node000012_Node000003" class="edge">
<title>Node12&#45;&gt;Node3</title>
<g id="a_edge15_Node000012_Node000003"><a xlink:title=" ">
<path fill="none" stroke="#63b8ff" d="M1302.85,-111.24C1298.17,-110.82 1293.52,-110.4 1289,-110 1108.83,-93.92 892.85,-75.34 811.33,-68.35"/>
<polygon fill="#63b8ff" stroke="#63b8ff" points="811.44,-64.85 801.18,-67.48 810.84,-71.82 811.44,-64.85"/>
</a>
</g>
</g>
<!-- Node13 -->
<g id="Node000013" class="node">
<title>Node13</title>
<g id="a_Node000013"><a xlink:title=" ">
<polygon fill="#e0e0e0" stroke="#999999" points="1637,-74 1479,-74 1479,-55 1637,-55 1637,-74"/>
<text text-anchor="middle" x="1558" y="-62" font-family="Helvetica,sans-Serif" font-size="10.00">hardware/regs/addressmap.h</text>
</a>
</g>
</g>
<!-- Node12&#45;&gt;Node13 -->
<g id="edge16_Node000012_Node000013" class="edge">
<title>Node12&#45;&gt;Node13</title>
<g id="a_edge16_Node000012_Node000013"><a xlink:title=" ">
<path fill="none" stroke="#63b8ff" d="M1410.28,-109.98C1439.95,-101.05 1486.79,-86.94 1519.75,-77.02"/>
<polygon fill="#63b8ff" stroke="#63b8ff" points="1520.93,-80.32 1529.5,-74.08 1518.92,-73.61 1520.93,-80.32"/>
</a>
</g>
</g>
<!-- Node14 -->
<g id="Node000014" class="node">
<title>Node14</title>
<g id="a_Node000014"><a xlink:href="hardware__structs_2include_2hardware_2structs_2accessctrl_8h.html" target="_top" xlink:title=" ">
<polygon fill="white" stroke="#666666" points="1461.5,-74 1302.5,-74 1302.5,-55 1461.5,-55 1461.5,-74"/>
<text text-anchor="middle" x="1382" y="-62" font-family="Helvetica,sans-Serif" font-size="10.00">hardware/structs/accessctrl.h</text>
</a>
</g>
</g>
<!-- Node12&#45;&gt;Node14 -->
<g id="edge17_Node000012_Node000014" class="edge">
<title>Node12&#45;&gt;Node14</title>
<g id="a_edge17_Node000012_Node000014"><a xlink:title=" ">
<path fill="none" stroke="#63b8ff" d="M1376.83,-109.75C1375.34,-102.8 1374.9,-92.85 1375.52,-84.13"/>
<polygon fill="#63b8ff" stroke="#63b8ff" points="1379.01,-84.47 1376.87,-74.09 1372.07,-83.53 1379.01,-84.47"/>
</a>
</g>
</g>
<!-- Node14&#45;&gt;Node12 -->
<g id="edge18_Node000014_Node000012" class="edge">
<title>Node14&#45;&gt;Node12</title>
<g id="a_edge18_Node000014_Node000012"><a xlink:title=" ">
<path fill="none" stroke="#63b8ff" d="M1387.13,-74.09C1388.64,-80.99 1389.09,-90.93 1388.49,-99.66"/>
<polygon fill="#63b8ff" stroke="#63b8ff" points="1385,-99.38 1387.17,-109.75 1391.94,-100.29 1385,-99.38"/>
</a>
</g>
</g>
<!-- Node15 -->
<g id="Node000015" class="node">
<title>Node15</title>
<g id="a_Node000015"><a xlink:href="hardware__regs_2include_2hardware_2regs_2accessctrl_8h.html" target="_top" xlink:title=" ">
<polygon fill="white" stroke="#666666" points="1455.5,-19 1308.5,-19 1308.5,0 1455.5,0 1455.5,-19"/>
<text text-anchor="middle" x="1382" y="-7" font-family="Helvetica,sans-Serif" font-size="10.00">hardware/regs/accessctrl.h</text>
</a>
</g>
</g>
<!-- Node14&#45;&gt;Node15 -->
<g id="edge19_Node000014_Node000015" class="edge">
<title>Node14&#45;&gt;Node15</title>
<g id="a_edge19_Node000014_Node000015"><a xlink:title=" ">
<path fill="none" stroke="#63b8ff" d="M1382,-54.75C1382,-47.8 1382,-37.85 1382,-29.13"/>
<polygon fill="#63b8ff" stroke="#63b8ff" points="1385.5,-29.09 1382,-19.09 1378.5,-29.09 1385.5,-29.09"/>
</a>
</g>
</g>
<!-- Node18&#45;&gt;Node3 -->
<g id="edge24_Node000018_Node000003" class="edge">
<title>Node18&#45;&gt;Node3</title>
<g id="a_edge24_Node000018_Node000003"><a xlink:title=" ">
<path fill="none" stroke="#63b8ff" d="M715.05,-109.98C726.46,-101.92 743.83,-89.65 757.43,-80.03"/>
<polygon fill="#63b8ff" stroke="#63b8ff" points="759.58,-82.8 765.73,-74.17 755.54,-77.08 759.58,-82.8"/>
</a>
</g>
</g>
<!-- Node19&#45;&gt;Node3 -->
<g id="edge26_Node000019_Node000003" class="edge">
<title>Node19&#45;&gt;Node3</title>
<g id="a_edge26_Node000019_Node000003"><a xlink:title=" ">
<path fill="none" stroke="#63b8ff" d="M922.18,-164.7C926.36,-151.44 931.88,-126.17 920,-110 895.23,-76.28 844.96,-67.41 811.37,-65.45"/>
<polygon fill="#63b8ff" stroke="#63b8ff" points="811.24,-61.94 801.11,-65.03 810.96,-68.94 811.24,-61.94"/>
</a>
</g>
</g>
<!-- Node20 -->
<g id="Node000020" class="node">
<title>Node20</title>
<g id="a_Node000020"><a xlink:title=" ">
<polygon fill="#e0e0e0" stroke="#999999" points="1246.5,-129 1105.5,-129 1105.5,-110 1246.5,-110 1246.5,-129"/>
<text text-anchor="middle" x="1176" y="-117" font-family="Helvetica,sans-Serif" font-size="10.00">hardware/structs/clocks.h</text>
</a>
</g>
</g>
<!-- Node19&#45;&gt;Node20 -->
<g id="edge27_Node000019_Node000020" class="edge">
<title>Node19&#45;&gt;Node20</title>
<g id="a_edge27_Node000019_Node000020"><a xlink:title=" ">
<path fill="none" stroke="#63b8ff" d="M960.29,-164.98C1004.93,-155.78 1076.16,-141.09 1124.45,-131.13"/>
<polygon fill="#63b8ff" stroke="#63b8ff" points="1125.3,-134.53 1134.38,-129.08 1123.88,-127.67 1125.3,-134.53"/>
</a>
</g>
</g>
<!-- Node22&#45;&gt;Node3 -->
<g id="edge30_Node000022_Node000003" class="edge">
<title>Node22&#45;&gt;Node3</title>
<g id="a_edge30_Node000022_Node000003"><a xlink:title=" ">
<path fill="none" stroke="#63b8ff" d="M1569.8,-166.26C1566.83,-165.83 1563.87,-165.41 1561,-165 1442.45,-148.17 1408.43,-164.25 1294,-129 1275.95,-123.44 1274.16,-115.19 1256,-110 1172.08,-86.03 905.56,-71.5 811.37,-67"/>
<polygon fill="#63b8ff" stroke="#63b8ff" points="811.42,-63.5 801.27,-66.53 811.09,-70.49 811.42,-63.5"/>
</a>
</g>
</g>
<!-- Node22&#45;&gt;Node17 -->
<g id="edge32_Node000022_Node000017" class="edge">
<title>Node22&#45;&gt;Node17</title>
<g id="a_edge32_Node000022_Node000017"><a xlink:title=" ">
<path fill="none" stroke="#63b8ff" d="M1569.83,-166.07C1566.84,-165.69 1563.88,-165.33 1561,-165 1358.68,-142.1 1304.51,-149.24 1097.29,-128.98"/>
<polygon fill="#63b8ff" stroke="#63b8ff" points="1097.61,-125.49 1087.31,-127.99 1096.92,-132.46 1097.61,-125.49"/>
</a>
</g>
</g>
<!-- Node23 -->
<g id="Node000023" class="node">
<title>Node23</title>
<g id="a_Node000023"><a xlink:title=" ">
<polygon fill="#e0e0e0" stroke="#999999" points="1611,-129 1479,-129 1479,-110 1611,-110 1611,-129"/>
<text text-anchor="middle" x="1545" y="-117" font-family="Helvetica,sans-Serif" font-size="10.00">hardware/structs/dma.h</text>
</a>
</g>
</g>
<!-- Node22&#45;&gt;Node23 -->
<g id="edge31_Node000022_Node000023" class="edge">
<title>Node22&#45;&gt;Node23</title>
<g id="a_edge31_Node000022_Node000023"><a xlink:title=" ">
<path fill="none" stroke="#63b8ff" d="M1606.27,-164.98C1595.27,-157 1578.58,-144.88 1565.4,-135.31"/>
<polygon fill="#63b8ff" stroke="#63b8ff" points="1567.09,-132.21 1556.94,-129.17 1562.98,-137.88 1567.09,-132.21"/>
</a>
</g>
</g>
<!-- Node24 -->
<g id="Node000024" class="node">
<title>Node24</title>
<g id="a_Node000024"><a xlink:href="assert_8h.html" target="_top" xlink:title=" ">
<polygon fill="white" stroke="#666666" points="1853.5,-129 1774.5,-129 1774.5,-110 1853.5,-110 1853.5,-129"/>
<text text-anchor="middle" x="1814" y="-117" font-family="Helvetica,sans-Serif" font-size="10.00">pico/assert.h</text>
</a>
</g>
</g>
<!-- Node22&#45;&gt;Node24 -->
<g id="edge33_Node000022_Node000024" class="edge">
<title>Node22&#45;&gt;Node24</title>
<g id="a_edge33_Node000022_Node000024"><a xlink:title=" ">
<path fill="none" stroke="#63b8ff" d="M1649.49,-164.98C1682.82,-155.97 1735.6,-141.7 1772.35,-131.76"/>
<polygon fill="#63b8ff" stroke="#63b8ff" points="1773.52,-135.07 1782.26,-129.08 1771.7,-128.31 1773.52,-135.07"/>
</a>
</g>
</g>
<!-- Node26 -->
<g id="Node000026" class="node">
<title>Node26</title>
<g id="a_Node000026"><a xlink:title=" ">
<polygon fill="#e0e0e0" stroke="#999999" points="1756.5,-129 1629.5,-129 1629.5,-110 1756.5,-110 1756.5,-129"/>
<text text-anchor="middle" x="1693" y="-117" font-family="Helvetica,sans-Serif" font-size="10.00">hardware/regs/intctrl.h</text>
</a>
</g>
</g>
<!-- Node22&#45;&gt;Node26 -->
<g id="edge36_Node000022_Node000026" class="edge">
<title>Node22&#45;&gt;Node26</title>
<g id="a_edge36_Node000022_Node000026"><a xlink:title=" ">
<path fill="none" stroke="#63b8ff" d="M1630.05,-164.98C1641.46,-156.92 1658.83,-144.65 1672.43,-135.03"/>
<polygon fill="#63b8ff" stroke="#63b8ff" points="1674.58,-137.8 1680.73,-129.17 1670.54,-132.08 1674.58,-137.8"/>
</a>
</g>
</g>
<!-- Node24&#45;&gt;Node24 -->
<g id="edge35_Node000024_Node000024" class="edge">
<title>Node24&#45;&gt;Node24</title>
<g id="a_edge35_Node000024_Node000024"><a xlink:title=" ">
<path fill="none" stroke="#63b8ff" d="M1840.91,-129.03C1856.71,-131.06 1871.5,-127.88 1871.5,-119.5 1871.5,-112.95 1862.47,-109.58 1850.99,-109.38"/>
<polygon fill="#63b8ff" stroke="#63b8ff" points="1850.69,-105.9 1840.91,-109.97 1851.1,-112.88 1850.69,-105.9"/>
</a>
</g>
</g>
<!-- Node25 -->
<g id="Node000025" class="node">
<title>Node25</title>
<g id="a_Node000025"><a xlink:title=" ">
<polygon fill="#e0e0e0" stroke="#999999" points="1845,-74 1783,-74 1783,-55 1845,-55 1845,-74"/>
<text text-anchor="middle" x="1814" y="-62" font-family="Helvetica,sans-Serif" font-size="10.00">stdbool.h</text>
</a>
</g>
</g>
<!-- Node24&#45;&gt;Node25 -->
<g id="edge34_Node000024_Node000025" class="edge">
<title>Node24&#45;&gt;Node25</title>
<g id="a_edge34_Node000024_Node000025"><a xlink:title=" ">
<path fill="none" stroke="#63b8ff" d="M1814,-109.75C1814,-102.8 1814,-92.85 1814,-84.13"/>
<polygon fill="#63b8ff" stroke="#63b8ff" points="1817.5,-84.09 1814,-74.09 1810.5,-84.09 1817.5,-84.09"/>
</a>
</g>
</g>
<!-- Node32&#45;&gt;Node3 -->
<g id="edge43_Node000032_Node000003" class="edge">
<title>Node32&#45;&gt;Node3</title>
<g id="a_edge43_Node000032_Node000003"><a xlink:title=" ">
<path fill="none" stroke="#63b8ff" d="M841.79,-109.98C830.22,-101.92 812.62,-89.65 798.84,-80.03"/>
<polygon fill="#63b8ff" stroke="#63b8ff" points="800.64,-77.02 790.43,-74.17 796.63,-82.76 800.64,-77.02"/>
</a>
</g>
</g>
</g>
</svg>
