<?xml version="1.0" encoding="UTF-8" standalone="no"?>
<!DOCTYPE svg PUBLIC "-//W3C//DTD SVG 1.1//EN"
 "http://www.w3.org/Graphics/SVG/1.1/DTD/svg11.dtd">
<!-- Generated by graphviz version 2.43.0 (0)
 -->
<!-- Title: cyw43_arch.c Pages: 1 -->
<svg width="763pt" height="247pt"
 viewBox="0.00 0.00 762.50 247.00" xmlns="http://www.w3.org/2000/svg" xmlns:xlink="http://www.w3.org/1999/xlink">
<g id="graph0" class="graph" transform="scale(1 1) rotate(0) translate(4 243)">
<title>cyw43_arch.c</title>
<!-- Node1 -->
<g id="Node000001" class="node">
<title>Node1</title>
<g id="a_Node000001"><a xlink:title=" ">
<polygon fill="#999999" stroke="#666666" points="473,-239 390,-239 390,-220 473,-220 473,-239"/>
<text text-anchor="middle" x="431.5" y="-227" font-family="Helvetica,sans-Serif" font-size="10.00">cyw43_arch.c</text>
</a>
</g>
</g>
<!-- Node2 -->
<g id="Node000002" class="node">
<title>Node2</title>
<g id="a_Node000002"><a xlink:href="stdlib_8h.html" target="_top" xlink:title=" ">
<polygon fill="white" stroke="#666666" points="239,-129 186,-129 186,-110 239,-110 239,-129"/>
<text text-anchor="middle" x="212.5" y="-117" font-family="Helvetica,sans-Serif" font-size="10.00">stdlib.h</text>
</a>
</g>
</g>
<!-- Node1&#45;&gt;Node2 -->
<g id="edge1_Node000001_Node000002" class="edge">
<title>Node1&#45;&gt;Node2</title>
<g id="a_edge1_Node000001_Node000002"><a xlink:title=" ">
<path fill="none" stroke="#63b8ff" d="M389.61,-224.16C337.92,-217.99 254.09,-205.02 231.5,-184 219.27,-172.62 214.8,-153.72 213.22,-139.5"/>
<polygon fill="#63b8ff" stroke="#63b8ff" points="216.7,-139.04 212.49,-129.32 209.72,-139.55 216.7,-139.04"/>
</a>
</g>
</g>
<!-- Node9 -->
<g id="Node000009" class="node">
<title>Node9</title>
<g id="a_Node000009"><a xlink:title=" ">
<polygon fill="#e0e0e0" stroke="#999999" points="290.5,-184 240.5,-184 240.5,-165 290.5,-165 290.5,-184"/>
<text text-anchor="middle" x="265.5" y="-172" font-family="Helvetica,sans-Serif" font-size="10.00">stdio.h</text>
</a>
</g>
</g>
<!-- Node1&#45;&gt;Node9 -->
<g id="edge9_Node000001_Node000009" class="edge">
<title>Node1&#45;&gt;Node9</title>
<g id="a_edge9_Node000001_Node000009"><a xlink:title=" ">
<path fill="none" stroke="#63b8ff" d="M404.83,-219.98C376.46,-210.93 331.48,-196.57 300.33,-186.62"/>
<polygon fill="#63b8ff" stroke="#63b8ff" points="301.34,-183.27 290.74,-183.56 299.21,-189.94 301.34,-183.27"/>
</a>
</g>
</g>
<!-- Node10 -->
<g id="Node000010" class="node">
<title>Node10</title>
<g id="a_Node000010"><a xlink:title=" ">
<polygon fill="#e0e0e0" stroke="#999999" points="362,-184 309,-184 309,-165 362,-165 362,-184"/>
<text text-anchor="middle" x="335.5" y="-172" font-family="Helvetica,sans-Serif" font-size="10.00">string.h</text>
</a>
</g>
</g>
<!-- Node1&#45;&gt;Node10 -->
<g id="edge10_Node000001_Node000010" class="edge">
<title>Node1&#45;&gt;Node10</title>
<g id="a_edge10_Node000001_Node000010"><a xlink:title=" ">
<path fill="none" stroke="#63b8ff" d="M416.08,-219.98C401.05,-211.69 377.96,-198.94 360.34,-189.22"/>
<polygon fill="#63b8ff" stroke="#63b8ff" points="361.65,-185.94 351.2,-184.17 358.27,-192.07 361.65,-185.94"/>
</a>
</g>
</g>
<!-- Node11 -->
<g id="Node000011" class="node">
<title>Node11</title>
<g id="a_Node000011"><a xlink:href="unique__id_8h.html" target="_top" xlink:title=" ">
<polygon fill="white" stroke="#666666" points="719.5,-129 623.5,-129 623.5,-110 719.5,-110 719.5,-129"/>
<text text-anchor="middle" x="671.5" y="-117" font-family="Helvetica,sans-Serif" font-size="10.00">pico/unique_id.h</text>
</a>
</g>
</g>
<!-- Node1&#45;&gt;Node11 -->
<g id="edge11_Node000001_Node000011" class="edge">
<title>Node1&#45;&gt;Node11</title>
<g id="a_edge11_Node000001_Node000011"><a xlink:title=" ">
<path fill="none" stroke="#63b8ff" d="M452.14,-219.91C473.02,-211.14 506.18,-197.01 534.5,-184 552.02,-175.95 556.05,-173.21 573.5,-165 596.79,-154.04 623.38,-142 642.99,-133.2"/>
<polygon fill="#63b8ff" stroke="#63b8ff" points="644.58,-136.32 652.28,-129.04 641.72,-129.94 644.58,-136.32"/>
</a>
</g>
</g>
<!-- Node12 -->
<g id="Node000012" class="node">
<title>Node12</title>
<g id="a_Node000012"><a xlink:title=" ">
<polygon fill="#e0e0e0" stroke="#999999" points="314,-129 257,-129 257,-110 314,-110 314,-129"/>
<text text-anchor="middle" x="285.5" y="-117" font-family="Helvetica,sans-Serif" font-size="10.00">cyw43.h</text>
</a>
</g>
</g>
<!-- Node1&#45;&gt;Node12 -->
<g id="edge13_Node000001_Node000012" class="edge">
<title>Node1&#45;&gt;Node12</title>
<g id="a_edge13_Node000001_Node000012"><a xlink:title=" ">
<path fill="none" stroke="#63b8ff" d="M424.73,-219.84C414.2,-206.75 392.75,-181.7 370.5,-165 353.57,-152.29 332.51,-141.24 315.59,-133.33"/>
<polygon fill="#63b8ff" stroke="#63b8ff" points="316.71,-129.99 306.16,-129.04 313.82,-136.37 316.71,-129.99"/>
</a>
</g>
</g>
<!-- Node13 -->
<g id="Node000013" class="node">
<title>Node13</title>
<g id="a_Node000013"><a xlink:href="cyw43__arch_8h.html" target="_top" xlink:title=" ">
<polygon fill="white" stroke="#666666" points="526,-184 419,-184 419,-165 526,-165 526,-184"/>
<text text-anchor="middle" x="472.5" y="-172" font-family="Helvetica,sans-Serif" font-size="10.00">pico/cyw43_arch.h</text>
</a>
</g>
</g>
<!-- Node1&#45;&gt;Node13 -->
<g id="edge14_Node000001_Node000013" class="edge">
<title>Node1&#45;&gt;Node13</title>
<g id="a_edge14_Node000001_Node000013"><a xlink:title=" ">
<path fill="none" stroke="#63b8ff" d="M438.27,-219.75C444.06,-212.26 452.56,-201.28 459.64,-192.13"/>
<polygon fill="#63b8ff" stroke="#63b8ff" points="462.51,-194.14 465.86,-184.09 456.97,-189.86 462.51,-194.14"/>
</a>
</g>
</g>
<!-- Node16 -->
<g id="Node000016" class="node">
<title>Node16</title>
<g id="a_Node000016"><a xlink:title=" ">
<polygon fill="#e0e0e0" stroke="#999999" points="650.5,-184 582.5,-184 582.5,-165 650.5,-165 650.5,-184"/>
<text text-anchor="middle" x="616.5" y="-172" font-family="Helvetica,sans-Serif" font-size="10.00">cyw43_ll.h</text>
</a>
</g>
</g>
<!-- Node1&#45;&gt;Node16 -->
<g id="edge21_Node000001_Node000016" class="edge">
<title>Node1&#45;&gt;Node16</title>
<g id="a_edge21_Node000001_Node000016"><a xlink:title=" ">
<path fill="none" stroke="#63b8ff" d="M461.22,-219.98C492.55,-211.01 542.07,-196.82 576.74,-186.89"/>
<polygon fill="#63b8ff" stroke="#63b8ff" points="577.89,-190.2 586.54,-184.08 575.97,-183.47 577.89,-190.2"/>
</a>
</g>
</g>
<!-- Node17 -->
<g id="Node000017" class="node">
<title>Node17</title>
<g id="a_Node000017"><a xlink:title=" ">
<polygon fill="#e0e0e0" stroke="#999999" points="754.5,-184 668.5,-184 668.5,-165 754.5,-165 754.5,-184"/>
<text text-anchor="middle" x="711.5" y="-172" font-family="Helvetica,sans-Serif" font-size="10.00">cyw43_stats.h</text>
</a>
</g>
</g>
<!-- Node1&#45;&gt;Node17 -->
<g id="edge22_Node000001_Node000017" class="edge">
<title>Node1&#45;&gt;Node17</title>
<g id="a_edge22_Node000001_Node000017"><a xlink:title=" ">
<path fill="none" stroke="#63b8ff" d="M473.12,-220.62C522.35,-211.3 604.4,-195.77 658.23,-185.58"/>
<polygon fill="#63b8ff" stroke="#63b8ff" points="659.1,-188.98 668.27,-183.68 657.8,-182.1 659.1,-188.98"/>
</a>
</g>
</g>
<!-- Node3 -->
<g id="Node000003" class="node">
<title>Node3</title>
<g id="a_Node000003"><a xlink:title=" ">
<polygon fill="#e0e0e0" stroke="#999999" points="499.5,-19 453.5,-19 453.5,0 499.5,0 499.5,-19"/>
<text text-anchor="middle" x="476.5" y="-7" font-family="Helvetica,sans-Serif" font-size="10.00">pico.h</text>
</a>
</g>
</g>
<!-- Node2&#45;&gt;Node3 -->
<g id="edge2_Node000002_Node000003" class="edge">
<title>Node2&#45;&gt;Node3</title>
<g id="a_edge2_Node000002_Node000003"><a xlink:title=" ">
<path fill="none" stroke="#63b8ff" d="M231.11,-109.89C250.29,-100.98 281.04,-86.64 307.5,-74 324.9,-65.69 328.68,-62.36 346.5,-55 378.96,-41.6 417.07,-28.9 443.6,-20.52"/>
<polygon fill="#63b8ff" stroke="#63b8ff" points="444.67,-23.85 453.17,-17.53 442.58,-17.17 444.67,-23.85"/>
</a>
</g>
</g>
<!-- Node4 -->
<g id="Node000004" class="node">
<title>Node4</title>
<g id="a_Node000004"><a xlink:title=" ">
<polygon fill="#e0e0e0" stroke="#999999" points="299,-74 226,-74 226,-55 299,-55 299,-74"/>
<text text-anchor="middle" x="262.5" y="-62" font-family="Helvetica,sans-Serif" font-size="10.00">pico/stdio.h</text>
</a>
</g>
</g>
<!-- Node2&#45;&gt;Node4 -->
<g id="edge3_Node000002_Node000004" class="edge">
<title>Node2&#45;&gt;Node4</title>
<g id="a_edge3_Node000002_Node000004"><a xlink:title=" ">
<path fill="none" stroke="#63b8ff" d="M220.76,-109.75C227.96,-102.11 238.61,-90.82 247.35,-81.56"/>
<polygon fill="#63b8ff" stroke="#63b8ff" points="250.08,-83.76 254.4,-74.09 244.99,-78.96 250.08,-83.76"/>
</a>
</g>
</g>
<!-- Node5 -->
<g id="Node000005" class="node">
<title>Node5</title>
<g id="a_Node000005"><a xlink:href="common_2pico__time_2include_2pico_2time_8h.html" target="_top" xlink:title=" ">
<polygon fill="white" stroke="#666666" points="427,-74 356,-74 356,-55 427,-55 427,-74"/>
<text text-anchor="middle" x="391.5" y="-62" font-family="Helvetica,sans-Serif" font-size="10.00">pico/time.h</text>
</a>
</g>
</g>
<!-- Node2&#45;&gt;Node5 -->
<g id="edge4_Node000002_Node000005" class="edge">
<title>Node2&#45;&gt;Node5</title>
<g id="a_edge4_Node000002_Node000005"><a xlink:title=" ">
<path fill="none" stroke="#63b8ff" d="M239.3,-110.57C269.48,-101.63 318.78,-87.03 353.06,-76.88"/>
<polygon fill="#63b8ff" stroke="#63b8ff" points="354.14,-80.21 362.74,-74.02 352.16,-73.5 354.14,-80.21"/>
</a>
</g>
</g>
<!-- Node7 -->
<g id="Node000007" class="node">
<title>Node7</title>
<g id="a_Node000007"><a xlink:title=" ">
<polygon fill="#e0e0e0" stroke="#999999" points="95,-74 0,-74 0,-55 95,-55 95,-74"/>
<text text-anchor="middle" x="47.5" y="-62" font-family="Helvetica,sans-Serif" font-size="10.00">hardware/gpio.h</text>
</a>
</g>
</g>
<!-- Node2&#45;&gt;Node7 -->
<g id="edge7_Node000002_Node000007" class="edge">
<title>Node2&#45;&gt;Node7</title>
<g id="a_edge7_Node000002_Node000007"><a xlink:title=" ">
<path fill="none" stroke="#63b8ff" d="M185.99,-109.98C158.29,-101.09 114.64,-87.07 83.76,-77.15"/>
<polygon fill="#63b8ff" stroke="#63b8ff" points="84.81,-73.81 74.22,-74.08 82.67,-80.47 84.81,-73.81"/>
</a>
</g>
</g>
<!-- Node8 -->
<g id="Node000008" class="node">
<title>Node8</title>
<g id="a_Node000008"><a xlink:title=" ">
<polygon fill="#e0e0e0" stroke="#999999" points="207.5,-74 113.5,-74 113.5,-55 207.5,-55 207.5,-74"/>
<text text-anchor="middle" x="160.5" y="-62" font-family="Helvetica,sans-Serif" font-size="10.00">hardware/uart.h</text>
</a>
</g>
</g>
<!-- Node2&#45;&gt;Node8 -->
<g id="edge8_Node000002_Node000008" class="edge">
<title>Node2&#45;&gt;Node8</title>
<g id="a_edge8_Node000002_Node000008"><a xlink:title=" ">
<path fill="none" stroke="#63b8ff" d="M203.91,-109.75C196.34,-102.03 185.12,-90.6 175.99,-81.28"/>
<polygon fill="#63b8ff" stroke="#63b8ff" points="178.43,-78.78 168.93,-74.09 173.43,-83.68 178.43,-78.78"/>
</a>
</g>
</g>
<!-- Node5&#45;&gt;Node3 -->
<g id="edge5_Node000005_Node000003" class="edge">
<title>Node5&#45;&gt;Node3</title>
<g id="a_edge5_Node000005_Node000003"><a xlink:title=" ">
<path fill="none" stroke="#63b8ff" d="M405.16,-54.98C418.34,-46.77 438.53,-34.18 454.07,-24.49"/>
<polygon fill="#63b8ff" stroke="#63b8ff" points="455.96,-27.43 462.59,-19.17 452.26,-21.49 455.96,-27.43"/>
</a>
</g>
</g>
<!-- Node6 -->
<g id="Node000006" class="node">
<title>Node6</title>
<g id="a_Node000006"><a xlink:title=" ">
<polygon fill="#e0e0e0" stroke="#999999" points="435,-19 334,-19 334,0 435,0 435,-19"/>
<text text-anchor="middle" x="384.5" y="-7" font-family="Helvetica,sans-Serif" font-size="10.00">hardware/timer.h</text>
</a>
</g>
</g>
<!-- Node5&#45;&gt;Node6 -->
<g id="edge6_Node000005_Node000006" class="edge">
<title>Node5&#45;&gt;Node6</title>
<g id="a_edge6_Node000005_Node000006"><a xlink:title=" ">
<path fill="none" stroke="#63b8ff" d="M390.34,-54.75C389.43,-47.8 388.11,-37.85 386.96,-29.13"/>
<polygon fill="#63b8ff" stroke="#63b8ff" points="390.41,-28.54 385.63,-19.09 383.47,-29.46 390.41,-28.54"/>
</a>
</g>
</g>
<!-- Node11&#45;&gt;Node3 -->
<g id="edge12_Node000011_Node000003" class="edge">
<title>Node11&#45;&gt;Node3</title>
<g id="a_edge12_Node000011_Node000003"><a xlink:title=" ">
<path fill="none" stroke="#63b8ff" d="M665.25,-109.83C655.04,-96.28 633.52,-70.06 609.5,-55 578.41,-35.5 537.81,-23.54 509.69,-16.99"/>
<polygon fill="#63b8ff" stroke="#63b8ff" points="510.09,-13.5 499.57,-14.75 508.58,-20.33 510.09,-13.5"/>
</a>
</g>
</g>
<!-- Node13&#45;&gt;Node3 -->
<g id="edge15_Node000013_Node000003" class="edge">
<title>Node13&#45;&gt;Node3</title>
<g id="a_edge15_Node000013_Node000003"><a xlink:title=" ">
<path fill="none" stroke="#63b8ff" d="M521.35,-164.95C542,-158.65 564.12,-147.77 576.5,-129 603.56,-87.99 541.19,-45.22 503.17,-24.04"/>
<polygon fill="#63b8ff" stroke="#63b8ff" points="504.56,-20.82 494.09,-19.14 501.23,-26.97 504.56,-20.82"/>
</a>
</g>
</g>
<!-- Node13&#45;&gt;Node12 -->
<g id="edge16_Node000013_Node000012" class="edge">
<title>Node13&#45;&gt;Node12</title>
<g id="a_edge16_Node000013_Node000012"><a xlink:title=" ">
<path fill="none" stroke="#63b8ff" d="M442.46,-164.98C410.32,-155.88 359.24,-141.4 324.14,-131.45"/>
<polygon fill="#63b8ff" stroke="#63b8ff" points="324.82,-128.01 314.24,-128.65 322.91,-134.74 324.82,-128.01"/>
</a>
</g>
</g>
<!-- Node14 -->
<g id="Node000014" class="node">
<title>Node14</title>
<g id="a_Node000014"><a xlink:title=" ">
<polygon fill="#e0e0e0" stroke="#999999" points="567.5,-129 469.5,-129 469.5,-110 567.5,-110 567.5,-129"/>
<text text-anchor="middle" x="518.5" y="-117" font-family="Helvetica,sans-Serif" font-size="10.00">cyw43_country.h</text>
</a>
</g>
</g>
<!-- Node13&#45;&gt;Node14 -->
<g id="edge17_Node000013_Node000014" class="edge">
<title>Node13&#45;&gt;Node14</title>
<g id="a_edge17_Node000013_Node000014"><a xlink:title=" ">
<path fill="none" stroke="#63b8ff" d="M480.1,-164.75C486.66,-157.18 496.32,-146.05 504.31,-136.84"/>
<polygon fill="#63b8ff" stroke="#63b8ff" points="507.13,-138.94 511.05,-129.09 501.85,-134.35 507.13,-138.94"/>
</a>
</g>
</g>
<!-- Node15 -->
<g id="Node000015" class="node">
<title>Node15</title>
<g id="a_Node000015"><a xlink:href="async__context_8h.html" target="_top" xlink:title=" ">
<polygon fill="white" stroke="#666666" points="451,-129 332,-129 332,-110 451,-110 451,-129"/>
<text text-anchor="middle" x="391.5" y="-117" font-family="Helvetica,sans-Serif" font-size="10.00">pico/async_context.h</text>
</a>
</g>
</g>
<!-- Node13&#45;&gt;Node15 -->
<g id="edge18_Node000013_Node000015" class="edge">
<title>Node13&#45;&gt;Node15</title>
<g id="a_edge18_Node000013_Node000015"><a xlink:title=" ">
<path fill="none" stroke="#63b8ff" d="M459.49,-164.98C447.04,-156.84 428.04,-144.41 413.29,-134.76"/>
<polygon fill="#63b8ff" stroke="#63b8ff" points="415.04,-131.72 404.75,-129.17 411.2,-137.57 415.04,-131.72"/>
</a>
</g>
</g>
<!-- Node15&#45;&gt;Node3 -->
<g id="edge19_Node000015_Node000003" class="edge">
<title>Node15&#45;&gt;Node3</title>
<g id="a_edge19_Node000015_Node000003"><a xlink:title=" ">
<path fill="none" stroke="#63b8ff" d="M401.18,-109.81C410.51,-101.2 424.75,-87.39 435.5,-74 447.28,-59.32 458.74,-41.16 466.53,-28.02"/>
<polygon fill="#63b8ff" stroke="#63b8ff" points="469.71,-29.5 471.72,-19.1 463.66,-25.98 469.71,-29.5"/>
</a>
</g>
</g>
<!-- Node15&#45;&gt;Node5 -->
<g id="edge20_Node000015_Node000005" class="edge">
<title>Node15&#45;&gt;Node5</title>
<g id="a_edge20_Node000015_Node000005"><a xlink:title=" ">
<path fill="none" stroke="#63b8ff" d="M391.5,-109.75C391.5,-102.8 391.5,-92.85 391.5,-84.13"/>
<polygon fill="#63b8ff" stroke="#63b8ff" points="395,-84.09 391.5,-74.09 388,-84.09 395,-84.09"/>
</a>
</g>
</g>
</g>
</svg>
