<?xml version="1.0" encoding="UTF-8" standalone="no"?>
<!DOCTYPE svg PUBLIC "-//W3C//DTD SVG 1.1//EN"
 "http://www.w3.org/Graphics/SVG/1.1/DTD/svg11.dtd">
<!-- Generated by graphviz version 2.43.0 (0)
 -->
<!-- Title: datetime.h Pages: 1 -->
<svg width="170pt" height="137pt"
 viewBox="0.00 0.00 170.00 137.00" xmlns="http://www.w3.org/2000/svg" xmlns:xlink="http://www.w3.org/1999/xlink">
<g id="graph0" class="graph" transform="scale(1 1) rotate(0) translate(4 133)">
<title>datetime.h</title>
<!-- Node1 -->
<g id="Node000001" class="node">
<title>Node1</title>
<g id="a_Node000001"><a xlink:title=" ">
<polygon fill="#999999" stroke="#666666" points="117.5,-129 47.5,-129 47.5,-110 117.5,-110 117.5,-129"/>
<text text-anchor="middle" x="82.5" y="-117" font-family="Helvetica,sans-Serif" font-size="10.00">datetime.h</text>
</a>
</g>
</g>
<!-- Node2 -->
<g id="Node000002" class="node">
<title>Node2</title>
<g id="a_Node000002"><a xlink:href="aon__timer_8h.html" target="_top" xlink:title=" ">
<polygon fill="white" stroke="#666666" points="75,-74 0,-74 0,-55 75,-55 75,-74"/>
<text text-anchor="middle" x="37.5" y="-62" font-family="Helvetica,sans-Serif" font-size="10.00">aon_timer.h</text>
</a>
</g>
</g>
<!-- Node1&#45;&gt;Node2 -->
<g id="edge1_Node000001_Node000002" class="edge">
<title>Node1&#45;&gt;Node2</title>
<g id="a_edge1_Node000001_Node000002"><a xlink:title=" ">
<path fill="none" stroke="#63b8ff" d="M68.45,-101.96C60.61,-92.72 51.17,-81.6 44.79,-74.09"/>
<polygon fill="#63b8ff" stroke="#63b8ff" points="65.93,-104.39 75.07,-109.75 71.26,-99.86 65.93,-104.39"/>
</a>
</g>
</g>
<!-- Node4 -->
<g id="Node000004" class="node">
<title>Node4</title>
<g id="a_Node000004"><a xlink:href="datetime_8c.html" target="_top" xlink:title=" ">
<polygon fill="white" stroke="#666666" points="162,-74 93,-74 93,-55 162,-55 162,-74"/>
<text text-anchor="middle" x="127.5" y="-62" font-family="Helvetica,sans-Serif" font-size="10.00">datetime.c</text>
</a>
</g>
</g>
<!-- Node1&#45;&gt;Node4 -->
<g id="edge3_Node000001_Node000004" class="edge">
<title>Node1&#45;&gt;Node4</title>
<g id="a_edge3_Node000001_Node000004"><a xlink:title=" ">
<path fill="none" stroke="#63b8ff" d="M96.55,-101.96C104.39,-92.72 113.83,-81.6 120.21,-74.09"/>
<polygon fill="#63b8ff" stroke="#63b8ff" points="93.74,-99.86 89.93,-109.75 99.07,-104.39 93.74,-99.86"/>
</a>
</g>
</g>
<!-- Node3 -->
<g id="Node000003" class="node">
<title>Node3</title>
<g id="a_Node000003"><a xlink:href="aon__timer_8c.html" target="_top" xlink:title=" ">
<polygon fill="white" stroke="#666666" points="74.5,-19 0.5,-19 0.5,0 74.5,0 74.5,-19"/>
<text text-anchor="middle" x="37.5" y="-7" font-family="Helvetica,sans-Serif" font-size="10.00">aon_timer.c</text>
</a>
</g>
</g>
<!-- Node2&#45;&gt;Node3 -->
<g id="edge2_Node000002_Node000003" class="edge">
<title>Node2&#45;&gt;Node3</title>
<g id="a_edge2_Node000002_Node000003"><a xlink:title=" ">
<path fill="none" stroke="#63b8ff" d="M37.5,-44.66C37.5,-35.93 37.5,-25.99 37.5,-19.09"/>
<polygon fill="#63b8ff" stroke="#63b8ff" points="34,-44.75 37.5,-54.75 41,-44.75 34,-44.75"/>
</a>
</g>
</g>
</g>
</svg>
