<?xml version="1.0" encoding="UTF-8" standalone="no"?>
<!DOCTYPE svg PUBLIC "-//W3C//DTD SVG 1.1//EN"
 "http://www.w3.org/Graphics/SVG/1.1/DTD/svg11.dtd">
<!-- Generated by graphviz version 2.43.0 (0)
 -->
<!-- Title: datetime.c Pages: 1 -->
<svg width="303pt" height="203pt"
 viewBox="0.00 0.00 302.50 203.00" xmlns="http://www.w3.org/2000/svg" xmlns:xlink="http://www.w3.org/1999/xlink">
<g id="graph0" class="graph" transform="scale(1 1) rotate(0) translate(4 199)">
<title>datetime.c</title>
<!-- Node1 -->
<g id="Node000001" class="node">
<title>Node1</title>
<g id="a_Node000001"><a xlink:title=" ">
<polygon fill="#999999" stroke="#666666" points="122.5,-195 53.5,-195 53.5,-176 122.5,-176 122.5,-195"/>
<text text-anchor="middle" x="88" y="-183" font-family="Helvetica,sans-Serif" font-size="10.00">datetime.c</text>
</a>
</g>
</g>
<!-- Node2 -->
<g id="Node000002" class="node">
<title>Node2</title>
<g id="a_Node000002"><a xlink:href="datetime_8h.html" target="_top" xlink:title=" ">
<polygon fill="white" stroke="#666666" points="144,-140 32,-140 32,-121 144,-121 144,-140"/>
<text text-anchor="middle" x="88" y="-128" font-family="Helvetica,sans-Serif" font-size="10.00">pico/util/datetime.h</text>
</a>
</g>
</g>
<!-- Node1&#45;&gt;Node2 -->
<g id="edge1_Node000001_Node000002" class="edge">
<title>Node1&#45;&gt;Node2</title>
<g id="a_edge1_Node000001_Node000002"><a xlink:title=" ">
<path fill="none" stroke="#63b8ff" d="M88,-175.75C88,-168.8 88,-158.85 88,-150.13"/>
<polygon fill="#63b8ff" stroke="#63b8ff" points="91.5,-150.09 88,-140.09 84.5,-150.09 91.5,-150.09"/>
</a>
</g>
</g>
<!-- Node3 -->
<g id="Node000003" class="node">
<title>Node3</title>
<g id="a_Node000003"><a xlink:title=" ">
<polygon fill="#e0e0e0" stroke="#999999" points="46,-85 0,-85 0,-66 46,-66 46,-85"/>
<text text-anchor="middle" x="23" y="-73" font-family="Helvetica,sans-Serif" font-size="10.00">pico.h</text>
</a>
</g>
</g>
<!-- Node2&#45;&gt;Node3 -->
<g id="edge2_Node000002_Node000003" class="edge">
<title>Node2&#45;&gt;Node3</title>
<g id="a_edge2_Node000002_Node000003"><a xlink:title=" ">
<path fill="none" stroke="#63b8ff" d="M77.56,-120.98C67.85,-113.07 53.18,-101.11 41.5,-91.58"/>
<polygon fill="#63b8ff" stroke="#63b8ff" points="43.6,-88.78 33.63,-85.17 39.17,-94.2 43.6,-88.78"/>
</a>
</g>
</g>
<!-- Node4 -->
<g id="Node000004" class="node">
<title>Node4</title>
<g id="a_Node000004"><a xlink:title=" ">
<polygon fill="#e0e0e0" stroke="#999999" points="112,-85 64,-85 64,-66 112,-66 112,-85"/>
<text text-anchor="middle" x="88" y="-73" font-family="Helvetica,sans-Serif" font-size="10.00">time.h</text>
</a>
</g>
</g>
<!-- Node2&#45;&gt;Node4 -->
<g id="edge3_Node000002_Node000004" class="edge">
<title>Node2&#45;&gt;Node4</title>
<g id="a_edge3_Node000002_Node000004"><a xlink:title=" ">
<path fill="none" stroke="#63b8ff" d="M88,-120.75C88,-113.8 88,-103.85 88,-95.13"/>
<polygon fill="#63b8ff" stroke="#63b8ff" points="91.5,-95.09 88,-85.09 84.5,-95.09 91.5,-95.09"/>
</a>
</g>
</g>
<!-- Node5 -->
<g id="Node000005" class="node">
<title>Node5</title>
<g id="a_Node000005"><a xlink:href="rp2__common_2pico__clib__interface_2include_2llvm__libc_2sys_2time_8h.html" target="_top" xlink:title=" ">
<polygon fill="white" stroke="#666666" points="198,-85 130,-85 130,-66 198,-66 198,-85"/>
<text text-anchor="middle" x="164" y="-73" font-family="Helvetica,sans-Serif" font-size="10.00">sys/time.h</text>
</a>
</g>
</g>
<!-- Node2&#45;&gt;Node5 -->
<g id="edge4_Node000002_Node000005" class="edge">
<title>Node2&#45;&gt;Node5</title>
<g id="a_edge4_Node000002_Node000005"><a xlink:title=" ">
<path fill="none" stroke="#63b8ff" d="M100.21,-120.98C111.78,-112.92 129.38,-100.65 143.16,-91.03"/>
<polygon fill="#63b8ff" stroke="#63b8ff" points="145.37,-93.76 151.57,-85.17 141.36,-88.02 145.37,-93.76"/>
</a>
</g>
</g>
<!-- Node6 -->
<g id="Node000006" class="node">
<title>Node6</title>
<g id="a_Node000006"><a xlink:title=" ">
<polygon fill="#e0e0e0" stroke="#999999" points="155.5,-24.5 30.5,-24.5 30.5,-5.5 155.5,-5.5 155.5,-24.5"/>
<text text-anchor="middle" x="93" y="-12.5" font-family="Helvetica,sans-Serif" font-size="10.00">__llvm&#45;libc&#45;common.h</text>
</a>
</g>
</g>
<!-- Node5&#45;&gt;Node6 -->
<g id="edge5_Node000005_Node000006" class="edge">
<title>Node5&#45;&gt;Node6</title>
<g id="a_edge5_Node000005_Node000006"><a xlink:title=" ">
<path fill="none" stroke="#63b8ff" d="M153.52,-65.87C142.51,-56.8 124.96,-42.34 111.59,-31.32"/>
<polygon fill="#63b8ff" stroke="#63b8ff" points="113.46,-28.33 103.52,-24.67 109.01,-33.73 113.46,-28.33"/>
</a>
</g>
</g>
<!-- Node7 -->
<g id="Node000007" class="node">
<title>Node7</title>
<g id="a_Node000007"><a xlink:title=" ">
<polygon fill="#e0e0e0" stroke="#999999" points="294.5,-30 173.5,-30 173.5,0 294.5,0 294.5,-30"/>
<text text-anchor="start" x="181.5" y="-18" font-family="Helvetica,sans-Serif" font-size="10.00">llvm&#45;libc&#45;types/struct</text>
<text text-anchor="middle" x="234" y="-7" font-family="Helvetica,sans-Serif" font-size="10.00">_timeval.h</text>
</a>
</g>
</g>
<!-- Node5&#45;&gt;Node7 -->
<g id="edge6_Node000005_Node000007" class="edge">
<title>Node5&#45;&gt;Node7</title>
<g id="a_edge6_Node000005_Node000007"><a xlink:title=" ">
<path fill="none" stroke="#63b8ff" d="M174.33,-65.87C183.48,-58.22 197.19,-46.76 209.17,-36.75"/>
<polygon fill="#63b8ff" stroke="#63b8ff" points="211.68,-39.21 217.11,-30.11 207.19,-33.84 211.68,-39.21"/>
</a>
</g>
</g>
</g>
</svg>
