<?xml version="1.0" encoding="UTF-8" standalone="no"?>
<!DOCTYPE svg PUBLIC "-//W3C//DTD SVG 1.1//EN"
 "http://www.w3.org/Graphics/SVG/1.1/DTD/svg11.dtd">
<!-- Generated by graphviz version 2.43.0 (0)
 -->
<!-- Title: pico_sha256 Pages: 1 -->
<svg width="312pt" height="196pt"
 viewBox="0.00 0.00 311.50 196.00" xmlns="http://www.w3.org/2000/svg" xmlns:xlink="http://www.w3.org/1999/xlink">
<g id="graph0" class="graph" transform="scale(1 1) rotate(0) translate(4 192)">
<title>pico_sha256</title>
<g id="clust1" class="cluster">
<title>clusterdir_436b3088c157a85dc167e6ddffc5dacd</title>
<g id="a_clust1"><a xlink:href="dir_436b3088c157a85dc167e6ddffc5dacd.html" target="_top" xlink:title="rp2_common">
<polygon fill="#edf0f7" stroke="#7f7f7f" stroke-dasharray="5,2" points="8,-8 8,-180 234,-180 234,-8 8,-8"/>
<text text-anchor="middle" x="121" y="-168" font-family="Helvetica,sans-Serif" font-size="10.00">rp2_common</text>
</a>
</g>
</g>
<g id="clust2" class="cluster">
<title>clusterdir_683e644fc9d49de2f438cddd40154917</title>
<g id="a_clust2"><a xlink:href="dir_683e644fc9d49de2f438cddd40154917.html" target="_top">
<polygon fill="#edf0f7" stroke="#404040" stroke-width="2" points="132,-63 132,-153 226,-153 226,-63 132,-63"/>
</a>
</g>
</g>
<!-- dir_1686c45b041666fce3b490096f338b4d -->
<g id="node1" class="node">
<title>dir_1686c45b041666fce3b490096f338b4d</title>
<g id="a_node1"><a xlink:href="dir_1686c45b041666fce3b490096f338b4d.html" target="_top" xlink:title="pico_bootrom">
<polygon fill="#a2b4d6" stroke="red" points="123.5,-90 40.5,-90 40.5,-71 123.5,-71 123.5,-90"/>
<text text-anchor="middle" x="82" y="-78" font-family="Helvetica,sans-Serif" font-size="10.00">pico_bootrom</text>
</a>
</g>
</g>
<!-- dir_241308b15ba8dcb979ff4dc1efe465b5 -->
<g id="node2" class="node">
<title>dir_241308b15ba8dcb979ff4dc1efe465b5</title>
<g id="a_node2"><a xlink:href="dir_241308b15ba8dcb979ff4dc1efe465b5.html" target="_top" xlink:title="hardware_dma">
<polygon fill="#a2b4d6" stroke="red" points="226.5,-35 137.5,-35 137.5,-16 226.5,-16 226.5,-35"/>
<text text-anchor="middle" x="182" y="-23" font-family="Helvetica,sans-Serif" font-size="10.00">hardware_dma</text>
</a>
</g>
</g>
<!-- dir_c91e5ce78114089b1678a39ecfb8d05f -->
<g id="node3" class="node">
<title>dir_c91e5ce78114089b1678a39ecfb8d05f</title>
<g id="a_node3"><a xlink:href="dir_c91e5ce78114089b1678a39ecfb8d05f.html" target="_top" xlink:title="hardware_sha256">
<polygon fill="#a2b4d6" stroke="red" points="119.5,-35 16.5,-35 16.5,-16 119.5,-16 119.5,-35"/>
<text text-anchor="middle" x="68" y="-23" font-family="Helvetica,sans-Serif" font-size="10.00">hardware_sha256</text>
</a>
</g>
</g>
<!-- dir_683e644fc9d49de2f438cddd40154917 -->
<g id="node4" class="node">
<title>dir_683e644fc9d49de2f438cddd40154917</title>
<text text-anchor="middle" x="179" y="-133" font-family="Helvetica,sans-Serif" font-size="10.00">pico_sha256</text>
</g>
<!-- dir_683e644fc9d49de2f438cddd40154917&#45;&gt;dir_1686c45b041666fce3b490096f338b4d -->
<g id="edge1" class="edge">
<title>dir_683e644fc9d49de2f438cddd40154917&#45;&gt;dir_1686c45b041666fce3b490096f338b4d</title>
<g id="a_edge1"><a xlink:href="dir_000355_000315.html" target="_top">
<path fill="none" stroke="#63b8ff" d="M163.42,-125.98C148.23,-117.69 124.9,-104.94 107.1,-95.22"/>
<polygon fill="#63b8ff" stroke="#63b8ff" points="108.32,-91.89 97.87,-90.17 104.97,-98.04 108.32,-91.89"/>
</a>
</g>
<g id="a_edge1&#45;headlabel"><a xlink:href="dir_000355_000315.html" target="_top" xlink:title="1">
<text text-anchor="middle" x="112.84" y="-88.63" font-family="Helvetica,sans-Serif" font-size="10.00" fill="#63b8ff">1</text>
</a>
</g>
</g>
<!-- dir_683e644fc9d49de2f438cddd40154917&#45;&gt;dir_c91e5ce78114089b1678a39ecfb8d05f -->
<g id="edge4" class="edge">
<title>dir_683e644fc9d49de2f438cddd40154917&#45;&gt;dir_c91e5ce78114089b1678a39ecfb8d05f</title>
<g id="a_edge4"><a xlink:href="dir_000355_000116.html" target="_top">
<path fill="none" stroke="#63b8ff" d="M140.33,-134.81C105.47,-132.77 55.97,-123.59 31,-90 23.84,-80.37 26.37,-74.07 31,-63 34.43,-54.81 40.69,-47.52 47.1,-41.65"/>
<polygon fill="#63b8ff" stroke="#63b8ff" points="49.64,-44.09 55.1,-35.01 45.17,-38.7 49.64,-44.09"/>
</a>
</g>
<g id="a_edge4&#45;headlabel"><a xlink:href="dir_000355_000116.html" target="_top" xlink:title="2">
<text text-anchor="middle" x="48.68" y="-46.07" font-family="Helvetica,sans-Serif" font-size="10.00" fill="#63b8ff">2</text>
</a>
</g>
</g>
<!-- dir_8facf06066ea6201b2209919dacdd7d4 -->
<g id="node5" class="node">
<title>dir_8facf06066ea6201b2209919dacdd7d4</title>
<g id="a_node5"><a xlink:href="dir_8facf06066ea6201b2209919dacdd7d4.html" target="_top" xlink:title="include">
<polygon fill="#a2b4d6" stroke="#404040" points="206,-90 154,-90 154,-71 206,-71 206,-90"/>
<text text-anchor="middle" x="180" y="-78" font-family="Helvetica,sans-Serif" font-size="10.00">include</text>
</a>
</g>
</g>
<!-- dir_683e644fc9d49de2f438cddd40154917&#45;&gt;dir_8facf06066ea6201b2209919dacdd7d4 -->
<g id="edge2" class="edge">
<title>dir_683e644fc9d49de2f438cddd40154917&#45;&gt;dir_8facf06066ea6201b2209919dacdd7d4</title>
<g id="a_edge2"><a xlink:href="dir_000355_000236.html" target="_top">
<path fill="none" stroke="#63b8ff" d="M179.17,-125.75C179.3,-118.8 179.48,-108.85 179.65,-100.13"/>
<polygon fill="#63b8ff" stroke="#63b8ff" points="183.15,-100.15 179.84,-90.09 176.15,-100.02 183.15,-100.15"/>
</a>
</g>
<g id="a_edge2&#45;headlabel"><a xlink:href="dir_000355_000236.html" target="_top" xlink:title="1">
<text text-anchor="middle" x="185.92" y="-101.3" font-family="Helvetica,sans-Serif" font-size="10.00" fill="#63b8ff">1</text>
</a>
</g>
</g>
<!-- dir_afd6173fcc80f68f3e45820d53e5d728 -->
<g id="node6" class="node">
<title>dir_afd6173fcc80f68f3e45820d53e5d728</title>
<g id="a_node6"><a xlink:href="dir_afd6173fcc80f68f3e45820d53e5d728.html" target="_top" xlink:title="common">
<polygon fill="#edf0f7" stroke="red" stroke-dasharray="5,2" points="303.5,-35 244.5,-35 244.5,-16 303.5,-16 303.5,-35"/>
<text text-anchor="middle" x="274" y="-23" font-family="Helvetica,sans-Serif" font-size="10.00">common</text>
</a>
</g>
</g>
<!-- dir_683e644fc9d49de2f438cddd40154917&#45;&gt;dir_afd6173fcc80f68f3e45820d53e5d728 -->
<g id="edge3" class="edge">
<title>dir_683e644fc9d49de2f438cddd40154917&#45;&gt;dir_afd6173fcc80f68f3e45820d53e5d728</title>
<g id="a_edge3"><a xlink:href="dir_000355_000027.html" target="_top">
<path fill="none" stroke="#63b8ff" d="M186.77,-125.66C202.72,-107.54 239.33,-65.91 259.69,-42.77"/>
<polygon fill="#63b8ff" stroke="#63b8ff" points="262.41,-44.98 266.38,-35.16 257.15,-40.36 262.41,-44.98"/>
</a>
</g>
<g id="a_edge3&#45;headlabel"><a xlink:href="dir_000355_000027.html" target="_top" xlink:title="2">
<text text-anchor="middle" x="262.16" y="-47.05" font-family="Helvetica,sans-Serif" font-size="10.00" fill="#63b8ff">2</text>
</a>
</g>
</g>
<!-- dir_8facf06066ea6201b2209919dacdd7d4&#45;&gt;dir_241308b15ba8dcb979ff4dc1efe465b5 -->
<g id="edge6" class="edge">
<title>dir_8facf06066ea6201b2209919dacdd7d4&#45;&gt;dir_241308b15ba8dcb979ff4dc1efe465b5</title>
<g id="a_edge6"><a xlink:href="dir_000236_000093.html" target="_top">
<path fill="none" stroke="#63b8ff" d="M180.33,-70.75C180.59,-63.8 180.97,-53.85 181.3,-45.13"/>
<polygon fill="#63b8ff" stroke="#63b8ff" points="184.8,-45.21 181.68,-35.09 177.8,-44.95 184.8,-45.21"/>
</a>
</g>
<g id="a_edge6&#45;headlabel"><a xlink:href="dir_000236_000093.html" target="_top" xlink:title="1">
<text text-anchor="middle" x="187.5" y="-46.41" font-family="Helvetica,sans-Serif" font-size="10.00" fill="#63b8ff">1</text>
</a>
</g>
</g>
<!-- dir_8facf06066ea6201b2209919dacdd7d4&#45;&gt;dir_c91e5ce78114089b1678a39ecfb8d05f -->
<g id="edge7" class="edge">
<title>dir_8facf06066ea6201b2209919dacdd7d4&#45;&gt;dir_c91e5ce78114089b1678a39ecfb8d05f</title>
<g id="a_edge7"><a xlink:href="dir_000236_000116.html" target="_top">
<path fill="none" stroke="#63b8ff" d="M164.87,-70.86C160.15,-68.25 154.9,-65.43 150,-63 132.89,-54.51 113.37,-45.78 97.67,-38.99"/>
<polygon fill="#63b8ff" stroke="#63b8ff" points="99.01,-35.76 88.44,-35.03 96.25,-42.19 99.01,-35.76"/>
</a>
</g>
<g id="a_edge7&#45;headlabel"><a xlink:href="dir_000236_000116.html" target="_top" xlink:title="1">
<text text-anchor="middle" x="103.43" y="-32.06" font-family="Helvetica,sans-Serif" font-size="10.00" fill="#63b8ff">1</text>
</a>
</g>
</g>
<!-- dir_8facf06066ea6201b2209919dacdd7d4&#45;&gt;dir_afd6173fcc80f68f3e45820d53e5d728 -->
<g id="edge5" class="edge">
<title>dir_8facf06066ea6201b2209919dacdd7d4&#45;&gt;dir_afd6173fcc80f68f3e45820d53e5d728</title>
<g id="a_edge5"><a xlink:href="dir_000236_000027.html" target="_top">
<path fill="none" stroke="#63b8ff" d="M195.1,-70.98C209.82,-62.69 232.42,-49.94 249.67,-40.22"/>
<polygon fill="#63b8ff" stroke="#63b8ff" points="251.63,-43.13 258.62,-35.17 248.19,-37.03 251.63,-43.13"/>
</a>
</g>
<g id="a_edge5&#45;headlabel"><a xlink:href="dir_000236_000027.html" target="_top" xlink:title="1">
<text text-anchor="middle" x="249.89" y="-44.87" font-family="Helvetica,sans-Serif" font-size="10.00" fill="#63b8ff">1</text>
</a>
</g>
</g>
</g>
</svg>
