<?xml version="1.0" encoding="UTF-8" standalone="no"?>
<!DOCTYPE svg PUBLIC "-//W3C//DTD SVG 1.1//EN"
 "http://www.w3.org/Graphics/SVG/1.1/DTD/svg11.dtd">
<!-- Generated by graphviz version 2.43.0 (0)
 -->
<!-- Title: pico_stdio_rtt Pages: 1 -->
<svg width="261pt" height="180pt"
 viewBox="0.00 0.00 260.52 180.00" xmlns="http://www.w3.org/2000/svg" xmlns:xlink="http://www.w3.org/1999/xlink">
<g id="graph0" class="graph" transform="scale(1 1) rotate(0) translate(4 176)">
<title>pico_stdio_rtt</title>
<g id="clust1" class="cluster">
<title>clusterdir_436b3088c157a85dc167e6ddffc5dacd</title>
<g id="a_clust1"><a xlink:href="dir_436b3088c157a85dc167e6ddffc5dacd.html" target="_top" xlink:title="rp2_common">
<polygon fill="#edf0f7" stroke="#7f7f7f" stroke-dasharray="5,2" points="8,-39 8,-164 242,-164 242,-39 8,-39"/>
<text text-anchor="middle" x="125" y="-152" font-family="Helvetica,sans-Serif" font-size="10.00">rp2_common</text>
</a>
</g>
</g>
<g id="clust2" class="cluster">
<title>clusterdir_1b0c3ecf9e1007edce762e0de6610e37</title>
<g id="a_clust2"><a xlink:href="dir_1b0c3ecf9e1007edce762e0de6610e37.html" target="_top">
<polygon fill="#edf0f7" stroke="#404040" stroke-width="2" points="16,-47 16,-137 158,-137 158,-47 16,-47"/>
</a>
</g>
</g>
<!-- dir_4cd518a5b6eea2826134a7999a20c94c -->
<g id="node1" class="node">
<title>dir_4cd518a5b6eea2826134a7999a20c94c</title>
<g id="a_node1"><a xlink:href="dir_4cd518a5b6eea2826134a7999a20c94c.html" target="_top" xlink:title="pico_stdio">
<polygon fill="#a2b4d6" stroke="red" points="234,-74 168,-74 168,-55 234,-55 234,-74"/>
<text text-anchor="middle" x="201" y="-62" font-family="Helvetica,sans-Serif" font-size="10.00">pico_stdio</text>
</a>
</g>
</g>
<!-- dir_1b0c3ecf9e1007edce762e0de6610e37 -->
<g id="node2" class="node">
<title>dir_1b0c3ecf9e1007edce762e0de6610e37</title>
<text text-anchor="middle" x="108" y="-117" font-family="Helvetica,sans-Serif" font-size="10.00">pico_stdio_rtt</text>
</g>
<!-- dir_1b0c3ecf9e1007edce762e0de6610e37&#45;&gt;dir_4cd518a5b6eea2826134a7999a20c94c -->
<g id="edge1" class="edge">
<title>dir_1b0c3ecf9e1007edce762e0de6610e37&#45;&gt;dir_4cd518a5b6eea2826134a7999a20c94c</title>
<g id="a_edge1"><a xlink:href="dir_000363_000362.html" target="_top">
<path fill="none" stroke="#63b8ff" d="M122.94,-109.98C137.5,-101.69 159.87,-88.94 176.93,-79.22"/>
<polygon fill="#63b8ff" stroke="#63b8ff" points="178.83,-82.16 185.79,-74.17 175.36,-76.08 178.83,-82.16"/>
</a>
</g>
<g id="a_edge1&#45;headlabel"><a xlink:href="dir_000363_000362.html" target="_top" xlink:title="1">
<text text-anchor="middle" x="177.11" y="-83.91" font-family="Helvetica,sans-Serif" font-size="10.00" fill="#63b8ff">1</text>
</a>
</g>
</g>
<!-- dir_55c6aab13d5ff5807e16478a978a35b9 -->
<g id="node3" class="node">
<title>dir_55c6aab13d5ff5807e16478a978a35b9</title>
<g id="a_node3"><a xlink:href="dir_55c6aab13d5ff5807e16478a978a35b9.html" target="_top" xlink:title="include">
<polygon fill="#a2b4d6" stroke="#404040" points="76,-74 24,-74 24,-55 76,-55 76,-74"/>
<text text-anchor="middle" x="50" y="-62" font-family="Helvetica,sans-Serif" font-size="10.00">include</text>
</a>
</g>
</g>
<!-- dir_1b0c3ecf9e1007edce762e0de6610e37&#45;&gt;dir_55c6aab13d5ff5807e16478a978a35b9 -->
<g id="edge2" class="edge">
<title>dir_1b0c3ecf9e1007edce762e0de6610e37&#45;&gt;dir_55c6aab13d5ff5807e16478a978a35b9</title>
<g id="a_edge2"><a xlink:href="dir_000363_000239.html" target="_top">
<path fill="none" stroke="#63b8ff" d="M98.68,-109.98C90.19,-102.23 77.44,-90.58 67.12,-81.14"/>
<polygon fill="#63b8ff" stroke="#63b8ff" points="69.23,-78.33 59.49,-74.17 64.51,-83.5 69.23,-78.33"/>
</a>
</g>
<g id="a_edge2&#45;headlabel"><a xlink:href="dir_000363_000239.html" target="_top" xlink:title="1">
<text text-anchor="middle" x="73.8" y="-76.16" font-family="Helvetica,sans-Serif" font-size="10.00" fill="#63b8ff">1</text>
</a>
</g>
</g>
<!-- dir_561ec7be99c5a672b2d4877ef2ce91ab -->
<g id="node4" class="node">
<title>dir_561ec7be99c5a672b2d4877ef2ce91ab</title>
<g id="a_node4"><a xlink:href="dir_561ec7be99c5a672b2d4877ef2ce91ab.html" target="_top" xlink:title="SEGGER">
<polygon fill="#a2b4d6" stroke="#404040" points="150,-74 94,-74 94,-55 150,-55 150,-74"/>
<text text-anchor="middle" x="122" y="-62" font-family="Helvetica,sans-Serif" font-size="10.00">SEGGER</text>
</a>
</g>
</g>
<!-- dir_1b0c3ecf9e1007edce762e0de6610e37&#45;&gt;dir_561ec7be99c5a672b2d4877ef2ce91ab -->
<g id="edge3" class="edge">
<title>dir_1b0c3ecf9e1007edce762e0de6610e37&#45;&gt;dir_561ec7be99c5a672b2d4877ef2ce91ab</title>
<g id="a_edge3"><a xlink:href="dir_000363_000397.html" target="_top">
<path fill="none" stroke="#63b8ff" d="M110.31,-109.75C112.17,-102.72 114.84,-92.62 117.15,-83.84"/>
<polygon fill="#63b8ff" stroke="#63b8ff" points="120.56,-84.65 119.73,-74.09 113.79,-82.86 120.56,-84.65"/>
</a>
</g>
<g id="a_edge3&#45;headlabel"><a xlink:href="dir_000363_000397.html" target="_top" xlink:title="2">
<text text-anchor="middle" x="122.39" y="-86.35" font-family="Helvetica,sans-Serif" font-size="10.00" fill="#63b8ff">2</text>
</a>
</g>
</g>
<!-- dir_afd6173fcc80f68f3e45820d53e5d728 -->
<g id="node5" class="node">
<title>dir_afd6173fcc80f68f3e45820d53e5d728</title>
<g id="a_node5"><a xlink:href="dir_afd6173fcc80f68f3e45820d53e5d728.html" target="_top" xlink:title="common">
<polygon fill="#edf0f7" stroke="red" stroke-dasharray="5,2" points="221.5,-19 162.5,-19 162.5,0 221.5,0 221.5,-19"/>
<text text-anchor="middle" x="192" y="-7" font-family="Helvetica,sans-Serif" font-size="10.00">common</text>
</a>
</g>
</g>
<!-- dir_1b0c3ecf9e1007edce762e0de6610e37&#45;&gt;dir_afd6173fcc80f68f3e45820d53e5d728 -->
<g id="edge4" class="edge">
<title>dir_1b0c3ecf9e1007edce762e0de6610e37&#45;&gt;dir_afd6173fcc80f68f3e45820d53e5d728</title>
<g id="a_edge4"><a xlink:href="dir_000363_000027.html" target="_top">
<path fill="none" stroke="#63b8ff" d="M149.58,-117.47C181.66,-114.22 224.14,-104.01 246,-74 255.16,-61.43 254.03,-52.32 246,-39 242.2,-32.7 236.49,-27.72 230.18,-23.8"/>
<polygon fill="#63b8ff" stroke="#63b8ff" points="231.81,-20.71 221.34,-19.11 228.53,-26.89 231.81,-20.71"/>
</a>
</g>
<g id="a_edge4&#45;headlabel"><a xlink:href="dir_000363_000027.html" target="_top" xlink:title="2">
<text text-anchor="middle" x="236.32" y="-17.38" font-family="Helvetica,sans-Serif" font-size="10.00" fill="#63b8ff">2</text>
</a>
</g>
</g>
<!-- dir_561ec7be99c5a672b2d4877ef2ce91ab&#45;&gt;dir_afd6173fcc80f68f3e45820d53e5d728 -->
<g id="edge5" class="edge">
<title>dir_561ec7be99c5a672b2d4877ef2ce91ab&#45;&gt;dir_afd6173fcc80f68f3e45820d53e5d728</title>
<g id="a_edge5"><a xlink:href="dir_000397_000027.html" target="_top">
<path fill="none" stroke="#63b8ff" d="M133.23,-54.86C139.36,-50.15 147.09,-44.24 154,-39 159.92,-34.52 166.37,-29.66 172.26,-25.25"/>
<polygon fill="#63b8ff" stroke="#63b8ff" points="174.43,-28 180.34,-19.2 170.23,-22.39 174.43,-28"/>
</a>
</g>
<g id="a_edge5&#45;headlabel"><a xlink:href="dir_000397_000027.html" target="_top" xlink:title="1">
<text text-anchor="middle" x="173.25" y="-29.92" font-family="Helvetica,sans-Serif" font-size="10.00" fill="#63b8ff">1</text>
</a>
</g>
</g>
</g>
</svg>
