<?xml version="1.0" encoding="UTF-8" standalone="no"?>
<!DOCTYPE svg PUBLIC "-//W3C//DTD SVG 1.1//EN"
 "http://www.w3.org/Graphics/SVG/1.1/DTD/svg11.dtd">
<!-- Generated by graphviz version 2.43.0 (0)
 -->
<!-- Title: pico_async_context Pages: 1 -->
<svg width="170pt" height="180pt"
 viewBox="0.00 0.00 170.00 180.00" xmlns="http://www.w3.org/2000/svg" xmlns:xlink="http://www.w3.org/1999/xlink">
<g id="graph0" class="graph" transform="scale(1 1) rotate(0) translate(4 176)">
<title>pico_async_context</title>
<g id="clust1" class="cluster">
<title>clusterdir_436b3088c157a85dc167e6ddffc5dacd</title>
<g id="a_clust1"><a xlink:href="dir_436b3088c157a85dc167e6ddffc5dacd.html" target="_top" xlink:title="rp2_common">
<polygon fill="#edf0f7" stroke="#7f7f7f" stroke-dasharray="5,2" points="8,-39 8,-164 154,-164 154,-39 8,-39"/>
<text text-anchor="middle" x="81" y="-152" font-family="Helvetica,sans-Serif" font-size="10.00">rp2_common</text>
</a>
</g>
</g>
<g id="clust2" class="cluster">
<title>clusterdir_81ef59eb999ec4aab3b1999cf2329c91</title>
<g id="a_clust2"><a xlink:href="dir_81ef59eb999ec4aab3b1999cf2329c91.html" target="_top">
<polygon fill="#edf0f7" stroke="#404040" stroke-width="2" points="16,-47 16,-137 146,-137 146,-47 16,-47"/>
</a>
</g>
</g>
<!-- dir_81ef59eb999ec4aab3b1999cf2329c91 -->
<g id="node1" class="node">
<title>dir_81ef59eb999ec4aab3b1999cf2329c91</title>
<text text-anchor="middle" x="81" y="-117" font-family="Helvetica,sans-Serif" font-size="10.00">pico_async_context</text>
</g>
<!-- dir_c9d05fcd2c3ce58caa3436564b187736 -->
<g id="node2" class="node">
<title>dir_c9d05fcd2c3ce58caa3436564b187736</title>
<g id="a_node2"><a xlink:href="dir_c9d05fcd2c3ce58caa3436564b187736.html" target="_top" xlink:title="include">
<polygon fill="#a2b4d6" stroke="#404040" points="91,-74 39,-74 39,-55 91,-55 91,-74"/>
<text text-anchor="middle" x="65" y="-62" font-family="Helvetica,sans-Serif" font-size="10.00">include</text>
</a>
</g>
</g>
<!-- dir_81ef59eb999ec4aab3b1999cf2329c91&#45;&gt;dir_c9d05fcd2c3ce58caa3436564b187736 -->
<g id="edge2" class="edge">
<title>dir_81ef59eb999ec4aab3b1999cf2329c91&#45;&gt;dir_c9d05fcd2c3ce58caa3436564b187736</title>
<g id="a_edge2"><a xlink:href="dir_000308_000210.html" target="_top">
<path fill="none" stroke="#63b8ff" d="M78.36,-109.75C76.24,-102.72 73.19,-92.62 70.54,-83.84"/>
<polygon fill="#63b8ff" stroke="#63b8ff" points="73.83,-82.65 67.59,-74.09 67.13,-84.67 73.83,-82.65"/>
</a>
</g>
<g id="a_edge2&#45;headlabel"><a xlink:href="dir_000308_000210.html" target="_top" xlink:title="7">
<text text-anchor="middle" x="77.59" y="-82.77" font-family="Helvetica,sans-Serif" font-size="10.00" fill="#63b8ff">7</text>
</a>
</g>
</g>
<!-- dir_afd6173fcc80f68f3e45820d53e5d728 -->
<g id="node3" class="node">
<title>dir_afd6173fcc80f68f3e45820d53e5d728</title>
<g id="a_node3"><a xlink:href="dir_afd6173fcc80f68f3e45820d53e5d728.html" target="_top" xlink:title="common">
<polygon fill="#edf0f7" stroke="red" stroke-dasharray="5,2" points="121.5,-19 62.5,-19 62.5,0 121.5,0 121.5,-19"/>
<text text-anchor="middle" x="92" y="-7" font-family="Helvetica,sans-Serif" font-size="10.00">common</text>
</a>
</g>
</g>
<!-- dir_81ef59eb999ec4aab3b1999cf2329c91&#45;&gt;dir_afd6173fcc80f68f3e45820d53e5d728 -->
<g id="edge1" class="edge">
<title>dir_81ef59eb999ec4aab3b1999cf2329c91&#45;&gt;dir_afd6173fcc80f68f3e45820d53e5d728</title>
<g id="a_edge1"><a xlink:href="dir_000308_000027.html" target="_top">
<path fill="none" stroke="#63b8ff" d="M85.88,-109.98C90.56,-101.26 97.31,-87.17 100,-74 103.12,-58.76 102.12,-54.41 100,-39 99.55,-35.7 98.81,-32.23 97.96,-28.91"/>
<polygon fill="#63b8ff" stroke="#63b8ff" points="101.25,-27.71 95.08,-19.1 94.54,-29.68 101.25,-27.71"/>
</a>
</g>
<g id="a_edge1&#45;headlabel"><a xlink:href="dir_000308_000027.html" target="_top" xlink:title="7">
<text text-anchor="middle" x="104.99" y="-27.86" font-family="Helvetica,sans-Serif" font-size="10.00" fill="#63b8ff">7</text>
</a>
</g>
</g>
<!-- dir_c9d05fcd2c3ce58caa3436564b187736&#45;&gt;dir_afd6173fcc80f68f3e45820d53e5d728 -->
<g id="edge3" class="edge">
<title>dir_c9d05fcd2c3ce58caa3436564b187736&#45;&gt;dir_afd6173fcc80f68f3e45820d53e5d728</title>
<g id="a_edge3"><a xlink:href="dir_000210_000027.html" target="_top">
<path fill="none" stroke="#63b8ff" d="M69.46,-54.75C73.12,-47.57 78.41,-37.18 82.95,-28.27"/>
<polygon fill="#63b8ff" stroke="#63b8ff" points="86.2,-29.59 87.62,-19.09 79.97,-26.41 86.2,-29.59"/>
</a>
</g>
<g id="a_edge3&#45;headlabel"><a xlink:href="dir_000210_000027.html" target="_top" xlink:title="4">
<text text-anchor="middle" x="87.1" y="-31.58" font-family="Helvetica,sans-Serif" font-size="10.00" fill="#63b8ff">4</text>
</a>
</g>
</g>
</g>
</svg>
