<?xml version="1.0" encoding="UTF-8" standalone="no"?>
<!DOCTYPE svg PUBLIC "-//W3C//DTD SVG 1.1//EN"
 "http://www.w3.org/Graphics/SVG/1.1/DTD/svg11.dtd">
<!-- Generated by graphviz version 2.43.0 (0)
 -->
<!-- Title: rp2040 Pages: 1 -->
<svg width="392pt" height="204pt"
 viewBox="0.00 0.00 392.00 204.00" xmlns="http://www.w3.org/2000/svg" xmlns:xlink="http://www.w3.org/1999/xlink">
<g id="graph0" class="graph" transform="scale(1 1) rotate(0) translate(4 200)">
<title>rp2040</title>
<g id="clust1" class="cluster">
<title>clusterdir_95c2d016205e82d1735adeeb1baa7b1e</title>
<g id="a_clust1"><a xlink:href="dir_95c2d016205e82d1735adeeb1baa7b1e.html" target="_top" xlink:title="src">
<polygon fill="#edf0f7" stroke="#7f7f7f" stroke-dasharray="5,2" points="8,-8 8,-188 376,-188 376,-8 8,-8"/>
<text text-anchor="middle" x="192" y="-176" font-family="Helvetica,sans-Serif" font-size="10.00">src</text>
</a>
</g>
</g>
<g id="clust2" class="cluster">
<title>clusterdir_4ac589b440aff5baf23efca9e5fad2db</title>
<g id="a_clust2"><a xlink:href="dir_4ac589b440aff5baf23efca9e5fad2db.html" target="_top">
<polygon fill="#edf0f7" stroke="#404040" stroke-width="2" points="16,-16 16,-161 280,-161 280,-16 16,-16"/>
</a>
</g>
</g>
<!-- dir_436b3088c157a85dc167e6ddffc5dacd -->
<g id="node1" class="node">
<title>dir_436b3088c157a85dc167e6ddffc5dacd</title>
<g id="a_node1"><a xlink:href="dir_436b3088c157a85dc167e6ddffc5dacd.html" target="_top" xlink:title="rp2_common">
<polygon fill="#a2b4d6" stroke="red" points="368,-43 288,-43 288,-24 368,-24 368,-43"/>
<text text-anchor="middle" x="328" y="-31" font-family="Helvetica,sans-Serif" font-size="10.00">rp2_common</text>
</a>
</g>
</g>
<!-- dir_4ac589b440aff5baf23efca9e5fad2db -->
<g id="node2" class="node">
<title>dir_4ac589b440aff5baf23efca9e5fad2db</title>
<text text-anchor="middle" x="247" y="-141" font-family="Helvetica,sans-Serif" font-size="10.00">rp2040</text>
</g>
<!-- dir_012e9c3d450f6ad34615f8ac79cf7375 -->
<g id="node3" class="node">
<title>dir_012e9c3d450f6ad34615f8ac79cf7375</title>
<g id="a_node3"><a xlink:href="dir_012e9c3d450f6ad34615f8ac79cf7375.html" target="_top" xlink:title="boot_stage2">
<polygon fill="#a2b4d6" stroke="#404040" points="203.5,-153 126.5,-153 126.5,-134 203.5,-134 203.5,-153"/>
<text text-anchor="middle" x="165" y="-141" font-family="Helvetica,sans-Serif" font-size="10.00">boot_stage2</text>
</a>
</g>
</g>
<!-- dir_06354e3bf814a9a205e28ace252ee3f5 -->
<g id="node4" class="node">
<title>dir_06354e3bf814a9a205e28ace252ee3f5</title>
<g id="a_node4"><a xlink:href="dir_06354e3bf814a9a205e28ace252ee3f5.html" target="_top" xlink:title="hardware_regs">
<polygon fill="#a2b4d6" stroke="#404040" points="146.5,-43 57.5,-43 57.5,-24 146.5,-24 146.5,-43"/>
<text text-anchor="middle" x="102" y="-31" font-family="Helvetica,sans-Serif" font-size="10.00">hardware_regs</text>
</a>
</g>
</g>
<!-- dir_519578c92a94c221750fe2f676450158 -->
<g id="node5" class="node">
<title>dir_519578c92a94c221750fe2f676450158</title>
<g id="a_node5"><a xlink:href="dir_519578c92a94c221750fe2f676450158.html" target="_top" xlink:title="hardware_structs">
<polygon fill="#a2b4d6" stroke="#404040" points="186.5,-98 85.5,-98 85.5,-79 186.5,-79 186.5,-98"/>
<text text-anchor="middle" x="136" y="-86" font-family="Helvetica,sans-Serif" font-size="10.00">hardware_structs</text>
</a>
</g>
</g>
<!-- dir_519578c92a94c221750fe2f676450158&#45;&gt;dir_436b3088c157a85dc167e6ddffc5dacd -->
<g id="edge1" class="edge">
<title>dir_519578c92a94c221750fe2f676450158&#45;&gt;dir_436b3088c157a85dc167e6ddffc5dacd</title>
<g id="a_edge1"><a xlink:href="dir_000118_000395.html" target="_top">
<path fill="none" stroke="#63b8ff" d="M166.85,-78.98C199.5,-69.97 251.2,-55.7 287.2,-45.76"/>
<polygon fill="#63b8ff" stroke="#63b8ff" points="288.2,-49.12 296.91,-43.08 286.34,-42.37 288.2,-49.12"/>
</a>
</g>
<g id="a_edge1&#45;headlabel"><a xlink:href="dir_000118_000395.html" target="_top" xlink:title="37">
<text text-anchor="middle" x="285.49" y="-50.31" font-family="Helvetica,sans-Serif" font-size="10.00" fill="#63b8ff">37</text>
</a>
</g>
</g>
<!-- dir_519578c92a94c221750fe2f676450158&#45;&gt;dir_06354e3bf814a9a205e28ace252ee3f5 -->
<g id="edge2" class="edge">
<title>dir_519578c92a94c221750fe2f676450158&#45;&gt;dir_06354e3bf814a9a205e28ace252ee3f5</title>
<g id="a_edge2"><a xlink:href="dir_000118_000110.html" target="_top">
<path fill="none" stroke="#63b8ff" d="M130.39,-78.75C125.68,-71.42 118.83,-60.73 113.03,-51.7"/>
<polygon fill="#63b8ff" stroke="#63b8ff" points="115.86,-49.62 107.51,-43.09 109.96,-53.4 115.86,-49.62"/>
</a>
</g>
<g id="a_edge2&#45;headlabel"><a xlink:href="dir_000118_000110.html" target="_top" xlink:title="8">
<text text-anchor="middle" x="120.19" y="-48.61" font-family="Helvetica,sans-Serif" font-size="10.00" fill="#63b8ff">8</text>
</a>
</g>
</g>
<!-- dir_51ec936d7a40ec30ddeb071179168d1a -->
<g id="node6" class="node">
<title>dir_51ec936d7a40ec30ddeb071179168d1a</title>
<g id="a_node6"><a xlink:href="dir_51ec936d7a40ec30ddeb071179168d1a.html" target="_top" xlink:title="pico_platform">
<polygon fill="#a2b4d6" stroke="#404040" points="108,-153 24,-153 24,-134 108,-134 108,-153"/>
<text text-anchor="middle" x="66" y="-141" font-family="Helvetica,sans-Serif" font-size="10.00">pico_platform</text>
</a>
</g>
</g>
<!-- dir_51ec936d7a40ec30ddeb071179168d1a&#45;&gt;dir_436b3088c157a85dc167e6ddffc5dacd -->
<g id="edge3" class="edge">
<title>dir_51ec936d7a40ec30ddeb071179168d1a&#45;&gt;dir_436b3088c157a85dc167e6ddffc5dacd</title>
<g id="a_edge3"><a xlink:href="dir_000341_000395.html" target="_top">
<path fill="none" stroke="#63b8ff" d="M94,-133.98C120.56,-125.64 161.46,-112.16 196,-98 233.93,-82.45 276.43,-61.3 302.71,-47.78"/>
<polygon fill="#63b8ff" stroke="#63b8ff" points="304.35,-50.87 311.62,-43.16 301.13,-44.65 304.35,-50.87"/>
</a>
</g>
<g id="a_edge3&#45;headlabel"><a xlink:href="dir_000341_000395.html" target="_top" xlink:title="5">
<text text-anchor="middle" x="302.46" y="-52.54" font-family="Helvetica,sans-Serif" font-size="10.00" fill="#63b8ff">5</text>
</a>
</g>
</g>
<!-- dir_51ec936d7a40ec30ddeb071179168d1a&#45;&gt;dir_06354e3bf814a9a205e28ace252ee3f5 -->
<g id="edge4" class="edge">
<title>dir_51ec936d7a40ec30ddeb071179168d1a&#45;&gt;dir_06354e3bf814a9a205e28ace252ee3f5</title>
<g id="a_edge4"><a xlink:href="dir_000341_000110.html" target="_top">
<path fill="none" stroke="#63b8ff" d="M66.36,-133.62C67.1,-121.1 69.33,-97.71 76,-79 79.41,-69.43 84.91,-59.59 89.98,-51.61"/>
<polygon fill="#63b8ff" stroke="#63b8ff" points="92.94,-53.48 95.57,-43.22 87.11,-49.6 92.94,-53.48"/>
</a>
</g>
<g id="a_edge4&#45;headlabel"><a xlink:href="dir_000341_000110.html" target="_top" xlink:title="1">
<text text-anchor="middle" x="93.31" y="-55.54" font-family="Helvetica,sans-Serif" font-size="10.00" fill="#63b8ff">1</text>
</a>
</g>
</g>
<!-- dir_51ec936d7a40ec30ddeb071179168d1a&#45;&gt;dir_519578c92a94c221750fe2f676450158 -->
<g id="edge5" class="edge">
<title>dir_51ec936d7a40ec30ddeb071179168d1a&#45;&gt;dir_519578c92a94c221750fe2f676450158</title>
<g id="a_edge5"><a xlink:href="dir_000341_000118.html" target="_top">
<path fill="none" stroke="#63b8ff" d="M77.25,-133.98C87.8,-126 103.8,-113.88 116.44,-104.31"/>
<polygon fill="#63b8ff" stroke="#63b8ff" points="118.69,-107 124.55,-98.17 114.46,-101.42 118.69,-107"/>
</a>
</g>
<g id="a_edge5&#45;headlabel"><a xlink:href="dir_000341_000118.html" target="_top" xlink:title="1">
<text text-anchor="middle" x="117.54" y="-108.93" font-family="Helvetica,sans-Serif" font-size="10.00" fill="#63b8ff">1</text>
</a>
</g>
</g>
</g>
</svg>
