<?xml version="1.0" encoding="UTF-8" standalone="no"?>
<!DOCTYPE svg PUBLIC "-//W3C//DTD SVG 1.1//EN"
 "http://www.w3.org/Graphics/SVG/1.1/DTD/svg11.dtd">
<!-- Generated by graphviz version 2.43.0 (0)
 -->
<!-- Title: host Pages: 1 -->
<svg width="1729pt" height="141pt"
 viewBox="0.00 0.00 1729.00 141.00" xmlns="http://www.w3.org/2000/svg" xmlns:xlink="http://www.w3.org/1999/xlink">
<g id="graph0" class="graph" transform="scale(1 1) rotate(0) translate(4 137)">
<title>host</title>
<g id="clust1" class="cluster">
<title>clusterdir_95c2d016205e82d1735adeeb1baa7b1e</title>
<g id="a_clust1"><a xlink:href="dir_95c2d016205e82d1735adeeb1baa7b1e.html" target="_top" xlink:title="src">
<polygon fill="#edf0f7" stroke="#7f7f7f" stroke-dasharray="5,2" points="8,-8 8,-125 1713,-125 1713,-8 8,-8"/>
<text text-anchor="middle" x="860.5" y="-113" font-family="Helvetica,sans-Serif" font-size="10.00">src</text>
</a>
</g>
</g>
<g id="clust2" class="cluster">
<title>clusterdir_807b6346a9c18472135e047d65c02b1e</title>
<g id="a_clust2"><a xlink:href="dir_807b6346a9c18472135e047d65c02b1e.html" target="_top">
<polygon fill="#edf0f7" stroke="#404040" stroke-width="2" points="16,-63 16,-98 1705,-98 1705,-63 16,-63"/>
</a>
</g>
</g>
<!-- dir_afd6173fcc80f68f3e45820d53e5d728 -->
<g id="node1" class="node">
<title>dir_afd6173fcc80f68f3e45820d53e5d728</title>
<g id="a_node1"><a xlink:href="dir_afd6173fcc80f68f3e45820d53e5d728.html" target="_top" xlink:title="common">
<polygon fill="#a2b4d6" stroke="red" points="785.5,-35 726.5,-35 726.5,-16 785.5,-16 785.5,-35"/>
<text text-anchor="middle" x="756" y="-23" font-family="Helvetica,sans-Serif" font-size="10.00">common</text>
</a>
</g>
</g>
<!-- dir_807b6346a9c18472135e047d65c02b1e -->
<g id="node2" class="node">
<title>dir_807b6346a9c18472135e047d65c02b1e</title>
<text text-anchor="middle" x="1678" y="-78" font-family="Helvetica,sans-Serif" font-size="10.00">host</text>
</g>
<!-- dir_ed3cf42416586dd019b5454527855a3d -->
<g id="node3" class="node">
<title>dir_ed3cf42416586dd019b5454527855a3d</title>
<g id="a_node3"><a xlink:href="dir_ed3cf42416586dd019b5454527855a3d.html" target="_top" xlink:title="hardware_divider">
<polygon fill="#a2b4d6" stroke="#404040" points="1640.5,-90 1539.5,-90 1539.5,-71 1640.5,-71 1640.5,-90"/>
<text text-anchor="middle" x="1590" y="-78" font-family="Helvetica,sans-Serif" font-size="10.00">hardware_divider</text>
</a>
</g>
</g>
<!-- dir_d9cd45e716cab9c86e6919f6f7b63dd5 -->
<g id="node4" class="node">
<title>dir_d9cd45e716cab9c86e6919f6f7b63dd5</title>
<g id="a_node4"><a xlink:href="dir_d9cd45e716cab9c86e6919f6f7b63dd5.html" target="_top" xlink:title="hardware_gpio">
<polygon fill="#a2b4d6" stroke="#404040" points="1521.5,-90 1432.5,-90 1432.5,-71 1521.5,-71 1521.5,-90"/>
<text text-anchor="middle" x="1477" y="-78" font-family="Helvetica,sans-Serif" font-size="10.00">hardware_gpio</text>
</a>
</g>
</g>
<!-- dir_77e31cb4e8c0c22b924b611bd74f9c9e -->
<g id="node5" class="node">
<title>dir_77e31cb4e8c0c22b924b611bd74f9c9e</title>
<g id="a_node5"><a xlink:href="dir_77e31cb4e8c0c22b924b611bd74f9c9e.html" target="_top" xlink:title="hardware_irq">
<polygon fill="#a2b4d6" stroke="#404040" points="1414,-90 1334,-90 1334,-71 1414,-71 1414,-90"/>
<text text-anchor="middle" x="1374" y="-78" font-family="Helvetica,sans-Serif" font-size="10.00">hardware_irq</text>
</a>
</g>
</g>
<!-- dir_77e31cb4e8c0c22b924b611bd74f9c9e&#45;&gt;dir_afd6173fcc80f68f3e45820d53e5d728 -->
<g id="edge1" class="edge">
<title>dir_77e31cb4e8c0c22b924b611bd74f9c9e&#45;&gt;dir_afd6173fcc80f68f3e45820d53e5d728</title>
<g id="a_edge1"><a xlink:href="dir_000101_000027.html" target="_top">
<path fill="none" stroke="#63b8ff" d="M1352.38,-70.86C1343.96,-67.87 1334.16,-64.8 1325,-63 1223.39,-42.99 907.73,-31.31 795.83,-27.71"/>
<polygon fill="#63b8ff" stroke="#63b8ff" points="795.76,-24.2 785.65,-27.38 795.53,-31.2 795.76,-24.2"/>
</a>
</g>
<g id="a_edge1&#45;headlabel"><a xlink:href="dir_000101_000027.html" target="_top" xlink:title="1">
<text text-anchor="middle" x="799.44" y="-18.98" font-family="Helvetica,sans-Serif" font-size="10.00" fill="#63b8ff">1</text>
</a>
</g>
</g>
<!-- dir_cd94a18a3a0f384352433a66814257d9 -->
<g id="node6" class="node">
<title>dir_cd94a18a3a0f384352433a66814257d9</title>
<g id="a_node6"><a xlink:href="dir_cd94a18a3a0f384352433a66814257d9.html" target="_top" xlink:title="hardware_sync">
<polygon fill="#a2b4d6" stroke="#404040" points="1316,-90 1226,-90 1226,-71 1316,-71 1316,-90"/>
<text text-anchor="middle" x="1271" y="-78" font-family="Helvetica,sans-Serif" font-size="10.00">hardware_sync</text>
</a>
</g>
</g>
<!-- dir_79b8c2f95dd409791adca23e958d87d8 -->
<g id="node7" class="node">
<title>dir_79b8c2f95dd409791adca23e958d87d8</title>
<g id="a_node7"><a xlink:href="dir_79b8c2f95dd409791adca23e958d87d8.html" target="_top" xlink:title="hardware_timer">
<polygon fill="#a2b4d6" stroke="#404040" points="1208,-90 1114,-90 1114,-71 1208,-71 1208,-90"/>
<text text-anchor="middle" x="1161" y="-78" font-family="Helvetica,sans-Serif" font-size="10.00">hardware_timer</text>
</a>
</g>
</g>
<!-- dir_df49784b59096429b65a0c27f6dd7fdf -->
<g id="node8" class="node">
<title>dir_df49784b59096429b65a0c27f6dd7fdf</title>
<g id="a_node8"><a xlink:href="dir_df49784b59096429b65a0c27f6dd7fdf.html" target="_top" xlink:title="hardware_uart">
<polygon fill="#a2b4d6" stroke="#404040" points="1095.5,-90 1008.5,-90 1008.5,-71 1095.5,-71 1095.5,-90"/>
<text text-anchor="middle" x="1052" y="-78" font-family="Helvetica,sans-Serif" font-size="10.00">hardware_uart</text>
</a>
</g>
</g>
<!-- dir_c5bc5afc96fa2cb6bcc10881206bb6f1 -->
<g id="node9" class="node">
<title>dir_c5bc5afc96fa2cb6bcc10881206bb6f1</title>
<g id="a_node9"><a xlink:href="dir_c5bc5afc96fa2cb6bcc10881206bb6f1.html" target="_top" xlink:title="pico_bit_ops">
<polygon fill="#a2b4d6" stroke="#404040" points="990.5,-90 913.5,-90 913.5,-71 990.5,-71 990.5,-90"/>
<text text-anchor="middle" x="952" y="-78" font-family="Helvetica,sans-Serif" font-size="10.00">pico_bit_ops</text>
</a>
</g>
</g>
<!-- dir_c5bc5afc96fa2cb6bcc10881206bb6f1&#45;&gt;dir_afd6173fcc80f68f3e45820d53e5d728 -->
<g id="edge2" class="edge">
<title>dir_c5bc5afc96fa2cb6bcc10881206bb6f1&#45;&gt;dir_afd6173fcc80f68f3e45820d53e5d728</title>
<g id="a_edge2"><a xlink:href="dir_000313_000027.html" target="_top">
<path fill="none" stroke="#63b8ff" d="M928.21,-70.85C920.53,-68.19 911.95,-65.34 904,-63 867.67,-52.3 825.7,-42.15 795.75,-35.29"/>
<polygon fill="#63b8ff" stroke="#63b8ff" points="796.22,-31.81 785.69,-33 794.67,-38.63 796.22,-31.81"/>
</a>
</g>
<g id="a_edge2&#45;headlabel"><a xlink:href="dir_000313_000027.html" target="_top" xlink:title="1">
<text text-anchor="middle" x="800.35" y="-27.33" font-family="Helvetica,sans-Serif" font-size="10.00" fill="#63b8ff">1</text>
</a>
</g>
</g>
<!-- dir_f27909a63213999a83aa3547117e08f8 -->
<g id="node10" class="node">
<title>dir_f27909a63213999a83aa3547117e08f8</title>
<g id="a_node10"><a xlink:href="dir_f27909a63213999a83aa3547117e08f8.html" target="_top" xlink:title="pico_divider">
<polygon fill="#a2b4d6" stroke="#404040" points="895,-90 819,-90 819,-71 895,-71 895,-90"/>
<text text-anchor="middle" x="857" y="-78" font-family="Helvetica,sans-Serif" font-size="10.00">pico_divider</text>
</a>
</g>
</g>
<!-- dir_f27909a63213999a83aa3547117e08f8&#45;&gt;dir_afd6173fcc80f68f3e45820d53e5d728 -->
<g id="edge3" class="edge">
<title>dir_f27909a63213999a83aa3547117e08f8&#45;&gt;dir_afd6173fcc80f68f3e45820d53e5d728</title>
<g id="a_edge3"><a xlink:href="dir_000323_000027.html" target="_top">
<path fill="none" stroke="#63b8ff" d="M840.77,-70.98C824.82,-62.61 800.22,-49.7 781.62,-39.95"/>
<polygon fill="#63b8ff" stroke="#63b8ff" points="783,-36.72 772.52,-35.17 779.75,-42.92 783,-36.72"/>
</a>
</g>
<g id="a_edge3&#45;headlabel"><a xlink:href="dir_000323_000027.html" target="_top" xlink:title="1">
<text text-anchor="middle" x="787.51" y="-33.37" font-family="Helvetica,sans-Serif" font-size="10.00" fill="#63b8ff">1</text>
</a>
</g>
</g>
<!-- dir_b54c9fc81d3a9da4f4ef3eba4dc0ab57 -->
<g id="node11" class="node">
<title>dir_b54c9fc81d3a9da4f4ef3eba4dc0ab57</title>
<g id="a_node11"><a xlink:href="dir_b54c9fc81d3a9da4f4ef3eba4dc0ab57.html" target="_top" xlink:title="pico_multicore">
<polygon fill="#a2b4d6" stroke="#404040" points="800.5,-90 711.5,-90 711.5,-71 800.5,-71 800.5,-90"/>
<text text-anchor="middle" x="756" y="-78" font-family="Helvetica,sans-Serif" font-size="10.00">pico_multicore</text>
</a>
</g>
</g>
<!-- dir_b54c9fc81d3a9da4f4ef3eba4dc0ab57&#45;&gt;dir_afd6173fcc80f68f3e45820d53e5d728 -->
<g id="edge4" class="edge">
<title>dir_b54c9fc81d3a9da4f4ef3eba4dc0ab57&#45;&gt;dir_afd6173fcc80f68f3e45820d53e5d728</title>
<g id="a_edge4"><a xlink:href="dir_000338_000027.html" target="_top">
<path fill="none" stroke="#63b8ff" d="M756,-70.75C756,-63.8 756,-53.85 756,-45.13"/>
<polygon fill="#63b8ff" stroke="#63b8ff" points="759.5,-45.09 756,-35.09 752.5,-45.09 759.5,-45.09"/>
</a>
</g>
<g id="a_edge4&#45;headlabel"><a xlink:href="dir_000338_000027.html" target="_top" xlink:title="1">
<text text-anchor="middle" x="762.34" y="-46.18" font-family="Helvetica,sans-Serif" font-size="10.00" fill="#63b8ff">1</text>
</a>
</g>
</g>
<!-- dir_93940d1d9c9bcfe5cb5b08d7cad7fa9b -->
<g id="node12" class="node">
<title>dir_93940d1d9c9bcfe5cb5b08d7cad7fa9b</title>
<g id="a_node12"><a xlink:href="dir_93940d1d9c9bcfe5cb5b08d7cad7fa9b.html" target="_top" xlink:title="pico_platform">
<polygon fill="#a2b4d6" stroke="#404040" points="694,-90 610,-90 610,-71 694,-71 694,-90"/>
<text text-anchor="middle" x="652" y="-78" font-family="Helvetica,sans-Serif" font-size="10.00">pico_platform</text>
</a>
</g>
</g>
<!-- dir_7b888edb2c46f488e03797156d852794 -->
<g id="node13" class="node">
<title>dir_7b888edb2c46f488e03797156d852794</title>
<g id="a_node13"><a xlink:href="dir_7b888edb2c46f488e03797156d852794.html" target="_top" xlink:title="pico_rand">
<polygon fill="#a2b4d6" stroke="#404040" points="592,-90 528,-90 528,-71 592,-71 592,-90"/>
<text text-anchor="middle" x="560" y="-78" font-family="Helvetica,sans-Serif" font-size="10.00">pico_rand</text>
</a>
</g>
</g>
<!-- dir_ac295180a7d82cb5cccadefbda8b1384 -->
<g id="node14" class="node">
<title>dir_ac295180a7d82cb5cccadefbda8b1384</title>
<g id="a_node14"><a xlink:href="dir_ac295180a7d82cb5cccadefbda8b1384.html" target="_top" xlink:title="pico_runtime">
<polygon fill="#a2b4d6" stroke="#404040" points="510,-90 430,-90 430,-71 510,-71 510,-90"/>
<text text-anchor="middle" x="470" y="-78" font-family="Helvetica,sans-Serif" font-size="10.00">pico_runtime</text>
</a>
</g>
</g>
<!-- dir_38a3d06a71e8bfa7de86c5952524ff10 -->
<g id="node15" class="node">
<title>dir_38a3d06a71e8bfa7de86c5952524ff10</title>
<g id="a_node15"><a xlink:href="dir_38a3d06a71e8bfa7de86c5952524ff10.html" target="_top" xlink:title="pico_status_led">
<polygon fill="#a2b4d6" stroke="#404040" points="412,-90 320,-90 320,-71 412,-71 412,-90"/>
<text text-anchor="middle" x="366" y="-78" font-family="Helvetica,sans-Serif" font-size="10.00">pico_status_led</text>
</a>
</g>
</g>
<!-- dir_c1150c640c9aa3b225966e7b4266c1b4 -->
<g id="node16" class="node">
<title>dir_c1150c640c9aa3b225966e7b4266c1b4</title>
<g id="a_node16"><a xlink:href="dir_c1150c640c9aa3b225966e7b4266c1b4.html" target="_top" xlink:title="pico_stdio">
<polygon fill="#a2b4d6" stroke="#404040" points="302,-90 236,-90 236,-71 302,-71 302,-90"/>
<text text-anchor="middle" x="269" y="-78" font-family="Helvetica,sans-Serif" font-size="10.00">pico_stdio</text>
</a>
</g>
</g>
<!-- dir_c1150c640c9aa3b225966e7b4266c1b4&#45;&gt;dir_afd6173fcc80f68f3e45820d53e5d728 -->
<g id="edge5" class="edge">
<title>dir_c1150c640c9aa3b225966e7b4266c1b4&#45;&gt;dir_afd6173fcc80f68f3e45820d53e5d728</title>
<g id="a_edge5"><a xlink:href="dir_000361_000027.html" target="_top">
<path fill="none" stroke="#63b8ff" d="M287.44,-70.91C294.64,-67.91 303.06,-64.84 311,-63 457.4,-29.02 637.29,-25.57 715.97,-25.9"/>
<polygon fill="#63b8ff" stroke="#63b8ff" points="716.36,-29.4 726.39,-25.97 716.41,-22.4 716.36,-29.4"/>
</a>
</g>
<g id="a_edge5&#45;headlabel"><a xlink:href="dir_000361_000027.html" target="_top" xlink:title="1">
<text text-anchor="middle" x="712.75" y="-29.72" font-family="Helvetica,sans-Serif" font-size="10.00" fill="#63b8ff">1</text>
</a>
</g>
</g>
<!-- dir_ded4379dfcb7d959b1f889423d804fed -->
<g id="node17" class="node">
<title>dir_ded4379dfcb7d959b1f889423d804fed</title>
<g id="a_node17"><a xlink:href="dir_ded4379dfcb7d959b1f889423d804fed.html" target="_top" xlink:title="pico_stdlib">
<polygon fill="#a2b4d6" stroke="#404040" points="217.5,-90 148.5,-90 148.5,-71 217.5,-71 217.5,-90"/>
<text text-anchor="middle" x="183" y="-78" font-family="Helvetica,sans-Serif" font-size="10.00">pico_stdlib</text>
</a>
</g>
</g>
<!-- dir_ded4379dfcb7d959b1f889423d804fed&#45;&gt;dir_afd6173fcc80f68f3e45820d53e5d728 -->
<g id="edge6" class="edge">
<title>dir_ded4379dfcb7d959b1f889423d804fed&#45;&gt;dir_afd6173fcc80f68f3e45820d53e5d728</title>
<g id="a_edge6"><a xlink:href="dir_000368_000027.html" target="_top">
<path fill="none" stroke="#63b8ff" d="M202.35,-70.86C209.89,-67.86 218.71,-64.8 227,-63 320.28,-42.74 609.57,-31.35 716.1,-27.76"/>
<polygon fill="#63b8ff" stroke="#63b8ff" points="716.53,-31.25 726.41,-27.41 716.3,-24.25 716.53,-31.25"/>
</a>
</g>
<g id="a_edge6&#45;headlabel"><a xlink:href="dir_000368_000027.html" target="_top" xlink:title="1">
<text text-anchor="middle" x="713.03" y="-31.7" font-family="Helvetica,sans-Serif" font-size="10.00" fill="#63b8ff">1</text>
</a>
</g>
</g>
<!-- dir_03232d78dc4f2770404c0f80c47c2fec -->
<g id="node18" class="node">
<title>dir_03232d78dc4f2770404c0f80c47c2fec</title>
<g id="a_node18"><a xlink:href="dir_03232d78dc4f2770404c0f80c47c2fec.html" target="_top" xlink:title="pico_time_adapter">
<polygon fill="#a2b4d6" stroke="#404040" points="130.5,-90 23.5,-90 23.5,-71 130.5,-71 130.5,-90"/>
<text text-anchor="middle" x="77" y="-78" font-family="Helvetica,sans-Serif" font-size="10.00">pico_time_adapter</text>
</a>
</g>
</g>
<!-- dir_03232d78dc4f2770404c0f80c47c2fec&#45;&gt;dir_afd6173fcc80f68f3e45820d53e5d728 -->
<g id="edge7" class="edge">
<title>dir_03232d78dc4f2770404c0f80c47c2fec&#45;&gt;dir_afd6173fcc80f68f3e45820d53e5d728</title>
<g id="a_edge7"><a xlink:href="dir_000375_000027.html" target="_top">
<path fill="none" stroke="#63b8ff" d="M104.66,-71C115.57,-67.97 128.28,-64.86 140,-63 355.4,-28.75 617.77,-25.89 716.19,-26.16"/>
<polygon fill="#63b8ff" stroke="#63b8ff" points="716.27,-29.66 726.28,-26.2 716.3,-22.66 716.27,-29.66"/>
</a>
</g>
<g id="a_edge7&#45;headlabel"><a xlink:href="dir_000375_000027.html" target="_top" xlink:title="1">
<text text-anchor="middle" x="712.66" y="-29.98" font-family="Helvetica,sans-Serif" font-size="10.00" fill="#63b8ff">1</text>
</a>
</g>
</g>
</g>
</svg>
