<?xml version="1.0" encoding="UTF-8" standalone="no"?>
<!DOCTYPE svg PUBLIC "-//W3C//DTD SVG 1.1//EN"
 "http://www.w3.org/Graphics/SVG/1.1/DTD/svg11.dtd">
<!-- Generated by graphviz version 2.43.0 (0)
 -->
<!-- Title: pico_sync Pages: 1 -->
<svg width="122pt" height="196pt"
 viewBox="0.00 0.00 122.00 196.00" xmlns="http://www.w3.org/2000/svg" xmlns:xlink="http://www.w3.org/1999/xlink">
<g id="graph0" class="graph" transform="scale(1 1) rotate(0) translate(4 192)">
<title>pico_sync</title>
<g id="clust1" class="cluster">
<title>clusterdir_afd6173fcc80f68f3e45820d53e5d728</title>
<g id="a_clust1"><a xlink:href="dir_afd6173fcc80f68f3e45820d53e5d728.html" target="_top" xlink:title="common">
<polygon fill="#edf0f7" stroke="#7f7f7f" stroke-dasharray="5,2" points="8,-8 8,-180 106,-180 106,-8 8,-8"/>
<text text-anchor="middle" x="57" y="-168" font-family="Helvetica,sans-Serif" font-size="10.00">common</text>
</a>
</g>
</g>
<g id="clust2" class="cluster">
<title>clusterdir_5465227691545b8e10430eb29789def5</title>
<g id="a_clust2"><a xlink:href="dir_5465227691545b8e10430eb29789def5.html" target="_top">
<polygon fill="#edf0f7" stroke="#404040" stroke-width="2" points="16,-63 16,-153 98,-153 98,-63 16,-63"/>
</a>
</g>
</g>
<!-- dir_6641d476a58c4f35e4c7f28cc88f8eaa -->
<g id="node1" class="node">
<title>dir_6641d476a58c4f35e4c7f28cc88f8eaa</title>
<g id="a_node1"><a xlink:href="dir_6641d476a58c4f35e4c7f28cc88f8eaa.html" target="_top" xlink:title="pico_time">
<polygon fill="#a2b4d6" stroke="red" points="90.5,-35 25.5,-35 25.5,-16 90.5,-16 90.5,-35"/>
<text text-anchor="middle" x="58" y="-23" font-family="Helvetica,sans-Serif" font-size="10.00">pico_time</text>
</a>
</g>
</g>
<!-- dir_5465227691545b8e10430eb29789def5 -->
<g id="node2" class="node">
<title>dir_5465227691545b8e10430eb29789def5</title>
<text text-anchor="middle" x="57" y="-133" font-family="Helvetica,sans-Serif" font-size="10.00">pico_sync</text>
</g>
<!-- dir_5465227691545b8e10430eb29789def5&#45;&gt;dir_6641d476a58c4f35e4c7f28cc88f8eaa -->
<g id="edge2" class="edge">
<title>dir_5465227691545b8e10430eb29789def5&#45;&gt;dir_6641d476a58c4f35e4c7f28cc88f8eaa</title>
<g id="a_edge2"><a xlink:href="dir_000372_000374.html" target="_top">
<path fill="none" stroke="#63b8ff" d="M64.94,-125.75C72.03,-117.3 81.9,-103.79 86,-90 89.42,-78.5 89.86,-74.36 86,-63 83.52,-55.68 78.91,-48.68 74.14,-42.81"/>
<polygon fill="#63b8ff" stroke="#63b8ff" points="76.53,-40.23 67.27,-35.09 71.31,-44.89 76.53,-40.23"/>
</a>
</g>
<g id="a_edge2&#45;headlabel"><a xlink:href="dir_000372_000374.html" target="_top" xlink:title="3">
<text text-anchor="middle" x="81.04" y="-38.52" font-family="Helvetica,sans-Serif" font-size="10.00" fill="#63b8ff">3</text>
</a>
</g>
</g>
<!-- dir_19091b6639676096d05c381f79b1d717 -->
<g id="node3" class="node">
<title>dir_19091b6639676096d05c381f79b1d717</title>
<g id="a_node3"><a xlink:href="dir_19091b6639676096d05c381f79b1d717.html" target="_top" xlink:title="include">
<polygon fill="#a2b4d6" stroke="#404040" points="77,-90 25,-90 25,-71 77,-71 77,-90"/>
<text text-anchor="middle" x="51" y="-78" font-family="Helvetica,sans-Serif" font-size="10.00">include</text>
</a>
</g>
</g>
<!-- dir_5465227691545b8e10430eb29789def5&#45;&gt;dir_19091b6639676096d05c381f79b1d717 -->
<g id="edge1" class="edge">
<title>dir_5465227691545b8e10430eb29789def5&#45;&gt;dir_19091b6639676096d05c381f79b1d717</title>
<g id="a_edge1"><a xlink:href="dir_000372_000146.html" target="_top">
<path fill="none" stroke="#63b8ff" d="M56.01,-125.75C55.22,-118.8 54.1,-108.85 53.11,-100.13"/>
<polygon fill="#63b8ff" stroke="#63b8ff" points="56.58,-99.63 51.97,-90.09 49.62,-100.42 56.58,-99.63"/>
</a>
</g>
<g id="a_edge1&#45;headlabel"><a xlink:href="dir_000372_000146.html" target="_top" xlink:title="4">
<text text-anchor="middle" x="59.8" y="-100.38" font-family="Helvetica,sans-Serif" font-size="10.00" fill="#63b8ff">4</text>
</a>
</g>
</g>
<!-- dir_19091b6639676096d05c381f79b1d717&#45;&gt;dir_6641d476a58c4f35e4c7f28cc88f8eaa -->
<g id="edge3" class="edge">
<title>dir_19091b6639676096d05c381f79b1d717&#45;&gt;dir_6641d476a58c4f35e4c7f28cc88f8eaa</title>
<g id="a_edge3"><a xlink:href="dir_000146_000374.html" target="_top">
<path fill="none" stroke="#63b8ff" d="M52.16,-70.75C53.07,-63.8 54.39,-53.85 55.54,-45.13"/>
<polygon fill="#63b8ff" stroke="#63b8ff" points="59.03,-45.46 56.87,-35.09 52.09,-44.54 59.03,-45.46"/>
</a>
</g>
<g id="a_edge3&#45;headlabel"><a xlink:href="dir_000146_000374.html" target="_top" xlink:title="1">
<text text-anchor="middle" x="61.37" y="-46.9" font-family="Helvetica,sans-Serif" font-size="10.00" fill="#63b8ff">1</text>
</a>
</g>
</g>
</g>
</svg>
