<?xml version="1.0" encoding="UTF-8" standalone="no"?>
<!DOCTYPE svg PUBLIC "-//W3C//DTD SVG 1.1//EN"
 "http://www.w3.org/Graphics/SVG/1.1/DTD/svg11.dtd">
<!-- Generated by graphviz version 2.43.0 (0)
 -->
<!-- Title: pico_double Pages: 1 -->
<svg width="130pt" height="196pt"
 viewBox="0.00 0.00 130.00 196.00" xmlns="http://www.w3.org/2000/svg" xmlns:xlink="http://www.w3.org/1999/xlink">
<g id="graph0" class="graph" transform="scale(1 1) rotate(0) translate(4 192)">
<title>pico_double</title>
<g id="clust1" class="cluster">
<title>clusterdir_436b3088c157a85dc167e6ddffc5dacd</title>
<g id="a_clust1"><a xlink:href="dir_436b3088c157a85dc167e6ddffc5dacd.html" target="_top" xlink:title="rp2_common">
<polygon fill="#edf0f7" stroke="#7f7f7f" stroke-dasharray="5,2" points="8,-8 8,-180 114,-180 114,-8 8,-8"/>
<text text-anchor="middle" x="61" y="-168" font-family="Helvetica,sans-Serif" font-size="10.00">rp2_common</text>
</a>
</g>
</g>
<g id="clust2" class="cluster">
<title>clusterdir_a8ad63106a66d09ecb1a19a23aeec812</title>
<g id="a_clust2"><a xlink:href="dir_a8ad63106a66d09ecb1a19a23aeec812.html" target="_top">
<polygon fill="#edf0f7" stroke="#404040" stroke-width="2" points="16,-63 16,-153 106,-153 106,-63 16,-63"/>
</a>
</g>
</g>
<!-- dir_1686c45b041666fce3b490096f338b4d -->
<g id="node1" class="node">
<title>dir_1686c45b041666fce3b490096f338b4d</title>
<g id="a_node1"><a xlink:href="dir_1686c45b041666fce3b490096f338b4d.html" target="_top" xlink:title="pico_bootrom">
<polygon fill="#a2b4d6" stroke="red" points="102.5,-35 19.5,-35 19.5,-16 102.5,-16 102.5,-35"/>
<text text-anchor="middle" x="61" y="-23" font-family="Helvetica,sans-Serif" font-size="10.00">pico_bootrom</text>
</a>
</g>
</g>
<!-- dir_a8ad63106a66d09ecb1a19a23aeec812 -->
<g id="node2" class="node">
<title>dir_a8ad63106a66d09ecb1a19a23aeec812</title>
<text text-anchor="middle" x="61" y="-133" font-family="Helvetica,sans-Serif" font-size="10.00">pico_double</text>
</g>
<!-- dir_a8ad63106a66d09ecb1a19a23aeec812&#45;&gt;dir_1686c45b041666fce3b490096f338b4d -->
<g id="edge1" class="edge">
<title>dir_a8ad63106a66d09ecb1a19a23aeec812&#45;&gt;dir_1686c45b041666fce3b490096f338b4d</title>
<g id="a_edge1"><a xlink:href="dir_000327_000315.html" target="_top">
<path fill="none" stroke="#63b8ff" d="M68.94,-125.75C76.03,-117.3 85.9,-103.79 90,-90 93.42,-78.5 93.95,-74.33 90,-63 87.42,-55.61 82.65,-48.59 77.71,-42.72"/>
<polygon fill="#63b8ff" stroke="#63b8ff" points="79.95,-39.99 70.59,-35.03 74.82,-44.74 79.95,-39.99"/>
</a>
</g>
<g id="a_edge1&#45;headlabel"><a xlink:href="dir_000327_000315.html" target="_top" xlink:title="3">
<text text-anchor="middle" x="84.48" y="-38.2" font-family="Helvetica,sans-Serif" font-size="10.00" fill="#63b8ff">3</text>
</a>
</g>
</g>
<!-- dir_e1fdfe2ea09a03e7f84f9ca05a39bce3 -->
<g id="node3" class="node">
<title>dir_e1fdfe2ea09a03e7f84f9ca05a39bce3</title>
<g id="a_node3"><a xlink:href="dir_e1fdfe2ea09a03e7f84f9ca05a39bce3.html" target="_top" xlink:title="include">
<polygon fill="#a2b4d6" stroke="#404040" points="81,-90 29,-90 29,-71 81,-71 81,-90"/>
<text text-anchor="middle" x="55" y="-78" font-family="Helvetica,sans-Serif" font-size="10.00">include</text>
</a>
</g>
</g>
<!-- dir_a8ad63106a66d09ecb1a19a23aeec812&#45;&gt;dir_e1fdfe2ea09a03e7f84f9ca05a39bce3 -->
<g id="edge2" class="edge">
<title>dir_a8ad63106a66d09ecb1a19a23aeec812&#45;&gt;dir_e1fdfe2ea09a03e7f84f9ca05a39bce3</title>
<g id="a_edge2"><a xlink:href="dir_000327_000217.html" target="_top">
<path fill="none" stroke="#63b8ff" d="M60.01,-125.75C59.22,-118.8 58.1,-108.85 57.11,-100.13"/>
<polygon fill="#63b8ff" stroke="#63b8ff" points="60.58,-99.63 55.97,-90.09 53.62,-100.42 60.58,-99.63"/>
</a>
</g>
<g id="a_edge2&#45;headlabel"><a xlink:href="dir_000327_000217.html" target="_top" xlink:title="1">
<text text-anchor="middle" x="63.8" y="-100.38" font-family="Helvetica,sans-Serif" font-size="10.00" fill="#63b8ff">1</text>
</a>
</g>
</g>
<!-- dir_e1fdfe2ea09a03e7f84f9ca05a39bce3&#45;&gt;dir_1686c45b041666fce3b490096f338b4d -->
<g id="edge3" class="edge">
<title>dir_e1fdfe2ea09a03e7f84f9ca05a39bce3&#45;&gt;dir_1686c45b041666fce3b490096f338b4d</title>
<g id="a_edge3"><a xlink:href="dir_000217_000315.html" target="_top">
<path fill="none" stroke="#63b8ff" d="M55.99,-70.75C56.78,-63.8 57.9,-53.85 58.89,-45.13"/>
<polygon fill="#63b8ff" stroke="#63b8ff" points="62.38,-45.42 60.03,-35.09 55.42,-44.63 62.38,-45.42"/>
</a>
</g>
<g id="a_edge3&#45;headlabel"><a xlink:href="dir_000217_000315.html" target="_top" xlink:title="1">
<text text-anchor="middle" x="64.8" y="-46.81" font-family="Helvetica,sans-Serif" font-size="10.00" fill="#63b8ff">1</text>
</a>
</g>
</g>
</g>
</svg>
