<?xml version="1.0" encoding="UTF-8" standalone="no"?>
<!DOCTYPE svg PUBLIC "-//W3C//DTD SVG 1.1//EN"
 "http://www.w3.org/Graphics/SVG/1.1/DTD/svg11.dtd">
<!-- Generated by graphviz version 2.43.0 (0)
 -->
<!-- Title: hardware_i2c Pages: 1 -->
<svg width="363pt" height="180pt"
 viewBox="0.00 0.00 363.46 180.00" xmlns="http://www.w3.org/2000/svg" xmlns:xlink="http://www.w3.org/1999/xlink">
<g id="graph0" class="graph" transform="scale(1 1) rotate(0) translate(4 176)">
<title>hardware_i2c</title>
<g id="clust1" class="cluster">
<title>clusterdir_436b3088c157a85dc167e6ddffc5dacd</title>
<g id="a_clust1"><a xlink:href="dir_436b3088c157a85dc167e6ddffc5dacd.html" target="_top" xlink:title="rp2_common">
<polygon fill="#edf0f7" stroke="#7f7f7f" stroke-dasharray="5,2" points="8,-39 8,-164 344,-164 344,-39 8,-39"/>
<text text-anchor="middle" x="176" y="-152" font-family="Helvetica,sans-Serif" font-size="10.00">rp2_common</text>
</a>
</g>
</g>
<g id="clust2" class="cluster">
<title>clusterdir_f069cd714c8ad91bd6e8e1fed6894263</title>
<g id="a_clust2"><a xlink:href="dir_f069cd714c8ad91bd6e8e1fed6894263.html" target="_top">
<polygon fill="#edf0f7" stroke="#404040" stroke-width="2" points="16,-47 16,-137 114,-137 114,-47 16,-47"/>
</a>
</g>
</g>
<!-- dir_09eb891803a953f86028aa29a6822298 -->
<g id="node1" class="node">
<title>dir_09eb891803a953f86028aa29a6822298</title>
<g id="a_node1"><a xlink:href="dir_09eb891803a953f86028aa29a6822298.html" target="_top" xlink:title="hardware_clocks">
<polygon fill="#a2b4d6" stroke="red" points="220,-74 122,-74 122,-55 220,-55 220,-74"/>
<text text-anchor="middle" x="171" y="-62" font-family="Helvetica,sans-Serif" font-size="10.00">hardware_clocks</text>
</a>
</g>
</g>
<!-- dir_0db40e61e49eb96440eab467ccc010bd -->
<g id="node2" class="node">
<title>dir_0db40e61e49eb96440eab467ccc010bd</title>
<g id="a_node2"><a xlink:href="dir_0db40e61e49eb96440eab467ccc010bd.html" target="_top" xlink:title="hardware_resets">
<polygon fill="#a2b4d6" stroke="red" points="336,-74 238,-74 238,-55 336,-55 336,-74"/>
<text text-anchor="middle" x="287" y="-62" font-family="Helvetica,sans-Serif" font-size="10.00">hardware_resets</text>
</a>
</g>
</g>
<!-- dir_f069cd714c8ad91bd6e8e1fed6894263 -->
<g id="node3" class="node">
<title>dir_f069cd714c8ad91bd6e8e1fed6894263</title>
<text text-anchor="middle" x="65" y="-117" font-family="Helvetica,sans-Serif" font-size="10.00">hardware_i2c</text>
</g>
<!-- dir_f069cd714c8ad91bd6e8e1fed6894263&#45;&gt;dir_09eb891803a953f86028aa29a6822298 -->
<g id="edge1" class="edge">
<title>dir_f069cd714c8ad91bd6e8e1fed6894263&#45;&gt;dir_09eb891803a953f86028aa29a6822298</title>
<g id="a_edge1"><a xlink:href="dir_000099_000089.html" target="_top">
<path fill="none" stroke="#63b8ff" d="M82.03,-109.98C98.93,-101.54 125.06,-88.47 144.64,-78.68"/>
<polygon fill="#63b8ff" stroke="#63b8ff" points="146.28,-81.77 153.66,-74.17 143.15,-75.51 146.28,-81.77"/>
</a>
</g>
<g id="a_edge1&#45;headlabel"><a xlink:href="dir_000099_000089.html" target="_top" xlink:title="1">
<text text-anchor="middle" x="144.34" y="-83.42" font-family="Helvetica,sans-Serif" font-size="10.00" fill="#63b8ff">1</text>
</a>
</g>
</g>
<!-- dir_f069cd714c8ad91bd6e8e1fed6894263&#45;&gt;dir_0db40e61e49eb96440eab467ccc010bd -->
<g id="edge2" class="edge">
<title>dir_f069cd714c8ad91bd6e8e1fed6894263&#45;&gt;dir_0db40e61e49eb96440eab467ccc010bd</title>
<g id="a_edge2"><a xlink:href="dir_000099_000112.html" target="_top">
<path fill="none" stroke="#63b8ff" d="M100.67,-109.98C138.83,-100.87 199.47,-86.4 241.15,-76.45"/>
<polygon fill="#63b8ff" stroke="#63b8ff" points="242.14,-79.81 251.05,-74.08 240.51,-73 242.14,-79.81"/>
</a>
</g>
<g id="a_edge2&#45;headlabel"><a xlink:href="dir_000099_000112.html" target="_top" xlink:title="1">
<text text-anchor="middle" x="239.3" y="-80.9" font-family="Helvetica,sans-Serif" font-size="10.00" fill="#63b8ff">1</text>
</a>
</g>
</g>
<!-- dir_2a0c05a51fe67400aafb666fde62597b -->
<g id="node4" class="node">
<title>dir_2a0c05a51fe67400aafb666fde62597b</title>
<g id="a_node4"><a xlink:href="dir_2a0c05a51fe67400aafb666fde62597b.html" target="_top" xlink:title="include">
<polygon fill="#a2b4d6" stroke="#404040" points="97,-74 45,-74 45,-55 97,-55 97,-74"/>
<text text-anchor="middle" x="71" y="-62" font-family="Helvetica,sans-Serif" font-size="10.00">include</text>
</a>
</g>
</g>
<!-- dir_f069cd714c8ad91bd6e8e1fed6894263&#45;&gt;dir_2a0c05a51fe67400aafb666fde62597b -->
<g id="edge3" class="edge">
<title>dir_f069cd714c8ad91bd6e8e1fed6894263&#45;&gt;dir_2a0c05a51fe67400aafb666fde62597b</title>
<g id="a_edge3"><a xlink:href="dir_000099_000186.html" target="_top">
<path fill="none" stroke="#63b8ff" d="M65.99,-109.75C66.78,-102.8 67.9,-92.85 68.89,-84.13"/>
<polygon fill="#63b8ff" stroke="#63b8ff" points="72.38,-84.42 70.03,-74.09 65.42,-83.63 72.38,-84.42"/>
</a>
</g>
<g id="a_edge3&#45;headlabel"><a xlink:href="dir_000099_000186.html" target="_top" xlink:title="1">
<text text-anchor="middle" x="74.8" y="-85.81" font-family="Helvetica,sans-Serif" font-size="10.00" fill="#63b8ff">1</text>
</a>
</g>
</g>
<!-- dir_afd6173fcc80f68f3e45820d53e5d728 -->
<g id="node5" class="node">
<title>dir_afd6173fcc80f68f3e45820d53e5d728</title>
<g id="a_node5"><a xlink:href="dir_afd6173fcc80f68f3e45820d53e5d728.html" target="_top" xlink:title="common">
<polygon fill="#edf0f7" stroke="red" stroke-dasharray="5,2" points="249.5,-19 190.5,-19 190.5,0 249.5,0 249.5,-19"/>
<text text-anchor="middle" x="220" y="-7" font-family="Helvetica,sans-Serif" font-size="10.00">common</text>
</a>
</g>
</g>
<!-- dir_f069cd714c8ad91bd6e8e1fed6894263&#45;&gt;dir_afd6173fcc80f68f3e45820d53e5d728 -->
<g id="edge4" class="edge">
<title>dir_f069cd714c8ad91bd6e8e1fed6894263&#45;&gt;dir_afd6173fcc80f68f3e45820d53e5d728</title>
<g id="a_edge4"><a xlink:href="dir_000099_000027.html" target="_top">
<path fill="none" stroke="#63b8ff" d="M106.17,-118.3C177.02,-116.99 317.38,-109.82 348,-74 358.11,-62.18 357.73,-51.14 348,-39 337.03,-25.32 292.91,-17.78 259.5,-13.95"/>
<polygon fill="#63b8ff" stroke="#63b8ff" points="259.85,-10.47 249.53,-12.88 259.1,-17.43 259.85,-10.47"/>
</a>
</g>
<g id="a_edge4&#45;headlabel"><a xlink:href="dir_000099_000027.html" target="_top" xlink:title="2">
<text text-anchor="middle" x="263.73" y="-5.53" font-family="Helvetica,sans-Serif" font-size="10.00" fill="#63b8ff">2</text>
</a>
</g>
</g>
<!-- dir_2a0c05a51fe67400aafb666fde62597b&#45;&gt;dir_afd6173fcc80f68f3e45820d53e5d728 -->
<g id="edge5" class="edge">
<title>dir_2a0c05a51fe67400aafb666fde62597b&#45;&gt;dir_afd6173fcc80f68f3e45820d53e5d728</title>
<g id="a_edge5"><a xlink:href="dir_000186_000027.html" target="_top">
<path fill="none" stroke="#63b8ff" d="M79.44,-54.84C85.08,-49.53 92.93,-43 101,-39 125.87,-26.68 156.36,-19.51 180.24,-15.44"/>
<polygon fill="#63b8ff" stroke="#63b8ff" points="181.05,-18.86 190.38,-13.84 179.95,-11.95 181.05,-18.86"/>
</a>
</g>
<g id="a_edge5&#45;headlabel"><a xlink:href="dir_000186_000027.html" target="_top" xlink:title="1">
<text text-anchor="middle" x="177.94" y="-19.73" font-family="Helvetica,sans-Serif" font-size="10.00" fill="#63b8ff">1</text>
</a>
</g>
</g>
</g>
</svg>
