<?xml version="1.0" encoding="UTF-8" standalone="no"?>
<!DOCTYPE svg PUBLIC "-//W3C//DTD SVG 1.1//EN"
 "http://www.w3.org/Graphics/SVG/1.1/DTD/svg11.dtd">
<!-- Generated by graphviz version 2.43.0 (0)
 -->
<!-- Title: test Pages: 1 -->
<svg width="1482pt" height="160pt"
 viewBox="0.00 0.00 1482.00 160.00" xmlns="http://www.w3.org/2000/svg" xmlns:xlink="http://www.w3.org/1999/xlink">
<g id="graph0" class="graph" transform="scale(1 1) rotate(0) translate(4 156)">
<title>test</title>
<g id="clust1" class="cluster">
<title>clusterdir_94ca29bc8fee502b657b271c0f4d7b9f</title>
<g id="a_clust1"><a xlink:href="dir_94ca29bc8fee502b657b271c0f4d7b9f.html" target="_top" xlink:title="pico_sdk&#45;src">
<polygon fill="#edf0f7" stroke="#7f7f7f" stroke-dasharray="5,2" points="8,-8 8,-144 1466,-144 1466,-8 8,-8"/>
<text text-anchor="middle" x="737" y="-132" font-family="Helvetica,sans-Serif" font-size="10.00">pico_sdk&#45;src</text>
</a>
</g>
</g>
<g id="clust2" class="cluster">
<title>clusterdir_4b97774b20923cf06c558e66efce829f</title>
<g id="a_clust2"><a xlink:href="dir_4b97774b20923cf06c558e66efce829f.html" target="_top">
<polygon fill="#edf0f7" stroke="#404040" stroke-width="2" points="16,-16 16,-117 1418,-117 1418,-16 16,-16"/>
</a>
</g>
</g>
<!-- dir_95c2d016205e82d1735adeeb1baa7b1e -->
<g id="node1" class="node">
<title>dir_95c2d016205e82d1735adeeb1baa7b1e</title>
<g id="a_node1"><a xlink:href="dir_95c2d016205e82d1735adeeb1baa7b1e.html" target="_top" xlink:title="src">
<polygon fill="#a2b4d6" stroke="red" points="1457.5,-43 1426.5,-43 1426.5,-24 1457.5,-24 1457.5,-43"/>
<text text-anchor="middle" x="1442" y="-31" font-family="Helvetica,sans-Serif" font-size="10.00">src</text>
</a>
</g>
</g>
<!-- dir_4b97774b20923cf06c558e66efce829f -->
<g id="node2" class="node">
<title>dir_4b97774b20923cf06c558e66efce829f</title>
<text text-anchor="middle" x="1392" y="-91.5" font-family="Helvetica,sans-Serif" font-size="10.00">test</text>
</g>
<!-- dir_f9e3edb4e27d03e146c1aa2a11a9db7b -->
<g id="node3" class="node">
<title>dir_f9e3edb4e27d03e146c1aa2a11a9db7b</title>
<g id="a_node3"><a xlink:href="dir_f9e3edb4e27d03e146c1aa2a11a9db7b.html" target="_top" xlink:title="cmsis_test">
<polygon fill="#a2b4d6" stroke="#404040" points="900.5,-103.5 831.5,-103.5 831.5,-84.5 900.5,-84.5 900.5,-103.5"/>
<text text-anchor="middle" x="866" y="-91.5" font-family="Helvetica,sans-Serif" font-size="10.00">cmsis_test</text>
</a>
</g>
</g>
<!-- dir_f9e3edb4e27d03e146c1aa2a11a9db7b&#45;&gt;dir_95c2d016205e82d1735adeeb1baa7b1e -->
<g id="edge1" class="edge">
<title>dir_f9e3edb4e27d03e146c1aa2a11a9db7b&#45;&gt;dir_95c2d016205e82d1735adeeb1baa7b1e</title>
<g id="a_edge1"><a xlink:href="dir_000026_000400.html" target="_top">
<path fill="none" stroke="#63b8ff" d="M889.48,-84.39C896.04,-82.3 903.23,-80.3 910,-79 1130.77,-36.74 1198.24,-94.6 1416.61,-44.02"/>
<polygon fill="#63b8ff" stroke="#63b8ff" points="1417.52,-47.4 1426.45,-41.69 1415.91,-40.59 1417.52,-47.4"/>
</a>
</g>
<g id="a_edge1&#45;headlabel"><a xlink:href="dir_000026_000400.html" target="_top" xlink:title="2">
<text text-anchor="middle" x="1414.68" y="-48.49" font-family="Helvetica,sans-Serif" font-size="10.00" fill="#63b8ff">2</text>
</a>
</g>
</g>
<!-- dir_df6695f36c12736076a26dff97b48d3b -->
<g id="node4" class="node">
<title>dir_df6695f36c12736076a26dff97b48d3b</title>
<g id="a_node4"><a xlink:href="dir_df6695f36c12736076a26dff97b48d3b.html" target="_top" xlink:title="hardware_irq_test">
<polygon fill="#a2b4d6" stroke="#404040" points="717,-103.5 613,-103.5 613,-84.5 717,-84.5 717,-103.5"/>
<text text-anchor="middle" x="665" y="-91.5" font-family="Helvetica,sans-Serif" font-size="10.00">hardware_irq_test</text>
</a>
</g>
</g>
<!-- dir_df6695f36c12736076a26dff97b48d3b&#45;&gt;dir_95c2d016205e82d1735adeeb1baa7b1e -->
<g id="edge3" class="edge">
<title>dir_df6695f36c12736076a26dff97b48d3b&#45;&gt;dir_95c2d016205e82d1735adeeb1baa7b1e</title>
<g id="a_edge3"><a xlink:href="dir_000103_000400.html" target="_top">
<path fill="none" stroke="#63b8ff" d="M697.41,-84.46C706.59,-82.34 716.64,-80.31 726,-79 1029.48,-36.65 1118.28,-111.01 1416.66,-43.95"/>
<polygon fill="#63b8ff" stroke="#63b8ff" points="1417.48,-47.35 1426.45,-41.72 1415.92,-40.53 1417.48,-47.35"/>
</a>
</g>
<g id="a_edge3&#45;headlabel"><a xlink:href="dir_000103_000400.html" target="_top" xlink:title="3">
<text text-anchor="middle" x="1414.61" y="-48.42" font-family="Helvetica,sans-Serif" font-size="10.00" fill="#63b8ff">3</text>
</a>
</g>
</g>
<!-- dir_89c70720a02f4189ecce259d4575b413 -->
<g id="node14" class="node">
<title>dir_89c70720a02f4189ecce259d4575b413</title>
<g id="a_node14"><a xlink:href="dir_89c70720a02f4189ecce259d4575b413.html" target="_top" xlink:title="pico_test">
<polygon fill="#a2b4d6" stroke="#404040" points="373.5,-43 312.5,-43 312.5,-24 373.5,-24 373.5,-43"/>
<text text-anchor="middle" x="343" y="-31" font-family="Helvetica,sans-Serif" font-size="10.00">pico_test</text>
</a>
</g>
</g>
<!-- dir_df6695f36c12736076a26dff97b48d3b&#45;&gt;dir_89c70720a02f4189ecce259d4575b413 -->
<g id="edge2" class="edge">
<title>dir_df6695f36c12736076a26dff97b48d3b&#45;&gt;dir_89c70720a02f4189ecce259d4575b413</title>
<g id="a_edge2"><a xlink:href="dir_000103_000373.html" target="_top">
<path fill="none" stroke="#63b8ff" d="M629.6,-84.45C621.23,-82.55 612.32,-80.62 604,-79 507.37,-60.24 479.5,-62.82 383.35,-44.01"/>
<polygon fill="#63b8ff" stroke="#63b8ff" points="384,-40.58 373.51,-42.06 382.64,-47.44 384,-40.58"/>
</a>
</g>
<g id="a_edge2&#45;headlabel"><a xlink:href="dir_000103_000373.html" target="_top" xlink:title="1">
<text text-anchor="middle" x="388.08" y="-35.99" font-family="Helvetica,sans-Serif" font-size="10.00" fill="#63b8ff">1</text>
</a>
</g>
</g>
<!-- dir_fd34e7c30bed5d9038f4f3f96cc5b3aa -->
<g id="node5" class="node">
<title>dir_fd34e7c30bed5d9038f4f3f96cc5b3aa</title>
<g id="a_node5"><a xlink:href="dir_fd34e7c30bed5d9038f4f3f96cc5b3aa.html" target="_top" xlink:title="hardware_pwm_test">
<polygon fill="#a2b4d6" stroke="#404040" points="595,-103.5 479,-103.5 479,-84.5 595,-84.5 595,-103.5"/>
<text text-anchor="middle" x="537" y="-91.5" font-family="Helvetica,sans-Serif" font-size="10.00">hardware_pwm_test</text>
</a>
</g>
</g>
<!-- dir_fd34e7c30bed5d9038f4f3f96cc5b3aa&#45;&gt;dir_95c2d016205e82d1735adeeb1baa7b1e -->
<g id="edge5" class="edge">
<title>dir_fd34e7c30bed5d9038f4f3f96cc5b3aa&#45;&gt;dir_95c2d016205e82d1735adeeb1baa7b1e</title>
<g id="a_edge5"><a xlink:href="dir_000108_000400.html" target="_top">
<path fill="none" stroke="#63b8ff" d="M572.63,-84.44C582.72,-82.32 593.74,-80.29 604,-79 961.72,-34.06 1065.18,-121.8 1416.52,-43.96"/>
<polygon fill="#63b8ff" stroke="#63b8ff" points="1417.47,-47.34 1426.46,-41.73 1415.93,-40.51 1417.47,-47.34"/>
</a>
</g>
<g id="a_edge5&#45;headlabel"><a xlink:href="dir_000108_000400.html" target="_top" xlink:title="4">
<text text-anchor="middle" x="1414.58" y="-48.39" font-family="Helvetica,sans-Serif" font-size="10.00" fill="#63b8ff">4</text>
</a>
</g>
</g>
<!-- dir_fd34e7c30bed5d9038f4f3f96cc5b3aa&#45;&gt;dir_89c70720a02f4189ecce259d4575b413 -->
<g id="edge4" class="edge">
<title>dir_fd34e7c30bed5d9038f4f3f96cc5b3aa&#45;&gt;dir_89c70720a02f4189ecce259d4575b413</title>
<g id="a_edge4"><a xlink:href="dir_000108_000373.html" target="_top">
<path fill="none" stroke="#63b8ff" d="M508.79,-84.49C475.03,-74.31 418.35,-57.22 380.82,-45.9"/>
<polygon fill="#63b8ff" stroke="#63b8ff" points="381.83,-42.55 371.24,-43.02 379.81,-49.25 381.83,-42.55"/>
</a>
</g>
<g id="a_edge4&#45;headlabel"><a xlink:href="dir_000108_000373.html" target="_top" xlink:title="1">
<text text-anchor="middle" x="386.09" y="-38.37" font-family="Helvetica,sans-Serif" font-size="10.00" fill="#63b8ff">1</text>
</a>
</g>
</g>
<!-- dir_1c837a64a0694a550ec76e7d40861da3 -->
<g id="node6" class="node">
<title>dir_1c837a64a0694a550ec76e7d40861da3</title>
<g id="a_node6"><a xlink:href="dir_1c837a64a0694a550ec76e7d40861da3.html" target="_top" xlink:title="hardware_sync_spin\l_lock_test">
<polygon fill="#a2b4d6" stroke="#404040" points="461,-109 345,-109 345,-79 461,-79 461,-109"/>
<text text-anchor="start" x="353" y="-97" font-family="Helvetica,sans-Serif" font-size="10.00">hardware_sync_spin</text>
<text text-anchor="middle" x="403" y="-86" font-family="Helvetica,sans-Serif" font-size="10.00">_lock_test</text>
</a>
</g>
</g>
<!-- dir_1c837a64a0694a550ec76e7d40861da3&#45;&gt;dir_95c2d016205e82d1735adeeb1baa7b1e -->
<g id="edge7" class="edge">
<title>dir_1c837a64a0694a550ec76e7d40861da3&#45;&gt;dir_95c2d016205e82d1735adeeb1baa7b1e</title>
<g id="a_edge7"><a xlink:href="dir_000123_000400.html" target="_top">
<path fill="none" stroke="#63b8ff" d="M461.01,-80.26C464.04,-79.79 467.05,-79.36 470,-79 676.96,-53.65 1199.26,-88.09 1416.65,-43.84"/>
<polygon fill="#63b8ff" stroke="#63b8ff" points="1417.41,-47.25 1426.46,-41.74 1415.95,-40.41 1417.41,-47.25"/>
</a>
</g>
<g id="a_edge7&#45;headlabel"><a xlink:href="dir_000123_000400.html" target="_top" xlink:title="1">
<text text-anchor="middle" x="1414.49" y="-48.28" font-family="Helvetica,sans-Serif" font-size="10.00" fill="#63b8ff">1</text>
</a>
</g>
</g>
<!-- dir_1c837a64a0694a550ec76e7d40861da3&#45;&gt;dir_89c70720a02f4189ecce259d4575b413 -->
<g id="edge6" class="edge">
<title>dir_1c837a64a0694a550ec76e7d40861da3&#45;&gt;dir_89c70720a02f4189ecce259d4575b413</title>
<g id="a_edge6"><a xlink:href="dir_000123_000373.html" target="_top">
<path fill="none" stroke="#63b8ff" d="M388.48,-78.84C379.68,-70.26 368.43,-59.3 359.33,-50.42"/>
<polygon fill="#63b8ff" stroke="#63b8ff" points="361.59,-47.74 351.99,-43.27 356.71,-52.75 361.59,-47.74"/>
</a>
</g>
<g id="a_edge6&#45;headlabel"><a xlink:href="dir_000123_000373.html" target="_top" xlink:title="2">
<text text-anchor="middle" x="366.15" y="-45.72" font-family="Helvetica,sans-Serif" font-size="10.00" fill="#63b8ff">2</text>
</a>
</g>
</g>
<!-- dir_b19c98285a74dc451993b1fd6c526c70 -->
<g id="node7" class="node">
<title>dir_b19c98285a74dc451993b1fd6c526c70</title>
<g id="a_node7"><a xlink:href="dir_b19c98285a74dc451993b1fd6c526c70.html" target="_top" xlink:title="kitchen_sink">
<polygon fill="#a2b4d6" stroke="#404040" points="813,-103.5 735,-103.5 735,-84.5 813,-84.5 813,-103.5"/>
<text text-anchor="middle" x="774" y="-91.5" font-family="Helvetica,sans-Serif" font-size="10.00">kitchen_sink</text>
</a>
</g>
</g>
<!-- dir_b19c98285a74dc451993b1fd6c526c70&#45;&gt;dir_95c2d016205e82d1735adeeb1baa7b1e -->
<g id="edge8" class="edge">
<title>dir_b19c98285a74dc451993b1fd6c526c70&#45;&gt;dir_95c2d016205e82d1735adeeb1baa7b1e</title>
<g id="a_edge8"><a xlink:href="dir_000247_000400.html" target="_top">
<path fill="none" stroke="#63b8ff" d="M799.95,-84.45C807.32,-82.33 815.41,-80.3 823,-79 1082.56,-34.67 1160.41,-102.29 1416.48,-44.02"/>
<polygon fill="#63b8ff" stroke="#63b8ff" points="1417.5,-47.37 1426.45,-41.7 1415.92,-40.55 1417.5,-47.37"/>
</a>
</g>
<g id="a_edge8&#45;headlabel"><a xlink:href="dir_000247_000400.html" target="_top" xlink:title="3">
<text text-anchor="middle" x="1414.64" y="-48.45" font-family="Helvetica,sans-Serif" font-size="10.00" fill="#63b8ff">3</text>
</a>
</g>
</g>
<!-- dir_471400ec99ec569c32539c4936f77017 -->
<g id="node8" class="node">
<title>dir_471400ec99ec569c32539c4936f77017</title>
<g id="a_node8"><a xlink:href="dir_471400ec99ec569c32539c4936f77017.html" target="_top" xlink:title="pico_divider_test">
<polygon fill="#a2b4d6" stroke="#404040" points="1356,-103.5 1256,-103.5 1256,-84.5 1356,-84.5 1356,-103.5"/>
<text text-anchor="middle" x="1306" y="-91.5" font-family="Helvetica,sans-Serif" font-size="10.00">pico_divider_test</text>
</a>
</g>
</g>
<!-- dir_471400ec99ec569c32539c4936f77017&#45;&gt;dir_95c2d016205e82d1735adeeb1baa7b1e -->
<g id="edge9" class="edge">
<title>dir_471400ec99ec569c32539c4936f77017&#45;&gt;dir_95c2d016205e82d1735adeeb1baa7b1e</title>
<g id="a_edge9"><a xlink:href="dir_000326_000400.html" target="_top">
<path fill="none" stroke="#63b8ff" d="M1325.78,-84.49C1349.95,-74.1 1390.86,-56.5 1417.14,-45.19"/>
<polygon fill="#63b8ff" stroke="#63b8ff" points="1418.63,-48.36 1426.43,-41.2 1415.86,-41.93 1418.63,-48.36"/>
</a>
</g>
<g id="a_edge9&#45;headlabel"><a xlink:href="dir_000326_000400.html" target="_top" xlink:title="4">
<text text-anchor="middle" x="1416.45" y="-49.89" font-family="Helvetica,sans-Serif" font-size="10.00" fill="#63b8ff">4</text>
</a>
</g>
</g>
<!-- dir_bf5dc42435f20a9d56d27948509389d2 -->
<g id="node9" class="node">
<title>dir_bf5dc42435f20a9d56d27948509389d2</title>
<g id="a_node9"><a xlink:href="dir_bf5dc42435f20a9d56d27948509389d2.html" target="_top" xlink:title="pico_float_test">
<polygon fill="#a2b4d6" stroke="#404040" points="1237.5,-103.5 1148.5,-103.5 1148.5,-84.5 1237.5,-84.5 1237.5,-103.5"/>
<text text-anchor="middle" x="1193" y="-91.5" font-family="Helvetica,sans-Serif" font-size="10.00">pico_float_test</text>
</a>
</g>
</g>
<!-- dir_bf5dc42435f20a9d56d27948509389d2&#45;&gt;dir_95c2d016205e82d1735adeeb1baa7b1e -->
<g id="edge10" class="edge">
<title>dir_bf5dc42435f20a9d56d27948509389d2&#45;&gt;dir_95c2d016205e82d1735adeeb1baa7b1e</title>
<g id="a_edge10"><a xlink:href="dir_000331_000400.html" target="_top">
<path fill="none" stroke="#63b8ff" d="M1224.91,-84.44C1232.16,-82.58 1239.83,-80.67 1247,-79 1321.17,-61.77 1344.31,-66.23 1416.81,-44.43"/>
<polygon fill="#63b8ff" stroke="#63b8ff" points="1417.86,-47.77 1426.39,-41.48 1415.8,-41.07 1417.86,-47.77"/>
</a>
</g>
<g id="a_edge10&#45;headlabel"><a xlink:href="dir_000331_000400.html" target="_top" xlink:title="12">
<text text-anchor="middle" x="1415.26" y="-49.04" font-family="Helvetica,sans-Serif" font-size="10.00" fill="#63b8ff">12</text>
</a>
</g>
</g>
<!-- dir_adc51aebbf8f01728efb05c6254e111e -->
<g id="node10" class="node">
<title>dir_adc51aebbf8f01728efb05c6254e111e</title>
<g id="a_node10"><a xlink:href="dir_adc51aebbf8f01728efb05c6254e111e.html" target="_top" xlink:title="pico_sem_test">
<polygon fill="#a2b4d6" stroke="#404040" points="326.5,-103.5 239.5,-103.5 239.5,-84.5 326.5,-84.5 326.5,-103.5"/>
<text text-anchor="middle" x="283" y="-91.5" font-family="Helvetica,sans-Serif" font-size="10.00">pico_sem_test</text>
</a>
</g>
</g>
<!-- dir_adc51aebbf8f01728efb05c6254e111e&#45;&gt;dir_95c2d016205e82d1735adeeb1baa7b1e -->
<g id="edge12" class="edge">
<title>dir_adc51aebbf8f01728efb05c6254e111e&#45;&gt;dir_95c2d016205e82d1735adeeb1baa7b1e</title>
<g id="a_edge12"><a xlink:href="dir_000354_000400.html" target="_top">
<path fill="none" stroke="#63b8ff" d="M310.54,-84.47C318.66,-82.3 327.62,-80.23 336,-79 571.64,-44.42 1169.58,-93.72 1416.4,-43.88"/>
<polygon fill="#63b8ff" stroke="#63b8ff" points="1417.4,-47.24 1426.46,-41.75 1415.95,-40.39 1417.4,-47.24"/>
</a>
</g>
<g id="a_edge12&#45;headlabel"><a xlink:href="dir_000354_000400.html" target="_top" xlink:title="1">
<text text-anchor="middle" x="1414.47" y="-48.27" font-family="Helvetica,sans-Serif" font-size="10.00" fill="#63b8ff">1</text>
</a>
</g>
</g>
<!-- dir_adc51aebbf8f01728efb05c6254e111e&#45;&gt;dir_89c70720a02f4189ecce259d4575b413 -->
<g id="edge11" class="edge">
<title>dir_adc51aebbf8f01728efb05c6254e111e&#45;&gt;dir_89c70720a02f4189ecce259d4575b413</title>
<g id="a_edge11"><a xlink:href="dir_000354_000373.html" target="_top">
<path fill="none" stroke="#63b8ff" d="M291.85,-84.37C300.98,-75.47 315.42,-61.39 326.64,-50.45"/>
<polygon fill="#63b8ff" stroke="#63b8ff" points="329.39,-52.65 334.11,-43.17 324.51,-47.64 329.39,-52.65"/>
</a>
</g>
<g id="a_edge11&#45;headlabel"><a xlink:href="dir_000354_000373.html" target="_top" xlink:title="1">
<text text-anchor="middle" x="328.8" y="-54.7" font-family="Helvetica,sans-Serif" font-size="10.00" fill="#63b8ff">1</text>
</a>
</g>
</g>
<!-- dir_1094759c502632a2788accc7b27fbfcd -->
<g id="node11" class="node">
<title>dir_1094759c502632a2788accc7b27fbfcd</title>
<g id="a_node11"><a xlink:href="dir_1094759c502632a2788accc7b27fbfcd.html" target="_top" xlink:title="pico_sha256_test">
<polygon fill="#a2b4d6" stroke="#404040" points="1130.5,-103.5 1029.5,-103.5 1029.5,-84.5 1130.5,-84.5 1130.5,-103.5"/>
<text text-anchor="middle" x="1080" y="-91.5" font-family="Helvetica,sans-Serif" font-size="10.00">pico_sha256_test</text>
</a>
</g>
</g>
<!-- dir_1094759c502632a2788accc7b27fbfcd&#45;&gt;dir_95c2d016205e82d1735adeeb1baa7b1e -->
<g id="edge13" class="edge">
<title>dir_1094759c502632a2788accc7b27fbfcd&#45;&gt;dir_95c2d016205e82d1735adeeb1baa7b1e</title>
<g id="a_edge13"><a xlink:href="dir_000356_000400.html" target="_top">
<path fill="none" stroke="#63b8ff" d="M1113.83,-84.47C1122.34,-82.5 1131.47,-80.53 1140,-79 1261.07,-57.21 1298.1,-75.03 1416.61,-44.21"/>
<polygon fill="#63b8ff" stroke="#63b8ff" points="1417.66,-47.56 1426.42,-41.6 1415.86,-40.79 1417.66,-47.56"/>
</a>
</g>
<g id="a_edge13&#45;headlabel"><a xlink:href="dir_000356_000400.html" target="_top" xlink:title="3">
<text text-anchor="middle" x="1414.92" y="-48.72" font-family="Helvetica,sans-Serif" font-size="10.00" fill="#63b8ff">3</text>
</a>
</g>
</g>
<!-- dir_ff5ae66f3dbda6bcea3aa80047828314 -->
<g id="node12" class="node">
<title>dir_ff5ae66f3dbda6bcea3aa80047828314</title>
<g id="a_node12"><a xlink:href="dir_ff5ae66f3dbda6bcea3aa80047828314.html" target="_top" xlink:title="pico_stdio_test">
<polygon fill="#a2b4d6" stroke="#404040" points="221,-103.5 131,-103.5 131,-84.5 221,-84.5 221,-103.5"/>
<text text-anchor="middle" x="176" y="-91.5" font-family="Helvetica,sans-Serif" font-size="10.00">pico_stdio_test</text>
</a>
</g>
</g>
<!-- dir_ff5ae66f3dbda6bcea3aa80047828314&#45;&gt;dir_95c2d016205e82d1735adeeb1baa7b1e -->
<g id="edge15" class="edge">
<title>dir_ff5ae66f3dbda6bcea3aa80047828314&#45;&gt;dir_95c2d016205e82d1735adeeb1baa7b1e</title>
<g id="a_edge15"><a xlink:href="dir_000365_000400.html" target="_top">
<path fill="none" stroke="#63b8ff" d="M204.59,-84.46C213.02,-82.29 222.32,-80.22 231,-79 490.01,-42.57 1147.07,-98.37 1416.65,-43.82"/>
<polygon fill="#63b8ff" stroke="#63b8ff" points="1417.4,-47.24 1426.46,-41.75 1415.95,-40.39 1417.4,-47.24"/>
</a>
</g>
<g id="a_edge15&#45;headlabel"><a xlink:href="dir_000365_000400.html" target="_top" xlink:title="1">
<text text-anchor="middle" x="1414.47" y="-48.26" font-family="Helvetica,sans-Serif" font-size="10.00" fill="#63b8ff">1</text>
</a>
</g>
</g>
<!-- dir_ff5ae66f3dbda6bcea3aa80047828314&#45;&gt;dir_89c70720a02f4189ecce259d4575b413 -->
<g id="edge14" class="edge">
<title>dir_ff5ae66f3dbda6bcea3aa80047828314&#45;&gt;dir_89c70720a02f4189ecce259d4575b413</title>
<g id="a_edge14"><a xlink:href="dir_000365_000373.html" target="_top">
<path fill="none" stroke="#63b8ff" d="M200.28,-84.49C228.98,-74.44 276.89,-57.66 309.2,-46.34"/>
<polygon fill="#63b8ff" stroke="#63b8ff" points="310.41,-49.63 318.69,-43.02 308.09,-43.02 310.41,-49.63"/>
</a>
</g>
<g id="a_edge14&#45;headlabel"><a xlink:href="dir_000365_000373.html" target="_top" xlink:title="1">
<text text-anchor="middle" x="307.95" y="-50.99" font-family="Helvetica,sans-Serif" font-size="10.00" fill="#63b8ff">1</text>
</a>
</g>
</g>
<!-- dir_106cd696a312d0730a93bdcd88ae8ded -->
<g id="node13" class="node">
<title>dir_106cd696a312d0730a93bdcd88ae8ded</title>
<g id="a_node13"><a xlink:href="dir_106cd696a312d0730a93bdcd88ae8ded.html" target="_top" xlink:title="pico_stdlib_test">
<polygon fill="#a2b4d6" stroke="#404040" points="1011.5,-103.5 918.5,-103.5 918.5,-84.5 1011.5,-84.5 1011.5,-103.5"/>
<text text-anchor="middle" x="965" y="-91.5" font-family="Helvetica,sans-Serif" font-size="10.00">pico_stdlib_test</text>
</a>
</g>
</g>
<!-- dir_106cd696a312d0730a93bdcd88ae8ded&#45;&gt;dir_95c2d016205e82d1735adeeb1baa7b1e -->
<g id="edge16" class="edge">
<title>dir_106cd696a312d0730a93bdcd88ae8ded&#45;&gt;dir_95c2d016205e82d1735adeeb1baa7b1e</title>
<g id="a_edge16"><a xlink:href="dir_000371_000400.html" target="_top">
<path fill="none" stroke="#63b8ff" d="M995.63,-84.43C1003.82,-82.39 1012.7,-80.4 1021,-79 1194.17,-49.76 1246.5,-85.16 1416.66,-44.07"/>
<polygon fill="#63b8ff" stroke="#63b8ff" points="1417.57,-47.45 1426.44,-41.66 1415.89,-40.66 1417.57,-47.45"/>
</a>
</g>
<g id="a_edge16&#45;headlabel"><a xlink:href="dir_000371_000400.html" target="_top" xlink:title="3">
<text text-anchor="middle" x="1414.76" y="-48.57" font-family="Helvetica,sans-Serif" font-size="10.00" fill="#63b8ff">3</text>
</a>
</g>
</g>
<!-- dir_840c0e1c24d73545bef4c37b0936c55b -->
<g id="node15" class="node">
<title>dir_840c0e1c24d73545bef4c37b0936c55b</title>
<g id="a_node15"><a xlink:href="dir_840c0e1c24d73545bef4c37b0936c55b.html" target="_top" xlink:title="pico_time_test">
<polygon fill="#a2b4d6" stroke="#404040" points="112.5,-103.5 23.5,-103.5 23.5,-84.5 112.5,-84.5 112.5,-103.5"/>
<text text-anchor="middle" x="68" y="-91.5" font-family="Helvetica,sans-Serif" font-size="10.00">pico_time_test</text>
</a>
</g>
</g>
<!-- dir_840c0e1c24d73545bef4c37b0936c55b&#45;&gt;dir_95c2d016205e82d1735adeeb1baa7b1e -->
<g id="edge18" class="edge">
<title>dir_840c0e1c24d73545bef4c37b0936c55b&#45;&gt;dir_95c2d016205e82d1735adeeb1baa7b1e</title>
<g id="a_edge18"><a xlink:href="dir_000377_000400.html" target="_top">
<path fill="none" stroke="#63b8ff" d="M96.06,-84.44C104.34,-82.27 113.47,-80.21 122,-79 404.93,-38.93 1123.27,-103.12 1416.63,-43.82"/>
<polygon fill="#63b8ff" stroke="#63b8ff" points="1417.4,-47.24 1426.46,-41.76 1415.95,-40.39 1417.4,-47.24"/>
</a>
</g>
<g id="a_edge18&#45;headlabel"><a xlink:href="dir_000377_000400.html" target="_top" xlink:title="2">
<text text-anchor="middle" x="1414.46" y="-48.26" font-family="Helvetica,sans-Serif" font-size="10.00" fill="#63b8ff">2</text>
</a>
</g>
</g>
<!-- dir_840c0e1c24d73545bef4c37b0936c55b&#45;&gt;dir_89c70720a02f4189ecce259d4575b413 -->
<g id="edge17" class="edge">
<title>dir_840c0e1c24d73545bef4c37b0936c55b&#45;&gt;dir_89c70720a02f4189ecce259d4575b413</title>
<g id="a_edge17"><a xlink:href="dir_000377_000373.html" target="_top">
<path fill="none" stroke="#63b8ff" d="M99.62,-84.49C106.95,-82.61 114.73,-80.67 122,-79 184.63,-64.59 257.84,-50.35 302.29,-42"/>
<polygon fill="#63b8ff" stroke="#63b8ff" points="302.95,-45.44 312.14,-40.16 301.67,-38.56 302.95,-45.44"/>
</a>
</g>
<g id="a_edge17&#45;headlabel"><a xlink:href="dir_000377_000373.html" target="_top" xlink:title="1">
<text text-anchor="middle" x="299.94" y="-46.39" font-family="Helvetica,sans-Serif" font-size="10.00" fill="#63b8ff">1</text>
</a>
</g>
</g>
</g>
</svg>
