<?xml version="1.0" encoding="UTF-8" standalone="no"?>
<!DOCTYPE svg PUBLIC "-//W3C//DTD SVG 1.1//EN"
 "http://www.w3.org/Graphics/SVG/1.1/DTD/svg11.dtd">
<!-- Generated by graphviz version 2.43.0 (0)
 -->
<!-- Title: pico_float Pages: 1 -->
<svg width="124pt" height="196pt"
 viewBox="0.00 0.00 124.00 196.00" xmlns="http://www.w3.org/2000/svg" xmlns:xlink="http://www.w3.org/1999/xlink">
<g id="graph0" class="graph" transform="scale(1 1) rotate(0) translate(4 192)">
<title>pico_float</title>
<g id="clust1" class="cluster">
<title>clusterdir_436b3088c157a85dc167e6ddffc5dacd</title>
<g id="a_clust1"><a xlink:href="dir_436b3088c157a85dc167e6ddffc5dacd.html" target="_top" xlink:title="rp2_common">
<polygon fill="#edf0f7" stroke="#7f7f7f" stroke-dasharray="5,2" points="8,-8 8,-180 108,-180 108,-8 8,-8"/>
<text text-anchor="middle" x="58" y="-168" font-family="Helvetica,sans-Serif" font-size="10.00">rp2_common</text>
</a>
</g>
</g>
<g id="clust2" class="cluster">
<title>clusterdir_31e4cc0db1ce18fae564bcb79dde3ac0</title>
<g id="a_clust2"><a xlink:href="dir_31e4cc0db1ce18fae564bcb79dde3ac0.html" target="_top">
<polygon fill="#edf0f7" stroke="#404040" stroke-width="2" points="17,-63 17,-153 99,-153 99,-63 17,-63"/>
</a>
</g>
</g>
<!-- dir_1686c45b041666fce3b490096f338b4d -->
<g id="node1" class="node">
<title>dir_1686c45b041666fce3b490096f338b4d</title>
<g id="a_node1"><a xlink:href="dir_1686c45b041666fce3b490096f338b4d.html" target="_top" xlink:title="pico_bootrom">
<polygon fill="#a2b4d6" stroke="red" points="99.5,-35 16.5,-35 16.5,-16 99.5,-16 99.5,-35"/>
<text text-anchor="middle" x="58" y="-23" font-family="Helvetica,sans-Serif" font-size="10.00">pico_bootrom</text>
</a>
</g>
</g>
<!-- dir_31e4cc0db1ce18fae564bcb79dde3ac0 -->
<g id="node2" class="node">
<title>dir_31e4cc0db1ce18fae564bcb79dde3ac0</title>
<text text-anchor="middle" x="58" y="-133" font-family="Helvetica,sans-Serif" font-size="10.00">pico_float</text>
</g>
<!-- dir_31e4cc0db1ce18fae564bcb79dde3ac0&#45;&gt;dir_1686c45b041666fce3b490096f338b4d -->
<g id="edge1" class="edge">
<title>dir_31e4cc0db1ce18fae564bcb79dde3ac0&#45;&gt;dir_1686c45b041666fce3b490096f338b4d</title>
<g id="a_edge1"><a xlink:href="dir_000330_000315.html" target="_top">
<path fill="none" stroke="#63b8ff" d="M65.94,-125.75C73.03,-117.3 82.9,-103.79 87,-90 90.42,-78.5 90.95,-74.33 87,-63 84.42,-55.61 79.65,-48.59 74.71,-42.72"/>
<polygon fill="#63b8ff" stroke="#63b8ff" points="76.95,-39.99 67.59,-35.03 71.82,-44.74 76.95,-39.99"/>
</a>
</g>
<g id="a_edge1&#45;headlabel"><a xlink:href="dir_000330_000315.html" target="_top" xlink:title="3">
<text text-anchor="middle" x="81.48" y="-38.2" font-family="Helvetica,sans-Serif" font-size="10.00" fill="#63b8ff">3</text>
</a>
</g>
</g>
<!-- dir_7f61d6e39d457c663201b3e931f16f0e -->
<g id="node3" class="node">
<title>dir_7f61d6e39d457c663201b3e931f16f0e</title>
<g id="a_node3"><a xlink:href="dir_7f61d6e39d457c663201b3e931f16f0e.html" target="_top" xlink:title="include">
<polygon fill="#a2b4d6" stroke="#404040" points="78,-90 26,-90 26,-71 78,-71 78,-90"/>
<text text-anchor="middle" x="52" y="-78" font-family="Helvetica,sans-Serif" font-size="10.00">include</text>
</a>
</g>
</g>
<!-- dir_31e4cc0db1ce18fae564bcb79dde3ac0&#45;&gt;dir_7f61d6e39d457c663201b3e931f16f0e -->
<g id="edge2" class="edge">
<title>dir_31e4cc0db1ce18fae564bcb79dde3ac0&#45;&gt;dir_7f61d6e39d457c663201b3e931f16f0e</title>
<g id="a_edge2"><a xlink:href="dir_000330_000220.html" target="_top">
<path fill="none" stroke="#63b8ff" d="M57.01,-125.75C56.22,-118.8 55.1,-108.85 54.11,-100.13"/>
<polygon fill="#63b8ff" stroke="#63b8ff" points="57.58,-99.63 52.97,-90.09 50.62,-100.42 57.58,-99.63"/>
</a>
</g>
<g id="a_edge2&#45;headlabel"><a xlink:href="dir_000330_000220.html" target="_top" xlink:title="1">
<text text-anchor="middle" x="60.8" y="-100.38" font-family="Helvetica,sans-Serif" font-size="10.00" fill="#63b8ff">1</text>
</a>
</g>
</g>
<!-- dir_7f61d6e39d457c663201b3e931f16f0e&#45;&gt;dir_1686c45b041666fce3b490096f338b4d -->
<g id="edge3" class="edge">
<title>dir_7f61d6e39d457c663201b3e931f16f0e&#45;&gt;dir_1686c45b041666fce3b490096f338b4d</title>
<g id="a_edge3"><a xlink:href="dir_000220_000315.html" target="_top">
<path fill="none" stroke="#63b8ff" d="M52.99,-70.75C53.78,-63.8 54.9,-53.85 55.89,-45.13"/>
<polygon fill="#63b8ff" stroke="#63b8ff" points="59.38,-45.42 57.03,-35.09 52.42,-44.63 59.38,-45.42"/>
</a>
</g>
<g id="a_edge3&#45;headlabel"><a xlink:href="dir_000220_000315.html" target="_top" xlink:title="1">
<text text-anchor="middle" x="61.8" y="-46.81" font-family="Helvetica,sans-Serif" font-size="10.00" fill="#63b8ff">1</text>
</a>
</g>
</g>
</g>
</svg>
