<?xml version="1.0" encoding="UTF-8" standalone="no"?>
<!DOCTYPE svg PUBLIC "-//W3C//DTD SVG 1.1//EN"
 "http://www.w3.org/Graphics/SVG/1.1/DTD/svg11.dtd">
<!-- Generated by graphviz version 2.43.0 (0)
 -->
<!-- Title: Device Pages: 1 -->
<svg width="347pt" height="141pt"
 viewBox="0.00 0.00 347.00 141.00" xmlns="http://www.w3.org/2000/svg" xmlns:xlink="http://www.w3.org/1999/xlink">
<g id="graph0" class="graph" transform="scale(1 1) rotate(0) translate(4 137)">
<title>Device</title>
<g id="clust1" class="cluster">
<title>clusterdir_2f19d458558785900f66b853aadf1e7a</title>
<g id="a_clust1"><a xlink:href="dir_2f19d458558785900f66b853aadf1e7a.html" target="_top" xlink:title="CMSIS">
<polygon fill="#edf0f7" stroke="#7f7f7f" stroke-dasharray="5,2" points="8,-8 8,-125 233,-125 233,-8 8,-8"/>
<text text-anchor="middle" x="120.5" y="-113" font-family="Helvetica,sans-Serif" font-size="10.00">CMSIS</text>
</a>
</g>
</g>
<g id="clust2" class="cluster">
<title>clusterdir_f04c90c3e8b4f4ec447643646a4cdfb5</title>
<g id="a_clust2"><a xlink:href="dir_f04c90c3e8b4f4ec447643646a4cdfb5.html" target="_top">
<polygon fill="#edf0f7" stroke="#404040" stroke-width="2" points="16,-63 16,-98 225,-98 225,-63 16,-63"/>
</a>
</g>
</g>
<!-- dir_42066cd9125f0e3528eb9491a6c86fd5 -->
<g id="node1" class="node">
<title>dir_42066cd9125f0e3528eb9491a6c86fd5</title>
<g id="a_node1"><a xlink:href="dir_42066cd9125f0e3528eb9491a6c86fd5.html" target="_top" xlink:title="Core">
<polygon fill="#a2b4d6" stroke="red" points="105.5,-35 66.5,-35 66.5,-16 105.5,-16 105.5,-35"/>
<text text-anchor="middle" x="86" y="-23" font-family="Helvetica,sans-Serif" font-size="10.00">Core</text>
</a>
</g>
</g>
<!-- dir_f04c90c3e8b4f4ec447643646a4cdfb5 -->
<g id="node2" class="node">
<title>dir_f04c90c3e8b4f4ec447643646a4cdfb5</title>
<text text-anchor="middle" x="192" y="-78" font-family="Helvetica,sans-Serif" font-size="10.00">Device</text>
</g>
<!-- dir_6dabc29b95032e7d1e45be515510ef67 -->
<g id="node3" class="node">
<title>dir_6dabc29b95032e7d1e45be515510ef67</title>
<g id="a_node3"><a xlink:href="dir_6dabc29b95032e7d1e45be515510ef67.html" target="_top" xlink:title="RP2040">
<polygon fill="#a2b4d6" stroke="#404040" points="148.5,-90 95.5,-90 95.5,-71 148.5,-71 148.5,-90"/>
<text text-anchor="middle" x="122" y="-78" font-family="Helvetica,sans-Serif" font-size="10.00">RP2040</text>
</a>
</g>
</g>
<!-- dir_6dabc29b95032e7d1e45be515510ef67&#45;&gt;dir_42066cd9125f0e3528eb9491a6c86fd5 -->
<g id="edge1" class="edge">
<title>dir_6dabc29b95032e7d1e45be515510ef67&#45;&gt;dir_42066cd9125f0e3528eb9491a6c86fd5</title>
<g id="a_edge1"><a xlink:href="dir_000391_000031.html" target="_top">
<path fill="none" stroke="#63b8ff" d="M116.06,-70.75C111.02,-63.34 103.66,-52.5 97.49,-43.41"/>
<polygon fill="#63b8ff" stroke="#63b8ff" points="100.35,-41.39 91.83,-35.09 94.56,-45.33 100.35,-41.39"/>
</a>
</g>
<g id="a_edge1&#45;headlabel"><a xlink:href="dir_000391_000031.html" target="_top" xlink:title="1">
<text text-anchor="middle" x="104.72" y="-40.27" font-family="Helvetica,sans-Serif" font-size="10.00" fill="#63b8ff">1</text>
</a>
</g>
</g>
<!-- dir_09eb891803a953f86028aa29a6822298 -->
<g id="node5" class="node">
<title>dir_09eb891803a953f86028aa29a6822298</title>
<g id="a_node5"><a xlink:href="dir_09eb891803a953f86028aa29a6822298.html" target="_top" xlink:title="hardware_clocks">
<polygon fill="#edf0f7" stroke="red" stroke-dasharray="5,2" points="339,-35 241,-35 241,-16 339,-16 339,-35"/>
<text text-anchor="middle" x="290" y="-23" font-family="Helvetica,sans-Serif" font-size="10.00">hardware_clocks</text>
</a>
</g>
</g>
<!-- dir_6dabc29b95032e7d1e45be515510ef67&#45;&gt;dir_09eb891803a953f86028aa29a6822298 -->
<g id="edge2" class="edge">
<title>dir_6dabc29b95032e7d1e45be515510ef67&#45;&gt;dir_09eb891803a953f86028aa29a6822298</title>
<g id="a_edge2"><a xlink:href="dir_000391_000089.html" target="_top">
<path fill="none" stroke="#63b8ff" d="M139.34,-70.87C145.19,-68.15 151.8,-65.26 158,-63 185.8,-52.86 217.78,-43.95 243.29,-37.47"/>
<polygon fill="#63b8ff" stroke="#63b8ff" points="244.23,-40.84 253.09,-35.02 242.54,-34.05 244.23,-40.84"/>
</a>
</g>
<g id="a_edge2&#45;headlabel"><a xlink:href="dir_000391_000089.html" target="_top" xlink:title="1">
<text text-anchor="middle" x="241.44" y="-41.97" font-family="Helvetica,sans-Serif" font-size="10.00" fill="#63b8ff">1</text>
</a>
</g>
</g>
<!-- dir_0363f0f8d11a668ac70bb7c8444a5f48 -->
<g id="node4" class="node">
<title>dir_0363f0f8d11a668ac70bb7c8444a5f48</title>
<g id="a_node4"><a xlink:href="dir_0363f0f8d11a668ac70bb7c8444a5f48.html" target="_top" xlink:title="RP2350">
<polygon fill="#a2b4d6" stroke="#404040" points="77.5,-90 24.5,-90 24.5,-71 77.5,-71 77.5,-90"/>
<text text-anchor="middle" x="51" y="-78" font-family="Helvetica,sans-Serif" font-size="10.00">RP2350</text>
</a>
</g>
</g>
<!-- dir_0363f0f8d11a668ac70bb7c8444a5f48&#45;&gt;dir_42066cd9125f0e3528eb9491a6c86fd5 -->
<g id="edge3" class="edge">
<title>dir_0363f0f8d11a668ac70bb7c8444a5f48&#45;&gt;dir_42066cd9125f0e3528eb9491a6c86fd5</title>
<g id="a_edge3"><a xlink:href="dir_000394_000031.html" target="_top">
<path fill="none" stroke="#63b8ff" d="M56.78,-70.75C61.62,-63.42 68.68,-52.73 74.64,-43.7"/>
<polygon fill="#63b8ff" stroke="#63b8ff" points="77.74,-45.36 80.33,-35.09 71.9,-41.5 77.74,-45.36"/>
</a>
</g>
<g id="a_edge3&#45;headlabel"><a xlink:href="dir_000394_000031.html" target="_top" xlink:title="1">
<text text-anchor="middle" x="78.13" y="-47.43" font-family="Helvetica,sans-Serif" font-size="10.00" fill="#63b8ff">1</text>
</a>
</g>
</g>
<!-- dir_0363f0f8d11a668ac70bb7c8444a5f48&#45;&gt;dir_09eb891803a953f86028aa29a6822298 -->
<g id="edge4" class="edge">
<title>dir_0363f0f8d11a668ac70bb7c8444a5f48&#45;&gt;dir_09eb891803a953f86028aa29a6822298</title>
<g id="a_edge4"><a xlink:href="dir_000394_000089.html" target="_top">
<path fill="none" stroke="#63b8ff" d="M67.5,-70.88C73.51,-68.02 80.44,-65.06 87,-63 100.59,-58.74 175.69,-45.68 230.6,-36.4"/>
<polygon fill="#63b8ff" stroke="#63b8ff" points="231.32,-39.83 240.6,-34.71 230.16,-32.92 231.32,-39.83"/>
</a>
</g>
<g id="a_edge4&#45;headlabel"><a xlink:href="dir_000394_000089.html" target="_top" xlink:title="1">
<text text-anchor="middle" x="228.25" y="-40.72" font-family="Helvetica,sans-Serif" font-size="10.00" fill="#63b8ff">1</text>
</a>
</g>
</g>
</g>
</svg>
