<?xml version="1.0" encoding="UTF-8" standalone="no"?>
<!DOCTYPE svg PUBLIC "-//W3C//DTD SVG 1.1//EN"
 "http://www.w3.org/Graphics/SVG/1.1/DTD/svg11.dtd">
<!-- Generated by graphviz version 2.43.0 (0)
 -->
<!-- Title: pico_cyw43_driver Pages: 1 -->
<svg width="902pt" height="196pt"
 viewBox="0.00 0.00 901.50 196.00" xmlns="http://www.w3.org/2000/svg" xmlns:xlink="http://www.w3.org/1999/xlink">
<g id="graph0" class="graph" transform="scale(1 1) rotate(0) translate(4 192)">
<title>pico_cyw43_driver</title>
<g id="clust1" class="cluster">
<title>clusterdir_436b3088c157a85dc167e6ddffc5dacd</title>
<g id="a_clust1"><a xlink:href="dir_436b3088c157a85dc167e6ddffc5dacd.html" target="_top" xlink:title="rp2_common">
<polygon fill="#edf0f7" stroke="#7f7f7f" stroke-dasharray="5,2" points="8,-8 8,-180 790,-180 790,-8 8,-8"/>
<text text-anchor="middle" x="399" y="-168" font-family="Helvetica,sans-Serif" font-size="10.00">rp2_common</text>
</a>
</g>
</g>
<g id="clust2" class="cluster">
<title>clusterdir_7435a16b854d2d5948ecbd640e16fafd</title>
<g id="a_clust2"><a xlink:href="dir_7435a16b854d2d5948ecbd640e16fafd.html" target="_top">
<polygon fill="#edf0f7" stroke="#404040" stroke-width="2" points="350,-63 350,-153 589,-153 589,-63 350,-63"/>
</a>
</g>
</g>
<!-- dir_09eb891803a953f86028aa29a6822298 -->
<g id="node1" class="node">
<title>dir_09eb891803a953f86028aa29a6822298</title>
<g id="a_node1"><a xlink:href="dir_09eb891803a953f86028aa29a6822298.html" target="_top" xlink:title="hardware_clocks">
<polygon fill="#a2b4d6" stroke="red" points="134,-90 36,-90 36,-71 134,-71 134,-90"/>
<text text-anchor="middle" x="85" y="-78" font-family="Helvetica,sans-Serif" font-size="10.00">hardware_clocks</text>
</a>
</g>
</g>
<!-- dir_10e237d6759f9805698baf9835c013e1 -->
<g id="node2" class="node">
<title>dir_10e237d6759f9805698baf9835c013e1</title>
<g id="a_node2"><a xlink:href="dir_10e237d6759f9805698baf9835c013e1.html" target="_top" xlink:title="hardware_pio">
<polygon fill="#a2b4d6" stroke="red" points="235.5,-90 152.5,-90 152.5,-71 235.5,-71 235.5,-90"/>
<text text-anchor="middle" x="194" y="-78" font-family="Helvetica,sans-Serif" font-size="10.00">hardware_pio</text>
</a>
</g>
</g>
<!-- dir_1686c45b041666fce3b490096f338b4d -->
<g id="node3" class="node">
<title>dir_1686c45b041666fce3b490096f338b4d</title>
<g id="a_node3"><a xlink:href="dir_1686c45b041666fce3b490096f338b4d.html" target="_top" xlink:title="pico_bootrom">
<polygon fill="#a2b4d6" stroke="red" points="452.5,-35 369.5,-35 369.5,-16 452.5,-16 452.5,-35"/>
<text text-anchor="middle" x="411" y="-23" font-family="Helvetica,sans-Serif" font-size="10.00">pico_bootrom</text>
</a>
</g>
</g>
<!-- dir_241308b15ba8dcb979ff4dc1efe465b5 -->
<g id="node4" class="node">
<title>dir_241308b15ba8dcb979ff4dc1efe465b5</title>
<g id="a_node4"><a xlink:href="dir_241308b15ba8dcb979ff4dc1efe465b5.html" target="_top" xlink:title="hardware_dma">
<polygon fill="#a2b4d6" stroke="red" points="342.5,-90 253.5,-90 253.5,-71 342.5,-71 342.5,-90"/>
<text text-anchor="middle" x="298" y="-78" font-family="Helvetica,sans-Serif" font-size="10.00">hardware_dma</text>
</a>
</g>
</g>
<!-- dir_81ef59eb999ec4aab3b1999cf2329c91 -->
<g id="node5" class="node">
<title>dir_81ef59eb999ec4aab3b1999cf2329c91</title>
<g id="a_node5"><a xlink:href="dir_81ef59eb999ec4aab3b1999cf2329c91.html" target="_top" xlink:title="pico_async_context">
<polygon fill="#a2b4d6" stroke="red" points="240.5,-35 127.5,-35 127.5,-16 240.5,-16 240.5,-35"/>
<text text-anchor="middle" x="184" y="-23" font-family="Helvetica,sans-Serif" font-size="10.00">pico_async_context</text>
</a>
</g>
</g>
<!-- dir_86c71a579e4a4351a988ff32cc391783 -->
<g id="node6" class="node">
<title>dir_86c71a579e4a4351a988ff32cc391783</title>
<g id="a_node6"><a xlink:href="dir_86c71a579e4a4351a988ff32cc391783.html" target="_top" xlink:title="pico_unique_id">
<polygon fill="#a2b4d6" stroke="red" points="685.5,-90 596.5,-90 596.5,-71 685.5,-71 685.5,-90"/>
<text text-anchor="middle" x="641" y="-78" font-family="Helvetica,sans-Serif" font-size="10.00">pico_unique_id</text>
</a>
</g>
</g>
<!-- dir_ed65e55c24c25dbaf64c8b24e602d59b -->
<g id="node7" class="node">
<title>dir_ed65e55c24c25dbaf64c8b24e602d59b</title>
<g id="a_node7"><a xlink:href="dir_ed65e55c24c25dbaf64c8b24e602d59b.html" target="_top" xlink:title="pico_btstack">
<polygon fill="#a2b4d6" stroke="red" points="782,-90 704,-90 704,-71 782,-71 782,-90"/>
<text text-anchor="middle" x="743" y="-78" font-family="Helvetica,sans-Serif" font-size="10.00">pico_btstack</text>
</a>
</g>
</g>
<!-- dir_7435a16b854d2d5948ecbd640e16fafd -->
<g id="node8" class="node">
<title>dir_7435a16b854d2d5948ecbd640e16fafd</title>
<text text-anchor="middle" x="411" y="-133" font-family="Helvetica,sans-Serif" font-size="10.00">pico_cyw43_driver</text>
</g>
<!-- dir_7435a16b854d2d5948ecbd640e16fafd&#45;&gt;dir_09eb891803a953f86028aa29a6822298 -->
<g id="edge1" class="edge">
<title>dir_7435a16b854d2d5948ecbd640e16fafd&#45;&gt;dir_09eb891803a953f86028aa29a6822298</title>
<g id="a_edge1"><a xlink:href="dir_000322_000089.html" target="_top">
<path fill="none" stroke="#63b8ff" d="M358.62,-125.98C299.97,-116.45 205.14,-101.03 143.94,-91.08"/>
<polygon fill="#63b8ff" stroke="#63b8ff" points="144.48,-87.62 134.05,-89.47 143.36,-94.53 144.48,-87.62"/>
</a>
</g>
<g id="a_edge1&#45;headlabel"><a xlink:href="dir_000322_000089.html" target="_top" xlink:title="1">
<text text-anchor="middle" x="148.48" y="-82.9" font-family="Helvetica,sans-Serif" font-size="10.00" fill="#63b8ff">1</text>
</a>
</g>
</g>
<!-- dir_7435a16b854d2d5948ecbd640e16fafd&#45;&gt;dir_10e237d6759f9805698baf9835c013e1 -->
<g id="edge2" class="edge">
<title>dir_7435a16b854d2d5948ecbd640e16fafd&#45;&gt;dir_10e237d6759f9805698baf9835c013e1</title>
<g id="a_edge2"><a xlink:href="dir_000322_000104.html" target="_top">
<path fill="none" stroke="#63b8ff" d="M376.14,-125.98C338.91,-116.89 279.8,-102.46 239.07,-92.51"/>
<polygon fill="#63b8ff" stroke="#63b8ff" points="239.68,-89.05 229.14,-90.08 238.02,-95.85 239.68,-89.05"/>
</a>
</g>
<g id="a_edge2&#45;headlabel"><a xlink:href="dir_000322_000104.html" target="_top" xlink:title="1">
<text text-anchor="middle" x="243.85" y="-84.65" font-family="Helvetica,sans-Serif" font-size="10.00" fill="#63b8ff">1</text>
</a>
</g>
</g>
<!-- dir_7435a16b854d2d5948ecbd640e16fafd&#45;&gt;dir_241308b15ba8dcb979ff4dc1efe465b5 -->
<g id="edge3" class="edge">
<title>dir_7435a16b854d2d5948ecbd640e16fafd&#45;&gt;dir_241308b15ba8dcb979ff4dc1efe465b5</title>
<g id="a_edge3"><a xlink:href="dir_000322_000093.html" target="_top">
<path fill="none" stroke="#63b8ff" d="M392.84,-125.98C374.75,-117.5 346.72,-104.35 325.81,-94.54"/>
<polygon fill="#63b8ff" stroke="#63b8ff" points="327.03,-91.25 316.49,-90.17 324.05,-97.59 327.03,-91.25"/>
</a>
</g>
<g id="a_edge3&#45;headlabel"><a xlink:href="dir_000322_000093.html" target="_top" xlink:title="1">
<text text-anchor="middle" x="331.49" y="-87.7" font-family="Helvetica,sans-Serif" font-size="10.00" fill="#63b8ff">1</text>
</a>
</g>
</g>
<!-- dir_7435a16b854d2d5948ecbd640e16fafd&#45;&gt;dir_81ef59eb999ec4aab3b1999cf2329c91 -->
<g id="edge5" class="edge">
<title>dir_7435a16b854d2d5948ecbd640e16fafd&#45;&gt;dir_81ef59eb999ec4aab3b1999cf2329c91</title>
<g id="a_edge5"><a xlink:href="dir_000322_000308.html" target="_top">
<path fill="none" stroke="#63b8ff" d="M357.37,-132.17C256.93,-127.26 48.6,-114.24 27,-90 -3.56,-55.69 61.69,-39.61 117.17,-32.28"/>
<polygon fill="#63b8ff" stroke="#63b8ff" points="117.9,-35.72 127.39,-31.01 117.04,-28.77 117.9,-35.72"/>
</a>
</g>
<g id="a_edge5&#45;headlabel"><a xlink:href="dir_000322_000308.html" target="_top" xlink:title="2">
<text text-anchor="middle" x="114.68" y="-36.48" font-family="Helvetica,sans-Serif" font-size="10.00" fill="#63b8ff">2</text>
</a>
</g>
</g>
<!-- dir_7435a16b854d2d5948ecbd640e16fafd&#45;&gt;dir_86c71a579e4a4351a988ff32cc391783 -->
<g id="edge6" class="edge">
<title>dir_7435a16b854d2d5948ecbd640e16fafd&#45;&gt;dir_86c71a579e4a4351a988ff32cc391783</title>
<g id="a_edge6"><a xlink:href="dir_000322_000378.html" target="_top">
<path fill="none" stroke="#63b8ff" d="M447.95,-125.98C487.57,-116.86 550.59,-102.33 593.77,-92.38"/>
<polygon fill="#63b8ff" stroke="#63b8ff" points="594.8,-95.74 603.76,-90.08 593.23,-88.92 594.8,-95.74"/>
</a>
</g>
<g id="a_edge6&#45;headlabel"><a xlink:href="dir_000322_000378.html" target="_top" xlink:title="1">
<text text-anchor="middle" x="591.93" y="-96.81" font-family="Helvetica,sans-Serif" font-size="10.00" fill="#63b8ff">1</text>
</a>
</g>
</g>
<!-- dir_7435a16b854d2d5948ecbd640e16fafd&#45;&gt;dir_ed65e55c24c25dbaf64c8b24e602d59b -->
<g id="edge9" class="edge">
<title>dir_7435a16b854d2d5948ecbd640e16fafd&#45;&gt;dir_ed65e55c24c25dbaf64c8b24e602d59b</title>
<g id="a_edge9"><a xlink:href="dir_000322_000317.html" target="_top">
<path fill="none" stroke="#63b8ff" d="M464.5,-126.34C521.44,-117.61 614.14,-103.2 694,-90 694.1,-89.98 694.2,-89.97 694.3,-89.95"/>
<polygon fill="#63b8ff" stroke="#63b8ff" points="694.68,-93.44 703.96,-88.33 693.52,-86.53 694.68,-93.44"/>
</a>
</g>
<g id="a_edge9&#45;headlabel"><a xlink:href="dir_000322_000317.html" target="_top" xlink:title="2">
<text text-anchor="middle" x="691.6" y="-94.33" font-family="Helvetica,sans-Serif" font-size="10.00" fill="#63b8ff">2</text>
</a>
</g>
</g>
<!-- dir_94305829392b517107ade31328056dd4 -->
<g id="node10" class="node">
<title>dir_94305829392b517107ade31328056dd4</title>
<g id="a_node10"><a xlink:href="dir_94305829392b517107ade31328056dd4.html" target="_top" xlink:title="include">
<polygon fill="#a2b4d6" stroke="#404040" points="437,-90 385,-90 385,-71 437,-71 437,-90"/>
<text text-anchor="middle" x="411" y="-78" font-family="Helvetica,sans-Serif" font-size="10.00">include</text>
</a>
</g>
</g>
<!-- dir_7435a16b854d2d5948ecbd640e16fafd&#45;&gt;dir_94305829392b517107ade31328056dd4 -->
<g id="edge7" class="edge">
<title>dir_7435a16b854d2d5948ecbd640e16fafd&#45;&gt;dir_94305829392b517107ade31328056dd4</title>
<g id="a_edge7"><a xlink:href="dir_000322_000216.html" target="_top">
<path fill="none" stroke="#63b8ff" d="M411,-125.75C411,-118.8 411,-108.85 411,-100.13"/>
<polygon fill="#63b8ff" stroke="#63b8ff" points="414.5,-100.09 411,-90.09 407.5,-100.09 414.5,-100.09"/>
</a>
</g>
<g id="a_edge7&#45;headlabel"><a xlink:href="dir_000322_000216.html" target="_top" xlink:title="7">
<text text-anchor="middle" x="417.34" y="-101.18" font-family="Helvetica,sans-Serif" font-size="10.00" fill="#63b8ff">7</text>
</a>
</g>
</g>
<!-- dir_4b97774b20923cf06c558e66efce829f -->
<g id="node11" class="node">
<title>dir_4b97774b20923cf06c558e66efce829f</title>
<g id="a_node11"><a xlink:href="dir_4b97774b20923cf06c558e66efce829f.html" target="_top" xlink:title="test">
<polygon fill="#edf0f7" stroke="red" stroke-dasharray="5,2" points="835.5,-90 800.5,-90 800.5,-71 835.5,-71 835.5,-90"/>
<text text-anchor="middle" x="818" y="-78" font-family="Helvetica,sans-Serif" font-size="10.00">test</text>
</a>
</g>
</g>
<!-- dir_7435a16b854d2d5948ecbd640e16fafd&#45;&gt;dir_4b97774b20923cf06c558e66efce829f -->
<g id="edge4" class="edge">
<title>dir_7435a16b854d2d5948ecbd640e16fafd&#45;&gt;dir_4b97774b20923cf06c558e66efce829f</title>
<g id="a_edge4"><a xlink:href="dir_000322_000409.html" target="_top">
<path fill="none" stroke="#63b8ff" d="M464.61,-127.19C467.78,-126.78 470.93,-126.38 474,-126 612.71,-108.84 652.67,-121.48 790.23,-90.57"/>
<polygon fill="#63b8ff" stroke="#63b8ff" points="791.34,-93.91 800.31,-88.27 789.78,-87.09 791.34,-93.91"/>
</a>
</g>
<g id="a_edge4&#45;headlabel"><a xlink:href="dir_000322_000409.html" target="_top" xlink:title="1">
<text text-anchor="middle" x="788.47" y="-94.98" font-family="Helvetica,sans-Serif" font-size="10.00" fill="#63b8ff">1</text>
</a>
</g>
</g>
<!-- dir_afd6173fcc80f68f3e45820d53e5d728 -->
<g id="node12" class="node">
<title>dir_afd6173fcc80f68f3e45820d53e5d728</title>
<g id="a_node12"><a xlink:href="dir_afd6173fcc80f68f3e45820d53e5d728.html" target="_top" xlink:title="common">
<polygon fill="#edf0f7" stroke="red" stroke-dasharray="5,2" points="893.5,-35 834.5,-35 834.5,-16 893.5,-16 893.5,-35"/>
<text text-anchor="middle" x="864" y="-23" font-family="Helvetica,sans-Serif" font-size="10.00">common</text>
</a>
</g>
</g>
<!-- dir_7435a16b854d2d5948ecbd640e16fafd&#45;&gt;dir_afd6173fcc80f68f3e45820d53e5d728 -->
<g id="edge8" class="edge">
<title>dir_7435a16b854d2d5948ecbd640e16fafd&#45;&gt;dir_afd6173fcc80f68f3e45820d53e5d728</title>
<g id="a_edge8"><a xlink:href="dir_000322_000027.html" target="_top">
<path fill="none" stroke="#63b8ff" d="M464.6,-127.13C467.78,-126.74 470.93,-126.36 474,-126 556.28,-116.46 781.03,-142.62 845,-90 858.04,-79.27 862.38,-59.97 863.7,-45.46"/>
<polygon fill="#63b8ff" stroke="#63b8ff" points="867.21,-45.26 864.22,-35.1 860.22,-44.91 867.21,-45.26"/>
</a>
</g>
<g id="a_edge8&#45;headlabel"><a xlink:href="dir_000322_000027.html" target="_top" xlink:title="5">
<text text-anchor="middle" x="869.87" y="-46.49" font-family="Helvetica,sans-Serif" font-size="10.00" fill="#63b8ff">5</text>
</a>
</g>
</g>
<!-- dir_b7ef4a8359238f348c5a22d7001ade5e -->
<g id="node9" class="node">
<title>dir_b7ef4a8359238f348c5a22d7001ade5e</title>
<g id="a_node9"><a xlink:href="dir_b7ef4a8359238f348c5a22d7001ade5e.html" target="_top" xlink:title="cybt_shared_bus">
<polygon fill="#a2b4d6" stroke="#404040" points="581,-145 483,-145 483,-126 581,-126 581,-145"/>
<text text-anchor="middle" x="532" y="-133" font-family="Helvetica,sans-Serif" font-size="10.00">cybt_shared_bus</text>
</a>
</g>
</g>
<!-- dir_b7ef4a8359238f348c5a22d7001ade5e&#45;&gt;dir_afd6173fcc80f68f3e45820d53e5d728 -->
<g id="edge10" class="edge">
<title>dir_b7ef4a8359238f348c5a22d7001ade5e&#45;&gt;dir_afd6173fcc80f68f3e45820d53e5d728</title>
<g id="a_edge10"><a xlink:href="dir_000032_000027.html" target="_top">
<path fill="none" stroke="#63b8ff" d="M581.04,-131.73C671.84,-126.09 858.7,-111.94 878,-90 889.15,-77.33 882.5,-57.8 875.04,-43.75"/>
<polygon fill="#63b8ff" stroke="#63b8ff" points="878.02,-41.91 869.95,-35.04 871.98,-45.44 878.02,-41.91"/>
</a>
</g>
<g id="a_edge10&#45;headlabel"><a xlink:href="dir_000032_000027.html" target="_top" xlink:title="2">
<text text-anchor="middle" x="882.29" y="-41.08" font-family="Helvetica,sans-Serif" font-size="10.00" fill="#63b8ff">2</text>
</a>
</g>
</g>
<!-- dir_94305829392b517107ade31328056dd4&#45;&gt;dir_1686c45b041666fce3b490096f338b4d -->
<g id="edge11" class="edge">
<title>dir_94305829392b517107ade31328056dd4&#45;&gt;dir_1686c45b041666fce3b490096f338b4d</title>
<g id="a_edge11"><a xlink:href="dir_000216_000315.html" target="_top">
<path fill="none" stroke="#63b8ff" d="M411,-70.75C411,-63.8 411,-53.85 411,-45.13"/>
<polygon fill="#63b8ff" stroke="#63b8ff" points="414.5,-45.09 411,-35.09 407.5,-45.09 414.5,-45.09"/>
</a>
</g>
<g id="a_edge11&#45;headlabel"><a xlink:href="dir_000216_000315.html" target="_top" xlink:title="1">
<text text-anchor="middle" x="417.34" y="-46.18" font-family="Helvetica,sans-Serif" font-size="10.00" fill="#63b8ff">1</text>
</a>
</g>
</g>
<!-- dir_94305829392b517107ade31328056dd4&#45;&gt;dir_81ef59eb999ec4aab3b1999cf2329c91 -->
<g id="edge13" class="edge">
<title>dir_94305829392b517107ade31328056dd4&#45;&gt;dir_81ef59eb999ec4aab3b1999cf2329c91</title>
<g id="a_edge13"><a xlink:href="dir_000216_000308.html" target="_top">
<path fill="none" stroke="#63b8ff" d="M397.69,-70.98C392.63,-68.07 386.71,-65.04 381,-63 339.05,-48.02 289.78,-38.89 251,-33.51"/>
<polygon fill="#63b8ff" stroke="#63b8ff" points="251.25,-30.01 240.87,-32.16 250.32,-36.95 251.25,-30.01"/>
</a>
</g>
<g id="a_edge13&#45;headlabel"><a xlink:href="dir_000216_000308.html" target="_top" xlink:title="1">
<text text-anchor="middle" x="255.19" y="-25.18" font-family="Helvetica,sans-Serif" font-size="10.00" fill="#63b8ff">1</text>
</a>
</g>
</g>
<!-- dir_94305829392b517107ade31328056dd4&#45;&gt;dir_afd6173fcc80f68f3e45820d53e5d728 -->
<g id="edge12" class="edge">
<title>dir_94305829392b517107ade31328056dd4&#45;&gt;dir_afd6173fcc80f68f3e45820d53e5d728</title>
<g id="a_edge12"><a xlink:href="dir_000216_000027.html" target="_top">
<path fill="none" stroke="#63b8ff" d="M423.91,-70.83C429.02,-67.83 435.08,-64.77 441,-63 591.76,-17.85 637.4,-50.71 794,-35 803.85,-34.01 814.47,-32.8 824.38,-31.6"/>
<polygon fill="#63b8ff" stroke="#63b8ff" points="824.9,-35.07 834.4,-30.37 824.05,-28.12 824.9,-35.07"/>
</a>
</g>
<g id="a_edge12&#45;headlabel"><a xlink:href="dir_000216_000027.html" target="_top" xlink:title="2">
<text text-anchor="middle" x="821.68" y="-35.82" font-family="Helvetica,sans-Serif" font-size="10.00" fill="#63b8ff">2</text>
</a>
</g>
</g>
</g>
</svg>
