<?xml version="1.0" encoding="UTF-8" standalone="no"?>
<!DOCTYPE svg PUBLIC "-//W3C//DTD SVG 1.1//EN"
 "http://www.w3.org/Graphics/SVG/1.1/DTD/svg11.dtd">
<!-- Generated by graphviz version 2.43.0 (0)
 -->
<!-- Title: pico_runtime_init Pages: 1 -->
<svg width="830pt" height="141pt"
 viewBox="0.00 0.00 830.00 141.00" xmlns="http://www.w3.org/2000/svg" xmlns:xlink="http://www.w3.org/1999/xlink">
<g id="graph0" class="graph" transform="scale(1 1) rotate(0) translate(4 137)">
<title>pico_runtime_init</title>
<g id="clust1" class="cluster">
<title>clusterdir_436b3088c157a85dc167e6ddffc5dacd</title>
<g id="a_clust1"><a xlink:href="dir_436b3088c157a85dc167e6ddffc5dacd.html" target="_top" xlink:title="rp2_common">
<polygon fill="#edf0f7" stroke="#7f7f7f" stroke-dasharray="5,2" points="8,-8 8,-125 762,-125 762,-8 8,-8"/>
<text text-anchor="middle" x="385" y="-113" font-family="Helvetica,sans-Serif" font-size="10.00">rp2_common</text>
</a>
</g>
</g>
<g id="clust2" class="cluster">
<title>clusterdir_e04b6794f911affb2800e355ac8ad6c6</title>
<g id="a_clust2"><a xlink:href="dir_e04b6794f911affb2800e355ac8ad6c6.html" target="_top">
<polygon fill="#edf0f7" stroke="#404040" stroke-width="2" points="319,-63 319,-98 507,-98 507,-63 319,-63"/>
</a>
</g>
</g>
<!-- dir_09eb891803a953f86028aa29a6822298 -->
<g id="node1" class="node">
<title>dir_09eb891803a953f86028aa29a6822298</title>
<g id="a_node1"><a xlink:href="dir_09eb891803a953f86028aa29a6822298.html" target="_top" xlink:title="hardware_clocks">
<polygon fill="#a2b4d6" stroke="red" points="114,-35 16,-35 16,-16 114,-16 114,-35"/>
<text text-anchor="middle" x="65" y="-23" font-family="Helvetica,sans-Serif" font-size="10.00">hardware_clocks</text>
</a>
</g>
</g>
<!-- dir_0db40e61e49eb96440eab467ccc010bd -->
<g id="node2" class="node">
<title>dir_0db40e61e49eb96440eab467ccc010bd</title>
<g id="a_node2"><a xlink:href="dir_0db40e61e49eb96440eab467ccc010bd.html" target="_top" xlink:title="hardware_resets">
<polygon fill="#a2b4d6" stroke="red" points="230,-35 132,-35 132,-16 230,-16 230,-35"/>
<text text-anchor="middle" x="181" y="-23" font-family="Helvetica,sans-Serif" font-size="10.00">hardware_resets</text>
</a>
</g>
</g>
<!-- dir_1686c45b041666fce3b490096f338b4d -->
<g id="node3" class="node">
<title>dir_1686c45b041666fce3b490096f338b4d</title>
<g id="a_node3"><a xlink:href="dir_1686c45b041666fce3b490096f338b4d.html" target="_top" xlink:title="pico_bootrom">
<polygon fill="#a2b4d6" stroke="red" points="331.5,-35 248.5,-35 248.5,-16 331.5,-16 331.5,-35"/>
<text text-anchor="middle" x="290" y="-23" font-family="Helvetica,sans-Serif" font-size="10.00">pico_bootrom</text>
</a>
</g>
</g>
<!-- dir_58db9a2e9eb9a90dcc364c287d21b76e -->
<g id="node4" class="node">
<title>dir_58db9a2e9eb9a90dcc364c287d21b76e</title>
<g id="a_node4"><a xlink:href="dir_58db9a2e9eb9a90dcc364c287d21b76e.html" target="_top" xlink:title="hardware_vreg">
<polygon fill="#a2b4d6" stroke="red" points="438.5,-35 349.5,-35 349.5,-16 438.5,-16 438.5,-35"/>
<text text-anchor="middle" x="394" y="-23" font-family="Helvetica,sans-Serif" font-size="10.00">hardware_vreg</text>
</a>
</g>
</g>
<!-- dir_8a434c4ef37b61ed485aff59f5592661 -->
<g id="node5" class="node">
<title>dir_8a434c4ef37b61ed485aff59f5592661</title>
<g id="a_node5"><a xlink:href="dir_8a434c4ef37b61ed485aff59f5592661.html" target="_top" xlink:title="hardware_ticks">
<polygon fill="#a2b4d6" stroke="red" points="547.5,-35 456.5,-35 456.5,-16 547.5,-16 547.5,-35"/>
<text text-anchor="middle" x="502" y="-23" font-family="Helvetica,sans-Serif" font-size="10.00">hardware_ticks</text>
</a>
</g>
</g>
<!-- dir_c8df048606bd45adef378f06b3f4cff7 -->
<g id="node6" class="node">
<title>dir_c8df048606bd45adef378f06b3f4cff7</title>
<g id="a_node6"><a xlink:href="dir_c8df048606bd45adef378f06b3f4cff7.html" target="_top" xlink:title="hardware_xosc">
<polygon fill="#a2b4d6" stroke="red" points="656,-35 566,-35 566,-16 656,-16 656,-35"/>
<text text-anchor="middle" x="611" y="-23" font-family="Helvetica,sans-Serif" font-size="10.00">hardware_xosc</text>
</a>
</g>
</g>
<!-- dir_e0b3f7e01ea6d16ea5aec043d6b243d3 -->
<g id="node7" class="node">
<title>dir_e0b3f7e01ea6d16ea5aec043d6b243d3</title>
<g id="a_node7"><a xlink:href="dir_e0b3f7e01ea6d16ea5aec043d6b243d3.html" target="_top" xlink:title="hardware_pll">
<polygon fill="#a2b4d6" stroke="red" points="754,-35 674,-35 674,-16 754,-16 754,-35"/>
<text text-anchor="middle" x="714" y="-23" font-family="Helvetica,sans-Serif" font-size="10.00">hardware_pll</text>
</a>
</g>
</g>
<!-- dir_e04b6794f911affb2800e355ac8ad6c6 -->
<g id="node8" class="node">
<title>dir_e04b6794f911affb2800e355ac8ad6c6</title>
<text text-anchor="middle" x="448" y="-78" font-family="Helvetica,sans-Serif" font-size="10.00">pico_runtime_init</text>
</g>
<!-- dir_e04b6794f911affb2800e355ac8ad6c6&#45;&gt;dir_09eb891803a953f86028aa29a6822298 -->
<g id="edge1" class="edge">
<title>dir_e04b6794f911affb2800e355ac8ad6c6&#45;&gt;dir_09eb891803a953f86028aa29a6822298</title>
<g id="a_edge1"><a xlink:href="dir_000352_000089.html" target="_top">
<path fill="none" stroke="#63b8ff" d="M420.74,-70.99C410.55,-68.08 398.83,-65.05 388,-63 274.81,-41.6 242.27,-49.35 124.19,-35.08"/>
<polygon fill="#63b8ff" stroke="#63b8ff" points="124.38,-31.58 114.03,-33.83 123.52,-38.53 124.38,-31.58"/>
</a>
</g>
<g id="a_edge1&#45;headlabel"><a xlink:href="dir_000352_000089.html" target="_top" xlink:title="1">
<text text-anchor="middle" x="128.3" y="-26.7" font-family="Helvetica,sans-Serif" font-size="10.00" fill="#63b8ff">1</text>
</a>
</g>
</g>
<!-- dir_e04b6794f911affb2800e355ac8ad6c6&#45;&gt;dir_0db40e61e49eb96440eab467ccc010bd -->
<g id="edge2" class="edge">
<title>dir_e04b6794f911affb2800e355ac8ad6c6&#45;&gt;dir_0db40e61e49eb96440eab467ccc010bd</title>
<g id="a_edge2"><a xlink:href="dir_000352_000112.html" target="_top">
<path fill="none" stroke="#63b8ff" d="M419.15,-70.98C409.31,-68.23 398.22,-65.3 388,-63 338.5,-51.86 281.71,-42.05 240.15,-35.42"/>
<polygon fill="#63b8ff" stroke="#63b8ff" points="240.62,-31.95 230.19,-33.84 239.52,-38.86 240.62,-31.95"/>
</a>
</g>
<g id="a_edge2&#45;headlabel"><a xlink:href="dir_000352_000112.html" target="_top" xlink:title="1">
<text text-anchor="middle" x="244.61" y="-27.2" font-family="Helvetica,sans-Serif" font-size="10.00" fill="#63b8ff">1</text>
</a>
</g>
</g>
<!-- dir_e04b6794f911affb2800e355ac8ad6c6&#45;&gt;dir_1686c45b041666fce3b490096f338b4d -->
<g id="edge3" class="edge">
<title>dir_e04b6794f911affb2800e355ac8ad6c6&#45;&gt;dir_1686c45b041666fce3b490096f338b4d</title>
<g id="a_edge3"><a xlink:href="dir_000352_000315.html" target="_top">
<path fill="none" stroke="#63b8ff" d="M422.61,-70.98C396.2,-62.13 354.65,-48.19 325.11,-38.28"/>
<polygon fill="#63b8ff" stroke="#63b8ff" points="326.18,-34.94 315.58,-35.08 323.95,-41.58 326.18,-34.94"/>
</a>
</g>
<g id="a_edge3&#45;headlabel"><a xlink:href="dir_000352_000315.html" target="_top" xlink:title="1">
<text text-anchor="middle" x="330.49" y="-30.9" font-family="Helvetica,sans-Serif" font-size="10.00" fill="#63b8ff">1</text>
</a>
</g>
</g>
<!-- dir_e04b6794f911affb2800e355ac8ad6c6&#45;&gt;dir_58db9a2e9eb9a90dcc364c287d21b76e -->
<g id="edge4" class="edge">
<title>dir_e04b6794f911affb2800e355ac8ad6c6&#45;&gt;dir_58db9a2e9eb9a90dcc364c287d21b76e</title>
<g id="a_edge4"><a xlink:href="dir_000352_000129.html" target="_top">
<path fill="none" stroke="#63b8ff" d="M439.08,-70.75C431.22,-63.03 419.57,-51.6 410.08,-42.28"/>
<polygon fill="#63b8ff" stroke="#63b8ff" points="412.34,-39.6 402.75,-35.09 407.44,-44.59 412.34,-39.6"/>
</a>
</g>
<g id="a_edge4&#45;headlabel"><a xlink:href="dir_000352_000129.html" target="_top" xlink:title="1">
<text text-anchor="middle" x="416.89" y="-37.59" font-family="Helvetica,sans-Serif" font-size="10.00" fill="#63b8ff">1</text>
</a>
</g>
</g>
<!-- dir_e04b6794f911affb2800e355ac8ad6c6&#45;&gt;dir_8a434c4ef37b61ed485aff59f5592661 -->
<g id="edge5" class="edge">
<title>dir_e04b6794f911affb2800e355ac8ad6c6&#45;&gt;dir_8a434c4ef37b61ed485aff59f5592661</title>
<g id="a_edge5"><a xlink:href="dir_000352_000124.html" target="_top">
<path fill="none" stroke="#63b8ff" d="M456.92,-70.75C464.78,-63.03 476.43,-51.6 485.92,-42.28"/>
<polygon fill="#63b8ff" stroke="#63b8ff" points="488.56,-44.59 493.25,-35.09 483.66,-39.6 488.56,-44.59"/>
</a>
</g>
<g id="a_edge5&#45;headlabel"><a xlink:href="dir_000352_000124.html" target="_top" xlink:title="1">
<text text-anchor="middle" x="487.99" y="-46.64" font-family="Helvetica,sans-Serif" font-size="10.00" fill="#63b8ff">1</text>
</a>
</g>
</g>
<!-- dir_e04b6794f911affb2800e355ac8ad6c6&#45;&gt;dir_c8df048606bd45adef378f06b3f4cff7 -->
<g id="edge7" class="edge">
<title>dir_e04b6794f911affb2800e355ac8ad6c6&#45;&gt;dir_c8df048606bd45adef378f06b3f4cff7</title>
<g id="a_edge7"><a xlink:href="dir_000352_000132.html" target="_top">
<path fill="none" stroke="#63b8ff" d="M474.19,-70.98C501.44,-62.13 544.3,-48.19 574.78,-38.28"/>
<polygon fill="#63b8ff" stroke="#63b8ff" points="576.18,-41.5 584.61,-35.08 574.01,-34.85 576.18,-41.5"/>
</a>
</g>
<g id="a_edge7&#45;headlabel"><a xlink:href="dir_000352_000132.html" target="_top" xlink:title="1">
<text text-anchor="middle" x="573.64" y="-42.81" font-family="Helvetica,sans-Serif" font-size="10.00" fill="#63b8ff">1</text>
</a>
</g>
</g>
<!-- dir_e04b6794f911affb2800e355ac8ad6c6&#45;&gt;dir_e0b3f7e01ea6d16ea5aec043d6b243d3 -->
<g id="edge8" class="edge">
<title>dir_e04b6794f911affb2800e355ac8ad6c6&#45;&gt;dir_e0b3f7e01ea6d16ea5aec043d6b243d3</title>
<g id="a_edge8"><a xlink:href="dir_000352_000105.html" target="_top">
<path fill="none" stroke="#63b8ff" d="M490.74,-70.98C538,-61.57 614.06,-46.41 664.04,-36.45"/>
<polygon fill="#63b8ff" stroke="#63b8ff" points="664.86,-39.86 673.98,-34.47 663.49,-33 664.86,-39.86"/>
</a>
</g>
<g id="a_edge8&#45;headlabel"><a xlink:href="dir_000352_000105.html" target="_top" xlink:title="1">
<text text-anchor="middle" x="661.89" y="-40.85" font-family="Helvetica,sans-Serif" font-size="10.00" fill="#63b8ff">1</text>
</a>
</g>
</g>
<!-- dir_c20cf07c74f8c11629d6d184d929685a -->
<g id="node10" class="node">
<title>dir_c20cf07c74f8c11629d6d184d929685a</title>
<g id="a_node10"><a xlink:href="dir_c20cf07c74f8c11629d6d184d929685a.html" target="_top" xlink:title="rp2350">
<polygon fill="#edf0f7" stroke="red" stroke-dasharray="5,2" points="822,-35 772,-35 772,-16 822,-16 822,-35"/>
<text text-anchor="middle" x="797" y="-23" font-family="Helvetica,sans-Serif" font-size="10.00">rp2350</text>
</a>
</g>
</g>
<!-- dir_e04b6794f911affb2800e355ac8ad6c6&#45;&gt;dir_c20cf07c74f8c11629d6d184d929685a -->
<g id="edge6" class="edge">
<title>dir_e04b6794f911affb2800e355ac8ad6c6&#45;&gt;dir_c20cf07c74f8c11629d6d184d929685a</title>
<g id="a_edge6"><a xlink:href="dir_000352_000393.html" target="_top">
<path fill="none" stroke="#63b8ff" d="M498.74,-74.44C559.7,-67.9 665.2,-55.16 761.77,-35.75"/>
<polygon fill="#63b8ff" stroke="#63b8ff" points="762.59,-39.15 771.69,-33.73 761.19,-32.3 762.59,-39.15"/>
</a>
</g>
<g id="a_edge6&#45;headlabel"><a xlink:href="dir_000352_000393.html" target="_top" xlink:title="1">
<text text-anchor="middle" x="759.64" y="-40.16" font-family="Helvetica,sans-Serif" font-size="10.00" fill="#63b8ff">1</text>
</a>
</g>
</g>
<!-- dir_4485f054cc299fbbb30a0896781ff244 -->
<g id="node9" class="node">
<title>dir_4485f054cc299fbbb30a0896781ff244</title>
<g id="a_node9"><a xlink:href="dir_4485f054cc299fbbb30a0896781ff244.html" target="_top" xlink:title="include">
<polygon fill="#a2b4d6" stroke="#404040" points="379,-90 327,-90 327,-71 379,-71 379,-90"/>
<text text-anchor="middle" x="353" y="-78" font-family="Helvetica,sans-Serif" font-size="10.00">include</text>
</a>
</g>
</g>
</g>
</svg>
