<?xml version="1.0" encoding="UTF-8" standalone="no"?>
<!DOCTYPE svg PUBLIC "-//W3C//DTD SVG 1.1//EN"
 "http://www.w3.org/Graphics/SVG/1.1/DTD/svg11.dtd">
<!-- Generated by graphviz version 2.43.0 (0)
 -->
<!-- Title: pico_btstack Pages: 1 -->
<svg width="300pt" height="196pt"
 viewBox="0.00 0.00 299.50 196.00" xmlns="http://www.w3.org/2000/svg" xmlns:xlink="http://www.w3.org/1999/xlink">
<g id="graph0" class="graph" transform="scale(1 1) rotate(0) translate(4 192)">
<title>pico_btstack</title>
<g id="clust1" class="cluster">
<title>clusterdir_436b3088c157a85dc167e6ddffc5dacd</title>
<g id="a_clust1"><a xlink:href="dir_436b3088c157a85dc167e6ddffc5dacd.html" target="_top" xlink:title="rp2_common">
<polygon fill="#edf0f7" stroke="#7f7f7f" stroke-dasharray="5,2" points="8,-8 8,-180 248,-180 248,-8 8,-8"/>
<text text-anchor="middle" x="128" y="-168" font-family="Helvetica,sans-Serif" font-size="10.00">rp2_common</text>
</a>
</g>
</g>
<g id="clust2" class="cluster">
<title>clusterdir_ed65e55c24c25dbaf64c8b24e602d59b</title>
<g id="a_clust2"><a xlink:href="dir_ed65e55c24c25dbaf64c8b24e602d59b.html" target="_top">
<polygon fill="#edf0f7" stroke="#404040" stroke-width="2" points="38,-63 38,-153 132,-153 132,-63 38,-63"/>
</a>
</g>
</g>
<!-- dir_5800446dc6407310b7e9cdb5cfcb8e56 -->
<g id="node1" class="node">
<title>dir_5800446dc6407310b7e9cdb5cfcb8e56</title>
<g id="a_node1"><a xlink:href="dir_5800446dc6407310b7e9cdb5cfcb8e56.html" target="_top" xlink:title="pico_flash">
<polygon fill="#a2b4d6" stroke="red" points="206,-90 140,-90 140,-71 206,-71 206,-90"/>
<text text-anchor="middle" x="173" y="-78" font-family="Helvetica,sans-Serif" font-size="10.00">pico_flash</text>
</a>
</g>
</g>
<!-- dir_77dc1187a2296de9b46c32ff9e899a07 -->
<g id="node2" class="node">
<title>dir_77dc1187a2296de9b46c32ff9e899a07</title>
<g id="a_node2"><a xlink:href="dir_77dc1187a2296de9b46c32ff9e899a07.html" target="_top" xlink:title="hardware_flash">
<polygon fill="#a2b4d6" stroke="red" points="240,-35 148,-35 148,-16 240,-16 240,-35"/>
<text text-anchor="middle" x="194" y="-23" font-family="Helvetica,sans-Serif" font-size="10.00">hardware_flash</text>
</a>
</g>
</g>
<!-- dir_81ef59eb999ec4aab3b1999cf2329c91 -->
<g id="node3" class="node">
<title>dir_81ef59eb999ec4aab3b1999cf2329c91</title>
<g id="a_node3"><a xlink:href="dir_81ef59eb999ec4aab3b1999cf2329c91.html" target="_top" xlink:title="pico_async_context">
<polygon fill="#a2b4d6" stroke="red" points="129.5,-35 16.5,-35 16.5,-16 129.5,-16 129.5,-35"/>
<text text-anchor="middle" x="73" y="-23" font-family="Helvetica,sans-Serif" font-size="10.00">pico_async_context</text>
</a>
</g>
</g>
<!-- dir_ed65e55c24c25dbaf64c8b24e602d59b -->
<g id="node4" class="node">
<title>dir_ed65e55c24c25dbaf64c8b24e602d59b</title>
<text text-anchor="middle" x="85" y="-133" font-family="Helvetica,sans-Serif" font-size="10.00">pico_btstack</text>
</g>
<!-- dir_ed65e55c24c25dbaf64c8b24e602d59b&#45;&gt;dir_5800446dc6407310b7e9cdb5cfcb8e56 -->
<g id="edge3" class="edge">
<title>dir_ed65e55c24c25dbaf64c8b24e602d59b&#45;&gt;dir_5800446dc6407310b7e9cdb5cfcb8e56</title>
<g id="a_edge3"><a xlink:href="dir_000317_000329.html" target="_top">
<path fill="none" stroke="#63b8ff" d="M99.14,-125.98C112.79,-117.77 133.69,-105.18 149.78,-95.49"/>
<polygon fill="#63b8ff" stroke="#63b8ff" points="151.84,-98.33 158.6,-90.17 148.23,-92.33 151.84,-98.33"/>
</a>
</g>
<g id="a_edge3&#45;headlabel"><a xlink:href="dir_000317_000329.html" target="_top" xlink:title="1">
<text text-anchor="middle" x="150.23" y="-100.11" font-family="Helvetica,sans-Serif" font-size="10.00" fill="#63b8ff">1</text>
</a>
</g>
</g>
<!-- dir_ed65e55c24c25dbaf64c8b24e602d59b&#45;&gt;dir_77dc1187a2296de9b46c32ff9e899a07 -->
<g id="edge4" class="edge">
<title>dir_ed65e55c24c25dbaf64c8b24e602d59b&#45;&gt;dir_77dc1187a2296de9b46c32ff9e899a07</title>
<g id="a_edge4"><a xlink:href="dir_000317_000095.html" target="_top">
<path fill="none" stroke="#63b8ff" d="M124.24,-132.72C154.5,-129.04 194.54,-118.63 215,-90 224.98,-76.03 216.43,-57.01 207.42,-43.44"/>
<polygon fill="#63b8ff" stroke="#63b8ff" points="210.03,-41.08 201.33,-35.04 204.36,-45.19 210.03,-41.08"/>
</a>
</g>
<g id="a_edge4&#45;headlabel"><a xlink:href="dir_000317_000095.html" target="_top" xlink:title="2">
<text text-anchor="middle" x="214.44" y="-39.83" font-family="Helvetica,sans-Serif" font-size="10.00" fill="#63b8ff">2</text>
</a>
</g>
</g>
<!-- dir_4ed5359c97538e5ff71d6e1f97d1957b -->
<g id="node5" class="node">
<title>dir_4ed5359c97538e5ff71d6e1f97d1957b</title>
<g id="a_node5"><a xlink:href="dir_4ed5359c97538e5ff71d6e1f97d1957b.html" target="_top" xlink:title="include">
<polygon fill="#a2b4d6" stroke="#404040" points="111,-90 59,-90 59,-71 111,-71 111,-90"/>
<text text-anchor="middle" x="85" y="-78" font-family="Helvetica,sans-Serif" font-size="10.00">include</text>
</a>
</g>
</g>
<!-- dir_ed65e55c24c25dbaf64c8b24e602d59b&#45;&gt;dir_4ed5359c97538e5ff71d6e1f97d1957b -->
<g id="edge2" class="edge">
<title>dir_ed65e55c24c25dbaf64c8b24e602d59b&#45;&gt;dir_4ed5359c97538e5ff71d6e1f97d1957b</title>
<g id="a_edge2"><a xlink:href="dir_000317_000213.html" target="_top">
<path fill="none" stroke="#63b8ff" d="M85,-125.75C85,-118.8 85,-108.85 85,-100.13"/>
<polygon fill="#63b8ff" stroke="#63b8ff" points="88.5,-100.09 85,-90.09 81.5,-100.09 88.5,-100.09"/>
</a>
</g>
<g id="a_edge2&#45;headlabel"><a xlink:href="dir_000317_000213.html" target="_top" xlink:title="2">
<text text-anchor="middle" x="91.34" y="-101.18" font-family="Helvetica,sans-Serif" font-size="10.00" fill="#63b8ff">2</text>
</a>
</g>
</g>
<!-- dir_4b97774b20923cf06c558e66efce829f -->
<g id="node6" class="node">
<title>dir_4b97774b20923cf06c558e66efce829f</title>
<g id="a_node6"><a xlink:href="dir_4b97774b20923cf06c558e66efce829f.html" target="_top" xlink:title="test">
<polygon fill="#edf0f7" stroke="red" stroke-dasharray="5,2" points="291.5,-90 256.5,-90 256.5,-71 291.5,-71 291.5,-90"/>
<text text-anchor="middle" x="274" y="-78" font-family="Helvetica,sans-Serif" font-size="10.00">test</text>
</a>
</g>
</g>
<!-- dir_ed65e55c24c25dbaf64c8b24e602d59b&#45;&gt;dir_4b97774b20923cf06c558e66efce829f -->
<g id="edge1" class="edge">
<title>dir_ed65e55c24c25dbaf64c8b24e602d59b&#45;&gt;dir_4b97774b20923cf06c558e66efce829f</title>
<g id="a_edge1"><a xlink:href="dir_000317_000409.html" target="_top">
<path fill="none" stroke="#63b8ff" d="M121.49,-125.98C153.29,-118.3 200.79,-106.18 246.56,-91.67"/>
<polygon fill="#63b8ff" stroke="#63b8ff" points="247.84,-94.93 256.29,-88.53 245.7,-88.27 247.84,-94.93"/>
</a>
</g>
<g id="a_edge1&#45;headlabel"><a xlink:href="dir_000317_000409.html" target="_top" xlink:title="1">
<text text-anchor="middle" x="245.29" y="-96.23" font-family="Helvetica,sans-Serif" font-size="10.00" fill="#63b8ff">1</text>
</a>
</g>
</g>
<!-- dir_4ed5359c97538e5ff71d6e1f97d1957b&#45;&gt;dir_77dc1187a2296de9b46c32ff9e899a07 -->
<g id="edge5" class="edge">
<title>dir_4ed5359c97538e5ff71d6e1f97d1957b&#45;&gt;dir_77dc1187a2296de9b46c32ff9e899a07</title>
<g id="a_edge5"><a xlink:href="dir_000213_000095.html" target="_top">
<path fill="none" stroke="#63b8ff" d="M100.15,-70.9C104.87,-68.29 110.12,-65.47 115,-63 131.37,-54.73 149.98,-46.09 165.03,-39.3"/>
<polygon fill="#63b8ff" stroke="#63b8ff" points="166.65,-42.41 174.34,-35.12 163.78,-36.02 166.65,-42.41"/>
</a>
</g>
<g id="a_edge5&#45;headlabel"><a xlink:href="dir_000213_000095.html" target="_top" xlink:title="1">
<text text-anchor="middle" x="164.53" y="-43.97" font-family="Helvetica,sans-Serif" font-size="10.00" fill="#63b8ff">1</text>
</a>
</g>
</g>
<!-- dir_4ed5359c97538e5ff71d6e1f97d1957b&#45;&gt;dir_81ef59eb999ec4aab3b1999cf2329c91 -->
<g id="edge6" class="edge">
<title>dir_4ed5359c97538e5ff71d6e1f97d1957b&#45;&gt;dir_81ef59eb999ec4aab3b1999cf2329c91</title>
<g id="a_edge6"><a xlink:href="dir_000213_000308.html" target="_top">
<path fill="none" stroke="#63b8ff" d="M83.02,-70.75C81.43,-63.72 79.14,-53.62 77.15,-44.84"/>
<polygon fill="#63b8ff" stroke="#63b8ff" points="80.57,-44.07 74.94,-35.09 73.74,-45.62 80.57,-44.07"/>
</a>
</g>
<g id="a_edge6&#45;headlabel"><a xlink:href="dir_000213_000308.html" target="_top" xlink:title="1">
<text text-anchor="middle" x="84.13" y="-44.45" font-family="Helvetica,sans-Serif" font-size="10.00" fill="#63b8ff">1</text>
</a>
</g>
</g>
</g>
</svg>
