<?xml version="1.0" encoding="UTF-8" standalone="no"?>
<!DOCTYPE svg PUBLIC "-//W3C//DTD SVG 1.1//EN"
 "http://www.w3.org/Graphics/SVG/1.1/DTD/svg11.dtd">
<!-- Generated by graphviz version 2.43.0 (0)
 -->
<!-- Title: double_math.c Pages: 1 -->
<svg width="274pt" height="137pt"
 viewBox="0.00 0.00 273.50 137.00" xmlns="http://www.w3.org/2000/svg" xmlns:xlink="http://www.w3.org/1999/xlink">
<g id="graph0" class="graph" transform="scale(1 1) rotate(0) translate(4 133)">
<title>double_math.c</title>
<!-- Node1 -->
<g id="Node000001" class="node">
<title>Node1</title>
<g id="a_Node000001"><a xlink:title=" ">
<polygon fill="#999999" stroke="#666666" points="103,-129 14,-129 14,-110 103,-110 103,-129"/>
<text text-anchor="middle" x="58.5" y="-117" font-family="Helvetica,sans-Serif" font-size="10.00">double_math.c</text>
</a>
</g>
</g>
<!-- Node2 -->
<g id="Node000002" class="node">
<title>Node2</title>
<g id="a_Node000002"><a xlink:title=" ">
<polygon fill="#e0e0e0" stroke="#999999" points="51,-19 0,-19 0,0 51,0 51,-19"/>
<text text-anchor="middle" x="25.5" y="-7" font-family="Helvetica,sans-Serif" font-size="10.00">math.h</text>
</a>
</g>
</g>
<!-- Node1&#45;&gt;Node2 -->
<g id="edge1_Node000001_Node000002" class="edge">
<title>Node1&#45;&gt;Node2</title>
<g id="a_edge1_Node000001_Node000002"><a xlink:title=" ">
<path fill="none" stroke="#63b8ff" d="M55.38,-109.68C52.26,-100.73 47.36,-86.46 43.5,-74 38.83,-58.93 33.98,-41.71 30.49,-29"/>
<polygon fill="#63b8ff" stroke="#63b8ff" points="33.81,-27.9 27.81,-19.17 27.06,-29.74 33.81,-27.9"/>
</a>
</g>
</g>
<!-- Node3 -->
<g id="Node000003" class="node">
<title>Node3</title>
<g id="a_Node000003"><a xlink:href="double_8h.html" target="_top" xlink:title=" ">
<polygon fill="white" stroke="#666666" points="134.5,-74 52.5,-74 52.5,-55 134.5,-55 134.5,-74"/>
<text text-anchor="middle" x="93.5" y="-62" font-family="Helvetica,sans-Serif" font-size="10.00">pico/double.h</text>
</a>
</g>
</g>
<!-- Node1&#45;&gt;Node3 -->
<g id="edge2_Node000001_Node000003" class="edge">
<title>Node1&#45;&gt;Node3</title>
<g id="a_edge2_Node000001_Node000003"><a xlink:title=" ">
<path fill="none" stroke="#63b8ff" d="M64.28,-109.75C69.12,-102.42 76.18,-91.73 82.14,-82.7"/>
<polygon fill="#63b8ff" stroke="#63b8ff" points="85.24,-84.36 87.83,-74.09 79.4,-80.5 85.24,-84.36"/>
</a>
</g>
</g>
<!-- Node3&#45;&gt;Node2 -->
<g id="edge3_Node000003_Node000002" class="edge">
<title>Node3&#45;&gt;Node2</title>
<g id="a_edge3_Node000003_Node000002"><a xlink:title=" ">
<path fill="none" stroke="#63b8ff" d="M82.57,-54.98C72.42,-47.07 57.08,-35.11 44.85,-25.58"/>
<polygon fill="#63b8ff" stroke="#63b8ff" points="46.66,-22.56 36.62,-19.17 42.36,-28.08 46.66,-22.56"/>
</a>
</g>
</g>
<!-- Node4 -->
<g id="Node000004" class="node">
<title>Node4</title>
<g id="a_Node000004"><a xlink:title=" ">
<polygon fill="#e0e0e0" stroke="#999999" points="115.5,-19 69.5,-19 69.5,0 115.5,0 115.5,-19"/>
<text text-anchor="middle" x="92.5" y="-7" font-family="Helvetica,sans-Serif" font-size="10.00">pico.h</text>
</a>
</g>
</g>
<!-- Node3&#45;&gt;Node4 -->
<g id="edge4_Node000003_Node000004" class="edge">
<title>Node3&#45;&gt;Node4</title>
<g id="a_edge4_Node000003_Node000004"><a xlink:title=" ">
<path fill="none" stroke="#63b8ff" d="M93.33,-54.75C93.2,-47.8 93.02,-37.85 92.85,-29.13"/>
<polygon fill="#63b8ff" stroke="#63b8ff" points="96.35,-29.02 92.66,-19.09 89.35,-29.15 96.35,-29.02"/>
</a>
</g>
</g>
<!-- Node5 -->
<g id="Node000005" class="node">
<title>Node5</title>
<g id="a_Node000005"><a xlink:href="sf__table_8h.html" target="_top" xlink:title=" ">
<polygon fill="white" stroke="#666666" points="265.5,-19 133.5,-19 133.5,0 265.5,0 265.5,-19"/>
<text text-anchor="middle" x="199.5" y="-7" font-family="Helvetica,sans-Serif" font-size="10.00">pico/bootrom/sf_table.h</text>
</a>
</g>
</g>
<!-- Node3&#45;&gt;Node5 -->
<g id="edge5_Node000003_Node000005" class="edge">
<title>Node3&#45;&gt;Node5</title>
<g id="a_edge5_Node000003_Node000005"><a xlink:title=" ">
<path fill="none" stroke="#63b8ff" d="M110.53,-54.98C127.43,-46.54 153.56,-33.47 173.14,-23.68"/>
<polygon fill="#63b8ff" stroke="#63b8ff" points="174.78,-26.77 182.16,-19.17 171.65,-20.51 174.78,-26.77"/>
</a>
</g>
</g>
</g>
</svg>
