<?xml version="1.0" encoding="UTF-8" standalone="no"?>
<!DOCTYPE svg PUBLIC "-//W3C//DTD SVG 1.1//EN"
 "http://www.w3.org/Graphics/SVG/1.1/DTD/svg11.dtd">
<!-- Generated by graphviz version 2.43.0 (0)
 -->
<!-- Title: driver.h Pages: 1 -->
<svg width="365pt" height="82pt"
 viewBox="0.00 0.00 364.50 82.00" xmlns="http://www.w3.org/2000/svg" xmlns:xlink="http://www.w3.org/1999/xlink">
<g id="graph0" class="graph" transform="scale(1 1) rotate(0) translate(4 78)">
<title>driver.h</title>
<!-- Node1 -->
<g id="Node000001" class="node">
<title>Node1</title>
<g id="a_Node000001"><a xlink:title=" ">
<polygon fill="#999999" stroke="#666666" points="180.5,-74 126.5,-74 126.5,-55 180.5,-55 180.5,-74"/>
<text text-anchor="middle" x="153.5" y="-62" font-family="Helvetica,sans-Serif" font-size="10.00">driver.h</text>
</a>
</g>
</g>
<!-- Node2 -->
<g id="Node000002" class="node">
<title>Node2</title>
<g id="a_Node000002"><a xlink:href="rp2__common_2pico__stdio_2stdio_8c.html" target="_top" xlink:title=" ">
<polygon fill="white" stroke="#666666" points="49,-19 0,-19 0,0 49,0 49,-19"/>
<text text-anchor="middle" x="24.5" y="-7" font-family="Helvetica,sans-Serif" font-size="10.00">stdio.c</text>
</a>
</g>
</g>
<!-- Node1&#45;&gt;Node2 -->
<g id="edge1_Node000001_Node000002" class="edge">
<title>Node1&#45;&gt;Node2</title>
<g id="a_edge1_Node000001_Node000002"><a xlink:title=" ">
<path fill="none" stroke="#63b8ff" d="M123.46,-51.16C99.58,-41.35 66.78,-27.87 45.6,-19.17"/>
<polygon fill="#63b8ff" stroke="#63b8ff" points="122.19,-54.42 132.77,-54.98 124.85,-47.95 122.19,-54.42"/>
</a>
</g>
</g>
<!-- Node3 -->
<g id="Node000003" class="node">
<title>Node3</title>
<g id="a_Node000003"><a xlink:href="stdio__rtt_8c.html" target="_top" xlink:title=" ">
<polygon fill="white" stroke="#666666" points="132,-19 67,-19 67,0 132,0 132,-19"/>
<text text-anchor="middle" x="99.5" y="-7" font-family="Helvetica,sans-Serif" font-size="10.00">stdio_rtt.c</text>
</a>
</g>
</g>
<!-- Node1&#45;&gt;Node3 -->
<g id="edge2_Node000001_Node000003" class="edge">
<title>Node1&#45;&gt;Node3</title>
<g id="a_edge2_Node000001_Node000003"><a xlink:title=" ">
<path fill="none" stroke="#63b8ff" d="M137.22,-47.52C127.7,-38.18 116.06,-26.75 108.25,-19.09"/>
<polygon fill="#63b8ff" stroke="#63b8ff" points="134.99,-50.24 144.58,-54.75 139.9,-45.25 134.99,-50.24"/>
</a>
</g>
</g>
<!-- Node4 -->
<g id="Node000004" class="node">
<title>Node4</title>
<g id="a_Node000004"><a xlink:href="stdio__semihosting_8c.html" target="_top" xlink:title=" ">
<polygon fill="white" stroke="#666666" points="264.5,-19 150.5,-19 150.5,0 264.5,0 264.5,-19"/>
<text text-anchor="middle" x="207.5" y="-7" font-family="Helvetica,sans-Serif" font-size="10.00">stdio_semihosting.c</text>
</a>
</g>
</g>
<!-- Node1&#45;&gt;Node4 -->
<g id="edge3_Node000001_Node000004" class="edge">
<title>Node1&#45;&gt;Node4</title>
<g id="a_edge3_Node000001_Node000004"><a xlink:title=" ">
<path fill="none" stroke="#63b8ff" d="M169.78,-47.52C179.3,-38.18 190.94,-26.75 198.75,-19.09"/>
<polygon fill="#63b8ff" stroke="#63b8ff" points="167.1,-45.25 162.42,-54.75 172.01,-50.24 167.1,-45.25"/>
</a>
</g>
</g>
<!-- Node5 -->
<g id="Node000005" class="node">
<title>Node5</title>
<g id="a_Node000005"><a xlink:href="stdio__uart_8c.html" target="_top" xlink:title=" ">
<polygon fill="white" stroke="#666666" points="356.5,-19 282.5,-19 282.5,0 356.5,0 356.5,-19"/>
<text text-anchor="middle" x="319.5" y="-7" font-family="Helvetica,sans-Serif" font-size="10.00">stdio_uart.c</text>
</a>
</g>
</g>
<!-- Node1&#45;&gt;Node5 -->
<g id="edge4_Node000001_Node000005" class="edge">
<title>Node1&#45;&gt;Node5</title>
<g id="a_edge4_Node000001_Node000005"><a xlink:title=" ">
<path fill="none" stroke="#63b8ff" d="M189.75,-51.93C220.75,-42.03 264.67,-28.01 292.62,-19.08"/>
<polygon fill="#63b8ff" stroke="#63b8ff" points="188.63,-48.61 180.17,-54.98 190.76,-55.28 188.63,-48.61"/>
</a>
</g>
</g>
</g>
</svg>
