<?xml version="1.0" encoding="UTF-8" standalone="no"?>
<!DOCTYPE svg PUBLIC "-//W3C//DTD SVG 1.1//EN"
 "http://www.w3.org/Graphics/SVG/1.1/DTD/svg11.dtd">
<!-- Generated by graphviz version 2.43.0 (0)
 -->
<!-- Title: features.h Pages: 1 -->
<svg width="118pt" height="137pt"
 viewBox="0.00 0.00 117.50 137.00" xmlns="http://www.w3.org/2000/svg" xmlns:xlink="http://www.w3.org/1999/xlink">
<g id="graph0" class="graph" transform="scale(1 1) rotate(0) translate(4 133)">
<title>features.h</title>
<!-- Node1 -->
<g id="Node000001" class="node">
<title>Node1</title>
<g id="a_Node000001"><a xlink:title=" ">
<polygon fill="#999999" stroke="#666666" points="66,-129 0,-129 0,-110 66,-110 66,-129"/>
<text text-anchor="middle" x="33" y="-117" font-family="Helvetica,sans-Serif" font-size="10.00">features.h</text>
</a>
</g>
</g>
<!-- Node2 -->
<g id="Node000002" class="node">
<title>Node2</title>
<g id="a_Node000002"><a xlink:href="hazard3_8h.html" target="_top" xlink:title=" ">
<polygon fill="white" stroke="#666666" points="65.5,-19 0.5,-19 0.5,0 65.5,0 65.5,-19"/>
<text text-anchor="middle" x="33" y="-7" font-family="Helvetica,sans-Serif" font-size="10.00">hazard3.h</text>
</a>
</g>
</g>
<!-- Node1&#45;&gt;Node2 -->
<g id="edge1_Node000001_Node000002" class="edge">
<title>Node1&#45;&gt;Node2</title>
<g id="a_edge1_Node000001_Node000002"><a xlink:title=" ">
<path fill="none" stroke="#63b8ff" d="M24.94,-100.54C21.8,-92.58 18.57,-83 17,-74 13.52,-54.06 22.62,-31.15 28.48,-19.04"/>
<polygon fill="#63b8ff" stroke="#63b8ff" points="21.77,-102.03 28.89,-109.88 28.22,-99.31 21.77,-102.03"/>
</a>
</g>
</g>
<!-- Node3 -->
<g id="Node000003" class="node">
<title>Node3</title>
<g id="a_Node000003"><a xlink:href="instructions_8h.html" target="_top" xlink:title=" ">
<polygon fill="white" stroke="#666666" points="109.5,-74 26.5,-74 26.5,-55 109.5,-55 109.5,-74"/>
<text text-anchor="middle" x="68" y="-62" font-family="Helvetica,sans-Serif" font-size="10.00">instructions.h</text>
</a>
</g>
</g>
<!-- Node1&#45;&gt;Node3 -->
<g id="edge2_Node000001_Node000003" class="edge">
<title>Node1&#45;&gt;Node3</title>
<g id="a_edge2_Node000001_Node000003"><a xlink:title=" ">
<path fill="none" stroke="#63b8ff" d="M44.3,-101.39C50.32,-92.27 57.47,-81.45 62.33,-74.09"/>
<polygon fill="#63b8ff" stroke="#63b8ff" points="41.37,-99.47 38.78,-109.75 47.21,-103.33 41.37,-99.47"/>
</a>
</g>
</g>
<!-- Node3&#45;&gt;Node2 -->
<g id="edge3_Node000003_Node000002" class="edge">
<title>Node3&#45;&gt;Node2</title>
<g id="a_edge3_Node000003_Node000002"><a xlink:title=" ">
<path fill="none" stroke="#63b8ff" d="M56.7,-46.39C50.68,-37.27 43.53,-26.45 38.67,-19.09"/>
<polygon fill="#63b8ff" stroke="#63b8ff" points="53.79,-48.33 62.22,-54.75 59.63,-44.47 53.79,-48.33"/>
</a>
</g>
</g>
</g>
</svg>
