<?xml version="1.0" encoding="UTF-8" standalone="no"?>
<!DOCTYPE svg PUBLIC "-//W3C//DTD SVG 1.1//EN"
 "http://www.w3.org/Graphics/SVG/1.1/DTD/svg11.dtd">
<!-- Generated by graphviz version 2.43.0 (0)
 -->
<!-- Title: float_init_rom_rp2040.c Pages: 1 -->
<svg width="409pt" height="302pt"
 viewBox="0.00 0.00 409.00 302.00" xmlns="http://www.w3.org/2000/svg" xmlns:xlink="http://www.w3.org/1999/xlink">
<g id="graph0" class="graph" transform="scale(1 1) rotate(0) translate(4 298)">
<title>float_init_rom_rp2040.c</title>
<!-- Node1 -->
<g id="Node000001" class="node">
<title>Node1</title>
<g id="a_Node000001"><a xlink:title=" ">
<polygon fill="#999999" stroke="#666666" points="272,-294 140,-294 140,-275 272,-275 272,-294"/>
<text text-anchor="middle" x="206" y="-282" font-family="Helvetica,sans-Serif" font-size="10.00">float_init_rom_rp2040.c</text>
</a>
</g>
</g>
<!-- Node2 -->
<g id="Node000002" class="node">
<title>Node2</title>
<g id="a_Node000002"><a xlink:title=" ">
<polygon fill="#e0e0e0" stroke="#999999" points="109.5,-184 56.5,-184 56.5,-165 109.5,-165 109.5,-184"/>
<text text-anchor="middle" x="83" y="-172" font-family="Helvetica,sans-Serif" font-size="10.00">string.h</text>
</a>
</g>
</g>
<!-- Node1&#45;&gt;Node2 -->
<g id="edge1_Node000001_Node000002" class="edge">
<title>Node1&#45;&gt;Node2</title>
<g id="a_edge1_Node000001_Node000002"><a xlink:title=" ">
<path fill="none" stroke="#63b8ff" d="M195.1,-274.81C184.09,-265.96 166.66,-251.77 152,-239 133.73,-223.09 113.39,-204.22 99.56,-191.21"/>
<polygon fill="#63b8ff" stroke="#63b8ff" points="101.9,-188.61 92.23,-184.29 97.1,-193.7 101.9,-188.61"/>
</a>
</g>
</g>
<!-- Node3 -->
<g id="Node000003" class="node">
<title>Node3</title>
<g id="a_Node000003"><a xlink:href="bootrom_8h.html" target="_top" xlink:title=" ">
<polygon fill="white" stroke="#666666" points="251,-239 161,-239 161,-220 251,-220 251,-239"/>
<text text-anchor="middle" x="206" y="-227" font-family="Helvetica,sans-Serif" font-size="10.00">pico/bootrom.h</text>
</a>
</g>
</g>
<!-- Node1&#45;&gt;Node3 -->
<g id="edge2_Node000001_Node000003" class="edge">
<title>Node1&#45;&gt;Node3</title>
<g id="a_edge2_Node000001_Node000003"><a xlink:title=" ">
<path fill="none" stroke="#63b8ff" d="M206,-274.75C206,-267.8 206,-257.85 206,-249.13"/>
<polygon fill="#63b8ff" stroke="#63b8ff" points="209.5,-249.09 206,-239.09 202.5,-249.09 209.5,-249.09"/>
</a>
</g>
</g>
<!-- Node11 -->
<g id="Node000011" class="node">
<title>Node11</title>
<g id="a_Node000011"><a xlink:href="sf__table_8h.html" target="_top" xlink:title=" ">
<polygon fill="white" stroke="#666666" points="401,-239 269,-239 269,-220 401,-220 401,-239"/>
<text text-anchor="middle" x="335" y="-227" font-family="Helvetica,sans-Serif" font-size="10.00">pico/bootrom/sf_table.h</text>
</a>
</g>
</g>
<!-- Node1&#45;&gt;Node11 -->
<g id="edge14_Node000001_Node000011" class="edge">
<title>Node1&#45;&gt;Node11</title>
<g id="a_edge14_Node000001_Node000011"><a xlink:title=" ">
<path fill="none" stroke="#63b8ff" d="M226.73,-274.98C247.76,-266.34 280.55,-252.87 304.54,-243.02"/>
<polygon fill="#63b8ff" stroke="#63b8ff" points="305.98,-246.21 313.9,-239.17 303.32,-239.73 305.98,-246.21"/>
</a>
</g>
</g>
<!-- Node3&#45;&gt;Node2 -->
<g id="edge7_Node000003_Node000002" class="edge">
<title>Node3&#45;&gt;Node2</title>
<g id="a_edge7_Node000003_Node000002"><a xlink:title=" ">
<path fill="none" stroke="#63b8ff" d="M186.24,-219.98C166.27,-211.38 135.2,-197.99 112.35,-188.15"/>
<polygon fill="#63b8ff" stroke="#63b8ff" points="113.69,-184.91 103.12,-184.17 110.92,-191.34 113.69,-184.91"/>
</a>
</g>
</g>
<!-- Node4 -->
<g id="Node000004" class="node">
<title>Node4</title>
<g id="a_Node000004"><a xlink:title=" ">
<polygon fill="#e0e0e0" stroke="#999999" points="362,-74 316,-74 316,-55 362,-55 362,-74"/>
<text text-anchor="middle" x="339" y="-62" font-family="Helvetica,sans-Serif" font-size="10.00">pico.h</text>
</a>
</g>
</g>
<!-- Node3&#45;&gt;Node4 -->
<g id="edge3_Node000003_Node000004" class="edge">
<title>Node3&#45;&gt;Node4</title>
<g id="a_edge3_Node000003_Node000004"><a xlink:title=" ">
<path fill="none" stroke="#63b8ff" d="M246.65,-219.94C290.81,-208.13 358.58,-181.98 385,-129 393.97,-111.01 377.29,-92.65 361.56,-80.33"/>
<polygon fill="#63b8ff" stroke="#63b8ff" points="363.23,-77.21 353.09,-74.15 359.11,-82.87 363.23,-77.21"/>
</a>
</g>
</g>
<!-- Node5 -->
<g id="Node000005" class="node">
<title>Node5</title>
<g id="a_Node000005"><a xlink:href="pico__bootrom_2include_2pico_2bootrom__constants_8h.html" target="_top" xlink:title=" ">
<polygon fill="white" stroke="#666666" points="143.5,-129 0.5,-129 0.5,-110 143.5,-110 143.5,-129"/>
<text text-anchor="middle" x="72" y="-117" font-family="Helvetica,sans-Serif" font-size="10.00">pico/bootrom_constants.h</text>
</a>
</g>
</g>
<!-- Node3&#45;&gt;Node5 -->
<g id="edge4_Node000003_Node000005" class="edge">
<title>Node3&#45;&gt;Node5</title>
<g id="a_edge4_Node000003_Node000005"><a xlink:title=" ">
<path fill="none" stroke="#63b8ff" d="M195.03,-219.66C172.15,-201.22 119.08,-158.45 90.7,-135.57"/>
<polygon fill="#63b8ff" stroke="#63b8ff" points="92.73,-132.71 82.74,-129.16 88.33,-138.16 92.73,-132.71"/>
</a>
</g>
</g>
<!-- Node8 -->
<g id="Node000008" class="node">
<title>Node8</title>
<g id="a_Node000008"><a xlink:href="lock_8h.html" target="_top" xlink:title=" ">
<polygon fill="white" stroke="#666666" points="279.5,-184 166.5,-184 166.5,-165 279.5,-165 279.5,-184"/>
<text text-anchor="middle" x="223" y="-172" font-family="Helvetica,sans-Serif" font-size="10.00">pico/bootrom/lock.h</text>
</a>
</g>
</g>
<!-- Node3&#45;&gt;Node8 -->
<g id="edge8_Node000003_Node000008" class="edge">
<title>Node3&#45;&gt;Node8</title>
<g id="a_edge8_Node000003_Node000008"><a xlink:title=" ">
<path fill="none" stroke="#63b8ff" d="M208.81,-219.75C211.06,-212.72 214.3,-202.62 217.12,-193.84"/>
<polygon fill="#63b8ff" stroke="#63b8ff" points="220.52,-194.68 220.25,-184.09 213.86,-192.54 220.52,-194.68"/>
</a>
</g>
</g>
<!-- Node10 -->
<g id="Node000010" class="node">
<title>Node10</title>
<g id="a_Node000010"><a xlink:href="pico__flash_2include_2pico_2flash_8h.html" target="_top" xlink:title=" ">
<polygon fill="white" stroke="#666666" points="375.5,-129 302.5,-129 302.5,-110 375.5,-110 375.5,-129"/>
<text text-anchor="middle" x="339" y="-117" font-family="Helvetica,sans-Serif" font-size="10.00">pico/flash.h</text>
</a>
</g>
</g>
<!-- Node3&#45;&gt;Node10 -->
<g id="edge12_Node000003_Node000010" class="edge">
<title>Node3&#45;&gt;Node10</title>
<g id="a_edge12_Node000003_Node000010"><a xlink:title=" ">
<path fill="none" stroke="#63b8ff" d="M227.6,-219.88C245.28,-212.16 270.34,-199.66 289,-184 304.9,-170.67 319.11,-151.55 328.28,-137.78"/>
<polygon fill="#63b8ff" stroke="#63b8ff" points="331.31,-139.54 333.79,-129.24 325.43,-135.75 331.31,-139.54"/>
</a>
</g>
</g>
<!-- Node6 -->
<g id="Node000006" class="node">
<title>Node6</title>
<g id="a_Node000006"><a xlink:href="boot__bootrom__headers_2include_2boot_2bootrom__constants_8h.html" target="_top" xlink:title=" ">
<polygon fill="white" stroke="#666666" points="144,-74 0,-74 0,-55 144,-55 144,-74"/>
<text text-anchor="middle" x="72" y="-62" font-family="Helvetica,sans-Serif" font-size="10.00">boot/bootrom_constants.h</text>
</a>
</g>
</g>
<!-- Node5&#45;&gt;Node6 -->
<g id="edge5_Node000005_Node000006" class="edge">
<title>Node5&#45;&gt;Node6</title>
<g id="a_edge5_Node000005_Node000006"><a xlink:title=" ">
<path fill="none" stroke="#63b8ff" d="M72,-109.75C72,-102.8 72,-92.85 72,-84.13"/>
<polygon fill="#63b8ff" stroke="#63b8ff" points="75.5,-84.09 72,-74.09 68.5,-84.09 75.5,-84.09"/>
</a>
</g>
</g>
<!-- Node7 -->
<g id="Node000007" class="node">
<title>Node7</title>
<g id="a_Node000007"><a xlink:title=" ">
<polygon fill="#e0e0e0" stroke="#999999" points="117.5,-19 26.5,-19 26.5,0 117.5,0 117.5,-19"/>
<text text-anchor="middle" x="72" y="-7" font-family="Helvetica,sans-Serif" font-size="10.00">pico/platform.h</text>
</a>
</g>
</g>
<!-- Node6&#45;&gt;Node7 -->
<g id="edge6_Node000006_Node000007" class="edge">
<title>Node6&#45;&gt;Node7</title>
<g id="a_edge6_Node000006_Node000007"><a xlink:title=" ">
<path fill="none" stroke="#63b8ff" d="M72,-54.75C72,-47.8 72,-37.85 72,-29.13"/>
<polygon fill="#63b8ff" stroke="#63b8ff" points="75.5,-29.09 72,-19.09 68.5,-29.09 75.5,-29.09"/>
</a>
</g>
</g>
<!-- Node8&#45;&gt;Node5 -->
<g id="edge11_Node000008_Node000005" class="edge">
<title>Node8&#45;&gt;Node5</title>
<g id="a_edge11_Node000008_Node000005"><a xlink:title=" ">
<path fill="none" stroke="#63b8ff" d="M198.74,-164.98C173.68,-156.19 134.37,-142.39 106.17,-132.49"/>
<polygon fill="#63b8ff" stroke="#63b8ff" points="107.3,-129.18 96.7,-129.17 104.98,-135.78 107.3,-129.18"/>
</a>
</g>
</g>
<!-- Node9 -->
<g id="Node000009" class="node">
<title>Node9</title>
<g id="a_Node000009"><a xlink:href="boot__lock_8h.html" target="_top" xlink:title=" ">
<polygon fill="white" stroke="#666666" points="284,-129 162,-129 162,-110 284,-110 284,-129"/>
<text text-anchor="middle" x="223" y="-117" font-family="Helvetica,sans-Serif" font-size="10.00">hardware/boot_lock.h</text>
</a>
</g>
</g>
<!-- Node8&#45;&gt;Node9 -->
<g id="edge9_Node000008_Node000009" class="edge">
<title>Node8&#45;&gt;Node9</title>
<g id="a_edge9_Node000008_Node000009"><a xlink:title=" ">
<path fill="none" stroke="#63b8ff" d="M223,-164.75C223,-157.8 223,-147.85 223,-139.13"/>
<polygon fill="#63b8ff" stroke="#63b8ff" points="226.5,-139.09 223,-129.09 219.5,-139.09 226.5,-139.09"/>
</a>
</g>
</g>
<!-- Node9&#45;&gt;Node4 -->
<g id="edge10_Node000009_Node000004" class="edge">
<title>Node9&#45;&gt;Node4</title>
<g id="a_edge10_Node000009_Node000004"><a xlink:title=" ">
<path fill="none" stroke="#63b8ff" d="M241.64,-109.98C260.3,-101.46 289.25,-88.23 310.74,-78.41"/>
<polygon fill="#63b8ff" stroke="#63b8ff" points="312.38,-81.51 320.02,-74.17 309.47,-75.14 312.38,-81.51"/>
</a>
</g>
</g>
<!-- Node10&#45;&gt;Node4 -->
<g id="edge13_Node000010_Node000004" class="edge">
<title>Node10&#45;&gt;Node4</title>
<g id="a_edge13_Node000010_Node000004"><a xlink:title=" ">
<path fill="none" stroke="#63b8ff" d="M339,-109.75C339,-102.8 339,-92.85 339,-84.13"/>
<polygon fill="#63b8ff" stroke="#63b8ff" points="342.5,-84.09 339,-74.09 335.5,-84.09 342.5,-84.09"/>
</a>
</g>
</g>
</g>
</svg>
