<?xml version="1.0" encoding="UTF-8" standalone="no"?>
<!DOCTYPE svg PUBLIC "-//W3C//DTD SVG 1.1//EN"
 "http://www.w3.org/Graphics/SVG/1.1/DTD/svg11.dtd">
<!-- Generated by graphviz version 2.43.0 (0)
 -->
<!-- Title: float.h Pages: 1 -->
<svg width="274pt" height="83pt"
 viewBox="0.00 0.00 273.50 83.05" xmlns="http://www.w3.org/2000/svg" xmlns:xlink="http://www.w3.org/1999/xlink">
<g id="graph0" class="graph" transform="scale(1 1) rotate(0) translate(4 79.05)">
<title>float.h</title>
<!-- Node1 -->
<g id="Node000001" class="node">
<title>Node1</title>
<g id="a_Node000001"><a xlink:title=" ">
<polygon fill="#999999" stroke="#666666" points="116.5,-74 68.5,-74 68.5,-55 116.5,-55 116.5,-74"/>
<text text-anchor="middle" x="92.5" y="-62" font-family="Helvetica,sans-Serif" font-size="10.00">float.h</text>
</a>
</g>
</g>
<!-- Node1&#45;&gt;Node1 -->
<g id="edge2_Node000001_Node000001" class="edge">
<title>Node1&#45;&gt;Node1</title>
<g id="a_edge2_Node000001_Node000001"><a xlink:title=" ">
<path fill="none" stroke="#63b8ff" d="M112.38,-74.07C123.83,-76.02 134.5,-72.83 134.5,-64.5 134.5,-58.77 129.46,-55.47 122.58,-54.61"/>
<polygon fill="#63b8ff" stroke="#63b8ff" points="122.26,-51.12 112.38,-54.93 122.48,-58.11 122.26,-51.12"/>
</a>
</g>
</g>
<!-- Node2 -->
<g id="Node000002" class="node">
<title>Node2</title>
<g id="a_Node000002"><a xlink:title=" ">
<polygon fill="#e0e0e0" stroke="#999999" points="51,-19 0,-19 0,0 51,0 51,-19"/>
<text text-anchor="middle" x="25.5" y="-7" font-family="Helvetica,sans-Serif" font-size="10.00">math.h</text>
</a>
</g>
</g>
<!-- Node1&#45;&gt;Node2 -->
<g id="edge1_Node000001_Node000002" class="edge">
<title>Node1&#45;&gt;Node2</title>
<g id="a_edge1_Node000001_Node000002"><a xlink:title=" ">
<path fill="none" stroke="#63b8ff" d="M81.74,-54.98C71.73,-47.07 56.61,-35.11 44.57,-25.58"/>
<polygon fill="#63b8ff" stroke="#63b8ff" points="46.47,-22.63 36.46,-19.17 42.13,-28.12 46.47,-22.63"/>
</a>
</g>
</g>
<!-- Node3 -->
<g id="Node000003" class="node">
<title>Node3</title>
<g id="a_Node000003"><a xlink:title=" ">
<polygon fill="#e0e0e0" stroke="#999999" points="115.5,-19 69.5,-19 69.5,0 115.5,0 115.5,-19"/>
<text text-anchor="middle" x="92.5" y="-7" font-family="Helvetica,sans-Serif" font-size="10.00">pico.h</text>
</a>
</g>
</g>
<!-- Node1&#45;&gt;Node3 -->
<g id="edge3_Node000001_Node000003" class="edge">
<title>Node1&#45;&gt;Node3</title>
<g id="a_edge3_Node000001_Node000003"><a xlink:title=" ">
<path fill="none" stroke="#63b8ff" d="M92.5,-54.75C92.5,-47.8 92.5,-37.85 92.5,-29.13"/>
<polygon fill="#63b8ff" stroke="#63b8ff" points="96,-29.09 92.5,-19.09 89,-29.09 96,-29.09"/>
</a>
</g>
</g>
<!-- Node4 -->
<g id="Node000004" class="node">
<title>Node4</title>
<g id="a_Node000004"><a xlink:href="sf__table_8h.html" target="_top" xlink:title=" ">
<polygon fill="white" stroke="#666666" points="265.5,-19 133.5,-19 133.5,0 265.5,0 265.5,-19"/>
<text text-anchor="middle" x="199.5" y="-7" font-family="Helvetica,sans-Serif" font-size="10.00">pico/bootrom/sf_table.h</text>
</a>
</g>
</g>
<!-- Node1&#45;&gt;Node4 -->
<g id="edge4_Node000001_Node000004" class="edge">
<title>Node1&#45;&gt;Node4</title>
<g id="a_edge4_Node000001_Node000004"><a xlink:title=" ">
<path fill="none" stroke="#63b8ff" d="M109.69,-54.98C126.75,-46.54 153.13,-33.47 172.9,-23.68"/>
<polygon fill="#63b8ff" stroke="#63b8ff" points="174.59,-26.75 182,-19.17 171.48,-20.47 174.59,-26.75"/>
</a>
</g>
</g>
</g>
</svg>
