<?xml version="1.0" encoding="UTF-8" standalone="no"?>
<!DOCTYPE svg PUBLIC "-//W3C//DTD SVG 1.1//EN"
 "http://www.w3.org/Graphics/SVG/1.1/DTD/svg11.dtd">
<!-- Generated by graphviz version 2.43.0 (0)
 -->
<!-- Title: float.h Pages: 1 -->
<svg width="400pt" height="95pt"
 viewBox="0.00 0.00 400.00 94.86" xmlns="http://www.w3.org/2000/svg" xmlns:xlink="http://www.w3.org/1999/xlink">
<g id="graph0" class="graph" transform="scale(1 1) rotate(0) translate(4 90.86)">
<title>float.h</title>
<!-- Node1 -->
<g id="Node000001" class="node">
<title>Node1</title>
<g id="a_Node000001"><a xlink:title=" ">
<polygon fill="#999999" stroke="#666666" points="246,-85 198,-85 198,-66 246,-66 246,-85"/>
<text text-anchor="middle" x="222" y="-73" font-family="Helvetica,sans-Serif" font-size="10.00">float.h</text>
</a>
</g>
</g>
<!-- Node1&#45;&gt;Node1 -->
<g id="edge2_Node000001_Node000001" class="edge">
<title>Node1&#45;&gt;Node1</title>
<g id="a_edge2_Node000001_Node000001"><a xlink:title=" ">
<path fill="none" stroke="#63b8ff" d="M247.4,-86.74C256.54,-86.99 264,-83.24 264,-75.5 264,-65.07 250.46,-61.89 237.51,-65.97"/>
<polygon fill="#63b8ff" stroke="#63b8ff" points="247.96,-83.28 237.51,-85.03 246.77,-90.18 247.96,-83.28"/>
</a>
</g>
</g>
<!-- Node2 -->
<g id="Node000002" class="node">
<title>Node2</title>
<g id="a_Node000002"><a xlink:href="custom__float__funcs__test_8c.html" target="_top" xlink:title=" ">
<polygon fill="white" stroke="#666666" points="112,-30 0,-30 0,0 112,0 112,-30"/>
<text text-anchor="start" x="8" y="-18" font-family="Helvetica,sans-Serif" font-size="10.00">custom_float_funcs</text>
<text text-anchor="middle" x="56" y="-7" font-family="Helvetica,sans-Serif" font-size="10.00">_test.c</text>
</a>
</g>
</g>
<!-- Node1&#45;&gt;Node2 -->
<g id="edge1_Node000001_Node000002" class="edge">
<title>Node1&#45;&gt;Node2</title>
<g id="a_edge1_Node000001_Node000002"><a xlink:title=" ">
<path fill="none" stroke="#63b8ff" d="M188.18,-62.58C161.46,-53.16 124.1,-40 95.91,-30.06"/>
<polygon fill="#63b8ff" stroke="#63b8ff" points="187.27,-65.97 197.86,-65.99 189.59,-59.37 187.27,-65.97"/>
</a>
</g>
</g>
<!-- Node3 -->
<g id="Node000003" class="node">
<title>Node3</title>
<g id="a_Node000003"><a xlink:href="float__math_8c.html" target="_top" xlink:title=" ">
<polygon fill="white" stroke="#666666" points="208,-24.5 130,-24.5 130,-5.5 208,-5.5 208,-24.5"/>
<text text-anchor="middle" x="169" y="-12.5" font-family="Helvetica,sans-Serif" font-size="10.00">float_math.c</text>
</a>
</g>
</g>
<!-- Node1&#45;&gt;Node3 -->
<g id="edge3_Node000001_Node000003" class="edge">
<title>Node1&#45;&gt;Node3</title>
<g id="a_edge3_Node000001_Node000003"><a xlink:title=" ">
<path fill="none" stroke="#63b8ff" d="M207.3,-58.27C197.44,-47.39 184.85,-33.49 176.85,-24.67"/>
<polygon fill="#63b8ff" stroke="#63b8ff" points="204.87,-60.81 214.18,-65.87 210.06,-56.11 204.87,-60.81"/>
</a>
</g>
</g>
<!-- Node4 -->
<g id="Node000004" class="node">
<title>Node4</title>
<g id="a_Node000004"><a xlink:href="pico__float__test_8c.html" target="_top" xlink:title=" ">
<polygon fill="white" stroke="#666666" points="323.5,-24.5 226.5,-24.5 226.5,-5.5 323.5,-5.5 323.5,-24.5"/>
<text text-anchor="middle" x="275" y="-12.5" font-family="Helvetica,sans-Serif" font-size="10.00">pico_float_test.c</text>
</a>
</g>
</g>
<!-- Node1&#45;&gt;Node4 -->
<g id="edge4_Node000001_Node000004" class="edge">
<title>Node1&#45;&gt;Node4</title>
<g id="a_edge4_Node000001_Node000004"><a xlink:title=" ">
<path fill="none" stroke="#63b8ff" d="M236.7,-58.27C246.56,-47.39 259.15,-33.49 267.15,-24.67"/>
<polygon fill="#63b8ff" stroke="#63b8ff" points="233.94,-56.11 229.82,-65.87 239.13,-60.81 233.94,-56.11"/>
</a>
</g>
</g>
<!-- Node5 -->
<g id="Node000005" class="node">
<title>Node5</title>
<g id="a_Node000005"><a xlink:href="printf_8c.html" target="_top" xlink:title=" ">
<polygon fill="white" stroke="#666666" points="392,-24.5 342,-24.5 342,-5.5 392,-5.5 392,-24.5"/>
<text text-anchor="middle" x="367" y="-12.5" font-family="Helvetica,sans-Serif" font-size="10.00">printf.c</text>
</a>
</g>
</g>
<!-- Node1&#45;&gt;Node5 -->
<g id="edge5_Node000001_Node000005" class="edge">
<title>Node1&#45;&gt;Node5</title>
<g id="a_edge5_Node000001_Node000005"><a xlink:title=" ">
<path fill="none" stroke="#63b8ff" d="M253.01,-62.16C275.29,-53.27 306.02,-40.96 333,-30 337.26,-28.27 341.81,-26.41 346.15,-24.62"/>
<polygon fill="#63b8ff" stroke="#63b8ff" points="251.71,-58.91 243.72,-65.86 254.3,-65.41 251.71,-58.91"/>
</a>
</g>
</g>
</g>
</svg>
