<?xml version="1.0" encoding="UTF-8" standalone="no"?>
<!DOCTYPE svg PUBLIC "-//W3C//DTD SVG 1.1//EN"
 "http://www.w3.org/Graphics/SVG/1.1/DTD/svg11.dtd">
<!-- Generated by graphviz version 2.43.0 (0)
 -->
<!-- Title: Nested Vectored Interrupt Controller (NVIC) Pages: 1 -->
<svg width="452pt" height="38pt"
 viewBox="0.00 0.00 452.00 38.00" xmlns="http://www.w3.org/2000/svg" xmlns:xlink="http://www.w3.org/1999/xlink">
<g id="graph0" class="graph" transform="scale(1 1) rotate(0) translate(4 34)">
<title>Nested Vectored Interrupt Controller (NVIC)</title>
<!-- Node2 -->
<g id="Node000002" class="node">
<title>Node2</title>
<g id="a_Node000002"><a xlink:href="group__CMSIS__CORE.html" target="_top" xlink:title="Core Register type definitions.">
<polygon fill="white" stroke="#666666" points="107,-30 0,-30 0,0 107,0 107,-30"/>
<text text-anchor="start" x="8" y="-18" font-family="Helvetica,sans-Serif" font-size="10.00">Status and Control</text>
<text text-anchor="middle" x="53.5" y="-7" font-family="Helvetica,sans-Serif" font-size="10.00"> Registers</text>
</a>
</g>
</g>
<!-- Node1 -->
<g id="Node000001" class="node">
<title>Node1</title>
<g id="a_Node000001"><a xlink:title="Type definitions for the NVIC Registers.">
<polygon fill="#999999" stroke="#666666" points="286,-30 143,-30 143,0 286,0 286,-30"/>
<text text-anchor="start" x="151" y="-18" font-family="Helvetica,sans-Serif" font-size="10.00">Nested Vectored Interrupt</text>
<text text-anchor="middle" x="214.5" y="-7" font-family="Helvetica,sans-Serif" font-size="10.00"> Controller (NVIC)</text>
</a>
</g>
</g>
<!-- Node2&#45;&gt;Node1 -->
<g id="edge1" class="edge">
<title>Node2&#45;&gt;Node1</title>
<path fill="none" stroke="black" d="M117.15,-15C125.6,-15 134.32,-15 142.9,-15"/>
<polygon fill="black" stroke="black" points="117,-11.5 107,-15 117,-18.5 117,-11.5"/>
</g>
<!-- Node3 -->
<g id="Node000003" class="node">
<title>Node3</title>
<g id="a_Node000003"><a xlink:href="group__CMSIS__SCB.html" target="_top" xlink:title="Type definitions for the System Control Block Registers.">
<polygon fill="white" stroke="#666666" points="444,-30 322,-30 322,0 444,0 444,-30"/>
<text text-anchor="start" x="330" y="-18" font-family="Helvetica,sans-Serif" font-size="10.00">System Control Block</text>
<text text-anchor="middle" x="383" y="-7" font-family="Helvetica,sans-Serif" font-size="10.00"> (SCB)</text>
</a>
</g>
</g>
<!-- Node1&#45;&gt;Node3 -->
<g id="edge2" class="edge">
<title>Node1&#45;&gt;Node3</title>
<path fill="none" stroke="black" d="M296.19,-15C304.81,-15 313.47,-15 321.8,-15"/>
<polygon fill="black" stroke="black" points="296.11,-11.5 286.11,-15 296.11,-18.5 296.11,-11.5"/>
</g>
</g>
</svg>
