<?xml version="1.0" encoding="UTF-8" standalone="no"?>
<!DOCTYPE svg PUBLIC "-//W3C//DTD SVG 1.1//EN"
 "http://www.w3.org/Graphics/SVG/1.1/DTD/svg11.dtd">
<!-- Generated by graphviz version 2.43.0 (0)
 -->
<!-- Title: Device_Peripheral_peripheralAddr Pages: 1 -->
<svg width="279pt" height="64pt"
 viewBox="0.00 0.00 279.00 64.00" xmlns="http://www.w3.org/2000/svg" xmlns:xlink="http://www.w3.org/1999/xlink">
<g id="graph0" class="graph" transform="scale(1 1) rotate(0) translate(4 60)">
<title>Device_Peripheral_peripheralAddr</title>
<!-- Node1 -->
<g id="Node000001" class="node">
<title>Node1</title>
<g id="a_Node000001"><a xlink:title=" ">
<polygon fill="#999999" stroke="#666666" points="271,-37 89,-37 89,-18 271,-18 271,-37"/>
<text text-anchor="middle" x="180" y="-25" font-family="Helvetica,sans-Serif" font-size="10.00">Device_Peripheral_peripheralAddr</text>
</a>
</g>
</g>
<!-- Node2 -->
<g id="Node000002" class="node">
<title>Node2</title>
<g id="a_Node000002"><a xlink:href="group__RP2040.html" target="_top" xlink:title=" ">
<polygon fill="white" stroke="#666666" points="53,-56 0,-56 0,-37 53,-37 53,-56"/>
<text text-anchor="middle" x="26.5" y="-44" font-family="Helvetica,sans-Serif" font-size="10.00">RP2040</text>
</a>
</g>
</g>
<!-- Node2&#45;&gt;Node1 -->
<g id="edge1" class="edge">
<title>Node2&#45;&gt;Node1</title>
<path fill="none" stroke="black" d="M63.25,-42.02C75.29,-40.51 89.23,-38.76 103.17,-37.01"/>
<polygon fill="black" stroke="black" points="62.69,-38.56 53.2,-43.28 63.56,-45.51 62.69,-38.56"/>
</g>
<!-- Node3 -->
<g id="Node000003" class="node">
<title>Node3</title>
<g id="a_Node000003"><a xlink:href="group__RP2350.html" target="_top" xlink:title=" ">
<polygon fill="white" stroke="#666666" points="53,-19 0,-19 0,0 53,0 53,-19"/>
<text text-anchor="middle" x="26.5" y="-7" font-family="Helvetica,sans-Serif" font-size="10.00">RP2350</text>
</a>
</g>
</g>
<!-- Node3&#45;&gt;Node1 -->
<g id="edge2" class="edge">
<title>Node3&#45;&gt;Node1</title>
<path fill="none" stroke="black" d="M63.42,-13.77C74.2,-15.05 86.48,-16.51 98.91,-17.98"/>
<polygon fill="black" stroke="black" points="63.54,-10.26 53.2,-12.55 62.72,-17.21 63.54,-10.26"/>
</g>
</g>
</svg>
