<?xml version="1.0" encoding="UTF-8" standalone="no"?>
<!DOCTYPE svg PUBLIC "-//W3C//DTD SVG 1.1//EN"
 "http://www.w3.org/Graphics/SVG/1.1/DTD/svg11.dtd">
<!-- Generated by graphviz version 2.43.0 (0)
 -->
<!-- Title: NVIC Functions Pages: 1 -->
<svg width="400pt" height="86pt"
 viewBox="0.00 0.00 400.00 86.00" xmlns="http://www.w3.org/2000/svg" xmlns:xlink="http://www.w3.org/1999/xlink">
<g id="graph0" class="graph" transform="scale(1 1) rotate(0) translate(4 82)">
<title>NVIC Functions</title>
<!-- Node4 -->
<g id="Node000004" class="node">
<title>Node4</title>
<g id="a_Node000004"><a xlink:href="group__CMSIS__Core__FpuFunctions.html" target="_top" xlink:title="Function that provides FPU type.">
<polygon fill="white" stroke="#666666" points="392,-48.5 306,-48.5 306,-29.5 392,-29.5 392,-48.5"/>
<text text-anchor="middle" x="349" y="-36.5" font-family="Helvetica,sans-Serif" font-size="10.00">FPU Functions</text>
</a>
</g>
</g>
<!-- Node3 -->
<g id="Node000003" class="node">
<title>Node3</title>
<g id="a_Node000003"><a xlink:href="group__CMSIS__Core__FunctionInterface.html" target="_top" xlink:title=" ">
<polygon fill="white" stroke="#666666" points="144,-78 0,-78 0,-48 144,-48 144,-78"/>
<text text-anchor="start" x="8" y="-66" font-family="Helvetica,sans-Serif" font-size="10.00">Functions and Instructions</text>
<text text-anchor="middle" x="72" y="-55" font-family="Helvetica,sans-Serif" font-size="10.00"> Reference</text>
</a>
</g>
</g>
<!-- Node1 -->
<g id="Node000001" class="node">
<title>Node1</title>
<g id="a_Node000001"><a xlink:title="Functions that manage interrupts and exceptions via the NVIC.">
<polygon fill="#999999" stroke="#666666" points="270,-48.5 180,-48.5 180,-29.5 270,-29.5 270,-48.5"/>
<text text-anchor="middle" x="225" y="-36.5" font-family="Helvetica,sans-Serif" font-size="10.00">NVIC Functions</text>
</a>
</g>
</g>
<!-- Node3&#45;&gt;Node1 -->
<g id="edge2" class="edge">
<title>Node3&#45;&gt;Node1</title>
<path fill="none" stroke="black" d="M154.13,-50.11C163.01,-48.69 171.79,-47.3 179.97,-46"/>
<polygon fill="black" stroke="black" points="153.41,-46.68 144.08,-51.7 154.5,-53.59 153.41,-46.68"/>
</g>
<!-- Node1&#45;&gt;Node4 -->
<g id="edge3" class="edge">
<title>Node1&#45;&gt;Node4</title>
<path fill="none" stroke="black" d="M280.28,-39C288.79,-39 297.47,-39 305.65,-39"/>
<polygon fill="black" stroke="black" points="280.04,-35.5 270.04,-39 280.04,-42.5 280.04,-35.5"/>
</g>
<!-- Node2 -->
<g id="Node000002" class="node">
<title>Node2</title>
<g id="a_Node000002"><a xlink:href="group__CMSIS__deprecated__aliases.html" target="_top" xlink:title="Alias definitions present for backwards compatibility for deprecated symbols.">
<polygon fill="white" stroke="#666666" points="141.5,-30 2.5,-30 2.5,0 141.5,0 141.5,-30"/>
<text text-anchor="start" x="10.5" y="-18" font-family="Helvetica,sans-Serif" font-size="10.00">Backwards Compatibility</text>
<text text-anchor="middle" x="72" y="-7" font-family="Helvetica,sans-Serif" font-size="10.00"> Aliases</text>
</a>
</g>
</g>
<!-- Node2&#45;&gt;Node1 -->
<g id="edge1" class="edge">
<title>Node2&#45;&gt;Node1</title>
<path fill="none" stroke="black" d="M151.88,-27.54C161.49,-29.06 171.03,-30.58 179.86,-31.98"/>
<polygon fill="black" stroke="black" points="152.3,-24.06 141.87,-25.95 151.2,-30.97 152.3,-24.06"/>
</g>
</g>
</svg>
