<?xml version="1.0" encoding="UTF-8" standalone="no"?>
<!DOCTYPE svg PUBLIC "-//W3C//DTD SVG 1.1//EN"
 "http://www.w3.org/Graphics/SVG/1.1/DTD/svg11.dtd">
<!-- Generated by graphviz version 2.43.0 (0)
 -->
<!-- Title: pico_async_context Pages: 1 -->
<svg width="302pt" height="113pt"
 viewBox="0.00 0.00 302.00 112.50" xmlns="http://www.w3.org/2000/svg" xmlns:xlink="http://www.w3.org/1999/xlink">
<g id="graph0" class="graph" transform="scale(1 1) rotate(0) translate(4 108.5)">
<title>pico_async_context</title>
<!-- Node2 -->
<g id="Node000002" class="node">
<title>Node2</title>
<g id="a_Node000002"><a xlink:href="group__async__context__freertos.html" target="_top" xlink:title="async_context_freertos provides an implementation of async_context that handles asynchronous work in ...">
<polygon fill="white" stroke="#666666" points="287,-104.5 156,-104.5 156,-85.5 287,-85.5 287,-104.5"/>
<text text-anchor="middle" x="221.5" y="-92.5" font-family="Helvetica,sans-Serif" font-size="10.00">async_context_freertos</text>
</a>
</g>
</g>
<!-- Node3 -->
<g id="Node000003" class="node">
<title>Node3</title>
<g id="a_Node000003"><a xlink:href="group__async__context__poll.html" target="_top" xlink:title="async_context_poll provides an implementation of async_context that is intended for use with a simple...">
<polygon fill="white" stroke="#666666" points="276.5,-67.5 166.5,-67.5 166.5,-48.5 276.5,-48.5 276.5,-67.5"/>
<text text-anchor="middle" x="221.5" y="-55.5" font-family="Helvetica,sans-Serif" font-size="10.00">async_context_poll</text>
</a>
</g>
</g>
<!-- Node4 -->
<g id="Node000004" class="node">
<title>Node4</title>
<g id="a_Node000004"><a xlink:href="group__async__context__threadsafe__background.html" target="_top" xlink:title="async_context_threadsafe_background provides an implementation of async_context that handles asynchro...">
<polygon fill="white" stroke="#666666" points="294,-30 149,-30 149,0 294,0 294,-30"/>
<text text-anchor="start" x="157" y="-18" font-family="Helvetica,sans-Serif" font-size="10.00">async_context_threadsafe</text>
<text text-anchor="middle" x="221.5" y="-7" font-family="Helvetica,sans-Serif" font-size="10.00">_background</text>
</a>
</g>
</g>
<!-- Node1 -->
<g id="Node000001" class="node">
<title>Node1</title>
<g id="a_Node000001"><a xlink:title="An async_context provides a logically single&#45;threaded context for performing work,...">
<polygon fill="#999999" stroke="#666666" points="113,-67.5 0,-67.5 0,-48.5 113,-48.5 113,-67.5"/>
<text text-anchor="middle" x="56.5" y="-55.5" font-family="Helvetica,sans-Serif" font-size="10.00">pico_async_context</text>
</a>
</g>
</g>
<!-- Node1&#45;&gt;Node2 -->
<g id="edge1" class="edge">
<title>Node1&#45;&gt;Node2</title>
<path fill="none" stroke="black" d="M109.43,-69.79C131.69,-74.84 157.34,-80.66 178.38,-85.44"/>
<polygon fill="black" stroke="black" points="110,-66.33 99.48,-67.53 108.45,-73.16 110,-66.33"/>
</g>
<!-- Node1&#45;&gt;Node3 -->
<g id="edge2" class="edge">
<title>Node1&#45;&gt;Node3</title>
<path fill="none" stroke="black" d="M123.42,-58C137.73,-58 152.7,-58 166.49,-58"/>
<polygon fill="black" stroke="black" points="123.14,-54.5 113.14,-58 123.14,-61.5 123.14,-54.5"/>
</g>
<!-- Node1&#45;&gt;Node4 -->
<g id="edge3" class="edge">
<title>Node1&#45;&gt;Node4</title>
<path fill="none" stroke="black" d="M103.42,-45.88C122.12,-40.95 143.93,-35.2 163.62,-30.01"/>
<polygon fill="black" stroke="black" points="102.45,-42.52 93.67,-48.46 104.24,-49.29 102.45,-42.52"/>
</g>
</g>
</svg>
