<?xml version="1.0" encoding="UTF-8" standalone="no"?>
<!DOCTYPE svg PUBLIC "-//W3C//DTD SVG 1.1//EN"
 "http://www.w3.org/Graphics/SVG/1.1/DTD/svg11.dtd">
<!-- Generated by graphviz version 2.43.0 (0)
 -->
<!-- Title: Functions and Instructions Reference Pages: 1 -->
<svg width="479pt" height="150pt"
 viewBox="0.00 0.00 479.00 149.50" xmlns="http://www.w3.org/2000/svg" xmlns:xlink="http://www.w3.org/1999/xlink">
<g id="graph0" class="graph" transform="scale(1 1) rotate(0) translate(4 145.5)">
<title>Functions and Instructions Reference</title>
<!-- Node5 -->
<g id="Node000005" class="node">
<title>Node5</title>
<g id="a_Node000005"><a xlink:href="group__CMSIS__Core__CacheFunctions.html" target="_top" xlink:title="Functions that configure Instruction and Data cache.">
<polygon fill="white" stroke="#666666" points="461,-141.5 365,-141.5 365,-122.5 461,-122.5 461,-141.5"/>
<text text-anchor="middle" x="413" y="-129.5" font-family="Helvetica,sans-Serif" font-size="10.00">Cache Functions</text>
</a>
</g>
</g>
<!-- Node1 -->
<g id="Node000001" class="node">
<title>Node1</title>
<g id="a_Node000001"><a xlink:title=" ">
<polygon fill="#999999" stroke="#666666" points="319,-91 175,-91 175,-61 319,-61 319,-91"/>
<text text-anchor="start" x="183" y="-79" font-family="Helvetica,sans-Serif" font-size="10.00">Functions and Instructions</text>
<text text-anchor="middle" x="247" y="-68" font-family="Helvetica,sans-Serif" font-size="10.00"> Reference</text>
</a>
</g>
</g>
<!-- Node1&#45;&gt;Node5 -->
<g id="edge4" class="edge">
<title>Node1&#45;&gt;Node5</title>
<path fill="none" stroke="black" d="M298.87,-94.48C316.59,-100.81 336.63,-107.84 355,-114 363.46,-116.84 372.67,-119.8 381.17,-122.48"/>
<polygon fill="black" stroke="black" points="299.89,-91.13 289.29,-91.05 297.53,-97.72 299.89,-91.13"/>
</g>
<!-- Node4 -->
<g id="Node000004" class="node">
<title>Node4</title>
<g id="a_Node000004"><a xlink:href="group__CMSIS__Core__NVICFunctions.html" target="_top" xlink:title="Functions that manage interrupts and exceptions via the NVIC.">
<polygon fill="white" stroke="#666666" points="458,-104.5 368,-104.5 368,-85.5 458,-85.5 458,-104.5"/>
<text text-anchor="middle" x="413" y="-92.5" font-family="Helvetica,sans-Serif" font-size="10.00">NVIC Functions</text>
</a>
</g>
</g>
<!-- Node1&#45;&gt;Node4 -->
<g id="edge3" class="edge">
<title>Node1&#45;&gt;Node4</title>
<path fill="none" stroke="black" d="M329.5,-85.44C342.66,-86.97 355.85,-88.49 367.69,-89.87"/>
<polygon fill="black" stroke="black" points="329.79,-81.95 319.46,-84.28 328.99,-88.91 329.79,-81.95"/>
</g>
<!-- Node6 -->
<g id="Node000006" class="node">
<title>Node6</title>
<g id="a_Node000006"><a xlink:href="group__CMSIS__Core__PacKeyFunctions.html" target="_top" xlink:title="Functions that access the PAC keys.">
<polygon fill="white" stroke="#666666" points="465.5,-67.5 360.5,-67.5 360.5,-48.5 465.5,-48.5 465.5,-67.5"/>
<text text-anchor="middle" x="413" y="-55.5" font-family="Helvetica,sans-Serif" font-size="10.00">PAC Key functions</text>
</a>
</g>
</g>
<!-- Node1&#45;&gt;Node6 -->
<g id="edge5" class="edge">
<title>Node1&#45;&gt;Node6</title>
<path fill="none" stroke="black" d="M329.41,-67.06C339.82,-65.92 350.25,-64.78 360.01,-63.71"/>
<polygon fill="black" stroke="black" points="329.01,-63.59 319.46,-68.16 329.78,-70.55 329.01,-63.59"/>
</g>
<!-- Node3 -->
<g id="Node000003" class="node">
<title>Node3</title>
<g id="a_Node000003"><a xlink:href="group__CMSIS__Core__RegAccFunctions.html" target="_top" xlink:title=" ">
<polygon fill="white" stroke="#666666" points="471,-30 355,-30 355,0 471,0 471,-30"/>
<text text-anchor="start" x="363" y="-18" font-family="Helvetica,sans-Serif" font-size="10.00">CMSIS Core Register</text>
<text text-anchor="middle" x="413" y="-7" font-family="Helvetica,sans-Serif" font-size="10.00"> Access Functions</text>
</a>
</g>
</g>
<!-- Node1&#45;&gt;Node3 -->
<g id="edge2" class="edge">
<title>Node1&#45;&gt;Node3</title>
<path fill="none" stroke="black" d="M298.03,-57.39C321.63,-48.61 349.41,-38.28 371.64,-30.01"/>
<polygon fill="black" stroke="black" points="296.69,-54.15 288.54,-60.92 299.13,-60.72 296.69,-54.15"/>
</g>
<!-- Node2 -->
<g id="Node000002" class="node">
<title>Node2</title>
<g id="a_Node000002"><a xlink:href="group__CMSIS__deprecated__aliases.html" target="_top" xlink:title="Alias definitions present for backwards compatibility for deprecated symbols.">
<polygon fill="white" stroke="#666666" points="139,-91 0,-91 0,-61 139,-61 139,-91"/>
<text text-anchor="start" x="8" y="-79" font-family="Helvetica,sans-Serif" font-size="10.00">Backwards Compatibility</text>
<text text-anchor="middle" x="69.5" y="-68" font-family="Helvetica,sans-Serif" font-size="10.00"> Aliases</text>
</a>
</g>
</g>
<!-- Node2&#45;&gt;Node1 -->
<g id="edge1" class="edge">
<title>Node2&#45;&gt;Node1</title>
<path fill="none" stroke="black" d="M149.38,-76C157.86,-76 166.45,-76 174.84,-76"/>
<polygon fill="black" stroke="black" points="149.11,-72.5 139.11,-76 149.11,-79.5 149.11,-72.5"/>
</g>
</g>
</svg>
