<?xml version="1.0" encoding="UTF-8" standalone="no"?>
<!DOCTYPE svg PUBLIC "-//W3C//DTD SVG 1.1//EN"
 "http://www.w3.org/Graphics/SVG/1.1/DTD/svg11.dtd">
<!-- Generated by graphviz version 2.43.0 (0)
 -->
<!-- Title: FPU Functions Pages: 1 -->
<svg width="359pt" height="64pt"
 viewBox="0.00 0.00 359.00 64.00" xmlns="http://www.w3.org/2000/svg" xmlns:xlink="http://www.w3.org/1999/xlink">
<g id="graph0" class="graph" transform="scale(1 1) rotate(0) translate(4 60)">
<title>FPU Functions</title>
<!-- Node1 -->
<g id="Node000001" class="node">
<title>Node1</title>
<g id="a_Node000001"><a xlink:title="Function that provides FPU type.">
<polygon fill="#999999" stroke="#666666" points="212,-37 126,-37 126,-18 212,-18 212,-37"/>
<text text-anchor="middle" x="169" y="-25" font-family="Helvetica,sans-Serif" font-size="10.00">FPU Functions</text>
</a>
</g>
</g>
<!-- Node4 -->
<g id="Node000004" class="node">
<title>Node4</title>
<g id="a_Node000004"><a xlink:href="group__CMSIS__Core__SAUFunctions.html" target="_top" xlink:title="Functions that configure the SAU.">
<polygon fill="white" stroke="#666666" points="343,-56 256,-56 256,-37 343,-37 343,-56"/>
<text text-anchor="middle" x="299.5" y="-44" font-family="Helvetica,sans-Serif" font-size="10.00">SAU Functions</text>
</a>
</g>
</g>
<!-- Node1&#45;&gt;Node4 -->
<g id="edge3" class="edge">
<title>Node1&#45;&gt;Node4</title>
<path fill="none" stroke="black" d="M222.18,-35.22C233.39,-36.87 245.1,-38.6 255.89,-40.2"/>
<polygon fill="black" stroke="black" points="222.48,-31.72 212.08,-33.72 221.46,-38.65 222.48,-31.72"/>
</g>
<!-- Node3 -->
<g id="Node000003" class="node">
<title>Node3</title>
<g id="a_Node000003"><a xlink:href="group__CMSIS__Core__SysTickFunctions.html" target="_top" xlink:title="Functions that configure the System.">
<polygon fill="white" stroke="#666666" points="351,-19 248,-19 248,0 351,0 351,-19"/>
<text text-anchor="middle" x="299.5" y="-7" font-family="Helvetica,sans-Serif" font-size="10.00">SysTick Functions</text>
</a>
</g>
</g>
<!-- Node1&#45;&gt;Node3 -->
<g id="edge2" class="edge">
<title>Node1&#45;&gt;Node3</title>
<path fill="none" stroke="black" d="M222.2,-20.19C230.66,-19 239.4,-17.78 247.82,-16.6"/>
<polygon fill="black" stroke="black" points="221.49,-16.75 212.08,-21.61 222.46,-23.68 221.49,-16.75"/>
</g>
<!-- Node2 -->
<g id="Node000002" class="node">
<title>Node2</title>
<g id="a_Node000002"><a xlink:href="group__CMSIS__Core__NVICFunctions.html" target="_top" xlink:title="Functions that manage interrupts and exceptions via the NVIC.">
<polygon fill="white" stroke="#666666" points="90,-37 0,-37 0,-18 90,-18 90,-37"/>
<text text-anchor="middle" x="45" y="-25" font-family="Helvetica,sans-Serif" font-size="10.00">NVIC Functions</text>
</a>
</g>
</g>
<!-- Node2&#45;&gt;Node1 -->
<g id="edge1" class="edge">
<title>Node2&#45;&gt;Node1</title>
<path fill="none" stroke="black" d="M100.28,-27.5C108.79,-27.5 117.47,-27.5 125.65,-27.5"/>
<polygon fill="black" stroke="black" points="100.04,-24 90.04,-27.5 100.04,-31 100.04,-24"/>
</g>
</g>
</svg>
