<?xml version="1.0" encoding="UTF-8" standalone="no"?>
<!DOCTYPE svg PUBLIC "-//W3C//DTD SVG 1.1//EN"
 "http://www.w3.org/Graphics/SVG/1.1/DTD/svg11.dtd">
<!-- Generated by graphviz version 2.43.0 (0)
 -->
<!-- Title: Floating Point Unit (FPU) Pages: 1 -->
<svg width="415pt" height="38pt"
 viewBox="0.00 0.00 415.00 38.00" xmlns="http://www.w3.org/2000/svg" xmlns:xlink="http://www.w3.org/1999/xlink">
<g id="graph0" class="graph" transform="scale(1 1) rotate(0) translate(4 34)">
<title>Floating Point Unit (FPU)</title>
<!-- Node3 -->
<g id="Node000003" class="node">
<title>Node3</title>
<g id="a_Node000003"><a xlink:href="group__CMSIS__DCB.html" target="_top" xlink:title="Type definitions for the Debug Control Block Registers.">
<polygon fill="white" stroke="#666666" points="407,-24.5 291,-24.5 291,-5.5 407,-5.5 407,-24.5"/>
<text text-anchor="middle" x="349" y="-12.5" font-family="Helvetica,sans-Serif" font-size="10.00">Debug Control Block</text>
</a>
</g>
</g>
<!-- Node1 -->
<g id="Node000001" class="node">
<title>Node1</title>
<g id="a_Node000001"><a xlink:title="Type definitions for the Floating Point Unit (FPU)">
<polygon fill="#999999" stroke="#666666" points="255,-30 148,-30 148,0 255,0 255,-30"/>
<text text-anchor="start" x="156" y="-18" font-family="Helvetica,sans-Serif" font-size="10.00">Floating Point Unit</text>
<text text-anchor="middle" x="201.5" y="-7" font-family="Helvetica,sans-Serif" font-size="10.00"> (FPU)</text>
</a>
</g>
</g>
<!-- Node1&#45;&gt;Node3 -->
<g id="edge2" class="edge">
<title>Node1&#45;&gt;Node3</title>
<path fill="none" stroke="black" d="M265.21,-15C273.65,-15 282.28,-15 290.63,-15"/>
<polygon fill="black" stroke="black" points="265.03,-11.5 255.03,-15 265.03,-18.5 265.03,-11.5"/>
</g>
<!-- Node2 -->
<g id="Node000002" class="node">
<title>Node2</title>
<g id="a_Node000002"><a xlink:href="group__CMSIS__TPIU.html" target="_top" xlink:title="Type definitions for the Trace Port Interface Unit (TPIU)">
<polygon fill="white" stroke="#666666" points="112,-30 0,-30 0,0 112,0 112,-30"/>
<text text-anchor="start" x="8" y="-18" font-family="Helvetica,sans-Serif" font-size="10.00">Trace Port Interface</text>
<text text-anchor="middle" x="56" y="-7" font-family="Helvetica,sans-Serif" font-size="10.00"> Unit (TPIU)</text>
</a>
</g>
</g>
<!-- Node2&#45;&gt;Node1 -->
<g id="edge1" class="edge">
<title>Node2&#45;&gt;Node1</title>
<path fill="none" stroke="black" d="M122.34,-15C130.83,-15 139.45,-15 147.7,-15"/>
<polygon fill="black" stroke="black" points="122.07,-11.5 112.07,-15 122.07,-18.5 122.07,-11.5"/>
</g>
</g>
</svg>
