<?xml version="1.0" encoding="UTF-8" standalone="no"?>
<!DOCTYPE svg PUBLIC "-//W3C//DTD SVG 1.1//EN"
 "http://www.w3.org/Graphics/SVG/1.1/DTD/svg11.dtd">
<!-- Generated by graphviz version 2.43.0 (0)
 -->
<!-- Title: RP2350 Pages: 1 -->
<svg width="344pt" height="138pt"
 viewBox="0.00 0.00 344.00 138.00" xmlns="http://www.w3.org/2000/svg" xmlns:xlink="http://www.w3.org/1999/xlink">
<g id="graph0" class="graph" transform="scale(1 1) rotate(0) translate(4 134)">
<title>RP2350</title>
<!-- Node3 -->
<g id="Node000003" class="node">
<title>Node3</title>
<g id="a_Node000003"><a xlink:href="group__Configuration__of__CMSIS.html" target="_top" xlink:title=" ">
<polygon fill="white" stroke="#666666" points="312,-130 178,-130 178,-111 312,-111 312,-130"/>
<text text-anchor="middle" x="245" y="-118" font-family="Helvetica,sans-Serif" font-size="10.00">Configuration_of_CMSIS</text>
</a>
</g>
</g>
<!-- Node6 -->
<g id="Node000006" class="node">
<title>Node6</title>
<g id="a_Node000006"><a xlink:href="group__Device__Peripheral__declaration.html" target="_top" xlink:title=" ">
<polygon fill="white" stroke="#666666" points="327.5,-93 162.5,-93 162.5,-74 327.5,-74 327.5,-93"/>
<text text-anchor="middle" x="245" y="-81" font-family="Helvetica,sans-Serif" font-size="10.00">Device_Peripheral_declaration</text>
</a>
</g>
</g>
<!-- Node5 -->
<g id="Node000005" class="node">
<title>Node5</title>
<g id="a_Node000005"><a xlink:href="group__Device__Peripheral__peripheralAddr.html" target="_top" xlink:title=" ">
<polygon fill="white" stroke="#666666" points="336,-56 154,-56 154,-37 336,-37 336,-56"/>
<text text-anchor="middle" x="245" y="-44" font-family="Helvetica,sans-Serif" font-size="10.00">Device_Peripheral_peripheralAddr</text>
</a>
</g>
</g>
<!-- Node4 -->
<g id="Node000004" class="node">
<title>Node4</title>
<g id="a_Node000004"><a xlink:href="group__Device__Peripheral__peripherals.html" target="_top" xlink:title=" ">
<polygon fill="white" stroke="#666666" points="327.5,-19 162.5,-19 162.5,0 327.5,0 327.5,-19"/>
<text text-anchor="middle" x="245" y="-7" font-family="Helvetica,sans-Serif" font-size="10.00">Device_Peripheral_peripherals</text>
</a>
</g>
</g>
<!-- Node1 -->
<g id="Node000001" class="node">
<title>Node1</title>
<g id="a_Node000001"><a xlink:title=" ">
<polygon fill="#999999" stroke="#666666" points="118,-74 65,-74 65,-55 118,-55 118,-74"/>
<text text-anchor="middle" x="91.5" y="-62" font-family="Helvetica,sans-Serif" font-size="10.00">RP2350</text>
</a>
</g>
</g>
<!-- Node1&#45;&gt;Node3 -->
<g id="edge2" class="edge">
<title>Node1&#45;&gt;Node3</title>
<path fill="none" stroke="black" d="M113.39,-80.01C124.86,-87.83 139.63,-96.84 154,-102.5 162.6,-105.89 171.92,-108.67 181.2,-110.93"/>
<polygon fill="black" stroke="black" points="115.17,-76.98 104.98,-74.08 111.14,-82.7 115.17,-76.98"/>
</g>
<!-- Node1&#45;&gt;Node6 -->
<g id="edge5" class="edge">
<title>Node1&#45;&gt;Node6</title>
<path fill="none" stroke="black" d="M128.25,-68.98C140.29,-70.49 154.23,-72.24 168.17,-73.99"/>
<polygon fill="black" stroke="black" points="128.56,-65.49 118.2,-67.72 127.69,-72.44 128.56,-65.49"/>
</g>
<!-- Node1&#45;&gt;Node5 -->
<g id="edge4" class="edge">
<title>Node1&#45;&gt;Node5</title>
<path fill="none" stroke="black" d="M128.42,-60.23C139.2,-58.95 151.48,-57.49 163.91,-56.02"/>
<polygon fill="black" stroke="black" points="127.72,-56.79 118.2,-61.45 128.54,-63.74 127.72,-56.79"/>
</g>
<!-- Node1&#45;&gt;Node4 -->
<g id="edge3" class="edge">
<title>Node1&#45;&gt;Node4</title>
<path fill="none" stroke="black" d="M113.89,-49.12C125.31,-41.58 139.88,-32.97 154,-27.5 162.77,-24.1 172.27,-21.32 181.71,-19.04"/>
<polygon fill="black" stroke="black" points="111.77,-46.33 105.49,-54.86 115.72,-52.11 111.77,-46.33"/>
</g>
<!-- Node2 -->
<g id="Node000002" class="node">
<title>Node2</title>
<g id="a_Node000002"><a xlink:href="group__Raspberry.html" target="_top" xlink:title=" ">
<polygon fill="white" stroke="#666666" points="29,-74 0,-74 0,-55 29,-55 29,-74"/>
<text text-anchor="middle" x="14.5" y="-62" font-family="Helvetica,sans-Serif" font-size="10.00">Pi</text>
</a>
</g>
</g>
<!-- Node2&#45;&gt;Node1 -->
<g id="edge1" class="edge">
<title>Node2&#45;&gt;Node1</title>
<path fill="none" stroke="black" d="M39.28,-64.5C47.47,-64.5 56.67,-64.5 65,-64.5"/>
<polygon fill="black" stroke="black" points="39.26,-61 29.26,-64.5 39.26,-68 39.26,-61"/>
</g>
</g>
</svg>
