<?xml version="1.0" encoding="UTF-8" standalone="no"?>
<!DOCTYPE svg PUBLIC "-//W3C//DTD SVG 1.1//EN"
 "http://www.w3.org/Graphics/SVG/1.1/DTD/svg11.dtd">
<!-- Generated by graphviz version 2.43.0 (0)
 -->
<!-- Title: Backwards Compatibility Aliases Pages: 1 -->
<svg width="458pt" height="76pt"
 viewBox="0.00 0.00 458.00 75.50" xmlns="http://www.w3.org/2000/svg" xmlns:xlink="http://www.w3.org/1999/xlink">
<g id="graph0" class="graph" transform="scale(1 1) rotate(0) translate(4 71.5)">
<title>Backwards Compatibility Aliases</title>
<!-- Node3 -->
<g id="Node000003" class="node">
<title>Node3</title>
<g id="a_Node000003"><a xlink:href="group__CMSIS__Core__FunctionInterface.html" target="_top" xlink:title=" ">
<polygon fill="white" stroke="#666666" points="450,-67.5 306,-67.5 306,-37.5 450,-37.5 450,-67.5"/>
<text text-anchor="start" x="314" y="-55.5" font-family="Helvetica,sans-Serif" font-size="10.00">Functions and Instructions</text>
<text text-anchor="middle" x="378" y="-44.5" font-family="Helvetica,sans-Serif" font-size="10.00"> Reference</text>
</a>
</g>
</g>
<!-- Node4 -->
<g id="Node000004" class="node">
<title>Node4</title>
<g id="a_Node000004"><a xlink:href="group__CMSIS__Core__NVICFunctions.html" target="_top" xlink:title="Functions that manage interrupts and exceptions via the NVIC.">
<polygon fill="white" stroke="#666666" points="423,-19 333,-19 333,0 423,0 423,-19"/>
<text text-anchor="middle" x="378" y="-7" font-family="Helvetica,sans-Serif" font-size="10.00">NVIC Functions</text>
</a>
</g>
</g>
<!-- Node2 -->
<g id="Node000002" class="node">
<title>Node2</title>
<g id="a_Node000002"><a xlink:href="group__CMSIS__core__base.html" target="_top" xlink:title="Definitions for base addresses, unions, and structures.">
<polygon fill="white" stroke="#666666" points="95,-40 0,-40 0,-21 95,-21 95,-40"/>
<text text-anchor="middle" x="47.5" y="-28" font-family="Helvetica,sans-Serif" font-size="10.00">Core Definitions</text>
</a>
</g>
</g>
<!-- Node1 -->
<g id="Node000001" class="node">
<title>Node1</title>
<g id="a_Node000001"><a xlink:title="Alias definitions present for backwards compatibility for deprecated symbols.">
<polygon fill="#999999" stroke="#666666" points="270,-45.5 131,-45.5 131,-15.5 270,-15.5 270,-45.5"/>
<text text-anchor="start" x="139" y="-33.5" font-family="Helvetica,sans-Serif" font-size="10.00">Backwards Compatibility</text>
<text text-anchor="middle" x="200.5" y="-22.5" font-family="Helvetica,sans-Serif" font-size="10.00"> Aliases</text>
</a>
</g>
</g>
<!-- Node2&#45;&gt;Node1 -->
<g id="edge1" class="edge">
<title>Node2&#45;&gt;Node1</title>
<path fill="none" stroke="black" d="M105.11,-30.5C113.53,-30.5 122.28,-30.5 130.91,-30.5"/>
<polygon fill="black" stroke="black" points="105.04,-27 95.04,-30.5 105.04,-34 105.04,-27"/>
</g>
<!-- Node1&#45;&gt;Node3 -->
<g id="edge2" class="edge">
<title>Node1&#45;&gt;Node3</title>
<path fill="none" stroke="black" d="M280.1,-40.35C288.67,-41.43 297.36,-42.52 305.84,-43.58"/>
<polygon fill="black" stroke="black" points="280.46,-36.87 270.11,-39.1 279.59,-43.82 280.46,-36.87"/>
</g>
<!-- Node1&#45;&gt;Node4 -->
<g id="edge3" class="edge">
<title>Node1&#45;&gt;Node4</title>
<path fill="none" stroke="black" d="M280.12,-21.09C298.26,-18.92 316.94,-16.69 332.99,-14.77"/>
<polygon fill="black" stroke="black" points="279.62,-17.63 270.11,-22.29 280.45,-24.58 279.62,-17.63"/>
</g>
</g>
</svg>
