<?xml version="1.0" encoding="UTF-8" standalone="no"?>
<!DOCTYPE svg PUBLIC "-//W3C//DTD SVG 1.1//EN"
 "http://www.w3.org/Graphics/SVG/1.1/DTD/svg11.dtd">
<!-- Generated by graphviz version 2.43.0 (0)
 -->
<!-- Title: SysTick Functions Pages: 1 -->
<svg width="383pt" height="76pt"
 viewBox="0.00 0.00 383.00 75.50" xmlns="http://www.w3.org/2000/svg" xmlns:xlink="http://www.w3.org/1999/xlink">
<g id="graph0" class="graph" transform="scale(1 1) rotate(0) translate(4 71.5)">
<title>SysTick Functions</title>
<!-- Node3 -->
<g id="Node000003" class="node">
<title>Node3</title>
<g id="a_Node000003"><a xlink:href="group__CMSIS__Core__DIBFunctions.html" target="_top" xlink:title="Functions that access the Debug Identification Block.">
<polygon fill="white" stroke="#666666" points="116,-67.5 0,-67.5 0,-37.5 116,-37.5 116,-67.5"/>
<text text-anchor="start" x="8" y="-55.5" font-family="Helvetica,sans-Serif" font-size="10.00">Debug Identification</text>
<text text-anchor="middle" x="58" y="-44.5" font-family="Helvetica,sans-Serif" font-size="10.00"> Functions</text>
</a>
</g>
</g>
<!-- Node1 -->
<g id="Node000001" class="node">
<title>Node1</title>
<g id="a_Node000001"><a xlink:title="Functions that configure the System.">
<polygon fill="#999999" stroke="#666666" points="255,-40 152,-40 152,-21 255,-21 255,-40"/>
<text text-anchor="middle" x="203.5" y="-28" font-family="Helvetica,sans-Serif" font-size="10.00">SysTick Functions</text>
</a>
</g>
</g>
<!-- Node3&#45;&gt;Node1 -->
<g id="edge2" class="edge">
<title>Node3&#45;&gt;Node1</title>
<path fill="none" stroke="black" d="M126.12,-42.21C134.69,-40.9 143.35,-39.57 151.61,-38.3"/>
<polygon fill="black" stroke="black" points="125.48,-38.77 116.13,-43.74 126.54,-45.69 125.48,-38.77"/>
</g>
<!-- Node2 -->
<g id="Node000002" class="node">
<title>Node2</title>
<g id="a_Node000002"><a xlink:href="group__CMSIS__Core__FpuFunctions.html" target="_top" xlink:title="Function that provides FPU type.">
<polygon fill="white" stroke="#666666" points="101,-19 15,-19 15,0 101,0 101,-19"/>
<text text-anchor="middle" x="58" y="-7" font-family="Helvetica,sans-Serif" font-size="10.00">FPU Functions</text>
</a>
</g>
</g>
<!-- Node2&#45;&gt;Node1 -->
<g id="edge1" class="edge">
<title>Node2&#45;&gt;Node1</title>
<path fill="none" stroke="black" d="M111.21,-17.14C124.48,-19.08 138.72,-21.17 151.91,-23.1"/>
<polygon fill="black" stroke="black" points="111.68,-13.67 101.28,-15.69 110.67,-20.6 111.68,-13.67"/>
</g>
<!-- Node4 -->
<g id="Node000004" class="node">
<title>Node4</title>
<g id="a_Node000004"><a xlink:href="group__CMSIS__core__DebugFunctions.html" target="_top" xlink:title="Functions that access the ITM debug interface.">
<polygon fill="white" stroke="#666666" points="375,-40 291,-40 291,-21 375,-21 375,-40"/>
<text text-anchor="middle" x="333" y="-28" font-family="Helvetica,sans-Serif" font-size="10.00">ITM Functions</text>
</a>
</g>
</g>
<!-- Node1&#45;&gt;Node4 -->
<g id="edge3" class="edge">
<title>Node1&#45;&gt;Node4</title>
<path fill="none" stroke="black" d="M265.33,-30.5C273.97,-30.5 282.68,-30.5 290.82,-30.5"/>
<polygon fill="black" stroke="black" points="265.26,-27 255.26,-30.5 265.26,-34 265.26,-27"/>
</g>
</g>
</svg>
