<?xml version="1.0" encoding="UTF-8" standalone="no"?>
<!DOCTYPE svg PUBLIC "-//W3C//DTD SVG 1.1//EN"
 "http://www.w3.org/Graphics/SVG/1.1/DTD/svg11.dtd">
<!-- Generated by graphviz version 2.43.0 (0)
 -->
<!-- Title: System Control Block (SCB) Pages: 1 -->
<svg width="461pt" height="86pt"
 viewBox="0.00 0.00 461.00 86.00" xmlns="http://www.w3.org/2000/svg" xmlns:xlink="http://www.w3.org/1999/xlink">
<g id="graph0" class="graph" transform="scale(1 1) rotate(0) translate(4 82)">
<title>System Control Block (SCB)</title>
<!-- Node2 -->
<g id="Node000002" class="node">
<title>Node2</title>
<g id="a_Node000002"><a xlink:href="group__CMSIS__NVIC.html" target="_top" xlink:title="Type definitions for the NVIC Registers.">
<polygon fill="white" stroke="#666666" points="143,-54 0,-54 0,-24 143,-24 143,-54"/>
<text text-anchor="start" x="8" y="-42" font-family="Helvetica,sans-Serif" font-size="10.00">Nested Vectored Interrupt</text>
<text text-anchor="middle" x="71.5" y="-31" font-family="Helvetica,sans-Serif" font-size="10.00"> Controller (NVIC)</text>
</a>
</g>
</g>
<!-- Node1 -->
<g id="Node000001" class="node">
<title>Node1</title>
<g id="a_Node000001"><a xlink:title="Type definitions for the System Control Block Registers.">
<polygon fill="#999999" stroke="#666666" points="301,-54 179,-54 179,-24 301,-24 301,-54"/>
<text text-anchor="start" x="187" y="-42" font-family="Helvetica,sans-Serif" font-size="10.00">System Control Block</text>
<text text-anchor="middle" x="240" y="-31" font-family="Helvetica,sans-Serif" font-size="10.00"> (SCB)</text>
</a>
</g>
</g>
<!-- Node2&#45;&gt;Node1 -->
<g id="edge1" class="edge">
<title>Node2&#45;&gt;Node1</title>
<path fill="none" stroke="black" d="M153.19,-39C161.81,-39 170.47,-39 178.8,-39"/>
<polygon fill="black" stroke="black" points="153.11,-35.5 143.11,-39 153.11,-42.5 153.11,-35.5"/>
</g>
<!-- Node4 -->
<g id="Node000004" class="node">
<title>Node4</title>
<g id="a_Node000004"><a xlink:href="group__CMSIS__SCnSCB.html" target="_top" xlink:title="Type definitions for the System Control and ID Register not in the SCB.">
<polygon fill="white" stroke="#666666" points="453,-78 337,-78 337,-48 453,-48 453,-78"/>
<text text-anchor="start" x="345" y="-66" font-family="Helvetica,sans-Serif" font-size="10.00">System Controls not</text>
<text text-anchor="middle" x="395" y="-55" font-family="Helvetica,sans-Serif" font-size="10.00"> in SCB (SCnSCB)</text>
</a>
</g>
</g>
<!-- Node1&#45;&gt;Node4 -->
<g id="edge3" class="edge">
<title>Node1&#45;&gt;Node4</title>
<path fill="none" stroke="black" d="M311.02,-49.98C319.6,-51.33 328.28,-52.69 336.64,-54"/>
<polygon fill="black" stroke="black" points="311.45,-46.51 301.03,-48.42 310.37,-53.42 311.45,-46.51"/>
</g>
<!-- Node3 -->
<g id="Node000003" class="node">
<title>Node3</title>
<g id="a_Node000003"><a xlink:href="group__CMSIS__SysTick.html" target="_top" xlink:title="Type definitions for the System Timer Registers.">
<polygon fill="white" stroke="#666666" points="450,-30 340,-30 340,0 450,0 450,-30"/>
<text text-anchor="start" x="348" y="-18" font-family="Helvetica,sans-Serif" font-size="10.00">System Tick Timer </text>
<text text-anchor="middle" x="395" y="-7" font-family="Helvetica,sans-Serif" font-size="10.00">(SysTick)</text>
</a>
</g>
</g>
<!-- Node1&#45;&gt;Node3 -->
<g id="edge2" class="edge">
<title>Node1&#45;&gt;Node3</title>
<path fill="none" stroke="black" d="M310.97,-28.02C320.59,-26.52 330.34,-24.99 339.62,-23.53"/>
<polygon fill="black" stroke="black" points="310.37,-24.58 301.03,-29.58 311.45,-31.49 310.37,-24.58"/>
</g>
</g>
</svg>
