<?xml version="1.0" encoding="UTF-8" standalone="no"?>
<!DOCTYPE svg PUBLIC "-//W3C//DTD SVG 1.1//EN"
 "http://www.w3.org/Graphics/SVG/1.1/DTD/svg11.dtd">
<!-- Generated by graphviz version 2.43.0 (0)
 -->
<!-- Title: Instrumentation Trace Macrocell (ITM) Pages: 1 -->
<svg width="433pt" height="38pt"
 viewBox="0.00 0.00 433.00 38.00" xmlns="http://www.w3.org/2000/svg" xmlns:xlink="http://www.w3.org/1999/xlink">
<g id="graph0" class="graph" transform="scale(1 1) rotate(0) translate(4 34)">
<title>Instrumentation Trace Macrocell (ITM)</title>
<!-- Node3 -->
<g id="Node000003" class="node">
<title>Node3</title>
<g id="a_Node000003"><a xlink:href="group__CMSIS__DWT.html" target="_top" xlink:title="Type definitions for the Data Watchpoint and Trace (DWT)">
<polygon fill="white" stroke="#666666" points="425,-30 306,-30 306,0 425,0 425,-30"/>
<text text-anchor="start" x="314" y="-18" font-family="Helvetica,sans-Serif" font-size="10.00">Data Watchpoint and</text>
<text text-anchor="middle" x="365.5" y="-7" font-family="Helvetica,sans-Serif" font-size="10.00"> Trace (DWT)</text>
</a>
</g>
</g>
<!-- Node1 -->
<g id="Node000001" class="node">
<title>Node1</title>
<g id="a_Node000001"><a xlink:title="Type definitions for the Instrumentation Trace Macrocell (ITM)">
<polygon fill="#999999" stroke="#666666" points="270,-30 146,-30 146,0 270,0 270,-30"/>
<text text-anchor="start" x="154" y="-18" font-family="Helvetica,sans-Serif" font-size="10.00">Instrumentation Trace</text>
<text text-anchor="middle" x="208" y="-7" font-family="Helvetica,sans-Serif" font-size="10.00"> Macrocell (ITM)</text>
</a>
</g>
</g>
<!-- Node1&#45;&gt;Node3 -->
<g id="edge2" class="edge">
<title>Node1&#45;&gt;Node3</title>
<path fill="none" stroke="black" d="M280.09,-15C288.75,-15 297.51,-15 305.95,-15"/>
<polygon fill="black" stroke="black" points="280.01,-11.5 270.01,-15 280.01,-18.5 280.01,-11.5"/>
</g>
<!-- Node2 -->
<g id="Node000002" class="node">
<title>Node2</title>
<g id="a_Node000002"><a xlink:href="group__CMSIS__SysTick.html" target="_top" xlink:title="Type definitions for the System Timer Registers.">
<polygon fill="white" stroke="#666666" points="110,-30 0,-30 0,0 110,0 110,-30"/>
<text text-anchor="start" x="8" y="-18" font-family="Helvetica,sans-Serif" font-size="10.00">System Tick Timer </text>
<text text-anchor="middle" x="55" y="-7" font-family="Helvetica,sans-Serif" font-size="10.00">(SysTick)</text>
</a>
</g>
</g>
<!-- Node2&#45;&gt;Node1 -->
<g id="edge1" class="edge">
<title>Node2&#45;&gt;Node1</title>
<path fill="none" stroke="black" d="M120.3,-15C128.77,-15 137.43,-15 145.85,-15"/>
<polygon fill="black" stroke="black" points="120.09,-11.5 110.09,-15 120.09,-18.5 120.09,-11.5"/>
</g>
</g>
</svg>
