<?xml version="1.0" encoding="UTF-8" standalone="no"?>
<!DOCTYPE svg PUBLIC "-//W3C//DTD SVG 1.1//EN"
 "http://www.w3.org/Graphics/SVG/1.1/DTD/svg11.dtd">
<!-- Generated by graphviz version 2.43.0 (0)
 -->
<!-- Title: SAU Functions Pages: 1 -->
<svg width="389pt" height="27pt"
 viewBox="0.00 0.00 389.00 27.00" xmlns="http://www.w3.org/2000/svg" xmlns:xlink="http://www.w3.org/1999/xlink">
<g id="graph0" class="graph" transform="scale(1 1) rotate(0) translate(4 23)">
<title>SAU Functions</title>
<!-- Node3 -->
<g id="Node000003" class="node">
<title>Node3</title>
<g id="a_Node000003"><a xlink:href="group__CMSIS__Core__DCBFunctions.html" target="_top" xlink:title="Functions that access the Debug Control Block.">
<polygon fill="white" stroke="#666666" points="381,-19 245,-19 245,0 381,0 381,-19"/>
<text text-anchor="middle" x="313" y="-7" font-family="Helvetica,sans-Serif" font-size="10.00">Debug Control Functions</text>
</a>
</g>
</g>
<!-- Node2 -->
<g id="Node000002" class="node">
<title>Node2</title>
<g id="a_Node000002"><a xlink:href="group__CMSIS__Core__FpuFunctions.html" target="_top" xlink:title="Function that provides FPU type.">
<polygon fill="white" stroke="#666666" points="86,-19 0,-19 0,0 86,0 86,-19"/>
<text text-anchor="middle" x="43" y="-7" font-family="Helvetica,sans-Serif" font-size="10.00">FPU Functions</text>
</a>
</g>
</g>
<!-- Node1 -->
<g id="Node000001" class="node">
<title>Node1</title>
<g id="a_Node000001"><a xlink:title="Functions that configure the SAU.">
<polygon fill="#999999" stroke="#666666" points="209,-19 122,-19 122,0 209,0 209,-19"/>
<text text-anchor="middle" x="165.5" y="-7" font-family="Helvetica,sans-Serif" font-size="10.00">SAU Functions</text>
</a>
</g>
</g>
<!-- Node2&#45;&gt;Node1 -->
<g id="edge1" class="edge">
<title>Node2&#45;&gt;Node1</title>
<path fill="none" stroke="black" d="M96.35,-9.5C104.84,-9.5 113.54,-9.5 121.77,-9.5"/>
<polygon fill="black" stroke="black" points="96.15,-6 86.15,-9.5 96.15,-13 96.15,-6"/>
</g>
<!-- Node1&#45;&gt;Node3 -->
<g id="edge2" class="edge">
<title>Node1&#45;&gt;Node3</title>
<path fill="none" stroke="black" d="M219.56,-9.5C227.79,-9.5 236.38,-9.5 244.87,-9.5"/>
<polygon fill="black" stroke="black" points="219.37,-6 209.37,-9.5 219.37,-13 219.37,-6"/>
</g>
</g>
</svg>
