<?xml version="1.0" encoding="UTF-8" standalone="no"?>
<!DOCTYPE svg PUBLIC "-//W3C//DTD SVG 1.1//EN"
 "http://www.w3.org/Graphics/SVG/1.1/DTD/svg11.dtd">
<!-- Generated by graphviz version 2.43.0 (0)
 -->
<!-- Title: Debug Identification Functions Pages: 1 -->
<svg width="435pt" height="38pt"
 viewBox="0.00 0.00 435.00 38.00" xmlns="http://www.w3.org/2000/svg" xmlns:xlink="http://www.w3.org/1999/xlink">
<g id="graph0" class="graph" transform="scale(1 1) rotate(0) translate(4 34)">
<title>Debug Identification Functions</title>
<!-- Node2 -->
<g id="Node000002" class="node">
<title>Node2</title>
<g id="a_Node000002"><a xlink:href="group__CMSIS__Core__DCBFunctions.html" target="_top" xlink:title="Functions that access the Debug Control Block.">
<polygon fill="white" stroke="#666666" points="136,-24.5 0,-24.5 0,-5.5 136,-5.5 136,-24.5"/>
<text text-anchor="middle" x="68" y="-12.5" font-family="Helvetica,sans-Serif" font-size="10.00">Debug Control Functions</text>
</a>
</g>
</g>
<!-- Node1 -->
<g id="Node000001" class="node">
<title>Node1</title>
<g id="a_Node000001"><a xlink:title="Functions that access the Debug Identification Block.">
<polygon fill="#999999" stroke="#666666" points="288,-30 172,-30 172,0 288,0 288,-30"/>
<text text-anchor="start" x="180" y="-18" font-family="Helvetica,sans-Serif" font-size="10.00">Debug Identification</text>
<text text-anchor="middle" x="230" y="-7" font-family="Helvetica,sans-Serif" font-size="10.00"> Functions</text>
</a>
</g>
</g>
<!-- Node2&#45;&gt;Node1 -->
<g id="edge1" class="edge">
<title>Node2&#45;&gt;Node1</title>
<path fill="none" stroke="black" d="M146.4,-15C154.96,-15 163.56,-15 171.81,-15"/>
<polygon fill="black" stroke="black" points="146.39,-11.5 136.39,-15 146.39,-18.5 146.39,-11.5"/>
</g>
<!-- Node3 -->
<g id="Node000003" class="node">
<title>Node3</title>
<g id="a_Node000003"><a xlink:href="group__CMSIS__Core__SysTickFunctions.html" target="_top" xlink:title="Functions that configure the System.">
<polygon fill="white" stroke="#666666" points="427,-24.5 324,-24.5 324,-5.5 427,-5.5 427,-24.5"/>
<text text-anchor="middle" x="375.5" y="-12.5" font-family="Helvetica,sans-Serif" font-size="10.00">SysTick Functions</text>
</a>
</g>
</g>
<!-- Node1&#45;&gt;Node3 -->
<g id="edge2" class="edge">
<title>Node1&#45;&gt;Node3</title>
<path fill="none" stroke="black" d="M298.4,-15C306.88,-15 315.44,-15 323.61,-15"/>
<polygon fill="black" stroke="black" points="298.13,-11.5 288.13,-15 298.13,-18.5 298.13,-11.5"/>
</g>
</g>
</svg>
