<?xml version="1.0" encoding="UTF-8" standalone="no"?>
<!DOCTYPE svg PUBLIC "-//W3C//DTD SVG 1.1//EN"
 "http://www.w3.org/Graphics/SVG/1.1/DTD/svg11.dtd">
<!-- Generated by graphviz version 2.43.0 (0)
 -->
<!-- Title: Core register bit field macros Pages: 1 -->
<svg width="417pt" height="86pt"
 viewBox="0.00 0.00 417.00 86.00" xmlns="http://www.w3.org/2000/svg" xmlns:xlink="http://www.w3.org/1999/xlink">
<g id="graph0" class="graph" transform="scale(1 1) rotate(0) translate(4 82)">
<title>Core register bit field macros</title>
<!-- Node2 -->
<g id="Node000002" class="node">
<title>Node2</title>
<g id="a_Node000002"><a xlink:href="group__CMSIS__CoreDebug.html" target="_top" xlink:title="Cortex&#45;M0+ Core Debug Registers (DCB registers, SHCSR, and DFSR) are only accessible over DAP and not...">
<polygon fill="white" stroke="#666666" points="122,-78 0,-78 0,-48 122,-48 122,-78"/>
<text text-anchor="start" x="8" y="-66" font-family="Helvetica,sans-Serif" font-size="10.00">Core Debug Registers</text>
<text text-anchor="middle" x="61" y="-55" font-family="Helvetica,sans-Serif" font-size="10.00"> (CoreDebug)</text>
</a>
</g>
</g>
<!-- Node1 -->
<g id="Node000001" class="node">
<title>Node1</title>
<g id="a_Node000001"><a xlink:title="Macros for use with bit field definitions (xxx_Pos, xxx_Msk).">
<polygon fill="#999999" stroke="#666666" points="278,-54 158,-54 158,-24 278,-24 278,-54"/>
<text text-anchor="start" x="166" y="-42" font-family="Helvetica,sans-Serif" font-size="10.00">Core register bit field</text>
<text text-anchor="middle" x="218" y="-31" font-family="Helvetica,sans-Serif" font-size="10.00"> macros</text>
</a>
</g>
</g>
<!-- Node2&#45;&gt;Node1 -->
<g id="edge1" class="edge">
<title>Node2&#45;&gt;Node1</title>
<path fill="none" stroke="black" d="M132.3,-52.11C140.83,-50.79 149.47,-49.46 157.81,-48.16"/>
<polygon fill="black" stroke="black" points="131.72,-48.66 122.37,-53.65 132.79,-55.58 131.72,-48.66"/>
</g>
<!-- Node3 -->
<g id="Node000003" class="node">
<title>Node3</title>
<g id="a_Node000003"><a xlink:href="group__CMSIS__DIB.html" target="_top" xlink:title="Type definitions for the Debug Identification Block Registers.">
<polygon fill="white" stroke="#666666" points="119,-30 3,-30 3,0 119,0 119,-30"/>
<text text-anchor="start" x="11" y="-18" font-family="Helvetica,sans-Serif" font-size="10.00">Debug Identification</text>
<text text-anchor="middle" x="61" y="-7" font-family="Helvetica,sans-Serif" font-size="10.00"> Block</text>
</a>
</g>
</g>
<!-- Node3&#45;&gt;Node1 -->
<g id="edge2" class="edge">
<title>Node3&#45;&gt;Node1</title>
<path fill="none" stroke="black" d="M129.44,-25.44C138.91,-26.91 148.59,-28.41 157.88,-29.85"/>
<polygon fill="black" stroke="black" points="129.69,-21.94 119.28,-23.87 128.62,-28.86 129.69,-21.94"/>
</g>
<!-- Node4 -->
<g id="Node000004" class="node">
<title>Node4</title>
<g id="a_Node000004"><a xlink:href="group__CMSIS__core__base.html" target="_top" xlink:title="Definitions for base addresses, unions, and structures.">
<polygon fill="white" stroke="#666666" points="409,-48.5 314,-48.5 314,-29.5 409,-29.5 409,-48.5"/>
<text text-anchor="middle" x="361.5" y="-36.5" font-family="Helvetica,sans-Serif" font-size="10.00">Core Definitions</text>
</a>
</g>
</g>
<!-- Node1&#45;&gt;Node4 -->
<g id="edge3" class="edge">
<title>Node1&#45;&gt;Node4</title>
<path fill="none" stroke="black" d="M288.23,-39C296.82,-39 305.45,-39 313.59,-39"/>
<polygon fill="black" stroke="black" points="288.19,-35.5 278.19,-39 288.19,-42.5 288.19,-35.5"/>
</g>
</g>
</svg>
