<?xml version="1.0" encoding="UTF-8" standalone="no"?>
<!DOCTYPE svg PUBLIC "-//W3C//DTD SVG 1.1//EN"
 "http://www.w3.org/Graphics/SVG/1.1/DTD/svg11.dtd">
<!-- Generated by graphviz version 2.43.0 (0)
 -->
<!-- Title: Data Watchpoint and Trace (DWT) Pages: 1 -->
<svg width="435pt" height="38pt"
 viewBox="0.00 0.00 435.00 38.00" xmlns="http://www.w3.org/2000/svg" xmlns:xlink="http://www.w3.org/1999/xlink">
<g id="graph0" class="graph" transform="scale(1 1) rotate(0) translate(4 34)">
<title>Data Watchpoint and Trace (DWT)</title>
<!-- Node1 -->
<g id="Node000001" class="node">
<title>Node1</title>
<g id="a_Node000001"><a xlink:title="Type definitions for the Data Watchpoint and Trace (DWT)">
<polygon fill="#999999" stroke="#666666" points="279,-30 160,-30 160,0 279,0 279,-30"/>
<text text-anchor="start" x="168" y="-18" font-family="Helvetica,sans-Serif" font-size="10.00">Data Watchpoint and</text>
<text text-anchor="middle" x="219.5" y="-7" font-family="Helvetica,sans-Serif" font-size="10.00"> Trace (DWT)</text>
</a>
</g>
</g>
<!-- Node3 -->
<g id="Node000003" class="node">
<title>Node3</title>
<g id="a_Node000003"><a xlink:href="group__CMSIS__TPIU.html" target="_top" xlink:title="Type definitions for the Trace Port Interface Unit (TPIU)">
<polygon fill="white" stroke="#666666" points="427,-30 315,-30 315,0 427,0 427,-30"/>
<text text-anchor="start" x="323" y="-18" font-family="Helvetica,sans-Serif" font-size="10.00">Trace Port Interface</text>
<text text-anchor="middle" x="371" y="-7" font-family="Helvetica,sans-Serif" font-size="10.00"> Unit (TPIU)</text>
</a>
</g>
</g>
<!-- Node1&#45;&gt;Node3 -->
<g id="edge2" class="edge">
<title>Node1&#45;&gt;Node3</title>
<path fill="none" stroke="black" d="M289.2,-15C297.82,-15 306.55,-15 314.93,-15"/>
<polygon fill="black" stroke="black" points="289.16,-11.5 279.16,-15 289.16,-18.5 289.16,-11.5"/>
</g>
<!-- Node2 -->
<g id="Node000002" class="node">
<title>Node2</title>
<g id="a_Node000002"><a xlink:href="group__CMSIS__ITM.html" target="_top" xlink:title="Type definitions for the Instrumentation Trace Macrocell (ITM)">
<polygon fill="white" stroke="#666666" points="124,-30 0,-30 0,0 124,0 124,-30"/>
<text text-anchor="start" x="8" y="-18" font-family="Helvetica,sans-Serif" font-size="10.00">Instrumentation Trace</text>
<text text-anchor="middle" x="62" y="-7" font-family="Helvetica,sans-Serif" font-size="10.00"> Macrocell (ITM)</text>
</a>
</g>
</g>
<!-- Node2&#45;&gt;Node1 -->
<g id="edge1" class="edge">
<title>Node2&#45;&gt;Node1</title>
<path fill="none" stroke="black" d="M134.09,-15C142.75,-15 151.51,-15 159.95,-15"/>
<polygon fill="black" stroke="black" points="134.01,-11.5 124.01,-15 134.01,-18.5 134.01,-11.5"/>
</g>
</g>
</svg>
