<?xml version="1.0" encoding="UTF-8" standalone="no"?>
<!DOCTYPE svg PUBLIC "-//W3C//DTD SVG 1.1//EN"
 "http://www.w3.org/Graphics/SVG/1.1/DTD/svg11.dtd">
<!-- Generated by graphviz version 2.43.0 (0)
 -->
<!-- Title: Debug Control Block Pages: 1 -->
<svg width="419pt" height="38pt"
 viewBox="0.00 0.00 419.00 38.00" xmlns="http://www.w3.org/2000/svg" xmlns:xlink="http://www.w3.org/1999/xlink">
<g id="graph0" class="graph" transform="scale(1 1) rotate(0) translate(4 34)">
<title>Debug Control Block</title>
<!-- Node1 -->
<g id="Node000001" class="node">
<title>Node1</title>
<g id="a_Node000001"><a xlink:title="Type definitions for the Debug Control Block Registers.">
<polygon fill="#999999" stroke="#666666" points="259,-24.5 143,-24.5 143,-5.5 259,-5.5 259,-24.5"/>
<text text-anchor="middle" x="201" y="-12.5" font-family="Helvetica,sans-Serif" font-size="10.00">Debug Control Block</text>
</a>
</g>
</g>
<!-- Node3 -->
<g id="Node000003" class="node">
<title>Node3</title>
<g id="a_Node000003"><a xlink:href="group__CMSIS__DIB.html" target="_top" xlink:title="Type definitions for the Debug Identification Block Registers.">
<polygon fill="white" stroke="#666666" points="411,-30 295,-30 295,0 411,0 411,-30"/>
<text text-anchor="start" x="303" y="-18" font-family="Helvetica,sans-Serif" font-size="10.00">Debug Identification</text>
<text text-anchor="middle" x="353" y="-7" font-family="Helvetica,sans-Serif" font-size="10.00"> Block</text>
</a>
</g>
</g>
<!-- Node1&#45;&gt;Node3 -->
<g id="edge2" class="edge">
<title>Node1&#45;&gt;Node3</title>
<path fill="none" stroke="black" d="M269.31,-15C277.73,-15 286.28,-15 294.53,-15"/>
<polygon fill="black" stroke="black" points="269.14,-11.5 259.14,-15 269.14,-18.5 269.14,-11.5"/>
</g>
<!-- Node2 -->
<g id="Node000002" class="node">
<title>Node2</title>
<g id="a_Node000002"><a xlink:href="group__CMSIS__FPU.html" target="_top" xlink:title="Type definitions for the Floating Point Unit (FPU)">
<polygon fill="white" stroke="#666666" points="107,-30 0,-30 0,0 107,0 107,-30"/>
<text text-anchor="start" x="8" y="-18" font-family="Helvetica,sans-Serif" font-size="10.00">Floating Point Unit</text>
<text text-anchor="middle" x="53.5" y="-7" font-family="Helvetica,sans-Serif" font-size="10.00"> (FPU)</text>
</a>
</g>
</g>
<!-- Node2&#45;&gt;Node1 -->
<g id="edge1" class="edge">
<title>Node2&#45;&gt;Node1</title>
<path fill="none" stroke="black" d="M117.21,-15C125.65,-15 134.28,-15 142.63,-15"/>
<polygon fill="black" stroke="black" points="117.03,-11.5 107.03,-15 117.03,-18.5 117.03,-11.5"/>
</g>
</g>
</svg>
