<?xml version="1.0" encoding="UTF-8" standalone="no"?>
<!DOCTYPE svg PUBLIC "-//W3C//DTD SVG 1.1//EN"
 "http://www.w3.org/Graphics/SVG/1.1/DTD/svg11.dtd">
<!-- Generated by graphviz version 2.43.0 (0)
 -->
<!-- Title: pico_util Pages: 1 -->
<svg width="163pt" height="101pt"
 viewBox="0.00 0.00 163.00 101.00" xmlns="http://www.w3.org/2000/svg" xmlns:xlink="http://www.w3.org/1999/xlink">
<g id="graph0" class="graph" transform="scale(1 1) rotate(0) translate(4 97)">
<title>pico_util</title>
<!-- Node1 -->
<g id="Node000001" class="node">
<title>Node1</title>
<g id="a_Node000001"><a xlink:title="Useful data structures and utility functions.">
<polygon fill="#999999" stroke="#666666" points="58,-56 0,-56 0,-37 58,-37 58,-56"/>
<text text-anchor="middle" x="29" y="-44" font-family="Helvetica,sans-Serif" font-size="10.00">pico_util</text>
</a>
</g>
</g>
<!-- Node4 -->
<g id="Node000004" class="node">
<title>Node4</title>
<g id="a_Node000004"><a xlink:href="group__queue.html" target="_top" xlink:title="Multi&#45;core and IRQ safe queue implementation.">
<polygon fill="white" stroke="#666666" points="148,-93 101,-93 101,-74 148,-74 148,-93"/>
<text text-anchor="middle" x="124.5" y="-81" font-family="Helvetica,sans-Serif" font-size="10.00">queue</text>
</a>
</g>
</g>
<!-- Node1&#45;&gt;Node4 -->
<g id="edge3" class="edge">
<title>Node1&#45;&gt;Node4</title>
<path fill="none" stroke="black" d="M63.62,-59.8C75.96,-64.69 89.63,-70.1 100.79,-74.51"/>
<polygon fill="black" stroke="black" points="64.66,-56.45 54.08,-56.03 62.09,-62.96 64.66,-56.45"/>
</g>
<!-- Node2 -->
<g id="Node000002" class="node">
<title>Node2</title>
<g id="a_Node000002"><a xlink:href="group__util__datetime.html" target="_top" xlink:title="Date/Time formatting.">
<polygon fill="white" stroke="#666666" points="155,-56 94,-56 94,-37 155,-37 155,-56"/>
<text text-anchor="middle" x="124.5" y="-44" font-family="Helvetica,sans-Serif" font-size="10.00">datetime</text>
</a>
</g>
</g>
<!-- Node1&#45;&gt;Node2 -->
<g id="edge1" class="edge">
<title>Node1&#45;&gt;Node2</title>
<path fill="none" stroke="black" d="M68.21,-46.5C76.76,-46.5 85.7,-46.5 93.84,-46.5"/>
<polygon fill="black" stroke="black" points="68.05,-43 58.05,-46.5 68.05,-50 68.05,-43"/>
</g>
<!-- Node3 -->
<g id="Node000003" class="node">
<title>Node3</title>
<g id="a_Node000003"><a xlink:href="group__util__pheap.html" target="_top" xlink:title="Pairing Heap Implementation.">
<polygon fill="white" stroke="#666666" points="148,-19 101,-19 101,0 148,0 148,-19"/>
<text text-anchor="middle" x="124.5" y="-7" font-family="Helvetica,sans-Serif" font-size="10.00">pheap</text>
</a>
</g>
</g>
<!-- Node1&#45;&gt;Node3 -->
<g id="edge2" class="edge">
<title>Node1&#45;&gt;Node3</title>
<path fill="none" stroke="black" d="M63.62,-33.2C75.96,-28.31 89.63,-22.9 100.79,-18.49"/>
<polygon fill="black" stroke="black" points="62.09,-30.04 54.08,-36.97 64.66,-36.55 62.09,-30.04"/>
</g>
</g>
</svg>
