<?xml version="1.0" encoding="UTF-8" standalone="no"?>
<!DOCTYPE svg PUBLIC "-//W3C//DTD SVG 1.1//EN"
 "http://www.w3.org/Graphics/SVG/1.1/DTD/svg11.dtd">
<!-- Generated by graphviz version 2.43.0 (0)
 -->
<!-- Title: pico_stdio Pages: 1 -->
<svg width="241pt" height="138pt"
 viewBox="0.00 0.00 241.00 138.00" xmlns="http://www.w3.org/2000/svg" xmlns:xlink="http://www.w3.org/1999/xlink">
<g id="graph0" class="graph" transform="scale(1 1) rotate(0) translate(4 134)">
<title>pico_stdio</title>
<!-- Node1 -->
<g id="Node000001" class="node">
<title>Node1</title>
<g id="a_Node000001"><a xlink:title="Customized stdio support allowing for input and output from UART, USB, semi&#45;hosting etc.">
<polygon fill="#999999" stroke="#666666" points="66,-74 0,-74 0,-55 66,-55 66,-74"/>
<text text-anchor="middle" x="33" y="-62" font-family="Helvetica,sans-Serif" font-size="10.00">pico_stdio</text>
</a>
</g>
</g>
<!-- Node2 -->
<g id="Node000002" class="node">
<title>Node2</title>
<g id="a_Node000002"><a xlink:href="group__pico__stdio__rtt.html" target="_top" xlink:title="Support for stdin/stdout using SEGGER RTT.">
<polygon fill="white" stroke="#666666" points="209,-130 126,-130 126,-111 209,-111 209,-130"/>
<text text-anchor="middle" x="167.5" y="-118" font-family="Helvetica,sans-Serif" font-size="10.00">pico_stdio_rtt</text>
</a>
</g>
</g>
<!-- Node1&#45;&gt;Node2 -->
<g id="edge1" class="edge">
<title>Node1&#45;&gt;Node2</title>
<path fill="none" stroke="black" d="M57.25,-79.31C70.08,-87.01 86.5,-96.11 102,-102.5 109.74,-105.69 118.23,-108.51 126.43,-110.91"/>
<polygon fill="black" stroke="black" points="58.97,-76.26 48.61,-74.01 55.31,-82.22 58.97,-76.26"/>
</g>
<!-- Node3 -->
<g id="Node000003" class="node">
<title>Node3</title>
<g id="a_Node000003"><a xlink:href="group__pico__stdio__semihosting.html" target="_top" xlink:title="Experimental support for stdout using RAM semihosting.">
<polygon fill="white" stroke="#666666" points="233,-93 102,-93 102,-74 233,-74 233,-93"/>
<text text-anchor="middle" x="167.5" y="-81" font-family="Helvetica,sans-Serif" font-size="10.00">pico_stdio_semihosting</text>
</a>
</g>
</g>
<!-- Node1&#45;&gt;Node3 -->
<g id="edge2" class="edge">
<title>Node1&#45;&gt;Node3</title>
<path fill="none" stroke="black" d="M76.09,-70.54C84.27,-71.71 93.02,-72.96 101.74,-74.21"/>
<polygon fill="black" stroke="black" points="76.47,-67.05 66.07,-69.1 75.48,-73.98 76.47,-67.05"/>
</g>
<!-- Node4 -->
<g id="Node000004" class="node">
<title>Node4</title>
<g id="a_Node000004"><a xlink:href="group__pico__stdio__uart.html" target="_top" xlink:title="Support for stdin/stdout using UART.">
<polygon fill="white" stroke="#666666" points="213,-56 122,-56 122,-37 213,-37 213,-56"/>
<text text-anchor="middle" x="167.5" y="-44" font-family="Helvetica,sans-Serif" font-size="10.00">pico_stdio_uart</text>
</a>
</g>
</g>
<!-- Node1&#45;&gt;Node4 -->
<g id="edge3" class="edge">
<title>Node1&#45;&gt;Node4</title>
<path fill="none" stroke="black" d="M76.31,-58.75C90.88,-56.77 107.22,-54.55 121.96,-52.55"/>
<polygon fill="black" stroke="black" points="75.51,-55.33 66.07,-60.14 76.45,-62.26 75.51,-55.33"/>
</g>
<!-- Node5 -->
<g id="Node000005" class="node">
<title>Node5</title>
<g id="a_Node000005"><a xlink:href="group__pico__stdio__usb.html" target="_top" xlink:title="Support for stdin/stdout over USB serial (CDC)">
<polygon fill="white" stroke="#666666" points="212,-19 123,-19 123,0 212,0 212,-19"/>
<text text-anchor="middle" x="167.5" y="-7" font-family="Helvetica,sans-Serif" font-size="10.00">pico_stdio_usb</text>
</a>
</g>
</g>
<!-- Node1&#45;&gt;Node5 -->
<g id="edge4" class="edge">
<title>Node1&#45;&gt;Node5</title>
<path fill="none" stroke="black" d="M58.76,-49.85C71.41,-42.77 87.21,-34.52 102,-28.5 110.65,-24.98 120.19,-21.8 129.22,-19.1"/>
<polygon fill="black" stroke="black" points="56.72,-46.98 49.78,-54.98 60.2,-53.06 56.72,-46.98"/>
</g>
</g>
</svg>
