<?xml version="1.0" encoding="UTF-8" standalone="no"?>
<!DOCTYPE svg PUBLIC "-//W3C//DTD SVG 1.1//EN"
 "http://www.w3.org/Graphics/SVG/1.1/DTD/svg11.dtd">
<!-- Generated by graphviz version 2.43.0 (0)
 -->
<!-- Title: pico_multicore Pages: 1 -->
<svg width="189pt" height="101pt"
 viewBox="0.00 0.00 189.00 101.00" xmlns="http://www.w3.org/2000/svg" xmlns:xlink="http://www.w3.org/1999/xlink">
<g id="graph0" class="graph" transform="scale(1 1) rotate(0) translate(4 97)">
<title>pico_multicore</title>
<!-- Node3 -->
<g id="Node000003" class="node">
<title>Node3</title>
<g id="a_Node000003"><a xlink:href="group__multicore__doorbell.html" target="_top" xlink:title="Functions related to doorbells which a core can use to raise IRQs on itself or the other core.">
<polygon fill="white" stroke="#666666" points="181,-93 125,-93 125,-74 181,-74 181,-93"/>
<text text-anchor="middle" x="153" y="-81" font-family="Helvetica,sans-Serif" font-size="10.00">doorbell</text>
</a>
</g>
</g>
<!-- Node2 -->
<g id="Node000002" class="node">
<title>Node2</title>
<g id="a_Node000002"><a xlink:href="group__multicore__fifo.html" target="_top" xlink:title="Functions for the inter&#45;core FIFOs.">
<polygon fill="white" stroke="#666666" points="169.5,-56 136.5,-56 136.5,-37 169.5,-37 169.5,-56"/>
<text text-anchor="middle" x="153" y="-44" font-family="Helvetica,sans-Serif" font-size="10.00">fifo</text>
</a>
</g>
</g>
<!-- Node4 -->
<g id="Node000004" class="node">
<title>Node4</title>
<g id="a_Node000004"><a xlink:href="group__multicore__lockout.html" target="_top" xlink:title="Functions to enable one core to force the other core to pause execution in a known state.">
<polygon fill="white" stroke="#666666" points="179,-19 127,-19 127,0 179,0 179,-19"/>
<text text-anchor="middle" x="153" y="-7" font-family="Helvetica,sans-Serif" font-size="10.00">lockout</text>
</a>
</g>
</g>
<!-- Node1 -->
<g id="Node000001" class="node">
<title>Node1</title>
<g id="a_Node000001"><a xlink:title="Adds support for running code on, and interacting with the second processor core (core 1).">
<polygon fill="#999999" stroke="#666666" points="89,-56 0,-56 0,-37 89,-37 89,-56"/>
<text text-anchor="middle" x="44.5" y="-44" font-family="Helvetica,sans-Serif" font-size="10.00">pico_multicore</text>
</a>
</g>
</g>
<!-- Node1&#45;&gt;Node3 -->
<g id="edge2" class="edge">
<title>Node1&#45;&gt;Node3</title>
<path fill="none" stroke="black" d="M82.65,-59.41C96.47,-64.21 111.88,-69.56 124.67,-74"/>
<polygon fill="black" stroke="black" points="83.52,-56 72.93,-56.03 81.22,-62.62 83.52,-56"/>
</g>
<!-- Node1&#45;&gt;Node2 -->
<g id="edge1" class="edge">
<title>Node1&#45;&gt;Node2</title>
<path fill="none" stroke="black" d="M99.45,-46.5C113.02,-46.5 126.52,-46.5 136.44,-46.5"/>
<polygon fill="black" stroke="black" points="99.12,-43 89.12,-46.5 99.12,-50 99.12,-43"/>
</g>
<!-- Node1&#45;&gt;Node4 -->
<g id="edge3" class="edge">
<title>Node1&#45;&gt;Node4</title>
<path fill="none" stroke="black" d="M82.69,-33.58C97.3,-28.5 113.69,-22.81 126.86,-18.24"/>
<polygon fill="black" stroke="black" points="81.22,-30.38 72.93,-36.97 83.52,-37 81.22,-30.38"/>
</g>
</g>
</svg>
