<?xml version="1.0" encoding="UTF-8" standalone="no"?>
<!DOCTYPE svg PUBLIC "-//W3C//DTD SVG 1.1//EN"
 "http://www.w3.org/Graphics/SVG/1.1/DTD/svg11.dtd">
<!-- Generated by graphviz version 2.43.0 (0)
 -->
<!-- Title: hardware_pio Pages: 1 -->
<svg width="221pt" height="64pt"
 viewBox="0.00 0.00 221.00 64.00" xmlns="http://www.w3.org/2000/svg" xmlns:xlink="http://www.w3.org/1999/xlink">
<g id="graph0" class="graph" transform="scale(1 1) rotate(0) translate(4 60)">
<title>hardware_pio</title>
<!-- Node1 -->
<g id="Node000001" class="node">
<title>Node1</title>
<g id="a_Node000001"><a xlink:title="Programmable I/O (PIO) API.">
<polygon fill="#999999" stroke="#666666" points="83,-37 0,-37 0,-18 83,-18 83,-37"/>
<text text-anchor="middle" x="41.5" y="-25" font-family="Helvetica,sans-Serif" font-size="10.00">hardware_pio</text>
</a>
</g>
</g>
<!-- Node3 -->
<g id="Node000003" class="node">
<title>Node3</title>
<g id="a_Node000003"><a xlink:href="group__pio__instructions.html" target="_top" xlink:title="PIO instruction encoding.">
<polygon fill="white" stroke="#666666" points="213,-56 119,-56 119,-37 213,-37 213,-56"/>
<text text-anchor="middle" x="166" y="-44" font-family="Helvetica,sans-Serif" font-size="10.00">pio_instructions</text>
</a>
</g>
</g>
<!-- Node1&#45;&gt;Node3 -->
<g id="edge2" class="edge">
<title>Node1&#45;&gt;Node3</title>
<path fill="none" stroke="black" d="M93.41,-35.4C101.86,-36.71 110.57,-38.06 118.89,-39.35"/>
<polygon fill="black" stroke="black" points="93.71,-31.9 83.29,-33.83 92.64,-38.82 93.71,-31.9"/>
</g>
<!-- Node2 -->
<g id="Node000002" class="node">
<title>Node2</title>
<g id="a_Node000002"><a xlink:href="group__sm__config.html" target="_top" xlink:title="PIO state machine configuration.">
<polygon fill="white" stroke="#666666" points="199.5,-19 132.5,-19 132.5,0 199.5,0 199.5,-19"/>
<text text-anchor="middle" x="166" y="-7" font-family="Helvetica,sans-Serif" font-size="10.00">sm_config</text>
</a>
</g>
</g>
<!-- Node1&#45;&gt;Node2 -->
<g id="edge1" class="edge">
<title>Node1&#45;&gt;Node2</title>
<path fill="none" stroke="black" d="M93.56,-20C106.6,-18.08 120.27,-16.07 132.12,-14.33"/>
<polygon fill="black" stroke="black" points="92.68,-16.59 83.29,-21.51 93.69,-23.52 92.68,-16.59"/>
</g>
</g>
</svg>
