<?xml version="1.0" encoding="UTF-8" standalone="no"?>
<!DOCTYPE svg PUBLIC "-//W3C//DTD SVG 1.1//EN"
 "http://www.w3.org/Graphics/SVG/1.1/DTD/svg11.dtd">
<!-- Generated by graphviz version 2.43.0 (0)
 -->
<!-- Title: System Tick Timer (SysTick) Pages: 1 -->
<svg width="436pt" height="86pt"
 viewBox="0.00 0.00 436.00 86.00" xmlns="http://www.w3.org/2000/svg" xmlns:xlink="http://www.w3.org/1999/xlink">
<g id="graph0" class="graph" transform="scale(1 1) rotate(0) translate(4 82)">
<title>System Tick Timer (SysTick)</title>
<!-- Node4 -->
<g id="Node000004" class="node">
<title>Node4</title>
<g id="a_Node000004"><a xlink:href="group__CMSIS__CoreDebug.html" target="_top" xlink:title="Cortex&#45;M0+ Core Debug Registers (DCB registers, SHCSR, and DFSR) are only accessible over DAP and not...">
<polygon fill="white" stroke="#666666" points="427,-78 305,-78 305,-48 427,-48 427,-78"/>
<text text-anchor="start" x="313" y="-66" font-family="Helvetica,sans-Serif" font-size="10.00">Core Debug Registers</text>
<text text-anchor="middle" x="366" y="-55" font-family="Helvetica,sans-Serif" font-size="10.00"> (CoreDebug)</text>
</a>
</g>
</g>
<!-- Node5 -->
<g id="Node000005" class="node">
<title>Node5</title>
<g id="a_Node000005"><a xlink:href="group__CMSIS__ITM.html" target="_top" xlink:title="Type definitions for the Instrumentation Trace Macrocell (ITM)">
<polygon fill="white" stroke="#666666" points="428,-30 304,-30 304,0 428,0 428,-30"/>
<text text-anchor="start" x="312" y="-18" font-family="Helvetica,sans-Serif" font-size="10.00">Instrumentation Trace</text>
<text text-anchor="middle" x="366" y="-7" font-family="Helvetica,sans-Serif" font-size="10.00"> Macrocell (ITM)</text>
</a>
</g>
</g>
<!-- Node2 -->
<g id="Node000002" class="node">
<title>Node2</title>
<g id="a_Node000002"><a xlink:href="group__CMSIS__SCB.html" target="_top" xlink:title="Type definitions for the System Control Block Registers.">
<polygon fill="white" stroke="#666666" points="122,-78 0,-78 0,-48 122,-48 122,-78"/>
<text text-anchor="start" x="8" y="-66" font-family="Helvetica,sans-Serif" font-size="10.00">System Control Block</text>
<text text-anchor="middle" x="61" y="-55" font-family="Helvetica,sans-Serif" font-size="10.00"> (SCB)</text>
</a>
</g>
</g>
<!-- Node1 -->
<g id="Node000001" class="node">
<title>Node1</title>
<g id="a_Node000001"><a xlink:title="Type definitions for the System Timer Registers.">
<polygon fill="#999999" stroke="#666666" points="268,-54 158,-54 158,-24 268,-24 268,-54"/>
<text text-anchor="start" x="166" y="-42" font-family="Helvetica,sans-Serif" font-size="10.00">System Tick Timer </text>
<text text-anchor="middle" x="213" y="-31" font-family="Helvetica,sans-Serif" font-size="10.00">(SysTick)</text>
</a>
</g>
</g>
<!-- Node2&#45;&gt;Node1 -->
<g id="edge1" class="edge">
<title>Node2&#45;&gt;Node1</title>
<path fill="none" stroke="black" d="M132.14,-51.78C140.71,-50.41 149.37,-49.02 157.66,-47.69"/>
<polygon fill="black" stroke="black" points="131.47,-48.34 122.15,-53.38 132.57,-55.25 131.47,-48.34"/>
</g>
<!-- Node3 -->
<g id="Node000003" class="node">
<title>Node3</title>
<g id="a_Node000003"><a xlink:href="group__CMSIS__SCnSCB.html" target="_top" xlink:title="Type definitions for the System Control and ID Register not in the SCB.">
<polygon fill="white" stroke="#666666" points="119,-30 3,-30 3,0 119,0 119,-30"/>
<text text-anchor="start" x="11" y="-18" font-family="Helvetica,sans-Serif" font-size="10.00">System Controls not</text>
<text text-anchor="middle" x="61" y="-7" font-family="Helvetica,sans-Serif" font-size="10.00"> in SCB (SCnSCB)</text>
</a>
</g>
</g>
<!-- Node3&#45;&gt;Node1 -->
<g id="edge2" class="edge">
<title>Node3&#45;&gt;Node1</title>
<path fill="none" stroke="black" d="M129.12,-25.74C138.78,-27.28 148.62,-28.86 157.99,-30.36"/>
<polygon fill="black" stroke="black" points="129.56,-22.27 119.14,-24.14 128.46,-29.18 129.56,-22.27"/>
</g>
<!-- Node1&#45;&gt;Node4 -->
<g id="edge3" class="edge">
<title>Node1&#45;&gt;Node4</title>
<path fill="none" stroke="black" d="M278.02,-49.18C286.93,-50.59 296.05,-52.04 304.88,-53.45"/>
<polygon fill="black" stroke="black" points="278.51,-45.71 268.09,-47.6 277.41,-52.62 278.51,-45.71"/>
</g>
<!-- Node1&#45;&gt;Node5 -->
<g id="edge4" class="edge">
<title>Node1&#45;&gt;Node5</title>
<path fill="none" stroke="black" d="M278.02,-28.83C286.58,-27.46 295.34,-26.07 303.85,-24.72"/>
<polygon fill="black" stroke="black" points="277.41,-25.38 268.09,-30.4 278.51,-32.29 277.41,-25.38"/>
</g>
</g>
</svg>
