<?xml version="1.0" encoding="UTF-8" standalone="no"?>
<!DOCTYPE svg PUBLIC "-//W3C//DTD SVG 1.1//EN"
 "http://www.w3.org/Graphics/SVG/1.1/DTD/svg11.dtd">
<!-- Generated by graphviz version 2.43.0 (0)
 -->
<!-- Title: pico_sync Pages: 1 -->
<svg width="199pt" height="138pt"
 viewBox="0.00 0.00 199.00 138.00" xmlns="http://www.w3.org/2000/svg" xmlns:xlink="http://www.w3.org/1999/xlink">
<g id="graph0" class="graph" transform="scale(1 1) rotate(0) translate(4 134)">
<title>pico_sync</title>
<!-- Node2 -->
<g id="Node000002" class="node">
<title>Node2</title>
<g id="a_Node000002"><a xlink:href="group__critical__section.html" target="_top" xlink:title="Critical Section API for short&#45;lived mutual exclusion safe for IRQ and multi&#45;core.">
<polygon fill="white" stroke="#666666" points="191,-130 101,-130 101,-111 191,-111 191,-130"/>
<text text-anchor="middle" x="146" y="-118" font-family="Helvetica,sans-Serif" font-size="10.00">critical_section</text>
</a>
</g>
</g>
<!-- Node3 -->
<g id="Node000003" class="node">
<title>Node3</title>
<g id="a_Node000003"><a xlink:href="group__lock__core.html" target="_top" xlink:title="base synchronization/lock primitive support.">
<polygon fill="white" stroke="#666666" points="177.5,-93 114.5,-93 114.5,-74 177.5,-74 177.5,-93"/>
<text text-anchor="middle" x="146" y="-81" font-family="Helvetica,sans-Serif" font-size="10.00">lock_core</text>
</a>
</g>
</g>
<!-- Node4 -->
<g id="Node000004" class="node">
<title>Node4</title>
<g id="a_Node000004"><a xlink:href="group__mutex.html" target="_top" xlink:title="Mutex API for non IRQ mutual exclusion between cores.">
<polygon fill="white" stroke="#666666" points="170,-56 122,-56 122,-37 170,-37 170,-56"/>
<text text-anchor="middle" x="146" y="-44" font-family="Helvetica,sans-Serif" font-size="10.00">mutex</text>
</a>
</g>
</g>
<!-- Node1 -->
<g id="Node000001" class="node">
<title>Node1</title>
<g id="a_Node000001"><a xlink:title="Synchronization primitives and mutual exclusion.">
<polygon fill="#999999" stroke="#666666" points="65,-74 0,-74 0,-55 65,-55 65,-74"/>
<text text-anchor="middle" x="32.5" y="-62" font-family="Helvetica,sans-Serif" font-size="10.00">pico_sync</text>
</a>
</g>
</g>
<!-- Node1&#45;&gt;Node2 -->
<g id="edge1" class="edge">
<title>Node1&#45;&gt;Node2</title>
<path fill="none" stroke="black" d="M58.26,-79.42C70.86,-86.75 86.53,-95.5 101,-102.5 107.09,-105.45 113.8,-108.35 120.09,-110.94"/>
<polygon fill="black" stroke="black" points="59.69,-76.19 49.29,-74.13 56.13,-82.23 59.69,-76.19"/>
</g>
<!-- Node1&#45;&gt;Node3 -->
<g id="edge2" class="edge">
<title>Node1&#45;&gt;Node3</title>
<path fill="none" stroke="black" d="M75.28,-71.62C88.27,-73.83 102.34,-76.23 114.42,-78.29"/>
<polygon fill="black" stroke="black" points="75.6,-68.12 65.15,-69.89 74.42,-75.02 75.6,-68.12"/>
</g>
<!-- Node1&#45;&gt;Node4 -->
<g id="edge3" class="edge">
<title>Node1&#45;&gt;Node4</title>
<path fill="none" stroke="black" d="M75.22,-57.77C90.97,-55.22 108.32,-52.42 121.78,-50.25"/>
<polygon fill="black" stroke="black" points="74.47,-54.34 65.15,-59.39 75.58,-61.25 74.47,-54.34"/>
</g>
<!-- Node5 -->
<g id="Node000005" class="node">
<title>Node5</title>
<g id="a_Node000005"><a xlink:href="group__sem.html" target="_top" xlink:title="Semaphore API for restricting access to a resource.">
<polygon fill="white" stroke="#666666" points="165,-19 127,-19 127,0 165,0 165,-19"/>
<text text-anchor="middle" x="146" y="-7" font-family="Helvetica,sans-Serif" font-size="10.00">sem</text>
</a>
</g>
</g>
<!-- Node1&#45;&gt;Node5 -->
<g id="edge4" class="edge">
<title>Node1&#45;&gt;Node5</title>
<path fill="none" stroke="black" d="M59.42,-50.03C71.87,-43.25 87.08,-35.2 101,-28.5 109.4,-24.46 118.87,-20.31 126.87,-16.93"/>
<polygon fill="black" stroke="black" points="57.58,-47.05 50.5,-54.93 60.95,-53.18 57.58,-47.05"/>
</g>
</g>
</svg>
