<?xml version="1.0" encoding="UTF-8" standalone="no"?>
<!DOCTYPE svg PUBLIC "-//W3C//DTD SVG 1.1//EN"
 "http://www.w3.org/Graphics/SVG/1.1/DTD/svg11.dtd">
<!-- Generated by graphviz version 2.43.0 (0)
 -->
<!-- Title: pico_time Pages: 1 -->
<svg width="204pt" height="138pt"
 viewBox="0.00 0.00 204.00 138.00" xmlns="http://www.w3.org/2000/svg" xmlns:xlink="http://www.w3.org/1999/xlink">
<g id="graph0" class="graph" transform="scale(1 1) rotate(0) translate(4 134)">
<title>pico_time</title>
<!-- Node4 -->
<g id="Node000004" class="node">
<title>Node4</title>
<g id="a_Node000004"><a xlink:href="group__alarm.html" target="_top" xlink:title="Alarm functions for scheduling future execution.">
<polygon fill="white" stroke="#666666" points="171,-130 126,-130 126,-111 171,-111 171,-130"/>
<text text-anchor="middle" x="148.5" y="-118" font-family="Helvetica,sans-Serif" font-size="10.00">alarm</text>
</a>
</g>
</g>
<!-- Node1 -->
<g id="Node000001" class="node">
<title>Node1</title>
<g id="a_Node000001"><a xlink:title="API for accurate timestamps, sleeping, and time based callbacks.">
<polygon fill="#999999" stroke="#666666" points="65,-74 0,-74 0,-55 65,-55 65,-74"/>
<text text-anchor="middle" x="32.5" y="-62" font-family="Helvetica,sans-Serif" font-size="10.00">pico_time</text>
</a>
</g>
</g>
<!-- Node1&#45;&gt;Node4 -->
<g id="edge3" class="edge">
<title>Node1&#45;&gt;Node4</title>
<path fill="none" stroke="black" d="M57.58,-79.17C70.27,-86.61 86.22,-95.52 101,-102.5 108.98,-106.27 117.99,-109.89 125.93,-112.89"/>
<polygon fill="black" stroke="black" points="59.37,-76.16 48.98,-74.06 55.79,-82.18 59.37,-76.16"/>
</g>
<!-- Node5 -->
<g id="Node000005" class="node">
<title>Node5</title>
<g id="a_Node000005"><a xlink:href="group__repeating__timer.html" target="_top" xlink:title="Repeating Timer functions for simple scheduling of repeated execution.">
<polygon fill="white" stroke="#666666" points="196,-93 101,-93 101,-74 196,-74 196,-93"/>
<text text-anchor="middle" x="148.5" y="-81" font-family="Helvetica,sans-Serif" font-size="10.00">repeating_timer</text>
</a>
</g>
</g>
<!-- Node1&#45;&gt;Node5 -->
<g id="edge4" class="edge">
<title>Node1&#45;&gt;Node5</title>
<path fill="none" stroke="black" d="M75.2,-71.45C83.59,-72.85 92.46,-74.33 101,-75.75"/>
<polygon fill="black" stroke="black" points="75.69,-67.98 65.26,-69.79 74.54,-74.89 75.69,-67.98"/>
</g>
<!-- Node3 -->
<g id="Node000003" class="node">
<title>Node3</title>
<g id="a_Node000003"><a xlink:href="group__sleep.html" target="_top" xlink:title="Sleep functions for delaying execution in a lower power state.">
<polygon fill="white" stroke="#666666" points="170,-56 127,-56 127,-37 170,-37 170,-56"/>
<text text-anchor="middle" x="148.5" y="-44" font-family="Helvetica,sans-Serif" font-size="10.00">sleep</text>
</a>
</g>
</g>
<!-- Node1&#45;&gt;Node3 -->
<g id="edge2" class="edge">
<title>Node1&#45;&gt;Node3</title>
<path fill="none" stroke="black" d="M75.27,-57.91C92.77,-55.14 112.35,-52.05 126.7,-49.78"/>
<polygon fill="black" stroke="black" points="74.59,-54.47 65.26,-59.49 75.68,-61.38 74.59,-54.47"/>
</g>
<!-- Node2 -->
<g id="Node000002" class="node">
<title>Node2</title>
<g id="a_Node000002"><a xlink:href="group__timestamp.html" target="_top" xlink:title="Timestamp functions relating to points in time (including the current time).">
<polygon fill="white" stroke="#666666" points="183.5,-19 113.5,-19 113.5,0 183.5,0 183.5,-19"/>
<text text-anchor="middle" x="148.5" y="-7" font-family="Helvetica,sans-Serif" font-size="10.00">timestamp</text>
</a>
</g>
</g>
<!-- Node1&#45;&gt;Node2 -->
<g id="edge1" class="edge">
<title>Node1&#45;&gt;Node2</title>
<path fill="none" stroke="black" d="M59.1,-50.05C71.59,-43.21 86.92,-35.11 101,-28.5 107.95,-25.24 115.61,-21.97 122.68,-19.09"/>
<polygon fill="black" stroke="black" points="57.23,-47.09 50.18,-54.99 60.62,-53.21 57.23,-47.09"/>
</g>
</g>
</svg>
