<?xml version="1.0" encoding="UTF-8" standalone="no"?>
<!DOCTYPE svg PUBLIC "-//W3C//DTD SVG 1.1//EN"
 "http://www.w3.org/Graphics/SVG/1.1/DTD/svg11.dtd">
<!-- Generated by graphviz version 2.43.0 (0)
 -->
<!-- Title: cyw43_driver Pages: 1 -->
<svg width="321pt" height="27pt"
 viewBox="0.00 0.00 321.00 27.00" xmlns="http://www.w3.org/2000/svg" xmlns:xlink="http://www.w3.org/1999/xlink">
<g id="graph0" class="graph" transform="scale(1 1) rotate(0) translate(4 23)">
<title>cyw43_driver</title>
<!-- Node1 -->
<g id="Node000001" class="node">
<title>Node1</title>
<g id="a_Node000001"><a xlink:title="Driver used for Pico W wireless.">
<polygon fill="#999999" stroke="#666666" points="218,-19 136,-19 136,0 218,0 218,-19"/>
<text text-anchor="middle" x="177" y="-7" font-family="Helvetica,sans-Serif" font-size="10.00">cyw43_driver</text>
</a>
</g>
</g>
<!-- Node3 -->
<g id="Node000003" class="node">
<title>Node3</title>
<g id="a_Node000003"><a xlink:href="group__cyw43__ll.html" target="_top" xlink:title="Low Level CYW43 driver interface.">
<polygon fill="white" stroke="#666666" points="313,-19 254,-19 254,0 313,0 313,-19"/>
<text text-anchor="middle" x="283.5" y="-7" font-family="Helvetica,sans-Serif" font-size="10.00">cyw43_ll</text>
</a>
</g>
</g>
<!-- Node1&#45;&gt;Node3 -->
<g id="edge2" class="edge">
<title>Node1&#45;&gt;Node3</title>
<path fill="none" stroke="black" d="M228.26,-9.5C236.99,-9.5 245.79,-9.5 253.69,-9.5"/>
<polygon fill="black" stroke="black" points="228.1,-6 218.1,-9.5 228.1,-13 228.1,-6"/>
</g>
<!-- Node2 -->
<g id="Node000002" class="node">
<title>Node2</title>
<g id="a_Node000002"><a xlink:href="group__pico__cyw43__arch.html" target="_top" xlink:title="Architecture for integrating the CYW43 driver (for the wireless on Pico W) and lwIP (for TCP/IP stack...">
<polygon fill="white" stroke="#666666" points="100,-19 0,-19 0,0 100,0 100,-19"/>
<text text-anchor="middle" x="50" y="-7" font-family="Helvetica,sans-Serif" font-size="10.00">pico_cyw43_arch</text>
</a>
</g>
</g>
<!-- Node2&#45;&gt;Node1 -->
<g id="edge1" class="edge">
<title>Node2&#45;&gt;Node1</title>
<path fill="none" stroke="black" d="M110.21,-9.5C118.93,-9.5 127.74,-9.5 135.96,-9.5"/>
<polygon fill="black" stroke="black" points="110.04,-6 100.04,-9.5 110.04,-13 110.04,-6"/>
</g>
</g>
</svg>
