<?xml version="1.0" encoding="UTF-8" standalone="no"?>
<!DOCTYPE svg PUBLIC "-//W3C//DTD SVG 1.1//EN"
 "http://www.w3.org/Graphics/SVG/1.1/DTD/svg11.dtd">
<!-- Generated by graphviz version 2.43.0 (0)
 -->
<!-- Title: Pi Pages: 1 -->
<svg width="126pt" height="64pt"
 viewBox="0.00 0.00 126.00 64.00" xmlns="http://www.w3.org/2000/svg" xmlns:xlink="http://www.w3.org/1999/xlink">
<g id="graph0" class="graph" transform="scale(1 1) rotate(0) translate(4 60)">
<title>Pi</title>
<!-- Node2 -->
<g id="Node000002" class="node">
<title>Node2</title>
<g id="a_Node000002"><a xlink:href="group__RP2040.html" target="_top" xlink:title=" ">
<polygon fill="white" stroke="#666666" points="118,-56 65,-56 65,-37 118,-37 118,-56"/>
<text text-anchor="middle" x="91.5" y="-44" font-family="Helvetica,sans-Serif" font-size="10.00">RP2040</text>
</a>
</g>
</g>
<!-- Node3 -->
<g id="Node000003" class="node">
<title>Node3</title>
<g id="a_Node000003"><a xlink:href="group__RP2350.html" target="_top" xlink:title=" ">
<polygon fill="white" stroke="#666666" points="118,-19 65,-19 65,0 118,0 118,-19"/>
<text text-anchor="middle" x="91.5" y="-7" font-family="Helvetica,sans-Serif" font-size="10.00">RP2350</text>
</a>
</g>
</g>
<!-- Node1 -->
<g id="Node000001" class="node">
<title>Node1</title>
<g id="a_Node000001"><a xlink:title=" ">
<polygon fill="#999999" stroke="#666666" points="29,-37 0,-37 0,-18 29,-18 29,-37"/>
<text text-anchor="middle" x="14.5" y="-25" font-family="Helvetica,sans-Serif" font-size="10.00">Pi</text>
</a>
</g>
</g>
<!-- Node1&#45;&gt;Node2 -->
<g id="edge1" class="edge">
<title>Node1&#45;&gt;Node2</title>
<path fill="none" stroke="black" d="M39.01,-33.45C47.26,-35.55 56.58,-37.91 65,-40.04"/>
<polygon fill="black" stroke="black" points="39.81,-30.05 29.26,-30.98 38.09,-36.83 39.81,-30.05"/>
</g>
<!-- Node1&#45;&gt;Node3 -->
<g id="edge2" class="edge">
<title>Node1&#45;&gt;Node3</title>
<path fill="none" stroke="black" d="M39.01,-21.86C47.26,-19.88 56.58,-17.64 65,-15.62"/>
<polygon fill="black" stroke="black" points="38.16,-18.46 29.26,-24.2 39.8,-25.27 38.16,-18.46"/>
</g>
</g>
</svg>
