<?xml version="1.0" encoding="UTF-8" standalone="no"?>
<!DOCTYPE svg PUBLIC "-//W3C//DTD SVG 1.1//EN"
 "http://www.w3.org/Graphics/SVG/1.1/DTD/svg11.dtd">
<!-- Generated by graphviz version 2.43.0 (0)
 -->
<!-- Title: pico_lwip Pages: 1 -->
<svg width="212pt" height="138pt"
 viewBox="0.00 0.00 212.00 138.00" xmlns="http://www.w3.org/2000/svg" xmlns:xlink="http://www.w3.org/1999/xlink">
<g id="graph0" class="graph" transform="scale(1 1) rotate(0) translate(4 134)">
<title>pico_lwip</title>
<!-- Node1 -->
<g id="Node000001" class="node">
<title>Node1</title>
<g id="a_Node000001"><a xlink:title="Integration/wrapper libraries for lwIP the documentation for which is here.">
<polygon fill="#999999" stroke="#666666" points="62,-74 0,-74 0,-55 62,-55 62,-74"/>
<text text-anchor="middle" x="31" y="-62" font-family="Helvetica,sans-Serif" font-size="10.00">pico_lwip</text>
</a>
</g>
</g>
<!-- Node2 -->
<g id="Node000002" class="node">
<title>Node2</title>
<g id="a_Node000002"><a xlink:href="group__pico__lwip__arch.html" target="_top" xlink:title="lwIP compiler adapters.">
<polygon fill="white" stroke="#666666" points="195.5,-130 106.5,-130 106.5,-111 195.5,-111 195.5,-130"/>
<text text-anchor="middle" x="151" y="-118" font-family="Helvetica,sans-Serif" font-size="10.00">pico_lwip_arch</text>
</a>
</g>
</g>
<!-- Node1&#45;&gt;Node2 -->
<g id="edge1" class="edge">
<title>Node1&#45;&gt;Node2</title>
<path fill="none" stroke="black" d="M55.52,-79.5C67.87,-86.99 83.43,-95.86 98,-102.5 104.78,-105.59 112.26,-108.47 119.37,-110.98"/>
<polygon fill="black" stroke="black" points="57.12,-76.37 46.77,-74.09 53.44,-82.32 57.12,-76.37"/>
</g>
<!-- Node4 -->
<g id="Node000004" class="node">
<title>Node4</title>
<g id="a_Node000004"><a xlink:href="group__pico__lwip__freertos.html" target="_top" xlink:title="Glue library for integration lwIP in NO_SYS=0 mode with the SDK.">
<polygon fill="white" stroke="#666666" points="204,-93 98,-93 98,-74 204,-74 204,-93"/>
<text text-anchor="middle" x="151" y="-81" font-family="Helvetica,sans-Serif" font-size="10.00">pico_lwip_freertos</text>
</a>
</g>
</g>
<!-- Node1&#45;&gt;Node4 -->
<g id="edge3" class="edge">
<title>Node1&#45;&gt;Node4</title>
<path fill="none" stroke="black" d="M72.22,-70.98C80.5,-72.31 89.33,-73.73 97.96,-75.12"/>
<polygon fill="black" stroke="black" points="72.51,-67.48 62.08,-69.34 71.4,-74.39 72.51,-67.48"/>
</g>
<!-- Node3 -->
<g id="Node000003" class="node">
<title>Node3</title>
<g id="a_Node000003"><a xlink:href="group__pico__lwip__http.html" target="_top" xlink:title="LwIP HTTP client and server library.">
<polygon fill="white" stroke="#666666" points="194.5,-56 107.5,-56 107.5,-37 194.5,-37 194.5,-56"/>
<text text-anchor="middle" x="151" y="-44" font-family="Helvetica,sans-Serif" font-size="10.00">pico_lwip_http</text>
</a>
</g>
</g>
<!-- Node1&#45;&gt;Node3 -->
<g id="edge2" class="edge">
<title>Node1&#45;&gt;Node3</title>
<path fill="none" stroke="black" d="M72.08,-58.39C83.35,-56.67 95.64,-54.79 107.06,-53.05"/>
<polygon fill="black" stroke="black" points="71.44,-54.94 62.08,-59.91 72.5,-61.86 71.44,-54.94"/>
</g>
<!-- Node5 -->
<g id="Node000005" class="node">
<title>Node5</title>
<g id="a_Node000005"><a xlink:href="group__pico__lwip__nosys.html" target="_top" xlink:title="Glue library for integration lwIP in NO_SYS=1 mode with the SDK.">
<polygon fill="white" stroke="#666666" points="199,-19 103,-19 103,0 199,0 199,-19"/>
<text text-anchor="middle" x="151" y="-7" font-family="Helvetica,sans-Serif" font-size="10.00">pico_lwip_nosys</text>
</a>
</g>
</g>
<!-- Node1&#45;&gt;Node5 -->
<g id="edge4" class="edge">
<title>Node1&#45;&gt;Node5</title>
<path fill="none" stroke="black" d="M56.65,-49.92C68.86,-42.98 83.98,-34.84 98,-28.5 105.53,-25.09 113.87,-21.83 121.63,-19"/>
<polygon fill="black" stroke="black" points="54.85,-46.91 47.93,-54.94 58.34,-52.98 54.85,-46.91"/>
</g>
</g>
</svg>
