<?xml version="1.0" encoding="UTF-8" standalone="no"?>
<!DOCTYPE svg PUBLIC "-//W3C//DTD SVG 1.1//EN"
 "http://www.w3.org/Graphics/SVG/1.1/DTD/svg11.dtd">
<!-- Generated by graphviz version 2.43.0 (0)
 -->
<!-- Title: flash.c Pages: 1 -->
<svg width="995pt" height="313pt"
 viewBox="0.00 0.00 994.50 313.00" xmlns="http://www.w3.org/2000/svg" xmlns:xlink="http://www.w3.org/1999/xlink">
<g id="graph0" class="graph" transform="scale(1 1) rotate(0) translate(4 309)">
<title>flash.c</title>
<!-- Node1 -->
<g id="Node000001" class="node">
<title>Node1</title>
<g id="a_Node000001"><a xlink:title=" ">
<polygon fill="#999999" stroke="#666666" points="450.5,-305 401.5,-305 401.5,-286 450.5,-286 450.5,-305"/>
<text text-anchor="middle" x="426" y="-293" font-family="Helvetica,sans-Serif" font-size="10.00">flash.c</text>
</a>
</g>
</g>
<!-- Node2 -->
<g id="Node000002" class="node">
<title>Node2</title>
<g id="a_Node000002"><a xlink:href="hardware__flash_2include_2hardware_2flash_8h.html" target="_top" xlink:title=" ">
<polygon fill="white" stroke="#666666" points="98,-129 0,-129 0,-110 98,-110 98,-129"/>
<text text-anchor="middle" x="49" y="-117" font-family="Helvetica,sans-Serif" font-size="10.00">hardware/flash.h</text>
</a>
</g>
</g>
<!-- Node1&#45;&gt;Node2 -->
<g id="edge1_Node000001_Node000002" class="edge">
<title>Node1&#45;&gt;Node2</title>
<g id="a_edge1_Node000001_Node000002"><a xlink:title=" ">
<path fill="none" stroke="#63b8ff" d="M401.42,-290.94C366.45,-285.3 300.86,-272.57 249,-250 176.93,-218.64 101.66,-162.48 67.65,-135.62"/>
<polygon fill="#63b8ff" stroke="#63b8ff" points="69.55,-132.66 59.55,-129.16 65.18,-138.13 69.55,-132.66"/>
</a>
</g>
</g>
<!-- Node4 -->
<g id="Node000004" class="node">
<title>Node4</title>
<g id="a_Node000004"><a xlink:href="bootrom_8h.html" target="_top" xlink:title=" ">
<polygon fill="white" stroke="#666666" points="348,-244.5 258,-244.5 258,-225.5 348,-225.5 348,-244.5"/>
<text text-anchor="middle" x="303" y="-232.5" font-family="Helvetica,sans-Serif" font-size="10.00">pico/bootrom.h</text>
</a>
</g>
</g>
<!-- Node1&#45;&gt;Node4 -->
<g id="edge3_Node000001_Node000004" class="edge">
<title>Node1&#45;&gt;Node4</title>
<g id="a_edge3_Node000001_Node000004"><a xlink:title=" ">
<path fill="none" stroke="#63b8ff" d="M408.11,-285.99C387.62,-276.25 353.81,-260.16 330.08,-248.88"/>
<polygon fill="#63b8ff" stroke="#63b8ff" points="331.44,-245.65 320.91,-244.52 328.43,-251.97 331.44,-245.65"/>
</a>
</g>
</g>
<!-- Node12 -->
<g id="Node000012" class="node">
<title>Node12</title>
<g id="a_Node000012"><a xlink:href="hardware__structs_2include_2hardware_2structs_2qmi_8h.html" target="_top" xlink:title=" ">
<polygon fill="white" stroke="#666666" points="836.5,-244.5 707.5,-244.5 707.5,-225.5 836.5,-225.5 836.5,-244.5"/>
<text text-anchor="middle" x="772" y="-232.5" font-family="Helvetica,sans-Serif" font-size="10.00">hardware/structs/qmi.h</text>
</a>
</g>
</g>
<!-- Node1&#45;&gt;Node12 -->
<g id="edge15_Node000001_Node000012" class="edge">
<title>Node1&#45;&gt;Node12</title>
<g id="a_edge15_Node000001_Node000012"><a xlink:title=" ">
<path fill="none" stroke="#63b8ff" d="M450.79,-290.66C498.64,-283.19 607.05,-266.04 698,-250 704.34,-248.88 710.97,-247.68 717.56,-246.46"/>
<polygon fill="#63b8ff" stroke="#63b8ff" points="718.63,-249.82 727.82,-244.54 717.34,-242.94 718.63,-249.82"/>
</a>
</g>
</g>
<!-- Node18 -->
<g id="Node000018" class="node">
<title>Node18</title>
<g id="a_Node000018"><a xlink:href="otp__data_8h.html" target="_top" xlink:title=" ">
<polygon fill="white" stroke="#666666" points="546.5,-244.5 405.5,-244.5 405.5,-225.5 546.5,-225.5 546.5,-244.5"/>
<text text-anchor="middle" x="476" y="-232.5" font-family="Helvetica,sans-Serif" font-size="10.00">hardware/regs/otp_data.h</text>
</a>
</g>
</g>
<!-- Node1&#45;&gt;Node18 -->
<g id="edge23_Node000001_Node000018" class="edge">
<title>Node1&#45;&gt;Node18</title>
<g id="a_edge23_Node000001_Node000018"><a xlink:title=" ">
<path fill="none" stroke="#63b8ff" d="M433.38,-285.87C440.91,-277.05 452.79,-263.16 462.09,-252.27"/>
<polygon fill="#63b8ff" stroke="#63b8ff" points="464.76,-254.54 468.59,-244.67 459.43,-250 464.76,-254.54"/>
</a>
</g>
</g>
<!-- Node19 -->
<g id="Node000019" class="node">
<title>Node19</title>
<g id="a_Node000019"><a xlink:title=" ">
<polygon fill="#e0e0e0" stroke="#999999" points="689.5,-250 564.5,-250 564.5,-220 689.5,-220 689.5,-250"/>
<text text-anchor="start" x="572.5" y="-238" font-family="Helvetica,sans-Serif" font-size="10.00">hardware/structs/pads</text>
<text text-anchor="middle" x="627" y="-227" font-family="Helvetica,sans-Serif" font-size="10.00">_qspi.h</text>
</a>
</g>
</g>
<!-- Node1&#45;&gt;Node19 -->
<g id="edge24_Node000001_Node000019" class="edge">
<title>Node1&#45;&gt;Node19</title>
<g id="a_edge24_Node000001_Node000019"><a xlink:title=" ">
<path fill="none" stroke="#63b8ff" d="M450.65,-287.33C479.93,-278.8 529.75,-264.3 568.98,-252.89"/>
<polygon fill="#63b8ff" stroke="#63b8ff" points="570.09,-256.21 578.71,-250.05 568.13,-249.49 570.09,-256.21"/>
</a>
</g>
</g>
<!-- Node20 -->
<g id="Node000020" class="node">
<title>Node20</title>
<g id="a_Node000020"><a xlink:href="xip__cache_8h.html" target="_top" xlink:title=" ">
<polygon fill="white" stroke="#666666" points="619.5,-184 496.5,-184 496.5,-165 619.5,-165 619.5,-184"/>
<text text-anchor="middle" x="558" y="-172" font-family="Helvetica,sans-Serif" font-size="10.00">hardware/xip_cache.h</text>
</a>
</g>
</g>
<!-- Node1&#45;&gt;Node20 -->
<g id="edge25_Node000001_Node000020" class="edge">
<title>Node1&#45;&gt;Node20</title>
<g id="a_edge25_Node000001_Node000020"><a xlink:title=" ">
<path fill="none" stroke="#63b8ff" d="M417.41,-285.94C403.74,-271.25 380.11,-240.85 396,-220 407.69,-204.67 450.5,-193.31 489.17,-185.9"/>
<polygon fill="#63b8ff" stroke="#63b8ff" points="490.22,-189.27 499.42,-184.01 488.95,-182.38 490.22,-189.27"/>
</a>
</g>
</g>
<!-- Node3 -->
<g id="Node000003" class="node">
<title>Node3</title>
<g id="a_Node000003"><a xlink:title=" ">
<polygon fill="#e0e0e0" stroke="#999999" points="286,-74 240,-74 240,-55 286,-55 286,-74"/>
<text text-anchor="middle" x="263" y="-62" font-family="Helvetica,sans-Serif" font-size="10.00">pico.h</text>
</a>
</g>
</g>
<!-- Node2&#45;&gt;Node3 -->
<g id="edge2_Node000002_Node000003" class="edge">
<title>Node2&#45;&gt;Node3</title>
<g id="a_edge2_Node000002_Node000003"><a xlink:title=" ">
<path fill="none" stroke="#63b8ff" d="M83.38,-109.98C123.82,-99.97 190.44,-83.47 230.18,-73.63"/>
<polygon fill="#63b8ff" stroke="#63b8ff" points="231.05,-77.02 239.91,-71.22 229.37,-70.22 231.05,-77.02"/>
</a>
</g>
</g>
<!-- Node4&#45;&gt;Node3 -->
<g id="edge4_Node000004_Node000003" class="edge">
<title>Node4&#45;&gt;Node3</title>
<g id="a_edge4_Node000004_Node000003"><a xlink:title=" ">
<path fill="none" stroke="#63b8ff" d="M283.67,-225.48C267.89,-217.34 246.66,-203.44 237,-184 222.36,-154.55 228.41,-141.75 237,-110 239.66,-100.19 245.07,-90.33 250.28,-82.39"/>
<polygon fill="#63b8ff" stroke="#63b8ff" points="253.23,-84.27 256.11,-74.07 247.5,-80.25 253.23,-84.27"/>
</a>
</g>
</g>
<!-- Node5 -->
<g id="Node000005" class="node">
<title>Node5</title>
<g id="a_Node000005"><a xlink:href="pico__bootrom_2include_2pico_2bootrom__constants_8h.html" target="_top" xlink:title=" ">
<polygon fill="white" stroke="#666666" points="529.5,-129 386.5,-129 386.5,-110 529.5,-110 529.5,-129"/>
<text text-anchor="middle" x="458" y="-117" font-family="Helvetica,sans-Serif" font-size="10.00">pico/bootrom_constants.h</text>
</a>
</g>
</g>
<!-- Node4&#45;&gt;Node5 -->
<g id="edge5_Node000004_Node000005" class="edge">
<title>Node4&#45;&gt;Node5</title>
<g id="a_edge5_Node000004_Node000005"><a xlink:title=" ">
<path fill="none" stroke="#63b8ff" d="M348.21,-227.98C377.83,-221.75 415.31,-209.2 439,-184 450.44,-171.83 455.02,-153.04 456.83,-139.05"/>
<polygon fill="#63b8ff" stroke="#63b8ff" points="460.32,-139.37 457.78,-129.08 453.35,-138.71 460.32,-139.37"/>
</a>
</g>
</g>
<!-- Node8 -->
<g id="Node000008" class="node">
<title>Node8</title>
<g id="a_Node000008"><a xlink:title=" ">
<polygon fill="#e0e0e0" stroke="#999999" points="430.5,-184 377.5,-184 377.5,-165 430.5,-165 430.5,-184"/>
<text text-anchor="middle" x="404" y="-172" font-family="Helvetica,sans-Serif" font-size="10.00">string.h</text>
</a>
</g>
</g>
<!-- Node4&#45;&gt;Node8 -->
<g id="edge8_Node000004_Node000008" class="edge">
<title>Node4&#45;&gt;Node8</title>
<g id="a_edge8_Node000004_Node000008"><a xlink:title=" ">
<path fill="none" stroke="#63b8ff" d="M317.9,-225.37C334.31,-215.86 360.93,-200.45 380.23,-189.27"/>
<polygon fill="#63b8ff" stroke="#63b8ff" points="382.14,-192.21 389.04,-184.17 378.63,-186.15 382.14,-192.21"/>
</a>
</g>
</g>
<!-- Node9 -->
<g id="Node000009" class="node">
<title>Node9</title>
<g id="a_Node000009"><a xlink:href="lock_8h.html" target="_top" xlink:title=" ">
<polygon fill="white" stroke="#666666" points="359.5,-184 246.5,-184 246.5,-165 359.5,-165 359.5,-184"/>
<text text-anchor="middle" x="303" y="-172" font-family="Helvetica,sans-Serif" font-size="10.00">pico/bootrom/lock.h</text>
</a>
</g>
</g>
<!-- Node4&#45;&gt;Node9 -->
<g id="edge9_Node000004_Node000009" class="edge">
<title>Node4&#45;&gt;Node9</title>
<g id="a_edge9_Node000004_Node000009"><a xlink:title=" ">
<path fill="none" stroke="#63b8ff" d="M303,-225.37C303,-217.25 303,-204.81 303,-194.39"/>
<polygon fill="#63b8ff" stroke="#63b8ff" points="306.5,-194.17 303,-184.17 299.5,-194.17 306.5,-194.17"/>
</a>
</g>
</g>
<!-- Node11 -->
<g id="Node000011" class="node">
<title>Node11</title>
<g id="a_Node000011"><a xlink:href="pico__flash_2include_2pico_2flash_8h.html" target="_top" xlink:title=" ">
<polygon fill="white" stroke="#666666" points="189.5,-129 116.5,-129 116.5,-110 189.5,-110 189.5,-129"/>
<text text-anchor="middle" x="153" y="-117" font-family="Helvetica,sans-Serif" font-size="10.00">pico/flash.h</text>
</a>
</g>
</g>
<!-- Node4&#45;&gt;Node11 -->
<g id="edge13_Node000004_Node000011" class="edge">
<title>Node4&#45;&gt;Node11</title>
<g id="a_edge13_Node000004_Node000011"><a xlink:title=" ">
<path fill="none" stroke="#63b8ff" d="M279.35,-225.4C258.19,-216.97 227.04,-202.67 204,-184 187.75,-170.84 173.26,-151.69 163.91,-137.87"/>
<polygon fill="#63b8ff" stroke="#63b8ff" points="166.71,-135.75 158.31,-129.29 160.85,-139.58 166.71,-135.75"/>
</a>
</g>
</g>
<!-- Node6 -->
<g id="Node000006" class="node">
<title>Node6</title>
<g id="a_Node000006"><a xlink:href="boot__bootrom__headers_2include_2boot_2bootrom__constants_8h.html" target="_top" xlink:title=" ">
<polygon fill="white" stroke="#666666" points="530,-74 386,-74 386,-55 530,-55 530,-74"/>
<text text-anchor="middle" x="458" y="-62" font-family="Helvetica,sans-Serif" font-size="10.00">boot/bootrom_constants.h</text>
</a>
</g>
</g>
<!-- Node5&#45;&gt;Node6 -->
<g id="edge6_Node000005_Node000006" class="edge">
<title>Node5&#45;&gt;Node6</title>
<g id="a_edge6_Node000005_Node000006"><a xlink:title=" ">
<path fill="none" stroke="#63b8ff" d="M458,-109.75C458,-102.8 458,-92.85 458,-84.13"/>
<polygon fill="#63b8ff" stroke="#63b8ff" points="461.5,-84.09 458,-74.09 454.5,-84.09 461.5,-84.09"/>
</a>
</g>
</g>
<!-- Node7 -->
<g id="Node000007" class="node">
<title>Node7</title>
<g id="a_Node000007"><a xlink:title=" ">
<polygon fill="#e0e0e0" stroke="#999999" points="503.5,-19 412.5,-19 412.5,0 503.5,0 503.5,-19"/>
<text text-anchor="middle" x="458" y="-7" font-family="Helvetica,sans-Serif" font-size="10.00">pico/platform.h</text>
</a>
</g>
</g>
<!-- Node6&#45;&gt;Node7 -->
<g id="edge7_Node000006_Node000007" class="edge">
<title>Node6&#45;&gt;Node7</title>
<g id="a_edge7_Node000006_Node000007"><a xlink:title=" ">
<path fill="none" stroke="#63b8ff" d="M458,-54.75C458,-47.8 458,-37.85 458,-29.13"/>
<polygon fill="#63b8ff" stroke="#63b8ff" points="461.5,-29.09 458,-19.09 454.5,-29.09 461.5,-29.09"/>
</a>
</g>
</g>
<!-- Node9&#45;&gt;Node5 -->
<g id="edge12_Node000009_Node000005" class="edge">
<title>Node9&#45;&gt;Node5</title>
<g id="a_edge12_Node000009_Node000005"><a xlink:title=" ">
<path fill="none" stroke="#63b8ff" d="M327.9,-164.98C353.7,-156.16 394.22,-142.31 423.18,-132.41"/>
<polygon fill="#63b8ff" stroke="#63b8ff" points="424.57,-135.63 432.9,-129.08 422.31,-129.01 424.57,-135.63"/>
</a>
</g>
</g>
<!-- Node10 -->
<g id="Node000010" class="node">
<title>Node10</title>
<g id="a_Node000010"><a xlink:href="boot__lock_8h.html" target="_top" xlink:title=" ">
<polygon fill="white" stroke="#666666" points="368,-129 246,-129 246,-110 368,-110 368,-129"/>
<text text-anchor="middle" x="307" y="-117" font-family="Helvetica,sans-Serif" font-size="10.00">hardware/boot_lock.h</text>
</a>
</g>
</g>
<!-- Node9&#45;&gt;Node10 -->
<g id="edge10_Node000009_Node000010" class="edge">
<title>Node9&#45;&gt;Node10</title>
<g id="a_edge10_Node000009_Node000010"><a xlink:title=" ">
<path fill="none" stroke="#63b8ff" d="M303.66,-164.75C304.18,-157.8 304.94,-147.85 305.59,-139.13"/>
<polygon fill="#63b8ff" stroke="#63b8ff" points="309.09,-139.32 306.35,-129.09 302.11,-138.8 309.09,-139.32"/>
</a>
</g>
</g>
<!-- Node10&#45;&gt;Node3 -->
<g id="edge11_Node000010_Node000003" class="edge">
<title>Node10&#45;&gt;Node3</title>
<g id="a_edge11_Node000010_Node000003"><a xlink:title=" ">
<path fill="none" stroke="#63b8ff" d="M299.73,-109.75C293.46,-102.18 284.21,-91.05 276.57,-81.84"/>
<polygon fill="#63b8ff" stroke="#63b8ff" points="279.21,-79.55 270.13,-74.09 273.83,-84.02 279.21,-79.55"/>
</a>
</g>
</g>
<!-- Node11&#45;&gt;Node3 -->
<g id="edge14_Node000011_Node000003" class="edge">
<title>Node11&#45;&gt;Node3</title>
<g id="a_edge14_Node000011_Node000003"><a xlink:title=" ">
<path fill="none" stroke="#63b8ff" d="M170.67,-109.98C188.29,-101.5 215.58,-88.35 235.93,-78.54"/>
<polygon fill="#63b8ff" stroke="#63b8ff" points="237.52,-81.66 245.01,-74.17 234.48,-75.36 237.52,-81.66"/>
</a>
</g>
</g>
<!-- Node13 -->
<g id="Node000013" class="node">
<title>Node13</title>
<g id="a_Node000013"><a xlink:href="address__mapped_8h.html" target="_top" xlink:title=" ">
<polygon fill="white" stroke="#666666" points="851,-184 693,-184 693,-165 851,-165 851,-184"/>
<text text-anchor="middle" x="772" y="-172" font-family="Helvetica,sans-Serif" font-size="10.00">hardware/address_mapped.h</text>
</a>
</g>
</g>
<!-- Node12&#45;&gt;Node13 -->
<g id="edge16_Node000012_Node000013" class="edge">
<title>Node12&#45;&gt;Node13</title>
<g id="a_edge16_Node000012_Node000013"><a xlink:title=" ">
<path fill="none" stroke="#63b8ff" d="M772,-225.37C772,-217.25 772,-204.81 772,-194.39"/>
<polygon fill="#63b8ff" stroke="#63b8ff" points="775.5,-194.17 772,-184.17 768.5,-194.17 775.5,-194.17"/>
</a>
</g>
</g>
<!-- Node17 -->
<g id="Node000017" class="node">
<title>Node17</title>
<g id="a_Node000017"><a xlink:href="hardware__regs_2include_2hardware_2regs_2qmi_8h.html" target="_top" xlink:title=" ">
<polygon fill="white" stroke="#666666" points="986.5,-184 869.5,-184 869.5,-165 986.5,-165 986.5,-184"/>
<text text-anchor="middle" x="928" y="-172" font-family="Helvetica,sans-Serif" font-size="10.00">hardware/regs/qmi.h</text>
</a>
</g>
</g>
<!-- Node12&#45;&gt;Node17 -->
<g id="edge22_Node000012_Node000017" class="edge">
<title>Node12&#45;&gt;Node17</title>
<g id="a_edge22_Node000012_Node000017"><a xlink:title=" ">
<path fill="none" stroke="#63b8ff" d="M794.68,-225.49C821.26,-215.53 865.48,-198.95 895.64,-187.63"/>
<polygon fill="#63b8ff" stroke="#63b8ff" points="897.15,-190.81 905.29,-184.02 894.7,-184.25 897.15,-190.81"/>
</a>
</g>
</g>
<!-- Node13&#45;&gt;Node3 -->
<g id="edge17_Node000013_Node000003" class="edge">
<title>Node13&#45;&gt;Node3</title>
<g id="a_edge17_Node000013_Node000003"><a xlink:title=" ">
<path fill="none" stroke="#63b8ff" d="M772.23,-164.89C772.09,-150.93 769.57,-123.55 753,-110 744.12,-102.74 405.03,-76.32 296.23,-68.02"/>
<polygon fill="#63b8ff" stroke="#63b8ff" points="296.39,-64.52 286.15,-67.25 295.85,-71.5 296.39,-64.52"/>
</a>
</g>
</g>
<!-- Node14 -->
<g id="Node000014" class="node">
<title>Node14</title>
<g id="a_Node000014"><a xlink:title=" ">
<polygon fill="#e0e0e0" stroke="#999999" points="744,-129 586,-129 586,-110 744,-110 744,-129"/>
<text text-anchor="middle" x="665" y="-117" font-family="Helvetica,sans-Serif" font-size="10.00">hardware/regs/addressmap.h</text>
</a>
</g>
</g>
<!-- Node13&#45;&gt;Node14 -->
<g id="edge18_Node000013_Node000014" class="edge">
<title>Node13&#45;&gt;Node14</title>
<g id="a_edge18_Node000013_Node000014"><a xlink:title=" ">
<path fill="none" stroke="#63b8ff" d="M754.81,-164.98C737.75,-156.54 711.37,-143.47 691.6,-133.68"/>
<polygon fill="#63b8ff" stroke="#63b8ff" points="693.02,-130.47 682.5,-129.17 689.91,-136.75 693.02,-130.47"/>
</a>
</g>
</g>
<!-- Node15 -->
<g id="Node000015" class="node">
<title>Node15</title>
<g id="a_Node000015"><a xlink:href="hardware__structs_2include_2hardware_2structs_2accessctrl_8h.html" target="_top" xlink:title=" ">
<polygon fill="white" stroke="#666666" points="958.5,-129 799.5,-129 799.5,-110 958.5,-110 958.5,-129"/>
<text text-anchor="middle" x="879" y="-117" font-family="Helvetica,sans-Serif" font-size="10.00">hardware/structs/accessctrl.h</text>
</a>
</g>
</g>
<!-- Node13&#45;&gt;Node15 -->
<g id="edge19_Node000013_Node000015" class="edge">
<title>Node13&#45;&gt;Node15</title>
<g id="a_edge19_Node000013_Node000015"><a xlink:title=" ">
<path fill="none" stroke="#63b8ff" d="M784.08,-164.98C799.41,-156.46 825.86,-143.23 847.04,-133.41"/>
<polygon fill="#63b8ff" stroke="#63b8ff" points="848.7,-136.5 856.35,-129.17 845.8,-130.13 848.7,-136.5"/>
</a>
</g>
</g>
<!-- Node15&#45;&gt;Node13 -->
<g id="edge20_Node000015_Node000013" class="edge">
<title>Node15&#45;&gt;Node13</title>
<g id="a_edge20_Node000015_Node000013"><a xlink:title=" ">
<path fill="none" stroke="#63b8ff" d="M866.64,-129.17C851.18,-137.75 824.69,-150.99 803.57,-160.77"/>
<polygon fill="#63b8ff" stroke="#63b8ff" points="801.96,-157.66 794.31,-164.98 804.86,-164.03 801.96,-157.66"/>
</a>
</g>
</g>
<!-- Node16 -->
<g id="Node000016" class="node">
<title>Node16</title>
<g id="a_Node000016"><a xlink:href="hardware__regs_2include_2hardware_2regs_2accessctrl_8h.html" target="_top" xlink:title=" ">
<polygon fill="white" stroke="#666666" points="952.5,-74 805.5,-74 805.5,-55 952.5,-55 952.5,-74"/>
<text text-anchor="middle" x="879" y="-62" font-family="Helvetica,sans-Serif" font-size="10.00">hardware/regs/accessctrl.h</text>
</a>
</g>
</g>
<!-- Node15&#45;&gt;Node16 -->
<g id="edge21_Node000015_Node000016" class="edge">
<title>Node15&#45;&gt;Node16</title>
<g id="a_edge21_Node000015_Node000016"><a xlink:title=" ">
<path fill="none" stroke="#63b8ff" d="M879,-109.75C879,-102.8 879,-92.85 879,-84.13"/>
<polygon fill="#63b8ff" stroke="#63b8ff" points="882.5,-84.09 879,-74.09 875.5,-84.09 882.5,-84.09"/>
</a>
</g>
</g>
<!-- Node20&#45;&gt;Node3 -->
<g id="edge26_Node000020_Node000003" class="edge">
<title>Node20&#45;&gt;Node3</title>
<g id="a_edge26_Node000020_Node000003"><a xlink:title=" ">
<path fill="none" stroke="#63b8ff" d="M557.96,-164.56C557.38,-150.63 554.09,-123.91 538,-110 519.91,-94.35 365.53,-76.31 296.33,-68.92"/>
<polygon fill="#63b8ff" stroke="#63b8ff" points="296.68,-65.44 286.37,-67.87 295.95,-72.4 296.68,-65.44"/>
</a>
</g>
</g>
<!-- Node20&#45;&gt;Node14 -->
<g id="edge27_Node000020_Node000014" class="edge">
<title>Node20&#45;&gt;Node14</title>
<g id="a_edge27_Node000020_Node000014"><a xlink:title=" ">
<path fill="none" stroke="#63b8ff" d="M575.19,-164.98C592.25,-156.54 618.63,-143.47 638.4,-133.68"/>
<polygon fill="#63b8ff" stroke="#63b8ff" points="640.09,-136.75 647.5,-129.17 636.98,-130.47 640.09,-136.75"/>
</a>
</g>
</g>
</g>
</svg>
