<?xml version="1.0" encoding="UTF-8" standalone="no"?>
<!DOCTYPE svg PUBLIC "-//W3C//DTD SVG 1.1//EN"
 "http://www.w3.org/Graphics/SVG/1.1/DTD/svg11.dtd">
<!-- Generated by graphviz version 2.43.0 (0)
 -->
<!-- Title: flash.h Pages: 1 -->
<svg width="374pt" height="137pt"
 viewBox="0.00 0.00 373.50 137.00" xmlns="http://www.w3.org/2000/svg" xmlns:xlink="http://www.w3.org/1999/xlink">
<g id="graph0" class="graph" transform="scale(1 1) rotate(0) translate(4 133)">
<title>flash.h</title>
<!-- Node1 -->
<g id="Node000001" class="node">
<title>Node1</title>
<g id="a_Node000001"><a xlink:title=" ">
<polygon fill="#999999" stroke="#666666" points="223.5,-129 173.5,-129 173.5,-110 223.5,-110 223.5,-129"/>
<text text-anchor="middle" x="198.5" y="-117" font-family="Helvetica,sans-Serif" font-size="10.00">flash.h</text>
</a>
</g>
</g>
<!-- Node2 -->
<g id="Node000002" class="node">
<title>Node2</title>
<g id="a_Node000002"><a xlink:href="btstack__flash__bank_8c.html" target="_top" xlink:title=" ">
<polygon fill="white" stroke="#666666" points="119,-19 0,-19 0,0 119,0 119,-19"/>
<text text-anchor="middle" x="59.5" y="-7" font-family="Helvetica,sans-Serif" font-size="10.00">btstack_flash_bank.c</text>
</a>
</g>
</g>
<!-- Node1&#45;&gt;Node2 -->
<g id="edge1_Node000001_Node000002" class="edge">
<title>Node1&#45;&gt;Node2</title>
<g id="a_edge1_Node000001_Node000002"><a xlink:title=" ">
<path fill="none" stroke="#63b8ff" d="M163.18,-113.98C136.43,-108.76 100.64,-97.61 78.5,-74 64.02,-58.55 60.54,-32.51 59.73,-19.08"/>
<polygon fill="#63b8ff" stroke="#63b8ff" points="162.84,-117.48 173.3,-115.77 164.06,-110.59 162.84,-117.48"/>
</a>
</g>
</g>
<!-- Node3 -->
<g id="Node000003" class="node">
<title>Node3</title>
<g id="a_Node000003"><a xlink:href="btstack__flash__bank_8h.html" target="_top" xlink:title=" ">
<polygon fill="white" stroke="#666666" points="207.5,-74 87.5,-74 87.5,-55 207.5,-55 207.5,-74"/>
<text text-anchor="middle" x="147.5" y="-62" font-family="Helvetica,sans-Serif" font-size="10.00">btstack_flash_bank.h</text>
</a>
</g>
</g>
<!-- Node1&#45;&gt;Node3 -->
<g id="edge2_Node000001_Node000003" class="edge">
<title>Node1&#45;&gt;Node3</title>
<g id="a_edge2_Node000001_Node000003"><a xlink:title=" ">
<path fill="none" stroke="#63b8ff" d="M183.12,-102.52C174.13,-93.18 163.14,-81.75 155.76,-74.09"/>
<polygon fill="#63b8ff" stroke="#63b8ff" points="180.62,-104.97 190.08,-109.75 185.67,-100.12 180.62,-104.97"/>
</a>
</g>
</g>
<!-- Node5 -->
<g id="Node000005" class="node">
<title>Node5</title>
<g id="a_Node000005"><a xlink:href="hardware__flash_2flash_8c.html" target="_top" xlink:title=" ">
<polygon fill="white" stroke="#666666" points="275,-74 226,-74 226,-55 275,-55 275,-74"/>
<text text-anchor="middle" x="250.5" y="-62" font-family="Helvetica,sans-Serif" font-size="10.00">flash.c</text>
</a>
</g>
</g>
<!-- Node1&#45;&gt;Node5 -->
<g id="edge5_Node000001_Node000005" class="edge">
<title>Node1&#45;&gt;Node5</title>
<g id="a_edge5_Node000001_Node000005"><a xlink:title=" ">
<path fill="none" stroke="#63b8ff" d="M214.18,-102.52C223.34,-93.18 234.55,-81.75 242.07,-74.09"/>
<polygon fill="#63b8ff" stroke="#63b8ff" points="211.59,-100.16 207.09,-109.75 216.59,-105.06 211.59,-100.16"/>
</a>
</g>
</g>
<!-- Node6 -->
<g id="Node000006" class="node">
<title>Node6</title>
<g id="a_Node000006"><a xlink:href="unique__id_8c.html" target="_top" xlink:title=" ">
<polygon fill="white" stroke="#666666" points="365.5,-74 293.5,-74 293.5,-55 365.5,-55 365.5,-74"/>
<text text-anchor="middle" x="329.5" y="-62" font-family="Helvetica,sans-Serif" font-size="10.00">unique_id.c</text>
</a>
</g>
</g>
<!-- Node1&#45;&gt;Node6 -->
<g id="edge6_Node000001_Node000006" class="edge">
<title>Node1&#45;&gt;Node6</title>
<g id="a_edge6_Node000001_Node000006"><a xlink:title=" ">
<path fill="none" stroke="#63b8ff" d="M229,-106.16C253.25,-96.35 286.57,-82.87 308.07,-74.17"/>
<polygon fill="#63b8ff" stroke="#63b8ff" points="227.5,-102.99 219.55,-109.98 230.13,-109.48 227.5,-102.99"/>
</a>
</g>
</g>
<!-- Node3&#45;&gt;Node2 -->
<g id="edge4_Node000003_Node000002" class="edge">
<title>Node3&#45;&gt;Node2</title>
<g id="a_edge4_Node000003_Node000002"><a xlink:title=" ">
<path fill="none" stroke="#63b8ff" d="M124.58,-49.7C108.55,-40.04 87.63,-27.44 73.9,-19.17"/>
<polygon fill="#63b8ff" stroke="#63b8ff" points="122.99,-52.82 133.36,-54.98 126.6,-46.83 122.99,-52.82"/>
</a>
</g>
</g>
<!-- Node4 -->
<g id="Node000004" class="node">
<title>Node4</title>
<g id="a_Node000004"><a xlink:href="btstack__cyw43_8c.html" target="_top" xlink:title=" ">
<polygon fill="white" stroke="#666666" points="235.5,-19 137.5,-19 137.5,0 235.5,0 235.5,-19"/>
<text text-anchor="middle" x="186.5" y="-7" font-family="Helvetica,sans-Serif" font-size="10.00">btstack_cyw43.c</text>
</a>
</g>
</g>
<!-- Node3&#45;&gt;Node4 -->
<g id="edge3_Node000003_Node000004" class="edge">
<title>Node3&#45;&gt;Node4</title>
<g id="a_edge3_Node000003_Node000004"><a xlink:title=" ">
<path fill="none" stroke="#63b8ff" d="M159.88,-46.67C166.64,-37.5 174.71,-26.52 180.18,-19.09"/>
<polygon fill="#63b8ff" stroke="#63b8ff" points="157.05,-44.62 153.94,-54.75 162.69,-48.77 157.05,-44.62"/>
</a>
</g>
</g>
</g>
</svg>
