<?xml version="1.0" encoding="UTF-8" standalone="no"?>
<!DOCTYPE svg PUBLIC "-//W3C//DTD SVG 1.1//EN"
 "http://www.w3.org/Graphics/SVG/1.1/DTD/svg11.dtd">
<!-- Generated by graphviz version 2.43.0 (0)
 -->
<!-- Title: accessctrl.h Pages: 1 -->
<svg width="3689pt" height="137pt"
 viewBox="0.00 0.00 3689.00 137.00" xmlns="http://www.w3.org/2000/svg" xmlns:xlink="http://www.w3.org/1999/xlink">
<g id="graph0" class="graph" transform="scale(1 1) rotate(0) translate(4 133)">
<title>accessctrl.h</title>
<!-- Node1 -->
<g id="Node000001" class="node">
<title>Node1</title>
<g id="a_Node000001"><a xlink:title=" ">
<polygon fill="#999999" stroke="#666666" points="1969.5,-129 1895.5,-129 1895.5,-110 1969.5,-110 1969.5,-129"/>
<text text-anchor="middle" x="1932.5" y="-117" font-family="Helvetica,sans-Serif" font-size="10.00">accessctrl.h</text>
</a>
</g>
</g>
<!-- Node2 -->
<g id="Node000002" class="node">
<title>Node2</title>
<g id="a_Node000002"><a xlink:href="address__mapped_8h.html" target="_top" xlink:title=" ">
<polygon fill="#fff0f0" stroke="red" points="1987,-74 1878,-74 1878,-55 1987,-55 1987,-74"/>
<text text-anchor="middle" x="1932.5" y="-62" font-family="Helvetica,sans-Serif" font-size="10.00">address_mapped.h</text>
</a>
</g>
</g>
<!-- Node1&#45;&gt;Node2 -->
<g id="edge1_Node000001_Node000002" class="edge">
<title>Node1&#45;&gt;Node2</title>
<g id="a_edge1_Node000001_Node000002"><a xlink:title=" ">
<path fill="none" stroke="#63b8ff" d="M1926.01,-99.66C1925.41,-90.93 1925.86,-80.99 1927.37,-74.09"/>
<polygon fill="#63b8ff" stroke="#63b8ff" points="1922.56,-100.29 1927.33,-109.75 1929.5,-99.38 1922.56,-100.29"/>
</a>
</g>
</g>
<!-- Node2&#45;&gt;Node1 -->
<g id="edge2_Node000002_Node000001" class="edge">
<title>Node2&#45;&gt;Node1</title>
<g id="a_edge2_Node000002_Node000001"><a xlink:title=" ">
<path fill="none" stroke="#63b8ff" d="M1938.98,-84.13C1939.6,-92.85 1939.16,-102.8 1937.67,-109.75"/>
<polygon fill="#63b8ff" stroke="#63b8ff" points="1942.43,-83.53 1937.63,-74.09 1935.49,-84.47 1942.43,-83.53"/>
</a>
</g>
</g>
<!-- Node3 -->
<g id="Node000003" class="node">
<title>Node3</title>
<g id="a_Node000003"><a xlink:href="rp2040_2hardware__structs_2include_2hardware_2structs_2adc_8h.html" target="_top" xlink:title=" ">
<polygon fill="white" stroke="#666666" points="43,-19 0,-19 0,0 43,0 43,-19"/>
<text text-anchor="middle" x="21.5" y="-7" font-family="Helvetica,sans-Serif" font-size="10.00">adc.h</text>
</a>
</g>
</g>
<!-- Node2&#45;&gt;Node3 -->
<g id="edge3_Node000002_Node000003" class="edge">
<title>Node2&#45;&gt;Node3</title>
<g id="a_edge3_Node000002_Node000003"><a xlink:title=" ">
<path fill="none" stroke="#63b8ff" d="M1867.8,-62.94C1558.02,-60.12 233.84,-46.53 51.5,-19 48.82,-18.6 46.05,-18.03 43.31,-17.37"/>
<polygon fill="#63b8ff" stroke="#63b8ff" points="1867.93,-66.44 1877.96,-63.03 1867.99,-59.44 1867.93,-66.44"/>
</a>
</g>
</g>
<!-- Node4 -->
<g id="Node000004" class="node">
<title>Node4</title>
<g id="a_Node000004"><a xlink:href="rp2350_2hardware__structs_2include_2hardware_2structs_2adc_8h.html" target="_top" xlink:title=" ">
<polygon fill="white" stroke="#666666" points="104,-19 61,-19 61,0 104,0 104,-19"/>
<text text-anchor="middle" x="82.5" y="-7" font-family="Helvetica,sans-Serif" font-size="10.00">adc.h</text>
</a>
</g>
</g>
<!-- Node2&#45;&gt;Node4 -->
<g id="edge4_Node000002_Node000004" class="edge">
<title>Node2&#45;&gt;Node4</title>
<g id="a_edge4_Node000002_Node000004"><a xlink:title=" ">
<path fill="none" stroke="#63b8ff" d="M1867.46,-62.88C1563.29,-59.85 288.44,-45.64 112.5,-19 109.82,-18.59 107.05,-18.02 104.32,-17.37"/>
<polygon fill="#63b8ff" stroke="#63b8ff" points="1867.84,-66.38 1877.87,-62.98 1867.91,-59.38 1867.84,-66.38"/>
</a>
</g>
</g>
<!-- Node5 -->
<g id="Node000005" class="node">
<title>Node5</title>
<g id="a_Node000005"><a xlink:href="hardware__structs_2include_2hardware_2structs_2bootram_8h.html" target="_top" xlink:title=" ">
<polygon fill="white" stroke="#666666" points="189,-19 122,-19 122,0 189,0 189,-19"/>
<text text-anchor="middle" x="155.5" y="-7" font-family="Helvetica,sans-Serif" font-size="10.00">bootram.h</text>
</a>
</g>
</g>
<!-- Node2&#45;&gt;Node5 -->
<g id="edge5_Node000002_Node000005" class="edge">
<title>Node2&#45;&gt;Node5</title>
<g id="a_edge5_Node000002_Node000005"><a xlink:title=" ">
<path fill="none" stroke="#63b8ff" d="M1867.4,-63.35C1593.07,-62.47 530.24,-56.65 197.5,-19 194.84,-18.7 192.1,-18.31 189.35,-17.88"/>
<polygon fill="#63b8ff" stroke="#63b8ff" points="1867.57,-66.85 1877.58,-63.38 1867.59,-59.85 1867.57,-66.85"/>
</a>
</g>
</g>
<!-- Node6 -->
<g id="Node000006" class="node">
<title>Node6</title>
<g id="a_Node000006"><a xlink:href="rp2040_2hardware__structs_2include_2hardware_2structs_2busctrl_8h.html" target="_top" xlink:title=" ">
<polygon fill="white" stroke="#666666" points="266,-19 207,-19 207,0 266,0 266,-19"/>
<text text-anchor="middle" x="236.5" y="-7" font-family="Helvetica,sans-Serif" font-size="10.00">busctrl.h</text>
</a>
</g>
</g>
<!-- Node2&#45;&gt;Node6 -->
<g id="edge6_Node000002_Node000006" class="edge">
<title>Node2&#45;&gt;Node6</title>
<g id="a_edge6_Node000002_Node000006"><a xlink:title=" ">
<path fill="none" stroke="#63b8ff" d="M1867.67,-63.43C1601.4,-62.9 591.04,-58.28 274.5,-19 271.82,-18.67 269.04,-18.23 266.28,-17.73"/>
<polygon fill="#63b8ff" stroke="#63b8ff" points="1867.93,-66.93 1877.94,-63.45 1867.94,-59.93 1867.93,-66.93"/>
</a>
</g>
</g>
<!-- Node7 -->
<g id="Node000007" class="node">
<title>Node7</title>
<g id="a_Node000007"><a xlink:href="rp2350_2hardware__structs_2include_2hardware_2structs_2busctrl_8h.html" target="_top" xlink:title=" ">
<polygon fill="white" stroke="#666666" points="343,-19 284,-19 284,0 343,0 343,-19"/>
<text text-anchor="middle" x="313.5" y="-7" font-family="Helvetica,sans-Serif" font-size="10.00">busctrl.h</text>
</a>
</g>
</g>
<!-- Node2&#45;&gt;Node7 -->
<g id="edge7_Node000002_Node000007" class="edge">
<title>Node2&#45;&gt;Node7</title>
<g id="a_edge7_Node000002_Node000007"><a xlink:title=" ">
<path fill="none" stroke="#63b8ff" d="M1867.34,-63.28C1608.56,-62.18 652.91,-55.64 352.5,-19 349.47,-18.63 346.33,-18.14 343.21,-17.57"/>
<polygon fill="#63b8ff" stroke="#63b8ff" points="1867.68,-66.79 1877.7,-63.33 1867.71,-59.79 1867.68,-66.79"/>
</a>
</g>
</g>
<!-- Node8 -->
<g id="Node000008" class="node">
<title>Node8</title>
<g id="a_Node000008"><a xlink:href="rp2040_2hardware__structs_2include_2hardware_2structs_2clocks_8h.html" target="_top" xlink:title=" ">
<polygon fill="white" stroke="#666666" points="417.5,-19 361.5,-19 361.5,0 417.5,0 417.5,-19"/>
<text text-anchor="middle" x="389.5" y="-7" font-family="Helvetica,sans-Serif" font-size="10.00">clocks.h</text>
</a>
</g>
</g>
<!-- Node2&#45;&gt;Node8 -->
<g id="edge8_Node000002_Node000008" class="edge">
<title>Node2&#45;&gt;Node8</title>
<g id="a_edge8_Node000002_Node000008"><a xlink:title=" ">
<path fill="none" stroke="#63b8ff" d="M1867.88,-63.28C1617.57,-62.16 711.66,-55.61 426.5,-19 423.62,-18.63 420.64,-18.14 417.68,-17.57"/>
<polygon fill="#63b8ff" stroke="#63b8ff" points="1867.89,-66.78 1877.9,-63.32 1867.92,-59.78 1867.89,-66.78"/>
</a>
</g>
</g>
<!-- Node9 -->
<g id="Node000009" class="node">
<title>Node9</title>
<g id="a_Node000009"><a xlink:href="rp2350_2hardware__structs_2include_2hardware_2structs_2clocks_8h.html" target="_top" xlink:title=" ">
<polygon fill="white" stroke="#666666" points="491.5,-19 435.5,-19 435.5,0 491.5,0 491.5,-19"/>
<text text-anchor="middle" x="463.5" y="-7" font-family="Helvetica,sans-Serif" font-size="10.00">clocks.h</text>
</a>
</g>
</g>
<!-- Node2&#45;&gt;Node9 -->
<g id="edge9_Node000002_Node000009" class="edge">
<title>Node2&#45;&gt;Node9</title>
<g id="a_edge9_Node000002_Node000009"><a xlink:title=" ">
<path fill="none" stroke="#63b8ff" d="M1867.86,-63.16C1625.43,-61.64 770.44,-53.86 500.5,-19 497.62,-18.63 494.64,-18.13 491.68,-17.57"/>
<polygon fill="#63b8ff" stroke="#63b8ff" points="1867.9,-66.66 1877.92,-63.23 1867.94,-59.66 1867.9,-66.66"/>
</a>
</g>
</g>
<!-- Node10 -->
<g id="Node000010" class="node">
<title>Node10</title>
<g id="a_Node000010"><a xlink:href="common_8c.html" target="_top" xlink:title=" ">
<polygon fill="white" stroke="#666666" points="577.5,-19 509.5,-19 509.5,0 577.5,0 577.5,-19"/>
<text text-anchor="middle" x="543.5" y="-7" font-family="Helvetica,sans-Serif" font-size="10.00">common.c</text>
</a>
</g>
</g>
<!-- Node2&#45;&gt;Node10 -->
<g id="edge10_Node000002_Node000010" class="edge">
<title>Node2&#45;&gt;Node10</title>
<g id="a_edge10_Node000002_Node000010"><a xlink:title=" ">
<path fill="none" stroke="#63b8ff" d="M1867.92,-62.75C1635.09,-59.84 839.28,-47.97 586.5,-19 583.63,-18.67 580.66,-18.25 577.69,-17.78"/>
<polygon fill="#63b8ff" stroke="#63b8ff" points="1867.88,-66.25 1877.92,-62.88 1867.97,-59.25 1867.88,-66.25"/>
</a>
</g>
</g>
<!-- Node11 -->
<g id="Node000011" class="node">
<title>Node11</title>
<g id="a_Node000011"><a xlink:href="hardware__structs_2include_2hardware_2structs_2coresight__trace_8h.html" target="_top" xlink:title=" ">
<polygon fill="white" stroke="#666666" points="697,-19 596,-19 596,0 697,0 697,-19"/>
<text text-anchor="middle" x="646.5" y="-7" font-family="Helvetica,sans-Serif" font-size="10.00">coresight_trace.h</text>
</a>
</g>
</g>
<!-- Node2&#45;&gt;Node11 -->
<g id="edge11_Node000002_Node000011" class="edge">
<title>Node2&#45;&gt;Node11</title>
<g id="a_edge11_Node000002_Node000011"><a xlink:title=" ">
<path fill="none" stroke="#63b8ff" d="M1867.69,-63.58C1684.7,-63.3 1148.58,-58.84 705.5,-19 702.82,-18.76 700.08,-18.48 697.31,-18.17"/>
<polygon fill="#63b8ff" stroke="#63b8ff" points="1867.94,-67.08 1877.94,-63.6 1867.95,-60.08 1867.94,-67.08"/>
</a>
</g>
</g>
<!-- Node12 -->
<g id="Node000012" class="node">
<title>Node12</title>
<g id="a_Node000012"><a xlink:href="rp2040_2hardware__structs_2include_2hardware_2structs_2dma_8h.html" target="_top" xlink:title=" ">
<polygon fill="white" stroke="#666666" points="762,-19 715,-19 715,0 762,0 762,-19"/>
<text text-anchor="middle" x="738.5" y="-7" font-family="Helvetica,sans-Serif" font-size="10.00">dma.h</text>
</a>
</g>
</g>
<!-- Node2&#45;&gt;Node12 -->
<g id="edge12_Node000002_Node000012" class="edge">
<title>Node2&#45;&gt;Node12</title>
<g id="a_edge12_Node000002_Node000012"><a xlink:title=" ">
<path fill="none" stroke="#63b8ff" d="M1867.63,-62.9C1655.64,-60.66 984.61,-51.13 770.5,-19 767.77,-18.59 764.94,-18.04 762.14,-17.4"/>
<polygon fill="#63b8ff" stroke="#63b8ff" points="1867.64,-66.4 1877.68,-63.01 1867.71,-59.4 1867.64,-66.4"/>
</a>
</g>
</g>
<!-- Node13 -->
<g id="Node000013" class="node">
<title>Node13</title>
<g id="a_Node000013"><a xlink:href="rp2350_2hardware__structs_2include_2hardware_2structs_2dma_8h.html" target="_top" xlink:title=" ">
<polygon fill="white" stroke="#666666" points="827,-19 780,-19 780,0 827,0 827,-19"/>
<text text-anchor="middle" x="803.5" y="-7" font-family="Helvetica,sans-Serif" font-size="10.00">dma.h</text>
</a>
</g>
</g>
<!-- Node2&#45;&gt;Node13 -->
<g id="edge13_Node000002_Node000013" class="edge">
<title>Node2&#45;&gt;Node13</title>
<g id="a_edge13_Node000002_Node000013"><a xlink:title=" ">
<path fill="none" stroke="#63b8ff" d="M1867.52,-62.73C1663.35,-60.02 1036.37,-49.38 835.5,-19 832.77,-18.59 829.94,-18.03 827.14,-17.4"/>
<polygon fill="#63b8ff" stroke="#63b8ff" points="1867.74,-66.23 1877.78,-62.87 1867.83,-59.23 1867.74,-66.23"/>
</a>
</g>
</g>
<!-- Node14 -->
<g id="Node000014" class="node">
<title>Node14</title>
<g id="a_Node000014"><a xlink:href="rp2040_2hardware__structs_2include_2hardware_2structs_2dma__debug_8h.html" target="_top" xlink:title=" ">
<polygon fill="white" stroke="#666666" points="928,-19 845,-19 845,0 928,0 928,-19"/>
<text text-anchor="middle" x="886.5" y="-7" font-family="Helvetica,sans-Serif" font-size="10.00">dma_debug.h</text>
</a>
</g>
</g>
<!-- Node2&#45;&gt;Node14 -->
<g id="edge14_Node000002_Node000014" class="edge">
<title>Node2&#45;&gt;Node14</title>
<g id="a_edge14_Node000002_Node000014"><a xlink:title=" ">
<path fill="none" stroke="#63b8ff" d="M1867.7,-63.38C1708.64,-62.47 1286.37,-56.41 936.5,-19 933.79,-18.71 931,-18.37 928.19,-17.98"/>
<polygon fill="#63b8ff" stroke="#63b8ff" points="1867.78,-66.88 1877.8,-63.43 1867.82,-59.88 1867.78,-66.88"/>
</a>
</g>
</g>
<!-- Node15 -->
<g id="Node000015" class="node">
<title>Node15</title>
<g id="a_Node000015"><a xlink:href="rp2350_2hardware__structs_2include_2hardware_2structs_2dma__debug_8h.html" target="_top" xlink:title=" ">
<polygon fill="white" stroke="#666666" points="1029,-19 946,-19 946,0 1029,0 1029,-19"/>
<text text-anchor="middle" x="987.5" y="-7" font-family="Helvetica,sans-Serif" font-size="10.00">dma_debug.h</text>
</a>
</g>
</g>
<!-- Node2&#45;&gt;Node15 -->
<g id="edge15_Node000002_Node000015" class="edge">
<title>Node2&#45;&gt;Node15</title>
<g id="a_edge15_Node000002_Node000015"><a xlink:title=" ">
<path fill="none" stroke="#63b8ff" d="M1867.67,-62.83C1720.07,-60.76 1347.81,-52.36 1038.5,-19 1035.47,-18.67 1032.34,-18.28 1029.19,-17.85"/>
<polygon fill="#63b8ff" stroke="#63b8ff" points="1867.86,-66.34 1877.91,-62.97 1867.95,-59.34 1867.86,-66.34"/>
</a>
</g>
</g>
<!-- Node16 -->
<g id="Node000016" class="node">
<title>Node16</title>
<g id="a_Node000016"><a xlink:href="exception_8h.html" target="_top" xlink:title=" ">
<polygon fill="#fff0f0" stroke="red" points="1121.5,-19 1047.5,-19 1047.5,0 1121.5,0 1121.5,-19"/>
<text text-anchor="middle" x="1084.5" y="-7" font-family="Helvetica,sans-Serif" font-size="10.00">exception.h</text>
</a>
</g>
</g>
<!-- Node2&#45;&gt;Node16 -->
<g id="edge16_Node000002_Node000016" class="edge">
<title>Node2&#45;&gt;Node16</title>
<g id="a_edge16_Node000002_Node000016"><a xlink:title=" ">
<path fill="none" stroke="#63b8ff" d="M1867.54,-62.69C1730.73,-60.38 1403.09,-51.61 1130.5,-19 1127.6,-18.65 1124.6,-18.23 1121.6,-17.77"/>
<polygon fill="#63b8ff" stroke="#63b8ff" points="1867.78,-66.2 1877.84,-62.86 1867.89,-59.2 1867.78,-66.2"/>
</a>
</g>
</g>
<!-- Node18 -->
<g id="Node000018" class="node">
<title>Node18</title>
<g id="a_Node000018"><a xlink:href="hardware__structs_2include_2hardware_2structs_2glitch__detector_8h.html" target="_top" xlink:title=" ">
<polygon fill="white" stroke="#666666" points="1237.5,-19 1139.5,-19 1139.5,0 1237.5,0 1237.5,-19"/>
<text text-anchor="middle" x="1188.5" y="-7" font-family="Helvetica,sans-Serif" font-size="10.00">glitch_detector.h</text>
</a>
</g>
</g>
<!-- Node2&#45;&gt;Node18 -->
<g id="edge17_Node000002_Node000018" class="edge">
<title>Node2&#45;&gt;Node18</title>
<g id="a_edge17_Node000002_Node000018"><a xlink:title=" ">
<path fill="none" stroke="#63b8ff" d="M1867.4,-61.03C1745.36,-56.01 1473.98,-43.01 1246.5,-19 1243.56,-18.69 1240.55,-18.34 1237.51,-17.97"/>
<polygon fill="#63b8ff" stroke="#63b8ff" points="1867.55,-64.54 1877.68,-61.45 1867.84,-57.54 1867.55,-64.54"/>
</a>
</g>
</g>
<!-- Node19 -->
<g id="Node000019" class="node">
<title>Node19</title>
<g id="a_Node000019"><a xlink:href="hardware__structs_2include_2hardware_2structs_2hstx__ctrl_8h.html" target="_top" xlink:title=" ">
<polygon fill="white" stroke="#666666" points="1323.5,-19 1255.5,-19 1255.5,0 1323.5,0 1323.5,-19"/>
<text text-anchor="middle" x="1289.5" y="-7" font-family="Helvetica,sans-Serif" font-size="10.00">hstx_ctrl.h</text>
</a>
</g>
</g>
<!-- Node2&#45;&gt;Node19 -->
<g id="edge18_Node000002_Node000019" class="edge">
<title>Node2&#45;&gt;Node19</title>
<g id="a_edge18_Node000002_Node000019"><a xlink:title=" ">
<path fill="none" stroke="#63b8ff" d="M1867.36,-61.25C1756.91,-56.87 1526.03,-45.21 1332.5,-19 1329.63,-18.61 1326.67,-18.15 1323.71,-17.65"/>
<polygon fill="#63b8ff" stroke="#63b8ff" points="1867.54,-64.76 1877.67,-61.66 1867.81,-57.77 1867.54,-64.76"/>
</a>
</g>
</g>
<!-- Node20 -->
<g id="Node000020" class="node">
<title>Node20</title>
<g id="a_Node000020"><a xlink:href="hardware__structs_2include_2hardware_2structs_2hstx__fifo_8h.html" target="_top" xlink:title=" ">
<polygon fill="white" stroke="#666666" points="1409.5,-19 1341.5,-19 1341.5,0 1409.5,0 1409.5,-19"/>
<text text-anchor="middle" x="1375.5" y="-7" font-family="Helvetica,sans-Serif" font-size="10.00">hstx_fifo.h</text>
</a>
</g>
</g>
<!-- Node2&#45;&gt;Node20 -->
<g id="edge19_Node000002_Node000020" class="edge">
<title>Node2&#45;&gt;Node20</title>
<g id="a_edge19_Node000002_Node000020"><a xlink:title=" ">
<path fill="none" stroke="#63b8ff" d="M1867.87,-60.17C1770.2,-54.62 1579.31,-41.79 1418.5,-19 1415.64,-18.59 1412.68,-18.12 1409.71,-17.61"/>
<polygon fill="#63b8ff" stroke="#63b8ff" points="1867.7,-63.66 1877.88,-60.73 1868.1,-56.67 1867.7,-63.66"/>
</a>
</g>
</g>
<!-- Node21 -->
<g id="Node000021" class="node">
<title>Node21</title>
<g id="a_Node000021"><a xlink:href="rp2350_2hardware__structs_2include_2hardware_2structs_2i2c_8h.html" target="_top" xlink:title=" ">
<polygon fill="white" stroke="#666666" points="1467.5,-19 1427.5,-19 1427.5,0 1467.5,0 1467.5,-19"/>
<text text-anchor="middle" x="1447.5" y="-7" font-family="Helvetica,sans-Serif" font-size="10.00">i2c.h</text>
</a>
</g>
</g>
<!-- Node2&#45;&gt;Node21 -->
<g id="edge20_Node000002_Node000021" class="edge">
<title>Node2&#45;&gt;Node21</title>
<g id="a_edge20_Node000002_Node000021"><a xlink:title=" ">
<path fill="none" stroke="#63b8ff" d="M1867.78,-61.01C1778.89,-56.72 1614.34,-45.68 1476.5,-19 1473.62,-18.44 1470.61,-17.72 1467.66,-16.94"/>
<polygon fill="#63b8ff" stroke="#63b8ff" points="1867.82,-64.52 1877.98,-61.49 1868.15,-57.52 1867.82,-64.52"/>
</a>
</g>
</g>
<!-- Node22 -->
<g id="Node000022" class="node">
<title>Node22</title>
<g id="a_Node000022"><a xlink:href="rp2040_2hardware__structs_2include_2hardware_2structs_2i2c_8h.html" target="_top" xlink:title=" ">
<polygon fill="white" stroke="#666666" points="1525.5,-19 1485.5,-19 1485.5,0 1525.5,0 1525.5,-19"/>
<text text-anchor="middle" x="1505.5" y="-7" font-family="Helvetica,sans-Serif" font-size="10.00">i2c.h</text>
</a>
</g>
</g>
<!-- Node2&#45;&gt;Node22 -->
<g id="edge21_Node000002_Node000022" class="edge">
<title>Node2&#45;&gt;Node22</title>
<g id="a_edge21_Node000002_Node000022"><a xlink:title=" ">
<path fill="none" stroke="#63b8ff" d="M1867.65,-59.72C1788.44,-54.31 1650.62,-42.33 1534.5,-19 1531.62,-18.42 1528.61,-17.69 1525.67,-16.9"/>
<polygon fill="#63b8ff" stroke="#63b8ff" points="1867.75,-63.24 1877.96,-60.41 1868.22,-56.25 1867.75,-63.24"/>
</a>
</g>
</g>
<!-- Node23 -->
<g id="Node000023" class="node">
<title>Node23</title>
<g id="a_Node000023"><a xlink:href="rp2350_2hardware__structs_2include_2hardware_2structs_2interp_8h.html" target="_top" xlink:title=" ">
<polygon fill="white" stroke="#666666" points="1597.5,-19 1543.5,-19 1543.5,0 1597.5,0 1597.5,-19"/>
<text text-anchor="middle" x="1570.5" y="-7" font-family="Helvetica,sans-Serif" font-size="10.00">interp.h</text>
</a>
</g>
</g>
<!-- Node2&#45;&gt;Node23 -->
<g id="edge22_Node000002_Node000023" class="edge">
<title>Node2&#45;&gt;Node23</title>
<g id="a_edge22_Node000002_Node000023"><a xlink:title=" ">
<path fill="none" stroke="#63b8ff" d="M1867.48,-56.49C1801.47,-48.94 1696.46,-35.72 1606.5,-19 1603.6,-18.46 1600.57,-17.84 1597.57,-17.19"/>
<polygon fill="#63b8ff" stroke="#63b8ff" points="1867.4,-60 1877.73,-57.65 1868.19,-53.05 1867.4,-60"/>
</a>
</g>
</g>
<!-- Node24 -->
<g id="Node000024" class="node">
<title>Node24</title>
<g id="a_Node000024"><a xlink:href="rp2040_2hardware__structs_2include_2hardware_2structs_2interp_8h.html" target="_top" xlink:title=" ">
<polygon fill="white" stroke="#666666" points="1669.5,-19 1615.5,-19 1615.5,0 1669.5,0 1669.5,-19"/>
<text text-anchor="middle" x="1642.5" y="-7" font-family="Helvetica,sans-Serif" font-size="10.00">interp.h</text>
</a>
</g>
</g>
<!-- Node2&#45;&gt;Node24 -->
<g id="edge23_Node000002_Node000024" class="edge">
<title>Node2&#45;&gt;Node24</title>
<g id="a_edge23_Node000002_Node000024"><a xlink:title=" ">
<path fill="none" stroke="#63b8ff" d="M1868.33,-53.32C1816.86,-44.9 1742.84,-32.22 1678.5,-19 1675.61,-18.41 1672.59,-17.75 1669.59,-17.08"/>
<polygon fill="#63b8ff" stroke="#63b8ff" points="1867.89,-56.8 1878.32,-54.95 1869.01,-49.89 1867.89,-56.8"/>
</a>
</g>
</g>
<!-- Node25 -->
<g id="Node000025" class="node">
<title>Node25</title>
<g id="a_Node000025"><a xlink:href="rp2350_2hardware__structs_2include_2hardware_2structs_2io__bank0_8h.html" target="_top" xlink:title=" ">
<polygon fill="white" stroke="#666666" points="1757.5,-19 1687.5,-19 1687.5,0 1757.5,0 1757.5,-19"/>
<text text-anchor="middle" x="1722.5" y="-7" font-family="Helvetica,sans-Serif" font-size="10.00">io_bank0.h</text>
</a>
</g>
</g>
<!-- Node2&#45;&gt;Node25 -->
<g id="edge24_Node000002_Node000025" class="edge">
<title>Node2&#45;&gt;Node25</title>
<g id="a_edge24_Node000002_Node000025"><a xlink:title=" ">
<path fill="none" stroke="#63b8ff" d="M1888.92,-52.5C1849.6,-42.58 1792.55,-28.18 1756.5,-19.08"/>
<polygon fill="#63b8ff" stroke="#63b8ff" points="1888.21,-55.93 1898.76,-54.98 1889.92,-49.14 1888.21,-55.93"/>
</a>
</g>
</g>
<!-- Node26 -->
<g id="Node000026" class="node">
<title>Node26</title>
<g id="a_Node000026"><a xlink:href="rp2040_2hardware__structs_2include_2hardware_2structs_2io__bank0_8h.html" target="_top" xlink:title=" ">
<polygon fill="white" stroke="#666666" points="1845.5,-19 1775.5,-19 1775.5,0 1845.5,0 1845.5,-19"/>
<text text-anchor="middle" x="1810.5" y="-7" font-family="Helvetica,sans-Serif" font-size="10.00">io_bank0.h</text>
</a>
</g>
</g>
<!-- Node2&#45;&gt;Node26 -->
<g id="edge25_Node000002_Node000026" class="edge">
<title>Node2&#45;&gt;Node26</title>
<g id="a_edge25_Node000002_Node000026"><a xlink:title=" ">
<path fill="none" stroke="#63b8ff" d="M1903.49,-50.9C1880.96,-41.11 1850.3,-27.79 1830.46,-19.17"/>
<polygon fill="#63b8ff" stroke="#63b8ff" points="1902.33,-54.21 1912.9,-54.98 1905.12,-47.79 1902.33,-54.21"/>
</a>
</g>
</g>
<!-- Node27 -->
<g id="Node000027" class="node">
<title>Node27</title>
<g id="a_Node000027"><a xlink:href="rp2350_2hardware__structs_2include_2hardware_2structs_2io__qspi_8h.html" target="_top" xlink:title=" ">
<polygon fill="white" stroke="#666666" points="1923.5,-19 1863.5,-19 1863.5,0 1923.5,0 1923.5,-19"/>
<text text-anchor="middle" x="1893.5" y="-7" font-family="Helvetica,sans-Serif" font-size="10.00">io_qspi.h</text>
</a>
</g>
</g>
<!-- Node2&#45;&gt;Node27 -->
<g id="edge26_Node000002_Node000027" class="edge">
<title>Node2&#45;&gt;Node27</title>
<g id="a_edge26_Node000002_Node000027"><a xlink:title=" ">
<path fill="none" stroke="#63b8ff" d="M1920.12,-46.67C1913.36,-37.5 1905.29,-26.52 1899.82,-19.09"/>
<polygon fill="#63b8ff" stroke="#63b8ff" points="1917.31,-48.77 1926.06,-54.75 1922.95,-44.62 1917.31,-48.77"/>
</a>
</g>
</g>
<!-- Node28 -->
<g id="Node000028" class="node">
<title>Node28</title>
<g id="a_Node000028"><a xlink:href="rp2040_2hardware__structs_2include_2hardware_2structs_2io__qspi_8h.html" target="_top" xlink:title=" ">
<polygon fill="white" stroke="#666666" points="2001.5,-19 1941.5,-19 1941.5,0 2001.5,0 2001.5,-19"/>
<text text-anchor="middle" x="1971.5" y="-7" font-family="Helvetica,sans-Serif" font-size="10.00">io_qspi.h</text>
</a>
</g>
</g>
<!-- Node2&#45;&gt;Node28 -->
<g id="edge27_Node000002_Node000028" class="edge">
<title>Node2&#45;&gt;Node28</title>
<g id="a_edge27_Node000002_Node000028"><a xlink:title=" ">
<path fill="none" stroke="#63b8ff" d="M1944.88,-46.67C1951.64,-37.5 1959.71,-26.52 1965.18,-19.09"/>
<polygon fill="#63b8ff" stroke="#63b8ff" points="1942.05,-44.62 1938.94,-54.75 1947.69,-48.77 1942.05,-44.62"/>
</a>
</g>
</g>
<!-- Node29 -->
<g id="Node000029" class="node">
<title>Node29</title>
<g id="a_Node000029"><a xlink:href="rp2__common_2hardware__irq_2include_2hardware_2irq_8h.html" target="_top" xlink:title=" ">
<polygon fill="white" stroke="#666666" points="2057.5,-19 2019.5,-19 2019.5,0 2057.5,0 2057.5,-19"/>
<text text-anchor="middle" x="2038.5" y="-7" font-family="Helvetica,sans-Serif" font-size="10.00">irq.h</text>
</a>
</g>
</g>
<!-- Node2&#45;&gt;Node29 -->
<g id="edge28_Node000002_Node000029" class="edge">
<title>Node2&#45;&gt;Node29</title>
<g id="a_edge28_Node000002_Node000029"><a xlink:title=" ">
<path fill="none" stroke="#63b8ff" d="M1958.5,-50.5C1978,-40.75 2004.15,-27.68 2021.16,-19.17"/>
<polygon fill="#63b8ff" stroke="#63b8ff" points="1956.91,-47.38 1949.53,-54.98 1960.04,-53.64 1956.91,-47.38"/>
</a>
</g>
</g>
<!-- Node30 -->
<g id="Node000030" class="node">
<title>Node30</title>
<g id="a_Node000030"><a xlink:href="hardware__structs_2include_2hardware_2structs_2m0plus_8h.html" target="_top" xlink:title=" ">
<polygon fill="#fff0f0" stroke="red" points="2137.5,-19 2075.5,-19 2075.5,0 2137.5,0 2137.5,-19"/>
<text text-anchor="middle" x="2106.5" y="-7" font-family="Helvetica,sans-Serif" font-size="10.00">m0plus.h</text>
</a>
</g>
</g>
<!-- Node2&#45;&gt;Node30 -->
<g id="edge29_Node000002_Node000030" class="edge">
<title>Node2&#45;&gt;Node30</title>
<g id="a_edge29_Node000002_Node000030"><a xlink:title=" ">
<path fill="none" stroke="#63b8ff" d="M1970.07,-52.06C2002.59,-42.15 2048.9,-28.04 2078.32,-19.08"/>
<polygon fill="#63b8ff" stroke="#63b8ff" points="1969,-48.72 1960.46,-54.98 1971.04,-55.42 1969,-48.72"/>
</a>
</g>
</g>
<!-- Node32 -->
<g id="Node000032" class="node">
<title>Node32</title>
<g id="a_Node000032"><a xlink:href="hardware__structs_2include_2hardware_2structs_2m33_8h.html" target="_top" xlink:title=" ">
<polygon fill="#fff0f0" stroke="red" points="2203,-19 2156,-19 2156,0 2203,0 2203,-19"/>
<text text-anchor="middle" x="2179.5" y="-7" font-family="Helvetica,sans-Serif" font-size="10.00">m33.h</text>
</a>
</g>
</g>
<!-- Node2&#45;&gt;Node32 -->
<g id="edge30_Node000002_Node000032" class="edge">
<title>Node2&#45;&gt;Node32</title>
<g id="a_edge30_Node000002_Node000032"><a xlink:title=" ">
<path fill="none" stroke="#63b8ff" d="M1986.53,-53C2029.9,-44.39 2092.27,-31.62 2146.5,-19 2149.5,-18.3 2152.64,-17.54 2155.74,-16.76"/>
<polygon fill="#63b8ff" stroke="#63b8ff" points="1985.62,-49.61 1976.49,-54.98 1986.98,-56.48 1985.62,-49.61"/>
</a>
</g>
</g>
<!-- Node36 -->
<g id="Node000036" class="node">
<title>Node36</title>
<g id="a_Node000036"><a xlink:href="hardware__structs_2include_2hardware_2structs_2m33__eppb_8h.html" target="_top" xlink:title=" ">
<polygon fill="white" stroke="#666666" points="2298,-19 2221,-19 2221,0 2298,0 2298,-19"/>
<text text-anchor="middle" x="2259.5" y="-7" font-family="Helvetica,sans-Serif" font-size="10.00">m33_eppb.h</text>
</a>
</g>
</g>
<!-- Node2&#45;&gt;Node36 -->
<g id="edge31_Node000002_Node000036" class="edge">
<title>Node2&#45;&gt;Node36</title>
<g id="a_edge31_Node000002_Node000036"><a xlink:title=" ">
<path fill="none" stroke="#63b8ff" d="M1996.94,-53.66C2053.73,-44.89 2138.68,-31.54 2212.5,-19 2215.2,-18.54 2217.98,-18.06 2220.78,-17.57"/>
<polygon fill="#63b8ff" stroke="#63b8ff" points="1996.37,-50.2 1987.02,-55.19 1997.44,-57.12 1996.37,-50.2"/>
</a>
</g>
</g>
<!-- Node37 -->
<g id="Node000037" class="node">
<title>Node37</title>
<g id="a_Node000037"><a xlink:href="rp2040_2hardware__structs_2include_2hardware_2structs_2mpu_8h.html" target="_top" xlink:title=" ">
<polygon fill="white" stroke="#666666" points="2363,-19 2316,-19 2316,0 2363,0 2363,-19"/>
<text text-anchor="middle" x="2339.5" y="-7" font-family="Helvetica,sans-Serif" font-size="10.00">mpu.h</text>
</a>
</g>
</g>
<!-- Node2&#45;&gt;Node37 -->
<g id="edge32_Node000002_Node000037" class="edge">
<title>Node2&#45;&gt;Node37</title>
<g id="a_edge32_Node000002_Node000037"><a xlink:title=" ">
<path fill="none" stroke="#63b8ff" d="M1997.46,-58.6C2072.57,-52.29 2199.72,-39.6 2307.5,-19 2310.21,-18.48 2313.03,-17.86 2315.82,-17.19"/>
<polygon fill="#63b8ff" stroke="#63b8ff" points="1996.89,-55.14 1987.21,-59.45 1997.46,-62.11 1996.89,-55.14"/>
</a>
</g>
</g>
<!-- Node38 -->
<g id="Node000038" class="node">
<title>Node38</title>
<g id="a_Node000038"><a xlink:href="rp2350_2hardware__structs_2include_2hardware_2structs_2mpu_8h.html" target="_top" xlink:title=" ">
<polygon fill="white" stroke="#666666" points="2428,-19 2381,-19 2381,0 2428,0 2428,-19"/>
<text text-anchor="middle" x="2404.5" y="-7" font-family="Helvetica,sans-Serif" font-size="10.00">mpu.h</text>
</a>
</g>
</g>
<!-- Node2&#45;&gt;Node38 -->
<g id="edge33_Node000002_Node000038" class="edge">
<title>Node2&#45;&gt;Node38</title>
<g id="a_edge33_Node000002_Node000038"><a xlink:title=" ">
<path fill="none" stroke="#63b8ff" d="M1997.23,-60.18C2083.43,-55.02 2240.4,-43.07 2372.5,-19 2375.21,-18.51 2378.04,-17.9 2380.83,-17.24"/>
<polygon fill="#63b8ff" stroke="#63b8ff" points="1996.86,-56.69 1987.08,-60.77 1997.27,-63.68 1996.86,-56.69"/>
</a>
</g>
</g>
<!-- Node39 -->
<g id="Node000039" class="node">
<title>Node39</title>
<g id="a_Node000039"><a xlink:href="rp2040_2hardware__structs_2include_2hardware_2structs_2nvic_8h.html" target="_top" xlink:title=" ">
<polygon fill="white" stroke="#666666" points="2492.5,-19 2446.5,-19 2446.5,0 2492.5,0 2492.5,-19"/>
<text text-anchor="middle" x="2469.5" y="-7" font-family="Helvetica,sans-Serif" font-size="10.00">nvic.h</text>
</a>
</g>
</g>
<!-- Node2&#45;&gt;Node39 -->
<g id="edge34_Node000002_Node000039" class="edge">
<title>Node2&#45;&gt;Node39</title>
<g id="a_edge34_Node000002_Node000039"><a xlink:title=" ">
<path fill="none" stroke="#63b8ff" d="M1997.27,-61.35C2093.81,-57.34 2280.88,-46.49 2437.5,-19 2440.33,-18.5 2443.28,-17.88 2446.18,-17.19"/>
<polygon fill="#63b8ff" stroke="#63b8ff" points="1996.93,-57.86 1987.08,-61.76 1997.21,-64.85 1996.93,-57.86"/>
</a>
</g>
</g>
<!-- Node40 -->
<g id="Node000040" class="node">
<title>Node40</title>
<g id="a_Node000040"><a xlink:href="rp2350_2hardware__structs_2include_2hardware_2structs_2nvic_8h.html" target="_top" xlink:title=" ">
<polygon fill="white" stroke="#666666" points="2556.5,-19 2510.5,-19 2510.5,0 2556.5,0 2556.5,-19"/>
<text text-anchor="middle" x="2533.5" y="-7" font-family="Helvetica,sans-Serif" font-size="10.00">nvic.h</text>
</a>
</g>
</g>
<!-- Node2&#45;&gt;Node40 -->
<g id="edge35_Node000002_Node000040" class="edge">
<title>Node2&#45;&gt;Node40</title>
<g id="a_edge35_Node000002_Node000040"><a xlink:title=" ">
<path fill="none" stroke="#63b8ff" d="M1997.26,-62.25C2103.35,-59.36 2320.48,-49.86 2501.5,-19 2504.33,-18.52 2507.28,-17.9 2510.19,-17.22"/>
<polygon fill="#63b8ff" stroke="#63b8ff" points="1996.94,-58.76 1987.04,-62.52 1997.13,-65.76 1996.94,-58.76"/>
</a>
</g>
</g>
<!-- Node41 -->
<g id="Node000041" class="node">
<title>Node41</title>
<g id="a_Node000041"><a xlink:href="hardware__structs_2include_2hardware_2structs_2otp_8h.html" target="_top" xlink:title=" ">
<polygon fill="white" stroke="#666666" points="2616,-19 2575,-19 2575,0 2616,0 2616,-19"/>
<text text-anchor="middle" x="2595.5" y="-7" font-family="Helvetica,sans-Serif" font-size="10.00">otp.h</text>
</a>
</g>
</g>
<!-- Node2&#45;&gt;Node41 -->
<g id="edge36_Node000002_Node000041" class="edge">
<title>Node2&#45;&gt;Node41</title>
<g id="a_edge36_Node000002_Node000041"><a xlink:title=" ">
<path fill="none" stroke="#63b8ff" d="M1997.21,-63.33C2112.37,-62.05 2360.09,-54.93 2565.5,-19 2568.59,-18.46 2571.82,-17.73 2574.97,-16.92"/>
<polygon fill="#63b8ff" stroke="#63b8ff" points="1997.11,-59.83 1987.15,-63.43 1997.18,-66.83 1997.11,-59.83"/>
</a>
</g>
</g>
<!-- Node42 -->
<g id="Node000042" class="node">
<title>Node42</title>
<g id="a_Node000042"><a xlink:href="rp2350_2hardware__structs_2include_2hardware_2structs_2pads__bank0_8h.html" target="_top" xlink:title=" ">
<polygon fill="white" stroke="#666666" points="2718.5,-19 2634.5,-19 2634.5,0 2718.5,0 2718.5,-19"/>
<text text-anchor="middle" x="2676.5" y="-7" font-family="Helvetica,sans-Serif" font-size="10.00">pads_bank0.h</text>
</a>
</g>
</g>
<!-- Node2&#45;&gt;Node42 -->
<g id="edge37_Node000002_Node000042" class="edge">
<title>Node2&#45;&gt;Node42</title>
<g id="a_edge37_Node000002_Node000042"><a xlink:title=" ">
<path fill="none" stroke="#63b8ff" d="M1997.38,-61.52C2120.28,-57.29 2395.36,-45.5 2625.5,-19 2628.35,-18.67 2631.29,-18.29 2634.25,-17.88"/>
<polygon fill="#63b8ff" stroke="#63b8ff" points="1996.9,-58.04 1987.02,-61.87 1997.14,-65.03 1996.9,-58.04"/>
</a>
</g>
</g>
<!-- Node43 -->
<g id="Node000043" class="node">
<title>Node43</title>
<g id="a_Node000043"><a xlink:href="rp2040_2hardware__structs_2include_2hardware_2structs_2pads__bank0_8h.html" target="_top" xlink:title=" ">
<polygon fill="white" stroke="#666666" points="2820.5,-19 2736.5,-19 2736.5,0 2820.5,0 2820.5,-19"/>
<text text-anchor="middle" x="2778.5" y="-7" font-family="Helvetica,sans-Serif" font-size="10.00">pads_bank0.h</text>
</a>
</g>
</g>
<!-- Node2&#45;&gt;Node43 -->
<g id="edge38_Node000002_Node000043" class="edge">
<title>Node2&#45;&gt;Node43</title>
<g id="a_edge38_Node000002_Node000043"><a xlink:title=" ">
<path fill="none" stroke="#63b8ff" d="M1997.36,-62.27C2133.19,-59.16 2457.35,-48.98 2727.5,-19 2730.35,-18.68 2733.29,-18.31 2736.25,-17.91"/>
<polygon fill="#63b8ff" stroke="#63b8ff" points="1997.05,-58.77 1987.13,-62.5 1997.21,-65.77 1997.05,-58.77"/>
</a>
</g>
</g>
<!-- Node44 -->
<g id="Node000044" class="node">
<title>Node44</title>
<g id="a_Node000044"><a xlink:href="rp2350_2hardware__structs_2include_2hardware_2structs_2pads__qspi_8h.html" target="_top" xlink:title=" ">
<polygon fill="white" stroke="#666666" points="2912.5,-19 2838.5,-19 2838.5,0 2912.5,0 2912.5,-19"/>
<text text-anchor="middle" x="2875.5" y="-7" font-family="Helvetica,sans-Serif" font-size="10.00">pads_qspi.h</text>
</a>
</g>
</g>
<!-- Node2&#45;&gt;Node44 -->
<g id="edge39_Node000002_Node000044" class="edge">
<title>Node2&#45;&gt;Node44</title>
<g id="a_edge39_Node000002_Node000044"><a xlink:title=" ">
<path fill="none" stroke="#63b8ff" d="M1997.32,-63.24C2145.32,-61.99 2519.27,-55.19 2829.5,-19 2832.4,-18.66 2835.4,-18.25 2838.41,-17.79"/>
<polygon fill="#63b8ff" stroke="#63b8ff" points="1997.03,-59.74 1987.06,-63.32 1997.09,-66.74 1997.03,-59.74"/>
</a>
</g>
</g>
<!-- Node45 -->
<g id="Node000045" class="node">
<title>Node45</title>
<g id="a_Node000045"><a xlink:href="rp2040_2hardware__structs_2include_2hardware_2structs_2pads__qspi_8h.html" target="_top" xlink:title=" ">
<polygon fill="white" stroke="#666666" points="3004.5,-19 2930.5,-19 2930.5,0 3004.5,0 3004.5,-19"/>
<text text-anchor="middle" x="2967.5" y="-7" font-family="Helvetica,sans-Serif" font-size="10.00">pads_qspi.h</text>
</a>
</g>
</g>
<!-- Node2&#45;&gt;Node45 -->
<g id="edge40_Node000002_Node000045" class="edge">
<title>Node2&#45;&gt;Node45</title>
<g id="a_edge40_Node000002_Node000045"><a xlink:title=" ">
<path fill="none" stroke="#63b8ff" d="M1997.16,-63.66C2155.41,-63.4 2574.57,-58.67 2921.5,-19 2924.4,-18.67 2927.4,-18.26 2930.41,-17.81"/>
<polygon fill="#63b8ff" stroke="#63b8ff" points="1997.11,-60.16 1987.12,-63.68 1997.12,-67.16 1997.11,-60.16"/>
</a>
</g>
</g>
<!-- Node46 -->
<g id="Node000046" class="node">
<title>Node46</title>
<g id="a_Node000046"><a xlink:href="rp2350_2hardware__structs_2include_2hardware_2structs_2pio_8h.html" target="_top" xlink:title=" ">
<polygon fill="white" stroke="#666666" points="3064,-19 3023,-19 3023,0 3064,0 3064,-19"/>
<text text-anchor="middle" x="3043.5" y="-7" font-family="Helvetica,sans-Serif" font-size="10.00">pio.h</text>
</a>
</g>
</g>
<!-- Node2&#45;&gt;Node46 -->
<g id="edge41_Node000002_Node000046" class="edge">
<title>Node2&#45;&gt;Node46</title>
<g id="a_edge41_Node000002_Node000046"><a xlink:title=" ">
<path fill="none" stroke="#63b8ff" d="M1997.25,-62.83C2199.24,-60.41 2816.04,-50.59 3013.5,-19 3016.6,-18.5 3019.84,-17.8 3022.99,-17"/>
<polygon fill="#63b8ff" stroke="#63b8ff" points="1997.05,-59.33 1987.1,-62.95 1997.14,-66.33 1997.05,-59.33"/>
</a>
</g>
</g>
<!-- Node47 -->
<g id="Node000047" class="node">
<title>Node47</title>
<g id="a_Node000047"><a xlink:href="rp2__common_2hardware__pio_2include_2hardware_2pio_8h.html" target="_top" xlink:title=" ">
<polygon fill="#fff0f0" stroke="red" points="3123,-19 3082,-19 3082,0 3123,0 3123,-19"/>
<text text-anchor="middle" x="3102.5" y="-7" font-family="Helvetica,sans-Serif" font-size="10.00">pio.h</text>
</a>
</g>
</g>
<!-- Node2&#45;&gt;Node47 -->
<g id="edge42_Node000002_Node000047" class="edge">
<title>Node2&#45;&gt;Node47</title>
<g id="a_edge42_Node000002_Node000047"><a xlink:title=" ">
<path fill="none" stroke="#63b8ff" d="M1997.26,-63.07C2206.66,-61.34 2864.03,-53.24 3073.5,-19 3076.19,-18.56 3078.99,-17.95 3081.73,-17.25"/>
<polygon fill="#63b8ff" stroke="#63b8ff" points="1997.01,-59.57 1987.04,-63.15 1997.07,-66.57 1997.01,-59.57"/>
</a>
</g>
</g>
<!-- Node50 -->
<g id="Node000050" class="node">
<title>Node50</title>
<g id="a_Node000050"><a xlink:href="rp2040_2hardware__structs_2include_2hardware_2structs_2pio_8h.html" target="_top" xlink:title=" ">
<polygon fill="white" stroke="#666666" points="3182,-19 3141,-19 3141,0 3182,0 3182,-19"/>
<text text-anchor="middle" x="3161.5" y="-7" font-family="Helvetica,sans-Serif" font-size="10.00">pio.h</text>
</a>
</g>
</g>
<!-- Node2&#45;&gt;Node50 -->
<g id="edge43_Node000002_Node000050" class="edge">
<title>Node2&#45;&gt;Node50</title>
<g id="a_edge43_Node000002_Node000050"><a xlink:title=" ">
<path fill="none" stroke="#63b8ff" d="M1997.28,-63.21C2213.78,-61.92 2911.06,-54.98 3132.5,-19 3135.19,-18.56 3137.99,-17.95 3140.73,-17.26"/>
<polygon fill="#63b8ff" stroke="#63b8ff" points="1997.01,-59.71 1987.03,-63.27 1997.05,-66.71 1997.01,-59.71"/>
</a>
</g>
</g>
<!-- Node51 -->
<g id="Node000051" class="node">
<title>Node51</title>
<g id="a_Node000051"><a xlink:href="rp2350_2pico__platform_2platform_8c.html" target="_top" xlink:title=" ">
<polygon fill="white" stroke="#666666" points="3267,-19 3200,-19 3200,0 3267,0 3267,-19"/>
<text text-anchor="middle" x="3233.5" y="-7" font-family="Helvetica,sans-Serif" font-size="10.00">platform.c</text>
</a>
</g>
</g>
<!-- Node2&#45;&gt;Node51 -->
<g id="edge44_Node000002_Node000051" class="edge">
<title>Node2&#45;&gt;Node51</title>
<g id="a_edge44_Node000002_Node000051"><a xlink:title=" ">
<path fill="none" stroke="#63b8ff" d="M1997.33,-62.62C2220.58,-59.36 2956.71,-46.72 3191.5,-19 3194.16,-18.69 3196.9,-18.29 3199.65,-17.85"/>
<polygon fill="#63b8ff" stroke="#63b8ff" points="1997.03,-59.12 1987.09,-62.77 1997.14,-66.12 1997.03,-59.12"/>
</a>
</g>
</g>
<!-- Node52 -->
<g id="Node000052" class="node">
<title>Node52</title>
<g id="a_Node000052"><a xlink:href="rp2040_2pico__platform_2platform_8c.html" target="_top" xlink:title=" ">
<polygon fill="white" stroke="#666666" points="3352,-19 3285,-19 3285,0 3352,0 3352,-19"/>
<text text-anchor="middle" x="3318.5" y="-7" font-family="Helvetica,sans-Serif" font-size="10.00">platform.c</text>
</a>
</g>
</g>
<!-- Node2&#45;&gt;Node52 -->
<g id="edge45_Node000002_Node000052" class="edge">
<title>Node2&#45;&gt;Node52</title>
<g id="a_edge45_Node000002_Node000052"><a xlink:title=" ">
<path fill="none" stroke="#63b8ff" d="M1997.39,-62.78C2230.38,-59.99 3024.31,-48.49 3276.5,-19 3279.16,-18.69 3281.9,-18.3 3284.65,-17.85"/>
<polygon fill="#63b8ff" stroke="#63b8ff" points="1997.33,-59.28 1987.37,-62.9 1997.41,-66.28 1997.33,-59.28"/>
</a>
</g>
</g>
<!-- Node53 -->
<g id="Node000053" class="node">
<title>Node53</title>
<g id="a_Node000053"><a xlink:href="rp2040_2hardware__structs_2include_2hardware_2structs_2pll_8h.html" target="_top" xlink:title=" ">
<polygon fill="white" stroke="#666666" points="3408.5,-19 3370.5,-19 3370.5,0 3408.5,0 3408.5,-19"/>
<text text-anchor="middle" x="3389.5" y="-7" font-family="Helvetica,sans-Serif" font-size="10.00">pll.h</text>
</a>
</g>
</g>
<!-- Node2&#45;&gt;Node53 -->
<g id="edge46_Node000002_Node000053" class="edge">
<title>Node2&#45;&gt;Node53</title>
<g id="a_edge46_Node000002_Node000053"><a xlink:title=" ">
<path fill="none" stroke="#63b8ff" d="M1997.09,-63.74C2239.32,-64.31 3093.48,-63.06 3361.5,-19 3364.41,-18.52 3367.43,-17.82 3370.38,-17.03"/>
<polygon fill="#63b8ff" stroke="#63b8ff" points="1997.05,-60.24 1987.04,-63.72 1997.03,-67.24 1997.05,-60.24"/>
</a>
</g>
</g>
<!-- Node54 -->
<g id="Node000054" class="node">
<title>Node54</title>
<g id="a_Node000054"><a xlink:href="rp2350_2hardware__structs_2include_2hardware_2structs_2pll_8h.html" target="_top" xlink:title=" ">
<polygon fill="white" stroke="#666666" points="3464.5,-19 3426.5,-19 3426.5,0 3464.5,0 3464.5,-19"/>
<text text-anchor="middle" x="3445.5" y="-7" font-family="Helvetica,sans-Serif" font-size="10.00">pll.h</text>
</a>
</g>
</g>
<!-- Node2&#45;&gt;Node54 -->
<g id="edge47_Node000002_Node000054" class="edge">
<title>Node2&#45;&gt;Node54</title>
<g id="a_edge47_Node000002_Node000054"><a xlink:title=" ">
<path fill="none" stroke="#63b8ff" d="M1997.51,-63.83C2246.33,-64.76 3138.18,-64.75 3417.5,-19 3420.41,-18.52 3423.44,-17.83 3426.38,-17.03"/>
<polygon fill="#63b8ff" stroke="#63b8ff" points="1997.21,-60.33 1987.19,-63.79 1997.18,-67.33 1997.21,-60.33"/>
</a>
</g>
</g>
<!-- Node55 -->
<g id="Node000055" class="node">
<title>Node55</title>
<g id="a_Node000055"><a xlink:href="rp2350_2hardware__structs_2include_2hardware_2structs_2powman_8h.html" target="_top" xlink:title=" ">
<polygon fill="#fff0f0" stroke="red" points="3550.5,-19 3482.5,-19 3482.5,0 3550.5,0 3550.5,-19"/>
<text text-anchor="middle" x="3516.5" y="-7" font-family="Helvetica,sans-Serif" font-size="10.00">powman.h</text>
</a>
</g>
</g>
<!-- Node2&#45;&gt;Node55 -->
<g id="edge48_Node000002_Node000055" class="edge">
<title>Node2&#45;&gt;Node55</title>
<g id="a_edge48_Node000002_Node000055"><a xlink:title=" ">
<path fill="none" stroke="#63b8ff" d="M1997.31,-63.07C2251.48,-61.14 3180.67,-51.94 3473.5,-19 3476.37,-18.68 3479.34,-18.26 3482.31,-17.79"/>
<polygon fill="#63b8ff" stroke="#63b8ff" points="1997.1,-59.57 1987.13,-63.14 1997.16,-66.57 1997.1,-59.57"/>
</a>
</g>
</g>
<!-- Node62 -->
<g id="Node000062" class="node">
<title>Node62</title>
<g id="a_Node000062"><a xlink:href="rp2040_2hardware__structs_2include_2hardware_2structs_2psm_8h.html" target="_top" xlink:title=" ">
<polygon fill="white" stroke="#666666" points="3616,-19 3569,-19 3569,0 3616,0 3616,-19"/>
<text text-anchor="middle" x="3592.5" y="-7" font-family="Helvetica,sans-Serif" font-size="10.00">psm.h</text>
</a>
</g>
</g>
<!-- Node2&#45;&gt;Node62 -->
<g id="edge49_Node000002_Node000062" class="edge">
<title>Node2&#45;&gt;Node62</title>
<g id="a_edge49_Node000002_Node000062"><a xlink:title=" ">
<path fill="none" stroke="#63b8ff" d="M1997.47,-63.67C2260.9,-64.06 3250.06,-62.52 3559.5,-19 3562.55,-18.57 3565.72,-17.97 3568.84,-17.27"/>
<polygon fill="#63b8ff" stroke="#63b8ff" points="1997.31,-60.17 1987.31,-63.65 1997.3,-67.17 1997.31,-60.17"/>
</a>
</g>
</g>
<!-- Node63 -->
<g id="Node000063" class="node">
<title>Node63</title>
<g id="a_Node000063"><a xlink:href="rp2350_2hardware__structs_2include_2hardware_2structs_2psm_8h.html" target="_top" xlink:title=" ">
<polygon fill="white" stroke="#666666" points="3681,-19 3634,-19 3634,0 3681,0 3681,-19"/>
<text text-anchor="middle" x="3657.5" y="-7" font-family="Helvetica,sans-Serif" font-size="10.00">psm.h</text>
</a>
</g>
</g>
<!-- Node2&#45;&gt;Node63 -->
<g id="edge50_Node000002_Node000063" class="edge">
<title>Node2&#45;&gt;Node63</title>
<g id="a_edge50_Node000002_Node000063"><a xlink:title=" ">
<path fill="none" stroke="#63b8ff" d="M1997.44,-63.82C2267.5,-64.82 3302.61,-65.48 3625.5,-19 3628.23,-18.61 3631.06,-18.06 3633.86,-17.44"/>
<polygon fill="#63b8ff" stroke="#63b8ff" points="1997.42,-60.32 1987.4,-63.78 1997.39,-67.32 1997.42,-60.32"/>
</a>
</g>
</g>
</g>
</svg>
