<?xml version="1.0" encoding="UTF-8" standalone="no"?>
<!DOCTYPE svg PUBLIC "-//W3C//DTD SVG 1.1//EN"
 "http://www.w3.org/Graphics/SVG/1.1/DTD/svg11.dtd">
<!-- Generated by graphviz version 2.43.0 (0)
 -->
<!-- Title: m33.h Pages: 1 -->
<svg width="475pt" height="137pt"
 viewBox="0.00 0.00 474.50 137.00" xmlns="http://www.w3.org/2000/svg" xmlns:xlink="http://www.w3.org/1999/xlink">
<g id="graph0" class="graph" transform="scale(1 1) rotate(0) translate(4 133)">
<title>m33.h</title>
<!-- Node1 -->
<g id="Node000001" class="node">
<title>Node1</title>
<g id="a_Node000001"><a xlink:title=" ">
<polygon fill="#999999" stroke="#666666" points="267,-129 220,-129 220,-110 267,-110 267,-129"/>
<text text-anchor="middle" x="243.5" y="-117" font-family="Helvetica,sans-Serif" font-size="10.00">m33.h</text>
</a>
</g>
</g>
<!-- Node2 -->
<g id="Node000002" class="node">
<title>Node2</title>
<g id="a_Node000002"><a xlink:href="rp2350_2pico__platform_2include_2pico_2platform_2cpu__regs_8h.html" target="_top" xlink:title=" ">
<polygon fill="white" stroke="#666666" points="69,-19 0,-19 0,0 69,0 69,-19"/>
<text text-anchor="middle" x="34.5" y="-7" font-family="Helvetica,sans-Serif" font-size="10.00">cpu_regs.h</text>
</a>
</g>
</g>
<!-- Node1&#45;&gt;Node2 -->
<g id="edge1_Node000001_Node000002" class="edge">
<title>Node1&#45;&gt;Node2</title>
<g id="a_edge1_Node000001_Node000002"><a xlink:title=" ">
<path fill="none" stroke="#63b8ff" d="M209.66,-115.86C174.62,-111.7 119.63,-101.07 80.5,-74 59.9,-59.75 45.15,-33.18 38.48,-19.36"/>
<polygon fill="#63b8ff" stroke="#63b8ff" points="209.54,-119.37 219.85,-116.95 210.28,-112.41 209.54,-119.37"/>
</a>
</g>
</g>
<!-- Node3 -->
<g id="Node000003" class="node">
<title>Node3</title>
<g id="a_Node000003"><a xlink:href="hardware__structs_2include_2hardware_2structs_2m33_8h.html" target="_top" xlink:title=" ">
<polygon fill="white" stroke="#666666" points="137,-74 90,-74 90,-55 137,-55 137,-74"/>
<text text-anchor="middle" x="113.5" y="-62" font-family="Helvetica,sans-Serif" font-size="10.00">m33.h</text>
</a>
</g>
</g>
<!-- Node1&#45;&gt;Node3 -->
<g id="edge2_Node000001_Node000003" class="edge">
<title>Node1&#45;&gt;Node3</title>
<g id="a_edge2_Node000001_Node000003"><a xlink:title=" ">
<path fill="none" stroke="#63b8ff" d="M213.23,-106.16C189.16,-96.35 156.1,-82.87 134.77,-74.17"/>
<polygon fill="#63b8ff" stroke="#63b8ff" points="212.03,-109.45 222.61,-109.98 214.67,-102.97 212.03,-109.45"/>
</a>
</g>
</g>
<!-- Node6 -->
<g id="Node000006" class="node">
<title>Node6</title>
<g id="a_Node000006"><a xlink:href="rp2350_2hardware__structs_2include_2hardware_2structs_2mpu_8h.html" target="_top" xlink:title=" ">
<polygon fill="white" stroke="#666666" points="202,-74 155,-74 155,-55 202,-55 202,-74"/>
<text text-anchor="middle" x="178.5" y="-62" font-family="Helvetica,sans-Serif" font-size="10.00">mpu.h</text>
</a>
</g>
</g>
<!-- Node1&#45;&gt;Node6 -->
<g id="edge6_Node000001_Node000006" class="edge">
<title>Node1&#45;&gt;Node6</title>
<g id="a_edge6_Node000001_Node000006"><a xlink:title=" ">
<path fill="none" stroke="#63b8ff" d="M225.23,-103.6C213.58,-94.11 198.9,-82.13 189.13,-74.17"/>
<polygon fill="#63b8ff" stroke="#63b8ff" points="223.09,-106.38 233.06,-109.98 227.52,-100.95 223.09,-106.38"/>
</a>
</g>
</g>
<!-- Node7 -->
<g id="Node000007" class="node">
<title>Node7</title>
<g id="a_Node000007"><a xlink:href="rp2350_2hardware__structs_2include_2hardware_2structs_2nvic_8h.html" target="_top" xlink:title=" ">
<polygon fill="white" stroke="#666666" points="266.5,-74 220.5,-74 220.5,-55 266.5,-55 266.5,-74"/>
<text text-anchor="middle" x="243.5" y="-62" font-family="Helvetica,sans-Serif" font-size="10.00">nvic.h</text>
</a>
</g>
</g>
<!-- Node1&#45;&gt;Node7 -->
<g id="edge7_Node000001_Node000007" class="edge">
<title>Node1&#45;&gt;Node7</title>
<g id="a_edge7_Node000001_Node000007"><a xlink:title=" ">
<path fill="none" stroke="#63b8ff" d="M243.5,-99.66C243.5,-90.93 243.5,-80.99 243.5,-74.09"/>
<polygon fill="#63b8ff" stroke="#63b8ff" points="240,-99.75 243.5,-109.75 247,-99.75 240,-99.75"/>
</a>
</g>
</g>
<!-- Node8 -->
<g id="Node000008" class="node">
<title>Node8</title>
<g id="a_Node000008"><a xlink:href="sau_8h.html" target="_top" xlink:title=" ">
<polygon fill="white" stroke="#666666" points="328,-74 285,-74 285,-55 328,-55 328,-74"/>
<text text-anchor="middle" x="306.5" y="-62" font-family="Helvetica,sans-Serif" font-size="10.00">sau.h</text>
</a>
</g>
</g>
<!-- Node1&#45;&gt;Node8 -->
<g id="edge8_Node000001_Node000008" class="edge">
<title>Node1&#45;&gt;Node8</title>
<g id="a_edge8_Node000001_Node000008"><a xlink:title=" ">
<path fill="none" stroke="#63b8ff" d="M261.54,-103.32C272.77,-93.87 286.82,-82.06 296.19,-74.17"/>
<polygon fill="#63b8ff" stroke="#63b8ff" points="259.02,-100.87 253.62,-109.98 263.53,-106.23 259.02,-100.87"/>
</a>
</g>
</g>
<!-- Node9 -->
<g id="Node000009" class="node">
<title>Node9</title>
<g id="a_Node000009"><a xlink:href="rp2350_2hardware__structs_2include_2hardware_2structs_2scb_8h.html" target="_top" xlink:title=" ">
<polygon fill="white" stroke="#666666" points="388.5,-74 346.5,-74 346.5,-55 388.5,-55 388.5,-74"/>
<text text-anchor="middle" x="367.5" y="-62" font-family="Helvetica,sans-Serif" font-size="10.00">scb.h</text>
</a>
</g>
</g>
<!-- Node1&#45;&gt;Node9 -->
<g id="edge9_Node000001_Node000009" class="edge">
<title>Node1&#45;&gt;Node9</title>
<g id="a_edge9_Node000001_Node000009"><a xlink:title=" ">
<path fill="none" stroke="#63b8ff" d="M272.68,-106.03C295.61,-96.23 326.95,-82.83 347.21,-74.17"/>
<polygon fill="#63b8ff" stroke="#63b8ff" points="271.24,-102.84 263.42,-109.98 273.99,-109.27 271.24,-102.84"/>
</a>
</g>
</g>
<!-- Node10 -->
<g id="Node000010" class="node">
<title>Node10</title>
<g id="a_Node000010"><a xlink:href="rp2350_2hardware__structs_2include_2hardware_2structs_2systick_8h.html" target="_top" xlink:title=" ">
<polygon fill="white" stroke="#666666" points="466.5,-74 406.5,-74 406.5,-55 466.5,-55 466.5,-74"/>
<text text-anchor="middle" x="436.5" y="-62" font-family="Helvetica,sans-Serif" font-size="10.00">systick.h</text>
</a>
</g>
</g>
<!-- Node1&#45;&gt;Node10 -->
<g id="edge10_Node000001_Node000010" class="edge">
<title>Node1&#45;&gt;Node10</title>
<g id="a_edge10_Node000001_Node000010"><a xlink:title=" ">
<path fill="none" stroke="#63b8ff" d="M276.84,-109.35C313.28,-99.34 371.14,-83.45 406.29,-73.8"/>
<polygon fill="#63b8ff" stroke="#63b8ff" points="275.88,-105.98 267.17,-112 277.74,-112.73 275.88,-105.98"/>
</a>
</g>
</g>
<!-- Node3&#45;&gt;Node2 -->
<g id="edge3_Node000003_Node000002" class="edge">
<title>Node3&#45;&gt;Node2</title>
<g id="a_edge3_Node000003_Node000002"><a xlink:title=" ">
<path fill="none" stroke="#63b8ff" d="M92.11,-49.15C77.83,-39.57 59.53,-27.29 47.42,-19.17"/>
<polygon fill="#63b8ff" stroke="#63b8ff" points="90.55,-52.32 100.81,-54.98 94.45,-46.51 90.55,-52.32"/>
</a>
</g>
</g>
<!-- Node4 -->
<g id="Node000004" class="node">
<title>Node4</title>
<g id="a_Node000004"><a xlink:href="multicore_8c.html" target="_top" xlink:title=" ">
<polygon fill="white" stroke="#666666" points="158,-19 87,-19 87,0 158,0 158,-19"/>
<text text-anchor="middle" x="122.5" y="-7" font-family="Helvetica,sans-Serif" font-size="10.00">multicore.c</text>
</a>
</g>
</g>
<!-- Node3&#45;&gt;Node4 -->
<g id="edge4_Node000003_Node000004" class="edge">
<title>Node3&#45;&gt;Node4</title>
<g id="a_edge4_Node000003_Node000004"><a xlink:title=" ">
<path fill="none" stroke="#63b8ff" d="M116.7,-44.66C118.18,-35.93 119.87,-25.99 121.04,-19.09"/>
<polygon fill="#63b8ff" stroke="#63b8ff" points="113.21,-44.3 114.99,-54.75 120.11,-45.48 113.21,-44.3"/>
</a>
</g>
</g>
<!-- Node5 -->
<g id="Node000005" class="node">
<title>Node5</title>
<g id="a_Node000005"><a xlink:href="runtime__init_8c.html" target="_top" xlink:title=" ">
<polygon fill="white" stroke="#666666" points="260.5,-19 176.5,-19 176.5,0 260.5,0 260.5,-19"/>
<text text-anchor="middle" x="218.5" y="-7" font-family="Helvetica,sans-Serif" font-size="10.00">runtime_init.c</text>
</a>
</g>
</g>
<!-- Node3&#45;&gt;Node5 -->
<g id="edge5_Node000003_Node000005" class="edge">
<title>Node3&#45;&gt;Node5</title>
<g id="a_edge5_Node000003_Node000005"><a xlink:title=" ">
<path fill="none" stroke="#63b8ff" d="M139.52,-50.37C158.8,-40.63 184.55,-27.64 201.32,-19.17"/>
<polygon fill="#63b8ff" stroke="#63b8ff" points="137.72,-47.35 130.37,-54.98 140.87,-53.6 137.72,-47.35"/>
</a>
</g>
</g>
</g>
</svg>
