<?xml version="1.0" encoding="UTF-8" standalone="no"?>
<!DOCTYPE svg PUBLIC "-//W3C//DTD SVG 1.1//EN"
 "http://www.w3.org/Graphics/SVG/1.1/DTD/svg11.dtd">
<!-- Generated by graphviz version 2.43.0 (0)
 -->
<!-- Title: accessctrl.h Pages: 1 -->
<svg width="3624pt" height="192pt"
 viewBox="0.00 0.00 3624.00 192.00" xmlns="http://www.w3.org/2000/svg" xmlns:xlink="http://www.w3.org/1999/xlink">
<g id="graph0" class="graph" transform="scale(1 1) rotate(0) translate(4 188)">
<title>accessctrl.h</title>
<!-- Node1 -->
<g id="Node000001" class="node">
<title>Node1</title>
<g id="a_Node000001"><a xlink:title=" ">
<polygon fill="#999999" stroke="#666666" points="1930.5,-184 1856.5,-184 1856.5,-165 1930.5,-165 1930.5,-184"/>
<text text-anchor="middle" x="1893.5" y="-172" font-family="Helvetica,sans-Serif" font-size="10.00">accessctrl.h</text>
</a>
</g>
</g>
<!-- Node2 -->
<g id="Node000002" class="node">
<title>Node2</title>
<g id="a_Node000002"><a xlink:href="hardware__structs_2include_2hardware_2structs_2accessctrl_8h.html" target="_top" xlink:title=" ">
<polygon fill="white" stroke="#666666" points="1930.5,-129 1856.5,-129 1856.5,-110 1930.5,-110 1930.5,-129"/>
<text text-anchor="middle" x="1893.5" y="-117" font-family="Helvetica,sans-Serif" font-size="10.00">accessctrl.h</text>
</a>
</g>
</g>
<!-- Node1&#45;&gt;Node2 -->
<g id="edge1_Node000001_Node000002" class="edge">
<title>Node1&#45;&gt;Node2</title>
<g id="a_edge1_Node000001_Node000002"><a xlink:title=" ">
<path fill="none" stroke="#63b8ff" d="M1893.5,-154.66C1893.5,-145.93 1893.5,-135.99 1893.5,-129.09"/>
<polygon fill="#63b8ff" stroke="#63b8ff" points="1890,-154.75 1893.5,-164.75 1897,-154.75 1890,-154.75"/>
</a>
</g>
</g>
<!-- Node3 -->
<g id="Node000003" class="node">
<title>Node3</title>
<g id="a_Node000003"><a xlink:href="address__mapped_8h.html" target="_top" xlink:title=" ">
<polygon fill="#fff0f0" stroke="red" points="1948,-74 1839,-74 1839,-55 1948,-55 1948,-74"/>
<text text-anchor="middle" x="1893.5" y="-62" font-family="Helvetica,sans-Serif" font-size="10.00">address_mapped.h</text>
</a>
</g>
</g>
<!-- Node2&#45;&gt;Node3 -->
<g id="edge2_Node000002_Node000003" class="edge">
<title>Node2&#45;&gt;Node3</title>
<g id="a_edge2_Node000002_Node000003"><a xlink:title=" ">
<path fill="none" stroke="#63b8ff" d="M1887.01,-99.66C1886.41,-90.93 1886.86,-80.99 1888.37,-74.09"/>
<polygon fill="#63b8ff" stroke="#63b8ff" points="1883.56,-100.29 1888.33,-109.75 1890.5,-99.38 1883.56,-100.29"/>
</a>
</g>
</g>
<!-- Node3&#45;&gt;Node2 -->
<g id="edge3_Node000003_Node000002" class="edge">
<title>Node3&#45;&gt;Node2</title>
<g id="a_edge3_Node000003_Node000002"><a xlink:title=" ">
<path fill="none" stroke="#63b8ff" d="M1899.98,-84.13C1900.6,-92.85 1900.16,-102.8 1898.67,-109.75"/>
<polygon fill="#63b8ff" stroke="#63b8ff" points="1903.43,-83.53 1898.63,-74.09 1896.49,-84.47 1903.43,-83.53"/>
</a>
</g>
</g>
<!-- Node4 -->
<g id="Node000004" class="node">
<title>Node4</title>
<g id="a_Node000004"><a xlink:href="rp2040_2hardware__structs_2include_2hardware_2structs_2adc_8h.html" target="_top" xlink:title=" ">
<polygon fill="white" stroke="#666666" points="43,-19 0,-19 0,0 43,0 43,-19"/>
<text text-anchor="middle" x="21.5" y="-7" font-family="Helvetica,sans-Serif" font-size="10.00">adc.h</text>
</a>
</g>
</g>
<!-- Node3&#45;&gt;Node4 -->
<g id="edge4_Node000003_Node000004" class="edge">
<title>Node3&#45;&gt;Node4</title>
<g id="a_edge4_Node000003_Node000004"><a xlink:title=" ">
<path fill="none" stroke="#63b8ff" d="M1828.64,-62.9C1522.52,-59.95 229.76,-45.96 51.5,-19 48.82,-18.6 46.05,-18.02 43.32,-17.37"/>
<polygon fill="#63b8ff" stroke="#63b8ff" points="1828.65,-66.4 1838.68,-63 1828.72,-59.4 1828.65,-66.4"/>
</a>
</g>
</g>
<!-- Node5 -->
<g id="Node000005" class="node">
<title>Node5</title>
<g id="a_Node000005"><a xlink:href="rp2350_2hardware__structs_2include_2hardware_2structs_2adc_8h.html" target="_top" xlink:title=" ">
<polygon fill="white" stroke="#666666" points="104,-19 61,-19 61,0 104,0 104,-19"/>
<text text-anchor="middle" x="82.5" y="-7" font-family="Helvetica,sans-Serif" font-size="10.00">adc.h</text>
</a>
</g>
</g>
<!-- Node3&#45;&gt;Node5 -->
<g id="edge5_Node000003_Node000005" class="edge">
<title>Node3&#45;&gt;Node5</title>
<g id="a_edge5_Node000003_Node000005"><a xlink:title=" ">
<path fill="none" stroke="#63b8ff" d="M1828.38,-62.84C1528.1,-59.67 284.39,-45.07 112.5,-19 109.82,-18.59 107.05,-18.02 104.32,-17.37"/>
<polygon fill="#63b8ff" stroke="#63b8ff" points="1828.62,-66.34 1838.66,-62.95 1828.7,-59.34 1828.62,-66.34"/>
</a>
</g>
</g>
<!-- Node6 -->
<g id="Node000006" class="node">
<title>Node6</title>
<g id="a_Node000006"><a xlink:href="hardware__structs_2include_2hardware_2structs_2bootram_8h.html" target="_top" xlink:title=" ">
<polygon fill="white" stroke="#666666" points="189,-19 122,-19 122,0 189,0 189,-19"/>
<text text-anchor="middle" x="155.5" y="-7" font-family="Helvetica,sans-Serif" font-size="10.00">bootram.h</text>
</a>
</g>
</g>
<!-- Node3&#45;&gt;Node6 -->
<g id="edge6_Node000003_Node000006" class="edge">
<title>Node3&#45;&gt;Node6</title>
<g id="a_edge6_Node000003_Node000006"><a xlink:title=" ">
<path fill="none" stroke="#63b8ff" d="M1828.96,-63.3C1559.4,-62.25 522.39,-55.86 197.5,-19 194.84,-18.7 192.1,-18.31 189.35,-17.87"/>
<polygon fill="#63b8ff" stroke="#63b8ff" points="1828.96,-66.8 1838.98,-63.34 1828.99,-59.8 1828.96,-66.8"/>
</a>
</g>
</g>
<!-- Node7 -->
<g id="Node000007" class="node">
<title>Node7</title>
<g id="a_Node000007"><a xlink:href="rp2040_2hardware__structs_2include_2hardware_2structs_2busctrl_8h.html" target="_top" xlink:title=" ">
<polygon fill="white" stroke="#666666" points="266,-19 207,-19 207,0 266,0 266,-19"/>
<text text-anchor="middle" x="236.5" y="-7" font-family="Helvetica,sans-Serif" font-size="10.00">busctrl.h</text>
</a>
</g>
</g>
<!-- Node3&#45;&gt;Node7 -->
<g id="edge7_Node000003_Node000007" class="edge">
<title>Node3&#45;&gt;Node7</title>
<g id="a_edge7_Node000003_Node000007"><a xlink:title=" ">
<path fill="none" stroke="#63b8ff" d="M1828.88,-63.38C1566.89,-62.66 583.07,-57.39 274.5,-19 271.82,-18.67 269.04,-18.23 266.28,-17.73"/>
<polygon fill="#63b8ff" stroke="#63b8ff" points="1828.99,-66.88 1838.99,-63.41 1829,-59.88 1828.99,-66.88"/>
</a>
</g>
</g>
<!-- Node8 -->
<g id="Node000008" class="node">
<title>Node8</title>
<g id="a_Node000008"><a xlink:href="rp2350_2hardware__structs_2include_2hardware_2structs_2busctrl_8h.html" target="_top" xlink:title=" ">
<polygon fill="white" stroke="#666666" points="343,-19 284,-19 284,0 343,0 343,-19"/>
<text text-anchor="middle" x="313.5" y="-7" font-family="Helvetica,sans-Serif" font-size="10.00">busctrl.h</text>
</a>
</g>
</g>
<!-- Node3&#45;&gt;Node8 -->
<g id="edge8_Node000003_Node000008" class="edge">
<title>Node3&#45;&gt;Node8</title>
<g id="a_edge8_Node000003_Node000008"><a xlink:title=" ">
<path fill="none" stroke="#63b8ff" d="M1828.67,-63.23C1574.43,-61.93 644.99,-54.78 352.5,-19 349.47,-18.63 346.34,-18.14 343.21,-17.57"/>
<polygon fill="#63b8ff" stroke="#63b8ff" points="1828.84,-66.73 1838.85,-63.28 1828.87,-59.73 1828.84,-66.73"/>
</a>
</g>
</g>
<!-- Node9 -->
<g id="Node000009" class="node">
<title>Node9</title>
<g id="a_Node000009"><a xlink:href="rp2040_2hardware__structs_2include_2hardware_2structs_2clocks_8h.html" target="_top" xlink:title=" ">
<polygon fill="white" stroke="#666666" points="417.5,-19 361.5,-19 361.5,0 417.5,0 417.5,-19"/>
<text text-anchor="middle" x="389.5" y="-7" font-family="Helvetica,sans-Serif" font-size="10.00">clocks.h</text>
</a>
</g>
</g>
<!-- Node3&#45;&gt;Node9 -->
<g id="edge9_Node000003_Node000009" class="edge">
<title>Node3&#45;&gt;Node9</title>
<g id="a_edge9_Node000003_Node000009"><a xlink:title=" ">
<path fill="none" stroke="#63b8ff" d="M1828.53,-63.22C1581.89,-61.88 703.51,-54.67 426.5,-19 423.62,-18.63 420.64,-18.14 417.68,-17.57"/>
<polygon fill="#63b8ff" stroke="#63b8ff" points="1828.75,-66.72 1838.76,-63.27 1828.78,-59.72 1828.75,-66.72"/>
</a>
</g>
</g>
<!-- Node10 -->
<g id="Node000010" class="node">
<title>Node10</title>
<g id="a_Node000010"><a xlink:href="rp2350_2hardware__structs_2include_2hardware_2structs_2clocks_8h.html" target="_top" xlink:title=" ">
<polygon fill="white" stroke="#666666" points="491.5,-19 435.5,-19 435.5,0 491.5,0 491.5,-19"/>
<text text-anchor="middle" x="463.5" y="-7" font-family="Helvetica,sans-Serif" font-size="10.00">clocks.h</text>
</a>
</g>
</g>
<!-- Node3&#45;&gt;Node10 -->
<g id="edge10_Node000003_Node000010" class="edge">
<title>Node3&#45;&gt;Node10</title>
<g id="a_edge10_Node000003_Node000010"><a xlink:title=" ">
<path fill="none" stroke="#63b8ff" d="M1828.66,-63.1C1590.23,-61.35 762.36,-52.93 500.5,-19 497.62,-18.63 494.64,-18.13 491.68,-17.57"/>
<polygon fill="#63b8ff" stroke="#63b8ff" points="1828.88,-66.6 1838.9,-63.17 1828.93,-59.6 1828.88,-66.6"/>
</a>
</g>
</g>
<!-- Node11 -->
<g id="Node000011" class="node">
<title>Node11</title>
<g id="a_Node000011"><a xlink:href="common_8c.html" target="_top" xlink:title=" ">
<polygon fill="white" stroke="#666666" points="577.5,-19 509.5,-19 509.5,0 577.5,0 577.5,-19"/>
<text text-anchor="middle" x="543.5" y="-7" font-family="Helvetica,sans-Serif" font-size="10.00">common.c</text>
</a>
</g>
</g>
<!-- Node3&#45;&gt;Node11 -->
<g id="edge11_Node000003_Node000011" class="edge">
<title>Node3&#45;&gt;Node11</title>
<g id="a_edge11_Node000003_Node000011"><a xlink:title=" ">
<path fill="none" stroke="#63b8ff" d="M1828.52,-62.67C1599.58,-59.55 831.13,-47.16 586.5,-19 583.63,-18.67 580.66,-18.25 577.69,-17.77"/>
<polygon fill="#63b8ff" stroke="#63b8ff" points="1828.64,-66.18 1838.68,-62.81 1828.73,-59.18 1828.64,-66.18"/>
</a>
</g>
</g>
<!-- Node12 -->
<g id="Node000012" class="node">
<title>Node12</title>
<g id="a_Node000012"><a xlink:href="hardware__structs_2include_2hardware_2structs_2coresight__trace_8h.html" target="_top" xlink:title=" ">
<polygon fill="white" stroke="#666666" points="697,-19 596,-19 596,0 697,0 697,-19"/>
<text text-anchor="middle" x="646.5" y="-7" font-family="Helvetica,sans-Serif" font-size="10.00">coresight_trace.h</text>
</a>
</g>
</g>
<!-- Node3&#45;&gt;Node12 -->
<g id="edge12_Node000003_Node000012" class="edge">
<title>Node3&#45;&gt;Node12</title>
<g id="a_edge12_Node000003_Node000012"><a xlink:title=" ">
<path fill="none" stroke="#63b8ff" d="M1828.86,-63.47C1649.91,-62.89 1132.98,-57.69 705.5,-19 702.82,-18.76 700.08,-18.48 697.31,-18.17"/>
<polygon fill="#63b8ff" stroke="#63b8ff" points="1828.89,-66.97 1838.9,-63.5 1828.91,-59.97 1828.89,-66.97"/>
</a>
</g>
</g>
<!-- Node13 -->
<g id="Node000013" class="node">
<title>Node13</title>
<g id="a_Node000013"><a xlink:href="rp2040_2hardware__structs_2include_2hardware_2structs_2dma_8h.html" target="_top" xlink:title=" ">
<polygon fill="white" stroke="#666666" points="762,-19 715,-19 715,0 762,0 762,-19"/>
<text text-anchor="middle" x="738.5" y="-7" font-family="Helvetica,sans-Serif" font-size="10.00">dma.h</text>
</a>
</g>
</g>
<!-- Node3&#45;&gt;Node13 -->
<g id="edge13_Node000003_Node000013" class="edge">
<title>Node3&#45;&gt;Node13</title>
<g id="a_edge13_Node000003_Node000013"><a xlink:title=" ">
<path fill="none" stroke="#63b8ff" d="M1828.73,-62.8C1621.57,-60.29 976.72,-50.09 770.5,-19 767.77,-18.59 764.94,-18.03 762.14,-17.4"/>
<polygon fill="#63b8ff" stroke="#63b8ff" points="1828.8,-66.31 1838.84,-62.93 1828.88,-59.31 1828.8,-66.31"/>
</a>
</g>
</g>
<!-- Node14 -->
<g id="Node000014" class="node">
<title>Node14</title>
<g id="a_Node000014"><a xlink:href="rp2350_2hardware__structs_2include_2hardware_2structs_2dma_8h.html" target="_top" xlink:title=" ">
<polygon fill="white" stroke="#666666" points="827,-19 780,-19 780,0 827,0 827,-19"/>
<text text-anchor="middle" x="803.5" y="-7" font-family="Helvetica,sans-Serif" font-size="10.00">dma.h</text>
</a>
</g>
</g>
<!-- Node3&#45;&gt;Node14 -->
<g id="edge14_Node000003_Node000014" class="edge">
<title>Node3&#45;&gt;Node14</title>
<g id="a_edge14_Node000003_Node000014"><a xlink:title=" ">
<path fill="none" stroke="#63b8ff" d="M1828.77,-62.62C1629.73,-59.63 1028.55,-48.34 835.5,-19 832.77,-18.59 829.94,-18.03 827.14,-17.39"/>
<polygon fill="#63b8ff" stroke="#63b8ff" points="1828.73,-66.12 1838.79,-62.77 1828.84,-59.12 1828.73,-66.12"/>
</a>
</g>
</g>
<!-- Node15 -->
<g id="Node000015" class="node">
<title>Node15</title>
<g id="a_Node000015"><a xlink:href="rp2040_2hardware__structs_2include_2hardware_2structs_2dma__debug_8h.html" target="_top" xlink:title=" ">
<polygon fill="white" stroke="#666666" points="928,-19 845,-19 845,0 928,0 928,-19"/>
<text text-anchor="middle" x="886.5" y="-7" font-family="Helvetica,sans-Serif" font-size="10.00">dma_debug.h</text>
</a>
</g>
</g>
<!-- Node3&#45;&gt;Node15 -->
<g id="edge15_Node000003_Node000015" class="edge">
<title>Node3&#45;&gt;Node15</title>
<g id="a_edge15_Node000003_Node000015"><a xlink:title=" ">
<path fill="none" stroke="#63b8ff" d="M1828.55,-63.21C1673.69,-61.91 1270.72,-55.04 936.5,-19 933.79,-18.71 931,-18.36 928.19,-17.98"/>
<polygon fill="#63b8ff" stroke="#63b8ff" points="1828.8,-66.71 1838.83,-63.29 1828.86,-59.71 1828.8,-66.71"/>
</a>
</g>
</g>
<!-- Node16 -->
<g id="Node000016" class="node">
<title>Node16</title>
<g id="a_Node000016"><a xlink:href="rp2350_2hardware__structs_2include_2hardware_2structs_2dma__debug_8h.html" target="_top" xlink:title=" ">
<polygon fill="white" stroke="#666666" points="1029,-19 946,-19 946,0 1029,0 1029,-19"/>
<text text-anchor="middle" x="987.5" y="-7" font-family="Helvetica,sans-Serif" font-size="10.00">dma_debug.h</text>
</a>
</g>
</g>
<!-- Node3&#45;&gt;Node16 -->
<g id="edge16_Node000003_Node000016" class="edge">
<title>Node3&#45;&gt;Node16</title>
<g id="a_edge16_Node000003_Node000016"><a xlink:title=" ">
<path fill="none" stroke="#63b8ff" d="M1828.46,-62.62C1685.29,-60.14 1332.22,-51.02 1038.5,-19 1035.47,-18.67 1032.34,-18.28 1029.2,-17.84"/>
<polygon fill="#63b8ff" stroke="#63b8ff" points="1828.76,-66.13 1838.81,-62.8 1828.87,-59.13 1828.76,-66.13"/>
</a>
</g>
</g>
<!-- Node17 -->
<g id="Node000017" class="node">
<title>Node17</title>
<g id="a_Node000017"><a xlink:href="exception_8h.html" target="_top" xlink:title=" ">
<polygon fill="#fff0f0" stroke="red" points="1121.5,-19 1047.5,-19 1047.5,0 1121.5,0 1121.5,-19"/>
<text text-anchor="middle" x="1084.5" y="-7" font-family="Helvetica,sans-Serif" font-size="10.00">exception.h</text>
</a>
</g>
</g>
<!-- Node3&#45;&gt;Node17 -->
<g id="edge17_Node000003_Node000017" class="edge">
<title>Node3&#45;&gt;Node17</title>
<g id="a_edge17_Node000003_Node000017"><a xlink:title=" ">
<path fill="none" stroke="#63b8ff" d="M1828.37,-62.43C1696.29,-59.66 1387.65,-50.13 1130.5,-19 1127.6,-18.65 1124.6,-18.23 1121.6,-17.76"/>
<polygon fill="#63b8ff" stroke="#63b8ff" points="1828.64,-65.94 1838.71,-62.64 1828.78,-58.94 1828.64,-65.94"/>
</a>
</g>
</g>
<!-- Node19 -->
<g id="Node000019" class="node">
<title>Node19</title>
<g id="a_Node000019"><a xlink:href="hardware__structs_2include_2hardware_2structs_2glitch__detector_8h.html" target="_top" xlink:title=" ">
<polygon fill="white" stroke="#666666" points="1237.5,-19 1139.5,-19 1139.5,0 1237.5,0 1237.5,-19"/>
<text text-anchor="middle" x="1188.5" y="-7" font-family="Helvetica,sans-Serif" font-size="10.00">glitch_detector.h</text>
</a>
</g>
</g>
<!-- Node3&#45;&gt;Node19 -->
<g id="edge18_Node000003_Node000019" class="edge">
<title>Node3&#45;&gt;Node19</title>
<g id="a_edge18_Node000003_Node000019"><a xlink:title=" ">
<path fill="none" stroke="#63b8ff" d="M1828.65,-60.69C1711.96,-55.27 1458.94,-41.84 1246.5,-19 1243.57,-18.68 1240.55,-18.33 1237.51,-17.95"/>
<polygon fill="#63b8ff" stroke="#63b8ff" points="1828.69,-64.2 1838.84,-61.16 1829.01,-57.2 1828.69,-64.2"/>
</a>
</g>
</g>
<!-- Node20 -->
<g id="Node000020" class="node">
<title>Node20</title>
<g id="a_Node000020"><a xlink:href="hardware__structs_2include_2hardware_2structs_2hstx__ctrl_8h.html" target="_top" xlink:title=" ">
<polygon fill="white" stroke="#666666" points="1323.5,-19 1255.5,-19 1255.5,0 1323.5,0 1323.5,-19"/>
<text text-anchor="middle" x="1289.5" y="-7" font-family="Helvetica,sans-Serif" font-size="10.00">hstx_ctrl.h</text>
</a>
</g>
</g>
<!-- Node3&#45;&gt;Node20 -->
<g id="edge19_Node000003_Node000020" class="edge">
<title>Node3&#45;&gt;Node20</title>
<g id="a_edge19_Node000003_Node000020"><a xlink:title=" ">
<path fill="none" stroke="#63b8ff" d="M1828.62,-60.8C1723.87,-55.89 1511.17,-43.66 1332.5,-19 1329.64,-18.6 1326.67,-18.14 1323.71,-17.63"/>
<polygon fill="#63b8ff" stroke="#63b8ff" points="1828.57,-64.3 1838.72,-61.27 1828.89,-57.31 1828.57,-64.3"/>
</a>
</g>
</g>
<!-- Node21 -->
<g id="Node000021" class="node">
<title>Node21</title>
<g id="a_Node000021"><a xlink:href="hardware__structs_2include_2hardware_2structs_2hstx__fifo_8h.html" target="_top" xlink:title=" ">
<polygon fill="white" stroke="#666666" points="1409.5,-19 1341.5,-19 1341.5,0 1409.5,0 1409.5,-19"/>
<text text-anchor="middle" x="1375.5" y="-7" font-family="Helvetica,sans-Serif" font-size="10.00">hstx_fifo.h</text>
</a>
</g>
</g>
<!-- Node3&#45;&gt;Node21 -->
<g id="edge20_Node000003_Node000021" class="edge">
<title>Node3&#45;&gt;Node21</title>
<g id="a_edge20_Node000003_Node000021"><a xlink:title=" ">
<path fill="none" stroke="#63b8ff" d="M1828.55,-59.52C1736.84,-53.42 1564.31,-40.19 1418.5,-19 1415.64,-18.58 1412.68,-18.1 1409.71,-17.59"/>
<polygon fill="#63b8ff" stroke="#63b8ff" points="1828.58,-63.03 1838.79,-60.19 1829.04,-56.04 1828.58,-63.03"/>
</a>
</g>
</g>
<!-- Node22 -->
<g id="Node000022" class="node">
<title>Node22</title>
<g id="a_Node000022"><a xlink:href="rp2350_2hardware__structs_2include_2hardware_2structs_2i2c_8h.html" target="_top" xlink:title=" ">
<polygon fill="white" stroke="#666666" points="1467.5,-19 1427.5,-19 1427.5,0 1467.5,0 1467.5,-19"/>
<text text-anchor="middle" x="1447.5" y="-7" font-family="Helvetica,sans-Serif" font-size="10.00">i2c.h</text>
</a>
</g>
</g>
<!-- Node3&#45;&gt;Node22 -->
<g id="edge21_Node000003_Node000022" class="edge">
<title>Node3&#45;&gt;Node22</title>
<g id="a_edge21_Node000003_Node000022"><a xlink:title=" ">
<path fill="none" stroke="#63b8ff" d="M1828.49,-60.17C1745.99,-55.12 1599.61,-43.41 1476.5,-19 1473.62,-18.43 1470.61,-17.7 1467.67,-16.91"/>
<polygon fill="#63b8ff" stroke="#63b8ff" points="1828.53,-63.68 1838.72,-60.78 1828.95,-56.69 1828.53,-63.68"/>
</a>
</g>
</g>
<!-- Node23 -->
<g id="Node000023" class="node">
<title>Node23</title>
<g id="a_Node000023"><a xlink:href="rp2040_2hardware__structs_2include_2hardware_2structs_2i2c_8h.html" target="_top" xlink:title=" ">
<polygon fill="white" stroke="#666666" points="1525.5,-19 1485.5,-19 1485.5,0 1525.5,0 1525.5,-19"/>
<text text-anchor="middle" x="1505.5" y="-7" font-family="Helvetica,sans-Serif" font-size="10.00">i2c.h</text>
</a>
</g>
</g>
<!-- Node3&#45;&gt;Node23 -->
<g id="edge22_Node000003_Node000023" class="edge">
<title>Node3&#45;&gt;Node23</title>
<g id="a_edge22_Node000003_Node000023"><a xlink:title=" ">
<path fill="none" stroke="#63b8ff" d="M1828.61,-58.64C1756.31,-52.48 1636.2,-40.06 1534.5,-19 1531.62,-18.4 1528.62,-17.66 1525.68,-16.87"/>
<polygon fill="#63b8ff" stroke="#63b8ff" points="1828.67,-62.15 1838.92,-59.5 1829.25,-55.18 1828.67,-62.15"/>
</a>
</g>
</g>
<!-- Node24 -->
<g id="Node000024" class="node">
<title>Node24</title>
<g id="a_Node000024"><a xlink:href="rp2350_2hardware__structs_2include_2hardware_2structs_2interp_8h.html" target="_top" xlink:title=" ">
<polygon fill="white" stroke="#666666" points="1597.5,-19 1543.5,-19 1543.5,0 1597.5,0 1597.5,-19"/>
<text text-anchor="middle" x="1570.5" y="-7" font-family="Helvetica,sans-Serif" font-size="10.00">interp.h</text>
</a>
</g>
</g>
<!-- Node3&#45;&gt;Node24 -->
<g id="edge23_Node000003_Node000024" class="edge">
<title>Node3&#45;&gt;Node24</title>
<g id="a_edge23_Node000003_Node000024"><a xlink:title=" ">
<path fill="none" stroke="#63b8ff" d="M1828.62,-54.91C1770.28,-46.84 1682.36,-33.81 1606.5,-19 1603.6,-18.43 1600.58,-17.8 1597.58,-17.13"/>
<polygon fill="#63b8ff" stroke="#63b8ff" points="1828.41,-58.42 1838.79,-56.31 1829.36,-51.48 1828.41,-58.42"/>
</a>
</g>
</g>
<!-- Node25 -->
<g id="Node000025" class="node">
<title>Node25</title>
<g id="a_Node000025"><a xlink:href="rp2040_2hardware__structs_2include_2hardware_2structs_2interp_8h.html" target="_top" xlink:title=" ">
<polygon fill="white" stroke="#666666" points="1669.5,-19 1615.5,-19 1615.5,0 1669.5,0 1669.5,-19"/>
<text text-anchor="middle" x="1642.5" y="-7" font-family="Helvetica,sans-Serif" font-size="10.00">interp.h</text>
</a>
</g>
</g>
<!-- Node3&#45;&gt;Node25 -->
<g id="edge24_Node000003_Node000025" class="edge">
<title>Node3&#45;&gt;Node25</title>
<g id="a_edge24_Node000003_Node000025"><a xlink:title=" ">
<path fill="none" stroke="#63b8ff" d="M1840.78,-53.01C1797.21,-44.24 1733.74,-31.24 1678.5,-19 1675.62,-18.36 1672.61,-17.68 1669.61,-16.99"/>
<polygon fill="#63b8ff" stroke="#63b8ff" points="1840.1,-56.45 1850.59,-54.98 1841.48,-49.58 1840.1,-56.45"/>
</a>
</g>
</g>
<!-- Node26 -->
<g id="Node000026" class="node">
<title>Node26</title>
<g id="a_Node000026"><a xlink:href="rp2350_2hardware__structs_2include_2hardware_2structs_2io__bank0_8h.html" target="_top" xlink:title=" ">
<polygon fill="white" stroke="#666666" points="1757.5,-19 1687.5,-19 1687.5,0 1757.5,0 1757.5,-19"/>
<text text-anchor="middle" x="1722.5" y="-7" font-family="Helvetica,sans-Serif" font-size="10.00">io_bank0.h</text>
</a>
</g>
</g>
<!-- Node3&#45;&gt;Node26 -->
<g id="edge25_Node000003_Node000026" class="edge">
<title>Node3&#45;&gt;Node26</title>
<g id="a_edge25_Node000003_Node000026"><a xlink:title=" ">
<path fill="none" stroke="#63b8ff" d="M1856.16,-51.93C1824.22,-42.03 1778.98,-28.01 1750.19,-19.08"/>
<polygon fill="#63b8ff" stroke="#63b8ff" points="1855.44,-55.37 1866.03,-54.98 1857.51,-48.68 1855.44,-55.37"/>
</a>
</g>
</g>
<!-- Node27 -->
<g id="Node000027" class="node">
<title>Node27</title>
<g id="a_Node000027"><a xlink:href="rp2040_2hardware__structs_2include_2hardware_2structs_2io__bank0_8h.html" target="_top" xlink:title=" ">
<polygon fill="white" stroke="#666666" points="1845.5,-19 1775.5,-19 1775.5,0 1845.5,0 1845.5,-19"/>
<text text-anchor="middle" x="1810.5" y="-7" font-family="Helvetica,sans-Serif" font-size="10.00">io_bank0.h</text>
</a>
</g>
</g>
<!-- Node3&#45;&gt;Node27 -->
<g id="edge26_Node000003_Node000027" class="edge">
<title>Node3&#45;&gt;Node27</title>
<g id="a_edge26_Node000003_Node000027"><a xlink:title=" ">
<path fill="none" stroke="#63b8ff" d="M1871.46,-49.42C1856.39,-39.81 1836.91,-27.37 1824.08,-19.17"/>
<polygon fill="#63b8ff" stroke="#63b8ff" points="1869.85,-52.55 1880.16,-54.98 1873.62,-46.65 1869.85,-52.55"/>
</a>
</g>
</g>
<!-- Node28 -->
<g id="Node000028" class="node">
<title>Node28</title>
<g id="a_Node000028"><a xlink:href="rp2350_2hardware__structs_2include_2hardware_2structs_2io__qspi_8h.html" target="_top" xlink:title=" ">
<polygon fill="white" stroke="#666666" points="1923.5,-19 1863.5,-19 1863.5,0 1923.5,0 1923.5,-19"/>
<text text-anchor="middle" x="1893.5" y="-7" font-family="Helvetica,sans-Serif" font-size="10.00">io_qspi.h</text>
</a>
</g>
</g>
<!-- Node3&#45;&gt;Node28 -->
<g id="edge27_Node000003_Node000028" class="edge">
<title>Node3&#45;&gt;Node28</title>
<g id="a_edge27_Node000003_Node000028"><a xlink:title=" ">
<path fill="none" stroke="#63b8ff" d="M1893.5,-44.66C1893.5,-35.93 1893.5,-25.99 1893.5,-19.09"/>
<polygon fill="#63b8ff" stroke="#63b8ff" points="1890,-44.75 1893.5,-54.75 1897,-44.75 1890,-44.75"/>
</a>
</g>
</g>
<!-- Node29 -->
<g id="Node000029" class="node">
<title>Node29</title>
<g id="a_Node000029"><a xlink:href="rp2040_2hardware__structs_2include_2hardware_2structs_2io__qspi_8h.html" target="_top" xlink:title=" ">
<polygon fill="white" stroke="#666666" points="2001.5,-19 1941.5,-19 1941.5,0 2001.5,0 2001.5,-19"/>
<text text-anchor="middle" x="1971.5" y="-7" font-family="Helvetica,sans-Serif" font-size="10.00">io_qspi.h</text>
</a>
</g>
</g>
<!-- Node3&#45;&gt;Node29 -->
<g id="edge28_Node000003_Node000029" class="edge">
<title>Node3&#45;&gt;Node29</title>
<g id="a_edge28_Node000003_Node000029"><a xlink:title=" ">
<path fill="none" stroke="#63b8ff" d="M1914.62,-49.15C1928.71,-39.57 1946.79,-27.29 1958.74,-19.17"/>
<polygon fill="#63b8ff" stroke="#63b8ff" points="1912.34,-46.47 1906.03,-54.98 1916.27,-52.26 1912.34,-46.47"/>
</a>
</g>
</g>
<!-- Node30 -->
<g id="Node000030" class="node">
<title>Node30</title>
<g id="a_Node000030"><a xlink:href="rp2__common_2hardware__irq_2include_2hardware_2irq_8h.html" target="_top" xlink:title=" ">
<polygon fill="white" stroke="#666666" points="2057.5,-19 2019.5,-19 2019.5,0 2057.5,0 2057.5,-19"/>
<text text-anchor="middle" x="2038.5" y="-7" font-family="Helvetica,sans-Serif" font-size="10.00">irq.h</text>
</a>
</g>
</g>
<!-- Node3&#45;&gt;Node30 -->
<g id="edge29_Node000003_Node000030" class="edge">
<title>Node3&#45;&gt;Node30</title>
<g id="a_edge29_Node000003_Node000030"><a xlink:title=" ">
<path fill="none" stroke="#63b8ff" d="M1926.41,-51.47C1955.12,-40.98 1995.79,-26.11 2019.43,-17.47"/>
<polygon fill="#63b8ff" stroke="#63b8ff" points="1924.99,-48.26 1916.8,-54.98 1927.39,-54.84 1924.99,-48.26"/>
</a>
</g>
</g>
<!-- Node31 -->
<g id="Node000031" class="node">
<title>Node31</title>
<g id="a_Node000031"><a xlink:href="hardware__structs_2include_2hardware_2structs_2m0plus_8h.html" target="_top" xlink:title=" ">
<polygon fill="#fff0f0" stroke="red" points="2137.5,-19 2075.5,-19 2075.5,0 2137.5,0 2137.5,-19"/>
<text text-anchor="middle" x="2106.5" y="-7" font-family="Helvetica,sans-Serif" font-size="10.00">m0plus.h</text>
</a>
</g>
</g>
<!-- Node3&#45;&gt;Node31 -->
<g id="edge30_Node000003_Node000031" class="edge">
<title>Node3&#45;&gt;Node31</title>
<g id="a_edge30_Node000003_Node000031"><a xlink:title=" ">
<path fill="none" stroke="#63b8ff" d="M1937.49,-52.55C1978.66,-42.31 2039.14,-27.26 2075.48,-18.22"/>
<polygon fill="#63b8ff" stroke="#63b8ff" points="1936.58,-49.17 1927.72,-54.98 1938.27,-55.97 1936.58,-49.17"/>
</a>
</g>
</g>
<!-- Node33 -->
<g id="Node000033" class="node">
<title>Node33</title>
<g id="a_Node000033"><a xlink:href="hardware__structs_2include_2hardware_2structs_2m33_8h.html" target="_top" xlink:title=" ">
<polygon fill="#fff0f0" stroke="red" points="2203,-19 2156,-19 2156,0 2203,0 2203,-19"/>
<text text-anchor="middle" x="2179.5" y="-7" font-family="Helvetica,sans-Serif" font-size="10.00">m33.h</text>
</a>
</g>
</g>
<!-- Node3&#45;&gt;Node33 -->
<g id="edge31_Node000003_Node000033" class="edge">
<title>Node3&#45;&gt;Node33</title>
<g id="a_edge31_Node000003_Node000033"><a xlink:title=" ">
<path fill="none" stroke="#63b8ff" d="M1957.98,-53.58C2009.27,-45.35 2082.75,-32.79 2146.5,-19 2149.51,-18.35 2152.65,-17.61 2155.76,-16.85"/>
<polygon fill="#63b8ff" stroke="#63b8ff" points="1957.35,-50.14 1948.03,-55.17 1958.45,-57.05 1957.35,-50.14"/>
</a>
</g>
</g>
<!-- Node37 -->
<g id="Node000037" class="node">
<title>Node37</title>
<g id="a_Node000037"><a xlink:href="hardware__structs_2include_2hardware_2structs_2m33__eppb_8h.html" target="_top" xlink:title=" ">
<polygon fill="white" stroke="#666666" points="2298,-19 2221,-19 2221,0 2298,0 2298,-19"/>
<text text-anchor="middle" x="2259.5" y="-7" font-family="Helvetica,sans-Serif" font-size="10.00">m33_eppb.h</text>
</a>
</g>
</g>
<!-- Node3&#45;&gt;Node37 -->
<g id="edge32_Node000003_Node000037" class="edge">
<title>Node3&#45;&gt;Node37</title>
<g id="a_edge32_Node000003_Node000037"><a xlink:title=" ">
<path fill="none" stroke="#63b8ff" d="M1958.1,-55.27C2022.62,-46.86 2124.58,-33.08 2212.5,-19 2215.2,-18.57 2217.99,-18.11 2220.79,-17.63"/>
<polygon fill="#63b8ff" stroke="#63b8ff" points="1957.53,-51.81 1948.07,-56.57 1958.44,-58.75 1957.53,-51.81"/>
</a>
</g>
</g>
<!-- Node38 -->
<g id="Node000038" class="node">
<title>Node38</title>
<g id="a_Node000038"><a xlink:href="rp2040_2hardware__structs_2include_2hardware_2structs_2mpu_8h.html" target="_top" xlink:title=" ">
<polygon fill="white" stroke="#666666" points="2363,-19 2316,-19 2316,0 2363,0 2363,-19"/>
<text text-anchor="middle" x="2339.5" y="-7" font-family="Helvetica,sans-Serif" font-size="10.00">mpu.h</text>
</a>
</g>
</g>
<!-- Node3&#45;&gt;Node38 -->
<g id="edge33_Node000003_Node000038" class="edge">
<title>Node3&#45;&gt;Node38</title>
<g id="a_edge33_Node000003_Node000038"><a xlink:title=" ">
<path fill="none" stroke="#63b8ff" d="M1958.29,-59.61C2040.15,-53.98 2185.15,-41.69 2307.5,-19 2310.21,-18.5 2313.03,-17.88 2315.83,-17.22"/>
<polygon fill="#63b8ff" stroke="#63b8ff" points="1957.88,-56.13 1948.13,-60.29 1958.35,-63.11 1957.88,-56.13"/>
</a>
</g>
</g>
<!-- Node39 -->
<g id="Node000039" class="node">
<title>Node39</title>
<g id="a_Node000039"><a xlink:href="rp2350_2hardware__structs_2include_2hardware_2structs_2mpu_8h.html" target="_top" xlink:title=" ">
<polygon fill="white" stroke="#666666" points="2428,-19 2381,-19 2381,0 2428,0 2428,-19"/>
<text text-anchor="middle" x="2404.5" y="-7" font-family="Helvetica,sans-Serif" font-size="10.00">mpu.h</text>
</a>
</g>
</g>
<!-- Node3&#45;&gt;Node39 -->
<g id="edge34_Node000003_Node000039" class="edge">
<title>Node3&#45;&gt;Node39</title>
<g id="a_edge34_Node000003_Node000039"><a xlink:title=" ">
<path fill="none" stroke="#63b8ff" d="M1958.18,-60.92C2050.64,-56.46 2225.68,-45.13 2372.5,-19 2375.22,-18.52 2378.04,-17.92 2380.83,-17.26"/>
<polygon fill="#63b8ff" stroke="#63b8ff" points="1957.96,-57.43 1948.13,-61.39 1958.29,-64.42 1957.96,-57.43"/>
</a>
</g>
</g>
<!-- Node40 -->
<g id="Node000040" class="node">
<title>Node40</title>
<g id="a_Node000040"><a xlink:href="rp2040_2hardware__structs_2include_2hardware_2structs_2nvic_8h.html" target="_top" xlink:title=" ">
<polygon fill="white" stroke="#666666" points="2492.5,-19 2446.5,-19 2446.5,0 2492.5,0 2492.5,-19"/>
<text text-anchor="middle" x="2469.5" y="-7" font-family="Helvetica,sans-Serif" font-size="10.00">nvic.h</text>
</a>
</g>
</g>
<!-- Node3&#45;&gt;Node40 -->
<g id="edge35_Node000003_Node000040" class="edge">
<title>Node3&#45;&gt;Node40</title>
<g id="a_edge35_Node000003_Node000040"><a xlink:title=" ">
<path fill="none" stroke="#63b8ff" d="M1958.53,-61.92C2061.05,-58.58 2266.19,-48.52 2437.5,-19 2440.33,-18.51 2443.28,-17.89 2446.19,-17.21"/>
<polygon fill="#63b8ff" stroke="#63b8ff" points="1958.22,-58.42 1948.34,-62.24 1958.44,-65.42 1958.22,-58.42"/>
</a>
</g>
</g>
<!-- Node41 -->
<g id="Node000041" class="node">
<title>Node41</title>
<g id="a_Node000041"><a xlink:href="rp2350_2hardware__structs_2include_2hardware_2structs_2nvic_8h.html" target="_top" xlink:title=" ">
<polygon fill="white" stroke="#666666" points="2556.5,-19 2510.5,-19 2510.5,0 2556.5,0 2556.5,-19"/>
<text text-anchor="middle" x="2533.5" y="-7" font-family="Helvetica,sans-Serif" font-size="10.00">nvic.h</text>
</a>
</g>
</g>
<!-- Node3&#45;&gt;Node41 -->
<g id="edge36_Node000003_Node000041" class="edge">
<title>Node3&#45;&gt;Node41</title>
<g id="a_edge36_Node000003_Node000041"><a xlink:title=" ">
<path fill="none" stroke="#63b8ff" d="M1958.51,-62.71C2070.25,-60.47 2305.64,-51.88 2501.5,-19 2504.33,-18.52 2507.28,-17.91 2510.19,-17.23"/>
<polygon fill="#63b8ff" stroke="#63b8ff" points="1958.34,-59.21 1948.41,-62.9 1958.47,-66.21 1958.34,-59.21"/>
</a>
</g>
</g>
<!-- Node42 -->
<g id="Node000042" class="node">
<title>Node42</title>
<g id="a_Node000042"><a xlink:href="hardware__structs_2include_2hardware_2structs_2otp_8h.html" target="_top" xlink:title=" ">
<polygon fill="white" stroke="#666666" points="2616,-19 2575,-19 2575,0 2616,0 2616,-19"/>
<text text-anchor="middle" x="2595.5" y="-7" font-family="Helvetica,sans-Serif" font-size="10.00">otp.h</text>
</a>
</g>
</g>
<!-- Node3&#45;&gt;Node42 -->
<g id="edge37_Node000003_Node000042" class="edge">
<title>Node3&#45;&gt;Node42</title>
<g id="a_edge37_Node000003_Node000042"><a xlink:title=" ">
<path fill="none" stroke="#63b8ff" d="M1958.57,-63.71C2079.18,-63.09 2345.23,-57.06 2565.5,-19 2568.59,-18.47 2571.83,-17.74 2574.97,-16.93"/>
<polygon fill="#63b8ff" stroke="#63b8ff" points="1958.39,-60.21 1948.4,-63.75 1958.41,-67.21 1958.39,-60.21"/>
</a>
</g>
</g>
<!-- Node43 -->
<g id="Node000043" class="node">
<title>Node43</title>
<g id="a_Node000043"><a xlink:href="rp2350_2hardware__structs_2include_2hardware_2structs_2pads__bank0_8h.html" target="_top" xlink:title=" ">
<polygon fill="white" stroke="#666666" points="2718.5,-19 2634.5,-19 2634.5,0 2718.5,0 2718.5,-19"/>
<text text-anchor="middle" x="2676.5" y="-7" font-family="Helvetica,sans-Serif" font-size="10.00">pads_bank0.h</text>
</a>
</g>
</g>
<!-- Node3&#45;&gt;Node43 -->
<g id="edge38_Node000003_Node000043" class="edge">
<title>Node3&#45;&gt;Node43</title>
<g id="a_edge38_Node000003_Node000043"><a xlink:title=" ">
<path fill="none" stroke="#63b8ff" d="M1958.33,-61.83C2086.26,-58.04 2380.08,-46.83 2625.5,-19 2628.35,-18.68 2631.29,-18.3 2634.25,-17.89"/>
<polygon fill="#63b8ff" stroke="#63b8ff" points="1958.2,-58.33 1948.31,-62.12 1958.4,-65.33 1958.2,-58.33"/>
</a>
</g>
</g>
<!-- Node44 -->
<g id="Node000044" class="node">
<title>Node44</title>
<g id="a_Node000044"><a xlink:href="rp2040_2hardware__structs_2include_2hardware_2structs_2pads__bank0_8h.html" target="_top" xlink:title=" ">
<polygon fill="white" stroke="#666666" points="2820.5,-19 2736.5,-19 2736.5,0 2820.5,0 2820.5,-19"/>
<text text-anchor="middle" x="2778.5" y="-7" font-family="Helvetica,sans-Serif" font-size="10.00">pads_bank0.h</text>
</a>
</g>
</g>
<!-- Node3&#45;&gt;Node44 -->
<g id="edge39_Node000003_Node000044" class="edge">
<title>Node3&#45;&gt;Node44</title>
<g id="a_edge39_Node000003_Node000044"><a xlink:title=" ">
<path fill="none" stroke="#63b8ff" d="M1958.49,-62.5C2099.13,-59.81 2442.05,-50.3 2727.5,-19 2730.36,-18.69 2733.29,-18.32 2736.25,-17.92"/>
<polygon fill="#63b8ff" stroke="#63b8ff" points="1958.25,-59.01 1948.32,-62.69 1958.38,-66.01 1958.25,-59.01"/>
</a>
</g>
</g>
<!-- Node45 -->
<g id="Node000045" class="node">
<title>Node45</title>
<g id="a_Node000045"><a xlink:href="rp2350_2hardware__structs_2include_2hardware_2structs_2pads__qspi_8h.html" target="_top" xlink:title=" ">
<polygon fill="white" stroke="#666666" points="2912.5,-19 2838.5,-19 2838.5,0 2912.5,0 2912.5,-19"/>
<text text-anchor="middle" x="2875.5" y="-7" font-family="Helvetica,sans-Serif" font-size="10.00">pads_qspi.h</text>
</a>
</g>
</g>
<!-- Node3&#45;&gt;Node45 -->
<g id="edge40_Node000003_Node000045" class="edge">
<title>Node3&#45;&gt;Node45</title>
<g id="a_edge40_Node000003_Node000045"><a xlink:title=" ">
<path fill="none" stroke="#63b8ff" d="M1958.16,-63.43C2110.5,-62.61 2503.67,-56.67 2829.5,-19 2832.4,-18.66 2835.4,-18.25 2838.41,-17.8"/>
<polygon fill="#63b8ff" stroke="#63b8ff" points="1958.03,-59.93 1948.04,-63.48 1958.06,-66.93 1958.03,-59.93"/>
</a>
</g>
</g>
<!-- Node46 -->
<g id="Node000046" class="node">
<title>Node46</title>
<g id="a_Node000046"><a xlink:href="rp2040_2hardware__structs_2include_2hardware_2structs_2pads__qspi_8h.html" target="_top" xlink:title=" ">
<polygon fill="white" stroke="#666666" points="3004.5,-19 2930.5,-19 2930.5,0 3004.5,0 3004.5,-19"/>
<text text-anchor="middle" x="2967.5" y="-7" font-family="Helvetica,sans-Serif" font-size="10.00">pads_qspi.h</text>
</a>
</g>
</g>
<!-- Node3&#45;&gt;Node46 -->
<g id="edge41_Node000003_Node000046" class="edge">
<title>Node3&#45;&gt;Node46</title>
<g id="a_edge41_Node000003_Node000046"><a xlink:title=" ">
<path fill="none" stroke="#63b8ff" d="M1958.35,-63.82C2120.99,-63.96 2559.15,-60.12 2921.5,-19 2924.41,-18.67 2927.4,-18.27 2930.41,-17.81"/>
<polygon fill="#63b8ff" stroke="#63b8ff" points="1958.05,-60.32 1948.04,-63.81 1958.04,-67.32 1958.05,-60.32"/>
</a>
</g>
</g>
<!-- Node47 -->
<g id="Node000047" class="node">
<title>Node47</title>
<g id="a_Node000047"><a xlink:href="rp2350_2hardware__structs_2include_2hardware_2structs_2pio_8h.html" target="_top" xlink:title=" ">
<polygon fill="white" stroke="#666666" points="3064,-19 3023,-19 3023,0 3064,0 3064,-19"/>
<text text-anchor="middle" x="3043.5" y="-7" font-family="Helvetica,sans-Serif" font-size="10.00">pio.h</text>
</a>
</g>
</g>
<!-- Node3&#45;&gt;Node47 -->
<g id="edge42_Node000003_Node000047" class="edge">
<title>Node3&#45;&gt;Node47</title>
<g id="a_edge42_Node000003_Node000047"><a xlink:title=" ">
<path fill="none" stroke="#63b8ff" d="M1958.12,-62.94C2164.79,-60.82 2808.1,-51.71 3013.5,-19 3016.6,-18.51 3019.84,-17.8 3022.99,-17"/>
<polygon fill="#63b8ff" stroke="#63b8ff" points="1957.99,-59.44 1948.03,-63.04 1958.06,-66.44 1957.99,-59.44"/>
</a>
</g>
</g>
<!-- Node48 -->
<g id="Node000048" class="node">
<title>Node48</title>
<g id="a_Node000048"><a xlink:href="rp2__common_2hardware__pio_2include_2hardware_2pio_8h.html" target="_top" xlink:title=" ">
<polygon fill="#fff0f0" stroke="red" points="3123,-19 3082,-19 3082,0 3123,0 3123,-19"/>
<text text-anchor="middle" x="3102.5" y="-7" font-family="Helvetica,sans-Serif" font-size="10.00">pio.h</text>
</a>
</g>
</g>
<!-- Node3&#45;&gt;Node48 -->
<g id="edge43_Node000003_Node000048" class="edge">
<title>Node3&#45;&gt;Node48</title>
<g id="a_edge43_Node000003_Node000048"><a xlink:title=" ">
<path fill="none" stroke="#63b8ff" d="M1958.3,-63.16C2172.44,-61.72 2856.13,-54.39 3073.5,-19 3076.19,-18.56 3078.99,-17.95 3081.73,-17.26"/>
<polygon fill="#63b8ff" stroke="#63b8ff" points="1958.13,-59.66 1948.16,-63.23 1958.18,-66.66 1958.13,-59.66"/>
</a>
</g>
</g>
<!-- Node51 -->
<g id="Node000051" class="node">
<title>Node51</title>
<g id="a_Node000051"><a xlink:href="rp2040_2hardware__structs_2include_2hardware_2structs_2pio_8h.html" target="_top" xlink:title=" ">
<polygon fill="white" stroke="#666666" points="3182,-19 3141,-19 3141,0 3182,0 3182,-19"/>
<text text-anchor="middle" x="3161.5" y="-7" font-family="Helvetica,sans-Serif" font-size="10.00">pio.h</text>
</a>
</g>
</g>
<!-- Node3&#45;&gt;Node51 -->
<g id="edge44_Node000003_Node000051" class="edge">
<title>Node3&#45;&gt;Node51</title>
<g id="a_edge44_Node000003_Node000051"><a xlink:title=" ">
<path fill="none" stroke="#63b8ff" d="M1958.15,-63.3C2179.08,-62.29 2903.08,-56.14 3132.5,-19 3135.19,-18.56 3137.99,-17.95 3140.73,-17.26"/>
<polygon fill="#63b8ff" stroke="#63b8ff" points="1958,-59.8 1948.01,-63.35 1958.03,-66.8 1958,-59.8"/>
</a>
</g>
</g>
<!-- Node52 -->
<g id="Node000052" class="node">
<title>Node52</title>
<g id="a_Node000052"><a xlink:href="rp2350_2pico__platform_2platform_8c.html" target="_top" xlink:title=" ">
<polygon fill="white" stroke="#666666" points="3267,-19 3200,-19 3200,0 3267,0 3267,-19"/>
<text text-anchor="middle" x="3233.5" y="-7" font-family="Helvetica,sans-Serif" font-size="10.00">platform.c</text>
</a>
</g>
</g>
<!-- Node3&#45;&gt;Node52 -->
<g id="edge45_Node000003_Node000052" class="edge">
<title>Node3&#45;&gt;Node52</title>
<g id="a_edge45_Node000003_Node000052"><a xlink:title=" ">
<path fill="none" stroke="#63b8ff" d="M1958.43,-62.7C2186.28,-59.65 2948.76,-47.53 3191.5,-19 3194.16,-18.69 3196.9,-18.29 3199.65,-17.85"/>
<polygon fill="#63b8ff" stroke="#63b8ff" points="1958.26,-59.2 1948.31,-62.83 1958.35,-66.2 1958.26,-59.2"/>
</a>
</g>
</g>
<!-- Node53 -->
<g id="Node000053" class="node">
<title>Node53</title>
<g id="a_Node000053"><a xlink:href="rp2040_2pico__platform_2platform_8c.html" target="_top" xlink:title=" ">
<polygon fill="white" stroke="#666666" points="3352,-19 3285,-19 3285,0 3352,0 3352,-19"/>
<text text-anchor="middle" x="3318.5" y="-7" font-family="Helvetica,sans-Serif" font-size="10.00">platform.c</text>
</a>
</g>
</g>
<!-- Node3&#45;&gt;Node53 -->
<g id="edge46_Node000003_Node000053" class="edge">
<title>Node3&#45;&gt;Node53</title>
<g id="a_edge46_Node000003_Node000053"><a xlink:title=" ">
<path fill="none" stroke="#63b8ff" d="M1958.25,-62.86C2195.4,-60.27 3016.25,-49.31 3276.5,-19 3279.16,-18.69 3281.9,-18.3 3284.65,-17.86"/>
<polygon fill="#63b8ff" stroke="#63b8ff" points="1958.02,-59.36 1948.06,-62.97 1958.1,-66.36 1958.02,-59.36"/>
</a>
</g>
</g>
<!-- Node54 -->
<g id="Node000054" class="node">
<title>Node54</title>
<g id="a_Node000054"><a xlink:href="rp2040_2hardware__structs_2include_2hardware_2structs_2pll_8h.html" target="_top" xlink:title=" ">
<polygon fill="white" stroke="#666666" points="3408.5,-19 3370.5,-19 3370.5,0 3408.5,0 3408.5,-19"/>
<text text-anchor="middle" x="3389.5" y="-7" font-family="Helvetica,sans-Serif" font-size="10.00">pll.h</text>
</a>
</g>
</g>
<!-- Node3&#45;&gt;Node54 -->
<g id="edge47_Node000003_Node000054" class="edge">
<title>Node3&#45;&gt;Node54</title>
<g id="a_edge47_Node000003_Node000054"><a xlink:title=" ">
<path fill="none" stroke="#63b8ff" d="M1958.6,-63.81C2205.72,-64.63 3085.69,-64.22 3361.5,-19 3364.41,-18.52 3367.44,-17.83 3370.38,-17.03"/>
<polygon fill="#63b8ff" stroke="#63b8ff" points="1958.36,-60.31 1948.35,-63.77 1958.33,-67.31 1958.36,-60.31"/>
</a>
</g>
</g>
<!-- Node55 -->
<g id="Node000055" class="node">
<title>Node55</title>
<g id="a_Node000055"><a xlink:href="rp2350_2hardware__structs_2include_2hardware_2structs_2pll_8h.html" target="_top" xlink:title=" ">
<polygon fill="white" stroke="#666666" points="3464.5,-19 3426.5,-19 3426.5,0 3464.5,0 3464.5,-19"/>
<text text-anchor="middle" x="3445.5" y="-7" font-family="Helvetica,sans-Serif" font-size="10.00">pll.h</text>
</a>
</g>
</g>
<!-- Node3&#45;&gt;Node55 -->
<g id="edge48_Node000003_Node000055" class="edge">
<title>Node3&#45;&gt;Node55</title>
<g id="a_edge48_Node000003_Node000055"><a xlink:title=" ">
<path fill="none" stroke="#63b8ff" d="M1958.13,-63.89C2210.55,-65.07 3130.05,-65.97 3417.5,-19 3420.41,-18.52 3423.44,-17.83 3426.38,-17.04"/>
<polygon fill="#63b8ff" stroke="#63b8ff" points="1958.04,-60.39 1948.02,-63.84 1958.01,-67.39 1958.04,-60.39"/>
</a>
</g>
</g>
<!-- Node56 -->
<g id="Node000056" class="node">
<title>Node56</title>
<g id="a_Node000056"><a xlink:href="rp2350_2hardware__structs_2include_2hardware_2structs_2powman_8h.html" target="_top" xlink:title=" ">
<polygon fill="#fff0f0" stroke="red" points="3550.5,-19 3482.5,-19 3482.5,0 3550.5,0 3550.5,-19"/>
<text text-anchor="middle" x="3516.5" y="-7" font-family="Helvetica,sans-Serif" font-size="10.00">powman.h</text>
</a>
</g>
</g>
<!-- Node3&#45;&gt;Node56 -->
<g id="edge49_Node000003_Node000056" class="edge">
<title>Node3&#45;&gt;Node56</title>
<g id="a_edge49_Node000003_Node000056"><a xlink:title=" ">
<path fill="none" stroke="#63b8ff" d="M1958.64,-63.12C2217.35,-61.37 3172.75,-52.72 3473.5,-19 3476.37,-18.68 3479.34,-18.26 3482.31,-17.79"/>
<polygon fill="#63b8ff" stroke="#63b8ff" points="1958.26,-59.62 1948.29,-63.19 1958.31,-66.62 1958.26,-59.62"/>
</a>
</g>
</g>
<!-- Node63 -->
<g id="Node000063" class="node">
<title>Node63</title>
<g id="a_Node000063"><a xlink:href="rp2040_2hardware__structs_2include_2hardware_2structs_2psm_8h.html" target="_top" xlink:title=" ">
<polygon fill="white" stroke="#666666" points="3616,-19 3569,-19 3569,0 3616,0 3616,-19"/>
<text text-anchor="middle" x="3592.5" y="-7" font-family="Helvetica,sans-Serif" font-size="10.00">psm.h</text>
</a>
</g>
</g>
<!-- Node3&#45;&gt;Node63 -->
<g id="edge50_Node000003_Node000063" class="edge">
<title>Node3&#45;&gt;Node63</title>
<g id="a_edge50_Node000003_Node000063"><a xlink:title=" ">
<path fill="none" stroke="#63b8ff" d="M1958.68,-63.72C2226.38,-64.32 3242.11,-63.53 3559.5,-19 3562.55,-18.57 3565.72,-17.97 3568.84,-17.28"/>
<polygon fill="#63b8ff" stroke="#63b8ff" points="1958.36,-60.22 1948.36,-63.69 1958.35,-67.22 1958.36,-60.22"/>
</a>
</g>
</g>
</g>
</svg>
