<?xml version="1.0" encoding="UTF-8" standalone="no"?>
<!DOCTYPE svg PUBLIC "-//W3C//DTD SVG 1.1//EN"
 "http://www.w3.org/Graphics/SVG/1.1/DTD/svg11.dtd">
<!-- Generated by graphviz version 2.43.0 (0)
 -->
<!-- Title: m0plus.h Pages: 1 -->
<svg width="372pt" height="137pt"
 viewBox="0.00 0.00 371.50 137.00" xmlns="http://www.w3.org/2000/svg" xmlns:xlink="http://www.w3.org/1999/xlink">
<g id="graph0" class="graph" transform="scale(1 1) rotate(0) translate(4 133)">
<title>m0plus.h</title>
<!-- Node1 -->
<g id="Node000001" class="node">
<title>Node1</title>
<g id="a_Node000001"><a xlink:title=" ">
<polygon fill="#999999" stroke="#666666" points="200.5,-129 138.5,-129 138.5,-110 200.5,-110 200.5,-129"/>
<text text-anchor="middle" x="169.5" y="-117" font-family="Helvetica,sans-Serif" font-size="10.00">m0plus.h</text>
</a>
</g>
</g>
<!-- Node2 -->
<g id="Node000002" class="node">
<title>Node2</title>
<g id="a_Node000002"><a xlink:href="rp2040_2pico__platform_2include_2pico_2platform_2cpu__regs_8h.html" target="_top" xlink:title=" ">
<polygon fill="white" stroke="#666666" points="69,-19 0,-19 0,0 69,0 69,-19"/>
<text text-anchor="middle" x="34.5" y="-7" font-family="Helvetica,sans-Serif" font-size="10.00">cpu_regs.h</text>
</a>
</g>
</g>
<!-- Node1&#45;&gt;Node2 -->
<g id="edge1_Node000001_Node000002" class="edge">
<title>Node1&#45;&gt;Node2</title>
<g id="a_edge1_Node000001_Node000002"><a xlink:title=" ">
<path fill="none" stroke="#63b8ff" d="M128.18,-118.31C94.27,-115.7 48.12,-105.95 24.5,-74 12.43,-57.67 22.57,-32.46 29.45,-19.26"/>
<polygon fill="#63b8ff" stroke="#63b8ff" points="128.09,-121.81 138.28,-118.91 128.5,-114.83 128.09,-121.81"/>
</a>
</g>
</g>
<!-- Node3 -->
<g id="Node000003" class="node">
<title>Node3</title>
<g id="a_Node000003"><a xlink:href="hardware__structs_2include_2hardware_2structs_2m0plus_8h.html" target="_top" xlink:title=" ">
<polygon fill="white" stroke="#666666" points="95.5,-74 33.5,-74 33.5,-55 95.5,-55 95.5,-74"/>
<text text-anchor="middle" x="64.5" y="-62" font-family="Helvetica,sans-Serif" font-size="10.00">m0plus.h</text>
</a>
</g>
</g>
<!-- Node1&#45;&gt;Node3 -->
<g id="edge2_Node000001_Node000003" class="edge">
<title>Node1&#45;&gt;Node3</title>
<g id="a_edge2_Node000001_Node000003"><a xlink:title=" ">
<path fill="none" stroke="#63b8ff" d="M143.48,-105.37C124.2,-95.63 98.45,-82.64 81.68,-74.17"/>
<polygon fill="#63b8ff" stroke="#63b8ff" points="142.13,-108.6 152.63,-109.98 145.28,-102.35 142.13,-108.6"/>
</a>
</g>
</g>
<!-- Node4 -->
<g id="Node000004" class="node">
<title>Node4</title>
<g id="a_Node000004"><a xlink:href="rp2040_2hardware__structs_2include_2hardware_2structs_2mpu_8h.html" target="_top" xlink:title=" ">
<polygon fill="white" stroke="#666666" points="161,-74 114,-74 114,-55 161,-55 161,-74"/>
<text text-anchor="middle" x="137.5" y="-62" font-family="Helvetica,sans-Serif" font-size="10.00">mpu.h</text>
</a>
</g>
</g>
<!-- Node1&#45;&gt;Node4 -->
<g id="edge4_Node000001_Node000004" class="edge">
<title>Node1&#45;&gt;Node4</title>
<g id="a_edge4_Node000001_Node000004"><a xlink:title=" ">
<path fill="none" stroke="#63b8ff" d="M159,-101.1C153.53,-92.04 147.08,-81.37 142.69,-74.09"/>
<polygon fill="#63b8ff" stroke="#63b8ff" points="156.05,-103 164.22,-109.75 162.04,-99.38 156.05,-103"/>
</a>
</g>
</g>
<!-- Node5 -->
<g id="Node000005" class="node">
<title>Node5</title>
<g id="a_Node000005"><a xlink:href="rp2040_2hardware__structs_2include_2hardware_2structs_2nvic_8h.html" target="_top" xlink:title=" ">
<polygon fill="white" stroke="#666666" points="225.5,-74 179.5,-74 179.5,-55 225.5,-55 225.5,-74"/>
<text text-anchor="middle" x="202.5" y="-62" font-family="Helvetica,sans-Serif" font-size="10.00">nvic.h</text>
</a>
</g>
</g>
<!-- Node1&#45;&gt;Node5 -->
<g id="edge5_Node000001_Node000005" class="edge">
<title>Node1&#45;&gt;Node5</title>
<g id="a_edge5_Node000001_Node000005"><a xlink:title=" ">
<path fill="none" stroke="#63b8ff" d="M180.33,-101.1C185.97,-92.04 192.62,-81.37 197.15,-74.09"/>
<polygon fill="#63b8ff" stroke="#63b8ff" points="177.26,-99.41 174.95,-109.75 183.21,-103.11 177.26,-99.41"/>
</a>
</g>
</g>
<!-- Node6 -->
<g id="Node000006" class="node">
<title>Node6</title>
<g id="a_Node000006"><a xlink:href="rp2040_2hardware__structs_2include_2hardware_2structs_2scb_8h.html" target="_top" xlink:title=" ">
<polygon fill="white" stroke="#666666" points="285.5,-74 243.5,-74 243.5,-55 285.5,-55 285.5,-74"/>
<text text-anchor="middle" x="264.5" y="-62" font-family="Helvetica,sans-Serif" font-size="10.00">scb.h</text>
</a>
</g>
</g>
<!-- Node1&#45;&gt;Node6 -->
<g id="edge6_Node000001_Node000006" class="edge">
<title>Node1&#45;&gt;Node6</title>
<g id="a_edge6_Node000001_Node000006"><a xlink:title=" ">
<path fill="none" stroke="#63b8ff" d="M193.76,-104.97C211.13,-95.28 233.99,-82.52 248.96,-74.17"/>
<polygon fill="#63b8ff" stroke="#63b8ff" points="191.79,-102.06 184.76,-109.98 195.2,-108.17 191.79,-102.06"/>
</a>
</g>
</g>
<!-- Node7 -->
<g id="Node000007" class="node">
<title>Node7</title>
<g id="a_Node000007"><a xlink:href="rp2040_2hardware__structs_2include_2hardware_2structs_2systick_8h.html" target="_top" xlink:title=" ">
<polygon fill="white" stroke="#666666" points="363.5,-74 303.5,-74 303.5,-55 363.5,-55 363.5,-74"/>
<text text-anchor="middle" x="333.5" y="-62" font-family="Helvetica,sans-Serif" font-size="10.00">systick.h</text>
</a>
</g>
</g>
<!-- Node1&#45;&gt;Node7 -->
<g id="edge7_Node000001_Node000007" class="edge">
<title>Node1&#45;&gt;Node7</title>
<g id="a_edge7_Node000001_Node000007"><a xlink:title=" ">
<path fill="none" stroke="#63b8ff" d="M205.71,-106.8C236.32,-96.91 279.45,-82.97 306.94,-74.08"/>
<polygon fill="#63b8ff" stroke="#63b8ff" points="204.29,-103.58 195.85,-109.98 206.44,-110.24 204.29,-103.58"/>
</a>
</g>
</g>
<!-- Node3&#45;&gt;Node2 -->
<g id="edge3_Node000003_Node000002" class="edge">
<title>Node3&#45;&gt;Node2</title>
<g id="a_edge3_Node000003_Node000002"><a xlink:title=" ">
<path fill="none" stroke="#63b8ff" d="M54.49,-45.82C49.4,-36.82 43.44,-26.29 39.36,-19.09"/>
<polygon fill="#63b8ff" stroke="#63b8ff" points="51.57,-47.77 59.55,-54.75 57.67,-44.32 51.57,-47.77"/>
</a>
</g>
</g>
</g>
</svg>
