<?xml version="1.0" encoding="UTF-8" standalone="no"?>
<!DOCTYPE svg PUBLIC "-//W3C//DTD SVG 1.1//EN"
 "http://www.w3.org/Graphics/SVG/1.1/DTD/svg11.dtd">
<!-- Generated by graphviz version 2.43.0 (0)
 -->
<!-- Title: hazard3.h Pages: 1 -->
<svg width="385pt" height="192pt"
 viewBox="0.00 0.00 385.50 192.00" xmlns="http://www.w3.org/2000/svg" xmlns:xlink="http://www.w3.org/1999/xlink">
<g id="graph0" class="graph" transform="scale(1 1) rotate(0) translate(4 188)">
<title>hazard3.h</title>
<!-- Node1 -->
<g id="Node000001" class="node">
<title>Node1</title>
<g id="a_Node000001"><a xlink:title=" ">
<polygon fill="#999999" stroke="#666666" points="170.5,-184 105.5,-184 105.5,-165 170.5,-165 170.5,-184"/>
<text text-anchor="middle" x="138" y="-172" font-family="Helvetica,sans-Serif" font-size="10.00">hazard3.h</text>
</a>
</g>
</g>
<!-- Node2 -->
<g id="Node000002" class="node">
<title>Node2</title>
<g id="a_Node000002"><a xlink:title=" ">
<polygon fill="#e0e0e0" stroke="#999999" points="168,-19 122,-19 122,0 168,0 168,-19"/>
<text text-anchor="middle" x="145" y="-7" font-family="Helvetica,sans-Serif" font-size="10.00">pico.h</text>
</a>
</g>
</g>
<!-- Node1&#45;&gt;Node2 -->
<g id="edge1_Node000001_Node000002" class="edge">
<title>Node1&#45;&gt;Node2</title>
<g id="a_edge1_Node000001_Node000002"><a xlink:title=" ">
<path fill="none" stroke="#63b8ff" d="M105.34,-172.94C73.38,-170.44 26.21,-161.09 3,-129 -1.95,-122.16 0.91,-118.18 3,-110 9.88,-83.02 12.15,-73.46 33,-55 55.47,-35.09 87.94,-23.52 112.14,-17.2"/>
<polygon fill="#63b8ff" stroke="#63b8ff" points="113.07,-20.57 121.95,-14.8 111.41,-13.77 113.07,-20.57"/>
</a>
</g>
</g>
<!-- Node3 -->
<g id="Node000003" class="node">
<title>Node3</title>
<g id="a_Node000003"><a xlink:href="riscv_8h.html" target="_top" xlink:title=" ">
<polygon fill="white" stroke="#666666" points="109.5,-129 12.5,-129 12.5,-110 109.5,-110 109.5,-129"/>
<text text-anchor="middle" x="61" y="-117" font-family="Helvetica,sans-Serif" font-size="10.00">hardware/riscv.h</text>
</a>
</g>
</g>
<!-- Node1&#45;&gt;Node3 -->
<g id="edge2_Node000001_Node000003" class="edge">
<title>Node1&#45;&gt;Node3</title>
<g id="a_edge2_Node000001_Node000003"><a xlink:title=" ">
<path fill="none" stroke="#63b8ff" d="M125.62,-164.98C113.91,-156.92 96.08,-144.65 82.11,-135.03"/>
<polygon fill="#63b8ff" stroke="#63b8ff" points="83.81,-131.96 73.59,-129.17 79.85,-137.72 83.81,-131.96"/>
</a>
</g>
</g>
<!-- Node4 -->
<g id="Node000004" class="node">
<title>Node4</title>
<g id="a_Node000004"><a xlink:href="rvcsr_8h.html" target="_top" xlink:title=" ">
<polygon fill="white" stroke="#666666" points="172,-74 50,-74 50,-55 172,-55 172,-74"/>
<text text-anchor="middle" x="111" y="-62" font-family="Helvetica,sans-Serif" font-size="10.00">hardware/regs/rvcsr.h</text>
</a>
</g>
</g>
<!-- Node1&#45;&gt;Node4 -->
<g id="edge5_Node000001_Node000004" class="edge">
<title>Node1&#45;&gt;Node4</title>
<g id="a_edge5_Node000001_Node000004"><a xlink:title=" ">
<path fill="none" stroke="#63b8ff" d="M135.79,-164.66C131.39,-147.09 121.48,-107.45 115.61,-83.95"/>
<polygon fill="#63b8ff" stroke="#63b8ff" points="118.98,-83.01 113.16,-74.16 112.19,-84.71 118.98,-83.01"/>
</a>
</g>
</g>
<!-- Node5 -->
<g id="Node000005" class="node">
<title>Node5</title>
<g id="a_Node000005"><a xlink:href="features_8h.html" target="_top" xlink:title=" ">
<polygon fill="white" stroke="#666666" points="347.5,-74 190.5,-74 190.5,-55 347.5,-55 347.5,-74"/>
<text text-anchor="middle" x="269" y="-62" font-family="Helvetica,sans-Serif" font-size="10.00">hardware/hazard3/features.h</text>
</a>
</g>
</g>
<!-- Node1&#45;&gt;Node5 -->
<g id="edge6_Node000001_Node000005" class="edge">
<title>Node1&#45;&gt;Node5</title>
<g id="a_edge6_Node000001_Node000005"><a xlink:title=" ">
<path fill="none" stroke="#63b8ff" d="M144.32,-164.95C154.17,-152.02 174.21,-127.17 195,-110 209.6,-97.94 227.81,-86.95 242.51,-78.9"/>
<polygon fill="#63b8ff" stroke="#63b8ff" points="244.41,-81.85 251.59,-74.06 241.12,-75.68 244.41,-81.85"/>
</a>
</g>
</g>
<!-- Node6 -->
<g id="Node000006" class="node">
<title>Node6</title>
<g id="a_Node000006"><a xlink:href="instructions_8h.html" target="_top" xlink:title=" ">
<polygon fill="white" stroke="#666666" points="377.5,-129 204.5,-129 204.5,-110 377.5,-110 377.5,-129"/>
<text text-anchor="middle" x="291" y="-117" font-family="Helvetica,sans-Serif" font-size="10.00">hardware/hazard3/instructions.h</text>
</a>
</g>
</g>
<!-- Node1&#45;&gt;Node6 -->
<g id="edge8_Node000001_Node000006" class="edge">
<title>Node1&#45;&gt;Node6</title>
<g id="a_edge8_Node000001_Node000006"><a xlink:title=" ">
<path fill="none" stroke="#63b8ff" d="M162.58,-164.98C188.04,-156.16 228.04,-142.31 256.63,-132.41"/>
<polygon fill="#63b8ff" stroke="#63b8ff" points="257.92,-135.66 266.22,-129.08 255.63,-129.05 257.92,-135.66"/>
</a>
</g>
</g>
<!-- Node3&#45;&gt;Node2 -->
<g id="edge3_Node000003_Node000002" class="edge">
<title>Node3&#45;&gt;Node2</title>
<g id="a_edge3_Node000003_Node000002"><a xlink:title=" ">
<path fill="none" stroke="#63b8ff" d="M53.73,-109.62C44.08,-96.7 29.54,-72.37 41,-55 56.61,-31.33 87.69,-20.21 111.83,-15"/>
<polygon fill="#63b8ff" stroke="#63b8ff" points="112.52,-18.44 121.68,-13.12 111.2,-11.56 112.52,-18.44"/>
</a>
</g>
</g>
<!-- Node3&#45;&gt;Node4 -->
<g id="edge4_Node000003_Node000004" class="edge">
<title>Node3&#45;&gt;Node4</title>
<g id="a_edge4_Node000003_Node000004"><a xlink:title=" ">
<path fill="none" stroke="#63b8ff" d="M69.25,-109.75C76.46,-102.11 87.11,-90.82 95.84,-81.56"/>
<polygon fill="#63b8ff" stroke="#63b8ff" points="98.58,-83.76 102.89,-74.09 93.49,-78.96 98.58,-83.76"/>
</a>
</g>
</g>
<!-- Node5&#45;&gt;Node2 -->
<g id="edge7_Node000005_Node000002" class="edge">
<title>Node5&#45;&gt;Node2</title>
<g id="a_edge7_Node000005_Node000002"><a xlink:title=" ">
<path fill="none" stroke="#63b8ff" d="M249.07,-54.98C228.95,-46.38 197.62,-32.99 174.59,-23.15"/>
<polygon fill="#63b8ff" stroke="#63b8ff" points="175.85,-19.88 165.28,-19.17 173.1,-26.32 175.85,-19.88"/>
</a>
</g>
</g>
<!-- Node6&#45;&gt;Node2 -->
<g id="edge9_Node000006_Node000002" class="edge">
<title>Node6&#45;&gt;Node2</title>
<g id="a_edge9_Node000006_Node000002"><a xlink:title=" ">
<path fill="none" stroke="#63b8ff" d="M311.62,-109.89C336.63,-98.24 373.39,-76.44 356,-55 334,-27.88 232,-16.65 178.29,-12.56"/>
<polygon fill="#63b8ff" stroke="#63b8ff" points="178.46,-9.06 168.23,-11.83 177.95,-16.04 178.46,-9.06"/>
</a>
</g>
</g>
<!-- Node6&#45;&gt;Node5 -->
<g id="edge10_Node000006_Node000005" class="edge">
<title>Node6&#45;&gt;Node5</title>
<g id="a_edge10_Node000006_Node000005"><a xlink:title=" ">
<path fill="none" stroke="#63b8ff" d="M287.36,-109.75C284.42,-102.65 280.16,-92.4 276.49,-83.56"/>
<polygon fill="#63b8ff" stroke="#63b8ff" points="279.63,-81.98 272.56,-74.09 273.16,-84.67 279.63,-81.98"/>
</a>
</g>
</g>
</g>
</svg>
