<?xml version="1.0" encoding="UTF-8" standalone="no"?>
<!DOCTYPE svg PUBLIC "-//W3C//DTD SVG 1.1//EN"
 "http://www.w3.org/Graphics/SVG/1.1/DTD/svg11.dtd">
<!-- Generated by graphviz version 2.43.0 (0)
 -->
<!-- Title: hex_output.cpp Pages: 1 -->
<svg width="416pt" height="137pt"
 viewBox="0.00 0.00 415.50 137.00" xmlns="http://www.w3.org/2000/svg" xmlns:xlink="http://www.w3.org/1999/xlink">
<g id="graph0" class="graph" transform="scale(1 1) rotate(0) translate(4 133)">
<title>hex_output.cpp</title>
<!-- Node1 -->
<g id="Node000001" class="node">
<title>Node1</title>
<g id="a_Node000001"><a xlink:title=" ">
<polygon fill="#999999" stroke="#666666" points="276,-129 184,-129 184,-110 276,-110 276,-129"/>
<text text-anchor="middle" x="230" y="-117" font-family="Helvetica,sans-Serif" font-size="10.00">hex_output.cpp</text>
</a>
</g>
</g>
<!-- Node2 -->
<g id="Node000002" class="node">
<title>Node2</title>
<g id="a_Node000002"><a xlink:href="output__format_8h.html" target="_top" xlink:title=" ">
<polygon fill="white" stroke="#666666" points="229.5,-74 134.5,-74 134.5,-55 229.5,-55 229.5,-74"/>
<text text-anchor="middle" x="182" y="-62" font-family="Helvetica,sans-Serif" font-size="10.00">output_format.h</text>
</a>
</g>
</g>
<!-- Node1&#45;&gt;Node2 -->
<g id="edge1_Node000001_Node000002" class="edge">
<title>Node1&#45;&gt;Node2</title>
<g id="a_edge1_Node000001_Node000002"><a xlink:title=" ">
<path fill="none" stroke="#63b8ff" d="M222.07,-109.75C215.15,-102.11 204.93,-90.82 196.55,-81.56"/>
<polygon fill="#63b8ff" stroke="#63b8ff" points="199.09,-79.15 189.78,-74.09 193.9,-83.85 199.09,-79.15"/>
</a>
</g>
</g>
<!-- Node9 -->
<g id="Node000009" class="node">
<title>Node9</title>
<g id="a_Node000009"><a xlink:title=" ">
<polygon fill="#e0e0e0" stroke="#999999" points="308,-74 248,-74 248,-55 308,-55 308,-74"/>
<text text-anchor="middle" x="278" y="-62" font-family="Helvetica,sans-Serif" font-size="10.00">iostream</text>
</a>
</g>
</g>
<!-- Node1&#45;&gt;Node9 -->
<g id="edge8_Node000001_Node000009" class="edge">
<title>Node1&#45;&gt;Node9</title>
<g id="a_edge8_Node000001_Node000009"><a xlink:title=" ">
<path fill="none" stroke="#63b8ff" d="M237.93,-109.75C244.85,-102.11 255.07,-90.82 263.45,-81.56"/>
<polygon fill="#63b8ff" stroke="#63b8ff" points="266.1,-83.85 270.22,-74.09 260.91,-79.15 266.1,-83.85"/>
</a>
</g>
</g>
<!-- Node3 -->
<g id="Node000003" class="node">
<title>Node3</title>
<g id="a_Node000003"><a xlink:title=" ">
<polygon fill="#e0e0e0" stroke="#999999" points="50,-19 0,-19 0,0 50,0 50,-19"/>
<text text-anchor="middle" x="25" y="-7" font-family="Helvetica,sans-Serif" font-size="10.00">cstdint</text>
</a>
</g>
</g>
<!-- Node2&#45;&gt;Node3 -->
<g id="edge2_Node000002_Node000003" class="edge">
<title>Node2&#45;&gt;Node3</title>
<g id="a_edge2_Node000002_Node000003"><a xlink:title=" ">
<path fill="none" stroke="#63b8ff" d="M156.78,-54.98C130.57,-46.14 89.36,-32.23 60.01,-22.32"/>
<polygon fill="#63b8ff" stroke="#63b8ff" points="60.76,-18.88 50.16,-18.99 58.52,-25.51 60.76,-18.88"/>
</a>
</g>
</g>
<!-- Node4 -->
<g id="Node000004" class="node">
<title>Node4</title>
<g id="a_Node000004"><a xlink:title=" ">
<polygon fill="#e0e0e0" stroke="#999999" points="115.5,-19 68.5,-19 68.5,0 115.5,0 115.5,-19"/>
<text text-anchor="middle" x="92" y="-7" font-family="Helvetica,sans-Serif" font-size="10.00">vector</text>
</a>
</g>
</g>
<!-- Node2&#45;&gt;Node4 -->
<g id="edge3_Node000002_Node000004" class="edge">
<title>Node2&#45;&gt;Node4</title>
<g id="a_edge3_Node000002_Node000004"><a xlink:title=" ">
<path fill="none" stroke="#63b8ff" d="M167.54,-54.98C153.58,-46.77 132.21,-34.18 115.75,-24.49"/>
<polygon fill="#63b8ff" stroke="#63b8ff" points="117.12,-21.23 106.72,-19.17 113.56,-27.26 117.12,-21.23"/>
</a>
</g>
</g>
<!-- Node5 -->
<g id="Node000005" class="node">
<title>Node5</title>
<g id="a_Node000005"><a xlink:title=" ">
<polygon fill="#e0e0e0" stroke="#999999" points="172,-19 134,-19 134,0 172,0 172,-19"/>
<text text-anchor="middle" x="153" y="-7" font-family="Helvetica,sans-Serif" font-size="10.00">map</text>
</a>
</g>
</g>
<!-- Node2&#45;&gt;Node5 -->
<g id="edge4_Node000002_Node000005" class="edge">
<title>Node2&#45;&gt;Node5</title>
<g id="a_edge4_Node000002_Node000005"><a xlink:title=" ">
<path fill="none" stroke="#63b8ff" d="M177.21,-54.75C173.24,-47.49 167.47,-36.95 162.57,-27.98"/>
<polygon fill="#63b8ff" stroke="#63b8ff" points="165.57,-26.18 157.7,-19.09 159.43,-29.54 165.57,-26.18"/>
</a>
</g>
</g>
<!-- Node6 -->
<g id="Node000006" class="node">
<title>Node6</title>
<g id="a_Node000006"><a xlink:title=" ">
<polygon fill="#e0e0e0" stroke="#999999" points="234,-19 190,-19 190,0 234,0 234,-19"/>
<text text-anchor="middle" x="212" y="-7" font-family="Helvetica,sans-Serif" font-size="10.00">string</text>
</a>
</g>
</g>
<!-- Node2&#45;&gt;Node6 -->
<g id="edge5_Node000002_Node000006" class="edge">
<title>Node2&#45;&gt;Node6</title>
<g id="a_edge5_Node000002_Node000006"><a xlink:title=" ">
<path fill="none" stroke="#63b8ff" d="M186.95,-54.75C191.06,-47.49 197.03,-36.95 202.1,-27.98"/>
<polygon fill="#63b8ff" stroke="#63b8ff" points="205.26,-29.52 207.14,-19.09 199.17,-26.07 205.26,-29.52"/>
</a>
</g>
</g>
<!-- Node7 -->
<g id="Node000007" class="node">
<title>Node7</title>
<g id="a_Node000007"><a xlink:title=" ">
<polygon fill="#e0e0e0" stroke="#999999" points="310,-19 252,-19 252,0 310,0 310,-19"/>
<text text-anchor="middle" x="281" y="-7" font-family="Helvetica,sans-Serif" font-size="10.00">memory</text>
</a>
</g>
</g>
<!-- Node2&#45;&gt;Node7 -->
<g id="edge6_Node000002_Node000007" class="edge">
<title>Node2&#45;&gt;Node7</title>
<g id="a_edge6_Node000002_Node000007"><a xlink:title=" ">
<path fill="none" stroke="#63b8ff" d="M197.91,-54.98C213.55,-46.61 237.66,-33.7 255.88,-23.95"/>
<polygon fill="#63b8ff" stroke="#63b8ff" points="257.64,-26.98 264.8,-19.17 254.34,-20.8 257.64,-26.98"/>
</a>
</g>
</g>
<!-- Node8 -->
<g id="Node000008" class="node">
<title>Node8</title>
<g id="a_Node000008"><a xlink:href="pio__enums_8h.html" target="_top" xlink:title=" ">
<polygon fill="white" stroke="#666666" points="407.5,-19 328.5,-19 328.5,0 407.5,0 407.5,-19"/>
<text text-anchor="middle" x="368" y="-7" font-family="Helvetica,sans-Serif" font-size="10.00">pio_enums.h</text>
</a>
</g>
</g>
<!-- Node2&#45;&gt;Node8 -->
<g id="edge7_Node000002_Node000008" class="edge">
<title>Node2&#45;&gt;Node8</title>
<g id="a_edge7_Node000002_Node000008"><a xlink:title=" ">
<path fill="none" stroke="#63b8ff" d="M211.88,-54.98C243.38,-46.01 293.17,-31.82 328.03,-21.89"/>
<polygon fill="#63b8ff" stroke="#63b8ff" points="329.22,-25.19 337.88,-19.08 327.31,-18.46 329.22,-25.19"/>
</a>
</g>
</g>
</g>
</svg>
