<?xml version="1.0" encoding="UTF-8" standalone="no"?>
<!DOCTYPE svg PUBLIC "-//W3C//DTD SVG 1.1//EN"
 "http://www.w3.org/Graphics/SVG/1.1/DTD/svg11.dtd">
<!-- Generated by graphviz version 2.43.0 (0)
 -->
<!-- Title: Representação gráfica da hiearquia da classe Pages: 1 -->
<svg width="404pt" height="545pt"
 viewBox="0.00 0.00 404.00 545.00" xmlns="http://www.w3.org/2000/svg" xmlns:xlink="http://www.w3.org/1999/xlink">
<g id="graph0" class="graph" transform="scale(1 1) rotate(0) translate(4 541)">
<title>Representação gráfica da hiearquia da classe</title>
<!-- Node0 -->
<g id="Node000000" class="node">
<title>Node0</title>
<g id="a_Node000000"><a xlink:href="structsrc__item.html" target="_top" xlink:title=" ">
<polygon fill="white" stroke="#666666" points="59,-130 0,-130 0,-111 59,-111 59,-130"/>
<text text-anchor="middle" x="29.5" y="-118" font-family="Helvetica,sans-Serif" font-size="10.00">src_item</text>
</a>
</g>
</g>
<!-- Node1 -->
<g id="Node000001" class="node">
<title>Node1</title>
<g id="a_Node000001"><a xlink:href="structinstruction.html" target="_top" xlink:title=" ">
<polygon fill="white" stroke="#666666" points="163,-352 95,-352 95,-333 163,-333 163,-352"/>
<text text-anchor="middle" x="129" y="-340" font-family="Helvetica,sans-Serif" font-size="10.00">instruction</text>
</a>
</g>
</g>
<!-- Node0&#45;&gt;Node1 -->
<g id="edge8_Node000000_Node000001" class="edge">
<title>Node0&#45;&gt;Node1</title>
<g id="a_edge8_Node000000_Node000001"><a xlink:title=" ">
<path fill="none" stroke="#63b8ff" d="M38.77,-139.34C58.74,-184.79 109.01,-299.25 123.83,-333"/>
<polygon fill="#63b8ff" stroke="#63b8ff" points="41.92,-137.79 34.69,-130.04 35.51,-140.6 41.92,-137.79"/>
</a>
</g>
</g>
<!-- Node13 -->
<g id="Node000013" class="node">
<title>Node13</title>
<g id="a_Node000013"><a xlink:href="structprogram.html" target="_top" xlink:title=" ">
<polygon fill="white" stroke="#666666" points="158,-149 100,-149 100,-130 158,-130 158,-149"/>
<text text-anchor="middle" x="129" y="-137" font-family="Helvetica,sans-Serif" font-size="10.00">program</text>
</a>
</g>
</g>
<!-- Node0&#45;&gt;Node13 -->
<g id="edge20_Node000000_Node000013" class="edge">
<title>Node0&#45;&gt;Node13</title>
<g id="a_edge20_Node000000_Node000013"><a xlink:title=" ">
<path fill="none" stroke="#63b8ff" d="M69.18,-128.04C79.41,-130.03 90.26,-132.15 99.82,-134.01"/>
<polygon fill="#63b8ff" stroke="#63b8ff" points="69.71,-124.58 59.23,-126.1 68.37,-131.45 69.71,-124.58"/>
</a>
</g>
</g>
<!-- Node14 -->
<g id="Node000014" class="node">
<title>Node14</title>
<g id="a_Node000014"><a xlink:href="structresolvable.html" target="_top" xlink:title=" ">
<polygon fill="white" stroke="#666666" points="163,-112 95,-112 95,-93 163,-93 163,-112"/>
<text text-anchor="middle" x="129" y="-100" font-family="Helvetica,sans-Serif" font-size="10.00">resolvable</text>
</a>
</g>
</g>
<!-- Node0&#45;&gt;Node14 -->
<g id="edge21_Node000000_Node000014" class="edge">
<title>Node0&#45;&gt;Node14</title>
<g id="a_edge21_Node000000_Node000014"><a xlink:title=" ">
<path fill="none" stroke="#63b8ff" d="M69.22,-113.35C77.64,-111.8 86.48,-110.16 94.68,-108.65"/>
<polygon fill="#63b8ff" stroke="#63b8ff" points="68.42,-109.94 59.23,-115.2 69.7,-116.82 68.42,-109.94"/>
</a>
</g>
</g>
<!-- Node20 -->
<g id="Node000020" class="node">
<title>Node20</title>
<g id="a_Node000020"><a xlink:href="structsymbol.html" target="_top" xlink:title=" ">
<polygon fill="white" stroke="#666666" points="155.5,-75 102.5,-75 102.5,-56 155.5,-56 155.5,-75"/>
<text text-anchor="middle" x="129" y="-63" font-family="Helvetica,sans-Serif" font-size="10.00">symbol</text>
</a>
</g>
</g>
<!-- Node0&#45;&gt;Node20 -->
<g id="edge27_Node000000_Node000020" class="edge">
<title>Node0&#45;&gt;Node20</title>
<g id="a_edge27_Node000000_Node000020"><a xlink:title=" ">
<path fill="none" stroke="#63b8ff" d="M55.79,-105.82C67.66,-98.98 82.02,-90.76 95,-83.5 99.9,-80.76 105.23,-77.83 110.15,-75.15"/>
<polygon fill="#63b8ff" stroke="#63b8ff" points="53.79,-102.94 46.88,-110.97 57.29,-109 53.79,-102.94"/>
</a>
</g>
</g>
<!-- Node2 -->
<g id="Node000002" class="node">
<title>Node2</title>
<g id="a_Node000002"><a xlink:href="structinstr__in.html" target="_top" xlink:title=" ">
<polygon fill="white" stroke="#666666" points="275,-537 222,-537 222,-518 275,-518 275,-537"/>
<text text-anchor="middle" x="248.5" y="-525" font-family="Helvetica,sans-Serif" font-size="10.00">instr_in</text>
</a>
</g>
</g>
<!-- Node1&#45;&gt;Node2 -->
<g id="edge9_Node000001_Node000002" class="edge">
<title>Node1&#45;&gt;Node2</title>
<g id="a_edge9_Node000001_Node000002"><a xlink:title=" ">
<path fill="none" stroke="#63b8ff" d="M132.97,-362.55C139.11,-397.18 156.39,-468.42 199,-509.5 205.27,-515.55 213.75,-519.6 221.87,-522.29"/>
<polygon fill="#63b8ff" stroke="#63b8ff" points="136.36,-361.61 131.29,-352.31 129.45,-362.74 136.36,-361.61"/>
</a>
</g>
</g>
<!-- Node3 -->
<g id="Node000003" class="node">
<title>Node3</title>
<g id="a_Node000003"><a xlink:href="structinstr__irq.html" target="_top" xlink:title=" ">
<polygon fill="white" stroke="#666666" points="276.5,-500 220.5,-500 220.5,-481 276.5,-481 276.5,-500"/>
<text text-anchor="middle" x="248.5" y="-488" font-family="Helvetica,sans-Serif" font-size="10.00">instr_irq</text>
</a>
</g>
</g>
<!-- Node1&#45;&gt;Node3 -->
<g id="edge10_Node000001_Node000003" class="edge">
<title>Node1&#45;&gt;Node3</title>
<g id="a_edge10_Node000001_Node000003"><a xlink:title=" ">
<path fill="none" stroke="#63b8ff" d="M135.47,-362.02C144.32,-390.19 164.38,-442.19 199,-472.5 205.08,-477.82 212.88,-481.63 220.44,-484.33"/>
<polygon fill="#63b8ff" stroke="#63b8ff" points="138.74,-360.74 132.53,-352.16 132.04,-362.75 138.74,-360.74"/>
</a>
</g>
</g>
<!-- Node4 -->
<g id="Node000004" class="node">
<title>Node4</title>
<g id="a_Node000004"><a xlink:href="structinstr__jmp.html" target="_top" xlink:title=" ">
<polygon fill="white" stroke="#666666" points="279.5,-463 217.5,-463 217.5,-444 279.5,-444 279.5,-463"/>
<text text-anchor="middle" x="248.5" y="-451" font-family="Helvetica,sans-Serif" font-size="10.00">instr_jmp</text>
</a>
</g>
</g>
<!-- Node1&#45;&gt;Node4 -->
<g id="edge11_Node000001_Node000004" class="edge">
<title>Node1&#45;&gt;Node4</title>
<g id="a_edge11_Node000001_Node000004"><a xlink:title=" ">
<path fill="none" stroke="#63b8ff" d="M139.54,-361.2C151.04,-382.02 172.19,-415.38 199,-435.5 204.46,-439.6 210.95,-442.85 217.38,-445.4"/>
<polygon fill="#63b8ff" stroke="#63b8ff" points="142.48,-359.28 134.69,-352.1 136.31,-362.57 142.48,-359.28"/>
</a>
</g>
</g>
<!-- Node5 -->
<g id="Node000005" class="node">
<title>Node5</title>
<g id="a_Node000005"><a xlink:href="structinstr__mov.html" target="_top" xlink:title=" ">
<polygon fill="white" stroke="#666666" points="281,-426 216,-426 216,-407 281,-407 281,-426"/>
<text text-anchor="middle" x="248.5" y="-414" font-family="Helvetica,sans-Serif" font-size="10.00">instr_mov</text>
</a>
</g>
</g>
<!-- Node1&#45;&gt;Node5 -->
<g id="edge12_Node000001_Node000005" class="edge">
<title>Node1&#45;&gt;Node5</title>
<g id="a_edge12_Node000001_Node000005"><a xlink:title=" ">
<path fill="none" stroke="#63b8ff" d="M147.53,-358.93C160.87,-370.8 180.1,-386.6 199,-397.5 205.19,-401.07 212.18,-404.25 218.88,-406.93"/>
<polygon fill="#63b8ff" stroke="#63b8ff" points="149.79,-356.26 140.04,-352.13 145.09,-361.44 149.79,-356.26"/>
</a>
</g>
</g>
<!-- Node7 -->
<g id="Node000007" class="node">
<title>Node7</title>
<g id="a_Node000007"><a xlink:href="structinstr__out.html" target="_top" xlink:title=" ">
<polygon fill="white" stroke="#666666" points="278,-389 219,-389 219,-370 278,-370 278,-389"/>
<text text-anchor="middle" x="248.5" y="-377" font-family="Helvetica,sans-Serif" font-size="10.00">instr_out</text>
</a>
</g>
</g>
<!-- Node1&#45;&gt;Node7 -->
<g id="edge14_Node000001_Node000007" class="edge">
<title>Node1&#45;&gt;Node7</title>
<g id="a_edge14_Node000001_Node000007"><a xlink:title=" ">
<path fill="none" stroke="#63b8ff" d="M169.96,-355.08C186.05,-360.15 204.24,-365.88 218.96,-370.51"/>
<polygon fill="#63b8ff" stroke="#63b8ff" points="170.85,-351.69 160.26,-352.03 168.75,-358.37 170.85,-351.69"/>
</a>
</g>
</g>
<!-- Node8 -->
<g id="Node000008" class="node">
<title>Node8</title>
<g id="a_Node000008"><a xlink:href="structinstr__pull.html" target="_top" xlink:title=" ">
<polygon fill="white" stroke="#666666" points="279.5,-352 217.5,-352 217.5,-333 279.5,-333 279.5,-352"/>
<text text-anchor="middle" x="248.5" y="-340" font-family="Helvetica,sans-Serif" font-size="10.00">instr_pull</text>
</a>
</g>
</g>
<!-- Node1&#45;&gt;Node8 -->
<g id="edge15_Node000001_Node000008" class="edge">
<title>Node1&#45;&gt;Node8</title>
<g id="a_edge15_Node000001_Node000008"><a xlink:title=" ">
<path fill="none" stroke="#63b8ff" d="M173.34,-342.5C187.88,-342.5 203.78,-342.5 217.12,-342.5"/>
<polygon fill="#63b8ff" stroke="#63b8ff" points="173.04,-339 163.04,-342.5 173.04,-346 173.04,-339"/>
</a>
</g>
</g>
<!-- Node9 -->
<g id="Node000009" class="node">
<title>Node9</title>
<g id="a_Node000009"><a xlink:href="structinstr__push.html" target="_top" xlink:title=" ">
<polygon fill="white" stroke="#666666" points="282,-315 215,-315 215,-296 282,-296 282,-315"/>
<text text-anchor="middle" x="248.5" y="-303" font-family="Helvetica,sans-Serif" font-size="10.00">instr_push</text>
</a>
</g>
</g>
<!-- Node1&#45;&gt;Node9 -->
<g id="edge16_Node000001_Node000009" class="edge">
<title>Node1&#45;&gt;Node9</title>
<g id="a_edge16_Node000001_Node000009"><a xlink:title=" ">
<path fill="none" stroke="#63b8ff" d="M170.02,-329.9C185.36,-325.07 202.61,-319.63 216.93,-315.12"/>
<polygon fill="#63b8ff" stroke="#63b8ff" points="168.75,-326.63 160.26,-332.97 170.85,-333.31 168.75,-326.63"/>
</a>
</g>
</g>
<!-- Node10 -->
<g id="Node000010" class="node">
<title>Node10</title>
<g id="a_Node000010"><a xlink:href="structinstr__set.html" target="_top" xlink:title=" ">
<polygon fill="white" stroke="#666666" points="278,-278 219,-278 219,-259 278,-259 278,-278"/>
<text text-anchor="middle" x="248.5" y="-266" font-family="Helvetica,sans-Serif" font-size="10.00">instr_set</text>
</a>
</g>
</g>
<!-- Node1&#45;&gt;Node10 -->
<g id="edge17_Node000001_Node000010" class="edge">
<title>Node1&#45;&gt;Node10</title>
<g id="a_edge17_Node000001_Node000010"><a xlink:title=" ">
<path fill="none" stroke="#63b8ff" d="M147.42,-325.65C160.71,-313.5 179.91,-297.39 199,-286.5 205.16,-282.98 212.14,-279.92 218.84,-277.37"/>
<polygon fill="#63b8ff" stroke="#63b8ff" points="144.88,-323.23 139.97,-332.62 149.66,-328.34 144.88,-323.23"/>
</a>
</g>
</g>
<!-- Node11 -->
<g id="Node000011" class="node">
<title>Node11</title>
<g id="a_Node000011"><a xlink:href="structinstr__wait.html" target="_top" xlink:title=" ">
<polygon fill="white" stroke="#666666" points="281,-241 216,-241 216,-222 281,-222 281,-241"/>
<text text-anchor="middle" x="248.5" y="-229" font-family="Helvetica,sans-Serif" font-size="10.00">instr_wait</text>
</a>
</g>
</g>
<!-- Node1&#45;&gt;Node11 -->
<g id="edge18_Node000001_Node000011" class="edge">
<title>Node1&#45;&gt;Node11</title>
<g id="a_edge18_Node000001_Node000011"><a xlink:title=" ">
<path fill="none" stroke="#63b8ff" d="M139.54,-323.8C151.04,-302.98 172.19,-269.62 199,-249.5 204.03,-245.73 209.93,-242.67 215.86,-240.22"/>
<polygon fill="#63b8ff" stroke="#63b8ff" points="136.31,-322.43 134.69,-332.9 142.48,-325.72 136.31,-322.43"/>
</a>
</g>
</g>
<!-- Node12 -->
<g id="Node000012" class="node">
<title>Node12</title>
<g id="a_Node000012"><a xlink:href="structinstr__word.html" target="_top" xlink:title=" ">
<polygon fill="white" stroke="#666666" points="282.5,-204 214.5,-204 214.5,-185 282.5,-185 282.5,-204"/>
<text text-anchor="middle" x="248.5" y="-192" font-family="Helvetica,sans-Serif" font-size="10.00">instr_word</text>
</a>
</g>
</g>
<!-- Node1&#45;&gt;Node12 -->
<g id="edge19_Node000001_Node000012" class="edge">
<title>Node1&#45;&gt;Node12</title>
<g id="a_edge19_Node000001_Node000012"><a xlink:title=" ">
<path fill="none" stroke="#63b8ff" d="M135.47,-322.98C144.32,-294.81 164.38,-242.81 199,-212.5 203.46,-208.6 208.84,-205.51 214.38,-203.08"/>
<polygon fill="#63b8ff" stroke="#63b8ff" points="132.04,-322.25 132.53,-332.84 138.74,-324.26 132.04,-322.25"/>
</a>
</g>
</g>
<!-- Node6 -->
<g id="Node000006" class="node">
<title>Node6</title>
<g id="a_Node000006"><a xlink:href="structinstr__nop.html" target="_top" xlink:title=" ">
<polygon fill="white" stroke="#666666" points="396,-426 334,-426 334,-407 396,-407 396,-426"/>
<text text-anchor="middle" x="365" y="-414" font-family="Helvetica,sans-Serif" font-size="10.00">instr_nop</text>
</a>
</g>
</g>
<!-- Node5&#45;&gt;Node6 -->
<g id="edge13_Node000005_Node000006" class="edge">
<title>Node5&#45;&gt;Node6</title>
<g id="a_edge13_Node000005_Node000006"><a xlink:title=" ">
<path fill="none" stroke="#63b8ff" d="M291.47,-416.5C305.46,-416.5 320.77,-416.5 333.7,-416.5"/>
<polygon fill="#63b8ff" stroke="#63b8ff" points="291.09,-413 281.09,-416.5 291.09,-420 291.09,-413"/>
</a>
</g>
</g>
<!-- Node15 -->
<g id="Node000015" class="node">
<title>Node15</title>
<g id="a_Node000015"><a xlink:href="structbinary__operation.html" target="_top" xlink:title=" ">
<polygon fill="white" stroke="#666666" points="298,-167 199,-167 199,-148 298,-148 298,-167"/>
<text text-anchor="middle" x="248.5" y="-155" font-family="Helvetica,sans-Serif" font-size="10.00">binary_operation</text>
</a>
</g>
</g>
<!-- Node14&#45;&gt;Node15 -->
<g id="edge22_Node000014_Node000015" class="edge">
<title>Node14&#45;&gt;Node15</title>
<g id="a_edge22_Node000014_Node000015"><a xlink:title=" ">
<path fill="none" stroke="#63b8ff" d="M156.55,-116.73C172.31,-125.1 190.78,-134.76 199,-138.5 206.24,-141.8 214.24,-145.07 221.61,-147.95"/>
<polygon fill="#63b8ff" stroke="#63b8ff" points="158.15,-113.62 147.68,-112 154.86,-119.79 158.15,-113.62"/>
</a>
</g>
</g>
<!-- Node16 -->
<g id="Node000016" class="node">
<title>Node16</title>
<g id="a_Node000016"><a xlink:href="structcode__block.html" target="_top" xlink:title=" ">
<polygon fill="white" stroke="#666666" points="284,-130 213,-130 213,-111 284,-111 284,-130"/>
<text text-anchor="middle" x="248.5" y="-118" font-family="Helvetica,sans-Serif" font-size="10.00">code_block</text>
</a>
</g>
</g>
<!-- Node14&#45;&gt;Node16 -->
<g id="edge23_Node000014_Node000016" class="edge">
<title>Node14&#45;&gt;Node16</title>
<g id="a_edge23_Node000014_Node000016"><a xlink:title=" ">
<path fill="none" stroke="#63b8ff" d="M173.18,-109.11C186.18,-111.11 200.27,-113.26 212.66,-115.16"/>
<polygon fill="#63b8ff" stroke="#63b8ff" points="173.46,-105.62 163.04,-107.56 172.4,-112.54 173.46,-105.62"/>
</a>
</g>
</g>
<!-- Node17 -->
<g id="Node000017" class="node">
<title>Node17</title>
<g id="a_Node000017"><a xlink:href="structint__value.html" target="_top" xlink:title=" ">
<polygon fill="white" stroke="#666666" points="279.5,-93 217.5,-93 217.5,-74 279.5,-74 279.5,-93"/>
<text text-anchor="middle" x="248.5" y="-81" font-family="Helvetica,sans-Serif" font-size="10.00">int_value</text>
</a>
</g>
</g>
<!-- Node14&#45;&gt;Node17 -->
<g id="edge24_Node000014_Node000017" class="edge">
<title>Node14&#45;&gt;Node17</title>
<g id="a_edge24_Node000014_Node000017"><a xlink:title=" ">
<path fill="none" stroke="#63b8ff" d="M173.34,-95.49C187.88,-93.14 203.78,-90.57 217.12,-88.41"/>
<polygon fill="#63b8ff" stroke="#63b8ff" points="172.36,-92.11 163.04,-97.16 173.47,-99.02 172.36,-92.11"/>
</a>
</g>
</g>
<!-- Node18 -->
<g id="Node000018" class="node">
<title>Node18</title>
<g id="a_Node000018"><a xlink:href="structname__ref.html" target="_top" xlink:title=" ">
<polygon fill="white" stroke="#666666" points="280,-56 217,-56 217,-37 280,-37 280,-56"/>
<text text-anchor="middle" x="248.5" y="-44" font-family="Helvetica,sans-Serif" font-size="10.00">name_ref</text>
</a>
</g>
</g>
<!-- Node14&#45;&gt;Node18 -->
<g id="edge25_Node000014_Node000018" class="edge">
<title>Node14&#45;&gt;Node18</title>
<g id="a_edge25_Node000014_Node000018"><a xlink:title=" ">
<path fill="none" stroke="#63b8ff" d="M155.61,-87.88C171.53,-78.89 190.53,-68.38 199,-64.5 205.53,-61.51 212.72,-58.63 219.51,-56.08"/>
<polygon fill="#63b8ff" stroke="#63b8ff" points="153.66,-84.96 146.69,-92.94 157.12,-91.05 153.66,-84.96"/>
</a>
</g>
</g>
<!-- Node19 -->
<g id="Node000019" class="node">
<title>Node19</title>
<g id="a_Node000019"><a xlink:href="structunary__operation.html" target="_top" xlink:title=" ">
<polygon fill="white" stroke="#666666" points="296.5,-19 200.5,-19 200.5,0 296.5,0 296.5,-19"/>
<text text-anchor="middle" x="248.5" y="-7" font-family="Helvetica,sans-Serif" font-size="10.00">unary_operation</text>
</a>
</g>
</g>
<!-- Node14&#45;&gt;Node19 -->
<g id="edge26_Node000014_Node000019" class="edge">
<title>Node14&#45;&gt;Node19</title>
<g id="a_edge26_Node000014_Node000019"><a xlink:title=" ">
<path fill="none" stroke="#63b8ff" d="M158.9,-87.02C160.34,-85.9 161.72,-84.72 163,-83.5 184.43,-63.1 175.95,-46.05 199,-27.5 203.2,-24.12 208.09,-21.34 213.13,-19.06"/>
<polygon fill="#63b8ff" stroke="#63b8ff" points="156.58,-84.37 150.26,-92.87 160.5,-90.16 156.58,-84.37"/>
</a>
</g>
</g>
</g>
</svg>
