<?xml version="1.0" encoding="UTF-8" standalone="no"?>
<!DOCTYPE svg PUBLIC "-//W3C//DTD SVG 1.1//EN"
 "http://www.w3.org/Graphics/SVG/1.1/DTD/svg11.dtd">
<!-- Generated by graphviz version 2.43.0 (0)
 -->
<!-- Title: Representação gráfica da hiearquia da classe Pages: 1 -->
<svg width="217pt" height="212pt"
 viewBox="0.00 0.00 217.00 212.00" xmlns="http://www.w3.org/2000/svg" xmlns:xlink="http://www.w3.org/1999/xlink">
<g id="graph0" class="graph" transform="scale(1 1) rotate(0) translate(4 208)">
<title>Representação gráfica da hiearquia da classe</title>
<!-- Node0 -->
<g id="Node000000" class="node">
<title>Node0</title>
<g id="a_Node000000"><a xlink:href="structoutput__format.html" target="_top" xlink:title=" ">
<polygon fill="white" stroke="#666666" points="86,-111 0,-111 0,-92 86,-92 86,-111"/>
<text text-anchor="middle" x="43" y="-99" font-family="Helvetica,sans-Serif" font-size="10.00">output_format</text>
</a>
</g>
</g>
<!-- Node1 -->
<g id="Node000001" class="node">
<title>Node1</title>
<g id="a_Node000001"><a xlink:href="structada__output.html" target="_top" xlink:title=" ">
<polygon fill="white" stroke="#666666" points="201,-204 130,-204 130,-185 201,-185 201,-204"/>
<text text-anchor="middle" x="165.5" y="-192" font-family="Helvetica,sans-Serif" font-size="10.00">ada_output</text>
</a>
</g>
</g>
<!-- Node0&#45;&gt;Node1 -->
<g id="edge2_Node000000_Node000001" class="edge">
<title>Node0&#45;&gt;Node1</title>
<g id="a_edge2_Node000000_Node000001"><a xlink:title=" ">
<path fill="none" stroke="#63b8ff" d="M59.02,-119.29C73.72,-135.83 97.43,-160.29 122,-176.5 126.82,-179.68 132.28,-182.49 137.66,-184.89"/>
<polygon fill="#63b8ff" stroke="#63b8ff" points="61.4,-116.69 52.19,-111.44 56.12,-121.29 61.4,-116.69"/>
</a>
</g>
</g>
<!-- Node2 -->
<g id="Node000002" class="node">
<title>Node2</title>
<g id="a_Node000002"><a xlink:href="structc__sdk__output.html" target="_top" xlink:title=" ">
<polygon fill="white" stroke="#666666" points="206,-167 125,-167 125,-148 206,-148 206,-167"/>
<text text-anchor="middle" x="165.5" y="-155" font-family="Helvetica,sans-Serif" font-size="10.00">c_sdk_output</text>
</a>
</g>
</g>
<!-- Node0&#45;&gt;Node2 -->
<g id="edge3_Node000000_Node000002" class="edge">
<title>Node0&#45;&gt;Node2</title>
<g id="a_edge3_Node000000_Node000002"><a xlink:title=" ">
<path fill="none" stroke="#63b8ff" d="M72.21,-115.69C86.95,-122.99 105.35,-131.93 122,-139.5 128.13,-142.29 134.81,-145.18 141.02,-147.82"/>
<polygon fill="#63b8ff" stroke="#63b8ff" points="73.61,-112.48 63.1,-111.15 70.49,-118.74 73.61,-112.48"/>
</a>
</g>
</g>
<!-- Node3 -->
<g id="Node000003" class="node">
<title>Node3</title>
<g id="a_Node000003"><a xlink:href="structgo__output.html" target="_top" xlink:title=" ">
<polygon fill="white" stroke="#666666" points="198,-130 133,-130 133,-111 198,-111 198,-130"/>
<text text-anchor="middle" x="165.5" y="-118" font-family="Helvetica,sans-Serif" font-size="10.00">go_output</text>
</a>
</g>
</g>
<!-- Node0&#45;&gt;Node3 -->
<g id="edge4_Node000000_Node000003" class="edge">
<title>Node0&#45;&gt;Node3</title>
<g id="a_edge4_Node000000_Node000003"><a xlink:title=" ">
<path fill="none" stroke="#63b8ff" d="M96.04,-109.71C108.56,-111.68 121.56,-113.73 132.83,-115.51"/>
<polygon fill="#63b8ff" stroke="#63b8ff" points="96.57,-106.25 86.15,-108.15 95.48,-113.16 96.57,-106.25"/>
</a>
</g>
</g>
<!-- Node4 -->
<g id="Node000004" class="node">
<title>Node4</title>
<g id="a_Node000004"><a xlink:href="structhex__output.html" target="_top" xlink:title=" ">
<polygon fill="white" stroke="#666666" points="201,-93 130,-93 130,-74 201,-74 201,-93"/>
<text text-anchor="middle" x="165.5" y="-81" font-family="Helvetica,sans-Serif" font-size="10.00">hex_output</text>
</a>
</g>
</g>
<!-- Node0&#45;&gt;Node4 -->
<g id="edge5_Node000000_Node000004" class="edge">
<title>Node0&#45;&gt;Node4</title>
<g id="a_edge5_Node000000_Node000004"><a xlink:title=" ">
<path fill="none" stroke="#63b8ff" d="M96.37,-93.68C107.66,-91.99 119.33,-90.25 129.75,-88.69"/>
<polygon fill="#63b8ff" stroke="#63b8ff" points="95.52,-90.27 86.15,-95.2 96.55,-97.19 95.52,-90.27"/>
</a>
</g>
</g>
<!-- Node5 -->
<g id="Node000005" class="node">
<title>Node5</title>
<g id="a_Node000005"><a xlink:href="structjson__output.html" target="_top" xlink:title=" ">
<polygon fill="white" stroke="#666666" points="202.5,-56 128.5,-56 128.5,-37 202.5,-37 202.5,-56"/>
<text text-anchor="middle" x="165.5" y="-44" font-family="Helvetica,sans-Serif" font-size="10.00">json_output</text>
</a>
</g>
</g>
<!-- Node0&#45;&gt;Node5 -->
<g id="edge6_Node000000_Node000005" class="edge">
<title>Node0&#45;&gt;Node5</title>
<g id="a_edge6_Node000000_Node000005"><a xlink:title=" ">
<path fill="none" stroke="#63b8ff" d="M73.96,-87.57C88.45,-80.86 106.11,-72.72 122,-65.5 128.77,-62.42 136.16,-59.11 142.86,-56.12"/>
<polygon fill="#63b8ff" stroke="#63b8ff" points="72.1,-84.58 64.5,-91.96 75.04,-90.93 72.1,-84.58"/>
</a>
</g>
</g>
<!-- Node6 -->
<g id="Node000006" class="node">
<title>Node6</title>
<g id="a_Node000006"><a xlink:href="structpython__output.html" target="_top" xlink:title=" ">
<polygon fill="white" stroke="#666666" points="209,-19 122,-19 122,0 209,0 209,-19"/>
<text text-anchor="middle" x="165.5" y="-7" font-family="Helvetica,sans-Serif" font-size="10.00">python_output</text>
</a>
</g>
</g>
<!-- Node0&#45;&gt;Node6 -->
<g id="edge7_Node000000_Node000006" class="edge">
<title>Node0&#45;&gt;Node6</title>
<g id="a_edge7_Node000000_Node000006"><a xlink:title=" ">
<path fill="none" stroke="#63b8ff" d="M59.18,-84.33C74,-68.32 97.79,-44.58 122,-28.5 127.39,-24.92 133.56,-21.73 139.49,-19.02"/>
<polygon fill="#63b8ff" stroke="#63b8ff" points="56.43,-82.15 52.29,-91.91 61.61,-86.86 56.43,-82.15"/>
</a>
</g>
</g>
</g>
</svg>
