<?xml version="1.0" encoding="UTF-8" standalone="no"?>
<!DOCTYPE svg PUBLIC "-//W3C//DTD SVG 1.1//EN"
 "http://www.w3.org/Graphics/SVG/1.1/DTD/svg11.dtd">
<!-- Generated by graphviz version 2.43.0 (0)
 -->
<!-- Title: interp.c Pages: 1 -->
<svg width="516pt" height="137pt"
 viewBox="0.00 0.00 516.00 137.00" xmlns="http://www.w3.org/2000/svg" xmlns:xlink="http://www.w3.org/1999/xlink">
<g id="graph0" class="graph" transform="scale(1 1) rotate(0) translate(4 133)">
<title>interp.c</title>
<!-- Node1 -->
<g id="Node000001" class="node">
<title>Node1</title>
<g id="a_Node000001"><a xlink:title=" ">
<polygon fill="#999999" stroke="#666666" points="353,-129 300,-129 300,-110 353,-110 353,-129"/>
<text text-anchor="middle" x="326.5" y="-117" font-family="Helvetica,sans-Serif" font-size="10.00">interp.c</text>
</a>
</g>
</g>
<!-- Node2 -->
<g id="Node000002" class="node">
<title>Node2</title>
<g id="a_Node000002"><a xlink:href="rp2__common_2hardware__interp_2include_2hardware_2interp_8h.html" target="_top" xlink:title=" ">
<polygon fill="white" stroke="#666666" points="246,-74 143,-74 143,-55 246,-55 246,-74"/>
<text text-anchor="middle" x="194.5" y="-62" font-family="Helvetica,sans-Serif" font-size="10.00">hardware/interp.h</text>
</a>
</g>
</g>
<!-- Node1&#45;&gt;Node2 -->
<g id="edge1_Node000001_Node000002" class="edge">
<title>Node1&#45;&gt;Node2</title>
<g id="a_edge1_Node000001_Node000002"><a xlink:title=" ">
<path fill="none" stroke="#63b8ff" d="M305.29,-109.98C283.77,-101.34 250.22,-87.87 225.67,-78.02"/>
<polygon fill="#63b8ff" stroke="#63b8ff" points="226.68,-74.65 216.09,-74.17 224.07,-81.14 226.68,-74.65"/>
</a>
</g>
</g>
<!-- Node6 -->
<g id="Node000006" class="node">
<title>Node6</title>
<g id="a_Node000006"><a xlink:title=" ">
<polygon fill="#e0e0e0" stroke="#999999" points="389,-74 264,-74 264,-55 389,-55 389,-74"/>
<text text-anchor="middle" x="326.5" y="-62" font-family="Helvetica,sans-Serif" font-size="10.00">hardware/structs/sio.h</text>
</a>
</g>
</g>
<!-- Node1&#45;&gt;Node6 -->
<g id="edge5_Node000001_Node000006" class="edge">
<title>Node1&#45;&gt;Node6</title>
<g id="a_edge5_Node000001_Node000006"><a xlink:title=" ">
<path fill="none" stroke="#63b8ff" d="M326.5,-109.75C326.5,-102.8 326.5,-92.85 326.5,-84.13"/>
<polygon fill="#63b8ff" stroke="#63b8ff" points="330,-84.09 326.5,-74.09 323,-84.09 330,-84.09"/>
</a>
</g>
</g>
<!-- Node7 -->
<g id="Node000007" class="node">
<title>Node7</title>
<g id="a_Node000007"><a xlink:href="claim_8h.html" target="_top" xlink:title=" ">
<polygon fill="white" stroke="#666666" points="508,-74 407,-74 407,-55 508,-55 508,-74"/>
<text text-anchor="middle" x="457.5" y="-62" font-family="Helvetica,sans-Serif" font-size="10.00">hardware/claim.h</text>
</a>
</g>
</g>
<!-- Node1&#45;&gt;Node7 -->
<g id="edge6_Node000001_Node000007" class="edge">
<title>Node1&#45;&gt;Node7</title>
<g id="a_edge6_Node000001_Node000007"><a xlink:title=" ">
<path fill="none" stroke="#63b8ff" d="M347.55,-109.98C368.91,-101.34 402.2,-87.87 426.56,-78.02"/>
<polygon fill="#63b8ff" stroke="#63b8ff" points="428.11,-81.17 436.07,-74.17 425.49,-74.68 428.11,-81.17"/>
</a>
</g>
</g>
<!-- Node3 -->
<g id="Node000003" class="node">
<title>Node3</title>
<g id="a_Node000003"><a xlink:title=" ">
<polygon fill="#e0e0e0" stroke="#999999" points="371.5,-19 325.5,-19 325.5,0 371.5,0 371.5,-19"/>
<text text-anchor="middle" x="348.5" y="-7" font-family="Helvetica,sans-Serif" font-size="10.00">pico.h</text>
</a>
</g>
</g>
<!-- Node2&#45;&gt;Node3 -->
<g id="edge2_Node000002_Node000003" class="edge">
<title>Node2&#45;&gt;Node3</title>
<g id="a_edge2_Node000002_Node000003"><a xlink:title=" ">
<path fill="none" stroke="#63b8ff" d="M219.24,-54.98C245.41,-45.98 286.81,-31.73 315.68,-21.79"/>
<polygon fill="#63b8ff" stroke="#63b8ff" points="317.01,-25.04 325.33,-18.47 314.74,-18.42 317.01,-25.04"/>
</a>
</g>
</g>
<!-- Node4 -->
<g id="Node000004" class="node">
<title>Node4</title>
<g id="a_Node000004"><a xlink:title=" ">
<polygon fill="#e0e0e0" stroke="#999999" points="139,-19 0,-19 0,0 139,0 139,-19"/>
<text text-anchor="middle" x="69.5" y="-7" font-family="Helvetica,sans-Serif" font-size="10.00">hardware/structs/interp.h</text>
</a>
</g>
</g>
<!-- Node2&#45;&gt;Node4 -->
<g id="edge3_Node000002_Node000004" class="edge">
<title>Node2&#45;&gt;Node4</title>
<g id="a_edge3_Node000002_Node000004"><a xlink:title=" ">
<path fill="none" stroke="#63b8ff" d="M174.42,-54.98C154.13,-46.38 122.54,-32.99 99.33,-23.15"/>
<polygon fill="#63b8ff" stroke="#63b8ff" points="100.52,-19.85 89.95,-19.17 97.79,-26.3 100.52,-19.85"/>
</a>
</g>
</g>
<!-- Node5 -->
<g id="Node000005" class="node">
<title>Node5</title>
<g id="a_Node000005"><a xlink:title=" ">
<polygon fill="#e0e0e0" stroke="#999999" points="270,-19 157,-19 157,0 270,0 270,-19"/>
<text text-anchor="middle" x="213.5" y="-7" font-family="Helvetica,sans-Serif" font-size="10.00">hardware/regs/sio.h</text>
</a>
</g>
</g>
<!-- Node2&#45;&gt;Node5 -->
<g id="edge4_Node000002_Node000005" class="edge">
<title>Node2&#45;&gt;Node5</title>
<g id="a_edge4_Node000002_Node000005"><a xlink:title=" ">
<path fill="none" stroke="#63b8ff" d="M197.64,-54.75C200.18,-47.65 203.86,-37.4 207.03,-28.56"/>
<polygon fill="#63b8ff" stroke="#63b8ff" points="210.34,-29.68 210.42,-19.09 203.75,-27.32 210.34,-29.68"/>
</a>
</g>
</g>
<!-- Node7&#45;&gt;Node3 -->
<g id="edge7_Node000007_Node000003" class="edge">
<title>Node7&#45;&gt;Node3</title>
<g id="a_edge7_Node000007_Node000003"><a xlink:title=" ">
<path fill="none" stroke="#63b8ff" d="M439.99,-54.98C422.53,-46.5 395.49,-33.35 375.33,-23.54"/>
<polygon fill="#63b8ff" stroke="#63b8ff" points="376.86,-20.4 366.33,-19.17 373.79,-26.69 376.86,-20.4"/>
</a>
</g>
</g>
<!-- Node8 -->
<g id="Node000008" class="node">
<title>Node8</title>
<g id="a_Node000008"><a xlink:title=" ">
<polygon fill="#e0e0e0" stroke="#999999" points="506,-19 409,-19 409,0 506,0 506,-19"/>
<text text-anchor="middle" x="457.5" y="-7" font-family="Helvetica,sans-Serif" font-size="10.00">hardware/sync.h</text>
</a>
</g>
</g>
<!-- Node7&#45;&gt;Node8 -->
<g id="edge8_Node000007_Node000008" class="edge">
<title>Node7&#45;&gt;Node8</title>
<g id="a_edge8_Node000007_Node000008"><a xlink:title=" ">
<path fill="none" stroke="#63b8ff" d="M457.5,-54.75C457.5,-47.8 457.5,-37.85 457.5,-29.13"/>
<polygon fill="#63b8ff" stroke="#63b8ff" points="461,-29.09 457.5,-19.09 454,-29.09 461,-29.09"/>
</a>
</g>
</g>
</g>
</svg>
