<?xml version="1.0" encoding="UTF-8" standalone="no"?>
<!DOCTYPE svg PUBLIC "-//W3C//DTD SVG 1.1//EN"
 "http://www.w3.org/Graphics/SVG/1.1/DTD/svg11.dtd">
<!-- Generated by graphviz version 2.43.0 (0)
 -->
<!-- Title: kitchen_sink.c Pages: 1 -->
<svg width="1212pt" height="302pt"
 viewBox="0.00 0.00 1212.00 302.00" xmlns="http://www.w3.org/2000/svg" xmlns:xlink="http://www.w3.org/1999/xlink">
<g id="graph0" class="graph" transform="scale(1 1) rotate(0) translate(4 298)">
<title>kitchen_sink.c</title>
<!-- Node1 -->
<g id="Node000001" class="node">
<title>Node1</title>
<g id="a_Node000001"><a xlink:title=" ">
<polygon fill="#999999" stroke="#666666" points="353,-294 267,-294 267,-275 353,-275 353,-294"/>
<text text-anchor="middle" x="310" y="-282" font-family="Helvetica,sans-Serif" font-size="10.00">kitchen_sink.c</text>
</a>
</g>
</g>
<!-- Node2 -->
<g id="Node000002" class="node">
<title>Node2</title>
<g id="a_Node000002"><a xlink:title=" ">
<polygon fill="#e0e0e0" stroke="#999999" points="214,-239 164,-239 164,-220 214,-220 214,-239"/>
<text text-anchor="middle" x="189" y="-227" font-family="Helvetica,sans-Serif" font-size="10.00">stdio.h</text>
</a>
</g>
</g>
<!-- Node1&#45;&gt;Node2 -->
<g id="edge1_Node000001_Node000002" class="edge">
<title>Node1&#45;&gt;Node2</title>
<g id="a_edge1_Node000001_Node000002"><a xlink:title=" ">
<path fill="none" stroke="#63b8ff" d="M290.56,-274.98C271.01,-266.42 240.62,-253.11 218.18,-243.28"/>
<polygon fill="#63b8ff" stroke="#63b8ff" points="219.36,-239.98 208.79,-239.17 216.55,-246.39 219.36,-239.98"/>
</a>
</g>
</g>
<!-- Node3 -->
<g id="Node000003" class="node">
<title>Node3</title>
<g id="a_Node000003"><a xlink:href="rp2__common_2hardware__dma_2include_2hardware_2dma_8h.html" target="_top" xlink:title=" ">
<polygon fill="white" stroke="#666666" points="840,-239 744,-239 744,-220 840,-220 840,-239"/>
<text text-anchor="middle" x="792" y="-227" font-family="Helvetica,sans-Serif" font-size="10.00">hardware/dma.h</text>
</a>
</g>
</g>
<!-- Node1&#45;&gt;Node3 -->
<g id="edge2_Node000001_Node000003" class="edge">
<title>Node1&#45;&gt;Node3</title>
<g id="a_edge2_Node000001_Node000003"><a xlink:title=" ">
<path fill="none" stroke="#63b8ff" d="M353.2,-278.75C440.01,-269.2 635.69,-247.69 733.73,-236.91"/>
<polygon fill="#63b8ff" stroke="#63b8ff" points="734.2,-240.38 743.76,-235.8 733.43,-233.42 734.2,-240.38"/>
</a>
</g>
</g>
<!-- Node10 -->
<g id="Node000010" class="node">
<title>Node10</title>
<g id="a_Node000010"><a xlink:href="common_2pico__sync_2include_2pico_2sync_8h.html" target="_top" xlink:title=" ">
<polygon fill="white" stroke="#666666" points="303.5,-239 232.5,-239 232.5,-220 303.5,-220 303.5,-239"/>
<text text-anchor="middle" x="268" y="-227" font-family="Helvetica,sans-Serif" font-size="10.00">pico/sync.h</text>
</a>
</g>
</g>
<!-- Node1&#45;&gt;Node10 -->
<g id="edge10_Node000001_Node000010" class="edge">
<title>Node1&#45;&gt;Node10</title>
<g id="a_edge10_Node000001_Node000010"><a xlink:title=" ">
<path fill="none" stroke="#63b8ff" d="M303.06,-274.75C297.13,-267.26 288.43,-256.28 281.18,-247.13"/>
<polygon fill="#63b8ff" stroke="#63b8ff" points="283.76,-244.75 274.81,-239.09 278.27,-249.1 283.76,-244.75"/>
</a>
</g>
</g>
<!-- Node18 -->
<g id="Node000018" class="node">
<title>Node18</title>
<g id="a_Node000018"><a xlink:href="stdlib_8h.html" target="_top" xlink:title=" ">
<polygon fill="white" stroke="#666666" points="378,-129 302,-129 302,-110 378,-110 378,-129"/>
<text text-anchor="middle" x="340" y="-117" font-family="Helvetica,sans-Serif" font-size="10.00">pico/stdlib.h</text>
</a>
</g>
</g>
<!-- Node1&#45;&gt;Node18 -->
<g id="edge23_Node000001_Node000018" class="edge">
<title>Node1&#45;&gt;Node18</title>
<g id="a_edge23_Node000001_Node000018"><a xlink:title=" ">
<path fill="none" stroke="#63b8ff" d="M311.61,-274.74C316.31,-249.2 330.07,-174.43 336.55,-139.23"/>
<polygon fill="#63b8ff" stroke="#63b8ff" points="340.01,-139.78 338.38,-129.31 333.13,-138.51 340.01,-139.78"/>
</a>
</g>
</g>
<!-- Node4 -->
<g id="Node000004" class="node">
<title>Node4</title>
<g id="a_Node000004"><a xlink:title=" ">
<polygon fill="#e0e0e0" stroke="#999999" points="210,-19 164,-19 164,0 210,0 210,-19"/>
<text text-anchor="middle" x="187" y="-7" font-family="Helvetica,sans-Serif" font-size="10.00">pico.h</text>
</a>
</g>
</g>
<!-- Node3&#45;&gt;Node4 -->
<g id="edge3_Node000003_Node000004" class="edge">
<title>Node3&#45;&gt;Node4</title>
<g id="a_edge3_Node000003_Node000004"><a xlink:title=" ">
<path fill="none" stroke="#63b8ff" d="M743.9,-222.67C717.03,-217.01 684.86,-205.89 664,-184 622.77,-140.73 672.24,-92.87 626,-55 558.02,0.68 324.18,-32.41 220.26,-18.72"/>
<polygon fill="#63b8ff" stroke="#63b8ff" points="220.73,-15.25 210.32,-17.19 219.67,-22.17 220.73,-15.25"/>
</a>
</g>
</g>
<!-- Node5 -->
<g id="Node000005" class="node">
<title>Node5</title>
<g id="a_Node000005"><a xlink:title=" ">
<polygon fill="#e0e0e0" stroke="#999999" points="1204,-184 1072,-184 1072,-165 1204,-165 1204,-184"/>
<text text-anchor="middle" x="1138" y="-172" font-family="Helvetica,sans-Serif" font-size="10.00">hardware/structs/dma.h</text>
</a>
</g>
</g>
<!-- Node3&#45;&gt;Node5 -->
<g id="edge4_Node000003_Node000005" class="edge">
<title>Node3&#45;&gt;Node5</title>
<g id="a_edge4_Node000003_Node000005"><a xlink:title=" ">
<path fill="none" stroke="#63b8ff" d="M840.11,-221.13C900.51,-211.88 1004.41,-195.96 1072.15,-185.59"/>
<polygon fill="#63b8ff" stroke="#63b8ff" points="1072.93,-189.01 1082.29,-184.03 1071.87,-182.09 1072.93,-189.01"/>
</a>
</g>
</g>
<!-- Node6 -->
<g id="Node000006" class="node">
<title>Node6</title>
<g id="a_Node000006"><a xlink:title=" ">
<polygon fill="#e0e0e0" stroke="#999999" points="793,-184 673,-184 673,-165 793,-165 793,-184"/>
<text text-anchor="middle" x="733" y="-172" font-family="Helvetica,sans-Serif" font-size="10.00">hardware/regs/dreq.h</text>
</a>
</g>
</g>
<!-- Node3&#45;&gt;Node6 -->
<g id="edge5_Node000003_Node000006" class="edge">
<title>Node3&#45;&gt;Node6</title>
<g id="a_edge5_Node000003_Node000006"><a xlink:title=" ">
<path fill="none" stroke="#63b8ff" d="M782.52,-219.98C773.8,-212.15 760.66,-200.34 750.1,-190.86"/>
<polygon fill="#63b8ff" stroke="#63b8ff" points="752.43,-188.25 742.65,-184.17 747.75,-193.46 752.43,-188.25"/>
</a>
</g>
</g>
<!-- Node7 -->
<g id="Node000007" class="node">
<title>Node7</title>
<g id="a_Node000007"><a xlink:href="assert_8h.html" target="_top" xlink:title=" ">
<polygon fill="white" stroke="#666666" points="890.5,-184 811.5,-184 811.5,-165 890.5,-165 890.5,-184"/>
<text text-anchor="middle" x="851" y="-172" font-family="Helvetica,sans-Serif" font-size="10.00">pico/assert.h</text>
</a>
</g>
</g>
<!-- Node3&#45;&gt;Node7 -->
<g id="edge6_Node000003_Node000007" class="edge">
<title>Node3&#45;&gt;Node7</title>
<g id="a_edge6_Node000003_Node000007"><a xlink:title=" ">
<path fill="none" stroke="#63b8ff" d="M801.48,-219.98C810.2,-212.15 823.34,-200.34 833.9,-190.86"/>
<polygon fill="#63b8ff" stroke="#63b8ff" points="836.25,-193.46 841.35,-184.17 831.57,-188.25 836.25,-193.46"/>
</a>
</g>
</g>
<!-- Node9 -->
<g id="Node000009" class="node">
<title>Node9</title>
<g id="a_Node000009"><a xlink:title=" ">
<polygon fill="#e0e0e0" stroke="#999999" points="1053.5,-184 926.5,-184 926.5,-165 1053.5,-165 1053.5,-184"/>
<text text-anchor="middle" x="990" y="-172" font-family="Helvetica,sans-Serif" font-size="10.00">hardware/regs/intctrl.h</text>
</a>
</g>
</g>
<!-- Node3&#45;&gt;Node9 -->
<g id="edge9_Node000003_Node000009" class="edge">
<title>Node3&#45;&gt;Node9</title>
<g id="a_edge9_Node000003_Node000009"><a xlink:title=" ">
<path fill="none" stroke="#63b8ff" d="M823.81,-219.98C857.49,-210.97 910.8,-196.7 947.92,-186.76"/>
<polygon fill="#63b8ff" stroke="#63b8ff" points="949.18,-190.05 957.94,-184.08 947.37,-183.29 949.18,-190.05"/>
</a>
</g>
</g>
<!-- Node7&#45;&gt;Node7 -->
<g id="edge8_Node000007_Node000007" class="edge">
<title>Node7&#45;&gt;Node7</title>
<g id="a_edge8_Node000007_Node000007"><a xlink:title=" ">
<path fill="none" stroke="#63b8ff" d="M877.91,-184.03C893.71,-186.06 908.5,-182.88 908.5,-174.5 908.5,-167.95 899.47,-164.58 887.99,-164.38"/>
<polygon fill="#63b8ff" stroke="#63b8ff" points="887.69,-160.9 877.91,-164.97 888.1,-167.88 887.69,-160.9"/>
</a>
</g>
</g>
<!-- Node8 -->
<g id="Node000008" class="node">
<title>Node8</title>
<g id="a_Node000008"><a xlink:title=" ">
<polygon fill="#e0e0e0" stroke="#999999" points="882,-129 820,-129 820,-110 882,-110 882,-129"/>
<text text-anchor="middle" x="851" y="-117" font-family="Helvetica,sans-Serif" font-size="10.00">stdbool.h</text>
</a>
</g>
</g>
<!-- Node7&#45;&gt;Node8 -->
<g id="edge7_Node000007_Node000008" class="edge">
<title>Node7&#45;&gt;Node8</title>
<g id="a_edge7_Node000007_Node000008"><a xlink:title=" ">
<path fill="none" stroke="#63b8ff" d="M851,-164.75C851,-157.8 851,-147.85 851,-139.13"/>
<polygon fill="#63b8ff" stroke="#63b8ff" points="854.5,-139.09 851,-129.09 847.5,-139.09 854.5,-139.09"/>
</a>
</g>
</g>
<!-- Node11 -->
<g id="Node000011" class="node">
<title>Node11</title>
<g id="a_Node000011"><a xlink:href="sem_8h.html" target="_top" xlink:title=" ">
<polygon fill="white" stroke="#666666" points="210,-184 140,-184 140,-165 210,-165 210,-184"/>
<text text-anchor="middle" x="175" y="-172" font-family="Helvetica,sans-Serif" font-size="10.00">pico/sem.h</text>
</a>
</g>
</g>
<!-- Node10&#45;&gt;Node11 -->
<g id="edge11_Node000010_Node000011" class="edge">
<title>Node10&#45;&gt;Node11</title>
<g id="a_edge11_Node000010_Node000011"><a xlink:title=" ">
<path fill="none" stroke="#63b8ff" d="M253.06,-219.98C238.5,-211.69 216.13,-198.94 199.07,-189.22"/>
<polygon fill="#63b8ff" stroke="#63b8ff" points="200.64,-186.08 190.21,-184.17 197.17,-192.16 200.64,-186.08"/>
</a>
</g>
</g>
<!-- Node16 -->
<g id="Node000016" class="node">
<title>Node16</title>
<g id="a_Node000016"><a xlink:href="mutex_8h.html" target="_top" xlink:title=" ">
<polygon fill="white" stroke="#666666" points="308,-184 228,-184 228,-165 308,-165 308,-184"/>
<text text-anchor="middle" x="268" y="-172" font-family="Helvetica,sans-Serif" font-size="10.00">pico/mutex.h</text>
</a>
</g>
</g>
<!-- Node10&#45;&gt;Node16 -->
<g id="edge18_Node000010_Node000016" class="edge">
<title>Node10&#45;&gt;Node16</title>
<g id="a_edge18_Node000010_Node000016"><a xlink:title=" ">
<path fill="none" stroke="#63b8ff" d="M268,-219.75C268,-212.8 268,-202.85 268,-194.13"/>
<polygon fill="#63b8ff" stroke="#63b8ff" points="271.5,-194.09 268,-184.09 264.5,-194.09 271.5,-194.09"/>
</a>
</g>
</g>
<!-- Node17 -->
<g id="Node000017" class="node">
<title>Node17</title>
<g id="a_Node000017"><a xlink:href="critical__section_8h.html" target="_top" xlink:title=" ">
<polygon fill="white" stroke="#666666" points="122,-184 0,-184 0,-165 122,-165 122,-184"/>
<text text-anchor="middle" x="61" y="-172" font-family="Helvetica,sans-Serif" font-size="10.00">pico/critical_section.h</text>
</a>
</g>
</g>
<!-- Node10&#45;&gt;Node17 -->
<g id="edge20_Node000010_Node000017" class="edge">
<title>Node10&#45;&gt;Node17</title>
<g id="a_edge20_Node000010_Node000017"><a xlink:title=" ">
<path fill="none" stroke="#63b8ff" d="M234.74,-219.98C199.39,-210.93 143.33,-196.58 104.49,-186.64"/>
<polygon fill="#63b8ff" stroke="#63b8ff" points="105.07,-183.17 94.52,-184.08 103.34,-189.95 105.07,-183.17"/>
</a>
</g>
</g>
<!-- Node12 -->
<g id="Node000012" class="node">
<title>Node12</title>
<g id="a_Node000012"><a xlink:href="lock__core_8h.html" target="_top" xlink:title="Base implementation for locking primitives protected by a spin lock.">
<polygon fill="white" stroke="#666666" points="218.5,-129 123.5,-129 123.5,-110 218.5,-110 218.5,-129"/>
<text text-anchor="middle" x="171" y="-117" font-family="Helvetica,sans-Serif" font-size="10.00">pico/lock_core.h</text>
</a>
</g>
</g>
<!-- Node11&#45;&gt;Node12 -->
<g id="edge12_Node000011_Node000012" class="edge">
<title>Node11&#45;&gt;Node12</title>
<g id="a_edge12_Node000011_Node000012"><a xlink:title=" ">
<path fill="none" stroke="#63b8ff" d="M174.34,-164.75C173.82,-157.8 173.06,-147.85 172.41,-139.13"/>
<polygon fill="#63b8ff" stroke="#63b8ff" points="175.89,-138.8 171.65,-129.09 168.91,-139.32 175.89,-138.8"/>
</a>
</g>
</g>
<!-- Node12&#45;&gt;Node4 -->
<g id="edge13_Node000012_Node000004" class="edge">
<title>Node12&#45;&gt;Node4</title>
<g id="a_edge13_Node000012_Node000004"><a xlink:title=" ">
<path fill="none" stroke="#63b8ff" d="M172.31,-109.66C174.9,-92.17 180.73,-52.8 184.22,-29.27"/>
<polygon fill="#63b8ff" stroke="#63b8ff" points="187.71,-29.56 185.72,-19.16 180.79,-28.54 187.71,-29.56"/>
</a>
</g>
</g>
<!-- Node13 -->
<g id="Node000013" class="node">
<title>Node13</title>
<g id="a_Node000013"><a xlink:href="common_2pico__time_2include_2pico_2time_8h.html" target="_top" xlink:title=" ">
<polygon fill="white" stroke="#666666" points="300.5,-74 229.5,-74 229.5,-55 300.5,-55 300.5,-74"/>
<text text-anchor="middle" x="265" y="-62" font-family="Helvetica,sans-Serif" font-size="10.00">pico/time.h</text>
</a>
</g>
</g>
<!-- Node12&#45;&gt;Node13 -->
<g id="edge14_Node000012_Node000013" class="edge">
<title>Node12&#45;&gt;Node13</title>
<g id="a_edge14_Node000012_Node000013"><a xlink:title=" ">
<path fill="none" stroke="#63b8ff" d="M186.1,-109.98C200.82,-101.69 223.42,-88.94 240.67,-79.22"/>
<polygon fill="#63b8ff" stroke="#63b8ff" points="242.63,-82.13 249.62,-74.17 239.19,-76.03 242.63,-82.13"/>
</a>
</g>
</g>
<!-- Node15 -->
<g id="Node000015" class="node">
<title>Node15</title>
<g id="a_Node000015"><a xlink:title=" ">
<polygon fill="#e0e0e0" stroke="#999999" points="134.5,-74 37.5,-74 37.5,-55 134.5,-55 134.5,-74"/>
<text text-anchor="middle" x="86" y="-62" font-family="Helvetica,sans-Serif" font-size="10.00">hardware/sync.h</text>
</a>
</g>
</g>
<!-- Node12&#45;&gt;Node15 -->
<g id="edge17_Node000012_Node000015" class="edge">
<title>Node12&#45;&gt;Node15</title>
<g id="a_edge17_Node000012_Node000015"><a xlink:title=" ">
<path fill="none" stroke="#63b8ff" d="M157.34,-109.98C144.16,-101.77 123.97,-89.18 108.43,-79.49"/>
<polygon fill="#63b8ff" stroke="#63b8ff" points="110.24,-76.49 99.91,-74.17 106.54,-82.43 110.24,-76.49"/>
</a>
</g>
</g>
<!-- Node13&#45;&gt;Node4 -->
<g id="edge15_Node000013_Node000004" class="edge">
<title>Node13&#45;&gt;Node4</title>
<g id="a_edge15_Node000013_Node000004"><a xlink:title=" ">
<path fill="none" stroke="#63b8ff" d="M252.47,-54.98C240.6,-46.92 222.54,-34.65 208.39,-25.03"/>
<polygon fill="#63b8ff" stroke="#63b8ff" points="210,-21.9 199.76,-19.17 206.06,-27.69 210,-21.9"/>
</a>
</g>
</g>
<!-- Node14 -->
<g id="Node000014" class="node">
<title>Node14</title>
<g id="a_Node000014"><a xlink:title=" ">
<polygon fill="#e0e0e0" stroke="#999999" points="329.5,-19 228.5,-19 228.5,0 329.5,0 329.5,-19"/>
<text text-anchor="middle" x="279" y="-7" font-family="Helvetica,sans-Serif" font-size="10.00">hardware/timer.h</text>
</a>
</g>
</g>
<!-- Node13&#45;&gt;Node14 -->
<g id="edge16_Node000013_Node000014" class="edge">
<title>Node13&#45;&gt;Node14</title>
<g id="a_edge16_Node000013_Node000014"><a xlink:title=" ">
<path fill="none" stroke="#63b8ff" d="M267.31,-54.75C269.17,-47.72 271.84,-37.62 274.15,-28.84"/>
<polygon fill="#63b8ff" stroke="#63b8ff" points="277.56,-29.65 276.73,-19.09 270.79,-27.86 277.56,-29.65"/>
</a>
</g>
</g>
<!-- Node16&#45;&gt;Node12 -->
<g id="edge19_Node000016_Node000012" class="edge">
<title>Node16&#45;&gt;Node12</title>
<g id="a_edge19_Node000016_Node000012"><a xlink:title=" ">
<path fill="none" stroke="#63b8ff" d="M252.42,-164.98C237.23,-156.69 213.9,-143.94 196.1,-134.22"/>
<polygon fill="#63b8ff" stroke="#63b8ff" points="197.32,-130.89 186.87,-129.17 193.97,-137.04 197.32,-130.89"/>
</a>
</g>
</g>
<!-- Node17&#45;&gt;Node4 -->
<g id="edge21_Node000017_Node000004" class="edge">
<title>Node17&#45;&gt;Node4</title>
<g id="a_edge21_Node000017_Node000004"><a xlink:title=" ">
<path fill="none" stroke="#63b8ff" d="M53.97,-164.81C37.9,-143.81 1.8,-89.54 28,-55 43.13,-35.05 111.65,-21.61 153.65,-15.08"/>
<polygon fill="#63b8ff" stroke="#63b8ff" points="154.34,-18.51 163.71,-13.57 153.3,-11.59 154.34,-18.51"/>
</a>
</g>
</g>
<!-- Node17&#45;&gt;Node12 -->
<g id="edge22_Node000017_Node000012" class="edge">
<title>Node17&#45;&gt;Node12</title>
<g id="a_edge22_Node000017_Node000012"><a xlink:title=" ">
<path fill="none" stroke="#63b8ff" d="M78.67,-164.98C96.29,-156.5 123.58,-143.35 143.93,-133.54"/>
<polygon fill="#63b8ff" stroke="#63b8ff" points="145.52,-136.66 153.01,-129.17 142.48,-130.36 145.52,-136.66"/>
</a>
</g>
</g>
<!-- Node18&#45;&gt;Node4 -->
<g id="edge24_Node000018_Node000004" class="edge">
<title>Node18&#45;&gt;Node4</title>
<g id="a_edge24_Node000018_Node000004"><a xlink:title=" ">
<path fill="none" stroke="#63b8ff" d="M301.95,-111.85C276.3,-105.72 243.07,-94.37 220,-74 206.34,-61.94 197.51,-42.87 192.45,-28.77"/>
<polygon fill="#63b8ff" stroke="#63b8ff" points="195.74,-27.57 189.3,-19.15 189.08,-29.75 195.74,-27.57"/>
</a>
</g>
</g>
<!-- Node18&#45;&gt;Node13 -->
<g id="edge26_Node000018_Node000013" class="edge">
<title>Node18&#45;&gt;Node13</title>
<g id="a_edge26_Node000018_Node000013"><a xlink:title=" ">
<path fill="none" stroke="#63b8ff" d="M327.95,-109.98C316.54,-101.92 299.17,-89.65 285.57,-80.03"/>
<polygon fill="#63b8ff" stroke="#63b8ff" points="287.46,-77.08 277.27,-74.17 283.42,-82.8 287.46,-77.08"/>
</a>
</g>
</g>
<!-- Node19 -->
<g id="Node000019" class="node">
<title>Node19</title>
<g id="a_Node000019"><a xlink:title=" ">
<polygon fill="#e0e0e0" stroke="#999999" points="391.5,-74 318.5,-74 318.5,-55 391.5,-55 391.5,-74"/>
<text text-anchor="middle" x="355" y="-62" font-family="Helvetica,sans-Serif" font-size="10.00">pico/stdio.h</text>
</a>
</g>
</g>
<!-- Node18&#45;&gt;Node19 -->
<g id="edge25_Node000018_Node000019" class="edge">
<title>Node18&#45;&gt;Node19</title>
<g id="a_edge25_Node000018_Node000019"><a xlink:title=" ">
<path fill="none" stroke="#63b8ff" d="M342.48,-109.75C344.46,-102.72 347.32,-92.62 349.81,-83.84"/>
<polygon fill="#63b8ff" stroke="#63b8ff" points="353.21,-84.66 352.57,-74.09 346.48,-82.76 353.21,-84.66"/>
</a>
</g>
</g>
<!-- Node20 -->
<g id="Node000020" class="node">
<title>Node20</title>
<g id="a_Node000020"><a xlink:title=" ">
<polygon fill="#e0e0e0" stroke="#999999" points="504.5,-74 409.5,-74 409.5,-55 504.5,-55 504.5,-74"/>
<text text-anchor="middle" x="457" y="-62" font-family="Helvetica,sans-Serif" font-size="10.00">hardware/gpio.h</text>
</a>
</g>
</g>
<!-- Node18&#45;&gt;Node20 -->
<g id="edge27_Node000018_Node000020" class="edge">
<title>Node18&#45;&gt;Node20</title>
<g id="a_edge27_Node000018_Node000020"><a xlink:title=" ">
<path fill="none" stroke="#63b8ff" d="M358.8,-109.98C377.62,-101.46 406.82,-88.23 428.5,-78.41"/>
<polygon fill="#63b8ff" stroke="#63b8ff" points="430.2,-81.48 437.86,-74.17 427.31,-75.11 430.2,-81.48"/>
</a>
</g>
</g>
<!-- Node21 -->
<g id="Node000021" class="node">
<title>Node21</title>
<g id="a_Node000021"><a xlink:title=" ">
<polygon fill="#e0e0e0" stroke="#999999" points="617,-74 523,-74 523,-55 617,-55 617,-74"/>
<text text-anchor="middle" x="570" y="-62" font-family="Helvetica,sans-Serif" font-size="10.00">hardware/uart.h</text>
</a>
</g>
</g>
<!-- Node18&#45;&gt;Node21 -->
<g id="edge28_Node000018_Node000021" class="edge">
<title>Node18&#45;&gt;Node21</title>
<g id="a_edge28_Node000018_Node000021"><a xlink:title=" ">
<path fill="none" stroke="#63b8ff" d="M376.95,-109.98C416.57,-100.86 479.59,-86.33 522.77,-76.38"/>
<polygon fill="#63b8ff" stroke="#63b8ff" points="523.8,-79.74 532.76,-74.08 522.23,-72.92 523.8,-79.74"/>
</a>
</g>
</g>
</g>
</svg>
