<?xml version="1.0" encoding="UTF-8" standalone="no"?>
<!DOCTYPE svg PUBLIC "-//W3C//DTD SVG 1.1//EN"
 "http://www.w3.org/Graphics/SVG/1.1/DTD/svg11.dtd">
<!-- Generated by graphviz version 2.43.0 (0)
 -->
<!-- Title: lexer.cpp Pages: 1 -->
<svg width="1226pt" height="302pt"
 viewBox="0.00 0.00 1226.00 302.00" xmlns="http://www.w3.org/2000/svg" xmlns:xlink="http://www.w3.org/1999/xlink">
<g id="graph0" class="graph" transform="scale(1 1) rotate(0) translate(4 298)">
<title>lexer.cpp</title>
<!-- Node1 -->
<g id="Node000001" class="node">
<title>Node1</title>
<g id="a_Node000001"><a xlink:title=" ">
<polygon fill="#999999" stroke="#666666" points="502.5,-294 440.5,-294 440.5,-275 502.5,-275 502.5,-294"/>
<text text-anchor="middle" x="471.5" y="-282" font-family="Helvetica,sans-Serif" font-size="10.00">lexer.cpp</text>
</a>
</g>
</g>
<!-- Node2 -->
<g id="Node000002" class="node">
<title>Node2</title>
<g id="a_Node000002"><a xlink:title=" ">
<polygon fill="#e0e0e0" stroke="#999999" points="125.5,-239 75.5,-239 75.5,-220 125.5,-220 125.5,-239"/>
<text text-anchor="middle" x="100.5" y="-227" font-family="Helvetica,sans-Serif" font-size="10.00">stdio.h</text>
</a>
</g>
</g>
<!-- Node1&#45;&gt;Node2 -->
<g id="edge1_Node000001_Node000002" class="edge">
<title>Node1&#45;&gt;Node2</title>
<g id="a_edge1_Node000001_Node000002"><a xlink:title=" ">
<path fill="none" stroke="#63b8ff" d="M440.18,-280.57C382.05,-274.86 253.39,-261.03 135.59,-239.01"/>
<polygon fill="#63b8ff" stroke="#63b8ff" points="136.16,-235.56 125.68,-237.13 134.85,-242.43 136.16,-235.56"/>
</a>
</g>
</g>
<!-- Node3 -->
<g id="Node000003" class="node">
<title>Node3</title>
<g id="a_Node000003"><a xlink:title=" ">
<polygon fill="#e0e0e0" stroke="#999999" points="197,-239 144,-239 144,-220 197,-220 197,-239"/>
<text text-anchor="middle" x="170.5" y="-227" font-family="Helvetica,sans-Serif" font-size="10.00">string.h</text>
</a>
</g>
</g>
<!-- Node1&#45;&gt;Node3 -->
<g id="edge2_Node000001_Node000003" class="edge">
<title>Node1&#45;&gt;Node3</title>
<g id="a_edge2_Node000001_Node000003"><a xlink:title=" ">
<path fill="none" stroke="#63b8ff" d="M440.24,-279.02C392.14,-271.97 296.9,-257.36 207.01,-239.2"/>
<polygon fill="#63b8ff" stroke="#63b8ff" points="207.71,-235.77 197.21,-237.2 206.31,-242.63 207.71,-235.77"/>
</a>
</g>
</g>
<!-- Node4 -->
<g id="Node000004" class="node">
<title>Node4</title>
<g id="a_Node000004"><a xlink:title=" ">
<polygon fill="#e0e0e0" stroke="#999999" points="266,-239 215,-239 215,-220 266,-220 266,-239"/>
<text text-anchor="middle" x="240.5" y="-227" font-family="Helvetica,sans-Serif" font-size="10.00">errno.h</text>
</a>
</g>
</g>
<!-- Node1&#45;&gt;Node4 -->
<g id="edge3_Node000001_Node000004" class="edge">
<title>Node1&#45;&gt;Node4</title>
<g id="a_edge3_Node000001_Node000004"><a xlink:title=" ">
<path fill="none" stroke="#63b8ff" d="M440.4,-276.7C403.43,-268.58 339.62,-254.39 275.91,-239.3"/>
<polygon fill="#63b8ff" stroke="#63b8ff" points="276.64,-235.87 266.1,-236.97 275.02,-242.68 276.64,-235.87"/>
</a>
</g>
</g>
<!-- Node5 -->
<g id="Node000005" class="node">
<title>Node5</title>
<g id="a_Node000005"><a xlink:href="stdlib_8h.html" target="_top" xlink:title=" ">
<polygon fill="white" stroke="#666666" points="337,-239 284,-239 284,-220 337,-220 337,-239"/>
<text text-anchor="middle" x="310.5" y="-227" font-family="Helvetica,sans-Serif" font-size="10.00">stdlib.h</text>
</a>
</g>
</g>
<!-- Node1&#45;&gt;Node5 -->
<g id="edge4_Node000001_Node000005" class="edge">
<title>Node1&#45;&gt;Node5</title>
<g id="a_edge4_Node000001_Node000005"><a xlink:title=" ">
<path fill="none" stroke="#63b8ff" d="M445.63,-274.98C418.72,-266.13 376.38,-252.19 346.27,-242.28"/>
<polygon fill="#63b8ff" stroke="#63b8ff" points="347.16,-238.88 336.57,-239.08 344.97,-245.53 347.16,-238.88"/>
</a>
</g>
</g>
<!-- Node12 -->
<g id="Node000012" class="node">
<title>Node12</title>
<g id="a_Node000012"><a xlink:title=" ">
<polygon fill="#e0e0e0" stroke="#999999" points="402,-239 355,-239 355,-220 402,-220 402,-239"/>
<text text-anchor="middle" x="378.5" y="-227" font-family="Helvetica,sans-Serif" font-size="10.00">cerrno</text>
</a>
</g>
</g>
<!-- Node1&#45;&gt;Node12 -->
<g id="edge12_Node000001_Node000012" class="edge">
<title>Node1&#45;&gt;Node12</title>
<g id="a_edge12_Node000001_Node000012"><a xlink:title=" ">
<path fill="none" stroke="#63b8ff" d="M456.56,-274.98C442,-266.69 419.63,-253.94 402.57,-244.22"/>
<polygon fill="#63b8ff" stroke="#63b8ff" points="404.14,-241.08 393.71,-239.17 400.67,-247.16 404.14,-241.08"/>
</a>
</g>
</g>
<!-- Node13 -->
<g id="Node000013" class="node">
<title>Node13</title>
<g id="a_Node000013"><a xlink:title=" ">
<polygon fill="#e0e0e0" stroke="#999999" points="470.5,-239 420.5,-239 420.5,-220 470.5,-220 470.5,-239"/>
<text text-anchor="middle" x="445.5" y="-227" font-family="Helvetica,sans-Serif" font-size="10.00">climits</text>
</a>
</g>
</g>
<!-- Node1&#45;&gt;Node13 -->
<g id="edge13_Node000001_Node000013" class="edge">
<title>Node1&#45;&gt;Node13</title>
<g id="a_edge13_Node000001_Node000013"><a xlink:title=" ">
<path fill="none" stroke="#63b8ff" d="M467.21,-274.75C463.69,-267.57 458.59,-257.18 454.22,-248.27"/>
<polygon fill="#63b8ff" stroke="#63b8ff" points="457.26,-246.53 449.71,-239.09 450.98,-249.61 457.26,-246.53"/>
</a>
</g>
</g>
<!-- Node14 -->
<g id="Node000014" class="node">
<title>Node14</title>
<g id="a_Node000014"><a xlink:title=" ">
<polygon fill="#e0e0e0" stroke="#999999" points="233,-129 184,-129 184,-110 233,-110 233,-129"/>
<text text-anchor="middle" x="208.5" y="-117" font-family="Helvetica,sans-Serif" font-size="10.00">cstdlib</text>
</a>
</g>
</g>
<!-- Node1&#45;&gt;Node14 -->
<g id="edge14_Node000001_Node000014" class="edge">
<title>Node1&#45;&gt;Node14</title>
<g id="a_edge14_Node000001_Node000014"><a xlink:title=" ">
<path fill="none" stroke="#63b8ff" d="M474.92,-274.67C479.22,-262.21 485.39,-238.88 479.5,-220 470.65,-191.64 466.39,-181.22 441.5,-165 409.33,-144.04 300.39,-130 243.6,-123.93"/>
<polygon fill="#63b8ff" stroke="#63b8ff" points="243.61,-120.41 233.3,-122.85 242.88,-127.37 243.61,-120.41"/>
</a>
</g>
</g>
<!-- Node15 -->
<g id="Node000015" class="node">
<title>Node15</title>
<g id="a_Node000015"><a xlink:title=" ">
<polygon fill="#e0e0e0" stroke="#999999" points="1109.5,-239 1059.5,-239 1059.5,-220 1109.5,-220 1109.5,-239"/>
<text text-anchor="middle" x="1084.5" y="-227" font-family="Helvetica,sans-Serif" font-size="10.00">cstring</text>
</a>
</g>
</g>
<!-- Node1&#45;&gt;Node15 -->
<g id="edge15_Node000001_Node000015" class="edge">
<title>Node1&#45;&gt;Node15</title>
<g id="a_edge15_Node000001_Node000015"><a xlink:title=" ">
<path fill="none" stroke="#63b8ff" d="M502.78,-282.58C589.44,-279.72 839.81,-269.24 1045.5,-239 1046.77,-238.81 1048.07,-238.61 1049.37,-238.39"/>
<polygon fill="#63b8ff" stroke="#63b8ff" points="1050.24,-241.79 1059.42,-236.5 1048.94,-234.91 1050.24,-241.79"/>
</a>
</g>
</g>
<!-- Node16 -->
<g id="Node000016" class="node">
<title>Node16</title>
<g id="a_Node000016"><a xlink:title=" ">
<polygon fill="#e0e0e0" stroke="#999999" points="499.5,-19 455.5,-19 455.5,0 499.5,0 499.5,-19"/>
<text text-anchor="middle" x="477.5" y="-7" font-family="Helvetica,sans-Serif" font-size="10.00">string</text>
</a>
</g>
</g>
<!-- Node1&#45;&gt;Node16 -->
<g id="edge16_Node000001_Node000016" class="edge">
<title>Node1&#45;&gt;Node16</title>
<g id="a_edge16_Node000001_Node000016"><a xlink:title=" ">
<path fill="none" stroke="#63b8ff" d="M502.81,-284.17C620.74,-285.88 1031.5,-284.04 1031.5,-175.5 1031.5,-175.5 1031.5,-175.5 1031.5,-118.5 1031.5,-89.04 1035.38,-73.56 1012.5,-55 973.4,-23.29 619.23,-13.41 509.66,-11.1"/>
<polygon fill="#63b8ff" stroke="#63b8ff" points="509.61,-7.59 499.54,-10.89 509.47,-14.59 509.61,-7.59"/>
</a>
</g>
</g>
<!-- Node17 -->
<g id="Node000017" class="node">
<title>Node17</title>
<g id="a_Node000017"><a xlink:href="pio__assembler_8h.html" target="_top" xlink:title=" ">
<polygon fill="white" stroke="#666666" points="668,-239 571,-239 571,-220 668,-220 668,-239"/>
<text text-anchor="middle" x="619.5" y="-227" font-family="Helvetica,sans-Serif" font-size="10.00">pio_assembler.h</text>
</a>
</g>
</g>
<!-- Node1&#45;&gt;Node17 -->
<g id="edge17_Node000001_Node000017" class="edge">
<title>Node1&#45;&gt;Node17</title>
<g id="a_edge17_Node000001_Node000017"><a xlink:title=" ">
<path fill="none" stroke="#63b8ff" d="M495.28,-274.98C519.73,-266.23 558.03,-252.51 585.65,-242.62"/>
<polygon fill="#63b8ff" stroke="#63b8ff" points="587.05,-245.84 595.29,-239.17 584.69,-239.25 587.05,-245.84"/>
</a>
</g>
</g>
<!-- Node19 -->
<g id="Node000019" class="node">
<title>Node19</title>
<g id="a_Node000019"><a xlink:href="parser_8hpp.html" target="_top" xlink:title="Define the yy::parser class.">
<polygon fill="white" stroke="#666666" points="592.5,-184 524.5,-184 524.5,-165 592.5,-165 592.5,-184"/>
<text text-anchor="middle" x="558.5" y="-172" font-family="Helvetica,sans-Serif" font-size="10.00">parser.hpp</text>
</a>
</g>
</g>
<!-- Node1&#45;&gt;Node19 -->
<g id="edge48_Node000001_Node000019" class="edge">
<title>Node1&#45;&gt;Node19</title>
<g id="a_edge48_Node000001_Node000019"><a xlink:title=" ">
<path fill="none" stroke="#63b8ff" d="M479.98,-274.91C488.5,-266.14 501.86,-252.01 512.5,-239 524.85,-223.91 537.78,-205.83 546.77,-192.82"/>
<polygon fill="#63b8ff" stroke="#63b8ff" points="549.8,-194.6 552.56,-184.37 544.03,-190.64 549.8,-194.6"/>
</a>
</g>
</g>
<!-- Node35 -->
<g id="Node000035" class="node">
<title>Node35</title>
<g id="a_Node000035"><a xlink:href="unistd_8h.html" target="_top" xlink:title=" ">
<polygon fill="white" stroke="#666666" points="1183.5,-239 1127.5,-239 1127.5,-220 1183.5,-220 1183.5,-239"/>
<text text-anchor="middle" x="1155.5" y="-227" font-family="Helvetica,sans-Serif" font-size="10.00">unistd.h</text>
</a>
</g>
</g>
<!-- Node1&#45;&gt;Node35 -->
<g id="edge49_Node000001_Node000035" class="edge">
<title>Node1&#45;&gt;Node35</title>
<g id="a_edge49_Node000001_Node000035"><a xlink:title=" ">
<path fill="none" stroke="#63b8ff" d="M502.66,-283.09C595.07,-281.51 875.69,-274.06 1117.28,-238.93"/>
<polygon fill="#63b8ff" stroke="#63b8ff" points="1117.92,-242.38 1127.31,-237.46 1116.9,-235.45 1117.92,-242.38"/>
</a>
</g>
</g>
<!-- Node6 -->
<g id="Node000006" class="node">
<title>Node6</title>
<g id="a_Node000006"><a xlink:title=" ">
<polygon fill="#e0e0e0" stroke="#999999" points="165.5,-129 119.5,-129 119.5,-110 165.5,-110 165.5,-129"/>
<text text-anchor="middle" x="142.5" y="-117" font-family="Helvetica,sans-Serif" font-size="10.00">pico.h</text>
</a>
</g>
</g>
<!-- Node5&#45;&gt;Node6 -->
<g id="edge5_Node000005_Node000006" class="edge">
<title>Node5&#45;&gt;Node6</title>
<g id="a_edge5_Node000005_Node000006"><a xlink:title=" ">
<path fill="none" stroke="#63b8ff" d="M337.23,-221.89C367.88,-213.71 415.21,-199.01 425.5,-184 430.27,-177.03 431.03,-171.38 425.5,-165 390.39,-124.5 244.94,-138.65 175.85,-128.76"/>
<polygon fill="#63b8ff" stroke="#63b8ff" points="176.29,-125.29 165.84,-127.04 175.1,-132.19 176.29,-125.29"/>
</a>
</g>
</g>
<!-- Node7 -->
<g id="Node000007" class="node">
<title>Node7</title>
<g id="a_Node000007"><a xlink:title=" ">
<polygon fill="#e0e0e0" stroke="#999999" points="191,-184 118,-184 118,-165 191,-165 191,-184"/>
<text text-anchor="middle" x="154.5" y="-172" font-family="Helvetica,sans-Serif" font-size="10.00">pico/stdio.h</text>
</a>
</g>
</g>
<!-- Node5&#45;&gt;Node7 -->
<g id="edge6_Node000005_Node000007" class="edge">
<title>Node5&#45;&gt;Node7</title>
<g id="a_edge6_Node000005_Node000007"><a xlink:title=" ">
<path fill="none" stroke="#63b8ff" d="M285.44,-219.98C259.47,-211.16 218.69,-197.31 189.54,-187.41"/>
<polygon fill="#63b8ff" stroke="#63b8ff" points="190.35,-183.99 179.76,-184.08 188.1,-190.61 190.35,-183.99"/>
</a>
</g>
</g>
<!-- Node8 -->
<g id="Node000008" class="node">
<title>Node8</title>
<g id="a_Node000008"><a xlink:href="common_2pico__time_2include_2pico_2time_8h.html" target="_top" xlink:title=" ">
<polygon fill="white" stroke="#666666" points="100,-184 29,-184 29,-165 100,-165 100,-184"/>
<text text-anchor="middle" x="64.5" y="-172" font-family="Helvetica,sans-Serif" font-size="10.00">pico/time.h</text>
</a>
</g>
</g>
<!-- Node5&#45;&gt;Node8 -->
<g id="edge7_Node000005_Node000008" class="edge">
<title>Node5&#45;&gt;Node8</title>
<g id="a_edge7_Node000005_Node000008"><a xlink:title=" ">
<path fill="none" stroke="#63b8ff" d="M283.78,-222.12C280.65,-221.39 277.51,-220.67 274.5,-220 218.06,-207.36 152.87,-193.69 110.28,-184.88"/>
<polygon fill="#63b8ff" stroke="#63b8ff" points="110.73,-181.4 100.23,-182.81 109.31,-188.26 110.73,-181.4"/>
</a>
</g>
</g>
<!-- Node10 -->
<g id="Node000010" class="node">
<title>Node10</title>
<g id="a_Node000010"><a xlink:title=" ">
<polygon fill="#e0e0e0" stroke="#999999" points="304,-184 209,-184 209,-165 304,-165 304,-184"/>
<text text-anchor="middle" x="256.5" y="-172" font-family="Helvetica,sans-Serif" font-size="10.00">hardware/gpio.h</text>
</a>
</g>
</g>
<!-- Node5&#45;&gt;Node10 -->
<g id="edge10_Node000005_Node000010" class="edge">
<title>Node5&#45;&gt;Node10</title>
<g id="a_edge10_Node000005_Node000010"><a xlink:title=" ">
<path fill="none" stroke="#63b8ff" d="M301.58,-219.75C293.72,-212.03 282.07,-200.6 272.58,-191.28"/>
<polygon fill="#63b8ff" stroke="#63b8ff" points="274.84,-188.6 265.25,-184.09 269.94,-193.59 274.84,-188.6"/>
</a>
</g>
</g>
<!-- Node11 -->
<g id="Node000011" class="node">
<title>Node11</title>
<g id="a_Node000011"><a xlink:title=" ">
<polygon fill="#e0e0e0" stroke="#999999" points="416.5,-184 322.5,-184 322.5,-165 416.5,-165 416.5,-184"/>
<text text-anchor="middle" x="369.5" y="-172" font-family="Helvetica,sans-Serif" font-size="10.00">hardware/uart.h</text>
</a>
</g>
</g>
<!-- Node5&#45;&gt;Node11 -->
<g id="edge11_Node000005_Node000011" class="edge">
<title>Node5&#45;&gt;Node11</title>
<g id="a_edge11_Node000005_Node000011"><a xlink:title=" ">
<path fill="none" stroke="#63b8ff" d="M319.98,-219.98C328.7,-212.15 341.84,-200.34 352.4,-190.86"/>
<polygon fill="#63b8ff" stroke="#63b8ff" points="354.75,-193.46 359.85,-184.17 350.07,-188.25 354.75,-193.46"/>
</a>
</g>
</g>
<!-- Node8&#45;&gt;Node6 -->
<g id="edge8_Node000008_Node000006" class="edge">
<title>Node8&#45;&gt;Node6</title>
<g id="a_edge8_Node000008_Node000006"><a xlink:title=" ">
<path fill="none" stroke="#63b8ff" d="M77.03,-164.98C88.9,-156.92 106.96,-144.65 121.11,-135.03"/>
<polygon fill="#63b8ff" stroke="#63b8ff" points="123.44,-137.69 129.74,-129.17 119.5,-131.9 123.44,-137.69"/>
</a>
</g>
</g>
<!-- Node9 -->
<g id="Node000009" class="node">
<title>Node9</title>
<g id="a_Node000009"><a xlink:title=" ">
<polygon fill="#e0e0e0" stroke="#999999" points="101,-129 0,-129 0,-110 101,-110 101,-129"/>
<text text-anchor="middle" x="50.5" y="-117" font-family="Helvetica,sans-Serif" font-size="10.00">hardware/timer.h</text>
</a>
</g>
</g>
<!-- Node8&#45;&gt;Node9 -->
<g id="edge9_Node000008_Node000009" class="edge">
<title>Node8&#45;&gt;Node9</title>
<g id="a_edge9_Node000008_Node000009"><a xlink:title=" ">
<path fill="none" stroke="#63b8ff" d="M62.19,-164.75C60.33,-157.72 57.66,-147.62 55.35,-138.84"/>
<polygon fill="#63b8ff" stroke="#63b8ff" points="58.71,-137.86 52.77,-129.09 51.94,-139.65 58.71,-137.86"/>
</a>
</g>
</g>
<!-- Node18 -->
<g id="Node000018" class="node">
<title>Node18</title>
<g id="a_Node000018"><a xlink:title=" ">
<polygon fill="#e0e0e0" stroke="#999999" points="712.5,-184 648.5,-184 648.5,-165 712.5,-165 712.5,-184"/>
<text text-anchor="middle" x="680.5" y="-172" font-family="Helvetica,sans-Serif" font-size="10.00">algorithm</text>
</a>
</g>
</g>
<!-- Node17&#45;&gt;Node18 -->
<g id="edge18_Node000017_Node000018" class="edge">
<title>Node17&#45;&gt;Node18</title>
<g id="a_edge18_Node000017_Node000018"><a xlink:title=" ">
<path fill="none" stroke="#63b8ff" d="M629.3,-219.98C638.32,-212.15 651.91,-200.34 662.82,-190.86"/>
<polygon fill="#63b8ff" stroke="#63b8ff" points="665.27,-193.37 670.52,-184.17 660.68,-188.09 665.27,-193.37"/>
</a>
</g>
</g>
<!-- Node17&#45;&gt;Node19 -->
<g id="edge19_Node000017_Node000019" class="edge">
<title>Node17&#45;&gt;Node19</title>
<g id="a_edge19_Node000017_Node000019"><a xlink:title=" ">
<path fill="none" stroke="#63b8ff" d="M609.7,-219.98C600.68,-212.15 587.09,-200.34 576.18,-190.86"/>
<polygon fill="#63b8ff" stroke="#63b8ff" points="578.32,-188.09 568.48,-184.17 573.73,-193.37 578.32,-188.09"/>
</a>
</g>
</g>
<!-- Node34 -->
<g id="Node000034" class="node">
<title>Node34</title>
<g id="a_Node000034"><a xlink:href="output__format_8h.html" target="_top" xlink:title=" ">
<polygon fill="white" stroke="#666666" points="854,-129 759,-129 759,-110 854,-110 854,-129"/>
<text text-anchor="middle" x="806.5" y="-117" font-family="Helvetica,sans-Serif" font-size="10.00">output_format.h</text>
</a>
</g>
</g>
<!-- Node17&#45;&gt;Node34 -->
<g id="edge41_Node000017_Node000034" class="edge">
<title>Node17&#45;&gt;Node34</title>
<g id="a_edge41_Node000017_Node000034"><a xlink:title=" ">
<path fill="none" stroke="#63b8ff" d="M619.71,-219.74C620.52,-206.07 624.13,-179.7 639.5,-165 655.28,-149.91 707.07,-137.6 748.84,-129.78"/>
<polygon fill="#63b8ff" stroke="#63b8ff" points="749.73,-133.18 758.94,-127.94 748.47,-126.29 749.73,-133.18"/>
</a>
</g>
</g>
<!-- Node19&#45;&gt;Node14 -->
<g id="edge35_Node000019_Node000014" class="edge">
<title>Node19&#45;&gt;Node14</title>
<g id="a_edge35_Node000019_Node000014"><a xlink:title=" ">
<path fill="none" stroke="#63b8ff" d="M524.44,-167.3C519.76,-166.5 515.01,-165.71 510.5,-165 393.95,-146.71 363.67,-149.58 247.5,-129 246.05,-128.74 244.57,-128.47 243.08,-128.19"/>
<polygon fill="#63b8ff" stroke="#63b8ff" points="243.69,-124.74 233.2,-126.19 242.31,-131.6 243.69,-124.74"/>
</a>
</g>
</g>
<!-- Node19&#45;&gt;Node16 -->
<g id="edge20_Node000019_Node000016" class="edge">
<title>Node19&#45;&gt;Node16</title>
<g id="a_edge20_Node000019_Node000016"><a xlink:title=" ">
<path fill="none" stroke="#63b8ff" d="M578.15,-164.86C601.97,-153.17 637,-131.32 620.5,-110 581.44,-59.53 522.13,-123.21 481.5,-74 471.29,-61.63 471.37,-42.87 473.36,-28.94"/>
<polygon fill="#63b8ff" stroke="#63b8ff" points="476.82,-29.49 475.2,-19.02 469.93,-28.22 476.82,-29.49"/>
</a>
</g>
</g>
<!-- Node20 -->
<g id="Node000020" class="node">
<title>Node20</title>
<g id="a_Node000020"><a xlink:title=" ">
<polygon fill="#e0e0e0" stroke="#999999" points="383,-129 328,-129 328,-110 383,-110 383,-129"/>
<text text-anchor="middle" x="355.5" y="-117" font-family="Helvetica,sans-Serif" font-size="10.00">fstream</text>
</a>
</g>
</g>
<!-- Node19&#45;&gt;Node20 -->
<g id="edge21_Node000019_Node000020" class="edge">
<title>Node19&#45;&gt;Node20</title>
<g id="a_edge21_Node000019_Node000020"><a xlink:title=" ">
<path fill="none" stroke="#63b8ff" d="M525.88,-164.98C489.57,-155.5 430.97,-140.2 392.84,-130.25"/>
<polygon fill="#63b8ff" stroke="#63b8ff" points="393.7,-126.86 383.14,-127.72 391.93,-133.63 393.7,-126.86"/>
</a>
</g>
</g>
<!-- Node21 -->
<g id="Node000021" class="node">
<title>Node21</title>
<g id="a_Node000021"><a xlink:title=" ">
<polygon fill="#e0e0e0" stroke="#999999" points="457.5,-129 401.5,-129 401.5,-110 457.5,-110 457.5,-129"/>
<text text-anchor="middle" x="429.5" y="-117" font-family="Helvetica,sans-Serif" font-size="10.00">sstream</text>
</a>
</g>
</g>
<!-- Node19&#45;&gt;Node21 -->
<g id="edge22_Node000019_Node000021" class="edge">
<title>Node19&#45;&gt;Node21</title>
<g id="a_edge22_Node000019_Node000021"><a xlink:title=" ">
<path fill="none" stroke="#63b8ff" d="M537.77,-164.98C516.74,-156.34 483.95,-142.87 459.96,-133.02"/>
<polygon fill="#63b8ff" stroke="#63b8ff" points="461.18,-129.73 450.6,-129.17 458.52,-136.21 461.18,-129.73"/>
</a>
</g>
</g>
<!-- Node22 -->
<g id="Node000022" class="node">
<title>Node22</title>
<g id="a_Node000022"><a xlink:href="pio__types_8h.html" target="_top" xlink:title=" ">
<polygon fill="white" stroke="#666666" points="741,-129 668,-129 668,-110 741,-110 741,-129"/>
<text text-anchor="middle" x="704.5" y="-117" font-family="Helvetica,sans-Serif" font-size="10.00">pio_types.h</text>
</a>
</g>
</g>
<!-- Node19&#45;&gt;Node22 -->
<g id="edge23_Node000019_Node000022" class="edge">
<title>Node19&#45;&gt;Node22</title>
<g id="a_edge23_Node000019_Node000022"><a xlink:title=" ">
<path fill="none" stroke="#63b8ff" d="M581.96,-164.98C606.08,-156.23 643.87,-142.51 671.1,-132.62"/>
<polygon fill="#63b8ff" stroke="#63b8ff" points="672.41,-135.87 680.62,-129.17 670.02,-129.29 672.41,-135.87"/>
</a>
</g>
</g>
<!-- Node27 -->
<g id="Node000027" class="node">
<title>Node27</title>
<g id="a_Node000027"><a xlink:title=" ">
<polygon fill="#e0e0e0" stroke="#999999" points="1003,-74 956,-74 956,-55 1003,-55 1003,-74"/>
<text text-anchor="middle" x="979.5" y="-62" font-family="Helvetica,sans-Serif" font-size="10.00">vector</text>
</a>
</g>
</g>
<!-- Node19&#45;&gt;Node27 -->
<g id="edge38_Node000019_Node000027" class="edge">
<title>Node19&#45;&gt;Node27</title>
<g id="a_edge38_Node000019_Node000027"><a xlink:title=" ">
<path fill="none" stroke="#63b8ff" d="M592.6,-170.03C661.05,-162.82 812.9,-145.51 862.5,-129 898.35,-117.07 936.12,-94.48 958.75,-79.71"/>
<polygon fill="#63b8ff" stroke="#63b8ff" points="960.8,-82.55 967.19,-74.1 956.92,-76.72 960.8,-82.55"/>
</a>
</g>
</g>
<!-- Node29 -->
<g id="Node000029" class="node">
<title>Node29</title>
<g id="a_Node000029"><a xlink:href="location_8h.html" target="_top" xlink:title="Define the yy::location class.">
<polygon fill="white" stroke="#666666" points="383,-74 318,-74 318,-55 383,-55 383,-74"/>
<text text-anchor="middle" x="350.5" y="-62" font-family="Helvetica,sans-Serif" font-size="10.00">location.h</text>
</a>
</g>
</g>
<!-- Node19&#45;&gt;Node29 -->
<g id="edge39_Node000019_Node000029" class="edge">
<title>Node19&#45;&gt;Node29</title>
<g id="a_edge39_Node000019_Node000029"><a xlink:title=" ">
<path fill="none" stroke="#63b8ff" d="M524.4,-167.46C458.54,-155.77 320.15,-130.99 318.5,-129 306.49,-114.56 320.06,-94.86 333.04,-81.24"/>
<polygon fill="#63b8ff" stroke="#63b8ff" points="335.73,-83.52 340.42,-74.02 330.83,-78.51 335.73,-83.52"/>
</a>
</g>
</g>
<!-- Node30 -->
<g id="Node000030" class="node">
<title>Node30</title>
<g id="a_Node000030"><a xlink:title=" ">
<polygon fill="#e0e0e0" stroke="#999999" points="336.5,-19 276.5,-19 276.5,0 336.5,0 336.5,-19"/>
<text text-anchor="middle" x="306.5" y="-7" font-family="Helvetica,sans-Serif" font-size="10.00">iostream</text>
</a>
</g>
</g>
<!-- Node19&#45;&gt;Node30 -->
<g id="edge36_Node000019_Node000030" class="edge">
<title>Node19&#45;&gt;Node30</title>
<g id="a_edge36_Node000019_Node000030"><a xlink:title=" ">
<path fill="none" stroke="#63b8ff" d="M524.35,-167.44C456.45,-155.39 310.94,-129.51 310.5,-129 286.42,-101.25 293.97,-54.59 300.76,-28.88"/>
<polygon fill="#63b8ff" stroke="#63b8ff" points="304.12,-29.83 303.52,-19.26 297.39,-27.9 304.12,-29.83"/>
</a>
</g>
</g>
<!-- Node32 -->
<g id="Node000032" class="node">
<title>Node32</title>
<g id="a_Node000032"><a xlink:title=" ">
<polygon fill="#e0e0e0" stroke="#999999" points="541,-129 476,-129 476,-110 541,-110 541,-129"/>
<text text-anchor="middle" x="508.5" y="-117" font-family="Helvetica,sans-Serif" font-size="10.00">stdexcept</text>
</a>
</g>
</g>
<!-- Node19&#45;&gt;Node32 -->
<g id="edge37_Node000019_Node000032" class="edge">
<title>Node19&#45;&gt;Node32</title>
<g id="a_edge37_Node000019_Node000032"><a xlink:title=" ">
<path fill="none" stroke="#63b8ff" d="M550.24,-164.75C543.04,-157.11 532.39,-145.82 523.65,-136.56"/>
<polygon fill="#63b8ff" stroke="#63b8ff" points="526.01,-133.96 516.6,-129.09 520.92,-138.76 526.01,-133.96"/>
</a>
</g>
</g>
<!-- Node33 -->
<g id="Node000033" class="node">
<title>Node33</title>
<g id="a_Node000033"><a xlink:title=" ">
<polygon fill="#e0e0e0" stroke="#999999" points="611.5,-129 559.5,-129 559.5,-110 611.5,-110 611.5,-129"/>
<text text-anchor="middle" x="585.5" y="-117" font-family="Helvetica,sans-Serif" font-size="10.00">cassert</text>
</a>
</g>
</g>
<!-- Node19&#45;&gt;Node33 -->
<g id="edge40_Node000019_Node000033" class="edge">
<title>Node19&#45;&gt;Node33</title>
<g id="a_edge40_Node000019_Node000033"><a xlink:title=" ">
<path fill="none" stroke="#63b8ff" d="M562.96,-164.75C566.62,-157.57 571.91,-147.18 576.45,-138.27"/>
<polygon fill="#63b8ff" stroke="#63b8ff" points="579.7,-139.59 581.12,-129.09 573.47,-136.41 579.7,-139.59"/>
</a>
</g>
</g>
<!-- Node22&#45;&gt;Node16 -->
<g id="edge25_Node000022_Node000016" class="edge">
<title>Node22&#45;&gt;Node16</title>
<g id="a_edge25_Node000022_Node000016"><a xlink:title=" ">
<path fill="none" stroke="#63b8ff" d="M667.76,-111.64C609.75,-100.68 502.81,-79.82 496.5,-74 484.22,-62.67 479.76,-43.77 478.2,-29.52"/>
<polygon fill="#63b8ff" stroke="#63b8ff" points="481.67,-29.06 477.47,-19.34 474.69,-29.56 481.67,-29.06"/>
</a>
</g>
</g>
<!-- Node23 -->
<g id="Node000023" class="node">
<title>Node23</title>
<g id="a_Node000023"><a xlink:title=" ">
<polygon fill="#e0e0e0" stroke="#999999" points="899.5,-74 849.5,-74 849.5,-55 899.5,-55 899.5,-74"/>
<text text-anchor="middle" x="874.5" y="-62" font-family="Helvetica,sans-Serif" font-size="10.00">cstdint</text>
</a>
</g>
</g>
<!-- Node22&#45;&gt;Node23 -->
<g id="edge24_Node000022_Node000023" class="edge">
<title>Node22&#45;&gt;Node23</title>
<g id="a_edge24_Node000022_Node000023"><a xlink:title=" ">
<path fill="none" stroke="#63b8ff" d="M731.81,-109.98C761.12,-100.85 807.74,-86.31 839.66,-76.36"/>
<polygon fill="#63b8ff" stroke="#63b8ff" points="840.97,-79.62 849.47,-73.3 838.88,-72.94 840.97,-79.62"/>
</a>
</g>
</g>
<!-- Node24 -->
<g id="Node000024" class="node">
<title>Node24</title>
<g id="a_Node000024"><a xlink:title=" ">
<polygon fill="#e0e0e0" stroke="#999999" points="657.5,-74 619.5,-74 619.5,-55 657.5,-55 657.5,-74"/>
<text text-anchor="middle" x="638.5" y="-62" font-family="Helvetica,sans-Serif" font-size="10.00">map</text>
</a>
</g>
</g>
<!-- Node22&#45;&gt;Node24 -->
<g id="edge26_Node000022_Node000024" class="edge">
<title>Node22&#45;&gt;Node24</title>
<g id="a_edge26_Node000022_Node000024"><a xlink:title=" ">
<path fill="none" stroke="#63b8ff" d="M693.9,-109.98C684.04,-102.07 669.15,-90.11 657.28,-80.58"/>
<polygon fill="#63b8ff" stroke="#63b8ff" points="659.29,-77.7 649.3,-74.17 654.9,-83.16 659.29,-77.7"/>
</a>
</g>
</g>
<!-- Node25 -->
<g id="Node000025" class="node">
<title>Node25</title>
<g id="a_Node000025"><a xlink:title=" ">
<polygon fill="#e0e0e0" stroke="#999999" points="537.5,-74 505.5,-74 505.5,-55 537.5,-55 537.5,-74"/>
<text text-anchor="middle" x="521.5" y="-62" font-family="Helvetica,sans-Serif" font-size="10.00">set</text>
</a>
</g>
</g>
<!-- Node22&#45;&gt;Node25 -->
<g id="edge27_Node000022_Node000025" class="edge">
<title>Node22&#45;&gt;Node25</title>
<g id="a_edge27_Node000022_Node000025"><a xlink:title=" ">
<path fill="none" stroke="#63b8ff" d="M672.28,-109.96C642.24,-101.89 596.01,-89.16 547.36,-74.15"/>
<polygon fill="#63b8ff" stroke="#63b8ff" points="548.19,-70.74 537.6,-71.11 546.11,-77.42 548.19,-70.74"/>
</a>
</g>
</g>
<!-- Node26 -->
<g id="Node000026" class="node">
<title>Node26</title>
<g id="a_Node000026"><a xlink:title=" ">
<polygon fill="#e0e0e0" stroke="#999999" points="601,-74 556,-74 556,-55 601,-55 601,-74"/>
<text text-anchor="middle" x="578.5" y="-62" font-family="Helvetica,sans-Serif" font-size="10.00">utility</text>
</a>
</g>
</g>
<!-- Node22&#45;&gt;Node26 -->
<g id="edge28_Node000022_Node000026" class="edge">
<title>Node22&#45;&gt;Node26</title>
<g id="a_edge28_Node000022_Node000026"><a xlink:title=" ">
<path fill="none" stroke="#63b8ff" d="M684.26,-109.98C663.8,-101.38 631.97,-87.99 608.57,-78.15"/>
<polygon fill="#63b8ff" stroke="#63b8ff" points="609.69,-74.82 599.11,-74.17 606.97,-81.27 609.69,-74.82"/>
</a>
</g>
</g>
<!-- Node22&#45;&gt;Node27 -->
<g id="edge29_Node000022_Node000027" class="edge">
<title>Node22&#45;&gt;Node27</title>
<g id="a_edge29_Node000022_Node000027"><a xlink:title=" ">
<path fill="none" stroke="#63b8ff" d="M741.02,-111.46C794.6,-101.14 893.78,-82.02 945.74,-72.01"/>
<polygon fill="#63b8ff" stroke="#63b8ff" points="946.62,-75.4 955.78,-70.07 945.3,-68.53 946.62,-75.4"/>
</a>
</g>
</g>
<!-- Node28 -->
<g id="Node000028" class="node">
<title>Node28</title>
<g id="a_Node000028"><a xlink:title=" ">
<polygon fill="#e0e0e0" stroke="#999999" points="733.5,-74 675.5,-74 675.5,-55 733.5,-55 733.5,-74"/>
<text text-anchor="middle" x="704.5" y="-62" font-family="Helvetica,sans-Serif" font-size="10.00">memory</text>
</a>
</g>
</g>
<!-- Node22&#45;&gt;Node28 -->
<g id="edge30_Node000022_Node000028" class="edge">
<title>Node22&#45;&gt;Node28</title>
<g id="a_edge30_Node000022_Node000028"><a xlink:title=" ">
<path fill="none" stroke="#63b8ff" d="M704.5,-109.75C704.5,-102.8 704.5,-92.85 704.5,-84.13"/>
<polygon fill="#63b8ff" stroke="#63b8ff" points="708,-84.09 704.5,-74.09 701,-84.09 708,-84.09"/>
</a>
</g>
</g>
<!-- Node22&#45;&gt;Node29 -->
<g id="edge31_Node000022_Node000029" class="edge">
<title>Node22&#45;&gt;Node29</title>
<g id="a_edge31_Node000022_Node000029"><a xlink:title=" ">
<path fill="none" stroke="#63b8ff" d="M667.95,-113.03C602.08,-103.17 463.79,-82.46 393.5,-71.94"/>
<polygon fill="#63b8ff" stroke="#63b8ff" points="393.64,-68.42 383.23,-70.4 392.6,-75.34 393.64,-68.42"/>
</a>
</g>
</g>
<!-- Node31 -->
<g id="Node000031" class="node">
<title>Node31</title>
<g id="a_Node000031"><a xlink:href="pio__enums_8h.html" target="_top" xlink:title=" ">
<polygon fill="white" stroke="#666666" points="831,-74 752,-74 752,-55 831,-55 831,-74"/>
<text text-anchor="middle" x="791.5" y="-62" font-family="Helvetica,sans-Serif" font-size="10.00">pio_enums.h</text>
</a>
</g>
</g>
<!-- Node22&#45;&gt;Node31 -->
<g id="edge34_Node000022_Node000031" class="edge">
<title>Node22&#45;&gt;Node31</title>
<g id="a_edge34_Node000022_Node000031"><a xlink:title=" ">
<path fill="none" stroke="#63b8ff" d="M718.48,-109.98C731.97,-101.77 752.63,-89.18 768.54,-79.49"/>
<polygon fill="#63b8ff" stroke="#63b8ff" points="770.55,-82.36 777.27,-74.17 766.91,-76.38 770.55,-82.36"/>
</a>
</g>
</g>
<!-- Node29&#45;&gt;Node16 -->
<g id="edge33_Node000029_Node000016" class="edge">
<title>Node29&#45;&gt;Node16</title>
<g id="a_edge33_Node000029_Node000016"><a xlink:title=" ">
<path fill="none" stroke="#63b8ff" d="M370.9,-54.98C391.52,-46.38 423.61,-32.99 447.19,-23.15"/>
<polygon fill="#63b8ff" stroke="#63b8ff" points="448.84,-26.25 456.72,-19.17 446.15,-19.79 448.84,-26.25"/>
</a>
</g>
</g>
<!-- Node29&#45;&gt;Node30 -->
<g id="edge32_Node000029_Node000030" class="edge">
<title>Node29&#45;&gt;Node30</title>
<g id="a_edge32_Node000029_Node000030"><a xlink:title=" ">
<path fill="none" stroke="#63b8ff" d="M343.23,-54.75C336.96,-47.18 327.71,-36.05 320.07,-26.84"/>
<polygon fill="#63b8ff" stroke="#63b8ff" points="322.71,-24.55 313.63,-19.09 317.33,-29.02 322.71,-24.55"/>
</a>
</g>
</g>
<!-- Node34&#45;&gt;Node16 -->
<g id="edge45_Node000034_Node000016" class="edge">
<title>Node34&#45;&gt;Node16</title>
<g id="a_edge45_Node000034_Node000016"><a xlink:title=" ">
<path fill="none" stroke="#63b8ff" d="M844.4,-109.91C882.22,-99.66 931.62,-80.63 908.5,-55 881.88,-25.49 605.44,-14.37 509.82,-11.4"/>
<polygon fill="#63b8ff" stroke="#63b8ff" points="509.7,-7.89 499.6,-11.09 509.49,-14.89 509.7,-7.89"/>
</a>
</g>
</g>
<!-- Node34&#45;&gt;Node23 -->
<g id="edge42_Node000034_Node000023" class="edge">
<title>Node34&#45;&gt;Node23</title>
<g id="a_edge42_Node000034_Node000023"><a xlink:title=" ">
<path fill="none" stroke="#63b8ff" d="M817.43,-109.98C827.58,-102.07 842.92,-90.11 855.15,-80.58"/>
<polygon fill="#63b8ff" stroke="#63b8ff" points="857.64,-83.08 863.38,-74.17 853.34,-77.56 857.64,-83.08"/>
</a>
</g>
</g>
<!-- Node34&#45;&gt;Node24 -->
<g id="edge44_Node000034_Node000024" class="edge">
<title>Node34&#45;&gt;Node24</title>
<g id="a_edge44_Node000034_Node000024"><a xlink:title=" ">
<path fill="none" stroke="#63b8ff" d="M779.51,-109.98C748.84,-100.31 698.98,-84.58 667.5,-74.65"/>
<polygon fill="#63b8ff" stroke="#63b8ff" points="668.18,-71.19 657.59,-71.52 666.07,-77.87 668.18,-71.19"/>
</a>
</g>
</g>
<!-- Node34&#45;&gt;Node27 -->
<g id="edge43_Node000034_Node000027" class="edge">
<title>Node34&#45;&gt;Node27</title>
<g id="a_edge43_Node000034_Node000027"><a xlink:title=" ">
<path fill="none" stroke="#63b8ff" d="M834.3,-109.98C864.72,-100.66 913.49,-85.72 946,-75.76"/>
<polygon fill="#63b8ff" stroke="#63b8ff" points="947.41,-78.99 955.94,-72.72 945.36,-72.3 947.41,-78.99"/>
</a>
</g>
</g>
<!-- Node34&#45;&gt;Node28 -->
<g id="edge46_Node000034_Node000028" class="edge">
<title>Node34&#45;&gt;Node28</title>
<g id="a_edge46_Node000034_Node000028"><a xlink:title=" ">
<path fill="none" stroke="#63b8ff" d="M790.11,-109.98C773.93,-101.57 748.93,-88.59 730.12,-78.81"/>
<polygon fill="#63b8ff" stroke="#63b8ff" points="731.67,-75.68 721.19,-74.17 728.45,-81.89 731.67,-75.68"/>
</a>
</g>
</g>
<!-- Node34&#45;&gt;Node31 -->
<g id="edge47_Node000034_Node000031" class="edge">
<title>Node34&#45;&gt;Node31</title>
<g id="a_edge47_Node000034_Node000031"><a xlink:title=" ">
<path fill="none" stroke="#63b8ff" d="M804.02,-109.75C802.04,-102.72 799.18,-92.62 796.69,-83.84"/>
<polygon fill="#63b8ff" stroke="#63b8ff" points="800.02,-82.76 793.93,-74.09 793.29,-84.66 800.02,-82.76"/>
</a>
</g>
</g>
<!-- Node36 -->
<g id="Node000036" class="node">
<title>Node36</title>
<g id="a_Node000036"><a xlink:title=" ">
<polygon fill="#e0e0e0" stroke="#999999" points="1218,-184 1093,-184 1093,-165 1218,-165 1218,-184"/>
<text text-anchor="middle" x="1155.5" y="-172" font-family="Helvetica,sans-Serif" font-size="10.00">__llvm&#45;libc&#45;common.h</text>
</a>
</g>
</g>
<!-- Node35&#45;&gt;Node36 -->
<g id="edge50_Node000035_Node000036" class="edge">
<title>Node35&#45;&gt;Node36</title>
<g id="a_edge50_Node000035_Node000036"><a xlink:title=" ">
<path fill="none" stroke="#63b8ff" d="M1155.5,-219.75C1155.5,-212.8 1155.5,-202.85 1155.5,-194.13"/>
<polygon fill="#63b8ff" stroke="#63b8ff" points="1159,-194.09 1155.5,-184.09 1152,-194.09 1159,-194.09"/>
</a>
</g>
</g>
</g>
</svg>
