<?xml version="1.0" encoding="UTF-8" standalone="no"?>
<!DOCTYPE svg PUBLIC "-//W3C//DTD SVG 1.1//EN"
 "http://www.w3.org/Graphics/SVG/1.1/DTD/svg11.dtd">
<!-- Generated by graphviz version 2.43.0 (0)
 -->
<!-- Title: llvm_libc_interface.c Pages: 1 -->
<svg width="887pt" height="148pt"
 viewBox="0.00 0.00 887.00 148.00" xmlns="http://www.w3.org/2000/svg" xmlns:xlink="http://www.w3.org/1999/xlink">
<g id="graph0" class="graph" transform="scale(1 1) rotate(0) translate(4 144)">
<title>llvm_libc_interface.c</title>
<!-- Node1 -->
<g id="Node000001" class="node">
<title>Node1</title>
<g id="a_Node000001"><a xlink:title=" ">
<polygon fill="#999999" stroke="#666666" points="392.5,-140 274.5,-140 274.5,-121 392.5,-121 392.5,-140"/>
<text text-anchor="middle" x="333.5" y="-128" font-family="Helvetica,sans-Serif" font-size="10.00">llvm_libc_interface.c</text>
</a>
</g>
</g>
<!-- Node2 -->
<g id="Node000002" class="node">
<title>Node2</title>
<g id="a_Node000002"><a xlink:title=" ">
<polygon fill="#e0e0e0" stroke="#999999" points="51,-85 0,-85 0,-66 51,-66 51,-85"/>
<text text-anchor="middle" x="25.5" y="-73" font-family="Helvetica,sans-Serif" font-size="10.00">math.h</text>
</a>
</g>
</g>
<!-- Node1&#45;&gt;Node2 -->
<g id="edge1_Node000001_Node000002" class="edge">
<title>Node1&#45;&gt;Node2</title>
<g id="a_edge1_Node000001_Node000002"><a xlink:title=" ">
<path fill="none" stroke="#63b8ff" d="M274.42,-121.21C221.24,-113.44 140.74,-100.93 61.25,-85.01"/>
<polygon fill="#63b8ff" stroke="#63b8ff" points="61.56,-81.5 51.06,-82.95 60.17,-88.36 61.56,-81.5"/>
</a>
</g>
</g>
<!-- Node3 -->
<g id="Node000003" class="node">
<title>Node3</title>
<g id="a_Node000003"><a xlink:title=" ">
<polygon fill="#e0e0e0" stroke="#999999" points="131.5,-85 69.5,-85 69.5,-66 131.5,-66 131.5,-85"/>
<text text-anchor="middle" x="100.5" y="-73" font-family="Helvetica,sans-Serif" font-size="10.00">stdbool.h</text>
</a>
</g>
</g>
<!-- Node1&#45;&gt;Node3 -->
<g id="edge2_Node000001_Node000003" class="edge">
<title>Node1&#45;&gt;Node3</title>
<g id="a_edge2_Node000001_Node000003"><a xlink:title=" ">
<path fill="none" stroke="#63b8ff" d="M296.06,-120.98C253.79,-111.37 185.21,-95.77 141.51,-85.83"/>
<polygon fill="#63b8ff" stroke="#63b8ff" points="142.03,-82.36 131.51,-83.55 140.48,-89.18 142.03,-82.36"/>
</a>
</g>
</g>
<!-- Node4 -->
<g id="Node000004" class="node">
<title>Node4</title>
<g id="a_Node000004"><a xlink:title=" ">
<polygon fill="#e0e0e0" stroke="#999999" points="205.5,-85 149.5,-85 149.5,-66 205.5,-66 205.5,-85"/>
<text text-anchor="middle" x="177.5" y="-73" font-family="Helvetica,sans-Serif" font-size="10.00">stddef.h</text>
</a>
</g>
</g>
<!-- Node1&#45;&gt;Node4 -->
<g id="edge3_Node000001_Node000004" class="edge">
<title>Node1&#45;&gt;Node4</title>
<g id="a_edge3_Node000001_Node000004"><a xlink:title=" ">
<path fill="none" stroke="#63b8ff" d="M308.44,-120.98C282.47,-112.16 241.69,-98.31 212.54,-88.41"/>
<polygon fill="#63b8ff" stroke="#63b8ff" points="213.35,-84.99 202.76,-85.08 211.1,-91.61 213.35,-84.99"/>
</a>
</g>
</g>
<!-- Node5 -->
<g id="Node000005" class="node">
<title>Node5</title>
<g id="a_Node000005"><a xlink:href="rp2__common_2pico__clib__interface_2include_2llvm__libc_2sys_2time_8h.html" target="_top" xlink:title=" ">
<polygon fill="white" stroke="#666666" points="291.5,-85 223.5,-85 223.5,-66 291.5,-66 291.5,-85"/>
<text text-anchor="middle" x="257.5" y="-73" font-family="Helvetica,sans-Serif" font-size="10.00">sys/time.h</text>
</a>
</g>
</g>
<!-- Node1&#45;&gt;Node5 -->
<g id="edge4_Node000001_Node000005" class="edge">
<title>Node1&#45;&gt;Node5</title>
<g id="a_edge4_Node000001_Node000005"><a xlink:title=" ">
<path fill="none" stroke="#63b8ff" d="M321.29,-120.98C309.72,-112.92 292.12,-100.65 278.34,-91.03"/>
<polygon fill="#63b8ff" stroke="#63b8ff" points="280.14,-88.02 269.93,-85.17 276.13,-93.76 280.14,-88.02"/>
</a>
</g>
</g>
<!-- Node8 -->
<g id="Node000008" class="node">
<title>Node8</title>
<g id="a_Node000008"><a xlink:title=" ">
<polygon fill="#e0e0e0" stroke="#999999" points="357.5,-85 309.5,-85 309.5,-66 357.5,-66 357.5,-85"/>
<text text-anchor="middle" x="333.5" y="-73" font-family="Helvetica,sans-Serif" font-size="10.00">time.h</text>
</a>
</g>
</g>
<!-- Node1&#45;&gt;Node8 -->
<g id="edge7_Node000001_Node000008" class="edge">
<title>Node1&#45;&gt;Node8</title>
<g id="a_edge7_Node000001_Node000008"><a xlink:title=" ">
<path fill="none" stroke="#63b8ff" d="M333.5,-120.75C333.5,-113.8 333.5,-103.85 333.5,-95.13"/>
<polygon fill="#63b8ff" stroke="#63b8ff" points="337,-95.09 333.5,-85.09 330,-95.09 337,-95.09"/>
</a>
</g>
</g>
<!-- Node9 -->
<g id="Node000009" class="node">
<title>Node9</title>
<g id="a_Node000009"><a xlink:title=" ">
<polygon fill="#e0e0e0" stroke="#999999" points="511.5,-85 375.5,-85 375.5,-66 511.5,-66 511.5,-85"/>
<text text-anchor="middle" x="443.5" y="-73" font-family="Helvetica,sans-Serif" font-size="10.00">llvm&#45;libc&#45;types/ssize_t.h</text>
</a>
</g>
</g>
<!-- Node1&#45;&gt;Node9 -->
<g id="edge8_Node000001_Node000009" class="edge">
<title>Node1&#45;&gt;Node9</title>
<g id="a_edge8_Node000001_Node000009"><a xlink:title=" ">
<path fill="none" stroke="#63b8ff" d="M351.17,-120.98C368.79,-112.5 396.08,-99.35 416.43,-89.54"/>
<polygon fill="#63b8ff" stroke="#63b8ff" points="418.02,-92.66 425.51,-85.17 414.98,-86.36 418.02,-92.66"/>
</a>
</g>
</g>
<!-- Node10 -->
<g id="Node000010" class="node">
<title>Node10</title>
<g id="a_Node000010"><a xlink:title=" ">
<polygon fill="#e0e0e0" stroke="#999999" points="637.5,-85 529.5,-85 529.5,-66 637.5,-66 637.5,-85"/>
<text text-anchor="middle" x="583.5" y="-73" font-family="Helvetica,sans-Serif" font-size="10.00">pico/runtime_init.h</text>
</a>
</g>
</g>
<!-- Node1&#45;&gt;Node10 -->
<g id="edge9_Node000001_Node000010" class="edge">
<title>Node1&#45;&gt;Node10</title>
<g id="a_edge9_Node000001_Node000010"><a xlink:title=" ">
<path fill="none" stroke="#63b8ff" d="M373.67,-120.98C417,-111.8 486.09,-97.15 533.06,-87.19"/>
<polygon fill="#63b8ff" stroke="#63b8ff" points="533.96,-90.58 543.02,-85.08 532.51,-83.73 533.96,-90.58"/>
</a>
</g>
</g>
<!-- Node11 -->
<g id="Node000011" class="node">
<title>Node11</title>
<g id="a_Node000011"><a xlink:title=" ">
<polygon fill="#e0e0e0" stroke="#999999" points="729,-85 656,-85 656,-66 729,-66 729,-85"/>
<text text-anchor="middle" x="692.5" y="-73" font-family="Helvetica,sans-Serif" font-size="10.00">pico/stdio.h</text>
</a>
</g>
</g>
<!-- Node1&#45;&gt;Node11 -->
<g id="edge10_Node000001_Node000011" class="edge">
<title>Node1&#45;&gt;Node11</title>
<g id="a_edge10_Node000001_Node000011"><a xlink:title=" ">
<path fill="none" stroke="#63b8ff" d="M392.74,-121.82C453.62,-113.77 551.38,-100.36 645.85,-85.04"/>
<polygon fill="#63b8ff" stroke="#63b8ff" points="646.56,-88.47 655.87,-83.41 645.43,-81.57 646.56,-88.47"/>
</a>
</g>
</g>
<!-- Node12 -->
<g id="Node000012" class="node">
<title>Node12</title>
<g id="a_Node000012"><a xlink:href="common_2pico__time_2include_2pico_2time_8h.html" target="_top" xlink:title=" ">
<polygon fill="white" stroke="#666666" points="818,-85 747,-85 747,-66 818,-66 818,-85"/>
<text text-anchor="middle" x="782.5" y="-73" font-family="Helvetica,sans-Serif" font-size="10.00">pico/time.h</text>
</a>
</g>
</g>
<!-- Node1&#45;&gt;Node12 -->
<g id="edge11_Node000001_Node000012" class="edge">
<title>Node1&#45;&gt;Node12</title>
<g id="a_edge11_Node000001_Node000012"><a xlink:title=" ">
<path fill="none" stroke="#63b8ff" d="M392.72,-124.51C469.78,-117.69 608.82,-104.22 736.56,-85.2"/>
<polygon fill="#63b8ff" stroke="#63b8ff" points="737.15,-88.65 746.52,-83.7 736.11,-81.72 737.15,-88.65"/>
</a>
</g>
</g>
<!-- Node6 -->
<g id="Node000006" class="node">
<title>Node6</title>
<g id="a_Node000006"><a xlink:title=" ">
<polygon fill="#e0e0e0" stroke="#999999" points="250,-24.5 125,-24.5 125,-5.5 250,-5.5 250,-24.5"/>
<text text-anchor="middle" x="187.5" y="-12.5" font-family="Helvetica,sans-Serif" font-size="10.00">__llvm&#45;libc&#45;common.h</text>
</a>
</g>
</g>
<!-- Node5&#45;&gt;Node6 -->
<g id="edge5_Node000005_Node000006" class="edge">
<title>Node5&#45;&gt;Node6</title>
<g id="a_edge5_Node000005_Node000006"><a xlink:title=" ">
<path fill="none" stroke="#63b8ff" d="M247.17,-65.87C236.31,-56.8 219.01,-42.34 205.83,-31.32"/>
<polygon fill="#63b8ff" stroke="#63b8ff" points="207.79,-28.39 197.87,-24.67 203.3,-33.77 207.79,-28.39"/>
</a>
</g>
</g>
<!-- Node7 -->
<g id="Node000007" class="node">
<title>Node7</title>
<g id="a_Node000007"><a xlink:title=" ">
<polygon fill="#e0e0e0" stroke="#999999" points="389,-30 268,-30 268,0 389,0 389,-30"/>
<text text-anchor="start" x="276" y="-18" font-family="Helvetica,sans-Serif" font-size="10.00">llvm&#45;libc&#45;types/struct</text>
<text text-anchor="middle" x="328.5" y="-7" font-family="Helvetica,sans-Serif" font-size="10.00">_timeval.h</text>
</a>
</g>
</g>
<!-- Node5&#45;&gt;Node7 -->
<g id="edge6_Node000005_Node000007" class="edge">
<title>Node5&#45;&gt;Node7</title>
<g id="a_edge6_Node000005_Node000007"><a xlink:title=" ">
<path fill="none" stroke="#63b8ff" d="M267.98,-65.87C277.25,-58.22 291.17,-46.76 303.32,-36.75"/>
<polygon fill="#63b8ff" stroke="#63b8ff" points="305.88,-39.17 311.37,-30.11 301.43,-33.77 305.88,-39.17"/>
</a>
</g>
</g>
<!-- Node13 -->
<g id="Node000013" class="node">
<title>Node13</title>
<g id="a_Node000013"><a xlink:title=" ">
<polygon fill="#e0e0e0" stroke="#999999" points="759.5,-24.5 713.5,-24.5 713.5,-5.5 759.5,-5.5 759.5,-24.5"/>
<text text-anchor="middle" x="736.5" y="-12.5" font-family="Helvetica,sans-Serif" font-size="10.00">pico.h</text>
</a>
</g>
</g>
<!-- Node12&#45;&gt;Node13 -->
<g id="edge12_Node000012_Node000013" class="edge">
<title>Node12&#45;&gt;Node13</title>
<g id="a_edge12_Node000012_Node000013"><a xlink:title=" ">
<path fill="none" stroke="#63b8ff" d="M775.71,-65.87C768.85,-57.14 758.07,-43.43 749.55,-32.59"/>
<polygon fill="#63b8ff" stroke="#63b8ff" points="752.25,-30.36 743.32,-24.67 746.75,-34.69 752.25,-30.36"/>
</a>
</g>
</g>
<!-- Node14 -->
<g id="Node000014" class="node">
<title>Node14</title>
<g id="a_Node000014"><a xlink:title=" ">
<polygon fill="#e0e0e0" stroke="#999999" points="879,-24.5 778,-24.5 778,-5.5 879,-5.5 879,-24.5"/>
<text text-anchor="middle" x="828.5" y="-12.5" font-family="Helvetica,sans-Serif" font-size="10.00">hardware/timer.h</text>
</a>
</g>
</g>
<!-- Node12&#45;&gt;Node14 -->
<g id="edge13_Node000012_Node000014" class="edge">
<title>Node12&#45;&gt;Node14</title>
<g id="a_edge13_Node000012_Node000014"><a xlink:title=" ">
<path fill="none" stroke="#63b8ff" d="M789.29,-65.87C796.15,-57.14 806.93,-43.43 815.45,-32.59"/>
<polygon fill="#63b8ff" stroke="#63b8ff" points="818.25,-34.69 821.68,-24.67 812.75,-30.36 818.25,-34.69"/>
</a>
</g>
</g>
</g>
</svg>
