<?xml version="1.0" encoding="UTF-8" standalone="no"?>
<!DOCTYPE svg PUBLIC "-//W3C//DTD SVG 1.1//EN"
 "http://www.w3.org/Graphics/SVG/1.1/DTD/svg11.dtd">
<!-- Generated by graphviz version 2.43.0 (0)
 -->
<!-- Title: location.h Pages: 1 -->
<svg width="362pt" height="247pt"
 viewBox="0.00 0.00 362.00 247.00" xmlns="http://www.w3.org/2000/svg" xmlns:xlink="http://www.w3.org/1999/xlink">
<g id="graph0" class="graph" transform="scale(1 1) rotate(0) translate(4 243)">
<title>location.h</title>
<!-- Node1 -->
<g id="Node000001" class="node">
<title>Node1</title>
<g id="a_Node000001"><a xlink:title="Define the yy::location class.">
<polygon fill="#999999" stroke="#666666" points="184.5,-239 119.5,-239 119.5,-220 184.5,-220 184.5,-239"/>
<text text-anchor="middle" x="152" y="-227" font-family="Helvetica,sans-Serif" font-size="10.00">location.h</text>
</a>
</g>
</g>
<!-- Node2 -->
<g id="Node000002" class="node">
<title>Node2</title>
<g id="a_Node000002"><a xlink:href="parser_8hpp.html" target="_top" xlink:title="Define the yy::parser class.">
<polygon fill="white" stroke="#666666" points="186,-129 118,-129 118,-110 186,-110 186,-129"/>
<text text-anchor="middle" x="152" y="-117" font-family="Helvetica,sans-Serif" font-size="10.00">parser.hpp</text>
</a>
</g>
</g>
<!-- Node1&#45;&gt;Node2 -->
<g id="edge1_Node000001_Node000002" class="edge">
<title>Node1&#45;&gt;Node2</title>
<g id="a_edge1_Node000001_Node000002"><a xlink:title=" ">
<path fill="none" stroke="#63b8ff" d="M144.83,-210.17C140.73,-197.54 136.81,-180.34 139,-165 140.82,-152.25 145.45,-138.06 148.66,-129.2"/>
<polygon fill="#63b8ff" stroke="#63b8ff" points="141.66,-211.7 148.32,-219.93 148.25,-209.33 141.66,-211.7"/>
</a>
</g>
</g>
<!-- Node8 -->
<g id="Node000008" class="node">
<title>Node8</title>
<g id="a_Node000008"><a xlink:href="pio__types_8h.html" target="_top" xlink:title=" ">
<polygon fill="white" stroke="#666666" points="221.5,-184 148.5,-184 148.5,-165 221.5,-165 221.5,-184"/>
<text text-anchor="middle" x="185" y="-172" font-family="Helvetica,sans-Serif" font-size="10.00">pio_types.h</text>
</a>
</g>
</g>
<!-- Node1&#45;&gt;Node8 -->
<g id="edge10_Node000001_Node000008" class="edge">
<title>Node1&#45;&gt;Node8</title>
<g id="a_edge10_Node000001_Node000008"><a xlink:title=" ">
<path fill="none" stroke="#63b8ff" d="M162.83,-211.1C168.47,-202.04 175.12,-191.37 179.65,-184.09"/>
<polygon fill="#63b8ff" stroke="#63b8ff" points="159.76,-209.41 157.45,-219.75 165.71,-213.11 159.76,-209.41"/>
</a>
</g>
</g>
<!-- Node3 -->
<g id="Node000003" class="node">
<title>Node3</title>
<g id="a_Node000003"><a xlink:href="lexer_8cpp.html" target="_top" xlink:title=" ">
<polygon fill="white" stroke="#666666" points="62,-19 0,-19 0,0 62,0 62,-19"/>
<text text-anchor="middle" x="31" y="-7" font-family="Helvetica,sans-Serif" font-size="10.00">lexer.cpp</text>
</a>
</g>
</g>
<!-- Node2&#45;&gt;Node3 -->
<g id="edge2_Node000002_Node000003" class="edge">
<title>Node2&#45;&gt;Node3</title>
<g id="a_edge2_Node000002_Node000003"><a xlink:title=" ">
<path fill="none" stroke="#63b8ff" d="M134.53,-102.91C108.68,-79.83 61.1,-37.37 40.7,-19.16"/>
<polygon fill="#63b8ff" stroke="#63b8ff" points="132.31,-105.61 142.1,-109.66 136.97,-100.39 132.31,-105.61"/>
</a>
</g>
</g>
<!-- Node4 -->
<g id="Node000004" class="node">
<title>Node4</title>
<g id="a_Node000004"><a xlink:href="parser_8cpp.html" target="_top" xlink:title=" ">
<polygon fill="white" stroke="#666666" points="148,-19 80,-19 80,0 148,0 148,-19"/>
<text text-anchor="middle" x="114" y="-7" font-family="Helvetica,sans-Serif" font-size="10.00">parser.cpp</text>
</a>
</g>
</g>
<!-- Node2&#45;&gt;Node4 -->
<g id="edge3_Node000002_Node000004" class="edge">
<title>Node2&#45;&gt;Node4</title>
<g id="a_edge3_Node000002_Node000004"><a xlink:title=" ">
<path fill="none" stroke="#63b8ff" d="M143.81,-100.61C140.27,-92.56 136.22,-82.89 133,-74 126.03,-54.74 119.57,-31.56 116.28,-19.23"/>
<polygon fill="#63b8ff" stroke="#63b8ff" points="140.63,-102.06 147.92,-109.75 147.02,-99.2 140.63,-102.06"/>
</a>
</g>
</g>
<!-- Node5 -->
<g id="Node000005" class="node">
<title>Node5</title>
<g id="a_Node000005"><a xlink:href="pio__assembler_8cpp.html" target="_top" xlink:title=" ">
<polygon fill="white" stroke="#666666" points="354,-19 246,-19 246,0 354,0 354,-19"/>
<text text-anchor="middle" x="300" y="-7" font-family="Helvetica,sans-Serif" font-size="10.00">pio_assembler.cpp</text>
</a>
</g>
</g>
<!-- Node2&#45;&gt;Node5 -->
<g id="edge4_Node000002_Node000005" class="edge">
<title>Node2&#45;&gt;Node5</title>
<g id="a_edge4_Node000002_Node000005"><a xlink:title=" ">
<path fill="none" stroke="#63b8ff" d="M188.13,-106.24C207.1,-98.74 230.07,-87.9 248,-74 268.5,-58.11 286.13,-32.72 294.62,-19.37"/>
<polygon fill="#63b8ff" stroke="#63b8ff" points="186.72,-103.03 178.62,-109.86 189.21,-109.58 186.72,-103.03"/>
</a>
</g>
</g>
<!-- Node6 -->
<g id="Node000006" class="node">
<title>Node6</title>
<g id="a_Node000006"><a xlink:href="pio__assembler_8h.html" target="_top" xlink:title=" ">
<polygon fill="white" stroke="#666666" points="239.5,-74 142.5,-74 142.5,-55 239.5,-55 239.5,-74"/>
<text text-anchor="middle" x="191" y="-62" font-family="Helvetica,sans-Serif" font-size="10.00">pio_assembler.h</text>
</a>
</g>
</g>
<!-- Node2&#45;&gt;Node6 -->
<g id="edge5_Node000002_Node000006" class="edge">
<title>Node2&#45;&gt;Node6</title>
<g id="a_edge5_Node000002_Node000006"><a xlink:title=" ">
<path fill="none" stroke="#63b8ff" d="M164.38,-101.67C171.14,-92.5 179.21,-81.52 184.68,-74.09"/>
<polygon fill="#63b8ff" stroke="#63b8ff" points="161.55,-99.62 158.44,-109.75 167.19,-103.77 161.55,-99.62"/>
</a>
</g>
</g>
<!-- Node6&#45;&gt;Node3 -->
<g id="edge6_Node000006_Node000003" class="edge">
<title>Node6&#45;&gt;Node3</title>
<g id="a_edge6_Node000006_Node000003"><a xlink:title=" ">
<path fill="none" stroke="#63b8ff" d="M155.67,-51.8C125.81,-41.91 83.73,-27.97 56.91,-19.08"/>
<polygon fill="#63b8ff" stroke="#63b8ff" points="154.7,-55.16 165.29,-54.98 156.9,-48.52 154.7,-55.16"/>
</a>
</g>
</g>
<!-- Node6&#45;&gt;Node4 -->
<g id="edge8_Node000006_Node000004" class="edge">
<title>Node6&#45;&gt;Node4</title>
<g id="a_edge8_Node000006_Node000004"><a xlink:title=" ">
<path fill="none" stroke="#63b8ff" d="M170.15,-49.15C156.24,-39.57 138.39,-27.29 126.6,-19.17"/>
<polygon fill="#63b8ff" stroke="#63b8ff" points="168.41,-52.2 178.63,-54.98 172.38,-46.43 168.41,-52.2"/>
</a>
</g>
</g>
<!-- Node6&#45;&gt;Node5 -->
<g id="edge9_Node000006_Node000005" class="edge">
<title>Node6&#45;&gt;Node5</title>
<g id="a_edge9_Node000006_Node000005"><a xlink:title=" ">
<path fill="none" stroke="#63b8ff" d="M217.73,-50.5C237.79,-40.75 264.68,-27.68 282.17,-19.17"/>
<polygon fill="#63b8ff" stroke="#63b8ff" points="215.98,-47.46 208.51,-54.98 219.04,-53.76 215.98,-47.46"/>
</a>
</g>
</g>
<!-- Node7 -->
<g id="Node000007" class="node">
<title>Node7</title>
<g id="a_Node000007"><a xlink:href="main_8cpp.html" target="_top" xlink:title=" ">
<polygon fill="white" stroke="#666666" points="228,-19 166,-19 166,0 228,0 228,-19"/>
<text text-anchor="middle" x="197" y="-7" font-family="Helvetica,sans-Serif" font-size="10.00">main.cpp</text>
</a>
</g>
</g>
<!-- Node6&#45;&gt;Node7 -->
<g id="edge7_Node000006_Node000007" class="edge">
<title>Node6&#45;&gt;Node7</title>
<g id="a_edge7_Node000006_Node000007"><a xlink:title=" ">
<path fill="none" stroke="#63b8ff" d="M193.13,-44.66C194.12,-35.93 195.25,-25.99 196.03,-19.09"/>
<polygon fill="#63b8ff" stroke="#63b8ff" points="189.64,-44.42 191.99,-54.75 196.59,-45.21 189.64,-44.42"/>
</a>
</g>
</g>
<!-- Node8&#45;&gt;Node2 -->
<g id="edge11_Node000008_Node000002" class="edge">
<title>Node8&#45;&gt;Node2</title>
<g id="a_edge11_Node000008_Node000002"><a xlink:title=" ">
<path fill="none" stroke="#63b8ff" d="M174.17,-156.1C168.53,-147.04 161.88,-136.37 157.35,-129.09"/>
<polygon fill="#63b8ff" stroke="#63b8ff" points="171.29,-158.11 179.55,-164.75 177.24,-154.41 171.29,-158.11"/>
</a>
</g>
</g>
</g>
</svg>
