<?xml version="1.0" encoding="UTF-8" standalone="no"?>
<!DOCTYPE svg PUBLIC "-//W3C//DTD SVG 1.1//EN"
 "http://www.w3.org/Graphics/SVG/1.1/DTD/svg11.dtd">
<!-- Generated by graphviz version 2.43.0 (0)
 -->
<!-- Title: lock_core.h Pages: 1 -->
<svg width="1035pt" height="269pt"
 viewBox="0.00 0.00 1035.00 269.00" xmlns="http://www.w3.org/2000/svg" xmlns:xlink="http://www.w3.org/1999/xlink">
<g id="graph0" class="graph" transform="scale(1 1) rotate(0) translate(4 265)">
<title>lock_core.h</title>
<!-- Node1 -->
<g id="Node000001" class="node">
<title>Node1</title>
<g id="a_Node000001"><a xlink:title="Base implementation for locking primitives protected by a spin lock.">
<polygon fill="#999999" stroke="#666666" points="670.5,-261 598.5,-261 598.5,-242 670.5,-242 670.5,-261"/>
<text text-anchor="middle" x="634.5" y="-249" font-family="Helvetica,sans-Serif" font-size="10.00">lock_core.h</text>
</a>
</g>
</g>
<!-- Node2 -->
<g id="Node000002" class="node">
<title>Node2</title>
<g id="a_Node000002"><a xlink:href="critical__section_8h.html" target="_top" xlink:title=" ">
<polygon fill="white" stroke="#666666" points="428,-206 329,-206 329,-187 428,-187 428,-206"/>
<text text-anchor="middle" x="378.5" y="-194" font-family="Helvetica,sans-Serif" font-size="10.00">critical_section.h</text>
</a>
</g>
</g>
<!-- Node1&#45;&gt;Node2 -->
<g id="edge1_Node000001_Node000002" class="edge">
<title>Node1&#45;&gt;Node2</title>
<g id="a_edge1_Node000001_Node000002"><a xlink:title=" ">
<path fill="none" stroke="#63b8ff" d="M588.56,-240.99C540.63,-231.07 466.16,-215.65 419.97,-206.08"/>
<polygon fill="#63b8ff" stroke="#63b8ff" points="587.86,-244.42 598.36,-243.02 589.28,-237.56 587.86,-244.42"/>
</a>
</g>
</g>
<!-- Node13 -->
<g id="Node000013" class="node">
<title>Node13</title>
<g id="a_Node000013"><a xlink:href="lock__core_8c.html" target="_top" xlink:title=" ">
<polygon fill="white" stroke="#666666" points="747,-206 676,-206 676,-187 747,-187 747,-206"/>
<text text-anchor="middle" x="711.5" y="-194" font-family="Helvetica,sans-Serif" font-size="10.00">lock_core.c</text>
</a>
</g>
</g>
<!-- Node1&#45;&gt;Node13 -->
<g id="edge12_Node000001_Node000013" class="edge">
<title>Node1&#45;&gt;Node13</title>
<g id="a_edge12_Node000001_Node000013"><a xlink:title=" ">
<path fill="none" stroke="#63b8ff" d="M655.35,-236.15C669.26,-226.57 687.11,-214.29 698.9,-206.17"/>
<polygon fill="#63b8ff" stroke="#63b8ff" points="653.12,-233.43 646.87,-241.98 657.09,-239.2 653.12,-233.43"/>
</a>
</g>
</g>
<!-- Node14 -->
<g id="Node000014" class="node">
<title>Node14</title>
<g id="a_Node000014"><a xlink:href="mutex_8h.html" target="_top" xlink:title=" ">
<polygon fill="white" stroke="#666666" points="503,-206 446,-206 446,-187 503,-187 503,-206"/>
<text text-anchor="middle" x="474.5" y="-194" font-family="Helvetica,sans-Serif" font-size="10.00">mutex.h</text>
</a>
</g>
</g>
<!-- Node1&#45;&gt;Node14 -->
<g id="edge13_Node000001_Node000014" class="edge">
<title>Node1&#45;&gt;Node14</title>
<g id="a_edge13_Node000001_Node000014"><a xlink:title=" ">
<path fill="none" stroke="#63b8ff" d="M599.17,-238.8C569.31,-228.91 527.23,-214.97 500.41,-206.08"/>
<polygon fill="#63b8ff" stroke="#63b8ff" points="598.2,-242.16 608.79,-241.98 600.4,-235.52 598.2,-242.16"/>
</a>
</g>
</g>
<!-- Node18 -->
<g id="Node000018" class="node">
<title>Node18</title>
<g id="a_Node000018"><a xlink:href="queue_8h.html" target="_top" xlink:title=" ">
<polygon fill="white" stroke="#666666" points="958.5,-206 902.5,-206 902.5,-187 958.5,-187 958.5,-206"/>
<text text-anchor="middle" x="930.5" y="-194" font-family="Helvetica,sans-Serif" font-size="10.00">queue.h</text>
</a>
</g>
</g>
<!-- Node1&#45;&gt;Node18 -->
<g id="edge19_Node000001_Node000018" class="edge">
<title>Node1&#45;&gt;Node18</title>
<g id="a_edge19_Node000001_Node000018"><a xlink:title=" ">
<path fill="none" stroke="#63b8ff" d="M680.71,-242.23C742.79,-231.11 851.19,-211.7 902.3,-202.55"/>
<polygon fill="#63b8ff" stroke="#63b8ff" points="680.02,-238.79 670.8,-244 681.26,-245.68 680.02,-238.79"/>
</a>
</g>
</g>
<!-- Node20 -->
<g id="Node000020" class="node">
<title>Node20</title>
<g id="a_Node000020"><a xlink:href="sem_8h.html" target="_top" xlink:title=" ">
<polygon fill="white" stroke="#666666" points="658,-206 611,-206 611,-187 658,-187 658,-206"/>
<text text-anchor="middle" x="634.5" y="-194" font-family="Helvetica,sans-Serif" font-size="10.00">sem.h</text>
</a>
</g>
</g>
<!-- Node1&#45;&gt;Node20 -->
<g id="edge21_Node000001_Node000020" class="edge">
<title>Node1&#45;&gt;Node20</title>
<g id="a_edge21_Node000001_Node000020"><a xlink:title=" ">
<path fill="none" stroke="#63b8ff" d="M634.5,-231.66C634.5,-222.93 634.5,-212.99 634.5,-206.09"/>
<polygon fill="#63b8ff" stroke="#63b8ff" points="631,-231.75 634.5,-241.75 638,-231.75 631,-231.75"/>
</a>
</g>
</g>
<!-- Node3 -->
<g id="Node000003" class="node">
<title>Node3</title>
<g id="a_Node000003"><a xlink:href="critical__section_8c.html" target="_top" xlink:title=" ">
<polygon fill="white" stroke="#666666" points="279.5,-145.5 181.5,-145.5 181.5,-126.5 279.5,-126.5 279.5,-145.5"/>
<text text-anchor="middle" x="230.5" y="-133.5" font-family="Helvetica,sans-Serif" font-size="10.00">critical_section.c</text>
</a>
</g>
</g>
<!-- Node2&#45;&gt;Node3 -->
<g id="edge2_Node000002_Node000003" class="edge">
<title>Node2&#45;&gt;Node3</title>
<g id="a_edge2_Node000002_Node000003"><a xlink:title=" ">
<path fill="none" stroke="#63b8ff" d="M347.46,-183.23C318.86,-171.92 277.16,-155.44 252.05,-145.52"/>
<polygon fill="#63b8ff" stroke="#63b8ff" points="346.39,-186.57 356.98,-186.99 348.97,-180.06 346.39,-186.57"/>
</a>
</g>
</g>
<!-- Node4 -->
<g id="Node000004" class="node">
<title>Node4</title>
<g id="a_Node000004"><a xlink:href="common_2pico__sync_2include_2pico_2sync_8h.html" target="_top" xlink:title=" ">
<polygon fill="white" stroke="#666666" points="419.5,-145.5 371.5,-145.5 371.5,-126.5 419.5,-126.5 419.5,-145.5"/>
<text text-anchor="middle" x="395.5" y="-133.5" font-family="Helvetica,sans-Serif" font-size="10.00">sync.h</text>
</a>
</g>
</g>
<!-- Node2&#45;&gt;Node4 -->
<g id="edge3_Node000002_Node000004" class="edge">
<title>Node2&#45;&gt;Node4</title>
<g id="a_edge3_Node000002_Node000004"><a xlink:title=" ">
<path fill="none" stroke="#63b8ff" d="M383.88,-176.99C386.92,-166.51 390.59,-153.89 392.98,-145.67"/>
<polygon fill="#63b8ff" stroke="#63b8ff" points="380.44,-176.29 381.01,-186.87 387.16,-178.24 380.44,-176.29"/>
</a>
</g>
</g>
<!-- Node5 -->
<g id="Node000005" class="node">
<title>Node5</title>
<g id="a_Node000005"><a xlink:href="async__context__freertos_8c.html" target="_top" xlink:title=" ">
<polygon fill="white" stroke="#666666" points="139,-79.5 0,-79.5 0,-60.5 139,-60.5 139,-79.5"/>
<text text-anchor="middle" x="69.5" y="-67.5" font-family="Helvetica,sans-Serif" font-size="10.00">async_context_freertos.c</text>
</a>
</g>
</g>
<!-- Node4&#45;&gt;Node5 -->
<g id="edge4_Node000004_Node000005" class="edge">
<title>Node4&#45;&gt;Node5</title>
<g id="a_edge4_Node000004_Node000005"><a xlink:title=" ">
<path fill="none" stroke="#63b8ff" d="M367.61,-122.64C365.9,-122.04 364.18,-121.49 362.5,-121 269.48,-93.89 242.96,-101.56 147.5,-85 137.47,-83.26 126.72,-81.36 116.51,-79.53"/>
<polygon fill="#63b8ff" stroke="#63b8ff" points="366.69,-126.03 377.28,-126.37 369.21,-119.5 366.69,-126.03"/>
</a>
</g>
</g>
<!-- Node6 -->
<g id="Node000006" class="node">
<title>Node6</title>
<g id="a_Node000006"><a xlink:href="async__context__poll_8c.html" target="_top" xlink:title=" ">
<polygon fill="white" stroke="#666666" points="776,-79.5 657,-79.5 657,-60.5 776,-60.5 776,-79.5"/>
<text text-anchor="middle" x="716.5" y="-67.5" font-family="Helvetica,sans-Serif" font-size="10.00">async_context_poll.c</text>
</a>
</g>
</g>
<!-- Node4&#45;&gt;Node6 -->
<g id="edge5_Node000004_Node000006" class="edge">
<title>Node4&#45;&gt;Node6</title>
<g id="a_edge5_Node000004_Node000006"><a xlink:title=" ">
<path fill="none" stroke="#63b8ff" d="M423.38,-122.63C425.1,-122.04 426.81,-121.49 428.5,-121 523.67,-93.46 551.07,-102.99 648.5,-85 657.51,-83.34 667.16,-81.43 676.28,-79.56"/>
<polygon fill="#63b8ff" stroke="#63b8ff" points="421.79,-119.49 413.72,-126.36 424.31,-126.03 421.79,-119.49"/>
</a>
</g>
</g>
<!-- Node7 -->
<g id="Node000007" class="node">
<title>Node7</title>
<g id="a_Node000007"><a xlink:href="async__context__threadsafe__background_8c.html" target="_top" xlink:title=" ">
<polygon fill="white" stroke="#666666" points="639,-85 494,-85 494,-55 639,-55 639,-85"/>
<text text-anchor="start" x="502" y="-73" font-family="Helvetica,sans-Serif" font-size="10.00">async_context_threadsafe</text>
<text text-anchor="middle" x="566.5" y="-62" font-family="Helvetica,sans-Serif" font-size="10.00">_background.c</text>
</a>
</g>
</g>
<!-- Node4&#45;&gt;Node7 -->
<g id="edge6_Node000004_Node000007" class="edge">
<title>Node4&#45;&gt;Node7</title>
<g id="a_edge6_Node000004_Node000007"><a xlink:title=" ">
<path fill="none" stroke="#63b8ff" d="M424.83,-122.46C426.07,-121.96 427.29,-121.47 428.5,-121 460.99,-108.23 498.23,-94.81 525.83,-85.09"/>
<polygon fill="#63b8ff" stroke="#63b8ff" points="423.23,-119.34 415.32,-126.39 425.9,-125.81 423.23,-119.34"/>
</a>
</g>
</g>
<!-- Node8 -->
<g id="Node000008" class="node">
<title>Node8</title>
<g id="a_Node000008"><a xlink:href="atomic_8c.html" target="_top" xlink:title=" ">
<polygon fill="white" stroke="#666666" points="216,-79.5 157,-79.5 157,-60.5 216,-60.5 216,-79.5"/>
<text text-anchor="middle" x="186.5" y="-67.5" font-family="Helvetica,sans-Serif" font-size="10.00">atomic.c</text>
</a>
</g>
</g>
<!-- Node4&#45;&gt;Node8 -->
<g id="edge7_Node000004_Node000008" class="edge">
<title>Node4&#45;&gt;Node8</title>
<g id="a_edge7_Node000004_Node000008"><a xlink:title=" ">
<path fill="none" stroke="#63b8ff" d="M366.87,-122.56C365.4,-122.01 363.94,-121.49 362.5,-121 302.92,-100.65 285.63,-103.65 225.5,-85 220.28,-83.38 214.72,-81.49 209.48,-79.63"/>
<polygon fill="#63b8ff" stroke="#63b8ff" points="365.9,-125.94 376.49,-126.38 368.49,-119.44 365.9,-125.94"/>
</a>
</g>
</g>
<!-- Node9 -->
<g id="Node000009" class="node">
<title>Node9</title>
<g id="a_Node000009"><a xlink:href="kitchen__sink_8c.html" target="_top" xlink:title=" ">
<polygon fill="white" stroke="#666666" points="320.5,-79.5 234.5,-79.5 234.5,-60.5 320.5,-60.5 320.5,-79.5"/>
<text text-anchor="middle" x="277.5" y="-67.5" font-family="Helvetica,sans-Serif" font-size="10.00">kitchen_sink.c</text>
</a>
</g>
</g>
<!-- Node4&#45;&gt;Node9 -->
<g id="edge8_Node000004_Node000009" class="edge">
<title>Node4&#45;&gt;Node9</title>
<g id="a_edge8_Node000004_Node000009"><a xlink:title=" ">
<path fill="none" stroke="#63b8ff" d="M370.66,-121.53C347.42,-108.92 313.39,-90.47 293.54,-79.7"/>
<polygon fill="#63b8ff" stroke="#63b8ff" points="369.13,-124.68 379.59,-126.37 372.46,-118.52 369.13,-124.68"/>
</a>
</g>
</g>
<!-- Node11 -->
<g id="Node000011" class="node">
<title>Node11</title>
<g id="a_Node000011"><a xlink:href="rp2__common_2pico__multicore_2include_2pico_2multicore_8h.html" target="_top" xlink:title=" ">
<polygon fill="white" stroke="#666666" points="410.5,-79.5 338.5,-79.5 338.5,-60.5 410.5,-60.5 410.5,-79.5"/>
<text text-anchor="middle" x="374.5" y="-67.5" font-family="Helvetica,sans-Serif" font-size="10.00">multicore.h</text>
</a>
</g>
</g>
<!-- Node4&#45;&gt;Node11 -->
<g id="edge10_Node000004_Node000011" class="edge">
<title>Node4&#45;&gt;Node11</title>
<g id="a_edge10_Node000004_Node000011"><a xlink:title=" ">
<path fill="none" stroke="#63b8ff" d="M389.53,-116.82C385.57,-104.74 380.54,-89.41 377.42,-79.91"/>
<polygon fill="#63b8ff" stroke="#63b8ff" points="386.22,-117.96 392.67,-126.37 392.88,-115.78 386.22,-117.96"/>
</a>
</g>
</g>
<!-- Node12 -->
<g id="Node000012" class="node">
<title>Node12</title>
<g id="a_Node000012"><a xlink:href="time_8c.html" target="_top" xlink:title=" ">
<polygon fill="white" stroke="#666666" points="476,-79.5 429,-79.5 429,-60.5 476,-60.5 476,-79.5"/>
<text text-anchor="middle" x="452.5" y="-67.5" font-family="Helvetica,sans-Serif" font-size="10.00">time.c</text>
</a>
</g>
</g>
<!-- Node4&#45;&gt;Node12 -->
<g id="edge11_Node000004_Node000012" class="edge">
<title>Node4&#45;&gt;Node12</title>
<g id="a_edge11_Node000004_Node000012"><a xlink:title=" ">
<path fill="none" stroke="#63b8ff" d="M410.09,-118.62C421.06,-106.31 435.67,-89.89 444.57,-79.91"/>
<polygon fill="#63b8ff" stroke="#63b8ff" points="407.22,-116.57 403.19,-126.37 412.45,-121.23 407.22,-116.57"/>
</a>
</g>
</g>
<!-- Node10 -->
<g id="Node000010" class="node">
<title>Node10</title>
<g id="a_Node000010"><a xlink:href="kitchen__sink__cpp_8cpp.html" target="_top" xlink:title=" ">
<polygon fill="white" stroke="#666666" points="338,-19 217,-19 217,0 338,0 338,-19"/>
<text text-anchor="middle" x="277.5" y="-7" font-family="Helvetica,sans-Serif" font-size="10.00">kitchen_sink_cpp.cpp</text>
</a>
</g>
</g>
<!-- Node9&#45;&gt;Node10 -->
<g id="edge9_Node000009_Node000010" class="edge">
<title>Node9&#45;&gt;Node10</title>
<g id="a_edge9_Node000009_Node000010"><a xlink:title=" ">
<path fill="none" stroke="#63b8ff" d="M277.5,-50.16C277.5,-39.74 277.5,-27.3 277.5,-19.17"/>
<polygon fill="#63b8ff" stroke="#63b8ff" points="274,-50.37 277.5,-60.37 281,-50.37 274,-50.37"/>
</a>
</g>
</g>
<!-- Node14&#45;&gt;Node4 -->
<g id="edge18_Node000014_Node000004" class="edge">
<title>Node14&#45;&gt;Node4</title>
<g id="a_edge18_Node000014_Node000004"><a xlink:title=" ">
<path fill="none" stroke="#63b8ff" d="M454.71,-180.85C439.75,-169.77 419.71,-154.93 407.2,-145.67"/>
<polygon fill="#63b8ff" stroke="#63b8ff" points="452.72,-183.73 462.84,-186.87 456.89,-178.1 452.72,-183.73"/>
</a>
</g>
</g>
<!-- Node15 -->
<g id="Node000015" class="node">
<title>Node15</title>
<g id="a_Node000015"><a xlink:href="async__context__threadsafe__background_8h.html" target="_top" xlink:title=" ">
<polygon fill="white" stroke="#666666" points="639,-151 494,-151 494,-121 639,-121 639,-151"/>
<text text-anchor="start" x="502" y="-139" font-family="Helvetica,sans-Serif" font-size="10.00">async_context_threadsafe</text>
<text text-anchor="middle" x="566.5" y="-128" font-family="Helvetica,sans-Serif" font-size="10.00">_background.h</text>
</a>
</g>
</g>
<!-- Node14&#45;&gt;Node15 -->
<g id="edge14_Node000014_Node000015" class="edge">
<title>Node14&#45;&gt;Node15</title>
<g id="a_edge14_Node000014_Node000015"><a xlink:title=" ">
<path fill="none" stroke="#63b8ff" d="M496.84,-181.29C511.25,-172.13 529.92,-160.26 544.3,-151.11"/>
<polygon fill="#63b8ff" stroke="#63b8ff" points="494.64,-178.55 488.07,-186.87 498.39,-184.46 494.64,-178.55"/>
</a>
</g>
</g>
<!-- Node16 -->
<g id="Node000016" class="node">
<title>Node16</title>
<g id="a_Node000016"><a xlink:href="rp2__common_2hardware__irq_2irq_8c.html" target="_top" xlink:title=" ">
<polygon fill="white" stroke="#666666" points="475.5,-145.5 437.5,-145.5 437.5,-126.5 475.5,-126.5 475.5,-145.5"/>
<text text-anchor="middle" x="456.5" y="-133.5" font-family="Helvetica,sans-Serif" font-size="10.00">irq.c</text>
</a>
</g>
</g>
<!-- Node14&#45;&gt;Node16 -->
<g id="edge16_Node000014_Node000016" class="edge">
<title>Node14&#45;&gt;Node16</title>
<g id="a_edge16_Node000014_Node000016"><a xlink:title=" ">
<path fill="none" stroke="#63b8ff" d="M468.81,-176.99C465.58,-166.51 461.7,-153.89 459.17,-145.67"/>
<polygon fill="#63b8ff" stroke="#63b8ff" points="465.56,-178.34 471.84,-186.87 472.25,-176.28 465.56,-178.34"/>
</a>
</g>
</g>
<!-- Node17 -->
<g id="Node000017" class="node">
<title>Node17</title>
<g id="a_Node000017"><a xlink:href="mutex_8c.html" target="_top" xlink:title=" ">
<polygon fill="white" stroke="#666666" points="353.5,-145.5 297.5,-145.5 297.5,-126.5 353.5,-126.5 353.5,-145.5"/>
<text text-anchor="middle" x="325.5" y="-133.5" font-family="Helvetica,sans-Serif" font-size="10.00">mutex.c</text>
</a>
</g>
</g>
<!-- Node14&#45;&gt;Node17 -->
<g id="edge17_Node000014_Node000017" class="edge">
<title>Node14&#45;&gt;Node17</title>
<g id="a_edge17_Node000014_Node000017"><a xlink:title=" ">
<path fill="none" stroke="#63b8ff" d="M443.25,-183.23C414.45,-171.92 372.47,-155.44 347.19,-145.52"/>
<polygon fill="#63b8ff" stroke="#63b8ff" points="442.25,-186.6 452.83,-186.99 444.8,-180.08 442.25,-186.6"/>
</a>
</g>
</g>
<!-- Node15&#45;&gt;Node7 -->
<g id="edge15_Node000015_Node000007" class="edge">
<title>Node15&#45;&gt;Node7</title>
<g id="a_edge15_Node000015_Node000007"><a xlink:title=" ">
<path fill="none" stroke="#63b8ff" d="M566.5,-110.54C566.5,-101.96 566.5,-92.61 566.5,-85.16"/>
<polygon fill="#63b8ff" stroke="#63b8ff" points="563,-110.8 566.5,-120.8 570,-110.8 563,-110.8"/>
</a>
</g>
</g>
<!-- Node19 -->
<g id="Node000019" class="node">
<title>Node19</title>
<g id="a_Node000019"><a xlink:href="queue_8c.html" target="_top" xlink:title=" ">
<polygon fill="white" stroke="#666666" points="1027,-145.5 972,-145.5 972,-126.5 1027,-126.5 1027,-145.5"/>
<text text-anchor="middle" x="999.5" y="-133.5" font-family="Helvetica,sans-Serif" font-size="10.00">queue.c</text>
</a>
</g>
</g>
<!-- Node18&#45;&gt;Node19 -->
<g id="edge20_Node000018_Node000019" class="edge">
<title>Node18&#45;&gt;Node19</title>
<g id="a_edge20_Node000018_Node000019"><a xlink:title=" ">
<path fill="none" stroke="#63b8ff" d="M948.52,-180.22C961.5,-169.21 978.56,-154.75 989.28,-145.67"/>
<polygon fill="#63b8ff" stroke="#63b8ff" points="946.05,-177.73 940.68,-186.87 950.57,-183.07 946.05,-177.73"/>
</a>
</g>
</g>
<!-- Node20&#45;&gt;Node4 -->
<g id="edge27_Node000020_Node000004" class="edge">
<title>Node20&#45;&gt;Node4</title>
<g id="a_edge27_Node000020_Node000004"><a xlink:title=" ">
<path fill="none" stroke="#63b8ff" d="M600.92,-190.25C559.72,-183.35 488.02,-169.87 428.5,-151 423.75,-149.5 418.75,-147.56 414.12,-145.62"/>
<polygon fill="#63b8ff" stroke="#63b8ff" points="600.52,-193.73 610.96,-191.9 601.66,-186.82 600.52,-193.73"/>
</a>
</g>
</g>
<!-- Node20&#45;&gt;Node15 -->
<g id="edge24_Node000020_Node000015" class="edge">
<title>Node20&#45;&gt;Node15</title>
<g id="a_edge24_Node000020_Node000015"><a xlink:title=" ">
<path fill="none" stroke="#63b8ff" d="M616.76,-180.23C606.29,-171.23 593.13,-159.91 582.91,-151.11"/>
<polygon fill="#63b8ff" stroke="#63b8ff" points="614.6,-183 624.47,-186.87 619.17,-177.69 614.6,-183"/>
</a>
</g>
</g>
<!-- Node21 -->
<g id="Node000021" class="node">
<title>Node21</title>
<g id="a_Node000021"><a xlink:href="async__context__poll_8h.html" target="_top" xlink:title=" ">
<polygon fill="white" stroke="#666666" points="776,-145.5 657,-145.5 657,-126.5 776,-126.5 776,-145.5"/>
<text text-anchor="middle" x="716.5" y="-133.5" font-family="Helvetica,sans-Serif" font-size="10.00">async_context_poll.h</text>
</a>
</g>
</g>
<!-- Node20&#45;&gt;Node21 -->
<g id="edge22_Node000020_Node000021" class="edge">
<title>Node20&#45;&gt;Node21</title>
<g id="a_edge22_Node000020_Node000021"><a xlink:title=" ">
<path fill="none" stroke="#63b8ff" d="M655.04,-180.85C670.57,-169.77 691.37,-154.93 704.35,-145.67"/>
<polygon fill="#63b8ff" stroke="#63b8ff" points="652.71,-178.21 646.6,-186.87 656.77,-183.91 652.71,-178.21"/>
</a>
</g>
</g>
<!-- Node22 -->
<g id="Node000022" class="node">
<title>Node22</title>
<g id="a_Node000022"><a xlink:href="pico__sem__test_8c.html" target="_top" xlink:title=" ">
<polygon fill="white" stroke="#666666" points="889,-145.5 794,-145.5 794,-126.5 889,-126.5 889,-145.5"/>
<text text-anchor="middle" x="841.5" y="-133.5" font-family="Helvetica,sans-Serif" font-size="10.00">pico_sem_test.c</text>
</a>
</g>
</g>
<!-- Node20&#45;&gt;Node22 -->
<g id="edge25_Node000020_Node000022" class="edge">
<title>Node20&#45;&gt;Node22</title>
<g id="a_edge25_Node000020_Node000022"><a xlink:title=" ">
<path fill="none" stroke="#63b8ff" d="M667.99,-186.04C707.67,-174.82 773.2,-156.3 811.36,-145.52"/>
<polygon fill="#63b8ff" stroke="#63b8ff" points="666.92,-182.7 658.25,-188.79 668.82,-189.44 666.92,-182.7"/>
</a>
</g>
</g>
<!-- Node23 -->
<g id="Node000023" class="node">
<title>Node23</title>
<g id="a_Node000023"><a xlink:href="sem_8c.html" target="_top" xlink:title=" ">
<polygon fill="white" stroke="#666666" points="953.5,-145.5 907.5,-145.5 907.5,-126.5 953.5,-126.5 953.5,-145.5"/>
<text text-anchor="middle" x="930.5" y="-133.5" font-family="Helvetica,sans-Serif" font-size="10.00">sem.c</text>
</a>
</g>
</g>
<!-- Node20&#45;&gt;Node23 -->
<g id="edge26_Node000020_Node000023" class="edge">
<title>Node20&#45;&gt;Node23</title>
<g id="a_edge26_Node000020_Node000023"><a xlink:title=" ">
<path fill="none" stroke="#63b8ff" d="M668.09,-187.1C771.11,-166.83 801.76,-179.18 898.5,-151 903.39,-149.58 908.52,-147.58 913.2,-145.54"/>
<polygon fill="#63b8ff" stroke="#63b8ff" points="667.34,-183.68 658.23,-189.09 668.72,-190.54 667.34,-183.68"/>
</a>
</g>
</g>
<!-- Node21&#45;&gt;Node6 -->
<g id="edge23_Node000021_Node000006" class="edge">
<title>Node21&#45;&gt;Node6</title>
<g id="a_edge23_Node000021_Node000006"><a xlink:title=" ">
<path fill="none" stroke="#63b8ff" d="M716.5,-116.08C716.5,-104.13 716.5,-89.22 716.5,-79.91"/>
<polygon fill="#63b8ff" stroke="#63b8ff" points="713,-116.37 716.5,-126.37 720,-116.37 713,-116.37"/>
</a>
</g>
</g>
</g>
</svg>
