<?xml version="1.0" encoding="UTF-8" standalone="no"?>
<!DOCTYPE svg PUBLIC "-//W3C//DTD SVG 1.1//EN"
 "http://www.w3.org/Graphics/SVG/1.1/DTD/svg11.dtd">
<!-- Generated by graphviz version 2.43.0 (0)
 -->
<!-- Title: lock.h Pages: 1 -->
<svg width="292pt" height="192pt"
 viewBox="0.00 0.00 292.00 192.00" xmlns="http://www.w3.org/2000/svg" xmlns:xlink="http://www.w3.org/1999/xlink">
<g id="graph0" class="graph" transform="scale(1 1) rotate(0) translate(4 188)">
<title>lock.h</title>
<!-- Node1 -->
<g id="Node000001" class="node">
<title>Node1</title>
<g id="a_Node000001"><a xlink:title=" ">
<polygon fill="#999999" stroke="#666666" points="159,-184 113,-184 113,-165 159,-165 159,-184"/>
<text text-anchor="middle" x="136" y="-172" font-family="Helvetica,sans-Serif" font-size="10.00">lock.h</text>
</a>
</g>
</g>
<!-- Node2 -->
<g id="Node000002" class="node">
<title>Node2</title>
<g id="a_Node000002"><a xlink:href="boot__lock_8h.html" target="_top" xlink:title=" ">
<polygon fill="white" stroke="#666666" points="122,-129 0,-129 0,-110 122,-110 122,-129"/>
<text text-anchor="middle" x="61" y="-117" font-family="Helvetica,sans-Serif" font-size="10.00">hardware/boot_lock.h</text>
</a>
</g>
</g>
<!-- Node1&#45;&gt;Node2 -->
<g id="edge1_Node000001_Node000002" class="edge">
<title>Node1&#45;&gt;Node2</title>
<g id="a_edge1_Node000001_Node000002"><a xlink:title=" ">
<path fill="none" stroke="#63b8ff" d="M123.95,-164.98C112.54,-156.92 95.17,-144.65 81.57,-135.03"/>
<polygon fill="#63b8ff" stroke="#63b8ff" points="83.46,-132.08 73.27,-129.17 79.42,-137.8 83.46,-132.08"/>
</a>
</g>
</g>
<!-- Node4 -->
<g id="Node000004" class="node">
<title>Node4</title>
<g id="a_Node000004"><a xlink:href="pico__bootrom_2include_2pico_2bootrom__constants_8h.html" target="_top" xlink:title=" ">
<polygon fill="white" stroke="#666666" points="283.5,-129 140.5,-129 140.5,-110 283.5,-110 283.5,-129"/>
<text text-anchor="middle" x="212" y="-117" font-family="Helvetica,sans-Serif" font-size="10.00">pico/bootrom_constants.h</text>
</a>
</g>
</g>
<!-- Node1&#45;&gt;Node4 -->
<g id="edge3_Node000001_Node000004" class="edge">
<title>Node1&#45;&gt;Node4</title>
<g id="a_edge3_Node000001_Node000004"><a xlink:title=" ">
<path fill="none" stroke="#63b8ff" d="M148.21,-164.98C159.78,-156.92 177.38,-144.65 191.16,-135.03"/>
<polygon fill="#63b8ff" stroke="#63b8ff" points="193.37,-137.76 199.57,-129.17 189.36,-132.02 193.37,-137.76"/>
</a>
</g>
</g>
<!-- Node3 -->
<g id="Node000003" class="node">
<title>Node3</title>
<g id="a_Node000003"><a xlink:title=" ">
<polygon fill="#e0e0e0" stroke="#999999" points="84,-74 38,-74 38,-55 84,-55 84,-74"/>
<text text-anchor="middle" x="61" y="-62" font-family="Helvetica,sans-Serif" font-size="10.00">pico.h</text>
</a>
</g>
</g>
<!-- Node2&#45;&gt;Node3 -->
<g id="edge2_Node000002_Node000003" class="edge">
<title>Node2&#45;&gt;Node3</title>
<g id="a_edge2_Node000002_Node000003"><a xlink:title=" ">
<path fill="none" stroke="#63b8ff" d="M61,-109.75C61,-102.8 61,-92.85 61,-84.13"/>
<polygon fill="#63b8ff" stroke="#63b8ff" points="64.5,-84.09 61,-74.09 57.5,-84.09 64.5,-84.09"/>
</a>
</g>
</g>
<!-- Node5 -->
<g id="Node000005" class="node">
<title>Node5</title>
<g id="a_Node000005"><a xlink:href="boot__bootrom__headers_2include_2boot_2bootrom__constants_8h.html" target="_top" xlink:title=" ">
<polygon fill="white" stroke="#666666" points="284,-74 140,-74 140,-55 284,-55 284,-74"/>
<text text-anchor="middle" x="212" y="-62" font-family="Helvetica,sans-Serif" font-size="10.00">boot/bootrom_constants.h</text>
</a>
</g>
</g>
<!-- Node4&#45;&gt;Node5 -->
<g id="edge4_Node000004_Node000005" class="edge">
<title>Node4&#45;&gt;Node5</title>
<g id="a_edge4_Node000004_Node000005"><a xlink:title=" ">
<path fill="none" stroke="#63b8ff" d="M212,-109.75C212,-102.8 212,-92.85 212,-84.13"/>
<polygon fill="#63b8ff" stroke="#63b8ff" points="215.5,-84.09 212,-74.09 208.5,-84.09 215.5,-84.09"/>
</a>
</g>
</g>
<!-- Node6 -->
<g id="Node000006" class="node">
<title>Node6</title>
<g id="a_Node000006"><a xlink:title=" ">
<polygon fill="#e0e0e0" stroke="#999999" points="257.5,-19 166.5,-19 166.5,0 257.5,0 257.5,-19"/>
<text text-anchor="middle" x="212" y="-7" font-family="Helvetica,sans-Serif" font-size="10.00">pico/platform.h</text>
</a>
</g>
</g>
<!-- Node5&#45;&gt;Node6 -->
<g id="edge5_Node000005_Node000006" class="edge">
<title>Node5&#45;&gt;Node6</title>
<g id="a_edge5_Node000005_Node000006"><a xlink:title=" ">
<path fill="none" stroke="#63b8ff" d="M212,-54.75C212,-47.8 212,-37.85 212,-29.13"/>
<polygon fill="#63b8ff" stroke="#63b8ff" points="215.5,-29.09 212,-19.09 208.5,-29.09 215.5,-29.09"/>
</a>
</g>
</g>
</g>
</svg>
