<?xml version="1.0" encoding="UTF-8" standalone="no"?>
<!DOCTYPE svg PUBLIC "-//W3C//DTD SVG 1.1//EN"
 "http://www.w3.org/Graphics/SVG/1.1/DTD/svg11.dtd">
<!-- Generated by graphviz version 2.43.0 (0)
 -->
<!-- Title: lwip_freertos.h Pages: 1 -->
<svg width="175pt" height="192pt"
 viewBox="0.00 0.00 175.00 192.00" xmlns="http://www.w3.org/2000/svg" xmlns:xlink="http://www.w3.org/1999/xlink">
<g id="graph0" class="graph" transform="scale(1 1) rotate(0) translate(4 188)">
<title>lwip_freertos.h</title>
<!-- Node1 -->
<g id="Node000001" class="node">
<title>Node1</title>
<g id="a_Node000001"><a xlink:title=" ">
<polygon fill="#999999" stroke="#666666" points="89,-184 0,-184 0,-165 89,-165 89,-184"/>
<text text-anchor="middle" x="44.5" y="-172" font-family="Helvetica,sans-Serif" font-size="10.00">lwip_freertos.h</text>
</a>
</g>
</g>
<!-- Node2 -->
<g id="Node000002" class="node">
<title>Node2</title>
<g id="a_Node000002"><a xlink:title=" ">
<polygon fill="#e0e0e0" stroke="#999999" points="47.5,-19 1.5,-19 1.5,0 47.5,0 47.5,-19"/>
<text text-anchor="middle" x="24.5" y="-7" font-family="Helvetica,sans-Serif" font-size="10.00">pico.h</text>
</a>
</g>
</g>
<!-- Node1&#45;&gt;Node2 -->
<g id="edge1_Node000001_Node000002" class="edge">
<title>Node1&#45;&gt;Node2</title>
<g id="a_edge1_Node000001_Node000002"><a xlink:title=" ">
<path fill="none" stroke="#63b8ff" d="M38.13,-164.84C32.24,-156.25 23.89,-142.45 20.5,-129 11.8,-94.53 16.66,-52.62 20.74,-29.01"/>
<polygon fill="#63b8ff" stroke="#63b8ff" points="24.22,-29.48 22.62,-19 17.34,-28.19 24.22,-29.48"/>
</a>
</g>
</g>
<!-- Node3 -->
<g id="Node000003" class="node">
<title>Node3</title>
<g id="a_Node000003"><a xlink:href="async__context_8h.html" target="_top" xlink:title=" ">
<polygon fill="white" stroke="#666666" points="148,-129 29,-129 29,-110 148,-110 148,-129"/>
<text text-anchor="middle" x="88.5" y="-117" font-family="Helvetica,sans-Serif" font-size="10.00">pico/async_context.h</text>
</a>
</g>
</g>
<!-- Node1&#45;&gt;Node3 -->
<g id="edge2_Node000001_Node000003" class="edge">
<title>Node1&#45;&gt;Node3</title>
<g id="a_edge2_Node000001_Node000003"><a xlink:title=" ">
<path fill="none" stroke="#63b8ff" d="M51.77,-164.75C58.04,-157.18 67.29,-146.05 74.93,-136.84"/>
<polygon fill="#63b8ff" stroke="#63b8ff" points="77.67,-139.02 81.37,-129.09 72.29,-134.55 77.67,-139.02"/>
</a>
</g>
</g>
<!-- Node3&#45;&gt;Node2 -->
<g id="edge3_Node000003_Node000002" class="edge">
<title>Node3&#45;&gt;Node2</title>
<g id="a_edge3_Node000003_Node000002"><a xlink:title=" ">
<path fill="none" stroke="#63b8ff" d="M82.25,-109.81C75.99,-100.96 66.2,-86.77 58.5,-74 49.43,-58.96 40.08,-41.31 33.49,-28.44"/>
<polygon fill="#63b8ff" stroke="#63b8ff" points="36.49,-26.62 28.85,-19.28 30.25,-29.79 36.49,-26.62"/>
</a>
</g>
</g>
<!-- Node4 -->
<g id="Node000004" class="node">
<title>Node4</title>
<g id="a_Node000004"><a xlink:href="common_2pico__time_2include_2pico_2time_8h.html" target="_top" xlink:title=" ">
<polygon fill="white" stroke="#666666" points="138,-74 67,-74 67,-55 138,-55 138,-74"/>
<text text-anchor="middle" x="102.5" y="-62" font-family="Helvetica,sans-Serif" font-size="10.00">pico/time.h</text>
</a>
</g>
</g>
<!-- Node3&#45;&gt;Node4 -->
<g id="edge4_Node000003_Node000004" class="edge">
<title>Node3&#45;&gt;Node4</title>
<g id="a_edge4_Node000003_Node000004"><a xlink:title=" ">
<path fill="none" stroke="#63b8ff" d="M90.81,-109.75C92.67,-102.72 95.34,-92.62 97.65,-83.84"/>
<polygon fill="#63b8ff" stroke="#63b8ff" points="101.06,-84.65 100.23,-74.09 94.29,-82.86 101.06,-84.65"/>
</a>
</g>
</g>
<!-- Node4&#45;&gt;Node2 -->
<g id="edge5_Node000004_Node000002" class="edge">
<title>Node4&#45;&gt;Node2</title>
<g id="a_edge5_Node000004_Node000002"><a xlink:title=" ">
<path fill="none" stroke="#63b8ff" d="M89.97,-54.98C78.1,-46.92 60.04,-34.65 45.89,-25.03"/>
<polygon fill="#63b8ff" stroke="#63b8ff" points="47.5,-21.9 37.26,-19.17 43.56,-27.69 47.5,-21.9"/>
</a>
</g>
</g>
<!-- Node5 -->
<g id="Node000005" class="node">
<title>Node5</title>
<g id="a_Node000005"><a xlink:title=" ">
<polygon fill="#e0e0e0" stroke="#999999" points="167,-19 66,-19 66,0 167,0 167,-19"/>
<text text-anchor="middle" x="116.5" y="-7" font-family="Helvetica,sans-Serif" font-size="10.00">hardware/timer.h</text>
</a>
</g>
</g>
<!-- Node4&#45;&gt;Node5 -->
<g id="edge6_Node000004_Node000005" class="edge">
<title>Node4&#45;&gt;Node5</title>
<g id="a_edge6_Node000004_Node000005"><a xlink:title=" ">
<path fill="none" stroke="#63b8ff" d="M104.81,-54.75C106.67,-47.72 109.34,-37.62 111.65,-28.84"/>
<polygon fill="#63b8ff" stroke="#63b8ff" points="115.06,-29.65 114.23,-19.09 108.29,-27.86 115.06,-29.65"/>
</a>
</g>
</g>
</g>
</svg>
