<?xml version="1.0" encoding="UTF-8" standalone="no"?>
<!DOCTYPE svg PUBLIC "-//W3C//DTD SVG 1.1//EN"
 "http://www.w3.org/Graphics/SVG/1.1/DTD/svg11.dtd">
<!-- Generated by graphviz version 2.43.0 (0)
 -->
<!-- Title: main.c Pages: 1 -->
<svg width="754pt" height="357pt"
 viewBox="0.00 0.00 754.00 357.00" xmlns="http://www.w3.org/2000/svg" xmlns:xlink="http://www.w3.org/1999/xlink">
<g id="graph0" class="graph" transform="scale(1 1) rotate(0) translate(4 353)">
<title>main.c</title>
<!-- Node1 -->
<g id="Node000001" class="node">
<title>Node1</title>
<g id="a_Node000001"><a xlink:title=" ">
<polygon fill="#999999" stroke="#666666" points="404.5,-349 354.5,-349 354.5,-330 404.5,-330 404.5,-349"/>
<text text-anchor="middle" x="379.5" y="-337" font-family="Helvetica,sans-Serif" font-size="10.00">main.c</text>
</a>
</g>
</g>
<!-- Node2 -->
<g id="Node000002" class="node">
<title>Node2</title>
<g id="a_Node000002"><a xlink:title=" ">
<polygon fill="#e0e0e0" stroke="#999999" points="332.5,-294 282.5,-294 282.5,-275 332.5,-275 332.5,-294"/>
<text text-anchor="middle" x="307.5" y="-282" font-family="Helvetica,sans-Serif" font-size="10.00">stdio.h</text>
</a>
</g>
</g>
<!-- Node1&#45;&gt;Node2 -->
<g id="edge1_Node000001_Node000002" class="edge">
<title>Node1&#45;&gt;Node2</title>
<g id="a_edge1_Node000001_Node000002"><a xlink:title=" ">
<path fill="none" stroke="#63b8ff" d="M367.93,-329.98C357.08,-322 340.62,-309.88 327.62,-300.31"/>
<polygon fill="#63b8ff" stroke="#63b8ff" points="329.41,-297.28 319.28,-294.17 325.26,-302.92 329.41,-297.28"/>
</a>
</g>
</g>
<!-- Node3 -->
<g id="Node000003" class="node">
<title>Node3</title>
<g id="a_Node000003"><a xlink:href="stdlib_8h.html" target="_top" xlink:title=" ">
<polygon fill="white" stroke="#666666" points="364.5,-129 288.5,-129 288.5,-110 364.5,-110 364.5,-129"/>
<text text-anchor="middle" x="326.5" y="-117" font-family="Helvetica,sans-Serif" font-size="10.00">pico/stdlib.h</text>
</a>
</g>
</g>
<!-- Node1&#45;&gt;Node3 -->
<g id="edge2_Node000001_Node000003" class="edge">
<title>Node1&#45;&gt;Node3</title>
<g id="a_edge2_Node000001_Node000003"><a xlink:title=" ">
<path fill="none" stroke="#63b8ff" d="M377.42,-329.95C369.62,-297.88 341.99,-184.2 331.03,-139.12"/>
<polygon fill="#63b8ff" stroke="#63b8ff" points="334.38,-138.11 328.62,-129.22 327.58,-139.77 334.38,-138.11"/>
</a>
</g>
</g>
<!-- Node10 -->
<g id="Node000010" class="node">
<title>Node10</title>
<g id="a_Node000010"><a xlink:href="rp2__common_2hardware__i2c_2include_2hardware_2i2c_8h.html" target="_top" xlink:title=" ">
<polygon fill="white" stroke="#666666" points="485,-129 396,-129 396,-110 485,-110 485,-129"/>
<text text-anchor="middle" x="440.5" y="-117" font-family="Helvetica,sans-Serif" font-size="10.00">hardware/i2c.h</text>
</a>
</g>
</g>
<!-- Node1&#45;&gt;Node10 -->
<g id="edge10_Node000001_Node000010" class="edge">
<title>Node1&#45;&gt;Node10</title>
<g id="a_edge10_Node000001_Node000010"><a xlink:title=" ">
<path fill="none" stroke="#63b8ff" d="M380.56,-329.97C383.92,-304.38 395.41,-226.2 417.5,-165 420.86,-155.69 425.77,-145.87 430.2,-137.83"/>
<polygon fill="#63b8ff" stroke="#63b8ff" points="433.29,-139.48 435.22,-129.06 427.21,-136 433.29,-139.48"/>
</a>
</g>
</g>
<!-- Node13 -->
<g id="Node000013" class="node">
<title>Node13</title>
<g id="a_Node000013"><a xlink:href="oled_8h.html" target="_top" xlink:title=" ">
<polygon fill="white" stroke="#666666" points="571,-294 446,-294 446,-275 571,-275 571,-294"/>
<text text-anchor="middle" x="508.5" y="-282" font-family="Helvetica,sans-Serif" font-size="10.00">OLED_SSD1306/oled.h</text>
</a>
</g>
</g>
<!-- Node1&#45;&gt;Node13 -->
<g id="edge15_Node000001_Node000013" class="edge">
<title>Node1&#45;&gt;Node13</title>
<g id="a_edge15_Node000001_Node000013"><a xlink:title=" ">
<path fill="none" stroke="#63b8ff" d="M400.23,-329.98C421.26,-321.34 454.05,-307.87 478.04,-298.02"/>
<polygon fill="#63b8ff" stroke="#63b8ff" points="479.48,-301.21 487.4,-294.17 476.82,-294.73 479.48,-301.21"/>
</a>
</g>
</g>
<!-- Node4 -->
<g id="Node000004" class="node">
<title>Node4</title>
<g id="a_Node000004"><a xlink:title=" ">
<polygon fill="#e0e0e0" stroke="#999999" points="445.5,-19 399.5,-19 399.5,0 445.5,0 445.5,-19"/>
<text text-anchor="middle" x="422.5" y="-7" font-family="Helvetica,sans-Serif" font-size="10.00">pico.h</text>
</a>
</g>
</g>
<!-- Node3&#45;&gt;Node4 -->
<g id="edge3_Node000003_Node000004" class="edge">
<title>Node3&#45;&gt;Node4</title>
<g id="a_edge3_Node000003_Node000004"><a xlink:title=" ">
<path fill="none" stroke="#63b8ff" d="M327.09,-109.77C328.39,-96.59 332.52,-71.43 345.5,-55 356.99,-40.45 374.65,-29.76 390.15,-22.51"/>
<polygon fill="#63b8ff" stroke="#63b8ff" points="391.7,-25.65 399.45,-18.44 388.89,-19.24 391.7,-25.65"/>
</a>
</g>
</g>
<!-- Node5 -->
<g id="Node000005" class="node">
<title>Node5</title>
<g id="a_Node000005"><a xlink:title=" ">
<polygon fill="#e0e0e0" stroke="#999999" points="73,-74 0,-74 0,-55 73,-55 73,-74"/>
<text text-anchor="middle" x="36.5" y="-62" font-family="Helvetica,sans-Serif" font-size="10.00">pico/stdio.h</text>
</a>
</g>
</g>
<!-- Node3&#45;&gt;Node5 -->
<g id="edge4_Node000003_Node000005" class="edge">
<title>Node3&#45;&gt;Node5</title>
<g id="a_edge4_Node000003_Node000005"><a xlink:title=" ">
<path fill="none" stroke="#63b8ff" d="M288.29,-111.65C242.05,-103.33 161.56,-88.8 83.35,-74.33"/>
<polygon fill="#63b8ff" stroke="#63b8ff" points="83.8,-70.86 73.33,-72.48 82.53,-77.74 83.8,-70.86"/>
</a>
</g>
</g>
<!-- Node6 -->
<g id="Node000006" class="node">
<title>Node6</title>
<g id="a_Node000006"><a xlink:href="common_2pico__time_2include_2pico_2time_8h.html" target="_top" xlink:title=" ">
<polygon fill="white" stroke="#666666" points="426,-74 355,-74 355,-55 426,-55 426,-74"/>
<text text-anchor="middle" x="390.5" y="-62" font-family="Helvetica,sans-Serif" font-size="10.00">pico/time.h</text>
</a>
</g>
</g>
<!-- Node3&#45;&gt;Node6 -->
<g id="edge5_Node000003_Node000006" class="edge">
<title>Node3&#45;&gt;Node6</title>
<g id="a_edge5_Node000003_Node000006"><a xlink:title=" ">
<path fill="none" stroke="#63b8ff" d="M336.78,-109.98C346.34,-102.07 360.78,-90.11 372.28,-80.58"/>
<polygon fill="#63b8ff" stroke="#63b8ff" points="374.56,-83.24 380.03,-74.17 370.1,-77.85 374.56,-83.24"/>
</a>
</g>
</g>
<!-- Node8 -->
<g id="Node000008" class="node">
<title>Node8</title>
<g id="a_Node000008"><a xlink:title=" ">
<polygon fill="#e0e0e0" stroke="#999999" points="186,-74 91,-74 91,-55 186,-55 186,-74"/>
<text text-anchor="middle" x="138.5" y="-62" font-family="Helvetica,sans-Serif" font-size="10.00">hardware/gpio.h</text>
</a>
</g>
</g>
<!-- Node3&#45;&gt;Node8 -->
<g id="edge8_Node000003_Node000008" class="edge">
<title>Node3&#45;&gt;Node8</title>
<g id="a_edge8_Node000003_Node000008"><a xlink:title=" ">
<path fill="none" stroke="#63b8ff" d="M296.29,-109.98C264.46,-101.01 214.14,-86.82 178.9,-76.89"/>
<polygon fill="#63b8ff" stroke="#63b8ff" points="179.52,-73.43 168.94,-74.08 177.62,-80.16 179.52,-73.43"/>
</a>
</g>
</g>
<!-- Node9 -->
<g id="Node000009" class="node">
<title>Node9</title>
<g id="a_Node000009"><a xlink:title=" ">
<polygon fill="#e0e0e0" stroke="#999999" points="298.5,-74 204.5,-74 204.5,-55 298.5,-55 298.5,-74"/>
<text text-anchor="middle" x="251.5" y="-62" font-family="Helvetica,sans-Serif" font-size="10.00">hardware/uart.h</text>
</a>
</g>
</g>
<!-- Node3&#45;&gt;Node9 -->
<g id="edge9_Node000003_Node000009" class="edge">
<title>Node3&#45;&gt;Node9</title>
<g id="a_edge9_Node000003_Node000009"><a xlink:title=" ">
<path fill="none" stroke="#63b8ff" d="M314.45,-109.98C303.04,-101.92 285.67,-89.65 272.07,-80.03"/>
<polygon fill="#63b8ff" stroke="#63b8ff" points="273.96,-77.08 263.77,-74.17 269.92,-82.8 273.96,-77.08"/>
</a>
</g>
</g>
<!-- Node6&#45;&gt;Node4 -->
<g id="edge6_Node000006_Node000004" class="edge">
<title>Node6&#45;&gt;Node4</title>
<g id="a_edge6_Node000006_Node000004"><a xlink:title=" ">
<path fill="none" stroke="#63b8ff" d="M395.78,-54.75C400.21,-47.42 406.66,-36.73 412.12,-27.7"/>
<polygon fill="#63b8ff" stroke="#63b8ff" points="415.14,-29.46 417.31,-19.09 409.15,-25.84 415.14,-29.46"/>
</a>
</g>
</g>
<!-- Node7 -->
<g id="Node000007" class="node">
<title>Node7</title>
<g id="a_Node000007"><a xlink:title=" ">
<polygon fill="#e0e0e0" stroke="#999999" points="381,-19 280,-19 280,0 381,0 381,-19"/>
<text text-anchor="middle" x="330.5" y="-7" font-family="Helvetica,sans-Serif" font-size="10.00">hardware/timer.h</text>
</a>
</g>
</g>
<!-- Node6&#45;&gt;Node7 -->
<g id="edge7_Node000006_Node000007" class="edge">
<title>Node6&#45;&gt;Node7</title>
<g id="a_edge7_Node000006_Node000007"><a xlink:title=" ">
<path fill="none" stroke="#63b8ff" d="M380.86,-54.98C371.99,-47.15 358.63,-35.34 347.89,-25.86"/>
<polygon fill="#63b8ff" stroke="#63b8ff" points="350.13,-23.17 340.32,-19.17 345.49,-28.41 350.13,-23.17"/>
</a>
</g>
</g>
<!-- Node10&#45;&gt;Node4 -->
<g id="edge11_Node000010_Node000004" class="edge">
<title>Node10&#45;&gt;Node4</title>
<g id="a_edge11_Node000010_Node000004"><a xlink:title=" ">
<path fill="none" stroke="#63b8ff" d="M440.14,-109.81C439.54,-97.52 438.01,-74.4 434.5,-55 432.93,-46.34 430.5,-36.9 428.23,-28.96"/>
<polygon fill="#63b8ff" stroke="#63b8ff" points="431.55,-27.85 425.34,-19.27 424.84,-29.85 431.55,-27.85"/>
</a>
</g>
</g>
<!-- Node10&#45;&gt;Node6 -->
<g id="edge12_Node000010_Node000006" class="edge">
<title>Node10&#45;&gt;Node6</title>
<g id="a_edge12_Node000010_Node000006"><a xlink:title=" ">
<path fill="none" stroke="#63b8ff" d="M432.24,-109.75C425.04,-102.11 414.39,-90.82 405.65,-81.56"/>
<polygon fill="#63b8ff" stroke="#63b8ff" points="408.01,-78.96 398.6,-74.09 402.92,-83.76 408.01,-78.96"/>
</a>
</g>
</g>
<!-- Node11 -->
<g id="Node000011" class="node">
<title>Node11</title>
<g id="a_Node000011"><a xlink:title=" ">
<polygon fill="#e0e0e0" stroke="#999999" points="746,-74 621,-74 621,-55 746,-55 746,-74"/>
<text text-anchor="middle" x="683.5" y="-62" font-family="Helvetica,sans-Serif" font-size="10.00">hardware/structs/i2c.h</text>
</a>
</g>
</g>
<!-- Node10&#45;&gt;Node11 -->
<g id="edge13_Node000010_Node000011" class="edge">
<title>Node10&#45;&gt;Node11</title>
<g id="a_edge13_Node000010_Node000011"><a xlink:title=" ">
<path fill="none" stroke="#63b8ff" d="M479.54,-109.98C521.58,-100.82 588.54,-86.21 634.18,-76.26"/>
<polygon fill="#63b8ff" stroke="#63b8ff" points="635.13,-79.63 644.15,-74.08 633.64,-72.79 635.13,-79.63"/>
</a>
</g>
</g>
<!-- Node12 -->
<g id="Node000012" class="node">
<title>Node12</title>
<g id="a_Node000012"><a xlink:title=" ">
<polygon fill="#e0e0e0" stroke="#999999" points="602.5,-74 482.5,-74 482.5,-55 602.5,-55 602.5,-74"/>
<text text-anchor="middle" x="542.5" y="-62" font-family="Helvetica,sans-Serif" font-size="10.00">hardware/regs/dreq.h</text>
</a>
</g>
</g>
<!-- Node10&#45;&gt;Node12 -->
<g id="edge14_Node000010_Node000012" class="edge">
<title>Node10&#45;&gt;Node12</title>
<g id="a_edge14_Node000010_Node000012"><a xlink:title=" ">
<path fill="none" stroke="#63b8ff" d="M456.89,-109.98C473.07,-101.57 498.07,-88.59 516.88,-78.81"/>
<polygon fill="#63b8ff" stroke="#63b8ff" points="518.55,-81.89 525.81,-74.17 515.33,-75.68 518.55,-81.89"/>
</a>
</g>
</g>
<!-- Node14 -->
<g id="Node000014" class="node">
<title>Node14</title>
<g id="a_Node000014"><a xlink:title=" ">
<polygon fill="#e0e0e0" stroke="#999999" points="674.5,-129 612.5,-129 612.5,-110 674.5,-110 674.5,-129"/>
<text text-anchor="middle" x="643.5" y="-117" font-family="Helvetica,sans-Serif" font-size="10.00">stdbool.h</text>
</a>
</g>
</g>
<!-- Node13&#45;&gt;Node14 -->
<g id="edge16_Node000013_Node000014" class="edge">
<title>Node13&#45;&gt;Node14</title>
<g id="a_edge16_Node000013_Node000014"><a xlink:title=" ">
<path fill="none" stroke="#63b8ff" d="M522.59,-274.91C535.7,-266.58 555.43,-253.15 570.5,-239 593.53,-217.38 598.98,-210.92 615.5,-184 624.36,-169.56 631.94,-151.82 636.97,-138.77"/>
<polygon fill="#63b8ff" stroke="#63b8ff" points="640.36,-139.67 640.56,-129.08 633.8,-137.24 640.36,-139.67"/>
</a>
</g>
</g>
<!-- Node15 -->
<g id="Node000015" class="node">
<title>Node15</title>
<g id="a_Node000015"><a xlink:title=" ">
<polygon fill="#e0e0e0" stroke="#999999" points="480,-184 427,-184 427,-165 480,-165 480,-184"/>
<text text-anchor="middle" x="453.5" y="-172" font-family="Helvetica,sans-Serif" font-size="10.00">stdint.h</text>
</a>
</g>
</g>
<!-- Node13&#45;&gt;Node15 -->
<g id="edge17_Node000013_Node000015" class="edge">
<title>Node13&#45;&gt;Node15</title>
<g id="a_edge17_Node000013_Node000015"><a xlink:title=" ">
<path fill="none" stroke="#63b8ff" d="M504,-274.66C494.97,-256.93 474.5,-216.73 462.57,-193.32"/>
<polygon fill="#63b8ff" stroke="#63b8ff" points="465.57,-191.48 457.91,-184.16 459.33,-194.66 465.57,-191.48"/>
</a>
</g>
</g>
<!-- Node16 -->
<g id="Node000016" class="node">
<title>Node16</title>
<g id="a_Node000016"><a xlink:href="ssd1306_8h.html" target="_top" xlink:title=" ">
<polygon fill="white" stroke="#666666" points="561.5,-239 495.5,-239 495.5,-220 561.5,-220 561.5,-239"/>
<text text-anchor="middle" x="528.5" y="-227" font-family="Helvetica,sans-Serif" font-size="10.00">ssd1306.h</text>
</a>
</g>
</g>
<!-- Node13&#45;&gt;Node16 -->
<g id="edge18_Node000013_Node000016" class="edge">
<title>Node13&#45;&gt;Node16</title>
<g id="a_edge18_Node000013_Node000016"><a xlink:title=" ">
<path fill="none" stroke="#63b8ff" d="M511.8,-274.75C514.48,-267.65 518.35,-257.4 521.69,-248.56"/>
<polygon fill="#63b8ff" stroke="#63b8ff" points="525,-249.68 525.26,-239.09 518.45,-247.21 525,-249.68"/>
</a>
</g>
</g>
<!-- Node16&#45;&gt;Node14 -->
<g id="edge20_Node000016_Node000014" class="edge">
<title>Node16&#45;&gt;Node14</title>
<g id="a_edge20_Node000016_Node000014"><a xlink:title=" ">
<path fill="none" stroke="#63b8ff" d="M543.64,-219.95C557.46,-211.74 578.02,-198.48 593.5,-184 608.49,-169.98 622.67,-151.26 632.07,-137.78"/>
<polygon fill="#63b8ff" stroke="#63b8ff" points="635.04,-139.64 637.77,-129.4 629.25,-135.7 635.04,-139.64"/>
</a>
</g>
</g>
<!-- Node16&#45;&gt;Node15 -->
<g id="edge19_Node000016_Node000015" class="edge">
<title>Node16&#45;&gt;Node15</title>
<g id="a_edge19_Node000016_Node000015"><a xlink:title=" ">
<path fill="none" stroke="#63b8ff" d="M516.45,-219.98C505.04,-211.92 487.67,-199.65 474.07,-190.03"/>
<polygon fill="#63b8ff" stroke="#63b8ff" points="475.96,-187.08 465.77,-184.17 471.92,-192.8 475.96,-187.08"/>
</a>
</g>
</g>
<!-- Node17 -->
<g id="Node000017" class="node">
<title>Node17</title>
<g id="a_Node000017"><a xlink:href="ssd1306__i2c_8h.html" target="_top" xlink:title=" ">
<polygon fill="white" stroke="#666666" points="584.5,-184 498.5,-184 498.5,-165 584.5,-165 584.5,-184"/>
<text text-anchor="middle" x="541.5" y="-172" font-family="Helvetica,sans-Serif" font-size="10.00">ssd1306_i2c.h</text>
</a>
</g>
</g>
<!-- Node16&#45;&gt;Node17 -->
<g id="edge21_Node000016_Node000017" class="edge">
<title>Node16&#45;&gt;Node17</title>
<g id="a_edge21_Node000016_Node000017"><a xlink:title=" ">
<path fill="none" stroke="#63b8ff" d="M530.65,-219.75C532.37,-212.72 534.85,-202.62 537,-193.84"/>
<polygon fill="#63b8ff" stroke="#63b8ff" points="540.41,-194.63 539.39,-184.09 533.61,-192.97 540.41,-194.63"/>
</a>
</g>
</g>
<!-- Node17&#45;&gt;Node3 -->
<g id="edge22_Node000017_Node000003" class="edge">
<title>Node17&#45;&gt;Node3</title>
<g id="a_edge22_Node000017_Node000003"><a xlink:title=" ">
<path fill="none" stroke="#63b8ff" d="M506.96,-164.98C470.08,-155.89 411.51,-141.46 371.16,-131.51"/>
<polygon fill="#63b8ff" stroke="#63b8ff" points="371.86,-128.08 361.31,-129.08 370.19,-134.87 371.86,-128.08"/>
</a>
</g>
</g>
<!-- Node17&#45;&gt;Node10 -->
<g id="edge25_Node000017_Node000010" class="edge">
<title>Node17&#45;&gt;Node10</title>
<g id="a_edge25_Node000017_Node000010"><a xlink:title=" ">
<path fill="none" stroke="#63b8ff" d="M525.27,-164.98C509.32,-156.61 484.72,-143.7 466.12,-133.95"/>
<polygon fill="#63b8ff" stroke="#63b8ff" points="467.5,-130.72 457.02,-129.17 464.25,-136.92 467.5,-130.72"/>
</a>
</g>
</g>
<!-- Node17&#45;&gt;Node14 -->
<g id="edge23_Node000017_Node000014" class="edge">
<title>Node17&#45;&gt;Node14</title>
<g id="a_edge23_Node000017_Node000014"><a xlink:title=" ">
<path fill="none" stroke="#63b8ff" d="M557.89,-164.98C574.07,-156.57 599.07,-143.59 617.88,-133.81"/>
<polygon fill="#63b8ff" stroke="#63b8ff" points="619.55,-136.89 626.81,-129.17 616.33,-130.68 619.55,-136.89"/>
</a>
</g>
</g>
<!-- Node18 -->
<g id="Node000018" class="node">
<title>Node18</title>
<g id="a_Node000018"><a xlink:title=" ">
<polygon fill="#e0e0e0" stroke="#999999" points="594,-129 503,-129 503,-110 594,-110 594,-129"/>
<text text-anchor="middle" x="548.5" y="-117" font-family="Helvetica,sans-Serif" font-size="10.00">pico/platform.h</text>
</a>
</g>
</g>
<!-- Node17&#45;&gt;Node18 -->
<g id="edge24_Node000017_Node000018" class="edge">
<title>Node17&#45;&gt;Node18</title>
<g id="a_edge24_Node000017_Node000018"><a xlink:title=" ">
<path fill="none" stroke="#63b8ff" d="M542.66,-164.75C543.57,-157.8 544.89,-147.85 546.04,-139.13"/>
<polygon fill="#63b8ff" stroke="#63b8ff" points="549.53,-139.46 547.37,-129.09 542.59,-138.54 549.53,-139.46"/>
</a>
</g>
</g>
</g>
</svg>
