<?xml version="1.0" encoding="UTF-8" standalone="no"?>
<!DOCTYPE svg PUBLIC "-//W3C//DTD SVG 1.1//EN"
 "http://www.w3.org/Graphics/SVG/1.1/DTD/svg11.dtd">
<!-- Generated by graphviz version 2.43.0 (0)
 -->
<!-- Title: main.cpp Pages: 1 -->
<svg width="981pt" height="302pt"
 viewBox="0.00 0.00 980.72 302.00" xmlns="http://www.w3.org/2000/svg" xmlns:xlink="http://www.w3.org/1999/xlink">
<g id="graph0" class="graph" transform="scale(1 1) rotate(0) translate(4 298)">
<title>main.cpp</title>
<!-- Node1 -->
<g id="Node000001" class="node">
<title>Node1</title>
<g id="a_Node000001"><a xlink:title=" ">
<polygon fill="#999999" stroke="#666666" points="913.72,-294 851.72,-294 851.72,-275 913.72,-275 913.72,-294"/>
<text text-anchor="middle" x="882.72" y="-282" font-family="Helvetica,sans-Serif" font-size="10.00">main.cpp</text>
</a>
</g>
</g>
<!-- Node2 -->
<g id="Node000002" class="node">
<title>Node2</title>
<g id="a_Node000002"><a xlink:title=" ">
<polygon fill="#e0e0e0" stroke="#999999" points="874.72,-19 814.72,-19 814.72,0 874.72,0 874.72,-19"/>
<text text-anchor="middle" x="844.72" y="-7" font-family="Helvetica,sans-Serif" font-size="10.00">iostream</text>
</a>
</g>
</g>
<!-- Node1&#45;&gt;Node2 -->
<g id="edge1_Node000001_Node000002" class="edge">
<title>Node1&#45;&gt;Node2</title>
<g id="a_edge1_Node000001_Node000002"><a xlink:title=" ">
<path fill="none" stroke="#63b8ff" d="M882.72,-274.82C882.72,-256.48 882.72,-212.44 882.72,-175.5 882.72,-175.5 882.72,-175.5 882.72,-118.5 882.72,-85.02 866.27,-48.84 855.02,-28.01"/>
<polygon fill="#63b8ff" stroke="#63b8ff" points="857.96,-26.1 850,-19.1 851.85,-29.53 857.96,-26.1"/>
</a>
</g>
</g>
<!-- Node3 -->
<g id="Node000003" class="node">
<title>Node3</title>
<g id="a_Node000003"><a xlink:href="pio__assembler_8h.html" target="_top" xlink:title=" ">
<polygon fill="white" stroke="#666666" points="572.22,-239 475.22,-239 475.22,-220 572.22,-220 572.22,-239"/>
<text text-anchor="middle" x="523.72" y="-227" font-family="Helvetica,sans-Serif" font-size="10.00">pio_assembler.h</text>
</a>
</g>
</g>
<!-- Node1&#45;&gt;Node3 -->
<g id="edge2_Node000001_Node000003" class="edge">
<title>Node1&#45;&gt;Node3</title>
<g id="a_edge2_Node000001_Node000003"><a xlink:title=" ">
<path fill="none" stroke="#63b8ff" d="M851.49,-278.89C791.49,-270.03 659.26,-250.51 582.34,-239.15"/>
<polygon fill="#63b8ff" stroke="#63b8ff" points="582.73,-235.67 572.33,-237.68 581.71,-242.6 582.73,-235.67"/>
</a>
</g>
</g>
<!-- Node22 -->
<g id="Node000022" class="node">
<title>Node22</title>
<g id="a_Node000022"><a xlink:href="version_8h.html" target="_top" xlink:title=" ">
<polygon fill="white" stroke="#666666" points="972.72,-239 910.72,-239 910.72,-220 972.72,-220 972.72,-239"/>
<text text-anchor="middle" x="941.72" y="-227" font-family="Helvetica,sans-Serif" font-size="10.00">version.h</text>
</a>
</g>
</g>
<!-- Node1&#45;&gt;Node22 -->
<g id="edge33_Node000001_Node000022" class="edge">
<title>Node1&#45;&gt;Node22</title>
<g id="a_edge33_Node000001_Node000022"><a xlink:title=" ">
<path fill="none" stroke="#63b8ff" d="M892.2,-274.98C900.92,-267.15 914.06,-255.34 924.62,-245.86"/>
<polygon fill="#63b8ff" stroke="#63b8ff" points="926.97,-248.46 932.07,-239.17 922.29,-243.25 926.97,-248.46"/>
</a>
</g>
</g>
<!-- Node4 -->
<g id="Node000004" class="node">
<title>Node4</title>
<g id="a_Node000004"><a xlink:title=" ">
<polygon fill="#e0e0e0" stroke="#999999" points="513.72,-184 449.72,-184 449.72,-165 513.72,-165 513.72,-184"/>
<text text-anchor="middle" x="481.72" y="-172" font-family="Helvetica,sans-Serif" font-size="10.00">algorithm</text>
</a>
</g>
</g>
<!-- Node3&#45;&gt;Node4 -->
<g id="edge3_Node000003_Node000004" class="edge">
<title>Node3&#45;&gt;Node4</title>
<g id="a_edge3_Node000003_Node000004"><a xlink:title=" ">
<path fill="none" stroke="#63b8ff" d="M516.78,-219.75C510.85,-212.26 502.15,-201.28 494.9,-192.13"/>
<polygon fill="#63b8ff" stroke="#63b8ff" points="497.48,-189.75 488.53,-184.09 491.99,-194.1 497.48,-189.75"/>
</a>
</g>
</g>
<!-- Node5 -->
<g id="Node000005" class="node">
<title>Node5</title>
<g id="a_Node000005"><a xlink:href="parser_8hpp.html" target="_top" xlink:title="Define the yy::parser class.">
<polygon fill="white" stroke="#666666" points="599.72,-184 531.72,-184 531.72,-165 599.72,-165 599.72,-184"/>
<text text-anchor="middle" x="565.72" y="-172" font-family="Helvetica,sans-Serif" font-size="10.00">parser.hpp</text>
</a>
</g>
</g>
<!-- Node3&#45;&gt;Node5 -->
<g id="edge4_Node000003_Node000005" class="edge">
<title>Node3&#45;&gt;Node5</title>
<g id="a_edge4_Node000003_Node000005"><a xlink:title=" ">
<path fill="none" stroke="#63b8ff" d="M530.66,-219.75C536.59,-212.26 545.29,-201.28 552.54,-192.13"/>
<polygon fill="#63b8ff" stroke="#63b8ff" points="555.45,-194.1 558.91,-184.09 549.96,-189.75 555.45,-194.1"/>
</a>
</g>
</g>
<!-- Node21 -->
<g id="Node000021" class="node">
<title>Node21</title>
<g id="a_Node000021"><a xlink:href="output__format_8h.html" target="_top" xlink:title=" ">
<polygon fill="white" stroke="#666666" points="254.22,-129 159.22,-129 159.22,-110 254.22,-110 254.22,-129"/>
<text text-anchor="middle" x="206.72" y="-117" font-family="Helvetica,sans-Serif" font-size="10.00">output_format.h</text>
</a>
</g>
</g>
<!-- Node3&#45;&gt;Node21 -->
<g id="edge26_Node000003_Node000021" class="edge">
<title>Node3&#45;&gt;Node21</title>
<g id="a_edge26_Node000003_Node000021"><a xlink:title=" ">
<path fill="none" stroke="#63b8ff" d="M498.58,-219.94C442.28,-200.76 305.99,-154.32 241.56,-132.37"/>
<polygon fill="#63b8ff" stroke="#63b8ff" points="242.46,-128.98 231.86,-129.07 240.2,-135.6 242.46,-128.98"/>
</a>
</g>
</g>
<!-- Node5&#45;&gt;Node2 -->
<g id="edge21_Node000005_Node000002" class="edge">
<title>Node5&#45;&gt;Node2</title>
<g id="a_edge21_Node000005_Node000002"><a xlink:title=" ">
<path fill="none" stroke="#63b8ff" d="M599.91,-171.28C658.24,-166.83 773.63,-154.93 803.72,-129 833.17,-103.62 841.48,-55.99 843.82,-29.5"/>
<polygon fill="#63b8ff" stroke="#63b8ff" points="847.33,-29.48 844.51,-19.27 840.34,-29.01 847.33,-29.48"/>
</a>
</g>
</g>
<!-- Node6 -->
<g id="Node000006" class="node">
<title>Node6</title>
<g id="a_Node000006"><a xlink:title=" ">
<polygon fill="#e0e0e0" stroke="#999999" points="489.72,-19 445.72,-19 445.72,0 489.72,0 489.72,-19"/>
<text text-anchor="middle" x="467.72" y="-7" font-family="Helvetica,sans-Serif" font-size="10.00">string</text>
</a>
</g>
</g>
<!-- Node5&#45;&gt;Node6 -->
<g id="edge5_Node000005_Node000006" class="edge">
<title>Node5&#45;&gt;Node6</title>
<g id="a_edge5_Node000005_Node000006"><a xlink:title=" ">
<path fill="none" stroke="#63b8ff" d="M531.43,-165.32C490.45,-155.2 426.52,-138.18 419.72,-129 414.69,-122.21 414.81,-116.87 419.72,-110 448.39,-69.86 496.05,-114.14 524.72,-74 537.92,-55.52 514.87,-36.4 494.25,-24.03"/>
<polygon fill="#63b8ff" stroke="#63b8ff" points="495.81,-20.89 485.38,-19.01 492.36,-26.99 495.81,-20.89"/>
</a>
</g>
</g>
<!-- Node7 -->
<g id="Node000007" class="node">
<title>Node7</title>
<g id="a_Node000007"><a xlink:title=" ">
<polygon fill="#e0e0e0" stroke="#999999" points="483.22,-129 428.22,-129 428.22,-110 483.22,-110 483.22,-129"/>
<text text-anchor="middle" x="455.72" y="-117" font-family="Helvetica,sans-Serif" font-size="10.00">fstream</text>
</a>
</g>
</g>
<!-- Node5&#45;&gt;Node7 -->
<g id="edge6_Node000005_Node000007" class="edge">
<title>Node5&#45;&gt;Node7</title>
<g id="a_edge6_Node000005_Node000007"><a xlink:title=" ">
<path fill="none" stroke="#63b8ff" d="M548.05,-164.98C530.43,-156.5 503.14,-143.35 482.79,-133.54"/>
<polygon fill="#63b8ff" stroke="#63b8ff" points="484.24,-130.36 473.72,-129.17 481.2,-136.66 484.24,-130.36"/>
</a>
</g>
</g>
<!-- Node8 -->
<g id="Node000008" class="node">
<title>Node8</title>
<g id="a_Node000008"><a xlink:title=" ">
<polygon fill="#e0e0e0" stroke="#999999" points="557.72,-129 501.72,-129 501.72,-110 557.72,-110 557.72,-129"/>
<text text-anchor="middle" x="529.72" y="-117" font-family="Helvetica,sans-Serif" font-size="10.00">sstream</text>
</a>
</g>
</g>
<!-- Node5&#45;&gt;Node8 -->
<g id="edge7_Node000005_Node000008" class="edge">
<title>Node5&#45;&gt;Node8</title>
<g id="a_edge7_Node000005_Node000008"><a xlink:title=" ">
<path fill="none" stroke="#63b8ff" d="M559.78,-164.75C554.74,-157.34 547.38,-146.5 541.21,-137.41"/>
<polygon fill="#63b8ff" stroke="#63b8ff" points="544.07,-135.39 535.55,-129.09 538.28,-139.33 544.07,-135.39"/>
</a>
</g>
</g>
<!-- Node9 -->
<g id="Node000009" class="node">
<title>Node9</title>
<g id="a_Node000009"><a xlink:href="pio__types_8h.html" target="_top" xlink:title=" ">
<polygon fill="white" stroke="#666666" points="371.22,-129 298.22,-129 298.22,-110 371.22,-110 371.22,-129"/>
<text text-anchor="middle" x="334.72" y="-117" font-family="Helvetica,sans-Serif" font-size="10.00">pio_types.h</text>
</a>
</g>
</g>
<!-- Node5&#45;&gt;Node9 -->
<g id="edge8_Node000005_Node000009" class="edge">
<title>Node5&#45;&gt;Node9</title>
<g id="a_edge8_Node000005_Node000009"><a xlink:title=" ">
<path fill="none" stroke="#63b8ff" d="M531.64,-165.68C491.82,-156.54 425.73,-141.38 381.22,-131.17"/>
<polygon fill="#63b8ff" stroke="#63b8ff" points="381.76,-127.7 371.24,-128.88 380.2,-134.53 381.76,-127.7"/>
</a>
</g>
</g>
<!-- Node14 -->
<g id="Node000014" class="node">
<title>Node14</title>
<g id="a_Node000014"><a xlink:title=" ">
<polygon fill="#e0e0e0" stroke="#999999" points="66.22,-74 19.22,-74 19.22,-55 66.22,-55 66.22,-74"/>
<text text-anchor="middle" x="42.72" y="-62" font-family="Helvetica,sans-Serif" font-size="10.00">vector</text>
</a>
</g>
</g>
<!-- Node5&#45;&gt;Node14 -->
<g id="edge23_Node000005_Node000014" class="edge">
<title>Node5&#45;&gt;Node14</title>
<g id="a_edge23_Node000005_Node000014"><a xlink:title=" ">
<path fill="none" stroke="#63b8ff" d="M531.51,-166.42C528.54,-165.9 525.58,-165.42 522.72,-165 358.38,-140.86 308.7,-180.3 150.72,-129 117.02,-118.06 82.48,-95.33 61.81,-80.25"/>
<polygon fill="#63b8ff" stroke="#63b8ff" points="63.71,-77.29 53.6,-74.11 59.52,-82.9 63.71,-77.29"/>
</a>
</g>
</g>
<!-- Node16 -->
<g id="Node000016" class="node">
<title>Node16</title>
<g id="a_Node000016"><a xlink:href="location_8h.html" target="_top" xlink:title="Define the yy::location class.">
<polygon fill="white" stroke="#666666" points="727.22,-74 662.22,-74 662.22,-55 727.22,-55 727.22,-74"/>
<text text-anchor="middle" x="694.72" y="-62" font-family="Helvetica,sans-Serif" font-size="10.00">location.h</text>
</a>
</g>
</g>
<!-- Node5&#45;&gt;Node16 -->
<g id="edge24_Node000005_Node000016" class="edge">
<title>Node5&#45;&gt;Node16</title>
<g id="a_edge24_Node000005_Node000016"><a xlink:title=" ">
<path fill="none" stroke="#63b8ff" d="M599.88,-171.77C656.13,-168.13 764.36,-157.5 787.72,-129 806.59,-105.98 770.12,-87.88 737.46,-76.99"/>
<polygon fill="#63b8ff" stroke="#63b8ff" points="738.1,-73.52 727.51,-73.85 735.99,-80.2 738.1,-73.52"/>
</a>
</g>
</g>
<!-- Node18 -->
<g id="Node000018" class="node">
<title>Node18</title>
<g id="a_Node000018"><a xlink:title=" ">
<polygon fill="#e0e0e0" stroke="#999999" points="625.22,-129 576.22,-129 576.22,-110 625.22,-110 625.22,-129"/>
<text text-anchor="middle" x="600.72" y="-117" font-family="Helvetica,sans-Serif" font-size="10.00">cstdlib</text>
</a>
</g>
</g>
<!-- Node5&#45;&gt;Node18 -->
<g id="edge20_Node000005_Node000018" class="edge">
<title>Node5&#45;&gt;Node18</title>
<g id="a_edge20_Node000005_Node000018"><a xlink:title=" ">
<path fill="none" stroke="#63b8ff" d="M571.5,-164.75C576.34,-157.42 583.4,-146.73 589.36,-137.7"/>
<polygon fill="#63b8ff" stroke="#63b8ff" points="592.46,-139.36 595.05,-129.09 586.62,-135.5 592.46,-139.36"/>
</a>
</g>
</g>
<!-- Node19 -->
<g id="Node000019" class="node">
<title>Node19</title>
<g id="a_Node000019"><a xlink:title=" ">
<polygon fill="#e0e0e0" stroke="#999999" points="708.22,-129 643.22,-129 643.22,-110 708.22,-110 708.22,-129"/>
<text text-anchor="middle" x="675.72" y="-117" font-family="Helvetica,sans-Serif" font-size="10.00">stdexcept</text>
</a>
</g>
</g>
<!-- Node5&#45;&gt;Node19 -->
<g id="edge22_Node000005_Node000019" class="edge">
<title>Node5&#45;&gt;Node19</title>
<g id="a_edge22_Node000005_Node000019"><a xlink:title=" ">
<path fill="none" stroke="#63b8ff" d="M583.39,-164.98C601.01,-156.5 628.3,-143.35 648.65,-133.54"/>
<polygon fill="#63b8ff" stroke="#63b8ff" points="650.24,-136.66 657.73,-129.17 647.2,-130.36 650.24,-136.66"/>
</a>
</g>
</g>
<!-- Node20 -->
<g id="Node000020" class="node">
<title>Node20</title>
<g id="a_Node000020"><a xlink:title=" ">
<polygon fill="#e0e0e0" stroke="#999999" points="778.72,-129 726.72,-129 726.72,-110 778.72,-110 778.72,-129"/>
<text text-anchor="middle" x="752.72" y="-117" font-family="Helvetica,sans-Serif" font-size="10.00">cassert</text>
</a>
</g>
</g>
<!-- Node5&#45;&gt;Node20 -->
<g id="edge25_Node000005_Node000020" class="edge">
<title>Node5&#45;&gt;Node20</title>
<g id="a_edge25_Node000005_Node000020"><a xlink:title=" ">
<path fill="none" stroke="#63b8ff" d="M595.77,-164.98C628.75,-155.64 681.68,-140.64 716.82,-130.67"/>
<polygon fill="#63b8ff" stroke="#63b8ff" points="718,-133.98 726.67,-127.88 716.1,-127.24 718,-133.98"/>
</a>
</g>
</g>
<!-- Node9&#45;&gt;Node6 -->
<g id="edge10_Node000009_Node000006" class="edge">
<title>Node9&#45;&gt;Node6</title>
<g id="a_edge10_Node000009_Node000006"><a xlink:title=" ">
<path fill="none" stroke="#63b8ff" d="M345.13,-109.81C359.89,-97.53 387.75,-74.41 411.72,-55 423.91,-45.14 437.69,-34.18 448.54,-25.6"/>
<polygon fill="#63b8ff" stroke="#63b8ff" points="450.84,-28.25 456.52,-19.31 446.5,-22.75 450.84,-28.25"/>
</a>
</g>
</g>
<!-- Node10 -->
<g id="Node000010" class="node">
<title>Node10</title>
<g id="a_Node000010"><a xlink:title=" ">
<polygon fill="#e0e0e0" stroke="#999999" points="231.72,-74 181.72,-74 181.72,-55 231.72,-55 231.72,-74"/>
<text text-anchor="middle" x="206.72" y="-62" font-family="Helvetica,sans-Serif" font-size="10.00">cstdint</text>
</a>
</g>
</g>
<!-- Node9&#45;&gt;Node10 -->
<g id="edge9_Node000009_Node000010" class="edge">
<title>Node9&#45;&gt;Node10</title>
<g id="a_edge9_Node000009_Node000010"><a xlink:title=" ">
<path fill="none" stroke="#63b8ff" d="M314.15,-109.98C293.29,-101.34 260.75,-87.87 236.95,-78.02"/>
<polygon fill="#63b8ff" stroke="#63b8ff" points="238.24,-74.76 227.66,-74.17 235.56,-81.23 238.24,-74.76"/>
</a>
</g>
</g>
<!-- Node11 -->
<g id="Node000011" class="node">
<title>Node11</title>
<g id="a_Node000011"><a xlink:title=" ">
<polygon fill="#e0e0e0" stroke="#999999" points="287.72,-74 249.72,-74 249.72,-55 287.72,-55 287.72,-74"/>
<text text-anchor="middle" x="268.72" y="-62" font-family="Helvetica,sans-Serif" font-size="10.00">map</text>
</a>
</g>
</g>
<!-- Node9&#45;&gt;Node11 -->
<g id="edge11_Node000009_Node000011" class="edge">
<title>Node9&#45;&gt;Node11</title>
<g id="a_edge11_Node000009_Node000011"><a xlink:title=" ">
<path fill="none" stroke="#63b8ff" d="M324.12,-109.98C314.26,-102.07 299.37,-90.11 287.51,-80.58"/>
<polygon fill="#63b8ff" stroke="#63b8ff" points="289.51,-77.7 279.52,-74.17 285.12,-83.16 289.51,-77.7"/>
</a>
</g>
</g>
<!-- Node12 -->
<g id="Node000012" class="node">
<title>Node12</title>
<g id="a_Node000012"><a xlink:title=" ">
<polygon fill="#e0e0e0" stroke="#999999" points="515.72,-74 483.72,-74 483.72,-55 515.72,-55 515.72,-74"/>
<text text-anchor="middle" x="499.72" y="-62" font-family="Helvetica,sans-Serif" font-size="10.00">set</text>
</a>
</g>
</g>
<!-- Node9&#45;&gt;Node12 -->
<g id="edge12_Node000009_Node000012" class="edge">
<title>Node9&#45;&gt;Node12</title>
<g id="a_edge12_Node000009_Node000012"><a xlink:title=" ">
<path fill="none" stroke="#63b8ff" d="M362.14,-109.96C388.52,-101.71 429.77,-88.7 474.1,-74.16"/>
<polygon fill="#63b8ff" stroke="#63b8ff" points="475.19,-77.48 483.6,-71.03 473.01,-70.83 475.19,-77.48"/>
</a>
</g>
</g>
<!-- Node13 -->
<g id="Node000013" class="node">
<title>Node13</title>
<g id="a_Node000013"><a xlink:title=" ">
<polygon fill="#e0e0e0" stroke="#999999" points="465.22,-74 420.22,-74 420.22,-55 465.22,-55 465.22,-74"/>
<text text-anchor="middle" x="442.72" y="-62" font-family="Helvetica,sans-Serif" font-size="10.00">utility</text>
</a>
</g>
</g>
<!-- Node9&#45;&gt;Node13 -->
<g id="edge13_Node000009_Node000013" class="edge">
<title>Node9&#45;&gt;Node13</title>
<g id="a_edge13_Node000009_Node000013"><a xlink:title=" ">
<path fill="none" stroke="#63b8ff" d="M352.07,-109.98C369.29,-101.54 395.92,-88.47 415.87,-78.68"/>
<polygon fill="#63b8ff" stroke="#63b8ff" points="417.62,-81.72 425.05,-74.17 414.53,-75.43 417.62,-81.72"/>
</a>
</g>
</g>
<!-- Node9&#45;&gt;Node14 -->
<g id="edge14_Node000009_Node000014" class="edge">
<title>Node9&#45;&gt;Node14</title>
<g id="a_edge14_Node000009_Node000014"><a xlink:title=" ">
<path fill="none" stroke="#63b8ff" d="M298.08,-113.17C249.61,-105.91 161.32,-91.96 76.27,-73.96"/>
<polygon fill="#63b8ff" stroke="#63b8ff" points="76.97,-70.53 66.46,-71.86 75.51,-77.38 76.97,-70.53"/>
</a>
</g>
</g>
<!-- Node15 -->
<g id="Node000015" class="node">
<title>Node15</title>
<g id="a_Node000015"><a xlink:title=" ">
<polygon fill="#e0e0e0" stroke="#999999" points="363.72,-74 305.72,-74 305.72,-55 363.72,-55 363.72,-74"/>
<text text-anchor="middle" x="334.72" y="-62" font-family="Helvetica,sans-Serif" font-size="10.00">memory</text>
</a>
</g>
</g>
<!-- Node9&#45;&gt;Node15 -->
<g id="edge15_Node000009_Node000015" class="edge">
<title>Node9&#45;&gt;Node15</title>
<g id="a_edge15_Node000009_Node000015"><a xlink:title=" ">
<path fill="none" stroke="#63b8ff" d="M334.72,-109.75C334.72,-102.8 334.72,-92.85 334.72,-84.13"/>
<polygon fill="#63b8ff" stroke="#63b8ff" points="338.22,-84.09 334.72,-74.09 331.22,-84.09 338.22,-84.09"/>
</a>
</g>
</g>
<!-- Node9&#45;&gt;Node16 -->
<g id="edge16_Node000009_Node000016" class="edge">
<title>Node9&#45;&gt;Node16</title>
<g id="a_edge16_Node000009_Node000016"><a xlink:title=" ">
<path fill="none" stroke="#63b8ff" d="M371.55,-113.08C438.77,-103.18 580.92,-82.25 652.15,-71.77"/>
<polygon fill="#63b8ff" stroke="#63b8ff" points="652.75,-75.22 662.13,-70.3 651.73,-68.29 652.75,-75.22"/>
</a>
</g>
</g>
<!-- Node17 -->
<g id="Node000017" class="node">
<title>Node17</title>
<g id="a_Node000017"><a xlink:href="pio__enums_8h.html" target="_top" xlink:title=" ">
<polygon fill="white" stroke="#666666" points="163.22,-74 84.22,-74 84.22,-55 163.22,-55 163.22,-74"/>
<text text-anchor="middle" x="123.72" y="-62" font-family="Helvetica,sans-Serif" font-size="10.00">pio_enums.h</text>
</a>
</g>
</g>
<!-- Node9&#45;&gt;Node17 -->
<g id="edge19_Node000009_Node000017" class="edge">
<title>Node9&#45;&gt;Node17</title>
<g id="a_edge19_Node000009_Node000017"><a xlink:title=" ">
<path fill="none" stroke="#63b8ff" d="M300.82,-109.98C264.7,-100.91 207.4,-86.52 167.8,-76.57"/>
<polygon fill="#63b8ff" stroke="#63b8ff" points="168.44,-73.12 157.89,-74.08 166.73,-79.91 168.44,-73.12"/>
</a>
</g>
</g>
<!-- Node16&#45;&gt;Node2 -->
<g id="edge17_Node000016_Node000002" class="edge">
<title>Node16&#45;&gt;Node2</title>
<g id="a_edge17_Node000016_Node000002"><a xlink:title=" ">
<path fill="none" stroke="#63b8ff" d="M718.82,-54.98C743.6,-46.23 782.42,-32.51 810.41,-22.62"/>
<polygon fill="#63b8ff" stroke="#63b8ff" points="811.92,-25.8 820.18,-19.17 809.59,-19.2 811.92,-25.8"/>
</a>
</g>
</g>
<!-- Node16&#45;&gt;Node6 -->
<g id="edge18_Node000016_Node000006" class="edge">
<title>Node16&#45;&gt;Node6</title>
<g id="a_edge18_Node000016_Node000006"><a xlink:title=" ">
<path fill="none" stroke="#63b8ff" d="M662.2,-55.91C618.93,-45.81 542.92,-28.06 499.85,-18"/>
<polygon fill="#63b8ff" stroke="#63b8ff" points="500.44,-14.55 489.91,-15.68 498.85,-21.36 500.44,-14.55"/>
</a>
</g>
</g>
<!-- Node21&#45;&gt;Node6 -->
<g id="edge30_Node000021_Node000006" class="edge">
<title>Node21&#45;&gt;Node6</title>
<g id="a_edge30_Node000021_Node000006"><a xlink:title=" ">
<path fill="none" stroke="#63b8ff" d="M159.07,-117.91C87.49,-115.44 -34.9,-104.16 9.72,-55 38.28,-23.54 335.68,-13.63 435.36,-11.19"/>
<polygon fill="#63b8ff" stroke="#63b8ff" points="435.53,-14.68 445.45,-10.95 435.37,-7.69 435.53,-14.68"/>
</a>
</g>
</g>
<!-- Node21&#45;&gt;Node10 -->
<g id="edge27_Node000021_Node000010" class="edge">
<title>Node21&#45;&gt;Node10</title>
<g id="a_edge27_Node000021_Node000010"><a xlink:title=" ">
<path fill="none" stroke="#63b8ff" d="M206.72,-109.75C206.72,-102.8 206.72,-92.85 206.72,-84.13"/>
<polygon fill="#63b8ff" stroke="#63b8ff" points="210.22,-84.09 206.72,-74.09 203.22,-84.09 210.22,-84.09"/>
</a>
</g>
</g>
<!-- Node21&#45;&gt;Node11 -->
<g id="edge29_Node000021_Node000011" class="edge">
<title>Node21&#45;&gt;Node11</title>
<g id="a_edge29_Node000021_Node000011"><a xlink:title=" ">
<path fill="none" stroke="#63b8ff" d="M216.68,-109.98C225.85,-102.15 239.66,-90.34 250.75,-80.86"/>
<polygon fill="#63b8ff" stroke="#63b8ff" points="253.25,-83.33 258.58,-74.17 248.7,-78.01 253.25,-83.33"/>
</a>
</g>
</g>
<!-- Node21&#45;&gt;Node14 -->
<g id="edge28_Node000021_Node000014" class="edge">
<title>Node21&#45;&gt;Node14</title>
<g id="a_edge28_Node000021_Node000014"><a xlink:title=" ">
<path fill="none" stroke="#63b8ff" d="M180.37,-109.98C152.06,-100.84 107,-86.27 76.2,-76.32"/>
<polygon fill="#63b8ff" stroke="#63b8ff" points="76.93,-72.88 66.34,-73.13 74.78,-79.54 76.93,-72.88"/>
</a>
</g>
</g>
<!-- Node21&#45;&gt;Node15 -->
<g id="edge31_Node000021_Node000015" class="edge">
<title>Node21&#45;&gt;Node15</title>
<g id="a_edge31_Node000021_Node000015"><a xlink:title=" ">
<path fill="none" stroke="#63b8ff" d="M227.29,-109.98C248.16,-101.34 280.69,-87.87 304.49,-78.02"/>
<polygon fill="#63b8ff" stroke="#63b8ff" points="305.88,-81.23 313.78,-74.17 303.2,-74.76 305.88,-81.23"/>
</a>
</g>
</g>
<!-- Node21&#45;&gt;Node17 -->
<g id="edge32_Node000021_Node000017" class="edge">
<title>Node21&#45;&gt;Node17</title>
<g id="a_edge32_Node000021_Node000017"><a xlink:title=" ">
<path fill="none" stroke="#63b8ff" d="M193.38,-109.98C180.63,-101.84 161.17,-89.41 146.05,-79.76"/>
<polygon fill="#63b8ff" stroke="#63b8ff" points="147.61,-76.6 137.3,-74.17 143.84,-82.5 147.61,-76.6"/>
</a>
</g>
</g>
</g>
</svg>
