<?xml version="1.0" encoding="UTF-8" standalone="no"?>
<!DOCTYPE svg PUBLIC "-//W3C//DTD SVG 1.1//EN"
 "http://www.w3.org/Graphics/SVG/1.1/DTD/svg11.dtd">
<!-- Generated by graphviz version 2.43.0 (0)
 -->
<!-- Title: multicore.c Pages: 1 -->
<svg width="1255pt" height="247pt"
 viewBox="0.00 0.00 1255.00 247.00" xmlns="http://www.w3.org/2000/svg" xmlns:xlink="http://www.w3.org/1999/xlink">
<g id="graph0" class="graph" transform="scale(1 1) rotate(0) translate(4 243)">
<title>multicore.c</title>
<!-- Node1 -->
<g id="Node000001" class="node">
<title>Node1</title>
<g id="a_Node000001"><a xlink:title=" ">
<polygon fill="#999999" stroke="#666666" points="483,-239 412,-239 412,-220 483,-220 483,-239"/>
<text text-anchor="middle" x="447.5" y="-227" font-family="Helvetica,sans-Serif" font-size="10.00">multicore.c</text>
</a>
</g>
</g>
<!-- Node2 -->
<g id="Node000002" class="node">
<title>Node2</title>
<g id="a_Node000002"><a xlink:title=" ">
<polygon fill="#e0e0e0" stroke="#999999" points="95,-184 0,-184 0,-165 95,-165 95,-184"/>
<text text-anchor="middle" x="47.5" y="-172" font-family="Helvetica,sans-Serif" font-size="10.00">pico/multicore.h</text>
</a>
</g>
</g>
<!-- Node1&#45;&gt;Node2 -->
<g id="edge1_Node000001_Node000002" class="edge">
<title>Node1&#45;&gt;Node2</title>
<g id="a_edge1_Node000001_Node000002"><a xlink:title=" ">
<path fill="none" stroke="#63b8ff" d="M411.97,-223.89C350.37,-215.87 219.78,-198.82 109.5,-184 108.2,-183.83 106.88,-183.65 105.55,-183.47"/>
<polygon fill="#63b8ff" stroke="#63b8ff" points="105.6,-179.94 95.22,-182.07 104.66,-186.88 105.6,-179.94"/>
</a>
</g>
</g>
<!-- Node3 -->
<g id="Node000003" class="node">
<title>Node3</title>
<g id="a_Node000003"><a xlink:title=" ">
<polygon fill="#e0e0e0" stroke="#999999" points="508,-129 411,-129 411,-110 508,-110 508,-129"/>
<text text-anchor="middle" x="459.5" y="-117" font-family="Helvetica,sans-Serif" font-size="10.00">hardware/sync.h</text>
</a>
</g>
</g>
<!-- Node1&#45;&gt;Node3 -->
<g id="edge2_Node000001_Node000003" class="edge">
<title>Node1&#45;&gt;Node3</title>
<g id="a_edge2_Node000001_Node000003"><a xlink:title=" ">
<path fill="none" stroke="#63b8ff" d="M411.86,-228.85C339.01,-228.73 176.98,-223.87 142.5,-184 136.98,-177.61 136.96,-171.37 142.5,-165 175.28,-127.29 318.4,-120.6 400.69,-119.96"/>
<polygon fill="#63b8ff" stroke="#63b8ff" points="400.92,-123.46 410.9,-119.91 400.88,-116.46 400.92,-123.46"/>
</a>
</g>
</g>
<!-- Node4 -->
<g id="Node000004" class="node">
<title>Node4</title>
<g id="a_Node000004"><a xlink:title=" ">
<polygon fill="#e0e0e0" stroke="#999999" points="239,-184 152,-184 152,-165 239,-165 239,-184"/>
<text text-anchor="middle" x="195.5" y="-172" font-family="Helvetica,sans-Serif" font-size="10.00">hardware/irq.h</text>
</a>
</g>
</g>
<!-- Node1&#45;&gt;Node4 -->
<g id="edge3_Node000001_Node000004" class="edge">
<title>Node1&#45;&gt;Node4</title>
<g id="a_edge3_Node000001_Node000004"><a xlink:title=" ">
<path fill="none" stroke="#63b8ff" d="M411.93,-221.02C368.65,-211.92 295.28,-196.48 246.12,-186.15"/>
<polygon fill="#63b8ff" stroke="#63b8ff" points="246.82,-182.72 236.32,-184.08 245.38,-189.57 246.82,-182.72"/>
</a>
</g>
</g>
<!-- Node5 -->
<g id="Node000005" class="node">
<title>Node5</title>
<g id="a_Node000005"><a xlink:title=" ">
<polygon fill="#e0e0e0" stroke="#999999" points="365.5,-184 257.5,-184 257.5,-165 365.5,-165 365.5,-184"/>
<text text-anchor="middle" x="311.5" y="-172" font-family="Helvetica,sans-Serif" font-size="10.00">pico/runtime_init.h</text>
</a>
</g>
</g>
<!-- Node1&#45;&gt;Node5 -->
<g id="edge4_Node000001_Node000005" class="edge">
<title>Node1&#45;&gt;Node5</title>
<g id="a_edge4_Node000001_Node000005"><a xlink:title=" ">
<path fill="none" stroke="#63b8ff" d="M425.65,-219.98C403.38,-211.3 368.6,-197.75 343.28,-187.88"/>
<polygon fill="#63b8ff" stroke="#63b8ff" points="344.34,-184.54 333.75,-184.17 341.79,-191.06 344.34,-184.54"/>
</a>
</g>
</g>
<!-- Node6 -->
<g id="Node000006" class="node">
<title>Node6</title>
<g id="a_Node000006"><a xlink:title=" ">
<polygon fill="#e0e0e0" stroke="#999999" points="511,-184 384,-184 384,-165 511,-165 511,-184"/>
<text text-anchor="middle" x="447.5" y="-172" font-family="Helvetica,sans-Serif" font-size="10.00">hardware/structs/scb.h</text>
</a>
</g>
</g>
<!-- Node1&#45;&gt;Node6 -->
<g id="edge5_Node000001_Node000006" class="edge">
<title>Node1&#45;&gt;Node6</title>
<g id="a_edge5_Node000001_Node000006"><a xlink:title=" ">
<path fill="none" stroke="#63b8ff" d="M447.5,-219.75C447.5,-212.8 447.5,-202.85 447.5,-194.13"/>
<polygon fill="#63b8ff" stroke="#63b8ff" points="451,-194.09 447.5,-184.09 444,-194.09 451,-194.09"/>
</a>
</g>
</g>
<!-- Node7 -->
<g id="Node000007" class="node">
<title>Node7</title>
<g id="a_Node000007"><a xlink:title=" ">
<polygon fill="#e0e0e0" stroke="#999999" points="654,-184 529,-184 529,-165 654,-165 654,-184"/>
<text text-anchor="middle" x="591.5" y="-172" font-family="Helvetica,sans-Serif" font-size="10.00">hardware/structs/sio.h</text>
</a>
</g>
</g>
<!-- Node1&#45;&gt;Node7 -->
<g id="edge6_Node000001_Node000007" class="edge">
<title>Node1&#45;&gt;Node7</title>
<g id="a_edge6_Node000001_Node000007"><a xlink:title=" ">
<path fill="none" stroke="#63b8ff" d="M470.64,-219.98C494.32,-211.27 531.37,-197.63 558.21,-187.75"/>
<polygon fill="#63b8ff" stroke="#63b8ff" points="559.77,-190.91 567.94,-184.17 557.35,-184.34 559.77,-190.91"/>
</a>
</g>
</g>
<!-- Node8 -->
<g id="Node000008" class="node">
<title>Node8</title>
<g id="a_Node000008"><a xlink:title=" ">
<polygon fill="#e0e0e0" stroke="#999999" points="803,-184 672,-184 672,-165 803,-165 803,-184"/>
<text text-anchor="middle" x="737.5" y="-172" font-family="Helvetica,sans-Serif" font-size="10.00">hardware/structs/psm.h</text>
</a>
</g>
</g>
<!-- Node1&#45;&gt;Node8 -->
<g id="edge7_Node000001_Node000008" class="edge">
<title>Node1&#45;&gt;Node8</title>
<g id="a_edge7_Node000001_Node000008"><a xlink:title=" ">
<path fill="none" stroke="#63b8ff" d="M483.06,-222C532.46,-212.97 622.37,-196.54 681.01,-185.82"/>
<polygon fill="#63b8ff" stroke="#63b8ff" points="681.65,-189.27 690.86,-184.02 680.39,-182.38 681.65,-189.27"/>
</a>
</g>
</g>
<!-- Node9 -->
<g id="Node000009" class="node">
<title>Node9</title>
<g id="a_Node000009"><a xlink:href="claim_8h.html" target="_top" xlink:title=" ">
<polygon fill="white" stroke="#666666" points="922,-184 821,-184 821,-165 922,-165 922,-184"/>
<text text-anchor="middle" x="871.5" y="-172" font-family="Helvetica,sans-Serif" font-size="10.00">hardware/claim.h</text>
</a>
</g>
</g>
<!-- Node1&#45;&gt;Node9 -->
<g id="edge8_Node000001_Node000009" class="edge">
<title>Node1&#45;&gt;Node9</title>
<g id="a_edge8_Node000001_Node000009"><a xlink:title=" ">
<path fill="none" stroke="#63b8ff" d="M483.18,-224.37C546.69,-216.96 683.78,-200.75 810.5,-184.11"/>
<polygon fill="#63b8ff" stroke="#63b8ff" points="811.31,-187.53 820.77,-182.76 810.4,-180.59 811.31,-187.53"/>
</a>
</g>
</g>
<!-- Node11 -->
<g id="Node000011" class="node">
<title>Node11</title>
<g id="a_Node000011"><a xlink:href="hardware__structs_2include_2hardware_2structs_2m33_8h.html" target="_top" xlink:title=" ">
<polygon fill="white" stroke="#666666" points="1072.5,-184 940.5,-184 940.5,-165 1072.5,-165 1072.5,-184"/>
<text text-anchor="middle" x="1006.5" y="-172" font-family="Helvetica,sans-Serif" font-size="10.00">hardware/structs/m33.h</text>
</a>
</g>
</g>
<!-- Node1&#45;&gt;Node11 -->
<g id="edge11_Node000001_Node000011" class="edge">
<title>Node1&#45;&gt;Node11</title>
<g id="a_edge11_Node000001_Node000011"><a xlink:title=" ">
<path fill="none" stroke="#63b8ff" d="M483.05,-225.49C561.62,-218.78 756.23,-201.87 930.15,-184.12"/>
<polygon fill="#63b8ff" stroke="#63b8ff" points="930.66,-187.59 940.25,-183.08 929.95,-180.62 930.66,-187.59"/>
</a>
</g>
</g>
<!-- Node9&#45;&gt;Node3 -->
<g id="edge10_Node000009_Node000003" class="edge">
<title>Node9&#45;&gt;Node3</title>
<g id="a_edge10_Node000009_Node000003"><a xlink:title=" ">
<path fill="none" stroke="#63b8ff" d="M820.77,-166.26C817.63,-165.83 814.52,-165.41 811.5,-165 708.36,-151.18 588.05,-136.22 518.15,-127.64"/>
<polygon fill="#63b8ff" stroke="#63b8ff" points="518.57,-124.17 508.21,-126.42 517.71,-131.11 518.57,-124.17"/>
</a>
</g>
</g>
<!-- Node10 -->
<g id="Node000010" class="node">
<title>Node10</title>
<g id="a_Node000010"><a xlink:title=" ">
<polygon fill="#e0e0e0" stroke="#999999" points="894.5,-74 848.5,-74 848.5,-55 894.5,-55 894.5,-74"/>
<text text-anchor="middle" x="871.5" y="-62" font-family="Helvetica,sans-Serif" font-size="10.00">pico.h</text>
</a>
</g>
</g>
<!-- Node9&#45;&gt;Node10 -->
<g id="edge9_Node000009_Node000010" class="edge">
<title>Node9&#45;&gt;Node10</title>
<g id="a_edge9_Node000009_Node000010"><a xlink:title=" ">
<path fill="none" stroke="#63b8ff" d="M871.5,-164.66C871.5,-147.17 871.5,-107.8 871.5,-84.27"/>
<polygon fill="#63b8ff" stroke="#63b8ff" points="875,-84.16 871.5,-74.16 868,-84.16 875,-84.16"/>
</a>
</g>
</g>
<!-- Node12 -->
<g id="Node000012" class="node">
<title>Node12</title>
<g id="a_Node000012"><a xlink:href="address__mapped_8h.html" target="_top" xlink:title=" ">
<polygon fill="white" stroke="#666666" points="1077.5,-129 919.5,-129 919.5,-110 1077.5,-110 1077.5,-129"/>
<text text-anchor="middle" x="998.5" y="-117" font-family="Helvetica,sans-Serif" font-size="10.00">hardware/address_mapped.h</text>
</a>
</g>
</g>
<!-- Node11&#45;&gt;Node12 -->
<g id="edge12_Node000011_Node000012" class="edge">
<title>Node11&#45;&gt;Node12</title>
<g id="a_edge12_Node000011_Node000012"><a xlink:title=" ">
<path fill="none" stroke="#63b8ff" d="M1005.18,-164.75C1004.13,-157.8 1002.63,-147.85 1001.31,-139.13"/>
<polygon fill="#63b8ff" stroke="#63b8ff" points="1004.75,-138.45 999.8,-129.09 997.83,-139.5 1004.75,-138.45"/>
</a>
</g>
</g>
<!-- Node16 -->
<g id="Node000016" class="node">
<title>Node16</title>
<g id="a_Node000016"><a xlink:href="hardware__regs_2include_2hardware_2regs_2m33_8h.html" target="_top" xlink:title=" ">
<polygon fill="white" stroke="#666666" points="1215.5,-129 1095.5,-129 1095.5,-110 1215.5,-110 1215.5,-129"/>
<text text-anchor="middle" x="1155.5" y="-117" font-family="Helvetica,sans-Serif" font-size="10.00">hardware/regs/m33.h</text>
</a>
</g>
</g>
<!-- Node11&#45;&gt;Node16 -->
<g id="edge18_Node000011_Node000016" class="edge">
<title>Node11&#45;&gt;Node16</title>
<g id="a_edge18_Node000011_Node000016"><a xlink:title=" ">
<path fill="none" stroke="#63b8ff" d="M1030.44,-164.98C1055.06,-156.23 1093.62,-142.51 1121.42,-132.62"/>
<polygon fill="#63b8ff" stroke="#63b8ff" points="1122.88,-135.82 1131.12,-129.17 1120.53,-129.22 1122.88,-135.82"/>
</a>
</g>
</g>
<!-- Node12&#45;&gt;Node10 -->
<g id="edge13_Node000012_Node000010" class="edge">
<title>Node12&#45;&gt;Node10</title>
<g id="a_edge13_Node000012_Node000010"><a xlink:title=" ">
<path fill="none" stroke="#63b8ff" d="M978.1,-109.98C957.48,-101.38 925.39,-87.99 901.81,-78.15"/>
<polygon fill="#63b8ff" stroke="#63b8ff" points="902.85,-74.79 892.28,-74.17 900.16,-81.25 902.85,-74.79"/>
</a>
</g>
</g>
<!-- Node13 -->
<g id="Node000013" class="node">
<title>Node13</title>
<g id="a_Node000013"><a xlink:title=" ">
<polygon fill="#e0e0e0" stroke="#999999" points="1070.5,-74 912.5,-74 912.5,-55 1070.5,-55 1070.5,-74"/>
<text text-anchor="middle" x="991.5" y="-62" font-family="Helvetica,sans-Serif" font-size="10.00">hardware/regs/addressmap.h</text>
</a>
</g>
</g>
<!-- Node12&#45;&gt;Node13 -->
<g id="edge14_Node000012_Node000013" class="edge">
<title>Node12&#45;&gt;Node13</title>
<g id="a_edge14_Node000012_Node000013"><a xlink:title=" ">
<path fill="none" stroke="#63b8ff" d="M997.34,-109.75C996.43,-102.8 995.11,-92.85 993.96,-84.13"/>
<polygon fill="#63b8ff" stroke="#63b8ff" points="997.41,-83.54 992.63,-74.09 990.47,-84.46 997.41,-83.54"/>
</a>
</g>
</g>
<!-- Node14 -->
<g id="Node000014" class="node">
<title>Node14</title>
<g id="a_Node000014"><a xlink:href="hardware__structs_2include_2hardware_2structs_2accessctrl_8h.html" target="_top" xlink:title=" ">
<polygon fill="white" stroke="#666666" points="1247,-74 1088,-74 1088,-55 1247,-55 1247,-74"/>
<text text-anchor="middle" x="1167.5" y="-62" font-family="Helvetica,sans-Serif" font-size="10.00">hardware/structs/accessctrl.h</text>
</a>
</g>
</g>
<!-- Node12&#45;&gt;Node14 -->
<g id="edge15_Node000012_Node000014" class="edge">
<title>Node12&#45;&gt;Node14</title>
<g id="a_edge15_Node000012_Node000014"><a xlink:title=" ">
<path fill="none" stroke="#63b8ff" d="M1020.54,-109.98C1047.06,-101.05 1091.84,-86.94 1125.09,-77.02"/>
<polygon fill="#63b8ff" stroke="#63b8ff" points="1126.41,-80.28 1135,-74.08 1124.42,-73.57 1126.41,-80.28"/>
</a>
</g>
</g>
<!-- Node14&#45;&gt;Node12 -->
<g id="edge16_Node000014_Node000012" class="edge">
<title>Node14&#45;&gt;Node12</title>
<g id="a_edge16_Node000014_Node000012"><a xlink:title=" ">
<path fill="none" stroke="#63b8ff" d="M1145.26,-74.08C1118.65,-83.04 1073.85,-97.15 1040.66,-107.06"/>
<polygon fill="#63b8ff" stroke="#63b8ff" points="1039.36,-103.79 1030.77,-109.98 1041.35,-110.5 1039.36,-103.79"/>
</a>
</g>
</g>
<!-- Node15 -->
<g id="Node000015" class="node">
<title>Node15</title>
<g id="a_Node000015"><a xlink:href="hardware__regs_2include_2hardware_2regs_2accessctrl_8h.html" target="_top" xlink:title=" ">
<polygon fill="white" stroke="#666666" points="1241,-19 1094,-19 1094,0 1241,0 1241,-19"/>
<text text-anchor="middle" x="1167.5" y="-7" font-family="Helvetica,sans-Serif" font-size="10.00">hardware/regs/accessctrl.h</text>
</a>
</g>
</g>
<!-- Node14&#45;&gt;Node15 -->
<g id="edge17_Node000014_Node000015" class="edge">
<title>Node14&#45;&gt;Node15</title>
<g id="a_edge17_Node000014_Node000015"><a xlink:title=" ">
<path fill="none" stroke="#63b8ff" d="M1167.5,-54.75C1167.5,-47.8 1167.5,-37.85 1167.5,-29.13"/>
<polygon fill="#63b8ff" stroke="#63b8ff" points="1171,-29.09 1167.5,-19.09 1164,-29.09 1171,-29.09"/>
</a>
</g>
</g>
</g>
</svg>
