<?xml version="1.0" encoding="UTF-8" standalone="no"?>
<!DOCTYPE svg PUBLIC "-//W3C//DTD SVG 1.1//EN"
 "http://www.w3.org/Graphics/SVG/1.1/DTD/svg11.dtd">
<!-- Generated by graphviz version 2.43.0 (0)
 -->
<!-- Title: mutex.h Pages: 1 -->
<svg width="784pt" height="214pt"
 viewBox="0.00 0.00 784.00 214.00" xmlns="http://www.w3.org/2000/svg" xmlns:xlink="http://www.w3.org/1999/xlink">
<g id="graph0" class="graph" transform="scale(1 1) rotate(0) translate(4 210)">
<title>mutex.h</title>
<!-- Node1 -->
<g id="Node000001" class="node">
<title>Node1</title>
<g id="a_Node000001"><a xlink:title=" ">
<polygon fill="#999999" stroke="#666666" points="343,-206 286,-206 286,-187 343,-187 343,-206"/>
<text text-anchor="middle" x="314.5" y="-194" font-family="Helvetica,sans-Serif" font-size="10.00">mutex.h</text>
</a>
</g>
</g>
<!-- Node2 -->
<g id="Node000002" class="node">
<title>Node2</title>
<g id="a_Node000002"><a xlink:href="async__context__threadsafe__background_8h.html" target="_top" xlink:title=" ">
<polygon fill="white" stroke="#666666" points="214,-151 69,-151 69,-121 214,-121 214,-151"/>
<text text-anchor="start" x="77" y="-139" font-family="Helvetica,sans-Serif" font-size="10.00">async_context_threadsafe</text>
<text text-anchor="middle" x="141.5" y="-128" font-family="Helvetica,sans-Serif" font-size="10.00">_background.h</text>
</a>
</g>
</g>
<!-- Node1&#45;&gt;Node2 -->
<g id="edge1_Node000001_Node000002" class="edge">
<title>Node1&#45;&gt;Node2</title>
<g id="a_edge1_Node000001_Node000002"><a xlink:title=" ">
<path fill="none" stroke="#63b8ff" d="M279.62,-183.71C251.75,-174.28 212.6,-161.04 183.09,-151.06"/>
<polygon fill="#63b8ff" stroke="#63b8ff" points="278.75,-187.11 289.34,-186.99 280.99,-180.47 278.75,-187.11"/>
</a>
</g>
</g>
<!-- Node4 -->
<g id="Node000004" class="node">
<title>Node4</title>
<g id="a_Node000004"><a xlink:href="rp2__common_2hardware__irq_2irq_8c.html" target="_top" xlink:title=" ">
<polygon fill="white" stroke="#666666" points="301.5,-145.5 263.5,-145.5 263.5,-126.5 301.5,-126.5 301.5,-145.5"/>
<text text-anchor="middle" x="282.5" y="-133.5" font-family="Helvetica,sans-Serif" font-size="10.00">irq.c</text>
</a>
</g>
</g>
<!-- Node1&#45;&gt;Node4 -->
<g id="edge3_Node000001_Node000004" class="edge">
<title>Node1&#45;&gt;Node4</title>
<g id="a_edge3_Node000001_Node000004"><a xlink:title=" ">
<path fill="none" stroke="#63b8ff" d="M304.92,-177.98C299.08,-167.31 291.88,-154.15 287.24,-145.67"/>
<polygon fill="#63b8ff" stroke="#63b8ff" points="301.91,-179.77 309.78,-186.87 308.05,-176.42 301.91,-179.77"/>
</a>
</g>
</g>
<!-- Node5 -->
<g id="Node000005" class="node">
<title>Node5</title>
<g id="a_Node000005"><a xlink:href="mutex_8c.html" target="_top" xlink:title=" ">
<polygon fill="white" stroke="#666666" points="375.5,-145.5 319.5,-145.5 319.5,-126.5 375.5,-126.5 375.5,-145.5"/>
<text text-anchor="middle" x="347.5" y="-133.5" font-family="Helvetica,sans-Serif" font-size="10.00">mutex.c</text>
</a>
</g>
</g>
<!-- Node1&#45;&gt;Node5 -->
<g id="edge4_Node000001_Node000005" class="edge">
<title>Node1&#45;&gt;Node5</title>
<g id="a_edge4_Node000001_Node000005"><a xlink:title=" ">
<path fill="none" stroke="#63b8ff" d="M324.38,-177.98C330.4,-167.31 337.83,-154.15 342.61,-145.67"/>
<polygon fill="#63b8ff" stroke="#63b8ff" points="321.23,-176.44 319.37,-186.87 327.33,-179.88 321.23,-176.44"/>
</a>
</g>
</g>
<!-- Node6 -->
<g id="Node000006" class="node">
<title>Node6</title>
<g id="a_Node000006"><a xlink:href="common_2pico__sync_2include_2pico_2sync_8h.html" target="_top" xlink:title=" ">
<polygon fill="white" stroke="#666666" points="456.5,-145.5 408.5,-145.5 408.5,-126.5 456.5,-126.5 456.5,-145.5"/>
<text text-anchor="middle" x="432.5" y="-133.5" font-family="Helvetica,sans-Serif" font-size="10.00">sync.h</text>
</a>
</g>
</g>
<!-- Node1&#45;&gt;Node6 -->
<g id="edge5_Node000001_Node000006" class="edge">
<title>Node1&#45;&gt;Node6</title>
<g id="a_edge5_Node000001_Node000006"><a xlink:title=" ">
<path fill="none" stroke="#63b8ff" d="M340.76,-182.48C363.5,-171.21 395.74,-155.23 415.32,-145.52"/>
<polygon fill="#63b8ff" stroke="#63b8ff" points="339.06,-179.42 331.66,-186.99 342.17,-185.69 339.06,-179.42"/>
</a>
</g>
</g>
<!-- Node3 -->
<g id="Node000003" class="node">
<title>Node3</title>
<g id="a_Node000003"><a xlink:href="async__context__threadsafe__background_8c.html" target="_top" xlink:title=" ">
<polygon fill="white" stroke="#666666" points="145,-85 0,-85 0,-55 145,-55 145,-85"/>
<text text-anchor="start" x="8" y="-73" font-family="Helvetica,sans-Serif" font-size="10.00">async_context_threadsafe</text>
<text text-anchor="middle" x="72.5" y="-62" font-family="Helvetica,sans-Serif" font-size="10.00">_background.c</text>
</a>
</g>
</g>
<!-- Node2&#45;&gt;Node3 -->
<g id="edge2_Node000002_Node000003" class="edge">
<title>Node2&#45;&gt;Node3</title>
<g id="a_edge2_Node000002_Node000003"><a xlink:title=" ">
<path fill="none" stroke="#63b8ff" d="M118.78,-113.92C108.6,-104.49 96.87,-93.61 87.77,-85.16"/>
<polygon fill="#63b8ff" stroke="#63b8ff" points="116.47,-116.56 126.19,-120.8 121.24,-111.43 116.47,-116.56"/>
</a>
</g>
</g>
<!-- Node6&#45;&gt;Node3 -->
<g id="edge8_Node000006_Node000003" class="edge">
<title>Node6&#45;&gt;Node3</title>
<g id="a_edge8_Node000006_Node000003"><a xlink:title=" ">
<path fill="none" stroke="#63b8ff" d="M398.34,-124.45C393.71,-123.2 389.01,-122 384.5,-121 283.08,-98.41 256.03,-101.85 153.5,-85 150.82,-84.56 148.1,-84.11 145.35,-83.65"/>
<polygon fill="#63b8ff" stroke="#63b8ff" points="397.66,-127.9 408.24,-127.26 399.58,-121.16 397.66,-127.9"/>
</a>
</g>
</g>
<!-- Node7 -->
<g id="Node000007" class="node">
<title>Node7</title>
<g id="a_Node000007"><a xlink:href="async__context__freertos_8c.html" target="_top" xlink:title=" ">
<polygon fill="white" stroke="#666666" points="302,-79.5 163,-79.5 163,-60.5 302,-60.5 302,-79.5"/>
<text text-anchor="middle" x="232.5" y="-67.5" font-family="Helvetica,sans-Serif" font-size="10.00">async_context_freertos.c</text>
</a>
</g>
</g>
<!-- Node6&#45;&gt;Node7 -->
<g id="edge6_Node000006_Node000007" class="edge">
<title>Node6&#45;&gt;Node7</title>
<g id="a_edge6_Node000006_Node000007"><a xlink:title=" ">
<path fill="none" stroke="#63b8ff" d="M398.71,-124.19C359.39,-111.61 295.28,-91.09 259.26,-79.56"/>
<polygon fill="#63b8ff" stroke="#63b8ff" points="397.78,-127.57 408.38,-127.28 399.92,-120.9 397.78,-127.57"/>
</a>
</g>
</g>
<!-- Node8 -->
<g id="Node000008" class="node">
<title>Node8</title>
<g id="a_Node000008"><a xlink:href="async__context__poll_8c.html" target="_top" xlink:title=" ">
<polygon fill="white" stroke="#666666" points="439,-79.5 320,-79.5 320,-60.5 439,-60.5 439,-79.5"/>
<text text-anchor="middle" x="379.5" y="-67.5" font-family="Helvetica,sans-Serif" font-size="10.00">async_context_poll.c</text>
</a>
</g>
</g>
<!-- Node6&#45;&gt;Node8 -->
<g id="edge7_Node000006_Node000008" class="edge">
<title>Node6&#45;&gt;Node8</title>
<g id="a_edge7_Node000006_Node000008"><a xlink:title=" ">
<path fill="none" stroke="#63b8ff" d="M418.94,-118.62C408.74,-106.31 395.15,-89.89 386.87,-79.91"/>
<polygon fill="#63b8ff" stroke="#63b8ff" points="416.28,-120.9 425.35,-126.37 421.67,-116.43 416.28,-120.9"/>
</a>
</g>
</g>
<!-- Node9 -->
<g id="Node000009" class="node">
<title>Node9</title>
<g id="a_Node000009"><a xlink:href="atomic_8c.html" target="_top" xlink:title=" ">
<polygon fill="white" stroke="#666666" points="516,-79.5 457,-79.5 457,-60.5 516,-60.5 516,-79.5"/>
<text text-anchor="middle" x="486.5" y="-67.5" font-family="Helvetica,sans-Serif" font-size="10.00">atomic.c</text>
</a>
</g>
</g>
<!-- Node6&#45;&gt;Node9 -->
<g id="edge9_Node000006_Node000009" class="edge">
<title>Node6&#45;&gt;Node9</title>
<g id="a_edge9_Node000006_Node000009"><a xlink:title=" ">
<path fill="none" stroke="#63b8ff" d="M446.32,-118.62C456.71,-106.31 470.56,-89.89 478.99,-79.91"/>
<polygon fill="#63b8ff" stroke="#63b8ff" points="443.56,-116.47 439.78,-126.37 448.91,-120.98 443.56,-116.47"/>
</a>
</g>
</g>
<!-- Node10 -->
<g id="Node000010" class="node">
<title>Node10</title>
<g id="a_Node000010"><a xlink:href="kitchen__sink_8c.html" target="_top" xlink:title=" ">
<polygon fill="white" stroke="#666666" points="620.5,-79.5 534.5,-79.5 534.5,-60.5 620.5,-60.5 620.5,-79.5"/>
<text text-anchor="middle" x="577.5" y="-67.5" font-family="Helvetica,sans-Serif" font-size="10.00">kitchen_sink.c</text>
</a>
</g>
</g>
<!-- Node6&#45;&gt;Node10 -->
<g id="edge10_Node000006_Node000010" class="edge">
<title>Node6&#45;&gt;Node10</title>
<g id="a_edge10_Node000006_Node000010"><a xlink:title=" ">
<path fill="none" stroke="#63b8ff" d="M461.51,-122.19C490.09,-109.58 532.96,-90.66 557.79,-79.7"/>
<polygon fill="#63b8ff" stroke="#63b8ff" points="459.79,-119.13 452.06,-126.37 462.62,-125.53 459.79,-119.13"/>
</a>
</g>
</g>
<!-- Node12 -->
<g id="Node000012" class="node">
<title>Node12</title>
<g id="a_Node000012"><a xlink:href="rp2__common_2pico__multicore_2include_2pico_2multicore_8h.html" target="_top" xlink:title=" ">
<polygon fill="white" stroke="#666666" points="710.5,-79.5 638.5,-79.5 638.5,-60.5 710.5,-60.5 710.5,-79.5"/>
<text text-anchor="middle" x="674.5" y="-67.5" font-family="Helvetica,sans-Serif" font-size="10.00">multicore.h</text>
</a>
</g>
</g>
<!-- Node6&#45;&gt;Node12 -->
<g id="edge12_Node000006_Node000012" class="edge">
<title>Node6&#45;&gt;Node12</title>
<g id="a_edge12_Node000006_Node000012"><a xlink:title=" ">
<path fill="none" stroke="#63b8ff" d="M466.44,-126.97C505.81,-117.51 572.61,-101.06 629.5,-85 635.48,-83.31 641.88,-81.39 647.92,-79.53"/>
<polygon fill="#63b8ff" stroke="#63b8ff" points="465.48,-123.6 456.57,-129.33 467.11,-130.4 465.48,-123.6"/>
</a>
</g>
</g>
<!-- Node13 -->
<g id="Node000013" class="node">
<title>Node13</title>
<g id="a_Node000013"><a xlink:href="time_8c.html" target="_top" xlink:title=" ">
<polygon fill="white" stroke="#666666" points="776,-79.5 729,-79.5 729,-60.5 776,-60.5 776,-79.5"/>
<text text-anchor="middle" x="752.5" y="-67.5" font-family="Helvetica,sans-Serif" font-size="10.00">time.c</text>
</a>
</g>
</g>
<!-- Node6&#45;&gt;Node13 -->
<g id="edge13_Node000006_Node000013" class="edge">
<title>Node6&#45;&gt;Node13</title>
<g id="a_edge13_Node000006_Node000013"><a xlink:title=" ">
<path fill="none" stroke="#63b8ff" d="M466.88,-131.58C521.32,-125.6 630.36,-111.29 719.5,-85 724.39,-83.56 729.54,-81.6 734.27,-79.61"/>
<polygon fill="#63b8ff" stroke="#63b8ff" points="466.31,-128.12 456.74,-132.67 467.05,-135.08 466.31,-128.12"/>
</a>
</g>
</g>
<!-- Node11 -->
<g id="Node000011" class="node">
<title>Node11</title>
<g id="a_Node000011"><a xlink:href="kitchen__sink__cpp_8cpp.html" target="_top" xlink:title=" ">
<polygon fill="white" stroke="#666666" points="638,-19 517,-19 517,0 638,0 638,-19"/>
<text text-anchor="middle" x="577.5" y="-7" font-family="Helvetica,sans-Serif" font-size="10.00">kitchen_sink_cpp.cpp</text>
</a>
</g>
</g>
<!-- Node10&#45;&gt;Node11 -->
<g id="edge11_Node000010_Node000011" class="edge">
<title>Node10&#45;&gt;Node11</title>
<g id="a_edge11_Node000010_Node000011"><a xlink:title=" ">
<path fill="none" stroke="#63b8ff" d="M577.5,-50.16C577.5,-39.74 577.5,-27.3 577.5,-19.17"/>
<polygon fill="#63b8ff" stroke="#63b8ff" points="574,-50.37 577.5,-60.37 581,-50.37 574,-50.37"/>
</a>
</g>
</g>
</g>
</svg>
