<?xml version="1.0" encoding="UTF-8" standalone="no"?>
<!DOCTYPE svg PUBLIC "-//W3C//DTD SVG 1.1//EN"
 "http://www.w3.org/Graphics/SVG/1.1/DTD/svg11.dtd">
<!-- Generated by graphviz version 2.43.0 (0)
 -->
<!-- Title: mutex.c Pages: 1 -->
<svg width="300pt" height="247pt"
 viewBox="0.00 0.00 300.39 247.00" xmlns="http://www.w3.org/2000/svg" xmlns:xlink="http://www.w3.org/1999/xlink">
<g id="graph0" class="graph" transform="scale(1 1) rotate(0) translate(4 243)">
<title>mutex.c</title>
<!-- Node1 -->
<g id="Node000001" class="node">
<title>Node1</title>
<g id="a_Node000001"><a xlink:title=" ">
<polygon fill="#999999" stroke="#666666" points="184.39,-239 128.39,-239 128.39,-220 184.39,-220 184.39,-239"/>
<text text-anchor="middle" x="156.39" y="-227" font-family="Helvetica,sans-Serif" font-size="10.00">mutex.c</text>
</a>
</g>
</g>
<!-- Node2 -->
<g id="Node000002" class="node">
<title>Node2</title>
<g id="a_Node000002"><a xlink:href="mutex_8h.html" target="_top" xlink:title=" ">
<polygon fill="white" stroke="#666666" points="124.39,-184 44.39,-184 44.39,-165 124.39,-165 124.39,-184"/>
<text text-anchor="middle" x="84.39" y="-172" font-family="Helvetica,sans-Serif" font-size="10.00">pico/mutex.h</text>
</a>
</g>
</g>
<!-- Node1&#45;&gt;Node2 -->
<g id="edge1_Node000001_Node000002" class="edge">
<title>Node1&#45;&gt;Node2</title>
<g id="a_edge1_Node000001_Node000002"><a xlink:title=" ">
<path fill="none" stroke="#63b8ff" d="M144.82,-219.98C133.97,-212 117.51,-199.88 104.51,-190.31"/>
<polygon fill="#63b8ff" stroke="#63b8ff" points="106.3,-187.28 96.17,-184.17 102.15,-192.92 106.3,-187.28"/>
</a>
</g>
</g>
<!-- Node5 -->
<g id="Node000005" class="node">
<title>Node5</title>
<g id="a_Node000005"><a xlink:href="common_2pico__time_2include_2pico_2time_8h.html" target="_top" xlink:title=" ">
<polygon fill="white" stroke="#666666" points="198.89,-74 127.89,-74 127.89,-55 198.89,-55 198.89,-74"/>
<text text-anchor="middle" x="163.39" y="-62" font-family="Helvetica,sans-Serif" font-size="10.00">pico/time.h</text>
</a>
</g>
</g>
<!-- Node1&#45;&gt;Node5 -->
<g id="edge8_Node000001_Node000005" class="edge">
<title>Node1&#45;&gt;Node5</title>
<g id="a_edge8_Node000001_Node000005"><a xlink:title=" ">
<path fill="none" stroke="#63b8ff" d="M156.77,-219.74C157.86,-194.31 161.05,-120.08 162.57,-84.69"/>
<polygon fill="#63b8ff" stroke="#63b8ff" points="166.08,-84.45 163.01,-74.31 159.09,-84.15 166.08,-84.45"/>
</a>
</g>
</g>
<!-- Node8 -->
<g id="Node000008" class="node">
<title>Node8</title>
<g id="a_Node000008"><a xlink:title=" ">
<polygon fill="#e0e0e0" stroke="#999999" points="292.39,-184 184.39,-184 184.39,-165 292.39,-165 292.39,-184"/>
<text text-anchor="middle" x="238.39" y="-172" font-family="Helvetica,sans-Serif" font-size="10.00">pico/runtime_init.h</text>
</a>
</g>
</g>
<!-- Node1&#45;&gt;Node8 -->
<g id="edge9_Node000001_Node000008" class="edge">
<title>Node1&#45;&gt;Node8</title>
<g id="a_edge9_Node000001_Node000008"><a xlink:title=" ">
<path fill="none" stroke="#63b8ff" d="M169.57,-219.98C182.16,-211.84 201.4,-199.41 216.33,-189.76"/>
<polygon fill="#63b8ff" stroke="#63b8ff" points="218.48,-192.54 224.98,-184.17 214.68,-186.66 218.48,-192.54"/>
</a>
</g>
</g>
<!-- Node3 -->
<g id="Node000003" class="node">
<title>Node3</title>
<g id="a_Node000003"><a xlink:href="lock__core_8h.html" target="_top" xlink:title="Base implementation for locking primitives protected by a spin lock.">
<polygon fill="white" stroke="#666666" points="121.89,-129 26.89,-129 26.89,-110 121.89,-110 121.89,-129"/>
<text text-anchor="middle" x="74.39" y="-117" font-family="Helvetica,sans-Serif" font-size="10.00">pico/lock_core.h</text>
</a>
</g>
</g>
<!-- Node2&#45;&gt;Node3 -->
<g id="edge2_Node000002_Node000003" class="edge">
<title>Node2&#45;&gt;Node3</title>
<g id="a_edge2_Node000002_Node000003"><a xlink:title=" ">
<path fill="none" stroke="#63b8ff" d="M82.74,-164.75C81.43,-157.8 79.55,-147.85 77.91,-139.13"/>
<polygon fill="#63b8ff" stroke="#63b8ff" points="81.31,-138.27 76.01,-129.09 74.43,-139.56 81.31,-138.27"/>
</a>
</g>
</g>
<!-- Node4 -->
<g id="Node000004" class="node">
<title>Node4</title>
<g id="a_Node000004"><a xlink:title=" ">
<polygon fill="#e0e0e0" stroke="#999999" points="51.39,-19 5.39,-19 5.39,0 51.39,0 51.39,-19"/>
<text text-anchor="middle" x="28.39" y="-7" font-family="Helvetica,sans-Serif" font-size="10.00">pico.h</text>
</a>
</g>
</g>
<!-- Node3&#45;&gt;Node4 -->
<g id="edge3_Node000003_Node000004" class="edge">
<title>Node3&#45;&gt;Node4</title>
<g id="a_edge3_Node000003_Node000004"><a xlink:title=" ">
<path fill="none" stroke="#63b8ff" d="M48.89,-109.9C32.7,-102.96 13.04,-91.44 3.39,-74 -5,-58.84 4.36,-40.28 13.92,-27.15"/>
<polygon fill="#63b8ff" stroke="#63b8ff" points="16.89,-29.04 20.36,-19.03 11.4,-24.69 16.89,-29.04"/>
</a>
</g>
</g>
<!-- Node3&#45;&gt;Node5 -->
<g id="edge4_Node000003_Node000005" class="edge">
<title>Node3&#45;&gt;Node5</title>
<g id="a_edge4_Node000003_Node000005"><a xlink:title=" ">
<path fill="none" stroke="#63b8ff" d="M88.69,-109.98C102.49,-101.77 123.63,-89.18 139.91,-79.49"/>
<polygon fill="#63b8ff" stroke="#63b8ff" points="142.03,-82.29 148.83,-74.17 138.45,-76.28 142.03,-82.29"/>
</a>
</g>
</g>
<!-- Node7 -->
<g id="Node000007" class="node">
<title>Node7</title>
<g id="a_Node000007"><a xlink:title=" ">
<polygon fill="#e0e0e0" stroke="#999999" points="109.89,-74 12.89,-74 12.89,-55 109.89,-55 109.89,-74"/>
<text text-anchor="middle" x="61.39" y="-62" font-family="Helvetica,sans-Serif" font-size="10.00">hardware/sync.h</text>
</a>
</g>
</g>
<!-- Node3&#45;&gt;Node7 -->
<g id="edge7_Node000003_Node000007" class="edge">
<title>Node3&#45;&gt;Node7</title>
<g id="a_edge7_Node000003_Node000007"><a xlink:title=" ">
<path fill="none" stroke="#63b8ff" d="M72.25,-109.75C70.52,-102.72 68.05,-92.62 65.89,-83.84"/>
<polygon fill="#63b8ff" stroke="#63b8ff" points="69.28,-82.97 63.5,-74.09 62.48,-84.63 69.28,-82.97"/>
</a>
</g>
</g>
<!-- Node5&#45;&gt;Node4 -->
<g id="edge5_Node000005_Node000004" class="edge">
<title>Node5&#45;&gt;Node4</title>
<g id="a_edge5_Node000005_Node000004"><a xlink:title=" ">
<path fill="none" stroke="#63b8ff" d="M141.7,-54.98C119.59,-46.3 85.07,-32.75 59.94,-22.88"/>
<polygon fill="#63b8ff" stroke="#63b8ff" points="61.06,-19.57 50.48,-19.17 58.51,-26.08 61.06,-19.57"/>
</a>
</g>
</g>
<!-- Node6 -->
<g id="Node000006" class="node">
<title>Node6</title>
<g id="a_Node000006"><a xlink:title=" ">
<polygon fill="#e0e0e0" stroke="#999999" points="213.89,-19 112.89,-19 112.89,0 213.89,0 213.89,-19"/>
<text text-anchor="middle" x="163.39" y="-7" font-family="Helvetica,sans-Serif" font-size="10.00">hardware/timer.h</text>
</a>
</g>
</g>
<!-- Node5&#45;&gt;Node6 -->
<g id="edge6_Node000005_Node000006" class="edge">
<title>Node5&#45;&gt;Node6</title>
<g id="a_edge6_Node000005_Node000006"><a xlink:title=" ">
<path fill="none" stroke="#63b8ff" d="M163.39,-54.75C163.39,-47.8 163.39,-37.85 163.39,-29.13"/>
<polygon fill="#63b8ff" stroke="#63b8ff" points="166.89,-29.09 163.39,-19.09 159.89,-29.09 166.89,-29.09"/>
</a>
</g>
</g>
</g>
</svg>
