<?xml version="1.0" encoding="UTF-8" standalone="no"?>
<!DOCTYPE svg PUBLIC "-//W3C//DTD SVG 1.1//EN"
 "http://www.w3.org/Graphics/SVG/1.1/DTD/svg11.dtd">
<!-- Generated by graphviz version 2.43.0 (0)
 -->
<!-- Title: newlib_interface.c Pages: 1 -->
<svg width="770pt" height="148pt"
 viewBox="0.00 0.00 770.00 148.00" xmlns="http://www.w3.org/2000/svg" xmlns:xlink="http://www.w3.org/1999/xlink">
<g id="graph0" class="graph" transform="scale(1 1) rotate(0) translate(4 144)">
<title>newlib_interface.c</title>
<!-- Node1 -->
<g id="Node000001" class="node">
<title>Node1</title>
<g id="a_Node000001"><a xlink:title=" ">
<polygon fill="#999999" stroke="#666666" points="403,-140 297,-140 297,-121 403,-121 403,-140"/>
<text text-anchor="middle" x="350" y="-128" font-family="Helvetica,sans-Serif" font-size="10.00">newlib_interface.c</text>
</a>
</g>
</g>
<!-- Node2 -->
<g id="Node000002" class="node">
<title>Node2</title>
<g id="a_Node000002"><a xlink:title=" ">
<polygon fill="#e0e0e0" stroke="#999999" points="50,-85 0,-85 0,-66 50,-66 50,-85"/>
<text text-anchor="middle" x="25" y="-73" font-family="Helvetica,sans-Serif" font-size="10.00">stdio.h</text>
</a>
</g>
</g>
<!-- Node1&#45;&gt;Node2 -->
<g id="edge1_Node000001_Node000002" class="edge">
<title>Node1&#45;&gt;Node2</title>
<g id="a_edge1_Node000001_Node000002"><a xlink:title=" ">
<path fill="none" stroke="#63b8ff" d="M296.9,-122.89C240.49,-115.54 148.5,-102.57 60.11,-85.06"/>
<polygon fill="#63b8ff" stroke="#63b8ff" points="60.68,-81.61 50.19,-83.08 59.31,-88.47 60.68,-81.61"/>
</a>
</g>
</g>
<!-- Node3 -->
<g id="Node000003" class="node">
<title>Node3</title>
<g id="a_Node000003"><a xlink:title=" ">
<polygon fill="#e0e0e0" stroke="#999999" points="124,-85 68,-85 68,-66 124,-66 124,-85"/>
<text text-anchor="middle" x="96" y="-73" font-family="Helvetica,sans-Serif" font-size="10.00">stdarg.h</text>
</a>
</g>
</g>
<!-- Node1&#45;&gt;Node3 -->
<g id="edge2_Node000001_Node000003" class="edge">
<title>Node1&#45;&gt;Node3</title>
<g id="a_edge2_Node000001_Node000003"><a xlink:title=" ">
<path fill="none" stroke="#63b8ff" d="M306.71,-120.93C265,-112.61 199.88,-99.44 134.36,-85.26"/>
<polygon fill="#63b8ff" stroke="#63b8ff" points="134.78,-81.77 124.27,-83.07 133.3,-88.61 134.78,-81.77"/>
</a>
</g>
</g>
<!-- Node4 -->
<g id="Node000004" class="node">
<title>Node4</title>
<g id="a_Node000004"><a xlink:href="stat_8h.html" target="_top" xlink:title=" ">
<polygon fill="white" stroke="#666666" points="206,-85 142,-85 142,-66 206,-66 206,-85"/>
<text text-anchor="middle" x="174" y="-73" font-family="Helvetica,sans-Serif" font-size="10.00">sys/stat.h</text>
</a>
</g>
</g>
<!-- Node1&#45;&gt;Node4 -->
<g id="edge3_Node000001_Node000004" class="edge">
<title>Node1&#45;&gt;Node4</title>
<g id="a_edge3_Node000001_Node000004"><a xlink:title=" ">
<path fill="none" stroke="#63b8ff" d="M321.72,-120.98C292.05,-112.05 245.21,-97.94 212.25,-88.02"/>
<polygon fill="#63b8ff" stroke="#63b8ff" points="213.08,-84.61 202.5,-85.08 211.07,-91.32 213.08,-84.61"/>
</a>
</g>
</g>
<!-- Node5 -->
<g id="Node000005" class="node">
<title>Node5</title>
<g id="a_Node000005"><a xlink:href="rp2__common_2pico__clib__interface_2include_2llvm__libc_2sys_2time_8h.html" target="_top" xlink:title=" ">
<polygon fill="white" stroke="#666666" points="384,-85 316,-85 316,-66 384,-66 384,-85"/>
<text text-anchor="middle" x="350" y="-73" font-family="Helvetica,sans-Serif" font-size="10.00">sys/time.h</text>
</a>
</g>
</g>
<!-- Node1&#45;&gt;Node5 -->
<g id="edge4_Node000001_Node000005" class="edge">
<title>Node1&#45;&gt;Node5</title>
<g id="a_edge4_Node000001_Node000005"><a xlink:title=" ">
<path fill="none" stroke="#63b8ff" d="M350,-120.75C350,-113.8 350,-103.85 350,-95.13"/>
<polygon fill="#63b8ff" stroke="#63b8ff" points="353.5,-95.09 350,-85.09 346.5,-95.09 353.5,-95.09"/>
</a>
</g>
</g>
<!-- Node8 -->
<g id="Node000008" class="node">
<title>Node8</title>
<g id="a_Node000008"><a xlink:href="times_8h.html" target="_top" xlink:title=" ">
<polygon fill="white" stroke="#666666" points="297.5,-85 224.5,-85 224.5,-66 297.5,-66 297.5,-85"/>
<text text-anchor="middle" x="261" y="-73" font-family="Helvetica,sans-Serif" font-size="10.00">sys/times.h</text>
</a>
</g>
</g>
<!-- Node1&#45;&gt;Node8 -->
<g id="edge7_Node000001_Node000008" class="edge">
<title>Node1&#45;&gt;Node8</title>
<g id="a_edge7_Node000001_Node000008"><a xlink:title=" ">
<path fill="none" stroke="#63b8ff" d="M335.7,-120.98C321.9,-112.77 300.76,-100.18 284.49,-90.49"/>
<polygon fill="#63b8ff" stroke="#63b8ff" points="285.94,-87.28 275.56,-85.17 282.36,-93.29 285.94,-87.28"/>
</a>
</g>
</g>
<!-- Node10 -->
<g id="Node000010" class="node">
<title>Node10</title>
<g id="a_Node000010"><a xlink:title=" ">
<polygon fill="#e0e0e0" stroke="#999999" points="450,-85 402,-85 402,-66 450,-66 450,-85"/>
<text text-anchor="middle" x="426" y="-73" font-family="Helvetica,sans-Serif" font-size="10.00">time.h</text>
</a>
</g>
</g>
<!-- Node1&#45;&gt;Node10 -->
<g id="edge9_Node000001_Node000010" class="edge">
<title>Node1&#45;&gt;Node10</title>
<g id="a_edge9_Node000001_Node000010"><a xlink:title=" ">
<path fill="none" stroke="#63b8ff" d="M362.21,-120.98C373.78,-112.92 391.38,-100.65 405.16,-91.03"/>
<polygon fill="#63b8ff" stroke="#63b8ff" points="407.37,-93.76 413.57,-85.17 403.36,-88.02 407.37,-93.76"/>
</a>
</g>
</g>
<!-- Node11 -->
<g id="Node000011" class="node">
<title>Node11</title>
<g id="a_Node000011"><a xlink:href="unistd_8h.html" target="_top" xlink:title=" ">
<polygon fill="white" stroke="#666666" points="524,-85 468,-85 468,-66 524,-66 524,-85"/>
<text text-anchor="middle" x="496" y="-73" font-family="Helvetica,sans-Serif" font-size="10.00">unistd.h</text>
</a>
</g>
</g>
<!-- Node1&#45;&gt;Node11 -->
<g id="edge10_Node000001_Node000011" class="edge">
<title>Node1&#45;&gt;Node11</title>
<g id="a_edge10_Node000001_Node000011"><a xlink:title=" ">
<path fill="none" stroke="#63b8ff" d="M373.46,-120.98C397.58,-112.23 435.37,-98.51 462.6,-88.62"/>
<polygon fill="#63b8ff" stroke="#63b8ff" points="463.91,-91.87 472.12,-85.17 461.52,-85.29 463.91,-91.87"/>
</a>
</g>
</g>
<!-- Node12 -->
<g id="Node000012" class="node">
<title>Node12</title>
<g id="a_Node000012"><a xlink:href="common_2pico__time_2include_2pico_2time_8h.html" target="_top" xlink:title=" ">
<polygon fill="white" stroke="#666666" points="635.5,-85 564.5,-85 564.5,-66 635.5,-66 635.5,-85"/>
<text text-anchor="middle" x="600" y="-73" font-family="Helvetica,sans-Serif" font-size="10.00">pico/time.h</text>
</a>
</g>
</g>
<!-- Node1&#45;&gt;Node12 -->
<g id="edge12_Node000001_Node000012" class="edge">
<title>Node1&#45;&gt;Node12</title>
<g id="a_edge12_Node000001_Node000012"><a xlink:title=" ">
<path fill="none" stroke="#63b8ff" d="M390.17,-120.98C435.04,-111.47 507.55,-96.1 554.49,-86.15"/>
<polygon fill="#63b8ff" stroke="#63b8ff" points="555.33,-89.55 564.39,-84.05 553.88,-82.7 555.33,-89.55"/>
</a>
</g>
</g>
<!-- Node15 -->
<g id="Node000015" class="node">
<title>Node15</title>
<g id="a_Node000015"><a xlink:title=" ">
<polygon fill="#e0e0e0" stroke="#999999" points="762,-85 654,-85 654,-66 762,-66 762,-85"/>
<text text-anchor="middle" x="708" y="-73" font-family="Helvetica,sans-Serif" font-size="10.00">pico/runtime_init.h</text>
</a>
</g>
</g>
<!-- Node1&#45;&gt;Node15 -->
<g id="edge15_Node000001_Node000015" class="edge">
<title>Node1&#45;&gt;Node15</title>
<g id="a_edge15_Node000001_Node000015"><a xlink:title=" ">
<path fill="none" stroke="#63b8ff" d="M403.21,-121.62C467.31,-112.13 574.94,-96.2 643.65,-86.03"/>
<polygon fill="#63b8ff" stroke="#63b8ff" points="644.53,-89.43 653.91,-84.51 643.51,-82.51 644.53,-89.43"/>
</a>
</g>
</g>
<!-- Node6 -->
<g id="Node000006" class="node">
<title>Node6</title>
<g id="a_Node000006"><a xlink:title=" ">
<polygon fill="#e0e0e0" stroke="#999999" points="542.5,-24.5 417.5,-24.5 417.5,-5.5 542.5,-5.5 542.5,-24.5"/>
<text text-anchor="middle" x="480" y="-12.5" font-family="Helvetica,sans-Serif" font-size="10.00">__llvm&#45;libc&#45;common.h</text>
</a>
</g>
</g>
<!-- Node5&#45;&gt;Node6 -->
<g id="edge5_Node000005_Node000006" class="edge">
<title>Node5&#45;&gt;Node6</title>
<g id="a_edge5_Node000005_Node000006"><a xlink:title=" ">
<path fill="none" stroke="#63b8ff" d="M368.9,-65.99C390.66,-56.2 426.62,-40.02 451.71,-28.73"/>
<polygon fill="#63b8ff" stroke="#63b8ff" points="453.39,-31.81 461.07,-24.52 450.52,-25.43 453.39,-31.81"/>
</a>
</g>
</g>
<!-- Node7 -->
<g id="Node000007" class="node">
<title>Node7</title>
<g id="a_Node000007"><a xlink:title=" ">
<polygon fill="#e0e0e0" stroke="#999999" points="399.5,-30 278.5,-30 278.5,0 399.5,0 399.5,-30"/>
<text text-anchor="start" x="286.5" y="-18" font-family="Helvetica,sans-Serif" font-size="10.00">llvm&#45;libc&#45;types/struct</text>
<text text-anchor="middle" x="339" y="-7" font-family="Helvetica,sans-Serif" font-size="10.00">_timeval.h</text>
</a>
</g>
</g>
<!-- Node5&#45;&gt;Node7 -->
<g id="edge6_Node000005_Node000007" class="edge">
<title>Node5&#45;&gt;Node7</title>
<g id="a_edge6_Node000005_Node000007"><a xlink:title=" ">
<path fill="none" stroke="#63b8ff" d="M348.38,-65.87C347.09,-59.03 345.23,-49.14 343.51,-39.97"/>
<polygon fill="#63b8ff" stroke="#63b8ff" points="346.94,-39.3 341.65,-30.11 340.06,-40.59 346.94,-39.3"/>
</a>
</g>
</g>
<!-- Node9 -->
<g id="Node000009" class="node">
<title>Node9</title>
<g id="a_Node000009"><a xlink:title=" ">
<polygon fill="#e0e0e0" stroke="#999999" points="260,-24.5 126,-24.5 126,-5.5 260,-5.5 260,-24.5"/>
<text text-anchor="middle" x="193" y="-12.5" font-family="Helvetica,sans-Serif" font-size="10.00">llvm&#45;libc&#45;types/time_t.h</text>
</a>
</g>
</g>
<!-- Node8&#45;&gt;Node9 -->
<g id="edge8_Node000008_Node000009" class="edge">
<title>Node8&#45;&gt;Node9</title>
<g id="a_edge8_Node000008_Node000009"><a xlink:title=" ">
<path fill="none" stroke="#63b8ff" d="M250.97,-65.87C240.42,-56.8 223.61,-42.34 210.81,-31.32"/>
<polygon fill="#63b8ff" stroke="#63b8ff" points="212.94,-28.54 203.07,-24.67 208.37,-33.84 212.94,-28.54"/>
</a>
</g>
</g>
<!-- Node11&#45;&gt;Node6 -->
<g id="edge11_Node000011_Node000006" class="edge">
<title>Node11&#45;&gt;Node6</title>
<g id="a_edge11_Node000011_Node000006"><a xlink:title=" ">
<path fill="none" stroke="#63b8ff" d="M493.64,-65.87C491.39,-57.66 487.94,-45.04 485.07,-34.55"/>
<polygon fill="#63b8ff" stroke="#63b8ff" points="488.38,-33.39 482.37,-24.67 481.63,-35.24 488.38,-33.39"/>
</a>
</g>
</g>
<!-- Node13 -->
<g id="Node000013" class="node">
<title>Node13</title>
<g id="a_Node000013"><a xlink:title=" ">
<polygon fill="#e0e0e0" stroke="#999999" points="726,-24.5 680,-24.5 680,-5.5 726,-5.5 726,-24.5"/>
<text text-anchor="middle" x="703" y="-12.5" font-family="Helvetica,sans-Serif" font-size="10.00">pico.h</text>
</a>
</g>
</g>
<!-- Node12&#45;&gt;Node13 -->
<g id="edge13_Node000012_Node000013" class="edge">
<title>Node12&#45;&gt;Node13</title>
<g id="a_edge13_Node000012_Node000013"><a xlink:title=" ">
<path fill="none" stroke="#63b8ff" d="M615.2,-65.87C632.01,-56.32 659.32,-40.81 679.02,-29.62"/>
<polygon fill="#63b8ff" stroke="#63b8ff" points="680.77,-32.65 687.74,-24.67 677.32,-26.56 680.77,-32.65"/>
</a>
</g>
</g>
<!-- Node14 -->
<g id="Node000014" class="node">
<title>Node14</title>
<g id="a_Node000014"><a xlink:title=" ">
<polygon fill="#e0e0e0" stroke="#999999" points="661.5,-24.5 560.5,-24.5 560.5,-5.5 661.5,-5.5 661.5,-24.5"/>
<text text-anchor="middle" x="611" y="-12.5" font-family="Helvetica,sans-Serif" font-size="10.00">hardware/timer.h</text>
</a>
</g>
</g>
<!-- Node12&#45;&gt;Node14 -->
<g id="edge14_Node000012_Node000014" class="edge">
<title>Node12&#45;&gt;Node14</title>
<g id="a_edge14_Node000012_Node000014"><a xlink:title=" ">
<path fill="none" stroke="#63b8ff" d="M601.62,-65.87C603.17,-57.66 605.54,-45.04 607.51,-34.55"/>
<polygon fill="#63b8ff" stroke="#63b8ff" points="610.96,-35.14 609.37,-24.67 604.08,-33.85 610.96,-35.14"/>
</a>
</g>
</g>
</g>
</svg>
