<?xml version="1.0" encoding="UTF-8" standalone="no"?>
<!DOCTYPE svg PUBLIC "-//W3C//DTD SVG 1.1//EN"
 "http://www.w3.org/Graphics/SVG/1.1/DTD/svg11.dtd">
<!-- Generated by graphviz version 2.43.0 (0)
 -->
<!-- Title: oled.c Pages: 1 -->
<svg width="729pt" height="357pt"
 viewBox="0.00 0.00 729.08 357.00" xmlns="http://www.w3.org/2000/svg" xmlns:xlink="http://www.w3.org/1999/xlink">
<g id="graph0" class="graph" transform="scale(1 1) rotate(0) translate(4 353)">
<title>oled.c</title>
<!-- Node1 -->
<g id="Node000001" class="node">
<title>Node1</title>
<g id="a_Node000001"><a xlink:title=" ">
<polygon fill="#999999" stroke="#666666" points="377.08,-349 331.08,-349 331.08,-330 377.08,-330 377.08,-349"/>
<text text-anchor="middle" x="354.08" y="-337" font-family="Helvetica,sans-Serif" font-size="10.00">oled.c</text>
</a>
</g>
</g>
<!-- Node2 -->
<g id="Node000002" class="node">
<title>Node2</title>
<g id="a_Node000002"><a xlink:href="oled_8h.html" target="_top" xlink:title=" ">
<polygon fill="white" stroke="#666666" points="263.58,-294 216.58,-294 216.58,-275 263.58,-275 263.58,-294"/>
<text text-anchor="middle" x="240.08" y="-282" font-family="Helvetica,sans-Serif" font-size="10.00">oled.h</text>
</a>
</g>
</g>
<!-- Node1&#45;&gt;Node2 -->
<g id="edge1_Node000001_Node000002" class="edge">
<title>Node1&#45;&gt;Node2</title>
<g id="a_edge1_Node000001_Node000002"><a xlink:title=" ">
<path fill="none" stroke="#63b8ff" d="M335.76,-329.98C317.42,-321.46 288.97,-308.23 267.85,-298.41"/>
<polygon fill="#63b8ff" stroke="#63b8ff" points="269.27,-295.21 258.73,-294.17 266.32,-301.56 269.27,-295.21"/>
</a>
</g>
</g>
<!-- Node5 -->
<g id="Node000005" class="node">
<title>Node5</title>
<g id="a_Node000005"><a xlink:href="ssd1306_8h.html" target="_top" xlink:title=" ">
<polygon fill="white" stroke="#666666" points="265.08,-239 199.08,-239 199.08,-220 265.08,-220 265.08,-239"/>
<text text-anchor="middle" x="232.08" y="-227" font-family="Helvetica,sans-Serif" font-size="10.00">ssd1306.h</text>
</a>
</g>
</g>
<!-- Node1&#45;&gt;Node5 -->
<g id="edge23_Node000001_Node000005" class="edge">
<title>Node1&#45;&gt;Node5</title>
<g id="a_edge23_Node000001_Node000005"><a xlink:title=" ">
<path fill="none" stroke="#63b8ff" d="M344.09,-329.66C323.35,-311.3 275.36,-268.81 249.44,-245.87"/>
<polygon fill="#63b8ff" stroke="#63b8ff" points="251.67,-243.17 241.86,-239.16 247.03,-248.41 251.67,-243.17"/>
</a>
</g>
</g>
<!-- Node7 -->
<g id="Node000007" class="node">
<title>Node7</title>
<g id="a_Node000007"><a xlink:href="stdlib_8h.html" target="_top" xlink:title=" ">
<polygon fill="white" stroke="#666666" points="441.58,-129 388.58,-129 388.58,-110 441.58,-110 441.58,-129"/>
<text text-anchor="middle" x="415.08" y="-117" font-family="Helvetica,sans-Serif" font-size="10.00">stdlib.h</text>
</a>
</g>
</g>
<!-- Node1&#45;&gt;Node7 -->
<g id="edge25_Node000001_Node000007" class="edge">
<title>Node1&#45;&gt;Node7</title>
<g id="a_edge25_Node000001_Node000007"><a xlink:title=" ">
<path fill="none" stroke="#63b8ff" d="M358.51,-329.97C367.1,-313.08 386.05,-273.97 396.08,-239 405.95,-204.58 411.13,-162.96 413.47,-139.33"/>
<polygon fill="#63b8ff" stroke="#63b8ff" points="416.96,-139.56 414.4,-129.28 409.99,-138.92 416.96,-139.56"/>
</a>
</g>
</g>
<!-- Node18 -->
<g id="Node000018" class="node">
<title>Node18</title>
<g id="a_Node000018"><a xlink:title=" ">
<polygon fill="#e0e0e0" stroke="#999999" points="496.58,-294 443.58,-294 443.58,-275 496.58,-275 496.58,-294"/>
<text text-anchor="middle" x="470.08" y="-282" font-family="Helvetica,sans-Serif" font-size="10.00">string.h</text>
</a>
</g>
</g>
<!-- Node1&#45;&gt;Node18 -->
<g id="edge24_Node000001_Node000018" class="edge">
<title>Node1&#45;&gt;Node18</title>
<g id="a_edge24_Node000001_Node000018"><a xlink:title=" ">
<path fill="none" stroke="#63b8ff" d="M372.72,-329.98C391.38,-321.46 420.33,-308.23 441.82,-298.41"/>
<polygon fill="#63b8ff" stroke="#63b8ff" points="443.46,-301.51 451.1,-294.17 440.55,-295.14 443.46,-301.51"/>
</a>
</g>
</g>
<!-- Node19 -->
<g id="Node000019" class="node">
<title>Node19</title>
<g id="a_Node000019"><a xlink:href="big__font_8h.html" target="_top" xlink:title=" ">
<polygon fill="white" stroke="#666666" points="386.58,-239 321.58,-239 321.58,-220 386.58,-220 386.58,-239"/>
<text text-anchor="middle" x="354.08" y="-227" font-family="Helvetica,sans-Serif" font-size="10.00">big_font.h</text>
</a>
</g>
</g>
<!-- Node1&#45;&gt;Node19 -->
<g id="edge26_Node000001_Node000019" class="edge">
<title>Node1&#45;&gt;Node19</title>
<g id="a_edge26_Node000001_Node000019"><a xlink:title=" ">
<path fill="none" stroke="#63b8ff" d="M354.08,-329.66C354.08,-312.17 354.08,-272.8 354.08,-249.27"/>
<polygon fill="#63b8ff" stroke="#63b8ff" points="357.58,-249.16 354.08,-239.16 350.58,-249.16 357.58,-249.16"/>
</a>
</g>
</g>
<!-- Node3 -->
<g id="Node000003" class="node">
<title>Node3</title>
<g id="a_Node000003"><a xlink:title=" ">
<polygon fill="#e0e0e0" stroke="#999999" points="154.08,-129 92.08,-129 92.08,-110 154.08,-110 154.08,-129"/>
<text text-anchor="middle" x="123.08" y="-117" font-family="Helvetica,sans-Serif" font-size="10.00">stdbool.h</text>
</a>
</g>
</g>
<!-- Node2&#45;&gt;Node3 -->
<g id="edge2_Node000002_Node000003" class="edge">
<title>Node2&#45;&gt;Node3</title>
<g id="a_edge2_Node000002_Node000003"><a xlink:title=" ">
<path fill="none" stroke="#63b8ff" d="M228.36,-274.89C217.54,-266.55 201.46,-253.11 190.08,-239 163.96,-206.64 142.09,-162.78 130.97,-138.52"/>
<polygon fill="#63b8ff" stroke="#63b8ff" points="134.05,-136.83 126.76,-129.13 127.66,-139.69 134.05,-136.83"/>
</a>
</g>
</g>
<!-- Node4 -->
<g id="Node000004" class="node">
<title>Node4</title>
<g id="a_Node000004"><a xlink:title=" ">
<polygon fill="#e0e0e0" stroke="#999999" points="346.58,-184 293.58,-184 293.58,-165 346.58,-165 346.58,-184"/>
<text text-anchor="middle" x="320.08" y="-172" font-family="Helvetica,sans-Serif" font-size="10.00">stdint.h</text>
</a>
</g>
</g>
<!-- Node2&#45;&gt;Node4 -->
<g id="edge3_Node000002_Node000004" class="edge">
<title>Node2&#45;&gt;Node4</title>
<g id="a_edge3_Node000002_Node000004"><a xlink:title=" ">
<path fill="none" stroke="#63b8ff" d="M246.92,-274.69C253.83,-265.74 264.79,-251.48 274.08,-239 285.72,-223.36 298.73,-205.34 307.94,-192.5"/>
<polygon fill="#63b8ff" stroke="#63b8ff" points="310.92,-194.35 313.9,-184.18 305.23,-190.27 310.92,-194.35"/>
</a>
</g>
</g>
<!-- Node2&#45;&gt;Node5 -->
<g id="edge4_Node000002_Node000005" class="edge">
<title>Node2&#45;&gt;Node5</title>
<g id="a_edge4_Node000002_Node000005"><a xlink:title=" ">
<path fill="none" stroke="#63b8ff" d="M238.76,-274.75C237.71,-267.8 236.21,-257.85 234.89,-249.13"/>
<polygon fill="#63b8ff" stroke="#63b8ff" points="238.33,-248.45 233.38,-239.09 231.41,-249.5 238.33,-248.45"/>
</a>
</g>
</g>
<!-- Node5&#45;&gt;Node3 -->
<g id="edge6_Node000005_Node000003" class="edge">
<title>Node5&#45;&gt;Node3</title>
<g id="a_edge6_Node000005_Node000003"><a xlink:title=" ">
<path fill="none" stroke="#63b8ff" d="M220.96,-219.7C210.17,-210.99 193.51,-197.12 180.08,-184 164.43,-168.72 147.87,-149.94 136.66,-136.78"/>
<polygon fill="#63b8ff" stroke="#63b8ff" points="139.25,-134.43 130.12,-129.04 133.9,-138.94 139.25,-134.43"/>
</a>
</g>
</g>
<!-- Node5&#45;&gt;Node4 -->
<g id="edge5_Node000005_Node000004" class="edge">
<title>Node5&#45;&gt;Node4</title>
<g id="a_edge5_Node000005_Node000004"><a xlink:title=" ">
<path fill="none" stroke="#63b8ff" d="M246.22,-219.98C259.86,-211.77 280.77,-199.18 296.86,-189.49"/>
<polygon fill="#63b8ff" stroke="#63b8ff" points="298.92,-192.33 305.68,-184.17 295.31,-186.33 298.92,-192.33"/>
</a>
</g>
</g>
<!-- Node6 -->
<g id="Node000006" class="node">
<title>Node6</title>
<g id="a_Node000006"><a xlink:href="ssd1306__i2c_8h.html" target="_top" xlink:title=" ">
<polygon fill="white" stroke="#666666" points="275.08,-184 189.08,-184 189.08,-165 275.08,-165 275.08,-184"/>
<text text-anchor="middle" x="232.08" y="-172" font-family="Helvetica,sans-Serif" font-size="10.00">ssd1306_i2c.h</text>
</a>
</g>
</g>
<!-- Node5&#45;&gt;Node6 -->
<g id="edge7_Node000005_Node000006" class="edge">
<title>Node5&#45;&gt;Node6</title>
<g id="a_edge7_Node000005_Node000006"><a xlink:title=" ">
<path fill="none" stroke="#63b8ff" d="M232.08,-219.75C232.08,-212.8 232.08,-202.85 232.08,-194.13"/>
<polygon fill="#63b8ff" stroke="#63b8ff" points="235.58,-194.09 232.08,-184.09 228.58,-194.09 235.58,-194.09"/>
</a>
</g>
</g>
<!-- Node6&#45;&gt;Node3 -->
<g id="edge16_Node000006_Node000003" class="edge">
<title>Node6&#45;&gt;Node3</title>
<g id="a_edge16_Node000006_Node000003"><a xlink:title=" ">
<path fill="none" stroke="#63b8ff" d="M214.57,-164.98C197.11,-156.5 170.07,-143.35 149.91,-133.54"/>
<polygon fill="#63b8ff" stroke="#63b8ff" points="151.43,-130.4 140.91,-129.17 148.37,-136.69 151.43,-130.4"/>
</a>
</g>
</g>
<!-- Node6&#45;&gt;Node7 -->
<g id="edge8_Node000006_Node000007" class="edge">
<title>Node6&#45;&gt;Node7</title>
<g id="a_edge8_Node000006_Node000007"><a xlink:title=" ">
<path fill="none" stroke="#63b8ff" d="M261.48,-164.98C293.39,-155.74 344.38,-140.98 378.76,-131.02"/>
<polygon fill="#63b8ff" stroke="#63b8ff" points="379.8,-134.36 388.43,-128.22 377.85,-127.64 379.8,-134.36"/>
</a>
</g>
</g>
<!-- Node14 -->
<g id="Node000014" class="node">
<title>Node14</title>
<g id="a_Node000014"><a xlink:title=" ">
<polygon fill="#e0e0e0" stroke="#999999" points="370.58,-129 279.58,-129 279.58,-110 370.58,-110 370.58,-129"/>
<text text-anchor="middle" x="325.08" y="-117" font-family="Helvetica,sans-Serif" font-size="10.00">pico/platform.h</text>
</a>
</g>
</g>
<!-- Node6&#45;&gt;Node14 -->
<g id="edge17_Node000006_Node000014" class="edge">
<title>Node6&#45;&gt;Node14</title>
<g id="a_edge17_Node000006_Node000014"><a xlink:title=" ">
<path fill="none" stroke="#63b8ff" d="M247.02,-164.98C261.58,-156.69 283.95,-143.94 301.01,-134.22"/>
<polygon fill="#63b8ff" stroke="#63b8ff" points="302.91,-137.16 309.86,-129.17 299.44,-131.08 302.91,-137.16"/>
</a>
</g>
</g>
<!-- Node15 -->
<g id="Node000015" class="node">
<title>Node15</title>
<g id="a_Node000015"><a xlink:href="rp2__common_2hardware__i2c_2include_2hardware_2i2c_8h.html" target="_top" xlink:title=" ">
<polygon fill="white" stroke="#666666" points="261.58,-129 172.58,-129 172.58,-110 261.58,-110 261.58,-129"/>
<text text-anchor="middle" x="217.08" y="-117" font-family="Helvetica,sans-Serif" font-size="10.00">hardware/i2c.h</text>
</a>
</g>
</g>
<!-- Node6&#45;&gt;Node15 -->
<g id="edge18_Node000006_Node000015" class="edge">
<title>Node6&#45;&gt;Node15</title>
<g id="a_edge18_Node000006_Node000015"><a xlink:title=" ">
<path fill="none" stroke="#63b8ff" d="M229.6,-164.75C227.61,-157.72 224.76,-147.62 222.27,-138.84"/>
<polygon fill="#63b8ff" stroke="#63b8ff" points="225.6,-137.76 219.51,-129.09 218.87,-139.66 225.6,-137.76"/>
</a>
</g>
</g>
<!-- Node8 -->
<g id="Node000008" class="node">
<title>Node8</title>
<g id="a_Node000008"><a xlink:title=" ">
<polygon fill="#e0e0e0" stroke="#999999" points="314.08,-19 268.08,-19 268.08,0 314.08,0 314.08,-19"/>
<text text-anchor="middle" x="291.08" y="-7" font-family="Helvetica,sans-Serif" font-size="10.00">pico.h</text>
</a>
</g>
</g>
<!-- Node7&#45;&gt;Node8 -->
<g id="edge9_Node000007_Node000008" class="edge">
<title>Node7&#45;&gt;Node8</title>
<g id="a_edge9_Node000007_Node000008"><a xlink:title=" ">
<path fill="none" stroke="#63b8ff" d="M388.42,-110.28C368.97,-103.19 342.99,-91.34 325.08,-74 312.05,-61.39 302.87,-42.68 297.36,-28.84"/>
<polygon fill="#63b8ff" stroke="#63b8ff" points="300.61,-27.55 293.86,-19.38 294.05,-29.98 300.61,-27.55"/>
</a>
</g>
</g>
<!-- Node9 -->
<g id="Node000009" class="node">
<title>Node9</title>
<g id="a_Node000009"><a xlink:title=" ">
<polygon fill="#e0e0e0" stroke="#999999" points="495.58,-74 422.58,-74 422.58,-55 495.58,-55 495.58,-74"/>
<text text-anchor="middle" x="459.08" y="-62" font-family="Helvetica,sans-Serif" font-size="10.00">pico/stdio.h</text>
</a>
</g>
</g>
<!-- Node7&#45;&gt;Node9 -->
<g id="edge10_Node000007_Node000009" class="edge">
<title>Node7&#45;&gt;Node9</title>
<g id="a_edge10_Node000007_Node000009"><a xlink:title=" ">
<path fill="none" stroke="#63b8ff" d="M422.34,-109.75C428.62,-102.18 437.87,-91.05 445.51,-81.84"/>
<polygon fill="#63b8ff" stroke="#63b8ff" points="448.25,-84.02 451.95,-74.09 442.87,-79.55 448.25,-84.02"/>
</a>
</g>
</g>
<!-- Node10 -->
<g id="Node000010" class="node">
<title>Node10</title>
<g id="a_Node000010"><a xlink:href="common_2pico__time_2include_2pico_2time_8h.html" target="_top" xlink:title=" ">
<polygon fill="white" stroke="#666666" points="404.58,-74 333.58,-74 333.58,-55 404.58,-55 404.58,-74"/>
<text text-anchor="middle" x="369.08" y="-62" font-family="Helvetica,sans-Serif" font-size="10.00">pico/time.h</text>
</a>
</g>
</g>
<!-- Node7&#45;&gt;Node10 -->
<g id="edge11_Node000007_Node000010" class="edge">
<title>Node7&#45;&gt;Node10</title>
<g id="a_edge11_Node000007_Node000010"><a xlink:title=" ">
<path fill="none" stroke="#63b8ff" d="M407.48,-109.75C400.92,-102.18 391.26,-91.05 383.26,-81.84"/>
<polygon fill="#63b8ff" stroke="#63b8ff" points="385.73,-79.35 376.53,-74.09 380.44,-83.94 385.73,-79.35"/>
</a>
</g>
</g>
<!-- Node12 -->
<g id="Node000012" class="node">
<title>Node12</title>
<g id="a_Node000012"><a xlink:title=" ">
<polygon fill="#e0e0e0" stroke="#999999" points="608.58,-74 513.58,-74 513.58,-55 608.58,-55 608.58,-74"/>
<text text-anchor="middle" x="561.08" y="-62" font-family="Helvetica,sans-Serif" font-size="10.00">hardware/gpio.h</text>
</a>
</g>
</g>
<!-- Node7&#45;&gt;Node12 -->
<g id="edge14_Node000007_Node000012" class="edge">
<title>Node7&#45;&gt;Node12</title>
<g id="a_edge14_Node000007_Node000012"><a xlink:title=" ">
<path fill="none" stroke="#63b8ff" d="M438.54,-109.98C462.66,-101.23 500.44,-87.51 527.68,-77.62"/>
<polygon fill="#63b8ff" stroke="#63b8ff" points="528.99,-80.87 537.19,-74.17 526.6,-74.29 528.99,-80.87"/>
</a>
</g>
</g>
<!-- Node13 -->
<g id="Node000013" class="node">
<title>Node13</title>
<g id="a_Node000013"><a xlink:title=" ">
<polygon fill="#e0e0e0" stroke="#999999" points="721.08,-74 627.08,-74 627.08,-55 721.08,-55 721.08,-74"/>
<text text-anchor="middle" x="674.08" y="-62" font-family="Helvetica,sans-Serif" font-size="10.00">hardware/uart.h</text>
</a>
</g>
</g>
<!-- Node7&#45;&gt;Node13 -->
<g id="edge15_Node000007_Node000013" class="edge">
<title>Node7&#45;&gt;Node13</title>
<g id="a_edge15_Node000007_Node000013"><a xlink:title=" ">
<path fill="none" stroke="#63b8ff" d="M441.82,-113.03C484.28,-104.34 567.89,-87.23 622.35,-76.09"/>
<polygon fill="#63b8ff" stroke="#63b8ff" points="623.07,-79.51 632.16,-74.08 621.66,-72.65 623.07,-79.51"/>
</a>
</g>
</g>
<!-- Node10&#45;&gt;Node8 -->
<g id="edge12_Node000010_Node000008" class="edge">
<title>Node10&#45;&gt;Node8</title>
<g id="a_edge12_Node000010_Node000008"><a xlink:title=" ">
<path fill="none" stroke="#63b8ff" d="M356.55,-54.98C344.68,-46.92 326.61,-34.65 312.47,-25.03"/>
<polygon fill="#63b8ff" stroke="#63b8ff" points="314.08,-21.9 303.84,-19.17 310.14,-27.69 314.08,-21.9"/>
</a>
</g>
</g>
<!-- Node11 -->
<g id="Node000011" class="node">
<title>Node11</title>
<g id="a_Node000011"><a xlink:title=" ">
<polygon fill="#e0e0e0" stroke="#999999" points="433.58,-19 332.58,-19 332.58,0 433.58,0 433.58,-19"/>
<text text-anchor="middle" x="383.08" y="-7" font-family="Helvetica,sans-Serif" font-size="10.00">hardware/timer.h</text>
</a>
</g>
</g>
<!-- Node10&#45;&gt;Node11 -->
<g id="edge13_Node000010_Node000011" class="edge">
<title>Node10&#45;&gt;Node11</title>
<g id="a_edge13_Node000010_Node000011"><a xlink:title=" ">
<path fill="none" stroke="#63b8ff" d="M371.39,-54.75C373.25,-47.72 375.91,-37.62 378.23,-28.84"/>
<polygon fill="#63b8ff" stroke="#63b8ff" points="381.64,-29.65 380.81,-19.09 374.87,-27.86 381.64,-29.65"/>
</a>
</g>
</g>
<!-- Node15&#45;&gt;Node8 -->
<g id="edge19_Node000015_Node000008" class="edge">
<title>Node15&#45;&gt;Node8</title>
<g id="a_edge19_Node000015_Node000008"><a xlink:title=" ">
<path fill="none" stroke="#63b8ff" d="M172.56,-110.67C111.71,-99.76 9.42,-80.57 4.08,-74 -1.25,-67.45 -1.42,-61.41 4.08,-55 36.39,-17.29 188.87,-11.27 257.48,-10.49"/>
<polygon fill="#63b8ff" stroke="#63b8ff" points="257.77,-13.99 267.74,-10.41 257.72,-6.99 257.77,-13.99"/>
</a>
</g>
</g>
<!-- Node15&#45;&gt;Node10 -->
<g id="edge20_Node000015_Node000010" class="edge">
<title>Node15&#45;&gt;Node10</title>
<g id="a_edge20_Node000015_Node000010"><a xlink:title=" ">
<path fill="none" stroke="#63b8ff" d="M241.5,-109.98C266.8,-101.16 306.53,-87.31 334.93,-77.41"/>
<polygon fill="#63b8ff" stroke="#63b8ff" points="336.18,-80.68 344.47,-74.08 333.87,-74.07 336.18,-80.68"/>
</a>
</g>
</g>
<!-- Node16 -->
<g id="Node000016" class="node">
<title>Node16</title>
<g id="a_Node000016"><a xlink:title=" ">
<polygon fill="#e0e0e0" stroke="#999999" points="138.58,-74 13.58,-74 13.58,-55 138.58,-55 138.58,-74"/>
<text text-anchor="middle" x="76.08" y="-62" font-family="Helvetica,sans-Serif" font-size="10.00">hardware/structs/i2c.h</text>
</a>
</g>
</g>
<!-- Node15&#45;&gt;Node16 -->
<g id="edge21_Node000015_Node000016" class="edge">
<title>Node15&#45;&gt;Node16</title>
<g id="a_edge21_Node000015_Node000016"><a xlink:title=" ">
<path fill="none" stroke="#63b8ff" d="M194.42,-109.98C171.23,-101.27 134.96,-87.63 108.68,-77.75"/>
<polygon fill="#63b8ff" stroke="#63b8ff" points="109.74,-74.41 99.15,-74.17 107.27,-80.97 109.74,-74.41"/>
</a>
</g>
</g>
<!-- Node17 -->
<g id="Node000017" class="node">
<title>Node17</title>
<g id="a_Node000017"><a xlink:title=" ">
<polygon fill="#e0e0e0" stroke="#999999" points="277.08,-74 157.08,-74 157.08,-55 277.08,-55 277.08,-74"/>
<text text-anchor="middle" x="217.08" y="-62" font-family="Helvetica,sans-Serif" font-size="10.00">hardware/regs/dreq.h</text>
</a>
</g>
</g>
<!-- Node15&#45;&gt;Node17 -->
<g id="edge22_Node000015_Node000017" class="edge">
<title>Node15&#45;&gt;Node17</title>
<g id="a_edge22_Node000015_Node000017"><a xlink:title=" ">
<path fill="none" stroke="#63b8ff" d="M217.08,-109.75C217.08,-102.8 217.08,-92.85 217.08,-84.13"/>
<polygon fill="#63b8ff" stroke="#63b8ff" points="220.58,-84.09 217.08,-74.09 213.58,-84.09 220.58,-84.09"/>
</a>
</g>
</g>
<!-- Node19&#45;&gt;Node4 -->
<g id="edge27_Node000019_Node000004" class="edge">
<title>Node19&#45;&gt;Node4</title>
<g id="a_edge27_Node000019_Node000004"><a xlink:title=" ">
<path fill="none" stroke="#63b8ff" d="M348.46,-219.75C343.76,-212.42 336.91,-201.73 331.11,-192.7"/>
<polygon fill="#63b8ff" stroke="#63b8ff" points="333.93,-190.62 325.59,-184.09 328.04,-194.4 333.93,-190.62"/>
</a>
</g>
</g>
</g>
</svg>
