<?xml version="1.0" encoding="UTF-8" standalone="no"?>
<!DOCTYPE svg PUBLIC "-//W3C//DTD SVG 1.1//EN"
 "http://www.w3.org/Graphics/SVG/1.1/DTD/svg11.dtd">
<!-- Generated by graphviz version 2.43.0 (0)
 -->
<!-- Title: oled.h Pages: 1 -->
<svg width="755pt" height="302pt"
 viewBox="0.00 0.00 755.00 302.00" xmlns="http://www.w3.org/2000/svg" xmlns:xlink="http://www.w3.org/1999/xlink">
<g id="graph0" class="graph" transform="scale(1 1) rotate(0) translate(4 298)">
<title>oled.h</title>
<!-- Node1 -->
<g id="Node000001" class="node">
<title>Node1</title>
<g id="a_Node000001"><a xlink:title=" ">
<polygon fill="#999999" stroke="#666666" points="342.5,-294 295.5,-294 295.5,-275 342.5,-275 342.5,-294"/>
<text text-anchor="middle" x="319" y="-282" font-family="Helvetica,sans-Serif" font-size="10.00">oled.h</text>
</a>
</g>
</g>
<!-- Node2 -->
<g id="Node000002" class="node">
<title>Node2</title>
<g id="a_Node000002"><a xlink:title=" ">
<polygon fill="#e0e0e0" stroke="#999999" points="248,-129 186,-129 186,-110 248,-110 248,-129"/>
<text text-anchor="middle" x="217" y="-117" font-family="Helvetica,sans-Serif" font-size="10.00">stdbool.h</text>
</a>
</g>
</g>
<!-- Node1&#45;&gt;Node2 -->
<g id="edge1_Node000001_Node000002" class="edge">
<title>Node1&#45;&gt;Node2</title>
<g id="a_edge1_Node000001_Node000002"><a xlink:title=" ">
<path fill="none" stroke="#63b8ff" d="M309.62,-274.87C300.62,-266.3 286.95,-252.51 277,-239 252.94,-206.33 233.61,-162.59 223.87,-138.43"/>
<polygon fill="#63b8ff" stroke="#63b8ff" points="227.11,-137.11 220.2,-129.09 220.6,-139.67 227.11,-137.11"/>
</a>
</g>
</g>
<!-- Node3 -->
<g id="Node000003" class="node">
<title>Node3</title>
<g id="a_Node000003"><a xlink:title=" ">
<polygon fill="#e0e0e0" stroke="#999999" points="433.5,-184 380.5,-184 380.5,-165 433.5,-165 433.5,-184"/>
<text text-anchor="middle" x="407" y="-172" font-family="Helvetica,sans-Serif" font-size="10.00">stdint.h</text>
</a>
</g>
</g>
<!-- Node1&#45;&gt;Node3 -->
<g id="edge2_Node000001_Node000003" class="edge">
<title>Node1&#45;&gt;Node3</title>
<g id="a_edge2_Node000001_Node000003"><a xlink:title=" ">
<path fill="none" stroke="#63b8ff" d="M327.72,-274.94C336.46,-266.2 350.16,-252.09 361,-239 373.44,-223.98 386.36,-205.89 395.33,-192.87"/>
<polygon fill="#63b8ff" stroke="#63b8ff" points="398.36,-194.63 401.1,-184.4 392.57,-190.69 398.36,-194.63"/>
</a>
</g>
</g>
<!-- Node4 -->
<g id="Node000004" class="node">
<title>Node4</title>
<g id="a_Node000004"><a xlink:href="ssd1306_8h.html" target="_top" xlink:title=" ">
<polygon fill="white" stroke="#666666" points="352,-239 286,-239 286,-220 352,-220 352,-239"/>
<text text-anchor="middle" x="319" y="-227" font-family="Helvetica,sans-Serif" font-size="10.00">ssd1306.h</text>
</a>
</g>
</g>
<!-- Node1&#45;&gt;Node4 -->
<g id="edge3_Node000001_Node000004" class="edge">
<title>Node1&#45;&gt;Node4</title>
<g id="a_edge3_Node000001_Node000004"><a xlink:title=" ">
<path fill="none" stroke="#63b8ff" d="M319,-274.75C319,-267.8 319,-257.85 319,-249.13"/>
<polygon fill="#63b8ff" stroke="#63b8ff" points="322.5,-249.09 319,-239.09 315.5,-249.09 322.5,-249.09"/>
</a>
</g>
</g>
<!-- Node4&#45;&gt;Node2 -->
<g id="edge5_Node000004_Node000002" class="edge">
<title>Node4&#45;&gt;Node2</title>
<g id="a_edge5_Node000004_Node000002"><a xlink:title=" ">
<path fill="none" stroke="#63b8ff" d="M307.69,-219.88C296.76,-211.32 280,-197.54 267,-184 252.79,-169.2 238.5,-150.58 228.85,-137.34"/>
<polygon fill="#63b8ff" stroke="#63b8ff" points="231.65,-135.24 222.98,-129.15 225.96,-139.32 231.65,-135.24"/>
</a>
</g>
</g>
<!-- Node4&#45;&gt;Node3 -->
<g id="edge4_Node000004_Node000003" class="edge">
<title>Node4&#45;&gt;Node3</title>
<g id="a_edge4_Node000004_Node000003"><a xlink:title=" ">
<path fill="none" stroke="#63b8ff" d="M333.14,-219.98C346.79,-211.77 367.69,-199.18 383.78,-189.49"/>
<polygon fill="#63b8ff" stroke="#63b8ff" points="385.84,-192.33 392.6,-184.17 382.23,-186.33 385.84,-192.33"/>
</a>
</g>
</g>
<!-- Node5 -->
<g id="Node000005" class="node">
<title>Node5</title>
<g id="a_Node000005"><a xlink:href="ssd1306__i2c_8h.html" target="_top" xlink:title=" ">
<polygon fill="white" stroke="#666666" points="362,-184 276,-184 276,-165 362,-165 362,-184"/>
<text text-anchor="middle" x="319" y="-172" font-family="Helvetica,sans-Serif" font-size="10.00">ssd1306_i2c.h</text>
</a>
</g>
</g>
<!-- Node4&#45;&gt;Node5 -->
<g id="edge6_Node000004_Node000005" class="edge">
<title>Node4&#45;&gt;Node5</title>
<g id="a_edge6_Node000004_Node000005"><a xlink:title=" ">
<path fill="none" stroke="#63b8ff" d="M319,-219.75C319,-212.8 319,-202.85 319,-194.13"/>
<polygon fill="#63b8ff" stroke="#63b8ff" points="322.5,-194.09 319,-184.09 315.5,-194.09 322.5,-194.09"/>
</a>
</g>
</g>
<!-- Node5&#45;&gt;Node2 -->
<g id="edge15_Node000005_Node000002" class="edge">
<title>Node5&#45;&gt;Node2</title>
<g id="a_edge15_Node000005_Node000002"><a xlink:title=" ">
<path fill="none" stroke="#63b8ff" d="M302.61,-164.98C286.43,-156.57 261.43,-143.59 242.62,-133.81"/>
<polygon fill="#63b8ff" stroke="#63b8ff" points="244.17,-130.68 233.69,-129.17 240.95,-136.89 244.17,-130.68"/>
</a>
</g>
</g>
<!-- Node6 -->
<g id="Node000006" class="node">
<title>Node6</title>
<g id="a_Node000006"><a xlink:href="stdlib_8h.html" target="_top" xlink:title=" ">
<polygon fill="white" stroke="#666666" points="446.5,-129 393.5,-129 393.5,-110 446.5,-110 446.5,-129"/>
<text text-anchor="middle" x="420" y="-117" font-family="Helvetica,sans-Serif" font-size="10.00">stdlib.h</text>
</a>
</g>
</g>
<!-- Node5&#45;&gt;Node6 -->
<g id="edge7_Node000005_Node000006" class="edge">
<title>Node5&#45;&gt;Node6</title>
<g id="a_edge7_Node000005_Node000006"><a xlink:title=" ">
<path fill="none" stroke="#63b8ff" d="M335.23,-164.98C351.18,-156.61 375.78,-143.7 394.38,-133.95"/>
<polygon fill="#63b8ff" stroke="#63b8ff" points="396.25,-136.92 403.48,-129.17 393,-130.72 396.25,-136.92"/>
</a>
</g>
</g>
<!-- Node13 -->
<g id="Node000013" class="node">
<title>Node13</title>
<g id="a_Node000013"><a xlink:title=" ">
<polygon fill="#e0e0e0" stroke="#999999" points="555.5,-129 464.5,-129 464.5,-110 555.5,-110 555.5,-129"/>
<text text-anchor="middle" x="510" y="-117" font-family="Helvetica,sans-Serif" font-size="10.00">pico/platform.h</text>
</a>
</g>
</g>
<!-- Node5&#45;&gt;Node13 -->
<g id="edge16_Node000005_Node000013" class="edge">
<title>Node5&#45;&gt;Node13</title>
<g id="a_edge16_Node000005_Node000013"><a xlink:title=" ">
<path fill="none" stroke="#63b8ff" d="M349.69,-164.98C382.17,-155.97 433.6,-141.7 469.41,-131.76"/>
<polygon fill="#63b8ff" stroke="#63b8ff" points="470.37,-135.13 479.07,-129.08 468.5,-128.38 470.37,-135.13"/>
</a>
</g>
</g>
<!-- Node14 -->
<g id="Node000014" class="node">
<title>Node14</title>
<g id="a_Node000014"><a xlink:href="rp2__common_2hardware__i2c_2include_2hardware_2i2c_8h.html" target="_top" xlink:title=" ">
<polygon fill="white" stroke="#666666" points="355.5,-129 266.5,-129 266.5,-110 355.5,-110 355.5,-129"/>
<text text-anchor="middle" x="311" y="-117" font-family="Helvetica,sans-Serif" font-size="10.00">hardware/i2c.h</text>
</a>
</g>
</g>
<!-- Node5&#45;&gt;Node14 -->
<g id="edge17_Node000005_Node000014" class="edge">
<title>Node5&#45;&gt;Node14</title>
<g id="a_edge17_Node000005_Node000014"><a xlink:title=" ">
<path fill="none" stroke="#63b8ff" d="M317.68,-164.75C316.63,-157.8 315.13,-147.85 313.81,-139.13"/>
<polygon fill="#63b8ff" stroke="#63b8ff" points="317.25,-138.45 312.3,-129.09 310.33,-139.5 317.25,-138.45"/>
</a>
</g>
</g>
<!-- Node7 -->
<g id="Node000007" class="node">
<title>Node7</title>
<g id="a_Node000007"><a xlink:title=" ">
<polygon fill="#e0e0e0" stroke="#999999" points="411,-19 365,-19 365,0 411,0 411,-19"/>
<text text-anchor="middle" x="388" y="-7" font-family="Helvetica,sans-Serif" font-size="10.00">pico.h</text>
</a>
</g>
</g>
<!-- Node6&#45;&gt;Node7 -->
<g id="edge8_Node000006_Node000007" class="edge">
<title>Node6&#45;&gt;Node7</title>
<g id="a_edge8_Node000006_Node000007"><a xlink:title=" ">
<path fill="none" stroke="#63b8ff" d="M417.38,-109.66C412.18,-92.09 400.43,-52.45 393.47,-28.95"/>
<polygon fill="#63b8ff" stroke="#63b8ff" points="396.76,-27.75 390.57,-19.16 390.05,-29.74 396.76,-27.75"/>
</a>
</g>
</g>
<!-- Node8 -->
<g id="Node000008" class="node">
<title>Node8</title>
<g id="a_Node000008"><a xlink:title=" ">
<polygon fill="#e0e0e0" stroke="#999999" points="521.5,-74 448.5,-74 448.5,-55 521.5,-55 521.5,-74"/>
<text text-anchor="middle" x="485" y="-62" font-family="Helvetica,sans-Serif" font-size="10.00">pico/stdio.h</text>
</a>
</g>
</g>
<!-- Node6&#45;&gt;Node8 -->
<g id="edge9_Node000006_Node000008" class="edge">
<title>Node6&#45;&gt;Node8</title>
<g id="a_edge9_Node000006_Node000008"><a xlink:title=" ">
<path fill="none" stroke="#63b8ff" d="M430.44,-109.98C440.15,-102.07 454.82,-90.11 466.5,-80.58"/>
<polygon fill="#63b8ff" stroke="#63b8ff" points="468.83,-83.2 474.37,-74.17 464.4,-77.78 468.83,-83.2"/>
</a>
</g>
</g>
<!-- Node9 -->
<g id="Node000009" class="node">
<title>Node9</title>
<g id="a_Node000009"><a xlink:href="common_2pico__time_2include_2pico_2time_8h.html" target="_top" xlink:title=" ">
<polygon fill="white" stroke="#666666" points="391.5,-74 320.5,-74 320.5,-55 391.5,-55 391.5,-74"/>
<text text-anchor="middle" x="356" y="-62" font-family="Helvetica,sans-Serif" font-size="10.00">pico/time.h</text>
</a>
</g>
</g>
<!-- Node6&#45;&gt;Node9 -->
<g id="edge10_Node000006_Node000009" class="edge">
<title>Node6&#45;&gt;Node9</title>
<g id="a_edge10_Node000006_Node000009"><a xlink:title=" ">
<path fill="none" stroke="#63b8ff" d="M409.72,-109.98C400.16,-102.07 385.72,-90.11 374.22,-80.58"/>
<polygon fill="#63b8ff" stroke="#63b8ff" points="376.4,-77.85 366.47,-74.17 371.94,-83.24 376.4,-77.85"/>
</a>
</g>
</g>
<!-- Node11 -->
<g id="Node000011" class="node">
<title>Node11</title>
<g id="a_Node000011"><a xlink:title=" ">
<polygon fill="#e0e0e0" stroke="#999999" points="634.5,-74 539.5,-74 539.5,-55 634.5,-55 634.5,-74"/>
<text text-anchor="middle" x="587" y="-62" font-family="Helvetica,sans-Serif" font-size="10.00">hardware/gpio.h</text>
</a>
</g>
</g>
<!-- Node6&#45;&gt;Node11 -->
<g id="edge13_Node000006_Node000011" class="edge">
<title>Node6&#45;&gt;Node11</title>
<g id="a_edge13_Node000006_Node000011"><a xlink:title=" ">
<path fill="none" stroke="#63b8ff" d="M446.83,-109.98C474.87,-101.09 519.05,-87.07 550.3,-77.15"/>
<polygon fill="#63b8ff" stroke="#63b8ff" points="551.49,-80.44 559.96,-74.08 549.37,-73.77 551.49,-80.44"/>
</a>
</g>
</g>
<!-- Node12 -->
<g id="Node000012" class="node">
<title>Node12</title>
<g id="a_Node000012"><a xlink:title=" ">
<polygon fill="#e0e0e0" stroke="#999999" points="747,-74 653,-74 653,-55 747,-55 747,-74"/>
<text text-anchor="middle" x="700" y="-62" font-family="Helvetica,sans-Serif" font-size="10.00">hardware/uart.h</text>
</a>
</g>
</g>
<!-- Node6&#45;&gt;Node12 -->
<g id="edge14_Node000006_Node000012" class="edge">
<title>Node6&#45;&gt;Node12</title>
<g id="a_edge14_Node000006_Node000012"><a xlink:title=" ">
<path fill="none" stroke="#63b8ff" d="M446.7,-112.03C449.83,-111.32 452.98,-110.63 456,-110 519.68,-96.68 593.19,-83.59 642.74,-75.09"/>
<polygon fill="#63b8ff" stroke="#63b8ff" points="643.36,-78.53 652.63,-73.4 642.18,-71.63 643.36,-78.53"/>
</a>
</g>
</g>
<!-- Node9&#45;&gt;Node7 -->
<g id="edge11_Node000009_Node000007" class="edge">
<title>Node9&#45;&gt;Node7</title>
<g id="a_edge11_Node000009_Node000007"><a xlink:title=" ">
<path fill="none" stroke="#63b8ff" d="M361.28,-54.75C365.71,-47.42 372.16,-36.73 377.62,-27.7"/>
<polygon fill="#63b8ff" stroke="#63b8ff" points="380.64,-29.46 382.81,-19.09 374.65,-25.84 380.64,-29.46"/>
</a>
</g>
</g>
<!-- Node10 -->
<g id="Node000010" class="node">
<title>Node10</title>
<g id="a_Node000010"><a xlink:title=" ">
<polygon fill="#e0e0e0" stroke="#999999" points="346.5,-19 245.5,-19 245.5,0 346.5,0 346.5,-19"/>
<text text-anchor="middle" x="296" y="-7" font-family="Helvetica,sans-Serif" font-size="10.00">hardware/timer.h</text>
</a>
</g>
</g>
<!-- Node9&#45;&gt;Node10 -->
<g id="edge12_Node000009_Node000010" class="edge">
<title>Node9&#45;&gt;Node10</title>
<g id="a_edge12_Node000009_Node000010"><a xlink:title=" ">
<path fill="none" stroke="#63b8ff" d="M346.36,-54.98C337.49,-47.15 324.13,-35.34 313.39,-25.86"/>
<polygon fill="#63b8ff" stroke="#63b8ff" points="315.63,-23.17 305.82,-19.17 310.99,-28.41 315.63,-23.17"/>
</a>
</g>
</g>
<!-- Node14&#45;&gt;Node7 -->
<g id="edge18_Node000014_Node000007" class="edge">
<title>Node14&#45;&gt;Node7</title>
<g id="a_edge18_Node000014_Node000007"><a xlink:title=" ">
<path fill="none" stroke="#63b8ff" d="M308.67,-109.99C305.65,-97.11 301.88,-72.33 312,-55 321.45,-38.82 339.27,-27.93 355.28,-20.98"/>
<polygon fill="#63b8ff" stroke="#63b8ff" points="356.92,-24.09 364.93,-17.14 354.34,-17.58 356.92,-24.09"/>
</a>
</g>
</g>
<!-- Node14&#45;&gt;Node9 -->
<g id="edge19_Node000014_Node000009" class="edge">
<title>Node14&#45;&gt;Node9</title>
<g id="a_edge19_Node000014_Node000009"><a xlink:title=" ">
<path fill="none" stroke="#63b8ff" d="M318.43,-109.75C324.85,-102.18 334.31,-91.05 342.12,-81.84"/>
<polygon fill="#63b8ff" stroke="#63b8ff" points="344.9,-83.98 348.71,-74.09 339.57,-79.45 344.9,-83.98"/>
</a>
</g>
</g>
<!-- Node15 -->
<g id="Node000015" class="node">
<title>Node15</title>
<g id="a_Node000015"><a xlink:title=" ">
<polygon fill="#e0e0e0" stroke="#999999" points="263.5,-74 138.5,-74 138.5,-55 263.5,-55 263.5,-74"/>
<text text-anchor="middle" x="201" y="-62" font-family="Helvetica,sans-Serif" font-size="10.00">hardware/structs/i2c.h</text>
</a>
</g>
</g>
<!-- Node14&#45;&gt;Node15 -->
<g id="edge20_Node000014_Node000015" class="edge">
<title>Node14&#45;&gt;Node15</title>
<g id="a_edge20_Node000014_Node000015"><a xlink:title=" ">
<path fill="none" stroke="#63b8ff" d="M293.33,-109.98C275.71,-101.5 248.42,-88.35 228.07,-78.54"/>
<polygon fill="#63b8ff" stroke="#63b8ff" points="229.52,-75.36 218.99,-74.17 226.48,-81.66 229.52,-75.36"/>
</a>
</g>
</g>
<!-- Node16 -->
<g id="Node000016" class="node">
<title>Node16</title>
<g id="a_Node000016"><a xlink:title=" ">
<polygon fill="#e0e0e0" stroke="#999999" points="120,-74 0,-74 0,-55 120,-55 120,-74"/>
<text text-anchor="middle" x="60" y="-62" font-family="Helvetica,sans-Serif" font-size="10.00">hardware/regs/dreq.h</text>
</a>
</g>
</g>
<!-- Node14&#45;&gt;Node16 -->
<g id="edge21_Node000014_Node000016" class="edge">
<title>Node14&#45;&gt;Node16</title>
<g id="a_edge21_Node000014_Node000016"><a xlink:title=" ">
<path fill="none" stroke="#63b8ff" d="M270.67,-109.98C227.16,-100.8 157.8,-86.15 110.65,-76.19"/>
<polygon fill="#63b8ff" stroke="#63b8ff" points="111.15,-72.72 100.64,-74.08 109.7,-79.57 111.15,-72.72"/>
</a>
</g>
</g>
</g>
</svg>
