<?xml version="1.0" encoding="UTF-8" standalone="no"?>
<!DOCTYPE svg PUBLIC "-//W3C//DTD SVG 1.1//EN"
 "http://www.w3.org/Graphics/SVG/1.1/DTD/svg11.dtd">
<!-- Generated by graphviz version 2.43.0 (0)
 -->
<!-- Title: parser.hpp Pages: 1 -->
<svg width="362pt" height="137pt"
 viewBox="0.00 0.00 362.00 137.00" xmlns="http://www.w3.org/2000/svg" xmlns:xlink="http://www.w3.org/1999/xlink">
<g id="graph0" class="graph" transform="scale(1 1) rotate(0) translate(4 133)">
<title>parser.hpp</title>
<!-- Node1 -->
<g id="Node000001" class="node">
<title>Node1</title>
<g id="a_Node000001"><a xlink:title="Define the yy::parser class.">
<polygon fill="#999999" stroke="#666666" points="186,-129 118,-129 118,-110 186,-110 186,-129"/>
<text text-anchor="middle" x="152" y="-117" font-family="Helvetica,sans-Serif" font-size="10.00">parser.hpp</text>
</a>
</g>
</g>
<!-- Node2 -->
<g id="Node000002" class="node">
<title>Node2</title>
<g id="a_Node000002"><a xlink:href="lexer_8cpp.html" target="_top" xlink:title=" ">
<polygon fill="white" stroke="#666666" points="62,-19 0,-19 0,0 62,0 62,-19"/>
<text text-anchor="middle" x="31" y="-7" font-family="Helvetica,sans-Serif" font-size="10.00">lexer.cpp</text>
</a>
</g>
</g>
<!-- Node1&#45;&gt;Node2 -->
<g id="edge1_Node000001_Node000002" class="edge">
<title>Node1&#45;&gt;Node2</title>
<g id="a_edge1_Node000001_Node000002"><a xlink:title=" ">
<path fill="none" stroke="#63b8ff" d="M134.53,-102.91C108.68,-79.83 61.1,-37.37 40.7,-19.16"/>
<polygon fill="#63b8ff" stroke="#63b8ff" points="132.31,-105.61 142.1,-109.66 136.97,-100.39 132.31,-105.61"/>
</a>
</g>
</g>
<!-- Node3 -->
<g id="Node000003" class="node">
<title>Node3</title>
<g id="a_Node000003"><a xlink:href="parser_8cpp.html" target="_top" xlink:title=" ">
<polygon fill="white" stroke="#666666" points="148,-19 80,-19 80,0 148,0 148,-19"/>
<text text-anchor="middle" x="114" y="-7" font-family="Helvetica,sans-Serif" font-size="10.00">parser.cpp</text>
</a>
</g>
</g>
<!-- Node1&#45;&gt;Node3 -->
<g id="edge2_Node000001_Node000003" class="edge">
<title>Node1&#45;&gt;Node3</title>
<g id="a_edge2_Node000001_Node000003"><a xlink:title=" ">
<path fill="none" stroke="#63b8ff" d="M144.25,-100.28C140.94,-92.27 137.13,-82.73 134,-74 127.05,-54.64 120.09,-31.5 116.5,-19.2"/>
<polygon fill="#63b8ff" stroke="#63b8ff" points="141.11,-101.85 148.21,-109.71 147.57,-99.14 141.11,-101.85"/>
</a>
</g>
</g>
<!-- Node4 -->
<g id="Node000004" class="node">
<title>Node4</title>
<g id="a_Node000004"><a xlink:href="pio__assembler_8cpp.html" target="_top" xlink:title=" ">
<polygon fill="white" stroke="#666666" points="354,-19 246,-19 246,0 354,0 354,-19"/>
<text text-anchor="middle" x="300" y="-7" font-family="Helvetica,sans-Serif" font-size="10.00">pio_assembler.cpp</text>
</a>
</g>
</g>
<!-- Node1&#45;&gt;Node4 -->
<g id="edge3_Node000001_Node000004" class="edge">
<title>Node1&#45;&gt;Node4</title>
<g id="a_edge3_Node000001_Node000004"><a xlink:title=" ">
<path fill="none" stroke="#63b8ff" d="M188.56,-106.38C207.75,-98.91 230.96,-88.07 249,-74 269.3,-58.18 286.51,-32.76 294.77,-19.38"/>
<polygon fill="#63b8ff" stroke="#63b8ff" points="187.09,-103.19 178.94,-109.97 189.54,-109.75 187.09,-103.19"/>
</a>
</g>
</g>
<!-- Node5 -->
<g id="Node000005" class="node">
<title>Node5</title>
<g id="a_Node000005"><a xlink:href="pio__assembler_8h.html" target="_top" xlink:title=" ">
<polygon fill="white" stroke="#666666" points="239.5,-74 142.5,-74 142.5,-55 239.5,-55 239.5,-74"/>
<text text-anchor="middle" x="191" y="-62" font-family="Helvetica,sans-Serif" font-size="10.00">pio_assembler.h</text>
</a>
</g>
</g>
<!-- Node1&#45;&gt;Node5 -->
<g id="edge4_Node000001_Node000005" class="edge">
<title>Node1&#45;&gt;Node5</title>
<g id="a_edge4_Node000001_Node000005"><a xlink:title=" ">
<path fill="none" stroke="#63b8ff" d="M164.38,-101.67C171.14,-92.5 179.21,-81.52 184.68,-74.09"/>
<polygon fill="#63b8ff" stroke="#63b8ff" points="161.55,-99.62 158.44,-109.75 167.19,-103.77 161.55,-99.62"/>
</a>
</g>
</g>
<!-- Node5&#45;&gt;Node2 -->
<g id="edge5_Node000005_Node000002" class="edge">
<title>Node5&#45;&gt;Node2</title>
<g id="a_edge5_Node000005_Node000002"><a xlink:title=" ">
<path fill="none" stroke="#63b8ff" d="M155.67,-51.8C125.81,-41.91 83.73,-27.97 56.91,-19.08"/>
<polygon fill="#63b8ff" stroke="#63b8ff" points="154.7,-55.16 165.29,-54.98 156.9,-48.52 154.7,-55.16"/>
</a>
</g>
</g>
<!-- Node5&#45;&gt;Node3 -->
<g id="edge7_Node000005_Node000003" class="edge">
<title>Node5&#45;&gt;Node3</title>
<g id="a_edge7_Node000005_Node000003"><a xlink:title=" ">
<path fill="none" stroke="#63b8ff" d="M170.15,-49.15C156.24,-39.57 138.39,-27.29 126.6,-19.17"/>
<polygon fill="#63b8ff" stroke="#63b8ff" points="168.41,-52.2 178.63,-54.98 172.38,-46.43 168.41,-52.2"/>
</a>
</g>
</g>
<!-- Node5&#45;&gt;Node4 -->
<g id="edge8_Node000005_Node000004" class="edge">
<title>Node5&#45;&gt;Node4</title>
<g id="a_edge8_Node000005_Node000004"><a xlink:title=" ">
<path fill="none" stroke="#63b8ff" d="M217.73,-50.5C237.79,-40.75 264.68,-27.68 282.17,-19.17"/>
<polygon fill="#63b8ff" stroke="#63b8ff" points="215.98,-47.46 208.51,-54.98 219.04,-53.76 215.98,-47.46"/>
</a>
</g>
</g>
<!-- Node6 -->
<g id="Node000006" class="node">
<title>Node6</title>
<g id="a_Node000006"><a xlink:href="main_8cpp.html" target="_top" xlink:title=" ">
<polygon fill="white" stroke="#666666" points="228,-19 166,-19 166,0 228,0 228,-19"/>
<text text-anchor="middle" x="197" y="-7" font-family="Helvetica,sans-Serif" font-size="10.00">main.cpp</text>
</a>
</g>
</g>
<!-- Node5&#45;&gt;Node6 -->
<g id="edge6_Node000005_Node000006" class="edge">
<title>Node5&#45;&gt;Node6</title>
<g id="a_edge6_Node000005_Node000006"><a xlink:title=" ">
<path fill="none" stroke="#63b8ff" d="M193.13,-44.66C194.12,-35.93 195.25,-25.99 196.03,-19.09"/>
<polygon fill="#63b8ff" stroke="#63b8ff" points="189.64,-44.42 191.99,-54.75 196.59,-45.21 189.64,-44.42"/>
</a>
</g>
</g>
</g>
</svg>
