<?xml version="1.0" encoding="UTF-8" standalone="no"?>
<!DOCTYPE svg PUBLIC "-//W3C//DTD SVG 1.1//EN"
 "http://www.w3.org/Graphics/SVG/1.1/DTD/svg11.dtd">
<!-- Generated by graphviz version 2.43.0 (0)
 -->
<!-- Title: parser.hpp Pages: 1 -->
<svg width="1006pt" height="192pt"
 viewBox="0.00 0.00 1006.33 192.00" xmlns="http://www.w3.org/2000/svg" xmlns:xlink="http://www.w3.org/1999/xlink">
<g id="graph0" class="graph" transform="scale(1 1) rotate(0) translate(4 188)">
<title>parser.hpp</title>
<!-- Node1 -->
<g id="Node000001" class="node">
<title>Node1</title>
<g id="a_Node000001"><a xlink:title="Define the yy::parser class.">
<polygon fill="#999999" stroke="#666666" points="681.33,-184 613.33,-184 613.33,-165 681.33,-165 681.33,-184"/>
<text text-anchor="middle" x="647.33" y="-172" font-family="Helvetica,sans-Serif" font-size="10.00">parser.hpp</text>
</a>
</g>
</g>
<!-- Node2 -->
<g id="Node000002" class="node">
<title>Node2</title>
<g id="a_Node000002"><a xlink:title=" ">
<polygon fill="#e0e0e0" stroke="#999999" points="68.33,-19 24.33,-19 24.33,0 68.33,0 68.33,-19"/>
<text text-anchor="middle" x="46.33" y="-7" font-family="Helvetica,sans-Serif" font-size="10.00">string</text>
</a>
</g>
</g>
<!-- Node1&#45;&gt;Node2 -->
<g id="edge1_Node000001_Node000002" class="edge">
<title>Node1&#45;&gt;Node2</title>
<g id="a_edge1_Node000001_Node000002"><a xlink:title=" ">
<path fill="none" stroke="#63b8ff" d="M613.18,-174.01C491.13,-175.01 79.66,-171.03 4.33,-74 -8.03,-58.09 9.22,-38.61 25.2,-25.46"/>
<polygon fill="#63b8ff" stroke="#63b8ff" points="27.51,-28.09 33.28,-19.21 23.23,-22.56 27.51,-28.09"/>
</a>
</g>
</g>
<!-- Node3 -->
<g id="Node000003" class="node">
<title>Node3</title>
<g id="a_Node000003"><a xlink:title=" ">
<polygon fill="#e0e0e0" stroke="#999999" points="702.83,-129 647.83,-129 647.83,-110 702.83,-110 702.83,-129"/>
<text text-anchor="middle" x="675.33" y="-117" font-family="Helvetica,sans-Serif" font-size="10.00">fstream</text>
</a>
</g>
</g>
<!-- Node1&#45;&gt;Node3 -->
<g id="edge2_Node000001_Node000003" class="edge">
<title>Node1&#45;&gt;Node3</title>
<g id="a_edge2_Node000001_Node000003"><a xlink:title=" ">
<path fill="none" stroke="#63b8ff" d="M651.95,-164.75C655.78,-157.49 661.35,-146.95 666.09,-137.98"/>
<polygon fill="#63b8ff" stroke="#63b8ff" points="669.21,-139.57 670.79,-129.09 663.02,-136.3 669.21,-139.57"/>
</a>
</g>
</g>
<!-- Node4 -->
<g id="Node000004" class="node">
<title>Node4</title>
<g id="a_Node000004"><a xlink:title=" ">
<polygon fill="#e0e0e0" stroke="#999999" points="777.33,-129 721.33,-129 721.33,-110 777.33,-110 777.33,-129"/>
<text text-anchor="middle" x="749.33" y="-117" font-family="Helvetica,sans-Serif" font-size="10.00">sstream</text>
</a>
</g>
</g>
<!-- Node1&#45;&gt;Node4 -->
<g id="edge3_Node000001_Node000004" class="edge">
<title>Node1&#45;&gt;Node4</title>
<g id="a_edge3_Node000001_Node000004"><a xlink:title=" ">
<path fill="none" stroke="#63b8ff" d="M663.72,-164.98C679.9,-156.57 704.9,-143.59 723.71,-133.81"/>
<polygon fill="#63b8ff" stroke="#63b8ff" points="725.38,-136.89 732.64,-129.17 722.15,-130.68 725.38,-136.89"/>
</a>
</g>
</g>
<!-- Node5 -->
<g id="Node000005" class="node">
<title>Node5</title>
<g id="a_Node000005"><a xlink:href="pio__types_8h.html" target="_top" xlink:title=" ">
<polygon fill="white" stroke="#666666" points="392.83,-129 319.83,-129 319.83,-110 392.83,-110 392.83,-129"/>
<text text-anchor="middle" x="356.33" y="-117" font-family="Helvetica,sans-Serif" font-size="10.00">pio_types.h</text>
</a>
</g>
</g>
<!-- Node1&#45;&gt;Node5 -->
<g id="edge4_Node000001_Node000005" class="edge">
<title>Node1&#45;&gt;Node5</title>
<g id="a_edge4_Node000001_Node000005"><a xlink:title=" ">
<path fill="none" stroke="#63b8ff" d="M613.09,-167.26C561.07,-157.79 462,-139.75 403.3,-129.05"/>
<polygon fill="#63b8ff" stroke="#63b8ff" points="403.64,-125.56 393.18,-127.21 402.39,-132.45 403.64,-125.56"/>
</a>
</g>
</g>
<!-- Node10 -->
<g id="Node000010" class="node">
<title>Node10</title>
<g id="a_Node000010"><a xlink:title=" ">
<polygon fill="#e0e0e0" stroke="#999999" points="594.83,-74 547.83,-74 547.83,-55 594.83,-55 594.83,-74"/>
<text text-anchor="middle" x="571.33" y="-62" font-family="Helvetica,sans-Serif" font-size="10.00">vector</text>
</a>
</g>
</g>
<!-- Node1&#45;&gt;Node10 -->
<g id="edge19_Node000001_Node000010" class="edge">
<title>Node1&#45;&gt;Node10</title>
<g id="a_edge19_Node000001_Node000010"><a xlink:title=" ">
<path fill="none" stroke="#63b8ff" d="M637.89,-164.92C628.84,-156.38 615.14,-142.62 605.33,-129 594.95,-114.59 585.62,-96.62 579.37,-83.48"/>
<polygon fill="#63b8ff" stroke="#63b8ff" points="582.43,-81.75 575.06,-74.14 576.07,-84.68 582.43,-81.75"/>
</a>
</g>
</g>
<!-- Node12 -->
<g id="Node000012" class="node">
<title>Node12</title>
<g id="a_Node000012"><a xlink:href="location_8h.html" target="_top" xlink:title="Define the yy::location class.">
<polygon fill="white" stroke="#666666" points="78.83,-74 13.83,-74 13.83,-55 78.83,-55 78.83,-74"/>
<text text-anchor="middle" x="46.33" y="-62" font-family="Helvetica,sans-Serif" font-size="10.00">location.h</text>
</a>
</g>
</g>
<!-- Node1&#45;&gt;Node12 -->
<g id="edge20_Node000001_Node000012" class="edge">
<title>Node1&#45;&gt;Node12</title>
<g id="a_edge20_Node000001_Node000012"><a xlink:title=" ">
<path fill="none" stroke="#63b8ff" d="M613.28,-170.17C552.4,-163.95 420.96,-149.34 311.33,-129 231.31,-114.15 139.16,-90.59 87.33,-76.72"/>
<polygon fill="#63b8ff" stroke="#63b8ff" points="88.08,-73.3 77.51,-74.08 86.26,-80.06 88.08,-73.3"/>
</a>
</g>
</g>
<!-- Node13 -->
<g id="Node000013" class="node">
<title>Node13</title>
<g id="a_Node000013"><a xlink:title=" ">
<polygon fill="#e0e0e0" stroke="#999999" points="399.33,-19 339.33,-19 339.33,0 399.33,0 399.33,-19"/>
<text text-anchor="middle" x="369.33" y="-7" font-family="Helvetica,sans-Serif" font-size="10.00">iostream</text>
</a>
</g>
</g>
<!-- Node1&#45;&gt;Node13 -->
<g id="edge17_Node000001_Node000013" class="edge">
<title>Node1&#45;&gt;Node13</title>
<g id="a_edge17_Node000001_Node000013"><a xlink:title=" ">
<path fill="none" stroke="#63b8ff" d="M645.36,-164.84C639.55,-140.09 621.83,-69.89 604.33,-55 575.54,-30.51 468.83,-18.34 409.6,-13.36"/>
<polygon fill="#63b8ff" stroke="#63b8ff" points="409.72,-9.86 399.47,-12.54 409.16,-16.84 409.72,-9.86"/>
</a>
</g>
</g>
<!-- Node15 -->
<g id="Node000015" class="node">
<title>Node15</title>
<g id="a_Node000015"><a xlink:title=" ">
<polygon fill="#e0e0e0" stroke="#999999" points="844.83,-129 795.83,-129 795.83,-110 844.83,-110 844.83,-129"/>
<text text-anchor="middle" x="820.33" y="-117" font-family="Helvetica,sans-Serif" font-size="10.00">cstdlib</text>
</a>
</g>
</g>
<!-- Node1&#45;&gt;Node15 -->
<g id="edge16_Node000001_Node000015" class="edge">
<title>Node1&#45;&gt;Node15</title>
<g id="a_edge16_Node000001_Node000015"><a xlink:title=" ">
<path fill="none" stroke="#63b8ff" d="M675.12,-164.98C705.2,-155.77 753.21,-141.06 785.72,-131.1"/>
<polygon fill="#63b8ff" stroke="#63b8ff" points="787.15,-134.33 795.68,-128.05 785.1,-127.63 787.15,-134.33"/>
</a>
</g>
</g>
<!-- Node16 -->
<g id="Node000016" class="node">
<title>Node16</title>
<g id="a_Node000016"><a xlink:title=" ">
<polygon fill="#e0e0e0" stroke="#999999" points="927.83,-129 862.83,-129 862.83,-110 927.83,-110 927.83,-129"/>
<text text-anchor="middle" x="895.33" y="-117" font-family="Helvetica,sans-Serif" font-size="10.00">stdexcept</text>
</a>
</g>
</g>
<!-- Node1&#45;&gt;Node16 -->
<g id="edge18_Node000001_Node000016" class="edge">
<title>Node1&#45;&gt;Node16</title>
<g id="a_edge18_Node000001_Node000016"><a xlink:title=" ">
<path fill="none" stroke="#63b8ff" d="M681.55,-166.19C726.21,-156.64 804.35,-139.94 852.78,-129.59"/>
<polygon fill="#63b8ff" stroke="#63b8ff" points="853.59,-133 862.64,-127.49 852.13,-126.15 853.59,-133"/>
</a>
</g>
</g>
<!-- Node17 -->
<g id="Node000017" class="node">
<title>Node17</title>
<g id="a_Node000017"><a xlink:title=" ">
<polygon fill="#e0e0e0" stroke="#999999" points="998.33,-129 946.33,-129 946.33,-110 998.33,-110 998.33,-129"/>
<text text-anchor="middle" x="972.33" y="-117" font-family="Helvetica,sans-Serif" font-size="10.00">cassert</text>
</a>
</g>
</g>
<!-- Node1&#45;&gt;Node17 -->
<g id="edge21_Node000001_Node000017" class="edge">
<title>Node1&#45;&gt;Node17</title>
<g id="a_edge21_Node000001_Node000017"><a xlink:title=" ">
<path fill="none" stroke="#63b8ff" d="M681.42,-169.24C733.99,-162.45 838.17,-148.17 935.96,-129.13"/>
<polygon fill="#63b8ff" stroke="#63b8ff" points="936.87,-132.51 946.01,-127.15 935.52,-125.65 936.87,-132.51"/>
</a>
</g>
</g>
<!-- Node5&#45;&gt;Node2 -->
<g id="edge6_Node000005_Node000002" class="edge">
<title>Node5&#45;&gt;Node2</title>
<g id="a_edge6_Node000005_Node000002"><a xlink:title=" ">
<path fill="none" stroke="#63b8ff" d="M319.63,-116.77C272.82,-113.38 190.25,-103.4 126.33,-74 101.04,-62.37 76.69,-41.14 61.64,-26.44"/>
<polygon fill="#63b8ff" stroke="#63b8ff" points="63.82,-23.67 54.28,-19.06 58.86,-28.61 63.82,-23.67"/>
</a>
</g>
</g>
<!-- Node6 -->
<g id="Node000006" class="node">
<title>Node6</title>
<g id="a_Node000006"><a xlink:title=" ">
<polygon fill="#e0e0e0" stroke="#999999" points="423.33,-74 373.33,-74 373.33,-55 423.33,-55 423.33,-74"/>
<text text-anchor="middle" x="398.33" y="-62" font-family="Helvetica,sans-Serif" font-size="10.00">cstdint</text>
</a>
</g>
</g>
<!-- Node5&#45;&gt;Node6 -->
<g id="edge5_Node000005_Node000006" class="edge">
<title>Node5&#45;&gt;Node6</title>
<g id="a_edge5_Node000005_Node000006"><a xlink:title=" ">
<path fill="none" stroke="#63b8ff" d="M363.26,-109.75C369.2,-102.26 377.9,-91.28 385.15,-82.13"/>
<polygon fill="#63b8ff" stroke="#63b8ff" points="388.05,-84.1 391.52,-74.09 382.57,-79.75 388.05,-84.1"/>
</a>
</g>
</g>
<!-- Node7 -->
<g id="Node000007" class="node">
<title>Node7</title>
<g id="a_Node000007"><a xlink:title=" ">
<polygon fill="#e0e0e0" stroke="#999999" points="479.33,-74 441.33,-74 441.33,-55 479.33,-55 479.33,-74"/>
<text text-anchor="middle" x="460.33" y="-62" font-family="Helvetica,sans-Serif" font-size="10.00">map</text>
</a>
</g>
</g>
<!-- Node5&#45;&gt;Node7 -->
<g id="edge7_Node000005_Node000007" class="edge">
<title>Node5&#45;&gt;Node7</title>
<g id="a_edge7_Node000005_Node000007"><a xlink:title=" ">
<path fill="none" stroke="#63b8ff" d="M373.04,-109.98C389.54,-101.57 415.03,-88.59 434.21,-78.81"/>
<polygon fill="#63b8ff" stroke="#63b8ff" points="435.99,-81.83 443.31,-74.17 432.82,-75.59 435.99,-81.83"/>
</a>
</g>
</g>
<!-- Node8 -->
<g id="Node000008" class="node">
<title>Node8</title>
<g id="a_Node000008"><a xlink:title=" ">
<polygon fill="#e0e0e0" stroke="#999999" points="529.33,-74 497.33,-74 497.33,-55 529.33,-55 529.33,-74"/>
<text text-anchor="middle" x="513.33" y="-62" font-family="Helvetica,sans-Serif" font-size="10.00">set</text>
</a>
</g>
</g>
<!-- Node5&#45;&gt;Node8 -->
<g id="edge8_Node000005_Node000008" class="edge">
<title>Node5&#45;&gt;Node8</title>
<g id="a_edge8_Node000005_Node000008"><a xlink:title=" ">
<path fill="none" stroke="#63b8ff" d="M381.64,-109.99C406.35,-101.68 445.25,-88.57 487.54,-74.26"/>
<polygon fill="#63b8ff" stroke="#63b8ff" points="488.84,-77.52 497.19,-70.99 486.6,-70.88 488.84,-77.52"/>
</a>
</g>
</g>
<!-- Node9 -->
<g id="Node000009" class="node">
<title>Node9</title>
<g id="a_Node000009"><a xlink:title=" ">
<polygon fill="#e0e0e0" stroke="#999999" points="180.83,-74 135.83,-74 135.83,-55 180.83,-55 180.83,-74"/>
<text text-anchor="middle" x="158.33" y="-62" font-family="Helvetica,sans-Serif" font-size="10.00">utility</text>
</a>
</g>
</g>
<!-- Node5&#45;&gt;Node9 -->
<g id="edge9_Node000005_Node000009" class="edge">
<title>Node5&#45;&gt;Node9</title>
<g id="a_edge9_Node000005_Node000009"><a xlink:title=" ">
<path fill="none" stroke="#63b8ff" d="M324.52,-109.98C287.84,-100.17 227.88,-84.12 190.9,-74.22"/>
<polygon fill="#63b8ff" stroke="#63b8ff" points="191.68,-70.8 181.11,-71.6 189.87,-77.57 191.68,-70.8"/>
</a>
</g>
</g>
<!-- Node5&#45;&gt;Node10 -->
<g id="edge10_Node000005_Node000010" class="edge">
<title>Node5&#45;&gt;Node10</title>
<g id="a_edge10_Node000005_Node000010"><a xlink:title=" ">
<path fill="none" stroke="#63b8ff" d="M391.93,-109.93C426.64,-101.55 481.16,-88.3 537.71,-74.13"/>
<polygon fill="#63b8ff" stroke="#63b8ff" points="538.7,-77.49 547.54,-71.66 536.99,-70.7 538.7,-77.49"/>
</a>
</g>
</g>
<!-- Node11 -->
<g id="Node000011" class="node">
<title>Node11</title>
<g id="a_Node000011"><a xlink:title=" ">
<polygon fill="#e0e0e0" stroke="#999999" points="257.33,-74 199.33,-74 199.33,-55 257.33,-55 257.33,-74"/>
<text text-anchor="middle" x="228.33" y="-62" font-family="Helvetica,sans-Serif" font-size="10.00">memory</text>
</a>
</g>
</g>
<!-- Node5&#45;&gt;Node11 -->
<g id="edge11_Node000005_Node000011" class="edge">
<title>Node5&#45;&gt;Node11</title>
<g id="a_edge11_Node000005_Node000011"><a xlink:title=" ">
<path fill="none" stroke="#63b8ff" d="M335.76,-109.98C314.89,-101.34 282.36,-87.87 258.55,-78.02"/>
<polygon fill="#63b8ff" stroke="#63b8ff" points="259.85,-74.76 249.27,-74.17 257.17,-81.23 259.85,-74.76"/>
</a>
</g>
</g>
<!-- Node5&#45;&gt;Node12 -->
<g id="edge12_Node000005_Node000012" class="edge">
<title>Node5&#45;&gt;Node12</title>
<g id="a_edge12_Node000005_Node000012"><a xlink:title=" ">
<path fill="none" stroke="#63b8ff" d="M319.72,-112.44C268.88,-103.99 174.07,-88.13 93.33,-74 91.87,-73.75 90.39,-73.49 88.9,-73.22"/>
<polygon fill="#63b8ff" stroke="#63b8ff" points="89.39,-69.75 78.94,-71.45 88.17,-76.65 89.39,-69.75"/>
</a>
</g>
</g>
<!-- Node14 -->
<g id="Node000014" class="node">
<title>Node14</title>
<g id="a_Node000014"><a xlink:href="pio__enums_8h.html" target="_top" xlink:title=" ">
<polygon fill="white" stroke="#666666" points="354.83,-74 275.83,-74 275.83,-55 354.83,-55 354.83,-74"/>
<text text-anchor="middle" x="315.33" y="-62" font-family="Helvetica,sans-Serif" font-size="10.00">pio_enums.h</text>
</a>
</g>
</g>
<!-- Node5&#45;&gt;Node14 -->
<g id="edge15_Node000005_Node000014" class="edge">
<title>Node5&#45;&gt;Node14</title>
<g id="a_edge15_Node000005_Node000014"><a xlink:title=" ">
<path fill="none" stroke="#63b8ff" d="M349.56,-109.75C343.77,-102.26 335.27,-91.28 328.19,-82.13"/>
<polygon fill="#63b8ff" stroke="#63b8ff" points="330.86,-79.86 321.97,-74.09 325.32,-84.14 330.86,-79.86"/>
</a>
</g>
</g>
<!-- Node12&#45;&gt;Node2 -->
<g id="edge14_Node000012_Node000002" class="edge">
<title>Node12&#45;&gt;Node2</title>
<g id="a_edge14_Node000012_Node000002"><a xlink:title=" ">
<path fill="none" stroke="#63b8ff" d="M46.33,-54.75C46.33,-47.8 46.33,-37.85 46.33,-29.13"/>
<polygon fill="#63b8ff" stroke="#63b8ff" points="49.83,-29.09 46.33,-19.09 42.83,-29.09 49.83,-29.09"/>
</a>
</g>
</g>
<!-- Node12&#45;&gt;Node13 -->
<g id="edge13_Node000012_Node000013" class="edge">
<title>Node12&#45;&gt;Node13</title>
<g id="a_edge13_Node000012_Node000013"><a xlink:title=" ">
<path fill="none" stroke="#63b8ff" d="M79.08,-58.13C138.48,-48.38 263.83,-27.81 328.63,-17.18"/>
<polygon fill="#63b8ff" stroke="#63b8ff" points="329.56,-20.57 338.86,-15.5 328.43,-13.66 329.56,-20.57"/>
</a>
</g>
</g>
</g>
</svg>
