<?xml version="1.0" encoding="UTF-8" standalone="no"?>
<!DOCTYPE svg PUBLIC "-//W3C//DTD SVG 1.1//EN"
 "http://www.w3.org/Graphics/SVG/1.1/DTD/svg11.dtd">
<!-- Generated by graphviz version 2.43.0 (0)
 -->
<!-- Title: parser.cpp Pages: 1 -->
<svg width="727pt" height="302pt"
 viewBox="0.00 0.00 726.88 302.00" xmlns="http://www.w3.org/2000/svg" xmlns:xlink="http://www.w3.org/1999/xlink">
<g id="graph0" class="graph" transform="scale(1 1) rotate(0) translate(4 298)">
<title>parser.cpp</title>
<!-- Node1 -->
<g id="Node000001" class="node">
<title>Node1</title>
<g id="a_Node000001"><a xlink:title=" ">
<polygon fill="#999999" stroke="#666666" points="369.88,-294 301.88,-294 301.88,-275 369.88,-275 369.88,-294"/>
<text text-anchor="middle" x="335.88" y="-282" font-family="Helvetica,sans-Serif" font-size="10.00">parser.cpp</text>
</a>
</g>
</g>
<!-- Node2 -->
<g id="Node000002" class="node">
<title>Node2</title>
<g id="a_Node000002"><a xlink:href="parser_8hpp.html" target="_top" xlink:title="Define the yy::parser class.">
<polygon fill="white" stroke="#666666" points="408.88,-184 340.88,-184 340.88,-165 408.88,-165 408.88,-184"/>
<text text-anchor="middle" x="374.88" y="-172" font-family="Helvetica,sans-Serif" font-size="10.00">parser.hpp</text>
</a>
</g>
</g>
<!-- Node1&#45;&gt;Node2 -->
<g id="edge1_Node000001_Node000002" class="edge">
<title>Node1&#45;&gt;Node2</title>
<g id="a_edge1_Node000001_Node000002"><a xlink:title=" ">
<path fill="none" stroke="#63b8ff" d="M339.93,-274.74C343.96,-265.84 350.22,-251.61 354.88,-239 360.4,-224.08 365.77,-206.84 369.55,-194.09"/>
<polygon fill="#63b8ff" stroke="#63b8ff" points="372.99,-194.8 372.43,-184.22 366.27,-192.84 372.99,-194.8"/>
</a>
</g>
</g>
<!-- Node19 -->
<g id="Node000019" class="node">
<title>Node19</title>
<g id="a_Node000019"><a xlink:href="pio__assembler_8h.html" target="_top" xlink:title=" ">
<polygon fill="white" stroke="#666666" points="346.38,-239 249.38,-239 249.38,-220 346.38,-220 346.38,-239"/>
<text text-anchor="middle" x="297.88" y="-227" font-family="Helvetica,sans-Serif" font-size="10.00">pio_assembler.h</text>
</a>
</g>
</g>
<!-- Node1&#45;&gt;Node19 -->
<g id="edge23_Node000001_Node000019" class="edge">
<title>Node1&#45;&gt;Node19</title>
<g id="a_edge23_Node000001_Node000019"><a xlink:title=" ">
<path fill="none" stroke="#63b8ff" d="M329.61,-274.75C324.29,-267.34 316.53,-256.5 310.01,-247.41"/>
<polygon fill="#63b8ff" stroke="#63b8ff" points="312.71,-245.18 304.04,-239.09 307.02,-249.26 312.71,-245.18"/>
</a>
</g>
</g>
<!-- Node3 -->
<g id="Node000003" class="node">
<title>Node3</title>
<g id="a_Node000003"><a xlink:title=" ">
<polygon fill="#e0e0e0" stroke="#999999" points="569.88,-19 525.88,-19 525.88,0 569.88,0 569.88,-19"/>
<text text-anchor="middle" x="547.88" y="-7" font-family="Helvetica,sans-Serif" font-size="10.00">string</text>
</a>
</g>
</g>
<!-- Node2&#45;&gt;Node3 -->
<g id="edge2_Node000002_Node000003" class="edge">
<title>Node2&#45;&gt;Node3</title>
<g id="a_edge2_Node000002_Node000003"><a xlink:title=" ">
<path fill="none" stroke="#63b8ff" d="M409.08,-171.06C461.31,-166.54 557.07,-154.86 577.88,-129 598.5,-103.37 587.49,-86.45 577.88,-55 574.8,-44.9 568.56,-35.02 562.57,-27.15"/>
<polygon fill="#63b8ff" stroke="#63b8ff" points="565.13,-24.74 556.09,-19.2 559.7,-29.16 565.13,-24.74"/>
</a>
</g>
</g>
<!-- Node4 -->
<g id="Node000004" class="node">
<title>Node4</title>
<g id="a_Node000004"><a xlink:title=" ">
<polygon fill="#e0e0e0" stroke="#999999" points="182.38,-129 127.38,-129 127.38,-110 182.38,-110 182.38,-129"/>
<text text-anchor="middle" x="154.88" y="-117" font-family="Helvetica,sans-Serif" font-size="10.00">fstream</text>
</a>
</g>
</g>
<!-- Node2&#45;&gt;Node4 -->
<g id="edge3_Node000002_Node000004" class="edge">
<title>Node2&#45;&gt;Node4</title>
<g id="a_edge3_Node000002_Node000004"><a xlink:title=" ">
<path fill="none" stroke="#63b8ff" d="M340.51,-165.22C300.2,-155.51 233.65,-139.48 192.14,-129.48"/>
<polygon fill="#63b8ff" stroke="#63b8ff" points="192.95,-126.07 182.41,-127.13 191.31,-132.88 192.95,-126.07"/>
</a>
</g>
</g>
<!-- Node5 -->
<g id="Node000005" class="node">
<title>Node5</title>
<g id="a_Node000005"><a xlink:title=" ">
<polygon fill="#e0e0e0" stroke="#999999" points="256.88,-129 200.88,-129 200.88,-110 256.88,-110 256.88,-129"/>
<text text-anchor="middle" x="228.88" y="-117" font-family="Helvetica,sans-Serif" font-size="10.00">sstream</text>
</a>
</g>
</g>
<!-- Node2&#45;&gt;Node5 -->
<g id="edge4_Node000002_Node000005" class="edge">
<title>Node2&#45;&gt;Node5</title>
<g id="a_edge4_Node000002_Node000005"><a xlink:title=" ">
<path fill="none" stroke="#63b8ff" d="M351.42,-164.98C327.3,-156.23 289.52,-142.51 262.28,-132.62"/>
<polygon fill="#63b8ff" stroke="#63b8ff" points="263.36,-129.29 252.77,-129.17 260.97,-135.87 263.36,-129.29"/>
</a>
</g>
</g>
<!-- Node6 -->
<g id="Node000006" class="node">
<title>Node6</title>
<g id="a_Node000006"><a xlink:href="pio__types_8h.html" target="_top" xlink:title=" ">
<polygon fill="white" stroke="#666666" points="569.38,-129 496.38,-129 496.38,-110 569.38,-110 569.38,-129"/>
<text text-anchor="middle" x="532.88" y="-117" font-family="Helvetica,sans-Serif" font-size="10.00">pio_types.h</text>
</a>
</g>
</g>
<!-- Node2&#45;&gt;Node6 -->
<g id="edge5_Node000002_Node000006" class="edge">
<title>Node2&#45;&gt;Node6</title>
<g id="a_edge5_Node000002_Node000006"><a xlink:title=" ">
<path fill="none" stroke="#63b8ff" d="M400.27,-164.98C426.68,-156.13 468.23,-142.19 497.78,-132.28"/>
<polygon fill="#63b8ff" stroke="#63b8ff" points="498.93,-135.58 507.3,-129.08 496.7,-128.94 498.93,-135.58"/>
</a>
</g>
</g>
<!-- Node11 -->
<g id="Node000011" class="node">
<title>Node11</title>
<g id="a_Node000011"><a xlink:title=" ">
<polygon fill="#e0e0e0" stroke="#999999" points="81.38,-74 34.38,-74 34.38,-55 81.38,-55 81.38,-74"/>
<text text-anchor="middle" x="57.88" y="-62" font-family="Helvetica,sans-Serif" font-size="10.00">vector</text>
</a>
</g>
</g>
<!-- Node2&#45;&gt;Node11 -->
<g id="edge20_Node000002_Node000011" class="edge">
<title>Node2&#45;&gt;Node11</title>
<g id="a_edge20_Node000002_Node000011"><a xlink:title=" ">
<path fill="none" stroke="#63b8ff" d="M340.67,-169.99C250.08,-160.61 10.45,-135.28 4.88,-129 -9.98,-112.25 12.93,-92.35 33.11,-79.35"/>
<polygon fill="#63b8ff" stroke="#63b8ff" points="35.05,-82.26 41.75,-74.06 31.39,-76.29 35.05,-82.26"/>
</a>
</g>
</g>
<!-- Node13 -->
<g id="Node000013" class="node">
<title>Node13</title>
<g id="a_Node000013"><a xlink:href="location_8h.html" target="_top" xlink:title="Define the yy::location class.">
<polygon fill="white" stroke="#666666" points="691.38,-74 626.38,-74 626.38,-55 691.38,-55 691.38,-74"/>
<text text-anchor="middle" x="658.88" y="-62" font-family="Helvetica,sans-Serif" font-size="10.00">location.h</text>
</a>
</g>
</g>
<!-- Node2&#45;&gt;Node13 -->
<g id="edge21_Node000002_Node000013" class="edge">
<title>Node2&#45;&gt;Node13</title>
<g id="a_edge21_Node000002_Node000013"><a xlink:title=" ">
<path fill="none" stroke="#63b8ff" d="M409.1,-170.17C466.35,-164.1 578.53,-149.89 611.88,-129 629.45,-118 642.65,-97.86 650.53,-83.2"/>
<polygon fill="#63b8ff" stroke="#63b8ff" points="653.73,-84.61 655.11,-74.11 647.48,-81.46 653.73,-84.61"/>
</a>
</g>
</g>
<!-- Node14 -->
<g id="Node000014" class="node">
<title>Node14</title>
<g id="a_Node000014"><a xlink:title=" ">
<polygon fill="#e0e0e0" stroke="#999999" points="718.88,-19 658.88,-19 658.88,0 718.88,0 718.88,-19"/>
<text text-anchor="middle" x="688.88" y="-7" font-family="Helvetica,sans-Serif" font-size="10.00">iostream</text>
</a>
</g>
</g>
<!-- Node2&#45;&gt;Node14 -->
<g id="edge18_Node000002_Node000014" class="edge">
<title>Node2&#45;&gt;Node14</title>
<g id="a_edge18_Node000002_Node000014"><a xlink:title=" ">
<path fill="none" stroke="#63b8ff" d="M408.88,-173.52C460.6,-172.3 561.02,-164.99 636.88,-129 670.46,-113.07 684.5,-107.84 699.88,-74 706.46,-59.53 702.35,-41.57 697.39,-28.45"/>
<polygon fill="#63b8ff" stroke="#63b8ff" points="700.56,-26.95 693.42,-19.12 694.12,-29.69 700.56,-26.95"/>
</a>
</g>
</g>
<!-- Node16 -->
<g id="Node000016" class="node">
<title>Node16</title>
<g id="a_Node000016"><a xlink:title=" ">
<polygon fill="#e0e0e0" stroke="#999999" points="324.38,-129 275.38,-129 275.38,-110 324.38,-110 324.38,-129"/>
<text text-anchor="middle" x="299.88" y="-117" font-family="Helvetica,sans-Serif" font-size="10.00">cstdlib</text>
</a>
</g>
</g>
<!-- Node2&#45;&gt;Node16 -->
<g id="edge17_Node000002_Node000016" class="edge">
<title>Node2&#45;&gt;Node16</title>
<g id="a_edge17_Node000002_Node000016"><a xlink:title=" ">
<path fill="none" stroke="#63b8ff" d="M362.83,-164.98C351.42,-156.92 334.05,-144.65 320.45,-135.03"/>
<polygon fill="#63b8ff" stroke="#63b8ff" points="322.34,-132.08 312.15,-129.17 318.3,-137.8 322.34,-132.08"/>
</a>
</g>
</g>
<!-- Node17 -->
<g id="Node000017" class="node">
<title>Node17</title>
<g id="a_Node000017"><a xlink:title=" ">
<polygon fill="#e0e0e0" stroke="#999999" points="407.38,-129 342.38,-129 342.38,-110 407.38,-110 407.38,-129"/>
<text text-anchor="middle" x="374.88" y="-117" font-family="Helvetica,sans-Serif" font-size="10.00">stdexcept</text>
</a>
</g>
</g>
<!-- Node2&#45;&gt;Node17 -->
<g id="edge19_Node000002_Node000017" class="edge">
<title>Node2&#45;&gt;Node17</title>
<g id="a_edge19_Node000002_Node000017"><a xlink:title=" ">
<path fill="none" stroke="#63b8ff" d="M374.88,-164.75C374.88,-157.8 374.88,-147.85 374.88,-139.13"/>
<polygon fill="#63b8ff" stroke="#63b8ff" points="378.38,-139.09 374.88,-129.09 371.38,-139.09 378.38,-139.09"/>
</a>
</g>
</g>
<!-- Node18 -->
<g id="Node000018" class="node">
<title>Node18</title>
<g id="a_Node000018"><a xlink:title=" ">
<polygon fill="#e0e0e0" stroke="#999999" points="477.88,-129 425.88,-129 425.88,-110 477.88,-110 477.88,-129"/>
<text text-anchor="middle" x="451.88" y="-117" font-family="Helvetica,sans-Serif" font-size="10.00">cassert</text>
</a>
</g>
</g>
<!-- Node2&#45;&gt;Node18 -->
<g id="edge22_Node000002_Node000018" class="edge">
<title>Node2&#45;&gt;Node18</title>
<g id="a_edge22_Node000002_Node000018"><a xlink:title=" ">
<path fill="none" stroke="#63b8ff" d="M387.25,-164.98C398.97,-156.92 416.8,-144.65 430.77,-135.03"/>
<polygon fill="#63b8ff" stroke="#63b8ff" points="433.03,-137.72 439.29,-129.17 429.06,-131.96 433.03,-137.72"/>
</a>
</g>
</g>
<!-- Node6&#45;&gt;Node3 -->
<g id="edge7_Node000006_Node000003" class="edge">
<title>Node6&#45;&gt;Node3</title>
<g id="a_edge7_Node000006_Node000003"><a xlink:title=" ">
<path fill="none" stroke="#63b8ff" d="M510.68,-109.99C485.8,-99.07 450.7,-78.7 464.88,-55 475.99,-36.45 497.76,-25.19 516.23,-18.64"/>
<polygon fill="#63b8ff" stroke="#63b8ff" points="517.34,-21.96 525.78,-15.55 515.19,-15.3 517.34,-21.96"/>
</a>
</g>
</g>
<!-- Node7 -->
<g id="Node000007" class="node">
<title>Node7</title>
<g id="a_Node000007"><a xlink:title=" ">
<polygon fill="#e0e0e0" stroke="#999999" points="187.88,-74 137.88,-74 137.88,-55 187.88,-55 187.88,-74"/>
<text text-anchor="middle" x="162.88" y="-62" font-family="Helvetica,sans-Serif" font-size="10.00">cstdint</text>
</a>
</g>
</g>
<!-- Node6&#45;&gt;Node7 -->
<g id="edge6_Node000006_Node000007" class="edge">
<title>Node6&#45;&gt;Node7</title>
<g id="a_edge6_Node000006_Node000007"><a xlink:title=" ">
<path fill="none" stroke="#63b8ff" d="M496.26,-111.53C493.09,-110.99 489.93,-110.47 486.88,-110 361.78,-90.69 326.35,-97.43 198.26,-74.05"/>
<polygon fill="#63b8ff" stroke="#63b8ff" points="198.53,-70.54 188.06,-72.16 197.25,-77.42 198.53,-70.54"/>
</a>
</g>
</g>
<!-- Node8 -->
<g id="Node000008" class="node">
<title>Node8</title>
<g id="a_Node000008"><a xlink:title=" ">
<polygon fill="#e0e0e0" stroke="#999999" points="243.88,-74 205.88,-74 205.88,-55 243.88,-55 243.88,-74"/>
<text text-anchor="middle" x="224.88" y="-62" font-family="Helvetica,sans-Serif" font-size="10.00">map</text>
</a>
</g>
</g>
<!-- Node6&#45;&gt;Node8 -->
<g id="edge8_Node000006_Node000008" class="edge">
<title>Node6&#45;&gt;Node8</title>
<g id="a_edge8_Node000006_Node000008"><a xlink:title=" ">
<path fill="none" stroke="#63b8ff" d="M496.24,-111.63C493.08,-111.06 489.92,-110.52 486.88,-110 386.28,-92.97 357.23,-97.07 253.96,-73.96"/>
<polygon fill="#63b8ff" stroke="#63b8ff" points="254.59,-70.52 244.07,-71.72 253.04,-77.34 254.59,-70.52"/>
</a>
</g>
</g>
<!-- Node9 -->
<g id="Node000009" class="node">
<title>Node9</title>
<g id="a_Node000009"><a xlink:title=" ">
<polygon fill="#e0e0e0" stroke="#999999" points="505.88,-74 473.88,-74 473.88,-55 505.88,-55 505.88,-74"/>
<text text-anchor="middle" x="489.88" y="-62" font-family="Helvetica,sans-Serif" font-size="10.00">set</text>
</a>
</g>
</g>
<!-- Node6&#45;&gt;Node9 -->
<g id="edge9_Node000006_Node000009" class="edge">
<title>Node6&#45;&gt;Node9</title>
<g id="a_edge9_Node000006_Node000009"><a xlink:title=" ">
<path fill="none" stroke="#63b8ff" d="M525.78,-109.75C519.71,-102.26 510.8,-91.28 503.37,-82.13"/>
<polygon fill="#63b8ff" stroke="#63b8ff" points="505.87,-79.65 496.85,-74.09 500.43,-84.06 505.87,-79.65"/>
</a>
</g>
</g>
<!-- Node10 -->
<g id="Node000010" class="node">
<title>Node10</title>
<g id="a_Node000010"><a xlink:title=" ">
<polygon fill="#e0e0e0" stroke="#999999" points="569.38,-74 524.38,-74 524.38,-55 569.38,-55 569.38,-74"/>
<text text-anchor="middle" x="546.88" y="-62" font-family="Helvetica,sans-Serif" font-size="10.00">utility</text>
</a>
</g>
</g>
<!-- Node6&#45;&gt;Node10 -->
<g id="edge10_Node000006_Node000010" class="edge">
<title>Node6&#45;&gt;Node10</title>
<g id="a_edge10_Node000006_Node000010"><a xlink:title=" ">
<path fill="none" stroke="#63b8ff" d="M535.19,-109.75C537.05,-102.72 539.72,-92.62 542.04,-83.84"/>
<polygon fill="#63b8ff" stroke="#63b8ff" points="545.44,-84.65 544.61,-74.09 538.68,-82.86 545.44,-84.65"/>
</a>
</g>
</g>
<!-- Node6&#45;&gt;Node11 -->
<g id="edge11_Node000006_Node000011" class="edge">
<title>Node6&#45;&gt;Node11</title>
<g id="a_edge11_Node000006_Node000011"><a xlink:title=" ">
<path fill="none" stroke="#63b8ff" d="M496.27,-111.45C493.1,-110.93 489.94,-110.44 486.88,-110 328.57,-87.45 287.83,-91.51 128.88,-74 116.79,-72.67 103.55,-71.11 91.81,-69.69"/>
<polygon fill="#63b8ff" stroke="#63b8ff" points="91.89,-66.18 81.54,-68.45 91.04,-73.13 91.89,-66.18"/>
</a>
</g>
</g>
<!-- Node12 -->
<g id="Node000012" class="node">
<title>Node12</title>
<g id="a_Node000012"><a xlink:title=" ">
<polygon fill="#e0e0e0" stroke="#999999" points="319.88,-74 261.88,-74 261.88,-55 319.88,-55 319.88,-74"/>
<text text-anchor="middle" x="290.88" y="-62" font-family="Helvetica,sans-Serif" font-size="10.00">memory</text>
</a>
</g>
</g>
<!-- Node6&#45;&gt;Node12 -->
<g id="edge12_Node000006_Node000012" class="edge">
<title>Node6&#45;&gt;Node12</title>
<g id="a_edge12_Node000006_Node000012"><a xlink:title=" ">
<path fill="none" stroke="#63b8ff" d="M496.02,-110.52C457.14,-102.09 393.85,-88.33 329.79,-74.19"/>
<polygon fill="#63b8ff" stroke="#63b8ff" points="330.44,-70.75 319.92,-72.01 328.93,-77.59 330.44,-70.75"/>
</a>
</g>
</g>
<!-- Node6&#45;&gt;Node13 -->
<g id="edge13_Node000006_Node000013" class="edge">
<title>Node6&#45;&gt;Node13</title>
<g id="a_edge13_Node000006_Node000013"><a xlink:title=" ">
<path fill="none" stroke="#63b8ff" d="M553.13,-109.98C573.58,-101.38 605.41,-87.99 628.81,-78.15"/>
<polygon fill="#63b8ff" stroke="#63b8ff" points="630.41,-81.27 638.27,-74.17 627.69,-74.82 630.41,-81.27"/>
</a>
</g>
</g>
<!-- Node15 -->
<g id="Node000015" class="node">
<title>Node15</title>
<g id="a_Node000015"><a xlink:href="pio__enums_8h.html" target="_top" xlink:title=" ">
<polygon fill="white" stroke="#666666" points="417.38,-74 338.38,-74 338.38,-55 417.38,-55 417.38,-74"/>
<text text-anchor="middle" x="377.88" y="-62" font-family="Helvetica,sans-Serif" font-size="10.00">pio_enums.h</text>
</a>
</g>
</g>
<!-- Node6&#45;&gt;Node15 -->
<g id="edge16_Node000006_Node000015" class="edge">
<title>Node6&#45;&gt;Node15</title>
<g id="a_edge16_Node000006_Node000015"><a xlink:title=" ">
<path fill="none" stroke="#63b8ff" d="M507.98,-109.98C482.18,-101.16 441.66,-87.31 412.7,-77.41"/>
<polygon fill="#63b8ff" stroke="#63b8ff" points="413.58,-74.01 402.98,-74.08 411.31,-80.63 413.58,-74.01"/>
</a>
</g>
</g>
<!-- Node13&#45;&gt;Node3 -->
<g id="edge15_Node000013_Node000003" class="edge">
<title>Node13&#45;&gt;Node3</title>
<g id="a_edge15_Node000013_Node000003"><a xlink:title=" ">
<path fill="none" stroke="#63b8ff" d="M641.05,-54.98C623.27,-46.5 595.74,-33.35 575.2,-23.54"/>
<polygon fill="#63b8ff" stroke="#63b8ff" points="576.57,-20.32 566.04,-19.17 573.56,-26.64 576.57,-20.32"/>
</a>
</g>
</g>
<!-- Node13&#45;&gt;Node14 -->
<g id="edge14_Node000013_Node000014" class="edge">
<title>Node13&#45;&gt;Node14</title>
<g id="a_edge14_Node000013_Node000014"><a xlink:title=" ">
<path fill="none" stroke="#63b8ff" d="M663.84,-54.75C667.94,-47.49 673.91,-36.95 678.99,-27.98"/>
<polygon fill="#63b8ff" stroke="#63b8ff" points="682.14,-29.52 684.02,-19.09 676.05,-26.07 682.14,-29.52"/>
</a>
</g>
</g>
<!-- Node19&#45;&gt;Node2 -->
<g id="edge25_Node000019_Node000002" class="edge">
<title>Node19&#45;&gt;Node2</title>
<g id="a_edge25_Node000019_Node000002"><a xlink:title=" ">
<path fill="none" stroke="#63b8ff" d="M310.25,-219.98C321.97,-211.92 339.8,-199.65 353.77,-190.03"/>
<polygon fill="#63b8ff" stroke="#63b8ff" points="356.03,-192.72 362.29,-184.17 352.06,-186.96 356.03,-192.72"/>
</a>
</g>
</g>
<!-- Node20 -->
<g id="Node000020" class="node">
<title>Node20</title>
<g id="a_Node000020"><a xlink:title=" ">
<polygon fill="#e0e0e0" stroke="#999999" points="269.88,-184 205.88,-184 205.88,-165 269.88,-165 269.88,-184"/>
<text text-anchor="middle" x="237.88" y="-172" font-family="Helvetica,sans-Serif" font-size="10.00">algorithm</text>
</a>
</g>
</g>
<!-- Node19&#45;&gt;Node20 -->
<g id="edge24_Node000019_Node000020" class="edge">
<title>Node19&#45;&gt;Node20</title>
<g id="a_edge24_Node000019_Node000020"><a xlink:title=" ">
<path fill="none" stroke="#63b8ff" d="M288.24,-219.98C279.37,-212.15 266.01,-200.34 255.27,-190.86"/>
<polygon fill="#63b8ff" stroke="#63b8ff" points="257.51,-188.17 247.7,-184.17 252.87,-193.41 257.51,-188.17"/>
</a>
</g>
</g>
<!-- Node21 -->
<g id="Node000021" class="node">
<title>Node21</title>
<g id="a_Node000021"><a xlink:href="output__format_8h.html" target="_top" xlink:title=" ">
<polygon fill="white" stroke="#666666" points="109.38,-129 14.38,-129 14.38,-110 109.38,-110 109.38,-129"/>
<text text-anchor="middle" x="61.88" y="-117" font-family="Helvetica,sans-Serif" font-size="10.00">output_format.h</text>
</a>
</g>
</g>
<!-- Node19&#45;&gt;Node21 -->
<g id="edge26_Node000019_Node000021" class="edge">
<title>Node19&#45;&gt;Node21</title>
<g id="a_edge26_Node000019_Node000021"><a xlink:title=" ">
<path fill="none" stroke="#63b8ff" d="M297.93,-219.65C297.48,-205.85 294.5,-179.3 278.88,-165 272.94,-159.57 181.95,-142.21 119.7,-130.84"/>
<polygon fill="#63b8ff" stroke="#63b8ff" points="120.06,-127.35 109.59,-129 118.8,-134.24 120.06,-127.35"/>
</a>
</g>
</g>
<!-- Node21&#45;&gt;Node3 -->
<g id="edge30_Node000021_Node000003" class="edge">
<title>Node21&#45;&gt;Node3</title>
<g id="a_edge30_Node000021_Node000003"><a xlink:title=" ">
<path fill="none" stroke="#63b8ff" d="M68.1,-109.65C78.71,-95.35 101.81,-67.49 128.88,-55 197.68,-23.27 429.47,-13.75 515.44,-11.28"/>
<polygon fill="#63b8ff" stroke="#63b8ff" points="515.74,-14.77 525.64,-11 515.55,-7.77 515.74,-14.77"/>
</a>
</g>
</g>
<!-- Node21&#45;&gt;Node7 -->
<g id="edge27_Node000021_Node000007" class="edge">
<title>Node21&#45;&gt;Node7</title>
<g id="a_edge27_Node000021_Node000007"><a xlink:title=" ">
<path fill="none" stroke="#63b8ff" d="M78.11,-109.98C94.06,-101.61 118.66,-88.7 137.26,-78.95"/>
<polygon fill="#63b8ff" stroke="#63b8ff" points="139.13,-81.92 146.36,-74.17 135.88,-75.72 139.13,-81.92"/>
</a>
</g>
</g>
<!-- Node21&#45;&gt;Node8 -->
<g id="edge29_Node000021_Node000008" class="edge">
<title>Node21&#45;&gt;Node8</title>
<g id="a_edge29_Node000021_Node000008"><a xlink:title=" ">
<path fill="none" stroke="#63b8ff" d="M88.07,-109.98C117.5,-100.42 165.15,-84.92 195.74,-74.98"/>
<polygon fill="#63b8ff" stroke="#63b8ff" points="196.98,-78.25 205.41,-71.83 194.82,-71.6 196.98,-78.25"/>
</a>
</g>
</g>
<!-- Node21&#45;&gt;Node11 -->
<g id="edge28_Node000021_Node000011" class="edge">
<title>Node21&#45;&gt;Node11</title>
<g id="a_edge28_Node000021_Node000011"><a xlink:title=" ">
<path fill="none" stroke="#63b8ff" d="M61.22,-109.75C60.7,-102.8 59.95,-92.85 59.29,-84.13"/>
<polygon fill="#63b8ff" stroke="#63b8ff" points="62.77,-83.8 58.53,-74.09 55.79,-84.32 62.77,-83.8"/>
</a>
</g>
</g>
<!-- Node21&#45;&gt;Node12 -->
<g id="edge31_Node000021_Node000012" class="edge">
<title>Node21&#45;&gt;Node12</title>
<g id="a_edge31_Node000021_Node000012"><a xlink:title=" ">
<path fill="none" stroke="#63b8ff" d="M98.67,-109.98C140.69,-100.26 209.15,-84.42 252.02,-74.49"/>
<polygon fill="#63b8ff" stroke="#63b8ff" points="252.85,-77.89 261.81,-72.23 251.28,-71.07 252.85,-77.89"/>
</a>
</g>
</g>
<!-- Node21&#45;&gt;Node15 -->
<g id="edge32_Node000021_Node000015" class="edge">
<title>Node21&#45;&gt;Node15</title>
<g id="a_edge32_Node000021_Node000015"><a xlink:title=" ">
<path fill="none" stroke="#63b8ff" d="M109.65,-110.64C160.99,-102.16 245.3,-88.19 328.2,-74.11"/>
<polygon fill="#63b8ff" stroke="#63b8ff" points="329.03,-77.51 338.31,-72.39 327.86,-70.61 329.03,-77.51"/>
</a>
</g>
</g>
</g>
</svg>
