<?xml version="1.0" encoding="UTF-8" standalone="no"?>
<!DOCTYPE svg PUBLIC "-//W3C//DTD SVG 1.1//EN"
 "http://www.w3.org/Graphics/SVG/1.1/DTD/svg11.dtd">
<!-- Generated by graphviz version 2.43.0 (0)
 -->
<!-- Title: pheap.c Pages: 1 -->
<svg width="478pt" height="192pt"
 viewBox="0.00 0.00 477.50 192.00" xmlns="http://www.w3.org/2000/svg" xmlns:xlink="http://www.w3.org/1999/xlink">
<g id="graph0" class="graph" transform="scale(1 1) rotate(0) translate(4 188)">
<title>pheap.c</title>
<!-- Node1 -->
<g id="Node000001" class="node">
<title>Node1</title>
<g id="a_Node000001"><a xlink:title=" ">
<polygon fill="#999999" stroke="#666666" points="288,-184 233,-184 233,-165 288,-165 288,-184"/>
<text text-anchor="middle" x="260.5" y="-172" font-family="Helvetica,sans-Serif" font-size="10.00">pheap.c</text>
</a>
</g>
</g>
<!-- Node2 -->
<g id="Node000002" class="node">
<title>Node2</title>
<g id="a_Node000002"><a xlink:title=" ">
<polygon fill="#e0e0e0" stroke="#999999" points="215.5,-129 165.5,-129 165.5,-110 215.5,-110 215.5,-129"/>
<text text-anchor="middle" x="190.5" y="-117" font-family="Helvetica,sans-Serif" font-size="10.00">stdio.h</text>
</a>
</g>
</g>
<!-- Node1&#45;&gt;Node2 -->
<g id="edge1_Node000001_Node000002" class="edge">
<title>Node1&#45;&gt;Node2</title>
<g id="a_edge1_Node000001_Node000002"><a xlink:title=" ">
<path fill="none" stroke="#63b8ff" d="M249.25,-164.98C238.7,-157 222.7,-144.88 210.06,-135.31"/>
<polygon fill="#63b8ff" stroke="#63b8ff" points="212.04,-132.42 201.95,-129.17 207.81,-138 212.04,-132.42"/>
</a>
</g>
</g>
<!-- Node3 -->
<g id="Node000003" class="node">
<title>Node3</title>
<g id="a_Node000003"><a xlink:href="stdlib_8h.html" target="_top" xlink:title=" ">
<polygon fill="white" stroke="#666666" points="287,-129 234,-129 234,-110 287,-110 287,-129"/>
<text text-anchor="middle" x="260.5" y="-117" font-family="Helvetica,sans-Serif" font-size="10.00">stdlib.h</text>
</a>
</g>
</g>
<!-- Node1&#45;&gt;Node3 -->
<g id="edge2_Node000001_Node000003" class="edge">
<title>Node1&#45;&gt;Node3</title>
<g id="a_edge2_Node000001_Node000003"><a xlink:title=" ">
<path fill="none" stroke="#63b8ff" d="M260.5,-164.75C260.5,-157.8 260.5,-147.85 260.5,-139.13"/>
<polygon fill="#63b8ff" stroke="#63b8ff" points="264,-139.09 260.5,-129.09 257,-139.09 264,-139.09"/>
</a>
</g>
</g>
<!-- Node10 -->
<g id="Node000010" class="node">
<title>Node10</title>
<g id="a_Node000010"><a xlink:href="pheap_8h.html" target="_top" xlink:title=" ">
<polygon fill="white" stroke="#666666" points="469.5,-129 371.5,-129 371.5,-110 469.5,-110 469.5,-129"/>
<text text-anchor="middle" x="420.5" y="-117" font-family="Helvetica,sans-Serif" font-size="10.00">pico/util/pheap.h</text>
</a>
</g>
</g>
<!-- Node1&#45;&gt;Node10 -->
<g id="edge10_Node000001_Node000010" class="edge">
<title>Node1&#45;&gt;Node10</title>
<g id="a_edge10_Node000001_Node000010"><a xlink:title=" ">
<path fill="none" stroke="#63b8ff" d="M286.21,-164.98C312.95,-156.13 355.03,-142.19 384.95,-132.28"/>
<polygon fill="#63b8ff" stroke="#63b8ff" points="386.2,-135.55 394.59,-129.08 384,-128.9 386.2,-135.55"/>
</a>
</g>
</g>
<!-- Node4 -->
<g id="Node000004" class="node">
<title>Node4</title>
<g id="a_Node000004"><a xlink:title=" ">
<polygon fill="#e0e0e0" stroke="#999999" points="438.5,-19 392.5,-19 392.5,0 438.5,0 438.5,-19"/>
<text text-anchor="middle" x="415.5" y="-7" font-family="Helvetica,sans-Serif" font-size="10.00">pico.h</text>
</a>
</g>
</g>
<!-- Node3&#45;&gt;Node4 -->
<g id="edge3_Node000003_Node000004" class="edge">
<title>Node3&#45;&gt;Node4</title>
<g id="a_edge3_Node000003_Node000004"><a xlink:title=" ">
<path fill="none" stroke="#63b8ff" d="M287.06,-116.96C317.61,-113.77 367.28,-103.97 396.5,-74 408.16,-62.04 412.71,-43.22 414.46,-29.17"/>
<polygon fill="#63b8ff" stroke="#63b8ff" points="417.95,-29.42 415.34,-19.15 410.98,-28.8 417.95,-29.42"/>
</a>
</g>
</g>
<!-- Node5 -->
<g id="Node000005" class="node">
<title>Node5</title>
<g id="a_Node000005"><a xlink:title=" ">
<polygon fill="#e0e0e0" stroke="#999999" points="73,-74 0,-74 0,-55 73,-55 73,-74"/>
<text text-anchor="middle" x="36.5" y="-62" font-family="Helvetica,sans-Serif" font-size="10.00">pico/stdio.h</text>
</a>
</g>
</g>
<!-- Node3&#45;&gt;Node5 -->
<g id="edge4_Node000003_Node000005" class="edge">
<title>Node3&#45;&gt;Node5</title>
<g id="a_edge4_Node000003_Node000005"><a xlink:title=" ">
<path fill="none" stroke="#63b8ff" d="M233.92,-112.21C196.65,-103.39 128.28,-87.22 82.61,-76.41"/>
<polygon fill="#63b8ff" stroke="#63b8ff" points="83.19,-72.95 72.66,-74.05 81.58,-79.76 83.19,-72.95"/>
</a>
</g>
</g>
<!-- Node6 -->
<g id="Node000006" class="node">
<title>Node6</title>
<g id="a_Node000006"><a xlink:href="common_2pico__time_2include_2pico_2time_8h.html" target="_top" xlink:title=" ">
<polygon fill="white" stroke="#666666" points="162,-74 91,-74 91,-55 162,-55 162,-74"/>
<text text-anchor="middle" x="126.5" y="-62" font-family="Helvetica,sans-Serif" font-size="10.00">pico/time.h</text>
</a>
</g>
</g>
<!-- Node3&#45;&gt;Node6 -->
<g id="edge5_Node000003_Node000006" class="edge">
<title>Node3&#45;&gt;Node6</title>
<g id="a_edge5_Node000003_Node000006"><a xlink:title=" ">
<path fill="none" stroke="#63b8ff" d="M238.97,-109.98C217.03,-101.3 182.76,-87.75 157.81,-77.88"/>
<polygon fill="#63b8ff" stroke="#63b8ff" points="159.01,-74.59 148.42,-74.17 156.43,-81.1 159.01,-74.59"/>
</a>
</g>
</g>
<!-- Node8 -->
<g id="Node000008" class="node">
<title>Node8</title>
<g id="a_Node000008"><a xlink:title=" ">
<polygon fill="#e0e0e0" stroke="#999999" points="275,-74 180,-74 180,-55 275,-55 275,-74"/>
<text text-anchor="middle" x="227.5" y="-62" font-family="Helvetica,sans-Serif" font-size="10.00">hardware/gpio.h</text>
</a>
</g>
</g>
<!-- Node3&#45;&gt;Node8 -->
<g id="edge8_Node000003_Node000008" class="edge">
<title>Node3&#45;&gt;Node8</title>
<g id="a_edge8_Node000003_Node000008"><a xlink:title=" ">
<path fill="none" stroke="#63b8ff" d="M255.05,-109.75C250.49,-102.42 243.83,-91.73 238.21,-82.7"/>
<polygon fill="#63b8ff" stroke="#63b8ff" points="241.1,-80.73 232.85,-74.09 235.16,-84.43 241.1,-80.73"/>
</a>
</g>
</g>
<!-- Node9 -->
<g id="Node000009" class="node">
<title>Node9</title>
<g id="a_Node000009"><a xlink:title=" ">
<polygon fill="#e0e0e0" stroke="#999999" points="387.5,-74 293.5,-74 293.5,-55 387.5,-55 387.5,-74"/>
<text text-anchor="middle" x="340.5" y="-62" font-family="Helvetica,sans-Serif" font-size="10.00">hardware/uart.h</text>
</a>
</g>
</g>
<!-- Node3&#45;&gt;Node9 -->
<g id="edge9_Node000003_Node000009" class="edge">
<title>Node3&#45;&gt;Node9</title>
<g id="a_edge9_Node000003_Node000009"><a xlink:title=" ">
<path fill="none" stroke="#63b8ff" d="M273.35,-109.98C285.64,-101.84 304.41,-89.41 318.98,-79.76"/>
<polygon fill="#63b8ff" stroke="#63b8ff" points="321.01,-82.61 327.41,-74.17 317.14,-76.78 321.01,-82.61"/>
</a>
</g>
</g>
<!-- Node6&#45;&gt;Node4 -->
<g id="edge6_Node000006_Node000004" class="edge">
<title>Node6&#45;&gt;Node4</title>
<g id="a_edge6_Node000006_Node000004"><a xlink:title=" ">
<path fill="none" stroke="#63b8ff" d="M162.04,-56.6C164.9,-56.05 167.75,-55.52 170.5,-55 246.15,-40.82 335.07,-24.84 382.22,-16.42"/>
<polygon fill="#63b8ff" stroke="#63b8ff" points="382.95,-19.85 392.18,-14.65 381.72,-12.96 382.95,-19.85"/>
</a>
</g>
</g>
<!-- Node7 -->
<g id="Node000007" class="node">
<title>Node7</title>
<g id="a_Node000007"><a xlink:title=" ">
<polygon fill="#e0e0e0" stroke="#999999" points="177,-19 76,-19 76,0 177,0 177,-19"/>
<text text-anchor="middle" x="126.5" y="-7" font-family="Helvetica,sans-Serif" font-size="10.00">hardware/timer.h</text>
</a>
</g>
</g>
<!-- Node6&#45;&gt;Node7 -->
<g id="edge7_Node000006_Node000007" class="edge">
<title>Node6&#45;&gt;Node7</title>
<g id="a_edge7_Node000006_Node000007"><a xlink:title=" ">
<path fill="none" stroke="#63b8ff" d="M126.5,-54.75C126.5,-47.8 126.5,-37.85 126.5,-29.13"/>
<polygon fill="#63b8ff" stroke="#63b8ff" points="130,-29.09 126.5,-19.09 123,-29.09 130,-29.09"/>
</a>
</g>
</g>
<!-- Node10&#45;&gt;Node4 -->
<g id="edge11_Node000010_Node000004" class="edge">
<title>Node10&#45;&gt;Node4</title>
<g id="a_edge11_Node000010_Node000004"><a xlink:title=" ">
<path fill="none" stroke="#63b8ff" d="M423.34,-109.86C426.98,-97.64 432.51,-74.59 429.5,-55 428.15,-46.19 425.37,-36.74 422.65,-28.82"/>
<polygon fill="#63b8ff" stroke="#63b8ff" points="425.84,-27.35 419.1,-19.18 419.27,-29.77 425.84,-27.35"/>
</a>
</g>
</g>
</g>
</svg>
