<?xml version="1.0" encoding="UTF-8" standalone="no"?>
<!DOCTYPE svg PUBLIC "-//W3C//DTD SVG 1.1//EN"
 "http://www.w3.org/Graphics/SVG/1.1/DTD/svg11.dtd">
<!-- Generated by graphviz version 2.43.0 (0)
 -->
<!-- Title: sha256.c Pages: 1 -->
<svg width="1319pt" height="357pt"
 viewBox="0.00 0.00 1318.96 357.00" xmlns="http://www.w3.org/2000/svg" xmlns:xlink="http://www.w3.org/1999/xlink">
<g id="graph0" class="graph" transform="scale(1 1) rotate(0) translate(4 353)">
<title>sha256.c</title>
<!-- Node1 -->
<g id="Node000001" class="node">
<title>Node1</title>
<g id="a_Node000001"><a xlink:title=" ">
<polygon fill="#999999" stroke="#666666" points="522.5,-349 462.5,-349 462.5,-330 522.5,-330 522.5,-349"/>
<text text-anchor="middle" x="492.5" y="-337" font-family="Helvetica,sans-Serif" font-size="10.00">sha256.c</text>
</a>
</g>
</g>
<!-- Node2 -->
<g id="Node000002" class="node">
<title>Node2</title>
<g id="a_Node000002"><a xlink:title=" ">
<polygon fill="#e0e0e0" stroke="#999999" points="263.5,-294 213.5,-294 213.5,-275 263.5,-275 263.5,-294"/>
<text text-anchor="middle" x="238.5" y="-282" font-family="Helvetica,sans-Serif" font-size="10.00">stdio.h</text>
</a>
</g>
</g>
<!-- Node1&#45;&gt;Node2 -->
<g id="edge1_Node000001_Node000002" class="edge">
<title>Node1&#45;&gt;Node2</title>
<g id="a_edge1_Node000001_Node000002"><a xlink:title=" ">
<path fill="none" stroke="#63b8ff" d="M462.16,-332.81C421.47,-325.09 346.74,-310.57 273.56,-294.16"/>
<polygon fill="#63b8ff" stroke="#63b8ff" points="274.25,-290.73 263.72,-291.94 272.71,-297.56 274.25,-290.73"/>
</a>
</g>
</g>
<!-- Node3 -->
<g id="Node000003" class="node">
<title>Node3</title>
<g id="a_Node000003"><a xlink:title=" ">
<polygon fill="#e0e0e0" stroke="#999999" points="335,-294 282,-294 282,-275 335,-275 335,-294"/>
<text text-anchor="middle" x="308.5" y="-282" font-family="Helvetica,sans-Serif" font-size="10.00">string.h</text>
</a>
</g>
</g>
<!-- Node1&#45;&gt;Node3 -->
<g id="edge2_Node000001_Node000003" class="edge">
<title>Node1&#45;&gt;Node3</title>
<g id="a_edge2_Node000001_Node000003"><a xlink:title=" ">
<path fill="none" stroke="#63b8ff" d="M462.94,-329.98C430.76,-320.72 379.29,-305.89 344.71,-295.93"/>
<polygon fill="#63b8ff" stroke="#63b8ff" points="345.58,-292.54 335,-293.13 343.64,-299.27 345.58,-292.54"/>
</a>
</g>
</g>
<!-- Node4 -->
<g id="Node000004" class="node">
<title>Node4</title>
<g id="a_Node000004"><a xlink:title=" ">
<polygon fill="#e0e0e0" stroke="#999999" points="418,-294 353,-294 353,-275 418,-275 418,-294"/>
<text text-anchor="middle" x="385.5" y="-282" font-family="Helvetica,sans-Serif" font-size="10.00">inttypes.h</text>
</a>
</g>
</g>
<!-- Node1&#45;&gt;Node4 -->
<g id="edge3_Node000001_Node000004" class="edge">
<title>Node1&#45;&gt;Node4</title>
<g id="a_edge3_Node000001_Node000004"><a xlink:title=" ">
<path fill="none" stroke="#63b8ff" d="M475.31,-329.98C458.25,-321.54 431.87,-308.47 412.1,-298.68"/>
<polygon fill="#63b8ff" stroke="#63b8ff" points="413.52,-295.47 403,-294.17 410.41,-301.75 413.52,-295.47"/>
</a>
</g>
</g>
<!-- Node5 -->
<g id="Node000005" class="node">
<title>Node5</title>
<g id="a_Node000005"><a xlink:href="rp2__common_2hardware__sha256_2include_2hardware_2sha256_8h.html" target="_top" xlink:title=" ">
<polygon fill="white" stroke="#666666" points="632.5,-239 522.5,-239 522.5,-220 632.5,-220 632.5,-239"/>
<text text-anchor="middle" x="577.5" y="-227" font-family="Helvetica,sans-Serif" font-size="10.00">hardware/sha256.h</text>
</a>
</g>
</g>
<!-- Node1&#45;&gt;Node5 -->
<g id="edge4_Node000001_Node000005" class="edge">
<title>Node1&#45;&gt;Node5</title>
<g id="a_edge4_Node000001_Node000005"><a xlink:title=" ">
<path fill="none" stroke="#63b8ff" d="M511.31,-329.95C525.87,-322.43 545.53,-310.15 557.5,-294 567.29,-280.8 572.37,-262.67 574.96,-249.16"/>
<polygon fill="#63b8ff" stroke="#63b8ff" points="578.44,-249.55 576.59,-239.11 571.53,-248.42 578.44,-249.55"/>
</a>
</g>
</g>
<!-- Node13 -->
<g id="Node000013" class="node">
<title>Node13</title>
<g id="a_Node000013"><a xlink:href="lock_8h.html" target="_top" xlink:title=" ">
<polygon fill="white" stroke="#666666" points="549,-294 436,-294 436,-275 549,-275 549,-294"/>
<text text-anchor="middle" x="492.5" y="-282" font-family="Helvetica,sans-Serif" font-size="10.00">pico/bootrom/lock.h</text>
</a>
</g>
</g>
<!-- Node1&#45;&gt;Node13 -->
<g id="edge14_Node000001_Node000013" class="edge">
<title>Node1&#45;&gt;Node13</title>
<g id="a_edge14_Node000001_Node000013"><a xlink:title=" ">
<path fill="none" stroke="#63b8ff" d="M492.5,-329.75C492.5,-322.8 492.5,-312.85 492.5,-304.13"/>
<polygon fill="#63b8ff" stroke="#63b8ff" points="496,-304.09 492.5,-294.09 489,-304.09 496,-304.09"/>
</a>
</g>
</g>
<!-- Node18 -->
<g id="Node000018" class="node">
<title>Node18</title>
<g id="a_Node000018"><a xlink:href="rp2__common_2pico__sha256_2include_2pico_2sha256_8h.html" target="_top" xlink:title=" ">
<polygon fill="white" stroke="#666666" points="773.5,-294 689.5,-294 689.5,-275 773.5,-275 773.5,-294"/>
<text text-anchor="middle" x="731.5" y="-282" font-family="Helvetica,sans-Serif" font-size="10.00">pico/sha256.h</text>
</a>
</g>
</g>
<!-- Node1&#45;&gt;Node18 -->
<g id="edge20_Node000001_Node000018" class="edge">
<title>Node1&#45;&gt;Node18</title>
<g id="a_edge20_Node000001_Node000018"><a xlink:title=" ">
<path fill="none" stroke="#63b8ff" d="M522.77,-331.79C563.11,-322.84 634.97,-306.91 682.93,-296.27"/>
<polygon fill="#63b8ff" stroke="#63b8ff" points="683.78,-299.67 692.79,-294.09 682.26,-292.83 683.78,-299.67"/>
</a>
</g>
</g>
<!-- Node19 -->
<g id="Node000019" class="node">
<title>Node19</title>
<g id="a_Node000019"><a xlink:href="common_2pico__time_2include_2pico_2time_8h.html" target="_top" xlink:title=" ">
<polygon fill="white" stroke="#666666" points="1175,-239 1104,-239 1104,-220 1175,-220 1175,-239"/>
<text text-anchor="middle" x="1139.5" y="-227" font-family="Helvetica,sans-Serif" font-size="10.00">pico/time.h</text>
</a>
</g>
</g>
<!-- Node1&#45;&gt;Node19 -->
<g id="edge33_Node000001_Node000019" class="edge">
<title>Node1&#45;&gt;Node19</title>
<g id="a_edge33_Node000001_Node000019"><a xlink:title=" ">
<path fill="none" stroke="#63b8ff" d="M522.6,-334.12C575.32,-326.4 687.78,-309.69 782.5,-294 894.59,-275.43 1026.08,-251.48 1093.9,-238.97"/>
<polygon fill="#63b8ff" stroke="#63b8ff" points="1094.63,-242.39 1103.82,-237.14 1093.36,-235.51 1094.63,-242.39"/>
</a>
</g>
</g>
<!-- Node6 -->
<g id="Node000006" class="node">
<title>Node6</title>
<g id="a_Node000006"><a xlink:title=" ">
<polygon fill="#e0e0e0" stroke="#999999" points="610.5,-74 564.5,-74 564.5,-55 610.5,-55 610.5,-74"/>
<text text-anchor="middle" x="587.5" y="-62" font-family="Helvetica,sans-Serif" font-size="10.00">pico.h</text>
</a>
</g>
</g>
<!-- Node5&#45;&gt;Node6 -->
<g id="edge5_Node000005_Node000006" class="edge">
<title>Node5&#45;&gt;Node6</title>
<g id="a_edge5_Node000005_Node000006"><a xlink:title=" ">
<path fill="none" stroke="#63b8ff" d="M578.04,-219.74C579.6,-194.31 584.15,-120.08 586.32,-84.69"/>
<polygon fill="#63b8ff" stroke="#63b8ff" points="589.84,-84.5 586.96,-74.31 582.85,-84.07 589.84,-84.5"/>
</a>
</g>
</g>
<!-- Node7 -->
<g id="Node000007" class="node">
<title>Node7</title>
<g id="a_Node000007"><a xlink:href="rp2350_2hardware__structs_2include_2hardware_2structs_2sha256_8h.html" target="_top" xlink:title=" ">
<polygon fill="white" stroke="#666666" points="549.5,-184 403.5,-184 403.5,-165 549.5,-165 549.5,-184"/>
<text text-anchor="middle" x="476.5" y="-172" font-family="Helvetica,sans-Serif" font-size="10.00">hardware/structs/sha256.h</text>
</a>
</g>
</g>
<!-- Node5&#45;&gt;Node7 -->
<g id="edge6_Node000005_Node000007" class="edge">
<title>Node5&#45;&gt;Node7</title>
<g id="a_edge6_Node000005_Node000007"><a xlink:title=" ">
<path fill="none" stroke="#63b8ff" d="M561.27,-219.98C545.32,-211.61 520.72,-198.7 502.12,-188.95"/>
<polygon fill="#63b8ff" stroke="#63b8ff" points="503.5,-185.72 493.02,-184.17 500.25,-191.92 503.5,-185.72"/>
</a>
</g>
</g>
<!-- Node8 -->
<g id="Node000008" class="node">
<title>Node8</title>
<g id="a_Node000008"><a xlink:href="address__mapped_8h.html" target="_top" xlink:title=" ">
<polygon fill="white" stroke="#666666" points="267.5,-129 109.5,-129 109.5,-110 267.5,-110 267.5,-129"/>
<text text-anchor="middle" x="188.5" y="-117" font-family="Helvetica,sans-Serif" font-size="10.00">hardware/address_mapped.h</text>
</a>
</g>
</g>
<!-- Node7&#45;&gt;Node8 -->
<g id="edge7_Node000007_Node000008" class="edge">
<title>Node7&#45;&gt;Node8</title>
<g id="a_edge7_Node000007_Node000008"><a xlink:title=" ">
<path fill="none" stroke="#63b8ff" d="M430.23,-164.98C379.89,-155.72 299.38,-140.9 245.26,-130.94"/>
<polygon fill="#63b8ff" stroke="#63b8ff" points="245.6,-127.45 235.13,-129.08 244.34,-134.33 245.6,-127.45"/>
</a>
</g>
</g>
<!-- Node12 -->
<g id="Node000012" class="node">
<title>Node12</title>
<g id="a_Node000012"><a xlink:href="rp2350_2hardware__regs_2include_2hardware_2regs_2sha256_8h.html" target="_top" xlink:title=" ">
<polygon fill="white" stroke="#666666" points="559.5,-129 425.5,-129 425.5,-110 559.5,-110 559.5,-129"/>
<text text-anchor="middle" x="492.5" y="-117" font-family="Helvetica,sans-Serif" font-size="10.00">hardware/regs/sha256.h</text>
</a>
</g>
</g>
<!-- Node7&#45;&gt;Node12 -->
<g id="edge13_Node000007_Node000012" class="edge">
<title>Node7&#45;&gt;Node12</title>
<g id="a_edge13_Node000007_Node000012"><a xlink:title=" ">
<path fill="none" stroke="#63b8ff" d="M479.14,-164.75C481.26,-157.72 484.31,-147.62 486.96,-138.84"/>
<polygon fill="#63b8ff" stroke="#63b8ff" points="490.37,-139.67 489.91,-129.09 483.67,-137.65 490.37,-139.67"/>
</a>
</g>
</g>
<!-- Node8&#45;&gt;Node6 -->
<g id="edge8_Node000008_Node000006" class="edge">
<title>Node8&#45;&gt;Node6</title>
<g id="a_edge8_Node000008_Node000006"><a xlink:title=" ">
<path fill="none" stroke="#63b8ff" d="M252.61,-109.98C338.37,-98.59 487.34,-78.8 553.81,-69.98"/>
<polygon fill="#63b8ff" stroke="#63b8ff" points="554.66,-73.39 564.12,-68.61 553.74,-66.45 554.66,-73.39"/>
</a>
</g>
</g>
<!-- Node9 -->
<g id="Node000009" class="node">
<title>Node9</title>
<g id="a_Node000009"><a xlink:title=" ">
<polygon fill="#e0e0e0" stroke="#999999" points="443.5,-74 285.5,-74 285.5,-55 443.5,-55 443.5,-74"/>
<text text-anchor="middle" x="364.5" y="-62" font-family="Helvetica,sans-Serif" font-size="10.00">hardware/regs/addressmap.h</text>
</a>
</g>
</g>
<!-- Node8&#45;&gt;Node9 -->
<g id="edge9_Node000008_Node000009" class="edge">
<title>Node8&#45;&gt;Node9</title>
<g id="a_edge9_Node000008_Node000009"><a xlink:title=" ">
<path fill="none" stroke="#63b8ff" d="M216.78,-109.98C246.45,-101.05 293.29,-86.94 326.25,-77.02"/>
<polygon fill="#63b8ff" stroke="#63b8ff" points="327.43,-80.32 336,-74.08 325.42,-73.61 327.43,-80.32"/>
</a>
</g>
</g>
<!-- Node10 -->
<g id="Node000010" class="node">
<title>Node10</title>
<g id="a_Node000010"><a xlink:href="hardware__structs_2include_2hardware_2structs_2accessctrl_8h.html" target="_top" xlink:title=" ">
<polygon fill="white" stroke="#666666" points="268,-74 109,-74 109,-55 268,-55 268,-74"/>
<text text-anchor="middle" x="188.5" y="-62" font-family="Helvetica,sans-Serif" font-size="10.00">hardware/structs/accessctrl.h</text>
</a>
</g>
</g>
<!-- Node8&#45;&gt;Node10 -->
<g id="edge10_Node000008_Node000010" class="edge">
<title>Node8&#45;&gt;Node10</title>
<g id="a_edge10_Node000008_Node000010"><a xlink:title=" ">
<path fill="none" stroke="#63b8ff" d="M183.33,-109.75C181.84,-102.8 181.4,-92.85 182.02,-84.13"/>
<polygon fill="#63b8ff" stroke="#63b8ff" points="185.51,-84.47 183.37,-74.09 178.57,-83.53 185.51,-84.47"/>
</a>
</g>
</g>
<!-- Node10&#45;&gt;Node8 -->
<g id="edge11_Node000010_Node000008" class="edge">
<title>Node10&#45;&gt;Node8</title>
<g id="a_edge11_Node000010_Node000008"><a xlink:title=" ">
<path fill="none" stroke="#63b8ff" d="M193.63,-74.09C195.14,-80.99 195.59,-90.93 194.99,-99.66"/>
<polygon fill="#63b8ff" stroke="#63b8ff" points="191.5,-99.38 193.67,-109.75 198.44,-100.29 191.5,-99.38"/>
</a>
</g>
</g>
<!-- Node11 -->
<g id="Node000011" class="node">
<title>Node11</title>
<g id="a_Node000011"><a xlink:href="hardware__regs_2include_2hardware_2regs_2accessctrl_8h.html" target="_top" xlink:title=" ">
<polygon fill="white" stroke="#666666" points="262,-19 115,-19 115,0 262,0 262,-19"/>
<text text-anchor="middle" x="188.5" y="-7" font-family="Helvetica,sans-Serif" font-size="10.00">hardware/regs/accessctrl.h</text>
</a>
</g>
</g>
<!-- Node10&#45;&gt;Node11 -->
<g id="edge12_Node000010_Node000011" class="edge">
<title>Node10&#45;&gt;Node11</title>
<g id="a_edge12_Node000010_Node000011"><a xlink:title=" ">
<path fill="none" stroke="#63b8ff" d="M188.5,-54.75C188.5,-47.8 188.5,-37.85 188.5,-29.13"/>
<polygon fill="#63b8ff" stroke="#63b8ff" points="192,-29.09 188.5,-19.09 185,-29.09 192,-29.09"/>
</a>
</g>
</g>
<!-- Node14 -->
<g id="Node000014" class="node">
<title>Node14</title>
<g id="a_Node000014"><a xlink:href="boot__lock_8h.html" target="_top" xlink:title=" ">
<polygon fill="white" stroke="#666666" points="407.5,-129 285.5,-129 285.5,-110 407.5,-110 407.5,-129"/>
<text text-anchor="middle" x="346.5" y="-117" font-family="Helvetica,sans-Serif" font-size="10.00">hardware/boot_lock.h</text>
</a>
</g>
</g>
<!-- Node13&#45;&gt;Node14 -->
<g id="edge15_Node000013_Node000014" class="edge">
<title>Node13&#45;&gt;Node14</title>
<g id="a_edge15_Node000013_Node000014"><a xlink:title=" ">
<path fill="none" stroke="#63b8ff" d="M483.17,-274.82C465.26,-257.98 425.09,-219.41 394.5,-184 381.56,-169.02 368.07,-150.93 358.7,-137.89"/>
<polygon fill="#63b8ff" stroke="#63b8ff" points="361.32,-135.53 352.67,-129.41 355.62,-139.59 361.32,-135.53"/>
</a>
</g>
</g>
<!-- Node15 -->
<g id="Node000015" class="node">
<title>Node15</title>
<g id="a_Node000015"><a xlink:href="pico__bootrom_2include_2pico_2bootrom__constants_8h.html" target="_top" xlink:title=" ">
<polygon fill="white" stroke="#666666" points="328,-239 185,-239 185,-220 328,-220 328,-239"/>
<text text-anchor="middle" x="256.5" y="-227" font-family="Helvetica,sans-Serif" font-size="10.00">pico/bootrom_constants.h</text>
</a>
</g>
</g>
<!-- Node13&#45;&gt;Node15 -->
<g id="edge17_Node000013_Node000015" class="edge">
<title>Node13&#45;&gt;Node15</title>
<g id="a_edge17_Node000013_Node000015"><a xlink:title=" ">
<path fill="none" stroke="#63b8ff" d="M454.58,-274.98C413.85,-265.84 349,-251.27 304.68,-241.32"/>
<polygon fill="#63b8ff" stroke="#63b8ff" points="305.24,-237.86 294.71,-239.08 303.7,-244.69 305.24,-237.86"/>
</a>
</g>
</g>
<!-- Node14&#45;&gt;Node6 -->
<g id="edge16_Node000014_Node000006" class="edge">
<title>Node14&#45;&gt;Node6</title>
<g id="a_edge16_Node000014_Node000006"><a xlink:title=" ">
<path fill="none" stroke="#63b8ff" d="M385.22,-109.98C432.03,-99.69 510.01,-82.54 554.23,-72.82"/>
<polygon fill="#63b8ff" stroke="#63b8ff" points="555.16,-76.19 564.18,-70.63 553.66,-69.36 555.16,-76.19"/>
</a>
</g>
</g>
<!-- Node16 -->
<g id="Node000016" class="node">
<title>Node16</title>
<g id="a_Node000016"><a xlink:href="boot__bootrom__headers_2include_2boot_2bootrom__constants_8h.html" target="_top" xlink:title=" ">
<polygon fill="white" stroke="#666666" points="228.5,-184 84.5,-184 84.5,-165 228.5,-165 228.5,-184"/>
<text text-anchor="middle" x="156.5" y="-172" font-family="Helvetica,sans-Serif" font-size="10.00">boot/bootrom_constants.h</text>
</a>
</g>
</g>
<!-- Node15&#45;&gt;Node16 -->
<g id="edge18_Node000015_Node000016" class="edge">
<title>Node15&#45;&gt;Node16</title>
<g id="a_edge18_Node000015_Node000016"><a xlink:title=" ">
<path fill="none" stroke="#63b8ff" d="M240.43,-219.98C224.64,-211.61 200.28,-198.7 181.87,-188.95"/>
<polygon fill="#63b8ff" stroke="#63b8ff" points="183.33,-185.76 172.86,-184.17 180.06,-191.95 183.33,-185.76"/>
</a>
</g>
</g>
<!-- Node17 -->
<g id="Node000017" class="node">
<title>Node17</title>
<g id="a_Node000017"><a xlink:title=" ">
<polygon fill="#e0e0e0" stroke="#999999" points="91,-129 0,-129 0,-110 91,-110 91,-129"/>
<text text-anchor="middle" x="45.5" y="-117" font-family="Helvetica,sans-Serif" font-size="10.00">pico/platform.h</text>
</a>
</g>
</g>
<!-- Node16&#45;&gt;Node17 -->
<g id="edge19_Node000016_Node000017" class="edge">
<title>Node16&#45;&gt;Node17</title>
<g id="a_edge19_Node000016_Node000017"><a xlink:title=" ">
<path fill="none" stroke="#63b8ff" d="M138.67,-164.98C120.89,-156.5 93.35,-143.35 72.82,-133.54"/>
<polygon fill="#63b8ff" stroke="#63b8ff" points="74.19,-130.32 63.66,-129.17 71.17,-136.64 74.19,-130.32"/>
</a>
</g>
</g>
<!-- Node18&#45;&gt;Node5 -->
<g id="edge32_Node000018_Node000005" class="edge">
<title>Node18&#45;&gt;Node5</title>
<g id="a_edge32_Node000018_Node000005"><a xlink:title=" ">
<path fill="none" stroke="#63b8ff" d="M706.76,-274.98C681.13,-266.16 640.87,-252.31 612.09,-242.41"/>
<polygon fill="#63b8ff" stroke="#63b8ff" points="613.03,-239.03 602.44,-239.08 610.75,-245.65 613.03,-239.03"/>
</a>
</g>
</g>
<!-- Node18&#45;&gt;Node19 -->
<g id="edge21_Node000018_Node000019" class="edge">
<title>Node18&#45;&gt;Node19</title>
<g id="a_edge21_Node000018_Node000019"><a xlink:title=" ">
<path fill="none" stroke="#63b8ff" d="M773.63,-278.03C850.69,-268.02 1013.77,-246.83 1093.57,-236.47"/>
<polygon fill="#63b8ff" stroke="#63b8ff" points="1094.33,-239.9 1103.8,-235.14 1093.43,-232.96 1094.33,-239.9"/>
</a>
</g>
</g>
<!-- Node21 -->
<g id="Node000021" class="node">
<title>Node21</title>
<g id="a_Node000021"><a xlink:href="rp2__common_2hardware__dma_2include_2hardware_2dma_8h.html" target="_top" xlink:title=" ">
<polygon fill="white" stroke="#666666" points="922.5,-239 826.5,-239 826.5,-220 922.5,-220 922.5,-239"/>
<text text-anchor="middle" x="874.5" y="-227" font-family="Helvetica,sans-Serif" font-size="10.00">hardware/dma.h</text>
</a>
</g>
</g>
<!-- Node18&#45;&gt;Node21 -->
<g id="edge24_Node000018_Node000021" class="edge">
<title>Node18&#45;&gt;Node21</title>
<g id="a_edge24_Node000018_Node000021"><a xlink:title=" ">
<path fill="none" stroke="#63b8ff" d="M754.48,-274.98C778,-266.27 814.79,-252.63 841.44,-242.75"/>
<polygon fill="#63b8ff" stroke="#63b8ff" points="842.95,-245.93 851.11,-239.17 840.51,-239.36 842.95,-245.93"/>
</a>
</g>
</g>
<!-- Node19&#45;&gt;Node6 -->
<g id="edge22_Node000019_Node000006" class="edge">
<title>Node19&#45;&gt;Node6</title>
<g id="a_edge22_Node000019_Node000006"><a xlink:title=" ">
<path fill="none" stroke="#63b8ff" d="M1175.1,-227.03C1233.31,-223.31 1339.01,-210.29 1303.5,-165 1260.62,-110.31 755.92,-75.77 620.67,-67.45"/>
<polygon fill="#63b8ff" stroke="#63b8ff" points="620.7,-63.95 610.51,-66.84 620.28,-70.94 620.7,-63.95"/>
</a>
</g>
</g>
<!-- Node20 -->
<g id="Node000020" class="node">
<title>Node20</title>
<g id="a_Node000020"><a xlink:title=" ">
<polygon fill="#e0e0e0" stroke="#999999" points="1294,-184 1193,-184 1193,-165 1294,-165 1294,-184"/>
<text text-anchor="middle" x="1243.5" y="-172" font-family="Helvetica,sans-Serif" font-size="10.00">hardware/timer.h</text>
</a>
</g>
</g>
<!-- Node19&#45;&gt;Node20 -->
<g id="edge23_Node000019_Node000020" class="edge">
<title>Node19&#45;&gt;Node20</title>
<g id="a_edge23_Node000019_Node000020"><a xlink:title=" ">
<path fill="none" stroke="#63b8ff" d="M1156.21,-219.98C1172.71,-211.57 1198.2,-198.59 1217.38,-188.81"/>
<polygon fill="#63b8ff" stroke="#63b8ff" points="1219.17,-191.83 1226.49,-184.17 1215.99,-185.59 1219.17,-191.83"/>
</a>
</g>
</g>
<!-- Node21&#45;&gt;Node6 -->
<g id="edge25_Node000021_Node000006" class="edge">
<title>Node21&#45;&gt;Node6</title>
<g id="a_edge25_Node000021_Node000006"><a xlink:title=" ">
<path fill="none" stroke="#63b8ff" d="M922.59,-227.78C992.64,-225.59 1117.45,-217.03 1145.5,-184 1150.97,-177.56 1150.48,-171.82 1145.5,-165 1083.1,-79.53 731.66,-67.44 620.92,-65.76"/>
<polygon fill="#63b8ff" stroke="#63b8ff" points="620.72,-62.26 610.68,-65.63 620.63,-69.26 620.72,-62.26"/>
</a>
</g>
</g>
<!-- Node22 -->
<g id="Node000022" class="node">
<title>Node22</title>
<g id="a_Node000022"><a xlink:title=" ">
<polygon fill="#e0e0e0" stroke="#999999" points="737.5,-184 605.5,-184 605.5,-165 737.5,-165 737.5,-184"/>
<text text-anchor="middle" x="671.5" y="-172" font-family="Helvetica,sans-Serif" font-size="10.00">hardware/structs/dma.h</text>
</a>
</g>
</g>
<!-- Node21&#45;&gt;Node22 -->
<g id="edge26_Node000021_Node000022" class="edge">
<title>Node21&#45;&gt;Node22</title>
<g id="a_edge26_Node000021_Node000022"><a xlink:title=" ">
<path fill="none" stroke="#63b8ff" d="M841.88,-219.98C807.21,-210.93 752.24,-196.58 714.15,-186.64"/>
<polygon fill="#63b8ff" stroke="#63b8ff" points="714.93,-183.22 704.37,-184.08 713.16,-189.99 714.93,-183.22"/>
</a>
</g>
</g>
<!-- Node23 -->
<g id="Node000023" class="node">
<title>Node23</title>
<g id="a_Node000023"><a xlink:title=" ">
<polygon fill="#e0e0e0" stroke="#999999" points="875.5,-184 755.5,-184 755.5,-165 875.5,-165 875.5,-184"/>
<text text-anchor="middle" x="815.5" y="-172" font-family="Helvetica,sans-Serif" font-size="10.00">hardware/regs/dreq.h</text>
</a>
</g>
</g>
<!-- Node21&#45;&gt;Node23 -->
<g id="edge27_Node000021_Node000023" class="edge">
<title>Node21&#45;&gt;Node23</title>
<g id="a_edge27_Node000021_Node000023"><a xlink:title=" ">
<path fill="none" stroke="#63b8ff" d="M865.02,-219.98C856.3,-212.15 843.16,-200.34 832.6,-190.86"/>
<polygon fill="#63b8ff" stroke="#63b8ff" points="834.93,-188.25 825.15,-184.17 830.25,-193.46 834.93,-188.25"/>
</a>
</g>
</g>
<!-- Node24 -->
<g id="Node000024" class="node">
<title>Node24</title>
<g id="a_Node000024"><a xlink:href="assert_8h.html" target="_top" xlink:title=" ">
<polygon fill="white" stroke="#666666" points="973,-184 894,-184 894,-165 973,-165 973,-184"/>
<text text-anchor="middle" x="933.5" y="-172" font-family="Helvetica,sans-Serif" font-size="10.00">pico/assert.h</text>
</a>
</g>
</g>
<!-- Node21&#45;&gt;Node24 -->
<g id="edge28_Node000021_Node000024" class="edge">
<title>Node21&#45;&gt;Node24</title>
<g id="a_edge28_Node000021_Node000024"><a xlink:title=" ">
<path fill="none" stroke="#63b8ff" d="M883.98,-219.98C892.7,-212.15 905.84,-200.34 916.4,-190.86"/>
<polygon fill="#63b8ff" stroke="#63b8ff" points="918.75,-193.46 923.85,-184.17 914.07,-188.25 918.75,-193.46"/>
</a>
</g>
</g>
<!-- Node26 -->
<g id="Node000026" class="node">
<title>Node26</title>
<g id="a_Node000026"><a xlink:title=" ">
<polygon fill="#e0e0e0" stroke="#999999" points="1136,-184 1009,-184 1009,-165 1136,-165 1136,-184"/>
<text text-anchor="middle" x="1072.5" y="-172" font-family="Helvetica,sans-Serif" font-size="10.00">hardware/regs/intctrl.h</text>
</a>
</g>
</g>
<!-- Node21&#45;&gt;Node26 -->
<g id="edge31_Node000021_Node000026" class="edge">
<title>Node21&#45;&gt;Node26</title>
<g id="a_edge31_Node000021_Node000026"><a xlink:title=" ">
<path fill="none" stroke="#63b8ff" d="M906.31,-219.98C939.99,-210.97 993.3,-196.7 1030.42,-186.76"/>
<polygon fill="#63b8ff" stroke="#63b8ff" points="1031.68,-190.05 1040.44,-184.08 1029.87,-183.29 1031.68,-190.05"/>
</a>
</g>
</g>
<!-- Node24&#45;&gt;Node24 -->
<g id="edge30_Node000024_Node000024" class="edge">
<title>Node24&#45;&gt;Node24</title>
<g id="a_edge30_Node000024_Node000024"><a xlink:title=" ">
<path fill="none" stroke="#63b8ff" d="M960.41,-184.03C976.21,-186.06 991,-182.88 991,-174.5 991,-167.95 981.97,-164.58 970.49,-164.38"/>
<polygon fill="#63b8ff" stroke="#63b8ff" points="970.19,-160.9 960.41,-164.97 970.6,-167.88 970.19,-160.9"/>
</a>
</g>
</g>
<!-- Node25 -->
<g id="Node000025" class="node">
<title>Node25</title>
<g id="a_Node000025"><a xlink:title=" ">
<polygon fill="#e0e0e0" stroke="#999999" points="964.5,-129 902.5,-129 902.5,-110 964.5,-110 964.5,-129"/>
<text text-anchor="middle" x="933.5" y="-117" font-family="Helvetica,sans-Serif" font-size="10.00">stdbool.h</text>
</a>
</g>
</g>
<!-- Node24&#45;&gt;Node25 -->
<g id="edge29_Node000024_Node000025" class="edge">
<title>Node24&#45;&gt;Node25</title>
<g id="a_edge29_Node000024_Node000025"><a xlink:title=" ">
<path fill="none" stroke="#63b8ff" d="M933.5,-164.75C933.5,-157.8 933.5,-147.85 933.5,-139.13"/>
<polygon fill="#63b8ff" stroke="#63b8ff" points="937,-139.09 933.5,-129.09 930,-139.09 937,-139.09"/>
</a>
</g>
</g>
</g>
</svg>
