<?xml version="1.0" encoding="UTF-8" standalone="no"?>
<!DOCTYPE svg PUBLIC "-//W3C//DTD SVG 1.1//EN"
 "http://www.w3.org/Graphics/SVG/1.1/DTD/svg11.dtd">
<!-- Generated by graphviz version 2.43.0 (0)
 -->
<!-- Title: pico_bootsel_via_double_reset.c Pages: 1 -->
<svg width="1460pt" height="313pt"
 viewBox="0.00 0.00 1459.50 313.00" xmlns="http://www.w3.org/2000/svg" xmlns:xlink="http://www.w3.org/1999/xlink">
<g id="graph0" class="graph" transform="scale(1 1) rotate(0) translate(4 309)">
<title>pico_bootsel_via_double_reset.c</title>
<!-- Node1 -->
<g id="Node000001" class="node">
<title>Node1</title>
<g id="a_Node000001"><a xlink:title=" ">
<polygon fill="#999999" stroke="#666666" points="668,-305 531,-305 531,-275 668,-275 668,-305"/>
<text text-anchor="start" x="539" y="-293" font-family="Helvetica,sans-Serif" font-size="10.00">pico_bootsel_via_double</text>
<text text-anchor="middle" x="599.5" y="-282" font-family="Helvetica,sans-Serif" font-size="10.00">_reset.c</text>
</a>
</g>
</g>
<!-- Node2 -->
<g id="Node000002" class="node">
<title>Node2</title>
<g id="a_Node000002"><a xlink:title=" ">
<polygon fill="#e0e0e0" stroke="#999999" points="584.5,-74 538.5,-74 538.5,-55 584.5,-55 584.5,-74"/>
<text text-anchor="middle" x="561.5" y="-62" font-family="Helvetica,sans-Serif" font-size="10.00">pico.h</text>
</a>
</g>
</g>
<!-- Node1&#45;&gt;Node2 -->
<g id="edge1_Node000001_Node000002" class="edge">
<title>Node1&#45;&gt;Node2</title>
<g id="a_edge1_Node000001_Node000002"><a xlink:title=" ">
<path fill="none" stroke="#63b8ff" d="M597.07,-274.68C590.45,-235.76 572.14,-128.07 564.7,-84.33"/>
<polygon fill="#63b8ff" stroke="#63b8ff" points="568.11,-83.5 562.98,-74.23 561.21,-84.68 568.11,-83.5"/>
</a>
</g>
</g>
<!-- Node3 -->
<g id="Node000003" class="node">
<title>Node3</title>
<g id="a_Node000003"><a xlink:href="common_2pico__time_2include_2pico_2time_8h.html" target="_top" xlink:title=" ">
<polygon fill="white" stroke="#666666" points="165,-239 94,-239 94,-220 165,-220 165,-239"/>
<text text-anchor="middle" x="129.5" y="-227" font-family="Helvetica,sans-Serif" font-size="10.00">pico/time.h</text>
</a>
</g>
</g>
<!-- Node1&#45;&gt;Node3 -->
<g id="edge2_Node000001_Node000003" class="edge">
<title>Node1&#45;&gt;Node3</title>
<g id="a_edge2_Node000001_Node000003"><a xlink:title=" ">
<path fill="none" stroke="#63b8ff" d="M530.91,-280.46C433.66,-268.36 258.33,-246.54 175.38,-236.21"/>
<polygon fill="#63b8ff" stroke="#63b8ff" points="175.61,-232.71 165.26,-234.95 174.75,-239.66 175.61,-232.71"/>
</a>
</g>
</g>
<!-- Node5 -->
<g id="Node000005" class="node">
<title>Node5</title>
<g id="a_Node000005"><a xlink:href="bootrom_8h.html" target="_top" xlink:title=" ">
<polygon fill="white" stroke="#666666" points="526.5,-239 436.5,-239 436.5,-220 526.5,-220 526.5,-239"/>
<text text-anchor="middle" x="481.5" y="-227" font-family="Helvetica,sans-Serif" font-size="10.00">pico/bootrom.h</text>
</a>
</g>
</g>
<!-- Node1&#45;&gt;Node5 -->
<g id="edge5_Node000001_Node000005" class="edge">
<title>Node1&#45;&gt;Node5</title>
<g id="a_edge5_Node000001_Node000005"><a xlink:title=" ">
<path fill="none" stroke="#63b8ff" d="M571.24,-274.99C552.08,-265.49 526.92,-253.02 508.11,-243.69"/>
<polygon fill="#63b8ff" stroke="#63b8ff" points="509.44,-240.45 498.93,-239.14 506.33,-246.72 509.44,-240.45"/>
</a>
</g>
</g>
<!-- Node13 -->
<g id="Node000013" class="node">
<title>Node13</title>
<g id="a_Node000013"><a xlink:href="binary__info_8h.html" target="_top" xlink:title=" ">
<polygon fill="white" stroke="#666666" points="817.5,-239 713.5,-239 713.5,-220 817.5,-220 817.5,-239"/>
<text text-anchor="middle" x="765.5" y="-227" font-family="Helvetica,sans-Serif" font-size="10.00">pico/binary_info.h</text>
</a>
</g>
</g>
<!-- Node1&#45;&gt;Node13 -->
<g id="edge17_Node000001_Node000013" class="edge">
<title>Node1&#45;&gt;Node13</title>
<g id="a_edge17_Node000001_Node000013"><a xlink:title=" ">
<path fill="none" stroke="#63b8ff" d="M639.26,-274.99C667.33,-265.1 704.55,-251.98 731.29,-242.56"/>
<polygon fill="#63b8ff" stroke="#63b8ff" points="732.72,-245.76 740.99,-239.14 730.39,-239.16 732.72,-245.76"/>
</a>
</g>
</g>
<!-- Node18 -->
<g id="Node000018" class="node">
<title>Node18</title>
<g id="a_Node000018"><a xlink:href="rp2350_2hardware__structs_2include_2hardware_2structs_2powman_8h.html" target="_top" xlink:title=" ">
<polygon fill="white" stroke="#666666" points="1105.5,-239 953.5,-239 953.5,-220 1105.5,-220 1105.5,-239"/>
<text text-anchor="middle" x="1029.5" y="-227" font-family="Helvetica,sans-Serif" font-size="10.00">hardware/structs/powman.h</text>
</a>
</g>
</g>
<!-- Node1&#45;&gt;Node18 -->
<g id="edge24_Node000001_Node000018" class="edge">
<title>Node1&#45;&gt;Node18</title>
<g id="a_edge24_Node000001_Node000018"><a xlink:title=" ">
<path fill="none" stroke="#63b8ff" d="M668.11,-279.67C747.01,-268.93 876.01,-251.38 956.65,-240.41"/>
<polygon fill="#63b8ff" stroke="#63b8ff" points="957.29,-243.86 966.73,-239.04 956.35,-236.92 957.29,-243.86"/>
</a>
</g>
</g>
<!-- Node3&#45;&gt;Node2 -->
<g id="edge3_Node000003_Node000002" class="edge">
<title>Node3&#45;&gt;Node2</title>
<g id="a_edge3_Node000003_Node000002"><a xlink:title=" ">
<path fill="none" stroke="#63b8ff" d="M127.77,-219.77C123.98,-197.71 117.53,-139.41 148.5,-110 175.88,-84 434.86,-70.76 528.19,-66.8"/>
<polygon fill="#63b8ff" stroke="#63b8ff" points="528.37,-70.3 538.22,-66.38 528.08,-63.3 528.37,-70.3"/>
</a>
</g>
</g>
<!-- Node4 -->
<g id="Node000004" class="node">
<title>Node4</title>
<g id="a_Node000004"><a xlink:title=" ">
<polygon fill="#e0e0e0" stroke="#999999" points="101,-184 0,-184 0,-165 101,-165 101,-184"/>
<text text-anchor="middle" x="50.5" y="-172" font-family="Helvetica,sans-Serif" font-size="10.00">hardware/timer.h</text>
</a>
</g>
</g>
<!-- Node3&#45;&gt;Node4 -->
<g id="edge4_Node000003_Node000004" class="edge">
<title>Node3&#45;&gt;Node4</title>
<g id="a_edge4_Node000003_Node000004"><a xlink:title=" ">
<path fill="none" stroke="#63b8ff" d="M116.81,-219.98C104.67,-211.84 86.14,-199.41 71.75,-189.76"/>
<polygon fill="#63b8ff" stroke="#63b8ff" points="73.68,-186.84 63.42,-184.17 69.78,-192.65 73.68,-186.84"/>
</a>
</g>
</g>
<!-- Node5&#45;&gt;Node2 -->
<g id="edge6_Node000005_Node000002" class="edge">
<title>Node5&#45;&gt;Node2</title>
<g id="a_edge6_Node000005_Node000002"><a xlink:title=" ">
<path fill="none" stroke="#63b8ff" d="M487.7,-219.84C499.52,-203.02 525.49,-164.49 541.5,-129 548.04,-114.5 553.33,-97.23 556.83,-84.36"/>
<polygon fill="#63b8ff" stroke="#63b8ff" points="560.29,-84.93 559.42,-74.37 553.52,-83.17 560.29,-84.93"/>
</a>
</g>
</g>
<!-- Node6 -->
<g id="Node000006" class="node">
<title>Node6</title>
<g id="a_Node000006"><a xlink:href="pico__bootrom_2include_2pico_2bootrom__constants_8h.html" target="_top" xlink:title=" ">
<polygon fill="white" stroke="#666666" points="301,-129 158,-129 158,-110 301,-110 301,-129"/>
<text text-anchor="middle" x="229.5" y="-117" font-family="Helvetica,sans-Serif" font-size="10.00">pico/bootrom_constants.h</text>
</a>
</g>
</g>
<!-- Node5&#45;&gt;Node6 -->
<g id="edge7_Node000005_Node000006" class="edge">
<title>Node5&#45;&gt;Node6</title>
<g id="a_edge7_Node000005_Node000006"><a xlink:title=" ">
<path fill="none" stroke="#63b8ff" d="M436.34,-225.79C395.12,-221.61 333.77,-210.99 287.5,-184 267.82,-172.52 251,-152.17 240.62,-137.6"/>
<polygon fill="#63b8ff" stroke="#63b8ff" points="243.28,-135.3 234.76,-129.01 237.5,-139.24 243.28,-135.3"/>
</a>
</g>
</g>
<!-- Node9 -->
<g id="Node000009" class="node">
<title>Node9</title>
<g id="a_Node000009"><a xlink:title=" ">
<polygon fill="#e0e0e0" stroke="#999999" points="481,-184 428,-184 428,-165 481,-165 481,-184"/>
<text text-anchor="middle" x="454.5" y="-172" font-family="Helvetica,sans-Serif" font-size="10.00">string.h</text>
</a>
</g>
</g>
<!-- Node5&#45;&gt;Node9 -->
<g id="edge10_Node000005_Node000009" class="edge">
<title>Node5&#45;&gt;Node9</title>
<g id="a_edge10_Node000005_Node000009"><a xlink:title=" ">
<path fill="none" stroke="#63b8ff" d="M477.04,-219.75C473.38,-212.57 468.09,-202.18 463.55,-193.27"/>
<polygon fill="#63b8ff" stroke="#63b8ff" points="466.53,-191.41 458.88,-184.09 460.3,-194.59 466.53,-191.41"/>
</a>
</g>
</g>
<!-- Node10 -->
<g id="Node000010" class="node">
<title>Node10</title>
<g id="a_Node000010"><a xlink:href="lock_8h.html" target="_top" xlink:title=" ">
<polygon fill="white" stroke="#666666" points="410,-184 297,-184 297,-165 410,-165 410,-184"/>
<text text-anchor="middle" x="353.5" y="-172" font-family="Helvetica,sans-Serif" font-size="10.00">pico/bootrom/lock.h</text>
</a>
</g>
</g>
<!-- Node5&#45;&gt;Node10 -->
<g id="edge11_Node000005_Node000010" class="edge">
<title>Node5&#45;&gt;Node10</title>
<g id="a_edge11_Node000005_Node000010"><a xlink:title=" ">
<path fill="none" stroke="#63b8ff" d="M460.93,-219.98C440.07,-211.34 407.53,-197.87 383.73,-188.02"/>
<polygon fill="#63b8ff" stroke="#63b8ff" points="385.02,-184.76 374.44,-184.17 382.34,-191.23 385.02,-184.76"/>
</a>
</g>
</g>
<!-- Node12 -->
<g id="Node000012" class="node">
<title>Node12</title>
<g id="a_Node000012"><a xlink:href="pico__flash_2include_2pico_2flash_8h.html" target="_top" xlink:title=" ">
<polygon fill="white" stroke="#666666" points="533,-129 460,-129 460,-110 533,-110 533,-129"/>
<text text-anchor="middle" x="496.5" y="-117" font-family="Helvetica,sans-Serif" font-size="10.00">pico/flash.h</text>
</a>
</g>
</g>
<!-- Node5&#45;&gt;Node12 -->
<g id="edge15_Node000005_Node000012" class="edge">
<title>Node5&#45;&gt;Node12</title>
<g id="a_edge15_Node000005_Node000012"><a xlink:title=" ">
<path fill="none" stroke="#63b8ff" d="M483.21,-220C484.96,-211.06 487.68,-196.58 489.5,-184 491.67,-169.04 493.51,-152.01 494.76,-139.36"/>
<polygon fill="#63b8ff" stroke="#63b8ff" points="498.27,-139.44 495.73,-129.15 491.3,-138.77 498.27,-139.44"/>
</a>
</g>
</g>
<!-- Node7 -->
<g id="Node000007" class="node">
<title>Node7</title>
<g id="a_Node000007"><a xlink:href="boot__bootrom__headers_2include_2boot_2bootrom__constants_8h.html" target="_top" xlink:title=" ">
<polygon fill="white" stroke="#666666" points="301.5,-74 157.5,-74 157.5,-55 301.5,-55 301.5,-74"/>
<text text-anchor="middle" x="229.5" y="-62" font-family="Helvetica,sans-Serif" font-size="10.00">boot/bootrom_constants.h</text>
</a>
</g>
</g>
<!-- Node6&#45;&gt;Node7 -->
<g id="edge8_Node000006_Node000007" class="edge">
<title>Node6&#45;&gt;Node7</title>
<g id="a_edge8_Node000006_Node000007"><a xlink:title=" ">
<path fill="none" stroke="#63b8ff" d="M229.5,-109.75C229.5,-102.8 229.5,-92.85 229.5,-84.13"/>
<polygon fill="#63b8ff" stroke="#63b8ff" points="233,-84.09 229.5,-74.09 226,-84.09 233,-84.09"/>
</a>
</g>
</g>
<!-- Node8 -->
<g id="Node000008" class="node">
<title>Node8</title>
<g id="a_Node000008"><a xlink:title=" ">
<polygon fill="#e0e0e0" stroke="#999999" points="275,-19 184,-19 184,0 275,0 275,-19"/>
<text text-anchor="middle" x="229.5" y="-7" font-family="Helvetica,sans-Serif" font-size="10.00">pico/platform.h</text>
</a>
</g>
</g>
<!-- Node7&#45;&gt;Node8 -->
<g id="edge9_Node000007_Node000008" class="edge">
<title>Node7&#45;&gt;Node8</title>
<g id="a_edge9_Node000007_Node000008"><a xlink:title=" ">
<path fill="none" stroke="#63b8ff" d="M229.5,-54.75C229.5,-47.8 229.5,-37.85 229.5,-29.13"/>
<polygon fill="#63b8ff" stroke="#63b8ff" points="233,-29.09 229.5,-19.09 226,-29.09 233,-29.09"/>
</a>
</g>
</g>
<!-- Node10&#45;&gt;Node6 -->
<g id="edge14_Node000010_Node000006" class="edge">
<title>Node10&#45;&gt;Node6</title>
<g id="a_edge14_Node000010_Node000006"><a xlink:title=" ">
<path fill="none" stroke="#63b8ff" d="M333.58,-164.98C313.45,-156.38 282.12,-142.99 259.09,-133.15"/>
<polygon fill="#63b8ff" stroke="#63b8ff" points="260.36,-129.88 249.79,-129.17 257.6,-136.32 260.36,-129.88"/>
</a>
</g>
</g>
<!-- Node11 -->
<g id="Node000011" class="node">
<title>Node11</title>
<g id="a_Node000011"><a xlink:href="boot__lock_8h.html" target="_top" xlink:title=" ">
<polygon fill="white" stroke="#666666" points="441.5,-129 319.5,-129 319.5,-110 441.5,-110 441.5,-129"/>
<text text-anchor="middle" x="380.5" y="-117" font-family="Helvetica,sans-Serif" font-size="10.00">hardware/boot_lock.h</text>
</a>
</g>
</g>
<!-- Node10&#45;&gt;Node11 -->
<g id="edge12_Node000010_Node000011" class="edge">
<title>Node10&#45;&gt;Node11</title>
<g id="a_edge12_Node000010_Node000011"><a xlink:title=" ">
<path fill="none" stroke="#63b8ff" d="M357.96,-164.75C361.62,-157.57 366.91,-147.18 371.45,-138.27"/>
<polygon fill="#63b8ff" stroke="#63b8ff" points="374.7,-139.59 376.12,-129.09 368.47,-136.41 374.7,-139.59"/>
</a>
</g>
</g>
<!-- Node11&#45;&gt;Node2 -->
<g id="edge13_Node000011_Node000002" class="edge">
<title>Node11&#45;&gt;Node2</title>
<g id="a_edge13_Node000011_Node000002"><a xlink:title=" ">
<path fill="none" stroke="#63b8ff" d="M409.58,-109.98C442,-100.49 494.34,-85.17 528.33,-75.21"/>
<polygon fill="#63b8ff" stroke="#63b8ff" points="529.63,-78.48 538.25,-72.31 527.66,-71.76 529.63,-78.48"/>
</a>
</g>
</g>
<!-- Node12&#45;&gt;Node2 -->
<g id="edge16_Node000012_Node000002" class="edge">
<title>Node12&#45;&gt;Node2</title>
<g id="a_edge16_Node000012_Node000002"><a xlink:title=" ">
<path fill="none" stroke="#63b8ff" d="M506.94,-109.98C516.65,-102.07 531.32,-90.11 543,-80.58"/>
<polygon fill="#63b8ff" stroke="#63b8ff" points="545.33,-83.2 550.87,-74.17 540.9,-77.78 545.33,-83.2"/>
</a>
</g>
</g>
<!-- Node14 -->
<g id="Node000014" class="node">
<title>Node14</title>
<g id="a_Node000014"><a xlink:href="defs_8h.html" target="_top" xlink:title=" ">
<polygon fill="white" stroke="#666666" points="903.5,-184 775.5,-184 775.5,-165 903.5,-165 903.5,-184"/>
<text text-anchor="middle" x="839.5" y="-172" font-family="Helvetica,sans-Serif" font-size="10.00">pico/binary_info/defs.h</text>
</a>
</g>
</g>
<!-- Node13&#45;&gt;Node14 -->
<g id="edge18_Node000013_Node000014" class="edge">
<title>Node13&#45;&gt;Node14</title>
<g id="a_edge18_Node000013_Node000014"><a xlink:title=" ">
<path fill="none" stroke="#63b8ff" d="M777.39,-219.98C788.65,-211.92 805.79,-199.65 819.21,-190.03"/>
<polygon fill="#63b8ff" stroke="#63b8ff" points="821.3,-192.84 827.39,-184.17 817.23,-187.15 821.3,-192.84"/>
</a>
</g>
</g>
<!-- Node15 -->
<g id="Node000015" class="node">
<title>Node15</title>
<g id="a_Node000015"><a xlink:href="structure_8h.html" target="_top" xlink:title=" ">
<polygon fill="white" stroke="#666666" points="925.5,-129 775.5,-129 775.5,-110 925.5,-110 925.5,-129"/>
<text text-anchor="middle" x="850.5" y="-117" font-family="Helvetica,sans-Serif" font-size="10.00">pico/binary_info/structure.h</text>
</a>
</g>
</g>
<!-- Node13&#45;&gt;Node15 -->
<g id="edge19_Node000013_Node000015" class="edge">
<title>Node13&#45;&gt;Node15</title>
<g id="a_edge19_Node000013_Node000015"><a xlink:title=" ">
<path fill="none" stroke="#63b8ff" d="M817.51,-227.57C850.46,-223.94 890.81,-213.23 912.5,-184 926.62,-164.97 901.39,-145.88 879,-133.68"/>
<polygon fill="#63b8ff" stroke="#63b8ff" points="880.51,-130.52 870.02,-129.05 877.3,-136.74 880.51,-130.52"/>
</a>
</g>
</g>
<!-- Node17 -->
<g id="Node000017" class="node">
<title>Node17</title>
<g id="a_Node000017"><a xlink:href="code_8h.html" target="_top" xlink:title=" ">
<polygon fill="white" stroke="#666666" points="757.5,-184 627.5,-184 627.5,-165 757.5,-165 757.5,-184"/>
<text text-anchor="middle" x="692.5" y="-172" font-family="Helvetica,sans-Serif" font-size="10.00">pico/binary_info/code.h</text>
</a>
</g>
</g>
<!-- Node13&#45;&gt;Node17 -->
<g id="edge21_Node000013_Node000017" class="edge">
<title>Node13&#45;&gt;Node17</title>
<g id="a_edge21_Node000013_Node000017"><a xlink:title=" ">
<path fill="none" stroke="#63b8ff" d="M753.77,-219.98C742.77,-212 726.08,-199.88 712.9,-190.31"/>
<polygon fill="#63b8ff" stroke="#63b8ff" points="714.59,-187.21 704.44,-184.17 710.48,-192.88 714.59,-187.21"/>
</a>
</g>
</g>
<!-- Node16 -->
<g id="Node000016" class="node">
<title>Node16</title>
<g id="a_Node000016"><a xlink:title=" ">
<polygon fill="#e0e0e0" stroke="#999999" points="877,-74 824,-74 824,-55 877,-55 877,-74"/>
<text text-anchor="middle" x="850.5" y="-62" font-family="Helvetica,sans-Serif" font-size="10.00">stdint.h</text>
</a>
</g>
</g>
<!-- Node15&#45;&gt;Node16 -->
<g id="edge20_Node000015_Node000016" class="edge">
<title>Node15&#45;&gt;Node16</title>
<g id="a_edge20_Node000015_Node000016"><a xlink:title=" ">
<path fill="none" stroke="#63b8ff" d="M850.5,-109.75C850.5,-102.8 850.5,-92.85 850.5,-84.13"/>
<polygon fill="#63b8ff" stroke="#63b8ff" points="854,-84.09 850.5,-74.09 847,-84.09 854,-84.09"/>
</a>
</g>
</g>
<!-- Node17&#45;&gt;Node2 -->
<g id="edge22_Node000017_Node000002" class="edge">
<title>Node17&#45;&gt;Node2</title>
<g id="a_edge22_Node000017_Node000002"><a xlink:title=" ">
<path fill="none" stroke="#63b8ff" d="M681.78,-164.66C659.41,-146.22 607.53,-103.45 579.78,-80.57"/>
<polygon fill="#63b8ff" stroke="#63b8ff" points="581.94,-77.82 572,-74.16 577.49,-83.22 581.94,-77.82"/>
</a>
</g>
</g>
<!-- Node17&#45;&gt;Node15 -->
<g id="edge23_Node000017_Node000015" class="edge">
<title>Node17&#45;&gt;Node15</title>
<g id="a_edge23_Node000017_Node000015"><a xlink:title=" ">
<path fill="none" stroke="#63b8ff" d="M717.89,-164.98C744.3,-156.13 785.85,-142.19 815.39,-132.28"/>
<polygon fill="#63b8ff" stroke="#63b8ff" points="816.55,-135.58 824.92,-129.08 814.32,-128.94 816.55,-135.58"/>
</a>
</g>
</g>
<!-- Node19 -->
<g id="Node000019" class="node">
<title>Node19</title>
<g id="a_Node000019"><a xlink:href="address__mapped_8h.html" target="_top" xlink:title=" ">
<polygon fill="white" stroke="#666666" points="1275.5,-184 1117.5,-184 1117.5,-165 1275.5,-165 1275.5,-184"/>
<text text-anchor="middle" x="1196.5" y="-172" font-family="Helvetica,sans-Serif" font-size="10.00">hardware/address_mapped.h</text>
</a>
</g>
</g>
<!-- Node18&#45;&gt;Node19 -->
<g id="edge25_Node000018_Node000019" class="edge">
<title>Node18&#45;&gt;Node19</title>
<g id="a_edge25_Node000018_Node000019"><a xlink:title=" ">
<path fill="none" stroke="#63b8ff" d="M1056.33,-219.98C1084.37,-211.09 1128.55,-197.07 1159.8,-187.15"/>
<polygon fill="#63b8ff" stroke="#63b8ff" points="1160.99,-190.44 1169.46,-184.08 1158.87,-183.77 1160.99,-190.44"/>
</a>
</g>
</g>
<!-- Node23 -->
<g id="Node000023" class="node">
<title>Node23</title>
<g id="a_Node000023"><a xlink:href="rp2350_2hardware__regs_2include_2hardware_2regs_2powman_8h.html" target="_top" xlink:title=" ">
<polygon fill="white" stroke="#666666" points="1099.5,-184 959.5,-184 959.5,-165 1099.5,-165 1099.5,-184"/>
<text text-anchor="middle" x="1029.5" y="-172" font-family="Helvetica,sans-Serif" font-size="10.00">hardware/regs/powman.h</text>
</a>
</g>
</g>
<!-- Node18&#45;&gt;Node23 -->
<g id="edge31_Node000018_Node000023" class="edge">
<title>Node18&#45;&gt;Node23</title>
<g id="a_edge31_Node000018_Node000023"><a xlink:title=" ">
<path fill="none" stroke="#63b8ff" d="M1029.5,-219.75C1029.5,-212.8 1029.5,-202.85 1029.5,-194.13"/>
<polygon fill="#63b8ff" stroke="#63b8ff" points="1033,-194.09 1029.5,-184.09 1026,-194.09 1033,-194.09"/>
</a>
</g>
</g>
<!-- Node19&#45;&gt;Node2 -->
<g id="edge26_Node000019_Node000002" class="edge">
<title>Node19&#45;&gt;Node2</title>
<g id="a_edge26_Node000019_Node000002"><a xlink:title=" ">
<path fill="none" stroke="#63b8ff" d="M1166.49,-164.99C1118.06,-151.54 1019.48,-125.31 934.5,-110 810.17,-87.6 660.42,-73.62 594.92,-68.14"/>
<polygon fill="#63b8ff" stroke="#63b8ff" points="595.03,-64.64 584.78,-67.31 594.46,-71.62 595.03,-64.64"/>
</a>
</g>
</g>
<!-- Node20 -->
<g id="Node000020" class="node">
<title>Node20</title>
<g id="a_Node000020"><a xlink:title=" ">
<polygon fill="#e0e0e0" stroke="#999999" points="1451.5,-129 1293.5,-129 1293.5,-110 1451.5,-110 1451.5,-129"/>
<text text-anchor="middle" x="1372.5" y="-117" font-family="Helvetica,sans-Serif" font-size="10.00">hardware/regs/addressmap.h</text>
</a>
</g>
</g>
<!-- Node19&#45;&gt;Node20 -->
<g id="edge27_Node000019_Node000020" class="edge">
<title>Node19&#45;&gt;Node20</title>
<g id="a_edge27_Node000019_Node000020"><a xlink:title=" ">
<path fill="none" stroke="#63b8ff" d="M1224.78,-164.98C1254.45,-156.05 1301.29,-141.94 1334.25,-132.02"/>
<polygon fill="#63b8ff" stroke="#63b8ff" points="1335.43,-135.32 1344,-129.08 1333.42,-128.61 1335.43,-135.32"/>
</a>
</g>
</g>
<!-- Node21 -->
<g id="Node000021" class="node">
<title>Node21</title>
<g id="a_Node000021"><a xlink:href="hardware__structs_2include_2hardware_2structs_2accessctrl_8h.html" target="_top" xlink:title=" ">
<polygon fill="white" stroke="#666666" points="1276,-129 1117,-129 1117,-110 1276,-110 1276,-129"/>
<text text-anchor="middle" x="1196.5" y="-117" font-family="Helvetica,sans-Serif" font-size="10.00">hardware/structs/accessctrl.h</text>
</a>
</g>
</g>
<!-- Node19&#45;&gt;Node21 -->
<g id="edge28_Node000019_Node000021" class="edge">
<title>Node19&#45;&gt;Node21</title>
<g id="a_edge28_Node000019_Node000021"><a xlink:title=" ">
<path fill="none" stroke="#63b8ff" d="M1191.33,-164.75C1189.84,-157.8 1189.4,-147.85 1190.02,-139.13"/>
<polygon fill="#63b8ff" stroke="#63b8ff" points="1193.51,-139.47 1191.37,-129.09 1186.57,-138.53 1193.51,-139.47"/>
</a>
</g>
</g>
<!-- Node21&#45;&gt;Node19 -->
<g id="edge29_Node000021_Node000019" class="edge">
<title>Node21&#45;&gt;Node19</title>
<g id="a_edge29_Node000021_Node000019"><a xlink:title=" ">
<path fill="none" stroke="#63b8ff" d="M1201.63,-129.09C1203.14,-135.99 1203.59,-145.93 1202.99,-154.66"/>
<polygon fill="#63b8ff" stroke="#63b8ff" points="1199.5,-154.38 1201.67,-164.75 1206.44,-155.29 1199.5,-154.38"/>
</a>
</g>
</g>
<!-- Node22 -->
<g id="Node000022" class="node">
<title>Node22</title>
<g id="a_Node000022"><a xlink:href="hardware__regs_2include_2hardware_2regs_2accessctrl_8h.html" target="_top" xlink:title=" ">
<polygon fill="white" stroke="#666666" points="1270,-74 1123,-74 1123,-55 1270,-55 1270,-74"/>
<text text-anchor="middle" x="1196.5" y="-62" font-family="Helvetica,sans-Serif" font-size="10.00">hardware/regs/accessctrl.h</text>
</a>
</g>
</g>
<!-- Node21&#45;&gt;Node22 -->
<g id="edge30_Node000021_Node000022" class="edge">
<title>Node21&#45;&gt;Node22</title>
<g id="a_edge30_Node000021_Node000022"><a xlink:title=" ">
<path fill="none" stroke="#63b8ff" d="M1196.5,-109.75C1196.5,-102.8 1196.5,-92.85 1196.5,-84.13"/>
<polygon fill="#63b8ff" stroke="#63b8ff" points="1200,-84.09 1196.5,-74.09 1193,-84.09 1200,-84.09"/>
</a>
</g>
</g>
</g>
</svg>
