<?xml version="1.0" encoding="UTF-8" standalone="no"?>
<!DOCTYPE svg PUBLIC "-//W3C//DTD SVG 1.1//EN"
 "http://www.w3.org/Graphics/SVG/1.1/DTD/svg11.dtd">
<!-- Generated by graphviz version 2.43.0 (0)
 -->
<!-- Title: pico_mbedtls.c Pages: 1 -->
<svg width="460pt" height="82pt"
 viewBox="0.00 0.00 459.50 82.00" xmlns="http://www.w3.org/2000/svg" xmlns:xlink="http://www.w3.org/1999/xlink">
<g id="graph0" class="graph" transform="scale(1 1) rotate(0) translate(4 78)">
<title>pico_mbedtls.c</title>
<!-- Node1 -->
<g id="Node000001" class="node">
<title>Node1</title>
<g id="a_Node000001"><a xlink:title=" ">
<polygon fill="#999999" stroke="#666666" points="216.5,-74 126.5,-74 126.5,-55 216.5,-55 216.5,-74"/>
<text text-anchor="middle" x="171.5" y="-62" font-family="Helvetica,sans-Serif" font-size="10.00">pico_mbedtls.c</text>
</a>
</g>
</g>
<!-- Node2 -->
<g id="Node000002" class="node">
<title>Node2</title>
<g id="a_Node000002"><a xlink:title=" ">
<polygon fill="#e0e0e0" stroke="#999999" points="53,-19 0,-19 0,0 53,0 53,-19"/>
<text text-anchor="middle" x="26.5" y="-7" font-family="Helvetica,sans-Serif" font-size="10.00">string.h</text>
</a>
</g>
</g>
<!-- Node1&#45;&gt;Node2 -->
<g id="edge1_Node000001_Node000002" class="edge">
<title>Node1&#45;&gt;Node2</title>
<g id="a_edge1_Node000001_Node000002"><a xlink:title=" ">
<path fill="none" stroke="#63b8ff" d="M148.2,-54.98C124.25,-46.23 86.72,-32.51 59.67,-22.62"/>
<polygon fill="#63b8ff" stroke="#63b8ff" points="60.81,-19.32 50.22,-19.17 58.41,-25.89 60.81,-19.32"/>
</a>
</g>
</g>
<!-- Node3 -->
<g id="Node000003" class="node">
<title>Node3</title>
<g id="a_Node000003"><a xlink:title=" ">
<polygon fill="#e0e0e0" stroke="#999999" points="117.5,-19 71.5,-19 71.5,0 117.5,0 117.5,-19"/>
<text text-anchor="middle" x="94.5" y="-7" font-family="Helvetica,sans-Serif" font-size="10.00">pico.h</text>
</a>
</g>
</g>
<!-- Node1&#45;&gt;Node3 -->
<g id="edge2_Node000001_Node000003" class="edge">
<title>Node1&#45;&gt;Node3</title>
<g id="a_edge2_Node000001_Node000003"><a xlink:title=" ">
<path fill="none" stroke="#63b8ff" d="M159.13,-54.98C147.41,-46.92 129.58,-34.65 115.61,-25.03"/>
<polygon fill="#63b8ff" stroke="#63b8ff" points="117.32,-21.96 107.1,-19.17 113.35,-27.72 117.32,-21.96"/>
</a>
</g>
</g>
<!-- Node4 -->
<g id="Node000004" class="node">
<title>Node4</title>
<g id="a_Node000004"><a xlink:title=" ">
<polygon fill="#e0e0e0" stroke="#999999" points="207,-19 136,-19 136,0 207,0 207,-19"/>
<text text-anchor="middle" x="171.5" y="-7" font-family="Helvetica,sans-Serif" font-size="10.00">pico/rand.h</text>
</a>
</g>
</g>
<!-- Node1&#45;&gt;Node4 -->
<g id="edge3_Node000001_Node000004" class="edge">
<title>Node1&#45;&gt;Node4</title>
<g id="a_edge3_Node000001_Node000004"><a xlink:title=" ">
<path fill="none" stroke="#63b8ff" d="M171.5,-54.75C171.5,-47.8 171.5,-37.85 171.5,-29.13"/>
<polygon fill="#63b8ff" stroke="#63b8ff" points="175,-29.09 171.5,-19.09 168,-29.09 175,-29.09"/>
</a>
</g>
</g>
<!-- Node5 -->
<g id="Node000005" class="node">
<title>Node5</title>
<g id="a_Node000005"><a xlink:title=" ">
<polygon fill="#e0e0e0" stroke="#999999" points="329.5,-19 225.5,-19 225.5,0 329.5,0 329.5,-19"/>
<text text-anchor="middle" x="277.5" y="-7" font-family="Helvetica,sans-Serif" font-size="10.00">mbedtls/sha256.h</text>
</a>
</g>
</g>
<!-- Node1&#45;&gt;Node5 -->
<g id="edge4_Node000001_Node000005" class="edge">
<title>Node1&#45;&gt;Node5</title>
<g id="a_edge4_Node000001_Node000005"><a xlink:title=" ">
<path fill="none" stroke="#63b8ff" d="M188.53,-54.98C205.43,-46.54 231.56,-33.47 251.14,-23.68"/>
<polygon fill="#63b8ff" stroke="#63b8ff" points="252.78,-26.77 260.16,-19.17 249.65,-20.51 252.78,-26.77"/>
</a>
</g>
</g>
<!-- Node6 -->
<g id="Node000006" class="node">
<title>Node6</title>
<g id="a_Node000006"><a xlink:title=" ">
<polygon fill="#e0e0e0" stroke="#999999" points="451.5,-19 347.5,-19 347.5,0 451.5,0 451.5,-19"/>
<text text-anchor="middle" x="399.5" y="-7" font-family="Helvetica,sans-Serif" font-size="10.00">mbedtls/version.h</text>
</a>
</g>
</g>
<!-- Node1&#45;&gt;Node6 -->
<g id="edge5_Node000001_Node000006" class="edge">
<title>Node1&#45;&gt;Node6</title>
<g id="a_edge5_Node000001_Node000006"><a xlink:title=" ">
<path fill="none" stroke="#63b8ff" d="M208.13,-54.98C247.41,-45.86 309.87,-31.33 352.69,-21.38"/>
<polygon fill="#63b8ff" stroke="#63b8ff" points="353.63,-24.76 362.58,-19.08 352.05,-17.94 353.63,-24.76"/>
</a>
</g>
</g>
</g>
</svg>
