<?xml version="1.0" encoding="UTF-8" standalone="no"?>
<!DOCTYPE svg PUBLIC "-//W3C//DTD SVG 1.1//EN"
 "http://www.w3.org/Graphics/SVG/1.1/DTD/svg11.dtd">
<!-- Generated by graphviz version 2.43.0 (0)
 -->
<!-- Title: picolibc_interface.c Pages: 1 -->
<svg width="1061pt" height="203pt"
 viewBox="0.00 0.00 1061.00 203.00" xmlns="http://www.w3.org/2000/svg" xmlns:xlink="http://www.w3.org/1999/xlink">
<g id="graph0" class="graph" transform="scale(1 1) rotate(0) translate(4 199)">
<title>picolibc_interface.c</title>
<!-- Node1 -->
<g id="Node000001" class="node">
<title>Node1</title>
<g id="a_Node000001"><a xlink:title=" ">
<polygon fill="#999999" stroke="#666666" points="638.5,-195 527.5,-195 527.5,-176 638.5,-176 638.5,-195"/>
<text text-anchor="middle" x="583" y="-183" font-family="Helvetica,sans-Serif" font-size="10.00">picolibc_interface.c</text>
</a>
</g>
</g>
<!-- Node2 -->
<g id="Node000002" class="node">
<title>Node2</title>
<g id="a_Node000002"><a xlink:title=" ">
<polygon fill="#e0e0e0" stroke="#999999" points="50,-140 0,-140 0,-121 50,-121 50,-140"/>
<text text-anchor="middle" x="25" y="-128" font-family="Helvetica,sans-Serif" font-size="10.00">stdio.h</text>
</a>
</g>
</g>
<!-- Node1&#45;&gt;Node2 -->
<g id="edge1_Node000001_Node000002" class="edge">
<title>Node1&#45;&gt;Node2</title>
<g id="a_edge1_Node000001_Node000002"><a xlink:title=" ">
<path fill="none" stroke="#63b8ff" d="M527.42,-182.09C432.14,-177.44 231.66,-165.35 64,-140 62.73,-139.81 61.44,-139.6 60.13,-139.38"/>
<polygon fill="#63b8ff" stroke="#63b8ff" points="60.56,-135.9 50.09,-137.47 59.26,-142.77 60.56,-135.9"/>
</a>
</g>
</g>
<!-- Node3 -->
<g id="Node000003" class="node">
<title>Node3</title>
<g id="a_Node000003"><a xlink:href="stdlib_8h.html" target="_top" xlink:title=" ">
<polygon fill="white" stroke="#666666" points="365.5,-140 312.5,-140 312.5,-121 365.5,-121 365.5,-140"/>
<text text-anchor="middle" x="339" y="-128" font-family="Helvetica,sans-Serif" font-size="10.00">stdlib.h</text>
</a>
</g>
</g>
<!-- Node1&#45;&gt;Node3 -->
<g id="edge2_Node000001_Node000003" class="edge">
<title>Node1&#45;&gt;Node3</title>
<g id="a_edge2_Node000001_Node000003"><a xlink:title=" ">
<path fill="none" stroke="#63b8ff" d="M543.8,-175.98C497.43,-165.91 420.85,-149.28 375.64,-139.46"/>
<polygon fill="#63b8ff" stroke="#63b8ff" points="376.18,-136 365.67,-137.29 374.7,-142.84 376.18,-136"/>
</a>
</g>
</g>
<!-- Node4 -->
<g id="Node000004" class="node">
<title>Node4</title>
<g id="a_Node000004"><a xlink:title=" ">
<polygon fill="#e0e0e0" stroke="#999999" points="139,-19 93,-19 93,0 139,0 139,-19"/>
<text text-anchor="middle" x="116" y="-7" font-family="Helvetica,sans-Serif" font-size="10.00">pico.h</text>
</a>
</g>
</g>
<!-- Node1&#45;&gt;Node4 -->
<g id="edge19_Node000001_Node000004" class="edge">
<title>Node1&#45;&gt;Node4</title>
<g id="a_edge19_Node000001_Node000004"><a xlink:title=" ">
<path fill="none" stroke="#63b8ff" d="M527.38,-181.47C414.46,-174 164.86,-150.29 116,-85 104.16,-69.18 106.45,-45.72 110.22,-29.36"/>
<polygon fill="#63b8ff" stroke="#63b8ff" points="113.7,-29.92 112.92,-19.36 106.94,-28.1 113.7,-29.92"/>
</a>
</g>
</g>
<!-- Node6 -->
<g id="Node000006" class="node">
<title>Node6</title>
<g id="a_Node000006"><a xlink:href="common_2pico__time_2include_2pico_2time_8h.html" target="_top" xlink:title=" ">
<polygon fill="white" stroke="#666666" points="532.5,-79.5 461.5,-79.5 461.5,-60.5 532.5,-60.5 532.5,-79.5"/>
<text text-anchor="middle" x="497" y="-67.5" font-family="Helvetica,sans-Serif" font-size="10.00">pico/time.h</text>
</a>
</g>
</g>
<!-- Node1&#45;&gt;Node6 -->
<g id="edge20_Node000001_Node000006" class="edge">
<title>Node1&#45;&gt;Node6</title>
<g id="a_edge20_Node000001_Node000006"><a xlink:title=" ">
<path fill="none" stroke="#63b8ff" d="M555.79,-175.85C538.66,-168.94 517.65,-157.47 506,-140 496.17,-125.26 494.65,-104.77 495.14,-89.95"/>
<polygon fill="#63b8ff" stroke="#63b8ff" points="498.64,-90.13 495.81,-79.92 491.65,-89.66 498.64,-90.13"/>
</a>
</g>
</g>
<!-- Node10 -->
<g id="Node000010" class="node">
<title>Node10</title>
<g id="a_Node000010"><a xlink:href="unistd_8h.html" target="_top" xlink:title=" ">
<polygon fill="white" stroke="#666666" points="571,-140 515,-140 515,-121 571,-121 571,-140"/>
<text text-anchor="middle" x="543" y="-128" font-family="Helvetica,sans-Serif" font-size="10.00">unistd.h</text>
</a>
</g>
</g>
<!-- Node1&#45;&gt;Node10 -->
<g id="edge10_Node000001_Node000010" class="edge">
<title>Node1&#45;&gt;Node10</title>
<g id="a_edge10_Node000001_Node000010"><a xlink:title=" ">
<path fill="none" stroke="#63b8ff" d="M576.39,-175.75C570.74,-168.26 562.46,-157.28 555.55,-148.13"/>
<polygon fill="#63b8ff" stroke="#63b8ff" points="558.3,-145.96 549.48,-140.09 552.71,-150.18 558.3,-145.96"/>
</a>
</g>
</g>
<!-- Node12 -->
<g id="Node000012" class="node">
<title>Node12</title>
<g id="a_Node000012"><a xlink:title=" ">
<polygon fill="#e0e0e0" stroke="#999999" points="768.5,-140 675.5,-140 675.5,-121 768.5,-121 768.5,-140"/>
<text text-anchor="middle" x="722" y="-128" font-family="Helvetica,sans-Serif" font-size="10.00">machine/time.h</text>
</a>
</g>
</g>
<!-- Node1&#45;&gt;Node12 -->
<g id="edge12_Node000001_Node000012" class="edge">
<title>Node1&#45;&gt;Node12</title>
<g id="a_edge12_Node000001_Node000012"><a xlink:title=" ">
<path fill="none" stroke="#63b8ff" d="M605.33,-175.98C628.2,-167.27 663.96,-153.63 689.86,-143.75"/>
<polygon fill="#63b8ff" stroke="#63b8ff" points="691.16,-147 699.26,-140.17 688.67,-140.46 691.16,-147"/>
</a>
</g>
</g>
<!-- Node13 -->
<g id="Node000013" class="node">
<title>Node13</title>
<g id="a_Node000013"><a xlink:title=" ">
<polygon fill="#e0e0e0" stroke="#999999" points="835,-140 787,-140 787,-121 835,-121 835,-140"/>
<text text-anchor="middle" x="811" y="-128" font-family="Helvetica,sans-Serif" font-size="10.00">time.h</text>
</a>
</g>
</g>
<!-- Node1&#45;&gt;Node13 -->
<g id="edge13_Node000001_Node000013" class="edge">
<title>Node1&#45;&gt;Node13</title>
<g id="a_edge13_Node000001_Node000013"><a xlink:title=" ">
<path fill="none" stroke="#63b8ff" d="M621.92,-175.95C659.26,-167.68 717.46,-154.58 776.93,-140.21"/>
<polygon fill="#63b8ff" stroke="#63b8ff" points="777.98,-143.56 786.87,-137.8 776.33,-136.75 777.98,-143.56"/>
</a>
</g>
</g>
<!-- Node14 -->
<g id="Node000014" class="node">
<title>Node14</title>
<g id="a_Node000014"><a xlink:href="rp2__common_2pico__clib__interface_2include_2llvm__libc_2sys_2time_8h.html" target="_top" xlink:title=" ">
<polygon fill="white" stroke="#666666" points="657,-140 589,-140 589,-121 657,-121 657,-140"/>
<text text-anchor="middle" x="623" y="-128" font-family="Helvetica,sans-Serif" font-size="10.00">sys/time.h</text>
</a>
</g>
</g>
<!-- Node1&#45;&gt;Node14 -->
<g id="edge14_Node000001_Node000014" class="edge">
<title>Node1&#45;&gt;Node14</title>
<g id="a_edge14_Node000001_Node000014"><a xlink:title=" ">
<path fill="none" stroke="#63b8ff" d="M589.61,-175.75C595.26,-168.26 603.54,-157.28 610.45,-148.13"/>
<polygon fill="#63b8ff" stroke="#63b8ff" points="613.29,-150.18 616.52,-140.09 607.7,-145.96 613.29,-150.18"/>
</a>
</g>
</g>
<!-- Node16 -->
<g id="Node000016" class="node">
<title>Node16</title>
<g id="a_Node000016"><a xlink:href="times_8h.html" target="_top" xlink:title=" ">
<polygon fill="white" stroke="#666666" points="926.5,-140 853.5,-140 853.5,-121 926.5,-121 926.5,-140"/>
<text text-anchor="middle" x="890" y="-128" font-family="Helvetica,sans-Serif" font-size="10.00">sys/times.h</text>
</a>
</g>
</g>
<!-- Node1&#45;&gt;Node16 -->
<g id="edge17_Node000001_Node000016" class="edge">
<title>Node1&#45;&gt;Node16</title>
<g id="a_edge17_Node000001_Node000016"><a xlink:title=" ">
<path fill="none" stroke="#63b8ff" d="M634.54,-175.93C685.05,-167.48 764.51,-154.06 843.25,-140.11"/>
<polygon fill="#63b8ff" stroke="#63b8ff" points="844.12,-143.51 853.35,-138.32 842.89,-136.62 844.12,-143.51"/>
</a>
</g>
</g>
<!-- Node18 -->
<g id="Node000018" class="node">
<title>Node18</title>
<g id="a_Node000018"><a xlink:title=" ">
<polygon fill="#e0e0e0" stroke="#999999" points="1053,-140 945,-140 945,-121 1053,-121 1053,-140"/>
<text text-anchor="middle" x="999" y="-128" font-family="Helvetica,sans-Serif" font-size="10.00">pico/runtime_init.h</text>
</a>
</g>
</g>
<!-- Node1&#45;&gt;Node18 -->
<g id="edge21_Node000001_Node000018" class="edge">
<title>Node1&#45;&gt;Node18</title>
<g id="a_edge21_Node000001_Node000018"><a xlink:title=" ">
<path fill="none" stroke="#63b8ff" d="M638.66,-177.64C706.19,-169.27 823.81,-154.6 934.69,-140.16"/>
<polygon fill="#63b8ff" stroke="#63b8ff" points="935.24,-143.62 944.71,-138.86 934.34,-136.68 935.24,-143.62"/>
</a>
</g>
</g>
<!-- Node3&#45;&gt;Node4 -->
<g id="edge3_Node000003_Node000004" class="edge">
<title>Node3&#45;&gt;Node4</title>
<g id="a_edge3_Node000003_Node000004"><a xlink:title=" ">
<path fill="none" stroke="#63b8ff" d="M312.2,-127.12C262.8,-122.19 160.1,-109.24 135,-85 120.18,-70.69 116.32,-46.54 115.6,-29.63"/>
<polygon fill="#63b8ff" stroke="#63b8ff" points="119.09,-29.26 115.5,-19.29 112.09,-29.32 119.09,-29.26"/>
</a>
</g>
</g>
<!-- Node5 -->
<g id="Node000005" class="node">
<title>Node5</title>
<g id="a_Node000005"><a xlink:title=" ">
<polygon fill="#e0e0e0" stroke="#999999" points="217.5,-79.5 144.5,-79.5 144.5,-60.5 217.5,-60.5 217.5,-79.5"/>
<text text-anchor="middle" x="181" y="-67.5" font-family="Helvetica,sans-Serif" font-size="10.00">pico/stdio.h</text>
</a>
</g>
</g>
<!-- Node3&#45;&gt;Node5 -->
<g id="edge4_Node000003_Node000005" class="edge">
<title>Node3&#45;&gt;Node5</title>
<g id="a_edge4_Node000003_Node000005"><a xlink:title=" ">
<path fill="none" stroke="#63b8ff" d="M316.03,-120.99C289.11,-111.03 244.33,-94.45 213.77,-83.13"/>
<polygon fill="#63b8ff" stroke="#63b8ff" points="214.6,-79.71 204,-79.52 212.16,-86.27 214.6,-79.71"/>
</a>
</g>
</g>
<!-- Node3&#45;&gt;Node6 -->
<g id="edge5_Node000003_Node000006" class="edge">
<title>Node3&#45;&gt;Node6</title>
<g id="a_edge5_Node000003_Node000006"><a xlink:title=" ">
<path fill="none" stroke="#63b8ff" d="M361.97,-120.99C388.89,-111.03 433.67,-94.45 464.23,-83.13"/>
<polygon fill="#63b8ff" stroke="#63b8ff" points="465.84,-86.27 474,-79.52 463.4,-79.71 465.84,-86.27"/>
</a>
</g>
</g>
<!-- Node8 -->
<g id="Node000008" class="node">
<title>Node8</title>
<g id="a_Node000008"><a xlink:title=" ">
<polygon fill="#e0e0e0" stroke="#999999" points="330.5,-79.5 235.5,-79.5 235.5,-60.5 330.5,-60.5 330.5,-79.5"/>
<text text-anchor="middle" x="283" y="-67.5" font-family="Helvetica,sans-Serif" font-size="10.00">hardware/gpio.h</text>
</a>
</g>
</g>
<!-- Node3&#45;&gt;Node8 -->
<g id="edge8_Node000003_Node000008" class="edge">
<title>Node3&#45;&gt;Node8</title>
<g id="a_edge8_Node000003_Node000008"><a xlink:title=" ">
<path fill="none" stroke="#63b8ff" d="M330.74,-120.87C322.22,-111.97 308.74,-97.89 298.27,-86.95"/>
<polygon fill="#63b8ff" stroke="#63b8ff" points="300.74,-84.47 291.3,-79.67 295.68,-89.31 300.74,-84.47"/>
</a>
</g>
</g>
<!-- Node9 -->
<g id="Node000009" class="node">
<title>Node9</title>
<g id="a_Node000009"><a xlink:title=" ">
<polygon fill="#e0e0e0" stroke="#999999" points="443,-79.5 349,-79.5 349,-60.5 443,-60.5 443,-79.5"/>
<text text-anchor="middle" x="396" y="-67.5" font-family="Helvetica,sans-Serif" font-size="10.00">hardware/uart.h</text>
</a>
</g>
</g>
<!-- Node3&#45;&gt;Node9 -->
<g id="edge9_Node000003_Node000009" class="edge">
<title>Node3&#45;&gt;Node9</title>
<g id="a_edge9_Node000003_Node000009"><a xlink:title=" ">
<path fill="none" stroke="#63b8ff" d="M347.41,-120.87C356.08,-111.97 369.8,-97.89 380.46,-86.95"/>
<polygon fill="#63b8ff" stroke="#63b8ff" points="383.08,-89.27 387.55,-79.67 378.07,-84.39 383.08,-89.27"/>
</a>
</g>
</g>
<!-- Node6&#45;&gt;Node4 -->
<g id="edge6_Node000006_Node000004" class="edge">
<title>Node6&#45;&gt;Node4</title>
<g id="a_edge6_Node000006_Node000004"><a xlink:title=" ">
<path fill="none" stroke="#63b8ff" d="M471.97,-60.39C465.52,-58.4 458.55,-56.44 452,-55 342.49,-30.9 209.84,-18.02 149.18,-13.01"/>
<polygon fill="#63b8ff" stroke="#63b8ff" points="149.3,-9.51 139.05,-12.19 148.73,-16.49 149.3,-9.51"/>
</a>
</g>
</g>
<!-- Node7 -->
<g id="Node000007" class="node">
<title>Node7</title>
<g id="a_Node000007"><a xlink:title=" ">
<polygon fill="#e0e0e0" stroke="#999999" points="547.5,-19 446.5,-19 446.5,0 547.5,0 547.5,-19"/>
<text text-anchor="middle" x="497" y="-7" font-family="Helvetica,sans-Serif" font-size="10.00">hardware/timer.h</text>
</a>
</g>
</g>
<!-- Node6&#45;&gt;Node7 -->
<g id="edge7_Node000006_Node000007" class="edge">
<title>Node6&#45;&gt;Node7</title>
<g id="a_edge7_Node000006_Node000007"><a xlink:title=" ">
<path fill="none" stroke="#63b8ff" d="M497,-60.37C497,-52.25 497,-39.81 497,-29.39"/>
<polygon fill="#63b8ff" stroke="#63b8ff" points="500.5,-29.17 497,-19.17 493.5,-29.17 500.5,-29.17"/>
</a>
</g>
</g>
<!-- Node11 -->
<g id="Node000011" class="node">
<title>Node11</title>
<g id="a_Node000011"><a xlink:title=" ">
<polygon fill="#e0e0e0" stroke="#999999" points="675.5,-79.5 550.5,-79.5 550.5,-60.5 675.5,-60.5 675.5,-79.5"/>
<text text-anchor="middle" x="613" y="-67.5" font-family="Helvetica,sans-Serif" font-size="10.00">__llvm&#45;libc&#45;common.h</text>
</a>
</g>
</g>
<!-- Node10&#45;&gt;Node11 -->
<g id="edge11_Node000010_Node000011" class="edge">
<title>Node10&#45;&gt;Node11</title>
<g id="a_edge11_Node000010_Node000011"><a xlink:title=" ">
<path fill="none" stroke="#63b8ff" d="M553.33,-120.87C564.19,-111.8 581.49,-97.34 594.67,-86.32"/>
<polygon fill="#63b8ff" stroke="#63b8ff" points="597.2,-88.77 602.63,-79.67 592.71,-83.39 597.2,-88.77"/>
</a>
</g>
</g>
<!-- Node14&#45;&gt;Node11 -->
<g id="edge15_Node000014_Node000011" class="edge">
<title>Node14&#45;&gt;Node11</title>
<g id="a_edge15_Node000014_Node000011"><a xlink:title=" ">
<path fill="none" stroke="#63b8ff" d="M621.52,-120.87C620.12,-112.66 617.96,-100.04 616.17,-89.55"/>
<polygon fill="#63b8ff" stroke="#63b8ff" points="619.62,-88.93 614.48,-79.67 612.72,-90.11 619.62,-88.93"/>
</a>
</g>
</g>
<!-- Node15 -->
<g id="Node000015" class="node">
<title>Node15</title>
<g id="a_Node000015"><a xlink:title=" ">
<polygon fill="#e0e0e0" stroke="#999999" points="814.5,-85 693.5,-85 693.5,-55 814.5,-55 814.5,-85"/>
<text text-anchor="start" x="701.5" y="-73" font-family="Helvetica,sans-Serif" font-size="10.00">llvm&#45;libc&#45;types/struct</text>
<text text-anchor="middle" x="754" y="-62" font-family="Helvetica,sans-Serif" font-size="10.00">_timeval.h</text>
</a>
</g>
</g>
<!-- Node14&#45;&gt;Node15 -->
<g id="edge16_Node000014_Node000015" class="edge">
<title>Node14&#45;&gt;Node15</title>
<g id="a_edge16_Node000014_Node000015"><a xlink:title=" ">
<path fill="none" stroke="#63b8ff" d="M642.05,-120.99C660.65,-112.68 689.56,-99.78 713.34,-89.16"/>
<polygon fill="#63b8ff" stroke="#63b8ff" points="714.8,-92.34 722.51,-85.06 711.95,-85.95 714.8,-92.34"/>
</a>
</g>
</g>
<!-- Node17 -->
<g id="Node000017" class="node">
<title>Node17</title>
<g id="a_Node000017"><a xlink:title=" ">
<polygon fill="#e0e0e0" stroke="#999999" points="967,-79.5 833,-79.5 833,-60.5 967,-60.5 967,-79.5"/>
<text text-anchor="middle" x="900" y="-67.5" font-family="Helvetica,sans-Serif" font-size="10.00">llvm&#45;libc&#45;types/time_t.h</text>
</a>
</g>
</g>
<!-- Node16&#45;&gt;Node17 -->
<g id="edge18_Node000016_Node000017" class="edge">
<title>Node16&#45;&gt;Node17</title>
<g id="a_edge18_Node000016_Node000017"><a xlink:title=" ">
<path fill="none" stroke="#63b8ff" d="M891.48,-120.87C892.88,-112.66 895.04,-100.04 896.83,-89.55"/>
<polygon fill="#63b8ff" stroke="#63b8ff" points="900.28,-90.11 898.52,-79.67 893.38,-88.93 900.28,-90.11"/>
</a>
</g>
</g>
</g>
</svg>
