<?xml version="1.0" encoding="UTF-8" standalone="no"?>
<!DOCTYPE svg PUBLIC "-//W3C//DTD SVG 1.1//EN"
 "http://www.w3.org/Graphics/SVG/1.1/DTD/svg11.dtd">
<!-- Generated by graphviz version 2.43.0 (0)
 -->
<!-- Title: pio_assembler.cpp Pages: 1 -->
<svg width="727pt" height="302pt"
 viewBox="0.00 0.00 726.88 302.00" xmlns="http://www.w3.org/2000/svg" xmlns:xlink="http://www.w3.org/1999/xlink">
<g id="graph0" class="graph" transform="scale(1 1) rotate(0) translate(4 298)">
<title>pio_assembler.cpp</title>
<!-- Node1 -->
<g id="Node000001" class="node">
<title>Node1</title>
<g id="a_Node000001"><a xlink:title=" ">
<polygon fill="#999999" stroke="#666666" points="304.88,-294 196.88,-294 196.88,-275 304.88,-275 304.88,-294"/>
<text text-anchor="middle" x="250.88" y="-282" font-family="Helvetica,sans-Serif" font-size="10.00">pio_assembler.cpp</text>
</a>
</g>
</g>
<!-- Node2 -->
<g id="Node000002" class="node">
<title>Node2</title>
<g id="a_Node000002"><a xlink:title=" ">
<polygon fill="#e0e0e0" stroke="#999999" points="159.88,-239 113.88,-239 113.88,-220 159.88,-220 159.88,-239"/>
<text text-anchor="middle" x="136.88" y="-227" font-family="Helvetica,sans-Serif" font-size="10.00">cstdio</text>
</a>
</g>
</g>
<!-- Node1&#45;&gt;Node2 -->
<g id="edge1_Node000001_Node000002" class="edge">
<title>Node1&#45;&gt;Node2</title>
<g id="a_edge1_Node000001_Node000002"><a xlink:title=" ">
<path fill="none" stroke="#63b8ff" d="M232.57,-274.98C214.23,-266.46 185.77,-253.23 164.65,-243.41"/>
<polygon fill="#63b8ff" stroke="#63b8ff" points="166.07,-240.21 155.53,-239.17 163.12,-246.56 166.07,-240.21"/>
</a>
</g>
</g>
<!-- Node3 -->
<g id="Node000003" class="node">
<title>Node3</title>
<g id="a_Node000003"><a xlink:title=" ">
<polygon fill="#e0e0e0" stroke="#999999" points="231.38,-239 178.38,-239 178.38,-220 231.38,-220 231.38,-239"/>
<text text-anchor="middle" x="204.88" y="-227" font-family="Helvetica,sans-Serif" font-size="10.00">iterator</text>
</a>
</g>
</g>
<!-- Node1&#45;&gt;Node3 -->
<g id="edge2_Node000001_Node000003" class="edge">
<title>Node1&#45;&gt;Node3</title>
<g id="a_edge2_Node000001_Node000003"><a xlink:title=" ">
<path fill="none" stroke="#63b8ff" d="M243.29,-274.75C236.72,-267.18 227.06,-256.05 219.07,-246.84"/>
<polygon fill="#63b8ff" stroke="#63b8ff" points="221.53,-244.35 212.34,-239.09 216.25,-248.94 221.53,-244.35"/>
</a>
</g>
</g>
<!-- Node4 -->
<g id="Node000004" class="node">
<title>Node4</title>
<g id="a_Node000004"><a xlink:href="pio__assembler_8h.html" target="_top" xlink:title=" ">
<polygon fill="white" stroke="#666666" points="346.38,-239 249.38,-239 249.38,-220 346.38,-220 346.38,-239"/>
<text text-anchor="middle" x="297.88" y="-227" font-family="Helvetica,sans-Serif" font-size="10.00">pio_assembler.h</text>
</a>
</g>
</g>
<!-- Node1&#45;&gt;Node4 -->
<g id="edge3_Node000001_Node000004" class="edge">
<title>Node1&#45;&gt;Node4</title>
<g id="a_edge3_Node000001_Node000004"><a xlink:title=" ">
<path fill="none" stroke="#63b8ff" d="M258.64,-274.75C265.35,-267.18 275.22,-256.05 283.39,-246.84"/>
<polygon fill="#63b8ff" stroke="#63b8ff" points="286.25,-248.89 290.27,-239.09 281.01,-244.25 286.25,-248.89"/>
</a>
</g>
</g>
<!-- Node6 -->
<g id="Node000006" class="node">
<title>Node6</title>
<g id="a_Node000006"><a xlink:href="parser_8hpp.html" target="_top" xlink:title="Define the yy::parser class.">
<polygon fill="white" stroke="#666666" points="408.88,-184 340.88,-184 340.88,-165 408.88,-165 408.88,-184"/>
<text text-anchor="middle" x="374.88" y="-172" font-family="Helvetica,sans-Serif" font-size="10.00">parser.hpp</text>
</a>
</g>
</g>
<!-- Node1&#45;&gt;Node6 -->
<g id="edge34_Node000001_Node000006" class="edge">
<title>Node1&#45;&gt;Node6</title>
<g id="a_edge34_Node000001_Node000006"><a xlink:title=" ">
<path fill="none" stroke="#63b8ff" d="M291,-275C312.62,-268.5 338.21,-257.42 354.88,-239 366.03,-226.68 370.97,-208.18 373.15,-194.32"/>
<polygon fill="#63b8ff" stroke="#63b8ff" points="376.67,-194.35 374.41,-184 369.72,-193.5 376.67,-194.35"/>
</a>
</g>
</g>
<!-- Node5 -->
<g id="Node000005" class="node">
<title>Node5</title>
<g id="a_Node000005"><a xlink:title=" ">
<polygon fill="#e0e0e0" stroke="#999999" points="269.88,-184 205.88,-184 205.88,-165 269.88,-165 269.88,-184"/>
<text text-anchor="middle" x="237.88" y="-172" font-family="Helvetica,sans-Serif" font-size="10.00">algorithm</text>
</a>
</g>
</g>
<!-- Node4&#45;&gt;Node5 -->
<g id="edge4_Node000004_Node000005" class="edge">
<title>Node4&#45;&gt;Node5</title>
<g id="a_edge4_Node000004_Node000005"><a xlink:title=" ">
<path fill="none" stroke="#63b8ff" d="M288.24,-219.98C279.37,-212.15 266.01,-200.34 255.27,-190.86"/>
<polygon fill="#63b8ff" stroke="#63b8ff" points="257.51,-188.17 247.7,-184.17 252.87,-193.41 257.51,-188.17"/>
</a>
</g>
</g>
<!-- Node4&#45;&gt;Node6 -->
<g id="edge5_Node000004_Node000006" class="edge">
<title>Node4&#45;&gt;Node6</title>
<g id="a_edge5_Node000004_Node000006"><a xlink:title=" ">
<path fill="none" stroke="#63b8ff" d="M310.25,-219.98C321.97,-211.92 339.8,-199.65 353.77,-190.03"/>
<polygon fill="#63b8ff" stroke="#63b8ff" points="356.03,-192.72 362.29,-184.17 352.06,-186.96 356.03,-192.72"/>
</a>
</g>
</g>
<!-- Node23 -->
<g id="Node000023" class="node">
<title>Node23</title>
<g id="a_Node000023"><a xlink:href="output__format_8h.html" target="_top" xlink:title=" ">
<polygon fill="white" stroke="#666666" points="109.38,-129 14.38,-129 14.38,-110 109.38,-110 109.38,-129"/>
<text text-anchor="middle" x="61.88" y="-117" font-family="Helvetica,sans-Serif" font-size="10.00">output_format.h</text>
</a>
</g>
</g>
<!-- Node4&#45;&gt;Node23 -->
<g id="edge27_Node000004_Node000023" class="edge">
<title>Node4&#45;&gt;Node23</title>
<g id="a_edge27_Node000004_Node000023"><a xlink:title=" ">
<path fill="none" stroke="#63b8ff" d="M297.93,-219.65C297.48,-205.85 294.5,-179.3 278.88,-165 272.94,-159.57 181.95,-142.21 119.7,-130.84"/>
<polygon fill="#63b8ff" stroke="#63b8ff" points="120.06,-127.35 109.59,-129 118.8,-134.24 120.06,-127.35"/>
</a>
</g>
</g>
<!-- Node7 -->
<g id="Node000007" class="node">
<title>Node7</title>
<g id="a_Node000007"><a xlink:title=" ">
<polygon fill="#e0e0e0" stroke="#999999" points="569.88,-19 525.88,-19 525.88,0 569.88,0 569.88,-19"/>
<text text-anchor="middle" x="547.88" y="-7" font-family="Helvetica,sans-Serif" font-size="10.00">string</text>
</a>
</g>
</g>
<!-- Node6&#45;&gt;Node7 -->
<g id="edge6_Node000006_Node000007" class="edge">
<title>Node6&#45;&gt;Node7</title>
<g id="a_edge6_Node000006_Node000007"><a xlink:title=" ">
<path fill="none" stroke="#63b8ff" d="M409.03,-171.01C461.18,-166.43 556.84,-154.67 577.88,-129 598.73,-103.56 588.73,-86.38 578.88,-55 575.65,-44.71 569.1,-34.72 562.85,-26.82"/>
<polygon fill="#63b8ff" stroke="#63b8ff" points="565.5,-24.52 556.36,-19.15 560.15,-29.04 565.5,-24.52"/>
</a>
</g>
</g>
<!-- Node8 -->
<g id="Node000008" class="node">
<title>Node8</title>
<g id="a_Node000008"><a xlink:title=" ">
<polygon fill="#e0e0e0" stroke="#999999" points="182.38,-129 127.38,-129 127.38,-110 182.38,-110 182.38,-129"/>
<text text-anchor="middle" x="154.88" y="-117" font-family="Helvetica,sans-Serif" font-size="10.00">fstream</text>
</a>
</g>
</g>
<!-- Node6&#45;&gt;Node8 -->
<g id="edge7_Node000006_Node000008" class="edge">
<title>Node6&#45;&gt;Node8</title>
<g id="a_edge7_Node000006_Node000008"><a xlink:title=" ">
<path fill="none" stroke="#63b8ff" d="M340.51,-165.22C300.2,-155.51 233.65,-139.48 192.14,-129.48"/>
<polygon fill="#63b8ff" stroke="#63b8ff" points="192.95,-126.07 182.41,-127.13 191.31,-132.88 192.95,-126.07"/>
</a>
</g>
</g>
<!-- Node9 -->
<g id="Node000009" class="node">
<title>Node9</title>
<g id="a_Node000009"><a xlink:title=" ">
<polygon fill="#e0e0e0" stroke="#999999" points="256.88,-129 200.88,-129 200.88,-110 256.88,-110 256.88,-129"/>
<text text-anchor="middle" x="228.88" y="-117" font-family="Helvetica,sans-Serif" font-size="10.00">sstream</text>
</a>
</g>
</g>
<!-- Node6&#45;&gt;Node9 -->
<g id="edge8_Node000006_Node000009" class="edge">
<title>Node6&#45;&gt;Node9</title>
<g id="a_edge8_Node000006_Node000009"><a xlink:title=" ">
<path fill="none" stroke="#63b8ff" d="M351.42,-164.98C327.3,-156.23 289.52,-142.51 262.28,-132.62"/>
<polygon fill="#63b8ff" stroke="#63b8ff" points="263.36,-129.29 252.77,-129.17 260.97,-135.87 263.36,-129.29"/>
</a>
</g>
</g>
<!-- Node10 -->
<g id="Node000010" class="node">
<title>Node10</title>
<g id="a_Node000010"><a xlink:href="pio__types_8h.html" target="_top" xlink:title=" ">
<polygon fill="white" stroke="#666666" points="569.38,-129 496.38,-129 496.38,-110 569.38,-110 569.38,-129"/>
<text text-anchor="middle" x="532.88" y="-117" font-family="Helvetica,sans-Serif" font-size="10.00">pio_types.h</text>
</a>
</g>
</g>
<!-- Node6&#45;&gt;Node10 -->
<g id="edge9_Node000006_Node000010" class="edge">
<title>Node6&#45;&gt;Node10</title>
<g id="a_edge9_Node000006_Node000010"><a xlink:title=" ">
<path fill="none" stroke="#63b8ff" d="M400.27,-164.98C426.68,-156.13 468.23,-142.19 497.78,-132.28"/>
<polygon fill="#63b8ff" stroke="#63b8ff" points="498.93,-135.58 507.3,-129.08 496.7,-128.94 498.93,-135.58"/>
</a>
</g>
</g>
<!-- Node15 -->
<g id="Node000015" class="node">
<title>Node15</title>
<g id="a_Node000015"><a xlink:title=" ">
<polygon fill="#e0e0e0" stroke="#999999" points="81.38,-74 34.38,-74 34.38,-55 81.38,-55 81.38,-74"/>
<text text-anchor="middle" x="57.88" y="-62" font-family="Helvetica,sans-Serif" font-size="10.00">vector</text>
</a>
</g>
</g>
<!-- Node6&#45;&gt;Node15 -->
<g id="edge24_Node000006_Node000015" class="edge">
<title>Node6&#45;&gt;Node15</title>
<g id="a_edge24_Node000006_Node000015"><a xlink:title=" ">
<path fill="none" stroke="#63b8ff" d="M340.67,-169.99C250.08,-160.61 10.45,-135.28 4.88,-129 -9.98,-112.25 12.93,-92.35 33.11,-79.35"/>
<polygon fill="#63b8ff" stroke="#63b8ff" points="35.05,-82.26 41.75,-74.06 31.39,-76.29 35.05,-82.26"/>
</a>
</g>
</g>
<!-- Node17 -->
<g id="Node000017" class="node">
<title>Node17</title>
<g id="a_Node000017"><a xlink:href="location_8h.html" target="_top" xlink:title="Define the yy::location class.">
<polygon fill="white" stroke="#666666" points="691.38,-74 626.38,-74 626.38,-55 691.38,-55 691.38,-74"/>
<text text-anchor="middle" x="658.88" y="-62" font-family="Helvetica,sans-Serif" font-size="10.00">location.h</text>
</a>
</g>
</g>
<!-- Node6&#45;&gt;Node17 -->
<g id="edge25_Node000006_Node000017" class="edge">
<title>Node6&#45;&gt;Node17</title>
<g id="a_edge25_Node000006_Node000017"><a xlink:title=" ">
<path fill="none" stroke="#63b8ff" d="M409.1,-170.17C466.35,-164.1 578.53,-149.89 611.88,-129 629.45,-118 642.65,-97.86 650.53,-83.2"/>
<polygon fill="#63b8ff" stroke="#63b8ff" points="653.73,-84.61 655.11,-74.11 647.48,-81.46 653.73,-84.61"/>
</a>
</g>
</g>
<!-- Node18 -->
<g id="Node000018" class="node">
<title>Node18</title>
<g id="a_Node000018"><a xlink:title=" ">
<polygon fill="#e0e0e0" stroke="#999999" points="718.88,-19 658.88,-19 658.88,0 718.88,0 718.88,-19"/>
<text text-anchor="middle" x="688.88" y="-7" font-family="Helvetica,sans-Serif" font-size="10.00">iostream</text>
</a>
</g>
</g>
<!-- Node6&#45;&gt;Node18 -->
<g id="edge22_Node000006_Node000018" class="edge">
<title>Node6&#45;&gt;Node18</title>
<g id="a_edge22_Node000006_Node000018"><a xlink:title=" ">
<path fill="none" stroke="#63b8ff" d="M408.88,-173.52C460.6,-172.3 561.02,-164.99 636.88,-129 670.46,-113.07 684.5,-107.84 699.88,-74 706.46,-59.53 702.35,-41.57 697.39,-28.45"/>
<polygon fill="#63b8ff" stroke="#63b8ff" points="700.56,-26.95 693.42,-19.12 694.12,-29.69 700.56,-26.95"/>
</a>
</g>
</g>
<!-- Node20 -->
<g id="Node000020" class="node">
<title>Node20</title>
<g id="a_Node000020"><a xlink:title=" ">
<polygon fill="#e0e0e0" stroke="#999999" points="324.38,-129 275.38,-129 275.38,-110 324.38,-110 324.38,-129"/>
<text text-anchor="middle" x="299.88" y="-117" font-family="Helvetica,sans-Serif" font-size="10.00">cstdlib</text>
</a>
</g>
</g>
<!-- Node6&#45;&gt;Node20 -->
<g id="edge21_Node000006_Node000020" class="edge">
<title>Node6&#45;&gt;Node20</title>
<g id="a_edge21_Node000006_Node000020"><a xlink:title=" ">
<path fill="none" stroke="#63b8ff" d="M362.83,-164.98C351.42,-156.92 334.05,-144.65 320.45,-135.03"/>
<polygon fill="#63b8ff" stroke="#63b8ff" points="322.34,-132.08 312.15,-129.17 318.3,-137.8 322.34,-132.08"/>
</a>
</g>
</g>
<!-- Node21 -->
<g id="Node000021" class="node">
<title>Node21</title>
<g id="a_Node000021"><a xlink:title=" ">
<polygon fill="#e0e0e0" stroke="#999999" points="407.38,-129 342.38,-129 342.38,-110 407.38,-110 407.38,-129"/>
<text text-anchor="middle" x="374.88" y="-117" font-family="Helvetica,sans-Serif" font-size="10.00">stdexcept</text>
</a>
</g>
</g>
<!-- Node6&#45;&gt;Node21 -->
<g id="edge23_Node000006_Node000021" class="edge">
<title>Node6&#45;&gt;Node21</title>
<g id="a_edge23_Node000006_Node000021"><a xlink:title=" ">
<path fill="none" stroke="#63b8ff" d="M374.88,-164.75C374.88,-157.8 374.88,-147.85 374.88,-139.13"/>
<polygon fill="#63b8ff" stroke="#63b8ff" points="378.38,-139.09 374.88,-129.09 371.38,-139.09 378.38,-139.09"/>
</a>
</g>
</g>
<!-- Node22 -->
<g id="Node000022" class="node">
<title>Node22</title>
<g id="a_Node000022"><a xlink:title=" ">
<polygon fill="#e0e0e0" stroke="#999999" points="477.88,-129 425.88,-129 425.88,-110 477.88,-110 477.88,-129"/>
<text text-anchor="middle" x="451.88" y="-117" font-family="Helvetica,sans-Serif" font-size="10.00">cassert</text>
</a>
</g>
</g>
<!-- Node6&#45;&gt;Node22 -->
<g id="edge26_Node000006_Node000022" class="edge">
<title>Node6&#45;&gt;Node22</title>
<g id="a_edge26_Node000006_Node000022"><a xlink:title=" ">
<path fill="none" stroke="#63b8ff" d="M387.25,-164.98C398.97,-156.92 416.8,-144.65 430.77,-135.03"/>
<polygon fill="#63b8ff" stroke="#63b8ff" points="433.03,-137.72 439.29,-129.17 429.06,-131.96 433.03,-137.72"/>
</a>
</g>
</g>
<!-- Node10&#45;&gt;Node7 -->
<g id="edge11_Node000010_Node000007" class="edge">
<title>Node10&#45;&gt;Node7</title>
<g id="a_edge11_Node000010_Node000007"><a xlink:title=" ">
<path fill="none" stroke="#63b8ff" d="M510.68,-109.99C485.8,-99.07 450.7,-78.7 464.88,-55 475.99,-36.45 497.76,-25.19 516.23,-18.64"/>
<polygon fill="#63b8ff" stroke="#63b8ff" points="517.34,-21.96 525.78,-15.55 515.19,-15.3 517.34,-21.96"/>
</a>
</g>
</g>
<!-- Node11 -->
<g id="Node000011" class="node">
<title>Node11</title>
<g id="a_Node000011"><a xlink:title=" ">
<polygon fill="#e0e0e0" stroke="#999999" points="319.88,-74 269.88,-74 269.88,-55 319.88,-55 319.88,-74"/>
<text text-anchor="middle" x="294.88" y="-62" font-family="Helvetica,sans-Serif" font-size="10.00">cstdint</text>
</a>
</g>
</g>
<!-- Node10&#45;&gt;Node11 -->
<g id="edge10_Node000010_Node000011" class="edge">
<title>Node10&#45;&gt;Node11</title>
<g id="a_edge10_Node000010_Node000011"><a xlink:title=" ">
<path fill="none" stroke="#63b8ff" d="M496.32,-110.87C457.44,-102.68 393.89,-89.08 329.96,-74.2"/>
<polygon fill="#63b8ff" stroke="#63b8ff" points="330.65,-70.77 320.11,-71.9 329.05,-77.58 330.65,-70.77"/>
</a>
</g>
</g>
<!-- Node12 -->
<g id="Node000012" class="node">
<title>Node12</title>
<g id="a_Node000012"><a xlink:title=" ">
<polygon fill="#e0e0e0" stroke="#999999" points="175.88,-74 137.88,-74 137.88,-55 175.88,-55 175.88,-74"/>
<text text-anchor="middle" x="156.88" y="-62" font-family="Helvetica,sans-Serif" font-size="10.00">map</text>
</a>
</g>
</g>
<!-- Node10&#45;&gt;Node12 -->
<g id="edge12_Node000010_Node000012" class="edge">
<title>Node10&#45;&gt;Node12</title>
<g id="a_edge12_Node000010_Node000012"><a xlink:title=" ">
<path fill="none" stroke="#63b8ff" d="M496.26,-111.51C493.09,-110.98 489.93,-110.46 486.88,-110 356.5,-90.2 319,-101.17 186.2,-73.92"/>
<polygon fill="#63b8ff" stroke="#63b8ff" points="186.55,-70.42 176.05,-71.8 185.12,-77.27 186.55,-70.42"/>
</a>
</g>
</g>
<!-- Node13 -->
<g id="Node000013" class="node">
<title>Node13</title>
<g id="a_Node000013"><a xlink:title=" ">
<polygon fill="#e0e0e0" stroke="#999999" points="569.88,-74 537.88,-74 537.88,-55 569.88,-55 569.88,-74"/>
<text text-anchor="middle" x="553.88" y="-62" font-family="Helvetica,sans-Serif" font-size="10.00">set</text>
</a>
</g>
</g>
<!-- Node10&#45;&gt;Node13 -->
<g id="edge13_Node000010_Node000013" class="edge">
<title>Node10&#45;&gt;Node13</title>
<g id="a_edge13_Node000010_Node000013"><a xlink:title=" ">
<path fill="none" stroke="#63b8ff" d="M536.35,-109.75C539.16,-102.65 543.22,-92.4 546.73,-83.56"/>
<polygon fill="#63b8ff" stroke="#63b8ff" points="550.05,-84.68 550.48,-74.09 543.54,-82.1 550.05,-84.68"/>
</a>
</g>
</g>
<!-- Node14 -->
<g id="Node000014" class="node">
<title>Node14</title>
<g id="a_Node000014"><a xlink:title=" ">
<polygon fill="#e0e0e0" stroke="#999999" points="519.38,-74 474.38,-74 474.38,-55 519.38,-55 519.38,-74"/>
<text text-anchor="middle" x="496.88" y="-62" font-family="Helvetica,sans-Serif" font-size="10.00">utility</text>
</a>
</g>
</g>
<!-- Node10&#45;&gt;Node14 -->
<g id="edge14_Node000010_Node000014" class="edge">
<title>Node10&#45;&gt;Node14</title>
<g id="a_edge14_Node000010_Node000014"><a xlink:title=" ">
<path fill="none" stroke="#63b8ff" d="M526.94,-109.75C521.9,-102.34 514.55,-91.5 508.37,-82.41"/>
<polygon fill="#63b8ff" stroke="#63b8ff" points="511.23,-80.39 502.72,-74.09 505.44,-84.33 511.23,-80.39"/>
</a>
</g>
</g>
<!-- Node10&#45;&gt;Node15 -->
<g id="edge15_Node000010_Node000015" class="edge">
<title>Node10&#45;&gt;Node15</title>
<g id="a_edge15_Node000010_Node000015"><a xlink:title=" ">
<path fill="none" stroke="#63b8ff" d="M496.27,-111.45C493.1,-110.93 489.94,-110.44 486.88,-110 328.57,-87.45 287.83,-91.51 128.88,-74 116.79,-72.67 103.55,-71.11 91.81,-69.69"/>
<polygon fill="#63b8ff" stroke="#63b8ff" points="91.89,-66.18 81.54,-68.45 91.04,-73.13 91.89,-66.18"/>
</a>
</g>
</g>
<!-- Node16 -->
<g id="Node000016" class="node">
<title>Node16</title>
<g id="a_Node000016"><a xlink:title=" ">
<polygon fill="#e0e0e0" stroke="#999999" points="251.88,-74 193.88,-74 193.88,-55 251.88,-55 251.88,-74"/>
<text text-anchor="middle" x="222.88" y="-62" font-family="Helvetica,sans-Serif" font-size="10.00">memory</text>
</a>
</g>
</g>
<!-- Node10&#45;&gt;Node16 -->
<g id="edge16_Node000010_Node000016" class="edge">
<title>Node10&#45;&gt;Node16</title>
<g id="a_edge16_Node000010_Node000016"><a xlink:title=" ">
<path fill="none" stroke="#63b8ff" d="M496.24,-111.64C493.08,-111.08 489.92,-110.52 486.88,-110 389.78,-93.3 362.47,-93.11 261.86,-74.08"/>
<polygon fill="#63b8ff" stroke="#63b8ff" points="262.37,-70.62 251.89,-72.18 261.06,-77.49 262.37,-70.62"/>
</a>
</g>
</g>
<!-- Node10&#45;&gt;Node17 -->
<g id="edge17_Node000010_Node000017" class="edge">
<title>Node10&#45;&gt;Node17</title>
<g id="a_edge17_Node000010_Node000017"><a xlink:title=" ">
<path fill="none" stroke="#63b8ff" d="M553.13,-109.98C573.58,-101.38 605.41,-87.99 628.81,-78.15"/>
<polygon fill="#63b8ff" stroke="#63b8ff" points="630.41,-81.27 638.27,-74.17 627.69,-74.82 630.41,-81.27"/>
</a>
</g>
</g>
<!-- Node19 -->
<g id="Node000019" class="node">
<title>Node19</title>
<g id="a_Node000019"><a xlink:href="pio__enums_8h.html" target="_top" xlink:title=" ">
<polygon fill="white" stroke="#666666" points="417.38,-74 338.38,-74 338.38,-55 417.38,-55 417.38,-74"/>
<text text-anchor="middle" x="377.88" y="-62" font-family="Helvetica,sans-Serif" font-size="10.00">pio_enums.h</text>
</a>
</g>
</g>
<!-- Node10&#45;&gt;Node19 -->
<g id="edge20_Node000010_Node000019" class="edge">
<title>Node10&#45;&gt;Node19</title>
<g id="a_edge20_Node000010_Node000019"><a xlink:title=" ">
<path fill="none" stroke="#63b8ff" d="M507.98,-109.98C482.18,-101.16 441.66,-87.31 412.7,-77.41"/>
<polygon fill="#63b8ff" stroke="#63b8ff" points="413.58,-74.01 402.98,-74.08 411.31,-80.63 413.58,-74.01"/>
</a>
</g>
</g>
<!-- Node17&#45;&gt;Node7 -->
<g id="edge19_Node000017_Node000007" class="edge">
<title>Node17&#45;&gt;Node7</title>
<g id="a_edge19_Node000017_Node000007"><a xlink:title=" ">
<path fill="none" stroke="#63b8ff" d="M641.05,-54.98C623.27,-46.5 595.74,-33.35 575.2,-23.54"/>
<polygon fill="#63b8ff" stroke="#63b8ff" points="576.57,-20.32 566.04,-19.17 573.56,-26.64 576.57,-20.32"/>
</a>
</g>
</g>
<!-- Node17&#45;&gt;Node18 -->
<g id="edge18_Node000017_Node000018" class="edge">
<title>Node17&#45;&gt;Node18</title>
<g id="a_edge18_Node000017_Node000018"><a xlink:title=" ">
<path fill="none" stroke="#63b8ff" d="M663.84,-54.75C667.94,-47.49 673.91,-36.95 678.99,-27.98"/>
<polygon fill="#63b8ff" stroke="#63b8ff" points="682.14,-29.52 684.02,-19.09 676.05,-26.07 682.14,-29.52"/>
</a>
</g>
</g>
<!-- Node23&#45;&gt;Node7 -->
<g id="edge31_Node000023_Node000007" class="edge">
<title>Node23&#45;&gt;Node7</title>
<g id="a_edge31_Node000023_Node000007"><a xlink:title=" ">
<path fill="none" stroke="#63b8ff" d="M68.1,-109.65C78.71,-95.35 101.81,-67.49 128.88,-55 197.68,-23.27 429.47,-13.75 515.44,-11.28"/>
<polygon fill="#63b8ff" stroke="#63b8ff" points="515.74,-14.77 525.64,-11 515.55,-7.77 515.74,-14.77"/>
</a>
</g>
</g>
<!-- Node23&#45;&gt;Node11 -->
<g id="edge28_Node000023_Node000011" class="edge">
<title>Node23&#45;&gt;Node11</title>
<g id="a_edge28_Node000023_Node000011"><a xlink:title=" ">
<path fill="none" stroke="#63b8ff" d="M101.59,-109.93C139.69,-101.63 199.08,-88.52 259.54,-74.27"/>
<polygon fill="#63b8ff" stroke="#63b8ff" points="260.72,-77.59 269.65,-71.88 259.11,-70.78 260.72,-77.59"/>
</a>
</g>
</g>
<!-- Node23&#45;&gt;Node12 -->
<g id="edge30_Node000023_Node000012" class="edge">
<title>Node23&#45;&gt;Node12</title>
<g id="a_edge30_Node000023_Node000012"><a xlink:title=" ">
<path fill="none" stroke="#63b8ff" d="M77.15,-109.98C92.01,-101.69 114.86,-88.94 132.3,-79.22"/>
<polygon fill="#63b8ff" stroke="#63b8ff" points="134.31,-82.1 141.34,-74.17 130.9,-75.99 134.31,-82.1"/>
</a>
</g>
</g>
<!-- Node23&#45;&gt;Node15 -->
<g id="edge29_Node000023_Node000015" class="edge">
<title>Node23&#45;&gt;Node15</title>
<g id="a_edge29_Node000023_Node000015"><a xlink:title=" ">
<path fill="none" stroke="#63b8ff" d="M61.22,-109.75C60.7,-102.8 59.95,-92.85 59.29,-84.13"/>
<polygon fill="#63b8ff" stroke="#63b8ff" points="62.77,-83.8 58.53,-74.09 55.79,-84.32 62.77,-83.8"/>
</a>
</g>
</g>
<!-- Node23&#45;&gt;Node16 -->
<g id="edge32_Node000023_Node000016" class="edge">
<title>Node23&#45;&gt;Node16</title>
<g id="a_edge32_Node000023_Node000016"><a xlink:title=" ">
<path fill="none" stroke="#63b8ff" d="M87.75,-109.98C114.66,-101.13 157,-87.19 187.11,-77.28"/>
<polygon fill="#63b8ff" stroke="#63b8ff" points="188.41,-80.53 196.81,-74.08 186.22,-73.88 188.41,-80.53"/>
</a>
</g>
</g>
<!-- Node23&#45;&gt;Node19 -->
<g id="edge33_Node000023_Node000019" class="edge">
<title>Node23&#45;&gt;Node19</title>
<g id="a_edge33_Node000023_Node000019"><a xlink:title=" ">
<path fill="none" stroke="#63b8ff" d="M109.65,-110.64C160.99,-102.16 245.3,-88.19 328.2,-74.11"/>
<polygon fill="#63b8ff" stroke="#63b8ff" points="329.03,-77.51 338.31,-72.39 327.86,-70.61 329.03,-77.51"/>
</a>
</g>
</g>
</g>
</svg>
