<?xml version="1.0" encoding="UTF-8" standalone="no"?>
<!DOCTYPE svg PUBLIC "-//W3C//DTD SVG 1.1//EN"
 "http://www.w3.org/Graphics/SVG/1.1/DTD/svg11.dtd">
<!-- Generated by graphviz version 2.43.0 (0)
 -->
<!-- Title: pio_assembler.h Pages: 1 -->
<svg width="840pt" height="247pt"
 viewBox="0.00 0.00 839.99 247.00" xmlns="http://www.w3.org/2000/svg" xmlns:xlink="http://www.w3.org/1999/xlink">
<g id="graph0" class="graph" transform="scale(1 1) rotate(0) translate(4 243)">
<title>pio_assembler.h</title>
<!-- Node1 -->
<g id="Node000001" class="node">
<title>Node1</title>
<g id="a_Node000001"><a xlink:title=" ">
<polygon fill="#999999" stroke="#666666" points="484.5,-239 387.5,-239 387.5,-220 484.5,-220 484.5,-239"/>
<text text-anchor="middle" x="436" y="-227" font-family="Helvetica,sans-Serif" font-size="10.00">pio_assembler.h</text>
</a>
</g>
</g>
<!-- Node2 -->
<g id="Node000002" class="node">
<title>Node2</title>
<g id="a_Node000002"><a xlink:title=" ">
<polygon fill="#e0e0e0" stroke="#999999" points="408,-184 344,-184 344,-165 408,-165 408,-184"/>
<text text-anchor="middle" x="376" y="-172" font-family="Helvetica,sans-Serif" font-size="10.00">algorithm</text>
</a>
</g>
</g>
<!-- Node1&#45;&gt;Node2 -->
<g id="edge1_Node000001_Node000002" class="edge">
<title>Node1&#45;&gt;Node2</title>
<g id="a_edge1_Node000001_Node000002"><a xlink:title=" ">
<path fill="none" stroke="#63b8ff" d="M426.36,-219.98C417.49,-212.15 404.13,-200.34 393.39,-190.86"/>
<polygon fill="#63b8ff" stroke="#63b8ff" points="395.63,-188.17 385.82,-184.17 390.99,-193.41 395.63,-188.17"/>
</a>
</g>
</g>
<!-- Node3 -->
<g id="Node000003" class="node">
<title>Node3</title>
<g id="a_Node000003"><a xlink:href="parser_8hpp.html" target="_top" xlink:title="Define the yy::parser class.">
<polygon fill="white" stroke="#666666" points="584,-184 516,-184 516,-165 584,-165 584,-184"/>
<text text-anchor="middle" x="550" y="-172" font-family="Helvetica,sans-Serif" font-size="10.00">parser.hpp</text>
</a>
</g>
</g>
<!-- Node1&#45;&gt;Node3 -->
<g id="edge2_Node000001_Node000003" class="edge">
<title>Node1&#45;&gt;Node3</title>
<g id="a_edge2_Node000001_Node000003"><a xlink:title=" ">
<path fill="none" stroke="#63b8ff" d="M454.32,-219.98C472.66,-211.46 501.11,-198.23 522.23,-188.41"/>
<polygon fill="#63b8ff" stroke="#63b8ff" points="523.76,-191.56 531.35,-184.17 520.81,-185.21 523.76,-191.56"/>
</a>
</g>
</g>
<!-- Node20 -->
<g id="Node000020" class="node">
<title>Node20</title>
<g id="a_Node000020"><a xlink:href="output__format_8h.html" target="_top" xlink:title=" ">
<polygon fill="white" stroke="#666666" points="432.5,-129 337.5,-129 337.5,-110 432.5,-110 432.5,-129"/>
<text text-anchor="middle" x="385" y="-117" font-family="Helvetica,sans-Serif" font-size="10.00">output_format.h</text>
</a>
</g>
</g>
<!-- Node1&#45;&gt;Node20 -->
<g id="edge24_Node000001_Node000020" class="edge">
<title>Node1&#45;&gt;Node20</title>
<g id="a_edge24_Node000001_Node000020"><a xlink:title=" ">
<path fill="none" stroke="#63b8ff" d="M434.39,-219.95C431.82,-207.43 426.14,-183.59 417,-165 412.13,-155.09 405.1,-145.02 398.87,-136.98"/>
<polygon fill="#63b8ff" stroke="#63b8ff" points="401.56,-134.74 392.56,-129.14 396.1,-139.12 401.56,-134.74"/>
</a>
</g>
</g>
<!-- Node4 -->
<g id="Node000004" class="node">
<title>Node4</title>
<g id="a_Node000004"><a xlink:title=" ">
<polygon fill="#e0e0e0" stroke="#999999" points="424,-19 380,-19 380,0 424,0 424,-19"/>
<text text-anchor="middle" x="402" y="-7" font-family="Helvetica,sans-Serif" font-size="10.00">string</text>
</a>
</g>
</g>
<!-- Node3&#45;&gt;Node4 -->
<g id="edge3_Node000003_Node000004" class="edge">
<title>Node3&#45;&gt;Node4</title>
<g id="a_edge3_Node000003_Node000004"><a xlink:title=" ">
<path fill="none" stroke="#63b8ff" d="M584.05,-173.31C651.22,-172.14 797,-165.36 828,-129 833.48,-122.57 832.99,-116.82 828,-110 780.99,-45.73 525.16,-19.99 434.15,-12.78"/>
<polygon fill="#63b8ff" stroke="#63b8ff" points="434.38,-9.29 424.14,-12.01 433.84,-16.27 434.38,-9.29"/>
</a>
</g>
</g>
<!-- Node5 -->
<g id="Node000005" class="node">
<title>Node5</title>
<g id="a_Node000005"><a xlink:title=" ">
<polygon fill="#e0e0e0" stroke="#999999" points="726.5,-129 671.5,-129 671.5,-110 726.5,-110 726.5,-129"/>
<text text-anchor="middle" x="699" y="-117" font-family="Helvetica,sans-Serif" font-size="10.00">fstream</text>
</a>
</g>
</g>
<!-- Node3&#45;&gt;Node5 -->
<g id="edge4_Node000003_Node000005" class="edge">
<title>Node3&#45;&gt;Node5</title>
<g id="a_edge4_Node000003_Node000005"><a xlink:title=" ">
<path fill="none" stroke="#63b8ff" d="M573.94,-164.98C598.56,-156.23 637.12,-142.51 664.92,-132.62"/>
<polygon fill="#63b8ff" stroke="#63b8ff" points="666.38,-135.82 674.62,-129.17 664.03,-129.22 666.38,-135.82"/>
</a>
</g>
</g>
<!-- Node6 -->
<g id="Node000006" class="node">
<title>Node6</title>
<g id="a_Node000006"><a xlink:title=" ">
<polygon fill="#e0e0e0" stroke="#999999" points="801,-129 745,-129 745,-110 801,-110 801,-129"/>
<text text-anchor="middle" x="773" y="-117" font-family="Helvetica,sans-Serif" font-size="10.00">sstream</text>
</a>
</g>
</g>
<!-- Node3&#45;&gt;Node6 -->
<g id="edge5_Node000003_Node000006" class="edge">
<title>Node3&#45;&gt;Node6</title>
<g id="a_edge5_Node000003_Node000006"><a xlink:title=" ">
<path fill="none" stroke="#63b8ff" d="M584.36,-165.33C625.1,-155.65 692.8,-139.56 735.06,-129.52"/>
<polygon fill="#63b8ff" stroke="#63b8ff" points="736.04,-132.88 744.96,-127.16 734.42,-126.07 736.04,-132.88"/>
</a>
</g>
</g>
<!-- Node7 -->
<g id="Node000007" class="node">
<title>Node7</title>
<g id="a_Node000007"><a xlink:href="pio__types_8h.html" target="_top" xlink:title=" ">
<polygon fill="white" stroke="#666666" points="319.5,-129 246.5,-129 246.5,-110 319.5,-110 319.5,-129"/>
<text text-anchor="middle" x="283" y="-117" font-family="Helvetica,sans-Serif" font-size="10.00">pio_types.h</text>
</a>
</g>
</g>
<!-- Node3&#45;&gt;Node7 -->
<g id="edge6_Node000003_Node000007" class="edge">
<title>Node3&#45;&gt;Node7</title>
<g id="a_edge6_Node000003_Node000007"><a xlink:title=" ">
<path fill="none" stroke="#63b8ff" d="M515.91,-166.73C468.63,-157.35 382.97,-140.34 329.75,-129.78"/>
<polygon fill="#63b8ff" stroke="#63b8ff" points="330.37,-126.33 319.88,-127.82 329.01,-133.2 330.37,-126.33"/>
</a>
</g>
</g>
<!-- Node12 -->
<g id="Node000012" class="node">
<title>Node12</title>
<g id="a_Node000012"><a xlink:title=" ">
<polygon fill="#e0e0e0" stroke="#999999" points="645.5,-74 598.5,-74 598.5,-55 645.5,-55 645.5,-74"/>
<text text-anchor="middle" x="622" y="-62" font-family="Helvetica,sans-Serif" font-size="10.00">vector</text>
</a>
</g>
</g>
<!-- Node3&#45;&gt;Node12 -->
<g id="edge21_Node000003_Node000012" class="edge">
<title>Node3&#45;&gt;Node12</title>
<g id="a_edge21_Node000003_Node000012"><a xlink:title=" ">
<path fill="none" stroke="#63b8ff" d="M584.31,-172.88C648.2,-170.92 781.51,-162.78 810,-129 853.45,-77.49 720.73,-67.62 655.7,-65.83"/>
<polygon fill="#63b8ff" stroke="#63b8ff" points="655.59,-62.33 645.51,-65.6 655.43,-69.33 655.59,-62.33"/>
</a>
</g>
</g>
<!-- Node14 -->
<g id="Node000014" class="node">
<title>Node14</title>
<g id="a_Node000014"><a xlink:href="location_8h.html" target="_top" xlink:title="Define the yy::location class.">
<polygon fill="white" stroke="#666666" points="92.5,-74 27.5,-74 27.5,-55 92.5,-55 92.5,-74"/>
<text text-anchor="middle" x="60" y="-62" font-family="Helvetica,sans-Serif" font-size="10.00">location.h</text>
</a>
</g>
</g>
<!-- Node3&#45;&gt;Node14 -->
<g id="edge22_Node000003_Node000014" class="edge">
<title>Node3&#45;&gt;Node14</title>
<g id="a_edge22_Node000003_Node000014"><a xlink:title=" ">
<path fill="none" stroke="#63b8ff" d="M515.87,-170.89C458.02,-165.97 337.33,-153.54 238,-129 184.37,-115.75 124.28,-92.46 89.43,-78.07"/>
<polygon fill="#63b8ff" stroke="#63b8ff" points="90.46,-74.7 79.88,-74.08 87.76,-81.16 90.46,-74.7"/>
</a>
</g>
</g>
<!-- Node15 -->
<g id="Node000015" class="node">
<title>Node15</title>
<g id="a_Node000015"><a xlink:title=" ">
<polygon fill="#e0e0e0" stroke="#999999" points="60,-19 0,-19 0,0 60,0 60,-19"/>
<text text-anchor="middle" x="30" y="-7" font-family="Helvetica,sans-Serif" font-size="10.00">iostream</text>
</a>
</g>
</g>
<!-- Node3&#45;&gt;Node15 -->
<g id="edge19_Node000003_Node000015" class="edge">
<title>Node3&#45;&gt;Node15</title>
<g id="a_edge19_Node000003_Node000015"><a xlink:title=" ">
<path fill="none" stroke="#63b8ff" d="M515.86,-171.99C449.31,-168.48 297.89,-157.8 174,-129 102.39,-112.36 60.47,-134.01 18,-74 8.6,-60.72 13.7,-42.1 19.89,-28.46"/>
<polygon fill="#63b8ff" stroke="#63b8ff" points="23.2,-29.67 24.61,-19.17 16.96,-26.5 23.2,-29.67"/>
</a>
</g>
</g>
<!-- Node17 -->
<g id="Node000017" class="node">
<title>Node17</title>
<g id="a_Node000017"><a xlink:title=" ">
<polygon fill="#e0e0e0" stroke="#999999" points="499.5,-129 450.5,-129 450.5,-110 499.5,-110 499.5,-129"/>
<text text-anchor="middle" x="475" y="-117" font-family="Helvetica,sans-Serif" font-size="10.00">cstdlib</text>
</a>
</g>
</g>
<!-- Node3&#45;&gt;Node17 -->
<g id="edge18_Node000003_Node000017" class="edge">
<title>Node3&#45;&gt;Node17</title>
<g id="a_edge18_Node000003_Node000017"><a xlink:title=" ">
<path fill="none" stroke="#63b8ff" d="M537.95,-164.98C526.54,-156.92 509.17,-144.65 495.57,-135.03"/>
<polygon fill="#63b8ff" stroke="#63b8ff" points="497.46,-132.08 487.27,-129.17 493.42,-137.8 497.46,-132.08"/>
</a>
</g>
</g>
<!-- Node18 -->
<g id="Node000018" class="node">
<title>Node18</title>
<g id="a_Node000018"><a xlink:title=" ">
<polygon fill="#e0e0e0" stroke="#999999" points="582.5,-129 517.5,-129 517.5,-110 582.5,-110 582.5,-129"/>
<text text-anchor="middle" x="550" y="-117" font-family="Helvetica,sans-Serif" font-size="10.00">stdexcept</text>
</a>
</g>
</g>
<!-- Node3&#45;&gt;Node18 -->
<g id="edge20_Node000003_Node000018" class="edge">
<title>Node3&#45;&gt;Node18</title>
<g id="a_edge20_Node000003_Node000018"><a xlink:title=" ">
<path fill="none" stroke="#63b8ff" d="M550,-164.75C550,-157.8 550,-147.85 550,-139.13"/>
<polygon fill="#63b8ff" stroke="#63b8ff" points="553.5,-139.09 550,-129.09 546.5,-139.09 553.5,-139.09"/>
</a>
</g>
</g>
<!-- Node19 -->
<g id="Node000019" class="node">
<title>Node19</title>
<g id="a_Node000019"><a xlink:title=" ">
<polygon fill="#e0e0e0" stroke="#999999" points="653,-129 601,-129 601,-110 653,-110 653,-129"/>
<text text-anchor="middle" x="627" y="-117" font-family="Helvetica,sans-Serif" font-size="10.00">cassert</text>
</a>
</g>
</g>
<!-- Node3&#45;&gt;Node19 -->
<g id="edge23_Node000003_Node000019" class="edge">
<title>Node3&#45;&gt;Node19</title>
<g id="a_edge23_Node000003_Node000019"><a xlink:title=" ">
<path fill="none" stroke="#63b8ff" d="M562.37,-164.98C574.09,-156.92 591.92,-144.65 605.89,-135.03"/>
<polygon fill="#63b8ff" stroke="#63b8ff" points="608.15,-137.72 614.4,-129.17 604.18,-131.96 608.15,-137.72"/>
</a>
</g>
</g>
<!-- Node7&#45;&gt;Node4 -->
<g id="edge8_Node000007_Node000004" class="edge">
<title>Node7&#45;&gt;Node4</title>
<g id="a_edge8_Node000007_Node000004"><a xlink:title=" ">
<path fill="none" stroke="#63b8ff" d="M273.41,-109.66C260.61,-96.79 240.98,-72.51 254,-55 280.55,-19.29 334.81,-11.17 369.74,-9.88"/>
<polygon fill="#63b8ff" stroke="#63b8ff" points="369.98,-13.38 379.91,-9.68 369.84,-6.38 369.98,-13.38"/>
</a>
</g>
</g>
<!-- Node8 -->
<g id="Node000008" class="node">
<title>Node8</title>
<g id="a_Node000008"><a xlink:title=" ">
<polygon fill="#e0e0e0" stroke="#999999" points="410,-74 360,-74 360,-55 410,-55 410,-74"/>
<text text-anchor="middle" x="385" y="-62" font-family="Helvetica,sans-Serif" font-size="10.00">cstdint</text>
</a>
</g>
</g>
<!-- Node7&#45;&gt;Node8 -->
<g id="edge7_Node000007_Node000008" class="edge">
<title>Node7&#45;&gt;Node8</title>
<g id="a_edge7_Node000007_Node000008"><a xlink:title=" ">
<path fill="none" stroke="#63b8ff" d="M299.39,-109.98C315.57,-101.57 340.57,-88.59 359.38,-78.81"/>
<polygon fill="#63b8ff" stroke="#63b8ff" points="361.05,-81.89 368.31,-74.17 357.83,-75.68 361.05,-81.89"/>
</a>
</g>
</g>
<!-- Node9 -->
<g id="Node000009" class="node">
<title>Node9</title>
<g id="a_Node000009"><a xlink:title=" ">
<polygon fill="#e0e0e0" stroke="#999999" points="466,-74 428,-74 428,-55 466,-55 466,-74"/>
<text text-anchor="middle" x="447" y="-62" font-family="Helvetica,sans-Serif" font-size="10.00">map</text>
</a>
</g>
</g>
<!-- Node7&#45;&gt;Node9 -->
<g id="edge9_Node000007_Node000009" class="edge">
<title>Node7&#45;&gt;Node9</title>
<g id="a_edge9_Node000007_Node000009"><a xlink:title=" ">
<path fill="none" stroke="#63b8ff" d="M309.35,-109.98C339.12,-100.36 387.43,-84.75 418.18,-74.81"/>
<polygon fill="#63b8ff" stroke="#63b8ff" points="419.45,-78.08 427.89,-71.68 417.3,-71.42 419.45,-78.08"/>
</a>
</g>
</g>
<!-- Node10 -->
<g id="Node000010" class="node">
<title>Node10</title>
<g id="a_Node000010"><a xlink:title=" ">
<polygon fill="#e0e0e0" stroke="#999999" points="206,-74 174,-74 174,-55 206,-55 206,-74"/>
<text text-anchor="middle" x="190" y="-62" font-family="Helvetica,sans-Serif" font-size="10.00">set</text>
</a>
</g>
</g>
<!-- Node7&#45;&gt;Node10 -->
<g id="edge10_Node000007_Node000010" class="edge">
<title>Node7&#45;&gt;Node10</title>
<g id="a_edge10_Node000007_Node000010"><a xlink:title=" ">
<path fill="none" stroke="#63b8ff" d="M268.06,-109.98C253.5,-101.69 231.13,-88.94 214.07,-79.22"/>
<polygon fill="#63b8ff" stroke="#63b8ff" points="215.64,-76.08 205.21,-74.17 212.17,-82.16 215.64,-76.08"/>
</a>
</g>
</g>
<!-- Node11 -->
<g id="Node000011" class="node">
<title>Node11</title>
<g id="a_Node000011"><a xlink:title=" ">
<polygon fill="#e0e0e0" stroke="#999999" points="155.5,-74 110.5,-74 110.5,-55 155.5,-55 155.5,-74"/>
<text text-anchor="middle" x="133" y="-62" font-family="Helvetica,sans-Serif" font-size="10.00">utility</text>
</a>
</g>
</g>
<!-- Node7&#45;&gt;Node11 -->
<g id="edge11_Node000007_Node000011" class="edge">
<title>Node7&#45;&gt;Node11</title>
<g id="a_edge11_Node000007_Node000011"><a xlink:title=" ">
<path fill="none" stroke="#63b8ff" d="M258.9,-109.98C233.53,-101.02 193.44,-86.86 165.33,-76.92"/>
<polygon fill="#63b8ff" stroke="#63b8ff" points="166.16,-73.51 155.57,-73.47 163.83,-80.11 166.16,-73.51"/>
</a>
</g>
</g>
<!-- Node7&#45;&gt;Node12 -->
<g id="edge12_Node000007_Node000012" class="edge">
<title>Node7&#45;&gt;Node12</title>
<g id="a_edge12_Node000007_Node000012"><a xlink:title=" ">
<path fill="none" stroke="#63b8ff" d="M319.64,-111.62C322.8,-111.06 325.96,-110.51 329,-110 422.71,-94.23 533.7,-78.05 588.27,-70.26"/>
<polygon fill="#63b8ff" stroke="#63b8ff" points="589.01,-73.7 598.41,-68.82 588.02,-66.77 589.01,-73.7"/>
</a>
</g>
</g>
<!-- Node13 -->
<g id="Node000013" class="node">
<title>Node13</title>
<g id="a_Node000013"><a xlink:title=" ">
<polygon fill="#e0e0e0" stroke="#999999" points="542,-74 484,-74 484,-55 542,-55 542,-74"/>
<text text-anchor="middle" x="513" y="-62" font-family="Helvetica,sans-Serif" font-size="10.00">memory</text>
</a>
</g>
</g>
<!-- Node7&#45;&gt;Node13 -->
<g id="edge13_Node000007_Node000013" class="edge">
<title>Node7&#45;&gt;Node13</title>
<g id="a_edge13_Node000007_Node000013"><a xlink:title=" ">
<path fill="none" stroke="#63b8ff" d="M319.7,-110.04C361.85,-100.33 430.73,-84.46 473.88,-74.52"/>
<polygon fill="#63b8ff" stroke="#63b8ff" points="474.77,-77.9 483.73,-72.24 473.2,-71.08 474.77,-77.9"/>
</a>
</g>
</g>
<!-- Node7&#45;&gt;Node14 -->
<g id="edge14_Node000007_Node000014" class="edge">
<title>Node7&#45;&gt;Node14</title>
<g id="a_edge14_Node000007_Node000014"><a xlink:title=" ">
<path fill="none" stroke="#63b8ff" d="M247.17,-109.98C207.82,-100.63 144.65,-85.62 102.74,-75.66"/>
<polygon fill="#63b8ff" stroke="#63b8ff" points="103.37,-72.21 92.83,-73.3 101.75,-79.02 103.37,-72.21"/>
</a>
</g>
</g>
<!-- Node16 -->
<g id="Node000016" class="node">
<title>Node16</title>
<g id="a_Node000016"><a xlink:href="pio__enums_8h.html" target="_top" xlink:title=" ">
<polygon fill="white" stroke="#666666" points="341.5,-74 262.5,-74 262.5,-55 341.5,-55 341.5,-74"/>
<text text-anchor="middle" x="302" y="-62" font-family="Helvetica,sans-Serif" font-size="10.00">pio_enums.h</text>
</a>
</g>
</g>
<!-- Node7&#45;&gt;Node16 -->
<g id="edge17_Node000007_Node000016" class="edge">
<title>Node7&#45;&gt;Node16</title>
<g id="a_edge17_Node000007_Node000016"><a xlink:title=" ">
<path fill="none" stroke="#63b8ff" d="M286.14,-109.75C288.68,-102.65 292.36,-92.4 295.53,-83.56"/>
<polygon fill="#63b8ff" stroke="#63b8ff" points="298.84,-84.68 298.92,-74.09 292.25,-82.32 298.84,-84.68"/>
</a>
</g>
</g>
<!-- Node14&#45;&gt;Node4 -->
<g id="edge16_Node000014_Node000004" class="edge">
<title>Node14&#45;&gt;Node4</title>
<g id="a_edge16_Node000014_Node000004"><a xlink:title=" ">
<path fill="none" stroke="#63b8ff" d="M92.53,-56.74C95.72,-56.13 98.92,-55.54 102,-55 199,-38 314.39,-22.09 369.53,-14.75"/>
<polygon fill="#63b8ff" stroke="#63b8ff" points="370.28,-18.18 379.73,-13.4 369.36,-11.24 370.28,-18.18"/>
</a>
</g>
</g>
<!-- Node14&#45;&gt;Node15 -->
<g id="edge15_Node000014_Node000015" class="edge">
<title>Node14&#45;&gt;Node15</title>
<g id="a_edge15_Node000014_Node000015"><a xlink:title=" ">
<path fill="none" stroke="#63b8ff" d="M55.05,-54.75C50.94,-47.49 44.97,-36.95 39.9,-27.98"/>
<polygon fill="#63b8ff" stroke="#63b8ff" points="42.83,-26.07 34.86,-19.09 36.74,-29.52 42.83,-26.07"/>
</a>
</g>
</g>
<!-- Node20&#45;&gt;Node4 -->
<g id="edge28_Node000020_Node000004" class="edge">
<title>Node20&#45;&gt;Node4</title>
<g id="a_edge28_Node000020_Node000004"><a xlink:title=" ">
<path fill="none" stroke="#63b8ff" d="M427.24,-109.95C473.85,-100.1 543.35,-83.97 551,-74 583.27,-31.94 487.22,-17.39 434.33,-12.64"/>
<polygon fill="#63b8ff" stroke="#63b8ff" points="434.33,-9.13 424.07,-11.8 433.75,-16.11 434.33,-9.13"/>
</a>
</g>
</g>
<!-- Node20&#45;&gt;Node8 -->
<g id="edge25_Node000020_Node000008" class="edge">
<title>Node20&#45;&gt;Node8</title>
<g id="a_edge25_Node000020_Node000008"><a xlink:title=" ">
<path fill="none" stroke="#63b8ff" d="M385,-109.75C385,-102.8 385,-92.85 385,-84.13"/>
<polygon fill="#63b8ff" stroke="#63b8ff" points="388.5,-84.09 385,-74.09 381.5,-84.09 388.5,-84.09"/>
</a>
</g>
</g>
<!-- Node20&#45;&gt;Node9 -->
<g id="edge27_Node000020_Node000009" class="edge">
<title>Node20&#45;&gt;Node9</title>
<g id="a_edge27_Node000020_Node000009"><a xlink:title=" ">
<path fill="none" stroke="#63b8ff" d="M394.96,-109.98C404.13,-102.15 417.94,-90.34 429.03,-80.86"/>
<polygon fill="#63b8ff" stroke="#63b8ff" points="431.53,-83.33 436.86,-74.17 426.98,-78.01 431.53,-83.33"/>
</a>
</g>
</g>
<!-- Node20&#45;&gt;Node12 -->
<g id="edge26_Node000020_Node000012" class="edge">
<title>Node20&#45;&gt;Node12</title>
<g id="a_edge26_Node000020_Node000012"><a xlink:title=" ">
<path fill="none" stroke="#63b8ff" d="M423.08,-109.98C468.87,-99.74 544.99,-82.72 588.59,-72.97"/>
<polygon fill="#63b8ff" stroke="#63b8ff" points="589.42,-76.37 598.42,-70.77 587.9,-69.54 589.42,-76.37"/>
</a>
</g>
</g>
<!-- Node20&#45;&gt;Node13 -->
<g id="edge29_Node000020_Node000013" class="edge">
<title>Node20&#45;&gt;Node13</title>
<g id="a_edge29_Node000020_Node000013"><a xlink:title=" ">
<path fill="none" stroke="#63b8ff" d="M405.57,-109.98C426.43,-101.34 458.97,-87.87 482.77,-78.02"/>
<polygon fill="#63b8ff" stroke="#63b8ff" points="484.16,-81.23 492.06,-74.17 481.48,-74.76 484.16,-81.23"/>
</a>
</g>
</g>
<!-- Node20&#45;&gt;Node16 -->
<g id="edge30_Node000020_Node000016" class="edge">
<title>Node20&#45;&gt;Node16</title>
<g id="a_edge30_Node000020_Node000016"><a xlink:title=" ">
<path fill="none" stroke="#63b8ff" d="M371.66,-109.98C358.91,-101.84 339.45,-89.41 324.33,-79.76"/>
<polygon fill="#63b8ff" stroke="#63b8ff" points="325.89,-76.6 315.58,-74.17 322.12,-82.5 325.89,-76.6"/>
</a>
</g>
</g>
</g>
</svg>
