<?xml version="1.0" encoding="UTF-8" standalone="no"?>
<!DOCTYPE svg PUBLIC "-//W3C//DTD SVG 1.1//EN"
 "http://www.w3.org/Graphics/SVG/1.1/DTD/svg11.dtd">
<!-- Generated by graphviz version 2.43.0 (0)
 -->
<!-- Title: pio_enums.h Pages: 1 -->
<svg width="922pt" height="247pt"
 viewBox="0.00 0.00 922.00 247.00" xmlns="http://www.w3.org/2000/svg" xmlns:xlink="http://www.w3.org/1999/xlink">
<g id="graph0" class="graph" transform="scale(1 1) rotate(0) translate(4 243)">
<title>pio_enums.h</title>
<!-- Node1 -->
<g id="Node000001" class="node">
<title>Node1</title>
<g id="a_Node000001"><a xlink:title=" ">
<polygon fill="#999999" stroke="#666666" points="463.5,-239 384.5,-239 384.5,-220 463.5,-220 463.5,-239"/>
<text text-anchor="middle" x="424" y="-227" font-family="Helvetica,sans-Serif" font-size="10.00">pio_enums.h</text>
</a>
</g>
</g>
<!-- Node2 -->
<g id="Node000002" class="node">
<title>Node2</title>
<g id="a_Node000002"><a xlink:href="output__format_8h.html" target="_top" xlink:title=" ">
<polygon fill="white" stroke="#666666" points="420.5,-184 325.5,-184 325.5,-165 420.5,-165 420.5,-184"/>
<text text-anchor="middle" x="373" y="-172" font-family="Helvetica,sans-Serif" font-size="10.00">output_format.h</text>
</a>
</g>
</g>
<!-- Node1&#45;&gt;Node2 -->
<g id="edge1_Node000001_Node000002" class="edge">
<title>Node1&#45;&gt;Node2</title>
<g id="a_edge1_Node000001_Node000002"><a xlink:title=" ">
<path fill="none" stroke="#63b8ff" d="M408.62,-212.52C399.63,-203.18 388.64,-191.75 381.26,-184.09"/>
<polygon fill="#63b8ff" stroke="#63b8ff" points="406.12,-214.97 415.58,-219.75 411.17,-210.12 406.12,-214.97"/>
</a>
</g>
</g>
<!-- Node14 -->
<g id="Node000014" class="node">
<title>Node14</title>
<g id="a_Node000014"><a xlink:href="pio__types_8h.html" target="_top" xlink:title=" ">
<polygon fill="white" stroke="#666666" points="650.5,-184 577.5,-184 577.5,-165 650.5,-165 650.5,-184"/>
<text text-anchor="middle" x="614" y="-172" font-family="Helvetica,sans-Serif" font-size="10.00">pio_types.h</text>
</a>
</g>
</g>
<!-- Node1&#45;&gt;Node14 -->
<g id="edge13_Node000001_Node000014" class="edge">
<title>Node1&#45;&gt;Node14</title>
<g id="a_edge13_Node000001_Node000014"><a xlink:title=" ">
<path fill="none" stroke="#63b8ff" d="M464.57,-217.18C500.1,-207.27 550.97,-193.08 583.23,-184.08"/>
<polygon fill="#63b8ff" stroke="#63b8ff" points="463.22,-213.93 454.53,-219.98 465.1,-220.67 463.22,-213.93"/>
</a>
</g>
</g>
<!-- Node3 -->
<g id="Node000003" class="node">
<title>Node3</title>
<g id="a_Node000003"><a xlink:href="ada__output_8cpp.html" target="_top" xlink:title=" ">
<polygon fill="white" stroke="#666666" points="478,-129 386,-129 386,-110 478,-110 478,-129"/>
<text text-anchor="middle" x="432" y="-117" font-family="Helvetica,sans-Serif" font-size="10.00">ada_output.cpp</text>
</a>
</g>
</g>
<!-- Node2&#45;&gt;Node3 -->
<g id="edge2_Node000002_Node000003" class="edge">
<title>Node2&#45;&gt;Node3</title>
<g id="a_edge2_Node000002_Node000003"><a xlink:title=" ">
<path fill="none" stroke="#63b8ff" d="M390.2,-158.04C400.67,-148.64 413.65,-136.98 422.35,-129.17"/>
<polygon fill="#63b8ff" stroke="#63b8ff" points="387.58,-155.7 382.48,-164.98 392.26,-160.91 387.58,-155.7"/>
</a>
</g>
</g>
<!-- Node4 -->
<g id="Node000004" class="node">
<title>Node4</title>
<g id="a_Node000004"><a xlink:href="c__sdk__output_8cpp.html" target="_top" xlink:title=" ">
<polygon fill="white" stroke="#666666" points="597.5,-129 496.5,-129 496.5,-110 597.5,-110 597.5,-129"/>
<text text-anchor="middle" x="547" y="-117" font-family="Helvetica,sans-Serif" font-size="10.00">c_sdk_output.cpp</text>
</a>
</g>
</g>
<!-- Node2&#45;&gt;Node4 -->
<g id="edge3_Node000002_Node000004" class="edge">
<title>Node2&#45;&gt;Node4</title>
<g id="a_edge3_Node000002_Node000004"><a xlink:title=" ">
<path fill="none" stroke="#63b8ff" d="M410.57,-162.06C443.09,-152.15 489.4,-138.04 518.82,-129.08"/>
<polygon fill="#63b8ff" stroke="#63b8ff" points="409.5,-158.72 400.96,-164.98 411.54,-165.42 409.5,-158.72"/>
</a>
</g>
</g>
<!-- Node5 -->
<g id="Node000005" class="node">
<title>Node5</title>
<g id="a_Node000005"><a xlink:href="go__output_8cpp.html" target="_top" xlink:title=" ">
<polygon fill="white" stroke="#666666" points="702,-129 616,-129 616,-110 702,-110 702,-129"/>
<text text-anchor="middle" x="659" y="-117" font-family="Helvetica,sans-Serif" font-size="10.00">go_output.cpp</text>
</a>
</g>
</g>
<!-- Node2&#45;&gt;Node5 -->
<g id="edge4_Node000002_Node000005" class="edge">
<title>Node2&#45;&gt;Node5</title>
<g id="a_edge4_Node000002_Node000005"><a xlink:title=" ">
<path fill="none" stroke="#63b8ff" d="M428.85,-163.15C483.65,-152.99 566.07,-137.72 615.97,-128.47"/>
<polygon fill="#63b8ff" stroke="#63b8ff" points="428.15,-159.72 418.95,-164.98 429.42,-166.6 428.15,-159.72"/>
</a>
</g>
</g>
<!-- Node6 -->
<g id="Node000006" class="node">
<title>Node6</title>
<g id="a_Node000006"><a xlink:href="hex__output_8cpp.html" target="_top" xlink:title=" ">
<polygon fill="white" stroke="#666666" points="92,-129 0,-129 0,-110 92,-110 92,-129"/>
<text text-anchor="middle" x="46" y="-117" font-family="Helvetica,sans-Serif" font-size="10.00">hex_output.cpp</text>
</a>
</g>
</g>
<!-- Node2&#45;&gt;Node6 -->
<g id="edge5_Node000002_Node000006" class="edge">
<title>Node2&#45;&gt;Node6</title>
<g id="a_edge5_Node000002_Node000006"><a xlink:title=" ">
<path fill="none" stroke="#63b8ff" d="M315.58,-164.19C251.96,-153.88 150.64,-137.46 92.02,-127.96"/>
<polygon fill="#63b8ff" stroke="#63b8ff" points="315.02,-167.65 325.45,-165.79 316.14,-160.74 315.02,-167.65"/>
</a>
</g>
</g>
<!-- Node7 -->
<g id="Node000007" class="node">
<title>Node7</title>
<g id="a_Node000007"><a xlink:href="json__output_8cpp.html" target="_top" xlink:title=" ">
<polygon fill="white" stroke="#666666" points="204,-129 110,-129 110,-110 204,-110 204,-129"/>
<text text-anchor="middle" x="157" y="-117" font-family="Helvetica,sans-Serif" font-size="10.00">json_output.cpp</text>
</a>
</g>
</g>
<!-- Node2&#45;&gt;Node7 -->
<g id="edge6_Node000002_Node000007" class="edge">
<title>Node2&#45;&gt;Node7</title>
<g id="a_edge6_Node000002_Node000007"><a xlink:title=" ">
<path fill="none" stroke="#63b8ff" d="M328.43,-162.56C287.98,-152.64 229.13,-138.2 191.98,-129.08"/>
<polygon fill="#63b8ff" stroke="#63b8ff" points="327.75,-166 338.3,-164.98 329.42,-159.2 327.75,-166"/>
</a>
</g>
</g>
<!-- Node8 -->
<g id="Node000008" class="node">
<title>Node8</title>
<g id="a_Node000008"><a xlink:href="pio__assembler_8h.html" target="_top" xlink:title=" ">
<polygon fill="white" stroke="#666666" points="722.5,-74 625.5,-74 625.5,-55 722.5,-55 722.5,-74"/>
<text text-anchor="middle" x="674" y="-62" font-family="Helvetica,sans-Serif" font-size="10.00">pio_assembler.h</text>
</a>
</g>
</g>
<!-- Node2&#45;&gt;Node8 -->
<g id="edge7_Node000002_Node000008" class="edge">
<title>Node2&#45;&gt;Node8</title>
<g id="a_edge7_Node000002_Node000008"><a xlink:title=" ">
<path fill="none" stroke="#63b8ff" d="M315.49,-163.6C273.22,-153.91 226.99,-136.67 251,-110 275.67,-82.6 519.38,-70.86 625.28,-67.03"/>
<polygon fill="#63b8ff" stroke="#63b8ff" points="314.75,-167.02 325.26,-165.73 316.24,-160.18 314.75,-167.02"/>
</a>
</g>
</g>
<!-- Node13 -->
<g id="Node000013" class="node">
<title>Node13</title>
<g id="a_Node000013"><a xlink:href="python__output_8cpp.html" target="_top" xlink:title=" ">
<polygon fill="white" stroke="#666666" points="367.5,-129 260.5,-129 260.5,-110 367.5,-110 367.5,-129"/>
<text text-anchor="middle" x="314" y="-117" font-family="Helvetica,sans-Serif" font-size="10.00">python_output.cpp</text>
</a>
</g>
</g>
<!-- Node2&#45;&gt;Node13 -->
<g id="edge12_Node000002_Node000013" class="edge">
<title>Node2&#45;&gt;Node13</title>
<g id="a_edge12_Node000002_Node000013"><a xlink:title=" ">
<path fill="none" stroke="#63b8ff" d="M355.8,-158.04C345.33,-148.64 332.35,-136.98 323.65,-129.17"/>
<polygon fill="#63b8ff" stroke="#63b8ff" points="353.74,-160.91 363.52,-164.98 358.42,-155.7 353.74,-160.91"/>
</a>
</g>
</g>
<!-- Node9 -->
<g id="Node000009" class="node">
<title>Node9</title>
<g id="a_Node000009"><a xlink:href="lexer_8cpp.html" target="_top" xlink:title=" ">
<polygon fill="white" stroke="#666666" points="622,-19 560,-19 560,0 622,0 622,-19"/>
<text text-anchor="middle" x="591" y="-7" font-family="Helvetica,sans-Serif" font-size="10.00">lexer.cpp</text>
</a>
</g>
</g>
<!-- Node8&#45;&gt;Node9 -->
<g id="edge8_Node000008_Node000009" class="edge">
<title>Node8&#45;&gt;Node9</title>
<g id="a_edge8_Node000008_Node000009"><a xlink:title=" ">
<path fill="none" stroke="#63b8ff" d="M651.96,-49.42C636.89,-39.81 617.41,-27.37 604.58,-19.17"/>
<polygon fill="#63b8ff" stroke="#63b8ff" points="650.35,-52.55 660.66,-54.98 654.12,-46.65 650.35,-52.55"/>
</a>
</g>
</g>
<!-- Node10 -->
<g id="Node000010" class="node">
<title>Node10</title>
<g id="a_Node000010"><a xlink:href="main_8cpp.html" target="_top" xlink:title=" ">
<polygon fill="white" stroke="#666666" points="702,-19 640,-19 640,0 702,0 702,-19"/>
<text text-anchor="middle" x="671" y="-7" font-family="Helvetica,sans-Serif" font-size="10.00">main.cpp</text>
</a>
</g>
</g>
<!-- Node8&#45;&gt;Node10 -->
<g id="edge9_Node000008_Node000010" class="edge">
<title>Node8&#45;&gt;Node10</title>
<g id="a_edge9_Node000008_Node000010"><a xlink:title=" ">
<path fill="none" stroke="#63b8ff" d="M672.93,-44.66C672.44,-35.93 671.88,-25.99 671.49,-19.09"/>
<polygon fill="#63b8ff" stroke="#63b8ff" points="669.44,-44.96 673.5,-54.75 676.43,-44.57 669.44,-44.96"/>
</a>
</g>
</g>
<!-- Node11 -->
<g id="Node000011" class="node">
<title>Node11</title>
<g id="a_Node000011"><a xlink:href="parser_8cpp.html" target="_top" xlink:title=" ">
<polygon fill="white" stroke="#666666" points="788,-19 720,-19 720,0 788,0 788,-19"/>
<text text-anchor="middle" x="754" y="-7" font-family="Helvetica,sans-Serif" font-size="10.00">parser.cpp</text>
</a>
</g>
</g>
<!-- Node8&#45;&gt;Node11 -->
<g id="edge10_Node000008_Node000011" class="edge">
<title>Node8&#45;&gt;Node11</title>
<g id="a_edge10_Node000008_Node000011"><a xlink:title=" ">
<path fill="none" stroke="#63b8ff" d="M695.25,-49.42C709.76,-39.81 728.54,-27.37 740.91,-19.17"/>
<polygon fill="#63b8ff" stroke="#63b8ff" points="693.26,-46.54 686.85,-54.98 697.12,-52.38 693.26,-46.54"/>
</a>
</g>
</g>
<!-- Node12 -->
<g id="Node000012" class="node">
<title>Node12</title>
<g id="a_Node000012"><a xlink:href="pio__assembler_8cpp.html" target="_top" xlink:title=" ">
<polygon fill="white" stroke="#666666" points="914,-19 806,-19 806,0 914,0 914,-19"/>
<text text-anchor="middle" x="860" y="-7" font-family="Helvetica,sans-Serif" font-size="10.00">pio_assembler.cpp</text>
</a>
</g>
</g>
<!-- Node8&#45;&gt;Node12 -->
<g id="edge11_Node000008_Node000012" class="edge">
<title>Node8&#45;&gt;Node12</title>
<g id="a_edge11_Node000008_Node000012"><a xlink:title=" ">
<path fill="none" stroke="#63b8ff" d="M713.71,-52.18C748.5,-42.27 798.29,-28.08 829.88,-19.08"/>
<polygon fill="#63b8ff" stroke="#63b8ff" points="712.54,-48.88 703.88,-54.98 714.46,-55.61 712.54,-48.88"/>
</a>
</g>
</g>
<!-- Node15 -->
<g id="Node000015" class="node">
<title>Node15</title>
<g id="a_Node000015"><a xlink:href="parser_8hpp.html" target="_top" xlink:title="Define the yy::parser class.">
<polygon fill="white" stroke="#666666" points="788,-129 720,-129 720,-110 788,-110 788,-129"/>
<text text-anchor="middle" x="754" y="-117" font-family="Helvetica,sans-Serif" font-size="10.00">parser.hpp</text>
</a>
</g>
</g>
<!-- Node14&#45;&gt;Node15 -->
<g id="edge14_Node000014_Node000015" class="edge">
<title>Node14&#45;&gt;Node15</title>
<g id="a_edge14_Node000014_Node000015"><a xlink:title=" ">
<path fill="none" stroke="#63b8ff" d="M645.91,-161.42C671.88,-151.59 707.92,-137.95 731.1,-129.17"/>
<polygon fill="#63b8ff" stroke="#63b8ff" points="644.61,-158.17 636.49,-164.98 647.08,-164.72 644.61,-158.17"/>
</a>
</g>
</g>
<!-- Node15&#45;&gt;Node8 -->
<g id="edge18_Node000015_Node000008" class="edge">
<title>Node15&#45;&gt;Node8</title>
<g id="a_edge18_Node000015_Node000008"><a xlink:title=" ">
<path fill="none" stroke="#63b8ff" d="M732.75,-104.42C718.24,-94.81 699.46,-82.37 687.09,-74.17"/>
<polygon fill="#63b8ff" stroke="#63b8ff" points="730.88,-107.38 741.15,-109.98 734.74,-101.54 730.88,-107.38"/>
</a>
</g>
</g>
<!-- Node15&#45;&gt;Node9 -->
<g id="edge15_Node000015_Node000009" class="edge">
<title>Node15&#45;&gt;Node9</title>
<g id="a_edge15_Node000015_Node000009"><a xlink:title=" ">
<path fill="none" stroke="#63b8ff" d="M709.82,-108.61C674.88,-100.01 629.78,-86.94 616,-74 600.11,-59.08 594.14,-32.8 592.05,-19.2"/>
<polygon fill="#63b8ff" stroke="#63b8ff" points="709.28,-112.08 719.82,-111.02 710.92,-105.27 709.28,-112.08"/>
</a>
</g>
</g>
<!-- Node15&#45;&gt;Node11 -->
<g id="edge16_Node000015_Node000011" class="edge">
<title>Node15&#45;&gt;Node11</title>
<g id="a_edge16_Node000015_Node000011"><a xlink:title=" ">
<path fill="none" stroke="#63b8ff" d="M754,-99.48C754,-75.84 754,-36.5 754,-19.16"/>
<polygon fill="#63b8ff" stroke="#63b8ff" points="750.5,-99.66 754,-109.66 757.5,-99.66 750.5,-99.66"/>
</a>
</g>
</g>
<!-- Node15&#45;&gt;Node12 -->
<g id="edge17_Node000015_Node000012" class="edge">
<title>Node15&#45;&gt;Node12</title>
<g id="a_edge17_Node000015_Node000012"><a xlink:title=" ">
<path fill="none" stroke="#63b8ff" d="M769.9,-102.3C792.67,-79.1 833.79,-37.21 851.5,-19.16"/>
<polygon fill="#63b8ff" stroke="#63b8ff" points="767.18,-100.07 762.67,-109.66 772.18,-104.98 767.18,-100.07"/>
</a>
</g>
</g>
</g>
</svg>
