<?xml version="1.0" encoding="UTF-8" standalone="no"?>
<!DOCTYPE svg PUBLIC "-//W3C//DTD SVG 1.1//EN"
 "http://www.w3.org/Graphics/SVG/1.1/DTD/svg11.dtd">
<!-- Generated by graphviz version 2.43.0 (0)
 -->
<!-- Title: pio.c Pages: 1 -->
<svg width="1076pt" height="247pt"
 viewBox="0.00 0.00 1075.97 247.00" xmlns="http://www.w3.org/2000/svg" xmlns:xlink="http://www.w3.org/1999/xlink">
<g id="graph0" class="graph" transform="scale(1 1) rotate(0) translate(4 243)">
<title>pio.c</title>
<!-- Node1 -->
<g id="Node000001" class="node">
<title>Node1</title>
<g id="a_Node000001"><a xlink:title=" ">
<polygon fill="#999999" stroke="#666666" points="225.97,-239 185.97,-239 185.97,-220 225.97,-220 225.97,-239"/>
<text text-anchor="middle" x="205.97" y="-227" font-family="Helvetica,sans-Serif" font-size="10.00">pio.c</text>
</a>
</g>
</g>
<!-- Node2 -->
<g id="Node000002" class="node">
<title>Node2</title>
<g id="a_Node000002"><a xlink:href="claim_8h.html" target="_top" xlink:title=" ">
<polygon fill="white" stroke="#666666" points="113.47,-184 12.47,-184 12.47,-165 113.47,-165 113.47,-184"/>
<text text-anchor="middle" x="62.97" y="-172" font-family="Helvetica,sans-Serif" font-size="10.00">hardware/claim.h</text>
</a>
</g>
</g>
<!-- Node1&#45;&gt;Node2 -->
<g id="edge1_Node000001_Node000002" class="edge">
<title>Node1&#45;&gt;Node2</title>
<g id="a_edge1_Node000001_Node000002"><a xlink:title=" ">
<path fill="none" stroke="#63b8ff" d="M185.79,-221.02C162.48,-212.38 123.78,-198.04 96.05,-187.76"/>
<polygon fill="#63b8ff" stroke="#63b8ff" points="96.97,-184.37 86.38,-184.17 94.54,-190.93 96.97,-184.37"/>
</a>
</g>
</g>
<!-- Node5 -->
<g id="Node000005" class="node">
<title>Node5</title>
<g id="a_Node000005"><a xlink:href="rp2__common_2hardware__pio_2include_2hardware_2pio_8h.html" target="_top" xlink:title=" ">
<polygon fill="white" stroke="#666666" points="518.47,-184 429.47,-184 429.47,-165 518.47,-165 518.47,-184"/>
<text text-anchor="middle" x="473.97" y="-172" font-family="Helvetica,sans-Serif" font-size="10.00">hardware/pio.h</text>
</a>
</g>
</g>
<!-- Node1&#45;&gt;Node5 -->
<g id="edge4_Node000001_Node000005" class="edge">
<title>Node1&#45;&gt;Node5</title>
<g id="a_edge4_Node000001_Node000005"><a xlink:title=" ">
<path fill="none" stroke="#63b8ff" d="M226.12,-224.52C266.97,-216.44 360.75,-197.89 420.52,-186.07"/>
<polygon fill="#63b8ff" stroke="#63b8ff" points="421.41,-189.46 430.54,-184.09 420.05,-182.6 421.41,-189.46"/>
</a>
</g>
</g>
<!-- Node13 -->
<g id="Node000013" class="node">
<title>Node13</title>
<g id="a_Node000013"><a xlink:href="pio__instructions_8h.html" target="_top" xlink:title=" ">
<polygon fill="white" stroke="#666666" points="281.97,-129 129.97,-129 129.97,-110 281.97,-110 281.97,-129"/>
<text text-anchor="middle" x="205.97" y="-117" font-family="Helvetica,sans-Serif" font-size="10.00">hardware/pio_instructions.h</text>
</a>
</g>
</g>
<!-- Node1&#45;&gt;Node13 -->
<g id="edge17_Node000001_Node000013" class="edge">
<title>Node1&#45;&gt;Node13</title>
<g id="a_edge17_Node000001_Node000013"><a xlink:title=" ">
<path fill="none" stroke="#63b8ff" d="M205.97,-219.66C205.97,-202.17 205.97,-162.8 205.97,-139.27"/>
<polygon fill="#63b8ff" stroke="#63b8ff" points="209.47,-139.16 205.97,-129.16 202.47,-139.16 209.47,-139.16"/>
</a>
</g>
</g>
<!-- Node3 -->
<g id="Node000003" class="node">
<title>Node3</title>
<g id="a_Node000003"><a xlink:title=" ">
<polygon fill="#e0e0e0" stroke="#999999" points="406.97,-74 360.97,-74 360.97,-55 406.97,-55 406.97,-74"/>
<text text-anchor="middle" x="383.97" y="-62" font-family="Helvetica,sans-Serif" font-size="10.00">pico.h</text>
</a>
</g>
</g>
<!-- Node2&#45;&gt;Node3 -->
<g id="edge2_Node000002_Node000003" class="edge">
<title>Node2&#45;&gt;Node3</title>
<g id="a_edge2_Node000002_Node000003"><a xlink:title=" ">
<path fill="none" stroke="#63b8ff" d="M45.18,-164.94C22.25,-152.8 -12.69,-129.86 4.97,-110 27.82,-84.31 262.77,-71.03 350.86,-66.92"/>
<polygon fill="#63b8ff" stroke="#63b8ff" points="351.02,-70.41 360.85,-66.46 350.7,-63.42 351.02,-70.41"/>
</a>
</g>
</g>
<!-- Node4 -->
<g id="Node000004" class="node">
<title>Node4</title>
<g id="a_Node000004"><a xlink:title=" ">
<polygon fill="#e0e0e0" stroke="#999999" points="111.47,-129 14.47,-129 14.47,-110 111.47,-110 111.47,-129"/>
<text text-anchor="middle" x="62.97" y="-117" font-family="Helvetica,sans-Serif" font-size="10.00">hardware/sync.h</text>
</a>
</g>
</g>
<!-- Node2&#45;&gt;Node4 -->
<g id="edge3_Node000002_Node000004" class="edge">
<title>Node2&#45;&gt;Node4</title>
<g id="a_edge3_Node000002_Node000004"><a xlink:title=" ">
<path fill="none" stroke="#63b8ff" d="M62.97,-164.75C62.97,-157.8 62.97,-147.85 62.97,-139.13"/>
<polygon fill="#63b8ff" stroke="#63b8ff" points="66.47,-139.09 62.97,-129.09 59.47,-139.09 66.47,-139.09"/>
</a>
</g>
</g>
<!-- Node5&#45;&gt;Node3 -->
<g id="edge5_Node000005_Node000003" class="edge">
<title>Node5&#45;&gt;Node3</title>
<g id="a_edge5_Node000005_Node000003"><a xlink:title=" ">
<path fill="none" stroke="#63b8ff" d="M496.4,-164.88C522.5,-153.55 560,-132.44 542.97,-110 527.84,-90.05 459.32,-76.61 417.32,-70.08"/>
<polygon fill="#63b8ff" stroke="#63b8ff" points="417.67,-66.59 407.26,-68.57 416.63,-73.51 417.67,-66.59"/>
</a>
</g>
</g>
<!-- Node6 -->
<g id="Node000006" class="node">
<title>Node6</title>
<g id="a_Node000006"><a xlink:href="address__mapped_8h.html" target="_top" xlink:title=" ">
<polygon fill="white" stroke="#666666" points="891.97,-129 733.97,-129 733.97,-110 891.97,-110 891.97,-129"/>
<text text-anchor="middle" x="812.97" y="-117" font-family="Helvetica,sans-Serif" font-size="10.00">hardware/address_mapped.h</text>
</a>
</g>
</g>
<!-- Node5&#45;&gt;Node6 -->
<g id="edge6_Node000005_Node000006" class="edge">
<title>Node5&#45;&gt;Node6</title>
<g id="a_edge6_Node000005_Node000006"><a xlink:title=" ">
<path fill="none" stroke="#63b8ff" d="M518.64,-166.52C577.38,-157.33 681.01,-141.13 748.32,-130.61"/>
<polygon fill="#63b8ff" stroke="#63b8ff" points="749.05,-134.04 758.39,-129.03 747.97,-127.12 749.05,-134.04"/>
</a>
</g>
</g>
<!-- Node10 -->
<g id="Node000010" class="node">
<title>Node10</title>
<g id="a_Node000010"><a xlink:title=" ">
<polygon fill="#e0e0e0" stroke="#999999" points="715.47,-129 590.47,-129 590.47,-110 715.47,-110 715.47,-129"/>
<text text-anchor="middle" x="652.97" y="-117" font-family="Helvetica,sans-Serif" font-size="10.00">hardware/structs/pio.h</text>
</a>
</g>
</g>
<!-- Node5&#45;&gt;Node10 -->
<g id="edge12_Node000005_Node000010" class="edge">
<title>Node5&#45;&gt;Node10</title>
<g id="a_edge12_Node000005_Node000010"><a xlink:title=" ">
<path fill="none" stroke="#63b8ff" d="M502.73,-164.98C532.92,-156.05 580.55,-141.94 614.07,-132.02"/>
<polygon fill="#63b8ff" stroke="#63b8ff" points="615.39,-135.28 623.99,-129.08 613.41,-128.57 615.39,-135.28"/>
</a>
</g>
</g>
<!-- Node11 -->
<g id="Node000011" class="node">
<title>Node11</title>
<g id="a_Node000011"><a xlink:title=" ">
<polygon fill="#e0e0e0" stroke="#999999" points="395.47,-129 300.47,-129 300.47,-110 395.47,-110 395.47,-129"/>
<text text-anchor="middle" x="347.97" y="-117" font-family="Helvetica,sans-Serif" font-size="10.00">hardware/gpio.h</text>
</a>
</g>
</g>
<!-- Node5&#45;&gt;Node11 -->
<g id="edge13_Node000005_Node000011" class="edge">
<title>Node5&#45;&gt;Node11</title>
<g id="a_edge13_Node000005_Node000011"><a xlink:title=" ">
<path fill="none" stroke="#63b8ff" d="M453.73,-164.98C433.28,-156.38 401.44,-142.99 378.04,-133.15"/>
<polygon fill="#63b8ff" stroke="#63b8ff" points="379.16,-129.82 368.59,-129.17 376.45,-136.27 379.16,-129.82"/>
</a>
</g>
</g>
<!-- Node12 -->
<g id="Node000012" class="node">
<title>Node12</title>
<g id="a_Node000012"><a xlink:title=" ">
<polygon fill="#e0e0e0" stroke="#999999" points="533.97,-129 413.97,-129 413.97,-110 533.97,-110 533.97,-129"/>
<text text-anchor="middle" x="473.97" y="-117" font-family="Helvetica,sans-Serif" font-size="10.00">hardware/regs/dreq.h</text>
</a>
</g>
</g>
<!-- Node5&#45;&gt;Node12 -->
<g id="edge14_Node000005_Node000012" class="edge">
<title>Node5&#45;&gt;Node12</title>
<g id="a_edge14_Node000005_Node000012"><a xlink:title=" ">
<path fill="none" stroke="#63b8ff" d="M473.97,-164.75C473.97,-157.8 473.97,-147.85 473.97,-139.13"/>
<polygon fill="#63b8ff" stroke="#63b8ff" points="477.47,-139.09 473.97,-129.09 470.47,-139.09 477.47,-139.09"/>
</a>
</g>
</g>
<!-- Node5&#45;&gt;Node13 -->
<g id="edge15_Node000005_Node000013" class="edge">
<title>Node5&#45;&gt;Node13</title>
<g id="a_edge15_Node000005_Node000013"><a xlink:title=" ">
<path fill="none" stroke="#63b8ff" d="M430.92,-164.98C384.27,-155.76 309.77,-141.03 259.42,-131.07"/>
<polygon fill="#63b8ff" stroke="#63b8ff" points="259.86,-127.59 249.37,-129.08 258.5,-134.46 259.86,-127.59"/>
</a>
</g>
</g>
<!-- Node6&#45;&gt;Node3 -->
<g id="edge7_Node000006_Node000003" class="edge">
<title>Node6&#45;&gt;Node3</title>
<g id="a_edge7_Node000006_Node000003"><a xlink:title=" ">
<path fill="none" stroke="#63b8ff" d="M744.05,-109.98C650.55,-98.43 487.2,-78.25 417.27,-69.61"/>
<polygon fill="#63b8ff" stroke="#63b8ff" points="417.62,-66.13 407.27,-68.38 416.76,-73.08 417.62,-66.13"/>
</a>
</g>
</g>
<!-- Node7 -->
<g id="Node000007" class="node">
<title>Node7</title>
<g id="a_Node000007"><a xlink:title=" ">
<polygon fill="#e0e0e0" stroke="#999999" points="1067.97,-74 909.97,-74 909.97,-55 1067.97,-55 1067.97,-74"/>
<text text-anchor="middle" x="988.97" y="-62" font-family="Helvetica,sans-Serif" font-size="10.00">hardware/regs/addressmap.h</text>
</a>
</g>
</g>
<!-- Node6&#45;&gt;Node7 -->
<g id="edge8_Node000006_Node000007" class="edge">
<title>Node6&#45;&gt;Node7</title>
<g id="a_edge8_Node000006_Node000007"><a xlink:title=" ">
<path fill="none" stroke="#63b8ff" d="M841.25,-109.98C870.93,-101.05 917.76,-86.94 950.72,-77.02"/>
<polygon fill="#63b8ff" stroke="#63b8ff" points="951.91,-80.32 960.48,-74.08 949.89,-73.61 951.91,-80.32"/>
</a>
</g>
</g>
<!-- Node8 -->
<g id="Node000008" class="node">
<title>Node8</title>
<g id="a_Node000008"><a xlink:href="hardware__structs_2include_2hardware_2structs_2accessctrl_8h.html" target="_top" xlink:title=" ">
<polygon fill="white" stroke="#666666" points="892.47,-74 733.47,-74 733.47,-55 892.47,-55 892.47,-74"/>
<text text-anchor="middle" x="812.97" y="-62" font-family="Helvetica,sans-Serif" font-size="10.00">hardware/structs/accessctrl.h</text>
</a>
</g>
</g>
<!-- Node6&#45;&gt;Node8 -->
<g id="edge9_Node000006_Node000008" class="edge">
<title>Node6&#45;&gt;Node8</title>
<g id="a_edge9_Node000006_Node000008"><a xlink:title=" ">
<path fill="none" stroke="#63b8ff" d="M807.81,-109.75C806.31,-102.8 805.88,-92.85 806.5,-84.13"/>
<polygon fill="#63b8ff" stroke="#63b8ff" points="809.98,-84.47 807.84,-74.09 803.04,-83.53 809.98,-84.47"/>
</a>
</g>
</g>
<!-- Node8&#45;&gt;Node6 -->
<g id="edge10_Node000008_Node000006" class="edge">
<title>Node8&#45;&gt;Node6</title>
<g id="a_edge10_Node000008_Node000006"><a xlink:title=" ">
<path fill="none" stroke="#63b8ff" d="M818.11,-74.09C819.61,-80.99 820.07,-90.93 819.47,-99.66"/>
<polygon fill="#63b8ff" stroke="#63b8ff" points="815.97,-99.38 818.14,-109.75 822.91,-100.29 815.97,-99.38"/>
</a>
</g>
</g>
<!-- Node9 -->
<g id="Node000009" class="node">
<title>Node9</title>
<g id="a_Node000009"><a xlink:href="hardware__regs_2include_2hardware_2regs_2accessctrl_8h.html" target="_top" xlink:title=" ">
<polygon fill="white" stroke="#666666" points="886.47,-19 739.47,-19 739.47,0 886.47,0 886.47,-19"/>
<text text-anchor="middle" x="812.97" y="-7" font-family="Helvetica,sans-Serif" font-size="10.00">hardware/regs/accessctrl.h</text>
</a>
</g>
</g>
<!-- Node8&#45;&gt;Node9 -->
<g id="edge11_Node000008_Node000009" class="edge">
<title>Node8&#45;&gt;Node9</title>
<g id="a_edge11_Node000008_Node000009"><a xlink:title=" ">
<path fill="none" stroke="#63b8ff" d="M812.97,-54.75C812.97,-47.8 812.97,-37.85 812.97,-29.13"/>
<polygon fill="#63b8ff" stroke="#63b8ff" points="816.47,-29.09 812.97,-19.09 809.47,-29.09 816.47,-29.09"/>
</a>
</g>
</g>
<!-- Node13&#45;&gt;Node3 -->
<g id="edge16_Node000013_Node000003" class="edge">
<title>Node13&#45;&gt;Node3</title>
<g id="a_edge16_Node000013_Node000003"><a xlink:title=" ">
<path fill="none" stroke="#63b8ff" d="M234.57,-109.98C266.37,-100.52 317.64,-85.25 351.07,-75.3"/>
<polygon fill="#63b8ff" stroke="#63b8ff" points="352.25,-78.6 360.83,-72.39 350.25,-71.89 352.25,-78.6"/>
</a>
</g>
</g>
</g>
</svg>
