<?xml version="1.0" encoding="UTF-8" standalone="no"?>
<!DOCTYPE svg PUBLIC "-//W3C//DTD SVG 1.1//EN"
 "http://www.w3.org/Graphics/SVG/1.1/DTD/svg11.dtd">
<!-- Generated by graphviz version 2.43.0 (0)
 -->
<!-- Title: pio_disassembler.h Pages: 1 -->
<svg width="702pt" height="82pt"
 viewBox="0.00 0.00 701.50 82.00" xmlns="http://www.w3.org/2000/svg" xmlns:xlink="http://www.w3.org/1999/xlink">
<g id="graph0" class="graph" transform="scale(1 1) rotate(0) translate(4 78)">
<title>pio_disassembler.h</title>
<!-- Node1 -->
<g id="Node000001" class="node">
<title>Node1</title>
<g id="a_Node000001"><a xlink:title=" ">
<polygon fill="#999999" stroke="#666666" points="382.5,-74 271.5,-74 271.5,-55 382.5,-55 382.5,-74"/>
<text text-anchor="middle" x="327" y="-62" font-family="Helvetica,sans-Serif" font-size="10.00">pio_disassembler.h</text>
</a>
</g>
</g>
<!-- Node2 -->
<g id="Node000002" class="node">
<title>Node2</title>
<g id="a_Node000002"><a xlink:href="ada__output_8cpp.html" target="_top" xlink:title=" ">
<polygon fill="white" stroke="#666666" points="92,-19 0,-19 0,0 92,0 92,-19"/>
<text text-anchor="middle" x="46" y="-7" font-family="Helvetica,sans-Serif" font-size="10.00">ada_output.cpp</text>
</a>
</g>
</g>
<!-- Node1&#45;&gt;Node2 -->
<g id="edge1_Node000001_Node000002" class="edge">
<title>Node1&#45;&gt;Node2</title>
<g id="a_edge1_Node000001_Node000002"><a xlink:title=" ">
<path fill="none" stroke="#63b8ff" d="M272,-53.13C219.32,-43.19 140.76,-28.37 91.5,-19.08"/>
<polygon fill="#63b8ff" stroke="#63b8ff" points="271.38,-56.57 281.85,-54.98 272.67,-49.69 271.38,-56.57"/>
</a>
</g>
</g>
<!-- Node3 -->
<g id="Node000003" class="node">
<title>Node3</title>
<g id="a_Node000003"><a xlink:href="c__sdk__output_8cpp.html" target="_top" xlink:title=" ">
<polygon fill="white" stroke="#666666" points="211.5,-19 110.5,-19 110.5,0 211.5,0 211.5,-19"/>
<text text-anchor="middle" x="161" y="-7" font-family="Helvetica,sans-Serif" font-size="10.00">c_sdk_output.cpp</text>
</a>
</g>
</g>
<!-- Node1&#45;&gt;Node3 -->
<g id="edge2_Node000001_Node000003" class="edge">
<title>Node1&#45;&gt;Node3</title>
<g id="a_edge2_Node000001_Node000003"><a xlink:title=" ">
<path fill="none" stroke="#63b8ff" d="M290.75,-51.93C259.75,-42.03 215.83,-28.01 187.88,-19.08"/>
<polygon fill="#63b8ff" stroke="#63b8ff" points="289.74,-55.28 300.33,-54.98 291.87,-48.61 289.74,-55.28"/>
</a>
</g>
</g>
<!-- Node4 -->
<g id="Node000004" class="node">
<title>Node4</title>
<g id="a_Node000004"><a xlink:href="go__output_8cpp.html" target="_top" xlink:title=" ">
<polygon fill="white" stroke="#666666" points="316,-19 230,-19 230,0 316,0 316,-19"/>
<text text-anchor="middle" x="273" y="-7" font-family="Helvetica,sans-Serif" font-size="10.00">go_output.cpp</text>
</a>
</g>
</g>
<!-- Node1&#45;&gt;Node4 -->
<g id="edge3_Node000001_Node000004" class="edge">
<title>Node1&#45;&gt;Node4</title>
<g id="a_edge3_Node000001_Node000004"><a xlink:title=" ">
<path fill="none" stroke="#63b8ff" d="M310.72,-47.52C301.2,-38.18 289.56,-26.75 281.75,-19.09"/>
<polygon fill="#63b8ff" stroke="#63b8ff" points="308.49,-50.24 318.08,-54.75 313.4,-45.25 308.49,-50.24"/>
</a>
</g>
</g>
<!-- Node5 -->
<g id="Node000005" class="node">
<title>Node5</title>
<g id="a_Node000005"><a xlink:href="json__output_8cpp.html" target="_top" xlink:title=" ">
<polygon fill="white" stroke="#666666" points="428,-19 334,-19 334,0 428,0 428,-19"/>
<text text-anchor="middle" x="381" y="-7" font-family="Helvetica,sans-Serif" font-size="10.00">json_output.cpp</text>
</a>
</g>
</g>
<!-- Node1&#45;&gt;Node5 -->
<g id="edge4_Node000001_Node000005" class="edge">
<title>Node1&#45;&gt;Node5</title>
<g id="a_edge4_Node000001_Node000005"><a xlink:title=" ">
<path fill="none" stroke="#63b8ff" d="M343.28,-47.52C352.8,-38.18 364.44,-26.75 372.25,-19.09"/>
<polygon fill="#63b8ff" stroke="#63b8ff" points="340.6,-45.25 335.92,-54.75 345.51,-50.24 340.6,-45.25"/>
</a>
</g>
</g>
<!-- Node6 -->
<g id="Node000006" class="node">
<title>Node6</title>
<g id="a_Node000006"><a xlink:href="pio__disassembler_8cpp.html" target="_top" xlink:title=" ">
<polygon fill="white" stroke="#666666" points="568,-19 446,-19 446,0 568,0 568,-19"/>
<text text-anchor="middle" x="507" y="-7" font-family="Helvetica,sans-Serif" font-size="10.00">pio_disassembler.cpp</text>
</a>
</g>
</g>
<!-- Node1&#45;&gt;Node6 -->
<g id="edge5_Node000001_Node000006" class="edge">
<title>Node1&#45;&gt;Node6</title>
<g id="a_edge5_Node000001_Node000006"><a xlink:title=" ">
<path fill="none" stroke="#63b8ff" d="M365.87,-52.06C399.51,-42.15 447.42,-28.04 477.85,-19.08"/>
<polygon fill="#63b8ff" stroke="#63b8ff" points="364.52,-48.8 355.92,-54.98 366.5,-55.52 364.52,-48.8"/>
</a>
</g>
</g>
<!-- Node7 -->
<g id="Node000007" class="node">
<title>Node7</title>
<g id="a_Node000007"><a xlink:href="python__output_8cpp.html" target="_top" xlink:title=" ">
<polygon fill="white" stroke="#666666" points="693.5,-19 586.5,-19 586.5,0 693.5,0 693.5,-19"/>
<text text-anchor="middle" x="640" y="-7" font-family="Helvetica,sans-Serif" font-size="10.00">python_output.cpp</text>
</a>
</g>
</g>
<!-- Node1&#45;&gt;Node7 -->
<g id="edge6_Node000001_Node000007" class="edge">
<title>Node1&#45;&gt;Node7</title>
<g id="a_edge6_Node000001_Node000007"><a xlink:title=" ">
<path fill="none" stroke="#63b8ff" d="M387.18,-53.31C445.96,-43.36 534.39,-28.38 589.58,-19.04"/>
<polygon fill="#63b8ff" stroke="#63b8ff" points="386.56,-49.86 377.29,-54.98 387.73,-56.77 386.56,-49.86"/>
</a>
</g>
</g>
</g>
</svg>
