<?xml version="1.0" encoding="UTF-8" standalone="no"?>
<!DOCTYPE svg PUBLIC "-//W3C//DTD SVG 1.1//EN"
 "http://www.w3.org/Graphics/SVG/1.1/DTD/svg11.dtd">
<!-- Generated by graphviz version 2.43.0 (0)
 -->
<!-- Title: powman.c Pages: 1 -->
<svg width="666pt" height="302pt"
 viewBox="0.00 0.00 665.50 302.00" xmlns="http://www.w3.org/2000/svg" xmlns:xlink="http://www.w3.org/1999/xlink">
<g id="graph0" class="graph" transform="scale(1 1) rotate(0) translate(4 298)">
<title>powman.c</title>
<!-- Node1 -->
<g id="Node000001" class="node">
<title>Node1</title>
<g id="a_Node000001"><a xlink:title=" ">
<polygon fill="#999999" stroke="#666666" points="236,-294 169,-294 169,-275 236,-275 236,-294"/>
<text text-anchor="middle" x="202.5" y="-282" font-family="Helvetica,sans-Serif" font-size="10.00">powman.c</text>
</a>
</g>
</g>
<!-- Node2 -->
<g id="Node000002" class="node">
<title>Node2</title>
<g id="a_Node000002"><a xlink:title=" ">
<polygon fill="#e0e0e0" stroke="#999999" points="53,-239 0,-239 0,-220 53,-220 53,-239"/>
<text text-anchor="middle" x="26.5" y="-227" font-family="Helvetica,sans-Serif" font-size="10.00">stdint.h</text>
</a>
</g>
</g>
<!-- Node1&#45;&gt;Node2 -->
<g id="edge1_Node000001_Node000002" class="edge">
<title>Node1&#45;&gt;Node2</title>
<g id="a_edge1_Node000001_Node000002"><a xlink:title=" ">
<path fill="none" stroke="#63b8ff" d="M174.22,-274.98C144.02,-265.89 96.04,-251.44 63,-241.49"/>
<polygon fill="#63b8ff" stroke="#63b8ff" points="63.85,-238.09 53.26,-238.56 61.83,-244.79 63.85,-238.09"/>
</a>
</g>
</g>
<!-- Node3 -->
<g id="Node000003" class="node">
<title>Node3</title>
<g id="a_Node000003"><a xlink:title=" ">
<polygon fill="#e0e0e0" stroke="#999999" points="121.5,-239 71.5,-239 71.5,-220 121.5,-220 121.5,-239"/>
<text text-anchor="middle" x="96.5" y="-227" font-family="Helvetica,sans-Serif" font-size="10.00">stdio.h</text>
</a>
</g>
</g>
<!-- Node1&#45;&gt;Node3 -->
<g id="edge2_Node000001_Node000003" class="edge">
<title>Node1&#45;&gt;Node3</title>
<g id="a_edge2_Node000001_Node000003"><a xlink:title=" ">
<path fill="none" stroke="#63b8ff" d="M185.47,-274.98C168.57,-266.54 142.44,-253.47 122.86,-243.68"/>
<polygon fill="#63b8ff" stroke="#63b8ff" points="124.35,-240.51 113.84,-239.17 121.22,-246.77 124.35,-240.51"/>
</a>
</g>
</g>
<!-- Node4 -->
<g id="Node000004" class="node">
<title>Node4</title>
<g id="a_Node000004"><a xlink:title=" ">
<polygon fill="#e0e0e0" stroke="#999999" points="205,-239 140,-239 140,-220 205,-220 205,-239"/>
<text text-anchor="middle" x="172.5" y="-227" font-family="Helvetica,sans-Serif" font-size="10.00">inttypes.h</text>
</a>
</g>
</g>
<!-- Node1&#45;&gt;Node4 -->
<g id="edge3_Node000001_Node000004" class="edge">
<title>Node1&#45;&gt;Node4</title>
<g id="a_edge3_Node000001_Node000004"><a xlink:title=" ">
<path fill="none" stroke="#63b8ff" d="M197.55,-274.75C193.44,-267.49 187.47,-256.95 182.4,-247.98"/>
<polygon fill="#63b8ff" stroke="#63b8ff" points="185.33,-246.07 177.36,-239.09 179.24,-249.52 185.33,-246.07"/>
</a>
</g>
</g>
<!-- Node5 -->
<g id="Node000005" class="node">
<title>Node5</title>
<g id="a_Node000005"><a xlink:title=" ">
<polygon fill="#e0e0e0" stroke="#999999" points="296.5,-74 250.5,-74 250.5,-55 296.5,-55 296.5,-74"/>
<text text-anchor="middle" x="273.5" y="-62" font-family="Helvetica,sans-Serif" font-size="10.00">pico.h</text>
</a>
</g>
</g>
<!-- Node1&#45;&gt;Node5 -->
<g id="edge4_Node000001_Node000005" class="edge">
<title>Node1&#45;&gt;Node5</title>
<g id="a_edge4_Node000001_Node000005"><a xlink:title=" ">
<path fill="none" stroke="#63b8ff" d="M205.28,-274.95C215.75,-242.81 252.91,-128.72 267.53,-83.83"/>
<polygon fill="#63b8ff" stroke="#63b8ff" points="270.89,-84.82 270.66,-74.22 264.23,-82.65 270.89,-84.82"/>
</a>
</g>
</g>
<!-- Node6 -->
<g id="Node000006" class="node">
<title>Node6</title>
<g id="a_Node000006"><a xlink:title=" ">
<polygon fill="#e0e0e0" stroke="#999999" points="357,-239 262,-239 262,-220 357,-220 357,-239"/>
<text text-anchor="middle" x="309.5" y="-227" font-family="Helvetica,sans-Serif" font-size="10.00">hardware/gpio.h</text>
</a>
</g>
</g>
<!-- Node1&#45;&gt;Node6 -->
<g id="edge5_Node000001_Node000006" class="edge">
<title>Node1&#45;&gt;Node6</title>
<g id="a_edge5_Node000001_Node000006"><a xlink:title=" ">
<path fill="none" stroke="#63b8ff" d="M219.69,-274.98C236.75,-266.54 263.13,-253.47 282.9,-243.68"/>
<polygon fill="#63b8ff" stroke="#63b8ff" points="284.59,-246.75 292,-239.17 281.48,-240.47 284.59,-246.75"/>
</a>
</g>
</g>
<!-- Node7 -->
<g id="Node000007" class="node">
<title>Node7</title>
<g id="a_Node000007"><a xlink:href="rp2__common_2hardware__powman_2include_2hardware_2powman_8h.html" target="_top" xlink:title=" ">
<polygon fill="white" stroke="#666666" points="491.5,-239 375.5,-239 375.5,-220 491.5,-220 491.5,-239"/>
<text text-anchor="middle" x="433.5" y="-227" font-family="Helvetica,sans-Serif" font-size="10.00">hardware/powman.h</text>
</a>
</g>
</g>
<!-- Node1&#45;&gt;Node7 -->
<g id="edge6_Node000001_Node000007" class="edge">
<title>Node1&#45;&gt;Node7</title>
<g id="a_edge6_Node000001_Node000007"><a xlink:title=" ">
<path fill="none" stroke="#63b8ff" d="M236.09,-275.79C275.76,-266.69 341.99,-251.5 386.68,-241.24"/>
<polygon fill="#63b8ff" stroke="#63b8ff" points="387.46,-244.65 396.43,-239.01 385.9,-237.83 387.46,-244.65"/>
</a>
</g>
</g>
<!-- Node7&#45;&gt;Node5 -->
<g id="edge7_Node000007_Node000005" class="edge">
<title>Node7&#45;&gt;Node5</title>
<g id="a_edge7_Node000007_Node000005"><a xlink:title=" ">
<path fill="none" stroke="#63b8ff" d="M409.44,-219.89C391.17,-212.47 366.26,-200.36 348.5,-184 316.54,-154.55 292.68,-108.56 281.17,-83.41"/>
<polygon fill="#63b8ff" stroke="#63b8ff" points="284.26,-81.74 277,-74.02 277.86,-84.58 284.26,-81.74"/>
</a>
</g>
</g>
<!-- Node8 -->
<g id="Node000008" class="node">
<title>Node8</title>
<g id="a_Node000008"><a xlink:href="rp2350_2hardware__structs_2include_2hardware_2structs_2powman_8h.html" target="_top" xlink:title=" ">
<polygon fill="white" stroke="#666666" points="509.5,-184 357.5,-184 357.5,-165 509.5,-165 509.5,-184"/>
<text text-anchor="middle" x="433.5" y="-172" font-family="Helvetica,sans-Serif" font-size="10.00">hardware/structs/powman.h</text>
</a>
</g>
</g>
<!-- Node7&#45;&gt;Node8 -->
<g id="edge8_Node000007_Node000008" class="edge">
<title>Node7&#45;&gt;Node8</title>
<g id="a_edge8_Node000007_Node000008"><a xlink:title=" ">
<path fill="none" stroke="#63b8ff" d="M433.5,-219.75C433.5,-212.8 433.5,-202.85 433.5,-194.13"/>
<polygon fill="#63b8ff" stroke="#63b8ff" points="437,-194.09 433.5,-184.09 430,-194.09 437,-194.09"/>
</a>
</g>
</g>
<!-- Node9 -->
<g id="Node000009" class="node">
<title>Node9</title>
<g id="a_Node000009"><a xlink:href="address__mapped_8h.html" target="_top" xlink:title=" ">
<polygon fill="white" stroke="#666666" points="499.5,-129 341.5,-129 341.5,-110 499.5,-110 499.5,-129"/>
<text text-anchor="middle" x="420.5" y="-117" font-family="Helvetica,sans-Serif" font-size="10.00">hardware/address_mapped.h</text>
</a>
</g>
</g>
<!-- Node8&#45;&gt;Node9 -->
<g id="edge9_Node000008_Node000009" class="edge">
<title>Node8&#45;&gt;Node9</title>
<g id="a_edge9_Node000008_Node000009"><a xlink:title=" ">
<path fill="none" stroke="#63b8ff" d="M431.35,-164.75C429.63,-157.72 427.15,-147.62 425,-138.84"/>
<polygon fill="#63b8ff" stroke="#63b8ff" points="428.39,-137.97 422.61,-129.09 421.59,-139.63 428.39,-137.97"/>
</a>
</g>
</g>
<!-- Node13 -->
<g id="Node000013" class="node">
<title>Node13</title>
<g id="a_Node000013"><a xlink:href="rp2350_2hardware__regs_2include_2hardware_2regs_2powman_8h.html" target="_top" xlink:title=" ">
<polygon fill="white" stroke="#666666" points="657.5,-129 517.5,-129 517.5,-110 657.5,-110 657.5,-129"/>
<text text-anchor="middle" x="587.5" y="-117" font-family="Helvetica,sans-Serif" font-size="10.00">hardware/regs/powman.h</text>
</a>
</g>
</g>
<!-- Node8&#45;&gt;Node13 -->
<g id="edge15_Node000008_Node000013" class="edge">
<title>Node8&#45;&gt;Node13</title>
<g id="a_edge15_Node000008_Node000013"><a xlink:title=" ">
<path fill="none" stroke="#63b8ff" d="M458.24,-164.98C483.87,-156.16 524.13,-142.31 552.91,-132.41"/>
<polygon fill="#63b8ff" stroke="#63b8ff" points="554.25,-135.65 562.56,-129.08 551.97,-129.03 554.25,-135.65"/>
</a>
</g>
</g>
<!-- Node9&#45;&gt;Node5 -->
<g id="edge10_Node000009_Node000005" class="edge">
<title>Node9&#45;&gt;Node5</title>
<g id="a_edge10_Node000009_Node000005"><a xlink:title=" ">
<path fill="none" stroke="#63b8ff" d="M396.88,-109.98C372.31,-101.12 333.64,-87.18 306.15,-77.27"/>
<polygon fill="#63b8ff" stroke="#63b8ff" points="307.17,-73.92 296.57,-73.82 304.79,-80.5 307.17,-73.92"/>
</a>
</g>
</g>
<!-- Node10 -->
<g id="Node000010" class="node">
<title>Node10</title>
<g id="a_Node000010"><a xlink:title=" ">
<polygon fill="#e0e0e0" stroke="#999999" points="472.5,-74 314.5,-74 314.5,-55 472.5,-55 472.5,-74"/>
<text text-anchor="middle" x="393.5" y="-62" font-family="Helvetica,sans-Serif" font-size="10.00">hardware/regs/addressmap.h</text>
</a>
</g>
</g>
<!-- Node9&#45;&gt;Node10 -->
<g id="edge11_Node000009_Node000010" class="edge">
<title>Node9&#45;&gt;Node10</title>
<g id="a_edge11_Node000009_Node000010"><a xlink:title=" ">
<path fill="none" stroke="#63b8ff" d="M416.04,-109.75C412.38,-102.57 407.09,-92.18 402.55,-83.27"/>
<polygon fill="#63b8ff" stroke="#63b8ff" points="405.53,-81.41 397.88,-74.09 399.3,-84.59 405.53,-81.41"/>
</a>
</g>
</g>
<!-- Node11 -->
<g id="Node000011" class="node">
<title>Node11</title>
<g id="a_Node000011"><a xlink:href="hardware__structs_2include_2hardware_2structs_2accessctrl_8h.html" target="_top" xlink:title=" ">
<polygon fill="white" stroke="#666666" points="649,-74 490,-74 490,-55 649,-55 649,-74"/>
<text text-anchor="middle" x="569.5" y="-62" font-family="Helvetica,sans-Serif" font-size="10.00">hardware/structs/accessctrl.h</text>
</a>
</g>
</g>
<!-- Node9&#45;&gt;Node11 -->
<g id="edge12_Node000009_Node000011" class="edge">
<title>Node9&#45;&gt;Node11</title>
<g id="a_edge12_Node000009_Node000011"><a xlink:title=" ">
<path fill="none" stroke="#63b8ff" d="M439.32,-109.98C462.28,-101.13 501.26,-87.19 530.67,-77.28"/>
<polygon fill="#63b8ff" stroke="#63b8ff" points="531.87,-80.57 540.24,-74.08 529.65,-73.93 531.87,-80.57"/>
</a>
</g>
</g>
<!-- Node11&#45;&gt;Node9 -->
<g id="edge13_Node000011_Node000009" class="edge">
<title>Node11&#45;&gt;Node9</title>
<g id="a_edge13_Node000011_Node000009"><a xlink:title=" ">
<path fill="none" stroke="#63b8ff" d="M550.27,-74.17C527.2,-83.06 488.35,-96.95 459.08,-106.81"/>
<polygon fill="#63b8ff" stroke="#63b8ff" points="457.93,-103.5 449.55,-109.98 460.15,-110.14 457.93,-103.5"/>
</a>
</g>
</g>
<!-- Node12 -->
<g id="Node000012" class="node">
<title>Node12</title>
<g id="a_Node000012"><a xlink:href="hardware__regs_2include_2hardware_2regs_2accessctrl_8h.html" target="_top" xlink:title=" ">
<polygon fill="white" stroke="#666666" points="643,-19 496,-19 496,0 643,0 643,-19"/>
<text text-anchor="middle" x="569.5" y="-7" font-family="Helvetica,sans-Serif" font-size="10.00">hardware/regs/accessctrl.h</text>
</a>
</g>
</g>
<!-- Node11&#45;&gt;Node12 -->
<g id="edge14_Node000011_Node000012" class="edge">
<title>Node11&#45;&gt;Node12</title>
<g id="a_edge14_Node000011_Node000012"><a xlink:title=" ">
<path fill="none" stroke="#63b8ff" d="M569.5,-54.75C569.5,-47.8 569.5,-37.85 569.5,-29.13"/>
<polygon fill="#63b8ff" stroke="#63b8ff" points="573,-29.09 569.5,-19.09 566,-29.09 573,-29.09"/>
</a>
</g>
</g>
</g>
</svg>
