<?xml version="1.0" encoding="UTF-8" standalone="no"?>
<!DOCTYPE svg PUBLIC "-//W3C//DTD SVG 1.1//EN"
 "http://www.w3.org/Graphics/SVG/1.1/DTD/svg11.dtd">
<!-- Generated by graphviz version 2.43.0 (0)
 -->
<!-- Title: printf.c Pages: 1 -->
<svg width="546pt" height="137pt"
 viewBox="0.00 0.00 545.50 137.00" xmlns="http://www.w3.org/2000/svg" xmlns:xlink="http://www.w3.org/1999/xlink">
<g id="graph0" class="graph" transform="scale(1 1) rotate(0) translate(4 133)">
<title>printf.c</title>
<!-- Node1 -->
<g id="Node000001" class="node">
<title>Node1</title>
<g id="a_Node000001"><a xlink:title=" ">
<polygon fill="#999999" stroke="#666666" points="219,-129 169,-129 169,-110 219,-110 219,-129"/>
<text text-anchor="middle" x="194" y="-117" font-family="Helvetica,sans-Serif" font-size="10.00">printf.c</text>
</a>
</g>
</g>
<!-- Node2 -->
<g id="Node000002" class="node">
<title>Node2</title>
<g id="a_Node000002"><a xlink:title=" ">
<polygon fill="#e0e0e0" stroke="#999999" points="62,-74 0,-74 0,-55 62,-55 62,-74"/>
<text text-anchor="middle" x="31" y="-62" font-family="Helvetica,sans-Serif" font-size="10.00">stdbool.h</text>
</a>
</g>
</g>
<!-- Node1&#45;&gt;Node2 -->
<g id="edge1_Node000001_Node000002" class="edge">
<title>Node1&#45;&gt;Node2</title>
<g id="a_edge1_Node000001_Node000002"><a xlink:title=" ">
<path fill="none" stroke="#63b8ff" d="M168.89,-110.33C141.57,-101.45 97.68,-87.18 66.76,-77.13"/>
<polygon fill="#63b8ff" stroke="#63b8ff" points="67.81,-73.79 57.22,-74.03 65.65,-80.45 67.81,-73.79"/>
</a>
</g>
</g>
<!-- Node3 -->
<g id="Node000003" class="node">
<title>Node3</title>
<g id="a_Node000003"><a xlink:title=" ">
<polygon fill="#e0e0e0" stroke="#999999" points="133.5,-74 80.5,-74 80.5,-55 133.5,-55 133.5,-74"/>
<text text-anchor="middle" x="107" y="-62" font-family="Helvetica,sans-Serif" font-size="10.00">stdint.h</text>
</a>
</g>
</g>
<!-- Node1&#45;&gt;Node3 -->
<g id="edge2_Node000001_Node000003" class="edge">
<title>Node1&#45;&gt;Node3</title>
<g id="a_edge2_Node000001_Node000003"><a xlink:title=" ">
<path fill="none" stroke="#63b8ff" d="M180.02,-109.98C166.53,-101.77 145.87,-89.18 129.96,-79.49"/>
<polygon fill="#63b8ff" stroke="#63b8ff" points="131.59,-76.38 121.23,-74.17 127.95,-82.36 131.59,-76.38"/>
</a>
</g>
</g>
<!-- Node4 -->
<g id="Node000004" class="node">
<title>Node4</title>
<g id="a_Node000004"><a xlink:title=" ">
<polygon fill="#e0e0e0" stroke="#999999" points="180,-19 130,-19 130,0 180,0 180,-19"/>
<text text-anchor="middle" x="155" y="-7" font-family="Helvetica,sans-Serif" font-size="10.00">stdio.h</text>
</a>
</g>
</g>
<!-- Node1&#45;&gt;Node4 -->
<g id="edge3_Node000001_Node000004" class="edge">
<title>Node1&#45;&gt;Node4</title>
<g id="a_edge3_Node000001_Node000004"><a xlink:title=" ">
<path fill="none" stroke="#63b8ff" d="M190.81,-109.66C184.43,-92.01 170.02,-52.09 161.55,-28.64"/>
<polygon fill="#63b8ff" stroke="#63b8ff" points="164.82,-27.38 158.13,-19.16 158.23,-29.75 164.82,-27.38"/>
</a>
</g>
</g>
<!-- Node5 -->
<g id="Node000005" class="node">
<title>Node5</title>
<g id="a_Node000005"><a xlink:title=" ">
<polygon fill="#e0e0e0" stroke="#999999" points="318,-19 272,-19 272,0 318,0 318,-19"/>
<text text-anchor="middle" x="295" y="-7" font-family="Helvetica,sans-Serif" font-size="10.00">pico.h</text>
</a>
</g>
</g>
<!-- Node1&#45;&gt;Node5 -->
<g id="edge4_Node000001_Node000005" class="edge">
<title>Node1&#45;&gt;Node5</title>
<g id="a_edge4_Node000001_Node000005"><a xlink:title=" ">
<path fill="none" stroke="#63b8ff" d="M218.89,-109.94C236.25,-102.81 258.78,-91.04 273,-74 283.63,-61.27 289.24,-43.09 292.13,-29.44"/>
<polygon fill="#63b8ff" stroke="#63b8ff" points="295.63,-29.73 293.96,-19.26 288.74,-28.49 295.63,-29.73"/>
</a>
</g>
</g>
<!-- Node6 -->
<g id="Node000006" class="node">
<title>Node6</title>
<g id="a_Node000006"><a xlink:href="printf_8h.html" target="_top" xlink:title=" ">
<polygon fill="white" stroke="#666666" points="264,-74 190,-74 190,-55 264,-55 264,-74"/>
<text text-anchor="middle" x="227" y="-62" font-family="Helvetica,sans-Serif" font-size="10.00">pico/printf.h</text>
</a>
</g>
</g>
<!-- Node1&#45;&gt;Node6 -->
<g id="edge5_Node000001_Node000006" class="edge">
<title>Node1&#45;&gt;Node6</title>
<g id="a_edge5_Node000001_Node000006"><a xlink:title=" ">
<path fill="none" stroke="#63b8ff" d="M199.45,-109.75C204.01,-102.42 210.67,-91.73 216.29,-82.7"/>
<polygon fill="#63b8ff" stroke="#63b8ff" points="219.34,-84.43 221.65,-74.09 213.4,-80.73 219.34,-84.43"/>
</a>
</g>
</g>
<!-- Node8 -->
<g id="Node000008" class="node">
<title>Node8</title>
<g id="a_Node000008"><a xlink:href="float_8h.html" target="_top" xlink:title=" ">
<polygon fill="white" stroke="#666666" points="399,-74 351,-74 351,-55 399,-55 399,-74"/>
<text text-anchor="middle" x="375" y="-62" font-family="Helvetica,sans-Serif" font-size="10.00">float.h</text>
</a>
</g>
</g>
<!-- Node1&#45;&gt;Node8 -->
<g id="edge9_Node000001_Node000008" class="edge">
<title>Node1&#45;&gt;Node8</title>
<g id="a_edge9_Node000001_Node000008"><a xlink:title=" ">
<path fill="none" stroke="#63b8ff" d="M219.17,-111.13C250.91,-101.84 305.6,-85.82 341.03,-75.45"/>
<polygon fill="#63b8ff" stroke="#63b8ff" points="342.3,-78.72 350.91,-72.55 340.33,-72 342.3,-78.72"/>
</a>
</g>
</g>
<!-- Node6&#45;&gt;Node4 -->
<g id="edge7_Node000006_Node000004" class="edge">
<title>Node6&#45;&gt;Node4</title>
<g id="a_edge7_Node000006_Node000004"><a xlink:title=" ">
<path fill="none" stroke="#63b8ff" d="M215.43,-54.98C204.58,-47 188.12,-34.88 175.12,-25.31"/>
<polygon fill="#63b8ff" stroke="#63b8ff" points="176.91,-22.28 166.78,-19.17 172.76,-27.92 176.91,-22.28"/>
</a>
</g>
</g>
<!-- Node6&#45;&gt;Node5 -->
<g id="edge6_Node000006_Node000005" class="edge">
<title>Node6&#45;&gt;Node5</title>
<g id="a_edge6_Node000006_Node000005"><a xlink:title=" ">
<path fill="none" stroke="#63b8ff" d="M237.93,-54.98C248.08,-47.07 263.42,-35.11 275.65,-25.58"/>
<polygon fill="#63b8ff" stroke="#63b8ff" points="278.14,-28.08 283.88,-19.17 273.84,-22.56 278.14,-28.08"/>
</a>
</g>
</g>
<!-- Node7 -->
<g id="Node000007" class="node">
<title>Node7</title>
<g id="a_Node000007"><a xlink:title=" ">
<polygon fill="#e0e0e0" stroke="#999999" points="254,-19 198,-19 198,0 254,0 254,-19"/>
<text text-anchor="middle" x="226" y="-7" font-family="Helvetica,sans-Serif" font-size="10.00">stdarg.h</text>
</a>
</g>
</g>
<!-- Node6&#45;&gt;Node7 -->
<g id="edge8_Node000006_Node000007" class="edge">
<title>Node6&#45;&gt;Node7</title>
<g id="a_edge8_Node000006_Node000007"><a xlink:title=" ">
<path fill="none" stroke="#63b8ff" d="M226.83,-54.75C226.7,-47.8 226.52,-37.85 226.35,-29.13"/>
<polygon fill="#63b8ff" stroke="#63b8ff" points="229.85,-29.02 226.16,-19.09 222.85,-29.15 229.85,-29.02"/>
</a>
</g>
</g>
<!-- Node8&#45;&gt;Node5 -->
<g id="edge12_Node000008_Node000005" class="edge">
<title>Node8&#45;&gt;Node5</title>
<g id="a_edge12_Node000008_Node000005"><a xlink:title=" ">
<path fill="none" stroke="#63b8ff" d="M362.15,-54.98C349.86,-46.84 331.09,-34.41 316.52,-24.76"/>
<polygon fill="#63b8ff" stroke="#63b8ff" points="318.36,-21.78 308.09,-19.17 314.49,-27.61 318.36,-21.78"/>
</a>
</g>
</g>
<!-- Node8&#45;&gt;Node8 -->
<g id="edge11_Node000008_Node000008" class="edge">
<title>Node8&#45;&gt;Node8</title>
<g id="a_edge11_Node000008_Node000008"><a xlink:title=" ">
<path fill="none" stroke="#63b8ff" d="M394.88,-74.07C406.33,-76.02 417,-72.83 417,-64.5 417,-58.77 411.96,-55.47 405.08,-54.61"/>
<polygon fill="#63b8ff" stroke="#63b8ff" points="404.76,-51.12 394.88,-54.93 404.98,-58.11 404.76,-51.12"/>
</a>
</g>
</g>
<!-- Node9 -->
<g id="Node000009" class="node">
<title>Node9</title>
<g id="a_Node000009"><a xlink:title=" ">
<polygon fill="#e0e0e0" stroke="#999999" points="537.5,-19 486.5,-19 486.5,0 537.5,0 537.5,-19"/>
<text text-anchor="middle" x="512" y="-7" font-family="Helvetica,sans-Serif" font-size="10.00">math.h</text>
</a>
</g>
</g>
<!-- Node8&#45;&gt;Node9 -->
<g id="edge10_Node000008_Node000009" class="edge">
<title>Node8&#45;&gt;Node9</title>
<g id="a_edge10_Node000008_Node000009"><a xlink:title=" ">
<path fill="none" stroke="#63b8ff" d="M397.01,-54.98C419.45,-46.3 454.48,-32.75 479.99,-22.88"/>
<polygon fill="#63b8ff" stroke="#63b8ff" points="481.52,-26.04 489.59,-19.17 479,-19.51 481.52,-26.04"/>
</a>
</g>
</g>
<!-- Node10 -->
<g id="Node000010" class="node">
<title>Node10</title>
<g id="a_Node000010"><a xlink:href="sf__table_8h.html" target="_top" xlink:title=" ">
<polygon fill="white" stroke="#666666" points="468,-19 336,-19 336,0 468,0 468,-19"/>
<text text-anchor="middle" x="402" y="-7" font-family="Helvetica,sans-Serif" font-size="10.00">pico/bootrom/sf_table.h</text>
</a>
</g>
</g>
<!-- Node8&#45;&gt;Node10 -->
<g id="edge13_Node000008_Node000010" class="edge">
<title>Node8&#45;&gt;Node10</title>
<g id="a_edge13_Node000008_Node000010"><a xlink:title=" ">
<path fill="none" stroke="#63b8ff" d="M379.46,-54.75C383.12,-47.57 388.41,-37.18 392.95,-28.27"/>
<polygon fill="#63b8ff" stroke="#63b8ff" points="396.2,-29.59 397.62,-19.09 389.97,-26.41 396.2,-29.59"/>
</a>
</g>
</g>
</g>
</svg>
