<?xml version="1.0" encoding="UTF-8" standalone="no"?>
<!DOCTYPE svg PUBLIC "-//W3C//DTD SVG 1.1//EN"
 "http://www.w3.org/Graphics/SVG/1.1/DTD/svg11.dtd">
<!-- Generated by graphviz version 2.43.0 (0)
 -->
<!-- Title: queue.h Pages: 1 -->
<svg width="279pt" height="192pt"
 viewBox="0.00 0.00 279.14 192.00" xmlns="http://www.w3.org/2000/svg" xmlns:xlink="http://www.w3.org/1999/xlink">
<g id="graph0" class="graph" transform="scale(1 1) rotate(0) translate(4 188)">
<title>queue.h</title>
<!-- Node1 -->
<g id="Node000001" class="node">
<title>Node1</title>
<g id="a_Node000001"><a xlink:title=" ">
<polygon fill="#999999" stroke="#666666" points="93.64,-184 37.64,-184 37.64,-165 93.64,-165 93.64,-184"/>
<text text-anchor="middle" x="65.64" y="-172" font-family="Helvetica,sans-Serif" font-size="10.00">queue.h</text>
</a>
</g>
</g>
<!-- Node2 -->
<g id="Node000002" class="node">
<title>Node2</title>
<g id="a_Node000002"><a xlink:title=" ">
<polygon fill="#e0e0e0" stroke="#999999" points="151.64,-19 105.64,-19 105.64,0 151.64,0 151.64,-19"/>
<text text-anchor="middle" x="128.64" y="-7" font-family="Helvetica,sans-Serif" font-size="10.00">pico.h</text>
</a>
</g>
</g>
<!-- Node1&#45;&gt;Node2 -->
<g id="edge1_Node000001_Node000002" class="edge">
<title>Node1&#45;&gt;Node2</title>
<g id="a_edge1_Node000001_Node000002"><a xlink:title=" ">
<path fill="none" stroke="#63b8ff" d="M55.45,-164.97C32.58,-144.79 -18.83,-92.94 7.64,-55 27.26,-26.88 66.73,-16.48 95.26,-12.66"/>
<polygon fill="#63b8ff" stroke="#63b8ff" points="95.68,-16.14 105.22,-11.53 94.89,-9.18 95.68,-16.14"/>
</a>
</g>
</g>
<!-- Node3 -->
<g id="Node000003" class="node">
<title>Node3</title>
<g id="a_Node000003"><a xlink:title=" ">
<polygon fill="#e0e0e0" stroke="#999999" points="114.14,-74 17.14,-74 17.14,-55 114.14,-55 114.14,-74"/>
<text text-anchor="middle" x="65.64" y="-62" font-family="Helvetica,sans-Serif" font-size="10.00">hardware/sync.h</text>
</a>
</g>
</g>
<!-- Node1&#45;&gt;Node3 -->
<g id="edge2_Node000001_Node000003" class="edge">
<title>Node1&#45;&gt;Node3</title>
<g id="a_edge2_Node000001_Node000003"><a xlink:title=" ">
<path fill="none" stroke="#63b8ff" d="M65.64,-164.66C65.64,-147.17 65.64,-107.8 65.64,-84.27"/>
<polygon fill="#63b8ff" stroke="#63b8ff" points="69.14,-84.16 65.64,-74.16 62.14,-84.16 69.14,-84.16"/>
</a>
</g>
</g>
<!-- Node4 -->
<g id="Node000004" class="node">
<title>Node4</title>
<g id="a_Node000004"><a xlink:href="lock__core_8h.html" target="_top" xlink:title="Base implementation for locking primitives protected by a spin lock.">
<polygon fill="white" stroke="#666666" points="189.14,-129 94.14,-129 94.14,-110 189.14,-110 189.14,-129"/>
<text text-anchor="middle" x="141.64" y="-117" font-family="Helvetica,sans-Serif" font-size="10.00">pico/lock_core.h</text>
</a>
</g>
</g>
<!-- Node1&#45;&gt;Node4 -->
<g id="edge3_Node000001_Node000004" class="edge">
<title>Node1&#45;&gt;Node4</title>
<g id="a_edge3_Node000001_Node000004"><a xlink:title=" ">
<path fill="none" stroke="#63b8ff" d="M77.85,-164.98C89.42,-156.92 107.02,-144.65 120.8,-135.03"/>
<polygon fill="#63b8ff" stroke="#63b8ff" points="123.01,-137.76 129.21,-129.17 119,-132.02 123.01,-137.76"/>
</a>
</g>
</g>
<!-- Node4&#45;&gt;Node2 -->
<g id="edge4_Node000004_Node000002" class="edge">
<title>Node4&#45;&gt;Node2</title>
<g id="a_edge4_Node000004_Node000002"><a xlink:title=" ">
<path fill="none" stroke="#63b8ff" d="M140.58,-109.66C138.47,-92.17 133.73,-52.8 130.9,-29.27"/>
<polygon fill="#63b8ff" stroke="#63b8ff" points="134.35,-28.67 129.68,-19.16 127.4,-29.51 134.35,-28.67"/>
</a>
</g>
</g>
<!-- Node4&#45;&gt;Node3 -->
<g id="edge8_Node000004_Node000003" class="edge">
<title>Node4&#45;&gt;Node3</title>
<g id="a_edge8_Node000004_Node000003"><a xlink:title=" ">
<path fill="none" stroke="#63b8ff" d="M129.43,-109.98C117.87,-101.92 100.27,-89.65 86.48,-80.03"/>
<polygon fill="#63b8ff" stroke="#63b8ff" points="88.28,-77.02 78.07,-74.17 84.28,-82.76 88.28,-77.02"/>
</a>
</g>
</g>
<!-- Node5 -->
<g id="Node000005" class="node">
<title>Node5</title>
<g id="a_Node000005"><a xlink:href="common_2pico__time_2include_2pico_2time_8h.html" target="_top" xlink:title=" ">
<polygon fill="white" stroke="#666666" points="242.14,-74 171.14,-74 171.14,-55 242.14,-55 242.14,-74"/>
<text text-anchor="middle" x="206.64" y="-62" font-family="Helvetica,sans-Serif" font-size="10.00">pico/time.h</text>
</a>
</g>
</g>
<!-- Node4&#45;&gt;Node5 -->
<g id="edge5_Node000004_Node000005" class="edge">
<title>Node4&#45;&gt;Node5</title>
<g id="a_edge5_Node000004_Node000005"><a xlink:title=" ">
<path fill="none" stroke="#63b8ff" d="M152.09,-109.98C161.79,-102.07 176.46,-90.11 188.14,-80.58"/>
<polygon fill="#63b8ff" stroke="#63b8ff" points="190.47,-83.2 196.01,-74.17 186.05,-77.78 190.47,-83.2"/>
</a>
</g>
</g>
<!-- Node5&#45;&gt;Node2 -->
<g id="edge6_Node000005_Node000002" class="edge">
<title>Node5&#45;&gt;Node2</title>
<g id="a_edge6_Node000005_Node000002"><a xlink:title=" ">
<path fill="none" stroke="#63b8ff" d="M194.11,-54.98C182.24,-46.92 164.18,-34.65 150.03,-25.03"/>
<polygon fill="#63b8ff" stroke="#63b8ff" points="151.64,-21.9 141.4,-19.17 147.71,-27.69 151.64,-21.9"/>
</a>
</g>
</g>
<!-- Node6 -->
<g id="Node000006" class="node">
<title>Node6</title>
<g id="a_Node000006"><a xlink:title=" ">
<polygon fill="#e0e0e0" stroke="#999999" points="271.14,-19 170.14,-19 170.14,0 271.14,0 271.14,-19"/>
<text text-anchor="middle" x="220.64" y="-7" font-family="Helvetica,sans-Serif" font-size="10.00">hardware/timer.h</text>
</a>
</g>
</g>
<!-- Node5&#45;&gt;Node6 -->
<g id="edge7_Node000005_Node000006" class="edge">
<title>Node5&#45;&gt;Node6</title>
<g id="a_edge7_Node000005_Node000006"><a xlink:title=" ">
<path fill="none" stroke="#63b8ff" d="M208.95,-54.75C210.81,-47.72 213.48,-37.62 215.8,-28.84"/>
<polygon fill="#63b8ff" stroke="#63b8ff" points="219.2,-29.65 218.37,-19.09 212.44,-27.86 219.2,-29.65"/>
</a>
</g>
</g>
</g>
</svg>
