<?xml version="1.0" encoding="UTF-8" standalone="no"?>
<!DOCTYPE svg PUBLIC "-//W3C//DTD SVG 1.1//EN"
 "http://www.w3.org/Graphics/SVG/1.1/DTD/svg11.dtd">
<!-- Generated by graphviz version 2.43.0 (0)
 -->
<!-- Title: queue.c Pages: 1 -->
<svg width="621pt" height="247pt"
 viewBox="0.00 0.00 621.00 247.00" xmlns="http://www.w3.org/2000/svg" xmlns:xlink="http://www.w3.org/1999/xlink">
<g id="graph0" class="graph" transform="scale(1 1) rotate(0) translate(4 243)">
<title>queue.c</title>
<!-- Node1 -->
<g id="Node000001" class="node">
<title>Node1</title>
<g id="a_Node000001"><a xlink:title=" ">
<polygon fill="#999999" stroke="#666666" points="520,-239 465,-239 465,-220 520,-220 520,-239"/>
<text text-anchor="middle" x="492.5" y="-227" font-family="Helvetica,sans-Serif" font-size="10.00">queue.c</text>
</a>
</g>
</g>
<!-- Node2 -->
<g id="Node000002" class="node">
<title>Node2</title>
<g id="a_Node000002"><a xlink:href="stdlib_8h.html" target="_top" xlink:title=" ">
<polygon fill="white" stroke="#666666" points="316,-129 263,-129 263,-110 316,-110 316,-129"/>
<text text-anchor="middle" x="289.5" y="-117" font-family="Helvetica,sans-Serif" font-size="10.00">stdlib.h</text>
</a>
</g>
</g>
<!-- Node1&#45;&gt;Node2 -->
<g id="edge1_Node000001_Node000002" class="edge">
<title>Node1&#45;&gt;Node2</title>
<g id="a_edge1_Node000001_Node000002"><a xlink:title=" ">
<path fill="none" stroke="#63b8ff" d="M476.23,-219.84C440.88,-201.04 356.85,-156.33 314.63,-133.87"/>
<polygon fill="#63b8ff" stroke="#63b8ff" points="316.04,-130.65 305.56,-129.05 312.75,-136.83 316.04,-130.65"/>
</a>
</g>
</g>
<!-- Node9 -->
<g id="Node000009" class="node">
<title>Node9</title>
<g id="a_Node000009"><a xlink:title=" ">
<polygon fill="#e0e0e0" stroke="#999999" points="613,-184 560,-184 560,-165 613,-165 613,-184"/>
<text text-anchor="middle" x="586.5" y="-172" font-family="Helvetica,sans-Serif" font-size="10.00">string.h</text>
</a>
</g>
</g>
<!-- Node1&#45;&gt;Node9 -->
<g id="edge9_Node000001_Node000009" class="edge">
<title>Node1&#45;&gt;Node9</title>
<g id="a_edge9_Node000001_Node000009"><a xlink:title=" ">
<path fill="none" stroke="#63b8ff" d="M507.6,-219.98C522.32,-211.69 544.92,-198.94 562.17,-189.22"/>
<polygon fill="#63b8ff" stroke="#63b8ff" points="564.13,-192.13 571.12,-184.17 560.69,-186.03 564.13,-192.13"/>
</a>
</g>
</g>
<!-- Node10 -->
<g id="Node000010" class="node">
<title>Node10</title>
<g id="a_Node000010"><a xlink:href="queue_8h.html" target="_top" xlink:title=" ">
<polygon fill="white" stroke="#666666" points="541.5,-184 443.5,-184 443.5,-165 541.5,-165 541.5,-184"/>
<text text-anchor="middle" x="492.5" y="-172" font-family="Helvetica,sans-Serif" font-size="10.00">pico/util/queue.h</text>
</a>
</g>
</g>
<!-- Node1&#45;&gt;Node10 -->
<g id="edge10_Node000001_Node000010" class="edge">
<title>Node1&#45;&gt;Node10</title>
<g id="a_edge10_Node000001_Node000010"><a xlink:title=" ">
<path fill="none" stroke="#63b8ff" d="M492.5,-219.75C492.5,-212.8 492.5,-202.85 492.5,-194.13"/>
<polygon fill="#63b8ff" stroke="#63b8ff" points="496,-194.09 492.5,-184.09 489,-194.09 496,-194.09"/>
</a>
</g>
</g>
<!-- Node3 -->
<g id="Node000003" class="node">
<title>Node3</title>
<g id="a_Node000003"><a xlink:title=" ">
<polygon fill="#e0e0e0" stroke="#999999" points="477.5,-19 431.5,-19 431.5,0 477.5,0 477.5,-19"/>
<text text-anchor="middle" x="454.5" y="-7" font-family="Helvetica,sans-Serif" font-size="10.00">pico.h</text>
</a>
</g>
</g>
<!-- Node2&#45;&gt;Node3 -->
<g id="edge2_Node000002_Node000003" class="edge">
<title>Node2&#45;&gt;Node3</title>
<g id="a_edge2_Node000002_Node000003"><a xlink:title=" ">
<path fill="none" stroke="#63b8ff" d="M295.07,-109.97C304.17,-96.62 323.45,-70.67 345.5,-55 368.62,-38.57 398.7,-26.88 421.4,-19.61"/>
<polygon fill="#63b8ff" stroke="#63b8ff" points="422.73,-22.87 431.26,-16.59 420.67,-16.18 422.73,-22.87"/>
</a>
</g>
</g>
<!-- Node4 -->
<g id="Node000004" class="node">
<title>Node4</title>
<g id="a_Node000004"><a xlink:title=" ">
<polygon fill="#e0e0e0" stroke="#999999" points="73,-74 0,-74 0,-55 73,-55 73,-74"/>
<text text-anchor="middle" x="36.5" y="-62" font-family="Helvetica,sans-Serif" font-size="10.00">pico/stdio.h</text>
</a>
</g>
</g>
<!-- Node2&#45;&gt;Node4 -->
<g id="edge3_Node000002_Node000004" class="edge">
<title>Node2&#45;&gt;Node4</title>
<g id="a_edge3_Node000002_Node000004"><a xlink:title=" ">
<path fill="none" stroke="#63b8ff" d="M262.9,-112.93C220.23,-103.99 135.93,-86.33 83.1,-75.26"/>
<polygon fill="#63b8ff" stroke="#63b8ff" points="83.8,-71.83 73.3,-73.21 82.37,-78.68 83.8,-71.83"/>
</a>
</g>
</g>
<!-- Node5 -->
<g id="Node000005" class="node">
<title>Node5</title>
<g id="a_Node000005"><a xlink:href="common_2pico__time_2include_2pico_2time_8h.html" target="_top" xlink:title=" ">
<polygon fill="white" stroke="#666666" points="426,-74 355,-74 355,-55 426,-55 426,-74"/>
<text text-anchor="middle" x="390.5" y="-62" font-family="Helvetica,sans-Serif" font-size="10.00">pico/time.h</text>
</a>
</g>
</g>
<!-- Node2&#45;&gt;Node5 -->
<g id="edge4_Node000002_Node000005" class="edge">
<title>Node2&#45;&gt;Node5</title>
<g id="a_edge4_Node000002_Node000005"><a xlink:title=" ">
<path fill="none" stroke="#63b8ff" d="M305.73,-109.98C321.68,-101.61 346.28,-88.7 364.88,-78.95"/>
<polygon fill="#63b8ff" stroke="#63b8ff" points="366.75,-81.92 373.98,-74.17 363.5,-75.72 366.75,-81.92"/>
</a>
</g>
</g>
<!-- Node7 -->
<g id="Node000007" class="node">
<title>Node7</title>
<g id="a_Node000007"><a xlink:title=" ">
<polygon fill="#e0e0e0" stroke="#999999" points="186,-74 91,-74 91,-55 186,-55 186,-74"/>
<text text-anchor="middle" x="138.5" y="-62" font-family="Helvetica,sans-Serif" font-size="10.00">hardware/gpio.h</text>
</a>
</g>
</g>
<!-- Node2&#45;&gt;Node7 -->
<g id="edge7_Node000002_Node000007" class="edge">
<title>Node2&#45;&gt;Node7</title>
<g id="a_edge7_Node000002_Node000007"><a xlink:title=" ">
<path fill="none" stroke="#63b8ff" d="M265.24,-109.98C240.18,-101.19 200.87,-87.39 172.67,-77.49"/>
<polygon fill="#63b8ff" stroke="#63b8ff" points="173.8,-74.18 163.2,-74.17 171.48,-80.78 173.8,-74.18"/>
</a>
</g>
</g>
<!-- Node8 -->
<g id="Node000008" class="node">
<title>Node8</title>
<g id="a_Node000008"><a xlink:title=" ">
<polygon fill="#e0e0e0" stroke="#999999" points="298.5,-74 204.5,-74 204.5,-55 298.5,-55 298.5,-74"/>
<text text-anchor="middle" x="251.5" y="-62" font-family="Helvetica,sans-Serif" font-size="10.00">hardware/uart.h</text>
</a>
</g>
</g>
<!-- Node2&#45;&gt;Node8 -->
<g id="edge8_Node000002_Node000008" class="edge">
<title>Node2&#45;&gt;Node8</title>
<g id="a_edge8_Node000002_Node000008"><a xlink:title=" ">
<path fill="none" stroke="#63b8ff" d="M283.23,-109.75C277.91,-102.34 270.14,-91.5 263.62,-82.41"/>
<polygon fill="#63b8ff" stroke="#63b8ff" points="266.33,-80.18 257.66,-74.09 260.64,-84.26 266.33,-80.18"/>
</a>
</g>
</g>
<!-- Node5&#45;&gt;Node3 -->
<g id="edge5_Node000005_Node000003" class="edge">
<title>Node5&#45;&gt;Node3</title>
<g id="a_edge5_Node000005_Node000003"><a xlink:title=" ">
<path fill="none" stroke="#63b8ff" d="M400.78,-54.98C410.34,-47.07 424.78,-35.11 436.28,-25.58"/>
<polygon fill="#63b8ff" stroke="#63b8ff" points="438.56,-28.24 444.03,-19.17 434.1,-22.85 438.56,-28.24"/>
</a>
</g>
</g>
<!-- Node6 -->
<g id="Node000006" class="node">
<title>Node6</title>
<g id="a_Node000006"><a xlink:title=" ">
<polygon fill="#e0e0e0" stroke="#999999" points="413,-19 312,-19 312,0 413,0 413,-19"/>
<text text-anchor="middle" x="362.5" y="-7" font-family="Helvetica,sans-Serif" font-size="10.00">hardware/timer.h</text>
</a>
</g>
</g>
<!-- Node5&#45;&gt;Node6 -->
<g id="edge6_Node000005_Node000006" class="edge">
<title>Node5&#45;&gt;Node6</title>
<g id="a_edge6_Node000005_Node000006"><a xlink:title=" ">
<path fill="none" stroke="#63b8ff" d="M385.88,-54.75C382.04,-47.49 376.48,-36.95 371.74,-27.98"/>
<polygon fill="#63b8ff" stroke="#63b8ff" points="374.8,-26.3 367.04,-19.09 368.61,-29.57 374.8,-26.3"/>
</a>
</g>
</g>
<!-- Node10&#45;&gt;Node3 -->
<g id="edge11_Node000010_Node000003" class="edge">
<title>Node10&#45;&gt;Node3</title>
<g id="a_edge11_Node000010_Node000003"><a xlink:title=" ">
<path fill="none" stroke="#63b8ff" d="M509.4,-164.87C544.69,-145.7 620.51,-97.87 589.5,-55 566.44,-23.11 519.72,-13.68 487.77,-11.11"/>
<polygon fill="#63b8ff" stroke="#63b8ff" points="487.75,-7.6 477.56,-10.47 487.32,-14.59 487.75,-7.6"/>
</a>
</g>
</g>
<!-- Node11 -->
<g id="Node000011" class="node">
<title>Node11</title>
<g id="a_Node000011"><a xlink:title=" ">
<polygon fill="#e0e0e0" stroke="#999999" points="580,-74 483,-74 483,-55 580,-55 580,-74"/>
<text text-anchor="middle" x="531.5" y="-62" font-family="Helvetica,sans-Serif" font-size="10.00">hardware/sync.h</text>
</a>
</g>
</g>
<!-- Node10&#45;&gt;Node11 -->
<g id="edge12_Node000010_Node000011" class="edge">
<title>Node10&#45;&gt;Node11</title>
<g id="a_edge12_Node000010_Node000011"><a xlink:title=" ">
<path fill="none" stroke="#63b8ff" d="M496.54,-164.74C500.58,-155.84 506.84,-141.61 511.5,-129 517.02,-114.08 522.39,-96.84 526.17,-84.09"/>
<polygon fill="#63b8ff" stroke="#63b8ff" points="529.61,-84.8 529.05,-74.22 522.89,-82.84 529.61,-84.8"/>
</a>
</g>
</g>
<!-- Node12 -->
<g id="Node000012" class="node">
<title>Node12</title>
<g id="a_Node000012"><a xlink:href="lock__core_8h.html" target="_top" xlink:title="Base implementation for locking primitives protected by a spin lock.">
<polygon fill="white" stroke="#666666" points="502,-129 407,-129 407,-110 502,-110 502,-129"/>
<text text-anchor="middle" x="454.5" y="-117" font-family="Helvetica,sans-Serif" font-size="10.00">pico/lock_core.h</text>
</a>
</g>
</g>
<!-- Node10&#45;&gt;Node12 -->
<g id="edge13_Node000010_Node000012" class="edge">
<title>Node10&#45;&gt;Node12</title>
<g id="a_edge13_Node000010_Node000012"><a xlink:title=" ">
<path fill="none" stroke="#63b8ff" d="M486.23,-164.75C480.91,-157.34 473.14,-146.5 466.62,-137.41"/>
<polygon fill="#63b8ff" stroke="#63b8ff" points="469.33,-135.18 460.66,-129.09 463.64,-139.26 469.33,-135.18"/>
</a>
</g>
</g>
<!-- Node12&#45;&gt;Node3 -->
<g id="edge14_Node000012_Node000003" class="edge">
<title>Node12&#45;&gt;Node3</title>
<g id="a_edge14_Node000012_Node000003"><a xlink:title=" ">
<path fill="none" stroke="#63b8ff" d="M454.5,-109.66C454.5,-92.17 454.5,-52.8 454.5,-29.27"/>
<polygon fill="#63b8ff" stroke="#63b8ff" points="458,-29.16 454.5,-19.16 451,-29.16 458,-29.16"/>
</a>
</g>
</g>
<!-- Node12&#45;&gt;Node5 -->
<g id="edge15_Node000012_Node000005" class="edge">
<title>Node12&#45;&gt;Node5</title>
<g id="a_edge15_Node000012_Node000005"><a xlink:title=" ">
<path fill="none" stroke="#63b8ff" d="M444.22,-109.98C434.66,-102.07 420.22,-90.11 408.72,-80.58"/>
<polygon fill="#63b8ff" stroke="#63b8ff" points="410.9,-77.85 400.97,-74.17 406.44,-83.24 410.9,-77.85"/>
</a>
</g>
</g>
<!-- Node12&#45;&gt;Node11 -->
<g id="edge16_Node000012_Node000011" class="edge">
<title>Node12&#45;&gt;Node11</title>
<g id="a_edge16_Node000012_Node000011"><a xlink:title=" ">
<path fill="none" stroke="#63b8ff" d="M466.87,-109.98C478.59,-101.92 496.42,-89.65 510.39,-80.03"/>
<polygon fill="#63b8ff" stroke="#63b8ff" points="512.65,-82.72 518.9,-74.17 508.68,-76.96 512.65,-82.72"/>
</a>
</g>
</g>
</g>
</svg>
