<?xml version="1.0" encoding="UTF-8" standalone="no"?>
<!DOCTYPE svg PUBLIC "-//W3C//DTD SVG 1.1//EN"
 "http://www.w3.org/Graphics/SVG/1.1/DTD/svg11.dtd">
<!-- Generated by graphviz version 2.43.0 (0)
 -->
<!-- Title: reset_interface.c Pages: 1 -->
<svg width="395pt" height="302pt"
 viewBox="0.00 0.00 395.39 302.00" xmlns="http://www.w3.org/2000/svg" xmlns:xlink="http://www.w3.org/1999/xlink">
<g id="graph0" class="graph" transform="scale(1 1) rotate(0) translate(4 298)">
<title>reset_interface.c</title>
<!-- Node1 -->
<g id="Node000001" class="node">
<title>Node1</title>
<g id="a_Node000001"><a xlink:title=" ">
<polygon fill="#999999" stroke="#666666" points="289,-294 191,-294 191,-275 289,-275 289,-294"/>
<text text-anchor="middle" x="240" y="-282" font-family="Helvetica,sans-Serif" font-size="10.00">reset_interface.c</text>
</a>
</g>
</g>
<!-- Node2 -->
<g id="Node000002" class="node">
<title>Node2</title>
<g id="a_Node000002"><a xlink:title=" ">
<polygon fill="#e0e0e0" stroke="#999999" points="220.5,-239 173.5,-239 173.5,-220 220.5,-220 220.5,-239"/>
<text text-anchor="middle" x="197" y="-227" font-family="Helvetica,sans-Serif" font-size="10.00">tusb.h</text>
</a>
</g>
</g>
<!-- Node1&#45;&gt;Node2 -->
<g id="edge1_Node000001_Node000002" class="edge">
<title>Node1&#45;&gt;Node2</title>
<g id="a_edge1_Node000001_Node000002"><a xlink:title=" ">
<path fill="none" stroke="#63b8ff" d="M232.9,-274.75C226.83,-267.26 217.91,-256.28 210.49,-247.13"/>
<polygon fill="#63b8ff" stroke="#63b8ff" points="212.99,-244.65 203.97,-239.09 207.55,-249.06 212.99,-244.65"/>
</a>
</g>
</g>
<!-- Node3 -->
<g id="Node000003" class="node">
<title>Node3</title>
<g id="a_Node000003"><a xlink:href="bootrom_8h.html" target="_top" xlink:title=" ">
<polygon fill="white" stroke="#666666" points="329,-239 239,-239 239,-220 329,-220 329,-239"/>
<text text-anchor="middle" x="284" y="-227" font-family="Helvetica,sans-Serif" font-size="10.00">pico/bootrom.h</text>
</a>
</g>
</g>
<!-- Node1&#45;&gt;Node3 -->
<g id="edge2_Node000001_Node000003" class="edge">
<title>Node1&#45;&gt;Node3</title>
<g id="a_edge2_Node000001_Node000003"><a xlink:title=" ">
<path fill="none" stroke="#63b8ff" d="M247.27,-274.75C253.54,-267.18 262.79,-256.05 270.43,-246.84"/>
<polygon fill="#63b8ff" stroke="#63b8ff" points="273.17,-249.02 276.87,-239.09 267.79,-244.55 273.17,-249.02"/>
</a>
</g>
</g>
<!-- Node4 -->
<g id="Node000004" class="node">
<title>Node4</title>
<g id="a_Node000004"><a xlink:title=" ">
<polygon fill="#e0e0e0" stroke="#999999" points="362,-74 316,-74 316,-55 362,-55 362,-74"/>
<text text-anchor="middle" x="339" y="-62" font-family="Helvetica,sans-Serif" font-size="10.00">pico.h</text>
</a>
</g>
</g>
<!-- Node3&#45;&gt;Node4 -->
<g id="edge3_Node000003_Node000004" class="edge">
<title>Node3&#45;&gt;Node4</title>
<g id="a_edge3_Node000003_Node000004"><a xlink:title=" ">
<path fill="none" stroke="#63b8ff" d="M298.92,-219.87C322.89,-204.97 368.92,-171.87 385,-129 387.97,-121.09 388.3,-117.77 385,-110 380.02,-98.25 370.25,-88.09 360.99,-80.45"/>
<polygon fill="#63b8ff" stroke="#63b8ff" points="362.85,-77.47 352.78,-74.18 358.6,-83.03 362.85,-77.47"/>
</a>
</g>
</g>
<!-- Node5 -->
<g id="Node000005" class="node">
<title>Node5</title>
<g id="a_Node000005"><a xlink:href="pico__bootrom_2include_2pico_2bootrom__constants_8h.html" target="_top" xlink:title=" ">
<polygon fill="white" stroke="#666666" points="143.5,-129 0.5,-129 0.5,-110 143.5,-110 143.5,-129"/>
<text text-anchor="middle" x="72" y="-117" font-family="Helvetica,sans-Serif" font-size="10.00">pico/bootrom_constants.h</text>
</a>
</g>
</g>
<!-- Node3&#45;&gt;Node5 -->
<g id="edge4_Node000003_Node000005" class="edge">
<title>Node3&#45;&gt;Node5</title>
<g id="a_edge4_Node000003_Node000005"><a xlink:title=" ">
<path fill="none" stroke="#63b8ff" d="M238.68,-220.04C196.27,-211.48 136.59,-197.61 117,-184 100.41,-172.47 87.85,-152.75 80.27,-138.34"/>
<polygon fill="#63b8ff" stroke="#63b8ff" points="83.41,-136.78 75.83,-129.38 77.13,-139.89 83.41,-136.78"/>
</a>
</g>
</g>
<!-- Node8 -->
<g id="Node000008" class="node">
<title>Node8</title>
<g id="a_Node000008"><a xlink:title=" ">
<polygon fill="#e0e0e0" stroke="#999999" points="310.5,-184 257.5,-184 257.5,-165 310.5,-165 310.5,-184"/>
<text text-anchor="middle" x="284" y="-172" font-family="Helvetica,sans-Serif" font-size="10.00">string.h</text>
</a>
</g>
</g>
<!-- Node3&#45;&gt;Node8 -->
<g id="edge7_Node000003_Node000008" class="edge">
<title>Node3&#45;&gt;Node8</title>
<g id="a_edge7_Node000003_Node000008"><a xlink:title=" ">
<path fill="none" stroke="#63b8ff" d="M284,-219.75C284,-212.8 284,-202.85 284,-194.13"/>
<polygon fill="#63b8ff" stroke="#63b8ff" points="287.5,-194.09 284,-184.09 280.5,-194.09 287.5,-194.09"/>
</a>
</g>
</g>
<!-- Node9 -->
<g id="Node000009" class="node">
<title>Node9</title>
<g id="a_Node000009"><a xlink:href="lock_8h.html" target="_top" xlink:title=" ">
<polygon fill="white" stroke="#666666" points="239.5,-184 126.5,-184 126.5,-165 239.5,-165 239.5,-184"/>
<text text-anchor="middle" x="183" y="-172" font-family="Helvetica,sans-Serif" font-size="10.00">pico/bootrom/lock.h</text>
</a>
</g>
</g>
<!-- Node3&#45;&gt;Node9 -->
<g id="edge8_Node000003_Node000009" class="edge">
<title>Node3&#45;&gt;Node9</title>
<g id="a_edge8_Node000003_Node000009"><a xlink:title=" ">
<path fill="none" stroke="#63b8ff" d="M267.77,-219.98C251.82,-211.61 227.22,-198.7 208.62,-188.95"/>
<polygon fill="#63b8ff" stroke="#63b8ff" points="210,-185.72 199.52,-184.17 206.75,-191.92 210,-185.72"/>
</a>
</g>
</g>
<!-- Node11 -->
<g id="Node000011" class="node">
<title>Node11</title>
<g id="a_Node000011"><a xlink:href="pico__flash_2include_2pico_2flash_8h.html" target="_top" xlink:title=" ">
<polygon fill="white" stroke="#666666" points="375.5,-129 302.5,-129 302.5,-110 375.5,-110 375.5,-129"/>
<text text-anchor="middle" x="339" y="-117" font-family="Helvetica,sans-Serif" font-size="10.00">pico/flash.h</text>
</a>
</g>
</g>
<!-- Node3&#45;&gt;Node11 -->
<g id="edge12_Node000003_Node000011" class="edge">
<title>Node3&#45;&gt;Node11</title>
<g id="a_edge12_Node000003_Node000011"><a xlink:title=" ">
<path fill="none" stroke="#63b8ff" d="M292.88,-219.71C300.98,-211.24 312.77,-197.71 320,-184 327.48,-169.83 332.44,-152.29 335.41,-139.24"/>
<polygon fill="#63b8ff" stroke="#63b8ff" points="338.91,-139.63 337.53,-129.12 332.06,-138.2 338.91,-139.63"/>
</a>
</g>
</g>
<!-- Node6 -->
<g id="Node000006" class="node">
<title>Node6</title>
<g id="a_Node000006"><a xlink:href="boot__bootrom__headers_2include_2boot_2bootrom__constants_8h.html" target="_top" xlink:title=" ">
<polygon fill="white" stroke="#666666" points="144,-74 0,-74 0,-55 144,-55 144,-74"/>
<text text-anchor="middle" x="72" y="-62" font-family="Helvetica,sans-Serif" font-size="10.00">boot/bootrom_constants.h</text>
</a>
</g>
</g>
<!-- Node5&#45;&gt;Node6 -->
<g id="edge5_Node000005_Node000006" class="edge">
<title>Node5&#45;&gt;Node6</title>
<g id="a_edge5_Node000005_Node000006"><a xlink:title=" ">
<path fill="none" stroke="#63b8ff" d="M72,-109.75C72,-102.8 72,-92.85 72,-84.13"/>
<polygon fill="#63b8ff" stroke="#63b8ff" points="75.5,-84.09 72,-74.09 68.5,-84.09 75.5,-84.09"/>
</a>
</g>
</g>
<!-- Node7 -->
<g id="Node000007" class="node">
<title>Node7</title>
<g id="a_Node000007"><a xlink:title=" ">
<polygon fill="#e0e0e0" stroke="#999999" points="117.5,-19 26.5,-19 26.5,0 117.5,0 117.5,-19"/>
<text text-anchor="middle" x="72" y="-7" font-family="Helvetica,sans-Serif" font-size="10.00">pico/platform.h</text>
</a>
</g>
</g>
<!-- Node6&#45;&gt;Node7 -->
<g id="edge6_Node000006_Node000007" class="edge">
<title>Node6&#45;&gt;Node7</title>
<g id="a_edge6_Node000006_Node000007"><a xlink:title=" ">
<path fill="none" stroke="#63b8ff" d="M72,-54.75C72,-47.8 72,-37.85 72,-29.13"/>
<polygon fill="#63b8ff" stroke="#63b8ff" points="75.5,-29.09 72,-19.09 68.5,-29.09 75.5,-29.09"/>
</a>
</g>
</g>
<!-- Node9&#45;&gt;Node5 -->
<g id="edge11_Node000009_Node000005" class="edge">
<title>Node9&#45;&gt;Node5</title>
<g id="a_edge11_Node000009_Node000005"><a xlink:title=" ">
<path fill="none" stroke="#63b8ff" d="M165.17,-164.98C147.39,-156.5 119.85,-143.35 99.32,-133.54"/>
<polygon fill="#63b8ff" stroke="#63b8ff" points="100.69,-130.32 90.16,-129.17 97.67,-136.64 100.69,-130.32"/>
</a>
</g>
</g>
<!-- Node10 -->
<g id="Node000010" class="node">
<title>Node10</title>
<g id="a_Node000010"><a xlink:href="boot__lock_8h.html" target="_top" xlink:title=" ">
<polygon fill="white" stroke="#666666" points="284,-129 162,-129 162,-110 284,-110 284,-129"/>
<text text-anchor="middle" x="223" y="-117" font-family="Helvetica,sans-Serif" font-size="10.00">hardware/boot_lock.h</text>
</a>
</g>
</g>
<!-- Node9&#45;&gt;Node10 -->
<g id="edge9_Node000009_Node000010" class="edge">
<title>Node9&#45;&gt;Node10</title>
<g id="a_edge9_Node000009_Node000010"><a xlink:title=" ">
<path fill="none" stroke="#63b8ff" d="M189.61,-164.75C195.26,-157.26 203.54,-146.28 210.45,-137.13"/>
<polygon fill="#63b8ff" stroke="#63b8ff" points="213.29,-139.18 216.52,-129.09 207.7,-134.96 213.29,-139.18"/>
</a>
</g>
</g>
<!-- Node10&#45;&gt;Node4 -->
<g id="edge10_Node000010_Node000004" class="edge">
<title>Node10&#45;&gt;Node4</title>
<g id="a_edge10_Node000010_Node000004"><a xlink:title=" ">
<path fill="none" stroke="#63b8ff" d="M241.64,-109.98C260.3,-101.46 289.25,-88.23 310.74,-78.41"/>
<polygon fill="#63b8ff" stroke="#63b8ff" points="312.38,-81.51 320.02,-74.17 309.47,-75.14 312.38,-81.51"/>
</a>
</g>
</g>
<!-- Node11&#45;&gt;Node4 -->
<g id="edge13_Node000011_Node000004" class="edge">
<title>Node11&#45;&gt;Node4</title>
<g id="a_edge13_Node000011_Node000004"><a xlink:title=" ">
<path fill="none" stroke="#63b8ff" d="M339,-109.75C339,-102.8 339,-92.85 339,-84.13"/>
<polygon fill="#63b8ff" stroke="#63b8ff" points="342.5,-84.09 339,-74.09 335.5,-84.09 342.5,-84.09"/>
</a>
</g>
</g>
</g>
</svg>
