<?xml version="1.0" encoding="UTF-8" standalone="no"?>
<!DOCTYPE svg PUBLIC "-//W3C//DTD SVG 1.1//EN"
 "http://www.w3.org/Graphics/SVG/1.1/DTD/svg11.dtd">
<!-- Generated by graphviz version 2.43.0 (0)
 -->
<!-- Title: platform.h Pages: 1 -->
<svg width="966pt" height="247pt"
 viewBox="0.00 0.00 966.00 247.00" xmlns="http://www.w3.org/2000/svg" xmlns:xlink="http://www.w3.org/1999/xlink">
<g id="graph0" class="graph" transform="scale(1 1) rotate(0) translate(4 243)">
<title>platform.h</title>
<!-- Node1 -->
<g id="Node000001" class="node">
<title>Node1</title>
<g id="a_Node000001"><a xlink:title=" ">
<polygon fill="#999999" stroke="#666666" points="541.5,-239 473.5,-239 473.5,-220 541.5,-220 541.5,-239"/>
<text text-anchor="middle" x="507.5" y="-227" font-family="Helvetica,sans-Serif" font-size="10.00">platform.h</text>
</a>
</g>
</g>
<!-- Node2 -->
<g id="Node000002" class="node">
<title>Node2</title>
<g id="a_Node000002"><a xlink:href="compiler_8h.html" target="_top" xlink:title="Macros and definitions (and functions when included by non assembly code) to adapt for different comp...">
<polygon fill="white" stroke="#666666" points="204,-184 67,-184 67,-165 204,-165 204,-184"/>
<text text-anchor="middle" x="135.5" y="-172" font-family="Helvetica,sans-Serif" font-size="10.00">pico/platform/compiler.h</text>
</a>
</g>
</g>
<!-- Node1&#45;&gt;Node2 -->
<g id="edge1_Node000001_Node000002" class="edge">
<title>Node1&#45;&gt;Node2</title>
<g id="a_edge1_Node000001_Node000002"><a xlink:title=" ">
<path fill="none" stroke="#63b8ff" d="M473.17,-223.61C412.45,-214.96 285.02,-196.8 205.23,-185.44"/>
<polygon fill="#63b8ff" stroke="#63b8ff" points="205.66,-181.96 195.27,-184.02 204.67,-188.89 205.66,-181.96"/>
</a>
</g>
</g>
<!-- Node9 -->
<g id="Node000009" class="node">
<title>Node9</title>
<g id="a_Node000009"><a xlink:href="sections_8h.html" target="_top" xlink:title=" ">
<polygon fill="white" stroke="#666666" points="356.5,-184 222.5,-184 222.5,-165 356.5,-165 356.5,-184"/>
<text text-anchor="middle" x="289.5" y="-172" font-family="Helvetica,sans-Serif" font-size="10.00">pico/platform/sections.h</text>
</a>
</g>
</g>
<!-- Node1&#45;&gt;Node9 -->
<g id="edge10_Node000001_Node000009" class="edge">
<title>Node1&#45;&gt;Node9</title>
<g id="a_edge10_Node000001_Node000009"><a xlink:title=" ">
<path fill="none" stroke="#63b8ff" d="M473.44,-220.22C436.04,-211.13 375.85,-196.49 334.57,-186.46"/>
<polygon fill="#63b8ff" stroke="#63b8ff" points="335.31,-183.04 324.77,-184.07 333.66,-189.84 335.31,-183.04"/>
</a>
</g>
</g>
<!-- Node10 -->
<g id="Node000010" class="node">
<title>Node10</title>
<g id="a_Node000010"><a xlink:href="panic_8h.html" target="_top" xlink:title=" ">
<polygon fill="white" stroke="#666666" points="494.5,-184 374.5,-184 374.5,-165 494.5,-165 494.5,-184"/>
<text text-anchor="middle" x="434.5" y="-172" font-family="Helvetica,sans-Serif" font-size="10.00">pico/platform/panic.h</text>
</a>
</g>
</g>
<!-- Node1&#45;&gt;Node10 -->
<g id="edge11_Node000001_Node000010" class="edge">
<title>Node1&#45;&gt;Node10</title>
<g id="a_edge11_Node000001_Node000010"><a xlink:title=" ">
<path fill="none" stroke="#63b8ff" d="M495.77,-219.98C484.77,-212 468.08,-199.88 454.9,-190.31"/>
<polygon fill="#63b8ff" stroke="#63b8ff" points="456.59,-187.21 446.44,-184.17 452.48,-192.88 456.59,-187.21"/>
</a>
</g>
</g>
<!-- Node11 -->
<g id="Node000011" class="node">
<title>Node11</title>
<g id="a_Node000011"><a xlink:href="common_8h.html" target="_top" xlink:title="Macros and definitions common to all rp2 platforms but not specific to any library.">
<polygon fill="white" stroke="#666666" points="650,-184 513,-184 513,-165 650,-165 650,-184"/>
<text text-anchor="middle" x="581.5" y="-172" font-family="Helvetica,sans-Serif" font-size="10.00">pico/platform/common.h</text>
</a>
</g>
</g>
<!-- Node1&#45;&gt;Node11 -->
<g id="edge12_Node000001_Node000011" class="edge">
<title>Node1&#45;&gt;Node11</title>
<g id="a_edge12_Node000001_Node000011"><a xlink:title=" ">
<path fill="none" stroke="#63b8ff" d="M519.39,-219.98C530.65,-211.92 547.79,-199.65 561.21,-190.03"/>
<polygon fill="#63b8ff" stroke="#63b8ff" points="563.3,-192.84 569.39,-184.17 559.23,-187.15 563.3,-192.84"/>
</a>
</g>
</g>
<!-- Node12 -->
<g id="Node000012" class="node">
<title>Node12</title>
<g id="a_Node000012"><a xlink:title=" ">
<polygon fill="#e0e0e0" stroke="#999999" points="826.5,-184 668.5,-184 668.5,-165 826.5,-165 826.5,-184"/>
<text text-anchor="middle" x="747.5" y="-172" font-family="Helvetica,sans-Serif" font-size="10.00">hardware/regs/addressmap.h</text>
</a>
</g>
</g>
<!-- Node1&#45;&gt;Node12 -->
<g id="edge13_Node000001_Node000012" class="edge">
<title>Node1&#45;&gt;Node12</title>
<g id="a_edge13_Node000001_Node000012"><a xlink:title=" ">
<path fill="none" stroke="#63b8ff" d="M541.63,-220.96C582.74,-211.88 652.1,-196.57 698.82,-186.25"/>
<polygon fill="#63b8ff" stroke="#63b8ff" points="699.71,-189.64 708.72,-184.06 698.2,-182.8 699.71,-189.64"/>
</a>
</g>
</g>
<!-- Node13 -->
<g id="Node000013" class="node">
<title>Node13</title>
<g id="a_Node000013"><a xlink:title=" ">
<polygon fill="#e0e0e0" stroke="#999999" points="958,-184 845,-184 845,-165 958,-165 958,-184"/>
<text text-anchor="middle" x="901.5" y="-172" font-family="Helvetica,sans-Serif" font-size="10.00">hardware/regs/sio.h</text>
</a>
</g>
</g>
<!-- Node1&#45;&gt;Node13 -->
<g id="edge14_Node000001_Node000013" class="edge">
<title>Node1&#45;&gt;Node13</title>
<g id="a_edge14_Node000001_Node000013"><a xlink:title=" ">
<path fill="none" stroke="#63b8ff" d="M541.78,-223.89C606.99,-215.12 749.98,-195.88 834.72,-184.48"/>
<polygon fill="#63b8ff" stroke="#63b8ff" points="835.32,-187.93 844.76,-183.13 834.38,-181 835.32,-187.93"/>
</a>
</g>
</g>
<!-- Node3 -->
<g id="Node000003" class="node">
<title>Node3</title>
<g id="a_Node000003"><a xlink:title=" ">
<polygon fill="#e0e0e0" stroke="#999999" points="143,-129 0,-129 0,-110 143,-110 143,-129"/>
<text text-anchor="middle" x="71.5" y="-117" font-family="Helvetica,sans-Serif" font-size="10.00">hardware/platform_defs.h</text>
</a>
</g>
</g>
<!-- Node2&#45;&gt;Node3 -->
<g id="edge2_Node000002_Node000003" class="edge">
<title>Node2&#45;&gt;Node3</title>
<g id="a_edge2_Node000002_Node000003"><a xlink:title=" ">
<path fill="none" stroke="#63b8ff" d="M125.22,-164.98C115.66,-157.07 101.22,-145.11 89.72,-135.58"/>
<polygon fill="#63b8ff" stroke="#63b8ff" points="91.9,-132.85 81.97,-129.17 87.44,-138.24 91.9,-132.85"/>
</a>
</g>
</g>
<!-- Node4 -->
<g id="Node000004" class="node">
<title>Node4</title>
<g id="a_Node000004"><a xlink:href="common_2pico__base__headers_2include_2pico_2types_8h.html" target="_top" xlink:title=" ">
<polygon fill="white" stroke="#666666" points="237.5,-129 161.5,-129 161.5,-110 237.5,-110 237.5,-129"/>
<text text-anchor="middle" x="199.5" y="-117" font-family="Helvetica,sans-Serif" font-size="10.00">pico/types.h</text>
</a>
</g>
</g>
<!-- Node2&#45;&gt;Node4 -->
<g id="edge3_Node000002_Node000004" class="edge">
<title>Node2&#45;&gt;Node4</title>
<g id="a_edge3_Node000002_Node000004"><a xlink:title=" ">
<path fill="none" stroke="#63b8ff" d="M145.78,-164.98C155.34,-157.07 169.78,-145.11 181.28,-135.58"/>
<polygon fill="#63b8ff" stroke="#63b8ff" points="183.56,-138.24 189.03,-129.17 179.1,-132.85 183.56,-138.24"/>
</a>
</g>
</g>
<!-- Node5 -->
<g id="Node000005" class="node">
<title>Node5</title>
<g id="a_Node000005"><a xlink:href="assert_8h.html" target="_top" xlink:title=" ">
<polygon fill="white" stroke="#666666" points="126,-74 47,-74 47,-55 126,-55 126,-74"/>
<text text-anchor="middle" x="86.5" y="-62" font-family="Helvetica,sans-Serif" font-size="10.00">pico/assert.h</text>
</a>
</g>
</g>
<!-- Node4&#45;&gt;Node5 -->
<g id="edge4_Node000004_Node000005" class="edge">
<title>Node4&#45;&gt;Node5</title>
<g id="a_edge4_Node000004_Node000005"><a xlink:title=" ">
<path fill="none" stroke="#63b8ff" d="M181.34,-109.98C163.25,-101.5 135.22,-88.35 114.31,-78.54"/>
<polygon fill="#63b8ff" stroke="#63b8ff" points="115.53,-75.25 104.99,-74.17 112.55,-81.59 115.53,-75.25"/>
</a>
</g>
</g>
<!-- Node6 -->
<g id="Node000006" class="node">
<title>Node6</title>
<g id="a_Node000006"><a xlink:title=" ">
<polygon fill="#e0e0e0" stroke="#999999" points="160.5,-19 98.5,-19 98.5,0 160.5,0 160.5,-19"/>
<text text-anchor="middle" x="129.5" y="-7" font-family="Helvetica,sans-Serif" font-size="10.00">stdbool.h</text>
</a>
</g>
</g>
<!-- Node4&#45;&gt;Node6 -->
<g id="edge8_Node000004_Node000006" class="edge">
<title>Node4&#45;&gt;Node6</title>
<g id="a_edge8_Node000004_Node000006"><a xlink:title=" ">
<path fill="none" stroke="#63b8ff" d="M193.77,-109.66C182.18,-91.77 155.75,-51 140.64,-27.69"/>
<polygon fill="#63b8ff" stroke="#63b8ff" points="143.49,-25.65 135.11,-19.16 137.61,-29.45 143.49,-25.65"/>
</a>
</g>
</g>
<!-- Node7 -->
<g id="Node000007" class="node">
<title>Node7</title>
<g id="a_Node000007"><a xlink:title=" ">
<polygon fill="#e0e0e0" stroke="#999999" points="254,-74 201,-74 201,-55 254,-55 254,-74"/>
<text text-anchor="middle" x="227.5" y="-62" font-family="Helvetica,sans-Serif" font-size="10.00">stdint.h</text>
</a>
</g>
</g>
<!-- Node4&#45;&gt;Node7 -->
<g id="edge7_Node000004_Node000007" class="edge">
<title>Node4&#45;&gt;Node7</title>
<g id="a_edge7_Node000004_Node000007"><a xlink:title=" ">
<path fill="none" stroke="#63b8ff" d="M204.12,-109.75C207.96,-102.49 213.52,-91.95 218.26,-82.98"/>
<polygon fill="#63b8ff" stroke="#63b8ff" points="221.39,-84.57 222.96,-74.09 215.2,-81.3 221.39,-84.57"/>
</a>
</g>
</g>
<!-- Node8 -->
<g id="Node000008" class="node">
<title>Node8</title>
<g id="a_Node000008"><a xlink:title=" ">
<polygon fill="#e0e0e0" stroke="#999999" points="328.5,-74 272.5,-74 272.5,-55 328.5,-55 328.5,-74"/>
<text text-anchor="middle" x="300.5" y="-62" font-family="Helvetica,sans-Serif" font-size="10.00">stddef.h</text>
</a>
</g>
</g>
<!-- Node4&#45;&gt;Node8 -->
<g id="edge9_Node000004_Node000008" class="edge">
<title>Node4&#45;&gt;Node8</title>
<g id="a_edge9_Node000004_Node000008"><a xlink:title=" ">
<path fill="none" stroke="#63b8ff" d="M215.73,-109.98C231.68,-101.61 256.28,-88.7 274.88,-78.95"/>
<polygon fill="#63b8ff" stroke="#63b8ff" points="276.75,-81.92 283.98,-74.17 273.5,-75.72 276.75,-81.92"/>
</a>
</g>
</g>
<!-- Node5&#45;&gt;Node5 -->
<g id="edge6_Node000005_Node000005" class="edge">
<title>Node5&#45;&gt;Node5</title>
<g id="a_edge6_Node000005_Node000005"><a xlink:title=" ">
<path fill="none" stroke="#63b8ff" d="M113.41,-74.03C129.21,-76.06 144,-72.88 144,-64.5 144,-57.95 134.97,-54.58 123.49,-54.38"/>
<polygon fill="#63b8ff" stroke="#63b8ff" points="123.19,-50.9 113.41,-54.97 123.6,-57.88 123.19,-50.9"/>
</a>
</g>
</g>
<!-- Node5&#45;&gt;Node6 -->
<g id="edge5_Node000005_Node000006" class="edge">
<title>Node5&#45;&gt;Node6</title>
<g id="a_edge5_Node000005_Node000006"><a xlink:title=" ">
<path fill="none" stroke="#63b8ff" d="M93.6,-54.75C99.67,-47.26 108.59,-36.28 116.01,-27.13"/>
<polygon fill="#63b8ff" stroke="#63b8ff" points="118.95,-29.06 122.53,-19.09 113.51,-24.65 118.95,-29.06"/>
</a>
</g>
</g>
</g>
</svg>
