<?xml version="1.0" encoding="UTF-8" standalone="no"?>
<!DOCTYPE svg PUBLIC "-//W3C//DTD SVG 1.1//EN"
 "http://www.w3.org/Graphics/SVG/1.1/DTD/svg11.dtd">
<!-- Generated by graphviz version 2.43.0 (0)
 -->
<!-- Title: cpu_regs.h Pages: 1 -->
<svg width="544pt" height="247pt"
 viewBox="0.00 0.00 543.50 247.00" xmlns="http://www.w3.org/2000/svg" xmlns:xlink="http://www.w3.org/1999/xlink">
<g id="graph0" class="graph" transform="scale(1 1) rotate(0) translate(4 243)">
<title>cpu_regs.h</title>
<!-- Node1 -->
<g id="Node000001" class="node">
<title>Node1</title>
<g id="a_Node000001"><a xlink:title=" ">
<polygon fill="#999999" stroke="#666666" points="280.5,-239 211.5,-239 211.5,-220 280.5,-220 280.5,-239"/>
<text text-anchor="middle" x="246" y="-227" font-family="Helvetica,sans-Serif" font-size="10.00">cpu_regs.h</text>
</a>
</g>
</g>
<!-- Node2 -->
<g id="Node000002" class="node">
<title>Node2</title>
<g id="a_Node000002"><a xlink:href="hardware__regs_2include_2hardware_2regs_2m0plus_8h.html" target="_top" xlink:title=" ">
<polygon fill="white" stroke="#666666" points="134,-129 0,-129 0,-110 134,-110 134,-129"/>
<text text-anchor="middle" x="67" y="-117" font-family="Helvetica,sans-Serif" font-size="10.00">hardware/regs/m0plus.h</text>
</a>
</g>
</g>
<!-- Node1&#45;&gt;Node2 -->
<g id="edge1_Node000001_Node000002" class="edge">
<title>Node1&#45;&gt;Node2</title>
<g id="a_edge1_Node000001_Node000002"><a xlink:title=" ">
<path fill="none" stroke="#63b8ff" d="M211.28,-228.18C175.24,-225.95 119.55,-216.91 86,-184 74.07,-172.3 69.56,-153.45 67.89,-139.32"/>
<polygon fill="#63b8ff" stroke="#63b8ff" points="71.37,-138.91 67.08,-129.23 64.39,-139.48 71.37,-138.91"/>
</a>
</g>
</g>
<!-- Node3 -->
<g id="Node000003" class="node">
<title>Node3</title>
<g id="a_Node000003"><a xlink:href="hardware__structs_2include_2hardware_2structs_2m0plus_8h.html" target="_top" xlink:title=" ">
<polygon fill="white" stroke="#666666" points="241,-184 95,-184 95,-165 241,-165 241,-184"/>
<text text-anchor="middle" x="168" y="-172" font-family="Helvetica,sans-Serif" font-size="10.00">hardware/structs/m0plus.h</text>
</a>
</g>
</g>
<!-- Node1&#45;&gt;Node3 -->
<g id="edge2_Node000001_Node000003" class="edge">
<title>Node1&#45;&gt;Node3</title>
<g id="a_edge2_Node000001_Node000003"><a xlink:title=" ">
<path fill="none" stroke="#63b8ff" d="M233.47,-219.98C221.6,-211.92 203.54,-199.65 189.39,-190.03"/>
<polygon fill="#63b8ff" stroke="#63b8ff" points="191,-186.9 180.76,-184.17 187.06,-192.69 191,-186.9"/>
</a>
</g>
</g>
<!-- Node9 -->
<g id="Node000009" class="node">
<title>Node9</title>
<g id="a_Node000009"><a xlink:title=" ">
<polygon fill="#e0e0e0" stroke="#999999" points="390.5,-184 259.5,-184 259.5,-165 390.5,-165 390.5,-184"/>
<text text-anchor="middle" x="325" y="-172" font-family="Helvetica,sans-Serif" font-size="10.00">hardware/structs/nvic.h</text>
</a>
</g>
</g>
<!-- Node1&#45;&gt;Node9 -->
<g id="edge10_Node000001_Node000009" class="edge">
<title>Node1&#45;&gt;Node9</title>
<g id="a_edge10_Node000001_Node000009"><a xlink:title=" ">
<path fill="none" stroke="#63b8ff" d="M258.69,-219.98C270.83,-211.84 289.36,-199.41 303.75,-189.76"/>
<polygon fill="#63b8ff" stroke="#63b8ff" points="305.72,-192.65 312.08,-184.17 301.82,-186.84 305.72,-192.65"/>
</a>
</g>
</g>
<!-- Node10 -->
<g id="Node000010" class="node">
<title>Node10</title>
<g id="a_Node000010"><a xlink:title=" ">
<polygon fill="#e0e0e0" stroke="#999999" points="535.5,-184 408.5,-184 408.5,-165 535.5,-165 535.5,-184"/>
<text text-anchor="middle" x="472" y="-172" font-family="Helvetica,sans-Serif" font-size="10.00">hardware/structs/scb.h</text>
</a>
</g>
</g>
<!-- Node1&#45;&gt;Node10 -->
<g id="edge11_Node000001_Node000010" class="edge">
<title>Node1&#45;&gt;Node10</title>
<g id="a_edge11_Node000001_Node000010"><a xlink:title=" ">
<path fill="none" stroke="#63b8ff" d="M280.82,-220.33C319.68,-211.22 382.73,-196.44 425.72,-186.35"/>
<polygon fill="#63b8ff" stroke="#63b8ff" points="426.71,-189.72 435.65,-184.03 425.11,-182.9 426.71,-189.72"/>
</a>
</g>
</g>
<!-- Node3&#45;&gt;Node2 -->
<g id="edge9_Node000003_Node000002" class="edge">
<title>Node3&#45;&gt;Node2</title>
<g id="a_edge9_Node000003_Node000002"><a xlink:title=" ">
<path fill="none" stroke="#63b8ff" d="M151.77,-164.98C135.82,-156.61 111.22,-143.7 92.62,-133.95"/>
<polygon fill="#63b8ff" stroke="#63b8ff" points="94,-130.72 83.52,-129.17 90.75,-136.92 94,-130.72"/>
</a>
</g>
</g>
<!-- Node4 -->
<g id="Node000004" class="node">
<title>Node4</title>
<g id="a_Node000004"><a xlink:href="address__mapped_8h.html" target="_top" xlink:title=" ">
<polygon fill="white" stroke="#666666" points="310,-129 152,-129 152,-110 310,-110 310,-129"/>
<text text-anchor="middle" x="231" y="-117" font-family="Helvetica,sans-Serif" font-size="10.00">hardware/address_mapped.h</text>
</a>
</g>
</g>
<!-- Node3&#45;&gt;Node4 -->
<g id="edge3_Node000003_Node000004" class="edge">
<title>Node3&#45;&gt;Node4</title>
<g id="a_edge3_Node000003_Node000004"><a xlink:title=" ">
<path fill="none" stroke="#63b8ff" d="M178.12,-164.98C187.44,-157.15 201.47,-145.34 212.74,-135.86"/>
<polygon fill="#63b8ff" stroke="#63b8ff" points="215.29,-138.29 220.69,-129.17 210.79,-132.93 215.29,-138.29"/>
</a>
</g>
</g>
<!-- Node5 -->
<g id="Node000005" class="node">
<title>Node5</title>
<g id="a_Node000005"><a xlink:title=" ">
<polygon fill="#e0e0e0" stroke="#999999" points="46,-74 0,-74 0,-55 46,-55 46,-74"/>
<text text-anchor="middle" x="23" y="-62" font-family="Helvetica,sans-Serif" font-size="10.00">pico.h</text>
</a>
</g>
</g>
<!-- Node4&#45;&gt;Node5 -->
<g id="edge4_Node000004_Node000005" class="edge">
<title>Node4&#45;&gt;Node5</title>
<g id="a_edge4_Node000004_Node000005"><a xlink:title=" ">
<path fill="none" stroke="#63b8ff" d="M196.57,-109.92C163.08,-101.55 110.5,-88.34 55.91,-74.21"/>
<polygon fill="#63b8ff" stroke="#63b8ff" points="56.62,-70.78 46.06,-71.66 54.87,-77.56 56.62,-70.78"/>
</a>
</g>
</g>
<!-- Node6 -->
<g id="Node000006" class="node">
<title>Node6</title>
<g id="a_Node000006"><a xlink:title=" ">
<polygon fill="#e0e0e0" stroke="#999999" points="222,-74 64,-74 64,-55 222,-55 222,-74"/>
<text text-anchor="middle" x="143" y="-62" font-family="Helvetica,sans-Serif" font-size="10.00">hardware/regs/addressmap.h</text>
</a>
</g>
</g>
<!-- Node4&#45;&gt;Node6 -->
<g id="edge5_Node000004_Node000006" class="edge">
<title>Node4&#45;&gt;Node6</title>
<g id="a_edge5_Node000004_Node000006"><a xlink:title=" ">
<path fill="none" stroke="#63b8ff" d="M216.86,-109.98C203.21,-101.77 182.31,-89.18 166.22,-79.49"/>
<polygon fill="#63b8ff" stroke="#63b8ff" points="167.77,-76.33 157.4,-74.17 164.16,-82.33 167.77,-76.33"/>
</a>
</g>
</g>
<!-- Node7 -->
<g id="Node000007" class="node">
<title>Node7</title>
<g id="a_Node000007"><a xlink:href="hardware__structs_2include_2hardware_2structs_2accessctrl_8h.html" target="_top" xlink:title=" ">
<polygon fill="white" stroke="#666666" points="398.5,-74 239.5,-74 239.5,-55 398.5,-55 398.5,-74"/>
<text text-anchor="middle" x="319" y="-62" font-family="Helvetica,sans-Serif" font-size="10.00">hardware/structs/accessctrl.h</text>
</a>
</g>
</g>
<!-- Node4&#45;&gt;Node7 -->
<g id="edge6_Node000004_Node000007" class="edge">
<title>Node4&#45;&gt;Node7</title>
<g id="a_edge6_Node000004_Node000007"><a xlink:title=" ">
<path fill="none" stroke="#63b8ff" d="M240.02,-109.98C251.97,-101.69 272.84,-88.94 290.23,-79.22"/>
<polygon fill="#63b8ff" stroke="#63b8ff" points="292.36,-82.04 299.46,-74.17 289,-75.9 292.36,-82.04"/>
</a>
</g>
</g>
<!-- Node7&#45;&gt;Node4 -->
<g id="edge7_Node000007_Node000004" class="edge">
<title>Node7&#45;&gt;Node4</title>
<g id="a_edge7_Node000007_Node000004"><a xlink:title=" ">
<path fill="none" stroke="#63b8ff" d="M309.75,-74.17C297.7,-82.52 276.79,-95.28 259.45,-104.97"/>
<polygon fill="#63b8ff" stroke="#63b8ff" points="257.35,-102.12 250.25,-109.98 260.71,-108.26 257.35,-102.12"/>
</a>
</g>
</g>
<!-- Node8 -->
<g id="Node000008" class="node">
<title>Node8</title>
<g id="a_Node000008"><a xlink:href="hardware__regs_2include_2hardware_2regs_2accessctrl_8h.html" target="_top" xlink:title=" ">
<polygon fill="white" stroke="#666666" points="392.5,-19 245.5,-19 245.5,0 392.5,0 392.5,-19"/>
<text text-anchor="middle" x="319" y="-7" font-family="Helvetica,sans-Serif" font-size="10.00">hardware/regs/accessctrl.h</text>
</a>
</g>
</g>
<!-- Node7&#45;&gt;Node8 -->
<g id="edge8_Node000007_Node000008" class="edge">
<title>Node7&#45;&gt;Node8</title>
<g id="a_edge8_Node000007_Node000008"><a xlink:title=" ">
<path fill="none" stroke="#63b8ff" d="M319,-54.75C319,-47.8 319,-37.85 319,-29.13"/>
<polygon fill="#63b8ff" stroke="#63b8ff" points="322.5,-29.09 319,-19.09 315.5,-29.09 322.5,-29.09"/>
</a>
</g>
</g>
</g>
</svg>
