<?xml version="1.0" encoding="UTF-8" standalone="no"?>
<!DOCTYPE svg PUBLIC "-//W3C//DTD SVG 1.1//EN"
 "http://www.w3.org/Graphics/SVG/1.1/DTD/svg11.dtd">
<!-- Generated by graphviz version 2.43.0 (0)
 -->
<!-- Title: RP2350.h Pages: 1 -->
<svg width="236pt" height="192pt"
 viewBox="0.00 0.00 236.22 192.00" xmlns="http://www.w3.org/2000/svg" xmlns:xlink="http://www.w3.org/1999/xlink">
<g id="graph0" class="graph" transform="scale(1 1) rotate(0) translate(4 188)">
<title>RP2350.h</title>
<!-- Node1 -->
<g id="Node000001" class="node">
<title>Node1</title>
<g id="a_Node000001"><a xlink:title=" ">
<polygon fill="#999999" stroke="#666666" points="146.22,-184 84.22,-184 84.22,-165 146.22,-165 146.22,-184"/>
<text text-anchor="middle" x="115.22" y="-172" font-family="Helvetica,sans-Serif" font-size="10.00">RP2350.h</text>
</a>
</g>
</g>
<!-- Node2 -->
<g id="Node000002" class="node">
<title>Node2</title>
<g id="a_Node000002"><a xlink:href="core__cm33_8h.html" target="_top" xlink:title=" ">
<polygon fill="white" stroke="#666666" points="99.72,-129 20.72,-129 20.72,-110 99.72,-110 99.72,-129"/>
<text text-anchor="middle" x="60.22" y="-117" font-family="Helvetica,sans-Serif" font-size="10.00">core_cm33.h</text>
</a>
</g>
</g>
<!-- Node1&#45;&gt;Node2 -->
<g id="edge1_Node000001_Node000002" class="edge">
<title>Node1&#45;&gt;Node2</title>
<g id="a_edge1_Node000001_Node000002"><a xlink:title=" ">
<path fill="none" stroke="#63b8ff" d="M106.14,-164.75C98.13,-157.03 86.27,-145.6 76.6,-136.28"/>
<polygon fill="#63b8ff" stroke="#63b8ff" points="78.77,-133.51 69.14,-129.09 73.91,-138.55 78.77,-133.51"/>
</a>
</g>
</g>
<!-- Node6 -->
<g id="Node000006" class="node">
<title>Node6</title>
<g id="a_Node000006"><a xlink:href="system__RP2350_8h.html" target="_top" xlink:title="CMSIS&#45;Core(M) Device Peripheral Access Layer Header File for Device RP2350.">
<polygon fill="white" stroke="#666666" points="222.22,-129 118.22,-129 118.22,-110 222.22,-110 222.22,-129"/>
<text text-anchor="middle" x="170.22" y="-117" font-family="Helvetica,sans-Serif" font-size="10.00">system_RP2350.h</text>
</a>
</g>
</g>
<!-- Node1&#45;&gt;Node6 -->
<g id="edge6_Node000001_Node000006" class="edge">
<title>Node1&#45;&gt;Node6</title>
<g id="a_edge6_Node000001_Node000006"><a xlink:title=" ">
<path fill="none" stroke="#63b8ff" d="M124.31,-164.75C132.32,-157.03 144.18,-145.6 153.85,-136.28"/>
<polygon fill="#63b8ff" stroke="#63b8ff" points="156.54,-138.55 161.31,-129.09 151.68,-133.51 156.54,-138.55"/>
</a>
</g>
</g>
<!-- Node3 -->
<g id="Node000003" class="node">
<title>Node3</title>
<g id="a_Node000003"><a xlink:title=" ">
<polygon fill="#e0e0e0" stroke="#999999" points="106.72,-19 53.72,-19 53.72,0 106.72,0 106.72,-19"/>
<text text-anchor="middle" x="80.22" y="-7" font-family="Helvetica,sans-Serif" font-size="10.00">stdint.h</text>
</a>
</g>
</g>
<!-- Node2&#45;&gt;Node3 -->
<g id="edge2_Node000002_Node000003" class="edge">
<title>Node2&#45;&gt;Node3</title>
<g id="a_edge2_Node000002_Node000003"><a xlink:title=" ">
<path fill="none" stroke="#63b8ff" d="M42.1,-109.8C20.95,-98.39 -9.59,-77.2 3.22,-55 12.11,-39.61 28.57,-29.06 44,-22.11"/>
<polygon fill="#63b8ff" stroke="#63b8ff" points="45.48,-25.29 53.4,-18.24 42.82,-18.81 45.48,-25.29"/>
</a>
</g>
</g>
<!-- Node4 -->
<g id="Node000004" class="node">
<title>Node4</title>
<g id="a_Node000004"><a xlink:href="cmsis__version_8h.html" target="_top" xlink:title=" ">
<polygon fill="white" stroke="#666666" points="107.72,-74 12.72,-74 12.72,-55 107.72,-55 107.72,-74"/>
<text text-anchor="middle" x="60.22" y="-62" font-family="Helvetica,sans-Serif" font-size="10.00">cmsis_version.h</text>
</a>
</g>
</g>
<!-- Node2&#45;&gt;Node4 -->
<g id="edge3_Node000002_Node000004" class="edge">
<title>Node2&#45;&gt;Node4</title>
<g id="a_edge3_Node000002_Node000004"><a xlink:title=" ">
<path fill="none" stroke="#63b8ff" d="M60.22,-109.75C60.22,-102.8 60.22,-92.85 60.22,-84.13"/>
<polygon fill="#63b8ff" stroke="#63b8ff" points="63.72,-84.09 60.22,-74.09 56.72,-84.09 63.72,-84.09"/>
</a>
</g>
</g>
<!-- Node5 -->
<g id="Node000005" class="node">
<title>Node5</title>
<g id="a_Node000005"><a xlink:href="cmsis__compiler_8h.html" target="_top" xlink:title=" ">
<polygon fill="white" stroke="#666666" points="228.22,-74 126.22,-74 126.22,-55 228.22,-55 228.22,-74"/>
<text text-anchor="middle" x="177.22" y="-62" font-family="Helvetica,sans-Serif" font-size="10.00">cmsis_compiler.h</text>
</a>
</g>
</g>
<!-- Node2&#45;&gt;Node5 -->
<g id="edge4_Node000002_Node000005" class="edge">
<title>Node2&#45;&gt;Node5</title>
<g id="a_edge4_Node000002_Node000005"><a xlink:title=" ">
<path fill="none" stroke="#63b8ff" d="M79.02,-109.98C97.84,-101.46 127.05,-88.23 148.72,-78.41"/>
<polygon fill="#63b8ff" stroke="#63b8ff" points="150.42,-81.48 158.08,-74.17 147.53,-75.11 150.42,-81.48"/>
</a>
</g>
</g>
<!-- Node5&#45;&gt;Node3 -->
<g id="edge5_Node000005_Node000003" class="edge">
<title>Node5&#45;&gt;Node3</title>
<g id="a_edge5_Node000005_Node000003"><a xlink:title=" ">
<path fill="none" stroke="#63b8ff" d="M161.64,-54.98C146.46,-46.69 123.13,-33.94 105.33,-24.22"/>
<polygon fill="#63b8ff" stroke="#63b8ff" points="106.55,-20.89 96.09,-19.17 103.19,-27.04 106.55,-20.89"/>
</a>
</g>
</g>
</g>
</svg>
