<?xml version="1.0" encoding="UTF-8" standalone="no"?>
<!DOCTYPE svg PUBLIC "-//W3C//DTD SVG 1.1//EN"
 "http://www.w3.org/Graphics/SVG/1.1/DTD/svg11.dtd">
<!-- Generated by graphviz version 2.43.0 (0)
 -->
<!-- Title: powman.h Pages: 1 -->
<svg width="417pt" height="203pt"
 viewBox="0.00 0.00 417.00 203.00" xmlns="http://www.w3.org/2000/svg" xmlns:xlink="http://www.w3.org/1999/xlink">
<g id="graph0" class="graph" transform="scale(1 1) rotate(0) translate(4 199)">
<title>powman.h</title>
<!-- Node1 -->
<g id="Node000001" class="node">
<title>Node1</title>
<g id="a_Node000001"><a xlink:title=" ">
<polygon fill="#999999" stroke="#666666" points="223.5,-195 155.5,-195 155.5,-176 223.5,-176 223.5,-195"/>
<text text-anchor="middle" x="189.5" y="-183" font-family="Helvetica,sans-Serif" font-size="10.00">powman.h</text>
</a>
</g>
</g>
<!-- Node2 -->
<g id="Node000002" class="node">
<title>Node2</title>
<g id="a_Node000002"><a xlink:href="rp2350_2hardware__structs_2include_2hardware_2structs_2powman_8h.html" target="_top" xlink:title=" ">
<polygon fill="white" stroke="#666666" points="223.5,-140 155.5,-140 155.5,-121 223.5,-121 223.5,-140"/>
<text text-anchor="middle" x="189.5" y="-128" font-family="Helvetica,sans-Serif" font-size="10.00">powman.h</text>
</a>
</g>
</g>
<!-- Node1&#45;&gt;Node2 -->
<g id="edge1_Node000001_Node000002" class="edge">
<title>Node1&#45;&gt;Node2</title>
<g id="a_edge1_Node000001_Node000002"><a xlink:title=" ">
<path fill="none" stroke="#63b8ff" d="M189.5,-165.66C189.5,-156.93 189.5,-146.99 189.5,-140.09"/>
<polygon fill="#63b8ff" stroke="#63b8ff" points="186,-165.75 189.5,-175.75 193,-165.75 186,-165.75"/>
</a>
</g>
</g>
<!-- Node3 -->
<g id="Node000003" class="node">
<title>Node3</title>
<g id="a_Node000003"><a xlink:href="pico__bootsel__via__double__reset_8c.html" target="_top" xlink:title=" ">
<polygon fill="white" stroke="#666666" points="137,-85 0,-85 0,-55 137,-55 137,-85"/>
<text text-anchor="start" x="8" y="-73" font-family="Helvetica,sans-Serif" font-size="10.00">pico_bootsel_via_double</text>
<text text-anchor="middle" x="68.5" y="-62" font-family="Helvetica,sans-Serif" font-size="10.00">_reset.c</text>
</a>
</g>
</g>
<!-- Node2&#45;&gt;Node3 -->
<g id="edge2_Node000002_Node000003" class="edge">
<title>Node2&#45;&gt;Node3</title>
<g id="a_edge2_Node000002_Node000003"><a xlink:title=" ">
<path fill="none" stroke="#63b8ff" d="M162.8,-116.59C143.57,-107.29 117.63,-94.75 97.82,-85.18"/>
<polygon fill="#63b8ff" stroke="#63b8ff" points="161.38,-119.79 171.91,-120.99 164.43,-113.49 161.38,-119.79"/>
</a>
</g>
</g>
<!-- Node4 -->
<g id="Node000004" class="node">
<title>Node4</title>
<g id="a_Node000004"><a xlink:href="rp2__common_2hardware__powman_2include_2hardware_2powman_8h.html" target="_top" xlink:title=" ">
<polygon fill="white" stroke="#666666" points="223.5,-79.5 155.5,-79.5 155.5,-60.5 223.5,-60.5 223.5,-79.5"/>
<text text-anchor="middle" x="189.5" y="-67.5" font-family="Helvetica,sans-Serif" font-size="10.00">powman.h</text>
</a>
</g>
</g>
<!-- Node2&#45;&gt;Node4 -->
<g id="edge3_Node000002_Node000004" class="edge">
<title>Node2&#45;&gt;Node4</title>
<g id="a_edge3_Node000002_Node000004"><a xlink:title=" ">
<path fill="none" stroke="#63b8ff" d="M189.5,-110.66C189.5,-100.24 189.5,-87.8 189.5,-79.67"/>
<polygon fill="#63b8ff" stroke="#63b8ff" points="186,-110.87 189.5,-120.87 193,-110.87 186,-110.87"/>
</a>
</g>
</g>
<!-- Node6 -->
<g id="Node000006" class="node">
<title>Node6</title>
<g id="a_Node000006"><a xlink:href="vreg_8h.html" target="_top" xlink:title=" ">
<polygon fill="white" stroke="#666666" points="307,-79.5 260,-79.5 260,-60.5 307,-60.5 307,-79.5"/>
<text text-anchor="middle" x="283.5" y="-67.5" font-family="Helvetica,sans-Serif" font-size="10.00">vreg.h</text>
</a>
</g>
</g>
<!-- Node2&#45;&gt;Node6 -->
<g id="edge5_Node000002_Node000006" class="edge">
<title>Node2&#45;&gt;Node6</title>
<g id="a_edge5_Node000002_Node000006"><a xlink:title=" ">
<path fill="none" stroke="#63b8ff" d="M212.05,-115.47C229.95,-104.32 254.42,-89.1 269.57,-79.67"/>
<polygon fill="#63b8ff" stroke="#63b8ff" points="210.01,-112.61 203.37,-120.87 213.71,-118.56 210.01,-112.61"/>
</a>
</g>
</g>
<!-- Node5 -->
<g id="Node000005" class="node">
<title>Node5</title>
<g id="a_Node000005"><a xlink:href="powman_8c.html" target="_top" xlink:title=" ">
<polygon fill="white" stroke="#666666" points="205,-19 138,-19 138,0 205,0 205,-19"/>
<text text-anchor="middle" x="171.5" y="-7" font-family="Helvetica,sans-Serif" font-size="10.00">powman.c</text>
</a>
</g>
</g>
<!-- Node4&#45;&gt;Node5 -->
<g id="edge4_Node000004_Node000005" class="edge">
<title>Node4&#45;&gt;Node5</title>
<g id="a_edge4_Node000004_Node000005"><a xlink:title=" ">
<path fill="none" stroke="#63b8ff" d="M183.81,-50.49C180.58,-40.01 176.7,-27.39 174.17,-19.17"/>
<polygon fill="#63b8ff" stroke="#63b8ff" points="180.56,-51.84 186.84,-60.37 187.25,-49.78 180.56,-51.84"/>
</a>
</g>
</g>
<!-- Node7 -->
<g id="Node000007" class="node">
<title>Node7</title>
<g id="a_Node000007"><a xlink:href="runtime__init__clocks_8c.html" target="_top" xlink:title=" ">
<polygon fill="white" stroke="#666666" points="343.5,-19 223.5,-19 223.5,0 343.5,0 343.5,-19"/>
<text text-anchor="middle" x="283.5" y="-7" font-family="Helvetica,sans-Serif" font-size="10.00">runtime_init_clocks.c</text>
</a>
</g>
</g>
<!-- Node6&#45;&gt;Node7 -->
<g id="edge6_Node000006_Node000007" class="edge">
<title>Node6&#45;&gt;Node7</title>
<g id="a_edge6_Node000006_Node000007"><a xlink:title=" ">
<path fill="none" stroke="#63b8ff" d="M283.5,-50.16C283.5,-39.74 283.5,-27.3 283.5,-19.17"/>
<polygon fill="#63b8ff" stroke="#63b8ff" points="280,-50.37 283.5,-60.37 287,-50.37 280,-50.37"/>
</a>
</g>
</g>
<!-- Node8 -->
<g id="Node000008" class="node">
<title>Node8</title>
<g id="a_Node000008"><a xlink:href="vreg_8c.html" target="_top" xlink:title=" ">
<polygon fill="white" stroke="#666666" points="409,-19 362,-19 362,0 409,0 409,-19"/>
<text text-anchor="middle" x="385.5" y="-7" font-family="Helvetica,sans-Serif" font-size="10.00">vreg.c</text>
</a>
</g>
</g>
<!-- Node6&#45;&gt;Node8 -->
<g id="edge7_Node000006_Node000008" class="edge">
<title>Node6&#45;&gt;Node8</title>
<g id="a_edge7_Node000006_Node000008"><a xlink:title=" ">
<path fill="none" stroke="#63b8ff" d="M307.44,-55.27C326.91,-44.1 353.79,-28.69 370.39,-19.17"/>
<polygon fill="#63b8ff" stroke="#63b8ff" points="305.48,-52.36 298.55,-60.37 308.97,-58.43 305.48,-52.36"/>
</a>
</g>
</g>
</g>
</svg>
