<?xml version="1.0" encoding="UTF-8" standalone="no"?>
<!DOCTYPE svg PUBLIC "-//W3C//DTD SVG 1.1//EN"
 "http://www.w3.org/Graphics/SVG/1.1/DTD/svg11.dtd">
<!-- Generated by graphviz version 2.43.0 (0)
 -->
<!-- Title: usb.h Pages: 1 -->
<svg width="590pt" height="203pt"
 viewBox="0.00 0.00 589.50 203.00" xmlns="http://www.w3.org/2000/svg" xmlns:xlink="http://www.w3.org/1999/xlink">
<g id="graph0" class="graph" transform="scale(1 1) rotate(0) translate(4 199)">
<title>usb.h</title>
<!-- Node1 -->
<g id="Node000001" class="node">
<title>Node1</title>
<g id="a_Node000001"><a xlink:title=" ">
<polygon fill="#999999" stroke="#666666" points="407.5,-195 364.5,-195 364.5,-176 407.5,-176 407.5,-195"/>
<text text-anchor="middle" x="386" y="-183" font-family="Helvetica,sans-Serif" font-size="10.00">usb.h</text>
</a>
</g>
</g>
<!-- Node2 -->
<g id="Node000002" class="node">
<title>Node2</title>
<g id="a_Node000002"><a xlink:href="address__mapped_8h.html" target="_top" xlink:title=" ">
<polygon fill="white" stroke="#666666" points="310,-134.5 152,-134.5 152,-115.5 310,-115.5 310,-134.5"/>
<text text-anchor="middle" x="231" y="-122.5" font-family="Helvetica,sans-Serif" font-size="10.00">hardware/address_mapped.h</text>
</a>
</g>
</g>
<!-- Node1&#45;&gt;Node2 -->
<g id="edge1_Node000001_Node000002" class="edge">
<title>Node1&#45;&gt;Node2</title>
<g id="a_edge1_Node000001_Node000002"><a xlink:title=" ">
<path fill="none" stroke="#63b8ff" d="M364.45,-176.37C338.22,-166.47 293.67,-149.65 263.33,-138.2"/>
<polygon fill="#63b8ff" stroke="#63b8ff" points="264.22,-134.8 253.63,-134.54 261.75,-141.35 264.22,-134.8"/>
</a>
</g>
</g>
<!-- Node7 -->
<g id="Node000007" class="node">
<title>Node7</title>
<g id="a_Node000007"><a xlink:title=" ">
<polygon fill="#e0e0e0" stroke="#999999" points="444,-134.5 328,-134.5 328,-115.5 444,-115.5 444,-134.5"/>
<text text-anchor="middle" x="386" y="-122.5" font-family="Helvetica,sans-Serif" font-size="10.00">hardware/regs/usb.h</text>
</a>
</g>
</g>
<!-- Node1&#45;&gt;Node7 -->
<g id="edge7_Node000001_Node000007" class="edge">
<title>Node1&#45;&gt;Node7</title>
<g id="a_edge7_Node000001_Node000007"><a xlink:title=" ">
<path fill="none" stroke="#63b8ff" d="M386,-175.87C386,-167.75 386,-155.31 386,-144.89"/>
<polygon fill="#63b8ff" stroke="#63b8ff" points="389.5,-144.67 386,-134.67 382.5,-144.67 389.5,-144.67"/>
</a>
</g>
</g>
<!-- Node8 -->
<g id="Node000008" class="node">
<title>Node8</title>
<g id="a_Node000008"><a xlink:title=" ">
<polygon fill="#e0e0e0" stroke="#999999" points="581.5,-140 462.5,-140 462.5,-110 581.5,-110 581.5,-140"/>
<text text-anchor="start" x="470.5" y="-128" font-family="Helvetica,sans-Serif" font-size="10.00">hardware/structs/usb</text>
<text text-anchor="middle" x="522" y="-117" font-family="Helvetica,sans-Serif" font-size="10.00">_dpram.h</text>
</a>
</g>
</g>
<!-- Node1&#45;&gt;Node8 -->
<g id="edge8_Node000001_Node000008" class="edge">
<title>Node1&#45;&gt;Node8</title>
<g id="a_edge8_Node000001_Node000008"><a xlink:title=" ">
<path fill="none" stroke="#63b8ff" d="M405.78,-175.99C425.09,-167.68 455.1,-154.78 479.79,-144.16"/>
<polygon fill="#63b8ff" stroke="#63b8ff" points="481.5,-147.23 489.3,-140.06 478.73,-140.8 481.5,-147.23"/>
</a>
</g>
</g>
<!-- Node3 -->
<g id="Node000003" class="node">
<title>Node3</title>
<g id="a_Node000003"><a xlink:title=" ">
<polygon fill="#e0e0e0" stroke="#999999" points="46,-74 0,-74 0,-55 46,-55 46,-74"/>
<text text-anchor="middle" x="23" y="-62" font-family="Helvetica,sans-Serif" font-size="10.00">pico.h</text>
</a>
</g>
</g>
<!-- Node2&#45;&gt;Node3 -->
<g id="edge2_Node000002_Node000003" class="edge">
<title>Node2&#45;&gt;Node3</title>
<g id="a_edge2_Node000002_Node000003"><a xlink:title=" ">
<path fill="none" stroke="#63b8ff" d="M200.76,-115.49C162.2,-104.65 95.77,-85.97 55.96,-74.77"/>
<polygon fill="#63b8ff" stroke="#63b8ff" points="56.78,-71.36 46.2,-72.03 54.88,-78.1 56.78,-71.36"/>
</a>
</g>
</g>
<!-- Node4 -->
<g id="Node000004" class="node">
<title>Node4</title>
<g id="a_Node000004"><a xlink:title=" ">
<polygon fill="#e0e0e0" stroke="#999999" points="222,-74 64,-74 64,-55 222,-55 222,-74"/>
<text text-anchor="middle" x="143" y="-62" font-family="Helvetica,sans-Serif" font-size="10.00">hardware/regs/addressmap.h</text>
</a>
</g>
</g>
<!-- Node2&#45;&gt;Node4 -->
<g id="edge3_Node000002_Node000004" class="edge">
<title>Node2&#45;&gt;Node4</title>
<g id="a_edge3_Node000002_Node000004"><a xlink:title=" ">
<path fill="none" stroke="#63b8ff" d="M218.02,-115.37C203.98,-106.04 181.37,-91.01 164.64,-79.88"/>
<polygon fill="#63b8ff" stroke="#63b8ff" points="166.3,-76.79 156.04,-74.17 162.43,-82.62 166.3,-76.79"/>
</a>
</g>
</g>
<!-- Node5 -->
<g id="Node000005" class="node">
<title>Node5</title>
<g id="a_Node000005"><a xlink:href="hardware__structs_2include_2hardware_2structs_2accessctrl_8h.html" target="_top" xlink:title=" ">
<polygon fill="white" stroke="#666666" points="398.5,-74 239.5,-74 239.5,-55 398.5,-55 398.5,-74"/>
<text text-anchor="middle" x="319" y="-62" font-family="Helvetica,sans-Serif" font-size="10.00">hardware/structs/accessctrl.h</text>
</a>
</g>
</g>
<!-- Node2&#45;&gt;Node5 -->
<g id="edge4_Node000002_Node000005" class="edge">
<title>Node2&#45;&gt;Node5</title>
<g id="a_edge4_Node000002_Node000005"><a xlink:title=" ">
<path fill="none" stroke="#63b8ff" d="M239.03,-115.37C251.16,-105.95 273.76,-90.73 291.96,-79.58"/>
<polygon fill="#63b8ff" stroke="#63b8ff" points="294.21,-82.3 301,-74.17 290.62,-76.3 294.21,-82.3"/>
</a>
</g>
</g>
<!-- Node5&#45;&gt;Node2 -->
<g id="edge5_Node000005_Node000002" class="edge">
<title>Node5&#45;&gt;Node2</title>
<g id="a_edge5_Node000005_Node000002"><a xlink:title=" ">
<path fill="none" stroke="#63b8ff" d="M310.93,-74.17C298.77,-83.6 276.16,-98.82 257.97,-109.97"/>
<polygon fill="#63b8ff" stroke="#63b8ff" points="255.73,-107.23 248.94,-115.37 259.32,-113.24 255.73,-107.23"/>
</a>
</g>
</g>
<!-- Node6 -->
<g id="Node000006" class="node">
<title>Node6</title>
<g id="a_Node000006"><a xlink:href="hardware__regs_2include_2hardware_2regs_2accessctrl_8h.html" target="_top" xlink:title=" ">
<polygon fill="white" stroke="#666666" points="392.5,-19 245.5,-19 245.5,0 392.5,0 392.5,-19"/>
<text text-anchor="middle" x="319" y="-7" font-family="Helvetica,sans-Serif" font-size="10.00">hardware/regs/accessctrl.h</text>
</a>
</g>
</g>
<!-- Node5&#45;&gt;Node6 -->
<g id="edge6_Node000005_Node000006" class="edge">
<title>Node5&#45;&gt;Node6</title>
<g id="a_edge6_Node000005_Node000006"><a xlink:title=" ">
<path fill="none" stroke="#63b8ff" d="M319,-54.75C319,-47.8 319,-37.85 319,-29.13"/>
<polygon fill="#63b8ff" stroke="#63b8ff" points="322.5,-29.09 319,-19.09 315.5,-29.09 322.5,-29.09"/>
</a>
</g>
</g>
</g>
</svg>
