<?xml version="1.0" encoding="UTF-8" standalone="no"?>
<!DOCTYPE svg PUBLIC "-//W3C//DTD SVG 1.1//EN"
 "http://www.w3.org/Graphics/SVG/1.1/DTD/svg11.dtd">
<!-- Generated by graphviz version 2.43.0 (0)
 -->
<!-- Title: multicore.h Pages: 1 -->
<svg width="636pt" height="302pt"
 viewBox="0.00 0.00 635.50 302.00" xmlns="http://www.w3.org/2000/svg" xmlns:xlink="http://www.w3.org/1999/xlink">
<g id="graph0" class="graph" transform="scale(1 1) rotate(0) translate(4 298)">
<title>multicore.h</title>
<!-- Node1 -->
<g id="Node000001" class="node">
<title>Node1</title>
<g id="a_Node000001"><a xlink:title=" ">
<polygon fill="#999999" stroke="#666666" points="453,-294 381,-294 381,-275 453,-275 453,-294"/>
<text text-anchor="middle" x="417" y="-282" font-family="Helvetica,sans-Serif" font-size="10.00">multicore.h</text>
</a>
</g>
</g>
<!-- Node2 -->
<g id="Node000002" class="node">
<title>Node2</title>
<g id="a_Node000002"><a xlink:href="common_2pico__base__headers_2include_2pico_2types_8h.html" target="_top" xlink:title=" ">
<polygon fill="white" stroke="#666666" points="190,-239 114,-239 114,-220 190,-220 190,-239"/>
<text text-anchor="middle" x="152" y="-227" font-family="Helvetica,sans-Serif" font-size="10.00">pico/types.h</text>
</a>
</g>
</g>
<!-- Node1&#45;&gt;Node2 -->
<g id="edge1_Node000001_Node000002" class="edge">
<title>Node1&#45;&gt;Node2</title>
<g id="a_edge1_Node000001_Node000002"><a xlink:title=" ">
<path fill="none" stroke="#63b8ff" d="M380.99,-276.3C334.15,-266.93 252.2,-250.54 200.09,-240.12"/>
<polygon fill="#63b8ff" stroke="#63b8ff" points="200.57,-236.65 190.08,-238.12 199.2,-243.51 200.57,-236.65"/>
</a>
</g>
</g>
<!-- Node7 -->
<g id="Node000007" class="node">
<title>Node7</title>
<g id="a_Node000007"><a xlink:href="common_2pico__sync_2include_2pico_2sync_8h.html" target="_top" xlink:title=" ">
<polygon fill="white" stroke="#666666" points="452.5,-239 381.5,-239 381.5,-220 452.5,-220 452.5,-239"/>
<text text-anchor="middle" x="417" y="-227" font-family="Helvetica,sans-Serif" font-size="10.00">pico/sync.h</text>
</a>
</g>
</g>
<!-- Node1&#45;&gt;Node7 -->
<g id="edge8_Node000001_Node000007" class="edge">
<title>Node1&#45;&gt;Node7</title>
<g id="a_edge8_Node000001_Node000007"><a xlink:title=" ">
<path fill="none" stroke="#63b8ff" d="M417,-274.75C417,-267.8 417,-257.85 417,-249.13"/>
<polygon fill="#63b8ff" stroke="#63b8ff" points="420.5,-249.09 417,-239.09 413.5,-249.09 420.5,-249.09"/>
</a>
</g>
</g>
<!-- Node16 -->
<g id="Node000016" class="node">
<title>Node16</title>
<g id="a_Node000016"><a xlink:title=" ">
<polygon fill="#e0e0e0" stroke="#999999" points="595.5,-239 470.5,-239 470.5,-220 595.5,-220 595.5,-239"/>
<text text-anchor="middle" x="533" y="-227" font-family="Helvetica,sans-Serif" font-size="10.00">hardware/structs/sio.h</text>
</a>
</g>
</g>
<!-- Node1&#45;&gt;Node16 -->
<g id="edge21_Node000001_Node000016" class="edge">
<title>Node1&#45;&gt;Node16</title>
<g id="a_edge21_Node000001_Node000016"><a xlink:title=" ">
<path fill="none" stroke="#63b8ff" d="M435.64,-274.98C454.3,-266.46 483.25,-253.23 504.74,-243.41"/>
<polygon fill="#63b8ff" stroke="#63b8ff" points="506.38,-246.51 514.02,-239.17 503.47,-240.14 506.38,-246.51"/>
</a>
</g>
</g>
<!-- Node3 -->
<g id="Node000003" class="node">
<title>Node3</title>
<g id="a_Node000003"><a xlink:href="assert_8h.html" target="_top" xlink:title=" ">
<polygon fill="white" stroke="#666666" points="191.5,-184 112.5,-184 112.5,-165 191.5,-165 191.5,-184"/>
<text text-anchor="middle" x="152" y="-172" font-family="Helvetica,sans-Serif" font-size="10.00">pico/assert.h</text>
</a>
</g>
</g>
<!-- Node2&#45;&gt;Node3 -->
<g id="edge2_Node000002_Node000003" class="edge">
<title>Node2&#45;&gt;Node3</title>
<g id="a_edge2_Node000002_Node000003"><a xlink:title=" ">
<path fill="none" stroke="#63b8ff" d="M152,-219.75C152,-212.8 152,-202.85 152,-194.13"/>
<polygon fill="#63b8ff" stroke="#63b8ff" points="155.5,-194.09 152,-184.09 148.5,-194.09 155.5,-194.09"/>
</a>
</g>
</g>
<!-- Node4 -->
<g id="Node000004" class="node">
<title>Node4</title>
<g id="a_Node000004"><a xlink:title=" ">
<polygon fill="#e0e0e0" stroke="#999999" points="149,-129 87,-129 87,-110 149,-110 149,-129"/>
<text text-anchor="middle" x="118" y="-117" font-family="Helvetica,sans-Serif" font-size="10.00">stdbool.h</text>
</a>
</g>
</g>
<!-- Node2&#45;&gt;Node4 -->
<g id="edge6_Node000002_Node000004" class="edge">
<title>Node2&#45;&gt;Node4</title>
<g id="a_edge6_Node000002_Node000004"><a xlink:title=" ">
<path fill="none" stroke="#63b8ff" d="M136.87,-219.73C125.19,-211.99 109.88,-199.55 103,-184 96.42,-169.14 101.93,-151 108.04,-137.92"/>
<polygon fill="#63b8ff" stroke="#63b8ff" points="111.14,-139.53 112.64,-129.04 104.93,-136.31 111.14,-139.53"/>
</a>
</g>
</g>
<!-- Node5 -->
<g id="Node000005" class="node">
<title>Node5</title>
<g id="a_Node000005"><a xlink:title=" ">
<polygon fill="#e0e0e0" stroke="#999999" points="280.5,-184 227.5,-184 227.5,-165 280.5,-165 280.5,-184"/>
<text text-anchor="middle" x="254" y="-172" font-family="Helvetica,sans-Serif" font-size="10.00">stdint.h</text>
</a>
</g>
</g>
<!-- Node2&#45;&gt;Node5 -->
<g id="edge5_Node000002_Node000005" class="edge">
<title>Node2&#45;&gt;Node5</title>
<g id="a_edge5_Node000002_Node000005"><a xlink:title=" ">
<path fill="none" stroke="#63b8ff" d="M168.39,-219.98C184.57,-211.57 209.57,-198.59 228.38,-188.81"/>
<polygon fill="#63b8ff" stroke="#63b8ff" points="230.05,-191.89 237.31,-184.17 226.83,-185.68 230.05,-191.89"/>
</a>
</g>
</g>
<!-- Node6 -->
<g id="Node000006" class="node">
<title>Node6</title>
<g id="a_Node000006"><a xlink:title=" ">
<polygon fill="#e0e0e0" stroke="#999999" points="56,-184 0,-184 0,-165 56,-165 56,-184"/>
<text text-anchor="middle" x="28" y="-172" font-family="Helvetica,sans-Serif" font-size="10.00">stddef.h</text>
</a>
</g>
</g>
<!-- Node2&#45;&gt;Node6 -->
<g id="edge7_Node000002_Node000006" class="edge">
<title>Node2&#45;&gt;Node6</title>
<g id="a_edge7_Node000002_Node000006"><a xlink:title=" ">
<path fill="none" stroke="#63b8ff" d="M132.08,-219.98C111.95,-211.38 80.62,-197.99 57.59,-188.15"/>
<polygon fill="#63b8ff" stroke="#63b8ff" points="58.86,-184.88 48.29,-184.17 56.1,-191.32 58.86,-184.88"/>
</a>
</g>
</g>
<!-- Node3&#45;&gt;Node3 -->
<g id="edge4_Node000003_Node000003" class="edge">
<title>Node3&#45;&gt;Node3</title>
<g id="a_edge4_Node000003_Node000003"><a xlink:title=" ">
<path fill="none" stroke="#63b8ff" d="M178.91,-184.03C194.71,-186.06 209.5,-182.88 209.5,-174.5 209.5,-167.95 200.47,-164.58 188.99,-164.38"/>
<polygon fill="#63b8ff" stroke="#63b8ff" points="188.69,-160.9 178.91,-164.97 189.1,-167.88 188.69,-160.9"/>
</a>
</g>
</g>
<!-- Node3&#45;&gt;Node4 -->
<g id="edge3_Node000003_Node000004" class="edge">
<title>Node3&#45;&gt;Node4</title>
<g id="a_edge3_Node000003_Node000004"><a xlink:title=" ">
<path fill="none" stroke="#63b8ff" d="M146.39,-164.75C141.68,-157.42 134.83,-146.73 129.03,-137.7"/>
<polygon fill="#63b8ff" stroke="#63b8ff" points="131.86,-135.62 123.51,-129.09 125.96,-139.4 131.86,-135.62"/>
</a>
</g>
</g>
<!-- Node8 -->
<g id="Node000008" class="node">
<title>Node8</title>
<g id="a_Node000008"><a xlink:href="sem_8h.html" target="_top" xlink:title=" ">
<polygon fill="white" stroke="#666666" points="509,-184 439,-184 439,-165 509,-165 509,-184"/>
<text text-anchor="middle" x="474" y="-172" font-family="Helvetica,sans-Serif" font-size="10.00">pico/sem.h</text>
</a>
</g>
</g>
<!-- Node7&#45;&gt;Node8 -->
<g id="edge9_Node000007_Node000008" class="edge">
<title>Node7&#45;&gt;Node8</title>
<g id="a_edge9_Node000007_Node000008"><a xlink:title=" ">
<path fill="none" stroke="#63b8ff" d="M426.16,-219.98C434.5,-212.23 447.03,-200.58 457.18,-191.14"/>
<polygon fill="#63b8ff" stroke="#63b8ff" points="459.74,-193.54 464.68,-184.17 454.97,-188.42 459.74,-193.54"/>
</a>
</g>
</g>
<!-- Node14 -->
<g id="Node000014" class="node">
<title>Node14</title>
<g id="a_Node000014"><a xlink:href="mutex_8h.html" target="_top" xlink:title=" ">
<polygon fill="white" stroke="#666666" points="607,-184 527,-184 527,-165 607,-165 607,-184"/>
<text text-anchor="middle" x="567" y="-172" font-family="Helvetica,sans-Serif" font-size="10.00">pico/mutex.h</text>
</a>
</g>
</g>
<!-- Node7&#45;&gt;Node14 -->
<g id="edge16_Node000007_Node000014" class="edge">
<title>Node7&#45;&gt;Node14</title>
<g id="a_edge16_Node000007_Node000014"><a xlink:title=" ">
<path fill="none" stroke="#63b8ff" d="M441.1,-219.98C465.88,-211.23 504.7,-197.51 532.69,-187.62"/>
<polygon fill="#63b8ff" stroke="#63b8ff" points="534.2,-190.8 542.46,-184.17 531.87,-184.2 534.2,-190.8"/>
</a>
</g>
</g>
<!-- Node15 -->
<g id="Node000015" class="node">
<title>Node15</title>
<g id="a_Node000015"><a xlink:href="critical__section_8h.html" target="_top" xlink:title=" ">
<polygon fill="white" stroke="#666666" points="421,-184 299,-184 299,-165 421,-165 421,-184"/>
<text text-anchor="middle" x="360" y="-172" font-family="Helvetica,sans-Serif" font-size="10.00">pico/critical_section.h</text>
</a>
</g>
</g>
<!-- Node7&#45;&gt;Node15 -->
<g id="edge18_Node000007_Node000015" class="edge">
<title>Node7&#45;&gt;Node15</title>
<g id="a_edge18_Node000007_Node000015"><a xlink:title=" ">
<path fill="none" stroke="#63b8ff" d="M407.84,-219.98C399.5,-212.23 386.97,-200.58 376.82,-191.14"/>
<polygon fill="#63b8ff" stroke="#63b8ff" points="379.03,-188.42 369.32,-184.17 374.26,-193.54 379.03,-188.42"/>
</a>
</g>
</g>
<!-- Node9 -->
<g id="Node000009" class="node">
<title>Node9</title>
<g id="a_Node000009"><a xlink:href="lock__core_8h.html" target="_top" xlink:title="Base implementation for locking primitives protected by a spin lock.">
<polygon fill="white" stroke="#666666" points="521.5,-129 426.5,-129 426.5,-110 521.5,-110 521.5,-129"/>
<text text-anchor="middle" x="474" y="-117" font-family="Helvetica,sans-Serif" font-size="10.00">pico/lock_core.h</text>
</a>
</g>
</g>
<!-- Node8&#45;&gt;Node9 -->
<g id="edge10_Node000008_Node000009" class="edge">
<title>Node8&#45;&gt;Node9</title>
<g id="a_edge10_Node000008_Node000009"><a xlink:title=" ">
<path fill="none" stroke="#63b8ff" d="M474,-164.75C474,-157.8 474,-147.85 474,-139.13"/>
<polygon fill="#63b8ff" stroke="#63b8ff" points="477.5,-139.09 474,-129.09 470.5,-139.09 477.5,-139.09"/>
</a>
</g>
</g>
<!-- Node10 -->
<g id="Node000010" class="node">
<title>Node10</title>
<g id="a_Node000010"><a xlink:title=" ">
<polygon fill="#e0e0e0" stroke="#999999" points="421,-19 375,-19 375,0 421,0 421,-19"/>
<text text-anchor="middle" x="398" y="-7" font-family="Helvetica,sans-Serif" font-size="10.00">pico.h</text>
</a>
</g>
</g>
<!-- Node9&#45;&gt;Node10 -->
<g id="edge11_Node000009_Node000010" class="edge">
<title>Node9&#45;&gt;Node10</title>
<g id="a_edge11_Node000009_Node000010"><a xlink:title=" ">
<path fill="none" stroke="#63b8ff" d="M458.83,-109.98C446.2,-102.16 428.62,-89.45 418,-74 408.69,-60.46 403.55,-42.37 400.82,-28.96"/>
<polygon fill="#63b8ff" stroke="#63b8ff" points="404.25,-28.24 399.06,-19 397.36,-29.46 404.25,-28.24"/>
</a>
</g>
</g>
<!-- Node11 -->
<g id="Node000011" class="node">
<title>Node11</title>
<g id="a_Node000011"><a xlink:href="common_2pico__time_2include_2pico_2time_8h.html" target="_top" xlink:title=" ">
<polygon fill="white" stroke="#666666" points="612.5,-74 541.5,-74 541.5,-55 612.5,-55 612.5,-74"/>
<text text-anchor="middle" x="577" y="-62" font-family="Helvetica,sans-Serif" font-size="10.00">pico/time.h</text>
</a>
</g>
</g>
<!-- Node9&#45;&gt;Node11 -->
<g id="edge12_Node000009_Node000011" class="edge">
<title>Node9&#45;&gt;Node11</title>
<g id="a_edge12_Node000009_Node000011"><a xlink:title=" ">
<path fill="none" stroke="#63b8ff" d="M490.55,-109.98C506.89,-101.57 532.13,-88.59 551.13,-78.81"/>
<polygon fill="#63b8ff" stroke="#63b8ff" points="552.86,-81.86 560.15,-74.17 549.66,-75.63 552.86,-81.86"/>
</a>
</g>
</g>
<!-- Node13 -->
<g id="Node000013" class="node">
<title>Node13</title>
<g id="a_Node000013"><a xlink:title=" ">
<polygon fill="#e0e0e0" stroke="#999999" points="523.5,-74 426.5,-74 426.5,-55 523.5,-55 523.5,-74"/>
<text text-anchor="middle" x="475" y="-62" font-family="Helvetica,sans-Serif" font-size="10.00">hardware/sync.h</text>
</a>
</g>
</g>
<!-- Node9&#45;&gt;Node13 -->
<g id="edge15_Node000009_Node000013" class="edge">
<title>Node9&#45;&gt;Node13</title>
<g id="a_edge15_Node000009_Node000013"><a xlink:title=" ">
<path fill="none" stroke="#63b8ff" d="M474.17,-109.75C474.3,-102.8 474.48,-92.85 474.65,-84.13"/>
<polygon fill="#63b8ff" stroke="#63b8ff" points="478.15,-84.15 474.84,-74.09 471.15,-84.02 478.15,-84.15"/>
</a>
</g>
</g>
<!-- Node11&#45;&gt;Node10 -->
<g id="edge13_Node000011_Node000010" class="edge">
<title>Node11&#45;&gt;Node10</title>
<g id="a_edge13_Node000011_Node000010"><a xlink:title=" ">
<path fill="none" stroke="#63b8ff" d="M548.24,-54.98C516.27,-45.52 464.71,-30.25 431.09,-20.3"/>
<polygon fill="#63b8ff" stroke="#63b8ff" points="431.85,-16.87 421.27,-17.39 429.87,-23.59 431.85,-16.87"/>
</a>
</g>
</g>
<!-- Node12 -->
<g id="Node000012" class="node">
<title>Node12</title>
<g id="a_Node000012"><a xlink:title=" ">
<polygon fill="#e0e0e0" stroke="#999999" points="627.5,-19 526.5,-19 526.5,0 627.5,0 627.5,-19"/>
<text text-anchor="middle" x="577" y="-7" font-family="Helvetica,sans-Serif" font-size="10.00">hardware/timer.h</text>
</a>
</g>
</g>
<!-- Node11&#45;&gt;Node12 -->
<g id="edge14_Node000011_Node000012" class="edge">
<title>Node11&#45;&gt;Node12</title>
<g id="a_edge14_Node000011_Node000012"><a xlink:title=" ">
<path fill="none" stroke="#63b8ff" d="M577,-54.75C577,-47.8 577,-37.85 577,-29.13"/>
<polygon fill="#63b8ff" stroke="#63b8ff" points="580.5,-29.09 577,-19.09 573.5,-29.09 580.5,-29.09"/>
</a>
</g>
</g>
<!-- Node14&#45;&gt;Node9 -->
<g id="edge17_Node000014_Node000009" class="edge">
<title>Node14&#45;&gt;Node9</title>
<g id="a_edge17_Node000014_Node000009"><a xlink:title=" ">
<path fill="none" stroke="#63b8ff" d="M552.06,-164.98C537.5,-156.69 515.13,-143.94 498.07,-134.22"/>
<polygon fill="#63b8ff" stroke="#63b8ff" points="499.64,-131.08 489.21,-129.17 496.17,-137.16 499.64,-131.08"/>
</a>
</g>
</g>
<!-- Node15&#45;&gt;Node9 -->
<g id="edge20_Node000015_Node000009" class="edge">
<title>Node15&#45;&gt;Node9</title>
<g id="a_edge20_Node000015_Node000009"><a xlink:title=" ">
<path fill="none" stroke="#63b8ff" d="M378.32,-164.98C396.66,-156.46 425.11,-143.23 446.23,-133.41"/>
<polygon fill="#63b8ff" stroke="#63b8ff" points="447.76,-136.56 455.35,-129.17 444.81,-130.21 447.76,-136.56"/>
</a>
</g>
</g>
<!-- Node15&#45;&gt;Node10 -->
<g id="edge19_Node000015_Node000010" class="edge">
<title>Node15&#45;&gt;Node10</title>
<g id="a_edge19_Node000015_Node000010"><a xlink:title=" ">
<path fill="none" stroke="#63b8ff" d="M362.04,-164.74C368,-139.2 385.43,-64.43 393.63,-29.23"/>
<polygon fill="#63b8ff" stroke="#63b8ff" points="397.08,-29.84 395.95,-19.31 390.27,-28.25 397.08,-29.84"/>
</a>
</g>
</g>
</g>
</svg>
