<?xml version="1.0" encoding="UTF-8" standalone="no"?>
<!DOCTYPE svg PUBLIC "-//W3C//DTD SVG 1.1//EN"
 "http://www.w3.org/Graphics/SVG/1.1/DTD/svg11.dtd">
<!-- Generated by graphviz version 2.43.0 (0)
 -->
<!-- Title: resets.h Pages: 1 -->
<svg width="647pt" height="82pt"
 viewBox="0.00 0.00 646.50 82.00" xmlns="http://www.w3.org/2000/svg" xmlns:xlink="http://www.w3.org/1999/xlink">
<g id="graph0" class="graph" transform="scale(1 1) rotate(0) translate(4 78)">
<title>resets.h</title>
<!-- Node1 -->
<g id="Node000001" class="node">
<title>Node1</title>
<g id="a_Node000001"><a xlink:title=" ">
<polygon fill="#999999" stroke="#666666" points="362,-74 306,-74 306,-55 362,-55 362,-74"/>
<text text-anchor="middle" x="334" y="-62" font-family="Helvetica,sans-Serif" font-size="10.00">resets.h</text>
</a>
</g>
</g>
<!-- Node2 -->
<g id="Node000002" class="node">
<title>Node2</title>
<g id="a_Node000002"><a xlink:href="adc_8c.html" target="_top" xlink:title=" ">
<polygon fill="white" stroke="#666666" points="42,-19 0,-19 0,0 42,0 42,-19"/>
<text text-anchor="middle" x="21" y="-7" font-family="Helvetica,sans-Serif" font-size="10.00">adc.c</text>
</a>
</g>
</g>
<!-- Node1&#45;&gt;Node2 -->
<g id="edge1_Node000001_Node000002" class="edge">
<title>Node1&#45;&gt;Node2</title>
<g id="a_edge1_Node000001_Node000002"><a xlink:title=" ">
<path fill="none" stroke="#63b8ff" d="M295.73,-58.97C241.09,-52.16 137.71,-38.03 51,-19 48.14,-18.37 45.16,-17.63 42.23,-16.85"/>
<polygon fill="#63b8ff" stroke="#63b8ff" points="295.32,-62.44 305.67,-60.19 296.18,-55.49 295.32,-62.44"/>
</a>
</g>
</g>
<!-- Node3 -->
<g id="Node000003" class="node">
<title>Node3</title>
<g id="a_Node000003"><a xlink:href="hardware__pwm__test_8c.html" target="_top" xlink:title=" ">
<polygon fill="white" stroke="#666666" points="184,-19 60,-19 60,0 184,0 184,-19"/>
<text text-anchor="middle" x="122" y="-7" font-family="Helvetica,sans-Serif" font-size="10.00">hardware_pwm_test.c</text>
</a>
</g>
</g>
<!-- Node1&#45;&gt;Node3 -->
<g id="edge2_Node000001_Node000003" class="edge">
<title>Node1&#45;&gt;Node3</title>
<g id="a_edge2_Node000001_Node000003"><a xlink:title=" ">
<path fill="none" stroke="#63b8ff" d="M296.01,-54C256.28,-44.07 194.5,-28.63 156.24,-19.06"/>
<polygon fill="#63b8ff" stroke="#63b8ff" points="295.3,-57.43 305.85,-56.46 297,-50.64 295.3,-57.43"/>
</a>
</g>
</g>
<!-- Node4 -->
<g id="Node000004" class="node">
<title>Node4</title>
<g id="a_Node000004"><a xlink:href="i2c_8c.html" target="_top" xlink:title=" ">
<polygon fill="white" stroke="#666666" points="241.5,-19 202.5,-19 202.5,0 241.5,0 241.5,-19"/>
<text text-anchor="middle" x="222" y="-7" font-family="Helvetica,sans-Serif" font-size="10.00">i2c.c</text>
</a>
</g>
</g>
<!-- Node1&#45;&gt;Node4 -->
<g id="edge3_Node000001_Node000004" class="edge">
<title>Node1&#45;&gt;Node4</title>
<g id="a_edge3_Node000001_Node000004"><a xlink:title=" ">
<path fill="none" stroke="#63b8ff" d="M306.81,-50.63C286.18,-40.87 258.38,-27.71 240.32,-19.17"/>
<polygon fill="#63b8ff" stroke="#63b8ff" points="305.47,-53.87 316.01,-54.98 308.46,-47.54 305.47,-53.87"/>
</a>
</g>
</g>
<!-- Node5 -->
<g id="Node000005" class="node">
<title>Node5</title>
<g id="a_Node000005"><a xlink:href="pll_8c.html" target="_top" xlink:title=" ">
<polygon fill="white" stroke="#666666" points="296.5,-19 259.5,-19 259.5,0 296.5,0 296.5,-19"/>
<text text-anchor="middle" x="278" y="-7" font-family="Helvetica,sans-Serif" font-size="10.00">pll.c</text>
</a>
</g>
</g>
<!-- Node1&#45;&gt;Node5 -->
<g id="edge4_Node000001_Node000005" class="edge">
<title>Node1&#45;&gt;Node5</title>
<g id="a_edge4_Node000001_Node000005"><a xlink:title=" ">
<path fill="none" stroke="#63b8ff" d="M317.67,-48.04C307.74,-38.64 295.41,-26.98 287.16,-19.17"/>
<polygon fill="#63b8ff" stroke="#63b8ff" points="315.33,-50.65 325,-54.98 320.15,-45.57 315.33,-50.65"/>
</a>
</g>
</g>
<!-- Node6 -->
<g id="Node000006" class="node">
<title>Node6</title>
<g id="a_Node000006"><a xlink:href="rtc_8c.html" target="_top" xlink:title=" ">
<polygon fill="white" stroke="#666666" points="353,-19 315,-19 315,0 353,0 353,-19"/>
<text text-anchor="middle" x="334" y="-7" font-family="Helvetica,sans-Serif" font-size="10.00">rtc.c</text>
</a>
</g>
</g>
<!-- Node1&#45;&gt;Node6 -->
<g id="edge5_Node000001_Node000006" class="edge">
<title>Node1&#45;&gt;Node6</title>
<g id="a_edge5_Node000001_Node000006"><a xlink:title=" ">
<path fill="none" stroke="#63b8ff" d="M334,-44.66C334,-35.93 334,-25.99 334,-19.09"/>
<polygon fill="#63b8ff" stroke="#63b8ff" points="330.5,-44.75 334,-54.75 337.5,-44.75 330.5,-44.75"/>
</a>
</g>
</g>
<!-- Node7 -->
<g id="Node000007" class="node">
<title>Node7</title>
<g id="a_Node000007"><a xlink:href="runtime__init_8c.html" target="_top" xlink:title=" ">
<polygon fill="white" stroke="#666666" points="455,-19 371,-19 371,0 455,0 455,-19"/>
<text text-anchor="middle" x="413" y="-7" font-family="Helvetica,sans-Serif" font-size="10.00">runtime_init.c</text>
</a>
</g>
</g>
<!-- Node1&#45;&gt;Node7 -->
<g id="edge6_Node000001_Node000007" class="edge">
<title>Node1&#45;&gt;Node7</title>
<g id="a_edge6_Node000001_Node000007"><a xlink:title=" ">
<path fill="none" stroke="#63b8ff" d="M355.39,-49.15C369.67,-39.57 387.97,-27.29 400.08,-19.17"/>
<polygon fill="#63b8ff" stroke="#63b8ff" points="353.05,-46.51 346.69,-54.98 356.95,-52.32 353.05,-46.51"/>
</a>
</g>
</g>
<!-- Node8 -->
<g id="Node000008" class="node">
<title>Node8</title>
<g id="a_Node000008"><a xlink:href="spi_8c.html" target="_top" xlink:title=" ">
<polygon fill="white" stroke="#666666" points="512.5,-19 473.5,-19 473.5,0 512.5,0 512.5,-19"/>
<text text-anchor="middle" x="493" y="-7" font-family="Helvetica,sans-Serif" font-size="10.00">spi.c</text>
</a>
</g>
</g>
<!-- Node1&#45;&gt;Node8 -->
<g id="edge7_Node000001_Node000008" class="edge">
<title>Node1&#45;&gt;Node8</title>
<g id="a_edge7_Node000001_Node000008"><a xlink:title=" ">
<path fill="none" stroke="#63b8ff" d="M369.38,-51.71C401.29,-41.07 447.1,-25.8 473.05,-17.15"/>
<polygon fill="#63b8ff" stroke="#63b8ff" points="367.93,-48.5 359.55,-54.98 370.14,-55.14 367.93,-48.5"/>
</a>
</g>
</g>
<!-- Node9 -->
<g id="Node000009" class="node">
<title>Node9</title>
<g id="a_Node000009"><a xlink:href="rp2__common_2hardware__uart_2uart_8c.html" target="_top" xlink:title=" ">
<polygon fill="white" stroke="#666666" points="575,-19 531,-19 531,0 575,0 575,-19"/>
<text text-anchor="middle" x="553" y="-7" font-family="Helvetica,sans-Serif" font-size="10.00">uart.c</text>
</a>
</g>
</g>
<!-- Node1&#45;&gt;Node9 -->
<g id="edge8_Node000001_Node000009" class="edge">
<title>Node1&#45;&gt;Node9</title>
<g id="a_edge8_Node000001_Node000009"><a xlink:title=" ">
<path fill="none" stroke="#63b8ff" d="M372.23,-54.87C410.28,-46.17 470.31,-32.2 522,-19 524.81,-18.28 527.76,-17.5 530.67,-16.72"/>
<polygon fill="#63b8ff" stroke="#63b8ff" points="371.08,-51.54 362.1,-57.17 372.63,-58.36 371.08,-51.54"/>
</a>
</g>
</g>
<!-- Node10 -->
<g id="Node000010" class="node">
<title>Node10</title>
<g id="a_Node000010"><a xlink:href="rp2__common_2hardware__uart_2include_2hardware_2uart_8h.html" target="_top" xlink:title=" ">
<polygon fill="white" stroke="#666666" points="638.5,-19 593.5,-19 593.5,0 638.5,0 638.5,-19"/>
<text text-anchor="middle" x="616" y="-7" font-family="Helvetica,sans-Serif" font-size="10.00">uart.h</text>
</a>
</g>
</g>
<!-- Node1&#45;&gt;Node10 -->
<g id="edge9_Node000001_Node000010" class="edge">
<title>Node1&#45;&gt;Node10</title>
<g id="a_edge9_Node000001_Node000010"><a xlink:title=" ">
<path fill="none" stroke="#63b8ff" d="M372.16,-57.72C421.36,-50.04 509.46,-35.5 584,-19 587.03,-18.33 590.21,-17.56 593.33,-16.77"/>
<polygon fill="#63b8ff" stroke="#63b8ff" points="371.62,-54.27 362.27,-59.26 372.69,-61.18 371.62,-54.27"/>
</a>
</g>
</g>
</g>
</svg>
