<?xml version="1.0" encoding="UTF-8" standalone="no"?>
<!DOCTYPE svg PUBLIC "-//W3C//DTD SVG 1.1//EN"
 "http://www.w3.org/Graphics/SVG/1.1/DTD/svg11.dtd">
<!-- Generated by graphviz version 2.43.0 (0)
 -->
<!-- Title: sha256.h Pages: 1 -->
<svg width="1076pt" height="302pt"
 viewBox="0.00 0.00 1076.14 302.00" xmlns="http://www.w3.org/2000/svg" xmlns:xlink="http://www.w3.org/1999/xlink">
<g id="graph0" class="graph" transform="scale(1 1) rotate(0) translate(4 298)">
<title>sha256.h</title>
<!-- Node1 -->
<g id="Node000001" class="node">
<title>Node1</title>
<g id="a_Node000001"><a xlink:title=" ">
<polygon fill="#999999" stroke="#666666" points="411.64,-294 350.64,-294 350.64,-275 411.64,-275 411.64,-294"/>
<text text-anchor="middle" x="381.14" y="-282" font-family="Helvetica,sans-Serif" font-size="10.00">sha256.h</text>
</a>
</g>
</g>
<!-- Node2 -->
<g id="Node000002" class="node">
<title>Node2</title>
<g id="a_Node000002"><a xlink:href="common_2pico__time_2include_2pico_2time_8h.html" target="_top" xlink:title=" ">
<polygon fill="white" stroke="#666666" points="99.64,-239 28.64,-239 28.64,-220 99.64,-220 99.64,-239"/>
<text text-anchor="middle" x="64.14" y="-227" font-family="Helvetica,sans-Serif" font-size="10.00">pico/time.h</text>
</a>
</g>
</g>
<!-- Node1&#45;&gt;Node2 -->
<g id="edge1_Node000001_Node000002" class="edge">
<title>Node1&#45;&gt;Node2</title>
<g id="a_edge1_Node000001_Node000002"><a xlink:title=" ">
<path fill="none" stroke="#63b8ff" d="M350.46,-278.37C294.41,-269 175.23,-249.07 109.69,-238.12"/>
<polygon fill="#63b8ff" stroke="#63b8ff" points="110.08,-234.63 99.64,-236.44 108.93,-241.54 110.08,-234.63"/>
</a>
</g>
</g>
<!-- Node5 -->
<g id="Node000005" class="node">
<title>Node5</title>
<g id="a_Node000005"><a xlink:href="rp2__common_2hardware__dma_2include_2hardware_2dma_8h.html" target="_top" xlink:title=" ">
<polygon fill="white" stroke="#666666" points="429.14,-239 333.14,-239 333.14,-220 429.14,-220 429.14,-239"/>
<text text-anchor="middle" x="381.14" y="-227" font-family="Helvetica,sans-Serif" font-size="10.00">hardware/dma.h</text>
</a>
</g>
</g>
<!-- Node1&#45;&gt;Node5 -->
<g id="edge4_Node000001_Node000005" class="edge">
<title>Node1&#45;&gt;Node5</title>
<g id="a_edge4_Node000001_Node000005"><a xlink:title=" ">
<path fill="none" stroke="#63b8ff" d="M381.14,-274.75C381.14,-267.8 381.14,-257.85 381.14,-249.13"/>
<polygon fill="#63b8ff" stroke="#63b8ff" points="384.64,-249.09 381.14,-239.09 377.64,-249.09 384.64,-249.09"/>
</a>
</g>
</g>
<!-- Node11 -->
<g id="Node000011" class="node">
<title>Node11</title>
<g id="a_Node000011"><a xlink:href="rp2__common_2hardware__sha256_2include_2hardware_2sha256_8h.html" target="_top" xlink:title=" ">
<polygon fill="white" stroke="#666666" points="785.14,-239 675.14,-239 675.14,-220 785.14,-220 785.14,-239"/>
<text text-anchor="middle" x="730.14" y="-227" font-family="Helvetica,sans-Serif" font-size="10.00">hardware/sha256.h</text>
</a>
</g>
</g>
<!-- Node1&#45;&gt;Node11 -->
<g id="edge12_Node000001_Node000011" class="edge">
<title>Node1&#45;&gt;Node11</title>
<g id="a_edge12_Node000001_Node000011"><a xlink:title=" ">
<path fill="none" stroke="#63b8ff" d="M411.8,-278.84C468.12,-270.29 589.16,-251.91 664.7,-240.44"/>
<polygon fill="#63b8ff" stroke="#63b8ff" points="665.68,-243.83 675.04,-238.87 664.63,-236.91 665.68,-243.83"/>
</a>
</g>
</g>
<!-- Node3 -->
<g id="Node000003" class="node">
<title>Node3</title>
<g id="a_Node000003"><a xlink:title=" ">
<polygon fill="#e0e0e0" stroke="#999999" points="365.14,-74 319.14,-74 319.14,-55 365.14,-55 365.14,-74"/>
<text text-anchor="middle" x="342.14" y="-62" font-family="Helvetica,sans-Serif" font-size="10.00">pico.h</text>
</a>
</g>
</g>
<!-- Node2&#45;&gt;Node3 -->
<g id="edge2_Node000002_Node000003" class="edge">
<title>Node2&#45;&gt;Node3</title>
<g id="a_edge2_Node000002_Node000003"><a xlink:title=" ">
<path fill="none" stroke="#63b8ff" d="M45.26,-219.92C22.37,-208.31 -11.36,-186.55 4.14,-165 40.3,-114.73 230.7,-81.74 308.73,-70.14"/>
<polygon fill="#63b8ff" stroke="#63b8ff" points="309.58,-73.55 318.97,-68.64 308.57,-66.62 309.58,-73.55"/>
</a>
</g>
</g>
<!-- Node4 -->
<g id="Node000004" class="node">
<title>Node4</title>
<g id="a_Node000004"><a xlink:title=" ">
<polygon fill="#e0e0e0" stroke="#999999" points="114.64,-184 13.64,-184 13.64,-165 114.64,-165 114.64,-184"/>
<text text-anchor="middle" x="64.14" y="-172" font-family="Helvetica,sans-Serif" font-size="10.00">hardware/timer.h</text>
</a>
</g>
</g>
<!-- Node2&#45;&gt;Node4 -->
<g id="edge3_Node000002_Node000004" class="edge">
<title>Node2&#45;&gt;Node4</title>
<g id="a_edge3_Node000002_Node000004"><a xlink:title=" ">
<path fill="none" stroke="#63b8ff" d="M64.14,-219.75C64.14,-212.8 64.14,-202.85 64.14,-194.13"/>
<polygon fill="#63b8ff" stroke="#63b8ff" points="67.64,-194.09 64.14,-184.09 60.64,-194.09 67.64,-194.09"/>
</a>
</g>
</g>
<!-- Node5&#45;&gt;Node3 -->
<g id="edge5_Node000005_Node000003" class="edge">
<title>Node5&#45;&gt;Node3</title>
<g id="a_edge5_Node000005_Node000003"><a xlink:title=" ">
<path fill="none" stroke="#63b8ff" d="M332.95,-225.64C275.12,-221.08 183.28,-209.87 162.14,-184 115.83,-127.33 245.38,-88.08 309.08,-72.71"/>
<polygon fill="#63b8ff" stroke="#63b8ff" points="310.13,-76.06 319.07,-70.37 308.53,-69.25 310.13,-76.06"/>
</a>
</g>
</g>
<!-- Node6 -->
<g id="Node000006" class="node">
<title>Node6</title>
<g id="a_Node000006"><a xlink:title=" ">
<polygon fill="#e0e0e0" stroke="#999999" points="303.14,-184 171.14,-184 171.14,-165 303.14,-165 303.14,-184"/>
<text text-anchor="middle" x="237.14" y="-172" font-family="Helvetica,sans-Serif" font-size="10.00">hardware/structs/dma.h</text>
</a>
</g>
</g>
<!-- Node5&#45;&gt;Node6 -->
<g id="edge6_Node000005_Node000006" class="edge">
<title>Node5&#45;&gt;Node6</title>
<g id="a_edge6_Node000005_Node000006"><a xlink:title=" ">
<path fill="none" stroke="#63b8ff" d="M358,-219.98C334.32,-211.27 297.27,-197.63 270.43,-187.75"/>
<polygon fill="#63b8ff" stroke="#63b8ff" points="271.29,-184.34 260.7,-184.17 268.87,-190.91 271.29,-184.34"/>
</a>
</g>
</g>
<!-- Node7 -->
<g id="Node000007" class="node">
<title>Node7</title>
<g id="a_Node000007"><a xlink:title=" ">
<polygon fill="#e0e0e0" stroke="#999999" points="441.14,-184 321.14,-184 321.14,-165 441.14,-165 441.14,-184"/>
<text text-anchor="middle" x="381.14" y="-172" font-family="Helvetica,sans-Serif" font-size="10.00">hardware/regs/dreq.h</text>
</a>
</g>
</g>
<!-- Node5&#45;&gt;Node7 -->
<g id="edge7_Node000005_Node000007" class="edge">
<title>Node5&#45;&gt;Node7</title>
<g id="a_edge7_Node000005_Node000007"><a xlink:title=" ">
<path fill="none" stroke="#63b8ff" d="M381.14,-219.75C381.14,-212.8 381.14,-202.85 381.14,-194.13"/>
<polygon fill="#63b8ff" stroke="#63b8ff" points="384.64,-194.09 381.14,-184.09 377.64,-194.09 384.64,-194.09"/>
</a>
</g>
</g>
<!-- Node8 -->
<g id="Node000008" class="node">
<title>Node8</title>
<g id="a_Node000008"><a xlink:href="assert_8h.html" target="_top" xlink:title=" ">
<polygon fill="white" stroke="#666666" points="538.64,-184 459.64,-184 459.64,-165 538.64,-165 538.64,-184"/>
<text text-anchor="middle" x="499.14" y="-172" font-family="Helvetica,sans-Serif" font-size="10.00">pico/assert.h</text>
</a>
</g>
</g>
<!-- Node5&#45;&gt;Node8 -->
<g id="edge8_Node000005_Node000008" class="edge">
<title>Node5&#45;&gt;Node8</title>
<g id="a_edge8_Node000005_Node000008"><a xlink:title=" ">
<path fill="none" stroke="#63b8ff" d="M400.1,-219.98C419.17,-211.42 448.8,-198.11 470.69,-188.28"/>
<polygon fill="#63b8ff" stroke="#63b8ff" points="472.15,-191.46 479.83,-184.17 469.28,-185.07 472.15,-191.46"/>
</a>
</g>
</g>
<!-- Node10 -->
<g id="Node000010" class="node">
<title>Node10</title>
<g id="a_Node000010"><a xlink:title=" ">
<polygon fill="#e0e0e0" stroke="#999999" points="701.64,-184 574.64,-184 574.64,-165 701.64,-165 701.64,-184"/>
<text text-anchor="middle" x="638.14" y="-172" font-family="Helvetica,sans-Serif" font-size="10.00">hardware/regs/intctrl.h</text>
</a>
</g>
</g>
<!-- Node5&#45;&gt;Node10 -->
<g id="edge11_Node000005_Node000010" class="edge">
<title>Node5&#45;&gt;Node10</title>
<g id="a_edge11_Node000005_Node000010"><a xlink:title=" ">
<path fill="none" stroke="#63b8ff" d="M422.43,-219.98C467.07,-210.78 538.3,-196.09 586.59,-186.13"/>
<polygon fill="#63b8ff" stroke="#63b8ff" points="587.44,-189.53 596.52,-184.08 586.02,-182.67 587.44,-189.53"/>
</a>
</g>
</g>
<!-- Node8&#45;&gt;Node8 -->
<g id="edge10_Node000008_Node000008" class="edge">
<title>Node8&#45;&gt;Node8</title>
<g id="a_edge10_Node000008_Node000008"><a xlink:title=" ">
<path fill="none" stroke="#63b8ff" d="M526.05,-184.03C541.85,-186.06 556.64,-182.88 556.64,-174.5 556.64,-167.95 547.61,-164.58 536.13,-164.38"/>
<polygon fill="#63b8ff" stroke="#63b8ff" points="535.83,-160.9 526.05,-164.97 536.24,-167.88 535.83,-160.9"/>
</a>
</g>
</g>
<!-- Node9 -->
<g id="Node000009" class="node">
<title>Node9</title>
<g id="a_Node000009"><a xlink:title=" ">
<polygon fill="#e0e0e0" stroke="#999999" points="530.14,-129 468.14,-129 468.14,-110 530.14,-110 530.14,-129"/>
<text text-anchor="middle" x="499.14" y="-117" font-family="Helvetica,sans-Serif" font-size="10.00">stdbool.h</text>
</a>
</g>
</g>
<!-- Node8&#45;&gt;Node9 -->
<g id="edge9_Node000008_Node000009" class="edge">
<title>Node8&#45;&gt;Node9</title>
<g id="a_edge9_Node000008_Node000009"><a xlink:title=" ">
<path fill="none" stroke="#63b8ff" d="M499.14,-164.75C499.14,-157.8 499.14,-147.85 499.14,-139.13"/>
<polygon fill="#63b8ff" stroke="#63b8ff" points="502.64,-139.09 499.14,-129.09 495.64,-139.09 502.64,-139.09"/>
</a>
</g>
</g>
<!-- Node11&#45;&gt;Node3 -->
<g id="edge13_Node000011_Node000003" class="edge">
<title>Node11&#45;&gt;Node3</title>
<g id="a_edge13_Node000011_Node000003"><a xlink:title=" ">
<path fill="none" stroke="#63b8ff" d="M729.84,-219.84C728.9,-206.29 725.13,-180.08 710.14,-165 662.53,-117.1 456.95,-82.34 375.53,-70.21"/>
<polygon fill="#63b8ff" stroke="#63b8ff" points="375.74,-66.7 365.34,-68.71 374.72,-73.63 375.74,-66.7"/>
</a>
</g>
</g>
<!-- Node12 -->
<g id="Node000012" class="node">
<title>Node12</title>
<g id="a_Node000012"><a xlink:href="rp2350_2hardware__structs_2include_2hardware_2structs_2sha256_8h.html" target="_top" xlink:title=" ">
<polygon fill="white" stroke="#666666" points="910.14,-184 764.14,-184 764.14,-165 910.14,-165 910.14,-184"/>
<text text-anchor="middle" x="837.14" y="-172" font-family="Helvetica,sans-Serif" font-size="10.00">hardware/structs/sha256.h</text>
</a>
</g>
</g>
<!-- Node11&#45;&gt;Node12 -->
<g id="edge14_Node000011_Node000012" class="edge">
<title>Node11&#45;&gt;Node12</title>
<g id="a_edge14_Node000011_Node000012"><a xlink:title=" ">
<path fill="none" stroke="#63b8ff" d="M747.33,-219.98C764.39,-211.54 790.77,-198.47 810.53,-188.68"/>
<polygon fill="#63b8ff" stroke="#63b8ff" points="812.23,-191.75 819.63,-184.17 809.12,-185.47 812.23,-191.75"/>
</a>
</g>
</g>
<!-- Node13 -->
<g id="Node000013" class="node">
<title>Node13</title>
<g id="a_Node000013"><a xlink:href="address__mapped_8h.html" target="_top" xlink:title=" ">
<polygon fill="white" stroke="#666666" points="916.14,-129 758.14,-129 758.14,-110 916.14,-110 916.14,-129"/>
<text text-anchor="middle" x="837.14" y="-117" font-family="Helvetica,sans-Serif" font-size="10.00">hardware/address_mapped.h</text>
</a>
</g>
</g>
<!-- Node12&#45;&gt;Node13 -->
<g id="edge15_Node000012_Node000013" class="edge">
<title>Node12&#45;&gt;Node13</title>
<g id="a_edge15_Node000012_Node000013"><a xlink:title=" ">
<path fill="none" stroke="#63b8ff" d="M837.14,-164.75C837.14,-157.8 837.14,-147.85 837.14,-139.13"/>
<polygon fill="#63b8ff" stroke="#63b8ff" points="840.64,-139.09 837.14,-129.09 833.64,-139.09 840.64,-139.09"/>
</a>
</g>
</g>
<!-- Node17 -->
<g id="Node000017" class="node">
<title>Node17</title>
<g id="a_Node000017"><a xlink:href="rp2350_2hardware__regs_2include_2hardware_2regs_2sha256_8h.html" target="_top" xlink:title=" ">
<polygon fill="white" stroke="#666666" points="1068.14,-129 934.14,-129 934.14,-110 1068.14,-110 1068.14,-129"/>
<text text-anchor="middle" x="1001.14" y="-117" font-family="Helvetica,sans-Serif" font-size="10.00">hardware/regs/sha256.h</text>
</a>
</g>
</g>
<!-- Node12&#45;&gt;Node17 -->
<g id="edge21_Node000012_Node000017" class="edge">
<title>Node12&#45;&gt;Node17</title>
<g id="a_edge21_Node000012_Node000017"><a xlink:title=" ">
<path fill="none" stroke="#63b8ff" d="M863.49,-164.98C890.9,-156.13 934.03,-142.19 964.7,-132.28"/>
<polygon fill="#63b8ff" stroke="#63b8ff" points="966.14,-135.49 974.58,-129.08 963.99,-128.83 966.14,-135.49"/>
</a>
</g>
</g>
<!-- Node13&#45;&gt;Node3 -->
<g id="edge16_Node000013_Node000003" class="edge">
<title>Node13&#45;&gt;Node3</title>
<g id="a_edge16_Node000013_Node000003"><a xlink:title=" ">
<path fill="none" stroke="#63b8ff" d="M757.88,-110.01C647.8,-98.23 453.41,-77.41 375.65,-69.09"/>
<polygon fill="#63b8ff" stroke="#63b8ff" points="375.79,-65.58 365.48,-68 375.05,-72.54 375.79,-65.58"/>
</a>
</g>
</g>
<!-- Node14 -->
<g id="Node000014" class="node">
<title>Node14</title>
<g id="a_Node000014"><a xlink:title=" ">
<polygon fill="#e0e0e0" stroke="#999999" points="740.14,-74 582.14,-74 582.14,-55 740.14,-55 740.14,-74"/>
<text text-anchor="middle" x="661.14" y="-62" font-family="Helvetica,sans-Serif" font-size="10.00">hardware/regs/addressmap.h</text>
</a>
</g>
</g>
<!-- Node13&#45;&gt;Node14 -->
<g id="edge17_Node000013_Node000014" class="edge">
<title>Node13&#45;&gt;Node14</title>
<g id="a_edge17_Node000013_Node000014"><a xlink:title=" ">
<path fill="none" stroke="#63b8ff" d="M808.86,-109.98C779.18,-101.05 732.35,-86.94 699.39,-77.02"/>
<polygon fill="#63b8ff" stroke="#63b8ff" points="700.22,-73.61 689.64,-74.08 698.2,-80.32 700.22,-73.61"/>
</a>
</g>
</g>
<!-- Node15 -->
<g id="Node000015" class="node">
<title>Node15</title>
<g id="a_Node000015"><a xlink:href="hardware__structs_2include_2hardware_2structs_2accessctrl_8h.html" target="_top" xlink:title=" ">
<polygon fill="white" stroke="#666666" points="916.64,-74 757.64,-74 757.64,-55 916.64,-55 916.64,-74"/>
<text text-anchor="middle" x="837.14" y="-62" font-family="Helvetica,sans-Serif" font-size="10.00">hardware/structs/accessctrl.h</text>
</a>
</g>
</g>
<!-- Node13&#45;&gt;Node15 -->
<g id="edge18_Node000013_Node000015" class="edge">
<title>Node13&#45;&gt;Node15</title>
<g id="a_edge18_Node000013_Node000015"><a xlink:title=" ">
<path fill="none" stroke="#63b8ff" d="M831.97,-109.75C830.48,-102.8 830.04,-92.85 830.66,-84.13"/>
<polygon fill="#63b8ff" stroke="#63b8ff" points="834.15,-84.47 832.01,-74.09 827.21,-83.53 834.15,-84.47"/>
</a>
</g>
</g>
<!-- Node15&#45;&gt;Node13 -->
<g id="edge19_Node000015_Node000013" class="edge">
<title>Node15&#45;&gt;Node13</title>
<g id="a_edge19_Node000015_Node000013"><a xlink:title=" ">
<path fill="none" stroke="#63b8ff" d="M842.27,-74.09C843.78,-80.99 844.23,-90.93 843.63,-99.66"/>
<polygon fill="#63b8ff" stroke="#63b8ff" points="840.14,-99.38 842.3,-109.75 847.08,-100.29 840.14,-99.38"/>
</a>
</g>
</g>
<!-- Node16 -->
<g id="Node000016" class="node">
<title>Node16</title>
<g id="a_Node000016"><a xlink:href="hardware__regs_2include_2hardware_2regs_2accessctrl_8h.html" target="_top" xlink:title=" ">
<polygon fill="white" stroke="#666666" points="910.64,-19 763.64,-19 763.64,0 910.64,0 910.64,-19"/>
<text text-anchor="middle" x="837.14" y="-7" font-family="Helvetica,sans-Serif" font-size="10.00">hardware/regs/accessctrl.h</text>
</a>
</g>
</g>
<!-- Node15&#45;&gt;Node16 -->
<g id="edge20_Node000015_Node000016" class="edge">
<title>Node15&#45;&gt;Node16</title>
<g id="a_edge20_Node000015_Node000016"><a xlink:title=" ">
<path fill="none" stroke="#63b8ff" d="M837.14,-54.75C837.14,-47.8 837.14,-37.85 837.14,-29.13"/>
<polygon fill="#63b8ff" stroke="#63b8ff" points="840.64,-29.09 837.14,-19.09 833.64,-29.09 840.64,-29.09"/>
</a>
</g>
</g>
</g>
</svg>
