<?xml version="1.0" encoding="UTF-8" standalone="no"?>
<!DOCTYPE svg PUBLIC "-//W3C//DTD SVG 1.1//EN"
 "http://www.w3.org/Graphics/SVG/1.1/DTD/svg11.dtd">
<!-- Generated by graphviz version 2.43.0 (0)
 -->
<!-- Title: sha256.h Pages: 1 -->
<svg width="254pt" height="137pt"
 viewBox="0.00 0.00 254.00 137.00" xmlns="http://www.w3.org/2000/svg" xmlns:xlink="http://www.w3.org/1999/xlink">
<g id="graph0" class="graph" transform="scale(1 1) rotate(0) translate(4 133)">
<title>sha256.h</title>
<!-- Node1 -->
<g id="Node000001" class="node">
<title>Node1</title>
<g id="a_Node000001"><a xlink:title=" ">
<polygon fill="#999999" stroke="#666666" points="118.5,-129 57.5,-129 57.5,-110 118.5,-110 118.5,-129"/>
<text text-anchor="middle" x="88" y="-117" font-family="Helvetica,sans-Serif" font-size="10.00">sha256.h</text>
</a>
</g>
</g>
<!-- Node2 -->
<g id="Node000002" class="node">
<title>Node2</title>
<g id="a_Node000002"><a xlink:href="hardware__sha256_2sha256_8c.html" target="_top" xlink:title=" ">
<polygon fill="white" stroke="#666666" points="60,-74 0,-74 0,-55 60,-55 60,-74"/>
<text text-anchor="middle" x="30" y="-62" font-family="Helvetica,sans-Serif" font-size="10.00">sha256.c</text>
</a>
</g>
</g>
<!-- Node1&#45;&gt;Node2 -->
<g id="edge1_Node000001_Node000002" class="edge">
<title>Node1&#45;&gt;Node2</title>
<g id="a_edge1_Node000001_Node000002"><a xlink:title=" ">
<path fill="none" stroke="#63b8ff" d="M71.09,-103.04C60.8,-93.64 48.03,-81.98 39.49,-74.17"/>
<polygon fill="#63b8ff" stroke="#63b8ff" points="68.94,-105.82 78.68,-109.98 73.66,-100.66 68.94,-105.82"/>
</a>
</g>
</g>
<!-- Node3 -->
<g id="Node000003" class="node">
<title>Node3</title>
<g id="a_Node000003"><a xlink:href="pico__sha256_2sha256_8c.html" target="_top" xlink:title=" ">
<polygon fill="white" stroke="#666666" points="118,-19 58,-19 58,0 118,0 118,-19"/>
<text text-anchor="middle" x="88" y="-7" font-family="Helvetica,sans-Serif" font-size="10.00">sha256.c</text>
</a>
</g>
</g>
<!-- Node1&#45;&gt;Node3 -->
<g id="edge2_Node000001_Node000003" class="edge">
<title>Node1&#45;&gt;Node3</title>
<g id="a_edge2_Node000001_Node000003"><a xlink:title=" ">
<path fill="none" stroke="#63b8ff" d="M88,-99.48C88,-75.84 88,-36.5 88,-19.16"/>
<polygon fill="#63b8ff" stroke="#63b8ff" points="84.5,-99.66 88,-109.66 91.5,-99.66 84.5,-99.66"/>
</a>
</g>
</g>
<!-- Node4 -->
<g id="Node000004" class="node">
<title>Node4</title>
<g id="a_Node000004"><a xlink:href="rp2__common_2pico__sha256_2include_2pico_2sha256_8h.html" target="_top" xlink:title=" ">
<polygon fill="white" stroke="#666666" points="177.5,-74 116.5,-74 116.5,-55 177.5,-55 177.5,-74"/>
<text text-anchor="middle" x="147" y="-62" font-family="Helvetica,sans-Serif" font-size="10.00">sha256.h</text>
</a>
</g>
</g>
<!-- Node1&#45;&gt;Node4 -->
<g id="edge3_Node000001_Node000004" class="edge">
<title>Node1&#45;&gt;Node4</title>
<g id="a_edge3_Node000001_Node000004"><a xlink:title=" ">
<path fill="none" stroke="#63b8ff" d="M105.2,-103.04C115.67,-93.64 128.65,-81.98 137.35,-74.17"/>
<polygon fill="#63b8ff" stroke="#63b8ff" points="102.58,-100.7 97.48,-109.98 107.26,-105.91 102.58,-100.7"/>
</a>
</g>
</g>
<!-- Node4&#45;&gt;Node3 -->
<g id="edge5_Node000004_Node000003" class="edge">
<title>Node4&#45;&gt;Node3</title>
<g id="a_edge5_Node000004_Node000003"><a xlink:title=" ">
<path fill="none" stroke="#63b8ff" d="M129.8,-48.04C119.33,-38.64 106.35,-26.98 97.65,-19.17"/>
<polygon fill="#63b8ff" stroke="#63b8ff" points="127.74,-50.91 137.52,-54.98 132.42,-45.7 127.74,-50.91"/>
</a>
</g>
</g>
<!-- Node5 -->
<g id="Node000005" class="node">
<title>Node5</title>
<g id="a_Node000005"><a xlink:href="pico__sha256__test_8c.html" target="_top" xlink:title=" ">
<polygon fill="white" stroke="#666666" points="246,-19 136,-19 136,0 246,0 246,-19"/>
<text text-anchor="middle" x="191" y="-7" font-family="Helvetica,sans-Serif" font-size="10.00">pico_sha256_test.c</text>
</a>
</g>
</g>
<!-- Node4&#45;&gt;Node5 -->
<g id="edge4_Node000004_Node000005" class="edge">
<title>Node4&#45;&gt;Node5</title>
<g id="a_edge4_Node000004_Node000005"><a xlink:title=" ">
<path fill="none" stroke="#63b8ff" d="M160.73,-46.96C168.4,-37.72 177.63,-26.6 183.87,-19.09"/>
<polygon fill="#63b8ff" stroke="#63b8ff" points="157.96,-44.82 154.27,-54.75 163.35,-49.29 157.96,-44.82"/>
</a>
</g>
</g>
</g>
</svg>
