<?xml version="1.0" encoding="UTF-8" standalone="no"?>
<!DOCTYPE svg PUBLIC "-//W3C//DTD SVG 1.1//EN"
 "http://www.w3.org/Graphics/SVG/1.1/DTD/svg11.dtd">
<!-- Generated by graphviz version 2.43.0 (0)
 -->
<!-- Title: pio.h Pages: 1 -->
<svg width="770pt" height="192pt"
 viewBox="0.00 0.00 769.50 192.00" xmlns="http://www.w3.org/2000/svg" xmlns:xlink="http://www.w3.org/1999/xlink">
<g id="graph0" class="graph" transform="scale(1 1) rotate(0) translate(4 188)">
<title>pio.h</title>
<!-- Node1 -->
<g id="Node000001" class="node">
<title>Node1</title>
<g id="a_Node000001"><a xlink:title=" ">
<polygon fill="#999999" stroke="#666666" points="355.5,-184 314.5,-184 314.5,-165 355.5,-165 355.5,-184"/>
<text text-anchor="middle" x="335" y="-172" font-family="Helvetica,sans-Serif" font-size="10.00">pio.h</text>
</a>
</g>
</g>
<!-- Node2 -->
<g id="Node000002" class="node">
<title>Node2</title>
<g id="a_Node000002"><a xlink:title=" ">
<polygon fill="#e0e0e0" stroke="#999999" points="203,-74 157,-74 157,-55 203,-55 203,-74"/>
<text text-anchor="middle" x="180" y="-62" font-family="Helvetica,sans-Serif" font-size="10.00">pico.h</text>
</a>
</g>
</g>
<!-- Node1&#45;&gt;Node2 -->
<g id="edge1_Node000001_Node000002" class="edge">
<title>Node1&#45;&gt;Node2</title>
<g id="a_edge1_Node000001_Node000002"><a xlink:title=" ">
<path fill="none" stroke="#63b8ff" d="M314.41,-172.53C284.77,-170.01 230.21,-161.02 199,-129 187.34,-117.04 182.79,-98.22 181.04,-84.17"/>
<polygon fill="#63b8ff" stroke="#63b8ff" points="184.52,-83.8 180.16,-74.15 177.55,-84.42 184.52,-83.8"/>
</a>
</g>
</g>
<!-- Node3 -->
<g id="Node000003" class="node">
<title>Node3</title>
<g id="a_Node000003"><a xlink:href="address__mapped_8h.html" target="_top" xlink:title=" ">
<polygon fill="white" stroke="#666666" points="761,-129 603,-129 603,-110 761,-110 761,-129"/>
<text text-anchor="middle" x="682" y="-117" font-family="Helvetica,sans-Serif" font-size="10.00">hardware/address_mapped.h</text>
</a>
</g>
</g>
<!-- Node1&#45;&gt;Node3 -->
<g id="edge2_Node000001_Node000003" class="edge">
<title>Node1&#45;&gt;Node3</title>
<g id="a_edge2_Node000001_Node000003"><a xlink:title=" ">
<path fill="none" stroke="#63b8ff" d="M355.67,-170.34C405.9,-162.67 536.13,-142.78 616.06,-130.57"/>
<polygon fill="#63b8ff" stroke="#63b8ff" points="616.67,-134.02 626.03,-129.05 615.61,-127.1 616.67,-134.02"/>
</a>
</g>
</g>
<!-- Node7 -->
<g id="Node000007" class="node">
<title>Node7</title>
<g id="a_Node000007"><a xlink:title=" ">
<polygon fill="#e0e0e0" stroke="#999999" points="333.5,-129 208.5,-129 208.5,-110 333.5,-110 333.5,-129"/>
<text text-anchor="middle" x="271" y="-117" font-family="Helvetica,sans-Serif" font-size="10.00">hardware/structs/pio.h</text>
</a>
</g>
</g>
<!-- Node1&#45;&gt;Node7 -->
<g id="edge8_Node000001_Node000007" class="edge">
<title>Node1&#45;&gt;Node7</title>
<g id="a_edge8_Node000001_Node000007"><a xlink:title=" ">
<path fill="none" stroke="#63b8ff" d="M324.72,-164.98C315.16,-157.07 300.72,-145.11 289.22,-135.58"/>
<polygon fill="#63b8ff" stroke="#63b8ff" points="291.4,-132.85 281.47,-129.17 286.94,-138.24 291.4,-132.85"/>
</a>
</g>
</g>
<!-- Node8 -->
<g id="Node000008" class="node">
<title>Node8</title>
<g id="a_Node000008"><a xlink:title=" ">
<polygon fill="#e0e0e0" stroke="#999999" points="446.5,-129 351.5,-129 351.5,-110 446.5,-110 446.5,-129"/>
<text text-anchor="middle" x="399" y="-117" font-family="Helvetica,sans-Serif" font-size="10.00">hardware/gpio.h</text>
</a>
</g>
</g>
<!-- Node1&#45;&gt;Node8 -->
<g id="edge9_Node000001_Node000008" class="edge">
<title>Node1&#45;&gt;Node8</title>
<g id="a_edge9_Node000001_Node000008"><a xlink:title=" ">
<path fill="none" stroke="#63b8ff" d="M345.28,-164.98C354.84,-157.07 369.28,-145.11 380.78,-135.58"/>
<polygon fill="#63b8ff" stroke="#63b8ff" points="383.06,-138.24 388.53,-129.17 378.6,-132.85 383.06,-138.24"/>
</a>
</g>
</g>
<!-- Node9 -->
<g id="Node000009" class="node">
<title>Node9</title>
<g id="a_Node000009"><a xlink:title=" ">
<polygon fill="#e0e0e0" stroke="#999999" points="585,-129 465,-129 465,-110 585,-110 585,-129"/>
<text text-anchor="middle" x="525" y="-117" font-family="Helvetica,sans-Serif" font-size="10.00">hardware/regs/dreq.h</text>
</a>
</g>
</g>
<!-- Node1&#45;&gt;Node9 -->
<g id="edge10_Node000001_Node000009" class="edge">
<title>Node1&#45;&gt;Node9</title>
<g id="a_edge10_Node000001_Node000009"><a xlink:title=" ">
<path fill="none" stroke="#63b8ff" d="M355.7,-167.73C386.49,-159.14 444.96,-142.83 484.46,-131.81"/>
<polygon fill="#63b8ff" stroke="#63b8ff" points="485.63,-135.12 494.32,-129.06 483.75,-128.37 485.63,-135.12"/>
</a>
</g>
</g>
<!-- Node10 -->
<g id="Node000010" class="node">
<title>Node10</title>
<g id="a_Node000010"><a xlink:href="pio__instructions_8h.html" target="_top" xlink:title=" ">
<polygon fill="white" stroke="#666666" points="152,-129 0,-129 0,-110 152,-110 152,-129"/>
<text text-anchor="middle" x="76" y="-117" font-family="Helvetica,sans-Serif" font-size="10.00">hardware/pio_instructions.h</text>
</a>
</g>
</g>
<!-- Node1&#45;&gt;Node10 -->
<g id="edge11_Node000001_Node000010" class="edge">
<title>Node1&#45;&gt;Node10</title>
<g id="a_edge11_Node000001_Node000010"><a xlink:title=" ">
<path fill="none" stroke="#63b8ff" d="M314.24,-169.25C274.16,-161.05 185.01,-142.81 127.85,-131.11"/>
<polygon fill="#63b8ff" stroke="#63b8ff" points="128.42,-127.65 117.92,-129.08 127.02,-134.51 128.42,-127.65"/>
</a>
</g>
</g>
<!-- Node3&#45;&gt;Node2 -->
<g id="edge3_Node000003_Node000002" class="edge">
<title>Node3&#45;&gt;Node2</title>
<g id="a_edge3_Node000003_Node000002"><a xlink:title=" ">
<path fill="none" stroke="#63b8ff" d="M602.73,-110.13C490.98,-98.33 291.97,-77.32 213.32,-69.02"/>
<polygon fill="#63b8ff" stroke="#63b8ff" points="213.35,-65.5 203.04,-67.93 212.61,-72.46 213.35,-65.5"/>
</a>
</g>
</g>
<!-- Node4 -->
<g id="Node000004" class="node">
<title>Node4</title>
<g id="a_Node000004"><a xlink:title=" ">
<polygon fill="#e0e0e0" stroke="#999999" points="585,-74 427,-74 427,-55 585,-55 585,-74"/>
<text text-anchor="middle" x="506" y="-62" font-family="Helvetica,sans-Serif" font-size="10.00">hardware/regs/addressmap.h</text>
</a>
</g>
</g>
<!-- Node3&#45;&gt;Node4 -->
<g id="edge4_Node000003_Node000004" class="edge">
<title>Node3&#45;&gt;Node4</title>
<g id="a_edge4_Node000003_Node000004"><a xlink:title=" ">
<path fill="none" stroke="#63b8ff" d="M653.72,-109.98C624.05,-101.05 577.21,-86.94 544.25,-77.02"/>
<polygon fill="#63b8ff" stroke="#63b8ff" points="545.08,-73.61 534.5,-74.08 543.07,-80.32 545.08,-73.61"/>
</a>
</g>
</g>
<!-- Node5 -->
<g id="Node000005" class="node">
<title>Node5</title>
<g id="a_Node000005"><a xlink:href="hardware__structs_2include_2hardware_2structs_2accessctrl_8h.html" target="_top" xlink:title=" ">
<polygon fill="white" stroke="#666666" points="761.5,-74 602.5,-74 602.5,-55 761.5,-55 761.5,-74"/>
<text text-anchor="middle" x="682" y="-62" font-family="Helvetica,sans-Serif" font-size="10.00">hardware/structs/accessctrl.h</text>
</a>
</g>
</g>
<!-- Node3&#45;&gt;Node5 -->
<g id="edge5_Node000003_Node000005" class="edge">
<title>Node3&#45;&gt;Node5</title>
<g id="a_edge5_Node000003_Node000005"><a xlink:title=" ">
<path fill="none" stroke="#63b8ff" d="M676.83,-109.75C675.34,-102.8 674.9,-92.85 675.52,-84.13"/>
<polygon fill="#63b8ff" stroke="#63b8ff" points="679.01,-84.47 676.87,-74.09 672.07,-83.53 679.01,-84.47"/>
</a>
</g>
</g>
<!-- Node5&#45;&gt;Node3 -->
<g id="edge6_Node000005_Node000003" class="edge">
<title>Node5&#45;&gt;Node3</title>
<g id="a_edge6_Node000005_Node000003"><a xlink:title=" ">
<path fill="none" stroke="#63b8ff" d="M687.13,-74.09C688.64,-80.99 689.09,-90.93 688.49,-99.66"/>
<polygon fill="#63b8ff" stroke="#63b8ff" points="685,-99.38 687.17,-109.75 691.94,-100.29 685,-99.38"/>
</a>
</g>
</g>
<!-- Node6 -->
<g id="Node000006" class="node">
<title>Node6</title>
<g id="a_Node000006"><a xlink:href="hardware__regs_2include_2hardware_2regs_2accessctrl_8h.html" target="_top" xlink:title=" ">
<polygon fill="white" stroke="#666666" points="755.5,-19 608.5,-19 608.5,0 755.5,0 755.5,-19"/>
<text text-anchor="middle" x="682" y="-7" font-family="Helvetica,sans-Serif" font-size="10.00">hardware/regs/accessctrl.h</text>
</a>
</g>
</g>
<!-- Node5&#45;&gt;Node6 -->
<g id="edge7_Node000005_Node000006" class="edge">
<title>Node5&#45;&gt;Node6</title>
<g id="a_edge7_Node000005_Node000006"><a xlink:title=" ">
<path fill="none" stroke="#63b8ff" d="M682,-54.75C682,-47.8 682,-37.85 682,-29.13"/>
<polygon fill="#63b8ff" stroke="#63b8ff" points="685.5,-29.09 682,-19.09 678.5,-29.09 685.5,-29.09"/>
</a>
</g>
</g>
<!-- Node10&#45;&gt;Node2 -->
<g id="edge12_Node000010_Node000002" class="edge">
<title>Node10&#45;&gt;Node2</title>
<g id="a_edge12_Node000010_Node000002"><a xlink:title=" ">
<path fill="none" stroke="#63b8ff" d="M92.71,-109.98C109.21,-101.57 134.7,-88.59 153.88,-78.81"/>
<polygon fill="#63b8ff" stroke="#63b8ff" points="155.67,-81.83 162.99,-74.17 152.49,-75.59 155.67,-81.83"/>
</a>
</g>
</g>
</g>
</svg>
