<?xml version="1.0" encoding="UTF-8" standalone="no"?>
<!DOCTYPE svg PUBLIC "-//W3C//DTD SVG 1.1//EN"
 "http://www.w3.org/Graphics/SVG/1.1/DTD/svg11.dtd">
<!-- Generated by graphviz version 2.43.0 (0)
 -->
<!-- Title: gpio.c Pages: 1 -->
<svg width="452pt" height="93pt"
 viewBox="0.00 0.00 452.00 93.00" xmlns="http://www.w3.org/2000/svg" xmlns:xlink="http://www.w3.org/1999/xlink">
<g id="graph0" class="graph" transform="scale(1 1) rotate(0) translate(4 89)">
<title>gpio.c</title>
<!-- Node1 -->
<g id="Node000001" class="node">
<title>Node1</title>
<g id="a_Node000001"><a xlink:title=" ">
<polygon fill="#999999" stroke="#666666" points="245.5,-85 199.5,-85 199.5,-66 245.5,-66 245.5,-85"/>
<text text-anchor="middle" x="222.5" y="-73" font-family="Helvetica,sans-Serif" font-size="10.00">gpio.c</text>
</a>
</g>
</g>
<!-- Node2 -->
<g id="Node000002" class="node">
<title>Node2</title>
<g id="a_Node000002"><a xlink:title=" ">
<polygon fill="#e0e0e0" stroke="#999999" points="95,-24.5 0,-24.5 0,-5.5 95,-5.5 95,-24.5"/>
<text text-anchor="middle" x="47.5" y="-12.5" font-family="Helvetica,sans-Serif" font-size="10.00">hardware/gpio.h</text>
</a>
</g>
</g>
<!-- Node1&#45;&gt;Node2 -->
<g id="edge1_Node000001_Node000002" class="edge">
<title>Node1&#45;&gt;Node2</title>
<g id="a_edge1_Node000001_Node000002"><a xlink:title=" ">
<path fill="none" stroke="#63b8ff" d="M199.26,-66.73C169.47,-56.77 117.54,-39.41 82.84,-27.82"/>
<polygon fill="#63b8ff" stroke="#63b8ff" points="83.7,-24.41 73.11,-24.56 81.48,-31.05 83.7,-24.41"/>
</a>
</g>
</g>
<!-- Node3 -->
<g id="Node000003" class="node">
<title>Node3</title>
<g id="a_Node000003"><a xlink:title=" ">
<polygon fill="#e0e0e0" stroke="#999999" points="210,-24.5 113,-24.5 113,-5.5 210,-5.5 210,-24.5"/>
<text text-anchor="middle" x="161.5" y="-12.5" font-family="Helvetica,sans-Serif" font-size="10.00">hardware/sync.h</text>
</a>
</g>
</g>
<!-- Node1&#45;&gt;Node3 -->
<g id="edge2_Node000001_Node000003" class="edge">
<title>Node1&#45;&gt;Node3</title>
<g id="a_edge2_Node000001_Node000003"><a xlink:title=" ">
<path fill="none" stroke="#63b8ff" d="M213.5,-65.87C204.13,-56.88 189.25,-42.61 177.8,-31.64"/>
<polygon fill="#63b8ff" stroke="#63b8ff" points="180.18,-29.06 170.54,-24.67 175.33,-34.12 180.18,-29.06"/>
</a>
</g>
</g>
<!-- Node4 -->
<g id="Node000004" class="node">
<title>Node4</title>
<g id="a_Node000004"><a xlink:title=" ">
<polygon fill="#e0e0e0" stroke="#999999" points="338.5,-30 228.5,-30 228.5,0 338.5,0 338.5,-30"/>
<text text-anchor="start" x="236.5" y="-18" font-family="Helvetica,sans-Serif" font-size="10.00">hardware/structs/io</text>
<text text-anchor="middle" x="283.5" y="-7" font-family="Helvetica,sans-Serif" font-size="10.00">_bank0.h</text>
</a>
</g>
</g>
<!-- Node1&#45;&gt;Node4 -->
<g id="edge3_Node000001_Node000004" class="edge">
<title>Node1&#45;&gt;Node4</title>
<g id="a_edge3_Node000001_Node000004"><a xlink:title=" ">
<path fill="none" stroke="#63b8ff" d="M231.5,-65.87C239.39,-58.3 251.2,-46.98 261.56,-37.04"/>
<polygon fill="#63b8ff" stroke="#63b8ff" points="263.99,-39.56 268.78,-30.11 259.14,-34.51 263.99,-39.56"/>
</a>
</g>
</g>
<!-- Node5 -->
<g id="Node000005" class="node">
<title>Node5</title>
<g id="a_Node000005"><a xlink:title=" ">
<polygon fill="#e0e0e0" stroke="#999999" points="444,-24.5 357,-24.5 357,-5.5 444,-5.5 444,-24.5"/>
<text text-anchor="middle" x="400.5" y="-12.5" font-family="Helvetica,sans-Serif" font-size="10.00">hardware/irq.h</text>
</a>
</g>
</g>
<!-- Node1&#45;&gt;Node5 -->
<g id="edge4_Node000001_Node000005" class="edge">
<title>Node1&#45;&gt;Node5</title>
<g id="a_edge4_Node000001_Node000005"><a xlink:title=" ">
<path fill="none" stroke="#63b8ff" d="M245.77,-66.85C276.05,-56.9 329.25,-39.42 364.69,-27.77"/>
<polygon fill="#63b8ff" stroke="#63b8ff" points="366.22,-30.95 374.63,-24.5 364.03,-24.3 366.22,-30.95"/>
</a>
</g>
</g>
</g>
</svg>
