<?xml version="1.0" encoding="UTF-8" standalone="no"?>
<!DOCTYPE svg PUBLIC "-//W3C//DTD SVG 1.1//EN"
 "http://www.w3.org/Graphics/SVG/1.1/DTD/svg11.dtd">
<!-- Generated by graphviz version 2.43.0 (0)
 -->
<!-- Title: dma.h Pages: 1 -->
<svg width="698pt" height="148pt"
 viewBox="0.00 0.00 697.50 148.00" xmlns="http://www.w3.org/2000/svg" xmlns:xlink="http://www.w3.org/1999/xlink">
<g id="graph0" class="graph" transform="scale(1 1) rotate(0) translate(4 144)">
<title>dma.h</title>
<!-- Node1 -->
<g id="Node000001" class="node">
<title>Node1</title>
<g id="a_Node000001"><a xlink:title=" ">
<polygon fill="#999999" stroke="#666666" points="341,-140 294,-140 294,-121 341,-121 341,-140"/>
<text text-anchor="middle" x="317.5" y="-128" font-family="Helvetica,sans-Serif" font-size="10.00">dma.h</text>
</a>
</g>
</g>
<!-- Node2 -->
<g id="Node000002" class="node">
<title>Node2</title>
<g id="a_Node000002"><a xlink:href="cyw43__bus__pio__spi_8c.html" target="_top" xlink:title=" ">
<polygon fill="white" stroke="#666666" points="119,-79.5 0,-79.5 0,-60.5 119,-60.5 119,-79.5"/>
<text text-anchor="middle" x="59.5" y="-67.5" font-family="Helvetica,sans-Serif" font-size="10.00">cyw43_bus_pio_spi.c</text>
</a>
</g>
</g>
<!-- Node1&#45;&gt;Node2 -->
<g id="edge1_Node000001_Node000002" class="edge">
<title>Node1&#45;&gt;Node2</title>
<g id="a_edge1_Node000001_Node000002"><a xlink:title=" ">
<path fill="none" stroke="#63b8ff" d="M283.77,-121.85C235.65,-110.94 147.56,-90.97 97.29,-79.57"/>
<polygon fill="#63b8ff" stroke="#63b8ff" points="283.16,-125.3 293.69,-124.1 284.71,-118.48 283.16,-125.3"/>
</a>
</g>
</g>
<!-- Node3 -->
<g id="Node000003" class="node">
<title>Node3</title>
<g id="a_Node000003"><a xlink:href="dma_8c.html" target="_top" xlink:title=" ">
<polygon fill="white" stroke="#666666" points="184,-79.5 137,-79.5 137,-60.5 184,-60.5 184,-79.5"/>
<text text-anchor="middle" x="160.5" y="-67.5" font-family="Helvetica,sans-Serif" font-size="10.00">dma.c</text>
</a>
</g>
</g>
<!-- Node1&#45;&gt;Node3 -->
<g id="edge2_Node000001_Node000003" class="edge">
<title>Node1&#45;&gt;Node3</title>
<g id="a_edge2_Node000001_Node000003"><a xlink:title=" ">
<path fill="none" stroke="#63b8ff" d="M284.31,-118.4C258.98,-109.75 223.32,-97.21 192.5,-85 188.22,-83.3 183.65,-81.38 179.36,-79.51"/>
<polygon fill="#63b8ff" stroke="#63b8ff" points="283.22,-121.72 293.82,-121.62 285.47,-115.1 283.22,-121.72"/>
</a>
</g>
</g>
<!-- Node4 -->
<g id="Node000004" class="node">
<title>Node4</title>
<g id="a_Node000004"><a xlink:href="hardware__irq__test_8c.html" target="_top" xlink:title=" ">
<polygon fill="white" stroke="#666666" points="315,-79.5 202,-79.5 202,-60.5 315,-60.5 315,-79.5"/>
<text text-anchor="middle" x="258.5" y="-67.5" font-family="Helvetica,sans-Serif" font-size="10.00">hardware_irq_test.c</text>
</a>
</g>
</g>
<!-- Node1&#45;&gt;Node4 -->
<g id="edge3_Node000001_Node000004" class="edge">
<title>Node1&#45;&gt;Node4</title>
<g id="a_edge3_Node000001_Node000004"><a xlink:title=" ">
<path fill="none" stroke="#63b8ff" d="M301.45,-113.59C290.44,-102.67 276.23,-88.58 267.24,-79.67"/>
<polygon fill="#63b8ff" stroke="#63b8ff" points="299.23,-116.31 308.79,-120.87 304.16,-111.34 299.23,-116.31"/>
</a>
</g>
</g>
<!-- Node5 -->
<g id="Node000005" class="node">
<title>Node5</title>
<g id="a_Node000005"><a xlink:href="kitchen__sink_8c.html" target="_top" xlink:title=" ">
<polygon fill="white" stroke="#666666" points="419.5,-79.5 333.5,-79.5 333.5,-60.5 419.5,-60.5 419.5,-79.5"/>
<text text-anchor="middle" x="376.5" y="-67.5" font-family="Helvetica,sans-Serif" font-size="10.00">kitchen_sink.c</text>
</a>
</g>
</g>
<!-- Node1&#45;&gt;Node5 -->
<g id="edge4_Node000001_Node000005" class="edge">
<title>Node1&#45;&gt;Node5</title>
<g id="a_edge4_Node000001_Node000005"><a xlink:title=" ">
<path fill="none" stroke="#63b8ff" d="M333.55,-113.59C344.56,-102.67 358.77,-88.58 367.76,-79.67"/>
<polygon fill="#63b8ff" stroke="#63b8ff" points="330.84,-111.34 326.21,-120.87 335.77,-116.31 330.84,-111.34"/>
</a>
</g>
</g>
<!-- Node7 -->
<g id="Node000007" class="node">
<title>Node7</title>
<g id="a_Node000007"><a xlink:href="pico__divider__nesting__test_8c.html" target="_top" xlink:title=" ">
<polygon fill="white" stroke="#666666" points="555,-85 438,-85 438,-55 555,-55 555,-85"/>
<text text-anchor="start" x="446" y="-73" font-family="Helvetica,sans-Serif" font-size="10.00">pico_divider_nesting</text>
<text text-anchor="middle" x="496.5" y="-62" font-family="Helvetica,sans-Serif" font-size="10.00">_test.c</text>
</a>
</g>
</g>
<!-- Node1&#45;&gt;Node7 -->
<g id="edge6_Node000001_Node000007" class="edge">
<title>Node1&#45;&gt;Node7</title>
<g id="a_edge6_Node000001_Node000007"><a xlink:title=" ">
<path fill="none" stroke="#63b8ff" d="M350.92,-118.58C379.86,-109.12 421.9,-95.38 453.37,-85.09"/>
<polygon fill="#63b8ff" stroke="#63b8ff" points="349.69,-115.3 341.27,-121.73 351.86,-121.95 349.69,-115.3"/>
</a>
</g>
</g>
<!-- Node8 -->
<g id="Node000008" class="node">
<title>Node8</title>
<g id="a_Node000008"><a xlink:href="rp2__common_2pico__sha256_2include_2pico_2sha256_8h.html" target="_top" xlink:title=" ">
<polygon fill="white" stroke="#666666" points="634,-79.5 573,-79.5 573,-60.5 634,-60.5 634,-79.5"/>
<text text-anchor="middle" x="603.5" y="-67.5" font-family="Helvetica,sans-Serif" font-size="10.00">sha256.h</text>
</a>
</g>
</g>
<!-- Node1&#45;&gt;Node8 -->
<g id="edge7_Node000001_Node000008" class="edge">
<title>Node1&#45;&gt;Node8</title>
<g id="a_edge7_Node000001_Node000008"><a xlink:title=" ">
<path fill="none" stroke="#63b8ff" d="M351.42,-125.21C399.39,-118.74 489.56,-105.05 564.5,-85 570.06,-83.51 575.95,-81.59 581.43,-79.64"/>
<polygon fill="#63b8ff" stroke="#63b8ff" points="350.74,-121.77 341.29,-126.56 351.66,-128.71 350.74,-121.77"/>
</a>
</g>
</g>
<!-- Node6 -->
<g id="Node000006" class="node">
<title>Node6</title>
<g id="a_Node000006"><a xlink:href="kitchen__sink__cpp_8cpp.html" target="_top" xlink:title=" ">
<polygon fill="white" stroke="#666666" points="437,-19 316,-19 316,0 437,0 437,-19"/>
<text text-anchor="middle" x="376.5" y="-7" font-family="Helvetica,sans-Serif" font-size="10.00">kitchen_sink_cpp.cpp</text>
</a>
</g>
</g>
<!-- Node5&#45;&gt;Node6 -->
<g id="edge5_Node000005_Node000006" class="edge">
<title>Node5&#45;&gt;Node6</title>
<g id="a_edge5_Node000005_Node000006"><a xlink:title=" ">
<path fill="none" stroke="#63b8ff" d="M376.5,-50.16C376.5,-39.74 376.5,-27.3 376.5,-19.17"/>
<polygon fill="#63b8ff" stroke="#63b8ff" points="373,-50.37 376.5,-60.37 380,-50.37 373,-50.37"/>
</a>
</g>
</g>
<!-- Node9 -->
<g id="Node000009" class="node">
<title>Node9</title>
<g id="a_Node000009"><a xlink:href="pico__sha256__test_8c.html" target="_top" xlink:title=" ">
<polygon fill="white" stroke="#666666" points="611.5,-19 501.5,-19 501.5,0 611.5,0 611.5,-19"/>
<text text-anchor="middle" x="556.5" y="-7" font-family="Helvetica,sans-Serif" font-size="10.00">pico_sha256_test.c</text>
</a>
</g>
</g>
<!-- Node8&#45;&gt;Node9 -->
<g id="edge8_Node000008_Node000009" class="edge">
<title>Node8&#45;&gt;Node9</title>
<g id="a_edge8_Node000008_Node000009"><a xlink:title=" ">
<path fill="none" stroke="#63b8ff" d="M590.2,-52.45C581.5,-41.62 570.49,-27.91 563.46,-19.17"/>
<polygon fill="#63b8ff" stroke="#63b8ff" points="587.57,-54.76 596.56,-60.37 593.03,-50.38 587.57,-54.76"/>
</a>
</g>
</g>
<!-- Node10 -->
<g id="Node000010" class="node">
<title>Node10</title>
<g id="a_Node000010"><a xlink:href="pico__sha256_2sha256_8c.html" target="_top" xlink:title=" ">
<polygon fill="white" stroke="#666666" points="689.5,-19 629.5,-19 629.5,0 689.5,0 689.5,-19"/>
<text text-anchor="middle" x="659.5" y="-7" font-family="Helvetica,sans-Serif" font-size="10.00">sha256.c</text>
</a>
</g>
</g>
<!-- Node8&#45;&gt;Node10 -->
<g id="edge9_Node000008_Node000010" class="edge">
<title>Node8&#45;&gt;Node10</title>
<g id="a_edge9_Node000008_Node000010"><a xlink:title=" ">
<path fill="none" stroke="#63b8ff" d="M618.73,-53.09C629.19,-42.17 642.67,-28.08 651.2,-19.17"/>
<polygon fill="#63b8ff" stroke="#63b8ff" points="616.15,-50.72 611.76,-60.37 621.21,-55.56 616.15,-50.72"/>
</a>
</g>
</g>
</g>
</svg>
