<?xml version="1.0" encoding="UTF-8" standalone="no"?>
<!DOCTYPE svg PUBLIC "-//W3C//DTD SVG 1.1//EN"
 "http://www.w3.org/Graphics/SVG/1.1/DTD/svg11.dtd">
<!-- Generated by graphviz version 2.43.0 (0)
 -->
<!-- Title: sync.h Pages: 1 -->
<svg width="522pt" height="203pt"
 viewBox="0.00 0.00 521.50 203.00" xmlns="http://www.w3.org/2000/svg" xmlns:xlink="http://www.w3.org/1999/xlink">
<g id="graph0" class="graph" transform="scale(1 1) rotate(0) translate(4 199)">
<title>sync.h</title>
<!-- Node1 -->
<g id="Node000001" class="node">
<title>Node1</title>
<g id="a_Node000001"><a xlink:title=" ">
<polygon fill="#999999" stroke="#666666" points="392,-195 344,-195 344,-176 392,-176 392,-195"/>
<text text-anchor="middle" x="368" y="-183" font-family="Helvetica,sans-Serif" font-size="10.00">sync.h</text>
</a>
</g>
</g>
<!-- Node2 -->
<g id="Node000002" class="node">
<title>Node2</title>
<g id="a_Node000002"><a xlink:title=" ">
<polygon fill="#e0e0e0" stroke="#999999" points="398,-74 352,-74 352,-55 398,-55 398,-74"/>
<text text-anchor="middle" x="375" y="-62" font-family="Helvetica,sans-Serif" font-size="10.00">pico.h</text>
</a>
</g>
</g>
<!-- Node1&#45;&gt;Node2 -->
<g id="edge1_Node000001_Node000002" class="edge">
<title>Node1&#45;&gt;Node2</title>
<g id="a_edge1_Node000001_Node000002"><a xlink:title=" ">
<path fill="none" stroke="#63b8ff" d="M368.5,-175.94C369.62,-156.91 372.34,-110.69 373.88,-84.47"/>
<polygon fill="#63b8ff" stroke="#63b8ff" points="377.39,-84.49 374.48,-74.3 370.4,-84.08 377.39,-84.49"/>
</a>
</g>
</g>
<!-- Node3 -->
<g id="Node000003" class="node">
<title>Node3</title>
<g id="a_Node000003"><a xlink:href="address__mapped_8h.html" target="_top" xlink:title=" ">
<polygon fill="white" stroke="#666666" points="334,-134.5 176,-134.5 176,-115.5 334,-115.5 334,-134.5"/>
<text text-anchor="middle" x="255" y="-122.5" font-family="Helvetica,sans-Serif" font-size="10.00">hardware/address_mapped.h</text>
</a>
</g>
</g>
<!-- Node1&#45;&gt;Node3 -->
<g id="edge2_Node000001_Node000003" class="edge">
<title>Node1&#45;&gt;Node3</title>
<g id="a_edge2_Node000001_Node000003"><a xlink:title=" ">
<path fill="none" stroke="#63b8ff" d="M351.33,-175.87C332.72,-166.23 302.38,-150.53 280.72,-139.31"/>
<polygon fill="#63b8ff" stroke="#63b8ff" points="282.23,-136.16 271.74,-134.67 279.01,-142.37 282.23,-136.16"/>
</a>
</g>
</g>
<!-- Node7 -->
<g id="Node000007" class="node">
<title>Node7</title>
<g id="a_Node000007"><a xlink:href="spin__lock_8h.html" target="_top" xlink:title=" ">
<polygon fill="white" stroke="#666666" points="507.5,-140 396.5,-140 396.5,-110 507.5,-110 507.5,-140"/>
<text text-anchor="start" x="404.5" y="-128" font-family="Helvetica,sans-Serif" font-size="10.00">hardware/sync/spin</text>
<text text-anchor="middle" x="452" y="-117" font-family="Helvetica,sans-Serif" font-size="10.00">_lock.h</text>
</a>
</g>
</g>
<!-- Node1&#45;&gt;Node7 -->
<g id="edge8_Node000001_Node000007" class="edge">
<title>Node1&#45;&gt;Node7</title>
<g id="a_edge8_Node000001_Node000007"><a xlink:title=" ">
<path fill="none" stroke="#63b8ff" d="M380.39,-175.87C391.69,-168 408.79,-156.09 423.45,-145.89"/>
<polygon fill="#63b8ff" stroke="#63b8ff" points="425.53,-148.7 431.73,-140.11 421.53,-142.96 425.53,-148.7"/>
</a>
</g>
</g>
<!-- Node3&#45;&gt;Node2 -->
<g id="edge3_Node000003_Node000002" class="edge">
<title>Node3&#45;&gt;Node2</title>
<g id="a_edge3_Node000003_Node000002"><a xlink:title=" ">
<path fill="none" stroke="#63b8ff" d="M272.45,-115.49C292.36,-105.79 325.14,-89.81 348.27,-78.53"/>
<polygon fill="#63b8ff" stroke="#63b8ff" points="350.07,-81.54 357.53,-74.02 347.01,-75.25 350.07,-81.54"/>
</a>
</g>
</g>
<!-- Node4 -->
<g id="Node000004" class="node">
<title>Node4</title>
<g id="a_Node000004"><a xlink:title=" ">
<polygon fill="#e0e0e0" stroke="#999999" points="158,-74 0,-74 0,-55 158,-55 158,-74"/>
<text text-anchor="middle" x="79" y="-62" font-family="Helvetica,sans-Serif" font-size="10.00">hardware/regs/addressmap.h</text>
</a>
</g>
</g>
<!-- Node3&#45;&gt;Node4 -->
<g id="edge4_Node000003_Node000004" class="edge">
<title>Node3&#45;&gt;Node4</title>
<g id="a_edge4_Node000003_Node000004"><a xlink:title=" ">
<path fill="none" stroke="#63b8ff" d="M229.41,-115.49C199.04,-105.4 148.24,-88.51 114.18,-77.19"/>
<polygon fill="#63b8ff" stroke="#63b8ff" points="115.22,-73.85 104.62,-74.02 113.01,-80.49 115.22,-73.85"/>
</a>
</g>
</g>
<!-- Node5 -->
<g id="Node000005" class="node">
<title>Node5</title>
<g id="a_Node000005"><a xlink:href="hardware__structs_2include_2hardware_2structs_2accessctrl_8h.html" target="_top" xlink:title=" ">
<polygon fill="white" stroke="#666666" points="334.5,-74 175.5,-74 175.5,-55 334.5,-55 334.5,-74"/>
<text text-anchor="middle" x="255" y="-62" font-family="Helvetica,sans-Serif" font-size="10.00">hardware/structs/accessctrl.h</text>
</a>
</g>
</g>
<!-- Node3&#45;&gt;Node5 -->
<g id="edge5_Node000003_Node000005" class="edge">
<title>Node3&#45;&gt;Node5</title>
<g id="a_edge5_Node000003_Node000005"><a xlink:title=" ">
<path fill="none" stroke="#63b8ff" d="M250.04,-115.37C248.29,-107.25 247.82,-94.81 248.64,-84.39"/>
<polygon fill="#63b8ff" stroke="#63b8ff" points="252.15,-84.55 250.04,-74.17 245.22,-83.6 252.15,-84.55"/>
</a>
</g>
</g>
<!-- Node5&#45;&gt;Node3 -->
<g id="edge6_Node000005_Node000003" class="edge">
<title>Node5&#45;&gt;Node3</title>
<g id="a_edge6_Node000005_Node000003"><a xlink:title=" ">
<path fill="none" stroke="#63b8ff" d="M259.96,-74.17C261.71,-82.3 262.18,-94.74 261.35,-105.16"/>
<polygon fill="#63b8ff" stroke="#63b8ff" points="257.85,-104.99 259.96,-115.37 264.78,-105.94 257.85,-104.99"/>
</a>
</g>
</g>
<!-- Node6 -->
<g id="Node000006" class="node">
<title>Node6</title>
<g id="a_Node000006"><a xlink:href="hardware__regs_2include_2hardware_2regs_2accessctrl_8h.html" target="_top" xlink:title=" ">
<polygon fill="white" stroke="#666666" points="328.5,-19 181.5,-19 181.5,0 328.5,0 328.5,-19"/>
<text text-anchor="middle" x="255" y="-7" font-family="Helvetica,sans-Serif" font-size="10.00">hardware/regs/accessctrl.h</text>
</a>
</g>
</g>
<!-- Node5&#45;&gt;Node6 -->
<g id="edge7_Node000005_Node000006" class="edge">
<title>Node5&#45;&gt;Node6</title>
<g id="a_edge7_Node000005_Node000006"><a xlink:title=" ">
<path fill="none" stroke="#63b8ff" d="M255,-54.75C255,-47.8 255,-37.85 255,-29.13"/>
<polygon fill="#63b8ff" stroke="#63b8ff" points="258.5,-29.09 255,-19.09 251.5,-29.09 258.5,-29.09"/>
</a>
</g>
</g>
<!-- Node7&#45;&gt;Node2 -->
<g id="edge9_Node000007_Node000002" class="edge">
<title>Node7&#45;&gt;Node2</title>
<g id="a_edge9_Node000007_Node000002"><a xlink:title=" ">
<path fill="none" stroke="#63b8ff" d="M433.36,-109.84C421.61,-100.91 406.47,-89.41 394.55,-80.35"/>
<polygon fill="#63b8ff" stroke="#63b8ff" points="396.62,-77.53 386.54,-74.27 392.38,-83.1 396.62,-77.53"/>
</a>
</g>
</g>
<!-- Node8 -->
<g id="Node000008" class="node">
<title>Node8</title>
<g id="a_Node000008"><a xlink:title=" ">
<polygon fill="#e0e0e0" stroke="#999999" points="513.5,-74 416.5,-74 416.5,-55 513.5,-55 513.5,-74"/>
<text text-anchor="middle" x="465" y="-62" font-family="Helvetica,sans-Serif" font-size="10.00">hardware/sync.h</text>
</a>
</g>
</g>
<!-- Node7&#45;&gt;Node8 -->
<g id="edge10_Node000007_Node000008" class="edge">
<title>Node7&#45;&gt;Node8</title>
<g id="a_edge10_Node000007_Node000008"><a xlink:title=" ">
<path fill="none" stroke="#63b8ff" d="M455.15,-109.84C456.86,-102.13 459,-92.49 460.85,-84.17"/>
<polygon fill="#63b8ff" stroke="#63b8ff" points="464.3,-84.79 463.05,-74.27 457.47,-83.27 464.3,-84.79"/>
</a>
</g>
</g>
</g>
</svg>
