<?xml version="1.0" encoding="UTF-8" standalone="no"?>
<!DOCTYPE svg PUBLIC "-//W3C//DTD SVG 1.1//EN"
 "http://www.w3.org/Graphics/SVG/1.1/DTD/svg11.dtd">
<!-- Generated by graphviz version 2.43.0 (0)
 -->
<!-- Title: gpio.h Pages: 1 -->
<svg width="575pt" height="93pt"
 viewBox="0.00 0.00 574.50 93.00" xmlns="http://www.w3.org/2000/svg" xmlns:xlink="http://www.w3.org/1999/xlink">
<g id="graph0" class="graph" transform="scale(1 1) rotate(0) translate(4 89)">
<title>gpio.h</title>
<!-- Node1 -->
<g id="Node000001" class="node">
<title>Node1</title>
<g id="a_Node000001"><a xlink:title=" ">
<polygon fill="#999999" stroke="#666666" points="293.5,-85 246.5,-85 246.5,-66 293.5,-66 293.5,-85"/>
<text text-anchor="middle" x="270" y="-73" font-family="Helvetica,sans-Serif" font-size="10.00">gpio.h</text>
</a>
</g>
</g>
<!-- Node2 -->
<g id="Node000002" class="node">
<title>Node2</title>
<g id="a_Node000002"><a xlink:title=" ">
<polygon fill="#e0e0e0" stroke="#999999" points="46,-24.5 0,-24.5 0,-5.5 46,-5.5 46,-24.5"/>
<text text-anchor="middle" x="23" y="-12.5" font-family="Helvetica,sans-Serif" font-size="10.00">pico.h</text>
</a>
</g>
</g>
<!-- Node1&#45;&gt;Node2 -->
<g id="edge1_Node000001_Node000002" class="edge">
<title>Node1&#45;&gt;Node2</title>
<g id="a_edge1_Node000001_Node000002"><a xlink:title=" ">
<path fill="none" stroke="#63b8ff" d="M246.36,-71.26C206.33,-65.4 122.92,-51.63 55,-30 53.37,-29.48 51.71,-28.91 50.05,-28.3"/>
<polygon fill="#63b8ff" stroke="#63b8ff" points="51.27,-25.01 40.69,-24.52 48.65,-31.51 51.27,-25.01"/>
</a>
</g>
</g>
<!-- Node3 -->
<g id="Node000003" class="node">
<title>Node3</title>
<g id="a_Node000003"><a xlink:title=" ">
<polygon fill="#e0e0e0" stroke="#999999" points="189.5,-24.5 64.5,-24.5 64.5,-5.5 189.5,-5.5 189.5,-24.5"/>
<text text-anchor="middle" x="127" y="-12.5" font-family="Helvetica,sans-Serif" font-size="10.00">hardware/structs/sio.h</text>
</a>
</g>
</g>
<!-- Node1&#45;&gt;Node3 -->
<g id="edge2_Node000001_Node000003" class="edge">
<title>Node1&#45;&gt;Node3</title>
<g id="a_edge2_Node000001_Node000003"><a xlink:title=" ">
<path fill="none" stroke="#63b8ff" d="M249.21,-65.99C225.06,-56.12 185.02,-39.73 157.38,-28.43"/>
<polygon fill="#63b8ff" stroke="#63b8ff" points="158.4,-25.06 147.82,-24.52 155.75,-31.54 158.4,-25.06"/>
</a>
</g>
</g>
<!-- Node4 -->
<g id="Node000004" class="node">
<title>Node4</title>
<g id="a_Node000004"><a xlink:title=" ">
<polygon fill="#e0e0e0" stroke="#999999" points="332.5,-30 207.5,-30 207.5,0 332.5,0 332.5,-30"/>
<text text-anchor="start" x="215.5" y="-18" font-family="Helvetica,sans-Serif" font-size="10.00">hardware/structs/pads</text>
<text text-anchor="middle" x="270" y="-7" font-family="Helvetica,sans-Serif" font-size="10.00">_bank0.h</text>
</a>
</g>
</g>
<!-- Node1&#45;&gt;Node4 -->
<g id="edge3_Node000001_Node000004" class="edge">
<title>Node1&#45;&gt;Node4</title>
<g id="a_edge3_Node000001_Node000004"><a xlink:title=" ">
<path fill="none" stroke="#63b8ff" d="M270,-65.87C270,-59.11 270,-49.35 270,-40.26"/>
<polygon fill="#63b8ff" stroke="#63b8ff" points="273.5,-40.11 270,-30.11 266.5,-40.11 273.5,-40.11"/>
</a>
</g>
</g>
<!-- Node5 -->
<g id="Node000005" class="node">
<title>Node5</title>
<g id="a_Node000005"><a xlink:title=" ">
<polygon fill="#e0e0e0" stroke="#999999" points="461,-30 351,-30 351,0 461,0 461,-30"/>
<text text-anchor="start" x="359" y="-18" font-family="Helvetica,sans-Serif" font-size="10.00">hardware/structs/io</text>
<text text-anchor="middle" x="406" y="-7" font-family="Helvetica,sans-Serif" font-size="10.00">_bank0.h</text>
</a>
</g>
</g>
<!-- Node1&#45;&gt;Node5 -->
<g id="edge4_Node000001_Node000005" class="edge">
<title>Node1&#45;&gt;Node5</title>
<g id="a_edge4_Node000001_Node000005"><a xlink:title=" ">
<path fill="none" stroke="#63b8ff" d="M289.78,-65.99C309.09,-57.68 339.1,-44.78 363.79,-34.16"/>
<polygon fill="#63b8ff" stroke="#63b8ff" points="365.5,-37.23 373.3,-30.06 362.73,-30.8 365.5,-37.23"/>
</a>
</g>
</g>
<!-- Node6 -->
<g id="Node000006" class="node">
<title>Node6</title>
<g id="a_Node000006"><a xlink:title=" ">
<polygon fill="#e0e0e0" stroke="#999999" points="566.5,-24.5 479.5,-24.5 479.5,-5.5 566.5,-5.5 566.5,-24.5"/>
<text text-anchor="middle" x="523" y="-12.5" font-family="Helvetica,sans-Serif" font-size="10.00">hardware/irq.h</text>
</a>
</g>
</g>
<!-- Node1&#45;&gt;Node6 -->
<g id="edge5_Node000001_Node000006" class="edge">
<title>Node1&#45;&gt;Node6</title>
<g id="a_edge5_Node000001_Node000006"><a xlink:title=" ">
<path fill="none" stroke="#63b8ff" d="M293.78,-69.53C331.32,-61.6 406.58,-45.43 470,-30 473.79,-29.08 477.73,-28.09 481.67,-27.09"/>
<polygon fill="#63b8ff" stroke="#63b8ff" points="482.58,-30.47 491.38,-24.57 480.82,-23.69 482.58,-30.47"/>
</a>
</g>
</g>
</g>
</svg>
