<?xml version="1.0" encoding="UTF-8" standalone="no"?>
<!DOCTYPE svg PUBLIC "-//W3C//DTD SVG 1.1//EN"
 "http://www.w3.org/Graphics/SVG/1.1/DTD/svg11.dtd">
<!-- Generated by graphviz version 2.43.0 (0)
 -->
<!-- Title: time.h Pages: 1 -->
<svg width="522pt" height="192pt"
 viewBox="0.00 0.00 521.50 192.00" xmlns="http://www.w3.org/2000/svg" xmlns:xlink="http://www.w3.org/1999/xlink">
<g id="graph0" class="graph" transform="scale(1 1) rotate(0) translate(4 188)">
<title>time.h</title>
<!-- Node1 -->
<g id="Node000001" class="node">
<title>Node1</title>
<g id="a_Node000001"><a xlink:title=" ">
<polygon fill="#999999" stroke="#666666" points="225,-184 177,-184 177,-165 225,-165 225,-184"/>
<text text-anchor="middle" x="201" y="-172" font-family="Helvetica,sans-Serif" font-size="10.00">time.h</text>
</a>
</g>
</g>
<!-- Node2 -->
<g id="Node000002" class="node">
<title>Node2</title>
<g id="a_Node000002"><a xlink:href="cc_8h.html" target="_top" xlink:title=" ">
<polygon fill="white" stroke="#666666" points="36,-129 0,-129 0,-110 36,-110 36,-129"/>
<text text-anchor="middle" x="18" y="-117" font-family="Helvetica,sans-Serif" font-size="10.00">cc.h</text>
</a>
</g>
</g>
<!-- Node1&#45;&gt;Node2 -->
<g id="edge1_Node000001_Node000002" class="edge">
<title>Node1&#45;&gt;Node2</title>
<g id="a_edge1_Node000001_Node000002"><a xlink:title=" ">
<path fill="none" stroke="#63b8ff" d="M167.24,-164.15C135.59,-155.33 86.99,-141.6 45,-129 42.18,-128.15 39.19,-127.24 36.28,-126.33"/>
<polygon fill="#63b8ff" stroke="#63b8ff" points="166.32,-167.53 176.89,-166.84 168.19,-160.79 166.32,-167.53"/>
</a>
</g>
</g>
<!-- Node3 -->
<g id="Node000003" class="node">
<title>Node3</title>
<g id="a_Node000003"><a xlink:href="datetime_8h.html" target="_top" xlink:title=" ">
<polygon fill="white" stroke="#666666" points="124,-129 54,-129 54,-110 124,-110 124,-129"/>
<text text-anchor="middle" x="89" y="-117" font-family="Helvetica,sans-Serif" font-size="10.00">datetime.h</text>
</a>
</g>
</g>
<!-- Node1&#45;&gt;Node3 -->
<g id="edge2_Node000001_Node000003" class="edge">
<title>Node1&#45;&gt;Node3</title>
<g id="a_edge2_Node000001_Node000003"><a xlink:title=" ">
<path fill="none" stroke="#63b8ff" d="M173.81,-160.63C153.18,-150.87 125.38,-137.71 107.32,-129.17"/>
<polygon fill="#63b8ff" stroke="#63b8ff" points="172.47,-163.87 183.01,-164.98 175.46,-157.54 172.47,-163.87"/>
</a>
</g>
</g>
<!-- Node7 -->
<g id="Node000007" class="node">
<title>Node7</title>
<g id="a_Node000007"><a xlink:href="llvm__libc__interface_8c.html" target="_top" xlink:title=" ">
<polygon fill="white" stroke="#666666" points="260,-129 142,-129 142,-110 260,-110 260,-129"/>
<text text-anchor="middle" x="201" y="-117" font-family="Helvetica,sans-Serif" font-size="10.00">llvm_libc_interface.c</text>
</a>
</g>
</g>
<!-- Node1&#45;&gt;Node7 -->
<g id="edge6_Node000001_Node000007" class="edge">
<title>Node1&#45;&gt;Node7</title>
<g id="a_edge6_Node000001_Node000007"><a xlink:title=" ">
<path fill="none" stroke="#63b8ff" d="M201,-154.66C201,-145.93 201,-135.99 201,-129.09"/>
<polygon fill="#63b8ff" stroke="#63b8ff" points="197.5,-154.75 201,-164.75 204.5,-154.75 197.5,-154.75"/>
</a>
</g>
</g>
<!-- Node8 -->
<g id="Node000008" class="node">
<title>Node8</title>
<g id="a_Node000008"><a xlink:href="newlib__interface_8c.html" target="_top" xlink:title=" ">
<polygon fill="white" stroke="#666666" points="384,-129 278,-129 278,-110 384,-110 384,-129"/>
<text text-anchor="middle" x="331" y="-117" font-family="Helvetica,sans-Serif" font-size="10.00">newlib_interface.c</text>
</a>
</g>
</g>
<!-- Node1&#45;&gt;Node8 -->
<g id="edge7_Node000001_Node000008" class="edge">
<title>Node1&#45;&gt;Node8</title>
<g id="a_edge7_Node000001_Node000008"><a xlink:title=" ">
<path fill="none" stroke="#63b8ff" d="M231.27,-161.16C255.34,-151.35 288.4,-137.87 309.73,-129.17"/>
<polygon fill="#63b8ff" stroke="#63b8ff" points="229.83,-157.97 221.89,-164.98 232.47,-164.45 229.83,-157.97"/>
</a>
</g>
</g>
<!-- Node9 -->
<g id="Node000009" class="node">
<title>Node9</title>
<g id="a_Node000009"><a xlink:href="picolibc__interface_8c.html" target="_top" xlink:title=" ">
<polygon fill="white" stroke="#666666" points="513.5,-129 402.5,-129 402.5,-110 513.5,-110 513.5,-129"/>
<text text-anchor="middle" x="458" y="-117" font-family="Helvetica,sans-Serif" font-size="10.00">picolibc_interface.c</text>
</a>
</g>
</g>
<!-- Node1&#45;&gt;Node9 -->
<g id="edge8_Node000001_Node000009" class="edge">
<title>Node1&#45;&gt;Node9</title>
<g id="a_edge8_Node000001_Node000009"><a xlink:title=" ">
<path fill="none" stroke="#63b8ff" d="M235.13,-166.46C281.94,-156.81 366,-139.47 416.42,-129.07"/>
<polygon fill="#63b8ff" stroke="#63b8ff" points="234.26,-163.07 225.18,-168.51 235.68,-169.92 234.26,-163.07"/>
</a>
</g>
</g>
<!-- Node4 -->
<g id="Node000004" class="node">
<title>Node4</title>
<g id="a_Node000004"><a xlink:href="aon__timer_8h.html" target="_top" xlink:title=" ">
<polygon fill="white" stroke="#666666" points="81.5,-74 6.5,-74 6.5,-55 81.5,-55 81.5,-74"/>
<text text-anchor="middle" x="44" y="-62" font-family="Helvetica,sans-Serif" font-size="10.00">aon_timer.h</text>
</a>
</g>
</g>
<!-- Node3&#45;&gt;Node4 -->
<g id="edge3_Node000003_Node000004" class="edge">
<title>Node3&#45;&gt;Node4</title>
<g id="a_edge3_Node000003_Node000004"><a xlink:title=" ">
<path fill="none" stroke="#63b8ff" d="M74.95,-101.96C67.11,-92.72 57.67,-81.6 51.29,-74.09"/>
<polygon fill="#63b8ff" stroke="#63b8ff" points="72.43,-104.39 81.57,-109.75 77.76,-99.86 72.43,-104.39"/>
</a>
</g>
</g>
<!-- Node6 -->
<g id="Node000006" class="node">
<title>Node6</title>
<g id="a_Node000006"><a xlink:href="datetime_8c.html" target="_top" xlink:title=" ">
<polygon fill="white" stroke="#666666" points="168.5,-74 99.5,-74 99.5,-55 168.5,-55 168.5,-74"/>
<text text-anchor="middle" x="134" y="-62" font-family="Helvetica,sans-Serif" font-size="10.00">datetime.c</text>
</a>
</g>
</g>
<!-- Node3&#45;&gt;Node6 -->
<g id="edge5_Node000003_Node000006" class="edge">
<title>Node3&#45;&gt;Node6</title>
<g id="a_edge5_Node000003_Node000006"><a xlink:title=" ">
<path fill="none" stroke="#63b8ff" d="M103.05,-101.96C110.89,-92.72 120.33,-81.6 126.71,-74.09"/>
<polygon fill="#63b8ff" stroke="#63b8ff" points="100.24,-99.86 96.43,-109.75 105.57,-104.39 100.24,-99.86"/>
</a>
</g>
</g>
<!-- Node5 -->
<g id="Node000005" class="node">
<title>Node5</title>
<g id="a_Node000005"><a xlink:href="aon__timer_8c.html" target="_top" xlink:title=" ">
<polygon fill="white" stroke="#666666" points="81,-19 7,-19 7,0 81,0 81,-19"/>
<text text-anchor="middle" x="44" y="-7" font-family="Helvetica,sans-Serif" font-size="10.00">aon_timer.c</text>
</a>
</g>
</g>
<!-- Node4&#45;&gt;Node5 -->
<g id="edge4_Node000004_Node000005" class="edge">
<title>Node4&#45;&gt;Node5</title>
<g id="a_edge4_Node000004_Node000005"><a xlink:title=" ">
<path fill="none" stroke="#63b8ff" d="M44,-44.66C44,-35.93 44,-25.99 44,-19.09"/>
<polygon fill="#63b8ff" stroke="#63b8ff" points="40.5,-44.75 44,-54.75 47.5,-44.75 40.5,-44.75"/>
</a>
</g>
</g>
</g>
</svg>
