<?xml version="1.0" encoding="UTF-8" standalone="no"?>
<!DOCTYPE svg PUBLIC "-//W3C//DTD SVG 1.1//EN"
 "http://www.w3.org/Graphics/SVG/1.1/DTD/svg11.dtd">
<!-- Generated by graphviz version 2.43.0 (0)
 -->
<!-- Title: uart.h Pages: 1 -->
<svg width="579pt" height="137pt"
 viewBox="0.00 0.00 579.20 137.00" xmlns="http://www.w3.org/2000/svg" xmlns:xlink="http://www.w3.org/1999/xlink">
<g id="graph0" class="graph" transform="scale(1 1) rotate(0) translate(4 133)">
<title>uart.h</title>
<!-- Node1 -->
<g id="Node000001" class="node">
<title>Node1</title>
<g id="a_Node000001"><a xlink:title=" ">
<polygon fill="#999999" stroke="#666666" points="247.7,-129 202.7,-129 202.7,-110 247.7,-110 247.7,-129"/>
<text text-anchor="middle" x="225.2" y="-117" font-family="Helvetica,sans-Serif" font-size="10.00">uart.h</text>
</a>
</g>
</g>
<!-- Node2 -->
<g id="Node000002" class="node">
<title>Node2</title>
<g id="a_Node000002"><a xlink:title=" ">
<polygon fill="#e0e0e0" stroke="#999999" points="213.2,-19 167.2,-19 167.2,0 213.2,0 213.2,-19"/>
<text text-anchor="middle" x="190.2" y="-7" font-family="Helvetica,sans-Serif" font-size="10.00">pico.h</text>
</a>
</g>
</g>
<!-- Node1&#45;&gt;Node2 -->
<g id="edge1_Node000001_Node000002" class="edge">
<title>Node1&#45;&gt;Node2</title>
<g id="a_edge1_Node000001_Node000002"><a xlink:title=" ">
<path fill="none" stroke="#63b8ff" d="M202.46,-117.34C151.88,-114.25 32.57,-103.87 8.2,-74 -32.99,-23.5 93.8,-13.09 156.84,-10.99"/>
<polygon fill="#63b8ff" stroke="#63b8ff" points="157.2,-14.48 167.1,-10.71 157.01,-7.49 157.2,-14.48"/>
</a>
</g>
</g>
<!-- Node3 -->
<g id="Node000003" class="node">
<title>Node3</title>
<g id="a_Node000003"><a xlink:title=" ">
<polygon fill="#e0e0e0" stroke="#999999" points="147.2,-74 17.2,-74 17.2,-55 147.2,-55 147.2,-74"/>
<text text-anchor="middle" x="82.2" y="-62" font-family="Helvetica,sans-Serif" font-size="10.00">hardware/structs/uart.h</text>
</a>
</g>
</g>
<!-- Node1&#45;&gt;Node3 -->
<g id="edge2_Node000001_Node000003" class="edge">
<title>Node1&#45;&gt;Node3</title>
<g id="a_edge2_Node000001_Node000003"><a xlink:title=" ">
<path fill="none" stroke="#63b8ff" d="M202.54,-110.1C178.94,-101.35 141.73,-87.56 114.94,-77.63"/>
<polygon fill="#63b8ff" stroke="#63b8ff" points="115.82,-74.23 105.23,-74.03 113.39,-80.79 115.82,-74.23"/>
</a>
</g>
</g>
<!-- Node4 -->
<g id="Node000004" class="node">
<title>Node4</title>
<g id="a_Node000004"><a xlink:title=" ">
<polygon fill="#e0e0e0" stroke="#999999" points="285.2,-74 165.2,-74 165.2,-55 285.2,-55 285.2,-74"/>
<text text-anchor="middle" x="225.2" y="-62" font-family="Helvetica,sans-Serif" font-size="10.00">hardware/regs/dreq.h</text>
</a>
</g>
</g>
<!-- Node1&#45;&gt;Node4 -->
<g id="edge3_Node000001_Node000004" class="edge">
<title>Node1&#45;&gt;Node4</title>
<g id="a_edge3_Node000001_Node000004"><a xlink:title=" ">
<path fill="none" stroke="#63b8ff" d="M225.2,-109.75C225.2,-102.8 225.2,-92.85 225.2,-84.13"/>
<polygon fill="#63b8ff" stroke="#63b8ff" points="228.7,-84.09 225.2,-74.09 221.7,-84.09 228.7,-84.09"/>
</a>
</g>
</g>
<!-- Node5 -->
<g id="Node000005" class="node">
<title>Node5</title>
<g id="a_Node000005"><a xlink:title=" ">
<polygon fill="#e0e0e0" stroke="#999999" points="430.7,-74 303.7,-74 303.7,-55 430.7,-55 430.7,-74"/>
<text text-anchor="middle" x="367.2" y="-62" font-family="Helvetica,sans-Serif" font-size="10.00">hardware/regs/intctrl.h</text>
</a>
</g>
</g>
<!-- Node1&#45;&gt;Node5 -->
<g id="edge4_Node000001_Node000005" class="edge">
<title>Node1&#45;&gt;Node5</title>
<g id="a_edge4_Node000001_Node000005"><a xlink:title=" ">
<path fill="none" stroke="#63b8ff" d="M247.7,-110.1C271.14,-101.35 308.09,-87.56 334.69,-77.63"/>
<polygon fill="#63b8ff" stroke="#63b8ff" points="336.19,-80.81 344.34,-74.03 333.74,-74.25 336.19,-80.81"/>
</a>
</g>
</g>
<!-- Node6 -->
<g id="Node000006" class="node">
<title>Node6</title>
<g id="a_Node000006"><a xlink:href="rp2__common_2hardware__resets_2include_2hardware_2resets_8h.html" target="_top" xlink:title=" ">
<polygon fill="white" stroke="#666666" points="553.2,-74 449.2,-74 449.2,-55 553.2,-55 553.2,-74"/>
<text text-anchor="middle" x="501.2" y="-62" font-family="Helvetica,sans-Serif" font-size="10.00">hardware/resets.h</text>
</a>
</g>
</g>
<!-- Node1&#45;&gt;Node6 -->
<g id="edge5_Node000001_Node000006" class="edge">
<title>Node1&#45;&gt;Node6</title>
<g id="a_edge5_Node000001_Node000006"><a xlink:title=" ">
<path fill="none" stroke="#63b8ff" d="M247.79,-114.16C290.87,-105.89 385.89,-87.64 446.55,-75.99"/>
<polygon fill="#63b8ff" stroke="#63b8ff" points="447.56,-79.37 456.72,-74.04 446.24,-72.49 447.56,-79.37"/>
</a>
</g>
</g>
<!-- Node6&#45;&gt;Node2 -->
<g id="edge6_Node000006_Node000002" class="edge">
<title>Node6&#45;&gt;Node2</title>
<g id="a_edge6_Node000006_Node000002"><a xlink:title=" ">
<path fill="none" stroke="#63b8ff" d="M451.23,-54.98C387.33,-44.09 278.4,-25.53 223.67,-16.2"/>
<polygon fill="#63b8ff" stroke="#63b8ff" points="223.92,-12.7 213.48,-14.47 222.75,-19.6 223.92,-12.7"/>
</a>
</g>
</g>
<!-- Node7 -->
<g id="Node000007" class="node">
<title>Node7</title>
<g id="a_Node000007"><a xlink:title=" ">
<polygon fill="#e0e0e0" stroke="#999999" points="571.2,-19 431.2,-19 431.2,0 571.2,0 571.2,-19"/>
<text text-anchor="middle" x="501.2" y="-7" font-family="Helvetica,sans-Serif" font-size="10.00">hardware/structs/resets.h</text>
</a>
</g>
</g>
<!-- Node6&#45;&gt;Node7 -->
<g id="edge7_Node000006_Node000007" class="edge">
<title>Node6&#45;&gt;Node7</title>
<g id="a_edge7_Node000006_Node000007"><a xlink:title=" ">
<path fill="none" stroke="#63b8ff" d="M501.2,-54.75C501.2,-47.8 501.2,-37.85 501.2,-29.13"/>
<polygon fill="#63b8ff" stroke="#63b8ff" points="504.7,-29.09 501.2,-19.09 497.7,-29.09 504.7,-29.09"/>
</a>
</g>
</g>
</g>
</svg>
