<?xml version="1.0" encoding="UTF-8" standalone="no"?>
<!DOCTYPE svg PUBLIC "-//W3C//DTD SVG 1.1//EN"
 "http://www.w3.org/Graphics/SVG/1.1/DTD/svg11.dtd">
<!-- Generated by graphviz version 2.43.0 (0)
 -->
<!-- Title: sha256.h Pages: 1 -->
<svg width="407pt" height="247pt"
 viewBox="0.00 0.00 406.50 247.00" xmlns="http://www.w3.org/2000/svg" xmlns:xlink="http://www.w3.org/1999/xlink">
<g id="graph0" class="graph" transform="scale(1 1) rotate(0) translate(4 243)">
<title>sha256.h</title>
<!-- Node1 -->
<g id="Node000001" class="node">
<title>Node1</title>
<g id="a_Node000001"><a xlink:title=" ">
<polygon fill="#999999" stroke="#666666" points="113.5,-239 52.5,-239 52.5,-220 113.5,-220 113.5,-239"/>
<text text-anchor="middle" x="83" y="-227" font-family="Helvetica,sans-Serif" font-size="10.00">sha256.h</text>
</a>
</g>
</g>
<!-- Node2 -->
<g id="Node000002" class="node">
<title>Node2</title>
<g id="a_Node000002"><a xlink:title=" ">
<polygon fill="#e0e0e0" stroke="#999999" points="46,-74 0,-74 0,-55 46,-55 46,-74"/>
<text text-anchor="middle" x="23" y="-62" font-family="Helvetica,sans-Serif" font-size="10.00">pico.h</text>
</a>
</g>
</g>
<!-- Node1&#45;&gt;Node2 -->
<g id="edge1_Node000001_Node000002" class="edge">
<title>Node1&#45;&gt;Node2</title>
<g id="a_edge1_Node000001_Node000002"><a xlink:title=" ">
<path fill="none" stroke="#63b8ff" d="M78.22,-219.81C73.48,-210.97 66.18,-196.78 61,-184 47,-149.42 34.6,-107.59 28.01,-84.01"/>
<polygon fill="#63b8ff" stroke="#63b8ff" points="31.36,-82.99 25.33,-74.28 24.61,-84.85 31.36,-82.99"/>
</a>
</g>
</g>
<!-- Node3 -->
<g id="Node000003" class="node">
<title>Node3</title>
<g id="a_Node000003"><a xlink:href="rp2350_2hardware__structs_2include_2hardware_2structs_2sha256_8h.html" target="_top" xlink:title=" ">
<polygon fill="white" stroke="#666666" points="216,-184 70,-184 70,-165 216,-165 216,-184"/>
<text text-anchor="middle" x="143" y="-172" font-family="Helvetica,sans-Serif" font-size="10.00">hardware/structs/sha256.h</text>
</a>
</g>
</g>
<!-- Node1&#45;&gt;Node3 -->
<g id="edge2_Node000001_Node000003" class="edge">
<title>Node1&#45;&gt;Node3</title>
<g id="a_edge2_Node000001_Node000003"><a xlink:title=" ">
<path fill="none" stroke="#63b8ff" d="M92.64,-219.98C101.51,-212.15 114.87,-200.34 125.61,-190.86"/>
<polygon fill="#63b8ff" stroke="#63b8ff" points="128.01,-193.41 133.18,-184.17 123.37,-188.17 128.01,-193.41"/>
</a>
</g>
</g>
<!-- Node4 -->
<g id="Node000004" class="node">
<title>Node4</title>
<g id="a_Node000004"><a xlink:href="address__mapped_8h.html" target="_top" xlink:title=" ">
<polygon fill="white" stroke="#666666" points="222,-129 64,-129 64,-110 222,-110 222,-129"/>
<text text-anchor="middle" x="143" y="-117" font-family="Helvetica,sans-Serif" font-size="10.00">hardware/address_mapped.h</text>
</a>
</g>
</g>
<!-- Node3&#45;&gt;Node4 -->
<g id="edge3_Node000003_Node000004" class="edge">
<title>Node3&#45;&gt;Node4</title>
<g id="a_edge3_Node000003_Node000004"><a xlink:title=" ">
<path fill="none" stroke="#63b8ff" d="M143,-164.75C143,-157.8 143,-147.85 143,-139.13"/>
<polygon fill="#63b8ff" stroke="#63b8ff" points="146.5,-139.09 143,-129.09 139.5,-139.09 146.5,-139.09"/>
</a>
</g>
</g>
<!-- Node8 -->
<g id="Node000008" class="node">
<title>Node8</title>
<g id="a_Node000008"><a xlink:href="rp2350_2hardware__regs_2include_2hardware_2regs_2sha256_8h.html" target="_top" xlink:title=" ">
<polygon fill="white" stroke="#666666" points="374,-129 240,-129 240,-110 374,-110 374,-129"/>
<text text-anchor="middle" x="307" y="-117" font-family="Helvetica,sans-Serif" font-size="10.00">hardware/regs/sha256.h</text>
</a>
</g>
</g>
<!-- Node3&#45;&gt;Node8 -->
<g id="edge9_Node000003_Node000008" class="edge">
<title>Node3&#45;&gt;Node8</title>
<g id="a_edge9_Node000003_Node000008"><a xlink:title=" ">
<path fill="none" stroke="#63b8ff" d="M169.35,-164.98C196.76,-156.13 239.89,-142.19 270.56,-132.28"/>
<polygon fill="#63b8ff" stroke="#63b8ff" points="272,-135.49 280.44,-129.08 269.85,-128.83 272,-135.49"/>
</a>
</g>
</g>
<!-- Node4&#45;&gt;Node2 -->
<g id="edge4_Node000004_Node000002" class="edge">
<title>Node4&#45;&gt;Node2</title>
<g id="a_edge4_Node000004_Node000002"><a xlink:title=" ">
<path fill="none" stroke="#63b8ff" d="M123.72,-109.98C104.33,-101.42 74.19,-88.11 51.93,-78.28"/>
<polygon fill="#63b8ff" stroke="#63b8ff" points="53.19,-75.01 42.63,-74.17 50.36,-81.41 53.19,-75.01"/>
</a>
</g>
</g>
<!-- Node5 -->
<g id="Node000005" class="node">
<title>Node5</title>
<g id="a_Node000005"><a xlink:title=" ">
<polygon fill="#e0e0e0" stroke="#999999" points="222,-74 64,-74 64,-55 222,-55 222,-74"/>
<text text-anchor="middle" x="143" y="-62" font-family="Helvetica,sans-Serif" font-size="10.00">hardware/regs/addressmap.h</text>
</a>
</g>
</g>
<!-- Node4&#45;&gt;Node5 -->
<g id="edge5_Node000004_Node000005" class="edge">
<title>Node4&#45;&gt;Node5</title>
<g id="a_edge5_Node000004_Node000005"><a xlink:title=" ">
<path fill="none" stroke="#63b8ff" d="M143,-109.75C143,-102.8 143,-92.85 143,-84.13"/>
<polygon fill="#63b8ff" stroke="#63b8ff" points="146.5,-84.09 143,-74.09 139.5,-84.09 146.5,-84.09"/>
</a>
</g>
</g>
<!-- Node6 -->
<g id="Node000006" class="node">
<title>Node6</title>
<g id="a_Node000006"><a xlink:href="hardware__structs_2include_2hardware_2structs_2accessctrl_8h.html" target="_top" xlink:title=" ">
<polygon fill="white" stroke="#666666" points="398.5,-74 239.5,-74 239.5,-55 398.5,-55 398.5,-74"/>
<text text-anchor="middle" x="319" y="-62" font-family="Helvetica,sans-Serif" font-size="10.00">hardware/structs/accessctrl.h</text>
</a>
</g>
</g>
<!-- Node4&#45;&gt;Node6 -->
<g id="edge6_Node000004_Node000006" class="edge">
<title>Node4&#45;&gt;Node6</title>
<g id="a_edge6_Node000004_Node000006"><a xlink:title=" ">
<path fill="none" stroke="#63b8ff" d="M166.16,-109.98C193.99,-101.01 240.91,-86.82 275.52,-76.89"/>
<polygon fill="#63b8ff" stroke="#63b8ff" points="276.71,-80.19 285.37,-74.08 274.8,-73.46 276.71,-80.19"/>
</a>
</g>
</g>
<!-- Node6&#45;&gt;Node4 -->
<g id="edge7_Node000006_Node000004" class="edge">
<title>Node6&#45;&gt;Node4</title>
<g id="a_edge7_Node000006_Node000004"><a xlink:title=" ">
<path fill="none" stroke="#63b8ff" d="M295.63,-74.08C267.71,-83.08 220.77,-97.27 186.23,-107.18"/>
<polygon fill="#63b8ff" stroke="#63b8ff" points="185.05,-103.88 176.39,-109.98 186.97,-110.61 185.05,-103.88"/>
</a>
</g>
</g>
<!-- Node7 -->
<g id="Node000007" class="node">
<title>Node7</title>
<g id="a_Node000007"><a xlink:href="hardware__regs_2include_2hardware_2regs_2accessctrl_8h.html" target="_top" xlink:title=" ">
<polygon fill="white" stroke="#666666" points="392.5,-19 245.5,-19 245.5,0 392.5,0 392.5,-19"/>
<text text-anchor="middle" x="319" y="-7" font-family="Helvetica,sans-Serif" font-size="10.00">hardware/regs/accessctrl.h</text>
</a>
</g>
</g>
<!-- Node6&#45;&gt;Node7 -->
<g id="edge8_Node000006_Node000007" class="edge">
<title>Node6&#45;&gt;Node7</title>
<g id="a_edge8_Node000006_Node000007"><a xlink:title=" ">
<path fill="none" stroke="#63b8ff" d="M319,-54.75C319,-47.8 319,-37.85 319,-29.13"/>
<polygon fill="#63b8ff" stroke="#63b8ff" points="322.5,-29.09 319,-19.09 315.5,-29.09 322.5,-29.09"/>
</a>
</g>
</g>
</g>
</svg>
