<?xml version="1.0" encoding="UTF-8" standalone="no"?>
<!DOCTYPE svg PUBLIC "-//W3C//DTD SVG 1.1//EN"
 "http://www.w3.org/Graphics/SVG/1.1/DTD/svg11.dtd">
<!-- Generated by graphviz version 2.43.0 (0)
 -->
<!-- Title: i2c.h Pages: 1 -->
<svg width="363pt" height="247pt"
 viewBox="0.00 0.00 362.50 247.00" xmlns="http://www.w3.org/2000/svg" xmlns:xlink="http://www.w3.org/1999/xlink">
<g id="graph0" class="graph" transform="scale(1 1) rotate(0) translate(4 243)">
<title>i2c.h</title>
<!-- Node1 -->
<g id="Node000001" class="node">
<title>Node1</title>
<g id="a_Node000001"><a xlink:title=" ">
<polygon fill="#999999" stroke="#666666" points="176.5,-239 136.5,-239 136.5,-220 176.5,-220 176.5,-239"/>
<text text-anchor="middle" x="156.5" y="-227" font-family="Helvetica,sans-Serif" font-size="10.00">i2c.h</text>
</a>
</g>
</g>
<!-- Node2 -->
<g id="Node000002" class="node">
<title>Node2</title>
<g id="a_Node000002"><a xlink:href="i2c_8c.html" target="_top" xlink:title=" ">
<polygon fill="white" stroke="#666666" points="39,-184 0,-184 0,-165 39,-165 39,-184"/>
<text text-anchor="middle" x="19.5" y="-172" font-family="Helvetica,sans-Serif" font-size="10.00">i2c.c</text>
</a>
</g>
</g>
<!-- Node1&#45;&gt;Node2 -->
<g id="edge1_Node000001_Node000002" class="edge">
<title>Node1&#45;&gt;Node2</title>
<g id="a_edge1_Node000001_Node000002"><a xlink:title=" ">
<path fill="none" stroke="#63b8ff" d="M126.76,-216.99C100.28,-206.75 62.3,-192.06 39.35,-183.18"/>
<polygon fill="#63b8ff" stroke="#63b8ff" points="125.7,-220.34 136.29,-220.68 128.22,-213.81 125.7,-220.34"/>
</a>
</g>
</g>
<!-- Node3 -->
<g id="Node000003" class="node">
<title>Node3</title>
<g id="a_Node000003"><a xlink:href="i2c__slave_8h.html" target="_top" xlink:title=" ">
<polygon fill="white" stroke="#666666" points="128,-184 57,-184 57,-165 128,-165 128,-184"/>
<text text-anchor="middle" x="92.5" y="-172" font-family="Helvetica,sans-Serif" font-size="10.00">i2c_slave.h</text>
</a>
</g>
</g>
<!-- Node1&#45;&gt;Node3 -->
<g id="edge2_Node000001_Node000003" class="edge">
<title>Node1&#45;&gt;Node3</title>
<g id="a_edge2_Node000001_Node000003"><a xlink:title=" ">
<path fill="none" stroke="#63b8ff" d="M138.51,-213.6C127.04,-204.11 112.59,-192.13 102.97,-184.17"/>
<polygon fill="#63b8ff" stroke="#63b8ff" points="136.28,-216.3 146.22,-219.98 140.75,-210.91 136.28,-216.3"/>
</a>
</g>
</g>
<!-- Node5 -->
<g id="Node000005" class="node">
<title>Node5</title>
<g id="a_Node000005"><a xlink:href="main_8c.html" target="_top" xlink:title=" ">
<polygon fill="white" stroke="#666666" points="218.5,-19 168.5,-19 168.5,0 218.5,0 218.5,-19"/>
<text text-anchor="middle" x="193.5" y="-7" font-family="Helvetica,sans-Serif" font-size="10.00">main.c</text>
</a>
</g>
</g>
<!-- Node1&#45;&gt;Node5 -->
<g id="edge4_Node000001_Node000005" class="edge">
<title>Node1&#45;&gt;Node5</title>
<g id="a_edge4_Node000001_Node000005"><a xlink:title=" ">
<path fill="none" stroke="#63b8ff" d="M159.36,-209.96C162.98,-186.62 169.48,-145.3 175.5,-110 181.26,-76.26 188.69,-36.19 191.9,-19.01"/>
<polygon fill="#63b8ff" stroke="#63b8ff" points="155.89,-209.45 157.82,-219.87 162.81,-210.52 155.89,-209.45"/>
</a>
</g>
</g>
<!-- Node6 -->
<g id="Node000006" class="node">
<title>Node6</title>
<g id="a_Node000006"><a xlink:href="ssd1306__i2c_8c.html" target="_top" xlink:title=" ">
<polygon fill="white" stroke="#666666" points="270,-129 185,-129 185,-110 270,-110 270,-129"/>
<text text-anchor="middle" x="227.5" y="-117" font-family="Helvetica,sans-Serif" font-size="10.00">ssd1306_i2c.c</text>
</a>
</g>
</g>
<!-- Node1&#45;&gt;Node6 -->
<g id="edge5_Node000001_Node000006" class="edge">
<title>Node1&#45;&gt;Node6</title>
<g id="a_edge5_Node000001_Node000006"><a xlink:title=" ">
<path fill="none" stroke="#63b8ff" d="M167.96,-211.07C183.36,-187.64 210.15,-146.89 221.81,-129.16"/>
<polygon fill="#63b8ff" stroke="#63b8ff" points="164.88,-209.38 162.31,-219.66 170.73,-213.23 164.88,-209.38"/>
</a>
</g>
</g>
<!-- Node7 -->
<g id="Node000007" class="node">
<title>Node7</title>
<g id="a_Node000007"><a xlink:href="ssd1306__i2c_8h.html" target="_top" xlink:title=" ">
<polygon fill="white" stroke="#666666" points="308.5,-184 222.5,-184 222.5,-165 308.5,-165 308.5,-184"/>
<text text-anchor="middle" x="265.5" y="-172" font-family="Helvetica,sans-Serif" font-size="10.00">ssd1306_i2c.h</text>
</a>
</g>
</g>
<!-- Node1&#45;&gt;Node7 -->
<g id="edge6_Node000001_Node000007" class="edge">
<title>Node1&#45;&gt;Node7</title>
<g id="a_edge6_Node000001_Node000007"><a xlink:title=" ">
<path fill="none" stroke="#63b8ff" d="M183.23,-215.5C203.29,-205.75 230.18,-192.68 247.67,-184.17"/>
<polygon fill="#63b8ff" stroke="#63b8ff" points="181.48,-212.46 174.01,-219.98 184.54,-218.76 181.48,-212.46"/>
</a>
</g>
</g>
<!-- Node4 -->
<g id="Node000004" class="node">
<title>Node4</title>
<g id="a_Node000004"><a xlink:href="i2c__slave_8c.html" target="_top" xlink:title=" ">
<polygon fill="white" stroke="#666666" points="128,-129 57,-129 57,-110 128,-110 128,-129"/>
<text text-anchor="middle" x="92.5" y="-117" font-family="Helvetica,sans-Serif" font-size="10.00">i2c_slave.c</text>
</a>
</g>
</g>
<!-- Node3&#45;&gt;Node4 -->
<g id="edge3_Node000003_Node000004" class="edge">
<title>Node3&#45;&gt;Node4</title>
<g id="a_edge3_Node000003_Node000004"><a xlink:title=" ">
<path fill="none" stroke="#63b8ff" d="M92.5,-154.66C92.5,-145.93 92.5,-135.99 92.5,-129.09"/>
<polygon fill="#63b8ff" stroke="#63b8ff" points="89,-154.75 92.5,-164.75 96,-154.75 89,-154.75"/>
</a>
</g>
</g>
<!-- Node7&#45;&gt;Node6 -->
<g id="edge12_Node000007_Node000006" class="edge">
<title>Node7&#45;&gt;Node6</title>
<g id="a_edge12_Node000007_Node000006"><a xlink:title=" ">
<path fill="none" stroke="#63b8ff" d="M253.23,-156.39C246.69,-147.27 238.93,-136.45 233.66,-129.09"/>
<polygon fill="#63b8ff" stroke="#63b8ff" points="250.55,-158.66 259.23,-164.75 256.24,-154.58 250.55,-158.66"/>
</a>
</g>
</g>
<!-- Node8 -->
<g id="Node000008" class="node">
<title>Node8</title>
<g id="a_Node000008"><a xlink:href="ssd1306_8h.html" target="_top" xlink:title=" ">
<polygon fill="white" stroke="#666666" points="354.5,-129 288.5,-129 288.5,-110 354.5,-110 354.5,-129"/>
<text text-anchor="middle" x="321.5" y="-117" font-family="Helvetica,sans-Serif" font-size="10.00">ssd1306.h</text>
</a>
</g>
</g>
<!-- Node7&#45;&gt;Node8 -->
<g id="edge7_Node000007_Node000008" class="edge">
<title>Node7&#45;&gt;Node8</title>
<g id="a_edge7_Node000007_Node000008"><a xlink:title=" ">
<path fill="none" stroke="#63b8ff" d="M281.83,-158.04C291.76,-148.64 304.09,-136.98 312.34,-129.17"/>
<polygon fill="#63b8ff" stroke="#63b8ff" points="279.35,-155.57 274.5,-164.98 284.17,-160.65 279.35,-155.57"/>
</a>
</g>
</g>
<!-- Node9 -->
<g id="Node000009" class="node">
<title>Node9</title>
<g id="a_Node000009"><a xlink:href="oled_8c.html" target="_top" xlink:title=" ">
<polygon fill="white" stroke="#666666" points="318.5,-19 272.5,-19 272.5,0 318.5,0 318.5,-19"/>
<text text-anchor="middle" x="295.5" y="-7" font-family="Helvetica,sans-Serif" font-size="10.00">oled.c</text>
</a>
</g>
</g>
<!-- Node8&#45;&gt;Node9 -->
<g id="edge8_Node000008_Node000009" class="edge">
<title>Node8&#45;&gt;Node9</title>
<g id="a_edge8_Node000008_Node000009"><a xlink:title=" ">
<path fill="none" stroke="#63b8ff" d="M317,-99.8C311.32,-76.2 301.78,-36.58 297.58,-19.16"/>
<polygon fill="#63b8ff" stroke="#63b8ff" points="313.63,-100.76 319.37,-109.66 320.43,-99.12 313.63,-100.76"/>
</a>
</g>
</g>
<!-- Node10 -->
<g id="Node000010" class="node">
<title>Node10</title>
<g id="a_Node000010"><a xlink:href="oled_8h.html" target="_top" xlink:title=" ">
<polygon fill="white" stroke="#666666" points="293,-74 246,-74 246,-55 293,-55 293,-74"/>
<text text-anchor="middle" x="269.5" y="-62" font-family="Helvetica,sans-Serif" font-size="10.00">oled.h</text>
</a>
</g>
</g>
<!-- Node8&#45;&gt;Node10 -->
<g id="edge9_Node000008_Node000010" class="edge">
<title>Node8&#45;&gt;Node10</title>
<g id="a_edge9_Node000008_Node000010"><a xlink:title=" ">
<path fill="none" stroke="#63b8ff" d="M305.82,-102.52C296.66,-93.18 285.45,-81.75 277.93,-74.09"/>
<polygon fill="#63b8ff" stroke="#63b8ff" points="303.41,-105.06 312.91,-109.75 308.41,-100.16 303.41,-105.06"/>
</a>
</g>
</g>
<!-- Node10&#45;&gt;Node5 -->
<g id="edge10_Node000010_Node000005" class="edge">
<title>Node10&#45;&gt;Node5</title>
<g id="a_edge10_Node000010_Node000005"><a xlink:title=" ">
<path fill="none" stroke="#63b8ff" d="M248.92,-49.15C235.19,-39.57 217.57,-27.29 205.93,-19.17"/>
<polygon fill="#63b8ff" stroke="#63b8ff" points="247.08,-52.14 257.29,-54.98 251.09,-46.39 247.08,-52.14"/>
</a>
</g>
</g>
<!-- Node10&#45;&gt;Node9 -->
<g id="edge11_Node000010_Node000009" class="edge">
<title>Node10&#45;&gt;Node9</title>
<g id="a_edge11_Node000010_Node000009"><a xlink:title=" ">
<path fill="none" stroke="#63b8ff" d="M278.32,-45.53C282.7,-36.6 287.79,-26.22 291.29,-19.09"/>
<polygon fill="#63b8ff" stroke="#63b8ff" points="275.06,-44.23 273.79,-54.75 281.34,-47.31 275.06,-44.23"/>
</a>
</g>
</g>
</g>
</svg>
