<?xml version="1.0" encoding="UTF-8" standalone="no"?>
<!DOCTYPE svg PUBLIC "-//W3C//DTD SVG 1.1//EN"
 "http://www.w3.org/Graphics/SVG/1.1/DTD/svg11.dtd">
<!-- Generated by graphviz version 2.43.0 (0)
 -->
<!-- Title: clocks.h Pages: 1 -->
<svg width="1001pt" height="82pt"
 viewBox="0.00 0.00 1000.50 82.00" xmlns="http://www.w3.org/2000/svg" xmlns:xlink="http://www.w3.org/1999/xlink">
<g id="graph0" class="graph" transform="scale(1 1) rotate(0) translate(4 78)">
<title>clocks.h</title>
<!-- Node1 -->
<g id="Node000001" class="node">
<title>Node1</title>
<g id="a_Node000001"><a xlink:title=" ">
<polygon fill="#999999" stroke="#666666" points="484,-74 428,-74 428,-55 484,-55 484,-74"/>
<text text-anchor="middle" x="456" y="-62" font-family="Helvetica,sans-Serif" font-size="10.00">clocks.h</text>
</a>
</g>
</g>
<!-- Node2 -->
<g id="Node000002" class="node">
<title>Node2</title>
<g id="a_Node000002"><a xlink:href="clocks_8c.html" target="_top" xlink:title=" ">
<polygon fill="white" stroke="#666666" points="56,-19 0,-19 0,0 56,0 56,-19"/>
<text text-anchor="middle" x="28" y="-7" font-family="Helvetica,sans-Serif" font-size="10.00">clocks.c</text>
</a>
</g>
</g>
<!-- Node1&#45;&gt;Node2 -->
<g id="edge1_Node000001_Node000002" class="edge">
<title>Node1&#45;&gt;Node2</title>
<g id="a_edge1_Node000001_Node000002"><a xlink:title=" ">
<path fill="none" stroke="#63b8ff" d="M417.73,-60.58C347.5,-54.91 193.42,-40.99 65,-19 62.14,-18.51 59.17,-17.94 56.22,-17.33"/>
<polygon fill="#63b8ff" stroke="#63b8ff" points="417.63,-64.09 427.87,-61.39 418.18,-57.11 417.63,-64.09"/>
</a>
</g>
</g>
<!-- Node3 -->
<g id="Node000003" class="node">
<title>Node3</title>
<g id="a_Node000003"><a xlink:href="cyw43__bus__pio__spi_8c.html" target="_top" xlink:title=" ">
<polygon fill="white" stroke="#666666" points="193.5,-19 74.5,-19 74.5,0 193.5,0 193.5,-19"/>
<text text-anchor="middle" x="134" y="-7" font-family="Helvetica,sans-Serif" font-size="10.00">cyw43_bus_pio_spi.c</text>
</a>
</g>
</g>
<!-- Node1&#45;&gt;Node3 -->
<g id="edge2_Node000001_Node000003" class="edge">
<title>Node1&#45;&gt;Node3</title>
<g id="a_edge2_Node000001_Node000003"><a xlink:title=" ">
<path fill="none" stroke="#63b8ff" d="M417.84,-57.22C360.17,-47.73 250.66,-29.7 185.82,-19.03"/>
<polygon fill="#63b8ff" stroke="#63b8ff" points="417.55,-60.72 427.99,-58.89 418.69,-53.81 417.55,-60.72"/>
</a>
</g>
</g>
<!-- Node4 -->
<g id="Node000004" class="node">
<title>Node4</title>
<g id="a_Node000004"><a xlink:href="i2c_8c.html" target="_top" xlink:title=" ">
<polygon fill="white" stroke="#666666" points="250.5,-19 211.5,-19 211.5,0 250.5,0 250.5,-19"/>
<text text-anchor="middle" x="231" y="-7" font-family="Helvetica,sans-Serif" font-size="10.00">i2c.c</text>
</a>
</g>
</g>
<!-- Node1&#45;&gt;Node4 -->
<g id="edge3_Node000001_Node000004" class="edge">
<title>Node1&#45;&gt;Node4</title>
<g id="a_edge3_Node000001_Node000004"><a xlink:title=" ">
<path fill="none" stroke="#63b8ff" d="M417.97,-55.76C378.14,-47.47 313.88,-33.51 259,-19 256.25,-18.27 253.36,-17.46 250.53,-16.63"/>
<polygon fill="#63b8ff" stroke="#63b8ff" points="417.29,-59.2 427.79,-57.8 418.71,-52.34 417.29,-59.2"/>
</a>
</g>
</g>
<!-- Node5 -->
<g id="Node000005" class="node">
<title>Node5</title>
<g id="a_Node000005"><a xlink:href="pll_8c.html" target="_top" xlink:title=" ">
<polygon fill="white" stroke="#666666" points="305.5,-19 268.5,-19 268.5,0 305.5,0 305.5,-19"/>
<text text-anchor="middle" x="287" y="-7" font-family="Helvetica,sans-Serif" font-size="10.00">pll.c</text>
</a>
</g>
</g>
<!-- Node1&#45;&gt;Node5 -->
<g id="edge4_Node000001_Node000005" class="edge">
<title>Node1&#45;&gt;Node5</title>
<g id="a_edge4_Node000001_Node000005"><a xlink:title=" ">
<path fill="none" stroke="#63b8ff" d="M419.17,-51.97C390.5,-43 349.72,-30.22 314,-19 311.28,-18.15 308.41,-17.24 305.59,-16.36"/>
<polygon fill="#63b8ff" stroke="#63b8ff" points="418.19,-55.33 428.77,-54.98 420.28,-48.65 418.19,-55.33"/>
</a>
</g>
</g>
<!-- Node6 -->
<g id="Node000006" class="node">
<title>Node6</title>
<g id="a_Node000006"><a xlink:href="rp2__common_2pico__rand_2rand_8c.html" target="_top" xlink:title=" ">
<polygon fill="white" stroke="#666666" points="370.5,-19 323.5,-19 323.5,0 370.5,0 370.5,-19"/>
<text text-anchor="middle" x="347" y="-7" font-family="Helvetica,sans-Serif" font-size="10.00">rand.c</text>
</a>
</g>
</g>
<!-- Node1&#45;&gt;Node6 -->
<g id="edge5_Node000001_Node000006" class="edge">
<title>Node1&#45;&gt;Node6</title>
<g id="a_edge5_Node000001_Node000006"><a xlink:title=" ">
<path fill="none" stroke="#63b8ff" d="M429.27,-50.5C409.21,-40.75 382.32,-27.68 364.83,-19.17"/>
<polygon fill="#63b8ff" stroke="#63b8ff" points="427.96,-53.76 438.49,-54.98 431.02,-47.46 427.96,-53.76"/>
</a>
</g>
</g>
<!-- Node7 -->
<g id="Node000007" class="node">
<title>Node7</title>
<g id="a_Node000007"><a xlink:href="rtc_8c.html" target="_top" xlink:title=" ">
<polygon fill="white" stroke="#666666" points="427,-19 389,-19 389,0 427,0 427,-19"/>
<text text-anchor="middle" x="408" y="-7" font-family="Helvetica,sans-Serif" font-size="10.00">rtc.c</text>
</a>
</g>
</g>
<!-- Node1&#45;&gt;Node7 -->
<g id="edge6_Node000001_Node000007" class="edge">
<title>Node1&#45;&gt;Node7</title>
<g id="a_edge6_Node000001_Node000007"><a xlink:title=" ">
<path fill="none" stroke="#63b8ff" d="M441.27,-47.24C432.86,-37.95 422.65,-26.68 415.78,-19.09"/>
<polygon fill="#63b8ff" stroke="#63b8ff" points="438.77,-49.69 448.07,-54.75 443.96,-44.99 438.77,-49.69"/>
</a>
</g>
</g>
<!-- Node8 -->
<g id="Node000008" class="node">
<title>Node8</title>
<g id="a_Node000008"><a xlink:href="runtime__init__clocks_8c.html" target="_top" xlink:title=" ">
<polygon fill="white" stroke="#666666" points="565,-19 445,-19 445,0 565,0 565,-19"/>
<text text-anchor="middle" x="505" y="-7" font-family="Helvetica,sans-Serif" font-size="10.00">runtime_init_clocks.c</text>
</a>
</g>
</g>
<!-- Node1&#45;&gt;Node8 -->
<g id="edge7_Node000001_Node000008" class="edge">
<title>Node1&#45;&gt;Node8</title>
<g id="a_edge7_Node000001_Node000008"><a xlink:title=" ">
<path fill="none" stroke="#63b8ff" d="M471.03,-47.24C479.62,-37.95 490.04,-26.68 497.06,-19.09"/>
<polygon fill="#63b8ff" stroke="#63b8ff" points="468.31,-45.03 464.09,-54.75 473.45,-49.78 468.31,-45.03"/>
</a>
</g>
</g>
<!-- Node9 -->
<g id="Node000009" class="node">
<title>Node9</title>
<g id="a_Node000009"><a xlink:href="spi_8c.html" target="_top" xlink:title=" ">
<polygon fill="white" stroke="#666666" points="622.5,-19 583.5,-19 583.5,0 622.5,0 622.5,-19"/>
<text text-anchor="middle" x="603" y="-7" font-family="Helvetica,sans-Serif" font-size="10.00">spi.c</text>
</a>
</g>
</g>
<!-- Node1&#45;&gt;Node9 -->
<g id="edge8_Node000001_Node000009" class="edge">
<title>Node1&#45;&gt;Node9</title>
<g id="a_edge8_Node000001_Node000009"><a xlink:title=" ">
<path fill="none" stroke="#63b8ff" d="M489.3,-51.49C518.24,-41.06 559.17,-26.3 583.21,-17.63"/>
<polygon fill="#63b8ff" stroke="#63b8ff" points="487.84,-48.3 479.62,-54.98 490.21,-54.89 487.84,-48.3"/>
</a>
</g>
</g>
<!-- Node10 -->
<g id="Node000010" class="node">
<title>Node10</title>
<g id="a_Node000010"><a xlink:href="system__RP2040_8c.html" target="_top" xlink:title="CMSIS&#45;Core(M) Device Peripheral Access Layer Header File for Device RP2040.">
<polygon fill="white" stroke="#666666" points="743.5,-19 640.5,-19 640.5,0 743.5,0 743.5,-19"/>
<text text-anchor="middle" x="692" y="-7" font-family="Helvetica,sans-Serif" font-size="10.00">system_RP2040.c</text>
</a>
</g>
</g>
<!-- Node1&#45;&gt;Node10 -->
<g id="edge9_Node000001_Node000010" class="edge">
<title>Node1&#45;&gt;Node10</title>
<g id="a_edge9_Node000001_Node000010"><a xlink:title=" ">
<path fill="none" stroke="#63b8ff" d="M494.5,-54.85C538.56,-44.96 610.26,-28.86 654.08,-19.02"/>
<polygon fill="#63b8ff" stroke="#63b8ff" points="493.46,-51.5 484.47,-57.11 494.99,-58.33 493.46,-51.5"/>
</a>
</g>
</g>
<!-- Node11 -->
<g id="Node000011" class="node">
<title>Node11</title>
<g id="a_Node000011"><a xlink:href="system__RP2350_8c.html" target="_top" xlink:title="CMSIS&#45;Core(M) Device Peripheral Access Layer Header File for Device RP2350.">
<polygon fill="white" stroke="#666666" points="864.5,-19 761.5,-19 761.5,0 864.5,0 864.5,-19"/>
<text text-anchor="middle" x="813" y="-7" font-family="Helvetica,sans-Serif" font-size="10.00">system_RP2350.c</text>
</a>
</g>
</g>
<!-- Node1&#45;&gt;Node11 -->
<g id="edge10_Node000001_Node000011" class="edge">
<title>Node1&#45;&gt;Node11</title>
<g id="a_edge10_Node000001_Node000011"><a xlink:title=" ">
<path fill="none" stroke="#63b8ff" d="M494.13,-57.84C558.54,-48.28 688.92,-28.92 761.42,-18.16"/>
<polygon fill="#63b8ff" stroke="#63b8ff" points="493.39,-54.41 484.01,-59.34 494.42,-61.33 493.39,-54.41"/>
</a>
</g>
</g>
<!-- Node12 -->
<g id="Node000012" class="node">
<title>Node12</title>
<g id="a_Node000012"><a xlink:href="rp2__common_2hardware__uart_2uart_8c.html" target="_top" xlink:title=" ">
<polygon fill="white" stroke="#666666" points="927,-19 883,-19 883,0 927,0 927,-19"/>
<text text-anchor="middle" x="905" y="-7" font-family="Helvetica,sans-Serif" font-size="10.00">uart.c</text>
</a>
</g>
</g>
<!-- Node1&#45;&gt;Node12 -->
<g id="edge11_Node000001_Node000012" class="edge">
<title>Node1&#45;&gt;Node12</title>
<g id="a_edge11_Node000001_Node000012"><a xlink:title=" ">
<path fill="none" stroke="#63b8ff" d="M494.33,-61.5C568.29,-57.17 735.6,-45.16 874,-19 876.85,-18.46 879.82,-17.79 882.75,-17.06"/>
<polygon fill="#63b8ff" stroke="#63b8ff" points="493.9,-58.01 484.11,-62.08 494.29,-65 493.9,-58.01"/>
</a>
</g>
</g>
<!-- Node13 -->
<g id="Node000013" class="node">
<title>Node13</title>
<g id="a_Node000013"><a xlink:href="xosc_8c.html" target="_top" xlink:title=" ">
<polygon fill="white" stroke="#666666" points="992.5,-19 945.5,-19 945.5,0 992.5,0 992.5,-19"/>
<text text-anchor="middle" x="969" y="-7" font-family="Helvetica,sans-Serif" font-size="10.00">xosc.c</text>
</a>
</g>
</g>
<!-- Node1&#45;&gt;Node13 -->
<g id="edge12_Node000001_Node000013" class="edge">
<title>Node1&#45;&gt;Node13</title>
<g id="a_edge12_Node000001_Node000013"><a xlink:title=" ">
<path fill="none" stroke="#63b8ff" d="M494.37,-62.02C576.11,-58.42 773.25,-47.32 936,-19 939.03,-18.47 942.19,-17.81 945.31,-17.09"/>
<polygon fill="#63b8ff" stroke="#63b8ff" points="493.91,-58.54 484.07,-62.46 494.21,-65.53 493.91,-58.54"/>
</a>
</g>
</g>
</g>
</svg>
