<?xml version="1.0" encoding="UTF-8" standalone="no"?>
<!DOCTYPE svg PUBLIC "-//W3C//DTD SVG 1.1//EN"
 "http://www.w3.org/Graphics/SVG/1.1/DTD/svg11.dtd">
<!-- Generated by graphviz version 2.43.0 (0)
 -->
<!-- Title: types.h Pages: 1 -->
<svg width="593pt" height="82pt"
 viewBox="0.00 0.00 593.00 82.00" xmlns="http://www.w3.org/2000/svg" xmlns:xlink="http://www.w3.org/1999/xlink">
<g id="graph0" class="graph" transform="scale(1 1) rotate(0) translate(4 78)">
<title>types.h</title>
<!-- Node1 -->
<g id="Node000001" class="node">
<title>Node1</title>
<g id="a_Node000001"><a xlink:title=" ">
<polygon fill="#999999" stroke="#666666" points="322,-74 269,-74 269,-55 322,-55 322,-74"/>
<text text-anchor="middle" x="295.5" y="-62" font-family="Helvetica,sans-Serif" font-size="10.00">types.h</text>
</a>
</g>
</g>
<!-- Node2 -->
<g id="Node000002" class="node">
<title>Node2</title>
<g id="a_Node000002"><a xlink:href="pico__double__test_8c.html" target="_top" xlink:title=" ">
<polygon fill="white" stroke="#666666" points="107,-19 0,-19 0,0 107,0 107,-19"/>
<text text-anchor="middle" x="53.5" y="-7" font-family="Helvetica,sans-Serif" font-size="10.00">pico_double_test.c</text>
</a>
</g>
</g>
<!-- Node1&#45;&gt;Node2 -->
<g id="edge1_Node000001_Node000002" class="edge">
<title>Node1&#45;&gt;Node2</title>
<g id="a_edge1_Node000001_Node000002"><a xlink:title=" ">
<path fill="none" stroke="#63b8ff" d="M258.78,-55.46C213.89,-45.63 138.26,-29.06 92.41,-19.02"/>
<polygon fill="#63b8ff" stroke="#63b8ff" points="258.16,-58.91 268.68,-57.63 259.66,-52.07 258.16,-58.91"/>
</a>
</g>
</g>
<!-- Node3 -->
<g id="Node000003" class="node">
<title>Node3</title>
<g id="a_Node000003"><a xlink:href="pico__float__test_8c.html" target="_top" xlink:title=" ">
<polygon fill="white" stroke="#666666" points="222,-19 125,-19 125,0 222,0 222,-19"/>
<text text-anchor="middle" x="173.5" y="-7" font-family="Helvetica,sans-Serif" font-size="10.00">pico_float_test.c</text>
</a>
</g>
</g>
<!-- Node1&#45;&gt;Node3 -->
<g id="edge2_Node000001_Node000003" class="edge">
<title>Node1&#45;&gt;Node3</title>
<g id="a_edge2_Node000001_Node000003"><a xlink:title=" ">
<path fill="none" stroke="#63b8ff" d="M266.49,-50.9C243.96,-41.11 213.3,-27.79 193.46,-19.17"/>
<polygon fill="#63b8ff" stroke="#63b8ff" points="265.33,-54.21 275.9,-54.98 268.12,-47.79 265.33,-54.21"/>
</a>
</g>
</g>
<!-- Node4 -->
<g id="Node000004" class="node">
<title>Node4</title>
<g id="a_Node000004"><a xlink:href="pico__sha256__test_8c.html" target="_top" xlink:title=" ">
<polygon fill="white" stroke="#666666" points="350.5,-19 240.5,-19 240.5,0 350.5,0 350.5,-19"/>
<text text-anchor="middle" x="295.5" y="-7" font-family="Helvetica,sans-Serif" font-size="10.00">pico_sha256_test.c</text>
</a>
</g>
</g>
<!-- Node1&#45;&gt;Node4 -->
<g id="edge3_Node000001_Node000004" class="edge">
<title>Node1&#45;&gt;Node4</title>
<g id="a_edge3_Node000001_Node000004"><a xlink:title=" ">
<path fill="none" stroke="#63b8ff" d="M295.5,-44.66C295.5,-35.93 295.5,-25.99 295.5,-19.09"/>
<polygon fill="#63b8ff" stroke="#63b8ff" points="292,-44.75 295.5,-54.75 299,-44.75 292,-44.75"/>
</a>
</g>
</g>
<!-- Node5 -->
<g id="Node000005" class="node">
<title>Node5</title>
<g id="a_Node000005"><a xlink:href="pico__stdlib__test_8c.html" target="_top" xlink:title=" ">
<polygon fill="white" stroke="#666666" points="470,-19 369,-19 369,0 470,0 470,-19"/>
<text text-anchor="middle" x="419.5" y="-7" font-family="Helvetica,sans-Serif" font-size="10.00">pico_stdlib_test.c</text>
</a>
</g>
</g>
<!-- Node1&#45;&gt;Node5 -->
<g id="edge4_Node000001_Node000005" class="edge">
<title>Node1&#45;&gt;Node5</title>
<g id="a_edge4_Node000001_Node000005"><a xlink:title=" ">
<path fill="none" stroke="#63b8ff" d="M324.68,-51.03C347.61,-41.23 378.95,-27.83 399.21,-19.17"/>
<polygon fill="#63b8ff" stroke="#63b8ff" points="323.24,-47.84 315.42,-54.98 325.99,-54.27 323.24,-47.84"/>
</a>
</g>
</g>
<!-- Node6 -->
<g id="Node000006" class="node">
<title>Node6</title>
<g id="a_Node000006"><a xlink:href="pico__time__test_8c.html" target="_top" xlink:title=" ">
<polygon fill="white" stroke="#666666" points="585,-19 488,-19 488,0 585,0 585,-19"/>
<text text-anchor="middle" x="536.5" y="-7" font-family="Helvetica,sans-Serif" font-size="10.00">pico_time_test.c</text>
</a>
</g>
</g>
<!-- Node1&#45;&gt;Node6 -->
<g id="edge5_Node000001_Node000006" class="edge">
<title>Node1&#45;&gt;Node6</title>
<g id="a_edge5_Node000001_Node000006"><a xlink:title=" ">
<path fill="none" stroke="#63b8ff" d="M332.07,-55.46C376.77,-45.63 452.09,-29.06 497.75,-19.02"/>
<polygon fill="#63b8ff" stroke="#63b8ff" points="331.23,-52.06 322.21,-57.63 332.73,-58.9 331.23,-52.06"/>
</a>
</g>
</g>
</g>
</svg>
