<?xml version="1.0" encoding="UTF-8" standalone="no"?>
<!DOCTYPE svg PUBLIC "-//W3C//DTD SVG 1.1//EN"
 "http://www.w3.org/Graphics/SVG/1.1/DTD/svg11.dtd">
<!-- Generated by graphviz version 2.43.0 (0)
 -->
<!-- Title: rtc.c Pages: 1 -->
<svg width="484pt" height="137pt"
 viewBox="0.00 0.00 484.00 137.00" xmlns="http://www.w3.org/2000/svg" xmlns:xlink="http://www.w3.org/1999/xlink">
<g id="graph0" class="graph" transform="scale(1 1) rotate(0) translate(4 133)">
<title>rtc.c</title>
<!-- Node1 -->
<g id="Node000001" class="node">
<title>Node1</title>
<g id="a_Node000001"><a xlink:title=" ">
<polygon fill="#999999" stroke="#666666" points="214.5,-129 176.5,-129 176.5,-110 214.5,-110 214.5,-129"/>
<text text-anchor="middle" x="195.5" y="-117" font-family="Helvetica,sans-Serif" font-size="10.00">rtc.c</text>
</a>
</g>
</g>
<!-- Node2 -->
<g id="Node000002" class="node">
<title>Node2</title>
<g id="a_Node000002"><a xlink:title=" ">
<polygon fill="#e0e0e0" stroke="#999999" points="122.5,-19 76.5,-19 76.5,0 122.5,0 122.5,-19"/>
<text text-anchor="middle" x="99.5" y="-7" font-family="Helvetica,sans-Serif" font-size="10.00">pico.h</text>
</a>
</g>
</g>
<!-- Node1&#45;&gt;Node2 -->
<g id="edge1_Node000001_Node000002" class="edge">
<title>Node1&#45;&gt;Node2</title>
<g id="a_edge1_Node000001_Node000002"><a xlink:title=" ">
<path fill="none" stroke="#63b8ff" d="M180.26,-109.99C166.96,-102.01 147.76,-89.05 134.5,-74 122.55,-60.43 112.99,-42.11 106.91,-28.63"/>
<polygon fill="#63b8ff" stroke="#63b8ff" points="109.95,-26.85 102.79,-19.04 103.52,-29.61 109.95,-26.85"/>
</a>
</g>
</g>
<!-- Node3 -->
<g id="Node000003" class="node">
<title>Node3</title>
<g id="a_Node000003"><a xlink:title=" ">
<polygon fill="#e0e0e0" stroke="#999999" points="476,-74 389,-74 389,-55 476,-55 476,-74"/>
<text text-anchor="middle" x="432.5" y="-62" font-family="Helvetica,sans-Serif" font-size="10.00">hardware/irq.h</text>
</a>
</g>
</g>
<!-- Node1&#45;&gt;Node3 -->
<g id="edge2_Node000001_Node000003" class="edge">
<title>Node1&#45;&gt;Node3</title>
<g id="a_edge2_Node000001_Node000003"><a xlink:title=" ">
<path fill="none" stroke="#63b8ff" d="M214.89,-114.16C251.58,-105.96 332.14,-87.94 384.28,-76.28"/>
<polygon fill="#63b8ff" stroke="#63b8ff" points="385.31,-79.64 394.3,-74.04 383.78,-72.81 385.31,-79.64"/>
</a>
</g>
</g>
<!-- Node4 -->
<g id="Node000004" class="node">
<title>Node4</title>
<g id="a_Node000004"><a xlink:href="rp2__common_2hardware__rtc_2include_2hardware_2rtc_8h.html" target="_top" xlink:title=" ">
<polygon fill="white" stroke="#666666" points="87,-74 0,-74 0,-55 87,-55 87,-74"/>
<text text-anchor="middle" x="43.5" y="-62" font-family="Helvetica,sans-Serif" font-size="10.00">hardware/rtc.h</text>
</a>
</g>
</g>
<!-- Node1&#45;&gt;Node4 -->
<g id="edge3_Node000001_Node000004" class="edge">
<title>Node1&#45;&gt;Node4</title>
<g id="a_edge3_Node000001_Node000004"><a xlink:title=" ">
<path fill="none" stroke="#63b8ff" d="M176.25,-111.79C151.56,-103.18 108.31,-88.1 77.9,-77.49"/>
<polygon fill="#63b8ff" stroke="#63b8ff" points="78.72,-74.07 68.12,-74.09 76.41,-80.68 78.72,-74.07"/>
</a>
</g>
</g>
<!-- Node5 -->
<g id="Node000005" class="node">
<title>Node5</title>
<g id="a_Node000005"><a xlink:href="rp2__common_2hardware__resets_2include_2hardware_2resets_8h.html" target="_top" xlink:title=" ">
<polygon fill="white" stroke="#666666" points="247.5,-74 143.5,-74 143.5,-55 247.5,-55 247.5,-74"/>
<text text-anchor="middle" x="195.5" y="-62" font-family="Helvetica,sans-Serif" font-size="10.00">hardware/resets.h</text>
</a>
</g>
</g>
<!-- Node1&#45;&gt;Node5 -->
<g id="edge5_Node000001_Node000005" class="edge">
<title>Node1&#45;&gt;Node5</title>
<g id="a_edge5_Node000001_Node000005"><a xlink:title=" ">
<path fill="none" stroke="#63b8ff" d="M195.5,-109.75C195.5,-102.8 195.5,-92.85 195.5,-84.13"/>
<polygon fill="#63b8ff" stroke="#63b8ff" points="199,-84.09 195.5,-74.09 192,-84.09 199,-84.09"/>
</a>
</g>
</g>
<!-- Node7 -->
<g id="Node000007" class="node">
<title>Node7</title>
<g id="a_Node000007"><a xlink:href="rp2__common_2hardware__clocks_2include_2hardware_2clocks_8h.html" target="_top" xlink:title=" ">
<polygon fill="white" stroke="#666666" points="371,-74 266,-74 266,-55 371,-55 371,-74"/>
<text text-anchor="middle" x="318.5" y="-62" font-family="Helvetica,sans-Serif" font-size="10.00">hardware/clocks.h</text>
</a>
</g>
</g>
<!-- Node1&#45;&gt;Node7 -->
<g id="edge8_Node000001_Node000007" class="edge">
<title>Node1&#45;&gt;Node7</title>
<g id="a_edge8_Node000001_Node000007"><a xlink:title=" ">
<path fill="none" stroke="#63b8ff" d="M214.72,-110.22C234.7,-101.61 266.23,-88.02 289.29,-78.09"/>
<polygon fill="#63b8ff" stroke="#63b8ff" points="290.8,-81.25 298.6,-74.07 288.03,-74.82 290.8,-81.25"/>
</a>
</g>
</g>
<!-- Node4&#45;&gt;Node2 -->
<g id="edge4_Node000004_Node000002" class="edge">
<title>Node4&#45;&gt;Node2</title>
<g id="a_edge4_Node000004_Node000002"><a xlink:title=" ">
<path fill="none" stroke="#63b8ff" d="M52.5,-54.98C60.69,-47.23 73.01,-35.58 82.97,-26.14"/>
<polygon fill="#63b8ff" stroke="#63b8ff" points="85.48,-28.59 90.34,-19.17 80.67,-23.5 85.48,-28.59"/>
</a>
</g>
</g>
<!-- Node5&#45;&gt;Node2 -->
<g id="edge6_Node000005_Node000002" class="edge">
<title>Node5&#45;&gt;Node2</title>
<g id="a_edge6_Node000005_Node000002"><a xlink:title=" ">
<path fill="none" stroke="#63b8ff" d="M180.08,-54.98C165.05,-46.69 141.96,-33.94 124.34,-24.22"/>
<polygon fill="#63b8ff" stroke="#63b8ff" points="125.65,-20.94 115.2,-19.17 122.27,-27.07 125.65,-20.94"/>
</a>
</g>
</g>
<!-- Node6 -->
<g id="Node000006" class="node">
<title>Node6</title>
<g id="a_Node000006"><a xlink:title=" ">
<polygon fill="#e0e0e0" stroke="#999999" points="280.5,-19 140.5,-19 140.5,0 280.5,0 280.5,-19"/>
<text text-anchor="middle" x="210.5" y="-7" font-family="Helvetica,sans-Serif" font-size="10.00">hardware/structs/resets.h</text>
</a>
</g>
</g>
<!-- Node5&#45;&gt;Node6 -->
<g id="edge7_Node000005_Node000006" class="edge">
<title>Node5&#45;&gt;Node6</title>
<g id="a_edge7_Node000005_Node000006"><a xlink:title=" ">
<path fill="none" stroke="#63b8ff" d="M197.98,-54.75C199.96,-47.72 202.82,-37.62 205.31,-28.84"/>
<polygon fill="#63b8ff" stroke="#63b8ff" points="208.71,-29.66 208.07,-19.09 201.98,-27.76 208.71,-29.66"/>
</a>
</g>
</g>
<!-- Node7&#45;&gt;Node2 -->
<g id="edge9_Node000007_Node000002" class="edge">
<title>Node7&#45;&gt;Node2</title>
<g id="a_edge9_Node000007_Node000002"><a xlink:title=" ">
<path fill="none" stroke="#63b8ff" d="M281.18,-54.92C245.45,-46.64 189.79,-33.56 132.51,-19.2"/>
<polygon fill="#63b8ff" stroke="#63b8ff" points="133.11,-15.75 122.55,-16.7 131.4,-22.53 133.11,-15.75"/>
</a>
</g>
</g>
<!-- Node8 -->
<g id="Node000008" class="node">
<title>Node8</title>
<g id="a_Node000008"><a xlink:title=" ">
<polygon fill="#e0e0e0" stroke="#999999" points="440,-19 299,-19 299,0 440,0 440,-19"/>
<text text-anchor="middle" x="369.5" y="-7" font-family="Helvetica,sans-Serif" font-size="10.00">hardware/structs/clocks.h</text>
</a>
</g>
</g>
<!-- Node7&#45;&gt;Node8 -->
<g id="edge10_Node000007_Node000008" class="edge">
<title>Node7&#45;&gt;Node8</title>
<g id="a_edge10_Node000007_Node000008"><a xlink:title=" ">
<path fill="none" stroke="#63b8ff" d="M326.92,-54.75C334.27,-47.11 345.13,-35.82 354.04,-26.56"/>
<polygon fill="#63b8ff" stroke="#63b8ff" points="356.82,-28.72 361.24,-19.09 351.78,-23.87 356.82,-28.72"/>
</a>
</g>
</g>
</g>
</svg>
