<?xml version="1.0" encoding="UTF-8" standalone="no"?>
<!DOCTYPE svg PUBLIC "-//W3C//DTD SVG 1.1//EN"
 "http://www.w3.org/Graphics/SVG/1.1/DTD/svg11.dtd">
<!-- Generated by graphviz version 2.43.0 (0)
 -->
<!-- Title: runtime_init_clocks.c Pages: 1 -->
<svg width="1115pt" height="302pt"
 viewBox="0.00 0.00 1114.50 302.00" xmlns="http://www.w3.org/2000/svg" xmlns:xlink="http://www.w3.org/1999/xlink">
<g id="graph0" class="graph" transform="scale(1 1) rotate(0) translate(4 298)">
<title>runtime_init_clocks.c</title>
<!-- Node1 -->
<g id="Node000001" class="node">
<title>Node1</title>
<g id="a_Node000001"><a xlink:title=" ">
<polygon fill="#999999" stroke="#666666" points="518.5,-294 398.5,-294 398.5,-275 518.5,-275 518.5,-294"/>
<text text-anchor="middle" x="458.5" y="-282" font-family="Helvetica,sans-Serif" font-size="10.00">runtime_init_clocks.c</text>
</a>
</g>
</g>
<!-- Node2 -->
<g id="Node000002" class="node">
<title>Node2</title>
<g id="a_Node000002"><a xlink:title=" ">
<polygon fill="#e0e0e0" stroke="#999999" points="130.5,-239 22.5,-239 22.5,-220 130.5,-220 130.5,-239"/>
<text text-anchor="middle" x="76.5" y="-227" font-family="Helvetica,sans-Serif" font-size="10.00">pico/runtime_init.h</text>
</a>
</g>
</g>
<!-- Node1&#45;&gt;Node2 -->
<g id="edge1_Node000001_Node000002" class="edge">
<title>Node1&#45;&gt;Node2</title>
<g id="a_edge1_Node000001_Node000002"><a xlink:title=" ">
<path fill="none" stroke="#63b8ff" d="M398.39,-275.16C328.3,-265.44 212.9,-249.42 140.98,-239.45"/>
<polygon fill="#63b8ff" stroke="#63b8ff" points="141.08,-235.93 130.7,-238.02 140.12,-242.86 141.08,-235.93"/>
</a>
</g>
</g>
<!-- Node3 -->
<g id="Node000003" class="node">
<title>Node3</title>
<g id="a_Node000003"><a xlink:href="rp2__common_2hardware__clocks_2include_2hardware_2clocks_8h.html" target="_top" xlink:title=" ">
<polygon fill="white" stroke="#666666" points="254,-239 149,-239 149,-220 254,-220 254,-239"/>
<text text-anchor="middle" x="201.5" y="-227" font-family="Helvetica,sans-Serif" font-size="10.00">hardware/clocks.h</text>
</a>
</g>
</g>
<!-- Node1&#45;&gt;Node3 -->
<g id="edge2_Node000001_Node000003" class="edge">
<title>Node1&#45;&gt;Node3</title>
<g id="a_edge2_Node000001_Node000003"><a xlink:title=" ">
<path fill="none" stroke="#63b8ff" d="M417.21,-274.98C372.57,-265.78 301.34,-251.09 253.05,-241.13"/>
<polygon fill="#63b8ff" stroke="#63b8ff" points="253.62,-237.67 243.12,-239.08 252.2,-244.53 253.62,-237.67"/>
</a>
</g>
</g>
<!-- Node6 -->
<g id="Node000006" class="node">
<title>Node6</title>
<g id="a_Node000006"><a xlink:href="rp2__common_2hardware__pll_2include_2hardware_2pll_8h.html" target="_top" xlink:title=" ">
<polygon fill="white" stroke="#666666" points="390.5,-239 304.5,-239 304.5,-220 390.5,-220 390.5,-239"/>
<text text-anchor="middle" x="347.5" y="-227" font-family="Helvetica,sans-Serif" font-size="10.00">hardware/pll.h</text>
</a>
</g>
</g>
<!-- Node1&#45;&gt;Node6 -->
<g id="edge5_Node000001_Node000006" class="edge">
<title>Node1&#45;&gt;Node6</title>
<g id="a_edge5_Node000001_Node000006"><a xlink:title=" ">
<path fill="none" stroke="#63b8ff" d="M440.67,-274.98C422.89,-266.5 395.35,-253.35 374.82,-243.54"/>
<polygon fill="#63b8ff" stroke="#63b8ff" points="376.19,-240.32 365.66,-239.17 373.17,-246.64 376.19,-240.32"/>
</a>
</g>
</g>
<!-- Node8 -->
<g id="Node000008" class="node">
<title>Node8</title>
<g id="a_Node000008"><a xlink:href="rp2__common_2hardware__ticks_2include_2hardware_2ticks_8h.html" target="_top" xlink:title=" ">
<polygon fill="white" stroke="#666666" points="785.5,-239 687.5,-239 687.5,-220 785.5,-220 785.5,-239"/>
<text text-anchor="middle" x="736.5" y="-227" font-family="Helvetica,sans-Serif" font-size="10.00">hardware/ticks.h</text>
</a>
</g>
</g>
<!-- Node1&#45;&gt;Node8 -->
<g id="edge8_Node000001_Node000008" class="edge">
<title>Node1&#45;&gt;Node8</title>
<g id="a_edge8_Node000001_Node000008"><a xlink:title=" ">
<path fill="none" stroke="#63b8ff" d="M503.17,-274.98C551.66,-265.74 629.15,-250.97 681.39,-241.01"/>
<polygon fill="#63b8ff" stroke="#63b8ff" points="682.32,-244.39 691.48,-239.08 681.01,-237.52 682.32,-244.39"/>
</a>
</g>
</g>
<!-- Node15 -->
<g id="Node000015" class="node">
<title>Node15</title>
<g id="a_Node000015"><a xlink:title=" ">
<polygon fill="#e0e0e0" stroke="#999999" points="905,-239 804,-239 804,-220 905,-220 905,-239"/>
<text text-anchor="middle" x="854.5" y="-227" font-family="Helvetica,sans-Serif" font-size="10.00">hardware/timer.h</text>
</a>
</g>
</g>
<!-- Node1&#45;&gt;Node15 -->
<g id="edge18_Node000001_Node000015" class="edge">
<title>Node1&#45;&gt;Node15</title>
<g id="a_edge18_Node000001_Node000015"><a xlink:title=" ">
<path fill="none" stroke="#63b8ff" d="M518.61,-275.71C583.75,-267.22 691.05,-253.14 793.83,-239.08"/>
<polygon fill="#63b8ff" stroke="#63b8ff" points="794.33,-242.54 803.77,-237.72 793.38,-235.61 794.33,-242.54"/>
</a>
</g>
</g>
<!-- Node16 -->
<g id="Node000016" class="node">
<title>Node16</title>
<g id="a_Node000016"><a xlink:href="vreg_8h.html" target="_top" xlink:title=" ">
<polygon fill="white" stroke="#666666" points="623.5,-239 527.5,-239 527.5,-220 623.5,-220 623.5,-239"/>
<text text-anchor="middle" x="575.5" y="-227" font-family="Helvetica,sans-Serif" font-size="10.00">hardware/vreg.h</text>
</a>
</g>
</g>
<!-- Node1&#45;&gt;Node16 -->
<g id="edge19_Node000001_Node000016" class="edge">
<title>Node1&#45;&gt;Node16</title>
<g id="a_edge19_Node000001_Node000016"><a xlink:title=" ">
<path fill="none" stroke="#63b8ff" d="M477.3,-274.98C496.12,-266.46 525.32,-253.23 547,-243.41"/>
<polygon fill="#63b8ff" stroke="#63b8ff" points="548.7,-246.48 556.36,-239.17 545.81,-240.11 548.7,-246.48"/>
</a>
</g>
</g>
<!-- Node19 -->
<g id="Node000019" class="node">
<title>Node19</title>
<g id="a_Node000019"><a xlink:href="rp2__common_2hardware__xosc_2include_2hardware_2xosc_8h.html" target="_top" xlink:title=" ">
<polygon fill="white" stroke="#666666" points="507,-239 410,-239 410,-220 507,-220 507,-239"/>
<text text-anchor="middle" x="458.5" y="-227" font-family="Helvetica,sans-Serif" font-size="10.00">hardware/xosc.h</text>
</a>
</g>
</g>
<!-- Node1&#45;&gt;Node19 -->
<g id="edge24_Node000001_Node000019" class="edge">
<title>Node1&#45;&gt;Node19</title>
<g id="a_edge24_Node000001_Node000019"><a xlink:title=" ">
<path fill="none" stroke="#63b8ff" d="M458.5,-274.75C458.5,-267.8 458.5,-257.85 458.5,-249.13"/>
<polygon fill="#63b8ff" stroke="#63b8ff" points="462,-249.09 458.5,-239.09 455,-249.09 462,-249.09"/>
</a>
</g>
</g>
<!-- Node4 -->
<g id="Node000004" class="node">
<title>Node4</title>
<g id="a_Node000004"><a xlink:title=" ">
<polygon fill="#e0e0e0" stroke="#999999" points="503.5,-74 457.5,-74 457.5,-55 503.5,-55 503.5,-74"/>
<text text-anchor="middle" x="480.5" y="-62" font-family="Helvetica,sans-Serif" font-size="10.00">pico.h</text>
</a>
</g>
</g>
<!-- Node3&#45;&gt;Node4 -->
<g id="edge3_Node000003_Node000004" class="edge">
<title>Node3&#45;&gt;Node4</title>
<g id="a_edge3_Node000003_Node000004"><a xlink:title=" ">
<path fill="none" stroke="#63b8ff" d="M195.88,-219.82C188.18,-206.72 176.58,-181.65 188.5,-165 248.61,-81.01 383.86,-67.1 446.93,-65.34"/>
<polygon fill="#63b8ff" stroke="#63b8ff" points="447.19,-68.84 457.12,-65.15 447.06,-61.84 447.19,-68.84"/>
</a>
</g>
</g>
<!-- Node5 -->
<g id="Node000005" class="node">
<title>Node5</title>
<g id="a_Node000005"><a xlink:title=" ">
<polygon fill="#e0e0e0" stroke="#999999" points="141,-184 0,-184 0,-165 141,-165 141,-184"/>
<text text-anchor="middle" x="70.5" y="-172" font-family="Helvetica,sans-Serif" font-size="10.00">hardware/structs/clocks.h</text>
</a>
</g>
</g>
<!-- Node3&#45;&gt;Node5 -->
<g id="edge4_Node000003_Node000005" class="edge">
<title>Node3&#45;&gt;Node5</title>
<g id="a_edge4_Node000003_Node000005"><a xlink:title=" ">
<path fill="none" stroke="#63b8ff" d="M180.45,-219.98C159.09,-211.34 125.8,-197.87 101.44,-188.02"/>
<polygon fill="#63b8ff" stroke="#63b8ff" points="102.51,-184.68 91.93,-184.17 99.89,-191.17 102.51,-184.68"/>
</a>
</g>
</g>
<!-- Node6&#45;&gt;Node4 -->
<g id="edge6_Node000006_Node000004" class="edge">
<title>Node6&#45;&gt;Node4</title>
<g id="a_edge6_Node000006_Node000004"><a xlink:title=" ">
<path fill="none" stroke="#63b8ff" d="M351.23,-219.99C360.53,-199.41 386.43,-145.98 419.5,-110 430.32,-98.23 444.66,-87.58 456.73,-79.65"/>
<polygon fill="#63b8ff" stroke="#63b8ff" points="458.84,-82.45 465.41,-74.14 455.09,-76.54 458.84,-82.45"/>
</a>
</g>
</g>
<!-- Node7 -->
<g id="Node000007" class="node">
<title>Node7</title>
<g id="a_Node000007"><a xlink:title=" ">
<polygon fill="#e0e0e0" stroke="#999999" points="319.5,-184 197.5,-184 197.5,-165 319.5,-165 319.5,-184"/>
<text text-anchor="middle" x="258.5" y="-172" font-family="Helvetica,sans-Serif" font-size="10.00">hardware/structs/pll.h</text>
</a>
</g>
</g>
<!-- Node6&#45;&gt;Node7 -->
<g id="edge7_Node000006_Node000007" class="edge">
<title>Node6&#45;&gt;Node7</title>
<g id="a_edge7_Node000006_Node000007"><a xlink:title=" ">
<path fill="none" stroke="#63b8ff" d="M333.2,-219.98C319.4,-211.77 298.26,-199.18 281.99,-189.49"/>
<polygon fill="#63b8ff" stroke="#63b8ff" points="283.44,-186.28 273.06,-184.17 279.86,-192.29 283.44,-186.28"/>
</a>
</g>
</g>
<!-- Node8&#45;&gt;Node4 -->
<g id="edge9_Node000008_Node000004" class="edge">
<title>Node8&#45;&gt;Node4</title>
<g id="a_edge9_Node000008_Node000004"><a xlink:title=" ">
<path fill="none" stroke="#63b8ff" d="M744.17,-219.7C751.02,-211.21 760.55,-197.68 764.5,-184 770.05,-164.76 765.74,-117.62 758.5,-110 741.8,-92.44 584.14,-75.38 513.94,-68.59"/>
<polygon fill="#63b8ff" stroke="#63b8ff" points="514.14,-65.09 503.85,-67.62 513.47,-72.06 514.14,-65.09"/>
</a>
</g>
</g>
<!-- Node9 -->
<g id="Node000009" class="node">
<title>Node9</title>
<g id="a_Node000009"><a xlink:href="rp2350_2hardware__structs_2include_2hardware_2structs_2ticks_8h.html" target="_top" xlink:title=" ">
<polygon fill="white" stroke="#666666" points="954.5,-184 820.5,-184 820.5,-165 954.5,-165 954.5,-184"/>
<text text-anchor="middle" x="887.5" y="-172" font-family="Helvetica,sans-Serif" font-size="10.00">hardware/structs/ticks.h</text>
</a>
</g>
</g>
<!-- Node8&#45;&gt;Node9 -->
<g id="edge10_Node000008_Node000009" class="edge">
<title>Node8&#45;&gt;Node9</title>
<g id="a_edge10_Node000008_Node000009"><a xlink:title=" ">
<path fill="none" stroke="#63b8ff" d="M760.76,-219.98C785.82,-211.19 825.13,-197.39 853.33,-187.49"/>
<polygon fill="#63b8ff" stroke="#63b8ff" points="854.52,-190.78 862.8,-184.17 852.2,-184.18 854.52,-190.78"/>
</a>
</g>
</g>
<!-- Node10 -->
<g id="Node000010" class="node">
<title>Node10</title>
<g id="a_Node000010"><a xlink:href="address__mapped_8h.html" target="_top" xlink:title=" ">
<polygon fill="white" stroke="#666666" points="966.5,-129 808.5,-129 808.5,-110 966.5,-110 966.5,-129"/>
<text text-anchor="middle" x="887.5" y="-117" font-family="Helvetica,sans-Serif" font-size="10.00">hardware/address_mapped.h</text>
</a>
</g>
</g>
<!-- Node9&#45;&gt;Node10 -->
<g id="edge11_Node000009_Node000010" class="edge">
<title>Node9&#45;&gt;Node10</title>
<g id="a_edge11_Node000009_Node000010"><a xlink:title=" ">
<path fill="none" stroke="#63b8ff" d="M887.5,-164.75C887.5,-157.8 887.5,-147.85 887.5,-139.13"/>
<polygon fill="#63b8ff" stroke="#63b8ff" points="891,-139.09 887.5,-129.09 884,-139.09 891,-139.09"/>
</a>
</g>
</g>
<!-- Node14 -->
<g id="Node000014" class="node">
<title>Node14</title>
<g id="a_Node000014"><a xlink:href="rp2350_2hardware__regs_2include_2hardware_2regs_2ticks_8h.html" target="_top" xlink:title=" ">
<polygon fill="white" stroke="#666666" points="1106.5,-129 984.5,-129 984.5,-110 1106.5,-110 1106.5,-129"/>
<text text-anchor="middle" x="1045.5" y="-117" font-family="Helvetica,sans-Serif" font-size="10.00">hardware/regs/ticks.h</text>
</a>
</g>
</g>
<!-- Node9&#45;&gt;Node14 -->
<g id="edge17_Node000009_Node000014" class="edge">
<title>Node9&#45;&gt;Node14</title>
<g id="a_edge17_Node000009_Node000014"><a xlink:title=" ">
<path fill="none" stroke="#63b8ff" d="M912.89,-164.98C939.3,-156.13 980.85,-142.19 1010.39,-132.28"/>
<polygon fill="#63b8ff" stroke="#63b8ff" points="1011.55,-135.58 1019.92,-129.08 1009.32,-128.94 1011.55,-135.58"/>
</a>
</g>
</g>
<!-- Node10&#45;&gt;Node4 -->
<g id="edge12_Node000010_Node000004" class="edge">
<title>Node10&#45;&gt;Node4</title>
<g id="a_edge12_Node000010_Node000004"><a xlink:title=" ">
<path fill="none" stroke="#63b8ff" d="M822.11,-109.98C734.23,-98.54 581.3,-78.63 513.96,-69.86"/>
<polygon fill="#63b8ff" stroke="#63b8ff" points="514.28,-66.37 503.91,-68.55 513.37,-73.31 514.28,-66.37"/>
</a>
</g>
</g>
<!-- Node11 -->
<g id="Node000011" class="node">
<title>Node11</title>
<g id="a_Node000011"><a xlink:title=" ">
<polygon fill="#e0e0e0" stroke="#999999" points="790.5,-74 632.5,-74 632.5,-55 790.5,-55 790.5,-74"/>
<text text-anchor="middle" x="711.5" y="-62" font-family="Helvetica,sans-Serif" font-size="10.00">hardware/regs/addressmap.h</text>
</a>
</g>
</g>
<!-- Node10&#45;&gt;Node11 -->
<g id="edge13_Node000010_Node000011" class="edge">
<title>Node10&#45;&gt;Node11</title>
<g id="a_edge13_Node000010_Node000011"><a xlink:title=" ">
<path fill="none" stroke="#63b8ff" d="M859.22,-109.98C829.55,-101.05 782.71,-86.94 749.75,-77.02"/>
<polygon fill="#63b8ff" stroke="#63b8ff" points="750.58,-73.61 740,-74.08 748.57,-80.32 750.58,-73.61"/>
</a>
</g>
</g>
<!-- Node12 -->
<g id="Node000012" class="node">
<title>Node12</title>
<g id="a_Node000012"><a xlink:href="hardware__structs_2include_2hardware_2structs_2accessctrl_8h.html" target="_top" xlink:title=" ">
<polygon fill="white" stroke="#666666" points="967,-74 808,-74 808,-55 967,-55 967,-74"/>
<text text-anchor="middle" x="887.5" y="-62" font-family="Helvetica,sans-Serif" font-size="10.00">hardware/structs/accessctrl.h</text>
</a>
</g>
</g>
<!-- Node10&#45;&gt;Node12 -->
<g id="edge14_Node000010_Node000012" class="edge">
<title>Node10&#45;&gt;Node12</title>
<g id="a_edge14_Node000010_Node000012"><a xlink:title=" ">
<path fill="none" stroke="#63b8ff" d="M882.33,-109.75C880.84,-102.8 880.4,-92.85 881.02,-84.13"/>
<polygon fill="#63b8ff" stroke="#63b8ff" points="884.51,-84.47 882.37,-74.09 877.57,-83.53 884.51,-84.47"/>
</a>
</g>
</g>
<!-- Node12&#45;&gt;Node10 -->
<g id="edge15_Node000012_Node000010" class="edge">
<title>Node12&#45;&gt;Node10</title>
<g id="a_edge15_Node000012_Node000010"><a xlink:title=" ">
<path fill="none" stroke="#63b8ff" d="M892.63,-74.09C894.14,-80.99 894.59,-90.93 893.99,-99.66"/>
<polygon fill="#63b8ff" stroke="#63b8ff" points="890.5,-99.38 892.67,-109.75 897.44,-100.29 890.5,-99.38"/>
</a>
</g>
</g>
<!-- Node13 -->
<g id="Node000013" class="node">
<title>Node13</title>
<g id="a_Node000013"><a xlink:href="hardware__regs_2include_2hardware_2regs_2accessctrl_8h.html" target="_top" xlink:title=" ">
<polygon fill="white" stroke="#666666" points="961,-19 814,-19 814,0 961,0 961,-19"/>
<text text-anchor="middle" x="887.5" y="-7" font-family="Helvetica,sans-Serif" font-size="10.00">hardware/regs/accessctrl.h</text>
</a>
</g>
</g>
<!-- Node12&#45;&gt;Node13 -->
<g id="edge16_Node000012_Node000013" class="edge">
<title>Node12&#45;&gt;Node13</title>
<g id="a_edge16_Node000012_Node000013"><a xlink:title=" ">
<path fill="none" stroke="#63b8ff" d="M887.5,-54.75C887.5,-47.8 887.5,-37.85 887.5,-29.13"/>
<polygon fill="#63b8ff" stroke="#63b8ff" points="891,-29.09 887.5,-19.09 884,-29.09 891,-29.09"/>
</a>
</g>
</g>
<!-- Node16&#45;&gt;Node4 -->
<g id="edge20_Node000016_Node000004" class="edge">
<title>Node16&#45;&gt;Node4</title>
<g id="a_edge20_Node000016_Node000004"><a xlink:title=" ">
<path fill="none" stroke="#63b8ff" d="M573.96,-219.91C571.48,-207.35 565.91,-183.45 556.5,-165 540.06,-132.76 512.86,-100.37 495.84,-81.66"/>
<polygon fill="#63b8ff" stroke="#63b8ff" points="498.18,-79.03 488.82,-74.08 493.05,-83.79 498.18,-79.03"/>
</a>
</g>
</g>
<!-- Node17 -->
<g id="Node000017" class="node">
<title>Node17</title>
<g id="a_Node000017"><a xlink:href="rp2350_2hardware__structs_2include_2hardware_2structs_2powman_8h.html" target="_top" xlink:title=" ">
<polygon fill="white" stroke="#666666" points="755.5,-184 603.5,-184 603.5,-165 755.5,-165 755.5,-184"/>
<text text-anchor="middle" x="679.5" y="-172" font-family="Helvetica,sans-Serif" font-size="10.00">hardware/structs/powman.h</text>
</a>
</g>
</g>
<!-- Node16&#45;&gt;Node17 -->
<g id="edge21_Node000016_Node000017" class="edge">
<title>Node16&#45;&gt;Node17</title>
<g id="a_edge21_Node000016_Node000017"><a xlink:title=" ">
<path fill="none" stroke="#63b8ff" d="M592.21,-219.98C608.71,-211.57 634.2,-198.59 653.38,-188.81"/>
<polygon fill="#63b8ff" stroke="#63b8ff" points="655.17,-191.83 662.49,-184.17 651.99,-185.59 655.17,-191.83"/>
</a>
</g>
</g>
<!-- Node17&#45;&gt;Node10 -->
<g id="edge22_Node000017_Node000010" class="edge">
<title>Node17&#45;&gt;Node10</title>
<g id="a_edge22_Node000017_Node000010"><a xlink:title=" ">
<path fill="none" stroke="#63b8ff" d="M712.92,-164.98C748.44,-155.93 804.77,-141.58 843.8,-131.64"/>
<polygon fill="#63b8ff" stroke="#63b8ff" points="844.99,-134.94 853.82,-129.08 843.26,-128.16 844.99,-134.94"/>
</a>
</g>
</g>
<!-- Node18 -->
<g id="Node000018" class="node">
<title>Node18</title>
<g id="a_Node000018"><a xlink:href="rp2350_2hardware__regs_2include_2hardware_2regs_2powman_8h.html" target="_top" xlink:title=" ">
<polygon fill="white" stroke="#666666" points="749.5,-129 609.5,-129 609.5,-110 749.5,-110 749.5,-129"/>
<text text-anchor="middle" x="679.5" y="-117" font-family="Helvetica,sans-Serif" font-size="10.00">hardware/regs/powman.h</text>
</a>
</g>
</g>
<!-- Node17&#45;&gt;Node18 -->
<g id="edge23_Node000017_Node000018" class="edge">
<title>Node17&#45;&gt;Node18</title>
<g id="a_edge23_Node000017_Node000018"><a xlink:title=" ">
<path fill="none" stroke="#63b8ff" d="M679.5,-164.75C679.5,-157.8 679.5,-147.85 679.5,-139.13"/>
<polygon fill="#63b8ff" stroke="#63b8ff" points="683,-139.09 679.5,-129.09 676,-139.09 683,-139.09"/>
</a>
</g>
</g>
<!-- Node19&#45;&gt;Node4 -->
<g id="edge25_Node000019_Node000004" class="edge">
<title>Node19&#45;&gt;Node4</title>
<g id="a_edge25_Node000019_Node000004"><a xlink:title=" ">
<path fill="none" stroke="#63b8ff" d="M441.92,-219.87C429.33,-212.3 412.96,-200.01 405.5,-184 401.93,-176.35 402.82,-173.01 405.5,-165 416.81,-131.2 444.63,-99.69 463.02,-81.53"/>
<polygon fill="#63b8ff" stroke="#63b8ff" points="465.91,-83.6 470.72,-74.16 461.07,-78.55 465.91,-83.6"/>
</a>
</g>
</g>
<!-- Node20 -->
<g id="Node000020" class="node">
<title>Node20</title>
<g id="a_Node000020"><a xlink:title=" ">
<polygon fill="#e0e0e0" stroke="#999999" points="547,-184 414,-184 414,-165 547,-165 547,-184"/>
<text text-anchor="middle" x="480.5" y="-172" font-family="Helvetica,sans-Serif" font-size="10.00">hardware/structs/xosc.h</text>
</a>
</g>
</g>
<!-- Node19&#45;&gt;Node20 -->
<g id="edge26_Node000019_Node000020" class="edge">
<title>Node19&#45;&gt;Node20</title>
<g id="a_edge26_Node000019_Node000020"><a xlink:title=" ">
<path fill="none" stroke="#63b8ff" d="M462.13,-219.75C465.08,-212.65 469.33,-202.4 473.01,-193.56"/>
<polygon fill="#63b8ff" stroke="#63b8ff" points="476.33,-194.67 476.93,-184.09 469.87,-191.98 476.33,-194.67"/>
</a>
</g>
</g>
</g>
</svg>
