<?xml version="1.0" encoding="UTF-8" standalone="no"?>
<!DOCTYPE svg PUBLIC "-//W3C//DTD SVG 1.1//EN"
 "http://www.w3.org/Graphics/SVG/1.1/DTD/svg11.dtd">
<!-- Generated by graphviz version 2.43.0 (0)
 -->
<!-- Title: runtime_init.c Pages: 1 -->
<svg width="1421pt" height="313pt"
 viewBox="0.00 0.00 1420.50 313.00" xmlns="http://www.w3.org/2000/svg" xmlns:xlink="http://www.w3.org/1999/xlink">
<g id="graph0" class="graph" transform="scale(1 1) rotate(0) translate(4 309)">
<title>runtime_init.c</title>
<!-- Node1 -->
<g id="Node000001" class="node">
<title>Node1</title>
<g id="a_Node000001"><a xlink:title=" ">
<polygon fill="#999999" stroke="#666666" points="814,-305 730,-305 730,-286 814,-286 814,-305"/>
<text text-anchor="middle" x="772" y="-293" font-family="Helvetica,sans-Serif" font-size="10.00">runtime_init.c</text>
</a>
</g>
</g>
<!-- Node2 -->
<g id="Node000002" class="node">
<title>Node2</title>
<g id="a_Node000002"><a xlink:title=" ">
<polygon fill="#e0e0e0" stroke="#999999" points="264,-244.5 156,-244.5 156,-225.5 264,-225.5 264,-244.5"/>
<text text-anchor="middle" x="210" y="-232.5" font-family="Helvetica,sans-Serif" font-size="10.00">pico/runtime_init.h</text>
</a>
</g>
</g>
<!-- Node1&#45;&gt;Node2 -->
<g id="edge1_Node000001_Node000002" class="edge">
<title>Node1&#45;&gt;Node2</title>
<g id="a_edge1_Node000001_Node000002"><a xlink:title=" ">
<path fill="none" stroke="#63b8ff" d="M729.72,-292.58C643.43,-288.26 441.03,-276.05 273,-250 267.04,-249.08 260.8,-247.92 254.67,-246.68"/>
<polygon fill="#63b8ff" stroke="#63b8ff" points="255.02,-243.17 244.51,-244.51 253.56,-250.02 255.02,-243.17"/>
</a>
</g>
</g>
<!-- Node3 -->
<g id="Node000003" class="node">
<title>Node3</title>
<g id="a_Node000003"><a xlink:href="bootrom_8h.html" target="_top" xlink:title=" ">
<polygon fill="white" stroke="#666666" points="372,-244.5 282,-244.5 282,-225.5 372,-225.5 372,-244.5"/>
<text text-anchor="middle" x="327" y="-232.5" font-family="Helvetica,sans-Serif" font-size="10.00">pico/bootrom.h</text>
</a>
</g>
</g>
<!-- Node1&#45;&gt;Node3 -->
<g id="edge2_Node000001_Node000003" class="edge">
<title>Node1&#45;&gt;Node3</title>
<g id="a_edge2_Node000001_Node000003"><a xlink:title=" ">
<path fill="none" stroke="#63b8ff" d="M729.76,-291.65C657.75,-286.35 506.78,-273.34 381,-250 376.31,-249.13 371.42,-248.07 366.59,-246.94"/>
<polygon fill="#63b8ff" stroke="#63b8ff" points="367.37,-243.53 356.82,-244.53 365.69,-250.32 367.37,-243.53"/>
</a>
</g>
</g>
<!-- Node12 -->
<g id="Node000012" class="node">
<title>Node12</title>
<g id="a_Node000012"><a xlink:href="rp2__common_2hardware__resets_2include_2hardware_2resets_8h.html" target="_top" xlink:title=" ">
<polygon fill="white" stroke="#666666" points="494,-244.5 390,-244.5 390,-225.5 494,-225.5 494,-244.5"/>
<text text-anchor="middle" x="442" y="-232.5" font-family="Helvetica,sans-Serif" font-size="10.00">hardware/resets.h</text>
</a>
</g>
</g>
<!-- Node1&#45;&gt;Node12 -->
<g id="edge14_Node000001_Node000012" class="edge">
<title>Node1&#45;&gt;Node12</title>
<g id="a_edge14_Node000001_Node000012"><a xlink:title=" ">
<path fill="none" stroke="#63b8ff" d="M729.92,-288.36C676.85,-280.43 582.88,-265.76 503,-250 497.93,-249 492.64,-247.89 487.39,-246.74"/>
<polygon fill="#63b8ff" stroke="#63b8ff" points="487.92,-243.28 477.4,-244.51 486.4,-250.11 487.92,-243.28"/>
</a>
</g>
</g>
<!-- Node14 -->
<g id="Node000014" class="node">
<title>Node14</title>
<g id="a_Node000014"><a xlink:title=" ">
<polygon fill="#e0e0e0" stroke="#999999" points="640,-244.5 512,-244.5 512,-225.5 640,-225.5 640,-244.5"/>
<text text-anchor="middle" x="576" y="-232.5" font-family="Helvetica,sans-Serif" font-size="10.00">hardware/structs/usb.h</text>
</a>
</g>
</g>
<!-- Node1&#45;&gt;Node14 -->
<g id="edge17_Node000001_Node000014" class="edge">
<title>Node1&#45;&gt;Node14</title>
<g id="a_edge17_Node000001_Node000014"><a xlink:title=" ">
<path fill="none" stroke="#63b8ff" d="M743.5,-285.99C709.39,-275.81 652.13,-258.72 614.21,-247.4"/>
<polygon fill="#63b8ff" stroke="#63b8ff" points="615.12,-244.02 604.53,-244.52 613.12,-250.73 615.12,-244.02"/>
</a>
</g>
</g>
<!-- Node15 -->
<g id="Node000015" class="node">
<title>Node15</title>
<g id="a_Node000015"><a xlink:title=" ">
<polygon fill="#e0e0e0" stroke="#999999" points="753.5,-244.5 658.5,-244.5 658.5,-225.5 753.5,-225.5 753.5,-244.5"/>
<text text-anchor="middle" x="706" y="-232.5" font-family="Helvetica,sans-Serif" font-size="10.00">hardware/gpio.h</text>
</a>
</g>
</g>
<!-- Node1&#45;&gt;Node15 -->
<g id="edge18_Node000001_Node000015" class="edge">
<title>Node1&#45;&gt;Node15</title>
<g id="a_edge18_Node000001_Node000015"><a xlink:title=" ">
<path fill="none" stroke="#63b8ff" d="M762.26,-285.87C752.03,-276.8 735.71,-262.34 723.28,-251.32"/>
<polygon fill="#63b8ff" stroke="#63b8ff" points="725.58,-248.68 715.78,-244.67 720.94,-253.92 725.58,-248.68"/>
</a>
</g>
</g>
<!-- Node16 -->
<g id="Node000016" class="node">
<title>Node16</title>
<g id="a_Node000016"><a xlink:href="hardware__structs_2include_2hardware_2structs_2m33_8h.html" target="_top" xlink:title=" ">
<polygon fill="white" stroke="#666666" points="904,-244.5 772,-244.5 772,-225.5 904,-225.5 904,-244.5"/>
<text text-anchor="middle" x="838" y="-232.5" font-family="Helvetica,sans-Serif" font-size="10.00">hardware/structs/m33.h</text>
</a>
</g>
</g>
<!-- Node1&#45;&gt;Node16 -->
<g id="edge19_Node000001_Node000016" class="edge">
<title>Node1&#45;&gt;Node16</title>
<g id="a_edge19_Node000001_Node000016"><a xlink:title=" ">
<path fill="none" stroke="#63b8ff" d="M781.74,-285.87C791.97,-276.8 808.29,-262.34 820.72,-251.32"/>
<polygon fill="#63b8ff" stroke="#63b8ff" points="823.06,-253.92 828.22,-244.67 818.42,-248.68 823.06,-253.92"/>
</a>
</g>
</g>
<!-- Node22 -->
<g id="Node000022" class="node">
<title>Node22</title>
<g id="a_Node000022"><a xlink:title=" ">
<polygon fill="#e0e0e0" stroke="#999999" points="1047.5,-250 922.5,-250 922.5,-220 1047.5,-220 1047.5,-250"/>
<text text-anchor="start" x="930.5" y="-238" font-family="Helvetica,sans-Serif" font-size="10.00">hardware/structs/pads</text>
<text text-anchor="middle" x="985" y="-227" font-family="Helvetica,sans-Serif" font-size="10.00">_bank0.h</text>
</a>
</g>
</g>
<!-- Node1&#45;&gt;Node22 -->
<g id="edge27_Node000001_Node000022" class="edge">
<title>Node1&#45;&gt;Node22</title>
<g id="a_edge27_Node000001_Node000022"><a xlink:title=" ">
<path fill="none" stroke="#63b8ff" d="M802.97,-285.99C834.56,-277.32 884.42,-263.62 923.97,-252.76"/>
<polygon fill="#63b8ff" stroke="#63b8ff" points="925.08,-256.09 933.79,-250.06 923.22,-249.34 925.08,-256.09"/>
</a>
</g>
</g>
<!-- Node23 -->
<g id="Node000023" class="node">
<title>Node23</title>
<g id="a_Node000023"><a xlink:title=" ">
<polygon fill="#e0e0e0" stroke="#999999" points="1162.5,-244.5 1065.5,-244.5 1065.5,-225.5 1162.5,-225.5 1162.5,-244.5"/>
<text text-anchor="middle" x="1114" y="-232.5" font-family="Helvetica,sans-Serif" font-size="10.00">hardware/sync.h</text>
</a>
</g>
</g>
<!-- Node1&#45;&gt;Node23 -->
<g id="edge28_Node000001_Node000023" class="edge">
<title>Node1&#45;&gt;Node23</title>
<g id="a_edge28_Node000001_Node000023"><a xlink:title=" ">
<path fill="none" stroke="#63b8ff" d="M814.21,-289.06C870.02,-281.61 971.32,-267.18 1057,-250 1061.69,-249.06 1066.57,-248 1071.42,-246.88"/>
<polygon fill="#63b8ff" stroke="#63b8ff" points="1072.33,-250.26 1081.25,-244.55 1070.72,-243.45 1072.33,-250.26"/>
</a>
</g>
</g>
<!-- Node24 -->
<g id="Node000024" class="node">
<title>Node24</title>
<g id="a_Node000024"><a xlink:title=" ">
<polygon fill="#e0e0e0" stroke="#999999" points="1307.5,-244.5 1180.5,-244.5 1180.5,-225.5 1307.5,-225.5 1307.5,-244.5"/>
<text text-anchor="middle" x="1244" y="-232.5" font-family="Helvetica,sans-Serif" font-size="10.00">hardware/structs/scb.h</text>
</a>
</g>
</g>
<!-- Node1&#45;&gt;Node24 -->
<g id="edge29_Node000001_Node000024" class="edge">
<title>Node1&#45;&gt;Node24</title>
<g id="a_edge29_Node000001_Node000024"><a xlink:title=" ">
<path fill="none" stroke="#63b8ff" d="M814.19,-290.94C887.29,-284.53 1042.14,-269.81 1172,-250 1178.85,-248.95 1186.04,-247.72 1193.12,-246.43"/>
<polygon fill="#63b8ff" stroke="#63b8ff" points="1194.18,-249.79 1203.36,-244.5 1192.88,-242.91 1194.18,-249.79"/>
</a>
</g>
</g>
<!-- Node25 -->
<g id="Node000025" class="node">
<title>Node25</title>
<g id="a_Node000025"><a xlink:title=" ">
<polygon fill="#e0e0e0" stroke="#999999" points="1412.5,-244.5 1325.5,-244.5 1325.5,-225.5 1412.5,-225.5 1412.5,-244.5"/>
<text text-anchor="middle" x="1369" y="-232.5" font-family="Helvetica,sans-Serif" font-size="10.00">hardware/irq.h</text>
</a>
</g>
</g>
<!-- Node1&#45;&gt;Node25 -->
<g id="edge30_Node000001_Node000025" class="edge">
<title>Node1&#45;&gt;Node25</title>
<g id="a_edge30_Node000001_Node000025"><a xlink:title=" ">
<path fill="none" stroke="#63b8ff" d="M814.04,-293.66C905.93,-291.26 1131.35,-282.3 1317,-250 1321.53,-249.21 1326.23,-248.21 1330.88,-247.11"/>
<polygon fill="#63b8ff" stroke="#63b8ff" points="1332.04,-250.42 1340.87,-244.57 1330.32,-243.64 1332.04,-250.42"/>
</a>
</g>
</g>
<!-- Node4 -->
<g id="Node000004" class="node">
<title>Node4</title>
<g id="a_Node000004"><a xlink:title=" ">
<polygon fill="#e0e0e0" stroke="#999999" points="427,-74 381,-74 381,-55 427,-55 427,-74"/>
<text text-anchor="middle" x="404" y="-62" font-family="Helvetica,sans-Serif" font-size="10.00">pico.h</text>
</a>
</g>
</g>
<!-- Node3&#45;&gt;Node4 -->
<g id="edge3_Node000003_Node000004" class="edge">
<title>Node3&#45;&gt;Node4</title>
<g id="a_edge3_Node000003_Node000004"><a xlink:title=" ">
<path fill="none" stroke="#63b8ff" d="M332.48,-225.3C343.4,-207.67 368.2,-166.23 384,-129 390.21,-114.35 395.53,-97.09 399.11,-84.27"/>
<polygon fill="#63b8ff" stroke="#63b8ff" points="402.57,-84.88 401.8,-74.32 395.82,-83.06 402.57,-84.88"/>
</a>
</g>
</g>
<!-- Node5 -->
<g id="Node000005" class="node">
<title>Node5</title>
<g id="a_Node000005"><a xlink:href="pico__bootrom_2include_2pico_2bootrom__constants_8h.html" target="_top" xlink:title=" ">
<polygon fill="white" stroke="#666666" points="143.5,-129 0.5,-129 0.5,-110 143.5,-110 143.5,-129"/>
<text text-anchor="middle" x="72" y="-117" font-family="Helvetica,sans-Serif" font-size="10.00">pico/bootrom_constants.h</text>
</a>
</g>
</g>
<!-- Node3&#45;&gt;Node5 -->
<g id="edge4_Node000003_Node000005" class="edge">
<title>Node3&#45;&gt;Node5</title>
<g id="a_edge4_Node000003_Node000005"><a xlink:title=" ">
<path fill="none" stroke="#63b8ff" d="M294.17,-225.45C287.18,-223.64 279.85,-221.75 273,-220 209.5,-203.78 186.26,-217.62 130,-184 110.65,-172.44 93.96,-152.44 83.51,-137.97"/>
<polygon fill="#63b8ff" stroke="#63b8ff" points="86.15,-135.63 77.59,-129.4 80.4,-139.61 86.15,-135.63"/>
</a>
</g>
</g>
<!-- Node8 -->
<g id="Node000008" class="node">
<title>Node8</title>
<g id="a_Node000008"><a xlink:title=" ">
<polygon fill="#e0e0e0" stroke="#999999" points="323.5,-184 270.5,-184 270.5,-165 323.5,-165 323.5,-184"/>
<text text-anchor="middle" x="297" y="-172" font-family="Helvetica,sans-Serif" font-size="10.00">string.h</text>
</a>
</g>
</g>
<!-- Node3&#45;&gt;Node8 -->
<g id="edge7_Node000003_Node000008" class="edge">
<title>Node3&#45;&gt;Node8</title>
<g id="a_edge7_Node000003_Node000008"><a xlink:title=" ">
<path fill="none" stroke="#63b8ff" d="M322.57,-225.37C318.23,-216.9 311.48,-203.74 306.01,-193.07"/>
<polygon fill="#63b8ff" stroke="#63b8ff" points="309.12,-191.47 301.44,-184.17 302.89,-194.66 309.12,-191.47"/>
</a>
</g>
</g>
<!-- Node9 -->
<g id="Node000009" class="node">
<title>Node9</title>
<g id="a_Node000009"><a xlink:href="lock_8h.html" target="_top" xlink:title=" ">
<polygon fill="white" stroke="#666666" points="252.5,-184 139.5,-184 139.5,-165 252.5,-165 252.5,-184"/>
<text text-anchor="middle" x="196" y="-172" font-family="Helvetica,sans-Serif" font-size="10.00">pico/bootrom/lock.h</text>
</a>
</g>
</g>
<!-- Node3&#45;&gt;Node9 -->
<g id="edge8_Node000003_Node000009" class="edge">
<title>Node3&#45;&gt;Node9</title>
<g id="a_edge8_Node000003_Node000009"><a xlink:title=" ">
<path fill="none" stroke="#63b8ff" d="M307.95,-225.49C286.03,-215.7 249.79,-199.52 224.5,-188.23"/>
<polygon fill="#63b8ff" stroke="#63b8ff" points="225.63,-184.9 215.07,-184.02 222.78,-191.29 225.63,-184.9"/>
</a>
</g>
</g>
<!-- Node11 -->
<g id="Node000011" class="node">
<title>Node11</title>
<g id="a_Node000011"><a xlink:href="pico__flash_2include_2pico_2flash_8h.html" target="_top" xlink:title=" ">
<polygon fill="white" stroke="#666666" points="375.5,-129 302.5,-129 302.5,-110 375.5,-110 375.5,-129"/>
<text text-anchor="middle" x="339" y="-117" font-family="Helvetica,sans-Serif" font-size="10.00">pico/flash.h</text>
</a>
</g>
</g>
<!-- Node3&#45;&gt;Node11 -->
<g id="edge12_Node000003_Node000011" class="edge">
<title>Node3&#45;&gt;Node11</title>
<g id="a_edge12_Node000003_Node000011"><a xlink:title=" ">
<path fill="none" stroke="#63b8ff" d="M327.9,-225.47C329.83,-207.23 334.39,-164.07 337.03,-139.14"/>
<polygon fill="#63b8ff" stroke="#63b8ff" points="340.52,-139.44 338.09,-129.13 333.56,-138.71 340.52,-139.44"/>
</a>
</g>
</g>
<!-- Node6 -->
<g id="Node000006" class="node">
<title>Node6</title>
<g id="a_Node000006"><a xlink:href="boot__bootrom__headers_2include_2boot_2bootrom__constants_8h.html" target="_top" xlink:title=" ">
<polygon fill="white" stroke="#666666" points="144,-74 0,-74 0,-55 144,-55 144,-74"/>
<text text-anchor="middle" x="72" y="-62" font-family="Helvetica,sans-Serif" font-size="10.00">boot/bootrom_constants.h</text>
</a>
</g>
</g>
<!-- Node5&#45;&gt;Node6 -->
<g id="edge5_Node000005_Node000006" class="edge">
<title>Node5&#45;&gt;Node6</title>
<g id="a_edge5_Node000005_Node000006"><a xlink:title=" ">
<path fill="none" stroke="#63b8ff" d="M72,-109.75C72,-102.8 72,-92.85 72,-84.13"/>
<polygon fill="#63b8ff" stroke="#63b8ff" points="75.5,-84.09 72,-74.09 68.5,-84.09 75.5,-84.09"/>
</a>
</g>
</g>
<!-- Node7 -->
<g id="Node000007" class="node">
<title>Node7</title>
<g id="a_Node000007"><a xlink:title=" ">
<polygon fill="#e0e0e0" stroke="#999999" points="117.5,-19 26.5,-19 26.5,0 117.5,0 117.5,-19"/>
<text text-anchor="middle" x="72" y="-7" font-family="Helvetica,sans-Serif" font-size="10.00">pico/platform.h</text>
</a>
</g>
</g>
<!-- Node6&#45;&gt;Node7 -->
<g id="edge6_Node000006_Node000007" class="edge">
<title>Node6&#45;&gt;Node7</title>
<g id="a_edge6_Node000006_Node000007"><a xlink:title=" ">
<path fill="none" stroke="#63b8ff" d="M72,-54.75C72,-47.8 72,-37.85 72,-29.13"/>
<polygon fill="#63b8ff" stroke="#63b8ff" points="75.5,-29.09 72,-19.09 68.5,-29.09 75.5,-29.09"/>
</a>
</g>
</g>
<!-- Node9&#45;&gt;Node5 -->
<g id="edge11_Node000009_Node000005" class="edge">
<title>Node9&#45;&gt;Node5</title>
<g id="a_edge11_Node000009_Node000005"><a xlink:title=" ">
<path fill="none" stroke="#63b8ff" d="M176.08,-164.98C155.95,-156.38 124.62,-142.99 101.59,-133.15"/>
<polygon fill="#63b8ff" stroke="#63b8ff" points="102.86,-129.88 92.29,-129.17 100.1,-136.32 102.86,-129.88"/>
</a>
</g>
</g>
<!-- Node10 -->
<g id="Node000010" class="node">
<title>Node10</title>
<g id="a_Node000010"><a xlink:href="boot__lock_8h.html" target="_top" xlink:title=" ">
<polygon fill="white" stroke="#666666" points="284,-129 162,-129 162,-110 284,-110 284,-129"/>
<text text-anchor="middle" x="223" y="-117" font-family="Helvetica,sans-Serif" font-size="10.00">hardware/boot_lock.h</text>
</a>
</g>
</g>
<!-- Node9&#45;&gt;Node10 -->
<g id="edge9_Node000009_Node000010" class="edge">
<title>Node9&#45;&gt;Node10</title>
<g id="a_edge9_Node000009_Node000010"><a xlink:title=" ">
<path fill="none" stroke="#63b8ff" d="M200.46,-164.75C204.12,-157.57 209.41,-147.18 213.95,-138.27"/>
<polygon fill="#63b8ff" stroke="#63b8ff" points="217.2,-139.59 218.62,-129.09 210.97,-136.41 217.2,-139.59"/>
</a>
</g>
</g>
<!-- Node10&#45;&gt;Node4 -->
<g id="edge10_Node000010_Node000004" class="edge">
<title>Node10&#45;&gt;Node4</title>
<g id="a_edge10_Node000010_Node000004"><a xlink:title=" ">
<path fill="none" stroke="#63b8ff" d="M252.08,-109.98C284.5,-100.49 336.84,-85.17 370.83,-75.21"/>
<polygon fill="#63b8ff" stroke="#63b8ff" points="372.13,-78.48 380.75,-72.31 370.16,-71.76 372.13,-78.48"/>
</a>
</g>
</g>
<!-- Node11&#45;&gt;Node4 -->
<g id="edge13_Node000011_Node000004" class="edge">
<title>Node11&#45;&gt;Node4</title>
<g id="a_edge13_Node000011_Node000004"><a xlink:title=" ">
<path fill="none" stroke="#63b8ff" d="M349.44,-109.98C359.15,-102.07 373.82,-90.11 385.5,-80.58"/>
<polygon fill="#63b8ff" stroke="#63b8ff" points="387.83,-83.2 393.37,-74.17 383.4,-77.78 387.83,-83.2"/>
</a>
</g>
</g>
<!-- Node12&#45;&gt;Node4 -->
<g id="edge15_Node000012_Node000004" class="edge">
<title>Node12&#45;&gt;Node4</title>
<g id="a_edge15_Node000012_Node000004"><a xlink:title=" ">
<path fill="none" stroke="#63b8ff" d="M440.65,-225.2C437.44,-204.8 428.82,-152.73 418,-110 415.81,-101.36 412.92,-91.93 410.33,-83.99"/>
<polygon fill="#63b8ff" stroke="#63b8ff" points="413.58,-82.65 407.09,-74.28 406.94,-84.87 413.58,-82.65"/>
</a>
</g>
</g>
<!-- Node13 -->
<g id="Node000013" class="node">
<title>Node13</title>
<g id="a_Node000013"><a xlink:title=" ">
<polygon fill="#e0e0e0" stroke="#999999" points="610,-184 470,-184 470,-165 610,-165 610,-184"/>
<text text-anchor="middle" x="540" y="-172" font-family="Helvetica,sans-Serif" font-size="10.00">hardware/structs/resets.h</text>
</a>
</g>
</g>
<!-- Node12&#45;&gt;Node13 -->
<g id="edge16_Node000012_Node000013" class="edge">
<title>Node12&#45;&gt;Node13</title>
<g id="a_edge16_Node000012_Node000013"><a xlink:title=" ">
<path fill="none" stroke="#63b8ff" d="M456.46,-225.37C472.31,-215.91 497.97,-200.59 516.68,-189.42"/>
<polygon fill="#63b8ff" stroke="#63b8ff" points="518.69,-192.3 525.48,-184.17 515.1,-186.29 518.69,-192.3"/>
</a>
</g>
</g>
<!-- Node17 -->
<g id="Node000017" class="node">
<title>Node17</title>
<g id="a_Node000017"><a xlink:href="address__mapped_8h.html" target="_top" xlink:title=" ">
<polygon fill="white" stroke="#666666" points="924,-184 766,-184 766,-165 924,-165 924,-184"/>
<text text-anchor="middle" x="845" y="-172" font-family="Helvetica,sans-Serif" font-size="10.00">hardware/address_mapped.h</text>
</a>
</g>
</g>
<!-- Node16&#45;&gt;Node17 -->
<g id="edge20_Node000016_Node000017" class="edge">
<title>Node16&#45;&gt;Node17</title>
<g id="a_edge20_Node000016_Node000017"><a xlink:title=" ">
<path fill="none" stroke="#63b8ff" d="M839.03,-225.37C840,-217.25 841.49,-204.81 842.74,-194.39"/>
<polygon fill="#63b8ff" stroke="#63b8ff" points="846.25,-194.51 843.96,-184.17 839.3,-193.68 846.25,-194.51"/>
</a>
</g>
</g>
<!-- Node21 -->
<g id="Node000021" class="node">
<title>Node21</title>
<g id="a_Node000021"><a xlink:href="hardware__regs_2include_2hardware_2regs_2m33_8h.html" target="_top" xlink:title=" ">
<polygon fill="white" stroke="#666666" points="748,-184 628,-184 628,-165 748,-165 748,-184"/>
<text text-anchor="middle" x="688" y="-172" font-family="Helvetica,sans-Serif" font-size="10.00">hardware/regs/m33.h</text>
</a>
</g>
</g>
<!-- Node16&#45;&gt;Node21 -->
<g id="edge26_Node000016_Node000021" class="edge">
<title>Node16&#45;&gt;Node21</title>
<g id="a_edge26_Node000016_Node000021"><a xlink:title=" ">
<path fill="none" stroke="#63b8ff" d="M816.19,-225.49C790.75,-215.57 748.49,-199.09 719.49,-187.78"/>
<polygon fill="#63b8ff" stroke="#63b8ff" points="720.43,-184.39 709.84,-184.02 717.88,-190.91 720.43,-184.39"/>
</a>
</g>
</g>
<!-- Node17&#45;&gt;Node4 -->
<g id="edge21_Node000017_Node000004" class="edge">
<title>Node17&#45;&gt;Node4</title>
<g id="a_edge21_Node000017_Node000004"><a xlink:title=" ">
<path fill="none" stroke="#63b8ff" d="M810.03,-164.94C726.97,-144.59 518.74,-93.6 437.35,-73.67"/>
<polygon fill="#63b8ff" stroke="#63b8ff" points="437.72,-70.15 427.17,-71.17 436.05,-76.95 437.72,-70.15"/>
</a>
</g>
</g>
<!-- Node18 -->
<g id="Node000018" class="node">
<title>Node18</title>
<g id="a_Node000018"><a xlink:title=" ">
<polygon fill="#e0e0e0" stroke="#999999" points="1100,-129 942,-129 942,-110 1100,-110 1100,-129"/>
<text text-anchor="middle" x="1021" y="-117" font-family="Helvetica,sans-Serif" font-size="10.00">hardware/regs/addressmap.h</text>
</a>
</g>
</g>
<!-- Node17&#45;&gt;Node18 -->
<g id="edge22_Node000017_Node000018" class="edge">
<title>Node17&#45;&gt;Node18</title>
<g id="a_edge22_Node000017_Node000018"><a xlink:title=" ">
<path fill="none" stroke="#63b8ff" d="M873.28,-164.98C902.95,-156.05 949.79,-141.94 982.75,-132.02"/>
<polygon fill="#63b8ff" stroke="#63b8ff" points="983.93,-135.32 992.5,-129.08 981.92,-128.61 983.93,-135.32"/>
</a>
</g>
</g>
<!-- Node19 -->
<g id="Node000019" class="node">
<title>Node19</title>
<g id="a_Node000019"><a xlink:href="hardware__structs_2include_2hardware_2structs_2accessctrl_8h.html" target="_top" xlink:title=" ">
<polygon fill="white" stroke="#666666" points="924.5,-129 765.5,-129 765.5,-110 924.5,-110 924.5,-129"/>
<text text-anchor="middle" x="845" y="-117" font-family="Helvetica,sans-Serif" font-size="10.00">hardware/structs/accessctrl.h</text>
</a>
</g>
</g>
<!-- Node17&#45;&gt;Node19 -->
<g id="edge23_Node000017_Node000019" class="edge">
<title>Node17&#45;&gt;Node19</title>
<g id="a_edge23_Node000017_Node000019"><a xlink:title=" ">
<path fill="none" stroke="#63b8ff" d="M839.83,-164.75C838.34,-157.8 837.9,-147.85 838.52,-139.13"/>
<polygon fill="#63b8ff" stroke="#63b8ff" points="842.01,-139.47 839.87,-129.09 835.07,-138.53 842.01,-139.47"/>
</a>
</g>
</g>
<!-- Node19&#45;&gt;Node17 -->
<g id="edge24_Node000019_Node000017" class="edge">
<title>Node19&#45;&gt;Node17</title>
<g id="a_edge24_Node000019_Node000017"><a xlink:title=" ">
<path fill="none" stroke="#63b8ff" d="M850.13,-129.09C851.64,-135.99 852.09,-145.93 851.49,-154.66"/>
<polygon fill="#63b8ff" stroke="#63b8ff" points="848,-154.38 850.17,-164.75 854.94,-155.29 848,-154.38"/>
</a>
</g>
</g>
<!-- Node20 -->
<g id="Node000020" class="node">
<title>Node20</title>
<g id="a_Node000020"><a xlink:href="hardware__regs_2include_2hardware_2regs_2accessctrl_8h.html" target="_top" xlink:title=" ">
<polygon fill="white" stroke="#666666" points="918.5,-74 771.5,-74 771.5,-55 918.5,-55 918.5,-74"/>
<text text-anchor="middle" x="845" y="-62" font-family="Helvetica,sans-Serif" font-size="10.00">hardware/regs/accessctrl.h</text>
</a>
</g>
</g>
<!-- Node19&#45;&gt;Node20 -->
<g id="edge25_Node000019_Node000020" class="edge">
<title>Node19&#45;&gt;Node20</title>
<g id="a_edge25_Node000019_Node000020"><a xlink:title=" ">
<path fill="none" stroke="#63b8ff" d="M845,-109.75C845,-102.8 845,-92.85 845,-84.13"/>
<polygon fill="#63b8ff" stroke="#63b8ff" points="848.5,-84.09 845,-74.09 841.5,-84.09 848.5,-84.09"/>
</a>
</g>
</g>
</g>
</svg>
