<?xml version="1.0" encoding="UTF-8" standalone="no"?>
<!DOCTYPE svg PUBLIC "-//W3C//DTD SVG 1.1//EN"
 "http://www.w3.org/Graphics/SVG/1.1/DTD/svg11.dtd">
<!-- Generated by graphviz version 2.43.0 (0)
 -->
<!-- Title: rvcsr.h Pages: 1 -->
<svg width="91pt" height="137pt"
 viewBox="0.00 0.00 90.50 137.00" xmlns="http://www.w3.org/2000/svg" xmlns:xlink="http://www.w3.org/1999/xlink">
<g id="graph0" class="graph" transform="scale(1 1) rotate(0) translate(4 133)">
<title>rvcsr.h</title>
<!-- Node1 -->
<g id="Node000001" class="node">
<title>Node1</title>
<g id="a_Node000001"><a xlink:title=" ">
<polygon fill="#999999" stroke="#666666" points="57.5,-129 7.5,-129 7.5,-110 57.5,-110 57.5,-129"/>
<text text-anchor="middle" x="32.5" y="-117" font-family="Helvetica,sans-Serif" font-size="10.00">rvcsr.h</text>
</a>
</g>
</g>
<!-- Node2 -->
<g id="Node000002" class="node">
<title>Node2</title>
<g id="a_Node000002"><a xlink:href="hazard3_8h.html" target="_top" xlink:title=" ">
<polygon fill="white" stroke="#666666" points="65,-19 0,-19 0,0 65,0 65,-19"/>
<text text-anchor="middle" x="32.5" y="-7" font-family="Helvetica,sans-Serif" font-size="10.00">hazard3.h</text>
</a>
</g>
</g>
<!-- Node1&#45;&gt;Node2 -->
<g id="edge1_Node000001_Node000002" class="edge">
<title>Node1&#45;&gt;Node2</title>
<g id="a_edge1_Node000001_Node000002"><a xlink:title=" ">
<path fill="none" stroke="#63b8ff" d="M28.87,-99.68C27.53,-91.78 26.16,-82.48 25.5,-74 23.96,-54.32 27.95,-31.31 30.52,-19.11"/>
<polygon fill="#63b8ff" stroke="#63b8ff" points="25.46,-100.47 30.7,-109.68 32.35,-99.22 25.46,-100.47"/>
</a>
</g>
</g>
<!-- Node3 -->
<g id="Node000003" class="node">
<title>Node3</title>
<g id="a_Node000003"><a xlink:href="riscv_8h.html" target="_top" xlink:title=" ">
<polygon fill="white" stroke="#666666" points="82.5,-74 34.5,-74 34.5,-55 82.5,-55 82.5,-74"/>
<text text-anchor="middle" x="58.5" y="-62" font-family="Helvetica,sans-Serif" font-size="10.00">riscv.h</text>
</a>
</g>
</g>
<!-- Node1&#45;&gt;Node3 -->
<g id="edge2_Node000001_Node000003" class="edge">
<title>Node1&#45;&gt;Node3</title>
<g id="a_edge2_Node000001_Node000003"><a xlink:title=" ">
<path fill="none" stroke="#63b8ff" d="M41.32,-100.53C45.7,-91.6 50.79,-81.22 54.29,-74.09"/>
<polygon fill="#63b8ff" stroke="#63b8ff" points="38.06,-99.23 36.79,-109.75 44.34,-102.31 38.06,-99.23"/>
</a>
</g>
</g>
<!-- Node3&#45;&gt;Node2 -->
<g id="edge3_Node000003_Node000002" class="edge">
<title>Node3&#45;&gt;Node2</title>
<g id="a_edge3_Node000003_Node000002"><a xlink:title=" ">
<path fill="none" stroke="#63b8ff" d="M49.68,-45.53C45.3,-36.6 40.21,-26.22 36.71,-19.09"/>
<polygon fill="#63b8ff" stroke="#63b8ff" points="46.66,-47.31 54.21,-54.75 52.94,-44.23 46.66,-47.31"/>
</a>
</g>
</g>
</g>
</svg>
