<?xml version="1.0" encoding="UTF-8" standalone="no"?>
<!DOCTYPE svg PUBLIC "-//W3C//DTD SVG 1.1//EN"
 "http://www.w3.org/Graphics/SVG/1.1/DTD/svg11.dtd">
<!-- Generated by graphviz version 2.43.0 (0)
 -->
<!-- Title: sem.c Pages: 1 -->
<svg width="222pt" height="247pt"
 viewBox="0.00 0.00 221.89 247.00" xmlns="http://www.w3.org/2000/svg" xmlns:xlink="http://www.w3.org/1999/xlink">
<g id="graph0" class="graph" transform="scale(1 1) rotate(0) translate(4 243)">
<title>sem.c</title>
<!-- Node1 -->
<g id="Node000001" class="node">
<title>Node1</title>
<g id="a_Node000001"><a xlink:title=" ">
<polygon fill="#999999" stroke="#666666" points="141.39,-239 95.39,-239 95.39,-220 141.39,-220 141.39,-239"/>
<text text-anchor="middle" x="118.39" y="-227" font-family="Helvetica,sans-Serif" font-size="10.00">sem.c</text>
</a>
</g>
</g>
<!-- Node2 -->
<g id="Node000002" class="node">
<title>Node2</title>
<g id="a_Node000002"><a xlink:href="sem_8h.html" target="_top" xlink:title=" ">
<polygon fill="white" stroke="#666666" points="122.39,-184 52.39,-184 52.39,-165 122.39,-165 122.39,-184"/>
<text text-anchor="middle" x="87.39" y="-172" font-family="Helvetica,sans-Serif" font-size="10.00">pico/sem.h</text>
</a>
</g>
</g>
<!-- Node1&#45;&gt;Node2 -->
<g id="edge1_Node000001_Node000002" class="edge">
<title>Node1&#45;&gt;Node2</title>
<g id="a_edge1_Node000001_Node000002"><a xlink:title=" ">
<path fill="none" stroke="#63b8ff" d="M113.27,-219.75C109.03,-212.49 102.87,-201.95 97.62,-192.98"/>
<polygon fill="#63b8ff" stroke="#63b8ff" points="100.49,-190.95 92.42,-184.09 94.44,-194.49 100.49,-190.95"/>
</a>
</g>
</g>
<!-- Node5 -->
<g id="Node000005" class="node">
<title>Node5</title>
<g id="a_Node000005"><a xlink:href="common_2pico__time_2include_2pico_2time_8h.html" target="_top" xlink:title=" ">
<polygon fill="white" stroke="#666666" points="198.89,-74 127.89,-74 127.89,-55 198.89,-55 198.89,-74"/>
<text text-anchor="middle" x="163.39" y="-62" font-family="Helvetica,sans-Serif" font-size="10.00">pico/time.h</text>
</a>
</g>
</g>
<!-- Node1&#45;&gt;Node5 -->
<g id="edge8_Node000001_Node000005" class="edge">
<title>Node1&#45;&gt;Node5</title>
<g id="a_edge8_Node000001_Node000005"><a xlink:title=" ">
<path fill="none" stroke="#63b8ff" d="M120.94,-219.98C123.6,-211.04 127.86,-196.55 131.39,-184 141.3,-148.74 152.33,-107.41 158.51,-84.06"/>
<polygon fill="#63b8ff" stroke="#63b8ff" points="161.96,-84.7 161.12,-74.14 155.19,-82.92 161.96,-84.7"/>
</a>
</g>
</g>
<!-- Node3 -->
<g id="Node000003" class="node">
<title>Node3</title>
<g id="a_Node000003"><a xlink:href="lock__core_8h.html" target="_top" xlink:title="Base implementation for locking primitives protected by a spin lock.">
<polygon fill="white" stroke="#666666" points="121.89,-129 26.89,-129 26.89,-110 121.89,-110 121.89,-129"/>
<text text-anchor="middle" x="74.39" y="-117" font-family="Helvetica,sans-Serif" font-size="10.00">pico/lock_core.h</text>
</a>
</g>
</g>
<!-- Node2&#45;&gt;Node3 -->
<g id="edge2_Node000002_Node000003" class="edge">
<title>Node2&#45;&gt;Node3</title>
<g id="a_edge2_Node000002_Node000003"><a xlink:title=" ">
<path fill="none" stroke="#63b8ff" d="M85.25,-164.75C83.52,-157.72 81.05,-147.62 78.89,-138.84"/>
<polygon fill="#63b8ff" stroke="#63b8ff" points="82.28,-137.97 76.5,-129.09 75.48,-139.63 82.28,-137.97"/>
</a>
</g>
</g>
<!-- Node4 -->
<g id="Node000004" class="node">
<title>Node4</title>
<g id="a_Node000004"><a xlink:title=" ">
<polygon fill="#e0e0e0" stroke="#999999" points="51.39,-19 5.39,-19 5.39,0 51.39,0 51.39,-19"/>
<text text-anchor="middle" x="28.39" y="-7" font-family="Helvetica,sans-Serif" font-size="10.00">pico.h</text>
</a>
</g>
</g>
<!-- Node3&#45;&gt;Node4 -->
<g id="edge3_Node000003_Node000004" class="edge">
<title>Node3&#45;&gt;Node4</title>
<g id="a_edge3_Node000003_Node000004"><a xlink:title=" ">
<path fill="none" stroke="#63b8ff" d="M48.89,-109.9C32.7,-102.96 13.04,-91.44 3.39,-74 -5,-58.84 4.36,-40.28 13.92,-27.15"/>
<polygon fill="#63b8ff" stroke="#63b8ff" points="16.89,-29.04 20.36,-19.03 11.4,-24.69 16.89,-29.04"/>
</a>
</g>
</g>
<!-- Node3&#45;&gt;Node5 -->
<g id="edge4_Node000003_Node000005" class="edge">
<title>Node3&#45;&gt;Node5</title>
<g id="a_edge4_Node000003_Node000005"><a xlink:title=" ">
<path fill="none" stroke="#63b8ff" d="M88.69,-109.98C102.49,-101.77 123.63,-89.18 139.91,-79.49"/>
<polygon fill="#63b8ff" stroke="#63b8ff" points="142.03,-82.29 148.83,-74.17 138.45,-76.28 142.03,-82.29"/>
</a>
</g>
</g>
<!-- Node7 -->
<g id="Node000007" class="node">
<title>Node7</title>
<g id="a_Node000007"><a xlink:title=" ">
<polygon fill="#e0e0e0" stroke="#999999" points="109.89,-74 12.89,-74 12.89,-55 109.89,-55 109.89,-74"/>
<text text-anchor="middle" x="61.39" y="-62" font-family="Helvetica,sans-Serif" font-size="10.00">hardware/sync.h</text>
</a>
</g>
</g>
<!-- Node3&#45;&gt;Node7 -->
<g id="edge7_Node000003_Node000007" class="edge">
<title>Node3&#45;&gt;Node7</title>
<g id="a_edge7_Node000003_Node000007"><a xlink:title=" ">
<path fill="none" stroke="#63b8ff" d="M72.25,-109.75C70.52,-102.72 68.05,-92.62 65.89,-83.84"/>
<polygon fill="#63b8ff" stroke="#63b8ff" points="69.28,-82.97 63.5,-74.09 62.48,-84.63 69.28,-82.97"/>
</a>
</g>
</g>
<!-- Node5&#45;&gt;Node4 -->
<g id="edge5_Node000005_Node000004" class="edge">
<title>Node5&#45;&gt;Node4</title>
<g id="a_edge5_Node000005_Node000004"><a xlink:title=" ">
<path fill="none" stroke="#63b8ff" d="M141.7,-54.98C119.59,-46.3 85.07,-32.75 59.94,-22.88"/>
<polygon fill="#63b8ff" stroke="#63b8ff" points="61.06,-19.57 50.48,-19.17 58.51,-26.08 61.06,-19.57"/>
</a>
</g>
</g>
<!-- Node6 -->
<g id="Node000006" class="node">
<title>Node6</title>
<g id="a_Node000006"><a xlink:title=" ">
<polygon fill="#e0e0e0" stroke="#999999" points="213.89,-19 112.89,-19 112.89,0 213.89,0 213.89,-19"/>
<text text-anchor="middle" x="163.39" y="-7" font-family="Helvetica,sans-Serif" font-size="10.00">hardware/timer.h</text>
</a>
</g>
</g>
<!-- Node5&#45;&gt;Node6 -->
<g id="edge6_Node000005_Node000006" class="edge">
<title>Node5&#45;&gt;Node6</title>
<g id="a_edge6_Node000005_Node000006"><a xlink:title=" ">
<path fill="none" stroke="#63b8ff" d="M163.39,-54.75C163.39,-47.8 163.39,-37.85 163.39,-29.13"/>
<polygon fill="#63b8ff" stroke="#63b8ff" points="166.89,-29.09 163.39,-19.09 159.89,-29.09 166.89,-29.09"/>
</a>
</g>
</g>
</g>
</svg>
