<?xml version="1.0" encoding="UTF-8" standalone="no"?>
<!DOCTYPE svg PUBLIC "-//W3C//DTD SVG 1.1//EN"
 "http://www.w3.org/Graphics/SVG/1.1/DTD/svg11.dtd">
<!-- Generated by graphviz version 2.43.0 (0)
 -->
<!-- Title: sem.h Pages: 1 -->
<svg width="784pt" height="214pt"
 viewBox="0.00 0.00 784.00 214.00" xmlns="http://www.w3.org/2000/svg" xmlns:xlink="http://www.w3.org/1999/xlink">
<g id="graph0" class="graph" transform="scale(1 1) rotate(0) translate(4 210)">
<title>sem.h</title>
<!-- Node1 -->
<g id="Node000001" class="node">
<title>Node1</title>
<g id="a_Node000001"><a xlink:title=" ">
<polygon fill="#999999" stroke="#666666" points="353,-206 306,-206 306,-187 353,-187 353,-206"/>
<text text-anchor="middle" x="329.5" y="-194" font-family="Helvetica,sans-Serif" font-size="10.00">sem.h</text>
</a>
</g>
</g>
<!-- Node2 -->
<g id="Node000002" class="node">
<title>Node2</title>
<g id="a_Node000002"><a xlink:href="async__context__poll_8h.html" target="_top" xlink:title=" ">
<polygon fill="white" stroke="#666666" points="121,-145.5 2,-145.5 2,-126.5 121,-126.5 121,-145.5"/>
<text text-anchor="middle" x="61.5" y="-133.5" font-family="Helvetica,sans-Serif" font-size="10.00">async_context_poll.h</text>
</a>
</g>
</g>
<!-- Node1&#45;&gt;Node2 -->
<g id="edge1_Node000001_Node000002" class="edge">
<title>Node1&#45;&gt;Node2</title>
<g id="a_edge1_Node000001_Node000002"><a xlink:title=" ">
<path fill="none" stroke="#63b8ff" d="M295.79,-188.14C246.07,-177.29 153.28,-157.04 100.63,-145.54"/>
<polygon fill="#63b8ff" stroke="#63b8ff" points="295.2,-191.6 305.72,-190.31 296.69,-184.76 295.2,-191.6"/>
</a>
</g>
</g>
<!-- Node4 -->
<g id="Node000004" class="node">
<title>Node4</title>
<g id="a_Node000004"><a xlink:href="async__context__threadsafe__background_8h.html" target="_top" xlink:title=" ">
<polygon fill="white" stroke="#666666" points="284,-151 139,-151 139,-121 284,-121 284,-151"/>
<text text-anchor="start" x="147" y="-139" font-family="Helvetica,sans-Serif" font-size="10.00">async_context_threadsafe</text>
<text text-anchor="middle" x="211.5" y="-128" font-family="Helvetica,sans-Serif" font-size="10.00">_background.h</text>
</a>
</g>
</g>
<!-- Node1&#45;&gt;Node4 -->
<g id="edge3_Node000001_Node000004" class="edge">
<title>Node1&#45;&gt;Node4</title>
<g id="a_edge3_Node000001_Node000004"><a xlink:title=" ">
<path fill="none" stroke="#63b8ff" d="M303.2,-182.46C284.47,-173.18 259.32,-160.71 240.1,-151.18"/>
<polygon fill="#63b8ff" stroke="#63b8ff" points="301.83,-185.69 312.34,-186.99 304.94,-179.42 301.83,-185.69"/>
</a>
</g>
</g>
<!-- Node6 -->
<g id="Node000006" class="node">
<title>Node6</title>
<g id="a_Node000006"><a xlink:href="pico__sem__test_8c.html" target="_top" xlink:title=" ">
<polygon fill="white" stroke="#666666" points="467,-145.5 372,-145.5 372,-126.5 467,-126.5 467,-145.5"/>
<text text-anchor="middle" x="419.5" y="-133.5" font-family="Helvetica,sans-Serif" font-size="10.00">pico_sem_test.c</text>
</a>
</g>
</g>
<!-- Node1&#45;&gt;Node6 -->
<g id="edge5_Node000001_Node000006" class="edge">
<title>Node1&#45;&gt;Node6</title>
<g id="a_edge5_Node000001_Node000006"><a xlink:title=" ">
<path fill="none" stroke="#63b8ff" d="M351.56,-181.16C368.66,-170.05 391.79,-155.01 406.17,-145.67"/>
<polygon fill="#63b8ff" stroke="#63b8ff" points="349.26,-178.48 342.78,-186.87 353.07,-184.35 349.26,-178.48"/>
</a>
</g>
</g>
<!-- Node7 -->
<g id="Node000007" class="node">
<title>Node7</title>
<g id="a_Node000007"><a xlink:href="sem_8c.html" target="_top" xlink:title=" ">
<polygon fill="white" stroke="#666666" points="531.5,-145.5 485.5,-145.5 485.5,-126.5 531.5,-126.5 531.5,-145.5"/>
<text text-anchor="middle" x="508.5" y="-133.5" font-family="Helvetica,sans-Serif" font-size="10.00">sem.c</text>
</a>
</g>
</g>
<!-- Node1&#45;&gt;Node7 -->
<g id="edge6_Node000001_Node000007" class="edge">
<title>Node1&#45;&gt;Node7</title>
<g id="a_edge6_Node000001_Node000007"><a xlink:title=" ">
<path fill="none" stroke="#63b8ff" d="M363.17,-186.53C393.21,-178.24 438.23,-165.11 476.5,-151 480.94,-149.36 485.64,-147.43 490.04,-145.52"/>
<polygon fill="#63b8ff" stroke="#63b8ff" points="361.93,-183.24 353.21,-189.26 363.78,-190 361.93,-183.24"/>
</a>
</g>
</g>
<!-- Node8 -->
<g id="Node000008" class="node">
<title>Node8</title>
<g id="a_Node000008"><a xlink:href="common_2pico__sync_2include_2pico_2sync_8h.html" target="_top" xlink:title=" ">
<polygon fill="white" stroke="#666666" points="353.5,-145.5 305.5,-145.5 305.5,-126.5 353.5,-126.5 353.5,-145.5"/>
<text text-anchor="middle" x="329.5" y="-133.5" font-family="Helvetica,sans-Serif" font-size="10.00">sync.h</text>
</a>
</g>
</g>
<!-- Node1&#45;&gt;Node8 -->
<g id="edge7_Node000001_Node000008" class="edge">
<title>Node1&#45;&gt;Node8</title>
<g id="a_edge7_Node000001_Node000008"><a xlink:title=" ">
<path fill="none" stroke="#63b8ff" d="M329.5,-176.66C329.5,-166.24 329.5,-153.8 329.5,-145.67"/>
<polygon fill="#63b8ff" stroke="#63b8ff" points="326,-176.87 329.5,-186.87 333,-176.87 326,-176.87"/>
</a>
</g>
</g>
<!-- Node3 -->
<g id="Node000003" class="node">
<title>Node3</title>
<g id="a_Node000003"><a xlink:href="async__context__poll_8c.html" target="_top" xlink:title=" ">
<polygon fill="white" stroke="#666666" points="119,-79.5 0,-79.5 0,-60.5 119,-60.5 119,-79.5"/>
<text text-anchor="middle" x="59.5" y="-67.5" font-family="Helvetica,sans-Serif" font-size="10.00">async_context_poll.c</text>
</a>
</g>
</g>
<!-- Node2&#45;&gt;Node3 -->
<g id="edge2_Node000002_Node000003" class="edge">
<title>Node2&#45;&gt;Node3</title>
<g id="a_edge2_Node000002_Node000003"><a xlink:title=" ">
<path fill="none" stroke="#63b8ff" d="M60.91,-116.08C60.54,-104.13 60.07,-89.22 59.78,-79.91"/>
<polygon fill="#63b8ff" stroke="#63b8ff" points="57.42,-116.48 61.23,-126.37 64.42,-116.26 57.42,-116.48"/>
</a>
</g>
</g>
<!-- Node5 -->
<g id="Node000005" class="node">
<title>Node5</title>
<g id="a_Node000005"><a xlink:href="async__context__threadsafe__background_8c.html" target="_top" xlink:title=" ">
<polygon fill="white" stroke="#666666" points="282,-85 137,-85 137,-55 282,-55 282,-85"/>
<text text-anchor="start" x="145" y="-73" font-family="Helvetica,sans-Serif" font-size="10.00">async_context_threadsafe</text>
<text text-anchor="middle" x="209.5" y="-62" font-family="Helvetica,sans-Serif" font-size="10.00">_background.c</text>
</a>
</g>
</g>
<!-- Node4&#45;&gt;Node5 -->
<g id="edge4_Node000004_Node000005" class="edge">
<title>Node4&#45;&gt;Node5</title>
<g id="a_edge4_Node000004_Node000005"><a xlink:title=" ">
<path fill="none" stroke="#63b8ff" d="M210.74,-110.54C210.47,-101.96 210.18,-92.61 209.94,-85.16"/>
<polygon fill="#63b8ff" stroke="#63b8ff" points="207.25,-110.91 211.06,-120.8 214.24,-110.69 207.25,-110.91"/>
</a>
</g>
</g>
<!-- Node8&#45;&gt;Node3 -->
<g id="edge9_Node000008_Node000003" class="edge">
<title>Node8&#45;&gt;Node3</title>
<g id="a_edge9_Node000008_Node000003"><a xlink:title=" ">
<path fill="none" stroke="#63b8ff" d="M299.37,-122.88C297.4,-122.21 295.43,-121.58 293.5,-121 284.25,-118.23 164.91,-93.09 100.34,-79.55"/>
<polygon fill="#63b8ff" stroke="#63b8ff" points="298.54,-126.3 309.14,-126.43 300.93,-119.72 298.54,-126.3"/>
</a>
</g>
</g>
<!-- Node8&#45;&gt;Node5 -->
<g id="edge10_Node000008_Node000005" class="edge">
<title>Node8&#45;&gt;Node5</title>
<g id="a_edge10_Node000008_Node000005"><a xlink:title=" ">
<path fill="none" stroke="#63b8ff" d="M304.46,-121.64C284.41,-110.95 256.38,-96 235.97,-85.12"/>
<polygon fill="#63b8ff" stroke="#63b8ff" points="302.85,-124.75 313.32,-126.37 306.14,-118.57 302.85,-124.75"/>
</a>
</g>
</g>
<!-- Node9 -->
<g id="Node000009" class="node">
<title>Node9</title>
<g id="a_Node000009"><a xlink:href="async__context__freertos_8c.html" target="_top" xlink:title=" ">
<polygon fill="white" stroke="#666666" points="776,-79.5 637,-79.5 637,-60.5 776,-60.5 776,-79.5"/>
<text text-anchor="middle" x="706.5" y="-67.5" font-family="Helvetica,sans-Serif" font-size="10.00">async_context_freertos.c</text>
</a>
</g>
</g>
<!-- Node8&#45;&gt;Node9 -->
<g id="edge8_Node000008_Node000009" class="edge">
<title>Node8&#45;&gt;Node9</title>
<g id="a_edge8_Node000008_Node000009"><a xlink:title=" ">
<path fill="none" stroke="#63b8ff" d="M357.6,-122.79C359.58,-122.13 361.56,-121.52 363.5,-121 478.28,-90.12 511.09,-103.5 628.5,-85 638.96,-83.35 650.19,-81.43 660.77,-79.54"/>
<polygon fill="#63b8ff" stroke="#63b8ff" points="356.05,-119.63 347.91,-126.42 358.5,-126.19 356.05,-119.63"/>
</a>
</g>
</g>
<!-- Node10 -->
<g id="Node000010" class="node">
<title>Node10</title>
<g id="a_Node000010"><a xlink:href="atomic_8c.html" target="_top" xlink:title=" ">
<polygon fill="white" stroke="#666666" points="359,-79.5 300,-79.5 300,-60.5 359,-60.5 359,-79.5"/>
<text text-anchor="middle" x="329.5" y="-67.5" font-family="Helvetica,sans-Serif" font-size="10.00">atomic.c</text>
</a>
</g>
</g>
<!-- Node8&#45;&gt;Node10 -->
<g id="edge11_Node000008_Node000010" class="edge">
<title>Node8&#45;&gt;Node10</title>
<g id="a_edge11_Node000008_Node000010"><a xlink:title=" ">
<path fill="none" stroke="#63b8ff" d="M329.5,-116.08C329.5,-104.13 329.5,-89.22 329.5,-79.91"/>
<polygon fill="#63b8ff" stroke="#63b8ff" points="326,-116.37 329.5,-126.37 333,-116.37 326,-116.37"/>
</a>
</g>
</g>
<!-- Node11 -->
<g id="Node000011" class="node">
<title>Node11</title>
<g id="a_Node000011"><a xlink:href="kitchen__sink_8c.html" target="_top" xlink:title=" ">
<polygon fill="white" stroke="#666666" points="463.5,-79.5 377.5,-79.5 377.5,-60.5 463.5,-60.5 463.5,-79.5"/>
<text text-anchor="middle" x="420.5" y="-67.5" font-family="Helvetica,sans-Serif" font-size="10.00">kitchen_sink.c</text>
</a>
</g>
</g>
<!-- Node8&#45;&gt;Node11 -->
<g id="edge12_Node000008_Node000011" class="edge">
<title>Node8&#45;&gt;Node11</title>
<g id="a_edge12_Node000008_Node000011"><a xlink:title=" ">
<path fill="none" stroke="#63b8ff" d="M350.35,-120.33C368.2,-107.78 393.3,-90.13 408.13,-79.7"/>
<polygon fill="#63b8ff" stroke="#63b8ff" points="347.94,-117.75 341.77,-126.37 351.97,-123.48 347.94,-117.75"/>
</a>
</g>
</g>
<!-- Node13 -->
<g id="Node000013" class="node">
<title>Node13</title>
<g id="a_Node000013"><a xlink:href="rp2__common_2pico__multicore_2include_2pico_2multicore_8h.html" target="_top" xlink:title=" ">
<polygon fill="white" stroke="#666666" points="553.5,-79.5 481.5,-79.5 481.5,-60.5 553.5,-60.5 553.5,-79.5"/>
<text text-anchor="middle" x="517.5" y="-67.5" font-family="Helvetica,sans-Serif" font-size="10.00">multicore.h</text>
</a>
</g>
</g>
<!-- Node8&#45;&gt;Node13 -->
<g id="edge14_Node000008_Node000013" class="edge">
<title>Node8&#45;&gt;Node13</title>
<g id="a_edge14_Node000008_Node000013"><a xlink:title=" ">
<path fill="none" stroke="#63b8ff" d="M359.16,-122.63C360.63,-122.07 362.08,-121.52 363.5,-121 387.05,-112.34 452.63,-91.45 490.18,-79.59"/>
<polygon fill="#63b8ff" stroke="#63b8ff" points="357.54,-119.51 349.54,-126.45 360.12,-126.02 357.54,-119.51"/>
</a>
</g>
</g>
<!-- Node14 -->
<g id="Node000014" class="node">
<title>Node14</title>
<g id="a_Node000014"><a xlink:href="time_8c.html" target="_top" xlink:title=" ">
<polygon fill="white" stroke="#666666" points="619,-79.5 572,-79.5 572,-60.5 619,-60.5 619,-79.5"/>
<text text-anchor="middle" x="595.5" y="-67.5" font-family="Helvetica,sans-Serif" font-size="10.00">time.c</text>
</a>
</g>
</g>
<!-- Node8&#45;&gt;Node14 -->
<g id="edge15_Node000008_Node000014" class="edge">
<title>Node8&#45;&gt;Node14</title>
<g id="a_edge15_Node000008_Node000014"><a xlink:title=" ">
<path fill="none" stroke="#63b8ff" d="M357.77,-122.84C359.69,-122.17 361.62,-121.55 363.5,-121 449.76,-95.75 476.38,-110.71 562.5,-85 567.39,-83.54 572.53,-81.58 577.27,-79.59"/>
<polygon fill="#63b8ff" stroke="#63b8ff" points="356.42,-119.61 348.31,-126.43 358.9,-126.15 356.42,-119.61"/>
</a>
</g>
</g>
<!-- Node12 -->
<g id="Node000012" class="node">
<title>Node12</title>
<g id="a_Node000012"><a xlink:href="kitchen__sink__cpp_8cpp.html" target="_top" xlink:title=" ">
<polygon fill="white" stroke="#666666" points="481,-19 360,-19 360,0 481,0 481,-19"/>
<text text-anchor="middle" x="420.5" y="-7" font-family="Helvetica,sans-Serif" font-size="10.00">kitchen_sink_cpp.cpp</text>
</a>
</g>
</g>
<!-- Node11&#45;&gt;Node12 -->
<g id="edge13_Node000011_Node000012" class="edge">
<title>Node11&#45;&gt;Node12</title>
<g id="a_edge13_Node000011_Node000012"><a xlink:title=" ">
<path fill="none" stroke="#63b8ff" d="M420.5,-50.16C420.5,-39.74 420.5,-27.3 420.5,-19.17"/>
<polygon fill="#63b8ff" stroke="#63b8ff" points="417,-50.37 420.5,-60.37 424,-50.37 417,-50.37"/>
</a>
</g>
</g>
</g>
</svg>
