<?xml version="1.0" encoding="UTF-8" standalone="no"?>
<!DOCTYPE svg PUBLIC "-//W3C//DTD SVG 1.1//EN"
 "http://www.w3.org/Graphics/SVG/1.1/DTD/svg11.dtd">
<!-- Generated by graphviz version 2.43.0 (0)
 -->
<!-- Title: sf_table.h Pages: 1 -->
<svg width="773pt" height="148pt"
 viewBox="0.00 0.00 773.00 148.00" xmlns="http://www.w3.org/2000/svg" xmlns:xlink="http://www.w3.org/1999/xlink">
<g id="graph0" class="graph" transform="scale(1 1) rotate(0) translate(4 144)">
<title>sf_table.h</title>
<!-- Node1 -->
<g id="Node000001" class="node">
<title>Node1</title>
<g id="a_Node000001"><a xlink:title=" ">
<polygon fill="#999999" stroke="#666666" points="517.5,-140 452.5,-140 452.5,-121 517.5,-121 517.5,-140"/>
<text text-anchor="middle" x="485" y="-128" font-family="Helvetica,sans-Serif" font-size="10.00">sf_table.h</text>
</a>
</g>
</g>
<!-- Node2 -->
<g id="Node000002" class="node">
<title>Node2</title>
<g id="a_Node000002"><a xlink:href="double_8h.html" target="_top" xlink:title=" ">
<polygon fill="white" stroke="#666666" points="272.5,-85 213.5,-85 213.5,-66 272.5,-66 272.5,-85"/>
<text text-anchor="middle" x="243" y="-73" font-family="Helvetica,sans-Serif" font-size="10.00">double.h</text>
</a>
</g>
</g>
<!-- Node1&#45;&gt;Node2 -->
<g id="edge1_Node000001_Node000002" class="edge">
<title>Node1&#45;&gt;Node2</title>
<g id="a_edge1_Node000001_Node000002"><a xlink:title=" ">
<path fill="none" stroke="#63b8ff" d="M442.46,-120.18C393.81,-109.53 315.42,-92.36 272.84,-83.04"/>
<polygon fill="#63b8ff" stroke="#63b8ff" points="441.85,-123.63 452.36,-122.35 443.34,-116.79 441.85,-123.63"/>
</a>
</g>
</g>
<!-- Node6 -->
<g id="Node000006" class="node">
<title>Node6</title>
<g id="a_Node000006"><a xlink:href="double__init__rom__rp2040_8c.html" target="_top" xlink:title=" ">
<polygon fill="white" stroke="#666666" points="499.5,-85 356.5,-85 356.5,-66 499.5,-66 499.5,-85"/>
<text text-anchor="middle" x="428" y="-73" font-family="Helvetica,sans-Serif" font-size="10.00">double_init_rom_rp2040.c</text>
</a>
</g>
</g>
<!-- Node1&#45;&gt;Node6 -->
<g id="edge5_Node000001_Node000006" class="edge">
<title>Node1&#45;&gt;Node6</title>
<g id="a_edge5_Node000001_Node000006"><a xlink:title=" ">
<path fill="none" stroke="#63b8ff" d="M468.38,-114.04C458.27,-104.64 445.72,-92.98 437.32,-85.17"/>
<polygon fill="#63b8ff" stroke="#63b8ff" points="466.14,-116.74 475.84,-120.98 470.9,-111.61 466.14,-116.74"/>
</a>
</g>
</g>
<!-- Node7 -->
<g id="Node000007" class="node">
<title>Node7</title>
<g id="a_Node000007"><a xlink:href="float_8h.html" target="_top" xlink:title=" ">
<polygon fill="white" stroke="#666666" points="566,-85 518,-85 518,-66 566,-66 566,-85"/>
<text text-anchor="middle" x="542" y="-73" font-family="Helvetica,sans-Serif" font-size="10.00">float.h</text>
</a>
</g>
</g>
<!-- Node1&#45;&gt;Node7 -->
<g id="edge6_Node000001_Node000007" class="edge">
<title>Node1&#45;&gt;Node7</title>
<g id="a_edge6_Node000001_Node000007"><a xlink:title=" ">
<path fill="none" stroke="#63b8ff" d="M501.62,-114.04C511.73,-104.64 524.28,-92.98 532.68,-85.17"/>
<polygon fill="#63b8ff" stroke="#63b8ff" points="499.1,-111.61 494.16,-120.98 503.86,-116.74 499.1,-111.61"/>
</a>
</g>
</g>
<!-- Node12 -->
<g id="Node000012" class="node">
<title>Node12</title>
<g id="a_Node000012"><a xlink:href="float__init__rom__rp2040_8c.html" target="_top" xlink:title=" ">
<polygon fill="white" stroke="#666666" points="734,-85 602,-85 602,-66 734,-66 734,-85"/>
<text text-anchor="middle" x="668" y="-73" font-family="Helvetica,sans-Serif" font-size="10.00">float_init_rom_rp2040.c</text>
</a>
</g>
</g>
<!-- Node1&#45;&gt;Node12 -->
<g id="edge12_Node000001_Node000012" class="edge">
<title>Node1&#45;&gt;Node12</title>
<g id="a_edge12_Node000001_Node000012"><a xlink:title=" ">
<path fill="none" stroke="#63b8ff" d="M524.07,-118.18C558.3,-108.27 607.29,-94.08 638.37,-85.08"/>
<polygon fill="#63b8ff" stroke="#63b8ff" points="523.03,-114.84 514.4,-120.98 524.98,-121.56 523.03,-114.84"/>
</a>
</g>
</g>
<!-- Node3 -->
<g id="Node000003" class="node">
<title>Node3</title>
<g id="a_Node000003"><a xlink:href="custom__double__funcs__test_8c.html" target="_top" xlink:title=" ">
<polygon fill="white" stroke="#666666" points="122,-30 0,-30 0,0 122,0 122,-30"/>
<text text-anchor="start" x="8" y="-18" font-family="Helvetica,sans-Serif" font-size="10.00">custom_double_funcs</text>
<text text-anchor="middle" x="61" y="-7" font-family="Helvetica,sans-Serif" font-size="10.00">_test.c</text>
</a>
</g>
</g>
<!-- Node2&#45;&gt;Node3 -->
<g id="edge2_Node000002_Node000003" class="edge">
<title>Node2&#45;&gt;Node3</title>
<g id="a_edge2_Node000002_Node000003"><a xlink:title=" ">
<path fill="none" stroke="#63b8ff" d="M206.69,-62.83C177.35,-53.4 135.93,-40.09 104.76,-30.06"/>
<polygon fill="#63b8ff" stroke="#63b8ff" points="205.94,-66.27 216.54,-65.99 208.09,-59.6 205.94,-66.27"/>
</a>
</g>
</g>
<!-- Node4 -->
<g id="Node000004" class="node">
<title>Node4</title>
<g id="a_Node000004"><a xlink:href="double__math_8c.html" target="_top" xlink:title=" ">
<polygon fill="white" stroke="#666666" points="229.5,-24.5 140.5,-24.5 140.5,-5.5 229.5,-5.5 229.5,-24.5"/>
<text text-anchor="middle" x="185" y="-12.5" font-family="Helvetica,sans-Serif" font-size="10.00">double_math.c</text>
</a>
</g>
</g>
<!-- Node2&#45;&gt;Node4 -->
<g id="edge3_Node000002_Node000004" class="edge">
<title>Node2&#45;&gt;Node4</title>
<g id="a_edge3_Node000002_Node000004"><a xlink:title=" ">
<path fill="none" stroke="#63b8ff" d="M227.23,-58.59C216.4,-47.67 202.43,-33.58 193.59,-24.67"/>
<polygon fill="#63b8ff" stroke="#63b8ff" points="224.92,-61.23 234.44,-65.87 229.89,-56.3 224.92,-61.23"/>
</a>
</g>
</g>
<!-- Node5 -->
<g id="Node000005" class="node">
<title>Node5</title>
<g id="a_Node000005"><a xlink:href="pico__double__test_8c.html" target="_top" xlink:title=" ">
<polygon fill="white" stroke="#666666" points="354.5,-24.5 247.5,-24.5 247.5,-5.5 354.5,-5.5 354.5,-24.5"/>
<text text-anchor="middle" x="301" y="-12.5" font-family="Helvetica,sans-Serif" font-size="10.00">pico_double_test.c</text>
</a>
</g>
</g>
<!-- Node2&#45;&gt;Node5 -->
<g id="edge4_Node000002_Node000005" class="edge">
<title>Node2&#45;&gt;Node5</title>
<g id="a_edge4_Node000002_Node000005"><a xlink:title=" ">
<path fill="none" stroke="#63b8ff" d="M258.77,-58.59C269.6,-47.67 283.57,-33.58 292.41,-24.67"/>
<polygon fill="#63b8ff" stroke="#63b8ff" points="256.11,-56.3 251.56,-65.87 261.08,-61.23 256.11,-56.3"/>
</a>
</g>
</g>
<!-- Node7&#45;&gt;Node7 -->
<g id="edge8_Node000007_Node000007" class="edge">
<title>Node7&#45;&gt;Node7</title>
<g id="a_edge8_Node000007_Node000007"><a xlink:title=" ">
<path fill="none" stroke="#63b8ff" d="M572.08,-85.39C578.96,-84.53 584,-81.23 584,-75.5 584,-67.17 573.33,-63.98 561.88,-65.93"/>
<polygon fill="#63b8ff" stroke="#63b8ff" points="571.98,-81.89 561.88,-85.07 571.76,-88.88 571.98,-81.89"/>
</a>
</g>
</g>
<!-- Node8 -->
<g id="Node000008" class="node">
<title>Node8</title>
<g id="a_Node000008"><a xlink:href="custom__float__funcs__test_8c.html" target="_top" xlink:title=" ">
<polygon fill="white" stroke="#666666" points="485,-30 373,-30 373,0 485,0 485,-30"/>
<text text-anchor="start" x="381" y="-18" font-family="Helvetica,sans-Serif" font-size="10.00">custom_float_funcs</text>
<text text-anchor="middle" x="429" y="-7" font-family="Helvetica,sans-Serif" font-size="10.00">_test.c</text>
</a>
</g>
</g>
<!-- Node7&#45;&gt;Node8 -->
<g id="edge7_Node000007_Node000008" class="edge">
<title>Node7&#45;&gt;Node8</title>
<g id="a_edge7_Node000007_Node000008"><a xlink:title=" ">
<path fill="none" stroke="#63b8ff" d="M516.06,-61.07C498.17,-51.81 474.43,-39.52 456.26,-30.11"/>
<polygon fill="#63b8ff" stroke="#63b8ff" points="514.84,-64.38 525.33,-65.87 518.06,-58.16 514.84,-64.38"/>
</a>
</g>
</g>
<!-- Node9 -->
<g id="Node000009" class="node">
<title>Node9</title>
<g id="a_Node000009"><a xlink:href="float__math_8c.html" target="_top" xlink:title=" ">
<polygon fill="white" stroke="#666666" points="581,-24.5 503,-24.5 503,-5.5 581,-5.5 581,-24.5"/>
<text text-anchor="middle" x="542" y="-12.5" font-family="Helvetica,sans-Serif" font-size="10.00">float_math.c</text>
</a>
</g>
</g>
<!-- Node7&#45;&gt;Node9 -->
<g id="edge9_Node000007_Node000009" class="edge">
<title>Node7&#45;&gt;Node9</title>
<g id="a_edge9_Node000007_Node000009"><a xlink:title=" ">
<path fill="none" stroke="#63b8ff" d="M542,-55.66C542,-45.24 542,-32.8 542,-24.67"/>
<polygon fill="#63b8ff" stroke="#63b8ff" points="538.5,-55.87 542,-65.87 545.5,-55.87 538.5,-55.87"/>
</a>
</g>
</g>
<!-- Node10 -->
<g id="Node000010" class="node">
<title>Node10</title>
<g id="a_Node000010"><a xlink:href="pico__float__test_8c.html" target="_top" xlink:title=" ">
<polygon fill="white" stroke="#666666" points="696.5,-24.5 599.5,-24.5 599.5,-5.5 696.5,-5.5 696.5,-24.5"/>
<text text-anchor="middle" x="648" y="-12.5" font-family="Helvetica,sans-Serif" font-size="10.00">pico_float_test.c</text>
</a>
</g>
</g>
<!-- Node7&#45;&gt;Node10 -->
<g id="edge10_Node000007_Node000010" class="edge">
<title>Node7&#45;&gt;Node10</title>
<g id="a_edge10_Node000007_Node000010"><a xlink:title=" ">
<path fill="none" stroke="#63b8ff" d="M566.6,-60.92C586.86,-49.74 614.97,-34.23 632.3,-24.67"/>
<polygon fill="#63b8ff" stroke="#63b8ff" points="564.7,-57.97 557.64,-65.87 568.09,-64.1 564.7,-57.97"/>
</a>
</g>
</g>
<!-- Node11 -->
<g id="Node000011" class="node">
<title>Node11</title>
<g id="a_Node000011"><a xlink:href="printf_8c.html" target="_top" xlink:title=" ">
<polygon fill="white" stroke="#666666" points="765,-24.5 715,-24.5 715,-5.5 765,-5.5 765,-24.5"/>
<text text-anchor="middle" x="740" y="-12.5" font-family="Helvetica,sans-Serif" font-size="10.00">printf.c</text>
</a>
</g>
</g>
<!-- Node7&#45;&gt;Node11 -->
<g id="edge11_Node000007_Node000011" class="edge">
<title>Node7&#45;&gt;Node11</title>
<g id="a_edge11_Node000007_Node000011"><a xlink:title=" ">
<path fill="none" stroke="#63b8ff" d="M575.92,-66.62C609.35,-58.54 661.7,-45.06 706,-30 710.71,-28.4 715.71,-26.47 720.38,-24.57"/>
<polygon fill="#63b8ff" stroke="#63b8ff" points="575.1,-63.22 566.19,-68.95 576.73,-70.02 575.1,-63.22"/>
</a>
</g>
</g>
</g>
</svg>
