<?xml version="1.0" encoding="UTF-8" standalone="no"?>
<!DOCTYPE svg PUBLIC "-//W3C//DTD SVG 1.1//EN"
 "http://www.w3.org/Graphics/SVG/1.1/DTD/svg11.dtd">
<!-- Generated by graphviz version 2.43.0 (0)
 -->
<!-- Title: spin_lock.h Pages: 1 -->
<svg width="306pt" height="93pt"
 viewBox="0.00 0.00 306.00 93.00" xmlns="http://www.w3.org/2000/svg" xmlns:xlink="http://www.w3.org/1999/xlink">
<g id="graph0" class="graph" transform="scale(1 1) rotate(0) translate(4 89)">
<title>spin_lock.h</title>
<!-- Node1 -->
<g id="Node000001" class="node">
<title>Node1</title>
<g id="a_Node000001"><a xlink:title=" ">
<polygon fill="#999999" stroke="#666666" points="193.5,-85 122.5,-85 122.5,-66 193.5,-66 193.5,-85"/>
<text text-anchor="middle" x="158" y="-73" font-family="Helvetica,sans-Serif" font-size="10.00">spin_lock.h</text>
</a>
</g>
</g>
<!-- Node2 -->
<g id="Node000002" class="node">
<title>Node2</title>
<g id="a_Node000002"><a xlink:href="hardware__sync__spin__lock__test_8c.html" target="_top" xlink:title=" ">
<polygon fill="white" stroke="#666666" points="116,-30 0,-30 0,0 116,0 116,-30"/>
<text text-anchor="start" x="8" y="-18" font-family="Helvetica,sans-Serif" font-size="10.00">hardware_sync_spin</text>
<text text-anchor="middle" x="58" y="-7" font-family="Helvetica,sans-Serif" font-size="10.00">_lock_test.c</text>
</a>
</g>
</g>
<!-- Node1&#45;&gt;Node2 -->
<g id="edge1_Node000001_Node000002" class="edge">
<title>Node1&#45;&gt;Node2</title>
<g id="a_edge1_Node000001_Node000002"><a xlink:title=" ">
<path fill="none" stroke="#63b8ff" d="M134.6,-60.81C118.83,-51.58 98.06,-39.43 82.13,-30.11"/>
<polygon fill="#63b8ff" stroke="#63b8ff" points="132.85,-63.84 143.24,-65.87 136.38,-57.8 132.85,-63.84"/>
</a>
</g>
</g>
<!-- Node3 -->
<g id="Node000003" class="node">
<title>Node3</title>
<g id="a_Node000003"><a xlink:href="rp2__common_2hardware__sync_2include_2hardware_2sync_8h.html" target="_top" xlink:title=" ">
<polygon fill="white" stroke="#666666" points="182,-24.5 134,-24.5 134,-5.5 182,-5.5 182,-24.5"/>
<text text-anchor="middle" x="158" y="-12.5" font-family="Helvetica,sans-Serif" font-size="10.00">sync.h</text>
</a>
</g>
</g>
<!-- Node1&#45;&gt;Node3 -->
<g id="edge2_Node000001_Node000003" class="edge">
<title>Node1&#45;&gt;Node3</title>
<g id="a_edge2_Node000001_Node000003"><a xlink:title=" ">
<path fill="none" stroke="#63b8ff" d="M158,-55.66C158,-45.24 158,-32.8 158,-24.67"/>
<polygon fill="#63b8ff" stroke="#63b8ff" points="154.5,-55.87 158,-65.87 161.5,-55.87 154.5,-55.87"/>
</a>
</g>
</g>
<!-- Node4 -->
<g id="Node000004" class="node">
<title>Node4</title>
<g id="a_Node000004"><a xlink:href="sync__spin__lock_8c.html" target="_top" xlink:title=" ">
<polygon fill="white" stroke="#666666" points="298,-24.5 200,-24.5 200,-5.5 298,-5.5 298,-24.5"/>
<text text-anchor="middle" x="249" y="-12.5" font-family="Helvetica,sans-Serif" font-size="10.00">sync_spin_lock.c</text>
</a>
</g>
</g>
<!-- Node1&#45;&gt;Node4 -->
<g id="edge3_Node000001_Node000004" class="edge">
<title>Node1&#45;&gt;Node4</title>
<g id="a_edge3_Node000001_Node000004"><a xlink:title=" ">
<path fill="none" stroke="#63b8ff" d="M180.31,-60.16C197.6,-49.05 220.98,-34.01 235.52,-24.67"/>
<polygon fill="#63b8ff" stroke="#63b8ff" points="177.95,-57.52 171.43,-65.87 181.73,-63.4 177.95,-57.52"/>
</a>
</g>
</g>
</g>
</svg>
