<?xml version="1.0" encoding="UTF-8" standalone="no"?>
<!DOCTYPE svg PUBLIC "-//W3C//DTD SVG 1.1//EN"
 "http://www.w3.org/Graphics/SVG/1.1/DTD/svg11.dtd">
<!-- Generated by graphviz version 2.43.0 (0)
 -->
<!-- Title: ssd1306_i2c.c Pages: 1 -->
<svg width="809pt" height="137pt"
 viewBox="0.00 0.00 808.50 137.00" xmlns="http://www.w3.org/2000/svg" xmlns:xlink="http://www.w3.org/1999/xlink">
<g id="graph0" class="graph" transform="scale(1 1) rotate(0) translate(4 133)">
<title>ssd1306_i2c.c</title>
<!-- Node1 -->
<g id="Node000001" class="node">
<title>Node1</title>
<g id="a_Node000001"><a xlink:title=" ">
<polygon fill="#999999" stroke="#666666" points="372.5,-129 287.5,-129 287.5,-110 372.5,-110 372.5,-129"/>
<text text-anchor="middle" x="330" y="-117" font-family="Helvetica,sans-Serif" font-size="10.00">ssd1306_i2c.c</text>
</a>
</g>
</g>
<!-- Node2 -->
<g id="Node000002" class="node">
<title>Node2</title>
<g id="a_Node000002"><a xlink:title=" ">
<polygon fill="#e0e0e0" stroke="#999999" points="50,-74 0,-74 0,-55 50,-55 50,-74"/>
<text text-anchor="middle" x="25" y="-62" font-family="Helvetica,sans-Serif" font-size="10.00">stdio.h</text>
</a>
</g>
</g>
<!-- Node1&#45;&gt;Node2 -->
<g id="edge1_Node000001_Node000002" class="edge">
<title>Node1&#45;&gt;Node2</title>
<g id="a_edge1_Node000001_Node000002"><a xlink:title=" ">
<path fill="none" stroke="#63b8ff" d="M287.09,-112.57C235.48,-105.18 146.03,-91.61 60.11,-74.09"/>
<polygon fill="#63b8ff" stroke="#63b8ff" points="60.7,-70.64 50.2,-72.04 59.29,-77.49 60.7,-70.64"/>
</a>
</g>
</g>
<!-- Node3 -->
<g id="Node000003" class="node">
<title>Node3</title>
<g id="a_Node000003"><a xlink:title=" ">
<polygon fill="#e0e0e0" stroke="#999999" points="121.5,-74 68.5,-74 68.5,-55 121.5,-55 121.5,-74"/>
<text text-anchor="middle" x="95" y="-62" font-family="Helvetica,sans-Serif" font-size="10.00">string.h</text>
</a>
</g>
</g>
<!-- Node1&#45;&gt;Node3 -->
<g id="edge2_Node000001_Node000003" class="edge">
<title>Node1&#45;&gt;Node3</title>
<g id="a_edge2_Node000001_Node000003"><a xlink:title=" ">
<path fill="none" stroke="#63b8ff" d="M292.24,-109.98C248.04,-100.02 175.33,-83.62 131.62,-73.76"/>
<polygon fill="#63b8ff" stroke="#63b8ff" points="132.23,-70.31 121.7,-71.52 130.69,-77.14 132.23,-70.31"/>
</a>
</g>
</g>
<!-- Node4 -->
<g id="Node000004" class="node">
<title>Node4</title>
<g id="a_Node000004"><a xlink:title=" ">
<polygon fill="#e0e0e0" stroke="#999999" points="174.5,-19 121.5,-19 121.5,0 174.5,0 174.5,-19"/>
<text text-anchor="middle" x="148" y="-7" font-family="Helvetica,sans-Serif" font-size="10.00">stdlib.h</text>
</a>
</g>
</g>
<!-- Node1&#45;&gt;Node4 -->
<g id="edge3_Node000001_Node000004" class="edge">
<title>Node1&#45;&gt;Node4</title>
<g id="a_edge3_Node000001_Node000004"><a xlink:title=" ">
<path fill="none" stroke="#63b8ff" d="M287.37,-110.46C260.28,-103.87 225.46,-92.53 199,-74 181.68,-61.88 167.2,-42.26 158.14,-28.03"/>
<polygon fill="#63b8ff" stroke="#63b8ff" points="160.96,-25.93 152.78,-19.2 154.98,-29.57 160.96,-25.93"/>
</a>
</g>
</g>
<!-- Node5 -->
<g id="Node000005" class="node">
<title>Node5</title>
<g id="a_Node000005"><a xlink:title=" ">
<polygon fill="#e0e0e0" stroke="#999999" points="411.5,-74 358.5,-74 358.5,-55 411.5,-55 411.5,-74"/>
<text text-anchor="middle" x="385" y="-62" font-family="Helvetica,sans-Serif" font-size="10.00">ctype.h</text>
</a>
</g>
</g>
<!-- Node1&#45;&gt;Node5 -->
<g id="edge4_Node000001_Node000005" class="edge">
<title>Node1&#45;&gt;Node5</title>
<g id="a_edge4_Node000001_Node000005"><a xlink:title=" ">
<path fill="none" stroke="#63b8ff" d="M339.08,-109.75C347.09,-102.03 358.96,-90.6 368.62,-81.28"/>
<polygon fill="#63b8ff" stroke="#63b8ff" points="371.31,-83.55 376.09,-74.09 366.46,-78.51 371.31,-83.55"/>
</a>
</g>
</g>
<!-- Node6 -->
<g id="Node000006" class="node">
<title>Node6</title>
<g id="a_Node000006"><a xlink:title=" ">
<polygon fill="#e0e0e0" stroke="#999999" points="486,-74 430,-74 430,-55 486,-55 486,-74"/>
<text text-anchor="middle" x="458" y="-62" font-family="Helvetica,sans-Serif" font-size="10.00">assert.h</text>
</a>
</g>
</g>
<!-- Node1&#45;&gt;Node6 -->
<g id="edge5_Node000001_Node000006" class="edge">
<title>Node1&#45;&gt;Node6</title>
<g id="a_edge5_Node000001_Node000006"><a xlink:title=" ">
<path fill="none" stroke="#63b8ff" d="M350.57,-109.98C371.43,-101.34 403.97,-87.87 427.77,-78.02"/>
<polygon fill="#63b8ff" stroke="#63b8ff" points="429.16,-81.23 437.06,-74.17 426.48,-74.76 429.16,-81.23"/>
</a>
</g>
</g>
<!-- Node7 -->
<g id="Node000007" class="node">
<title>Node7</title>
<g id="a_Node000007"><a xlink:title=" ">
<polygon fill="#e0e0e0" stroke="#999999" points="269,-19 193,-19 193,0 269,0 269,-19"/>
<text text-anchor="middle" x="231" y="-7" font-family="Helvetica,sans-Serif" font-size="10.00">pico/stdlib.h</text>
</a>
</g>
</g>
<!-- Node1&#45;&gt;Node7 -->
<g id="edge6_Node000001_Node000007" class="edge">
<title>Node1&#45;&gt;Node7</title>
<g id="a_edge6_Node000001_Node000007"><a xlink:title=" ">
<path fill="none" stroke="#63b8ff" d="M287.47,-115.25C259.58,-110.66 225.06,-99.75 207,-74 197,-59.75 206.52,-40.82 216.37,-27.34"/>
<polygon fill="#63b8ff" stroke="#63b8ff" points="219.22,-29.38 222.69,-19.38 213.73,-25.04 219.22,-29.38"/>
</a>
</g>
</g>
<!-- Node8 -->
<g id="Node000008" class="node">
<title>Node8</title>
<g id="a_Node000008"><a xlink:title=" ">
<polygon fill="#e0e0e0" stroke="#999999" points="608,-74 504,-74 504,-55 608,-55 608,-74"/>
<text text-anchor="middle" x="556" y="-62" font-family="Helvetica,sans-Serif" font-size="10.00">pico/binary_info.h</text>
</a>
</g>
</g>
<!-- Node1&#45;&gt;Node8 -->
<g id="edge7_Node000001_Node000008" class="edge">
<title>Node1&#45;&gt;Node8</title>
<g id="a_edge7_Node000001_Node000008"><a xlink:title=" ">
<path fill="none" stroke="#63b8ff" d="M366.31,-109.98C405.24,-100.86 467.16,-86.33 509.6,-76.38"/>
<polygon fill="#63b8ff" stroke="#63b8ff" points="510.47,-79.77 519.4,-74.08 508.87,-72.96 510.47,-79.77"/>
</a>
</g>
</g>
<!-- Node9 -->
<g id="Node000009" class="node">
<title>Node9</title>
<g id="a_Node000009"><a xlink:title=" ">
<polygon fill="#e0e0e0" stroke="#999999" points="376.5,-19 287.5,-19 287.5,0 376.5,0 376.5,-19"/>
<text text-anchor="middle" x="332" y="-7" font-family="Helvetica,sans-Serif" font-size="10.00">hardware/i2c.h</text>
</a>
</g>
</g>
<!-- Node1&#45;&gt;Node9 -->
<g id="edge8_Node000001_Node000009" class="edge">
<title>Node1&#45;&gt;Node9</title>
<g id="a_edge8_Node000001_Node000009"><a xlink:title=" ">
<path fill="none" stroke="#63b8ff" d="M330.16,-109.66C330.49,-92.17 331.22,-52.8 331.65,-29.27"/>
<polygon fill="#63b8ff" stroke="#63b8ff" points="335.15,-29.22 331.84,-19.16 328.16,-29.09 335.15,-29.22"/>
</a>
</g>
</g>
<!-- Node10 -->
<g id="Node000010" class="node">
<title>Node10</title>
<g id="a_Node000010"><a xlink:href="ssd1306__font_8h.html" target="_top" xlink:title=" ">
<polygon fill="white" stroke="#666666" points="800.5,-74 709.5,-74 709.5,-55 800.5,-55 800.5,-74"/>
<text text-anchor="middle" x="755" y="-62" font-family="Helvetica,sans-Serif" font-size="10.00">ssd1306_font.h</text>
</a>
</g>
</g>
<!-- Node1&#45;&gt;Node10 -->
<g id="edge9_Node000001_Node000010" class="edge">
<title>Node1&#45;&gt;Node10</title>
<g id="a_edge9_Node000001_Node000010"><a xlink:title=" ">
<path fill="none" stroke="#63b8ff" d="M372.63,-113.9C439.87,-106.54 574.92,-91.29 699.27,-74.2"/>
<polygon fill="#63b8ff" stroke="#63b8ff" points="699.93,-77.64 709.35,-72.81 698.97,-70.71 699.93,-77.64"/>
</a>
</g>
</g>
<!-- Node12 -->
<g id="Node000012" class="node">
<title>Node12</title>
<g id="a_Node000012"><a xlink:href="big__font_8h.html" target="_top" xlink:title=" ">
<polygon fill="white" stroke="#666666" points="691.5,-74 626.5,-74 626.5,-55 691.5,-55 691.5,-74"/>
<text text-anchor="middle" x="659" y="-62" font-family="Helvetica,sans-Serif" font-size="10.00">big_font.h</text>
</a>
</g>
</g>
<!-- Node1&#45;&gt;Node12 -->
<g id="edge11_Node000001_Node000012" class="edge">
<title>Node1&#45;&gt;Node12</title>
<g id="a_edge11_Node000001_Node000012"><a xlink:title=" ">
<path fill="none" stroke="#63b8ff" d="M372.89,-112.48C427.16,-104.72 523.74,-90.45 616.62,-73.99"/>
<polygon fill="#63b8ff" stroke="#63b8ff" points="617.24,-77.44 626.47,-72.24 616.01,-70.55 617.24,-77.44"/>
</a>
</g>
</g>
<!-- Node13 -->
<g id="Node000013" class="node">
<title>Node13</title>
<g id="a_Node000013"><a xlink:href="ssd1306__i2c_8h.html" target="_top" xlink:title=" ">
<polygon fill="white" stroke="#666666" points="302,-74 216,-74 216,-55 302,-55 302,-74"/>
<text text-anchor="middle" x="259" y="-62" font-family="Helvetica,sans-Serif" font-size="10.00">ssd1306_i2c.h</text>
</a>
</g>
</g>
<!-- Node1&#45;&gt;Node13 -->
<g id="edge13_Node000001_Node000013" class="edge">
<title>Node1&#45;&gt;Node13</title>
<g id="a_edge13_Node000001_Node000013"><a xlink:title=" ">
<path fill="none" stroke="#63b8ff" d="M318.59,-109.98C307.89,-102 291.66,-89.88 278.84,-80.31"/>
<polygon fill="#63b8ff" stroke="#63b8ff" points="280.72,-77.35 270.61,-74.17 276.53,-82.96 280.72,-77.35"/>
</a>
</g>
</g>
<!-- Node11 -->
<g id="Node000011" class="node">
<title>Node11</title>
<g id="a_Node000011"><a xlink:title=" ">
<polygon fill="#e0e0e0" stroke="#999999" points="733.5,-19 680.5,-19 680.5,0 733.5,0 733.5,-19"/>
<text text-anchor="middle" x="707" y="-7" font-family="Helvetica,sans-Serif" font-size="10.00">stdint.h</text>
</a>
</g>
</g>
<!-- Node10&#45;&gt;Node11 -->
<g id="edge10_Node000010_Node000011" class="edge">
<title>Node10&#45;&gt;Node11</title>
<g id="a_edge10_Node000010_Node000011"><a xlink:title=" ">
<path fill="none" stroke="#63b8ff" d="M747.07,-54.75C740.15,-47.11 729.93,-35.82 721.55,-26.56"/>
<polygon fill="#63b8ff" stroke="#63b8ff" points="724.09,-24.15 714.78,-19.09 718.9,-28.85 724.09,-24.15"/>
</a>
</g>
</g>
<!-- Node12&#45;&gt;Node11 -->
<g id="edge12_Node000012_Node000011" class="edge">
<title>Node12&#45;&gt;Node11</title>
<g id="a_edge12_Node000012_Node000011"><a xlink:title=" ">
<path fill="none" stroke="#63b8ff" d="M666.93,-54.75C673.85,-47.11 684.07,-35.82 692.45,-26.56"/>
<polygon fill="#63b8ff" stroke="#63b8ff" points="695.1,-28.85 699.22,-19.09 689.91,-24.15 695.1,-28.85"/>
</a>
</g>
</g>
<!-- Node13&#45;&gt;Node4 -->
<g id="edge14_Node000013_Node000004" class="edge">
<title>Node13&#45;&gt;Node4</title>
<g id="a_edge14_Node000013_Node000004"><a xlink:title=" ">
<path fill="none" stroke="#63b8ff" d="M241.17,-54.98C223.39,-46.5 195.85,-33.35 175.32,-23.54"/>
<polygon fill="#63b8ff" stroke="#63b8ff" points="176.69,-20.32 166.16,-19.17 173.67,-26.64 176.69,-20.32"/>
</a>
</g>
</g>
<!-- Node13&#45;&gt;Node7 -->
<g id="edge15_Node000013_Node000007" class="edge">
<title>Node13&#45;&gt;Node7</title>
<g id="a_edge15_Node000013_Node000007"><a xlink:title=" ">
<path fill="none" stroke="#63b8ff" d="M254.38,-54.75C250.54,-47.49 244.98,-36.95 240.24,-27.98"/>
<polygon fill="#63b8ff" stroke="#63b8ff" points="243.3,-26.3 235.54,-19.09 237.11,-29.57 243.3,-26.3"/>
</a>
</g>
</g>
<!-- Node13&#45;&gt;Node9 -->
<g id="edge16_Node000013_Node000009" class="edge">
<title>Node13&#45;&gt;Node9</title>
<g id="a_edge16_Node000013_Node000009"><a xlink:title=" ">
<path fill="none" stroke="#63b8ff" d="M270.73,-54.98C281.73,-47 298.42,-34.88 311.6,-25.31"/>
<polygon fill="#63b8ff" stroke="#63b8ff" points="314.02,-27.88 320.06,-19.17 309.91,-22.21 314.02,-27.88"/>
</a>
</g>
</g>
</g>
</svg>
