<?xml version="1.0" encoding="UTF-8" standalone="no"?>
<!DOCTYPE svg PUBLIC "-//W3C//DTD SVG 1.1//EN"
 "http://www.w3.org/Graphics/SVG/1.1/DTD/svg11.dtd">
<!-- Generated by graphviz version 2.43.0 (0)
 -->
<!-- Title: ssd1306.h Pages: 1 -->
<svg width="263pt" height="137pt"
 viewBox="0.00 0.00 263.00 137.00" xmlns="http://www.w3.org/2000/svg" xmlns:xlink="http://www.w3.org/1999/xlink">
<g id="graph0" class="graph" transform="scale(1 1) rotate(0) translate(4 133)">
<title>ssd1306.h</title>
<!-- Node1 -->
<g id="Node000001" class="node">
<title>Node1</title>
<g id="a_Node000001"><a xlink:title=" ">
<polygon fill="#999999" stroke="#666666" points="142.5,-129 76.5,-129 76.5,-110 142.5,-110 142.5,-129"/>
<text text-anchor="middle" x="109.5" y="-117" font-family="Helvetica,sans-Serif" font-size="10.00">ssd1306.h</text>
</a>
</g>
</g>
<!-- Node2 -->
<g id="Node000002" class="node">
<title>Node2</title>
<g id="a_Node000002"><a xlink:href="ssd1306__i2c_8h.html" target="_top" xlink:title=" ">
<polygon fill="white" stroke="#666666" points="152.5,-74 66.5,-74 66.5,-55 152.5,-55 152.5,-74"/>
<text text-anchor="middle" x="109.5" y="-62" font-family="Helvetica,sans-Serif" font-size="10.00">ssd1306_i2c.h</text>
</a>
</g>
</g>
<!-- Node1&#45;&gt;Node2 -->
<g id="edge1_Node000001_Node000002" class="edge">
<title>Node1&#45;&gt;Node2</title>
<g id="a_edge1_Node000001_Node000002"><a xlink:title=" ">
<path fill="none" stroke="#63b8ff" d="M109.5,-109.75C109.5,-102.8 109.5,-92.85 109.5,-84.13"/>
<polygon fill="#63b8ff" stroke="#63b8ff" points="113,-84.09 109.5,-74.09 106,-84.09 113,-84.09"/>
</a>
</g>
</g>
<!-- Node3 -->
<g id="Node000003" class="node">
<title>Node3</title>
<g id="a_Node000003"><a xlink:title=" ">
<polygon fill="#e0e0e0" stroke="#999999" points="53,-19 0,-19 0,0 53,0 53,-19"/>
<text text-anchor="middle" x="26.5" y="-7" font-family="Helvetica,sans-Serif" font-size="10.00">stdlib.h</text>
</a>
</g>
</g>
<!-- Node2&#45;&gt;Node3 -->
<g id="edge2_Node000002_Node000003" class="edge">
<title>Node2&#45;&gt;Node3</title>
<g id="a_edge2_Node000002_Node000003"><a xlink:title=" ">
<path fill="none" stroke="#63b8ff" d="M96.16,-54.98C83.41,-46.84 63.95,-34.41 48.83,-24.76"/>
<polygon fill="#63b8ff" stroke="#63b8ff" points="50.39,-21.6 40.08,-19.17 46.62,-27.5 50.39,-21.6"/>
</a>
</g>
</g>
<!-- Node4 -->
<g id="Node000004" class="node">
<title>Node4</title>
<g id="a_Node000004"><a xlink:title=" ">
<polygon fill="#e0e0e0" stroke="#999999" points="147.5,-19 71.5,-19 71.5,0 147.5,0 147.5,-19"/>
<text text-anchor="middle" x="109.5" y="-7" font-family="Helvetica,sans-Serif" font-size="10.00">pico/stdlib.h</text>
</a>
</g>
</g>
<!-- Node2&#45;&gt;Node4 -->
<g id="edge3_Node000002_Node000004" class="edge">
<title>Node2&#45;&gt;Node4</title>
<g id="a_edge3_Node000002_Node000004"><a xlink:title=" ">
<path fill="none" stroke="#63b8ff" d="M109.5,-54.75C109.5,-47.8 109.5,-37.85 109.5,-29.13"/>
<polygon fill="#63b8ff" stroke="#63b8ff" points="113,-29.09 109.5,-19.09 106,-29.09 113,-29.09"/>
</a>
</g>
</g>
<!-- Node5 -->
<g id="Node000005" class="node">
<title>Node5</title>
<g id="a_Node000005"><a xlink:title=" ">
<polygon fill="#e0e0e0" stroke="#999999" points="255,-19 166,-19 166,0 255,0 255,-19"/>
<text text-anchor="middle" x="210.5" y="-7" font-family="Helvetica,sans-Serif" font-size="10.00">hardware/i2c.h</text>
</a>
</g>
</g>
<!-- Node2&#45;&gt;Node5 -->
<g id="edge4_Node000002_Node000005" class="edge">
<title>Node2&#45;&gt;Node5</title>
<g id="a_edge4_Node000002_Node000005"><a xlink:title=" ">
<path fill="none" stroke="#63b8ff" d="M125.73,-54.98C141.68,-46.61 166.28,-33.7 184.88,-23.95"/>
<polygon fill="#63b8ff" stroke="#63b8ff" points="186.75,-26.92 193.98,-19.17 183.5,-20.72 186.75,-26.92"/>
</a>
</g>
</g>
</g>
</svg>
