<?xml version="1.0" encoding="UTF-8" standalone="no"?>
<!DOCTYPE svg PUBLIC "-//W3C//DTD SVG 1.1//EN"
 "http://www.w3.org/Graphics/SVG/1.1/DTD/svg11.dtd">
<!-- Generated by graphviz version 2.43.0 (0)
 -->
<!-- Title: ssd1306_i2c.c Pages: 1 -->
<svg width="1160pt" height="247pt"
 viewBox="0.00 0.00 1159.71 247.00" xmlns="http://www.w3.org/2000/svg" xmlns:xlink="http://www.w3.org/1999/xlink">
<g id="graph0" class="graph" transform="scale(1 1) rotate(0) translate(4 243)">
<title>ssd1306_i2c.c</title>
<!-- Node1 -->
<g id="Node000001" class="node">
<title>Node1</title>
<g id="a_Node000001"><a xlink:title=" ">
<polygon fill="#999999" stroke="#666666" points="661.5,-239 576.5,-239 576.5,-220 661.5,-220 661.5,-239"/>
<text text-anchor="middle" x="619" y="-227" font-family="Helvetica,sans-Serif" font-size="10.00">ssd1306_i2c.c</text>
</a>
</g>
</g>
<!-- Node2 -->
<g id="Node000002" class="node">
<title>Node2</title>
<g id="a_Node000002"><a xlink:title=" ">
<polygon fill="#e0e0e0" stroke="#999999" points="311,-184 261,-184 261,-165 311,-165 311,-184"/>
<text text-anchor="middle" x="286" y="-172" font-family="Helvetica,sans-Serif" font-size="10.00">stdio.h</text>
</a>
</g>
</g>
<!-- Node1&#45;&gt;Node2 -->
<g id="edge1_Node000001_Node000002" class="edge">
<title>Node1&#45;&gt;Node2</title>
<g id="a_edge1_Node000001_Node000002"><a xlink:title=" ">
<path fill="none" stroke="#63b8ff" d="M576.19,-223.46C519.88,-216.53 417.67,-202.96 321.12,-184.05"/>
<polygon fill="#63b8ff" stroke="#63b8ff" points="321.68,-180.6 311.19,-182.09 320.32,-187.46 321.68,-180.6"/>
</a>
</g>
</g>
<!-- Node3 -->
<g id="Node000003" class="node">
<title>Node3</title>
<g id="a_Node000003"><a xlink:title=" ">
<polygon fill="#e0e0e0" stroke="#999999" points="382.5,-184 329.5,-184 329.5,-165 382.5,-165 382.5,-184"/>
<text text-anchor="middle" x="356" y="-172" font-family="Helvetica,sans-Serif" font-size="10.00">string.h</text>
</a>
</g>
</g>
<!-- Node1&#45;&gt;Node3 -->
<g id="edge2_Node000001_Node000003" class="edge">
<title>Node1&#45;&gt;Node3</title>
<g id="a_edge2_Node000001_Node000003"><a xlink:title=" ">
<path fill="none" stroke="#63b8ff" d="M576.42,-220.05C531.72,-211.16 459.4,-196.72 397,-184 395.72,-183.74 394.41,-183.47 393.1,-183.2"/>
<polygon fill="#63b8ff" stroke="#63b8ff" points="393.4,-179.69 382.9,-181.1 391.99,-186.55 393.4,-179.69"/>
</a>
</g>
</g>
<!-- Node4 -->
<g id="Node000004" class="node">
<title>Node4</title>
<g id="a_Node000004"><a xlink:href="stdlib_8h.html" target="_top" xlink:title=" ">
<polygon fill="white" stroke="#666666" points="501.5,-129 448.5,-129 448.5,-110 501.5,-110 501.5,-129"/>
<text text-anchor="middle" x="475" y="-117" font-family="Helvetica,sans-Serif" font-size="10.00">stdlib.h</text>
</a>
</g>
</g>
<!-- Node1&#45;&gt;Node4 -->
<g id="edge3_Node000001_Node000004" class="edge">
<title>Node1&#45;&gt;Node4</title>
<g id="a_edge3_Node000001_Node000004"><a xlink:title=" ">
<path fill="none" stroke="#63b8ff" d="M576.45,-228.88C541.13,-226.66 492.8,-217.16 468,-184 458.37,-171.12 461.9,-152.45 466.76,-138.69"/>
<polygon fill="#63b8ff" stroke="#63b8ff" points="470.06,-139.88 470.55,-129.3 463.57,-137.26 470.06,-139.88"/>
</a>
</g>
</g>
<!-- Node11 -->
<g id="Node000011" class="node">
<title>Node11</title>
<g id="a_Node000011"><a xlink:title=" ">
<polygon fill="#e0e0e0" stroke="#999999" points="1045.5,-184 992.5,-184 992.5,-165 1045.5,-165 1045.5,-184"/>
<text text-anchor="middle" x="1019" y="-172" font-family="Helvetica,sans-Serif" font-size="10.00">ctype.h</text>
</a>
</g>
</g>
<!-- Node1&#45;&gt;Node11 -->
<g id="edge11_Node000001_Node000011" class="edge">
<title>Node1&#45;&gt;Node11</title>
<g id="a_edge11_Node000001_Node000011"><a xlink:title=" ">
<path fill="none" stroke="#63b8ff" d="M661.67,-224.93C728.19,-219.01 860.77,-205.78 982.11,-184.16"/>
<polygon fill="#63b8ff" stroke="#63b8ff" points="983.1,-187.54 992.32,-182.32 981.85,-180.65 983.1,-187.54"/>
</a>
</g>
</g>
<!-- Node12 -->
<g id="Node000012" class="node">
<title>Node12</title>
<g id="a_Node000012"><a xlink:href="assert_8h.html" target="_top" xlink:title=" ">
<polygon fill="white" stroke="#666666" points="675,-184 619,-184 619,-165 675,-165 675,-184"/>
<text text-anchor="middle" x="647" y="-172" font-family="Helvetica,sans-Serif" font-size="10.00">assert.h</text>
</a>
</g>
</g>
<!-- Node1&#45;&gt;Node12 -->
<g id="edge12_Node000001_Node000012" class="edge">
<title>Node1&#45;&gt;Node12</title>
<g id="a_edge12_Node000001_Node000012"><a xlink:title=" ">
<path fill="none" stroke="#63b8ff" d="M623.62,-219.75C627.46,-212.49 633.02,-201.95 637.76,-192.98"/>
<polygon fill="#63b8ff" stroke="#63b8ff" points="640.89,-194.57 642.46,-184.09 634.7,-191.3 640.89,-194.57"/>
</a>
</g>
</g>
<!-- Node13 -->
<g id="Node000013" class="node">
<title>Node13</title>
<g id="a_Node000013"><a xlink:title=" ">
<polygon fill="#e0e0e0" stroke="#999999" points="582,-129 520,-129 520,-110 582,-110 582,-129"/>
<text text-anchor="middle" x="551" y="-117" font-family="Helvetica,sans-Serif" font-size="10.00">stdbool.h</text>
</a>
</g>
</g>
<!-- Node1&#45;&gt;Node13 -->
<g id="edge15_Node000001_Node000013" class="edge">
<title>Node1&#45;&gt;Node13</title>
<g id="a_edge15_Node000001_Node000013"><a xlink:title=" ">
<path fill="none" stroke="#63b8ff" d="M613.44,-219.66C602.17,-201.77 576.5,-161 561.83,-137.69"/>
<polygon fill="#63b8ff" stroke="#63b8ff" points="564.74,-135.76 556.45,-129.16 558.82,-139.49 564.74,-135.76"/>
</a>
</g>
</g>
<!-- Node14 -->
<g id="Node000014" class="node">
<title>Node14</title>
<g id="a_Node000014"><a xlink:title=" ">
<polygon fill="#e0e0e0" stroke="#999999" points="691.5,-129 600.5,-129 600.5,-110 691.5,-110 691.5,-129"/>
<text text-anchor="middle" x="646" y="-117" font-family="Helvetica,sans-Serif" font-size="10.00">pico/platform.h</text>
</a>
</g>
</g>
<!-- Node1&#45;&gt;Node14 -->
<g id="edge16_Node000001_Node000014" class="edge">
<title>Node1&#45;&gt;Node14</title>
<g id="a_edge16_Node000001_Node000014"><a xlink:title=" ">
<path fill="none" stroke="#63b8ff" d="M652.02,-219.87C670.18,-213.26 691.17,-202.1 702,-184 713.39,-164.97 691.9,-146.31 672.33,-134.2"/>
<polygon fill="#63b8ff" stroke="#63b8ff" points="674,-131.12 663.6,-129.12 670.48,-137.17 674,-131.12"/>
</a>
</g>
</g>
<!-- Node15 -->
<g id="Node000015" class="node">
<title>Node15</title>
<g id="a_Node000015"><a xlink:href="binary__info_8h.html" target="_top" xlink:title=" ">
<polygon fill="white" stroke="#666666" points="853,-184 749,-184 749,-165 853,-165 853,-184"/>
<text text-anchor="middle" x="801" y="-172" font-family="Helvetica,sans-Serif" font-size="10.00">pico/binary_info.h</text>
</a>
</g>
</g>
<!-- Node1&#45;&gt;Node15 -->
<g id="edge17_Node000001_Node000015" class="edge">
<title>Node1&#45;&gt;Node15</title>
<g id="a_edge17_Node000001_Node000015"><a xlink:title=" ">
<path fill="none" stroke="#63b8ff" d="M648.24,-219.98C679.06,-211.01 727.78,-196.82 761.89,-186.89"/>
<polygon fill="#63b8ff" stroke="#63b8ff" points="762.91,-190.24 771.53,-184.08 760.95,-183.52 762.91,-190.24"/>
</a>
</g>
</g>
<!-- Node20 -->
<g id="Node000020" class="node">
<title>Node20</title>
<g id="a_Node000020"><a xlink:href="rp2__common_2hardware__i2c_2include_2hardware_2i2c_8h.html" target="_top" xlink:title=" ">
<polygon fill="white" stroke="#666666" points="368.5,-129 279.5,-129 279.5,-110 368.5,-110 368.5,-129"/>
<text text-anchor="middle" x="324" y="-117" font-family="Helvetica,sans-Serif" font-size="10.00">hardware/i2c.h</text>
</a>
</g>
</g>
<!-- Node1&#45;&gt;Node20 -->
<g id="edge24_Node000001_Node000020" class="edge">
<title>Node1&#45;&gt;Node20</title>
<g id="a_edge24_Node000001_Node000020"><a xlink:title=" ">
<path fill="none" stroke="#63b8ff" d="M581,-219.97C548,-212.09 499.18,-199.32 458,-184 418.67,-169.37 375.11,-147.63 348.64,-133.76"/>
<polygon fill="#63b8ff" stroke="#63b8ff" points="350.18,-130.62 339.7,-129.04 346.91,-136.81 350.18,-130.62"/>
</a>
</g>
</g>
<!-- Node23 -->
<g id="Node000023" class="node">
<title>Node23</title>
<g id="a_Node000023"><a xlink:href="ssd1306__font_8h.html" target="_top" xlink:title=" ">
<polygon fill="white" stroke="#666666" points="1133.5,-129 1042.5,-129 1042.5,-110 1133.5,-110 1133.5,-129"/>
<text text-anchor="middle" x="1088" y="-117" font-family="Helvetica,sans-Serif" font-size="10.00">ssd1306_font.h</text>
</a>
</g>
</g>
<!-- Node1&#45;&gt;Node23 -->
<g id="edge29_Node000001_Node000023" class="edge">
<title>Node1&#45;&gt;Node23</title>
<g id="a_edge29_Node000001_Node000023"><a xlink:title=" ">
<path fill="none" stroke="#63b8ff" d="M661.57,-224.26C710.78,-218.54 793.75,-206.41 862,-184 880.32,-177.99 882.85,-171.49 901,-165 943.94,-149.64 994.32,-138 1031.96,-130.48"/>
<polygon fill="#63b8ff" stroke="#63b8ff" points="1033.09,-133.83 1042.23,-128.47 1031.74,-126.96 1033.09,-133.83"/>
</a>
</g>
</g>
<!-- Node24 -->
<g id="Node000024" class="node">
<title>Node24</title>
<g id="a_Node000024"><a xlink:href="big__font_8h.html" target="_top" xlink:title=" ">
<polygon fill="white" stroke="#666666" points="974.5,-184 909.5,-184 909.5,-165 974.5,-165 974.5,-184"/>
<text text-anchor="middle" x="942" y="-172" font-family="Helvetica,sans-Serif" font-size="10.00">big_font.h</text>
</a>
</g>
</g>
<!-- Node1&#45;&gt;Node24 -->
<g id="edge31_Node000001_Node000024" class="edge">
<title>Node1&#45;&gt;Node24</title>
<g id="a_edge31_Node000001_Node000024"><a xlink:title=" ">
<path fill="none" stroke="#63b8ff" d="M661.6,-221.89C715.85,-213.41 812.47,-198.11 895,-184 896.46,-183.75 897.94,-183.5 899.43,-183.24"/>
<polygon fill="#63b8ff" stroke="#63b8ff" points="900.16,-186.66 909.4,-181.48 898.94,-179.77 900.16,-186.66"/>
</a>
</g>
</g>
<!-- Node25 -->
<g id="Node000025" class="node">
<title>Node25</title>
<g id="a_Node000025"><a xlink:href="ssd1306__i2c_8h.html" target="_top" xlink:title=" ">
<polygon fill="white" stroke="#666666" points="563,-184 477,-184 477,-165 563,-165 563,-184"/>
<text text-anchor="middle" x="520" y="-172" font-family="Helvetica,sans-Serif" font-size="10.00">ssd1306_i2c.h</text>
</a>
</g>
</g>
<!-- Node1&#45;&gt;Node25 -->
<g id="edge33_Node000001_Node000025" class="edge">
<title>Node1&#45;&gt;Node25</title>
<g id="a_edge33_Node000001_Node000025"><a xlink:title=" ">
<path fill="none" stroke="#63b8ff" d="M603.09,-219.98C587.45,-211.61 563.34,-198.7 545.12,-188.95"/>
<polygon fill="#63b8ff" stroke="#63b8ff" points="546.66,-185.8 536.2,-184.17 543.36,-191.98 546.66,-185.8"/>
</a>
</g>
</g>
<!-- Node5 -->
<g id="Node000005" class="node">
<title>Node5</title>
<g id="a_Node000005"><a xlink:title=" ">
<polygon fill="#e0e0e0" stroke="#999999" points="443,-19 397,-19 397,0 443,0 443,-19"/>
<text text-anchor="middle" x="420" y="-7" font-family="Helvetica,sans-Serif" font-size="10.00">pico.h</text>
</a>
</g>
</g>
<!-- Node4&#45;&gt;Node5 -->
<g id="edge4_Node000004_Node000005" class="edge">
<title>Node4&#45;&gt;Node5</title>
<g id="a_edge4_Node000004_Node000005"><a xlink:title=" ">
<path fill="none" stroke="#63b8ff" d="M466.12,-109.71C458.02,-101.24 446.23,-87.71 439,-74 431.52,-59.83 426.56,-42.29 423.59,-29.24"/>
<polygon fill="#63b8ff" stroke="#63b8ff" points="426.94,-28.2 421.47,-19.12 420.09,-29.63 426.94,-28.2"/>
</a>
</g>
</g>
<!-- Node6 -->
<g id="Node000006" class="node">
<title>Node6</title>
<g id="a_Node000006"><a xlink:title=" ">
<polygon fill="#e0e0e0" stroke="#999999" points="521.5,-74 448.5,-74 448.5,-55 521.5,-55 521.5,-74"/>
<text text-anchor="middle" x="485" y="-62" font-family="Helvetica,sans-Serif" font-size="10.00">pico/stdio.h</text>
</a>
</g>
</g>
<!-- Node4&#45;&gt;Node6 -->
<g id="edge5_Node000004_Node000006" class="edge">
<title>Node4&#45;&gt;Node6</title>
<g id="a_edge5_Node000004_Node000006"><a xlink:title=" ">
<path fill="none" stroke="#63b8ff" d="M476.65,-109.75C477.96,-102.8 479.84,-92.85 481.48,-84.13"/>
<polygon fill="#63b8ff" stroke="#63b8ff" points="484.96,-84.56 483.38,-74.09 478.09,-83.27 484.96,-84.56"/>
</a>
</g>
</g>
<!-- Node7 -->
<g id="Node000007" class="node">
<title>Node7</title>
<g id="a_Node000007"><a xlink:href="common_2pico__time_2include_2pico_2time_8h.html" target="_top" xlink:title=" ">
<polygon fill="white" stroke="#666666" points="391.5,-74 320.5,-74 320.5,-55 391.5,-55 391.5,-74"/>
<text text-anchor="middle" x="356" y="-62" font-family="Helvetica,sans-Serif" font-size="10.00">pico/time.h</text>
</a>
</g>
</g>
<!-- Node4&#45;&gt;Node7 -->
<g id="edge6_Node000004_Node000007" class="edge">
<title>Node4&#45;&gt;Node7</title>
<g id="a_edge6_Node000004_Node000007"><a xlink:title=" ">
<path fill="none" stroke="#63b8ff" d="M455.88,-109.98C436.65,-101.42 406.77,-88.11 384.69,-78.28"/>
<polygon fill="#63b8ff" stroke="#63b8ff" points="386.03,-75.04 375.47,-74.17 383.18,-81.44 386.03,-75.04"/>
</a>
</g>
</g>
<!-- Node9 -->
<g id="Node000009" class="node">
<title>Node9</title>
<g id="a_Node000009"><a xlink:title=" ">
<polygon fill="#e0e0e0" stroke="#999999" points="634.5,-74 539.5,-74 539.5,-55 634.5,-55 634.5,-74"/>
<text text-anchor="middle" x="587" y="-62" font-family="Helvetica,sans-Serif" font-size="10.00">hardware/gpio.h</text>
</a>
</g>
</g>
<!-- Node4&#45;&gt;Node9 -->
<g id="edge9_Node000004_Node000009" class="edge">
<title>Node4&#45;&gt;Node9</title>
<g id="a_edge9_Node000004_Node000009"><a xlink:title=" ">
<path fill="none" stroke="#63b8ff" d="M492.99,-109.98C510.93,-101.5 538.72,-88.35 559.43,-78.54"/>
<polygon fill="#63b8ff" stroke="#63b8ff" points="561.14,-81.61 568.68,-74.17 558.14,-75.28 561.14,-81.61"/>
</a>
</g>
</g>
<!-- Node10 -->
<g id="Node000010" class="node">
<title>Node10</title>
<g id="a_Node000010"><a xlink:title=" ">
<polygon fill="#e0e0e0" stroke="#999999" points="747,-74 653,-74 653,-55 747,-55 747,-74"/>
<text text-anchor="middle" x="700" y="-62" font-family="Helvetica,sans-Serif" font-size="10.00">hardware/uart.h</text>
</a>
</g>
</g>
<!-- Node4&#45;&gt;Node10 -->
<g id="edge10_Node000004_Node000010" class="edge">
<title>Node4&#45;&gt;Node10</title>
<g id="a_edge10_Node000004_Node000010"><a xlink:title=" ">
<path fill="none" stroke="#63b8ff" d="M501.74,-112.19C504.86,-111.45 508,-110.71 511,-110 559.79,-98.5 615.67,-85.34 653.95,-76.33"/>
<polygon fill="#63b8ff" stroke="#63b8ff" points="654.83,-79.72 663.77,-74.02 653.23,-72.91 654.83,-79.72"/>
</a>
</g>
</g>
<!-- Node7&#45;&gt;Node5 -->
<g id="edge7_Node000007_Node000005" class="edge">
<title>Node7&#45;&gt;Node5</title>
<g id="a_edge7_Node000007_Node000005"><a xlink:title=" ">
<path fill="none" stroke="#63b8ff" d="M366.28,-54.98C375.84,-47.07 390.28,-35.11 401.78,-25.58"/>
<polygon fill="#63b8ff" stroke="#63b8ff" points="404.06,-28.24 409.53,-19.17 399.6,-22.85 404.06,-28.24"/>
</a>
</g>
</g>
<!-- Node8 -->
<g id="Node000008" class="node">
<title>Node8</title>
<g id="a_Node000008"><a xlink:title=" ">
<polygon fill="#e0e0e0" stroke="#999999" points="378.5,-19 277.5,-19 277.5,0 378.5,0 378.5,-19"/>
<text text-anchor="middle" x="328" y="-7" font-family="Helvetica,sans-Serif" font-size="10.00">hardware/timer.h</text>
</a>
</g>
</g>
<!-- Node7&#45;&gt;Node8 -->
<g id="edge8_Node000007_Node000008" class="edge">
<title>Node7&#45;&gt;Node8</title>
<g id="a_edge8_Node000007_Node000008"><a xlink:title=" ">
<path fill="none" stroke="#63b8ff" d="M351.38,-54.75C347.54,-47.49 341.98,-36.95 337.24,-27.98"/>
<polygon fill="#63b8ff" stroke="#63b8ff" points="340.3,-26.3 332.54,-19.09 334.11,-29.57 340.3,-26.3"/>
</a>
</g>
</g>
<!-- Node12&#45;&gt;Node12 -->
<g id="edge14_Node000012_Node000012" class="edge">
<title>Node12&#45;&gt;Node12</title>
<g id="a_edge14_Node000012_Node000012"><a xlink:title=" ">
<path fill="none" stroke="#63b8ff" d="M668.77,-184.07C681.32,-186.02 693,-182.83 693,-174.5 693,-168.51 686.97,-165.18 678.91,-164.5"/>
<polygon fill="#63b8ff" stroke="#63b8ff" points="678.61,-161.01 668.77,-164.93 678.91,-168.01 678.61,-161.01"/>
</a>
</g>
</g>
<!-- Node12&#45;&gt;Node13 -->
<g id="edge13_Node000012_Node000013" class="edge">
<title>Node12&#45;&gt;Node13</title>
<g id="a_edge13_Node000012_Node000013"><a xlink:title=" ">
<path fill="none" stroke="#63b8ff" d="M631.58,-164.98C616.55,-156.69 593.46,-143.94 575.84,-134.22"/>
<polygon fill="#63b8ff" stroke="#63b8ff" points="577.15,-130.94 566.7,-129.17 573.77,-137.07 577.15,-130.94"/>
</a>
</g>
</g>
<!-- Node16 -->
<g id="Node000016" class="node">
<title>Node16</title>
<g id="a_Node000016"><a xlink:href="defs_8h.html" target="_top" xlink:title=" ">
<polygon fill="white" stroke="#666666" points="1024,-129 896,-129 896,-110 1024,-110 1024,-129"/>
<text text-anchor="middle" x="960" y="-117" font-family="Helvetica,sans-Serif" font-size="10.00">pico/binary_info/defs.h</text>
</a>
</g>
</g>
<!-- Node15&#45;&gt;Node16 -->
<g id="edge18_Node000015_Node000016" class="edge">
<title>Node15&#45;&gt;Node16</title>
<g id="a_edge18_Node000015_Node000016"><a xlink:title=" ">
<path fill="none" stroke="#63b8ff" d="M826.55,-164.98C853.12,-156.13 894.94,-142.19 924.67,-132.28"/>
<polygon fill="#63b8ff" stroke="#63b8ff" points="925.87,-135.56 934.25,-129.08 923.66,-128.92 925.87,-135.56"/>
</a>
</g>
</g>
<!-- Node17 -->
<g id="Node000017" class="node">
<title>Node17</title>
<g id="a_Node000017"><a xlink:href="structure_8h.html" target="_top" xlink:title=" ">
<polygon fill="white" stroke="#666666" points="953,-74 803,-74 803,-55 953,-55 953,-74"/>
<text text-anchor="middle" x="878" y="-62" font-family="Helvetica,sans-Serif" font-size="10.00">pico/binary_info/structure.h</text>
</a>
</g>
</g>
<!-- Node15&#45;&gt;Node17 -->
<g id="edge19_Node000015_Node000017" class="edge">
<title>Node15&#45;&gt;Node17</title>
<g id="a_edge19_Node000015_Node000017"><a xlink:title=" ">
<path fill="none" stroke="#63b8ff" d="M812.91,-164.69C823.46,-156.41 838.75,-143.18 849,-129 859.08,-115.05 866.9,-97.03 871.87,-83.76"/>
<polygon fill="#63b8ff" stroke="#63b8ff" points="875.18,-84.89 875.23,-74.29 868.59,-82.55 875.18,-84.89"/>
</a>
</g>
</g>
<!-- Node19 -->
<g id="Node000019" class="node">
<title>Node19</title>
<g id="a_Node000019"><a xlink:href="code_8h.html" target="_top" xlink:title=" ">
<polygon fill="white" stroke="#666666" points="840,-129 710,-129 710,-110 840,-110 840,-129"/>
<text text-anchor="middle" x="775" y="-117" font-family="Helvetica,sans-Serif" font-size="10.00">pico/binary_info/code.h</text>
</a>
</g>
</g>
<!-- Node15&#45;&gt;Node19 -->
<g id="edge21_Node000015_Node000019" class="edge">
<title>Node15&#45;&gt;Node19</title>
<g id="a_edge21_Node000015_Node000019"><a xlink:title=" ">
<path fill="none" stroke="#63b8ff" d="M796.71,-164.75C793.19,-157.57 788.09,-147.18 783.72,-138.27"/>
<polygon fill="#63b8ff" stroke="#63b8ff" points="786.76,-136.53 779.21,-129.09 780.48,-139.61 786.76,-136.53"/>
</a>
</g>
</g>
<!-- Node18 -->
<g id="Node000018" class="node">
<title>Node18</title>
<g id="a_Node000018"><a xlink:title=" ">
<polygon fill="#e0e0e0" stroke="#999999" points="1114.5,-19 1061.5,-19 1061.5,0 1114.5,0 1114.5,-19"/>
<text text-anchor="middle" x="1088" y="-7" font-family="Helvetica,sans-Serif" font-size="10.00">stdint.h</text>
</a>
</g>
</g>
<!-- Node17&#45;&gt;Node18 -->
<g id="edge20_Node000017_Node000018" class="edge">
<title>Node17&#45;&gt;Node18</title>
<g id="a_edge20_Node000017_Node000018"><a xlink:title=" ">
<path fill="none" stroke="#63b8ff" d="M911.74,-54.98C950.03,-45.32 1012.26,-29.62 1051.61,-19.68"/>
<polygon fill="#63b8ff" stroke="#63b8ff" points="1052.5,-23.07 1061.34,-17.23 1050.79,-16.28 1052.5,-23.07"/>
</a>
</g>
</g>
<!-- Node19&#45;&gt;Node5 -->
<g id="edge22_Node000019_Node000005" class="edge">
<title>Node19&#45;&gt;Node5</title>
<g id="a_edge22_Node000019_Node000005"><a xlink:title=" ">
<path fill="none" stroke="#63b8ff" d="M775.17,-109.97C774.94,-96.11 772.29,-68.88 756,-55 710.97,-16.62 529.33,-11.08 453.51,-10.47"/>
<polygon fill="#63b8ff" stroke="#63b8ff" points="453.14,-6.96 443.12,-10.41 453.1,-13.96 453.14,-6.96"/>
</a>
</g>
</g>
<!-- Node19&#45;&gt;Node17 -->
<g id="edge23_Node000019_Node000017" class="edge">
<title>Node19&#45;&gt;Node17</title>
<g id="a_edge23_Node000019_Node000017"><a xlink:title=" ">
<path fill="none" stroke="#63b8ff" d="M791.55,-109.98C807.89,-101.57 833.13,-88.59 852.13,-78.81"/>
<polygon fill="#63b8ff" stroke="#63b8ff" points="853.86,-81.86 861.15,-74.17 850.66,-75.63 853.86,-81.86"/>
</a>
</g>
</g>
<!-- Node20&#45;&gt;Node5 -->
<g id="edge25_Node000020_Node000005" class="edge">
<title>Node20&#45;&gt;Node5</title>
<g id="a_edge25_Node000020_Node000005"><a xlink:title=" ">
<path fill="none" stroke="#63b8ff" d="M318.51,-109.91C310.97,-96.92 299.58,-72 311,-55 319.87,-41.8 358.25,-28.2 386.97,-19.57"/>
<polygon fill="#63b8ff" stroke="#63b8ff" points="388.05,-22.9 396.67,-16.73 386.09,-16.18 388.05,-22.9"/>
</a>
</g>
</g>
<!-- Node20&#45;&gt;Node7 -->
<g id="edge26_Node000020_Node000007" class="edge">
<title>Node20&#45;&gt;Node7</title>
<g id="a_edge26_Node000020_Node000007"><a xlink:title=" ">
<path fill="none" stroke="#63b8ff" d="M329.28,-109.75C333.71,-102.42 340.16,-91.73 345.62,-82.7"/>
<polygon fill="#63b8ff" stroke="#63b8ff" points="348.64,-84.46 350.81,-74.09 342.65,-80.84 348.64,-84.46"/>
</a>
</g>
</g>
<!-- Node21 -->
<g id="Node000021" class="node">
<title>Node21</title>
<g id="a_Node000021"><a xlink:title=" ">
<polygon fill="#e0e0e0" stroke="#999999" points="263.5,-74 138.5,-74 138.5,-55 263.5,-55 263.5,-74"/>
<text text-anchor="middle" x="201" y="-62" font-family="Helvetica,sans-Serif" font-size="10.00">hardware/structs/i2c.h</text>
</a>
</g>
</g>
<!-- Node20&#45;&gt;Node21 -->
<g id="edge27_Node000020_Node000021" class="edge">
<title>Node20&#45;&gt;Node21</title>
<g id="a_edge27_Node000020_Node000021"><a xlink:title=" ">
<path fill="none" stroke="#63b8ff" d="M304.24,-109.98C284.27,-101.38 253.2,-87.99 230.35,-78.15"/>
<polygon fill="#63b8ff" stroke="#63b8ff" points="231.69,-74.91 221.12,-74.17 228.92,-81.34 231.69,-74.91"/>
</a>
</g>
</g>
<!-- Node22 -->
<g id="Node000022" class="node">
<title>Node22</title>
<g id="a_Node000022"><a xlink:title=" ">
<polygon fill="#e0e0e0" stroke="#999999" points="120,-74 0,-74 0,-55 120,-55 120,-74"/>
<text text-anchor="middle" x="60" y="-62" font-family="Helvetica,sans-Serif" font-size="10.00">hardware/regs/dreq.h</text>
</a>
</g>
</g>
<!-- Node20&#45;&gt;Node22 -->
<g id="edge28_Node000020_Node000022" class="edge">
<title>Node20&#45;&gt;Node22</title>
<g id="a_edge28_Node000020_Node000022"><a xlink:title=" ">
<path fill="none" stroke="#63b8ff" d="M281.58,-109.98C235.63,-100.76 162.25,-86.03 112.65,-76.07"/>
<polygon fill="#63b8ff" stroke="#63b8ff" points="113.24,-72.62 102.75,-74.08 111.86,-79.48 113.24,-72.62"/>
</a>
</g>
</g>
<!-- Node23&#45;&gt;Node18 -->
<g id="edge30_Node000023_Node000018" class="edge">
<title>Node23&#45;&gt;Node18</title>
<g id="a_edge30_Node000023_Node000018"><a xlink:title=" ">
<path fill="none" stroke="#63b8ff" d="M1088,-109.66C1088,-92.17 1088,-52.8 1088,-29.27"/>
<polygon fill="#63b8ff" stroke="#63b8ff" points="1091.5,-29.16 1088,-19.16 1084.5,-29.16 1091.5,-29.16"/>
</a>
</g>
</g>
<!-- Node24&#45;&gt;Node18 -->
<g id="edge32_Node000024_Node000018" class="edge">
<title>Node24&#45;&gt;Node18</title>
<g id="a_edge32_Node000024_Node000018"><a xlink:title=" ">
<path fill="none" stroke="#63b8ff" d="M974.66,-166.81C1030.91,-155.22 1140.34,-132.31 1143,-129 1169.01,-96.6 1129.64,-49.9 1105.13,-25.95"/>
<polygon fill="#63b8ff" stroke="#63b8ff" points="1107.47,-23.34 1097.8,-19.02 1102.67,-28.43 1107.47,-23.34"/>
</a>
</g>
</g>
<!-- Node25&#45;&gt;Node4 -->
<g id="edge34_Node000025_Node000004" class="edge">
<title>Node25&#45;&gt;Node4</title>
<g id="a_edge34_Node000025_Node000004"><a xlink:title=" ">
<path fill="none" stroke="#63b8ff" d="M512.57,-164.75C506.15,-157.18 496.69,-146.05 488.88,-136.84"/>
<polygon fill="#63b8ff" stroke="#63b8ff" points="491.43,-134.45 482.29,-129.09 486.1,-138.98 491.43,-134.45"/>
</a>
</g>
</g>
<!-- Node25&#45;&gt;Node13 -->
<g id="edge35_Node000025_Node000013" class="edge">
<title>Node25&#45;&gt;Node13</title>
<g id="a_edge35_Node000025_Node000013"><a xlink:title=" ">
<path fill="none" stroke="#63b8ff" d="M525.12,-164.75C529.36,-157.49 535.53,-146.95 540.78,-137.98"/>
<polygon fill="#63b8ff" stroke="#63b8ff" points="543.95,-139.49 545.98,-129.09 537.91,-135.95 543.95,-139.49"/>
</a>
</g>
</g>
<!-- Node25&#45;&gt;Node14 -->
<g id="edge36_Node000025_Node000014" class="edge">
<title>Node25&#45;&gt;Node14</title>
<g id="a_edge36_Node000025_Node000014"><a xlink:title=" ">
<path fill="none" stroke="#63b8ff" d="M540.24,-164.98C560.7,-156.38 592.53,-142.99 615.93,-133.15"/>
<polygon fill="#63b8ff" stroke="#63b8ff" points="617.53,-136.27 625.39,-129.17 614.81,-129.82 617.53,-136.27"/>
</a>
</g>
</g>
<!-- Node25&#45;&gt;Node20 -->
<g id="edge37_Node000025_Node000020" class="edge">
<title>Node25&#45;&gt;Node20</title>
<g id="a_edge37_Node000025_Node000020"><a xlink:title=" ">
<path fill="none" stroke="#63b8ff" d="M488.51,-164.98C455.18,-155.97 402.4,-141.7 365.65,-131.76"/>
<polygon fill="#63b8ff" stroke="#63b8ff" points="366.3,-128.31 355.74,-129.08 364.48,-135.07 366.3,-128.31"/>
</a>
</g>
</g>
</g>
</svg>
