<?xml version="1.0" encoding="UTF-8" standalone="no"?>
<!DOCTYPE svg PUBLIC "-//W3C//DTD SVG 1.1//EN"
 "http://www.w3.org/Graphics/SVG/1.1/DTD/svg11.dtd">
<!-- Generated by graphviz version 2.43.0 (0)
 -->
<!-- Title: standard_binary_info.c Pages: 1 -->
<svg width="322pt" height="247pt"
 viewBox="0.00 0.00 322.00 247.00" xmlns="http://www.w3.org/2000/svg" xmlns:xlink="http://www.w3.org/1999/xlink">
<g id="graph0" class="graph" transform="scale(1 1) rotate(0) translate(4 243)">
<title>standard_binary_info.c</title>
<!-- Node1 -->
<g id="Node000001" class="node">
<title>Node1</title>
<g id="a_Node000001"><a xlink:title=" ">
<polygon fill="#999999" stroke="#666666" points="220,-239 92,-239 92,-220 220,-220 220,-239"/>
<text text-anchor="middle" x="156" y="-227" font-family="Helvetica,sans-Serif" font-size="10.00">standard_binary_info.c</text>
</a>
</g>
</g>
<!-- Node2 -->
<g id="Node000002" class="node">
<title>Node2</title>
<g id="a_Node000002"><a xlink:href="binary__info_8h.html" target="_top" xlink:title=" ">
<polygon fill="white" stroke="#666666" points="208,-184 104,-184 104,-165 208,-165 208,-184"/>
<text text-anchor="middle" x="156" y="-172" font-family="Helvetica,sans-Serif" font-size="10.00">pico/binary_info.h</text>
</a>
</g>
</g>
<!-- Node1&#45;&gt;Node2 -->
<g id="edge1_Node000001_Node000002" class="edge">
<title>Node1&#45;&gt;Node2</title>
<g id="a_edge1_Node000001_Node000002"><a xlink:title=" ">
<path fill="none" stroke="#63b8ff" d="M156,-219.75C156,-212.8 156,-202.85 156,-194.13"/>
<polygon fill="#63b8ff" stroke="#63b8ff" points="159.5,-194.09 156,-184.09 152.5,-194.09 159.5,-194.09"/>
</a>
</g>
</g>
<!-- Node3 -->
<g id="Node000003" class="node">
<title>Node3</title>
<g id="a_Node000003"><a xlink:href="defs_8h.html" target="_top" xlink:title=" ">
<polygon fill="white" stroke="#666666" points="128,-129 0,-129 0,-110 128,-110 128,-129"/>
<text text-anchor="middle" x="64" y="-117" font-family="Helvetica,sans-Serif" font-size="10.00">pico/binary_info/defs.h</text>
</a>
</g>
</g>
<!-- Node2&#45;&gt;Node3 -->
<g id="edge2_Node000002_Node000003" class="edge">
<title>Node2&#45;&gt;Node3</title>
<g id="a_edge2_Node000002_Node000003"><a xlink:title=" ">
<path fill="none" stroke="#63b8ff" d="M141.22,-164.98C126.82,-156.69 104.69,-143.94 87.81,-134.22"/>
<polygon fill="#63b8ff" stroke="#63b8ff" points="89.46,-131.13 79.05,-129.17 85.97,-137.19 89.46,-131.13"/>
</a>
</g>
</g>
<!-- Node4 -->
<g id="Node000004" class="node">
<title>Node4</title>
<g id="a_Node000004"><a xlink:href="structure_8h.html" target="_top" xlink:title=" ">
<polygon fill="white" stroke="#666666" points="231,-74 81,-74 81,-55 231,-55 231,-74"/>
<text text-anchor="middle" x="156" y="-62" font-family="Helvetica,sans-Serif" font-size="10.00">pico/binary_info/structure.h</text>
</a>
</g>
</g>
<!-- Node2&#45;&gt;Node4 -->
<g id="edge3_Node000002_Node000004" class="edge">
<title>Node2&#45;&gt;Node4</title>
<g id="a_edge3_Node000002_Node000004"><a xlink:title=" ">
<path fill="none" stroke="#63b8ff" d="M156,-164.66C156,-147.17 156,-107.8 156,-84.27"/>
<polygon fill="#63b8ff" stroke="#63b8ff" points="159.5,-84.16 156,-74.16 152.5,-84.16 159.5,-84.16"/>
</a>
</g>
</g>
<!-- Node6 -->
<g id="Node000006" class="node">
<title>Node6</title>
<g id="a_Node000006"><a xlink:href="code_8h.html" target="_top" xlink:title=" ">
<polygon fill="white" stroke="#666666" points="314,-129 184,-129 184,-110 314,-110 314,-129"/>
<text text-anchor="middle" x="249" y="-117" font-family="Helvetica,sans-Serif" font-size="10.00">pico/binary_info/code.h</text>
</a>
</g>
</g>
<!-- Node2&#45;&gt;Node6 -->
<g id="edge5_Node000002_Node000006" class="edge">
<title>Node2&#45;&gt;Node6</title>
<g id="a_edge5_Node000002_Node000006"><a xlink:title=" ">
<path fill="none" stroke="#63b8ff" d="M170.94,-164.98C185.5,-156.69 207.87,-143.94 224.93,-134.22"/>
<polygon fill="#63b8ff" stroke="#63b8ff" points="226.83,-137.16 233.79,-129.17 223.36,-131.08 226.83,-137.16"/>
</a>
</g>
</g>
<!-- Node5 -->
<g id="Node000005" class="node">
<title>Node5</title>
<g id="a_Node000005"><a xlink:title=" ">
<polygon fill="#e0e0e0" stroke="#999999" points="182.5,-19 129.5,-19 129.5,0 182.5,0 182.5,-19"/>
<text text-anchor="middle" x="156" y="-7" font-family="Helvetica,sans-Serif" font-size="10.00">stdint.h</text>
</a>
</g>
</g>
<!-- Node4&#45;&gt;Node5 -->
<g id="edge4_Node000004_Node000005" class="edge">
<title>Node4&#45;&gt;Node5</title>
<g id="a_edge4_Node000004_Node000005"><a xlink:title=" ">
<path fill="none" stroke="#63b8ff" d="M156,-54.75C156,-47.8 156,-37.85 156,-29.13"/>
<polygon fill="#63b8ff" stroke="#63b8ff" points="159.5,-29.09 156,-19.09 152.5,-29.09 159.5,-29.09"/>
</a>
</g>
</g>
<!-- Node6&#45;&gt;Node4 -->
<g id="edge7_Node000006_Node000004" class="edge">
<title>Node6&#45;&gt;Node4</title>
<g id="a_edge7_Node000006_Node000004"><a xlink:title=" ">
<path fill="none" stroke="#63b8ff" d="M234.06,-109.98C219.5,-101.69 197.13,-88.94 180.07,-79.22"/>
<polygon fill="#63b8ff" stroke="#63b8ff" points="181.64,-76.08 171.21,-74.17 178.17,-82.16 181.64,-76.08"/>
</a>
</g>
</g>
<!-- Node7 -->
<g id="Node000007" class="node">
<title>Node7</title>
<g id="a_Node000007"><a xlink:title=" ">
<polygon fill="#e0e0e0" stroke="#999999" points="295,-74 249,-74 249,-55 295,-55 295,-74"/>
<text text-anchor="middle" x="272" y="-62" font-family="Helvetica,sans-Serif" font-size="10.00">pico.h</text>
</a>
</g>
</g>
<!-- Node6&#45;&gt;Node7 -->
<g id="edge6_Node000006_Node000007" class="edge">
<title>Node6&#45;&gt;Node7</title>
<g id="a_edge6_Node000006_Node000007"><a xlink:title=" ">
<path fill="none" stroke="#63b8ff" d="M252.8,-109.75C255.91,-102.57 260.42,-92.18 264.29,-83.27"/>
<polygon fill="#63b8ff" stroke="#63b8ff" points="267.5,-84.66 268.27,-74.09 261.08,-81.87 267.5,-84.66"/>
</a>
</g>
</g>
</g>
</svg>
