<?xml version="1.0" encoding="UTF-8" standalone="no"?>
<!DOCTYPE svg PUBLIC "-//W3C//DTD SVG 1.1//EN"
 "http://www.w3.org/Graphics/SVG/1.1/DTD/svg11.dtd">
<!-- Generated by graphviz version 2.43.0 (0)
 -->
<!-- Title: stdio_uart.c Pages: 1 -->
<svg width="546pt" height="247pt"
 viewBox="0.00 0.00 546.00 247.00" xmlns="http://www.w3.org/2000/svg" xmlns:xlink="http://www.w3.org/1999/xlink">
<g id="graph0" class="graph" transform="scale(1 1) rotate(0) translate(4 243)">
<title>stdio_uart.c</title>
<!-- Node1 -->
<g id="Node000001" class="node">
<title>Node1</title>
<g id="a_Node000001"><a xlink:title=" ">
<polygon fill="#999999" stroke="#666666" points="267,-239 193,-239 193,-220 267,-220 267,-239"/>
<text text-anchor="middle" x="230" y="-227" font-family="Helvetica,sans-Serif" font-size="10.00">stdio_uart.c</text>
</a>
</g>
</g>
<!-- Node2 -->
<g id="Node000002" class="node">
<title>Node2</title>
<g id="a_Node000002"><a xlink:href="driver_8h.html" target="_top" xlink:title=" ">
<polygon fill="white" stroke="#666666" points="104,-184 0,-184 0,-165 104,-165 104,-184"/>
<text text-anchor="middle" x="52" y="-172" font-family="Helvetica,sans-Serif" font-size="10.00">pico/stdio/driver.h</text>
</a>
</g>
</g>
<!-- Node1&#45;&gt;Node2 -->
<g id="edge1_Node000001_Node000002" class="edge">
<title>Node1&#45;&gt;Node2</title>
<g id="a_edge1_Node000001_Node000002"><a xlink:title=" ">
<path fill="none" stroke="#63b8ff" d="M201.4,-219.98C171.39,-211.05 124.02,-196.94 90.68,-187.02"/>
<polygon fill="#63b8ff" stroke="#63b8ff" points="91.41,-183.58 80.82,-184.08 89.41,-190.29 91.41,-183.58"/>
</a>
</g>
</g>
<!-- Node4 -->
<g id="Node000004" class="node">
<title>Node4</title>
<g id="a_Node000004"><a xlink:href="stdio__uart_8h.html" target="_top" xlink:title=" ">
<polygon fill="white" stroke="#666666" points="220,-184 122,-184 122,-165 220,-165 220,-184"/>
<text text-anchor="middle" x="171" y="-172" font-family="Helvetica,sans-Serif" font-size="10.00">pico/stdio_uart.h</text>
</a>
</g>
</g>
<!-- Node1&#45;&gt;Node4 -->
<g id="edge3_Node000001_Node000004" class="edge">
<title>Node1&#45;&gt;Node4</title>
<g id="a_edge3_Node000001_Node000004"><a xlink:title=" ">
<path fill="none" stroke="#63b8ff" d="M220.52,-219.98C211.8,-212.15 198.66,-200.34 188.1,-190.86"/>
<polygon fill="#63b8ff" stroke="#63b8ff" points="190.43,-188.25 180.65,-184.17 185.75,-193.46 190.43,-188.25"/>
</a>
</g>
</g>
<!-- Node6 -->
<g id="Node000006" class="node">
<title>Node6</title>
<g id="a_Node000006"><a xlink:href="binary__info_8h.html" target="_top" xlink:title=" ">
<polygon fill="white" stroke="#666666" points="342,-184 238,-184 238,-165 342,-165 342,-184"/>
<text text-anchor="middle" x="290" y="-172" font-family="Helvetica,sans-Serif" font-size="10.00">pico/binary_info.h</text>
</a>
</g>
</g>
<!-- Node1&#45;&gt;Node6 -->
<g id="edge6_Node000001_Node000006" class="edge">
<title>Node1&#45;&gt;Node6</title>
<g id="a_edge6_Node000001_Node000006"><a xlink:title=" ">
<path fill="none" stroke="#63b8ff" d="M239.64,-219.98C248.51,-212.15 261.87,-200.34 272.61,-190.86"/>
<polygon fill="#63b8ff" stroke="#63b8ff" points="275.01,-193.41 280.18,-184.17 270.37,-188.17 275.01,-193.41"/>
</a>
</g>
</g>
<!-- Node12 -->
<g id="Node000012" class="node">
<title>Node12</title>
<g id="a_Node000012"><a xlink:title=" ">
<polygon fill="#e0e0e0" stroke="#999999" points="455.5,-184 360.5,-184 360.5,-165 455.5,-165 455.5,-184"/>
<text text-anchor="middle" x="408" y="-172" font-family="Helvetica,sans-Serif" font-size="10.00">hardware/gpio.h</text>
</a>
</g>
</g>
<!-- Node1&#45;&gt;Node12 -->
<g id="edge13_Node000001_Node000012" class="edge">
<title>Node1&#45;&gt;Node12</title>
<g id="a_edge13_Node000001_Node000012"><a xlink:title=" ">
<path fill="none" stroke="#63b8ff" d="M258.6,-219.98C288.61,-211.05 335.98,-196.94 369.32,-187.02"/>
<polygon fill="#63b8ff" stroke="#63b8ff" points="370.59,-190.29 379.18,-184.08 368.59,-183.58 370.59,-190.29"/>
</a>
</g>
</g>
<!-- Node3 -->
<g id="Node000003" class="node">
<title>Node3</title>
<g id="a_Node000003"><a xlink:title=" ">
<polygon fill="#e0e0e0" stroke="#999999" points="91.5,-129 18.5,-129 18.5,-110 91.5,-110 91.5,-129"/>
<text text-anchor="middle" x="55" y="-117" font-family="Helvetica,sans-Serif" font-size="10.00">pico/stdio.h</text>
</a>
</g>
</g>
<!-- Node2&#45;&gt;Node3 -->
<g id="edge2_Node000002_Node000003" class="edge">
<title>Node2&#45;&gt;Node3</title>
<g id="a_edge2_Node000002_Node000003"><a xlink:title=" ">
<path fill="none" stroke="#63b8ff" d="M52.5,-164.75C52.89,-157.8 53.45,-147.85 53.95,-139.13"/>
<polygon fill="#63b8ff" stroke="#63b8ff" points="57.44,-139.27 54.51,-129.09 50.45,-138.88 57.44,-139.27"/>
</a>
</g>
</g>
<!-- Node4&#45;&gt;Node3 -->
<g id="edge4_Node000004_Node000003" class="edge">
<title>Node4&#45;&gt;Node3</title>
<g id="a_edge4_Node000004_Node000003"><a xlink:title=" ">
<path fill="none" stroke="#63b8ff" d="M152.36,-164.98C133.7,-156.46 104.75,-143.23 83.26,-133.41"/>
<polygon fill="#63b8ff" stroke="#63b8ff" points="84.53,-130.14 73.98,-129.17 81.62,-136.51 84.53,-130.14"/>
</a>
</g>
</g>
<!-- Node5 -->
<g id="Node000005" class="node">
<title>Node5</title>
<g id="a_Node000005"><a xlink:title=" ">
<polygon fill="#e0e0e0" stroke="#999999" points="206,-129 112,-129 112,-110 206,-110 206,-129"/>
<text text-anchor="middle" x="159" y="-117" font-family="Helvetica,sans-Serif" font-size="10.00">hardware/uart.h</text>
</a>
</g>
</g>
<!-- Node4&#45;&gt;Node5 -->
<g id="edge5_Node000004_Node000005" class="edge">
<title>Node4&#45;&gt;Node5</title>
<g id="a_edge5_Node000004_Node000005"><a xlink:title=" ">
<path fill="none" stroke="#63b8ff" d="M169.02,-164.75C167.43,-157.72 165.14,-147.62 163.15,-138.84"/>
<polygon fill="#63b8ff" stroke="#63b8ff" points="166.57,-138.07 160.94,-129.09 159.74,-139.62 166.57,-138.07"/>
</a>
</g>
</g>
<!-- Node7 -->
<g id="Node000007" class="node">
<title>Node7</title>
<g id="a_Node000007"><a xlink:href="defs_8h.html" target="_top" xlink:title=" ">
<polygon fill="white" stroke="#666666" points="352,-129 224,-129 224,-110 352,-110 352,-129"/>
<text text-anchor="middle" x="288" y="-117" font-family="Helvetica,sans-Serif" font-size="10.00">pico/binary_info/defs.h</text>
</a>
</g>
</g>
<!-- Node6&#45;&gt;Node7 -->
<g id="edge7_Node000006_Node000007" class="edge">
<title>Node6&#45;&gt;Node7</title>
<g id="a_edge7_Node000006_Node000007"><a xlink:title=" ">
<path fill="none" stroke="#63b8ff" d="M289.67,-164.75C289.41,-157.8 289.03,-147.85 288.7,-139.13"/>
<polygon fill="#63b8ff" stroke="#63b8ff" points="292.2,-138.95 288.32,-129.09 285.2,-139.21 292.2,-138.95"/>
</a>
</g>
</g>
<!-- Node8 -->
<g id="Node000008" class="node">
<title>Node8</title>
<g id="a_Node000008"><a xlink:href="structure_8h.html" target="_top" xlink:title=" ">
<polygon fill="white" stroke="#666666" points="455,-74 305,-74 305,-55 455,-55 455,-74"/>
<text text-anchor="middle" x="380" y="-62" font-family="Helvetica,sans-Serif" font-size="10.00">pico/binary_info/structure.h</text>
</a>
</g>
</g>
<!-- Node6&#45;&gt;Node8 -->
<g id="edge8_Node000006_Node000008" class="edge">
<title>Node6&#45;&gt;Node8</title>
<g id="a_edge8_Node000006_Node000008"><a xlink:title=" ">
<path fill="none" stroke="#63b8ff" d="M311.59,-164.97C327.43,-157.66 348.31,-145.67 361,-129 370.91,-115.98 375.68,-97.84 377.95,-84.27"/>
<polygon fill="#63b8ff" stroke="#63b8ff" points="381.44,-84.56 379.34,-74.17 374.51,-83.61 381.44,-84.56"/>
</a>
</g>
</g>
<!-- Node10 -->
<g id="Node000010" class="node">
<title>Node10</title>
<g id="a_Node000010"><a xlink:href="code_8h.html" target="_top" xlink:title=" ">
<polygon fill="white" stroke="#666666" points="538,-129 408,-129 408,-110 538,-110 538,-129"/>
<text text-anchor="middle" x="473" y="-117" font-family="Helvetica,sans-Serif" font-size="10.00">pico/binary_info/code.h</text>
</a>
</g>
</g>
<!-- Node6&#45;&gt;Node10 -->
<g id="edge10_Node000006_Node000010" class="edge">
<title>Node6&#45;&gt;Node10</title>
<g id="a_edge10_Node000006_Node000010"><a xlink:title=" ">
<path fill="none" stroke="#63b8ff" d="M319.4,-164.98C350.39,-156.01 399.38,-141.82 433.67,-131.89"/>
<polygon fill="#63b8ff" stroke="#63b8ff" points="434.74,-135.23 443.37,-129.08 432.79,-128.5 434.74,-135.23"/>
</a>
</g>
</g>
<!-- Node9 -->
<g id="Node000009" class="node">
<title>Node9</title>
<g id="a_Node000009"><a xlink:title=" ">
<polygon fill="#e0e0e0" stroke="#999999" points="406.5,-19 353.5,-19 353.5,0 406.5,0 406.5,-19"/>
<text text-anchor="middle" x="380" y="-7" font-family="Helvetica,sans-Serif" font-size="10.00">stdint.h</text>
</a>
</g>
</g>
<!-- Node8&#45;&gt;Node9 -->
<g id="edge9_Node000008_Node000009" class="edge">
<title>Node8&#45;&gt;Node9</title>
<g id="a_edge9_Node000008_Node000009"><a xlink:title=" ">
<path fill="none" stroke="#63b8ff" d="M380,-54.75C380,-47.8 380,-37.85 380,-29.13"/>
<polygon fill="#63b8ff" stroke="#63b8ff" points="383.5,-29.09 380,-19.09 376.5,-29.09 383.5,-29.09"/>
</a>
</g>
</g>
<!-- Node10&#45;&gt;Node8 -->
<g id="edge12_Node000010_Node000008" class="edge">
<title>Node10&#45;&gt;Node8</title>
<g id="a_edge12_Node000010_Node000008"><a xlink:title=" ">
<path fill="none" stroke="#63b8ff" d="M458.06,-109.98C443.5,-101.69 421.13,-88.94 404.07,-79.22"/>
<polygon fill="#63b8ff" stroke="#63b8ff" points="405.64,-76.08 395.21,-74.17 402.17,-82.16 405.64,-76.08"/>
</a>
</g>
</g>
<!-- Node11 -->
<g id="Node000011" class="node">
<title>Node11</title>
<g id="a_Node000011"><a xlink:title=" ">
<polygon fill="#e0e0e0" stroke="#999999" points="519,-74 473,-74 473,-55 519,-55 519,-74"/>
<text text-anchor="middle" x="496" y="-62" font-family="Helvetica,sans-Serif" font-size="10.00">pico.h</text>
</a>
</g>
</g>
<!-- Node10&#45;&gt;Node11 -->
<g id="edge11_Node000010_Node000011" class="edge">
<title>Node10&#45;&gt;Node11</title>
<g id="a_edge11_Node000010_Node000011"><a xlink:title=" ">
<path fill="none" stroke="#63b8ff" d="M476.8,-109.75C479.91,-102.57 484.42,-92.18 488.29,-83.27"/>
<polygon fill="#63b8ff" stroke="#63b8ff" points="491.5,-84.66 492.27,-74.09 485.08,-81.87 491.5,-84.66"/>
</a>
</g>
</g>
</g>
</svg>
