<?xml version="1.0" encoding="UTF-8" standalone="no"?>
<!DOCTYPE svg PUBLIC "-//W3C//DTD SVG 1.1//EN"
 "http://www.w3.org/Graphics/SVG/1.1/DTD/svg11.dtd">
<!-- Generated by graphviz version 2.43.0 (0)
 -->
<!-- Title: stdio_usb_descriptors.c Pages: 1 -->
<svg width="416pt" height="148pt"
 viewBox="0.00 0.00 416.00 148.00" xmlns="http://www.w3.org/2000/svg" xmlns:xlink="http://www.w3.org/1999/xlink">
<g id="graph0" class="graph" transform="scale(1 1) rotate(0) translate(4 144)">
<title>stdio_usb_descriptors.c</title>
<!-- Node1 -->
<g id="Node000001" class="node">
<title>Node1</title>
<g id="a_Node000001"><a xlink:title=" ">
<polygon fill="#999999" stroke="#666666" points="298,-140 167,-140 167,-121 298,-121 298,-140"/>
<text text-anchor="middle" x="232.5" y="-128" font-family="Helvetica,sans-Serif" font-size="10.00">stdio_usb_descriptors.c</text>
</a>
</g>
</g>
<!-- Node2 -->
<g id="Node000002" class="node">
<title>Node2</title>
<g id="a_Node000002"><a xlink:href="stdio__usb_8h.html" target="_top" xlink:title=" ">
<polygon fill="white" stroke="#666666" points="95,-79.5 0,-79.5 0,-60.5 95,-60.5 95,-79.5"/>
<text text-anchor="middle" x="47.5" y="-67.5" font-family="Helvetica,sans-Serif" font-size="10.00">pico/stdio_usb.h</text>
</a>
</g>
</g>
<!-- Node1&#45;&gt;Node2 -->
<g id="edge1_Node000001_Node000002" class="edge">
<title>Node1&#45;&gt;Node2</title>
<g id="a_edge1_Node000001_Node000002"><a xlink:title=" ">
<path fill="none" stroke="#63b8ff" d="M205.6,-120.99C173.54,-110.86 119.82,-93.87 84.02,-82.55"/>
<polygon fill="#63b8ff" stroke="#63b8ff" points="85.02,-79.19 74.43,-79.52 82.91,-85.87 85.02,-79.19"/>
</a>
</g>
</g>
<!-- Node4 -->
<g id="Node000004" class="node">
<title>Node4</title>
<g id="a_Node000004"><a xlink:href="reset__interface_8h.html" target="_top" xlink:title=" ">
<polygon fill="white" stroke="#666666" points="228.5,-85 114.5,-85 114.5,-55 228.5,-55 228.5,-85"/>
<text text-anchor="start" x="122.5" y="-73" font-family="Helvetica,sans-Serif" font-size="10.00">pico/stdio_usb/reset</text>
<text text-anchor="middle" x="171.5" y="-62" font-family="Helvetica,sans-Serif" font-size="10.00">_interface.h</text>
</a>
</g>
</g>
<!-- Node1&#45;&gt;Node4 -->
<g id="edge3_Node000001_Node000004" class="edge">
<title>Node1&#45;&gt;Node4</title>
<g id="a_edge3_Node000001_Node000004"><a xlink:title=" ">
<path fill="none" stroke="#63b8ff" d="M223.5,-120.87C215.61,-113.3 203.8,-101.98 193.44,-92.04"/>
<polygon fill="#63b8ff" stroke="#63b8ff" points="195.86,-89.51 186.22,-85.11 191.01,-94.56 195.86,-89.51"/>
</a>
</g>
</g>
<!-- Node6 -->
<g id="Node000006" class="node">
<title>Node6</title>
<g id="a_Node000006"><a xlink:href="unique__id_8h.html" target="_top" xlink:title=" ">
<polygon fill="white" stroke="#666666" points="342.5,-79.5 246.5,-79.5 246.5,-60.5 342.5,-60.5 342.5,-79.5"/>
<text text-anchor="middle" x="294.5" y="-67.5" font-family="Helvetica,sans-Serif" font-size="10.00">pico/unique_id.h</text>
</a>
</g>
</g>
<!-- Node1&#45;&gt;Node6 -->
<g id="edge5_Node000001_Node000006" class="edge">
<title>Node1&#45;&gt;Node6</title>
<g id="a_edge5_Node000001_Node000006"><a xlink:title=" ">
<path fill="none" stroke="#63b8ff" d="M241.65,-120.87C251.17,-111.88 266.3,-97.61 277.93,-86.64"/>
<polygon fill="#63b8ff" stroke="#63b8ff" points="280.44,-89.08 285.31,-79.67 275.64,-83.98 280.44,-89.08"/>
</a>
</g>
</g>
<!-- Node8 -->
<g id="Node000008" class="node">
<title>Node8</title>
<g id="a_Node000008"><a xlink:title=" ">
<polygon fill="#e0e0e0" stroke="#999999" points="408,-79.5 361,-79.5 361,-60.5 408,-60.5 408,-79.5"/>
<text text-anchor="middle" x="384.5" y="-67.5" font-family="Helvetica,sans-Serif" font-size="10.00">tusb.h</text>
</a>
</g>
</g>
<!-- Node1&#45;&gt;Node8 -->
<g id="edge7_Node000001_Node000008" class="edge">
<title>Node1&#45;&gt;Node8</title>
<g id="a_edge7_Node000001_Node000008"><a xlink:title=" ">
<path fill="none" stroke="#63b8ff" d="M256.32,-120.94C280.43,-112.19 318.72,-98.08 351.5,-85 352.7,-84.52 353.93,-84.03 355.17,-83.52"/>
<polygon fill="#63b8ff" stroke="#63b8ff" points="356.77,-86.65 364.66,-79.58 354.09,-80.18 356.77,-86.65"/>
</a>
</g>
</g>
<!-- Node3 -->
<g id="Node000003" class="node">
<title>Node3</title>
<g id="a_Node000003"><a xlink:title=" ">
<polygon fill="#e0e0e0" stroke="#999999" points="82,-19 9,-19 9,0 82,0 82,-19"/>
<text text-anchor="middle" x="45.5" y="-7" font-family="Helvetica,sans-Serif" font-size="10.00">pico/stdio.h</text>
</a>
</g>
</g>
<!-- Node2&#45;&gt;Node3 -->
<g id="edge2_Node000002_Node000003" class="edge">
<title>Node2&#45;&gt;Node3</title>
<g id="a_edge2_Node000002_Node000003"><a xlink:title=" ">
<path fill="none" stroke="#63b8ff" d="M47.2,-60.37C46.93,-52.25 46.5,-39.81 46.15,-29.39"/>
<polygon fill="#63b8ff" stroke="#63b8ff" points="49.64,-29.04 45.8,-19.17 42.64,-29.28 49.64,-29.04"/>
</a>
</g>
</g>
<!-- Node5 -->
<g id="Node000005" class="node">
<title>Node5</title>
<g id="a_Node000005"><a xlink:href="usb__reset__interface_8h.html" target="_top" xlink:title=" ">
<polygon fill="white" stroke="#666666" points="245,-19 100,-19 100,0 245,0 245,-19"/>
<text text-anchor="middle" x="172.5" y="-7" font-family="Helvetica,sans-Serif" font-size="10.00">pico/usb_reset_interface.h</text>
</a>
</g>
</g>
<!-- Node4&#45;&gt;Node5 -->
<g id="edge4_Node000004_Node000005" class="edge">
<title>Node4&#45;&gt;Node5</title>
<g id="a_edge4_Node000004_Node000005"><a xlink:title=" ">
<path fill="none" stroke="#63b8ff" d="M171.74,-54.84C171.87,-47.21 172.03,-37.7 172.18,-29.45"/>
<polygon fill="#63b8ff" stroke="#63b8ff" points="175.68,-29.32 172.35,-19.27 168.68,-29.2 175.68,-29.32"/>
</a>
</g>
</g>
<!-- Node7 -->
<g id="Node000007" class="node">
<title>Node7</title>
<g id="a_Node000007"><a xlink:title=" ">
<polygon fill="#e0e0e0" stroke="#999999" points="317.5,-19 271.5,-19 271.5,0 317.5,0 317.5,-19"/>
<text text-anchor="middle" x="294.5" y="-7" font-family="Helvetica,sans-Serif" font-size="10.00">pico.h</text>
</a>
</g>
</g>
<!-- Node6&#45;&gt;Node7 -->
<g id="edge6_Node000006_Node000007" class="edge">
<title>Node6&#45;&gt;Node7</title>
<g id="a_edge6_Node000006_Node000007"><a xlink:title=" ">
<path fill="none" stroke="#63b8ff" d="M294.5,-60.37C294.5,-52.25 294.5,-39.81 294.5,-29.39"/>
<polygon fill="#63b8ff" stroke="#63b8ff" points="298,-29.17 294.5,-19.17 291,-29.17 298,-29.17"/>
</a>
</g>
</g>
</g>
</svg>
