<?xml version="1.0" encoding="UTF-8" standalone="no"?>
<!DOCTYPE svg PUBLIC "-//W3C//DTD SVG 1.1//EN"
 "http://www.w3.org/Graphics/SVG/1.1/DTD/svg11.dtd">
<!-- Generated by graphviz version 2.43.0 (0)
 -->
<!-- Title: stdio_rtt.c Pages: 1 -->
<svg width="761pt" height="258pt"
 viewBox="0.00 0.00 761.00 258.00" xmlns="http://www.w3.org/2000/svg" xmlns:xlink="http://www.w3.org/1999/xlink">
<g id="graph0" class="graph" transform="scale(1 1) rotate(0) translate(4 254)">
<title>stdio_rtt.c</title>
<!-- Node1 -->
<g id="Node000001" class="node">
<title>Node1</title>
<g id="a_Node000001"><a xlink:title=" ">
<polygon fill="#999999" stroke="#666666" points="415.5,-250 350.5,-250 350.5,-231 415.5,-231 415.5,-250"/>
<text text-anchor="middle" x="383" y="-238" font-family="Helvetica,sans-Serif" font-size="10.00">stdio_rtt.c</text>
</a>
</g>
</g>
<!-- Node2 -->
<g id="Node000002" class="node">
<title>Node2</title>
<g id="a_Node000002"><a xlink:href="binary__info_8h.html" target="_top" xlink:title=" ">
<polygon fill="white" stroke="#666666" points="240,-195 136,-195 136,-176 240,-176 240,-195"/>
<text text-anchor="middle" x="188" y="-183" font-family="Helvetica,sans-Serif" font-size="10.00">pico/binary_info.h</text>
</a>
</g>
</g>
<!-- Node1&#45;&gt;Node2 -->
<g id="edge1_Node000001_Node000002" class="edge">
<title>Node1&#45;&gt;Node2</title>
<g id="a_edge1_Node000001_Node000002"><a xlink:title=" ">
<path fill="none" stroke="#63b8ff" d="M351.67,-230.98C318.51,-221.97 266,-207.7 229.44,-197.76"/>
<polygon fill="#63b8ff" stroke="#63b8ff" points="230.14,-194.33 219.58,-195.08 228.31,-201.08 230.14,-194.33"/>
</a>
</g>
</g>
<!-- Node8 -->
<g id="Node000008" class="node">
<title>Node8</title>
<g id="a_Node000008"><a xlink:href="driver_8h.html" target="_top" xlink:title=" ">
<polygon fill="white" stroke="#666666" points="378,-195 274,-195 274,-176 378,-176 378,-195"/>
<text text-anchor="middle" x="326" y="-183" font-family="Helvetica,sans-Serif" font-size="10.00">pico/stdio/driver.h</text>
</a>
</g>
</g>
<!-- Node1&#45;&gt;Node8 -->
<g id="edge8_Node000001_Node000008" class="edge">
<title>Node1&#45;&gt;Node8</title>
<g id="a_edge8_Node000001_Node000008"><a xlink:title=" ">
<path fill="none" stroke="#63b8ff" d="M373.84,-230.98C365.5,-223.23 352.97,-211.58 342.82,-202.14"/>
<polygon fill="#63b8ff" stroke="#63b8ff" points="345.03,-199.42 335.32,-195.17 340.26,-204.54 345.03,-199.42"/>
</a>
</g>
</g>
<!-- Node10 -->
<g id="Node000010" class="node">
<title>Node10</title>
<g id="a_Node000010"><a xlink:href="stdio__rtt_8h.html" target="_top" xlink:title=" ">
<polygon fill="white" stroke="#666666" points="485.5,-195 396.5,-195 396.5,-176 485.5,-176 485.5,-195"/>
<text text-anchor="middle" x="441" y="-183" font-family="Helvetica,sans-Serif" font-size="10.00">pico/stdio_rtt.h</text>
</a>
</g>
</g>
<!-- Node1&#45;&gt;Node10 -->
<g id="edge10_Node000001_Node000010" class="edge">
<title>Node1&#45;&gt;Node10</title>
<g id="a_edge10_Node000001_Node000010"><a xlink:title=" ">
<path fill="none" stroke="#63b8ff" d="M392.32,-230.98C400.81,-223.23 413.56,-211.58 423.88,-202.14"/>
<polygon fill="#63b8ff" stroke="#63b8ff" points="426.49,-204.5 431.51,-195.17 421.77,-199.33 426.49,-204.5"/>
</a>
</g>
</g>
<!-- Node11 -->
<g id="Node000011" class="node">
<title>Node11</title>
<g id="a_Node000011"><a xlink:href="SEGGER__RTT_8h.html" target="_top" xlink:title=" ">
<polygon fill="white" stroke="#666666" points="606,-195 518,-195 518,-176 606,-176 606,-195"/>
<text text-anchor="middle" x="562" y="-183" font-family="Helvetica,sans-Serif" font-size="10.00">SEGGER_RTT.h</text>
</a>
</g>
</g>
<!-- Node1&#45;&gt;Node11 -->
<g id="edge12_Node000001_Node000011" class="edge">
<title>Node1&#45;&gt;Node11</title>
<g id="a_edge12_Node000001_Node000011"><a xlink:title=" ">
<path fill="none" stroke="#63b8ff" d="M411.76,-230.98C441.94,-222.05 489.57,-207.94 523.1,-198.02"/>
<polygon fill="#63b8ff" stroke="#63b8ff" points="524.42,-201.28 533.02,-195.08 522.43,-194.57 524.42,-201.28"/>
</a>
</g>
</g>
<!-- Node3 -->
<g id="Node000003" class="node">
<title>Node3</title>
<g id="a_Node000003"><a xlink:href="defs_8h.html" target="_top" xlink:title=" ">
<polygon fill="white" stroke="#666666" points="128,-134.5 0,-134.5 0,-115.5 128,-115.5 128,-134.5"/>
<text text-anchor="middle" x="64" y="-122.5" font-family="Helvetica,sans-Serif" font-size="10.00">pico/binary_info/defs.h</text>
</a>
</g>
</g>
<!-- Node2&#45;&gt;Node3 -->
<g id="edge2_Node000002_Node000003" class="edge">
<title>Node2&#45;&gt;Node3</title>
<g id="a_edge2_Node000002_Node000003"><a xlink:title=" ">
<path fill="none" stroke="#63b8ff" d="M169.97,-175.99C149.31,-166.25 115.22,-150.16 91.3,-138.88"/>
<polygon fill="#63b8ff" stroke="#63b8ff" points="92.59,-135.62 82.05,-134.52 89.6,-141.95 92.59,-135.62"/>
</a>
</g>
</g>
<!-- Node4 -->
<g id="Node000004" class="node">
<title>Node4</title>
<g id="a_Node000004"><a xlink:href="structure_8h.html" target="_top" xlink:title=" ">
<polygon fill="white" stroke="#666666" points="253,-74 103,-74 103,-55 253,-55 253,-74"/>
<text text-anchor="middle" x="178" y="-62" font-family="Helvetica,sans-Serif" font-size="10.00">pico/binary_info/structure.h</text>
</a>
</g>
</g>
<!-- Node2&#45;&gt;Node4 -->
<g id="edge3_Node000002_Node000004" class="edge">
<title>Node2&#45;&gt;Node4</title>
<g id="a_edge3_Node000002_Node000004"><a xlink:title=" ">
<path fill="none" stroke="#63b8ff" d="M184.66,-175.8C181.45,-166.94 176.82,-152.75 175,-140 172.31,-121.21 173.69,-99.51 175.35,-84.39"/>
<polygon fill="#63b8ff" stroke="#63b8ff" points="178.85,-84.63 176.62,-74.27 171.9,-83.76 178.85,-84.63"/>
</a>
</g>
</g>
<!-- Node6 -->
<g id="Node000006" class="node">
<title>Node6</title>
<g id="a_Node000006"><a xlink:href="code_8h.html" target="_top" xlink:title=" ">
<polygon fill="white" stroke="#666666" points="314,-134.5 184,-134.5 184,-115.5 314,-115.5 314,-134.5"/>
<text text-anchor="middle" x="249" y="-122.5" font-family="Helvetica,sans-Serif" font-size="10.00">pico/binary_info/code.h</text>
</a>
</g>
</g>
<!-- Node2&#45;&gt;Node6 -->
<g id="edge5_Node000002_Node000006" class="edge">
<title>Node2&#45;&gt;Node6</title>
<g id="a_edge5_Node000002_Node000006"><a xlink:title=" ">
<path fill="none" stroke="#63b8ff" d="M197,-175.87C206.37,-166.88 221.25,-152.61 232.7,-141.64"/>
<polygon fill="#63b8ff" stroke="#63b8ff" points="235.17,-144.12 239.96,-134.67 230.32,-139.06 235.17,-144.12"/>
</a>
</g>
</g>
<!-- Node5 -->
<g id="Node000005" class="node">
<title>Node5</title>
<g id="a_Node000005"><a xlink:title=" ">
<polygon fill="#e0e0e0" stroke="#999999" points="204.5,-19 151.5,-19 151.5,0 204.5,0 204.5,-19"/>
<text text-anchor="middle" x="178" y="-7" font-family="Helvetica,sans-Serif" font-size="10.00">stdint.h</text>
</a>
</g>
</g>
<!-- Node4&#45;&gt;Node5 -->
<g id="edge4_Node000004_Node000005" class="edge">
<title>Node4&#45;&gt;Node5</title>
<g id="a_edge4_Node000004_Node000005"><a xlink:title=" ">
<path fill="none" stroke="#63b8ff" d="M178,-54.75C178,-47.8 178,-37.85 178,-29.13"/>
<polygon fill="#63b8ff" stroke="#63b8ff" points="181.5,-29.09 178,-19.09 174.5,-29.09 181.5,-29.09"/>
</a>
</g>
</g>
<!-- Node6&#45;&gt;Node4 -->
<g id="edge7_Node000006_Node000004" class="edge">
<title>Node6&#45;&gt;Node4</title>
<g id="a_edge7_Node000006_Node000004"><a xlink:title=" ">
<path fill="none" stroke="#63b8ff" d="M238.52,-115.37C227.51,-106.3 209.96,-91.84 196.59,-80.82"/>
<polygon fill="#63b8ff" stroke="#63b8ff" points="198.46,-77.83 188.52,-74.17 194.01,-83.23 198.46,-77.83"/>
</a>
</g>
</g>
<!-- Node7 -->
<g id="Node000007" class="node">
<title>Node7</title>
<g id="a_Node000007"><a xlink:title=" ">
<polygon fill="#e0e0e0" stroke="#999999" points="437,-19 391,-19 391,0 437,0 437,-19"/>
<text text-anchor="middle" x="414" y="-7" font-family="Helvetica,sans-Serif" font-size="10.00">pico.h</text>
</a>
</g>
</g>
<!-- Node6&#45;&gt;Node7 -->
<g id="edge6_Node000006_Node000007" class="edge">
<title>Node6&#45;&gt;Node7</title>
<g id="a_edge6_Node000006_Node000007"><a xlink:title=" ">
<path fill="none" stroke="#63b8ff" d="M255.73,-115.37C267.09,-101.24 291.38,-72.96 317,-55 336.86,-41.08 361.77,-29.76 381.37,-22.02"/>
<polygon fill="#63b8ff" stroke="#63b8ff" points="382.71,-25.26 390.8,-18.41 380.21,-18.72 382.71,-25.26"/>
</a>
</g>
</g>
<!-- Node9 -->
<g id="Node000009" class="node">
<title>Node9</title>
<g id="a_Node000009"><a xlink:title=" ">
<polygon fill="#e0e0e0" stroke="#999999" points="399.5,-74 326.5,-74 326.5,-55 399.5,-55 399.5,-74"/>
<text text-anchor="middle" x="363" y="-62" font-family="Helvetica,sans-Serif" font-size="10.00">pico/stdio.h</text>
</a>
</g>
</g>
<!-- Node8&#45;&gt;Node9 -->
<g id="edge9_Node000008_Node000009" class="edge">
<title>Node8&#45;&gt;Node9</title>
<g id="a_edge9_Node000008_Node000009"><a xlink:title=" ">
<path fill="none" stroke="#63b8ff" d="M328.66,-175.94C334.61,-156.82 349.08,-110.27 357.21,-84.12"/>
<polygon fill="#63b8ff" stroke="#63b8ff" points="360.64,-84.89 360.26,-74.3 353.95,-82.81 360.64,-84.89"/>
</a>
</g>
</g>
<!-- Node10&#45;&gt;Node9 -->
<g id="edge11_Node000010_Node000009" class="edge">
<title>Node10&#45;&gt;Node9</title>
<g id="a_edge11_Node000010_Node000009"><a xlink:title=" ">
<path fill="none" stroke="#63b8ff" d="M431.08,-175.68C421.94,-167.19 408.4,-153.65 399,-140 386.68,-122.12 376.36,-99.39 369.97,-83.76"/>
<polygon fill="#63b8ff" stroke="#63b8ff" points="373.13,-82.24 366.2,-74.23 366.63,-84.82 373.13,-82.24"/>
</a>
</g>
</g>
<!-- Node12 -->
<g id="Node000012" class="node">
<title>Node12</title>
<g id="a_Node000012"><a xlink:href="SEGGER__RTT__Conf_8h.html" target="_top" xlink:title=" ">
<polygon fill="white" stroke="#666666" points="532,-140 408,-140 408,-110 532,-110 532,-140"/>
<text text-anchor="start" x="416" y="-128" font-family="Helvetica,sans-Serif" font-size="10.00">../Config/SEGGER_RTT</text>
<text text-anchor="middle" x="470" y="-117" font-family="Helvetica,sans-Serif" font-size="10.00">_Conf.h</text>
</a>
</g>
</g>
<!-- Node11&#45;&gt;Node12 -->
<g id="edge13_Node000011_Node000012" class="edge">
<title>Node11&#45;&gt;Node12</title>
<g id="a_edge13_Node000011_Node000012"><a xlink:title=" ">
<path fill="none" stroke="#63b8ff" d="M548.43,-175.87C535.94,-167.93 516.98,-155.87 500.82,-145.6"/>
<polygon fill="#63b8ff" stroke="#63b8ff" points="502.51,-142.53 492.2,-140.11 498.76,-148.43 502.51,-142.53"/>
</a>
</g>
</g>
<!-- Node13 -->
<g id="Node000013" class="node">
<title>Node13</title>
<g id="a_Node000013"><a xlink:href="stdlib_8h.html" target="_top" xlink:title=" ">
<polygon fill="white" stroke="#666666" points="603.5,-134.5 550.5,-134.5 550.5,-115.5 603.5,-115.5 603.5,-134.5"/>
<text text-anchor="middle" x="577" y="-122.5" font-family="Helvetica,sans-Serif" font-size="10.00">stdlib.h</text>
</a>
</g>
</g>
<!-- Node11&#45;&gt;Node13 -->
<g id="edge14_Node000011_Node000013" class="edge">
<title>Node11&#45;&gt;Node13</title>
<g id="a_edge14_Node000011_Node000013"><a xlink:title=" ">
<path fill="none" stroke="#63b8ff" d="M564.21,-175.87C566.32,-167.66 569.55,-155.04 572.24,-144.55"/>
<polygon fill="#63b8ff" stroke="#63b8ff" points="575.68,-145.22 574.78,-134.67 568.9,-143.48 575.68,-145.22"/>
</a>
</g>
</g>
<!-- Node18 -->
<g id="Node000018" class="node">
<title>Node18</title>
<g id="a_Node000018"><a xlink:title=" ">
<polygon fill="#e0e0e0" stroke="#999999" points="678,-134.5 622,-134.5 622,-115.5 678,-115.5 678,-134.5"/>
<text text-anchor="middle" x="650" y="-122.5" font-family="Helvetica,sans-Serif" font-size="10.00">stdarg.h</text>
</a>
</g>
</g>
<!-- Node11&#45;&gt;Node18 -->
<g id="edge22_Node000011_Node000018" class="edge">
<title>Node11&#45;&gt;Node18</title>
<g id="a_edge22_Node000011_Node000018"><a xlink:title=" ">
<path fill="none" stroke="#63b8ff" d="M574.98,-175.87C589.02,-166.54 611.63,-151.51 628.36,-140.38"/>
<polygon fill="#63b8ff" stroke="#63b8ff" points="630.57,-143.12 636.96,-134.67 626.7,-137.29 630.57,-143.12"/>
</a>
</g>
</g>
<!-- Node13&#45;&gt;Node7 -->
<g id="edge15_Node000013_Node000007" class="edge">
<title>Node13&#45;&gt;Node7</title>
<g id="a_edge15_Node000013_Node000007"><a xlink:title=" ">
<path fill="none" stroke="#63b8ff" d="M554.92,-115.39C550.32,-113.61 545.5,-111.74 541,-110 499.26,-93.89 480.38,-103.79 447,-74 433.41,-61.87 424.56,-42.8 419.48,-28.73"/>
<polygon fill="#63b8ff" stroke="#63b8ff" points="422.77,-27.53 416.32,-19.13 416.12,-29.72 422.77,-27.53"/>
</a>
</g>
</g>
<!-- Node13&#45;&gt;Node9 -->
<g id="edge16_Node000013_Node000009" class="edge">
<title>Node13&#45;&gt;Node9</title>
<g id="a_edge16_Node000013_Node000009"><a xlink:title=" ">
<path fill="none" stroke="#63b8ff" d="M556.22,-115.41C551.27,-113.5 545.98,-111.59 541,-110 496.88,-95.97 445.49,-83.53 409.3,-75.39"/>
<polygon fill="#63b8ff" stroke="#63b8ff" points="410.03,-71.97 399.51,-73.21 408.51,-78.8 410.03,-71.97"/>
</a>
</g>
</g>
<!-- Node14 -->
<g id="Node000014" class="node">
<title>Node14</title>
<g id="a_Node000014"><a xlink:href="common_2pico__time_2include_2pico_2time_8h.html" target="_top" xlink:title=" ">
<polygon fill="white" stroke="#666666" points="527.5,-74 456.5,-74 456.5,-55 527.5,-55 527.5,-74"/>
<text text-anchor="middle" x="492" y="-62" font-family="Helvetica,sans-Serif" font-size="10.00">pico/time.h</text>
</a>
</g>
</g>
<!-- Node13&#45;&gt;Node14 -->
<g id="edge17_Node000013_Node000014" class="edge">
<title>Node13&#45;&gt;Node14</title>
<g id="a_edge17_Node000013_Node000014"><a xlink:title=" ">
<path fill="none" stroke="#63b8ff" d="M564.46,-115.37C550.9,-106.04 529.06,-91.01 512.9,-79.88"/>
<polygon fill="#63b8ff" stroke="#63b8ff" points="514.82,-76.95 504.59,-74.17 510.85,-82.72 514.82,-76.95"/>
</a>
</g>
</g>
<!-- Node16 -->
<g id="Node000016" class="node">
<title>Node16</title>
<g id="a_Node000016"><a xlink:title=" ">
<polygon fill="#e0e0e0" stroke="#999999" points="640.5,-74 545.5,-74 545.5,-55 640.5,-55 640.5,-74"/>
<text text-anchor="middle" x="593" y="-62" font-family="Helvetica,sans-Serif" font-size="10.00">hardware/gpio.h</text>
</a>
</g>
</g>
<!-- Node13&#45;&gt;Node16 -->
<g id="edge20_Node000013_Node000016" class="edge">
<title>Node13&#45;&gt;Node16</title>
<g id="a_edge20_Node000013_Node000016"><a xlink:title=" ">
<path fill="none" stroke="#63b8ff" d="M579.36,-115.37C581.61,-107.16 585.06,-94.54 587.93,-84.05"/>
<polygon fill="#63b8ff" stroke="#63b8ff" points="591.37,-84.74 590.63,-74.17 584.62,-82.89 591.37,-84.74"/>
</a>
</g>
</g>
<!-- Node17 -->
<g id="Node000017" class="node">
<title>Node17</title>
<g id="a_Node000017"><a xlink:title=" ">
<polygon fill="#e0e0e0" stroke="#999999" points="753,-74 659,-74 659,-55 753,-55 753,-74"/>
<text text-anchor="middle" x="706" y="-62" font-family="Helvetica,sans-Serif" font-size="10.00">hardware/uart.h</text>
</a>
</g>
</g>
<!-- Node13&#45;&gt;Node17 -->
<g id="edge21_Node000013_Node000017" class="edge">
<title>Node13&#45;&gt;Node17</title>
<g id="a_edge21_Node000013_Node000017"><a xlink:title=" ">
<path fill="none" stroke="#63b8ff" d="M595.76,-115.49C617.35,-105.7 653.03,-89.52 677.93,-78.23"/>
<polygon fill="#63b8ff" stroke="#63b8ff" points="679.56,-81.33 687.22,-74.02 676.67,-74.96 679.56,-81.33"/>
</a>
</g>
</g>
<!-- Node14&#45;&gt;Node7 -->
<g id="edge18_Node000014_Node000007" class="edge">
<title>Node14&#45;&gt;Node7</title>
<g id="a_edge18_Node000014_Node000007"><a xlink:title=" ">
<path fill="none" stroke="#63b8ff" d="M479.47,-54.98C467.6,-46.92 449.54,-34.65 435.39,-25.03"/>
<polygon fill="#63b8ff" stroke="#63b8ff" points="437,-21.9 426.76,-19.17 433.06,-27.69 437,-21.9"/>
</a>
</g>
</g>
<!-- Node15 -->
<g id="Node000015" class="node">
<title>Node15</title>
<g id="a_Node000015"><a xlink:title=" ">
<polygon fill="#e0e0e0" stroke="#999999" points="556.5,-19 455.5,-19 455.5,0 556.5,0 556.5,-19"/>
<text text-anchor="middle" x="506" y="-7" font-family="Helvetica,sans-Serif" font-size="10.00">hardware/timer.h</text>
</a>
</g>
</g>
<!-- Node14&#45;&gt;Node15 -->
<g id="edge19_Node000014_Node000015" class="edge">
<title>Node14&#45;&gt;Node15</title>
<g id="a_edge19_Node000014_Node000015"><a xlink:title=" ">
<path fill="none" stroke="#63b8ff" d="M494.31,-54.75C496.17,-47.72 498.84,-37.62 501.15,-28.84"/>
<polygon fill="#63b8ff" stroke="#63b8ff" points="504.56,-29.65 503.73,-19.09 497.79,-27.86 504.56,-29.65"/>
</a>
</g>
</g>
</g>
</svg>
