<?xml version="1.0" encoding="UTF-8" standalone="no"?>
<!DOCTYPE svg PUBLIC "-//W3C//DTD SVG 1.1//EN"
 "http://www.w3.org/Graphics/SVG/1.1/DTD/svg11.dtd">
<!-- Generated by graphviz version 2.43.0 (0)
 -->
<!-- Title: stdlib.h Pages: 1 -->
<svg width="3368pt" height="258pt"
 viewBox="0.00 0.00 3368.00 258.00" xmlns="http://www.w3.org/2000/svg" xmlns:xlink="http://www.w3.org/1999/xlink">
<g id="graph0" class="graph" transform="scale(1 1) rotate(0) translate(4 254)">
<title>stdlib.h</title>
<!-- Node1 -->
<g id="Node000001" class="node">
<title>Node1</title>
<g id="a_Node000001"><a xlink:title=" ">
<polygon fill="#999999" stroke="#666666" points="1771,-250 1718,-250 1718,-231 1771,-231 1771,-250"/>
<text text-anchor="middle" x="1744.5" y="-238" font-family="Helvetica,sans-Serif" font-size="10.00">stdlib.h</text>
</a>
</g>
</g>
<!-- Node2 -->
<g id="Node000002" class="node">
<title>Node2</title>
<g id="a_Node000002"><a xlink:href="SEGGER__RTT_8h.html" target="_top" xlink:title=" ">
<polygon fill="white" stroke="#666666" points="123.5,-189.5 35.5,-189.5 35.5,-170.5 123.5,-170.5 123.5,-189.5"/>
<text text-anchor="middle" x="79.5" y="-177.5" font-family="Helvetica,sans-Serif" font-size="10.00">SEGGER_RTT.h</text>
</a>
</g>
</g>
<!-- Node1&#45;&gt;Node2 -->
<g id="edge1_Node000001_Node000002" class="edge">
<title>Node1&#45;&gt;Node2</title>
<g id="a_edge1_Node000001_Node000002"><a xlink:title=" ">
<path fill="none" stroke="#63b8ff" d="M1707.52,-239.64C1497.31,-240.24 451.01,-240.84 132.5,-195 124.12,-193.79 115.16,-191.73 107.03,-189.56"/>
<polygon fill="#63b8ff" stroke="#63b8ff" points="1707.73,-243.14 1717.72,-239.61 1707.71,-236.14 1707.73,-243.14"/>
</a>
</g>
</g>
<!-- Node5 -->
<g id="Node000005" class="node">
<title>Node5</title>
<g id="a_Node000005"><a xlink:href="cmsis__test_8c.html" target="_top" xlink:title=" ">
<polygon fill="white" stroke="#666666" points="219,-189.5 142,-189.5 142,-170.5 219,-170.5 219,-189.5"/>
<text text-anchor="middle" x="180.5" y="-177.5" font-family="Helvetica,sans-Serif" font-size="10.00">cmsis_test.c</text>
</a>
</g>
</g>
<!-- Node1&#45;&gt;Node5 -->
<g id="edge4_Node000001_Node000005" class="edge">
<title>Node1&#45;&gt;Node5</title>
<g id="a_edge4_Node000001_Node000005"><a xlink:title=" ">
<path fill="none" stroke="#63b8ff" d="M1707.8,-239.69C1505.68,-240.52 526.49,-242.04 228.5,-195 220.95,-193.81 212.92,-191.78 205.64,-189.64"/>
<polygon fill="#63b8ff" stroke="#63b8ff" points="1707.91,-243.19 1717.9,-239.64 1707.88,-236.19 1707.91,-243.19"/>
</a>
</g>
</g>
<!-- Node6 -->
<g id="Node000006" class="node">
<title>Node6</title>
<g id="a_Node000006"><a xlink:href="custom__double__funcs__test_8c.html" target="_top" xlink:title=" ">
<polygon fill="white" stroke="#666666" points="359.5,-195 237.5,-195 237.5,-165 359.5,-165 359.5,-195"/>
<text text-anchor="start" x="245.5" y="-183" font-family="Helvetica,sans-Serif" font-size="10.00">custom_double_funcs</text>
<text text-anchor="middle" x="298.5" y="-172" font-family="Helvetica,sans-Serif" font-size="10.00">_test.c</text>
</a>
</g>
</g>
<!-- Node1&#45;&gt;Node6 -->
<g id="edge5_Node000001_Node000006" class="edge">
<title>Node1&#45;&gt;Node6</title>
<g id="a_edge5_Node000001_Node000006"><a xlink:title=" ">
<path fill="none" stroke="#63b8ff" d="M1707.67,-239.13C1516.82,-237.1 638.82,-226.19 368.5,-195 365.67,-194.67 362.78,-194.29 359.87,-193.87"/>
<polygon fill="#63b8ff" stroke="#63b8ff" points="1707.71,-242.63 1717.75,-239.24 1707.79,-235.63 1707.71,-242.63"/>
</a>
</g>
</g>
<!-- Node7 -->
<g id="Node000007" class="node">
<title>Node7</title>
<g id="a_Node000007"><a xlink:href="custom__float__funcs__test_8c.html" target="_top" xlink:title=" ">
<polygon fill="white" stroke="#666666" points="489.5,-195 377.5,-195 377.5,-165 489.5,-165 489.5,-195"/>
<text text-anchor="start" x="385.5" y="-183" font-family="Helvetica,sans-Serif" font-size="10.00">custom_float_funcs</text>
<text text-anchor="middle" x="433.5" y="-172" font-family="Helvetica,sans-Serif" font-size="10.00">_test.c</text>
</a>
</g>
</g>
<!-- Node1&#45;&gt;Node7 -->
<g id="edge6_Node000001_Node000007" class="edge">
<title>Node1&#45;&gt;Node7</title>
<g id="a_edge6_Node000001_Node000007"><a xlink:title=" ">
<path fill="none" stroke="#63b8ff" d="M1707.76,-239.06C1528.16,-236.79 741.48,-225.27 498.5,-195 495.64,-194.64 492.71,-194.22 489.77,-193.75"/>
<polygon fill="#63b8ff" stroke="#63b8ff" points="1707.72,-242.56 1717.76,-239.19 1707.8,-235.56 1707.72,-242.56"/>
</a>
</g>
</g>
<!-- Node8 -->
<g id="Node000008" class="node">
<title>Node8</title>
<g id="a_Node000008"><a xlink:href="cybt__shared__bus_8c.html" target="_top" xlink:title=" ">
<polygon fill="white" stroke="#666666" points="615,-189.5 508,-189.5 508,-170.5 615,-170.5 615,-189.5"/>
<text text-anchor="middle" x="561.5" y="-177.5" font-family="Helvetica,sans-Serif" font-size="10.00">cybt_shared_bus.c</text>
</a>
</g>
</g>
<!-- Node1&#45;&gt;Node8 -->
<g id="edge7_Node000001_Node000008" class="edge">
<title>Node1&#45;&gt;Node8</title>
<g id="a_edge7_Node000001_Node000008"><a xlink:title=" ">
<path fill="none" stroke="#63b8ff" d="M1707.46,-238.94C1538.55,-236.24 840.2,-223.52 623.5,-195 613.87,-193.73 603.54,-191.68 594.12,-189.54"/>
<polygon fill="#63b8ff" stroke="#63b8ff" points="1707.53,-242.44 1717.59,-239.1 1707.65,-235.44 1707.53,-242.44"/>
</a>
</g>
</g>
<!-- Node9 -->
<g id="Node000009" class="node">
<title>Node9</title>
<g id="a_Node000009"><a xlink:href="cyw43__arch_8c.html" target="_top" xlink:title=" ">
<polygon fill="white" stroke="#666666" points="716,-189.5 633,-189.5 633,-170.5 716,-170.5 716,-189.5"/>
<text text-anchor="middle" x="674.5" y="-177.5" font-family="Helvetica,sans-Serif" font-size="10.00">cyw43_arch.c</text>
</a>
</g>
</g>
<!-- Node1&#45;&gt;Node9 -->
<g id="edge8_Node000001_Node000009" class="edge">
<title>Node1&#45;&gt;Node9</title>
<g id="a_edge8_Node000001_Node000009"><a xlink:title=" ">
<path fill="none" stroke="#63b8ff" d="M1707.49,-239.02C1548.11,-236.79 919.56,-226.14 724.5,-195 716.67,-193.75 708.31,-191.7 700.72,-189.56"/>
<polygon fill="#63b8ff" stroke="#63b8ff" points="1707.68,-242.52 1717.72,-239.16 1707.77,-235.53 1707.68,-242.52"/>
</a>
</g>
</g>
<!-- Node10 -->
<g id="Node000010" class="node">
<title>Node10</title>
<g id="a_Node000010"><a xlink:href="cyw43__bus__pio__spi_8c.html" target="_top" xlink:title=" ">
<polygon fill="white" stroke="#666666" points="853,-189.5 734,-189.5 734,-170.5 853,-170.5 853,-189.5"/>
<text text-anchor="middle" x="793.5" y="-177.5" font-family="Helvetica,sans-Serif" font-size="10.00">cyw43_bus_pio_spi.c</text>
</a>
</g>
</g>
<!-- Node1&#45;&gt;Node10 -->
<g id="edge9_Node000001_Node000010" class="edge">
<title>Node1&#45;&gt;Node10</title>
<g id="a_edge9_Node000001_Node000010"><a xlink:title=" ">
<path fill="none" stroke="#63b8ff" d="M1707.38,-239.65C1585.6,-239.72 1187.4,-236.51 861.5,-195 851.1,-193.67 839.91,-191.63 829.68,-189.52"/>
<polygon fill="#63b8ff" stroke="#63b8ff" points="1707.64,-243.15 1717.64,-239.64 1707.63,-236.15 1707.64,-243.15"/>
</a>
</g>
</g>
<!-- Node11 -->
<g id="Node000011" class="node">
<title>Node11</title>
<g id="a_Node000011"><a xlink:href="hardware__irq__test_8c.html" target="_top" xlink:title=" ">
<polygon fill="white" stroke="#666666" points="984,-189.5 871,-189.5 871,-170.5 984,-170.5 984,-189.5"/>
<text text-anchor="middle" x="927.5" y="-177.5" font-family="Helvetica,sans-Serif" font-size="10.00">hardware_irq_test.c</text>
</a>
</g>
</g>
<!-- Node1&#45;&gt;Node11 -->
<g id="edge10_Node000001_Node000011" class="edge">
<title>Node1&#45;&gt;Node11</title>
<g id="a_edge10_Node000001_Node000011"><a xlink:title=" ">
<path fill="none" stroke="#63b8ff" d="M1707.57,-239.27C1598.09,-238.15 1265.95,-231.76 993.5,-195 983.52,-193.65 972.79,-191.63 962.95,-189.54"/>
<polygon fill="#63b8ff" stroke="#63b8ff" points="1707.72,-242.77 1717.75,-239.36 1707.79,-235.77 1707.72,-242.77"/>
</a>
</g>
</g>
<!-- Node12 -->
<g id="Node000012" class="node">
<title>Node12</title>
<g id="a_Node000012"><a xlink:href="hardware__pwm__test_8c.html" target="_top" xlink:title=" ">
<polygon fill="white" stroke="#666666" points="1126.5,-189.5 1002.5,-189.5 1002.5,-170.5 1126.5,-170.5 1126.5,-189.5"/>
<text text-anchor="middle" x="1064.5" y="-177.5" font-family="Helvetica,sans-Serif" font-size="10.00">hardware_pwm_test.c</text>
</a>
</g>
</g>
<!-- Node1&#45;&gt;Node12 -->
<g id="edge11_Node000001_Node000012" class="edge">
<title>Node1&#45;&gt;Node12</title>
<g id="a_edge11_Node000001_Node000012"><a xlink:title=" ">
<path fill="none" stroke="#63b8ff" d="M1707.73,-238.37C1612.69,-235.12 1351.23,-224.04 1135.5,-195 1125.04,-193.59 1113.8,-191.6 1103.42,-189.56"/>
<polygon fill="#63b8ff" stroke="#63b8ff" points="1707.86,-241.88 1717.97,-238.71 1708.09,-234.88 1707.86,-241.88"/>
</a>
</g>
</g>
<!-- Node13 -->
<g id="Node000013" class="node">
<title>Node13</title>
<g id="a_Node000013"><a xlink:href="kitchen__sink_8c.html" target="_top" xlink:title=" ">
<polygon fill="white" stroke="#666666" points="1230.5,-189.5 1144.5,-189.5 1144.5,-170.5 1230.5,-170.5 1230.5,-189.5"/>
<text text-anchor="middle" x="1187.5" y="-177.5" font-family="Helvetica,sans-Serif" font-size="10.00">kitchen_sink.c</text>
</a>
</g>
</g>
<!-- Node1&#45;&gt;Node13 -->
<g id="edge12_Node000001_Node000013" class="edge">
<title>Node1&#45;&gt;Node13</title>
<g id="a_edge12_Node000001_Node000013"><a xlink:title=" ">
<path fill="none" stroke="#63b8ff" d="M1708,-238.47C1624.46,-235.64 1413.2,-225.79 1239.5,-195 1231.68,-193.61 1223.31,-191.6 1215.63,-189.54"/>
<polygon fill="#63b8ff" stroke="#63b8ff" points="1707.89,-241.97 1718,-238.8 1708.12,-234.97 1707.89,-241.97"/>
</a>
</g>
</g>
<!-- Node15 -->
<g id="Node000015" class="node">
<title>Node15</title>
<g id="a_Node000015"><a xlink:href="lexer_8cpp.html" target="_top" xlink:title=" ">
<polygon fill="white" stroke="#666666" points="1310.5,-189.5 1248.5,-189.5 1248.5,-170.5 1310.5,-170.5 1310.5,-189.5"/>
<text text-anchor="middle" x="1279.5" y="-177.5" font-family="Helvetica,sans-Serif" font-size="10.00">lexer.cpp</text>
</a>
</g>
</g>
<!-- Node1&#45;&gt;Node15 -->
<g id="edge14_Node000001_Node000015" class="edge">
<title>Node1&#45;&gt;Node15</title>
<g id="a_edge14_Node000001_Node000015"><a xlink:title=" ">
<path fill="none" stroke="#63b8ff" d="M1707.55,-238.51C1633.21,-235.89 1460.6,-226.63 1319.5,-195 1313.47,-193.65 1307.09,-191.68 1301.24,-189.64"/>
<polygon fill="#63b8ff" stroke="#63b8ff" points="1707.68,-242.02 1717.79,-238.85 1707.92,-235.02 1707.68,-242.02"/>
</a>
</g>
</g>
<!-- Node16 -->
<g id="Node000016" class="node">
<title>Node16</title>
<g id="a_Node000016"><a xlink:href="m33_8c.html" target="_top" xlink:title=" ">
<polygon fill="white" stroke="#666666" points="1376,-189.5 1329,-189.5 1329,-170.5 1376,-170.5 1376,-189.5"/>
<text text-anchor="middle" x="1352.5" y="-177.5" font-family="Helvetica,sans-Serif" font-size="10.00">m33.c</text>
</a>
</g>
</g>
<!-- Node1&#45;&gt;Node16 -->
<g id="edge15_Node000001_Node000016" class="edge">
<title>Node1&#45;&gt;Node16</title>
<g id="a_edge15_Node000001_Node000016"><a xlink:title=" ">
<path fill="none" stroke="#63b8ff" d="M1707.8,-237.65C1642.96,-233.76 1504.23,-222.71 1390.5,-195 1384.76,-193.6 1378.7,-191.61 1373.14,-189.57"/>
<polygon fill="#63b8ff" stroke="#63b8ff" points="1707.74,-241.15 1717.93,-238.23 1708.14,-234.16 1707.74,-241.15"/>
</a>
</g>
</g>
<!-- Node17 -->
<g id="Node000017" class="node">
<title>Node17</title>
<g id="a_Node000017"><a xlink:href="main_8c.html" target="_top" xlink:title=" ">
<polygon fill="white" stroke="#666666" points="1496.5,-19 1446.5,-19 1446.5,0 1496.5,0 1496.5,-19"/>
<text text-anchor="middle" x="1471.5" y="-7" font-family="Helvetica,sans-Serif" font-size="10.00">main.c</text>
</a>
</g>
</g>
<!-- Node1&#45;&gt;Node17 -->
<g id="edge16_Node000001_Node000017" class="edge">
<title>Node1&#45;&gt;Node17</title>
<g id="a_edge16_Node000001_Node000017"><a xlink:title=" ">
<path fill="none" stroke="#63b8ff" d="M1707.82,-240.15C1631.58,-240.64 1460.03,-236.94 1423.5,-195 1376.76,-141.34 1442.39,-47.68 1464.6,-19.05"/>
<polygon fill="#63b8ff" stroke="#63b8ff" points="1707.96,-243.65 1717.92,-240.06 1707.89,-236.65 1707.96,-243.65"/>
</a>
</g>
</g>
<!-- Node18 -->
<g id="Node000018" class="node">
<title>Node18</title>
<g id="a_Node000018"><a xlink:href="malloc_8c.html" target="_top" xlink:title=" ">
<polygon fill="white" stroke="#666666" points="1490.5,-189.5 1432.5,-189.5 1432.5,-170.5 1490.5,-170.5 1490.5,-189.5"/>
<text text-anchor="middle" x="1461.5" y="-177.5" font-family="Helvetica,sans-Serif" font-size="10.00">malloc.c</text>
</a>
</g>
</g>
<!-- Node1&#45;&gt;Node18 -->
<g id="edge17_Node000001_Node000018" class="edge">
<title>Node1&#45;&gt;Node18</title>
<g id="a_edge17_Node000001_Node000018"><a xlink:title=" ">
<path fill="none" stroke="#63b8ff" d="M1707.71,-234.85C1659.39,-228.27 1572.16,-214.82 1499.5,-195 1493.94,-193.48 1488.04,-191.5 1482.59,-189.51"/>
<polygon fill="#63b8ff" stroke="#63b8ff" points="1707.32,-238.33 1717.7,-236.18 1708.25,-231.39 1707.32,-238.33"/>
</a>
</g>
</g>
<!-- Node19 -->
<g id="Node000019" class="node">
<title>Node19</title>
<g id="a_Node000019"><a xlink:href="oled_8c.html" target="_top" xlink:title=" ">
<polygon fill="white" stroke="#666666" points="1600.5,-19 1554.5,-19 1554.5,0 1600.5,0 1600.5,-19"/>
<text text-anchor="middle" x="1577.5" y="-7" font-family="Helvetica,sans-Serif" font-size="10.00">oled.c</text>
</a>
</g>
</g>
<!-- Node1&#45;&gt;Node19 -->
<g id="edge18_Node000001_Node000019" class="edge">
<title>Node1&#45;&gt;Node19</title>
<g id="a_edge18_Node000001_Node000019"><a xlink:title=" ">
<path fill="none" stroke="#63b8ff" d="M1781.35,-239.66C1987.64,-240.35 2991.74,-241.33 3036.5,-195 3045.76,-185.41 3045.42,-174.91 3036.5,-165 2935.93,-53.22 1779.63,-16.2 1600.7,-11.13"/>
<polygon fill="#63b8ff" stroke="#63b8ff" points="1781.06,-236.15 1771.05,-239.62 1781.04,-243.15 1781.06,-236.15"/>
</a>
</g>
</g>
<!-- Node20 -->
<g id="Node000020" class="node">
<title>Node20</title>
<g id="a_Node000020"><a xlink:href="pheap_8c.html" target="_top" xlink:title=" ">
<polygon fill="white" stroke="#666666" points="1668,-189.5 1613,-189.5 1613,-170.5 1668,-170.5 1668,-189.5"/>
<text text-anchor="middle" x="1640.5" y="-177.5" font-family="Helvetica,sans-Serif" font-size="10.00">pheap.c</text>
</a>
</g>
</g>
<!-- Node1&#45;&gt;Node20 -->
<g id="edge19_Node000001_Node000020" class="edge">
<title>Node1&#45;&gt;Node20</title>
<g id="a_edge19_Node000001_Node000020"><a xlink:title=" ">
<path fill="none" stroke="#63b8ff" d="M1720.36,-225.92C1700.49,-214.74 1672.91,-199.23 1655.91,-189.67"/>
<polygon fill="#63b8ff" stroke="#63b8ff" points="1718.72,-229.02 1729.15,-230.87 1722.15,-222.91 1718.72,-229.02"/>
</a>
</g>
</g>
<!-- Node21 -->
<g id="Node000021" class="node">
<title>Node21</title>
<g id="a_Node000021"><a xlink:href="pico__divider__nesting__test_8c.html" target="_top" xlink:title=" ">
<polygon fill="white" stroke="#666666" points="1803,-195 1686,-195 1686,-165 1803,-165 1803,-195"/>
<text text-anchor="start" x="1694" y="-183" font-family="Helvetica,sans-Serif" font-size="10.00">pico_divider_nesting</text>
<text text-anchor="middle" x="1744.5" y="-172" font-family="Helvetica,sans-Serif" font-size="10.00">_test.c</text>
</a>
</g>
</g>
<!-- Node1&#45;&gt;Node21 -->
<g id="edge20_Node000001_Node000021" class="edge">
<title>Node1&#45;&gt;Node21</title>
<g id="a_edge20_Node000001_Node000021"><a xlink:title=" ">
<path fill="none" stroke="#63b8ff" d="M1744.5,-220.65C1744.5,-212.36 1744.5,-202.78 1744.5,-195.11"/>
<polygon fill="#63b8ff" stroke="#63b8ff" points="1741,-220.87 1744.5,-230.87 1748,-220.87 1741,-220.87"/>
</a>
</g>
</g>
<!-- Node22 -->
<g id="Node000022" class="node">
<title>Node22</title>
<g id="a_Node000022"><a xlink:href="pico__divider__test_8c.html" target="_top" xlink:title=" ">
<polygon fill="white" stroke="#666666" points="1929.5,-189.5 1821.5,-189.5 1821.5,-170.5 1929.5,-170.5 1929.5,-189.5"/>
<text text-anchor="middle" x="1875.5" y="-177.5" font-family="Helvetica,sans-Serif" font-size="10.00">pico_divider_test.c</text>
</a>
</g>
</g>
<!-- Node1&#45;&gt;Node22 -->
<g id="edge21_Node000001_Node000022" class="edge">
<title>Node1&#45;&gt;Node22</title>
<g id="a_edge21_Node000001_Node000022"><a xlink:title=" ">
<path fill="none" stroke="#63b8ff" d="M1772.98,-226.78C1798.26,-215.49 1834.49,-199.31 1856.43,-189.52"/>
<polygon fill="#63b8ff" stroke="#63b8ff" points="1771.25,-223.72 1763.55,-230.99 1774.11,-230.11 1771.25,-223.72"/>
</a>
</g>
</g>
<!-- Node23 -->
<g id="Node000023" class="node">
<title>Node23</title>
<g id="a_Node000023"><a xlink:href="pico__double__test_8c.html" target="_top" xlink:title=" ">
<polygon fill="white" stroke="#666666" points="2055,-189.5 1948,-189.5 1948,-170.5 2055,-170.5 2055,-189.5"/>
<text text-anchor="middle" x="2001.5" y="-177.5" font-family="Helvetica,sans-Serif" font-size="10.00">pico_double_test.c</text>
</a>
</g>
</g>
<!-- Node1&#45;&gt;Node23 -->
<g id="edge22_Node000001_Node000023" class="edge">
<title>Node1&#45;&gt;Node23</title>
<g id="a_edge22_Node000001_Node000023"><a xlink:title=" ">
<path fill="none" stroke="#63b8ff" d="M1780.8,-231.24C1829.3,-220.2 1914.83,-200.73 1963.95,-189.55"/>
<polygon fill="#63b8ff" stroke="#63b8ff" points="1780.01,-227.83 1771.04,-233.46 1781.56,-234.65 1780.01,-227.83"/>
</a>
</g>
</g>
<!-- Node24 -->
<g id="Node000024" class="node">
<title>Node24</title>
<g id="a_Node000024"><a xlink:href="pico__float__test_8c.html" target="_top" xlink:title=" ">
<polygon fill="white" stroke="#666666" points="2170,-189.5 2073,-189.5 2073,-170.5 2170,-170.5 2170,-189.5"/>
<text text-anchor="middle" x="2121.5" y="-177.5" font-family="Helvetica,sans-Serif" font-size="10.00">pico_float_test.c</text>
</a>
</g>
</g>
<!-- Node1&#45;&gt;Node24 -->
<g id="edge23_Node000001_Node000024" class="edge">
<title>Node1&#45;&gt;Node24</title>
<g id="a_edge23_Node000001_Node000024"><a xlink:title=" ">
<path fill="none" stroke="#63b8ff" d="M1781.15,-235.57C1840.67,-228.93 1961.92,-214.3 2063.5,-195 2071.64,-193.45 2080.36,-191.51 2088.5,-189.56"/>
<polygon fill="#63b8ff" stroke="#63b8ff" points="1780.67,-232.11 1771.11,-236.68 1781.44,-239.06 1780.67,-232.11"/>
</a>
</g>
</g>
<!-- Node25 -->
<g id="Node000025" class="node">
<title>Node25</title>
<g id="a_Node000025"><a xlink:href="pico__float__test__hazard3_8c.html" target="_top" xlink:title=" ">
<polygon fill="white" stroke="#666666" points="2329,-189.5 2188,-189.5 2188,-170.5 2329,-170.5 2329,-189.5"/>
<text text-anchor="middle" x="2258.5" y="-177.5" font-family="Helvetica,sans-Serif" font-size="10.00">pico_float_test_hazard3.c</text>
</a>
</g>
</g>
<!-- Node1&#45;&gt;Node25 -->
<g id="edge24_Node000001_Node000025" class="edge">
<title>Node1&#45;&gt;Node25</title>
<g id="a_edge24_Node000001_Node000025"><a xlink:title=" ">
<path fill="none" stroke="#63b8ff" d="M1781.86,-236.57C1857.12,-230.47 2032.27,-215.27 2178.5,-195 2189.67,-193.45 2201.68,-191.5 2212.9,-189.56"/>
<polygon fill="#63b8ff" stroke="#63b8ff" points="1781.18,-233.11 1771.5,-237.4 1781.75,-240.09 1781.18,-233.11"/>
</a>
</g>
</g>
<!-- Node26 -->
<g id="Node000026" class="node">
<title>Node26</title>
<g id="a_Node000026"><a xlink:href="pico__sha256__test_8c.html" target="_top" xlink:title=" ">
<polygon fill="white" stroke="#666666" points="2457.5,-189.5 2347.5,-189.5 2347.5,-170.5 2457.5,-170.5 2457.5,-189.5"/>
<text text-anchor="middle" x="2402.5" y="-177.5" font-family="Helvetica,sans-Serif" font-size="10.00">pico_sha256_test.c</text>
</a>
</g>
</g>
<!-- Node1&#45;&gt;Node26 -->
<g id="edge25_Node000001_Node000026" class="edge">
<title>Node1&#45;&gt;Node26</title>
<g id="a_edge25_Node000001_Node000026"><a xlink:title=" ">
<path fill="none" stroke="#63b8ff" d="M1781.38,-238.54C1874.97,-235.71 2129.12,-225.59 2338.5,-195 2348.07,-193.6 2358.34,-191.59 2367.79,-189.52"/>
<polygon fill="#63b8ff" stroke="#63b8ff" points="1781.18,-235.04 1771.29,-238.83 1781.39,-242.04 1781.18,-235.04"/>
</a>
</g>
</g>
<!-- Node27 -->
<g id="Node000027" class="node">
<title>Node27</title>
<g id="a_Node000027"><a xlink:href="pico__stdio__test_8c.html" target="_top" xlink:title=" ">
<polygon fill="white" stroke="#666666" points="2573.5,-189.5 2475.5,-189.5 2475.5,-170.5 2573.5,-170.5 2573.5,-189.5"/>
<text text-anchor="middle" x="2524.5" y="-177.5" font-family="Helvetica,sans-Serif" font-size="10.00">pico_stdio_test.c</text>
</a>
</g>
</g>
<!-- Node1&#45;&gt;Node27 -->
<g id="edge26_Node000001_Node000027" class="edge">
<title>Node1&#45;&gt;Node27</title>
<g id="a_edge26_Node000001_Node000027"><a xlink:title=" ">
<path fill="none" stroke="#63b8ff" d="M1781.48,-239.5C1888.29,-239.01 2206.26,-234.12 2466.5,-195 2475.31,-193.68 2484.75,-191.66 2493.39,-189.57"/>
<polygon fill="#63b8ff" stroke="#63b8ff" points="1781.22,-236 1771.23,-239.54 1781.24,-243 1781.22,-236"/>
</a>
</g>
</g>
<!-- Node28 -->
<g id="Node000028" class="node">
<title>Node28</title>
<g id="a_Node000028"><a xlink:href="pico__stdlib__test_8c.html" target="_top" xlink:title=" ">
<polygon fill="white" stroke="#666666" points="2693,-189.5 2592,-189.5 2592,-170.5 2693,-170.5 2693,-189.5"/>
<text text-anchor="middle" x="2642.5" y="-177.5" font-family="Helvetica,sans-Serif" font-size="10.00">pico_stdlib_test.c</text>
</a>
</g>
</g>
<!-- Node1&#45;&gt;Node28 -->
<g id="edge27_Node000001_Node000028" class="edge">
<title>Node1&#45;&gt;Node28</title>
<g id="a_edge27_Node000001_Node000028"><a xlink:title=" ">
<path fill="none" stroke="#63b8ff" d="M1781.32,-239.85C1898.82,-240.47 2275.12,-238.67 2582.5,-195 2591.71,-193.69 2601.59,-191.65 2610.62,-189.54"/>
<polygon fill="#63b8ff" stroke="#63b8ff" points="1781.1,-236.35 1771.08,-239.79 1781.06,-243.35 1781.1,-236.35"/>
</a>
</g>
</g>
<!-- Node29 -->
<g id="Node000029" class="node">
<title>Node29</title>
<g id="a_Node000029"><a xlink:href="pico__time__test_8c.html" target="_top" xlink:title=" ">
<polygon fill="white" stroke="#666666" points="2808,-189.5 2711,-189.5 2711,-170.5 2808,-170.5 2808,-189.5"/>
<text text-anchor="middle" x="2759.5" y="-177.5" font-family="Helvetica,sans-Serif" font-size="10.00">pico_time_test.c</text>
</a>
</g>
</g>
<!-- Node1&#45;&gt;Node29 -->
<g id="edge28_Node000001_Node000029" class="edge">
<title>Node1&#45;&gt;Node29</title>
<g id="a_edge28_Node000001_Node000029"><a xlink:title=" ">
<path fill="none" stroke="#63b8ff" d="M1781.69,-238.74C1935.18,-235.45 2519.85,-221.42 2702.5,-195 2711.37,-193.72 2720.88,-191.66 2729.54,-189.52"/>
<polygon fill="#63b8ff" stroke="#63b8ff" points="1781.32,-235.25 1771.4,-238.96 1781.47,-242.24 1781.32,-235.25"/>
</a>
</g>
</g>
<!-- Node30 -->
<g id="Node000030" class="node">
<title>Node30</title>
<g id="a_Node000030"><a xlink:href="picolibc__interface_8c.html" target="_top" xlink:title=" ">
<polygon fill="white" stroke="#666666" points="2937,-189.5 2826,-189.5 2826,-170.5 2937,-170.5 2937,-189.5"/>
<text text-anchor="middle" x="2881.5" y="-177.5" font-family="Helvetica,sans-Serif" font-size="10.00">picolibc_interface.c</text>
</a>
</g>
</g>
<!-- Node1&#45;&gt;Node30 -->
<g id="edge29_Node000001_Node000030" class="edge">
<title>Node1&#45;&gt;Node30</title>
<g id="a_edge29_Node000001_Node000030"><a xlink:title=" ">
<path fill="none" stroke="#63b8ff" d="M1781.26,-238.83C1945.19,-235.73 2610.55,-221.72 2817.5,-195 2827.43,-193.72 2838.09,-191.66 2847.81,-189.52"/>
<polygon fill="#63b8ff" stroke="#63b8ff" points="1781.13,-235.34 1771.2,-239.02 1781.26,-242.33 1781.13,-235.34"/>
</a>
</g>
</g>
<!-- Node31 -->
<g id="Node000031" class="node">
<title>Node31</title>
<g id="a_Node000031"><a xlink:href="queue_8c.html" target="_top" xlink:title=" ">
<polygon fill="white" stroke="#666666" points="3010,-189.5 2955,-189.5 2955,-170.5 3010,-170.5 3010,-189.5"/>
<text text-anchor="middle" x="2982.5" y="-177.5" font-family="Helvetica,sans-Serif" font-size="10.00">queue.c</text>
</a>
</g>
</g>
<!-- Node1&#45;&gt;Node31 -->
<g id="edge30_Node000001_Node000031" class="edge">
<title>Node1&#45;&gt;Node31</title>
<g id="a_edge30_Node000001_Node000031"><a xlink:title=" ">
<path fill="none" stroke="#63b8ff" d="M1781.18,-239.78C1957.15,-240.89 2715.66,-242.74 2946.5,-195 2952.28,-193.8 2958.34,-191.78 2963.8,-189.63"/>
<polygon fill="#63b8ff" stroke="#63b8ff" points="1781.16,-236.28 1771.14,-239.72 1781.12,-243.28 1781.16,-236.28"/>
</a>
</g>
</g>
<!-- Node32 -->
<g id="Node000032" class="node">
<title>Node32</title>
<g id="a_Node000032"><a xlink:href="ssd1306__i2c_8c.html" target="_top" xlink:title=" ">
<polygon fill="white" stroke="#666666" points="2368,-129 2283,-129 2283,-110 2368,-110 2368,-129"/>
<text text-anchor="middle" x="2325.5" y="-117" font-family="Helvetica,sans-Serif" font-size="10.00">ssd1306_i2c.c</text>
</a>
</g>
</g>
<!-- Node1&#45;&gt;Node32 -->
<g id="edge31_Node000001_Node000032" class="edge">
<title>Node1&#45;&gt;Node32</title>
<g id="a_edge31_Node000001_Node000032"><a xlink:title=" ">
<path fill="none" stroke="#63b8ff" d="M1781.52,-239.64C1986.57,-240.23 2975.38,-240.69 3019.5,-195 3028.76,-185.41 3028.62,-174.73 3019.5,-165 2997.13,-141.15 2515.69,-125.8 2368.12,-121.64"/>
<polygon fill="#63b8ff" stroke="#63b8ff" points="1781.29,-236.14 1771.28,-239.61 1781.26,-243.14 1781.29,-236.14"/>
</a>
</g>
</g>
<!-- Node33 -->
<g id="Node000033" class="node">
<title>Node33</title>
<g id="a_Node000033"><a xlink:href="ssd1306__i2c_8h.html" target="_top" xlink:title=" ">
<polygon fill="white" stroke="#666666" points="1594.5,-189.5 1508.5,-189.5 1508.5,-170.5 1594.5,-170.5 1594.5,-189.5"/>
<text text-anchor="middle" x="1551.5" y="-177.5" font-family="Helvetica,sans-Serif" font-size="10.00">ssd1306_i2c.h</text>
</a>
</g>
</g>
<!-- Node1&#45;&gt;Node33 -->
<g id="edge32_Node000001_Node000033" class="edge">
<title>Node1&#45;&gt;Node33</title>
<g id="a_edge32_Node000001_Node000033"><a xlink:title=" ">
<path fill="none" stroke="#63b8ff" d="M1707.7,-228.35C1670.41,-217.04 1613.52,-199.8 1579.67,-189.54"/>
<polygon fill="#63b8ff" stroke="#63b8ff" points="1707.08,-231.81 1717.66,-231.37 1709.11,-225.12 1707.08,-231.81"/>
</a>
</g>
</g>
<!-- Node36 -->
<g id="Node000036" class="node">
<title>Node36</title>
<g id="a_Node000036"><a xlink:href="host_2pico__stdio_2stdio_8c.html" target="_top" xlink:title=" ">
<polygon fill="white" stroke="#666666" points="3154,-189.5 3105,-189.5 3105,-170.5 3154,-170.5 3154,-189.5"/>
<text text-anchor="middle" x="3129.5" y="-177.5" font-family="Helvetica,sans-Serif" font-size="10.00">stdio.c</text>
</a>
</g>
</g>
<!-- Node1&#45;&gt;Node36 -->
<g id="edge39_Node000001_Node000036" class="edge">
<title>Node1&#45;&gt;Node36</title>
<g id="a_edge39_Node000001_Node000036"><a xlink:title=" ">
<path fill="none" stroke="#63b8ff" d="M1781.15,-238.97C1983.4,-235.95 2958.87,-220.16 3090.5,-195 3096.72,-193.81 3103.27,-191.79 3109.19,-189.64"/>
<polygon fill="#63b8ff" stroke="#63b8ff" points="1780.99,-235.47 1771.04,-239.12 1781.09,-242.47 1780.99,-235.47"/>
</a>
</g>
</g>
<!-- Node37 -->
<g id="Node000037" class="node">
<title>Node37</title>
<g id="a_Node000037"><a xlink:href="rp2__common_2pico__stdlib_2stdlib_8c.html" target="_top" xlink:title=" ">
<polygon fill="white" stroke="#666666" points="3224.5,-189.5 3172.5,-189.5 3172.5,-170.5 3224.5,-170.5 3224.5,-189.5"/>
<text text-anchor="middle" x="3198.5" y="-177.5" font-family="Helvetica,sans-Serif" font-size="10.00">stdlib.c</text>
</a>
</g>
</g>
<!-- Node1&#45;&gt;Node37 -->
<g id="edge40_Node000001_Node000037" class="edge">
<title>Node1&#45;&gt;Node37</title>
<g id="a_edge40_Node000001_Node000037"><a xlink:title=" ">
<path fill="none" stroke="#63b8ff" d="M1781.14,-239.11C1989.91,-236.81 3024.77,-223.98 3163.5,-195 3169.27,-193.8 3175.3,-191.71 3180.71,-189.51"/>
<polygon fill="#63b8ff" stroke="#63b8ff" points="1780.97,-235.61 1771.01,-239.22 1781.05,-242.61 1780.97,-235.61"/>
</a>
</g>
</g>
<!-- Node38 -->
<g id="Node000038" class="node">
<title>Node38</title>
<g id="a_Node000038"><a xlink:href="host_2pico__stdlib_2stdlib_8c.html" target="_top" xlink:title=" ">
<polygon fill="white" stroke="#666666" points="3294.5,-189.5 3242.5,-189.5 3242.5,-170.5 3294.5,-170.5 3294.5,-189.5"/>
<text text-anchor="middle" x="3268.5" y="-177.5" font-family="Helvetica,sans-Serif" font-size="10.00">stdlib.c</text>
</a>
</g>
</g>
<!-- Node1&#45;&gt;Node38 -->
<g id="edge41_Node000001_Node000038" class="edge">
<title>Node1&#45;&gt;Node38</title>
<g id="a_edge41_Node000001_Node000038"><a xlink:title=" ">
<path fill="none" stroke="#63b8ff" d="M1781.24,-239.17C1996.28,-237.14 3087.53,-225.38 3233.5,-195 3239.27,-193.8 3245.3,-191.71 3250.71,-189.51"/>
<polygon fill="#63b8ff" stroke="#63b8ff" points="1781.07,-235.67 1771.1,-239.26 1781.13,-242.67 1781.07,-235.67"/>
</a>
</g>
</g>
<!-- Node39 -->
<g id="Node000039" class="node">
<title>Node39</title>
<g id="a_Node000039"><a xlink:href="time_8c.html" target="_top" xlink:title=" ">
<polygon fill="white" stroke="#666666" points="3360,-189.5 3313,-189.5 3313,-170.5 3360,-170.5 3360,-189.5"/>
<text text-anchor="middle" x="3336.5" y="-177.5" font-family="Helvetica,sans-Serif" font-size="10.00">time.c</text>
</a>
</g>
</g>
<!-- Node1&#45;&gt;Node39 -->
<g id="edge42_Node000001_Node000039" class="edge">
<title>Node1&#45;&gt;Node39</title>
<g id="a_edge42_Node000001_Node000039"><a xlink:title=" ">
<path fill="none" stroke="#63b8ff" d="M1781.21,-239.27C2002.17,-237.76 3150.59,-228.37 3303.5,-195 3308.97,-193.81 3314.68,-191.72 3319.77,-189.52"/>
<polygon fill="#63b8ff" stroke="#63b8ff" points="1781.09,-235.77 1771.11,-239.34 1781.14,-242.77 1781.09,-235.77"/>
</a>
</g>
</g>
<!-- Node3 -->
<g id="Node000003" class="node">
<title>Node3</title>
<g id="a_Node000003"><a xlink:href="SEGGER__RTT_8c.html" target="_top" xlink:title=" ">
<polygon fill="white" stroke="#666666" points="170,-129 83,-129 83,-110 170,-110 170,-129"/>
<text text-anchor="middle" x="126.5" y="-117" font-family="Helvetica,sans-Serif" font-size="10.00">SEGGER_RTT.c</text>
</a>
</g>
</g>
<!-- Node2&#45;&gt;Node3 -->
<g id="edge2_Node000002_Node000003" class="edge">
<title>Node2&#45;&gt;Node3</title>
<g id="a_edge2_Node000002_Node000003"><a xlink:title=" ">
<path fill="none" stroke="#63b8ff" d="M92.8,-162.45C101.5,-151.62 112.51,-137.91 119.54,-129.17"/>
<polygon fill="#63b8ff" stroke="#63b8ff" points="89.97,-160.38 86.44,-170.37 95.43,-164.76 89.97,-160.38"/>
</a>
</g>
</g>
<!-- Node4 -->
<g id="Node000004" class="node">
<title>Node4</title>
<g id="a_Node000004"><a xlink:href="stdio__rtt_8c.html" target="_top" xlink:title=" ">
<polygon fill="white" stroke="#666666" points="65,-129 0,-129 0,-110 65,-110 65,-129"/>
<text text-anchor="middle" x="32.5" y="-117" font-family="Helvetica,sans-Serif" font-size="10.00">stdio_rtt.c</text>
</a>
</g>
</g>
<!-- Node2&#45;&gt;Node4 -->
<g id="edge3_Node000002_Node000004" class="edge">
<title>Node2&#45;&gt;Node4</title>
<g id="a_edge3_Node000002_Node000004"><a xlink:title=" ">
<path fill="none" stroke="#63b8ff" d="M66.2,-162.45C57.5,-151.62 46.49,-137.91 39.46,-129.17"/>
<polygon fill="#63b8ff" stroke="#63b8ff" points="63.57,-164.76 72.56,-170.37 69.03,-160.38 63.57,-164.76"/>
</a>
</g>
</g>
<!-- Node14 -->
<g id="Node000014" class="node">
<title>Node14</title>
<g id="a_Node000014"><a xlink:href="kitchen__sink__cpp_8cpp.html" target="_top" xlink:title=" ">
<polygon fill="white" stroke="#666666" points="1248,-129 1127,-129 1127,-110 1248,-110 1248,-129"/>
<text text-anchor="middle" x="1187.5" y="-117" font-family="Helvetica,sans-Serif" font-size="10.00">kitchen_sink_cpp.cpp</text>
</a>
</g>
</g>
<!-- Node13&#45;&gt;Node14 -->
<g id="edge13_Node000013_Node000014" class="edge">
<title>Node13&#45;&gt;Node14</title>
<g id="a_edge13_Node000013_Node000014"><a xlink:title=" ">
<path fill="none" stroke="#63b8ff" d="M1187.5,-160.16C1187.5,-149.74 1187.5,-137.3 1187.5,-129.17"/>
<polygon fill="#63b8ff" stroke="#63b8ff" points="1184,-160.37 1187.5,-170.37 1191,-160.37 1184,-160.37"/>
</a>
</g>
</g>
<!-- Node33&#45;&gt;Node32 -->
<g id="edge38_Node000033_Node000032" class="edge">
<title>Node33&#45;&gt;Node32</title>
<g id="a_edge38_Node000033_Node000032"><a xlink:title=" ">
<path fill="none" stroke="#63b8ff" d="M1588.89,-167.97C1593.77,-166.82 1598.73,-165.78 1603.5,-165 1858.81,-123.2 2170.74,-119.86 2282.85,-120.15"/>
<polygon fill="#63b8ff" stroke="#63b8ff" points="1587.9,-164.61 1579.07,-170.47 1589.62,-171.4 1587.9,-164.61"/>
</a>
</g>
</g>
<!-- Node34 -->
<g id="Node000034" class="node">
<title>Node34</title>
<g id="a_Node000034"><a xlink:href="ssd1306_8h.html" target="_top" xlink:title=" ">
<polygon fill="white" stroke="#666666" points="1584.5,-129 1518.5,-129 1518.5,-110 1584.5,-110 1584.5,-129"/>
<text text-anchor="middle" x="1551.5" y="-117" font-family="Helvetica,sans-Serif" font-size="10.00">ssd1306.h</text>
</a>
</g>
</g>
<!-- Node33&#45;&gt;Node34 -->
<g id="edge33_Node000033_Node000034" class="edge">
<title>Node33&#45;&gt;Node34</title>
<g id="a_edge33_Node000033_Node000034"><a xlink:title=" ">
<path fill="none" stroke="#63b8ff" d="M1551.5,-160.16C1551.5,-149.74 1551.5,-137.3 1551.5,-129.17"/>
<polygon fill="#63b8ff" stroke="#63b8ff" points="1548,-160.37 1551.5,-170.37 1555,-160.37 1548,-160.37"/>
</a>
</g>
</g>
<!-- Node34&#45;&gt;Node19 -->
<g id="edge34_Node000034_Node000019" class="edge">
<title>Node34&#45;&gt;Node19</title>
<g id="a_edge34_Node000034_Node000019"><a xlink:title=" ">
<path fill="none" stroke="#63b8ff" d="M1556,-99.8C1561.68,-76.2 1571.22,-36.58 1575.42,-19.16"/>
<polygon fill="#63b8ff" stroke="#63b8ff" points="1552.57,-99.12 1553.63,-109.66 1559.37,-100.76 1552.57,-99.12"/>
</a>
</g>
</g>
<!-- Node35 -->
<g id="Node000035" class="node">
<title>Node35</title>
<g id="a_Node000035"><a xlink:href="oled_8h.html" target="_top" xlink:title=" ">
<polygon fill="white" stroke="#666666" points="1549,-74 1502,-74 1502,-55 1549,-55 1549,-74"/>
<text text-anchor="middle" x="1525.5" y="-62" font-family="Helvetica,sans-Serif" font-size="10.00">oled.h</text>
</a>
</g>
</g>
<!-- Node34&#45;&gt;Node35 -->
<g id="edge35_Node000034_Node000035" class="edge">
<title>Node34&#45;&gt;Node35</title>
<g id="a_edge35_Node000034_Node000035"><a xlink:title=" ">
<path fill="none" stroke="#63b8ff" d="M1542.68,-100.53C1538.3,-91.6 1533.21,-81.22 1529.71,-74.09"/>
<polygon fill="#63b8ff" stroke="#63b8ff" points="1539.66,-102.31 1547.21,-109.75 1545.94,-99.23 1539.66,-102.31"/>
</a>
</g>
</g>
<!-- Node35&#45;&gt;Node17 -->
<g id="edge36_Node000035_Node000017" class="edge">
<title>Node35&#45;&gt;Node17</title>
<g id="a_edge36_Node000035_Node000017"><a xlink:title=" ">
<path fill="none" stroke="#63b8ff" d="M1509.22,-47.52C1499.7,-38.18 1488.06,-26.75 1480.25,-19.09"/>
<polygon fill="#63b8ff" stroke="#63b8ff" points="1506.99,-50.24 1516.58,-54.75 1511.9,-45.25 1506.99,-50.24"/>
</a>
</g>
</g>
<!-- Node35&#45;&gt;Node19 -->
<g id="edge37_Node000035_Node000019" class="edge">
<title>Node35&#45;&gt;Node19</title>
<g id="a_edge37_Node000035_Node000019"><a xlink:title=" ">
<path fill="none" stroke="#63b8ff" d="M1541.18,-47.52C1550.34,-38.18 1561.55,-26.75 1569.07,-19.09"/>
<polygon fill="#63b8ff" stroke="#63b8ff" points="1538.59,-45.16 1534.09,-54.75 1543.59,-50.06 1538.59,-45.16"/>
</a>
</g>
</g>
</g>
</svg>
