<?xml version="1.0" encoding="UTF-8" standalone="no"?>
<!DOCTYPE svg PUBLIC "-//W3C//DTD SVG 1.1//EN"
 "http://www.w3.org/Graphics/SVG/1.1/DTD/svg11.dtd">
<!-- Generated by graphviz version 2.43.0 (0)
 -->
<!-- Title: _binary_info_named_group Pages: 1 -->
<svg width="118pt" height="224pt"
 viewBox="0.00 0.00 118.00 224.00" xmlns="http://www.w3.org/2000/svg" xmlns:xlink="http://www.w3.org/1999/xlink">
<g id="graph0" class="graph" transform="scale(1 1) rotate(0) translate(4 220)">
<title>_binary_info_named_group</title>
<!-- Node1 -->
<g id="Node000001" class="node">
<title>Node1</title>
<g id="a_Node000001"><a xlink:title=" ">
<polygon fill="#999999" stroke="transparent" points="110,-105 0,-105 0,0 110,0 110,-105"/>
<text text-anchor="start" x="5" y="-92.5" font-family="Helvetica,sans-Serif" font-size="10.00">_binary_info_named</text>
<text text-anchor="start" x="38" y="-81.5" font-family="Helvetica,sans-Serif" font-size="10.00">_group</text>
<text text-anchor="start" x="13.5" y="-66.5" font-family="Helvetica,sans-Serif" font-size="10.00">+</text>
<text text-anchor="start" x="36" y="-66.5" font-family="Helvetica,sans-Serif" font-size="10.00">flags</text>
<text text-anchor="start" x="13.5" y="-51.5" font-family="Helvetica,sans-Serif" font-size="10.00">+</text>
<text text-anchor="start" x="36" y="-51.5" font-family="Helvetica,sans-Serif" font-size="10.00">group_id</text>
<text text-anchor="start" x="13.5" y="-36.5" font-family="Helvetica,sans-Serif" font-size="10.00">+</text>
<text text-anchor="start" x="36" y="-36.5" font-family="Helvetica,sans-Serif" font-size="10.00">group_tag</text>
<text text-anchor="start" x="13.5" y="-21.5" font-family="Helvetica,sans-Serif" font-size="10.00">+</text>
<text text-anchor="start" x="36" y="-21.5" font-family="Helvetica,sans-Serif" font-size="10.00">parent_id</text>
<text text-anchor="start" x="13.5" y="-6.5" font-family="Helvetica,sans-Serif" font-size="10.00">+</text>
<text text-anchor="start" x="36" y="-6.5" font-family="Helvetica,sans-Serif" font-size="10.00">bi_ptr_of()</text>
<polygon fill="#666666" stroke="#666666" points="0,-76.5 0,-76.5 110,-76.5 110,-76.5 0,-76.5"/>
<polygon fill="#666666" stroke="#666666" points="0,-16.5 0,-16.5 34,-16.5 34,-16.5 0,-16.5"/>
<polygon fill="#666666" stroke="#666666" points="34,-16.5 34,-16.5 110,-16.5 110,-16.5 34,-16.5"/>
<polygon fill="none" stroke="#666666" points="0,0 0,-105 110,-105 110,0 0,0"/>
</a>
</g>
</g>
<!-- Node2 -->
<g id="Node000002" class="node">
<title>Node2</title>
<g id="a_Node000002"><a xlink:href="struct__binary__info__core.html" target="_top" xlink:title=" ">
<polygon fill="white" stroke="transparent" points="103.5,-216 6.5,-216 6.5,-152 103.5,-152 103.5,-216"/>
<text text-anchor="start" x="12" y="-204" font-family="Helvetica,sans-Serif" font-size="10.00">_binary_info_core</text>
<text text-anchor="start" x="24.5" y="-189" font-family="Helvetica,sans-Serif" font-size="10.00">+</text>
<text text-anchor="start" x="51" y="-189" font-family="Helvetica,sans-Serif" font-size="10.00">tag</text>
<text text-anchor="start" x="24.5" y="-174" font-family="Helvetica,sans-Serif" font-size="10.00">+</text>
<text text-anchor="start" x="51" y="-174" font-family="Helvetica,sans-Serif" font-size="10.00">type</text>
<text text-anchor="start" x="52" y="-159" font-family="Helvetica,sans-Serif" font-size="10.00"> </text>
<polygon fill="#666666" stroke="#666666" points="7,-199 7,-199 104,-199 104,-199 7,-199"/>
<polygon fill="#666666" stroke="#666666" points="7,-169 7,-169 49,-169 49,-169 7,-169"/>
<polygon fill="#666666" stroke="#666666" points="49,-169 49,-169 104,-169 104,-169 49,-169"/>
<polygon fill="none" stroke="#666666" points="6.5,-152 6.5,-216 103.5,-216 103.5,-152 6.5,-152"/>
</a>
</g>
</g>
<!-- Node2&#45;&gt;Node1 -->
<g id="edge1_Node000001_Node000002" class="edge">
<title>Node2&#45;&gt;Node1</title>
<g id="a_edge1_Node000001_Node000002"><a xlink:title=" ">
<path fill="none" stroke="#63b8ff" d="M55,-151.98C55,-141.49 55,-129.35 55,-117.26"/>
<polygon fill="none" stroke="#63b8ff" points="55,-117.25 51,-111.25 55,-105.25 59,-111.25 55,-117.25"/>
</a>
</g>
<text text-anchor="middle" x="71.5" y="-126" font-family="Helvetica,sans-Serif" font-size="10.00" fill="grey"> +core</text>
</g>
</g>
</svg>
