<?xml version="1.0" encoding="UTF-8" standalone="no"?>
<!DOCTYPE svg PUBLIC "-//W3C//DTD SVG 1.1//EN"
 "http://www.w3.org/Graphics/SVG/1.1/DTD/svg11.dtd">
<!-- Generated by graphviz version 2.43.0 (0)
 -->
<!-- Title: async_context_poll Pages: 1 -->
<svg width="651pt" height="581pt"
 viewBox="0.00 0.00 651.00 581.00" xmlns="http://www.w3.org/2000/svg" xmlns:xlink="http://www.w3.org/1999/xlink">
<g id="graph0" class="graph" transform="scale(1 1) rotate(0) translate(4 577)">
<title>async_context_poll</title>
<!-- Node1 -->
<g id="Node000001" class="node">
<title>Node1</title>
<g id="a_Node000001"><a xlink:title=" ">
<polygon fill="#999999" stroke="transparent" points="428,-49 324,-49 324,0 428,0 428,-49"/>
<text text-anchor="start" x="329" y="-36.5" font-family="Helvetica,sans-Serif" font-size="10.00">async_context_poll</text>
<text text-anchor="start" x="372.5" y="-21.5" font-family="Helvetica,sans-Serif" font-size="10.00"> </text>
<text text-anchor="start" x="372.5" y="-6.5" font-family="Helvetica,sans-Serif" font-size="10.00"> </text>
<polygon fill="#666666" stroke="#666666" points="324,-31.5 324,-31.5 428,-31.5 428,-31.5 324,-31.5"/>
<polygon fill="#666666" stroke="#666666" points="324,-16.5 324,-16.5 428,-16.5 428,-16.5 324,-16.5"/>
<polygon fill="none" stroke="#666666" points="324,0 324,-49 428,-49 428,0 324,0"/>
</a>
</g>
</g>
<!-- Node2 -->
<g id="Node000002" class="node">
<title>Node2</title>
<g id="a_Node000002"><a xlink:href="structasync__context.html" target="_top" xlink:title="Base structure type of all async_contexts.">
<polygon fill="white" stroke="transparent" points="365.5,-175 284.5,-175 284.5,-96 365.5,-96 365.5,-175"/>
<text text-anchor="start" x="290" y="-162.5" font-family="Helvetica,sans-Serif" font-size="10.00">async_context</text>
<text text-anchor="start" x="291.5" y="-147.5" font-family="Helvetica,sans-Serif" font-size="10.00">+</text>
<text text-anchor="start" x="307" y="-147.5" font-family="Helvetica,sans-Serif" font-size="10.00">core_num</text>
<text text-anchor="start" x="291.5" y="-132.5" font-family="Helvetica,sans-Serif" font-size="10.00">+</text>
<text text-anchor="start" x="307" y="-132.5" font-family="Helvetica,sans-Serif" font-size="10.00">flags</text>
<text text-anchor="start" x="291.5" y="-117.5" font-family="Helvetica,sans-Serif" font-size="10.00">+</text>
<text text-anchor="start" x="307" y="-117.5" font-family="Helvetica,sans-Serif" font-size="10.00">next_time</text>
<text text-anchor="start" x="322" y="-102.5" font-family="Helvetica,sans-Serif" font-size="10.00"> </text>
<polygon fill="#666666" stroke="#666666" points="285,-157.5 285,-157.5 366,-157.5 366,-157.5 285,-157.5"/>
<polygon fill="#666666" stroke="#666666" points="285,-112.5 285,-112.5 305,-112.5 305,-112.5 285,-112.5"/>
<polygon fill="#666666" stroke="#666666" points="305,-112.5 305,-112.5 366,-112.5 366,-112.5 305,-112.5"/>
<polygon fill="none" stroke="#666666" points="284.5,-96 284.5,-175 365.5,-175 365.5,-96 284.5,-96"/>
</a>
</g>
</g>
<!-- Node2&#45;&gt;Node1 -->
<g id="edge1_Node000001_Node000002" class="edge">
<title>Node2&#45;&gt;Node1</title>
<g id="a_edge1_Node000001_Node000002"><a xlink:title=" ">
<path fill="none" stroke="#63b8ff" d="M343.12,-95.76C348.52,-84.23 354.4,-71.66 359.68,-60.39"/>
<polygon fill="none" stroke="#63b8ff" points="359.82,-60.07 358.74,-52.94 364.91,-49.2 365.99,-56.33 359.82,-60.07"/>
</a>
</g>
<text text-anchor="middle" x="372.5" y="-70" font-family="Helvetica,sans-Serif" font-size="10.00" fill="grey"> +core</text>
</g>
<!-- Node3 -->
<g id="Node000003" class="node">
<title>Node3</title>
<g id="a_Node000003"><a xlink:href="structasync__context__type.html" target="_top" xlink:title="Implementation of an async_context type, providing methods common to that type.">
<polygon fill="white" stroke="transparent" points="154,-477 0,-477 0,-222 154,-222 154,-477"/>
<text text-anchor="start" x="28" y="-464.5" font-family="Helvetica,sans-Serif" font-size="10.00">async_context_type</text>
<text text-anchor="start" x="4" y="-449.5" font-family="Helvetica,sans-Serif" font-size="10.00">+</text>
<text text-anchor="start" x="17" y="-449.5" font-family="Helvetica,sans-Serif" font-size="10.00">acquire_lock_blocking</text>
<text text-anchor="start" x="4" y="-434.5" font-family="Helvetica,sans-Serif" font-size="10.00">+</text>
<text text-anchor="start" x="17" y="-434.5" font-family="Helvetica,sans-Serif" font-size="10.00">add_at_time_worker</text>
<text text-anchor="start" x="4" y="-419.5" font-family="Helvetica,sans-Serif" font-size="10.00">+</text>
<text text-anchor="start" x="17" y="-419.5" font-family="Helvetica,sans-Serif" font-size="10.00">add_when_pending_worker</text>
<text text-anchor="start" x="4" y="-404.5" font-family="Helvetica,sans-Serif" font-size="10.00">+</text>
<text text-anchor="start" x="17" y="-404.5" font-family="Helvetica,sans-Serif" font-size="10.00">deinit</text>
<text text-anchor="start" x="4" y="-389.5" font-family="Helvetica,sans-Serif" font-size="10.00">+</text>
<text text-anchor="start" x="17" y="-389.5" font-family="Helvetica,sans-Serif" font-size="10.00">execute_sync</text>
<text text-anchor="start" x="4" y="-374.5" font-family="Helvetica,sans-Serif" font-size="10.00">+</text>
<text text-anchor="start" x="17" y="-374.5" font-family="Helvetica,sans-Serif" font-size="10.00">lock_check</text>
<text text-anchor="start" x="4" y="-359.5" font-family="Helvetica,sans-Serif" font-size="10.00">+</text>
<text text-anchor="start" x="17" y="-359.5" font-family="Helvetica,sans-Serif" font-size="10.00">poll</text>
<text text-anchor="start" x="4" y="-344.5" font-family="Helvetica,sans-Serif" font-size="10.00">+</text>
<text text-anchor="start" x="17" y="-344.5" font-family="Helvetica,sans-Serif" font-size="10.00">release_lock</text>
<text text-anchor="start" x="4" y="-329.5" font-family="Helvetica,sans-Serif" font-size="10.00">+</text>
<text text-anchor="start" x="17" y="-329.5" font-family="Helvetica,sans-Serif" font-size="10.00">remove_at_time_worker</text>
<text text-anchor="start" x="4" y="-314.5" font-family="Helvetica,sans-Serif" font-size="10.00">+</text>
<text text-anchor="start" x="17" y="-314.5" font-family="Helvetica,sans-Serif" font-size="10.00">remove_when_pending</text>
<text text-anchor="start" x="17" y="-303.5" font-family="Helvetica,sans-Serif" font-size="10.00">_worker</text>
<text text-anchor="start" x="4" y="-288.5" font-family="Helvetica,sans-Serif" font-size="10.00">+</text>
<text text-anchor="start" x="17" y="-288.5" font-family="Helvetica,sans-Serif" font-size="10.00">set_work_pending</text>
<text text-anchor="start" x="4" y="-273.5" font-family="Helvetica,sans-Serif" font-size="10.00">+</text>
<text text-anchor="start" x="17" y="-273.5" font-family="Helvetica,sans-Serif" font-size="10.00">type</text>
<text text-anchor="start" x="4" y="-258.5" font-family="Helvetica,sans-Serif" font-size="10.00">+</text>
<text text-anchor="start" x="17" y="-258.5" font-family="Helvetica,sans-Serif" font-size="10.00">wait_for_work_until</text>
<text text-anchor="start" x="4" y="-243.5" font-family="Helvetica,sans-Serif" font-size="10.00">+</text>
<text text-anchor="start" x="17" y="-243.5" font-family="Helvetica,sans-Serif" font-size="10.00">wait_until</text>
<text text-anchor="start" x="73.5" y="-228.5" font-family="Helvetica,sans-Serif" font-size="10.00"> </text>
<polygon fill="#666666" stroke="#666666" points="0,-459.5 0,-459.5 154,-459.5 154,-459.5 0,-459.5"/>
<polygon fill="#666666" stroke="#666666" points="0,-238.5 0,-238.5 15,-238.5 15,-238.5 0,-238.5"/>
<polygon fill="#666666" stroke="#666666" points="15,-238.5 15,-238.5 154,-238.5 154,-238.5 15,-238.5"/>
<polygon fill="none" stroke="#666666" points="0,-222 0,-477 154,-477 154,-222 0,-222"/>
</a>
</g>
</g>
<!-- Node3&#45;&gt;Node2 -->
<g id="edge2_Node000002_Node000003" class="edge">
<title>Node3&#45;&gt;Node2</title>
<g id="a_edge2_Node000002_Node000003"><a xlink:title=" ">
<path fill="none" stroke="#63b8ff" d="M154.25,-230.31C157.11,-227.43 160.03,-224.66 163,-222 195.37,-193.05 239.31,-170.66 273.25,-156.06"/>
<polygon fill="none" stroke="#63b8ff" points="273.29,-156.05 277.27,-150.04 284.35,-151.41 280.36,-157.42 273.29,-156.05"/>
</a>
</g>
<text text-anchor="middle" x="216" y="-196" font-family="Helvetica,sans-Serif" font-size="10.00" fill="grey"> +type</text>
</g>
<!-- Node4 -->
<g id="Node000004" class="node">
<title>Node4</title>
<g id="a_Node000004"><a xlink:href="structasync__when__pending__worker.html" target="_top" xlink:title="A &quot;worker&quot; instance used by an async_context.">
<polygon fill="white" stroke="transparent" points="287.5,-394.5 172.5,-394.5 172.5,-304.5 287.5,-304.5 287.5,-394.5"/>
<text text-anchor="start" x="178" y="-382.5" font-family="Helvetica,sans-Serif" font-size="10.00">async_when_pending</text>
<text text-anchor="start" x="211" y="-371.5" font-family="Helvetica,sans-Serif" font-size="10.00">_worker</text>
<text text-anchor="start" x="183" y="-356.5" font-family="Helvetica,sans-Serif" font-size="10.00">+</text>
<text text-anchor="start" x="202" y="-356.5" font-family="Helvetica,sans-Serif" font-size="10.00">do_work</text>
<text text-anchor="start" x="183" y="-341.5" font-family="Helvetica,sans-Serif" font-size="10.00">+</text>
<text text-anchor="start" x="202" y="-341.5" font-family="Helvetica,sans-Serif" font-size="10.00">user_data</text>
<text text-anchor="start" x="183" y="-326.5" font-family="Helvetica,sans-Serif" font-size="10.00">+</text>
<text text-anchor="start" x="202" y="-326.5" font-family="Helvetica,sans-Serif" font-size="10.00">work_pending</text>
<text text-anchor="start" x="227" y="-311.5" font-family="Helvetica,sans-Serif" font-size="10.00"> </text>
<polygon fill="#666666" stroke="#666666" points="173,-366.5 173,-366.5 288,-366.5 288,-366.5 173,-366.5"/>
<polygon fill="#666666" stroke="#666666" points="173,-321.5 173,-321.5 200,-321.5 200,-321.5 173,-321.5"/>
<polygon fill="#666666" stroke="#666666" points="200,-321.5 200,-321.5 288,-321.5 288,-321.5 200,-321.5"/>
<polygon fill="none" stroke="#666666" points="172.5,-304.5 172.5,-394.5 287.5,-394.5 287.5,-304.5 172.5,-304.5"/>
</a>
</g>
</g>
<!-- Node4&#45;&gt;Node2 -->
<g id="edge3_Node000002_Node000004" class="edge">
<title>Node4&#45;&gt;Node2</title>
<g id="a_edge3_Node000002_Node000004"><a xlink:title=" ">
<path fill="none" stroke="#63b8ff" d="M239.69,-304.23C247.77,-272.15 261.05,-228.37 280,-193 281.42,-190.34 282.98,-187.68 284.63,-185.05"/>
<polygon fill="none" stroke="#63b8ff" points="284.66,-185 284.69,-177.79 291.36,-175.05 291.33,-182.26 284.66,-185"/>
</a>
</g>
<text text-anchor="middle" x="331.5" y="-196" font-family="Helvetica,sans-Serif" font-size="10.00" fill="grey"> +when_pending_list</text>
</g>
<!-- Node4&#45;&gt;Node4 -->
<g id="edge4_Node000004_Node000004" class="edge">
<title>Node4&#45;&gt;Node4</title>
<g id="a_edge4_Node000004_Node000004"><a xlink:title=" ">
<path fill="none" stroke="#63b8ff" d="M287.61,-376.08C298.12,-372.72 305.5,-363.86 305.5,-349.5 305.5,-340.75 302.76,-334.04 298.24,-329.38"/>
<polygon fill="none" stroke="#63b8ff" points="297.86,-329.15 290.66,-329.45 287.61,-322.92 294.81,-322.62 297.86,-329.15"/>
</a>
</g>
<text text-anchor="middle" x="322.5" y="-347" font-family="Helvetica,sans-Serif" font-size="10.00" fill="grey"> +next</text>
</g>
<!-- Node5 -->
<g id="Node000005" class="node">
<title>Node5</title>
<g id="a_Node000005"><a xlink:href="structasync__work__on__timeout.html" target="_top" xlink:title="A &quot;timeout&quot; instance used by an async_context.">
<polygon fill="white" stroke="transparent" points="486.5,-389 357.5,-389 357.5,-310 486.5,-310 486.5,-389"/>
<text text-anchor="start" x="363" y="-376.5" font-family="Helvetica,sans-Serif" font-size="10.00">async_work_on_timeout</text>
<text text-anchor="start" x="376.5" y="-361.5" font-family="Helvetica,sans-Serif" font-size="10.00">+</text>
<text text-anchor="start" x="404" y="-361.5" font-family="Helvetica,sans-Serif" font-size="10.00">do_work</text>
<text text-anchor="start" x="376.5" y="-346.5" font-family="Helvetica,sans-Serif" font-size="10.00">+</text>
<text text-anchor="start" x="404" y="-346.5" font-family="Helvetica,sans-Serif" font-size="10.00">next_time</text>
<text text-anchor="start" x="376.5" y="-331.5" font-family="Helvetica,sans-Serif" font-size="10.00">+</text>
<text text-anchor="start" x="404" y="-331.5" font-family="Helvetica,sans-Serif" font-size="10.00">user_data</text>
<text text-anchor="start" x="419" y="-316.5" font-family="Helvetica,sans-Serif" font-size="10.00"> </text>
<polygon fill="#666666" stroke="#666666" points="358,-371.5 358,-371.5 487,-371.5 487,-371.5 358,-371.5"/>
<polygon fill="#666666" stroke="#666666" points="358,-326.5 358,-326.5 402,-326.5 402,-326.5 358,-326.5"/>
<polygon fill="#666666" stroke="#666666" points="402,-326.5 402,-326.5 487,-326.5 487,-326.5 402,-326.5"/>
<polygon fill="none" stroke="#666666" points="357.5,-310 357.5,-389 486.5,-389 486.5,-310 357.5,-310"/>
</a>
</g>
</g>
<!-- Node5&#45;&gt;Node2 -->
<g id="edge5_Node000002_Node000005" class="edge">
<title>Node5&#45;&gt;Node2</title>
<g id="a_edge5_Node000002_Node000005"><a xlink:title=" ">
<path fill="none" stroke="#63b8ff" d="M418.28,-309.87C413.76,-276.98 403.96,-229.43 383,-193 380.32,-188.35 377.16,-183.83 373.71,-179.51"/>
<polygon fill="none" stroke="#63b8ff" points="373.65,-179.44 366.69,-177.53 365.78,-170.38 372.73,-172.29 373.65,-179.44"/>
</a>
</g>
<text text-anchor="middle" x="422" y="-196" font-family="Helvetica,sans-Serif" font-size="10.00" fill="grey"> +at_time_list</text>
</g>
<!-- Node5&#45;&gt;Node5 -->
<g id="edge6_Node000005_Node000005" class="edge">
<title>Node5&#45;&gt;Node5</title>
<g id="a_edge6_Node000005_Node000005"><a xlink:title=" ">
<path fill="none" stroke="#63b8ff" d="M486.68,-375.52C497.24,-371.8 504.5,-363.12 504.5,-349.5 504.5,-340.99 501.66,-334.4 496.96,-329.76"/>
<polygon fill="none" stroke="#63b8ff" points="496.92,-329.73 489.72,-330.02 486.68,-323.48 493.89,-323.19 496.92,-329.73"/>
</a>
</g>
<text text-anchor="middle" x="521.5" y="-347" font-family="Helvetica,sans-Serif" font-size="10.00" fill="grey"> +next</text>
</g>
<!-- Node6 -->
<g id="Node000006" class="node">
<title>Node6</title>
<g id="a_Node000006"><a xlink:href="structsemaphore.html" target="_top" xlink:title=" ">
<polygon fill="white" stroke="transparent" points="531,-167.5 445,-167.5 445,-103.5 531,-103.5 531,-167.5"/>
<text text-anchor="start" x="460.5" y="-155.5" font-family="Helvetica,sans-Serif" font-size="10.00">semaphore</text>
<text text-anchor="start" x="449" y="-140.5" font-family="Helvetica,sans-Serif" font-size="10.00">+</text>
<text text-anchor="start" x="462" y="-140.5" font-family="Helvetica,sans-Serif" font-size="10.00">max_permits</text>
<text text-anchor="start" x="449" y="-125.5" font-family="Helvetica,sans-Serif" font-size="10.00">+</text>
<text text-anchor="start" x="462" y="-125.5" font-family="Helvetica,sans-Serif" font-size="10.00">permits</text>
<text text-anchor="start" x="484.5" y="-110.5" font-family="Helvetica,sans-Serif" font-size="10.00"> </text>
<polygon fill="#666666" stroke="#666666" points="445,-150.5 445,-150.5 531,-150.5 531,-150.5 445,-150.5"/>
<polygon fill="#666666" stroke="#666666" points="445,-120.5 445,-120.5 460,-120.5 460,-120.5 445,-120.5"/>
<polygon fill="#666666" stroke="#666666" points="460,-120.5 460,-120.5 531,-120.5 531,-120.5 460,-120.5"/>
<polygon fill="none" stroke="#666666" points="445,-103.5 445,-167.5 531,-167.5 531,-103.5 445,-103.5"/>
</a>
</g>
</g>
<!-- Node6&#45;&gt;Node1 -->
<g id="edge7_Node000001_Node000006" class="edge">
<title>Node6&#45;&gt;Node1</title>
<g id="a_edge7_Node000001_Node000006"><a xlink:title=" ">
<path fill="none" stroke="#63b8ff" d="M455.91,-103.26C441.24,-88.99 423.88,-72.09 409.09,-57.7"/>
<polygon fill="none" stroke="#63b8ff" points="408.86,-57.48 401.77,-56.17 400.26,-49.11 407.35,-50.43 408.86,-57.48"/>
</a>
</g>
<text text-anchor="middle" x="444.5" y="-70" font-family="Helvetica,sans-Serif" font-size="10.00" fill="grey"> +sem</text>
</g>
<!-- Node7 -->
<g id="Node000007" class="node">
<title>Node7</title>
<g id="a_Node000007"><a xlink:href="structlock__core.html" target="_top" xlink:title=" ">
<polygon fill="white" stroke="transparent" points="613.5,-374 556.5,-374 556.5,-325 613.5,-325 613.5,-374"/>
<text text-anchor="start" x="562" y="-361.5" font-family="Helvetica,sans-Serif" font-size="10.00">lock_core</text>
<text text-anchor="start" x="582" y="-346.5" font-family="Helvetica,sans-Serif" font-size="10.00"> </text>
<text text-anchor="start" x="582" y="-331.5" font-family="Helvetica,sans-Serif" font-size="10.00"> </text>
<polygon fill="#666666" stroke="#666666" points="557,-356.5 557,-356.5 614,-356.5 614,-356.5 557,-356.5"/>
<polygon fill="#666666" stroke="#666666" points="557,-341.5 557,-341.5 614,-341.5 614,-341.5 557,-341.5"/>
<polygon fill="none" stroke="#666666" points="556.5,-325 556.5,-374 613.5,-374 613.5,-325 556.5,-325"/>
</a>
</g>
</g>
<!-- Node7&#45;&gt;Node6 -->
<g id="edge8_Node000006_Node000007" class="edge">
<title>Node7&#45;&gt;Node6</title>
<g id="a_edge8_Node000006_Node000007"><a xlink:title=" ">
<path fill="none" stroke="#63b8ff" d="M580.5,-324.81C575,-298.74 564.36,-256.03 548,-222 540.67,-206.76 530.72,-191.28 521.04,-177.76"/>
<polygon fill="none" stroke="#63b8ff" points="520.84,-177.5 514.06,-175.04 513.73,-167.84 520.5,-170.29 520.84,-177.5"/>
</a>
</g>
<text text-anchor="middle" x="553.5" y="-196" font-family="Helvetica,sans-Serif" font-size="10.00" fill="grey"> +core</text>
</g>
<!-- Node8 -->
<g id="Node000008" class="node">
<title>Node8</title>
<g id="a_Node000008"><a xlink:title=" ">
<polygon fill="white" stroke="transparent" points="620.5,-573 549.5,-573 549.5,-524 620.5,-524 620.5,-573"/>
<text text-anchor="start" x="555" y="-560.5" font-family="Helvetica,sans-Serif" font-size="10.00">_spin_lock_t</text>
<text text-anchor="start" x="558.5" y="-545.5" font-family="Helvetica,sans-Serif" font-size="10.00">+</text>
<text text-anchor="start" x="576" y="-545.5" font-family="Helvetica,sans-Serif" font-size="10.00">locked</text>
<text text-anchor="start" x="582" y="-530.5" font-family="Helvetica,sans-Serif" font-size="10.00"> </text>
<polygon fill="#666666" stroke="#666666" points="550,-555.5 550,-555.5 621,-555.5 621,-555.5 550,-555.5"/>
<polygon fill="#666666" stroke="#666666" points="550,-540.5 550,-540.5 574,-540.5 574,-540.5 550,-540.5"/>
<polygon fill="#666666" stroke="#666666" points="574,-540.5 574,-540.5 621,-540.5 621,-540.5 574,-540.5"/>
<polygon fill="none" stroke="#666666" points="549.5,-524 549.5,-573 620.5,-573 620.5,-524 549.5,-524"/>
</a>
</g>
</g>
<!-- Node8&#45;&gt;Node7 -->
<g id="edge9_Node000007_Node000008" class="edge">
<title>Node8&#45;&gt;Node7</title>
<g id="a_edge9_Node000007_Node000008"><a xlink:title=" ">
<path fill="none" stroke="#63b8ff" d="M585,-523.74C585,-489.48 585,-425.96 585,-386.09"/>
<polygon fill="none" stroke="#63b8ff" points="585,-386.04 581,-380.04 585,-374.04 589,-380.04 585,-386.04"/>
</a>
</g>
<text text-anchor="middle" x="614" y="-498" font-family="Helvetica,sans-Serif" font-size="10.00" fill="grey"> +spin_lock</text>
</g>
</g>
</svg>
