<?xml version="1.0" encoding="UTF-8" standalone="no"?>
<!DOCTYPE svg PUBLIC "-//W3C//DTD SVG 1.1//EN"
 "http://www.w3.org/Graphics/SVG/1.1/DTD/svg11.dtd">
<!-- Generated by graphviz version 2.43.0 (0)
 -->
<!-- Title: _binary_info_pins_with_func Pages: 1 -->
<svg width="157pt" height="168pt"
 viewBox="0.00 0.00 157.00 168.00" xmlns="http://www.w3.org/2000/svg" xmlns:xlink="http://www.w3.org/1999/xlink">
<g id="graph0" class="graph" transform="scale(1 1) rotate(0) translate(4 164)">
<title>_binary_info_pins_with_func</title>
<!-- Node1 -->
<g id="Node000001" class="node">
<title>Node1</title>
<g id="a_Node000001"><a xlink:title=" ">
<polygon fill="#999999" stroke="transparent" points="149,-49 0,-49 0,0 149,0 149,-49"/>
<text text-anchor="start" x="5.5" y="-36.5" font-family="Helvetica,sans-Serif" font-size="10.00">_binary_info_pins_with_func</text>
<text text-anchor="start" x="20" y="-21.5" font-family="Helvetica,sans-Serif" font-size="10.00">+</text>
<text text-anchor="start" x="48.5" y="-21.5" font-family="Helvetica,sans-Serif" font-size="10.00">pin_encoding</text>
<text text-anchor="start" x="71.5" y="-6.5" font-family="Helvetica,sans-Serif" font-size="10.00"> </text>
<polygon fill="#666666" stroke="#666666" points="0.5,-31.5 0.5,-31.5 149.5,-31.5 149.5,-31.5 0.5,-31.5"/>
<polygon fill="#666666" stroke="#666666" points="0.5,-16.5 0.5,-16.5 46.5,-16.5 46.5,-16.5 0.5,-16.5"/>
<polygon fill="#666666" stroke="#666666" points="46.5,-16.5 46.5,-16.5 149.5,-16.5 149.5,-16.5 46.5,-16.5"/>
<polygon fill="none" stroke="#666666" points="0,0 0,-49 149,-49 149,0 0,0"/>
</a>
</g>
</g>
<!-- Node2 -->
<g id="Node000002" class="node">
<title>Node2</title>
<g id="a_Node000002"><a xlink:href="struct__binary__info__core.html" target="_top" xlink:title=" ">
<polygon fill="white" stroke="transparent" points="123,-160 26,-160 26,-96 123,-96 123,-160"/>
<text text-anchor="start" x="31.5" y="-148" font-family="Helvetica,sans-Serif" font-size="10.00">_binary_info_core</text>
<text text-anchor="start" x="44" y="-133" font-family="Helvetica,sans-Serif" font-size="10.00">+</text>
<text text-anchor="start" x="70.5" y="-133" font-family="Helvetica,sans-Serif" font-size="10.00">tag</text>
<text text-anchor="start" x="44" y="-118" font-family="Helvetica,sans-Serif" font-size="10.00">+</text>
<text text-anchor="start" x="70.5" y="-118" font-family="Helvetica,sans-Serif" font-size="10.00">type</text>
<text text-anchor="start" x="71.5" y="-103" font-family="Helvetica,sans-Serif" font-size="10.00"> </text>
<polygon fill="#666666" stroke="#666666" points="26.5,-143 26.5,-143 123.5,-143 123.5,-143 26.5,-143"/>
<polygon fill="#666666" stroke="#666666" points="26.5,-113 26.5,-113 68.5,-113 68.5,-113 26.5,-113"/>
<polygon fill="#666666" stroke="#666666" points="68.5,-113 68.5,-113 123.5,-113 123.5,-113 68.5,-113"/>
<polygon fill="none" stroke="#666666" points="26,-96 26,-160 123,-160 123,-96 26,-96"/>
</a>
</g>
</g>
<!-- Node2&#45;&gt;Node1 -->
<g id="edge1_Node000001_Node000002" class="edge">
<title>Node2&#45;&gt;Node1</title>
<g id="a_edge1_Node000001_Node000002"><a xlink:title=" ">
<path fill="none" stroke="#63b8ff" d="M74.5,-96C74.5,-85.07 74.5,-72.69 74.5,-61.39"/>
<polygon fill="none" stroke="#63b8ff" points="74.5,-61.23 70.5,-55.23 74.5,-49.23 78.5,-55.23 74.5,-61.23"/>
</a>
</g>
<text text-anchor="middle" x="91" y="-70" font-family="Helvetica,sans-Serif" font-size="10.00" fill="grey"> +core</text>
</g>
</g>
</svg>
