<?xml version="1.0" encoding="UTF-8" standalone="no"?>
<!DOCTYPE svg PUBLIC "-//W3C//DTD SVG 1.1//EN"
 "http://www.w3.org/Graphics/SVG/1.1/DTD/svg11.dtd">
<!-- Generated by graphviz version 2.43.0 (0)
 -->
<!-- Title: pico_sha256_state Pages: 1 -->
<svg width="128pt" height="258pt"
 viewBox="0.00 0.00 128.00 258.00" xmlns="http://www.w3.org/2000/svg" xmlns:xlink="http://www.w3.org/1999/xlink">
<g id="graph0" class="graph" transform="scale(1 1) rotate(0) translate(4 254)">
<title>pico_sha256_state</title>
<!-- Node1 -->
<g id="Node000001" class="node">
<title>Node1</title>
<g id="a_Node000001"><a xlink:title="SHA&#45;256 state used by the API.">
<polygon fill="#999999" stroke="transparent" points="110.5,-154 9.5,-154 9.5,0 110.5,0 110.5,-154"/>
<text text-anchor="start" x="15" y="-142" font-family="Helvetica,sans-Serif" font-size="10.00">pico_sha256_state</text>
<text text-anchor="start" x="15" y="-127" font-family="Helvetica,sans-Serif" font-size="10.00">+</text>
<text text-anchor="start" x="29" y="-127" font-family="Helvetica,sans-Serif" font-size="10.00">bytes</text>
<text text-anchor="start" x="15" y="-112" font-family="Helvetica,sans-Serif" font-size="10.00">+</text>
<text text-anchor="start" x="29" y="-112" font-family="Helvetica,sans-Serif" font-size="10.00">cache</text>
<text text-anchor="start" x="15" y="-97" font-family="Helvetica,sans-Serif" font-size="10.00">+</text>
<text text-anchor="start" x="29" y="-97" font-family="Helvetica,sans-Serif" font-size="10.00">cache_used</text>
<text text-anchor="start" x="15" y="-82" font-family="Helvetica,sans-Serif" font-size="10.00">+</text>
<text text-anchor="start" x="29" y="-82" font-family="Helvetica,sans-Serif" font-size="10.00">channel</text>
<text text-anchor="start" x="15" y="-67" font-family="Helvetica,sans-Serif" font-size="10.00">+</text>
<text text-anchor="start" x="29" y="-67" font-family="Helvetica,sans-Serif" font-size="10.00">endianness</text>
<text text-anchor="start" x="15" y="-52" font-family="Helvetica,sans-Serif" font-size="10.00">+</text>
<text text-anchor="start" x="29" y="-52" font-family="Helvetica,sans-Serif" font-size="10.00">locked</text>
<text text-anchor="start" x="15" y="-37" font-family="Helvetica,sans-Serif" font-size="10.00">+</text>
<text text-anchor="start" x="29" y="-37" font-family="Helvetica,sans-Serif" font-size="10.00">total_data_size</text>
<text text-anchor="start" x="15" y="-22" font-family="Helvetica,sans-Serif" font-size="10.00">+</text>
<text text-anchor="start" x="29" y="-22" font-family="Helvetica,sans-Serif" font-size="10.00">word</text>
<text text-anchor="start" x="57" y="-7" font-family="Helvetica,sans-Serif" font-size="10.00"> </text>
<polygon fill="#666666" stroke="#666666" points="10,-137 10,-137 111,-137 111,-137 10,-137"/>
<polygon fill="#666666" stroke="#666666" points="10,-17 10,-17 27,-17 27,-17 10,-17"/>
<polygon fill="#666666" stroke="#666666" points="27,-17 27,-17 111,-17 111,-17 27,-17"/>
<polygon fill="none" stroke="#666666" points="9.5,0 9.5,-154 110.5,-154 110.5,0 9.5,0"/>
</a>
</g>
</g>
<!-- Node2 -->
<g id="Node000002" class="node">
<title>Node2</title>
<g id="a_Node000002"><a xlink:href="structdma__channel__config__t.html" target="_top" xlink:title="Opaque representation of a DMA channel configuration that can be later applied to a hardware DMA chan...">
<polygon fill="white" stroke="transparent" points="120,-250 0,-250 0,-201 120,-201 120,-250"/>
<text text-anchor="start" x="5" y="-237.5" font-family="Helvetica,sans-Serif" font-size="10.00">dma_channel_config_t</text>
<text text-anchor="start" x="24.5" y="-222.5" font-family="Helvetica,sans-Serif" font-size="10.00">+</text>
<text text-anchor="start" x="58" y="-222.5" font-family="Helvetica,sans-Serif" font-size="10.00">ctrl</text>
<text text-anchor="start" x="56.5" y="-207.5" font-family="Helvetica,sans-Serif" font-size="10.00"> </text>
<polygon fill="#666666" stroke="#666666" points="0,-232.5 0,-232.5 120,-232.5 120,-232.5 0,-232.5"/>
<polygon fill="#666666" stroke="#666666" points="0,-217.5 0,-217.5 56,-217.5 56,-217.5 0,-217.5"/>
<polygon fill="#666666" stroke="#666666" points="56,-217.5 56,-217.5 120,-217.5 120,-217.5 56,-217.5"/>
<polygon fill="none" stroke="#666666" points="0,-201 0,-250 120,-250 120,-201 0,-201"/>
</a>
</g>
</g>
<!-- Node2&#45;&gt;Node1 -->
<g id="edge1_Node000001_Node000002" class="edge">
<title>Node2&#45;&gt;Node1</title>
<g id="a_edge1_Node000001_Node000002"><a xlink:title=" ">
<path fill="none" stroke="#63b8ff" d="M60,-200.96C60,-191.16 60,-179.1 60,-166.4"/>
<polygon fill="none" stroke="#63b8ff" points="60,-166.09 56,-160.09 60,-154.09 64,-160.09 60,-166.09"/>
</a>
</g>
<text text-anchor="middle" x="81" y="-175" font-family="Helvetica,sans-Serif" font-size="10.00" fill="grey"> +config</text>
</g>
</g>
</svg>
