<?xml version="1.0" encoding="UTF-8" standalone="no"?>
<!DOCTYPE svg PUBLIC "-//W3C//DTD SVG 1.1//EN"
 "http://www.w3.org/Graphics/SVG/1.1/DTD/svg11.dtd">
<!-- Generated by graphviz version 2.43.0 (0)
 -->
<!-- Title: instr_word Pages: 1 -->
<svg width="104pt" height="762pt"
 viewBox="0.00 0.00 104.00 762.00" xmlns="http://www.w3.org/2000/svg" xmlns:xlink="http://www.w3.org/1999/xlink">
<g id="graph0" class="graph" transform="scale(1 1) rotate(0) translate(4 758)">
<title>instr_word</title>
<!-- Node1 -->
<g id="Node000001" class="node">
<title>Node1</title>
<g id="a_Node000001"><a xlink:title=" ">
<polygon fill="#999999" stroke="transparent" points="85,-64 5,-64 5,0 85,0 85,-64"/>
<text text-anchor="start" x="19" y="-52" font-family="Helvetica,sans-Serif" font-size="10.00">instr_word</text>
<text text-anchor="start" x="9" y="-37" font-family="Helvetica,sans-Serif" font-size="10.00">+</text>
<text text-anchor="start" x="22" y="-37" font-family="Helvetica,sans-Serif" font-size="10.00">encoding</text>
<text text-anchor="start" x="9" y="-22" font-family="Helvetica,sans-Serif" font-size="10.00">+</text>
<text text-anchor="start" x="22" y="-22" font-family="Helvetica,sans-Serif" font-size="10.00">encode()</text>
<text text-anchor="start" x="9" y="-7" font-family="Helvetica,sans-Serif" font-size="10.00">+</text>
<text text-anchor="start" x="22" y="-7" font-family="Helvetica,sans-Serif" font-size="10.00">instr_word()</text>
<polygon fill="#666666" stroke="#666666" points="5,-47 5,-47 85,-47 85,-47 5,-47"/>
<polygon fill="#666666" stroke="#666666" points="5,-32 5,-32 20,-32 20,-32 5,-32"/>
<polygon fill="#666666" stroke="#666666" points="20,-32 20,-32 85,-32 85,-32 20,-32"/>
<polygon fill="none" stroke="#666666" points="5,0 5,-64 85,-64 85,0 5,0"/>
</a>
</g>
</g>
<!-- Node2 -->
<g id="Node000002" class="node">
<title>Node2</title>
<g id="a_Node000002"><a xlink:href="structinstruction.html" target="_top" xlink:title=" ">
<polygon fill="white" stroke="transparent" points="90,-210 0,-210 0,-101 90,-101 90,-210"/>
<text text-anchor="start" x="19" y="-197.5" font-family="Helvetica,sans-Serif" font-size="10.00">instruction</text>
<text text-anchor="start" x="4" y="-182.5" font-family="Helvetica,sans-Serif" font-size="10.00">+</text>
<text text-anchor="start" x="17" y="-182.5" font-family="Helvetica,sans-Serif" font-size="10.00">delay</text>
<text text-anchor="start" x="4" y="-167.5" font-family="Helvetica,sans-Serif" font-size="10.00">+</text>
<text text-anchor="start" x="17" y="-167.5" font-family="Helvetica,sans-Serif" font-size="10.00">sideset</text>
<text text-anchor="start" x="4" y="-152.5" font-family="Helvetica,sans-Serif" font-size="10.00">+</text>
<text text-anchor="start" x="17" y="-152.5" font-family="Helvetica,sans-Serif" font-size="10.00">encode()</text>
<text text-anchor="start" x="4" y="-137.5" font-family="Helvetica,sans-Serif" font-size="10.00">+</text>
<text text-anchor="start" x="17" y="-137.5" font-family="Helvetica,sans-Serif" font-size="10.00">instruction()</text>
<text text-anchor="start" x="4" y="-122.5" font-family="Helvetica,sans-Serif" font-size="10.00">+</text>
<text text-anchor="start" x="17" y="-122.5" font-family="Helvetica,sans-Serif" font-size="10.00">pre_validate()</text>
<text text-anchor="start" x="4" y="-107.5" font-family="Helvetica,sans-Serif" font-size="10.00">+</text>
<text text-anchor="start" x="17" y="-107.5" font-family="Helvetica,sans-Serif" font-size="10.00">raw_encode()</text>
<polygon fill="#666666" stroke="#666666" points="0,-192.5 0,-192.5 90,-192.5 90,-192.5 0,-192.5"/>
<polygon fill="#666666" stroke="#666666" points="0,-162.5 0,-162.5 15,-162.5 15,-162.5 0,-162.5"/>
<polygon fill="#666666" stroke="#666666" points="15,-162.5 15,-162.5 90,-162.5 90,-162.5 15,-162.5"/>
<polygon fill="none" stroke="#666666" points="0,-101 0,-210 90,-210 90,-101 0,-101"/>
</a>
</g>
</g>
<!-- Node2&#45;&gt;Node1 -->
<g id="edge1_Node000001_Node000002" class="edge">
<title>Node2&#45;&gt;Node1</title>
<g id="a_edge1_Node000001_Node000002"><a xlink:title=" ">
<path fill="none" stroke="#63b8ff" d="M45,-90.78C45,-81.49 45,-72.29 45,-64.06"/>
<polygon fill="none" stroke="#63b8ff" points="41.5,-90.85 45,-100.85 48.5,-90.85 41.5,-90.85"/>
</a>
</g>
</g>
<!-- Node3 -->
<g id="Node000003" class="node">
<title>Node3</title>
<g id="a_Node000003"><a xlink:href="structsrc__item.html" target="_top" xlink:title=" ">
<polygon fill="white" stroke="transparent" points="80.5,-311 9.5,-311 9.5,-247 80.5,-247 80.5,-311"/>
<text text-anchor="start" x="24" y="-299" font-family="Helvetica,sans-Serif" font-size="10.00">src_item</text>
<text text-anchor="start" x="42" y="-284" font-family="Helvetica,sans-Serif" font-size="10.00"> </text>
<text text-anchor="start" x="14" y="-269" font-family="Helvetica,sans-Serif" font-size="10.00">+</text>
<text text-anchor="start" x="27" y="-269" font-family="Helvetica,sans-Serif" font-size="10.00">src_item()</text>
<text text-anchor="start" x="14" y="-254" font-family="Helvetica,sans-Serif" font-size="10.00">+</text>
<text text-anchor="start" x="27" y="-254" font-family="Helvetica,sans-Serif" font-size="10.00">src_item()</text>
<polygon fill="#666666" stroke="#666666" points="10,-294 10,-294 81,-294 81,-294 10,-294"/>
<polygon fill="#666666" stroke="#666666" points="10,-279 10,-279 81,-279 81,-279 10,-279"/>
<polygon fill="none" stroke="#666666" points="9.5,-247 9.5,-311 80.5,-311 80.5,-247 9.5,-247"/>
</a>
</g>
</g>
<!-- Node3&#45;&gt;Node2 -->
<g id="edge2_Node000002_Node000003" class="edge">
<title>Node3&#45;&gt;Node2</title>
<g id="a_edge2_Node000002_Node000003"><a xlink:title=" ">
<path fill="none" stroke="#63b8ff" d="M45,-236.69C45,-228.21 45,-219.16 45,-210.31"/>
<polygon fill="none" stroke="#63b8ff" points="41.5,-236.71 45,-246.71 48.5,-236.71 41.5,-236.71"/>
</a>
</g>
</g>
<!-- Node4 -->
<g id="Node000004" class="node">
<title>Node4</title>
<g id="a_Node000004"><a xlink:href="classyy_1_1location.html" target="_top" xlink:title="Two points in a source file.">
<polygon fill="white" stroke="transparent" points="80.5,-542 9.5,-542 9.5,-358 80.5,-358 80.5,-542"/>
<text text-anchor="start" x="17" y="-530" font-family="Helvetica,sans-Serif" font-size="10.00">yy::location</text>
<text text-anchor="start" x="42" y="-515" font-family="Helvetica,sans-Serif" font-size="10.00"> </text>
<text text-anchor="start" x="14" y="-500" font-family="Helvetica,sans-Serif" font-size="10.00">+</text>
<text text-anchor="start" x="27" y="-500" font-family="Helvetica,sans-Serif" font-size="10.00">initialize()</text>
<text text-anchor="start" x="14" y="-485" font-family="Helvetica,sans-Serif" font-size="10.00">+</text>
<text text-anchor="start" x="27" y="-485" font-family="Helvetica,sans-Serif" font-size="10.00">location()</text>
<text text-anchor="start" x="14" y="-470" font-family="Helvetica,sans-Serif" font-size="10.00">+</text>
<text text-anchor="start" x="27" y="-470" font-family="Helvetica,sans-Serif" font-size="10.00">location()</text>
<text text-anchor="start" x="14" y="-455" font-family="Helvetica,sans-Serif" font-size="10.00">+</text>
<text text-anchor="start" x="27" y="-455" font-family="Helvetica,sans-Serif" font-size="10.00">location()</text>
<text text-anchor="start" x="14" y="-440" font-family="Helvetica,sans-Serif" font-size="10.00">+</text>
<text text-anchor="start" x="27" y="-440" font-family="Helvetica,sans-Serif" font-size="10.00">step()</text>
<text text-anchor="start" x="14" y="-425" font-family="Helvetica,sans-Serif" font-size="10.00">+</text>
<text text-anchor="start" x="27" y="-425" font-family="Helvetica,sans-Serif" font-size="10.00">columns()</text>
<text text-anchor="start" x="14" y="-410" font-family="Helvetica,sans-Serif" font-size="10.00">+</text>
<text text-anchor="start" x="27" y="-410" font-family="Helvetica,sans-Serif" font-size="10.00">lines()</text>
<text text-anchor="start" x="15.5" y="-395" font-family="Helvetica,sans-Serif" font-size="10.00">*</text>
<text text-anchor="start" x="27" y="-395" font-family="Helvetica,sans-Serif" font-size="10.00">step()</text>
<text text-anchor="start" x="15.5" y="-380" font-family="Helvetica,sans-Serif" font-size="10.00">*</text>
<text text-anchor="start" x="27" y="-380" font-family="Helvetica,sans-Serif" font-size="10.00">columns()</text>
<text text-anchor="start" x="15.5" y="-365" font-family="Helvetica,sans-Serif" font-size="10.00">*</text>
<text text-anchor="start" x="27" y="-365" font-family="Helvetica,sans-Serif" font-size="10.00">lines()</text>
<polygon fill="#666666" stroke="#666666" points="10,-525 10,-525 81,-525 81,-525 10,-525"/>
<polygon fill="#666666" stroke="#666666" points="10,-510 10,-510 81,-510 81,-510 10,-510"/>
<polygon fill="none" stroke="#666666" points="9.5,-358 9.5,-542 80.5,-542 80.5,-358 9.5,-358"/>
</a>
</g>
</g>
<!-- Node4&#45;&gt;Node3 -->
<g id="edge3_Node000003_Node000004" class="edge">
<title>Node4&#45;&gt;Node3</title>
<g id="a_edge3_Node000003_Node000004"><a xlink:title=" ">
<path fill="none" stroke="#63b8ff" d="M45,-357.58C45,-345.74 45,-334.09 45,-323.56"/>
<polygon fill="none" stroke="#63b8ff" points="45,-323.33 41,-317.33 45,-311.33 49,-317.33 45,-323.33"/>
</a>
</g>
<text text-anchor="middle" x="70.5" y="-332" font-family="Helvetica,sans-Serif" font-size="10.00" fill="grey"> +location</text>
</g>
<!-- Node5 -->
<g id="Node000005" class="node">
<title>Node5</title>
<g id="a_Node000005"><a xlink:href="classyy_1_1position.html" target="_top" xlink:title="A point in a source file.">
<polygon fill="white" stroke="transparent" points="80.5,-754 9.5,-754 9.5,-600 80.5,-600 80.5,-754"/>
<text text-anchor="start" x="17" y="-742" font-family="Helvetica,sans-Serif" font-size="10.00">yy::position</text>
<text text-anchor="start" x="14" y="-727" font-family="Helvetica,sans-Serif" font-size="10.00">+</text>
<text text-anchor="start" x="27" y="-727" font-family="Helvetica,sans-Serif" font-size="10.00">column</text>
<text text-anchor="start" x="14" y="-712" font-family="Helvetica,sans-Serif" font-size="10.00">+</text>
<text text-anchor="start" x="27" y="-712" font-family="Helvetica,sans-Serif" font-size="10.00">filename</text>
<text text-anchor="start" x="14" y="-697" font-family="Helvetica,sans-Serif" font-size="10.00">+</text>
<text text-anchor="start" x="27" y="-697" font-family="Helvetica,sans-Serif" font-size="10.00">line</text>
<text text-anchor="start" x="14" y="-682" font-family="Helvetica,sans-Serif" font-size="10.00">+</text>
<text text-anchor="start" x="27" y="-682" font-family="Helvetica,sans-Serif" font-size="10.00">initialize()</text>
<text text-anchor="start" x="14" y="-667" font-family="Helvetica,sans-Serif" font-size="10.00">+</text>
<text text-anchor="start" x="27" y="-667" font-family="Helvetica,sans-Serif" font-size="10.00">position()</text>
<text text-anchor="start" x="14" y="-652" font-family="Helvetica,sans-Serif" font-size="10.00">+</text>
<text text-anchor="start" x="27" y="-652" font-family="Helvetica,sans-Serif" font-size="10.00">lines()</text>
<text text-anchor="start" x="14" y="-637" font-family="Helvetica,sans-Serif" font-size="10.00">+</text>
<text text-anchor="start" x="27" y="-637" font-family="Helvetica,sans-Serif" font-size="10.00">columns()</text>
<text text-anchor="start" x="15.5" y="-622" font-family="Helvetica,sans-Serif" font-size="10.00">*</text>
<text text-anchor="start" x="27" y="-622" font-family="Helvetica,sans-Serif" font-size="10.00">lines()</text>
<text text-anchor="start" x="15.5" y="-607" font-family="Helvetica,sans-Serif" font-size="10.00">*</text>
<text text-anchor="start" x="27" y="-607" font-family="Helvetica,sans-Serif" font-size="10.00">columns()</text>
<polygon fill="#666666" stroke="#666666" points="10,-737 10,-737 81,-737 81,-737 10,-737"/>
<polygon fill="#666666" stroke="#666666" points="10,-692 10,-692 25,-692 25,-692 10,-692"/>
<polygon fill="#666666" stroke="#666666" points="25,-692 25,-692 81,-692 81,-692 25,-692"/>
<polygon fill="none" stroke="#666666" points="9.5,-600 9.5,-754 80.5,-754 80.5,-600 9.5,-600"/>
</a>
</g>
</g>
<!-- Node5&#45;&gt;Node4 -->
<g id="edge4_Node000004_Node000005" class="edge">
<title>Node5&#45;&gt;Node4</title>
<g id="a_edge4_Node000004_Node000005"><a xlink:title=" ">
<path fill="none" stroke="#63b8ff" d="M45,-599.83C45,-585.24 45,-569.74 45,-554.46"/>
<polygon fill="none" stroke="#63b8ff" points="45,-554.28 41,-548.28 45,-542.28 49,-548.28 45,-554.28"/>
</a>
</g>
<text text-anchor="middle" x="64.5" y="-574" font-family="Helvetica,sans-Serif" font-size="10.00" fill="grey"> +begin</text>
<text text-anchor="middle" x="64.5" y="-563" font-family="Helvetica,sans-Serif" font-size="10.00" fill="grey">+end</text>
</g>
</g>
</svg>
