<?xml version="1.0" encoding="UTF-8" standalone="no"?>
<!DOCTYPE svg PUBLIC "-//W3C//DTD SVG 1.1//EN"
 "http://www.w3.org/Graphics/SVG/1.1/DTD/svg11.dtd">
<!-- Generated by graphviz version 2.43.0 (0)
 -->
<!-- Title: async_context_threadsafe_background_config Pages: 1 -->
<svg width="203pt" height="436pt"
 viewBox="0.00 0.00 202.50 436.00" xmlns="http://www.w3.org/2000/svg" xmlns:xlink="http://www.w3.org/1999/xlink">
<g id="graph0" class="graph" transform="scale(1 1) rotate(0) translate(4 432)">
<title>async_context_threadsafe_background_config</title>
<!-- Node1 -->
<g id="Node000001" class="node">
<title>Node1</title>
<g id="a_Node000001"><a xlink:title="Configuration object for async_context_threadsafe_background instances.">
<polygon fill="#999999" stroke="transparent" points="156,-71 17,-71 17,0 156,0 156,-71"/>
<text text-anchor="start" x="22.5" y="-58.5" font-family="Helvetica,sans-Serif" font-size="10.00">async_context_threadsafe</text>
<text text-anchor="start" x="38" y="-47.5" font-family="Helvetica,sans-Serif" font-size="10.00">_background_config</text>
<text text-anchor="start" x="21.5" y="-32.5" font-family="Helvetica,sans-Serif" font-size="10.00">+</text>
<text text-anchor="start" x="34.5" y="-32.5" font-family="Helvetica,sans-Serif" font-size="10.00">low_priority_irq_handler</text>
<text text-anchor="start" x="34.5" y="-21.5" font-family="Helvetica,sans-Serif" font-size="10.00">_priority</text>
<text text-anchor="start" x="83.5" y="-6.5" font-family="Helvetica,sans-Serif" font-size="10.00"> </text>
<polygon fill="#666666" stroke="#666666" points="17.5,-42.5 17.5,-42.5 156.5,-42.5 156.5,-42.5 17.5,-42.5"/>
<polygon fill="#666666" stroke="#666666" points="17.5,-16.5 17.5,-16.5 32.5,-16.5 32.5,-16.5 17.5,-16.5"/>
<polygon fill="#666666" stroke="#666666" points="32.5,-16.5 32.5,-16.5 156.5,-16.5 156.5,-16.5 32.5,-16.5"/>
<polygon fill="none" stroke="#666666" points="17,0 17,-71 156,-71 156,0 17,0"/>
</a>
</g>
</g>
<!-- Node2 -->
<g id="Node000002" class="node">
<title>Node2</title>
<g id="a_Node000002"><a xlink:href="structalarm__pool.html" target="_top" xlink:title=" ">
<polygon fill="white" stroke="transparent" points="163,-272 10,-272 10,-118 163,-118 163,-272"/>
<text text-anchor="start" x="59.5" y="-260" font-family="Helvetica,sans-Serif" font-size="10.00">alarm_pool</text>
<text text-anchor="start" x="14.5" y="-245" font-family="Helvetica,sans-Serif" font-size="10.00">+</text>
<text text-anchor="start" x="27.5" y="-245" font-family="Helvetica,sans-Serif" font-size="10.00">core_num</text>
<text text-anchor="start" x="14.5" y="-230" font-family="Helvetica,sans-Serif" font-size="10.00">+</text>
<text text-anchor="start" x="27.5" y="-230" font-family="Helvetica,sans-Serif" font-size="10.00">free_head</text>
<text text-anchor="start" x="14.5" y="-215" font-family="Helvetica,sans-Serif" font-size="10.00">+</text>
<text text-anchor="start" x="27.5" y="-215" font-family="Helvetica,sans-Serif" font-size="10.00">has_pending_cancellations</text>
<text text-anchor="start" x="14.5" y="-200" font-family="Helvetica,sans-Serif" font-size="10.00">+</text>
<text text-anchor="start" x="27.5" y="-200" font-family="Helvetica,sans-Serif" font-size="10.00">new_head</text>
<text text-anchor="start" x="14.5" y="-185" font-family="Helvetica,sans-Serif" font-size="10.00">+</text>
<text text-anchor="start" x="27.5" y="-185" font-family="Helvetica,sans-Serif" font-size="10.00">num_entries</text>
<text text-anchor="start" x="14.5" y="-170" font-family="Helvetica,sans-Serif" font-size="10.00">+</text>
<text text-anchor="start" x="27.5" y="-170" font-family="Helvetica,sans-Serif" font-size="10.00">ordered_head</text>
<text text-anchor="start" x="14.5" y="-155" font-family="Helvetica,sans-Serif" font-size="10.00">+</text>
<text text-anchor="start" x="27.5" y="-155" font-family="Helvetica,sans-Serif" font-size="10.00">timer</text>
<text text-anchor="start" x="14.5" y="-140" font-family="Helvetica,sans-Serif" font-size="10.00">+</text>
<text text-anchor="start" x="27.5" y="-140" font-family="Helvetica,sans-Serif" font-size="10.00">timer_alarm_num</text>
<text text-anchor="start" x="83.5" y="-125" font-family="Helvetica,sans-Serif" font-size="10.00"> </text>
<polygon fill="#666666" stroke="#666666" points="10.5,-255 10.5,-255 163.5,-255 163.5,-255 10.5,-255"/>
<polygon fill="#666666" stroke="#666666" points="10.5,-135 10.5,-135 25.5,-135 25.5,-135 10.5,-135"/>
<polygon fill="#666666" stroke="#666666" points="25.5,-135 25.5,-135 163.5,-135 163.5,-135 25.5,-135"/>
<polygon fill="none" stroke="#666666" points="10,-118 10,-272 163,-272 163,-118 10,-118"/>
</a>
</g>
</g>
<!-- Node2&#45;&gt;Node1 -->
<g id="edge1_Node000001_Node000002" class="edge">
<title>Node2&#45;&gt;Node1</title>
<g id="a_edge1_Node000001_Node000002"><a xlink:title=" ">
<path fill="none" stroke="#63b8ff" d="M86.5,-117.56C86.5,-105.84 86.5,-94.05 86.5,-83.24"/>
<polygon fill="none" stroke="#63b8ff" points="86.5,-83.05 82.5,-77.05 86.5,-71.05 90.5,-77.05 86.5,-83.05"/>
</a>
</g>
<text text-anchor="middle" x="140.5" y="-92" font-family="Helvetica,sans-Serif" font-size="10.00" fill="grey"> +custom_alarm_pool</text>
</g>
<!-- Node3 -->
<g id="Node000003" class="node">
<title>Node3</title>
<g id="a_Node000003"><a xlink:title=" ">
<polygon fill="white" stroke="transparent" points="71,-398 0,-398 0,-349 71,-349 71,-398"/>
<text text-anchor="start" x="5.5" y="-385.5" font-family="Helvetica,sans-Serif" font-size="10.00">_spin_lock_t</text>
<text text-anchor="start" x="9" y="-370.5" font-family="Helvetica,sans-Serif" font-size="10.00">+</text>
<text text-anchor="start" x="26.5" y="-370.5" font-family="Helvetica,sans-Serif" font-size="10.00">locked</text>
<text text-anchor="start" x="32.5" y="-355.5" font-family="Helvetica,sans-Serif" font-size="10.00"> </text>
<polygon fill="#666666" stroke="#666666" points="0.5,-380.5 0.5,-380.5 71.5,-380.5 71.5,-380.5 0.5,-380.5"/>
<polygon fill="#666666" stroke="#666666" points="0.5,-365.5 0.5,-365.5 24.5,-365.5 24.5,-365.5 0.5,-365.5"/>
<polygon fill="#666666" stroke="#666666" points="24.5,-365.5 24.5,-365.5 71.5,-365.5 71.5,-365.5 24.5,-365.5"/>
<polygon fill="none" stroke="#666666" points="0,-349 0,-398 71,-398 71,-349 0,-349"/>
</a>
</g>
</g>
<!-- Node3&#45;&gt;Node2 -->
<g id="edge2_Node000002_Node000003" class="edge">
<title>Node3&#45;&gt;Node2</title>
<g id="a_edge2_Node000002_Node000003"><a xlink:title=" ">
<path fill="none" stroke="#63b8ff" d="M42.38,-348.7C47.28,-331.72 54.21,-307.73 61.13,-283.8"/>
<polygon fill="none" stroke="#63b8ff" points="61.19,-283.61 59.01,-276.73 64.52,-272.08 66.69,-278.96 61.19,-283.61"/>
</a>
</g>
<text text-anchor="middle" x="74.5" y="-293" font-family="Helvetica,sans-Serif" font-size="10.00" fill="grey"> +lock</text>
</g>
<!-- Node4 -->
<g id="Node000004" class="node">
<title>Node4</title>
<g id="a_Node000004"><a xlink:href="structalarm__pool__entry.html" target="_top" xlink:title=" ">
<polygon fill="white" stroke="transparent" points="185.5,-428 89.5,-428 89.5,-319 185.5,-319 185.5,-428"/>
<text text-anchor="start" x="94.5" y="-415.5" font-family="Helvetica,sans-Serif" font-size="10.00">alarm_pool_entry</text>
<text text-anchor="start" x="100" y="-400.5" font-family="Helvetica,sans-Serif" font-size="10.00">+</text>
<text text-anchor="start" x="119.5" y="-400.5" font-family="Helvetica,sans-Serif" font-size="10.00">callback</text>
<text text-anchor="start" x="100" y="-385.5" font-family="Helvetica,sans-Serif" font-size="10.00">+</text>
<text text-anchor="start" x="119.5" y="-385.5" font-family="Helvetica,sans-Serif" font-size="10.00">next</text>
<text text-anchor="start" x="100" y="-370.5" font-family="Helvetica,sans-Serif" font-size="10.00">+</text>
<text text-anchor="start" x="119.5" y="-370.5" font-family="Helvetica,sans-Serif" font-size="10.00">sequence</text>
<text text-anchor="start" x="100" y="-355.5" font-family="Helvetica,sans-Serif" font-size="10.00">+</text>
<text text-anchor="start" x="119.5" y="-355.5" font-family="Helvetica,sans-Serif" font-size="10.00">target</text>
<text text-anchor="start" x="100" y="-340.5" font-family="Helvetica,sans-Serif" font-size="10.00">+</text>
<text text-anchor="start" x="119.5" y="-340.5" font-family="Helvetica,sans-Serif" font-size="10.00">user_data</text>
<text text-anchor="start" x="134" y="-325.5" font-family="Helvetica,sans-Serif" font-size="10.00"> </text>
<polygon fill="#666666" stroke="#666666" points="89.5,-410.5 89.5,-410.5 185.5,-410.5 185.5,-410.5 89.5,-410.5"/>
<polygon fill="#666666" stroke="#666666" points="89.5,-335.5 89.5,-335.5 117.5,-335.5 117.5,-335.5 89.5,-335.5"/>
<polygon fill="#666666" stroke="#666666" points="117.5,-335.5 117.5,-335.5 185.5,-335.5 185.5,-335.5 117.5,-335.5"/>
<polygon fill="none" stroke="#666666" points="89.5,-319 89.5,-428 185.5,-428 185.5,-319 89.5,-319"/>
</a>
</g>
</g>
<!-- Node4&#45;&gt;Node2 -->
<g id="edge3_Node000002_Node000004" class="edge">
<title>Node4&#45;&gt;Node2</title>
<g id="a_edge3_Node000002_Node000004"><a xlink:title=" ">
<path fill="none" stroke="#63b8ff" d="M121.92,-318.59C118.74,-307.56 115.31,-295.69 111.88,-283.83"/>
<polygon fill="none" stroke="#63b8ff" points="111.79,-283.53 106.28,-278.87 108.46,-272 113.97,-276.65 111.79,-283.53"/>
</a>
</g>
<text text-anchor="middle" x="139.5" y="-293" font-family="Helvetica,sans-Serif" font-size="10.00" fill="grey"> +entries</text>
</g>
</g>
</svg>
