<?xml version="1.0" encoding="UTF-8" standalone="no"?>
<!DOCTYPE svg PUBLIC "-//W3C//DTD SVG 1.1//EN"
 "http://www.w3.org/Graphics/SVG/1.1/DTD/svg11.dtd">
<!-- Generated by graphviz version 2.43.0 (0)
 -->
<!-- Title: instr_mov Pages: 1 -->
<svg width="218pt" height="813pt"
 viewBox="0.00 0.00 218.00 813.00" xmlns="http://www.w3.org/2000/svg" xmlns:xlink="http://www.w3.org/1999/xlink">
<g id="graph0" class="graph" transform="scale(1 1) rotate(0) translate(4 809)">
<title>instr_mov</title>
<!-- Node1 -->
<g id="Node000001" class="node">
<title>Node1</title>
<g id="a_Node000001"><a xlink:title=" ">
<polygon fill="#999999" stroke="transparent" points="193.5,-94 66.5,-94 66.5,0 193.5,0 193.5,-94"/>
<text text-anchor="start" x="106" y="-82" font-family="Helvetica,sans-Serif" font-size="10.00">instr_mov</text>
<text text-anchor="start" x="71" y="-67" font-family="Helvetica,sans-Serif" font-size="10.00">+</text>
<text text-anchor="start" x="84" y="-67" font-family="Helvetica,sans-Serif" font-size="10.00">op</text>
<text text-anchor="start" x="71" y="-52" font-family="Helvetica,sans-Serif" font-size="10.00">+</text>
<text text-anchor="start" x="84" y="-52" font-family="Helvetica,sans-Serif" font-size="10.00">get_push_get_index()</text>
<text text-anchor="start" x="71" y="-37" font-family="Helvetica,sans-Serif" font-size="10.00">+</text>
<text text-anchor="start" x="84" y="-37" font-family="Helvetica,sans-Serif" font-size="10.00">instr_mov()</text>
<text text-anchor="start" x="71" y="-22" font-family="Helvetica,sans-Serif" font-size="10.00">+</text>
<text text-anchor="start" x="84" y="-22" font-family="Helvetica,sans-Serif" font-size="10.00">pre_validate()</text>
<text text-anchor="start" x="71" y="-7" font-family="Helvetica,sans-Serif" font-size="10.00">+</text>
<text text-anchor="start" x="84" y="-7" font-family="Helvetica,sans-Serif" font-size="10.00">raw_encode()</text>
<polygon fill="#666666" stroke="#666666" points="67,-77 67,-77 194,-77 194,-77 67,-77"/>
<polygon fill="#666666" stroke="#666666" points="67,-62 67,-62 82,-62 82,-62 67,-62"/>
<polygon fill="#666666" stroke="#666666" points="82,-62 82,-62 194,-62 194,-62 82,-62"/>
<polygon fill="none" stroke="#666666" points="66.5,0 66.5,-94 193.5,-94 193.5,0 66.5,0"/>
</a>
</g>
</g>
<!-- Node2 -->
<g id="Node000002" class="node">
<title>Node2</title>
<g id="a_Node000002"><a xlink:href="structinstruction.html" target="_top" xlink:title=" ">
<polygon fill="white" stroke="transparent" points="90,-261 0,-261 0,-152 90,-152 90,-261"/>
<text text-anchor="start" x="19" y="-248.5" font-family="Helvetica,sans-Serif" font-size="10.00">instruction</text>
<text text-anchor="start" x="4" y="-233.5" font-family="Helvetica,sans-Serif" font-size="10.00">+</text>
<text text-anchor="start" x="17" y="-233.5" font-family="Helvetica,sans-Serif" font-size="10.00">delay</text>
<text text-anchor="start" x="4" y="-218.5" font-family="Helvetica,sans-Serif" font-size="10.00">+</text>
<text text-anchor="start" x="17" y="-218.5" font-family="Helvetica,sans-Serif" font-size="10.00">sideset</text>
<text text-anchor="start" x="4" y="-203.5" font-family="Helvetica,sans-Serif" font-size="10.00">+</text>
<text text-anchor="start" x="17" y="-203.5" font-family="Helvetica,sans-Serif" font-size="10.00">encode()</text>
<text text-anchor="start" x="4" y="-188.5" font-family="Helvetica,sans-Serif" font-size="10.00">+</text>
<text text-anchor="start" x="17" y="-188.5" font-family="Helvetica,sans-Serif" font-size="10.00">instruction()</text>
<text text-anchor="start" x="4" y="-173.5" font-family="Helvetica,sans-Serif" font-size="10.00">+</text>
<text text-anchor="start" x="17" y="-173.5" font-family="Helvetica,sans-Serif" font-size="10.00">pre_validate()</text>
<text text-anchor="start" x="4" y="-158.5" font-family="Helvetica,sans-Serif" font-size="10.00">+</text>
<text text-anchor="start" x="17" y="-158.5" font-family="Helvetica,sans-Serif" font-size="10.00">raw_encode()</text>
<polygon fill="#666666" stroke="#666666" points="0,-243.5 0,-243.5 90,-243.5 90,-243.5 0,-243.5"/>
<polygon fill="#666666" stroke="#666666" points="0,-213.5 0,-213.5 15,-213.5 15,-213.5 0,-213.5"/>
<polygon fill="#666666" stroke="#666666" points="15,-213.5 15,-213.5 90,-213.5 90,-213.5 15,-213.5"/>
<polygon fill="none" stroke="#666666" points="0,-152 0,-261 90,-261 90,-152 0,-152"/>
</a>
</g>
</g>
<!-- Node2&#45;&gt;Node1 -->
<g id="edge1_Node000001_Node000002" class="edge">
<title>Node2&#45;&gt;Node1</title>
<g id="a_edge1_Node000001_Node000002"><a xlink:title=" ">
<path fill="none" stroke="#63b8ff" d="M78.82,-142.83C87.59,-126.59 96.87,-109.39 105.08,-94.17"/>
<polygon fill="none" stroke="#63b8ff" points="75.68,-141.28 74.01,-151.74 81.84,-144.6 75.68,-141.28"/>
</a>
</g>
</g>
<!-- Node3 -->
<g id="Node000003" class="node">
<title>Node3</title>
<g id="a_Node000003"><a xlink:href="structsrc__item.html" target="_top" xlink:title=" ">
<polygon fill="white" stroke="transparent" points="80.5,-362 9.5,-362 9.5,-298 80.5,-298 80.5,-362"/>
<text text-anchor="start" x="24" y="-350" font-family="Helvetica,sans-Serif" font-size="10.00">src_item</text>
<text text-anchor="start" x="42" y="-335" font-family="Helvetica,sans-Serif" font-size="10.00"> </text>
<text text-anchor="start" x="14" y="-320" font-family="Helvetica,sans-Serif" font-size="10.00">+</text>
<text text-anchor="start" x="27" y="-320" font-family="Helvetica,sans-Serif" font-size="10.00">src_item()</text>
<text text-anchor="start" x="14" y="-305" font-family="Helvetica,sans-Serif" font-size="10.00">+</text>
<text text-anchor="start" x="27" y="-305" font-family="Helvetica,sans-Serif" font-size="10.00">src_item()</text>
<polygon fill="#666666" stroke="#666666" points="10,-345 10,-345 81,-345 81,-345 10,-345"/>
<polygon fill="#666666" stroke="#666666" points="10,-330 10,-330 81,-330 81,-330 10,-330"/>
<polygon fill="none" stroke="#666666" points="9.5,-298 9.5,-362 80.5,-362 80.5,-298 9.5,-298"/>
</a>
</g>
</g>
<!-- Node3&#45;&gt;Node2 -->
<g id="edge2_Node000002_Node000003" class="edge">
<title>Node3&#45;&gt;Node2</title>
<g id="a_edge2_Node000002_Node000003"><a xlink:title=" ">
<path fill="none" stroke="#63b8ff" d="M45,-287.69C45,-279.21 45,-270.16 45,-261.31"/>
<polygon fill="none" stroke="#63b8ff" points="41.5,-287.71 45,-297.71 48.5,-287.71 41.5,-287.71"/>
</a>
</g>
</g>
<!-- Node4 -->
<g id="Node000004" class="node">
<title>Node4</title>
<g id="a_Node000004"><a xlink:href="classyy_1_1location.html" target="_top" xlink:title="Two points in a source file.">
<polygon fill="white" stroke="transparent" points="80.5,-593 9.5,-593 9.5,-409 80.5,-409 80.5,-593"/>
<text text-anchor="start" x="17" y="-581" font-family="Helvetica,sans-Serif" font-size="10.00">yy::location</text>
<text text-anchor="start" x="42" y="-566" font-family="Helvetica,sans-Serif" font-size="10.00"> </text>
<text text-anchor="start" x="14" y="-551" font-family="Helvetica,sans-Serif" font-size="10.00">+</text>
<text text-anchor="start" x="27" y="-551" font-family="Helvetica,sans-Serif" font-size="10.00">initialize()</text>
<text text-anchor="start" x="14" y="-536" font-family="Helvetica,sans-Serif" font-size="10.00">+</text>
<text text-anchor="start" x="27" y="-536" font-family="Helvetica,sans-Serif" font-size="10.00">location()</text>
<text text-anchor="start" x="14" y="-521" font-family="Helvetica,sans-Serif" font-size="10.00">+</text>
<text text-anchor="start" x="27" y="-521" font-family="Helvetica,sans-Serif" font-size="10.00">location()</text>
<text text-anchor="start" x="14" y="-506" font-family="Helvetica,sans-Serif" font-size="10.00">+</text>
<text text-anchor="start" x="27" y="-506" font-family="Helvetica,sans-Serif" font-size="10.00">location()</text>
<text text-anchor="start" x="14" y="-491" font-family="Helvetica,sans-Serif" font-size="10.00">+</text>
<text text-anchor="start" x="27" y="-491" font-family="Helvetica,sans-Serif" font-size="10.00">step()</text>
<text text-anchor="start" x="14" y="-476" font-family="Helvetica,sans-Serif" font-size="10.00">+</text>
<text text-anchor="start" x="27" y="-476" font-family="Helvetica,sans-Serif" font-size="10.00">columns()</text>
<text text-anchor="start" x="14" y="-461" font-family="Helvetica,sans-Serif" font-size="10.00">+</text>
<text text-anchor="start" x="27" y="-461" font-family="Helvetica,sans-Serif" font-size="10.00">lines()</text>
<text text-anchor="start" x="15.5" y="-446" font-family="Helvetica,sans-Serif" font-size="10.00">*</text>
<text text-anchor="start" x="27" y="-446" font-family="Helvetica,sans-Serif" font-size="10.00">step()</text>
<text text-anchor="start" x="15.5" y="-431" font-family="Helvetica,sans-Serif" font-size="10.00">*</text>
<text text-anchor="start" x="27" y="-431" font-family="Helvetica,sans-Serif" font-size="10.00">columns()</text>
<text text-anchor="start" x="15.5" y="-416" font-family="Helvetica,sans-Serif" font-size="10.00">*</text>
<text text-anchor="start" x="27" y="-416" font-family="Helvetica,sans-Serif" font-size="10.00">lines()</text>
<polygon fill="#666666" stroke="#666666" points="10,-576 10,-576 81,-576 81,-576 10,-576"/>
<polygon fill="#666666" stroke="#666666" points="10,-561 10,-561 81,-561 81,-561 10,-561"/>
<polygon fill="none" stroke="#666666" points="9.5,-409 9.5,-593 80.5,-593 80.5,-409 9.5,-409"/>
</a>
</g>
</g>
<!-- Node4&#45;&gt;Node3 -->
<g id="edge3_Node000003_Node000004" class="edge">
<title>Node4&#45;&gt;Node3</title>
<g id="a_edge3_Node000003_Node000004"><a xlink:title=" ">
<path fill="none" stroke="#63b8ff" d="M45,-408.58C45,-396.74 45,-385.09 45,-374.56"/>
<polygon fill="none" stroke="#63b8ff" points="45,-374.33 41,-368.33 45,-362.33 49,-368.33 45,-374.33"/>
</a>
</g>
<text text-anchor="middle" x="70.5" y="-383" font-family="Helvetica,sans-Serif" font-size="10.00" fill="grey"> +location</text>
</g>
<!-- Node5 -->
<g id="Node000005" class="node">
<title>Node5</title>
<g id="a_Node000005"><a xlink:href="classyy_1_1position.html" target="_top" xlink:title="A point in a source file.">
<polygon fill="white" stroke="transparent" points="80.5,-805 9.5,-805 9.5,-651 80.5,-651 80.5,-805"/>
<text text-anchor="start" x="17" y="-793" font-family="Helvetica,sans-Serif" font-size="10.00">yy::position</text>
<text text-anchor="start" x="14" y="-778" font-family="Helvetica,sans-Serif" font-size="10.00">+</text>
<text text-anchor="start" x="27" y="-778" font-family="Helvetica,sans-Serif" font-size="10.00">column</text>
<text text-anchor="start" x="14" y="-763" font-family="Helvetica,sans-Serif" font-size="10.00">+</text>
<text text-anchor="start" x="27" y="-763" font-family="Helvetica,sans-Serif" font-size="10.00">filename</text>
<text text-anchor="start" x="14" y="-748" font-family="Helvetica,sans-Serif" font-size="10.00">+</text>
<text text-anchor="start" x="27" y="-748" font-family="Helvetica,sans-Serif" font-size="10.00">line</text>
<text text-anchor="start" x="14" y="-733" font-family="Helvetica,sans-Serif" font-size="10.00">+</text>
<text text-anchor="start" x="27" y="-733" font-family="Helvetica,sans-Serif" font-size="10.00">initialize()</text>
<text text-anchor="start" x="14" y="-718" font-family="Helvetica,sans-Serif" font-size="10.00">+</text>
<text text-anchor="start" x="27" y="-718" font-family="Helvetica,sans-Serif" font-size="10.00">position()</text>
<text text-anchor="start" x="14" y="-703" font-family="Helvetica,sans-Serif" font-size="10.00">+</text>
<text text-anchor="start" x="27" y="-703" font-family="Helvetica,sans-Serif" font-size="10.00">lines()</text>
<text text-anchor="start" x="14" y="-688" font-family="Helvetica,sans-Serif" font-size="10.00">+</text>
<text text-anchor="start" x="27" y="-688" font-family="Helvetica,sans-Serif" font-size="10.00">columns()</text>
<text text-anchor="start" x="15.5" y="-673" font-family="Helvetica,sans-Serif" font-size="10.00">*</text>
<text text-anchor="start" x="27" y="-673" font-family="Helvetica,sans-Serif" font-size="10.00">lines()</text>
<text text-anchor="start" x="15.5" y="-658" font-family="Helvetica,sans-Serif" font-size="10.00">*</text>
<text text-anchor="start" x="27" y="-658" font-family="Helvetica,sans-Serif" font-size="10.00">columns()</text>
<polygon fill="#666666" stroke="#666666" points="10,-788 10,-788 81,-788 81,-788 10,-788"/>
<polygon fill="#666666" stroke="#666666" points="10,-743 10,-743 25,-743 25,-743 10,-743"/>
<polygon fill="#666666" stroke="#666666" points="25,-743 25,-743 81,-743 81,-743 25,-743"/>
<polygon fill="none" stroke="#666666" points="9.5,-651 9.5,-805 80.5,-805 80.5,-651 9.5,-651"/>
</a>
</g>
</g>
<!-- Node5&#45;&gt;Node4 -->
<g id="edge4_Node000004_Node000005" class="edge">
<title>Node5&#45;&gt;Node4</title>
<g id="a_edge4_Node000004_Node000005"><a xlink:title=" ">
<path fill="none" stroke="#63b8ff" d="M45,-650.83C45,-636.24 45,-620.74 45,-605.46"/>
<polygon fill="none" stroke="#63b8ff" points="45,-605.28 41,-599.28 45,-593.28 49,-599.28 45,-605.28"/>
</a>
</g>
<text text-anchor="middle" x="64.5" y="-625" font-family="Helvetica,sans-Serif" font-size="10.00" fill="grey"> +begin</text>
<text text-anchor="middle" x="64.5" y="-614" font-family="Helvetica,sans-Serif" font-size="10.00" fill="grey">+end</text>
</g>
<!-- Node6 -->
<g id="Node000006" class="node">
<title>Node6</title>
<g id="a_Node000006"><a xlink:href="structextended__mov.html" target="_top" xlink:title=" ">
<polygon fill="white" stroke="transparent" points="210,-261 108,-261 108,-152 210,-152 210,-261"/>
<text text-anchor="start" x="122.5" y="-248.5" font-family="Helvetica,sans-Serif" font-size="10.00">extended_mov</text>
<text text-anchor="start" x="112" y="-233.5" font-family="Helvetica,sans-Serif" font-size="10.00">+</text>
<text text-anchor="start" x="125" y="-233.5" font-family="Helvetica,sans-Serif" font-size="10.00">fifo_index</text>
<text text-anchor="start" x="112" y="-218.5" font-family="Helvetica,sans-Serif" font-size="10.00">+</text>
<text text-anchor="start" x="125" y="-218.5" font-family="Helvetica,sans-Serif" font-size="10.00">loc</text>
<text text-anchor="start" x="112" y="-203.5" font-family="Helvetica,sans-Serif" font-size="10.00">+</text>
<text text-anchor="start" x="125" y="-203.5" font-family="Helvetica,sans-Serif" font-size="10.00">extended_mov()</text>
<text text-anchor="start" x="112" y="-188.5" font-family="Helvetica,sans-Serif" font-size="10.00">+</text>
<text text-anchor="start" x="125" y="-188.5" font-family="Helvetica,sans-Serif" font-size="10.00">extended_mov()</text>
<text text-anchor="start" x="112" y="-173.5" font-family="Helvetica,sans-Serif" font-size="10.00">+</text>
<text text-anchor="start" x="125" y="-173.5" font-family="Helvetica,sans-Serif" font-size="10.00">extended_mov()</text>
<text text-anchor="start" x="112" y="-158.5" font-family="Helvetica,sans-Serif" font-size="10.00">+</text>
<text text-anchor="start" x="125" y="-158.5" font-family="Helvetica,sans-Serif" font-size="10.00">uses_fifo()</text>
<polygon fill="#666666" stroke="#666666" points="108,-243.5 108,-243.5 210,-243.5 210,-243.5 108,-243.5"/>
<polygon fill="#666666" stroke="#666666" points="108,-213.5 108,-213.5 123,-213.5 123,-213.5 108,-213.5"/>
<polygon fill="#666666" stroke="#666666" points="123,-213.5 123,-213.5 210,-213.5 210,-213.5 123,-213.5"/>
<polygon fill="none" stroke="#666666" points="108,-152 108,-261 210,-261 210,-152 108,-152"/>
</a>
</g>
</g>
<!-- Node6&#45;&gt;Node1 -->
<g id="edge5_Node000001_Node000006" class="edge">
<title>Node6&#45;&gt;Node1</title>
<g id="a_edge5_Node000001_Node000006"><a xlink:title=" ">
<path fill="none" stroke="#63b8ff" d="M149.1,-151.74C146.41,-137.12 143.48,-121.22 140.74,-106.35"/>
<polygon fill="none" stroke="#63b8ff" points="140.67,-105.97 135.65,-100.79 138.5,-94.17 143.52,-99.34 140.67,-105.97"/>
</a>
</g>
<text text-anchor="middle" x="161.5" y="-126" font-family="Helvetica,sans-Serif" font-size="10.00" fill="grey"> +dest</text>
<text text-anchor="middle" x="161.5" y="-115" font-family="Helvetica,sans-Serif" font-size="10.00" fill="grey">+src</text>
</g>
</g>
</svg>
