<?xml version="1.0" encoding="UTF-8" standalone="no"?>
<!DOCTYPE svg PUBLIC "-//W3C//DTD SVG 1.1//EN"
 "http://www.w3.org/Graphics/SVG/1.1/DTD/svg11.dtd">
<!-- Generated by graphviz version 2.43.0 (0)
 -->
<!-- Title: yy::parser::symbol_type Pages: 1 -->
<svg width="139pt" height="553pt"
 viewBox="0.00 0.00 139.00 553.00" xmlns="http://www.w3.org/2000/svg" xmlns:xlink="http://www.w3.org/1999/xlink">
<g id="graph0" class="graph" transform="scale(1 1) rotate(0) translate(4 549)">
<title>yy::parser::symbol_type</title>
<!-- Node1 -->
<g id="Node000001" class="node">
<title>Node1</title>
<g id="a_Node000001"><a xlink:title="&quot;External&quot; symbols: returned by the scanner.">
<polygon fill="#999999" stroke="transparent" points="129.5,-109 1.5,-109 1.5,0 129.5,0 129.5,-109"/>
<text text-anchor="start" x="6.5" y="-96.5" font-family="Helvetica,sans-Serif" font-size="10.00">yy::parser::symbol_type</text>
<text text-anchor="start" x="62" y="-81.5" font-family="Helvetica,sans-Serif" font-size="10.00"> </text>
<text text-anchor="start" x="14.5" y="-66.5" font-family="Helvetica,sans-Serif" font-size="10.00">+</text>
<text text-anchor="start" x="36.5" y="-66.5" font-family="Helvetica,sans-Serif" font-size="10.00">symbol_type()</text>
<text text-anchor="start" x="14.5" y="-51.5" font-family="Helvetica,sans-Serif" font-size="10.00">+</text>
<text text-anchor="start" x="36.5" y="-51.5" font-family="Helvetica,sans-Serif" font-size="10.00">symbol_type()</text>
<text text-anchor="start" x="14.5" y="-36.5" font-family="Helvetica,sans-Serif" font-size="10.00">+</text>
<text text-anchor="start" x="36.5" y="-36.5" font-family="Helvetica,sans-Serif" font-size="10.00">symbol_type()</text>
<text text-anchor="start" x="14.5" y="-21.5" font-family="Helvetica,sans-Serif" font-size="10.00">+</text>
<text text-anchor="start" x="36.5" y="-21.5" font-family="Helvetica,sans-Serif" font-size="10.00">symbol_type()</text>
<text text-anchor="start" x="14.5" y="-6.5" font-family="Helvetica,sans-Serif" font-size="10.00">+</text>
<text text-anchor="start" x="36.5" y="-6.5" font-family="Helvetica,sans-Serif" font-size="10.00">symbol_type()</text>
<polygon fill="#666666" stroke="#666666" points="1.5,-91.5 1.5,-91.5 129.5,-91.5 129.5,-91.5 1.5,-91.5"/>
<polygon fill="#666666" stroke="#666666" points="1.5,-76.5 1.5,-76.5 129.5,-76.5 129.5,-76.5 1.5,-76.5"/>
<polygon fill="none" stroke="#666666" points="1.5,0 1.5,-109 129.5,-109 129.5,0 1.5,0"/>
</a>
</g>
</g>
<!-- Node2 -->
<g id="Node000002" class="node">
<title>Node2</title>
<g id="a_Node000002"><a xlink:href="structyy_1_1parser_1_1basic__symbol.html" target="_top" xlink:title=" ">
<polygon fill="white" stroke="transparent" points="131,-370 0,-370 0,-145 131,-145 131,-370"/>
<text text-anchor="start" x="5.5" y="-357.5" font-family="Helvetica,sans-Serif" font-size="10.00">yy::parser::basic_symbol</text>
<text text-anchor="start" x="35.5" y="-346.5" font-family="Helvetica,sans-Serif" font-size="10.00">&lt; by_kind &gt;</text>
<text text-anchor="start" x="13" y="-331.5" font-family="Helvetica,sans-Serif" font-size="10.00">+</text>
<text text-anchor="start" x="34.5" y="-331.5" font-family="Helvetica,sans-Serif" font-size="10.00">location</text>
<text text-anchor="start" x="13" y="-316.5" font-family="Helvetica,sans-Serif" font-size="10.00">+</text>
<text text-anchor="start" x="34.5" y="-316.5" font-family="Helvetica,sans-Serif" font-size="10.00">value</text>
<text text-anchor="start" x="13" y="-301.5" font-family="Helvetica,sans-Serif" font-size="10.00">+</text>
<text text-anchor="start" x="34.5" y="-301.5" font-family="Helvetica,sans-Serif" font-size="10.00">basic_symbol()</text>
<text text-anchor="start" x="13" y="-286.5" font-family="Helvetica,sans-Serif" font-size="10.00">+</text>
<text text-anchor="start" x="34.5" y="-286.5" font-family="Helvetica,sans-Serif" font-size="10.00">basic_symbol()</text>
<text text-anchor="start" x="13" y="-271.5" font-family="Helvetica,sans-Serif" font-size="10.00">+</text>
<text text-anchor="start" x="34.5" y="-271.5" font-family="Helvetica,sans-Serif" font-size="10.00">basic_symbol()</text>
<text text-anchor="start" x="13" y="-256.5" font-family="Helvetica,sans-Serif" font-size="10.00">+</text>
<text text-anchor="start" x="34.5" y="-256.5" font-family="Helvetica,sans-Serif" font-size="10.00">basic_symbol()</text>
<text text-anchor="start" x="13" y="-241.5" font-family="Helvetica,sans-Serif" font-size="10.00">+</text>
<text text-anchor="start" x="34.5" y="-241.5" font-family="Helvetica,sans-Serif" font-size="10.00">basic_symbol()</text>
<text text-anchor="start" x="13" y="-226.5" font-family="Helvetica,sans-Serif" font-size="10.00">+</text>
<text text-anchor="start" x="34.5" y="-226.5" font-family="Helvetica,sans-Serif" font-size="10.00">basic_symbol()</text>
<text text-anchor="start" x="13" y="-211.5" font-family="Helvetica,sans-Serif" font-size="10.00">+</text>
<text text-anchor="start" x="34.5" y="-211.5" font-family="Helvetica,sans-Serif" font-size="10.00">basic_symbol()</text>
<text text-anchor="start" x="13" y="-196.5" font-family="Helvetica,sans-Serif" font-size="10.00">+</text>
<text text-anchor="start" x="34.5" y="-196.5" font-family="Helvetica,sans-Serif" font-size="10.00">basic_symbol()</text>
<text text-anchor="start" x="13" y="-181.5" font-family="Helvetica,sans-Serif" font-size="10.00">+</text>
<text text-anchor="start" x="34.5" y="-181.5" font-family="Helvetica,sans-Serif" font-size="10.00">basic_symbol()</text>
<text text-anchor="start" x="13" y="-166.5" font-family="Helvetica,sans-Serif" font-size="10.00">+</text>
<text text-anchor="start" x="34.5" y="-166.5" font-family="Helvetica,sans-Serif" font-size="10.00">basic_symbol()</text>
<text text-anchor="start" x="34.5" y="-151.5" font-family="Helvetica,sans-Serif" font-size="10.00">e 14 mais...</text>
<polygon fill="#666666" stroke="#666666" points="0.5,-341.5 0.5,-341.5 131.5,-341.5 131.5,-341.5 0.5,-341.5"/>
<polygon fill="#666666" stroke="#666666" points="0.5,-311.5 0.5,-311.5 32.5,-311.5 32.5,-311.5 0.5,-311.5"/>
<polygon fill="#666666" stroke="#666666" points="32.5,-311.5 32.5,-311.5 131.5,-311.5 131.5,-311.5 32.5,-311.5"/>
<polygon fill="none" stroke="#666666" points="0,-145 0,-370 131,-370 131,-145 0,-145"/>
</a>
</g>
</g>
<!-- Node2&#45;&gt;Node1 -->
<g id="edge1_Node000001_Node000002" class="edge">
<title>Node2&#45;&gt;Node1</title>
<g id="a_edge1_Node000001_Node000002"><a xlink:title=" ">
<path fill="none" stroke="#63b8ff" d="M65.5,-134.82C65.5,-126.02 65.5,-117.45 65.5,-109.39"/>
<polygon fill="none" stroke="#63b8ff" points="62,-134.83 65.5,-144.83 69,-134.83 62,-134.83"/>
</a>
</g>
</g>
<!-- Node3 -->
<g id="Node000003" class="node">
<title>Node3</title>
<g id="a_Node000003"><a xlink:href="structyy_1_1parser_1_1by__kind.html" target="_top" xlink:title="Type access provider for token (enum) based symbols.">
<polygon fill="white" stroke="transparent" points="117,-545 14,-545 14,-406 117,-406 117,-545"/>
<text text-anchor="start" x="19.5" y="-532.5" font-family="Helvetica,sans-Serif" font-size="10.00">yy::parser::by_kind</text>
<text text-anchor="start" x="26" y="-517.5" font-family="Helvetica,sans-Serif" font-size="10.00">+</text>
<text text-anchor="start" x="46.5" y="-517.5" font-family="Helvetica,sans-Serif" font-size="10.00">kind_</text>
<text text-anchor="start" x="26" y="-502.5" font-family="Helvetica,sans-Serif" font-size="10.00">+</text>
<text text-anchor="start" x="46.5" y="-502.5" font-family="Helvetica,sans-Serif" font-size="10.00">by_kind()</text>
<text text-anchor="start" x="26" y="-487.5" font-family="Helvetica,sans-Serif" font-size="10.00">+</text>
<text text-anchor="start" x="46.5" y="-487.5" font-family="Helvetica,sans-Serif" font-size="10.00">by_kind()</text>
<text text-anchor="start" x="26" y="-472.5" font-family="Helvetica,sans-Serif" font-size="10.00">+</text>
<text text-anchor="start" x="46.5" y="-472.5" font-family="Helvetica,sans-Serif" font-size="10.00">by_kind()</text>
<text text-anchor="start" x="26" y="-457.5" font-family="Helvetica,sans-Serif" font-size="10.00">+</text>
<text text-anchor="start" x="46.5" y="-457.5" font-family="Helvetica,sans-Serif" font-size="10.00">clear()</text>
<text text-anchor="start" x="26" y="-442.5" font-family="Helvetica,sans-Serif" font-size="10.00">+</text>
<text text-anchor="start" x="46.5" y="-442.5" font-family="Helvetica,sans-Serif" font-size="10.00">kind()</text>
<text text-anchor="start" x="26" y="-427.5" font-family="Helvetica,sans-Serif" font-size="10.00">+</text>
<text text-anchor="start" x="46.5" y="-427.5" font-family="Helvetica,sans-Serif" font-size="10.00">move()</text>
<text text-anchor="start" x="26" y="-412.5" font-family="Helvetica,sans-Serif" font-size="10.00">+</text>
<text text-anchor="start" x="46.5" y="-412.5" font-family="Helvetica,sans-Serif" font-size="10.00">type_get()</text>
<polygon fill="#666666" stroke="#666666" points="14.5,-527.5 14.5,-527.5 117.5,-527.5 117.5,-527.5 14.5,-527.5"/>
<polygon fill="#666666" stroke="#666666" points="14.5,-512.5 14.5,-512.5 44.5,-512.5 44.5,-512.5 14.5,-512.5"/>
<polygon fill="#666666" stroke="#666666" points="44.5,-512.5 44.5,-512.5 117.5,-512.5 117.5,-512.5 44.5,-512.5"/>
<polygon fill="none" stroke="#666666" points="14,-406 14,-545 117,-545 117,-406 14,-406"/>
</a>
</g>
</g>
<!-- Node3&#45;&gt;Node2 -->
<g id="edge2_Node000002_Node000003" class="edge">
<title>Node3&#45;&gt;Node2</title>
<g id="a_edge2_Node000002_Node000003"><a xlink:title=" ">
<path fill="none" stroke="#63b8ff" d="M65.5,-395.85C65.5,-387.53 65.5,-378.96 65.5,-370.35"/>
<polygon fill="none" stroke="#63b8ff" points="62,-395.86 65.5,-405.86 69,-395.86 62,-395.86"/>
</a>
</g>
</g>
</g>
</svg>
