<?xml version="1.0" encoding="UTF-8" standalone="no"?>
<!DOCTYPE svg PUBLIC "-//W3C//DTD SVG 1.1//EN"
 "http://www.w3.org/Graphics/SVG/1.1/DTD/svg11.dtd">
<!-- Generated by graphviz version 2.43.0 (0)
 -->
<!-- Title: dma_debug_hw_t Pages: 1 -->
<svg width="148pt" height="183pt"
 viewBox="0.00 0.00 148.00 183.00" xmlns="http://www.w3.org/2000/svg" xmlns:xlink="http://www.w3.org/1999/xlink">
<g id="graph0" class="graph" transform="scale(1 1) rotate(0) translate(4 179)">
<title>dma_debug_hw_t</title>
<!-- Node1 -->
<g id="Node000001" class="node">
<title>Node1</title>
<g id="a_Node000001"><a xlink:title=" ">
<polygon fill="#999999" stroke="transparent" points="118,-49 22,-49 22,0 118,0 118,-49"/>
<text text-anchor="start" x="27" y="-36.5" font-family="Helvetica,sans-Serif" font-size="10.00">dma_debug_hw_t</text>
<text text-anchor="start" x="66.5" y="-21.5" font-family="Helvetica,sans-Serif" font-size="10.00"> </text>
<text text-anchor="start" x="66.5" y="-6.5" font-family="Helvetica,sans-Serif" font-size="10.00"> </text>
<polygon fill="#666666" stroke="#666666" points="22,-31.5 22,-31.5 118,-31.5 118,-31.5 22,-31.5"/>
<polygon fill="#666666" stroke="#666666" points="22,-16.5 22,-16.5 118,-16.5 118,-16.5 22,-16.5"/>
<polygon fill="none" stroke="#666666" points="22,0 22,-49 118,-49 118,0 22,0"/>
</a>
</g>
</g>
<!-- Node2 -->
<g id="Node000002" class="node">
<title>Node2</title>
<g id="a_Node000002"><a xlink:href="structdma__debug__channel__hw__t.html" target="_top" xlink:title=" ">
<polygon fill="white" stroke="transparent" points="140,-175 0,-175 0,-96 140,-96 140,-175"/>
<text text-anchor="start" x="5" y="-162.5" font-family="Helvetica,sans-Serif" font-size="10.00">dma_debug_channel_hw_t</text>
<text text-anchor="start" x="20" y="-147.5" font-family="Helvetica,sans-Serif" font-size="10.00">+</text>
<text text-anchor="start" x="49" y="-147.5" font-family="Helvetica,sans-Serif" font-size="10.00">_pad0</text>
<text text-anchor="start" x="20" y="-132.5" font-family="Helvetica,sans-Serif" font-size="10.00">+</text>
<text text-anchor="start" x="49" y="-132.5" font-family="Helvetica,sans-Serif" font-size="10.00">dbg_ctdreq</text>
<text text-anchor="start" x="20" y="-117.5" font-family="Helvetica,sans-Serif" font-size="10.00">+</text>
<text text-anchor="start" x="49" y="-117.5" font-family="Helvetica,sans-Serif" font-size="10.00">dbg_tcr</text>
<text text-anchor="start" x="66.5" y="-102.5" font-family="Helvetica,sans-Serif" font-size="10.00"> </text>
<polygon fill="#666666" stroke="#666666" points="0,-157.5 0,-157.5 140,-157.5 140,-157.5 0,-157.5"/>
<polygon fill="#666666" stroke="#666666" points="0,-112.5 0,-112.5 47,-112.5 47,-112.5 0,-112.5"/>
<polygon fill="#666666" stroke="#666666" points="47,-112.5 47,-112.5 140,-112.5 140,-112.5 47,-112.5"/>
<polygon fill="none" stroke="#666666" points="0,-96 0,-175 140,-175 140,-96 0,-96"/>
</a>
</g>
</g>
<!-- Node2&#45;&gt;Node1 -->
<g id="edge1_Node000001_Node000002" class="edge">
<title>Node2&#45;&gt;Node1</title>
<g id="a_edge1_Node000001_Node000002"><a xlink:title=" ">
<path fill="none" stroke="#63b8ff" d="M70,-95.76C70,-84.59 70,-72.45 70,-61.46"/>
<polygon fill="none" stroke="#63b8ff" points="70,-61.2 66,-55.2 70,-49.2 74,-55.2 70,-61.2"/>
</a>
</g>
<text text-anchor="middle" x="81.5" y="-70" font-family="Helvetica,sans-Serif" font-size="10.00" fill="grey"> +ch</text>
</g>
</g>
</svg>
