<?xml version="1.0" encoding="UTF-8" standalone="no"?>
<!DOCTYPE svg PUBLIC "-//W3C//DTD SVG 1.1//EN"
 "http://www.w3.org/Graphics/SVG/1.1/DTD/svg11.dtd">
<!-- Generated by graphviz version 2.43.0 (0)
 -->
<!-- Title: _binary_info_sized_data Pages: 1 -->
<svg width="136pt" height="183pt"
 viewBox="0.00 0.00 136.00 183.00" xmlns="http://www.w3.org/2000/svg" xmlns:xlink="http://www.w3.org/1999/xlink">
<g id="graph0" class="graph" transform="scale(1 1) rotate(0) translate(4 179)">
<title>_binary_info_sized_data</title>
<!-- Node1 -->
<g id="Node000001" class="node">
<title>Node1</title>
<g id="a_Node000001"><a xlink:title=" ">
<polygon fill="#999999" stroke="transparent" points="128,-64 0,-64 0,0 128,0 128,-64"/>
<text text-anchor="start" x="5" y="-52" font-family="Helvetica,sans-Serif" font-size="10.00">_binary_info_sized_data</text>
<text text-anchor="start" x="23" y="-37" font-family="Helvetica,sans-Serif" font-size="10.00">+</text>
<text text-anchor="start" x="55" y="-37" font-family="Helvetica,sans-Serif" font-size="10.00">bytes</text>
<text text-anchor="start" x="23" y="-22" font-family="Helvetica,sans-Serif" font-size="10.00">+</text>
<text text-anchor="start" x="55" y="-22" font-family="Helvetica,sans-Serif" font-size="10.00">length</text>
<text text-anchor="start" x="60.5" y="-7" font-family="Helvetica,sans-Serif" font-size="10.00"> </text>
<polygon fill="#666666" stroke="#666666" points="0,-47 0,-47 128,-47 128,-47 0,-47"/>
<polygon fill="#666666" stroke="#666666" points="0,-17 0,-17 53,-17 53,-17 0,-17"/>
<polygon fill="#666666" stroke="#666666" points="53,-17 53,-17 128,-17 128,-17 53,-17"/>
<polygon fill="none" stroke="#666666" points="0,0 0,-64 128,-64 128,0 0,0"/>
</a>
</g>
</g>
<!-- Node2 -->
<g id="Node000002" class="node">
<title>Node2</title>
<g id="a_Node000002"><a xlink:href="struct__binary__info__core.html" target="_top" xlink:title=" ">
<polygon fill="white" stroke="transparent" points="112.5,-175 15.5,-175 15.5,-111 112.5,-111 112.5,-175"/>
<text text-anchor="start" x="21" y="-163" font-family="Helvetica,sans-Serif" font-size="10.00">_binary_info_core</text>
<text text-anchor="start" x="33.5" y="-148" font-family="Helvetica,sans-Serif" font-size="10.00">+</text>
<text text-anchor="start" x="60" y="-148" font-family="Helvetica,sans-Serif" font-size="10.00">tag</text>
<text text-anchor="start" x="33.5" y="-133" font-family="Helvetica,sans-Serif" font-size="10.00">+</text>
<text text-anchor="start" x="60" y="-133" font-family="Helvetica,sans-Serif" font-size="10.00">type</text>
<text text-anchor="start" x="61" y="-118" font-family="Helvetica,sans-Serif" font-size="10.00"> </text>
<polygon fill="#666666" stroke="#666666" points="16,-158 16,-158 113,-158 113,-158 16,-158"/>
<polygon fill="#666666" stroke="#666666" points="16,-128 16,-128 58,-128 58,-128 16,-128"/>
<polygon fill="#666666" stroke="#666666" points="58,-128 58,-128 113,-128 113,-128 58,-128"/>
<polygon fill="none" stroke="#666666" points="15.5,-111 15.5,-175 112.5,-175 112.5,-111 15.5,-111"/>
</a>
</g>
</g>
<!-- Node2&#45;&gt;Node1 -->
<g id="edge1_Node000001_Node000002" class="edge">
<title>Node2&#45;&gt;Node1</title>
<g id="a_edge1_Node000001_Node000002"><a xlink:title=" ">
<path fill="none" stroke="#63b8ff" d="M64,-110.76C64,-100.05 64,-87.85 64,-76.35"/>
<polygon fill="none" stroke="#63b8ff" points="64,-76.24 60,-70.24 64,-64.24 68,-70.24 64,-76.24"/>
</a>
</g>
<text text-anchor="middle" x="80.5" y="-85" font-family="Helvetica,sans-Serif" font-size="10.00" fill="grey"> +core</text>
</g>
</g>
</svg>
