<?xml version="1.0" encoding="UTF-8" standalone="no"?>
<!DOCTYPE svg PUBLIC "-//W3C//DTD SVG 1.1//EN"
 "http://www.w3.org/Graphics/SVG/1.1/DTD/svg11.dtd">
<!-- Generated by graphviz version 2.43.0 (0)
 -->
<!-- Title: dma_hw_t Pages: 1 -->
<svg width="402pt" height="453pt"
 viewBox="0.00 0.00 402.00 453.00" xmlns="http://www.w3.org/2000/svg" xmlns:xlink="http://www.w3.org/1999/xlink">
<g id="graph0" class="graph" transform="scale(1 1) rotate(0) translate(4 449)">
<title>dma_hw_t</title>
<!-- Node1 -->
<g id="Node000001" class="node">
<title>Node1</title>
<g id="a_Node000001"><a xlink:title=" ">
<polygon fill="#999999" stroke="transparent" points="241.5,-199 162.5,-199 162.5,0 241.5,0 241.5,-199"/>
<text text-anchor="start" x="177" y="-186.5" font-family="Helvetica,sans-Serif" font-size="10.00">dma_hw_t</text>
<text text-anchor="start" x="167" y="-171.5" font-family="Helvetica,sans-Serif" font-size="10.00">+</text>
<text text-anchor="start" x="180" y="-171.5" font-family="Helvetica,sans-Serif" font-size="10.00">@15</text>
<text text-anchor="start" x="167" y="-156.5" font-family="Helvetica,sans-Serif" font-size="10.00">+</text>
<text text-anchor="start" x="180" y="-156.5" font-family="Helvetica,sans-Serif" font-size="10.00">@47</text>
<text text-anchor="start" x="167" y="-141.5" font-family="Helvetica,sans-Serif" font-size="10.00">+</text>
<text text-anchor="start" x="180" y="-141.5" font-family="Helvetica,sans-Serif" font-size="10.00">__pad0</text>
<text text-anchor="start" x="167" y="-126.5" font-family="Helvetica,sans-Serif" font-size="10.00">+</text>
<text text-anchor="start" x="180" y="-126.5" font-family="Helvetica,sans-Serif" font-size="10.00">__pad1</text>
<text text-anchor="start" x="167" y="-111.5" font-family="Helvetica,sans-Serif" font-size="10.00">+</text>
<text text-anchor="start" x="180" y="-111.5" font-family="Helvetica,sans-Serif" font-size="10.00">__pad2</text>
<text text-anchor="start" x="167" y="-96.5" font-family="Helvetica,sans-Serif" font-size="10.00">+</text>
<text text-anchor="start" x="180" y="-96.5" font-family="Helvetica,sans-Serif" font-size="10.00">_pad0</text>
<text text-anchor="start" x="167" y="-81.5" font-family="Helvetica,sans-Serif" font-size="10.00">+</text>
<text text-anchor="start" x="180" y="-81.5" font-family="Helvetica,sans-Serif" font-size="10.00">_pad1</text>
<text text-anchor="start" x="167" y="-66.5" font-family="Helvetica,sans-Serif" font-size="10.00">+</text>
<text text-anchor="start" x="180" y="-66.5" font-family="Helvetica,sans-Serif" font-size="10.00">_pad2</text>
<text text-anchor="start" x="167" y="-51.5" font-family="Helvetica,sans-Serif" font-size="10.00">+</text>
<text text-anchor="start" x="180" y="-51.5" font-family="Helvetica,sans-Serif" font-size="10.00">abort</text>
<text text-anchor="start" x="167" y="-36.5" font-family="Helvetica,sans-Serif" font-size="10.00">+</text>
<text text-anchor="start" x="180" y="-36.5" font-family="Helvetica,sans-Serif" font-size="10.00">fifo_levels</text>
<text text-anchor="start" x="180" y="-21.5" font-family="Helvetica,sans-Serif" font-size="10.00">e 22 mais...</text>
<text text-anchor="start" x="199" y="-6.5" font-family="Helvetica,sans-Serif" font-size="10.00"> </text>
<polygon fill="#666666" stroke="#666666" points="163,-181.5 163,-181.5 242,-181.5 242,-181.5 163,-181.5"/>
<polygon fill="#666666" stroke="#666666" points="163,-16.5 163,-16.5 178,-16.5 178,-16.5 163,-16.5"/>
<polygon fill="#666666" stroke="#666666" points="178,-16.5 178,-16.5 242,-16.5 242,-16.5 178,-16.5"/>
<polygon fill="none" stroke="#666666" points="162.5,0 162.5,-199 241.5,-199 241.5,0 162.5,0"/>
</a>
</g>
</g>
<!-- Node2 -->
<g id="Node000002" class="node">
<title>Node2</title>
<g id="a_Node000002"><a xlink:href="structdma__channel__hw__t.html" target="_top" xlink:title=" ">
<polygon fill="white" stroke="transparent" points="134,-445 0,-445 0,-246 134,-246 134,-445"/>
<text text-anchor="start" x="20" y="-432.5" font-family="Helvetica,sans-Serif" font-size="10.00">dma_channel_hw_t</text>
<text text-anchor="start" x="4" y="-417.5" font-family="Helvetica,sans-Serif" font-size="10.00">+</text>
<text text-anchor="start" x="17" y="-417.5" font-family="Helvetica,sans-Serif" font-size="10.00">al1_ctrl</text>
<text text-anchor="start" x="4" y="-402.5" font-family="Helvetica,sans-Serif" font-size="10.00">+</text>
<text text-anchor="start" x="17" y="-402.5" font-family="Helvetica,sans-Serif" font-size="10.00">al1_read_addr</text>
<text text-anchor="start" x="4" y="-387.5" font-family="Helvetica,sans-Serif" font-size="10.00">+</text>
<text text-anchor="start" x="17" y="-387.5" font-family="Helvetica,sans-Serif" font-size="10.00">al1_transfer_count_trig</text>
<text text-anchor="start" x="4" y="-372.5" font-family="Helvetica,sans-Serif" font-size="10.00">+</text>
<text text-anchor="start" x="17" y="-372.5" font-family="Helvetica,sans-Serif" font-size="10.00">al1_write_addr</text>
<text text-anchor="start" x="4" y="-357.5" font-family="Helvetica,sans-Serif" font-size="10.00">+</text>
<text text-anchor="start" x="17" y="-357.5" font-family="Helvetica,sans-Serif" font-size="10.00">al2_ctrl</text>
<text text-anchor="start" x="4" y="-342.5" font-family="Helvetica,sans-Serif" font-size="10.00">+</text>
<text text-anchor="start" x="17" y="-342.5" font-family="Helvetica,sans-Serif" font-size="10.00">al2_read_addr</text>
<text text-anchor="start" x="4" y="-327.5" font-family="Helvetica,sans-Serif" font-size="10.00">+</text>
<text text-anchor="start" x="17" y="-327.5" font-family="Helvetica,sans-Serif" font-size="10.00">al2_transfer_count</text>
<text text-anchor="start" x="4" y="-312.5" font-family="Helvetica,sans-Serif" font-size="10.00">+</text>
<text text-anchor="start" x="17" y="-312.5" font-family="Helvetica,sans-Serif" font-size="10.00">al2_write_addr_trig</text>
<text text-anchor="start" x="4" y="-297.5" font-family="Helvetica,sans-Serif" font-size="10.00">+</text>
<text text-anchor="start" x="17" y="-297.5" font-family="Helvetica,sans-Serif" font-size="10.00">al3_ctrl</text>
<text text-anchor="start" x="4" y="-282.5" font-family="Helvetica,sans-Serif" font-size="10.00">+</text>
<text text-anchor="start" x="17" y="-282.5" font-family="Helvetica,sans-Serif" font-size="10.00">al3_read_addr_trig</text>
<text text-anchor="start" x="17" y="-267.5" font-family="Helvetica,sans-Serif" font-size="10.00">e 6 mais...</text>
<text text-anchor="start" x="63.5" y="-252.5" font-family="Helvetica,sans-Serif" font-size="10.00"> </text>
<polygon fill="#666666" stroke="#666666" points="0,-427.5 0,-427.5 134,-427.5 134,-427.5 0,-427.5"/>
<polygon fill="#666666" stroke="#666666" points="0,-262.5 0,-262.5 15,-262.5 15,-262.5 0,-262.5"/>
<polygon fill="#666666" stroke="#666666" points="15,-262.5 15,-262.5 134,-262.5 134,-262.5 15,-262.5"/>
<polygon fill="none" stroke="#666666" points="0,-246 0,-445 134,-445 134,-246 0,-246"/>
</a>
</g>
</g>
<!-- Node2&#45;&gt;Node1 -->
<g id="edge1_Node000001_Node000002" class="edge">
<title>Node2&#45;&gt;Node1</title>
<g id="a_edge1_Node000001_Node000002"><a xlink:title=" ">
<path fill="none" stroke="#63b8ff" d="M121.52,-245.96C133.12,-224.99 145.25,-203.07 156.47,-182.79"/>
<polygon fill="none" stroke="#63b8ff" points="156.62,-182.52 156.02,-175.34 162.43,-172.02 163.02,-179.21 156.62,-182.52"/>
</a>
</g>
<text text-anchor="middle" x="146.5" y="-220" font-family="Helvetica,sans-Serif" font-size="10.00" fill="grey"> +ch</text>
</g>
<!-- Node3 -->
<g id="Node000003" class="node">
<title>Node3</title>
<g id="a_Node000003"><a xlink:href="structdma__irq__ctrl__hw__t.html" target="_top" xlink:title=" ">
<polygon fill="white" stroke="transparent" points="252,-392.5 152,-392.5 152,-298.5 252,-298.5 252,-392.5"/>
<text text-anchor="start" x="157" y="-380.5" font-family="Helvetica,sans-Serif" font-size="10.00">dma_irq_ctrl_hw_t</text>
<text text-anchor="start" x="171" y="-365.5" font-family="Helvetica,sans-Serif" font-size="10.00">+</text>
<text text-anchor="start" x="199" y="-365.5" font-family="Helvetica,sans-Serif" font-size="10.00">inte</text>
<text text-anchor="start" x="171" y="-350.5" font-family="Helvetica,sans-Serif" font-size="10.00">+</text>
<text text-anchor="start" x="199" y="-350.5" font-family="Helvetica,sans-Serif" font-size="10.00">intf</text>
<text text-anchor="start" x="171" y="-335.5" font-family="Helvetica,sans-Serif" font-size="10.00">+</text>
<text text-anchor="start" x="199" y="-335.5" font-family="Helvetica,sans-Serif" font-size="10.00">intr</text>
<text text-anchor="start" x="171" y="-320.5" font-family="Helvetica,sans-Serif" font-size="10.00">+</text>
<text text-anchor="start" x="199" y="-320.5" font-family="Helvetica,sans-Serif" font-size="10.00">ints</text>
<text text-anchor="start" x="198.5" y="-305.5" font-family="Helvetica,sans-Serif" font-size="10.00"> </text>
<polygon fill="#666666" stroke="#666666" points="152,-375.5 152,-375.5 252,-375.5 252,-375.5 152,-375.5"/>
<polygon fill="#666666" stroke="#666666" points="152,-315.5 152,-315.5 197,-315.5 197,-315.5 152,-315.5"/>
<polygon fill="#666666" stroke="#666666" points="197,-315.5 197,-315.5 252,-315.5 252,-315.5 197,-315.5"/>
<polygon fill="none" stroke="#666666" points="152,-298.5 152,-392.5 252,-392.5 252,-298.5 152,-298.5"/>
</a>
</g>
</g>
<!-- Node3&#45;&gt;Node1 -->
<g id="edge2_Node000001_Node000003" class="edge">
<title>Node3&#45;&gt;Node1</title>
<g id="a_edge2_Node000001_Node000003"><a xlink:title=" ">
<path fill="none" stroke="#63b8ff" d="M202,-298.32C202,-273.56 202,-241.9 202,-211.2"/>
<polygon fill="none" stroke="#63b8ff" points="202,-211.04 198,-205.04 202,-199.04 206,-205.04 202,-211.04"/>
</a>
</g>
<text text-anchor="middle" x="225" y="-220" font-family="Helvetica,sans-Serif" font-size="10.00" fill="grey"> +irq_ctrl</text>
</g>
<!-- Node4 -->
<g id="Node000004" class="node">
<title>Node4</title>
<g id="a_Node000004"><a xlink:href="structdma__mpu__region__hw__t.html" target="_top" xlink:title=" ">
<polygon fill="white" stroke="transparent" points="394,-377.5 270,-377.5 270,-313.5 394,-313.5 394,-377.5"/>
<text text-anchor="start" x="275" y="-365.5" font-family="Helvetica,sans-Serif" font-size="10.00">dma_mpu_region_hw_t</text>
<text text-anchor="start" x="295.5" y="-350.5" font-family="Helvetica,sans-Serif" font-size="10.00">+</text>
<text text-anchor="start" x="330" y="-350.5" font-family="Helvetica,sans-Serif" font-size="10.00">bar</text>
<text text-anchor="start" x="295.5" y="-335.5" font-family="Helvetica,sans-Serif" font-size="10.00">+</text>
<text text-anchor="start" x="330" y="-335.5" font-family="Helvetica,sans-Serif" font-size="10.00">lar</text>
<text text-anchor="start" x="328.5" y="-320.5" font-family="Helvetica,sans-Serif" font-size="10.00"> </text>
<polygon fill="#666666" stroke="#666666" points="270,-360.5 270,-360.5 394,-360.5 394,-360.5 270,-360.5"/>
<polygon fill="#666666" stroke="#666666" points="270,-330.5 270,-330.5 328,-330.5 328,-330.5 270,-330.5"/>
<polygon fill="#666666" stroke="#666666" points="328,-330.5 328,-330.5 394,-330.5 394,-330.5 328,-330.5"/>
<polygon fill="none" stroke="#666666" points="270,-313.5 270,-377.5 394,-377.5 394,-313.5 270,-313.5"/>
</a>
</g>
</g>
<!-- Node4&#45;&gt;Node1 -->
<g id="edge3_Node000001_Node000004" class="edge">
<title>Node4&#45;&gt;Node1</title>
<g id="a_edge3_Node000001_Node000004"><a xlink:title=" ">
<path fill="none" stroke="#63b8ff" d="M315.27,-313.1C298.17,-281 270.84,-229.71 247.32,-185.56"/>
<polygon fill="none" stroke="#63b8ff" points="247.23,-185.39 240.88,-181.97 241.58,-174.8 247.94,-178.21 247.23,-185.39"/>
</a>
</g>
<text text-anchor="middle" x="302" y="-220" font-family="Helvetica,sans-Serif" font-size="10.00" fill="grey"> +mpu_region</text>
</g>
</g>
</svg>
