<?xml version="1.0" encoding="UTF-8" standalone="no"?>
<!DOCTYPE svg PUBLIC "-//W3C//DTD SVG 1.1//EN"
 "http://www.w3.org/Graphics/SVG/1.1/DTD/svg11.dtd">
<!-- Generated by graphviz version 2.43.0 (0)
 -->
<!-- Title: cybt_fw_membuf_index_t Pages: 1 -->
<svg width="145pt" height="102pt"
 viewBox="0.00 0.00 145.00 102.00" xmlns="http://www.w3.org/2000/svg" xmlns:xlink="http://www.w3.org/1999/xlink">
<g id="graph0" class="graph" transform="scale(1 1) rotate(0) translate(4 98)">
<title>cybt_fw_membuf_index_t</title>
<!-- Node1 -->
<g id="Node000001" class="node">
<title>Node1</title>
<g id="a_Node000001"><a xlink:title=" ">
<polygon fill="#999999" stroke="transparent" points="137,-94 0,-94 0,0 137,0 137,-94"/>
<text text-anchor="start" x="5.5" y="-82" font-family="Helvetica,sans-Serif" font-size="10.00">cybt_fw_membuf_index_t</text>
<text text-anchor="start" x="13.5" y="-67" font-family="Helvetica,sans-Serif" font-size="10.00">+</text>
<text text-anchor="start" x="35.5" y="-67" font-family="Helvetica,sans-Serif" font-size="10.00">bt2host_in_val</text>
<text text-anchor="start" x="13.5" y="-52" font-family="Helvetica,sans-Serif" font-size="10.00">+</text>
<text text-anchor="start" x="35.5" y="-52" font-family="Helvetica,sans-Serif" font-size="10.00">bt2host_out_val</text>
<text text-anchor="start" x="13.5" y="-37" font-family="Helvetica,sans-Serif" font-size="10.00">+</text>
<text text-anchor="start" x="35.5" y="-37" font-family="Helvetica,sans-Serif" font-size="10.00">host2bt_in_val</text>
<text text-anchor="start" x="13.5" y="-22" font-family="Helvetica,sans-Serif" font-size="10.00">+</text>
<text text-anchor="start" x="35.5" y="-22" font-family="Helvetica,sans-Serif" font-size="10.00">host2bt_out_val</text>
<text text-anchor="start" x="65.5" y="-7" font-family="Helvetica,sans-Serif" font-size="10.00"> </text>
<polygon fill="#666666" stroke="#666666" points="0.5,-77 0.5,-77 137.5,-77 137.5,-77 0.5,-77"/>
<polygon fill="#666666" stroke="#666666" points="0.5,-17 0.5,-17 33.5,-17 33.5,-17 0.5,-17"/>
<polygon fill="#666666" stroke="#666666" points="33.5,-17 33.5,-17 137.5,-17 137.5,-17 33.5,-17"/>
<polygon fill="none" stroke="#666666" points="0,0 0,-94 137,-94 137,0 0,0"/>
</a>
</g>
</g>
</g>
</svg>
