<?xml version="1.0" encoding="UTF-8" standalone="no"?>
<!DOCTYPE svg PUBLIC "-//W3C//DTD SVG 1.1//EN"
 "http://www.w3.org/Graphics/SVG/1.1/DTD/svg11.dtd">
<!-- Generated by graphviz version 2.43.0 (0)
 -->
<!-- Title: semaphore Pages: 1 -->
<svg width="109pt" height="264pt"
 viewBox="0.00 0.00 109.00 264.00" xmlns="http://www.w3.org/2000/svg" xmlns:xlink="http://www.w3.org/1999/xlink">
<g id="graph0" class="graph" transform="scale(1 1) rotate(0) translate(4 260)">
<title>semaphore</title>
<!-- Node1 -->
<g id="Node000001" class="node">
<title>Node1</title>
<g id="a_Node000001"><a xlink:title=" ">
<polygon fill="#999999" stroke="transparent" points="86,-64 0,-64 0,0 86,0 86,-64"/>
<text text-anchor="start" x="15.5" y="-52" font-family="Helvetica,sans-Serif" font-size="10.00">semaphore</text>
<text text-anchor="start" x="4" y="-37" font-family="Helvetica,sans-Serif" font-size="10.00">+</text>
<text text-anchor="start" x="17" y="-37" font-family="Helvetica,sans-Serif" font-size="10.00">max_permits</text>
<text text-anchor="start" x="4" y="-22" font-family="Helvetica,sans-Serif" font-size="10.00">+</text>
<text text-anchor="start" x="17" y="-22" font-family="Helvetica,sans-Serif" font-size="10.00">permits</text>
<text text-anchor="start" x="39.5" y="-7" font-family="Helvetica,sans-Serif" font-size="10.00"> </text>
<polygon fill="#666666" stroke="#666666" points="0,-47 0,-47 86,-47 86,-47 0,-47"/>
<polygon fill="#666666" stroke="#666666" points="0,-17 0,-17 15,-17 15,-17 0,-17"/>
<polygon fill="#666666" stroke="#666666" points="15,-17 15,-17 86,-17 86,-17 15,-17"/>
<polygon fill="none" stroke="#666666" points="0,0 0,-64 86,-64 86,0 0,0"/>
</a>
</g>
</g>
<!-- Node2 -->
<g id="Node000002" class="node">
<title>Node2</title>
<g id="a_Node000002"><a xlink:href="structlock__core.html" target="_top" xlink:title=" ">
<polygon fill="white" stroke="transparent" points="71.5,-160 14.5,-160 14.5,-111 71.5,-111 71.5,-160"/>
<text text-anchor="start" x="20" y="-147.5" font-family="Helvetica,sans-Serif" font-size="10.00">lock_core</text>
<text text-anchor="start" x="40" y="-132.5" font-family="Helvetica,sans-Serif" font-size="10.00"> </text>
<text text-anchor="start" x="40" y="-117.5" font-family="Helvetica,sans-Serif" font-size="10.00"> </text>
<polygon fill="#666666" stroke="#666666" points="15,-142.5 15,-142.5 72,-142.5 72,-142.5 15,-142.5"/>
<polygon fill="#666666" stroke="#666666" points="15,-127.5 15,-127.5 72,-127.5 72,-127.5 15,-127.5"/>
<polygon fill="none" stroke="#666666" points="14.5,-111 14.5,-160 71.5,-160 71.5,-111 14.5,-111"/>
</a>
</g>
</g>
<!-- Node2&#45;&gt;Node1 -->
<g id="edge1_Node000001_Node000002" class="edge">
<title>Node2&#45;&gt;Node1</title>
<g id="a_edge1_Node000001_Node000002"><a xlink:title=" ">
<path fill="none" stroke="#63b8ff" d="M43,-110.96C43,-100.61 43,-88.13 43,-76.21"/>
<polygon fill="none" stroke="#63b8ff" points="43,-76.11 39,-70.11 43,-64.11 47,-70.11 43,-76.11"/>
</a>
</g>
<text text-anchor="middle" x="59.5" y="-85" font-family="Helvetica,sans-Serif" font-size="10.00" fill="grey"> +core</text>
</g>
<!-- Node3 -->
<g id="Node000003" class="node">
<title>Node3</title>
<g id="a_Node000003"><a xlink:title=" ">
<polygon fill="white" stroke="transparent" points="78.5,-256 7.5,-256 7.5,-207 78.5,-207 78.5,-256"/>
<text text-anchor="start" x="13" y="-243.5" font-family="Helvetica,sans-Serif" font-size="10.00">_spin_lock_t</text>
<text text-anchor="start" x="16.5" y="-228.5" font-family="Helvetica,sans-Serif" font-size="10.00">+</text>
<text text-anchor="start" x="34" y="-228.5" font-family="Helvetica,sans-Serif" font-size="10.00">locked</text>
<text text-anchor="start" x="40" y="-213.5" font-family="Helvetica,sans-Serif" font-size="10.00"> </text>
<polygon fill="#666666" stroke="#666666" points="8,-238.5 8,-238.5 79,-238.5 79,-238.5 8,-238.5"/>
<polygon fill="#666666" stroke="#666666" points="8,-223.5 8,-223.5 32,-223.5 32,-223.5 8,-223.5"/>
<polygon fill="#666666" stroke="#666666" points="32,-223.5 32,-223.5 79,-223.5 79,-223.5 32,-223.5"/>
<polygon fill="none" stroke="#666666" points="7.5,-207 7.5,-256 78.5,-256 78.5,-207 7.5,-207"/>
</a>
</g>
</g>
<!-- Node3&#45;&gt;Node2 -->
<g id="edge2_Node000002_Node000003" class="edge">
<title>Node3&#45;&gt;Node2</title>
<g id="a_edge2_Node000002_Node000003"><a xlink:title=" ">
<path fill="none" stroke="#63b8ff" d="M43,-206.78C43,-196.32 43,-183.79 43,-172.23"/>
<polygon fill="none" stroke="#63b8ff" points="43,-172.21 39,-166.21 43,-160.21 47,-166.21 43,-172.21"/>
</a>
</g>
<text text-anchor="middle" x="72" y="-181" font-family="Helvetica,sans-Serif" font-size="10.00" fill="grey"> +spin_lock</text>
</g>
</g>
</svg>
