<?xml version="1.0" encoding="UTF-8" standalone="no"?>
<!DOCTYPE svg PUBLIC "-//W3C//DTD SVG 1.1//EN"
 "http://www.w3.org/Graphics/SVG/1.1/DTD/svg11.dtd">
<!-- Generated by graphviz version 2.43.0 (0)
 -->
<!-- Title: rom_helper_explicit_buy_params_t Pages: 1 -->
<svg width="115pt" height="98pt"
 viewBox="0.00 0.00 115.00 98.00" xmlns="http://www.w3.org/2000/svg" xmlns:xlink="http://www.w3.org/1999/xlink">
<g id="graph0" class="graph" transform="scale(1 1) rotate(0) translate(4 94)">
<title>rom_helper_explicit_buy_params_t</title>
<!-- Node1 -->
<g id="Node000001" class="node">
<title>Node1</title>
<g id="a_Node000001"><a xlink:title=" ">
<polygon fill="#999999" stroke="transparent" points="107,-90 0,-90 0,0 107,0 107,-90"/>
<text text-anchor="start" x="5.5" y="-78" font-family="Helvetica,sans-Serif" font-size="10.00">rom_helper_explicit</text>
<text text-anchor="start" x="16.5" y="-67" font-family="Helvetica,sans-Serif" font-size="10.00">_buy_params_t</text>
<text text-anchor="start" x="12" y="-52" font-family="Helvetica,sans-Serif" font-size="10.00">+</text>
<text text-anchor="start" x="32.5" y="-52" font-family="Helvetica,sans-Serif" font-size="10.00">buffer</text>
<text text-anchor="start" x="12" y="-37" font-family="Helvetica,sans-Serif" font-size="10.00">+</text>
<text text-anchor="start" x="32.5" y="-37" font-family="Helvetica,sans-Serif" font-size="10.00">buffer_size</text>
<text text-anchor="start" x="12" y="-22" font-family="Helvetica,sans-Serif" font-size="10.00">+</text>
<text text-anchor="start" x="32.5" y="-22" font-family="Helvetica,sans-Serif" font-size="10.00">res</text>
<text text-anchor="start" x="50.5" y="-7" font-family="Helvetica,sans-Serif" font-size="10.00"> </text>
<polygon fill="#666666" stroke="#666666" points="0.5,-62 0.5,-62 107.5,-62 107.5,-62 0.5,-62"/>
<polygon fill="#666666" stroke="#666666" points="0.5,-17 0.5,-17 30.5,-17 30.5,-17 0.5,-17"/>
<polygon fill="#666666" stroke="#666666" points="30.5,-17 30.5,-17 107.5,-17 107.5,-17 30.5,-17"/>
<polygon fill="none" stroke="#666666" points="0,0 0,-90 107,-90 107,0 0,0"/>
</a>
</g>
</g>
</g>
</svg>
