<?xml version="1.0" encoding="UTF-8" standalone="no"?>
<!DOCTYPE svg PUBLIC "-//W3C//DTD SVG 1.1//EN"
 "http://www.w3.org/Graphics/SVG/1.1/DTD/svg11.dtd">
<!-- Generated by graphviz version 2.43.0 (0)
 -->
<!-- Title: async_context Pages: 1 -->
<svg width="547pt" height="389pt"
 viewBox="0.00 0.00 546.50 389.00" xmlns="http://www.w3.org/2000/svg" xmlns:xlink="http://www.w3.org/1999/xlink">
<g id="graph0" class="graph" transform="scale(1 1) rotate(0) translate(4 385)">
<title>async_context</title>
<!-- Node1 -->
<g id="Node000001" class="node">
<title>Node1</title>
<g id="a_Node000001"><a xlink:title="Base structure type of all async_contexts.">
<polygon fill="#999999" stroke="transparent" points="270.5,-79 189.5,-79 189.5,0 270.5,0 270.5,-79"/>
<text text-anchor="start" x="195" y="-66.5" font-family="Helvetica,sans-Serif" font-size="10.00">async_context</text>
<text text-anchor="start" x="196.5" y="-51.5" font-family="Helvetica,sans-Serif" font-size="10.00">+</text>
<text text-anchor="start" x="212" y="-51.5" font-family="Helvetica,sans-Serif" font-size="10.00">core_num</text>
<text text-anchor="start" x="196.5" y="-36.5" font-family="Helvetica,sans-Serif" font-size="10.00">+</text>
<text text-anchor="start" x="212" y="-36.5" font-family="Helvetica,sans-Serif" font-size="10.00">flags</text>
<text text-anchor="start" x="196.5" y="-21.5" font-family="Helvetica,sans-Serif" font-size="10.00">+</text>
<text text-anchor="start" x="212" y="-21.5" font-family="Helvetica,sans-Serif" font-size="10.00">next_time</text>
<text text-anchor="start" x="227" y="-6.5" font-family="Helvetica,sans-Serif" font-size="10.00"> </text>
<polygon fill="#666666" stroke="#666666" points="190,-61.5 190,-61.5 271,-61.5 271,-61.5 190,-61.5"/>
<polygon fill="#666666" stroke="#666666" points="190,-16.5 190,-16.5 210,-16.5 210,-16.5 190,-16.5"/>
<polygon fill="#666666" stroke="#666666" points="210,-16.5 210,-16.5 271,-16.5 271,-16.5 210,-16.5"/>
<polygon fill="none" stroke="#666666" points="189.5,0 189.5,-79 270.5,-79 270.5,0 189.5,0"/>
</a>
</g>
</g>
<!-- Node2 -->
<g id="Node000002" class="node">
<title>Node2</title>
<g id="a_Node000002"><a xlink:href="structasync__context__type.html" target="_top" xlink:title="Implementation of an async_context type, providing methods common to that type.">
<polygon fill="white" stroke="transparent" points="154,-381 0,-381 0,-126 154,-126 154,-381"/>
<text text-anchor="start" x="28" y="-368.5" font-family="Helvetica,sans-Serif" font-size="10.00">async_context_type</text>
<text text-anchor="start" x="4" y="-353.5" font-family="Helvetica,sans-Serif" font-size="10.00">+</text>
<text text-anchor="start" x="17" y="-353.5" font-family="Helvetica,sans-Serif" font-size="10.00">acquire_lock_blocking</text>
<text text-anchor="start" x="4" y="-338.5" font-family="Helvetica,sans-Serif" font-size="10.00">+</text>
<text text-anchor="start" x="17" y="-338.5" font-family="Helvetica,sans-Serif" font-size="10.00">add_at_time_worker</text>
<text text-anchor="start" x="4" y="-323.5" font-family="Helvetica,sans-Serif" font-size="10.00">+</text>
<text text-anchor="start" x="17" y="-323.5" font-family="Helvetica,sans-Serif" font-size="10.00">add_when_pending_worker</text>
<text text-anchor="start" x="4" y="-308.5" font-family="Helvetica,sans-Serif" font-size="10.00">+</text>
<text text-anchor="start" x="17" y="-308.5" font-family="Helvetica,sans-Serif" font-size="10.00">deinit</text>
<text text-anchor="start" x="4" y="-293.5" font-family="Helvetica,sans-Serif" font-size="10.00">+</text>
<text text-anchor="start" x="17" y="-293.5" font-family="Helvetica,sans-Serif" font-size="10.00">execute_sync</text>
<text text-anchor="start" x="4" y="-278.5" font-family="Helvetica,sans-Serif" font-size="10.00">+</text>
<text text-anchor="start" x="17" y="-278.5" font-family="Helvetica,sans-Serif" font-size="10.00">lock_check</text>
<text text-anchor="start" x="4" y="-263.5" font-family="Helvetica,sans-Serif" font-size="10.00">+</text>
<text text-anchor="start" x="17" y="-263.5" font-family="Helvetica,sans-Serif" font-size="10.00">poll</text>
<text text-anchor="start" x="4" y="-248.5" font-family="Helvetica,sans-Serif" font-size="10.00">+</text>
<text text-anchor="start" x="17" y="-248.5" font-family="Helvetica,sans-Serif" font-size="10.00">release_lock</text>
<text text-anchor="start" x="4" y="-233.5" font-family="Helvetica,sans-Serif" font-size="10.00">+</text>
<text text-anchor="start" x="17" y="-233.5" font-family="Helvetica,sans-Serif" font-size="10.00">remove_at_time_worker</text>
<text text-anchor="start" x="4" y="-218.5" font-family="Helvetica,sans-Serif" font-size="10.00">+</text>
<text text-anchor="start" x="17" y="-218.5" font-family="Helvetica,sans-Serif" font-size="10.00">remove_when_pending</text>
<text text-anchor="start" x="17" y="-207.5" font-family="Helvetica,sans-Serif" font-size="10.00">_worker</text>
<text text-anchor="start" x="4" y="-192.5" font-family="Helvetica,sans-Serif" font-size="10.00">+</text>
<text text-anchor="start" x="17" y="-192.5" font-family="Helvetica,sans-Serif" font-size="10.00">set_work_pending</text>
<text text-anchor="start" x="4" y="-177.5" font-family="Helvetica,sans-Serif" font-size="10.00">+</text>
<text text-anchor="start" x="17" y="-177.5" font-family="Helvetica,sans-Serif" font-size="10.00">type</text>
<text text-anchor="start" x="4" y="-162.5" font-family="Helvetica,sans-Serif" font-size="10.00">+</text>
<text text-anchor="start" x="17" y="-162.5" font-family="Helvetica,sans-Serif" font-size="10.00">wait_for_work_until</text>
<text text-anchor="start" x="4" y="-147.5" font-family="Helvetica,sans-Serif" font-size="10.00">+</text>
<text text-anchor="start" x="17" y="-147.5" font-family="Helvetica,sans-Serif" font-size="10.00">wait_until</text>
<text text-anchor="start" x="73.5" y="-132.5" font-family="Helvetica,sans-Serif" font-size="10.00"> </text>
<polygon fill="#666666" stroke="#666666" points="0,-363.5 0,-363.5 154,-363.5 154,-363.5 0,-363.5"/>
<polygon fill="#666666" stroke="#666666" points="0,-142.5 0,-142.5 15,-142.5 15,-142.5 0,-142.5"/>
<polygon fill="#666666" stroke="#666666" points="15,-142.5 15,-142.5 154,-142.5 154,-142.5 15,-142.5"/>
<polygon fill="none" stroke="#666666" points="0,-126 0,-381 154,-381 154,-126 0,-126"/>
</a>
</g>
</g>
<!-- Node2&#45;&gt;Node1 -->
<g id="edge1_Node000001_Node000002" class="edge">
<title>Node2&#45;&gt;Node1</title>
<g id="a_edge1_Node000001_Node000002"><a xlink:title=" ">
<path fill="none" stroke="#63b8ff" d="M154,-139.85C157.36,-135.16 160.7,-130.52 164,-126 172.8,-113.93 182.52,-101.08 191.73,-89.12"/>
<polygon fill="none" stroke="#63b8ff" points="191.97,-88.81 192.48,-81.61 199.32,-79.32 198.81,-86.51 191.97,-88.81"/>
</a>
</g>
<text text-anchor="middle" x="203" y="-100" font-family="Helvetica,sans-Serif" font-size="10.00" fill="grey"> +type</text>
</g>
<!-- Node3 -->
<g id="Node000003" class="node">
<title>Node3</title>
<g id="a_Node000003"><a xlink:href="structasync__when__pending__worker.html" target="_top" xlink:title="A &quot;worker&quot; instance used by an async_context.">
<polygon fill="white" stroke="transparent" points="287.5,-298.5 172.5,-298.5 172.5,-208.5 287.5,-208.5 287.5,-298.5"/>
<text text-anchor="start" x="178" y="-286.5" font-family="Helvetica,sans-Serif" font-size="10.00">async_when_pending</text>
<text text-anchor="start" x="211" y="-275.5" font-family="Helvetica,sans-Serif" font-size="10.00">_worker</text>
<text text-anchor="start" x="183" y="-260.5" font-family="Helvetica,sans-Serif" font-size="10.00">+</text>
<text text-anchor="start" x="202" y="-260.5" font-family="Helvetica,sans-Serif" font-size="10.00">do_work</text>
<text text-anchor="start" x="183" y="-245.5" font-family="Helvetica,sans-Serif" font-size="10.00">+</text>
<text text-anchor="start" x="202" y="-245.5" font-family="Helvetica,sans-Serif" font-size="10.00">user_data</text>
<text text-anchor="start" x="183" y="-230.5" font-family="Helvetica,sans-Serif" font-size="10.00">+</text>
<text text-anchor="start" x="202" y="-230.5" font-family="Helvetica,sans-Serif" font-size="10.00">work_pending</text>
<text text-anchor="start" x="227" y="-215.5" font-family="Helvetica,sans-Serif" font-size="10.00"> </text>
<polygon fill="#666666" stroke="#666666" points="173,-270.5 173,-270.5 288,-270.5 288,-270.5 173,-270.5"/>
<polygon fill="#666666" stroke="#666666" points="173,-225.5 173,-225.5 200,-225.5 200,-225.5 173,-225.5"/>
<polygon fill="#666666" stroke="#666666" points="200,-225.5 200,-225.5 288,-225.5 288,-225.5 200,-225.5"/>
<polygon fill="none" stroke="#666666" points="172.5,-208.5 172.5,-298.5 287.5,-298.5 287.5,-208.5 172.5,-208.5"/>
</a>
</g>
</g>
<!-- Node3&#45;&gt;Node1 -->
<g id="edge2_Node000001_Node000003" class="edge">
<title>Node3&#45;&gt;Node1</title>
<g id="a_edge2_Node000001_Node000003"><a xlink:title=" ">
<path fill="none" stroke="#63b8ff" d="M230,-208.32C230,-174.23 230,-127.04 230,-91.38"/>
<polygon fill="none" stroke="#63b8ff" points="230,-91.28 226,-85.28 230,-79.28 234,-85.28 230,-91.28"/>
</a>
</g>
<text text-anchor="middle" x="281.5" y="-100" font-family="Helvetica,sans-Serif" font-size="10.00" fill="grey"> +when_pending_list</text>
</g>
<!-- Node3&#45;&gt;Node3 -->
<g id="edge3_Node000003_Node000003" class="edge">
<title>Node3&#45;&gt;Node3</title>
<g id="a_edge3_Node000003_Node000003"><a xlink:title=" ">
<path fill="none" stroke="#63b8ff" d="M287.61,-280.08C298.12,-276.72 305.5,-267.86 305.5,-253.5 305.5,-244.75 302.76,-238.04 298.24,-233.38"/>
<polygon fill="none" stroke="#63b8ff" points="297.86,-233.15 290.66,-233.45 287.61,-226.92 294.81,-226.62 297.86,-233.15"/>
</a>
</g>
<text text-anchor="middle" x="322.5" y="-251" font-family="Helvetica,sans-Serif" font-size="10.00" fill="grey"> +next</text>
</g>
<!-- Node4 -->
<g id="Node000004" class="node">
<title>Node4</title>
<g id="a_Node000004"><a xlink:href="structasync__work__on__timeout.html" target="_top" xlink:title="A &quot;timeout&quot; instance used by an async_context.">
<polygon fill="white" stroke="transparent" points="486.5,-293 357.5,-293 357.5,-214 486.5,-214 486.5,-293"/>
<text text-anchor="start" x="363" y="-280.5" font-family="Helvetica,sans-Serif" font-size="10.00">async_work_on_timeout</text>
<text text-anchor="start" x="376.5" y="-265.5" font-family="Helvetica,sans-Serif" font-size="10.00">+</text>
<text text-anchor="start" x="404" y="-265.5" font-family="Helvetica,sans-Serif" font-size="10.00">do_work</text>
<text text-anchor="start" x="376.5" y="-250.5" font-family="Helvetica,sans-Serif" font-size="10.00">+</text>
<text text-anchor="start" x="404" y="-250.5" font-family="Helvetica,sans-Serif" font-size="10.00">next_time</text>
<text text-anchor="start" x="376.5" y="-235.5" font-family="Helvetica,sans-Serif" font-size="10.00">+</text>
<text text-anchor="start" x="404" y="-235.5" font-family="Helvetica,sans-Serif" font-size="10.00">user_data</text>
<text text-anchor="start" x="419" y="-220.5" font-family="Helvetica,sans-Serif" font-size="10.00"> </text>
<polygon fill="#666666" stroke="#666666" points="358,-275.5 358,-275.5 487,-275.5 487,-275.5 358,-275.5"/>
<polygon fill="#666666" stroke="#666666" points="358,-230.5 358,-230.5 402,-230.5 402,-230.5 358,-230.5"/>
<polygon fill="#666666" stroke="#666666" points="402,-230.5 402,-230.5 487,-230.5 487,-230.5 402,-230.5"/>
<polygon fill="none" stroke="#666666" points="357.5,-214 357.5,-293 486.5,-293 486.5,-214 357.5,-214"/>
</a>
</g>
</g>
<!-- Node4&#45;&gt;Node1 -->
<g id="edge4_Node000001_Node000004" class="edge">
<title>Node4&#45;&gt;Node1</title>
<g id="a_edge4_Node000001_Node000004"><a xlink:title=" ">
<path fill="none" stroke="#63b8ff" d="M408.34,-213.95C394.65,-179.78 370.74,-130.26 337,-97 321.37,-81.59 300.67,-69.35 281.65,-60.25"/>
<polygon fill="none" stroke="#63b8ff" points="281.61,-60.24 274.49,-61.39 270.69,-55.26 277.81,-54.11 281.61,-60.24"/>
</a>
</g>
<text text-anchor="middle" x="381" y="-100" font-family="Helvetica,sans-Serif" font-size="10.00" fill="grey"> +at_time_list</text>
</g>
<!-- Node4&#45;&gt;Node4 -->
<g id="edge5_Node000004_Node000004" class="edge">
<title>Node4&#45;&gt;Node4</title>
<g id="a_edge5_Node000004_Node000004"><a xlink:title=" ">
<path fill="none" stroke="#63b8ff" d="M486.68,-279.52C497.24,-275.8 504.5,-267.12 504.5,-253.5 504.5,-244.99 501.66,-238.4 496.96,-233.76"/>
<polygon fill="none" stroke="#63b8ff" points="496.92,-233.73 489.72,-234.02 486.68,-227.48 493.89,-227.19 496.92,-233.73"/>
</a>
</g>
<text text-anchor="middle" x="521.5" y="-251" font-family="Helvetica,sans-Serif" font-size="10.00" fill="grey"> +next</text>
</g>
</g>
</svg>
