<?xml version="1.0" encoding="UTF-8" standalone="no"?>
<!DOCTYPE svg PUBLIC "-//W3C//DTD SVG 1.1//EN"
 "http://www.w3.org/Graphics/SVG/1.1/DTD/svg11.dtd">
<!-- Generated by graphviz version 2.43.0 (0)
 -->
<!-- Title: instr_nop Pages: 1 -->
<svg width="218pt" height="899pt"
 viewBox="0.00 0.00 218.00 899.00" xmlns="http://www.w3.org/2000/svg" xmlns:xlink="http://www.w3.org/1999/xlink">
<g id="graph0" class="graph" transform="scale(1 1) rotate(0) translate(4 895)">
<title>instr_nop</title>
<!-- Node1 -->
<g id="Node000001" class="node">
<title>Node1</title>
<g id="a_Node000001"><a xlink:title=" ">
<polygon fill="#999999" stroke="transparent" points="167,-49 93,-49 93,0 167,0 167,-49"/>
<text text-anchor="start" x="107" y="-36.5" font-family="Helvetica,sans-Serif" font-size="10.00">instr_nop</text>
<text text-anchor="start" x="126.5" y="-21.5" font-family="Helvetica,sans-Serif" font-size="10.00"> </text>
<text text-anchor="start" x="97" y="-6.5" font-family="Helvetica,sans-Serif" font-size="10.00">+</text>
<text text-anchor="start" x="110" y="-6.5" font-family="Helvetica,sans-Serif" font-size="10.00">instr_nop()</text>
<polygon fill="#666666" stroke="#666666" points="93,-31.5 93,-31.5 167,-31.5 167,-31.5 93,-31.5"/>
<polygon fill="#666666" stroke="#666666" points="93,-16.5 93,-16.5 167,-16.5 167,-16.5 93,-16.5"/>
<polygon fill="none" stroke="#666666" points="93,0 93,-49 167,-49 167,0 93,0"/>
</a>
</g>
</g>
<!-- Node2 -->
<g id="Node000002" class="node">
<title>Node2</title>
<g id="a_Node000002"><a xlink:href="structinstr__mov.html" target="_top" xlink:title=" ">
<polygon fill="white" stroke="transparent" points="193.5,-180 66.5,-180 66.5,-86 193.5,-86 193.5,-180"/>
<text text-anchor="start" x="106" y="-168" font-family="Helvetica,sans-Serif" font-size="10.00">instr_mov</text>
<text text-anchor="start" x="71" y="-153" font-family="Helvetica,sans-Serif" font-size="10.00">+</text>
<text text-anchor="start" x="84" y="-153" font-family="Helvetica,sans-Serif" font-size="10.00">op</text>
<text text-anchor="start" x="71" y="-138" font-family="Helvetica,sans-Serif" font-size="10.00">+</text>
<text text-anchor="start" x="84" y="-138" font-family="Helvetica,sans-Serif" font-size="10.00">get_push_get_index()</text>
<text text-anchor="start" x="71" y="-123" font-family="Helvetica,sans-Serif" font-size="10.00">+</text>
<text text-anchor="start" x="84" y="-123" font-family="Helvetica,sans-Serif" font-size="10.00">instr_mov()</text>
<text text-anchor="start" x="71" y="-108" font-family="Helvetica,sans-Serif" font-size="10.00">+</text>
<text text-anchor="start" x="84" y="-108" font-family="Helvetica,sans-Serif" font-size="10.00">pre_validate()</text>
<text text-anchor="start" x="71" y="-93" font-family="Helvetica,sans-Serif" font-size="10.00">+</text>
<text text-anchor="start" x="84" y="-93" font-family="Helvetica,sans-Serif" font-size="10.00">raw_encode()</text>
<polygon fill="#666666" stroke="#666666" points="67,-163 67,-163 194,-163 194,-163 67,-163"/>
<polygon fill="#666666" stroke="#666666" points="67,-148 67,-148 82,-148 82,-148 67,-148"/>
<polygon fill="#666666" stroke="#666666" points="82,-148 82,-148 194,-148 194,-148 82,-148"/>
<polygon fill="none" stroke="#666666" points="66.5,-86 66.5,-180 193.5,-180 193.5,-86 66.5,-86"/>
</a>
</g>
</g>
<!-- Node2&#45;&gt;Node1 -->
<g id="edge1_Node000001_Node000002" class="edge">
<title>Node2&#45;&gt;Node1</title>
<g id="a_edge1_Node000001_Node000002"><a xlink:title=" ">
<path fill="none" stroke="#63b8ff" d="M130,-75.72C130,-66.33 130,-57.06 130,-49.1"/>
<polygon fill="none" stroke="#63b8ff" points="126.5,-75.91 130,-85.91 133.5,-75.91 126.5,-75.91"/>
</a>
</g>
</g>
<!-- Node3 -->
<g id="Node000003" class="node">
<title>Node3</title>
<g id="a_Node000003"><a xlink:href="structinstruction.html" target="_top" xlink:title=" ">
<polygon fill="white" stroke="transparent" points="90,-347 0,-347 0,-238 90,-238 90,-347"/>
<text text-anchor="start" x="19" y="-334.5" font-family="Helvetica,sans-Serif" font-size="10.00">instruction</text>
<text text-anchor="start" x="4" y="-319.5" font-family="Helvetica,sans-Serif" font-size="10.00">+</text>
<text text-anchor="start" x="17" y="-319.5" font-family="Helvetica,sans-Serif" font-size="10.00">delay</text>
<text text-anchor="start" x="4" y="-304.5" font-family="Helvetica,sans-Serif" font-size="10.00">+</text>
<text text-anchor="start" x="17" y="-304.5" font-family="Helvetica,sans-Serif" font-size="10.00">sideset</text>
<text text-anchor="start" x="4" y="-289.5" font-family="Helvetica,sans-Serif" font-size="10.00">+</text>
<text text-anchor="start" x="17" y="-289.5" font-family="Helvetica,sans-Serif" font-size="10.00">encode()</text>
<text text-anchor="start" x="4" y="-274.5" font-family="Helvetica,sans-Serif" font-size="10.00">+</text>
<text text-anchor="start" x="17" y="-274.5" font-family="Helvetica,sans-Serif" font-size="10.00">instruction()</text>
<text text-anchor="start" x="4" y="-259.5" font-family="Helvetica,sans-Serif" font-size="10.00">+</text>
<text text-anchor="start" x="17" y="-259.5" font-family="Helvetica,sans-Serif" font-size="10.00">pre_validate()</text>
<text text-anchor="start" x="4" y="-244.5" font-family="Helvetica,sans-Serif" font-size="10.00">+</text>
<text text-anchor="start" x="17" y="-244.5" font-family="Helvetica,sans-Serif" font-size="10.00">raw_encode()</text>
<polygon fill="#666666" stroke="#666666" points="0,-329.5 0,-329.5 90,-329.5 90,-329.5 0,-329.5"/>
<polygon fill="#666666" stroke="#666666" points="0,-299.5 0,-299.5 15,-299.5 15,-299.5 0,-299.5"/>
<polygon fill="#666666" stroke="#666666" points="15,-299.5 15,-299.5 90,-299.5 90,-299.5 15,-299.5"/>
<polygon fill="none" stroke="#666666" points="0,-238 0,-347 90,-347 90,-238 0,-238"/>
</a>
</g>
</g>
<!-- Node3&#45;&gt;Node2 -->
<g id="edge2_Node000002_Node000003" class="edge">
<title>Node3&#45;&gt;Node2</title>
<g id="a_edge2_Node000002_Node000003"><a xlink:title=" ">
<path fill="none" stroke="#63b8ff" d="M78.82,-228.83C87.59,-212.59 96.87,-195.39 105.08,-180.17"/>
<polygon fill="none" stroke="#63b8ff" points="75.68,-227.28 74.01,-237.74 81.84,-230.6 75.68,-227.28"/>
</a>
</g>
</g>
<!-- Node4 -->
<g id="Node000004" class="node">
<title>Node4</title>
<g id="a_Node000004"><a xlink:href="structsrc__item.html" target="_top" xlink:title=" ">
<polygon fill="white" stroke="transparent" points="80.5,-448 9.5,-448 9.5,-384 80.5,-384 80.5,-448"/>
<text text-anchor="start" x="24" y="-436" font-family="Helvetica,sans-Serif" font-size="10.00">src_item</text>
<text text-anchor="start" x="42" y="-421" font-family="Helvetica,sans-Serif" font-size="10.00"> </text>
<text text-anchor="start" x="14" y="-406" font-family="Helvetica,sans-Serif" font-size="10.00">+</text>
<text text-anchor="start" x="27" y="-406" font-family="Helvetica,sans-Serif" font-size="10.00">src_item()</text>
<text text-anchor="start" x="14" y="-391" font-family="Helvetica,sans-Serif" font-size="10.00">+</text>
<text text-anchor="start" x="27" y="-391" font-family="Helvetica,sans-Serif" font-size="10.00">src_item()</text>
<polygon fill="#666666" stroke="#666666" points="10,-431 10,-431 81,-431 81,-431 10,-431"/>
<polygon fill="#666666" stroke="#666666" points="10,-416 10,-416 81,-416 81,-416 10,-416"/>
<polygon fill="none" stroke="#666666" points="9.5,-384 9.5,-448 80.5,-448 80.5,-384 9.5,-384"/>
</a>
</g>
</g>
<!-- Node4&#45;&gt;Node3 -->
<g id="edge3_Node000003_Node000004" class="edge">
<title>Node4&#45;&gt;Node3</title>
<g id="a_edge3_Node000003_Node000004"><a xlink:title=" ">
<path fill="none" stroke="#63b8ff" d="M45,-373.69C45,-365.21 45,-356.16 45,-347.31"/>
<polygon fill="none" stroke="#63b8ff" points="41.5,-373.71 45,-383.71 48.5,-373.71 41.5,-373.71"/>
</a>
</g>
</g>
<!-- Node5 -->
<g id="Node000005" class="node">
<title>Node5</title>
<g id="a_Node000005"><a xlink:href="classyy_1_1location.html" target="_top" xlink:title="Two points in a source file.">
<polygon fill="white" stroke="transparent" points="80.5,-679 9.5,-679 9.5,-495 80.5,-495 80.5,-679"/>
<text text-anchor="start" x="17" y="-667" font-family="Helvetica,sans-Serif" font-size="10.00">yy::location</text>
<text text-anchor="start" x="42" y="-652" font-family="Helvetica,sans-Serif" font-size="10.00"> </text>
<text text-anchor="start" x="14" y="-637" font-family="Helvetica,sans-Serif" font-size="10.00">+</text>
<text text-anchor="start" x="27" y="-637" font-family="Helvetica,sans-Serif" font-size="10.00">initialize()</text>
<text text-anchor="start" x="14" y="-622" font-family="Helvetica,sans-Serif" font-size="10.00">+</text>
<text text-anchor="start" x="27" y="-622" font-family="Helvetica,sans-Serif" font-size="10.00">location()</text>
<text text-anchor="start" x="14" y="-607" font-family="Helvetica,sans-Serif" font-size="10.00">+</text>
<text text-anchor="start" x="27" y="-607" font-family="Helvetica,sans-Serif" font-size="10.00">location()</text>
<text text-anchor="start" x="14" y="-592" font-family="Helvetica,sans-Serif" font-size="10.00">+</text>
<text text-anchor="start" x="27" y="-592" font-family="Helvetica,sans-Serif" font-size="10.00">location()</text>
<text text-anchor="start" x="14" y="-577" font-family="Helvetica,sans-Serif" font-size="10.00">+</text>
<text text-anchor="start" x="27" y="-577" font-family="Helvetica,sans-Serif" font-size="10.00">step()</text>
<text text-anchor="start" x="14" y="-562" font-family="Helvetica,sans-Serif" font-size="10.00">+</text>
<text text-anchor="start" x="27" y="-562" font-family="Helvetica,sans-Serif" font-size="10.00">columns()</text>
<text text-anchor="start" x="14" y="-547" font-family="Helvetica,sans-Serif" font-size="10.00">+</text>
<text text-anchor="start" x="27" y="-547" font-family="Helvetica,sans-Serif" font-size="10.00">lines()</text>
<text text-anchor="start" x="15.5" y="-532" font-family="Helvetica,sans-Serif" font-size="10.00">*</text>
<text text-anchor="start" x="27" y="-532" font-family="Helvetica,sans-Serif" font-size="10.00">step()</text>
<text text-anchor="start" x="15.5" y="-517" font-family="Helvetica,sans-Serif" font-size="10.00">*</text>
<text text-anchor="start" x="27" y="-517" font-family="Helvetica,sans-Serif" font-size="10.00">columns()</text>
<text text-anchor="start" x="15.5" y="-502" font-family="Helvetica,sans-Serif" font-size="10.00">*</text>
<text text-anchor="start" x="27" y="-502" font-family="Helvetica,sans-Serif" font-size="10.00">lines()</text>
<polygon fill="#666666" stroke="#666666" points="10,-662 10,-662 81,-662 81,-662 10,-662"/>
<polygon fill="#666666" stroke="#666666" points="10,-647 10,-647 81,-647 81,-647 10,-647"/>
<polygon fill="none" stroke="#666666" points="9.5,-495 9.5,-679 80.5,-679 80.5,-495 9.5,-495"/>
</a>
</g>
</g>
<!-- Node5&#45;&gt;Node4 -->
<g id="edge4_Node000004_Node000005" class="edge">
<title>Node5&#45;&gt;Node4</title>
<g id="a_edge4_Node000004_Node000005"><a xlink:title=" ">
<path fill="none" stroke="#63b8ff" d="M45,-494.58C45,-482.74 45,-471.09 45,-460.56"/>
<polygon fill="none" stroke="#63b8ff" points="45,-460.33 41,-454.33 45,-448.33 49,-454.33 45,-460.33"/>
</a>
</g>
<text text-anchor="middle" x="70.5" y="-469" font-family="Helvetica,sans-Serif" font-size="10.00" fill="grey"> +location</text>
</g>
<!-- Node6 -->
<g id="Node000006" class="node">
<title>Node6</title>
<g id="a_Node000006"><a xlink:href="classyy_1_1position.html" target="_top" xlink:title="A point in a source file.">
<polygon fill="white" stroke="transparent" points="80.5,-891 9.5,-891 9.5,-737 80.5,-737 80.5,-891"/>
<text text-anchor="start" x="17" y="-879" font-family="Helvetica,sans-Serif" font-size="10.00">yy::position</text>
<text text-anchor="start" x="14" y="-864" font-family="Helvetica,sans-Serif" font-size="10.00">+</text>
<text text-anchor="start" x="27" y="-864" font-family="Helvetica,sans-Serif" font-size="10.00">column</text>
<text text-anchor="start" x="14" y="-849" font-family="Helvetica,sans-Serif" font-size="10.00">+</text>
<text text-anchor="start" x="27" y="-849" font-family="Helvetica,sans-Serif" font-size="10.00">filename</text>
<text text-anchor="start" x="14" y="-834" font-family="Helvetica,sans-Serif" font-size="10.00">+</text>
<text text-anchor="start" x="27" y="-834" font-family="Helvetica,sans-Serif" font-size="10.00">line</text>
<text text-anchor="start" x="14" y="-819" font-family="Helvetica,sans-Serif" font-size="10.00">+</text>
<text text-anchor="start" x="27" y="-819" font-family="Helvetica,sans-Serif" font-size="10.00">initialize()</text>
<text text-anchor="start" x="14" y="-804" font-family="Helvetica,sans-Serif" font-size="10.00">+</text>
<text text-anchor="start" x="27" y="-804" font-family="Helvetica,sans-Serif" font-size="10.00">position()</text>
<text text-anchor="start" x="14" y="-789" font-family="Helvetica,sans-Serif" font-size="10.00">+</text>
<text text-anchor="start" x="27" y="-789" font-family="Helvetica,sans-Serif" font-size="10.00">lines()</text>
<text text-anchor="start" x="14" y="-774" font-family="Helvetica,sans-Serif" font-size="10.00">+</text>
<text text-anchor="start" x="27" y="-774" font-family="Helvetica,sans-Serif" font-size="10.00">columns()</text>
<text text-anchor="start" x="15.5" y="-759" font-family="Helvetica,sans-Serif" font-size="10.00">*</text>
<text text-anchor="start" x="27" y="-759" font-family="Helvetica,sans-Serif" font-size="10.00">lines()</text>
<text text-anchor="start" x="15.5" y="-744" font-family="Helvetica,sans-Serif" font-size="10.00">*</text>
<text text-anchor="start" x="27" y="-744" font-family="Helvetica,sans-Serif" font-size="10.00">columns()</text>
<polygon fill="#666666" stroke="#666666" points="10,-874 10,-874 81,-874 81,-874 10,-874"/>
<polygon fill="#666666" stroke="#666666" points="10,-829 10,-829 25,-829 25,-829 10,-829"/>
<polygon fill="#666666" stroke="#666666" points="25,-829 25,-829 81,-829 81,-829 25,-829"/>
<polygon fill="none" stroke="#666666" points="9.5,-737 9.5,-891 80.5,-891 80.5,-737 9.5,-737"/>
</a>
</g>
</g>
<!-- Node6&#45;&gt;Node5 -->
<g id="edge5_Node000005_Node000006" class="edge">
<title>Node6&#45;&gt;Node5</title>
<g id="a_edge5_Node000005_Node000006"><a xlink:title=" ">
<path fill="none" stroke="#63b8ff" d="M45,-736.83C45,-722.24 45,-706.74 45,-691.46"/>
<polygon fill="none" stroke="#63b8ff" points="45,-691.28 41,-685.28 45,-679.28 49,-685.28 45,-691.28"/>
</a>
</g>
<text text-anchor="middle" x="64.5" y="-711" font-family="Helvetica,sans-Serif" font-size="10.00" fill="grey"> +begin</text>
<text text-anchor="middle" x="64.5" y="-700" font-family="Helvetica,sans-Serif" font-size="10.00" fill="grey">+end</text>
</g>
<!-- Node7 -->
<g id="Node000007" class="node">
<title>Node7</title>
<g id="a_Node000007"><a xlink:href="structextended__mov.html" target="_top" xlink:title=" ">
<polygon fill="white" stroke="transparent" points="210,-347 108,-347 108,-238 210,-238 210,-347"/>
<text text-anchor="start" x="122.5" y="-334.5" font-family="Helvetica,sans-Serif" font-size="10.00">extended_mov</text>
<text text-anchor="start" x="112" y="-319.5" font-family="Helvetica,sans-Serif" font-size="10.00">+</text>
<text text-anchor="start" x="125" y="-319.5" font-family="Helvetica,sans-Serif" font-size="10.00">fifo_index</text>
<text text-anchor="start" x="112" y="-304.5" font-family="Helvetica,sans-Serif" font-size="10.00">+</text>
<text text-anchor="start" x="125" y="-304.5" font-family="Helvetica,sans-Serif" font-size="10.00">loc</text>
<text text-anchor="start" x="112" y="-289.5" font-family="Helvetica,sans-Serif" font-size="10.00">+</text>
<text text-anchor="start" x="125" y="-289.5" font-family="Helvetica,sans-Serif" font-size="10.00">extended_mov()</text>
<text text-anchor="start" x="112" y="-274.5" font-family="Helvetica,sans-Serif" font-size="10.00">+</text>
<text text-anchor="start" x="125" y="-274.5" font-family="Helvetica,sans-Serif" font-size="10.00">extended_mov()</text>
<text text-anchor="start" x="112" y="-259.5" font-family="Helvetica,sans-Serif" font-size="10.00">+</text>
<text text-anchor="start" x="125" y="-259.5" font-family="Helvetica,sans-Serif" font-size="10.00">extended_mov()</text>
<text text-anchor="start" x="112" y="-244.5" font-family="Helvetica,sans-Serif" font-size="10.00">+</text>
<text text-anchor="start" x="125" y="-244.5" font-family="Helvetica,sans-Serif" font-size="10.00">uses_fifo()</text>
<polygon fill="#666666" stroke="#666666" points="108,-329.5 108,-329.5 210,-329.5 210,-329.5 108,-329.5"/>
<polygon fill="#666666" stroke="#666666" points="108,-299.5 108,-299.5 123,-299.5 123,-299.5 108,-299.5"/>
<polygon fill="#666666" stroke="#666666" points="123,-299.5 123,-299.5 210,-299.5 210,-299.5 123,-299.5"/>
<polygon fill="none" stroke="#666666" points="108,-238 108,-347 210,-347 210,-238 108,-238"/>
</a>
</g>
</g>
<!-- Node7&#45;&gt;Node2 -->
<g id="edge6_Node000002_Node000007" class="edge">
<title>Node7&#45;&gt;Node2</title>
<g id="a_edge6_Node000002_Node000007"><a xlink:title=" ">
<path fill="none" stroke="#63b8ff" d="M149.1,-237.74C146.41,-223.12 143.48,-207.22 140.74,-192.35"/>
<polygon fill="none" stroke="#63b8ff" points="140.67,-191.97 135.65,-186.79 138.5,-180.17 143.52,-185.34 140.67,-191.97"/>
</a>
</g>
<text text-anchor="middle" x="161.5" y="-212" font-family="Helvetica,sans-Serif" font-size="10.00" fill="grey"> +dest</text>
<text text-anchor="middle" x="161.5" y="-201" font-family="Helvetica,sans-Serif" font-size="10.00" fill="grey">+src</text>
</g>
</g>
</svg>
