<?xml version="1.0" encoding="UTF-8" standalone="no"?>
<!DOCTYPE svg PUBLIC "-//W3C//DTD SVG 1.1//EN"
 "http://www.w3.org/Graphics/SVG/1.1/DTD/svg11.dtd">
<!-- Generated by graphviz version 2.43.0 (0)
 -->
<!-- Title: name_ref Pages: 1 -->
<svg width="103pt" height="762pt"
 viewBox="0.00 0.00 103.00 762.00" xmlns="http://www.w3.org/2000/svg" xmlns:xlink="http://www.w3.org/1999/xlink">
<g id="graph0" class="graph" transform="scale(1 1) rotate(0) translate(4 758)">
<title>name_ref</title>
<!-- Node1 -->
<g id="Node000001" class="node">
<title>Node1</title>
<g id="a_Node000001"><a xlink:title=" ">
<polygon fill="#999999" stroke="transparent" points="82,-64 6,-64 6,0 82,0 82,-64"/>
<text text-anchor="start" x="20.5" y="-52" font-family="Helvetica,sans-Serif" font-size="10.00">name_ref</text>
<text text-anchor="start" x="10" y="-37" font-family="Helvetica,sans-Serif" font-size="10.00">+</text>
<text text-anchor="start" x="23" y="-37" font-family="Helvetica,sans-Serif" font-size="10.00">name</text>
<text text-anchor="start" x="10" y="-22" font-family="Helvetica,sans-Serif" font-size="10.00">+</text>
<text text-anchor="start" x="23" y="-22" font-family="Helvetica,sans-Serif" font-size="10.00">name_ref()</text>
<text text-anchor="start" x="10" y="-7" font-family="Helvetica,sans-Serif" font-size="10.00">+</text>
<text text-anchor="start" x="23" y="-7" font-family="Helvetica,sans-Serif" font-size="10.00">resolve()</text>
<polygon fill="#666666" stroke="#666666" points="6,-47 6,-47 82,-47 82,-47 6,-47"/>
<polygon fill="#666666" stroke="#666666" points="6,-32 6,-32 21,-32 21,-32 6,-32"/>
<polygon fill="#666666" stroke="#666666" points="21,-32 21,-32 82,-32 82,-32 21,-32"/>
<polygon fill="none" stroke="#666666" points="6,0 6,-64 82,-64 82,0 6,0"/>
</a>
</g>
</g>
<!-- Node2 -->
<g id="Node000002" class="node">
<title>Node2</title>
<g id="a_Node000002"><a xlink:href="structresolvable.html" target="_top" xlink:title=" ">
<polygon fill="white" stroke="transparent" points="88,-210 0,-210 0,-101 88,-101 88,-210"/>
<text text-anchor="start" x="18" y="-197.5" font-family="Helvetica,sans-Serif" font-size="10.00">resolvable</text>
<text text-anchor="start" x="40.5" y="-182.5" font-family="Helvetica,sans-Serif" font-size="10.00"> </text>
<text text-anchor="start" x="4" y="-167.5" font-family="Helvetica,sans-Serif" font-size="10.00">+</text>
<text text-anchor="start" x="17" y="-167.5" font-family="Helvetica,sans-Serif" font-size="10.00">resolvable()</text>
<text text-anchor="start" x="4" y="-152.5" font-family="Helvetica,sans-Serif" font-size="10.00">+</text>
<text text-anchor="start" x="17" y="-152.5" font-family="Helvetica,sans-Serif" font-size="10.00">resolve()</text>
<text text-anchor="start" x="4" y="-137.5" font-family="Helvetica,sans-Serif" font-size="10.00">+</text>
<text text-anchor="start" x="17" y="-137.5" font-family="Helvetica,sans-Serif" font-size="10.00">resolve()</text>
<text text-anchor="start" x="4" y="-122.5" font-family="Helvetica,sans-Serif" font-size="10.00">+</text>
<text text-anchor="start" x="17" y="-122.5" font-family="Helvetica,sans-Serif" font-size="10.00">resolve()</text>
<text text-anchor="start" x="4" y="-107.5" font-family="Helvetica,sans-Serif" font-size="10.00">+</text>
<text text-anchor="start" x="17" y="-107.5" font-family="Helvetica,sans-Serif" font-size="10.00">~resolvable()</text>
<polygon fill="#666666" stroke="#666666" points="0,-192.5 0,-192.5 88,-192.5 88,-192.5 0,-192.5"/>
<polygon fill="#666666" stroke="#666666" points="0,-177.5 0,-177.5 88,-177.5 88,-177.5 0,-177.5"/>
<polygon fill="none" stroke="#666666" points="0,-101 0,-210 88,-210 88,-101 0,-101"/>
</a>
</g>
</g>
<!-- Node2&#45;&gt;Node1 -->
<g id="edge1_Node000001_Node000002" class="edge">
<title>Node2&#45;&gt;Node1</title>
<g id="a_edge1_Node000001_Node000002"><a xlink:title=" ">
<path fill="none" stroke="#63b8ff" d="M44,-90.78C44,-81.49 44,-72.29 44,-64.06"/>
<polygon fill="none" stroke="#63b8ff" points="40.5,-90.85 44,-100.85 47.5,-90.85 40.5,-90.85"/>
</a>
</g>
</g>
<!-- Node3 -->
<g id="Node000003" class="node">
<title>Node3</title>
<g id="a_Node000003"><a xlink:href="structsrc__item.html" target="_top" xlink:title=" ">
<polygon fill="white" stroke="transparent" points="79.5,-311 8.5,-311 8.5,-247 79.5,-247 79.5,-311"/>
<text text-anchor="start" x="23" y="-299" font-family="Helvetica,sans-Serif" font-size="10.00">src_item</text>
<text text-anchor="start" x="41" y="-284" font-family="Helvetica,sans-Serif" font-size="10.00"> </text>
<text text-anchor="start" x="13" y="-269" font-family="Helvetica,sans-Serif" font-size="10.00">+</text>
<text text-anchor="start" x="26" y="-269" font-family="Helvetica,sans-Serif" font-size="10.00">src_item()</text>
<text text-anchor="start" x="13" y="-254" font-family="Helvetica,sans-Serif" font-size="10.00">+</text>
<text text-anchor="start" x="26" y="-254" font-family="Helvetica,sans-Serif" font-size="10.00">src_item()</text>
<polygon fill="#666666" stroke="#666666" points="9,-294 9,-294 80,-294 80,-294 9,-294"/>
<polygon fill="#666666" stroke="#666666" points="9,-279 9,-279 80,-279 80,-279 9,-279"/>
<polygon fill="none" stroke="#666666" points="8.5,-247 8.5,-311 79.5,-311 79.5,-247 8.5,-247"/>
</a>
</g>
</g>
<!-- Node3&#45;&gt;Node2 -->
<g id="edge2_Node000002_Node000003" class="edge">
<title>Node3&#45;&gt;Node2</title>
<g id="a_edge2_Node000002_Node000003"><a xlink:title=" ">
<path fill="none" stroke="#63b8ff" d="M44,-236.69C44,-228.21 44,-219.16 44,-210.31"/>
<polygon fill="none" stroke="#63b8ff" points="40.5,-236.71 44,-246.71 47.5,-236.71 40.5,-236.71"/>
</a>
</g>
</g>
<!-- Node4 -->
<g id="Node000004" class="node">
<title>Node4</title>
<g id="a_Node000004"><a xlink:href="classyy_1_1location.html" target="_top" xlink:title="Two points in a source file.">
<polygon fill="white" stroke="transparent" points="79.5,-542 8.5,-542 8.5,-358 79.5,-358 79.5,-542"/>
<text text-anchor="start" x="16" y="-530" font-family="Helvetica,sans-Serif" font-size="10.00">yy::location</text>
<text text-anchor="start" x="41" y="-515" font-family="Helvetica,sans-Serif" font-size="10.00"> </text>
<text text-anchor="start" x="13" y="-500" font-family="Helvetica,sans-Serif" font-size="10.00">+</text>
<text text-anchor="start" x="26" y="-500" font-family="Helvetica,sans-Serif" font-size="10.00">initialize()</text>
<text text-anchor="start" x="13" y="-485" font-family="Helvetica,sans-Serif" font-size="10.00">+</text>
<text text-anchor="start" x="26" y="-485" font-family="Helvetica,sans-Serif" font-size="10.00">location()</text>
<text text-anchor="start" x="13" y="-470" font-family="Helvetica,sans-Serif" font-size="10.00">+</text>
<text text-anchor="start" x="26" y="-470" font-family="Helvetica,sans-Serif" font-size="10.00">location()</text>
<text text-anchor="start" x="13" y="-455" font-family="Helvetica,sans-Serif" font-size="10.00">+</text>
<text text-anchor="start" x="26" y="-455" font-family="Helvetica,sans-Serif" font-size="10.00">location()</text>
<text text-anchor="start" x="13" y="-440" font-family="Helvetica,sans-Serif" font-size="10.00">+</text>
<text text-anchor="start" x="26" y="-440" font-family="Helvetica,sans-Serif" font-size="10.00">step()</text>
<text text-anchor="start" x="13" y="-425" font-family="Helvetica,sans-Serif" font-size="10.00">+</text>
<text text-anchor="start" x="26" y="-425" font-family="Helvetica,sans-Serif" font-size="10.00">columns()</text>
<text text-anchor="start" x="13" y="-410" font-family="Helvetica,sans-Serif" font-size="10.00">+</text>
<text text-anchor="start" x="26" y="-410" font-family="Helvetica,sans-Serif" font-size="10.00">lines()</text>
<text text-anchor="start" x="14.5" y="-395" font-family="Helvetica,sans-Serif" font-size="10.00">*</text>
<text text-anchor="start" x="26" y="-395" font-family="Helvetica,sans-Serif" font-size="10.00">step()</text>
<text text-anchor="start" x="14.5" y="-380" font-family="Helvetica,sans-Serif" font-size="10.00">*</text>
<text text-anchor="start" x="26" y="-380" font-family="Helvetica,sans-Serif" font-size="10.00">columns()</text>
<text text-anchor="start" x="14.5" y="-365" font-family="Helvetica,sans-Serif" font-size="10.00">*</text>
<text text-anchor="start" x="26" y="-365" font-family="Helvetica,sans-Serif" font-size="10.00">lines()</text>
<polygon fill="#666666" stroke="#666666" points="9,-525 9,-525 80,-525 80,-525 9,-525"/>
<polygon fill="#666666" stroke="#666666" points="9,-510 9,-510 80,-510 80,-510 9,-510"/>
<polygon fill="none" stroke="#666666" points="8.5,-358 8.5,-542 79.5,-542 79.5,-358 8.5,-358"/>
</a>
</g>
</g>
<!-- Node4&#45;&gt;Node3 -->
<g id="edge3_Node000003_Node000004" class="edge">
<title>Node4&#45;&gt;Node3</title>
<g id="a_edge3_Node000003_Node000004"><a xlink:title=" ">
<path fill="none" stroke="#63b8ff" d="M44,-357.58C44,-345.74 44,-334.09 44,-323.56"/>
<polygon fill="none" stroke="#63b8ff" points="44,-323.33 40,-317.33 44,-311.33 48,-317.33 44,-323.33"/>
</a>
</g>
<text text-anchor="middle" x="69.5" y="-332" font-family="Helvetica,sans-Serif" font-size="10.00" fill="grey"> +location</text>
</g>
<!-- Node5 -->
<g id="Node000005" class="node">
<title>Node5</title>
<g id="a_Node000005"><a xlink:href="classyy_1_1position.html" target="_top" xlink:title="A point in a source file.">
<polygon fill="white" stroke="transparent" points="79.5,-754 8.5,-754 8.5,-600 79.5,-600 79.5,-754"/>
<text text-anchor="start" x="16" y="-742" font-family="Helvetica,sans-Serif" font-size="10.00">yy::position</text>
<text text-anchor="start" x="13" y="-727" font-family="Helvetica,sans-Serif" font-size="10.00">+</text>
<text text-anchor="start" x="26" y="-727" font-family="Helvetica,sans-Serif" font-size="10.00">column</text>
<text text-anchor="start" x="13" y="-712" font-family="Helvetica,sans-Serif" font-size="10.00">+</text>
<text text-anchor="start" x="26" y="-712" font-family="Helvetica,sans-Serif" font-size="10.00">filename</text>
<text text-anchor="start" x="13" y="-697" font-family="Helvetica,sans-Serif" font-size="10.00">+</text>
<text text-anchor="start" x="26" y="-697" font-family="Helvetica,sans-Serif" font-size="10.00">line</text>
<text text-anchor="start" x="13" y="-682" font-family="Helvetica,sans-Serif" font-size="10.00">+</text>
<text text-anchor="start" x="26" y="-682" font-family="Helvetica,sans-Serif" font-size="10.00">initialize()</text>
<text text-anchor="start" x="13" y="-667" font-family="Helvetica,sans-Serif" font-size="10.00">+</text>
<text text-anchor="start" x="26" y="-667" font-family="Helvetica,sans-Serif" font-size="10.00">position()</text>
<text text-anchor="start" x="13" y="-652" font-family="Helvetica,sans-Serif" font-size="10.00">+</text>
<text text-anchor="start" x="26" y="-652" font-family="Helvetica,sans-Serif" font-size="10.00">lines()</text>
<text text-anchor="start" x="13" y="-637" font-family="Helvetica,sans-Serif" font-size="10.00">+</text>
<text text-anchor="start" x="26" y="-637" font-family="Helvetica,sans-Serif" font-size="10.00">columns()</text>
<text text-anchor="start" x="14.5" y="-622" font-family="Helvetica,sans-Serif" font-size="10.00">*</text>
<text text-anchor="start" x="26" y="-622" font-family="Helvetica,sans-Serif" font-size="10.00">lines()</text>
<text text-anchor="start" x="14.5" y="-607" font-family="Helvetica,sans-Serif" font-size="10.00">*</text>
<text text-anchor="start" x="26" y="-607" font-family="Helvetica,sans-Serif" font-size="10.00">columns()</text>
<polygon fill="#666666" stroke="#666666" points="9,-737 9,-737 80,-737 80,-737 9,-737"/>
<polygon fill="#666666" stroke="#666666" points="9,-692 9,-692 24,-692 24,-692 9,-692"/>
<polygon fill="#666666" stroke="#666666" points="24,-692 24,-692 80,-692 80,-692 24,-692"/>
<polygon fill="none" stroke="#666666" points="8.5,-600 8.5,-754 79.5,-754 79.5,-600 8.5,-600"/>
</a>
</g>
</g>
<!-- Node5&#45;&gt;Node4 -->
<g id="edge4_Node000004_Node000005" class="edge">
<title>Node5&#45;&gt;Node4</title>
<g id="a_edge4_Node000004_Node000005"><a xlink:title=" ">
<path fill="none" stroke="#63b8ff" d="M44,-599.83C44,-585.24 44,-569.74 44,-554.46"/>
<polygon fill="none" stroke="#63b8ff" points="44,-554.28 40,-548.28 44,-542.28 48,-548.28 44,-554.28"/>
</a>
</g>
<text text-anchor="middle" x="63.5" y="-574" font-family="Helvetica,sans-Serif" font-size="10.00" fill="grey"> +begin</text>
<text text-anchor="middle" x="63.5" y="-563" font-family="Helvetica,sans-Serif" font-size="10.00" fill="grey">+end</text>
</g>
</g>
</svg>
