<?xml version="1.0" encoding="UTF-8" standalone="no"?>
<!DOCTYPE svg PUBLIC "-//W3C//DTD SVG 1.1//EN"
 "http://www.w3.org/Graphics/SVG/1.1/DTD/svg11.dtd">
<!-- Generated by graphviz version 2.43.0 (0)
 -->
<!-- Title: code_block Pages: 1 -->
<svg width="96pt" height="332pt"
 viewBox="0.00 0.00 96.00 332.00" xmlns="http://www.w3.org/2000/svg" xmlns:xlink="http://www.w3.org/1999/xlink">
<g id="graph0" class="graph" transform="scale(1 1) rotate(0) translate(4 328)">
<title>code_block</title>
<!-- Node1 -->
<g id="Node000001" class="node">
<title>Node1</title>
<g id="a_Node000001"><a xlink:title=" ">
<polygon fill="#999999" stroke="transparent" points="86,-79 2,-79 2,0 86,0 86,-79"/>
<text text-anchor="start" x="16.5" y="-66.5" font-family="Helvetica,sans-Serif" font-size="10.00">code_block</text>
<text text-anchor="start" x="6" y="-51.5" font-family="Helvetica,sans-Serif" font-size="10.00">+</text>
<text text-anchor="start" x="19" y="-51.5" font-family="Helvetica,sans-Serif" font-size="10.00">contents</text>
<text text-anchor="start" x="6" y="-36.5" font-family="Helvetica,sans-Serif" font-size="10.00">+</text>
<text text-anchor="start" x="19" y="-36.5" font-family="Helvetica,sans-Serif" font-size="10.00">lang</text>
<text text-anchor="start" x="6" y="-21.5" font-family="Helvetica,sans-Serif" font-size="10.00">+</text>
<text text-anchor="start" x="19" y="-21.5" font-family="Helvetica,sans-Serif" font-size="10.00">code_block()</text>
<text text-anchor="start" x="6" y="-6.5" font-family="Helvetica,sans-Serif" font-size="10.00">+</text>
<text text-anchor="start" x="19" y="-6.5" font-family="Helvetica,sans-Serif" font-size="10.00">resolve()</text>
<polygon fill="#666666" stroke="#666666" points="2,-61.5 2,-61.5 86,-61.5 86,-61.5 2,-61.5"/>
<polygon fill="#666666" stroke="#666666" points="2,-31.5 2,-31.5 17,-31.5 17,-31.5 2,-31.5"/>
<polygon fill="#666666" stroke="#666666" points="17,-31.5 17,-31.5 86,-31.5 86,-31.5 17,-31.5"/>
<polygon fill="none" stroke="#666666" points="2,0 2,-79 86,-79 86,0 2,0"/>
</a>
</g>
</g>
<!-- Node2 -->
<g id="Node000002" class="node">
<title>Node2</title>
<g id="a_Node000002"><a xlink:href="structresolvable.html" target="_top" xlink:title=" ">
<polygon fill="white" stroke="transparent" points="88,-224 0,-224 0,-115 88,-115 88,-224"/>
<text text-anchor="start" x="18" y="-211.5" font-family="Helvetica,sans-Serif" font-size="10.00">resolvable</text>
<text text-anchor="start" x="40.5" y="-196.5" font-family="Helvetica,sans-Serif" font-size="10.00"> </text>
<text text-anchor="start" x="4" y="-181.5" font-family="Helvetica,sans-Serif" font-size="10.00">+</text>
<text text-anchor="start" x="17" y="-181.5" font-family="Helvetica,sans-Serif" font-size="10.00">resolvable()</text>
<text text-anchor="start" x="4" y="-166.5" font-family="Helvetica,sans-Serif" font-size="10.00">+</text>
<text text-anchor="start" x="17" y="-166.5" font-family="Helvetica,sans-Serif" font-size="10.00">resolve()</text>
<text text-anchor="start" x="4" y="-151.5" font-family="Helvetica,sans-Serif" font-size="10.00">+</text>
<text text-anchor="start" x="17" y="-151.5" font-family="Helvetica,sans-Serif" font-size="10.00">resolve()</text>
<text text-anchor="start" x="4" y="-136.5" font-family="Helvetica,sans-Serif" font-size="10.00">+</text>
<text text-anchor="start" x="17" y="-136.5" font-family="Helvetica,sans-Serif" font-size="10.00">resolve()</text>
<text text-anchor="start" x="4" y="-121.5" font-family="Helvetica,sans-Serif" font-size="10.00">+</text>
<text text-anchor="start" x="17" y="-121.5" font-family="Helvetica,sans-Serif" font-size="10.00">~resolvable()</text>
<polygon fill="#666666" stroke="#666666" points="0,-206.5 0,-206.5 88,-206.5 88,-206.5 0,-206.5"/>
<polygon fill="#666666" stroke="#666666" points="0,-191.5 0,-191.5 88,-191.5 88,-191.5 0,-191.5"/>
<polygon fill="none" stroke="#666666" points="0,-115 0,-224 88,-224 88,-115 0,-115"/>
</a>
</g>
</g>
<!-- Node2&#45;&gt;Node1 -->
<g id="edge1_Node000001_Node000002" class="edge">
<title>Node2&#45;&gt;Node1</title>
<g id="a_edge1_Node000001_Node000002"><a xlink:title=" ">
<path fill="none" stroke="#63b8ff" d="M44,-104.7C44,-95.93 44,-87.16 44,-79.03"/>
<polygon fill="none" stroke="#63b8ff" points="40.5,-104.96 44,-114.96 47.5,-104.96 40.5,-104.96"/>
</a>
</g>
</g>
<!-- Node3 -->
<g id="Node000003" class="node">
<title>Node3</title>
<g id="a_Node000003"><a xlink:href="structsrc__item.html" target="_top" xlink:title=" ">
<polygon fill="white" stroke="transparent" points="79.5,-324 8.5,-324 8.5,-260 79.5,-260 79.5,-324"/>
<text text-anchor="start" x="23" y="-312" font-family="Helvetica,sans-Serif" font-size="10.00">src_item</text>
<text text-anchor="start" x="13" y="-297" font-family="Helvetica,sans-Serif" font-size="10.00">+</text>
<text text-anchor="start" x="26" y="-297" font-family="Helvetica,sans-Serif" font-size="10.00">location</text>
<text text-anchor="start" x="13" y="-282" font-family="Helvetica,sans-Serif" font-size="10.00">+</text>
<text text-anchor="start" x="26" y="-282" font-family="Helvetica,sans-Serif" font-size="10.00">src_item()</text>
<text text-anchor="start" x="13" y="-267" font-family="Helvetica,sans-Serif" font-size="10.00">+</text>
<text text-anchor="start" x="26" y="-267" font-family="Helvetica,sans-Serif" font-size="10.00">src_item()</text>
<polygon fill="#666666" stroke="#666666" points="9,-307 9,-307 80,-307 80,-307 9,-307"/>
<polygon fill="#666666" stroke="#666666" points="9,-292 9,-292 24,-292 24,-292 9,-292"/>
<polygon fill="#666666" stroke="#666666" points="24,-292 24,-292 80,-292 80,-292 24,-292"/>
<polygon fill="none" stroke="#666666" points="8.5,-260 8.5,-324 79.5,-324 79.5,-260 8.5,-260"/>
</a>
</g>
</g>
<!-- Node3&#45;&gt;Node2 -->
<g id="edge2_Node000002_Node000003" class="edge">
<title>Node3&#45;&gt;Node2</title>
<g id="a_edge2_Node000002_Node000003"><a xlink:title=" ">
<path fill="none" stroke="#63b8ff" d="M44,-249.89C44,-241.67 44,-232.91 44,-224.33"/>
<polygon fill="none" stroke="#63b8ff" points="40.5,-249.97 44,-259.97 47.5,-249.97 40.5,-249.97"/>
</a>
</g>
</g>
</g>
</svg>
