<?xml version="1.0" encoding="UTF-8" standalone="no"?>
<!DOCTYPE svg PUBLIC "-//W3C//DTD SVG 1.1//EN"
 "http://www.w3.org/Graphics/SVG/1.1/DTD/svg11.dtd">
<!-- Generated by graphviz version 2.43.0 (0)
 -->
<!-- Title: yy::parser::symbol_type Pages: 1 -->
<svg width="359pt" height="867pt"
 viewBox="0.00 0.00 358.50 867.00" xmlns="http://www.w3.org/2000/svg" xmlns:xlink="http://www.w3.org/1999/xlink">
<g id="graph0" class="graph" transform="scale(1 1) rotate(0) translate(4 863)">
<title>yy::parser::symbol_type</title>
<!-- Node1 -->
<g id="Node000001" class="node">
<title>Node1</title>
<g id="a_Node000001"><a xlink:title="&quot;External&quot; symbols: returned by the scanner.">
<polygon fill="#999999" stroke="transparent" points="253.5,-109 125.5,-109 125.5,0 253.5,0 253.5,-109"/>
<text text-anchor="start" x="130.5" y="-96.5" font-family="Helvetica,sans-Serif" font-size="10.00">yy::parser::symbol_type</text>
<text text-anchor="start" x="186" y="-81.5" font-family="Helvetica,sans-Serif" font-size="10.00"> </text>
<text text-anchor="start" x="138.5" y="-66.5" font-family="Helvetica,sans-Serif" font-size="10.00">+</text>
<text text-anchor="start" x="160.5" y="-66.5" font-family="Helvetica,sans-Serif" font-size="10.00">symbol_type()</text>
<text text-anchor="start" x="138.5" y="-51.5" font-family="Helvetica,sans-Serif" font-size="10.00">+</text>
<text text-anchor="start" x="160.5" y="-51.5" font-family="Helvetica,sans-Serif" font-size="10.00">symbol_type()</text>
<text text-anchor="start" x="138.5" y="-36.5" font-family="Helvetica,sans-Serif" font-size="10.00">+</text>
<text text-anchor="start" x="160.5" y="-36.5" font-family="Helvetica,sans-Serif" font-size="10.00">symbol_type()</text>
<text text-anchor="start" x="138.5" y="-21.5" font-family="Helvetica,sans-Serif" font-size="10.00">+</text>
<text text-anchor="start" x="160.5" y="-21.5" font-family="Helvetica,sans-Serif" font-size="10.00">symbol_type()</text>
<text text-anchor="start" x="138.5" y="-6.5" font-family="Helvetica,sans-Serif" font-size="10.00">+</text>
<text text-anchor="start" x="160.5" y="-6.5" font-family="Helvetica,sans-Serif" font-size="10.00">symbol_type()</text>
<polygon fill="#666666" stroke="#666666" points="125.5,-91.5 125.5,-91.5 253.5,-91.5 253.5,-91.5 125.5,-91.5"/>
<polygon fill="#666666" stroke="#666666" points="125.5,-76.5 125.5,-76.5 253.5,-76.5 253.5,-76.5 125.5,-76.5"/>
<polygon fill="none" stroke="#666666" points="125.5,0 125.5,-109 253.5,-109 253.5,0 125.5,0"/>
</a>
</g>
</g>
<!-- Node2 -->
<g id="Node000002" class="node">
<title>Node2</title>
<g id="a_Node000002"><a xlink:href="structyy_1_1parser_1_1basic__symbol.html" target="_top" xlink:title=" ">
<polygon fill="white" stroke="transparent" points="255,-356 124,-356 124,-146 255,-146 255,-356"/>
<text text-anchor="start" x="129.5" y="-344" font-family="Helvetica,sans-Serif" font-size="10.00">yy::parser::basic_symbol</text>
<text text-anchor="start" x="159.5" y="-333" font-family="Helvetica,sans-Serif" font-size="10.00">&lt; by_kind &gt;</text>
<text text-anchor="start" x="186.5" y="-318" font-family="Helvetica,sans-Serif" font-size="10.00"> </text>
<text text-anchor="start" x="137" y="-303" font-family="Helvetica,sans-Serif" font-size="10.00">+</text>
<text text-anchor="start" x="158.5" y="-303" font-family="Helvetica,sans-Serif" font-size="10.00">basic_symbol()</text>
<text text-anchor="start" x="137" y="-288" font-family="Helvetica,sans-Serif" font-size="10.00">+</text>
<text text-anchor="start" x="158.5" y="-288" font-family="Helvetica,sans-Serif" font-size="10.00">basic_symbol()</text>
<text text-anchor="start" x="137" y="-273" font-family="Helvetica,sans-Serif" font-size="10.00">+</text>
<text text-anchor="start" x="158.5" y="-273" font-family="Helvetica,sans-Serif" font-size="10.00">basic_symbol()</text>
<text text-anchor="start" x="137" y="-258" font-family="Helvetica,sans-Serif" font-size="10.00">+</text>
<text text-anchor="start" x="158.5" y="-258" font-family="Helvetica,sans-Serif" font-size="10.00">basic_symbol()</text>
<text text-anchor="start" x="137" y="-243" font-family="Helvetica,sans-Serif" font-size="10.00">+</text>
<text text-anchor="start" x="158.5" y="-243" font-family="Helvetica,sans-Serif" font-size="10.00">basic_symbol()</text>
<text text-anchor="start" x="137" y="-228" font-family="Helvetica,sans-Serif" font-size="10.00">+</text>
<text text-anchor="start" x="158.5" y="-228" font-family="Helvetica,sans-Serif" font-size="10.00">basic_symbol()</text>
<text text-anchor="start" x="137" y="-213" font-family="Helvetica,sans-Serif" font-size="10.00">+</text>
<text text-anchor="start" x="158.5" y="-213" font-family="Helvetica,sans-Serif" font-size="10.00">basic_symbol()</text>
<text text-anchor="start" x="137" y="-198" font-family="Helvetica,sans-Serif" font-size="10.00">+</text>
<text text-anchor="start" x="158.5" y="-198" font-family="Helvetica,sans-Serif" font-size="10.00">basic_symbol()</text>
<text text-anchor="start" x="137" y="-183" font-family="Helvetica,sans-Serif" font-size="10.00">+</text>
<text text-anchor="start" x="158.5" y="-183" font-family="Helvetica,sans-Serif" font-size="10.00">basic_symbol()</text>
<text text-anchor="start" x="137" y="-168" font-family="Helvetica,sans-Serif" font-size="10.00">+</text>
<text text-anchor="start" x="158.5" y="-168" font-family="Helvetica,sans-Serif" font-size="10.00">basic_symbol()</text>
<text text-anchor="start" x="158.5" y="-153" font-family="Helvetica,sans-Serif" font-size="10.00">e 14 mais...</text>
<polygon fill="#666666" stroke="#666666" points="124.5,-328 124.5,-328 255.5,-328 255.5,-328 124.5,-328"/>
<polygon fill="#666666" stroke="#666666" points="124.5,-313 124.5,-313 255.5,-313 255.5,-313 124.5,-313"/>
<polygon fill="none" stroke="#666666" points="124,-146 124,-356 255,-356 255,-146 124,-146"/>
</a>
</g>
</g>
<!-- Node2&#45;&gt;Node1 -->
<g id="edge1_Node000001_Node000002" class="edge">
<title>Node2&#45;&gt;Node1</title>
<g id="a_edge1_Node000001_Node000002"><a xlink:title=" ">
<path fill="none" stroke="#63b8ff" d="M189.5,-135.89C189.5,-126.71 189.5,-117.73 189.5,-109.31"/>
<polygon fill="none" stroke="#63b8ff" points="186,-135.92 189.5,-145.92 193,-135.92 186,-135.92"/>
</a>
</g>
</g>
<!-- Node3 -->
<g id="Node000003" class="node">
<title>Node3</title>
<g id="a_Node000003"><a xlink:href="structyy_1_1parser_1_1by__kind.html" target="_top" xlink:title="Type access provider for token (enum) based symbols.">
<polygon fill="white" stroke="transparent" points="103,-594.5 0,-594.5 0,-455.5 103,-455.5 103,-594.5"/>
<text text-anchor="start" x="5.5" y="-582" font-family="Helvetica,sans-Serif" font-size="10.00">yy::parser::by_kind</text>
<text text-anchor="start" x="12" y="-567" font-family="Helvetica,sans-Serif" font-size="10.00">+</text>
<text text-anchor="start" x="32.5" y="-567" font-family="Helvetica,sans-Serif" font-size="10.00">kind_</text>
<text text-anchor="start" x="12" y="-552" font-family="Helvetica,sans-Serif" font-size="10.00">+</text>
<text text-anchor="start" x="32.5" y="-552" font-family="Helvetica,sans-Serif" font-size="10.00">by_kind()</text>
<text text-anchor="start" x="12" y="-537" font-family="Helvetica,sans-Serif" font-size="10.00">+</text>
<text text-anchor="start" x="32.5" y="-537" font-family="Helvetica,sans-Serif" font-size="10.00">by_kind()</text>
<text text-anchor="start" x="12" y="-522" font-family="Helvetica,sans-Serif" font-size="10.00">+</text>
<text text-anchor="start" x="32.5" y="-522" font-family="Helvetica,sans-Serif" font-size="10.00">by_kind()</text>
<text text-anchor="start" x="12" y="-507" font-family="Helvetica,sans-Serif" font-size="10.00">+</text>
<text text-anchor="start" x="32.5" y="-507" font-family="Helvetica,sans-Serif" font-size="10.00">clear()</text>
<text text-anchor="start" x="12" y="-492" font-family="Helvetica,sans-Serif" font-size="10.00">+</text>
<text text-anchor="start" x="32.5" y="-492" font-family="Helvetica,sans-Serif" font-size="10.00">kind()</text>
<text text-anchor="start" x="12" y="-477" font-family="Helvetica,sans-Serif" font-size="10.00">+</text>
<text text-anchor="start" x="32.5" y="-477" font-family="Helvetica,sans-Serif" font-size="10.00">move()</text>
<text text-anchor="start" x="12" y="-462" font-family="Helvetica,sans-Serif" font-size="10.00">+</text>
<text text-anchor="start" x="32.5" y="-462" font-family="Helvetica,sans-Serif" font-size="10.00">type_get()</text>
<polygon fill="#666666" stroke="#666666" points="0.5,-577 0.5,-577 103.5,-577 103.5,-577 0.5,-577"/>
<polygon fill="#666666" stroke="#666666" points="0.5,-562 0.5,-562 30.5,-562 30.5,-562 0.5,-562"/>
<polygon fill="#666666" stroke="#666666" points="30.5,-562 30.5,-562 103.5,-562 103.5,-562 30.5,-562"/>
<polygon fill="none" stroke="#666666" points="0,-455.5 0,-594.5 103,-594.5 103,-455.5 0,-455.5"/>
</a>
</g>
</g>
<!-- Node3&#45;&gt;Node2 -->
<g id="edge2_Node000002_Node000003" class="edge">
<title>Node3&#45;&gt;Node2</title>
<g id="a_edge2_Node000002_Node000003"><a xlink:title=" ">
<path fill="none" stroke="#63b8ff" d="M90.81,-445.89C98.01,-431.61 105.47,-416.86 112.5,-403 120.15,-387.91 128.25,-371.98 136.21,-356.35"/>
<polygon fill="none" stroke="#63b8ff" points="87.5,-444.68 86.12,-455.18 93.75,-447.83 87.5,-444.68"/>
</a>
</g>
</g>
<!-- Node4 -->
<g id="Node000004" class="node">
<title>Node4</title>
<g id="a_Node000004"><a xlink:href="classyy_1_1parser_1_1semantic__type.html" target="_top" xlink:title="A buffer to store and retrieve objects.">
<polygon fill="white" stroke="transparent" points="258,-647 121,-647 121,-403 258,-403 258,-647"/>
<text text-anchor="start" x="126.5" y="-635" font-family="Helvetica,sans-Serif" font-size="10.00">yy::parser::semantic_type</text>
<text text-anchor="start" x="132.5" y="-620" font-family="Helvetica,sans-Serif" font-size="10.00">+</text>
<text text-anchor="start" x="152.5" y="-620" font-family="Helvetica,sans-Serif" font-size="10.00">yyalign_me</text>
<text text-anchor="start" x="132.5" y="-605" font-family="Helvetica,sans-Serif" font-size="10.00">+</text>
<text text-anchor="start" x="152.5" y="-605" font-family="Helvetica,sans-Serif" font-size="10.00">yyraw</text>
<text text-anchor="start" x="132.5" y="-590" font-family="Helvetica,sans-Serif" font-size="10.00">+</text>
<text text-anchor="start" x="152.5" y="-590" font-family="Helvetica,sans-Serif" font-size="10.00">as()</text>
<text text-anchor="start" x="132.5" y="-575" font-family="Helvetica,sans-Serif" font-size="10.00">+</text>
<text text-anchor="start" x="152.5" y="-575" font-family="Helvetica,sans-Serif" font-size="10.00">as()</text>
<text text-anchor="start" x="132.5" y="-560" font-family="Helvetica,sans-Serif" font-size="10.00">+</text>
<text text-anchor="start" x="152.5" y="-560" font-family="Helvetica,sans-Serif" font-size="10.00">build()</text>
<text text-anchor="start" x="132.5" y="-545" font-family="Helvetica,sans-Serif" font-size="10.00">+</text>
<text text-anchor="start" x="152.5" y="-545" font-family="Helvetica,sans-Serif" font-size="10.00">build()</text>
<text text-anchor="start" x="132.5" y="-530" font-family="Helvetica,sans-Serif" font-size="10.00">+</text>
<text text-anchor="start" x="152.5" y="-530" font-family="Helvetica,sans-Serif" font-size="10.00">copy()</text>
<text text-anchor="start" x="132.5" y="-515" font-family="Helvetica,sans-Serif" font-size="10.00">+</text>
<text text-anchor="start" x="152.5" y="-515" font-family="Helvetica,sans-Serif" font-size="10.00">destroy()</text>
<text text-anchor="start" x="132.5" y="-500" font-family="Helvetica,sans-Serif" font-size="10.00">+</text>
<text text-anchor="start" x="152.5" y="-500" font-family="Helvetica,sans-Serif" font-size="10.00">emplace()</text>
<text text-anchor="start" x="132.5" y="-485" font-family="Helvetica,sans-Serif" font-size="10.00">+</text>
<text text-anchor="start" x="152.5" y="-485" font-family="Helvetica,sans-Serif" font-size="10.00">emplace()</text>
<text text-anchor="start" x="132.5" y="-470" font-family="Helvetica,sans-Serif" font-size="10.00">+</text>
<text text-anchor="start" x="152.5" y="-470" font-family="Helvetica,sans-Serif" font-size="10.00">move()</text>
<text text-anchor="start" x="132.5" y="-455" font-family="Helvetica,sans-Serif" font-size="10.00">+</text>
<text text-anchor="start" x="152.5" y="-455" font-family="Helvetica,sans-Serif" font-size="10.00">semantic_type()</text>
<text text-anchor="start" x="132.5" y="-440" font-family="Helvetica,sans-Serif" font-size="10.00">+</text>
<text text-anchor="start" x="152.5" y="-440" font-family="Helvetica,sans-Serif" font-size="10.00">semantic_type()</text>
<text text-anchor="start" x="132.5" y="-425" font-family="Helvetica,sans-Serif" font-size="10.00">+</text>
<text text-anchor="start" x="152.5" y="-425" font-family="Helvetica,sans-Serif" font-size="10.00">swap()</text>
<text text-anchor="start" x="132.5" y="-410" font-family="Helvetica,sans-Serif" font-size="10.00">+</text>
<text text-anchor="start" x="152.5" y="-410" font-family="Helvetica,sans-Serif" font-size="10.00">~semantic_type()</text>
<polygon fill="#666666" stroke="#666666" points="121.5,-630 121.5,-630 258.5,-630 258.5,-630 121.5,-630"/>
<polygon fill="#666666" stroke="#666666" points="121.5,-600 121.5,-600 150.5,-600 150.5,-600 121.5,-600"/>
<polygon fill="#666666" stroke="#666666" points="150.5,-600 150.5,-600 258.5,-600 258.5,-600 150.5,-600"/>
<polygon fill="none" stroke="#666666" points="121,-403 121,-647 258,-647 258,-403 121,-403"/>
</a>
</g>
</g>
<!-- Node4&#45;&gt;Node2 -->
<g id="edge3_Node000002_Node000004" class="edge">
<title>Node4&#45;&gt;Node2</title>
<g id="a_edge3_Node000002_Node000004"><a xlink:title=" ">
<path fill="none" stroke="#63b8ff" d="M189.5,-402.72C189.5,-391.27 189.5,-379.69 189.5,-368.29"/>
<polygon fill="none" stroke="#63b8ff" points="189.5,-368.02 185.5,-362.02 189.5,-356.02 193.5,-362.02 189.5,-368.02"/>
</a>
</g>
<text text-anchor="middle" x="209" y="-377" font-family="Helvetica,sans-Serif" font-size="10.00" fill="grey"> +value</text>
</g>
<!-- Node5 -->
<g id="Node000005" class="node">
<title>Node5</title>
<g id="a_Node000005"><a xlink:href="classyy_1_1location.html" target="_top" xlink:title="Two points in a source file.">
<polygon fill="white" stroke="transparent" points="347,-617 276,-617 276,-433 347,-433 347,-617"/>
<text text-anchor="start" x="283.5" y="-605" font-family="Helvetica,sans-Serif" font-size="10.00">yy::location</text>
<text text-anchor="start" x="308.5" y="-590" font-family="Helvetica,sans-Serif" font-size="10.00"> </text>
<text text-anchor="start" x="280.5" y="-575" font-family="Helvetica,sans-Serif" font-size="10.00">+</text>
<text text-anchor="start" x="293.5" y="-575" font-family="Helvetica,sans-Serif" font-size="10.00">initialize()</text>
<text text-anchor="start" x="280.5" y="-560" font-family="Helvetica,sans-Serif" font-size="10.00">+</text>
<text text-anchor="start" x="293.5" y="-560" font-family="Helvetica,sans-Serif" font-size="10.00">location()</text>
<text text-anchor="start" x="280.5" y="-545" font-family="Helvetica,sans-Serif" font-size="10.00">+</text>
<text text-anchor="start" x="293.5" y="-545" font-family="Helvetica,sans-Serif" font-size="10.00">location()</text>
<text text-anchor="start" x="280.5" y="-530" font-family="Helvetica,sans-Serif" font-size="10.00">+</text>
<text text-anchor="start" x="293.5" y="-530" font-family="Helvetica,sans-Serif" font-size="10.00">location()</text>
<text text-anchor="start" x="280.5" y="-515" font-family="Helvetica,sans-Serif" font-size="10.00">+</text>
<text text-anchor="start" x="293.5" y="-515" font-family="Helvetica,sans-Serif" font-size="10.00">step()</text>
<text text-anchor="start" x="280.5" y="-500" font-family="Helvetica,sans-Serif" font-size="10.00">+</text>
<text text-anchor="start" x="293.5" y="-500" font-family="Helvetica,sans-Serif" font-size="10.00">columns()</text>
<text text-anchor="start" x="280.5" y="-485" font-family="Helvetica,sans-Serif" font-size="10.00">+</text>
<text text-anchor="start" x="293.5" y="-485" font-family="Helvetica,sans-Serif" font-size="10.00">lines()</text>
<text text-anchor="start" x="282" y="-470" font-family="Helvetica,sans-Serif" font-size="10.00">*</text>
<text text-anchor="start" x="293.5" y="-470" font-family="Helvetica,sans-Serif" font-size="10.00">step()</text>
<text text-anchor="start" x="282" y="-455" font-family="Helvetica,sans-Serif" font-size="10.00">*</text>
<text text-anchor="start" x="293.5" y="-455" font-family="Helvetica,sans-Serif" font-size="10.00">columns()</text>
<text text-anchor="start" x="282" y="-440" font-family="Helvetica,sans-Serif" font-size="10.00">*</text>
<text text-anchor="start" x="293.5" y="-440" font-family="Helvetica,sans-Serif" font-size="10.00">lines()</text>
<polygon fill="#666666" stroke="#666666" points="276.5,-600 276.5,-600 347.5,-600 347.5,-600 276.5,-600"/>
<polygon fill="#666666" stroke="#666666" points="276.5,-585 276.5,-585 347.5,-585 347.5,-585 276.5,-585"/>
<polygon fill="none" stroke="#666666" points="276,-433 276,-617 347,-617 347,-433 276,-433"/>
</a>
</g>
</g>
<!-- Node5&#45;&gt;Node2 -->
<g id="edge4_Node000002_Node000005" class="edge">
<title>Node5&#45;&gt;Node2</title>
<g id="a_edge4_Node000002_Node000005"><a xlink:title=" ">
<path fill="none" stroke="#63b8ff" d="M279.83,-432.98C275.86,-422.79 271.71,-412.62 267.5,-403 262.38,-391.31 256.76,-379.26 250.96,-367.3"/>
<polygon fill="none" stroke="#63b8ff" points="250.88,-367.13 244.65,-363.51 245.59,-356.36 251.83,-359.98 250.88,-367.13"/>
</a>
</g>
<text text-anchor="middle" x="283" y="-377" font-family="Helvetica,sans-Serif" font-size="10.00" fill="grey"> +location</text>
</g>
<!-- Node6 -->
<g id="Node000006" class="node">
<title>Node6</title>
<g id="a_Node000006"><a xlink:href="classyy_1_1position.html" target="_top" xlink:title="A point in a source file.">
<polygon fill="white" stroke="transparent" points="347,-859 276,-859 276,-705 347,-705 347,-859"/>
<text text-anchor="start" x="283.5" y="-847" font-family="Helvetica,sans-Serif" font-size="10.00">yy::position</text>
<text text-anchor="start" x="280.5" y="-832" font-family="Helvetica,sans-Serif" font-size="10.00">+</text>
<text text-anchor="start" x="293.5" y="-832" font-family="Helvetica,sans-Serif" font-size="10.00">column</text>
<text text-anchor="start" x="280.5" y="-817" font-family="Helvetica,sans-Serif" font-size="10.00">+</text>
<text text-anchor="start" x="293.5" y="-817" font-family="Helvetica,sans-Serif" font-size="10.00">filename</text>
<text text-anchor="start" x="280.5" y="-802" font-family="Helvetica,sans-Serif" font-size="10.00">+</text>
<text text-anchor="start" x="293.5" y="-802" font-family="Helvetica,sans-Serif" font-size="10.00">line</text>
<text text-anchor="start" x="280.5" y="-787" font-family="Helvetica,sans-Serif" font-size="10.00">+</text>
<text text-anchor="start" x="293.5" y="-787" font-family="Helvetica,sans-Serif" font-size="10.00">initialize()</text>
<text text-anchor="start" x="280.5" y="-772" font-family="Helvetica,sans-Serif" font-size="10.00">+</text>
<text text-anchor="start" x="293.5" y="-772" font-family="Helvetica,sans-Serif" font-size="10.00">position()</text>
<text text-anchor="start" x="280.5" y="-757" font-family="Helvetica,sans-Serif" font-size="10.00">+</text>
<text text-anchor="start" x="293.5" y="-757" font-family="Helvetica,sans-Serif" font-size="10.00">lines()</text>
<text text-anchor="start" x="280.5" y="-742" font-family="Helvetica,sans-Serif" font-size="10.00">+</text>
<text text-anchor="start" x="293.5" y="-742" font-family="Helvetica,sans-Serif" font-size="10.00">columns()</text>
<text text-anchor="start" x="282" y="-727" font-family="Helvetica,sans-Serif" font-size="10.00">*</text>
<text text-anchor="start" x="293.5" y="-727" font-family="Helvetica,sans-Serif" font-size="10.00">lines()</text>
<text text-anchor="start" x="282" y="-712" font-family="Helvetica,sans-Serif" font-size="10.00">*</text>
<text text-anchor="start" x="293.5" y="-712" font-family="Helvetica,sans-Serif" font-size="10.00">columns()</text>
<polygon fill="#666666" stroke="#666666" points="276.5,-842 276.5,-842 347.5,-842 347.5,-842 276.5,-842"/>
<polygon fill="#666666" stroke="#666666" points="276.5,-797 276.5,-797 291.5,-797 291.5,-797 276.5,-797"/>
<polygon fill="#666666" stroke="#666666" points="291.5,-797 291.5,-797 347.5,-797 347.5,-797 291.5,-797"/>
<polygon fill="none" stroke="#666666" points="276,-705 276,-859 347,-859 347,-705 276,-705"/>
</a>
</g>
</g>
<!-- Node6&#45;&gt;Node5 -->
<g id="edge5_Node000005_Node000006" class="edge">
<title>Node6&#45;&gt;Node5</title>
<g id="a_edge5_Node000005_Node000006"><a xlink:title=" ">
<path fill="none" stroke="#63b8ff" d="M311.5,-704.84C311.5,-681.13 311.5,-654.57 311.5,-629.33"/>
<polygon fill="none" stroke="#63b8ff" points="311.5,-629.06 307.5,-623.06 311.5,-617.06 315.5,-623.06 311.5,-629.06"/>
</a>
</g>
<text text-anchor="middle" x="331" y="-679" font-family="Helvetica,sans-Serif" font-size="10.00" fill="grey"> +begin</text>
<text text-anchor="middle" x="331" y="-668" font-family="Helvetica,sans-Serif" font-size="10.00" fill="grey">+end</text>
</g>
</g>
</svg>
