<?xml version="1.0" encoding="UTF-8" standalone="no"?>
<!DOCTYPE svg PUBLIC "-//W3C//DTD SVG 1.1//EN"
 "http://www.w3.org/Graphics/SVG/1.1/DTD/svg11.dtd">
<!-- Generated by graphviz version 2.43.0 (0)
 -->
<!-- Title: picoboot_get_info_cmd Pages: 1 -->
<svg width="132pt" height="102pt"
 viewBox="0.00 0.00 132.00 102.00" xmlns="http://www.w3.org/2000/svg" xmlns:xlink="http://www.w3.org/1999/xlink">
<g id="graph0" class="graph" transform="scale(1 1) rotate(0) translate(4 98)">
<title>picoboot_get_info_cmd</title>
<!-- Node1 -->
<g id="Node000001" class="node">
<title>Node1</title>
<g id="a_Node000001"><a xlink:title=" ">
<polygon fill="#999999" stroke="transparent" points="124,-94 0,-94 0,0 124,0 124,-94"/>
<text text-anchor="start" x="5" y="-82" font-family="Helvetica,sans-Serif" font-size="10.00">picoboot_get_info_cmd</text>
<text text-anchor="start" x="19" y="-67" font-family="Helvetica,sans-Serif" font-size="10.00">+</text>
<text text-anchor="start" x="47" y="-67" font-family="Helvetica,sans-Serif" font-size="10.00">bParam</text>
<text text-anchor="start" x="19" y="-52" font-family="Helvetica,sans-Serif" font-size="10.00">+</text>
<text text-anchor="start" x="47" y="-52" font-family="Helvetica,sans-Serif" font-size="10.00">bType</text>
<text text-anchor="start" x="19" y="-37" font-family="Helvetica,sans-Serif" font-size="10.00">+</text>
<text text-anchor="start" x="47" y="-37" font-family="Helvetica,sans-Serif" font-size="10.00">dParams</text>
<text text-anchor="start" x="19" y="-22" font-family="Helvetica,sans-Serif" font-size="10.00">+</text>
<text text-anchor="start" x="47" y="-22" font-family="Helvetica,sans-Serif" font-size="10.00">wParam</text>
<text text-anchor="start" x="58.5" y="-7" font-family="Helvetica,sans-Serif" font-size="10.00"> </text>
<polygon fill="#666666" stroke="#666666" points="0,-77 0,-77 124,-77 124,-77 0,-77"/>
<polygon fill="#666666" stroke="#666666" points="0,-17 0,-17 45,-17 45,-17 0,-17"/>
<polygon fill="#666666" stroke="#666666" points="45,-17 45,-17 124,-17 124,-17 45,-17"/>
<polygon fill="none" stroke="#666666" points="0,0 0,-94 124,-94 124,0 0,0"/>
</a>
</g>
</g>
</g>
</svg>
