<?xml version="1.0" encoding="UTF-8" standalone="no"?>
<!DOCTYPE svg PUBLIC "-//W3C//DTD SVG 1.1//EN"
 "http://www.w3.org/Graphics/SVG/1.1/DTD/svg11.dtd">
<!-- Generated by graphviz version 2.43.0 (0)
 -->
<!-- Title: SEGGER_RTT_CB Pages: 1 -->
<svg width="320pt" height="258pt"
 viewBox="0.00 0.00 319.50 258.00" xmlns="http://www.w3.org/2000/svg" xmlns:xlink="http://www.w3.org/1999/xlink">
<g id="graph0" class="graph" transform="scale(1 1) rotate(0) translate(4 254)">
<title>SEGGER_RTT_CB</title>
<!-- Node1 -->
<g id="Node000001" class="node">
<title>Node1</title>
<g id="a_Node000001"><a xlink:title=" ">
<polygon fill="#999999" stroke="transparent" points="215,-79 86,-79 86,0 215,0 215,-79"/>
<text text-anchor="start" x="109.5" y="-66.5" font-family="Helvetica,sans-Serif" font-size="10.00">SEGGER_RTT_CB</text>
<text text-anchor="start" x="90.5" y="-51.5" font-family="Helvetica,sans-Serif" font-size="10.00">+</text>
<text text-anchor="start" x="103.5" y="-51.5" font-family="Helvetica,sans-Serif" font-size="10.00">acID</text>
<text text-anchor="start" x="90.5" y="-36.5" font-family="Helvetica,sans-Serif" font-size="10.00">+</text>
<text text-anchor="start" x="103.5" y="-36.5" font-family="Helvetica,sans-Serif" font-size="10.00">MaxNumDownBuffers</text>
<text text-anchor="start" x="90.5" y="-21.5" font-family="Helvetica,sans-Serif" font-size="10.00">+</text>
<text text-anchor="start" x="103.5" y="-21.5" font-family="Helvetica,sans-Serif" font-size="10.00">MaxNumUpBuffers</text>
<text text-anchor="start" x="147.5" y="-6.5" font-family="Helvetica,sans-Serif" font-size="10.00"> </text>
<polygon fill="#666666" stroke="#666666" points="86.5,-61.5 86.5,-61.5 215.5,-61.5 215.5,-61.5 86.5,-61.5"/>
<polygon fill="#666666" stroke="#666666" points="86.5,-16.5 86.5,-16.5 101.5,-16.5 101.5,-16.5 86.5,-16.5"/>
<polygon fill="#666666" stroke="#666666" points="101.5,-16.5 101.5,-16.5 215.5,-16.5 215.5,-16.5 101.5,-16.5"/>
<polygon fill="none" stroke="#666666" points="86,0 86,-79 215,-79 215,0 86,0"/>
</a>
</g>
</g>
<!-- Node2 -->
<g id="Node000002" class="node">
<title>Node2</title>
<g id="a_Node000002"><a xlink:href="structSEGGER__RTT__BUFFER__UP.html" target="_top" xlink:title=" ">
<polygon fill="white" stroke="transparent" points="137,-250 0,-250 0,-126 137,-126 137,-250"/>
<text text-anchor="start" x="5.5" y="-238" font-family="Helvetica,sans-Serif" font-size="10.00">SEGGER_RTT_BUFFER_UP</text>
<text text-anchor="start" x="18" y="-223" font-family="Helvetica,sans-Serif" font-size="10.00">+</text>
<text text-anchor="start" x="44.5" y="-223" font-family="Helvetica,sans-Serif" font-size="10.00">Flags</text>
<text text-anchor="start" x="18" y="-208" font-family="Helvetica,sans-Serif" font-size="10.00">+</text>
<text text-anchor="start" x="44.5" y="-208" font-family="Helvetica,sans-Serif" font-size="10.00">pBuffer</text>
<text text-anchor="start" x="18" y="-193" font-family="Helvetica,sans-Serif" font-size="10.00">+</text>
<text text-anchor="start" x="44.5" y="-193" font-family="Helvetica,sans-Serif" font-size="10.00">RdOff</text>
<text text-anchor="start" x="18" y="-178" font-family="Helvetica,sans-Serif" font-size="10.00">+</text>
<text text-anchor="start" x="44.5" y="-178" font-family="Helvetica,sans-Serif" font-size="10.00">SizeOfBuffer</text>
<text text-anchor="start" x="18" y="-163" font-family="Helvetica,sans-Serif" font-size="10.00">+</text>
<text text-anchor="start" x="44.5" y="-163" font-family="Helvetica,sans-Serif" font-size="10.00">sName</text>
<text text-anchor="start" x="18" y="-148" font-family="Helvetica,sans-Serif" font-size="10.00">+</text>
<text text-anchor="start" x="44.5" y="-148" font-family="Helvetica,sans-Serif" font-size="10.00">WrOff</text>
<text text-anchor="start" x="65.5" y="-133" font-family="Helvetica,sans-Serif" font-size="10.00"> </text>
<polygon fill="#666666" stroke="#666666" points="0.5,-233 0.5,-233 137.5,-233 137.5,-233 0.5,-233"/>
<polygon fill="#666666" stroke="#666666" points="0.5,-143 0.5,-143 42.5,-143 42.5,-143 0.5,-143"/>
<polygon fill="#666666" stroke="#666666" points="42.5,-143 42.5,-143 137.5,-143 137.5,-143 42.5,-143"/>
<polygon fill="none" stroke="#666666" points="0,-126 0,-250 137,-250 137,-126 0,-126"/>
</a>
</g>
</g>
<!-- Node2&#45;&gt;Node1 -->
<g id="edge1_Node000001_Node000002" class="edge">
<title>Node2&#45;&gt;Node1</title>
<g id="a_edge1_Node000001_Node000002"><a xlink:title=" ">
<path fill="none" stroke="#63b8ff" d="M102.8,-125.72C109.45,-113.84 116.35,-101.52 122.75,-90.07"/>
<polygon fill="none" stroke="#63b8ff" points="122.87,-89.87 122.31,-82.68 128.73,-79.4 129.29,-86.59 122.87,-89.87"/>
</a>
</g>
<text text-anchor="middle" x="133" y="-100" font-family="Helvetica,sans-Serif" font-size="10.00" fill="grey"> +aUp</text>
</g>
<!-- Node3 -->
<g id="Node000003" class="node">
<title>Node3</title>
<g id="a_Node000003"><a xlink:href="structSEGGER__RTT__BUFFER__DOWN.html" target="_top" xlink:title=" ">
<polygon fill="white" stroke="transparent" points="311.5,-250 155.5,-250 155.5,-126 311.5,-126 311.5,-250"/>
<text text-anchor="start" x="160.5" y="-238" font-family="Helvetica,sans-Serif" font-size="10.00">SEGGER_RTT_BUFFER_DOWN</text>
<text text-anchor="start" x="177.5" y="-223" font-family="Helvetica,sans-Serif" font-size="10.00">+</text>
<text text-anchor="start" x="208.5" y="-223" font-family="Helvetica,sans-Serif" font-size="10.00">Flags</text>
<text text-anchor="start" x="177.5" y="-208" font-family="Helvetica,sans-Serif" font-size="10.00">+</text>
<text text-anchor="start" x="208.5" y="-208" font-family="Helvetica,sans-Serif" font-size="10.00">pBuffer</text>
<text text-anchor="start" x="177.5" y="-193" font-family="Helvetica,sans-Serif" font-size="10.00">+</text>
<text text-anchor="start" x="208.5" y="-193" font-family="Helvetica,sans-Serif" font-size="10.00">RdOff</text>
<text text-anchor="start" x="177.5" y="-178" font-family="Helvetica,sans-Serif" font-size="10.00">+</text>
<text text-anchor="start" x="208.5" y="-178" font-family="Helvetica,sans-Serif" font-size="10.00">SizeOfBuffer</text>
<text text-anchor="start" x="177.5" y="-163" font-family="Helvetica,sans-Serif" font-size="10.00">+</text>
<text text-anchor="start" x="208.5" y="-163" font-family="Helvetica,sans-Serif" font-size="10.00">sName</text>
<text text-anchor="start" x="177.5" y="-148" font-family="Helvetica,sans-Serif" font-size="10.00">+</text>
<text text-anchor="start" x="208.5" y="-148" font-family="Helvetica,sans-Serif" font-size="10.00">WrOff</text>
<text text-anchor="start" x="230" y="-133" font-family="Helvetica,sans-Serif" font-size="10.00"> </text>
<polygon fill="#666666" stroke="#666666" points="155.5,-233 155.5,-233 311.5,-233 311.5,-233 155.5,-233"/>
<polygon fill="#666666" stroke="#666666" points="155.5,-143 155.5,-143 206.5,-143 206.5,-143 155.5,-143"/>
<polygon fill="#666666" stroke="#666666" points="206.5,-143 206.5,-143 311.5,-143 311.5,-143 206.5,-143"/>
<polygon fill="none" stroke="#666666" points="155.5,-126 155.5,-250 311.5,-250 311.5,-126 155.5,-126"/>
</a>
</g>
</g>
<!-- Node3&#45;&gt;Node1 -->
<g id="edge2_Node000001_Node000003" class="edge">
<title>Node3&#45;&gt;Node1</title>
<g id="a_edge2_Node000001_Node000003"><a xlink:title=" ">
<path fill="none" stroke="#63b8ff" d="M198.78,-125.72C192.05,-113.84 185.07,-101.52 178.58,-90.07"/>
<polygon fill="none" stroke="#63b8ff" points="178.45,-89.84 172.02,-86.59 172.54,-79.4 178.98,-82.65 178.45,-89.84"/>
</a>
</g>
<text text-anchor="middle" x="209.5" y="-100" font-family="Helvetica,sans-Serif" font-size="10.00" fill="grey"> +aDown</text>
</g>
</g>
</svg>
