<?xml version="1.0" encoding="UTF-8" standalone="no"?>
<!DOCTYPE svg PUBLIC "-//W3C//DTD SVG 1.1//EN"
 "http://www.w3.org/Graphics/SVG/1.1/DTD/svg11.dtd">
<!-- Generated by graphviz version 2.43.0 (0)
 -->
<!-- Title: yy::parser::basic_symbol&lt; Base &gt; Pages: 1 -->
<svg width="139pt" height="318pt"
 viewBox="0.00 0.00 139.00 318.00" xmlns="http://www.w3.org/2000/svg" xmlns:xlink="http://www.w3.org/1999/xlink">
<g id="graph0" class="graph" transform="scale(1 1) rotate(0) translate(4 314)">
<title>yy::parser::basic_symbol&lt; Base &gt;</title>
<!-- Node1 -->
<g id="Node000001" class="node">
<title>Node1</title>
<g id="a_Node000001"><a xlink:title="A complete symbol.">
<polygon fill="#999999" stroke="transparent" points="131,-225 0,-225 0,0 131,0 131,-225"/>
<text text-anchor="start" x="5.5" y="-212.5" font-family="Helvetica,sans-Serif" font-size="10.00">yy::parser::basic_symbol</text>
<text text-anchor="start" x="42.5" y="-201.5" font-family="Helvetica,sans-Serif" font-size="10.00">&lt; Base &gt;</text>
<text text-anchor="start" x="13" y="-186.5" font-family="Helvetica,sans-Serif" font-size="10.00">+</text>
<text text-anchor="start" x="34.5" y="-186.5" font-family="Helvetica,sans-Serif" font-size="10.00">location</text>
<text text-anchor="start" x="13" y="-171.5" font-family="Helvetica,sans-Serif" font-size="10.00">+</text>
<text text-anchor="start" x="34.5" y="-171.5" font-family="Helvetica,sans-Serif" font-size="10.00">value</text>
<text text-anchor="start" x="13" y="-156.5" font-family="Helvetica,sans-Serif" font-size="10.00">+</text>
<text text-anchor="start" x="34.5" y="-156.5" font-family="Helvetica,sans-Serif" font-size="10.00">basic_symbol()</text>
<text text-anchor="start" x="13" y="-141.5" font-family="Helvetica,sans-Serif" font-size="10.00">+</text>
<text text-anchor="start" x="34.5" y="-141.5" font-family="Helvetica,sans-Serif" font-size="10.00">basic_symbol()</text>
<text text-anchor="start" x="13" y="-126.5" font-family="Helvetica,sans-Serif" font-size="10.00">+</text>
<text text-anchor="start" x="34.5" y="-126.5" font-family="Helvetica,sans-Serif" font-size="10.00">basic_symbol()</text>
<text text-anchor="start" x="13" y="-111.5" font-family="Helvetica,sans-Serif" font-size="10.00">+</text>
<text text-anchor="start" x="34.5" y="-111.5" font-family="Helvetica,sans-Serif" font-size="10.00">basic_symbol()</text>
<text text-anchor="start" x="13" y="-96.5" font-family="Helvetica,sans-Serif" font-size="10.00">+</text>
<text text-anchor="start" x="34.5" y="-96.5" font-family="Helvetica,sans-Serif" font-size="10.00">basic_symbol()</text>
<text text-anchor="start" x="13" y="-81.5" font-family="Helvetica,sans-Serif" font-size="10.00">+</text>
<text text-anchor="start" x="34.5" y="-81.5" font-family="Helvetica,sans-Serif" font-size="10.00">basic_symbol()</text>
<text text-anchor="start" x="13" y="-66.5" font-family="Helvetica,sans-Serif" font-size="10.00">+</text>
<text text-anchor="start" x="34.5" y="-66.5" font-family="Helvetica,sans-Serif" font-size="10.00">basic_symbol()</text>
<text text-anchor="start" x="13" y="-51.5" font-family="Helvetica,sans-Serif" font-size="10.00">+</text>
<text text-anchor="start" x="34.5" y="-51.5" font-family="Helvetica,sans-Serif" font-size="10.00">basic_symbol()</text>
<text text-anchor="start" x="13" y="-36.5" font-family="Helvetica,sans-Serif" font-size="10.00">+</text>
<text text-anchor="start" x="34.5" y="-36.5" font-family="Helvetica,sans-Serif" font-size="10.00">basic_symbol()</text>
<text text-anchor="start" x="13" y="-21.5" font-family="Helvetica,sans-Serif" font-size="10.00">+</text>
<text text-anchor="start" x="34.5" y="-21.5" font-family="Helvetica,sans-Serif" font-size="10.00">basic_symbol()</text>
<text text-anchor="start" x="34.5" y="-6.5" font-family="Helvetica,sans-Serif" font-size="10.00">e 14 mais...</text>
<polygon fill="#666666" stroke="#666666" points="0.5,-196.5 0.5,-196.5 131.5,-196.5 131.5,-196.5 0.5,-196.5"/>
<polygon fill="#666666" stroke="#666666" points="0.5,-166.5 0.5,-166.5 32.5,-166.5 32.5,-166.5 0.5,-166.5"/>
<polygon fill="#666666" stroke="#666666" points="32.5,-166.5 32.5,-166.5 131.5,-166.5 131.5,-166.5 32.5,-166.5"/>
<polygon fill="none" stroke="#666666" points="0,0 0,-225 131,-225 131,0 0,0"/>
</a>
</g>
</g>
<!-- Node2 -->
<g id="Node000002" class="node">
<title>Node2</title>
<g id="a_Node000002"><a xlink:title=" ">
<polygon fill="white" stroke="transparent" points="83,-310 48,-310 48,-261 83,-261 83,-310"/>
<text text-anchor="start" x="53.5" y="-297.5" font-family="Helvetica,sans-Serif" font-size="10.00">Base</text>
<text text-anchor="start" x="62.5" y="-282.5" font-family="Helvetica,sans-Serif" font-size="10.00"> </text>
<text text-anchor="start" x="62.5" y="-267.5" font-family="Helvetica,sans-Serif" font-size="10.00"> </text>
<polygon fill="#666666" stroke="#666666" points="48.5,-292.5 48.5,-292.5 83.5,-292.5 83.5,-292.5 48.5,-292.5"/>
<polygon fill="#666666" stroke="#666666" points="48.5,-277.5 48.5,-277.5 83.5,-277.5 83.5,-277.5 48.5,-277.5"/>
<polygon fill="none" stroke="#666666" points="48,-261 48,-310 83,-310 83,-261 48,-261"/>
</a>
</g>
</g>
<!-- Node2&#45;&gt;Node1 -->
<g id="edge1_Node000001_Node000002" class="edge">
<title>Node2&#45;&gt;Node1</title>
<g id="a_edge1_Node000001_Node000002"><a xlink:title=" ">
<path fill="none" stroke="#63b8ff" d="M65.5,-250.52C65.5,-242.85 65.5,-234.3 65.5,-225.32"/>
<polygon fill="none" stroke="#63b8ff" points="62,-250.72 65.5,-260.72 69,-250.72 62,-250.72"/>
</a>
</g>
</g>
</g>
</svg>
