<?xml version="1.0" encoding="UTF-8" standalone="no"?>
<!DOCTYPE svg PUBLIC "-//W3C//DTD SVG 1.1//EN"
 "http://www.w3.org/Graphics/SVG/1.1/DTD/svg11.dtd">
<!-- Generated by graphviz version 2.43.0 (0)
 -->
<!-- Title: ticks_hw_t Pages: 1 -->
<svg width="98pt" height="183pt"
 viewBox="0.00 0.00 98.00 183.00" xmlns="http://www.w3.org/2000/svg" xmlns:xlink="http://www.w3.org/1999/xlink">
<g id="graph0" class="graph" transform="scale(1 1) rotate(0) translate(4 179)">
<title>ticks_hw_t</title>
<!-- Node1 -->
<g id="Node000001" class="node">
<title>Node1</title>
<g id="a_Node000001"><a xlink:title=" ">
<polygon fill="#999999" stroke="transparent" points="76,-49 14,-49 14,0 76,0 76,-49"/>
<text text-anchor="start" x="19" y="-36.5" font-family="Helvetica,sans-Serif" font-size="10.00">ticks_hw_t</text>
<text text-anchor="start" x="41.5" y="-21.5" font-family="Helvetica,sans-Serif" font-size="10.00"> </text>
<text text-anchor="start" x="41.5" y="-6.5" font-family="Helvetica,sans-Serif" font-size="10.00"> </text>
<polygon fill="#666666" stroke="#666666" points="14,-31.5 14,-31.5 76,-31.5 76,-31.5 14,-31.5"/>
<polygon fill="#666666" stroke="#666666" points="14,-16.5 14,-16.5 76,-16.5 76,-16.5 14,-16.5"/>
<polygon fill="none" stroke="#666666" points="14,0 14,-49 76,-49 76,0 14,0"/>
</a>
</g>
</g>
<!-- Node2 -->
<g id="Node000002" class="node">
<title>Node2</title>
<g id="a_Node000002"><a xlink:href="structticks__slice__hw__t.html" target="_top" xlink:title=" ">
<polygon fill="white" stroke="transparent" points="90,-175 0,-175 0,-96 90,-96 90,-175"/>
<text text-anchor="start" x="5" y="-162.5" font-family="Helvetica,sans-Serif" font-size="10.00">ticks_slice_hw_t</text>
<text text-anchor="start" x="13.5" y="-147.5" font-family="Helvetica,sans-Serif" font-size="10.00">+</text>
<text text-anchor="start" x="36" y="-147.5" font-family="Helvetica,sans-Serif" font-size="10.00">count</text>
<text text-anchor="start" x="13.5" y="-132.5" font-family="Helvetica,sans-Serif" font-size="10.00">+</text>
<text text-anchor="start" x="36" y="-132.5" font-family="Helvetica,sans-Serif" font-size="10.00">ctrl</text>
<text text-anchor="start" x="13.5" y="-117.5" font-family="Helvetica,sans-Serif" font-size="10.00">+</text>
<text text-anchor="start" x="36" y="-117.5" font-family="Helvetica,sans-Serif" font-size="10.00">cycles</text>
<text text-anchor="start" x="41.5" y="-102.5" font-family="Helvetica,sans-Serif" font-size="10.00"> </text>
<polygon fill="#666666" stroke="#666666" points="0,-157.5 0,-157.5 90,-157.5 90,-157.5 0,-157.5"/>
<polygon fill="#666666" stroke="#666666" points="0,-112.5 0,-112.5 34,-112.5 34,-112.5 0,-112.5"/>
<polygon fill="#666666" stroke="#666666" points="34,-112.5 34,-112.5 90,-112.5 90,-112.5 34,-112.5"/>
<polygon fill="none" stroke="#666666" points="0,-96 0,-175 90,-175 90,-96 0,-96"/>
</a>
</g>
</g>
<!-- Node2&#45;&gt;Node1 -->
<g id="edge1_Node000001_Node000002" class="edge">
<title>Node2&#45;&gt;Node1</title>
<g id="a_edge1_Node000001_Node000002"><a xlink:title=" ">
<path fill="none" stroke="#63b8ff" d="M45,-95.76C45,-84.59 45,-72.45 45,-61.46"/>
<polygon fill="none" stroke="#63b8ff" points="45,-61.2 41,-55.2 45,-49.2 49,-55.2 45,-61.2"/>
</a>
</g>
<text text-anchor="middle" x="62.5" y="-70" font-family="Helvetica,sans-Serif" font-size="10.00" fill="grey"> +ticks</text>
</g>
</g>
</svg>
