<?xml version="1.0" encoding="UTF-8" standalone="no"?>
<!DOCTYPE svg PUBLIC "-//W3C//DTD SVG 1.1//EN"
 "http://www.w3.org/Graphics/SVG/1.1/DTD/svg11.dtd">
<!-- Generated by graphviz version 2.43.0 (0)
 -->
<!-- Title: structure.h Pages: 1 -->
<svg width="773pt" height="203pt"
 viewBox="0.00 0.00 772.50 203.00" xmlns="http://www.w3.org/2000/svg" xmlns:xlink="http://www.w3.org/1999/xlink">
<g id="graph0" class="graph" transform="scale(1 1) rotate(0) translate(4 199)">
<title>structure.h</title>
<!-- Node1 -->
<g id="Node000001" class="node">
<title>Node1</title>
<g id="a_Node000001"><a xlink:title=" ">
<polygon fill="#999999" stroke="#666666" points="472,-195 403,-195 403,-176 472,-176 472,-195"/>
<text text-anchor="middle" x="437.5" y="-183" font-family="Helvetica,sans-Serif" font-size="10.00">structure.h</text>
</a>
</g>
</g>
<!-- Node2 -->
<g id="Node000002" class="node">
<title>Node2</title>
<g id="a_Node000002"><a xlink:href="binary__info_8h.html" target="_top" xlink:title=" ">
<polygon fill="white" stroke="#666666" points="477.5,-85 397.5,-85 397.5,-66 477.5,-66 477.5,-85"/>
<text text-anchor="middle" x="437.5" y="-73" font-family="Helvetica,sans-Serif" font-size="10.00">binary_info.h</text>
</a>
</g>
</g>
<!-- Node1&#45;&gt;Node2 -->
<g id="edge1_Node000001_Node000002" class="edge">
<title>Node1&#45;&gt;Node2</title>
<g id="a_edge1_Node000001_Node000002"><a xlink:title=" ">
<path fill="none" stroke="#63b8ff" d="M434.39,-165.66C433.24,-157.76 432.07,-148.46 431.5,-140 430.18,-120.33 433.6,-97.32 435.8,-85.12"/>
<polygon fill="#63b8ff" stroke="#63b8ff" points="430.95,-166.33 435.95,-175.67 437.87,-165.25 430.95,-166.33"/>
</a>
</g>
</g>
<!-- Node10 -->
<g id="Node000010" class="node">
<title>Node10</title>
<g id="a_Node000010"><a xlink:href="code_8h.html" target="_top" xlink:title=" ">
<polygon fill="white" stroke="#666666" points="489,-140 440,-140 440,-121 489,-121 489,-140"/>
<text text-anchor="middle" x="464.5" y="-128" font-family="Helvetica,sans-Serif" font-size="10.00">code.h</text>
</a>
</g>
</g>
<!-- Node1&#45;&gt;Node10 -->
<g id="edge9_Node000001_Node000010" class="edge">
<title>Node1&#45;&gt;Node10</title>
<g id="a_edge9_Node000001_Node000010"><a xlink:title=" ">
<path fill="none" stroke="#63b8ff" d="M446.51,-166.82C451.09,-157.82 456.45,-147.29 460.12,-140.09"/>
<polygon fill="#63b8ff" stroke="#63b8ff" points="443.38,-165.25 441.96,-175.75 449.62,-168.43 443.38,-165.25"/>
</a>
</g>
</g>
<!-- Node3 -->
<g id="Node000003" class="node">
<title>Node3</title>
<g id="a_Node000003"><a xlink:href="pico__bootsel__via__double__reset_8c.html" target="_top" xlink:title=" ">
<polygon fill="white" stroke="#666666" points="137,-30 0,-30 0,0 137,0 137,-30"/>
<text text-anchor="start" x="8" y="-18" font-family="Helvetica,sans-Serif" font-size="10.00">pico_bootsel_via_double</text>
<text text-anchor="middle" x="68.5" y="-7" font-family="Helvetica,sans-Serif" font-size="10.00">_reset.c</text>
</a>
</g>
</g>
<!-- Node2&#45;&gt;Node3 -->
<g id="edge2_Node000002_Node000003" class="edge">
<title>Node2&#45;&gt;Node3</title>
<g id="a_edge2_Node000002_Node000003"><a xlink:title=" ">
<path fill="none" stroke="#63b8ff" d="M387.26,-67.29C329.02,-58.83 230.19,-44.15 145.5,-30 142.82,-29.55 140.09,-29.09 137.33,-28.62"/>
<polygon fill="#63b8ff" stroke="#63b8ff" points="386.9,-70.77 397.29,-68.74 387.9,-63.85 386.9,-70.77"/>
</a>
</g>
</g>
<!-- Node4 -->
<g id="Node000004" class="node">
<title>Node4</title>
<g id="a_Node000004"><a xlink:href="ssd1306__i2c_8c.html" target="_top" xlink:title=" ">
<polygon fill="white" stroke="#666666" points="240,-24.5 155,-24.5 155,-5.5 240,-5.5 240,-24.5"/>
<text text-anchor="middle" x="197.5" y="-12.5" font-family="Helvetica,sans-Serif" font-size="10.00">ssd1306_i2c.c</text>
</a>
</g>
</g>
<!-- Node2&#45;&gt;Node4 -->
<g id="edge3_Node000002_Node000004" class="edge">
<title>Node2&#45;&gt;Node4</title>
<g id="a_edge3_Node000002_Node000004"><a xlink:title=" ">
<path fill="none" stroke="#63b8ff" d="M390.18,-63.72C352.1,-54.95 297.26,-42.08 249.5,-30 242.7,-28.28 235.42,-26.37 228.53,-24.52"/>
<polygon fill="#63b8ff" stroke="#63b8ff" points="389.43,-67.14 399.96,-65.97 391,-60.32 389.43,-67.14"/>
</a>
</g>
</g>
<!-- Node5 -->
<g id="Node000005" class="node">
<title>Node5</title>
<g id="a_Node000005"><a xlink:href="standard__binary__info_8c.html" target="_top" xlink:title=" ">
<polygon fill="white" stroke="#666666" points="386.5,-24.5 258.5,-24.5 258.5,-5.5 386.5,-5.5 386.5,-24.5"/>
<text text-anchor="middle" x="322.5" y="-12.5" font-family="Helvetica,sans-Serif" font-size="10.00">standard_binary_info.c</text>
</a>
</g>
</g>
<!-- Node2&#45;&gt;Node5 -->
<g id="edge4_Node000002_Node000005" class="edge">
<title>Node2&#45;&gt;Node5</title>
<g id="a_edge4_Node000002_Node000005"><a xlink:title=" ">
<path fill="none" stroke="#63b8ff" d="M411.41,-61.23C389.39,-50.03 358.51,-34.32 339.54,-24.67"/>
<polygon fill="#63b8ff" stroke="#63b8ff" points="410.03,-64.45 420.53,-65.87 413.21,-58.21 410.03,-64.45"/>
</a>
</g>
</g>
<!-- Node6 -->
<g id="Node000006" class="node">
<title>Node6</title>
<g id="a_Node000006"><a xlink:href="stdio__rtt_8c.html" target="_top" xlink:title=" ">
<polygon fill="white" stroke="#666666" points="470,-24.5 405,-24.5 405,-5.5 470,-5.5 470,-24.5"/>
<text text-anchor="middle" x="437.5" y="-12.5" font-family="Helvetica,sans-Serif" font-size="10.00">stdio_rtt.c</text>
</a>
</g>
</g>
<!-- Node2&#45;&gt;Node6 -->
<g id="edge5_Node000002_Node000006" class="edge">
<title>Node2&#45;&gt;Node6</title>
<g id="a_edge5_Node000002_Node000006"><a xlink:title=" ">
<path fill="none" stroke="#63b8ff" d="M437.5,-55.66C437.5,-45.24 437.5,-32.8 437.5,-24.67"/>
<polygon fill="#63b8ff" stroke="#63b8ff" points="434,-55.87 437.5,-65.87 441,-55.87 434,-55.87"/>
</a>
</g>
</g>
<!-- Node7 -->
<g id="Node000007" class="node">
<title>Node7</title>
<g id="a_Node000007"><a xlink:href="stdio__semihosting_8c.html" target="_top" xlink:title=" ">
<polygon fill="white" stroke="#666666" points="602.5,-24.5 488.5,-24.5 488.5,-5.5 602.5,-5.5 602.5,-24.5"/>
<text text-anchor="middle" x="545.5" y="-12.5" font-family="Helvetica,sans-Serif" font-size="10.00">stdio_semihosting.c</text>
</a>
</g>
</g>
<!-- Node2&#45;&gt;Node7 -->
<g id="edge6_Node000002_Node000007" class="edge">
<title>Node2&#45;&gt;Node7</title>
<g id="a_edge6_Node000002_Node000007"><a xlink:title=" ">
<path fill="none" stroke="#63b8ff" d="M462.28,-61.08C482.94,-49.88 511.76,-34.27 529.5,-24.67"/>
<polygon fill="#63b8ff" stroke="#63b8ff" points="460.56,-58.03 453.44,-65.87 463.9,-64.18 460.56,-58.03"/>
</a>
</g>
</g>
<!-- Node8 -->
<g id="Node000008" class="node">
<title>Node8</title>
<g id="a_Node000008"><a xlink:href="stdio__uart_8c.html" target="_top" xlink:title=" ">
<polygon fill="white" stroke="#666666" points="694.5,-24.5 620.5,-24.5 620.5,-5.5 694.5,-5.5 694.5,-24.5"/>
<text text-anchor="middle" x="657.5" y="-12.5" font-family="Helvetica,sans-Serif" font-size="10.00">stdio_uart.c</text>
</a>
</g>
</g>
<!-- Node2&#45;&gt;Node8 -->
<g id="edge7_Node000002_Node000008" class="edge">
<title>Node2&#45;&gt;Node8</title>
<g id="a_edge7_Node000002_Node000008"><a xlink:title=" ">
<path fill="none" stroke="#63b8ff" d="M482.92,-63.48C518.12,-54.79 568.05,-42.16 611.5,-30 617.45,-28.33 623.8,-26.46 629.83,-24.64"/>
<polygon fill="#63b8ff" stroke="#63b8ff" points="481.82,-60.14 472.95,-65.93 483.5,-66.94 481.82,-60.14"/>
</a>
</g>
</g>
<!-- Node9 -->
<g id="Node000009" class="node">
<title>Node9</title>
<g id="a_Node000009"><a xlink:href="rp2__common_2pico__stdlib_2stdlib_8c.html" target="_top" xlink:title=" ">
<polygon fill="white" stroke="#666666" points="764.5,-24.5 712.5,-24.5 712.5,-5.5 764.5,-5.5 764.5,-24.5"/>
<text text-anchor="middle" x="738.5" y="-12.5" font-family="Helvetica,sans-Serif" font-size="10.00">stdlib.c</text>
</a>
</g>
</g>
<!-- Node2&#45;&gt;Node9 -->
<g id="edge8_Node000002_Node000009" class="edge">
<title>Node2&#45;&gt;Node9</title>
<g id="a_edge8_Node000002_Node000009"><a xlink:title=" ">
<path fill="none" stroke="#63b8ff" d="M487.75,-69.35C541.76,-63.07 629.8,-50.65 703.5,-30 708.67,-28.55 714.12,-26.6 719.13,-24.6"/>
<polygon fill="#63b8ff" stroke="#63b8ff" points="487.28,-65.88 477.74,-70.49 488.08,-72.84 487.28,-65.88"/>
</a>
</g>
</g>
<!-- Node10&#45;&gt;Node2 -->
<g id="edge10_Node000010_Node000002" class="edge">
<title>Node10&#45;&gt;Node2</title>
<g id="a_edge10_Node000010_Node000002"><a xlink:title=" ">
<path fill="none" stroke="#63b8ff" d="M455.49,-111.82C450.91,-102.82 445.55,-92.29 441.88,-85.09"/>
<polygon fill="#63b8ff" stroke="#63b8ff" points="452.38,-113.43 460.04,-120.75 458.62,-110.25 452.38,-113.43"/>
</a>
</g>
</g>
</g>
</svg>
