<?xml version="1.0" encoding="UTF-8" standalone="no"?>
<!DOCTYPE svg PUBLIC "-//W3C//DTD SVG 1.1//EN"
 "http://www.w3.org/Graphics/SVG/1.1/DTD/svg11.dtd">
<!-- Generated by graphviz version 2.43.0 (0)
 -->
<!-- Title: yy::parser::basic_symbol&lt; Base &gt; Pages: 1 -->
<svg width="291pt" height="721pt"
 viewBox="0.00 0.00 290.50 721.00" xmlns="http://www.w3.org/2000/svg" xmlns:xlink="http://www.w3.org/1999/xlink">
<g id="graph0" class="graph" transform="scale(1 1) rotate(0) translate(4 717)">
<title>yy::parser::basic_symbol&lt; Base &gt;</title>
<!-- Node1 -->
<g id="Node000001" class="node">
<title>Node1</title>
<g id="a_Node000001"><a xlink:title="A complete symbol.">
<polygon fill="#999999" stroke="transparent" points="187,-210 56,-210 56,0 187,0 187,-210"/>
<text text-anchor="start" x="61.5" y="-198" font-family="Helvetica,sans-Serif" font-size="10.00">yy::parser::basic_symbol</text>
<text text-anchor="start" x="98.5" y="-187" font-family="Helvetica,sans-Serif" font-size="10.00">&lt; Base &gt;</text>
<text text-anchor="start" x="118.5" y="-172" font-family="Helvetica,sans-Serif" font-size="10.00"> </text>
<text text-anchor="start" x="69" y="-157" font-family="Helvetica,sans-Serif" font-size="10.00">+</text>
<text text-anchor="start" x="90.5" y="-157" font-family="Helvetica,sans-Serif" font-size="10.00">basic_symbol()</text>
<text text-anchor="start" x="69" y="-142" font-family="Helvetica,sans-Serif" font-size="10.00">+</text>
<text text-anchor="start" x="90.5" y="-142" font-family="Helvetica,sans-Serif" font-size="10.00">basic_symbol()</text>
<text text-anchor="start" x="69" y="-127" font-family="Helvetica,sans-Serif" font-size="10.00">+</text>
<text text-anchor="start" x="90.5" y="-127" font-family="Helvetica,sans-Serif" font-size="10.00">basic_symbol()</text>
<text text-anchor="start" x="69" y="-112" font-family="Helvetica,sans-Serif" font-size="10.00">+</text>
<text text-anchor="start" x="90.5" y="-112" font-family="Helvetica,sans-Serif" font-size="10.00">basic_symbol()</text>
<text text-anchor="start" x="69" y="-97" font-family="Helvetica,sans-Serif" font-size="10.00">+</text>
<text text-anchor="start" x="90.5" y="-97" font-family="Helvetica,sans-Serif" font-size="10.00">basic_symbol()</text>
<text text-anchor="start" x="69" y="-82" font-family="Helvetica,sans-Serif" font-size="10.00">+</text>
<text text-anchor="start" x="90.5" y="-82" font-family="Helvetica,sans-Serif" font-size="10.00">basic_symbol()</text>
<text text-anchor="start" x="69" y="-67" font-family="Helvetica,sans-Serif" font-size="10.00">+</text>
<text text-anchor="start" x="90.5" y="-67" font-family="Helvetica,sans-Serif" font-size="10.00">basic_symbol()</text>
<text text-anchor="start" x="69" y="-52" font-family="Helvetica,sans-Serif" font-size="10.00">+</text>
<text text-anchor="start" x="90.5" y="-52" font-family="Helvetica,sans-Serif" font-size="10.00">basic_symbol()</text>
<text text-anchor="start" x="69" y="-37" font-family="Helvetica,sans-Serif" font-size="10.00">+</text>
<text text-anchor="start" x="90.5" y="-37" font-family="Helvetica,sans-Serif" font-size="10.00">basic_symbol()</text>
<text text-anchor="start" x="69" y="-22" font-family="Helvetica,sans-Serif" font-size="10.00">+</text>
<text text-anchor="start" x="90.5" y="-22" font-family="Helvetica,sans-Serif" font-size="10.00">basic_symbol()</text>
<text text-anchor="start" x="90.5" y="-7" font-family="Helvetica,sans-Serif" font-size="10.00">e 14 mais...</text>
<polygon fill="#666666" stroke="#666666" points="56.5,-182 56.5,-182 187.5,-182 187.5,-182 56.5,-182"/>
<polygon fill="#666666" stroke="#666666" points="56.5,-167 56.5,-167 187.5,-167 187.5,-167 56.5,-167"/>
<polygon fill="none" stroke="#666666" points="56,0 56,-210 187,-210 187,0 56,0"/>
</a>
</g>
</g>
<!-- Node2 -->
<g id="Node000002" class="node">
<title>Node2</title>
<g id="a_Node000002"><a xlink:title=" ">
<polygon fill="white" stroke="transparent" points="35,-403.5 0,-403.5 0,-354.5 35,-354.5 35,-403.5"/>
<text text-anchor="start" x="5.5" y="-391" font-family="Helvetica,sans-Serif" font-size="10.00">Base</text>
<text text-anchor="start" x="14.5" y="-376" font-family="Helvetica,sans-Serif" font-size="10.00"> </text>
<text text-anchor="start" x="14.5" y="-361" font-family="Helvetica,sans-Serif" font-size="10.00"> </text>
<polygon fill="#666666" stroke="#666666" points="0.5,-386 0.5,-386 35.5,-386 35.5,-386 0.5,-386"/>
<polygon fill="#666666" stroke="#666666" points="0.5,-371 0.5,-371 35.5,-371 35.5,-371 0.5,-371"/>
<polygon fill="none" stroke="#666666" points="0,-354.5 0,-403.5 35,-403.5 35,-354.5 0,-354.5"/>
</a>
</g>
</g>
<!-- Node2&#45;&gt;Node1 -->
<g id="edge1_Node000001_Node000002" class="edge">
<title>Node2&#45;&gt;Node1</title>
<g id="a_edge1_Node000001_Node000002"><a xlink:title=" ">
<path fill="none" stroke="#63b8ff" d="M22.66,-344.36C27,-319.72 34.17,-285.71 44.5,-257 50.08,-241.5 56.91,-225.55 64.16,-210.09"/>
<polygon fill="none" stroke="#63b8ff" points="19.19,-343.86 20.97,-354.31 26.09,-345.03 19.19,-343.86"/>
</a>
</g>
</g>
<!-- Node3 -->
<g id="Node000003" class="node">
<title>Node3</title>
<g id="a_Node000003"><a xlink:href="classyy_1_1parser_1_1semantic__type.html" target="_top" xlink:title="A buffer to store and retrieve objects.">
<polygon fill="white" stroke="transparent" points="190,-501 53,-501 53,-257 190,-257 190,-501"/>
<text text-anchor="start" x="58.5" y="-489" font-family="Helvetica,sans-Serif" font-size="10.00">yy::parser::semantic_type</text>
<text text-anchor="start" x="64.5" y="-474" font-family="Helvetica,sans-Serif" font-size="10.00">+</text>
<text text-anchor="start" x="84.5" y="-474" font-family="Helvetica,sans-Serif" font-size="10.00">yyalign_me</text>
<text text-anchor="start" x="64.5" y="-459" font-family="Helvetica,sans-Serif" font-size="10.00">+</text>
<text text-anchor="start" x="84.5" y="-459" font-family="Helvetica,sans-Serif" font-size="10.00">yyraw</text>
<text text-anchor="start" x="64.5" y="-444" font-family="Helvetica,sans-Serif" font-size="10.00">+</text>
<text text-anchor="start" x="84.5" y="-444" font-family="Helvetica,sans-Serif" font-size="10.00">as()</text>
<text text-anchor="start" x="64.5" y="-429" font-family="Helvetica,sans-Serif" font-size="10.00">+</text>
<text text-anchor="start" x="84.5" y="-429" font-family="Helvetica,sans-Serif" font-size="10.00">as()</text>
<text text-anchor="start" x="64.5" y="-414" font-family="Helvetica,sans-Serif" font-size="10.00">+</text>
<text text-anchor="start" x="84.5" y="-414" font-family="Helvetica,sans-Serif" font-size="10.00">build()</text>
<text text-anchor="start" x="64.5" y="-399" font-family="Helvetica,sans-Serif" font-size="10.00">+</text>
<text text-anchor="start" x="84.5" y="-399" font-family="Helvetica,sans-Serif" font-size="10.00">build()</text>
<text text-anchor="start" x="64.5" y="-384" font-family="Helvetica,sans-Serif" font-size="10.00">+</text>
<text text-anchor="start" x="84.5" y="-384" font-family="Helvetica,sans-Serif" font-size="10.00">copy()</text>
<text text-anchor="start" x="64.5" y="-369" font-family="Helvetica,sans-Serif" font-size="10.00">+</text>
<text text-anchor="start" x="84.5" y="-369" font-family="Helvetica,sans-Serif" font-size="10.00">destroy()</text>
<text text-anchor="start" x="64.5" y="-354" font-family="Helvetica,sans-Serif" font-size="10.00">+</text>
<text text-anchor="start" x="84.5" y="-354" font-family="Helvetica,sans-Serif" font-size="10.00">emplace()</text>
<text text-anchor="start" x="64.5" y="-339" font-family="Helvetica,sans-Serif" font-size="10.00">+</text>
<text text-anchor="start" x="84.5" y="-339" font-family="Helvetica,sans-Serif" font-size="10.00">emplace()</text>
<text text-anchor="start" x="64.5" y="-324" font-family="Helvetica,sans-Serif" font-size="10.00">+</text>
<text text-anchor="start" x="84.5" y="-324" font-family="Helvetica,sans-Serif" font-size="10.00">move()</text>
<text text-anchor="start" x="64.5" y="-309" font-family="Helvetica,sans-Serif" font-size="10.00">+</text>
<text text-anchor="start" x="84.5" y="-309" font-family="Helvetica,sans-Serif" font-size="10.00">semantic_type()</text>
<text text-anchor="start" x="64.5" y="-294" font-family="Helvetica,sans-Serif" font-size="10.00">+</text>
<text text-anchor="start" x="84.5" y="-294" font-family="Helvetica,sans-Serif" font-size="10.00">semantic_type()</text>
<text text-anchor="start" x="64.5" y="-279" font-family="Helvetica,sans-Serif" font-size="10.00">+</text>
<text text-anchor="start" x="84.5" y="-279" font-family="Helvetica,sans-Serif" font-size="10.00">swap()</text>
<text text-anchor="start" x="64.5" y="-264" font-family="Helvetica,sans-Serif" font-size="10.00">+</text>
<text text-anchor="start" x="84.5" y="-264" font-family="Helvetica,sans-Serif" font-size="10.00">~semantic_type()</text>
<polygon fill="#666666" stroke="#666666" points="53.5,-484 53.5,-484 190.5,-484 190.5,-484 53.5,-484"/>
<polygon fill="#666666" stroke="#666666" points="53.5,-454 53.5,-454 82.5,-454 82.5,-454 53.5,-454"/>
<polygon fill="#666666" stroke="#666666" points="82.5,-454 82.5,-454 190.5,-454 190.5,-454 82.5,-454"/>
<polygon fill="none" stroke="#666666" points="53,-257 53,-501 190,-501 190,-257 53,-257"/>
</a>
</g>
</g>
<!-- Node3&#45;&gt;Node1 -->
<g id="edge2_Node000001_Node000003" class="edge">
<title>Node3&#45;&gt;Node1</title>
<g id="a_edge2_Node000001_Node000003"><a xlink:title=" ">
<path fill="none" stroke="#63b8ff" d="M121.5,-256.72C121.5,-245.27 121.5,-233.69 121.5,-222.29"/>
<polygon fill="none" stroke="#63b8ff" points="121.5,-222.02 117.5,-216.02 121.5,-210.02 125.5,-216.02 121.5,-222.02"/>
</a>
</g>
<text text-anchor="middle" x="141" y="-231" font-family="Helvetica,sans-Serif" font-size="10.00" fill="grey"> +value</text>
</g>
<!-- Node4 -->
<g id="Node000004" class="node">
<title>Node4</title>
<g id="a_Node000004"><a xlink:href="classyy_1_1location.html" target="_top" xlink:title="Two points in a source file.">
<polygon fill="white" stroke="transparent" points="279,-471 208,-471 208,-287 279,-287 279,-471"/>
<text text-anchor="start" x="215.5" y="-459" font-family="Helvetica,sans-Serif" font-size="10.00">yy::location</text>
<text text-anchor="start" x="240.5" y="-444" font-family="Helvetica,sans-Serif" font-size="10.00"> </text>
<text text-anchor="start" x="212.5" y="-429" font-family="Helvetica,sans-Serif" font-size="10.00">+</text>
<text text-anchor="start" x="225.5" y="-429" font-family="Helvetica,sans-Serif" font-size="10.00">initialize()</text>
<text text-anchor="start" x="212.5" y="-414" font-family="Helvetica,sans-Serif" font-size="10.00">+</text>
<text text-anchor="start" x="225.5" y="-414" font-family="Helvetica,sans-Serif" font-size="10.00">location()</text>
<text text-anchor="start" x="212.5" y="-399" font-family="Helvetica,sans-Serif" font-size="10.00">+</text>
<text text-anchor="start" x="225.5" y="-399" font-family="Helvetica,sans-Serif" font-size="10.00">location()</text>
<text text-anchor="start" x="212.5" y="-384" font-family="Helvetica,sans-Serif" font-size="10.00">+</text>
<text text-anchor="start" x="225.5" y="-384" font-family="Helvetica,sans-Serif" font-size="10.00">location()</text>
<text text-anchor="start" x="212.5" y="-369" font-family="Helvetica,sans-Serif" font-size="10.00">+</text>
<text text-anchor="start" x="225.5" y="-369" font-family="Helvetica,sans-Serif" font-size="10.00">step()</text>
<text text-anchor="start" x="212.5" y="-354" font-family="Helvetica,sans-Serif" font-size="10.00">+</text>
<text text-anchor="start" x="225.5" y="-354" font-family="Helvetica,sans-Serif" font-size="10.00">columns()</text>
<text text-anchor="start" x="212.5" y="-339" font-family="Helvetica,sans-Serif" font-size="10.00">+</text>
<text text-anchor="start" x="225.5" y="-339" font-family="Helvetica,sans-Serif" font-size="10.00">lines()</text>
<text text-anchor="start" x="214" y="-324" font-family="Helvetica,sans-Serif" font-size="10.00">*</text>
<text text-anchor="start" x="225.5" y="-324" font-family="Helvetica,sans-Serif" font-size="10.00">step()</text>
<text text-anchor="start" x="214" y="-309" font-family="Helvetica,sans-Serif" font-size="10.00">*</text>
<text text-anchor="start" x="225.5" y="-309" font-family="Helvetica,sans-Serif" font-size="10.00">columns()</text>
<text text-anchor="start" x="214" y="-294" font-family="Helvetica,sans-Serif" font-size="10.00">*</text>
<text text-anchor="start" x="225.5" y="-294" font-family="Helvetica,sans-Serif" font-size="10.00">lines()</text>
<polygon fill="#666666" stroke="#666666" points="208.5,-454 208.5,-454 279.5,-454 279.5,-454 208.5,-454"/>
<polygon fill="#666666" stroke="#666666" points="208.5,-439 208.5,-439 279.5,-439 279.5,-439 208.5,-439"/>
<polygon fill="none" stroke="#666666" points="208,-287 208,-471 279,-471 279,-287 208,-287"/>
</a>
</g>
</g>
<!-- Node4&#45;&gt;Node1 -->
<g id="edge3_Node000001_Node000004" class="edge">
<title>Node4&#45;&gt;Node1</title>
<g id="a_edge3_Node000001_Node000004"><a xlink:title=" ">
<path fill="none" stroke="#63b8ff" d="M211.83,-286.98C207.86,-276.79 203.71,-266.62 199.5,-257 194.38,-245.31 188.76,-233.26 182.96,-221.3"/>
<polygon fill="none" stroke="#63b8ff" points="182.88,-221.13 176.65,-217.51 177.59,-210.36 183.83,-213.98 182.88,-221.13"/>
</a>
</g>
<text text-anchor="middle" x="215" y="-231" font-family="Helvetica,sans-Serif" font-size="10.00" fill="grey"> +location</text>
</g>
<!-- Node5 -->
<g id="Node000005" class="node">
<title>Node5</title>
<g id="a_Node000005"><a xlink:href="classyy_1_1position.html" target="_top" xlink:title="A point in a source file.">
<polygon fill="white" stroke="transparent" points="279,-713 208,-713 208,-559 279,-559 279,-713"/>
<text text-anchor="start" x="215.5" y="-701" font-family="Helvetica,sans-Serif" font-size="10.00">yy::position</text>
<text text-anchor="start" x="212.5" y="-686" font-family="Helvetica,sans-Serif" font-size="10.00">+</text>
<text text-anchor="start" x="225.5" y="-686" font-family="Helvetica,sans-Serif" font-size="10.00">column</text>
<text text-anchor="start" x="212.5" y="-671" font-family="Helvetica,sans-Serif" font-size="10.00">+</text>
<text text-anchor="start" x="225.5" y="-671" font-family="Helvetica,sans-Serif" font-size="10.00">filename</text>
<text text-anchor="start" x="212.5" y="-656" font-family="Helvetica,sans-Serif" font-size="10.00">+</text>
<text text-anchor="start" x="225.5" y="-656" font-family="Helvetica,sans-Serif" font-size="10.00">line</text>
<text text-anchor="start" x="212.5" y="-641" font-family="Helvetica,sans-Serif" font-size="10.00">+</text>
<text text-anchor="start" x="225.5" y="-641" font-family="Helvetica,sans-Serif" font-size="10.00">initialize()</text>
<text text-anchor="start" x="212.5" y="-626" font-family="Helvetica,sans-Serif" font-size="10.00">+</text>
<text text-anchor="start" x="225.5" y="-626" font-family="Helvetica,sans-Serif" font-size="10.00">position()</text>
<text text-anchor="start" x="212.5" y="-611" font-family="Helvetica,sans-Serif" font-size="10.00">+</text>
<text text-anchor="start" x="225.5" y="-611" font-family="Helvetica,sans-Serif" font-size="10.00">lines()</text>
<text text-anchor="start" x="212.5" y="-596" font-family="Helvetica,sans-Serif" font-size="10.00">+</text>
<text text-anchor="start" x="225.5" y="-596" font-family="Helvetica,sans-Serif" font-size="10.00">columns()</text>
<text text-anchor="start" x="214" y="-581" font-family="Helvetica,sans-Serif" font-size="10.00">*</text>
<text text-anchor="start" x="225.5" y="-581" font-family="Helvetica,sans-Serif" font-size="10.00">lines()</text>
<text text-anchor="start" x="214" y="-566" font-family="Helvetica,sans-Serif" font-size="10.00">*</text>
<text text-anchor="start" x="225.5" y="-566" font-family="Helvetica,sans-Serif" font-size="10.00">columns()</text>
<polygon fill="#666666" stroke="#666666" points="208.5,-696 208.5,-696 279.5,-696 279.5,-696 208.5,-696"/>
<polygon fill="#666666" stroke="#666666" points="208.5,-651 208.5,-651 223.5,-651 223.5,-651 208.5,-651"/>
<polygon fill="#666666" stroke="#666666" points="223.5,-651 223.5,-651 279.5,-651 279.5,-651 223.5,-651"/>
<polygon fill="none" stroke="#666666" points="208,-559 208,-713 279,-713 279,-559 208,-559"/>
</a>
</g>
</g>
<!-- Node5&#45;&gt;Node4 -->
<g id="edge4_Node000004_Node000005" class="edge">
<title>Node5&#45;&gt;Node4</title>
<g id="a_edge4_Node000004_Node000005"><a xlink:title=" ">
<path fill="none" stroke="#63b8ff" d="M243.5,-558.84C243.5,-535.13 243.5,-508.57 243.5,-483.33"/>
<polygon fill="none" stroke="#63b8ff" points="243.5,-483.06 239.5,-477.06 243.5,-471.06 247.5,-477.06 243.5,-483.06"/>
</a>
</g>
<text text-anchor="middle" x="263" y="-533" font-family="Helvetica,sans-Serif" font-size="10.00" fill="grey"> +begin</text>
<text text-anchor="middle" x="263" y="-522" font-family="Helvetica,sans-Serif" font-size="10.00" fill="grey">+end</text>
</g>
</g>
</svg>
