<?xml version="1.0" encoding="UTF-8" standalone="no"?>
<!DOCTYPE svg PUBLIC "-//W3C//DTD SVG 1.1//EN"
 "http://www.w3.org/Graphics/SVG/1.1/DTD/svg11.dtd">
<!-- Generated by graphviz version 2.43.0 (0)
 -->
<!-- Title: alarm_pool Pages: 1 -->
<svg width="194pt" height="318pt"
 viewBox="0.00 0.00 193.50 318.00" xmlns="http://www.w3.org/2000/svg" xmlns:xlink="http://www.w3.org/1999/xlink">
<g id="graph0" class="graph" transform="scale(1 1) rotate(0) translate(4 314)">
<title>alarm_pool</title>
<!-- Node1 -->
<g id="Node000001" class="node">
<title>Node1</title>
<g id="a_Node000001"><a xlink:title=" ">
<polygon fill="#999999" stroke="transparent" points="163,-154 10,-154 10,0 163,0 163,-154"/>
<text text-anchor="start" x="59.5" y="-142" font-family="Helvetica,sans-Serif" font-size="10.00">alarm_pool</text>
<text text-anchor="start" x="14.5" y="-127" font-family="Helvetica,sans-Serif" font-size="10.00">+</text>
<text text-anchor="start" x="27.5" y="-127" font-family="Helvetica,sans-Serif" font-size="10.00">core_num</text>
<text text-anchor="start" x="14.5" y="-112" font-family="Helvetica,sans-Serif" font-size="10.00">+</text>
<text text-anchor="start" x="27.5" y="-112" font-family="Helvetica,sans-Serif" font-size="10.00">free_head</text>
<text text-anchor="start" x="14.5" y="-97" font-family="Helvetica,sans-Serif" font-size="10.00">+</text>
<text text-anchor="start" x="27.5" y="-97" font-family="Helvetica,sans-Serif" font-size="10.00">has_pending_cancellations</text>
<text text-anchor="start" x="14.5" y="-82" font-family="Helvetica,sans-Serif" font-size="10.00">+</text>
<text text-anchor="start" x="27.5" y="-82" font-family="Helvetica,sans-Serif" font-size="10.00">new_head</text>
<text text-anchor="start" x="14.5" y="-67" font-family="Helvetica,sans-Serif" font-size="10.00">+</text>
<text text-anchor="start" x="27.5" y="-67" font-family="Helvetica,sans-Serif" font-size="10.00">num_entries</text>
<text text-anchor="start" x="14.5" y="-52" font-family="Helvetica,sans-Serif" font-size="10.00">+</text>
<text text-anchor="start" x="27.5" y="-52" font-family="Helvetica,sans-Serif" font-size="10.00">ordered_head</text>
<text text-anchor="start" x="14.5" y="-37" font-family="Helvetica,sans-Serif" font-size="10.00">+</text>
<text text-anchor="start" x="27.5" y="-37" font-family="Helvetica,sans-Serif" font-size="10.00">timer</text>
<text text-anchor="start" x="14.5" y="-22" font-family="Helvetica,sans-Serif" font-size="10.00">+</text>
<text text-anchor="start" x="27.5" y="-22" font-family="Helvetica,sans-Serif" font-size="10.00">timer_alarm_num</text>
<text text-anchor="start" x="83.5" y="-7" font-family="Helvetica,sans-Serif" font-size="10.00"> </text>
<polygon fill="#666666" stroke="#666666" points="10.5,-137 10.5,-137 163.5,-137 163.5,-137 10.5,-137"/>
<polygon fill="#666666" stroke="#666666" points="10.5,-17 10.5,-17 25.5,-17 25.5,-17 10.5,-17"/>
<polygon fill="#666666" stroke="#666666" points="25.5,-17 25.5,-17 163.5,-17 163.5,-17 25.5,-17"/>
<polygon fill="none" stroke="#666666" points="10,0 10,-154 163,-154 163,0 10,0"/>
</a>
</g>
</g>
<!-- Node2 -->
<g id="Node000002" class="node">
<title>Node2</title>
<g id="a_Node000002"><a xlink:title=" ">
<polygon fill="white" stroke="transparent" points="71,-280 0,-280 0,-231 71,-231 71,-280"/>
<text text-anchor="start" x="5.5" y="-267.5" font-family="Helvetica,sans-Serif" font-size="10.00">_spin_lock_t</text>
<text text-anchor="start" x="9" y="-252.5" font-family="Helvetica,sans-Serif" font-size="10.00">+</text>
<text text-anchor="start" x="26.5" y="-252.5" font-family="Helvetica,sans-Serif" font-size="10.00">locked</text>
<text text-anchor="start" x="32.5" y="-237.5" font-family="Helvetica,sans-Serif" font-size="10.00"> </text>
<polygon fill="#666666" stroke="#666666" points="0.5,-262.5 0.5,-262.5 71.5,-262.5 71.5,-262.5 0.5,-262.5"/>
<polygon fill="#666666" stroke="#666666" points="0.5,-247.5 0.5,-247.5 24.5,-247.5 24.5,-247.5 0.5,-247.5"/>
<polygon fill="#666666" stroke="#666666" points="24.5,-247.5 24.5,-247.5 71.5,-247.5 71.5,-247.5 24.5,-247.5"/>
<polygon fill="none" stroke="#666666" points="0,-231 0,-280 71,-280 71,-231 0,-231"/>
</a>
</g>
</g>
<!-- Node2&#45;&gt;Node1 -->
<g id="edge1_Node000001_Node000002" class="edge">
<title>Node2&#45;&gt;Node1</title>
<g id="a_edge1_Node000001_Node000002"><a xlink:title=" ">
<path fill="none" stroke="#63b8ff" d="M42.38,-230.7C47.28,-213.72 54.21,-189.73 61.13,-165.8"/>
<polygon fill="none" stroke="#63b8ff" points="61.19,-165.61 59.01,-158.73 64.52,-154.08 66.69,-160.96 61.19,-165.61"/>
</a>
</g>
<text text-anchor="middle" x="74.5" y="-175" font-family="Helvetica,sans-Serif" font-size="10.00" fill="grey"> +lock</text>
</g>
<!-- Node3 -->
<g id="Node000003" class="node">
<title>Node3</title>
<g id="a_Node000003"><a xlink:href="structalarm__pool__entry.html" target="_top" xlink:title=" ">
<polygon fill="white" stroke="transparent" points="185.5,-310 89.5,-310 89.5,-201 185.5,-201 185.5,-310"/>
<text text-anchor="start" x="94.5" y="-297.5" font-family="Helvetica,sans-Serif" font-size="10.00">alarm_pool_entry</text>
<text text-anchor="start" x="100" y="-282.5" font-family="Helvetica,sans-Serif" font-size="10.00">+</text>
<text text-anchor="start" x="119.5" y="-282.5" font-family="Helvetica,sans-Serif" font-size="10.00">callback</text>
<text text-anchor="start" x="100" y="-267.5" font-family="Helvetica,sans-Serif" font-size="10.00">+</text>
<text text-anchor="start" x="119.5" y="-267.5" font-family="Helvetica,sans-Serif" font-size="10.00">next</text>
<text text-anchor="start" x="100" y="-252.5" font-family="Helvetica,sans-Serif" font-size="10.00">+</text>
<text text-anchor="start" x="119.5" y="-252.5" font-family="Helvetica,sans-Serif" font-size="10.00">sequence</text>
<text text-anchor="start" x="100" y="-237.5" font-family="Helvetica,sans-Serif" font-size="10.00">+</text>
<text text-anchor="start" x="119.5" y="-237.5" font-family="Helvetica,sans-Serif" font-size="10.00">target</text>
<text text-anchor="start" x="100" y="-222.5" font-family="Helvetica,sans-Serif" font-size="10.00">+</text>
<text text-anchor="start" x="119.5" y="-222.5" font-family="Helvetica,sans-Serif" font-size="10.00">user_data</text>
<text text-anchor="start" x="134" y="-207.5" font-family="Helvetica,sans-Serif" font-size="10.00"> </text>
<polygon fill="#666666" stroke="#666666" points="89.5,-292.5 89.5,-292.5 185.5,-292.5 185.5,-292.5 89.5,-292.5"/>
<polygon fill="#666666" stroke="#666666" points="89.5,-217.5 89.5,-217.5 117.5,-217.5 117.5,-217.5 89.5,-217.5"/>
<polygon fill="#666666" stroke="#666666" points="117.5,-217.5 117.5,-217.5 185.5,-217.5 185.5,-217.5 117.5,-217.5"/>
<polygon fill="none" stroke="#666666" points="89.5,-201 89.5,-310 185.5,-310 185.5,-201 89.5,-201"/>
</a>
</g>
</g>
<!-- Node3&#45;&gt;Node1 -->
<g id="edge2_Node000001_Node000003" class="edge">
<title>Node3&#45;&gt;Node1</title>
<g id="a_edge2_Node000001_Node000003"><a xlink:title=" ">
<path fill="none" stroke="#63b8ff" d="M121.92,-200.59C118.74,-189.56 115.31,-177.69 111.88,-165.83"/>
<polygon fill="none" stroke="#63b8ff" points="111.79,-165.53 106.28,-160.87 108.46,-154 113.97,-158.65 111.79,-165.53"/>
</a>
</g>
<text text-anchor="middle" x="139.5" y="-175" font-family="Helvetica,sans-Serif" font-size="10.00" fill="grey"> +entries</text>
</g>
</g>
</svg>
