<?xml version="1.0" encoding="UTF-8" standalone="no"?>
<!DOCTYPE svg PUBLIC "-//W3C//DTD SVG 1.1//EN"
 "http://www.w3.org/Graphics/SVG/1.1/DTD/svg11.dtd">
<!-- Generated by graphviz version 2.43.0 (0)
 -->
<!-- Title: resolvable Pages: 1 -->
<svg width="536pt" height="347pt"
 viewBox="0.00 0.00 535.50 347.00" xmlns="http://www.w3.org/2000/svg" xmlns:xlink="http://www.w3.org/1999/xlink">
<g id="graph0" class="graph" transform="scale(1 1) rotate(0) translate(4 343)">
<title>resolvable</title>
<!-- Node1 -->
<g id="Node000001" class="node">
<title>Node1</title>
<g id="a_Node000001"><a xlink:title=" ">
<polygon fill="#999999" stroke="transparent" points="313,-239 225,-239 225,-130 313,-130 313,-239"/>
<text text-anchor="start" x="243" y="-226.5" font-family="Helvetica,sans-Serif" font-size="10.00">resolvable</text>
<text text-anchor="start" x="265.5" y="-211.5" font-family="Helvetica,sans-Serif" font-size="10.00"> </text>
<text text-anchor="start" x="229" y="-196.5" font-family="Helvetica,sans-Serif" font-size="10.00">+</text>
<text text-anchor="start" x="242" y="-196.5" font-family="Helvetica,sans-Serif" font-size="10.00">resolvable()</text>
<text text-anchor="start" x="229" y="-181.5" font-family="Helvetica,sans-Serif" font-size="10.00">+</text>
<text text-anchor="start" x="242" y="-181.5" font-family="Helvetica,sans-Serif" font-size="10.00">resolve()</text>
<text text-anchor="start" x="229" y="-166.5" font-family="Helvetica,sans-Serif" font-size="10.00">+</text>
<text text-anchor="start" x="242" y="-166.5" font-family="Helvetica,sans-Serif" font-size="10.00">resolve()</text>
<text text-anchor="start" x="229" y="-151.5" font-family="Helvetica,sans-Serif" font-size="10.00">+</text>
<text text-anchor="start" x="242" y="-151.5" font-family="Helvetica,sans-Serif" font-size="10.00">resolve()</text>
<text text-anchor="start" x="229" y="-136.5" font-family="Helvetica,sans-Serif" font-size="10.00">+</text>
<text text-anchor="start" x="242" y="-136.5" font-family="Helvetica,sans-Serif" font-size="10.00">~resolvable()</text>
<polygon fill="#666666" stroke="#666666" points="225,-221.5 225,-221.5 313,-221.5 313,-221.5 225,-221.5"/>
<polygon fill="#666666" stroke="#666666" points="225,-206.5 225,-206.5 313,-206.5 313,-206.5 225,-206.5"/>
<polygon fill="none" stroke="#666666" points="225,-130 225,-239 313,-239 313,-130 225,-130"/>
</a>
</g>
</g>
<!-- Node3 -->
<g id="Node000003" class="node">
<title>Node3</title>
<g id="a_Node000003"><a xlink:href="structbinary__operation.html" target="_top" xlink:title=" ">
<polygon fill="white" stroke="transparent" points="112,-94 0,-94 0,0 112,0 112,-94"/>
<text text-anchor="start" x="14.5" y="-82" font-family="Helvetica,sans-Serif" font-size="10.00">binary_operation</text>
<text text-anchor="start" x="4" y="-67" font-family="Helvetica,sans-Serif" font-size="10.00">+</text>
<text text-anchor="start" x="17" y="-67" font-family="Helvetica,sans-Serif" font-size="10.00">left</text>
<text text-anchor="start" x="4" y="-52" font-family="Helvetica,sans-Serif" font-size="10.00">+</text>
<text text-anchor="start" x="17" y="-52" font-family="Helvetica,sans-Serif" font-size="10.00">op</text>
<text text-anchor="start" x="4" y="-37" font-family="Helvetica,sans-Serif" font-size="10.00">+</text>
<text text-anchor="start" x="17" y="-37" font-family="Helvetica,sans-Serif" font-size="10.00">right</text>
<text text-anchor="start" x="4" y="-22" font-family="Helvetica,sans-Serif" font-size="10.00">+</text>
<text text-anchor="start" x="17" y="-22" font-family="Helvetica,sans-Serif" font-size="10.00">binary_operation()</text>
<text text-anchor="start" x="4" y="-7" font-family="Helvetica,sans-Serif" font-size="10.00">+</text>
<text text-anchor="start" x="17" y="-7" font-family="Helvetica,sans-Serif" font-size="10.00">resolve()</text>
<polygon fill="#666666" stroke="#666666" points="0,-77 0,-77 112,-77 112,-77 0,-77"/>
<polygon fill="#666666" stroke="#666666" points="0,-32 0,-32 15,-32 15,-32 0,-32"/>
<polygon fill="#666666" stroke="#666666" points="15,-32 15,-32 112,-32 112,-32 15,-32"/>
<polygon fill="none" stroke="#666666" points="0,0 0,-94 112,-94 112,0 0,0"/>
</a>
</g>
</g>
<!-- Node1&#45;&gt;Node3 -->
<g id="edge2_Node000001_Node000003" class="edge">
<title>Node1&#45;&gt;Node3</title>
<g id="a_edge2_Node000001_Node000003"><a xlink:title=" ">
<path fill="none" stroke="#63b8ff" d="M215.8,-152.59C187.37,-135.75 151.94,-114.26 121,-94 118.11,-92.11 115.16,-90.14 112.2,-88.14"/>
<polygon fill="none" stroke="#63b8ff" points="214.38,-155.81 224.77,-157.88 217.94,-149.78 214.38,-155.81"/>
</a>
</g>
</g>
<!-- Node4 -->
<g id="Node000004" class="node">
<title>Node4</title>
<g id="a_Node000004"><a xlink:href="structcode__block.html" target="_top" xlink:title=" ">
<polygon fill="white" stroke="transparent" points="214,-86.5 130,-86.5 130,-7.5 214,-7.5 214,-86.5"/>
<text text-anchor="start" x="144.5" y="-74" font-family="Helvetica,sans-Serif" font-size="10.00">code_block</text>
<text text-anchor="start" x="134" y="-59" font-family="Helvetica,sans-Serif" font-size="10.00">+</text>
<text text-anchor="start" x="147" y="-59" font-family="Helvetica,sans-Serif" font-size="10.00">contents</text>
<text text-anchor="start" x="134" y="-44" font-family="Helvetica,sans-Serif" font-size="10.00">+</text>
<text text-anchor="start" x="147" y="-44" font-family="Helvetica,sans-Serif" font-size="10.00">lang</text>
<text text-anchor="start" x="134" y="-29" font-family="Helvetica,sans-Serif" font-size="10.00">+</text>
<text text-anchor="start" x="147" y="-29" font-family="Helvetica,sans-Serif" font-size="10.00">code_block()</text>
<text text-anchor="start" x="134" y="-14" font-family="Helvetica,sans-Serif" font-size="10.00">+</text>
<text text-anchor="start" x="147" y="-14" font-family="Helvetica,sans-Serif" font-size="10.00">resolve()</text>
<polygon fill="#666666" stroke="#666666" points="130,-69 130,-69 214,-69 214,-69 130,-69"/>
<polygon fill="#666666" stroke="#666666" points="130,-39 130,-39 145,-39 145,-39 130,-39"/>
<polygon fill="#666666" stroke="#666666" points="145,-39 145,-39 214,-39 214,-39 145,-39"/>
<polygon fill="none" stroke="#666666" points="130,-7.5 130,-86.5 214,-86.5 214,-7.5 130,-7.5"/>
</a>
</g>
</g>
<!-- Node1&#45;&gt;Node4 -->
<g id="edge3_Node000001_Node000004" class="edge">
<title>Node1&#45;&gt;Node4</title>
<g id="a_edge3_Node000001_Node000004"><a xlink:title=" ">
<path fill="none" stroke="#63b8ff" d="M224.77,-121.71C216.2,-109.74 207.44,-97.51 199.59,-86.55"/>
<polygon fill="none" stroke="#63b8ff" points="222,-123.85 230.66,-129.95 227.69,-119.78 222,-123.85"/>
</a>
</g>
</g>
<!-- Node5 -->
<g id="Node000005" class="node">
<title>Node5</title>
<g id="a_Node000005"><a xlink:href="structint__value.html" target="_top" xlink:title=" ">
<polygon fill="white" stroke="transparent" points="306,-79 232,-79 232,-15 306,-15 306,-79"/>
<text text-anchor="start" x="246" y="-67" font-family="Helvetica,sans-Serif" font-size="10.00">int_value</text>
<text text-anchor="start" x="236" y="-52" font-family="Helvetica,sans-Serif" font-size="10.00">+</text>
<text text-anchor="start" x="249" y="-52" font-family="Helvetica,sans-Serif" font-size="10.00">value</text>
<text text-anchor="start" x="236" y="-37" font-family="Helvetica,sans-Serif" font-size="10.00">+</text>
<text text-anchor="start" x="249" y="-37" font-family="Helvetica,sans-Serif" font-size="10.00">int_value()</text>
<text text-anchor="start" x="236" y="-22" font-family="Helvetica,sans-Serif" font-size="10.00">+</text>
<text text-anchor="start" x="249" y="-22" font-family="Helvetica,sans-Serif" font-size="10.00">resolve()</text>
<polygon fill="#666666" stroke="#666666" points="232,-62 232,-62 306,-62 306,-62 232,-62"/>
<polygon fill="#666666" stroke="#666666" points="232,-47 232,-47 247,-47 247,-47 232,-47"/>
<polygon fill="#666666" stroke="#666666" points="247,-47 247,-47 306,-47 306,-47 247,-47"/>
<polygon fill="none" stroke="#666666" points="232,-15 232,-79 306,-79 306,-15 232,-15"/>
</a>
</g>
</g>
<!-- Node1&#45;&gt;Node5 -->
<g id="edge4_Node000001_Node000005" class="edge">
<title>Node1&#45;&gt;Node5</title>
<g id="a_edge4_Node000001_Node000005"><a xlink:title=" ">
<path fill="none" stroke="#63b8ff" d="M269,-119.78C269,-105.71 269,-91.41 269,-79.32"/>
<polygon fill="none" stroke="#63b8ff" points="265.5,-119.95 269,-129.95 272.5,-119.95 265.5,-119.95"/>
</a>
</g>
</g>
<!-- Node6 -->
<g id="Node000006" class="node">
<title>Node6</title>
<g id="a_Node000006"><a xlink:href="structname__ref.html" target="_top" xlink:title=" ">
<polygon fill="white" stroke="transparent" points="400,-79 324,-79 324,-15 400,-15 400,-79"/>
<text text-anchor="start" x="338.5" y="-67" font-family="Helvetica,sans-Serif" font-size="10.00">name_ref</text>
<text text-anchor="start" x="328" y="-52" font-family="Helvetica,sans-Serif" font-size="10.00">+</text>
<text text-anchor="start" x="341" y="-52" font-family="Helvetica,sans-Serif" font-size="10.00">name</text>
<text text-anchor="start" x="328" y="-37" font-family="Helvetica,sans-Serif" font-size="10.00">+</text>
<text text-anchor="start" x="341" y="-37" font-family="Helvetica,sans-Serif" font-size="10.00">name_ref()</text>
<text text-anchor="start" x="328" y="-22" font-family="Helvetica,sans-Serif" font-size="10.00">+</text>
<text text-anchor="start" x="341" y="-22" font-family="Helvetica,sans-Serif" font-size="10.00">resolve()</text>
<polygon fill="#666666" stroke="#666666" points="324,-62 324,-62 400,-62 400,-62 324,-62"/>
<polygon fill="#666666" stroke="#666666" points="324,-47 324,-47 339,-47 339,-47 324,-47"/>
<polygon fill="#666666" stroke="#666666" points="339,-47 339,-47 400,-47 400,-47 339,-47"/>
<polygon fill="none" stroke="#666666" points="324,-15 324,-79 400,-79 400,-15 324,-15"/>
</a>
</g>
</g>
<!-- Node1&#45;&gt;Node6 -->
<g id="edge5_Node000001_Node000006" class="edge">
<title>Node1&#45;&gt;Node6</title>
<g id="a_edge5_Node000001_Node000006"><a xlink:title=" ">
<path fill="none" stroke="#63b8ff" d="M311.61,-121.42C321.62,-106.83 331.88,-91.88 340.5,-79.32"/>
<polygon fill="none" stroke="#63b8ff" points="308.53,-119.72 305.76,-129.95 314.3,-123.68 308.53,-119.72"/>
</a>
</g>
</g>
<!-- Node7 -->
<g id="Node000007" class="node">
<title>Node7</title>
<g id="a_Node000007"><a xlink:href="structunary__operation.html" target="_top" xlink:title=" ">
<polygon fill="white" stroke="transparent" points="527.5,-86.5 418.5,-86.5 418.5,-7.5 527.5,-7.5 527.5,-86.5"/>
<text text-anchor="start" x="433.5" y="-74" font-family="Helvetica,sans-Serif" font-size="10.00">unary_operation</text>
<text text-anchor="start" x="423" y="-59" font-family="Helvetica,sans-Serif" font-size="10.00">+</text>
<text text-anchor="start" x="436" y="-59" font-family="Helvetica,sans-Serif" font-size="10.00">arg</text>
<text text-anchor="start" x="423" y="-44" font-family="Helvetica,sans-Serif" font-size="10.00">+</text>
<text text-anchor="start" x="436" y="-44" font-family="Helvetica,sans-Serif" font-size="10.00">op</text>
<text text-anchor="start" x="423" y="-29" font-family="Helvetica,sans-Serif" font-size="10.00">+</text>
<text text-anchor="start" x="436" y="-29" font-family="Helvetica,sans-Serif" font-size="10.00">resolve()</text>
<text text-anchor="start" x="423" y="-14" font-family="Helvetica,sans-Serif" font-size="10.00">+</text>
<text text-anchor="start" x="436" y="-14" font-family="Helvetica,sans-Serif" font-size="10.00">unary_operation()</text>
<polygon fill="#666666" stroke="#666666" points="419,-69 419,-69 528,-69 528,-69 419,-69"/>
<polygon fill="#666666" stroke="#666666" points="419,-39 419,-39 434,-39 434,-39 419,-39"/>
<polygon fill="#666666" stroke="#666666" points="434,-39 434,-39 528,-39 528,-39 434,-39"/>
<polygon fill="none" stroke="#666666" points="418.5,-7.5 418.5,-86.5 527.5,-86.5 527.5,-7.5 418.5,-7.5"/>
</a>
</g>
</g>
<!-- Node1&#45;&gt;Node7 -->
<g id="edge6_Node000001_Node000007" class="edge">
<title>Node1&#45;&gt;Node7</title>
<g id="a_edge6_Node000001_Node000007"><a xlink:title=" ">
<path fill="none" stroke="#63b8ff" d="M321.93,-150.61C348.32,-133.98 380.58,-113.28 409,-94 412.51,-91.62 416.11,-89.14 419.72,-86.62"/>
<polygon fill="none" stroke="#63b8ff" points="319.83,-147.8 313.22,-156.09 323.55,-153.73 319.83,-147.8"/>
</a>
</g>
</g>
<!-- Node2 -->
<g id="Node000002" class="node">
<title>Node2</title>
<g id="a_Node000002"><a xlink:href="structsrc__item.html" target="_top" xlink:title=" ">
<polygon fill="white" stroke="transparent" points="304.5,-339 233.5,-339 233.5,-275 304.5,-275 304.5,-339"/>
<text text-anchor="start" x="248" y="-327" font-family="Helvetica,sans-Serif" font-size="10.00">src_item</text>
<text text-anchor="start" x="238" y="-312" font-family="Helvetica,sans-Serif" font-size="10.00">+</text>
<text text-anchor="start" x="251" y="-312" font-family="Helvetica,sans-Serif" font-size="10.00">location</text>
<text text-anchor="start" x="238" y="-297" font-family="Helvetica,sans-Serif" font-size="10.00">+</text>
<text text-anchor="start" x="251" y="-297" font-family="Helvetica,sans-Serif" font-size="10.00">src_item()</text>
<text text-anchor="start" x="238" y="-282" font-family="Helvetica,sans-Serif" font-size="10.00">+</text>
<text text-anchor="start" x="251" y="-282" font-family="Helvetica,sans-Serif" font-size="10.00">src_item()</text>
<polygon fill="#666666" stroke="#666666" points="234,-322 234,-322 305,-322 305,-322 234,-322"/>
<polygon fill="#666666" stroke="#666666" points="234,-307 234,-307 249,-307 249,-307 234,-307"/>
<polygon fill="#666666" stroke="#666666" points="249,-307 249,-307 305,-307 305,-307 249,-307"/>
<polygon fill="none" stroke="#666666" points="233.5,-275 233.5,-339 304.5,-339 304.5,-275 233.5,-275"/>
</a>
</g>
</g>
<!-- Node2&#45;&gt;Node1 -->
<g id="edge1_Node000001_Node000002" class="edge">
<title>Node2&#45;&gt;Node1</title>
<g id="a_edge1_Node000001_Node000002"><a xlink:title=" ">
<path fill="none" stroke="#63b8ff" d="M269,-264.89C269,-256.67 269,-247.91 269,-239.33"/>
<polygon fill="none" stroke="#63b8ff" points="265.5,-264.97 269,-274.97 272.5,-264.97 265.5,-264.97"/>
</a>
</g>
</g>
</g>
</svg>
