<?xml version="1.0" encoding="UTF-8" standalone="no"?>
<!DOCTYPE svg PUBLIC "-//W3C//DTD SVG 1.1//EN"
 "http://www.w3.org/Graphics/SVG/1.1/DTD/svg11.dtd">
<!-- Generated by graphviz version 2.43.0 (0)
 -->
<!-- Title: picoboot_range_cmd Pages: 1 -->
<svg width="120pt" height="72pt"
 viewBox="0.00 0.00 120.00 72.00" xmlns="http://www.w3.org/2000/svg" xmlns:xlink="http://www.w3.org/1999/xlink">
<g id="graph0" class="graph" transform="scale(1 1) rotate(0) translate(4 68)">
<title>picoboot_range_cmd</title>
<!-- Node1 -->
<g id="Node000001" class="node">
<title>Node1</title>
<g id="a_Node000001"><a xlink:title=" ">
<polygon fill="#999999" stroke="transparent" points="112,-64 0,-64 0,0 112,0 112,-64"/>
<text text-anchor="start" x="5" y="-52" font-family="Helvetica,sans-Serif" font-size="10.00">picoboot_range_cmd</text>
<text text-anchor="start" x="19.5" y="-37" font-family="Helvetica,sans-Serif" font-size="10.00">+</text>
<text text-anchor="start" x="48" y="-37" font-family="Helvetica,sans-Serif" font-size="10.00">dAddr</text>
<text text-anchor="start" x="19.5" y="-22" font-family="Helvetica,sans-Serif" font-size="10.00">+</text>
<text text-anchor="start" x="48" y="-22" font-family="Helvetica,sans-Serif" font-size="10.00">dSize</text>
<text text-anchor="start" x="52.5" y="-7" font-family="Helvetica,sans-Serif" font-size="10.00"> </text>
<polygon fill="#666666" stroke="#666666" points="0,-47 0,-47 112,-47 112,-47 0,-47"/>
<polygon fill="#666666" stroke="#666666" points="0,-17 0,-17 46,-17 46,-17 0,-17"/>
<polygon fill="#666666" stroke="#666666" points="46,-17 46,-17 112,-17 112,-17 46,-17"/>
<polygon fill="none" stroke="#666666" points="0,0 0,-64 112,-64 112,0 0,0"/>
</a>
</g>
</g>
</g>
</svg>
