<?xml version="1.0" encoding="UTF-8" standalone="no"?>
<!DOCTYPE svg PUBLIC "-//W3C//DTD SVG 1.1//EN"
 "http://www.w3.org/Graphics/SVG/1.1/DTD/svg11.dtd">
<!-- Generated by graphviz version 2.43.0 (0)
 -->
<!-- Title: instr_irq Pages: 1 -->
<svg width="98pt" height="347pt"
 viewBox="0.00 0.00 98.00 347.00" xmlns="http://www.w3.org/2000/svg" xmlns:xlink="http://www.w3.org/1999/xlink">
<g id="graph0" class="graph" transform="scale(1 1) rotate(0) translate(4 343)">
<title>instr_irq</title>
<!-- Node1 -->
<g id="Node000001" class="node">
<title>Node1</title>
<g id="a_Node000001"><a xlink:title=" ">
<polygon fill="#999999" stroke="transparent" points="89,-94 1,-94 1,0 89,0 89,-94"/>
<text text-anchor="start" x="25" y="-82" font-family="Helvetica,sans-Serif" font-size="10.00">instr_irq</text>
<text text-anchor="start" x="5" y="-67" font-family="Helvetica,sans-Serif" font-size="10.00">+</text>
<text text-anchor="start" x="18" y="-67" font-family="Helvetica,sans-Serif" font-size="10.00">irq_type</text>
<text text-anchor="start" x="5" y="-52" font-family="Helvetica,sans-Serif" font-size="10.00">+</text>
<text text-anchor="start" x="18" y="-52" font-family="Helvetica,sans-Serif" font-size="10.00">modifiers</text>
<text text-anchor="start" x="5" y="-37" font-family="Helvetica,sans-Serif" font-size="10.00">+</text>
<text text-anchor="start" x="18" y="-37" font-family="Helvetica,sans-Serif" font-size="10.00">num</text>
<text text-anchor="start" x="5" y="-22" font-family="Helvetica,sans-Serif" font-size="10.00">+</text>
<text text-anchor="start" x="18" y="-22" font-family="Helvetica,sans-Serif" font-size="10.00">instr_irq()</text>
<text text-anchor="start" x="5" y="-7" font-family="Helvetica,sans-Serif" font-size="10.00">+</text>
<text text-anchor="start" x="18" y="-7" font-family="Helvetica,sans-Serif" font-size="10.00">raw_encode()</text>
<polygon fill="#666666" stroke="#666666" points="1,-77 1,-77 89,-77 89,-77 1,-77"/>
<polygon fill="#666666" stroke="#666666" points="1,-32 1,-32 16,-32 16,-32 1,-32"/>
<polygon fill="#666666" stroke="#666666" points="16,-32 16,-32 89,-32 89,-32 16,-32"/>
<polygon fill="none" stroke="#666666" points="1,0 1,-94 89,-94 89,0 1,0"/>
</a>
</g>
</g>
<!-- Node2 -->
<g id="Node000002" class="node">
<title>Node2</title>
<g id="a_Node000002"><a xlink:href="structinstruction.html" target="_top" xlink:title=" ">
<polygon fill="white" stroke="transparent" points="90,-239 0,-239 0,-130 90,-130 90,-239"/>
<text text-anchor="start" x="19" y="-226.5" font-family="Helvetica,sans-Serif" font-size="10.00">instruction</text>
<text text-anchor="start" x="4" y="-211.5" font-family="Helvetica,sans-Serif" font-size="10.00">+</text>
<text text-anchor="start" x="17" y="-211.5" font-family="Helvetica,sans-Serif" font-size="10.00">delay</text>
<text text-anchor="start" x="4" y="-196.5" font-family="Helvetica,sans-Serif" font-size="10.00">+</text>
<text text-anchor="start" x="17" y="-196.5" font-family="Helvetica,sans-Serif" font-size="10.00">sideset</text>
<text text-anchor="start" x="4" y="-181.5" font-family="Helvetica,sans-Serif" font-size="10.00">+</text>
<text text-anchor="start" x="17" y="-181.5" font-family="Helvetica,sans-Serif" font-size="10.00">encode()</text>
<text text-anchor="start" x="4" y="-166.5" font-family="Helvetica,sans-Serif" font-size="10.00">+</text>
<text text-anchor="start" x="17" y="-166.5" font-family="Helvetica,sans-Serif" font-size="10.00">instruction()</text>
<text text-anchor="start" x="4" y="-151.5" font-family="Helvetica,sans-Serif" font-size="10.00">+</text>
<text text-anchor="start" x="17" y="-151.5" font-family="Helvetica,sans-Serif" font-size="10.00">pre_validate()</text>
<text text-anchor="start" x="4" y="-136.5" font-family="Helvetica,sans-Serif" font-size="10.00">+</text>
<text text-anchor="start" x="17" y="-136.5" font-family="Helvetica,sans-Serif" font-size="10.00">raw_encode()</text>
<polygon fill="#666666" stroke="#666666" points="0,-221.5 0,-221.5 90,-221.5 90,-221.5 0,-221.5"/>
<polygon fill="#666666" stroke="#666666" points="0,-191.5 0,-191.5 15,-191.5 15,-191.5 0,-191.5"/>
<polygon fill="#666666" stroke="#666666" points="15,-191.5 15,-191.5 90,-191.5 90,-191.5 15,-191.5"/>
<polygon fill="none" stroke="#666666" points="0,-130 0,-239 90,-239 90,-130 0,-130"/>
</a>
</g>
</g>
<!-- Node2&#45;&gt;Node1 -->
<g id="edge1_Node000001_Node000002" class="edge">
<title>Node2&#45;&gt;Node1</title>
<g id="a_edge1_Node000001_Node000002"><a xlink:title=" ">
<path fill="none" stroke="#63b8ff" d="M45,-119.85C45,-111.19 45,-102.43 45,-94.16"/>
<polygon fill="none" stroke="#63b8ff" points="41.5,-119.95 45,-129.95 48.5,-119.95 41.5,-119.95"/>
</a>
</g>
</g>
<!-- Node3 -->
<g id="Node000003" class="node">
<title>Node3</title>
<g id="a_Node000003"><a xlink:href="structsrc__item.html" target="_top" xlink:title=" ">
<polygon fill="white" stroke="transparent" points="80.5,-339 9.5,-339 9.5,-275 80.5,-275 80.5,-339"/>
<text text-anchor="start" x="24" y="-327" font-family="Helvetica,sans-Serif" font-size="10.00">src_item</text>
<text text-anchor="start" x="14" y="-312" font-family="Helvetica,sans-Serif" font-size="10.00">+</text>
<text text-anchor="start" x="27" y="-312" font-family="Helvetica,sans-Serif" font-size="10.00">location</text>
<text text-anchor="start" x="14" y="-297" font-family="Helvetica,sans-Serif" font-size="10.00">+</text>
<text text-anchor="start" x="27" y="-297" font-family="Helvetica,sans-Serif" font-size="10.00">src_item()</text>
<text text-anchor="start" x="14" y="-282" font-family="Helvetica,sans-Serif" font-size="10.00">+</text>
<text text-anchor="start" x="27" y="-282" font-family="Helvetica,sans-Serif" font-size="10.00">src_item()</text>
<polygon fill="#666666" stroke="#666666" points="10,-322 10,-322 81,-322 81,-322 10,-322"/>
<polygon fill="#666666" stroke="#666666" points="10,-307 10,-307 25,-307 25,-307 10,-307"/>
<polygon fill="#666666" stroke="#666666" points="25,-307 25,-307 81,-307 81,-307 25,-307"/>
<polygon fill="none" stroke="#666666" points="9.5,-275 9.5,-339 80.5,-339 80.5,-275 9.5,-275"/>
</a>
</g>
</g>
<!-- Node3&#45;&gt;Node2 -->
<g id="edge2_Node000002_Node000003" class="edge">
<title>Node3&#45;&gt;Node2</title>
<g id="a_edge2_Node000002_Node000003"><a xlink:title=" ">
<path fill="none" stroke="#63b8ff" d="M45,-264.89C45,-256.67 45,-247.91 45,-239.33"/>
<polygon fill="none" stroke="#63b8ff" points="41.5,-264.97 45,-274.97 48.5,-264.97 41.5,-264.97"/>
</a>
</g>
</g>
</g>
</svg>
