<?xml version="1.0" encoding="UTF-8" standalone="no"?>
<!DOCTYPE svg PUBLIC "-//W3C//DTD SVG 1.1//EN"
 "http://www.w3.org/Graphics/SVG/1.1/DTD/svg11.dtd">
<!-- Generated by graphviz version 2.43.0 (0)
 -->
<!-- Title: src_item Pages: 1 -->
<svg width="1630pt" height="732pt"
 viewBox="0.00 0.00 1629.50 732.00" xmlns="http://www.w3.org/2000/svg" xmlns:xlink="http://www.w3.org/1999/xlink">
<g id="graph0" class="graph" transform="scale(1 1) rotate(0) translate(4 728)">
<title>src_item</title>
<!-- Node1 -->
<g id="Node000001" class="node">
<title>Node1</title>
<g id="a_Node000001"><a xlink:title=" ">
<polygon fill="#999999" stroke="transparent" points="1287.5,-724 1216.5,-724 1216.5,-660 1287.5,-660 1287.5,-724"/>
<text text-anchor="start" x="1231" y="-712" font-family="Helvetica,sans-Serif" font-size="10.00">src_item</text>
<text text-anchor="start" x="1221" y="-697" font-family="Helvetica,sans-Serif" font-size="10.00">+</text>
<text text-anchor="start" x="1234" y="-697" font-family="Helvetica,sans-Serif" font-size="10.00">location</text>
<text text-anchor="start" x="1221" y="-682" font-family="Helvetica,sans-Serif" font-size="10.00">+</text>
<text text-anchor="start" x="1234" y="-682" font-family="Helvetica,sans-Serif" font-size="10.00">src_item()</text>
<text text-anchor="start" x="1221" y="-667" font-family="Helvetica,sans-Serif" font-size="10.00">+</text>
<text text-anchor="start" x="1234" y="-667" font-family="Helvetica,sans-Serif" font-size="10.00">src_item()</text>
<polygon fill="#666666" stroke="#666666" points="1217,-707 1217,-707 1288,-707 1288,-707 1217,-707"/>
<polygon fill="#666666" stroke="#666666" points="1217,-692 1217,-692 1232,-692 1232,-692 1217,-692"/>
<polygon fill="#666666" stroke="#666666" points="1232,-692 1232,-692 1288,-692 1288,-692 1232,-692"/>
<polygon fill="none" stroke="#666666" points="1216.5,-660 1216.5,-724 1287.5,-724 1287.5,-660 1216.5,-660"/>
</a>
</g>
</g>
<!-- Node2 -->
<g id="Node000002" class="node">
<title>Node2</title>
<g id="a_Node000002"><a xlink:href="structinstruction.html" target="_top" xlink:title=" ">
<polygon fill="white" stroke="transparent" points="659,-489 569,-489 569,-380 659,-380 659,-489"/>
<text text-anchor="start" x="588" y="-476.5" font-family="Helvetica,sans-Serif" font-size="10.00">instruction</text>
<text text-anchor="start" x="573" y="-461.5" font-family="Helvetica,sans-Serif" font-size="10.00">+</text>
<text text-anchor="start" x="586" y="-461.5" font-family="Helvetica,sans-Serif" font-size="10.00">delay</text>
<text text-anchor="start" x="573" y="-446.5" font-family="Helvetica,sans-Serif" font-size="10.00">+</text>
<text text-anchor="start" x="586" y="-446.5" font-family="Helvetica,sans-Serif" font-size="10.00">sideset</text>
<text text-anchor="start" x="573" y="-431.5" font-family="Helvetica,sans-Serif" font-size="10.00">+</text>
<text text-anchor="start" x="586" y="-431.5" font-family="Helvetica,sans-Serif" font-size="10.00">encode()</text>
<text text-anchor="start" x="573" y="-416.5" font-family="Helvetica,sans-Serif" font-size="10.00">+</text>
<text text-anchor="start" x="586" y="-416.5" font-family="Helvetica,sans-Serif" font-size="10.00">instruction()</text>
<text text-anchor="start" x="573" y="-401.5" font-family="Helvetica,sans-Serif" font-size="10.00">+</text>
<text text-anchor="start" x="586" y="-401.5" font-family="Helvetica,sans-Serif" font-size="10.00">pre_validate()</text>
<text text-anchor="start" x="573" y="-386.5" font-family="Helvetica,sans-Serif" font-size="10.00">+</text>
<text text-anchor="start" x="586" y="-386.5" font-family="Helvetica,sans-Serif" font-size="10.00">raw_encode()</text>
<polygon fill="#666666" stroke="#666666" points="569,-471.5 569,-471.5 659,-471.5 659,-471.5 569,-471.5"/>
<polygon fill="#666666" stroke="#666666" points="569,-441.5 569,-441.5 584,-441.5 584,-441.5 569,-441.5"/>
<polygon fill="#666666" stroke="#666666" points="584,-441.5 584,-441.5 659,-441.5 659,-441.5 584,-441.5"/>
<polygon fill="none" stroke="#666666" points="569,-380 569,-489 659,-489 659,-380 569,-380"/>
</a>
</g>
</g>
<!-- Node1&#45;&gt;Node2 -->
<g id="edge1_Node000001_Node000002" class="edge">
<title>Node1&#45;&gt;Node2</title>
<g id="a_edge1_Node000001_Node000002"><a xlink:title=" ">
<path fill="none" stroke="#63b8ff" d="M1206.93,-672.95C1089.81,-626.05 776.83,-500.71 659.38,-453.67"/>
<polygon fill="none" stroke="#63b8ff" points="1205.75,-676.25 1216.33,-676.72 1208.35,-669.75 1205.75,-676.25"/>
</a>
</g>
</g>
<!-- Node14 -->
<g id="Node000014" class="node">
<title>Node14</title>
<g id="a_Node000014"><a xlink:href="structprogram.html" target="_top" xlink:title=" ">
<polygon fill="white" stroke="transparent" points="1251.5,-624 1128.5,-624 1128.5,-245 1251.5,-245 1251.5,-624"/>
<text text-anchor="start" x="1169.5" y="-611.5" font-family="Helvetica,sans-Serif" font-size="10.00">program</text>
<text text-anchor="start" x="1133" y="-596.5" font-family="Helvetica,sans-Serif" font-size="10.00">+</text>
<text text-anchor="start" x="1146" y="-596.5" font-family="Helvetica,sans-Serif" font-size="10.00">clock_div_frac</text>
<text text-anchor="start" x="1133" y="-581.5" font-family="Helvetica,sans-Serif" font-size="10.00">+</text>
<text text-anchor="start" x="1146" y="-581.5" font-family="Helvetica,sans-Serif" font-size="10.00">clock_div_int</text>
<text text-anchor="start" x="1133" y="-566.5" font-family="Helvetica,sans-Serif" font-size="10.00">+</text>
<text text-anchor="start" x="1146" y="-566.5" font-family="Helvetica,sans-Serif" font-size="10.00">code_blocks</text>
<text text-anchor="start" x="1133" y="-551.5" font-family="Helvetica,sans-Serif" font-size="10.00">+</text>
<text text-anchor="start" x="1146" y="-551.5" font-family="Helvetica,sans-Serif" font-size="10.00">delay_max</text>
<text text-anchor="start" x="1133" y="-536.5" font-family="Helvetica,sans-Serif" font-size="10.00">+</text>
<text text-anchor="start" x="1146" y="-536.5" font-family="Helvetica,sans-Serif" font-size="10.00">fifo</text>
<text text-anchor="start" x="1133" y="-521.5" font-family="Helvetica,sans-Serif" font-size="10.00">+</text>
<text text-anchor="start" x="1146" y="-521.5" font-family="Helvetica,sans-Serif" font-size="10.00">fifo_loc</text>
<text text-anchor="start" x="1133" y="-506.5" font-family="Helvetica,sans-Serif" font-size="10.00">+</text>
<text text-anchor="start" x="1146" y="-506.5" font-family="Helvetica,sans-Serif" font-size="10.00">final_in_count</text>
<text text-anchor="start" x="1133" y="-491.5" font-family="Helvetica,sans-Serif" font-size="10.00">+</text>
<text text-anchor="start" x="1146" y="-491.5" font-family="Helvetica,sans-Serif" font-size="10.00">final_n</text>
<text text-anchor="start" x="1133" y="-476.5" font-family="Helvetica,sans-Serif" font-size="10.00">+</text>
<text text-anchor="start" x="1146" y="-476.5" font-family="Helvetica,sans-Serif" font-size="10.00">final_out_count</text>
<text text-anchor="start" x="1133" y="-461.5" font-family="Helvetica,sans-Serif" font-size="10.00">+</text>
<text text-anchor="start" x="1146" y="-461.5" font-family="Helvetica,sans-Serif" font-size="10.00">final_set_count</text>
<text text-anchor="start" x="1146" y="-446.5" font-family="Helvetica,sans-Serif" font-size="10.00">e 23 mais...</text>
<text text-anchor="start" x="1133" y="-431.5" font-family="Helvetica,sans-Serif" font-size="10.00">+</text>
<text text-anchor="start" x="1146" y="-431.5" font-family="Helvetica,sans-Serif" font-size="10.00">MAX_INSTRUCTIONS</text>
<text text-anchor="start" x="1133" y="-416.5" font-family="Helvetica,sans-Serif" font-size="10.00">+</text>
<text text-anchor="start" x="1146" y="-416.5" font-family="Helvetica,sans-Serif" font-size="10.00">add_code_block()</text>
<text text-anchor="start" x="1133" y="-401.5" font-family="Helvetica,sans-Serif" font-size="10.00">+</text>
<text text-anchor="start" x="1146" y="-401.5" font-family="Helvetica,sans-Serif" font-size="10.00">add_instruction()</text>
<text text-anchor="start" x="1133" y="-386.5" font-family="Helvetica,sans-Serif" font-size="10.00">+</text>
<text text-anchor="start" x="1146" y="-386.5" font-family="Helvetica,sans-Serif" font-size="10.00">add_label()</text>
<text text-anchor="start" x="1133" y="-371.5" font-family="Helvetica,sans-Serif" font-size="10.00">+</text>
<text text-anchor="start" x="1146" y="-371.5" font-family="Helvetica,sans-Serif" font-size="10.00">add_lang_opt()</text>
<text text-anchor="start" x="1133" y="-356.5" font-family="Helvetica,sans-Serif" font-size="10.00">+</text>
<text text-anchor="start" x="1146" y="-356.5" font-family="Helvetica,sans-Serif" font-size="10.00">add_symbol()</text>
<text text-anchor="start" x="1133" y="-341.5" font-family="Helvetica,sans-Serif" font-size="10.00">+</text>
<text text-anchor="start" x="1146" y="-341.5" font-family="Helvetica,sans-Serif" font-size="10.00">finalize()</text>
<text text-anchor="start" x="1133" y="-326.5" font-family="Helvetica,sans-Serif" font-size="10.00">+</text>
<text text-anchor="start" x="1146" y="-326.5" font-family="Helvetica,sans-Serif" font-size="10.00">program()</text>
<text text-anchor="start" x="1133" y="-311.5" font-family="Helvetica,sans-Serif" font-size="10.00">+</text>
<text text-anchor="start" x="1146" y="-311.5" font-family="Helvetica,sans-Serif" font-size="10.00">set_clock_div()</text>
<text text-anchor="start" x="1133" y="-296.5" font-family="Helvetica,sans-Serif" font-size="10.00">+</text>
<text text-anchor="start" x="1146" y="-296.5" font-family="Helvetica,sans-Serif" font-size="10.00">set_fifo_config()</text>
<text text-anchor="start" x="1133" y="-281.5" font-family="Helvetica,sans-Serif" font-size="10.00">+</text>
<text text-anchor="start" x="1146" y="-281.5" font-family="Helvetica,sans-Serif" font-size="10.00">set_in()</text>
<text text-anchor="start" x="1146" y="-266.5" font-family="Helvetica,sans-Serif" font-size="10.00">e 8 mais...</text>
<text text-anchor="start" x="1133" y="-251.5" font-family="Helvetica,sans-Serif" font-size="10.00">#</text>
<text text-anchor="start" x="1146" y="-251.5" font-family="Helvetica,sans-Serif" font-size="10.00">init_pio_version()</text>
<polygon fill="#666666" stroke="#666666" points="1129,-606.5 1129,-606.5 1252,-606.5 1252,-606.5 1129,-606.5"/>
<polygon fill="#666666" stroke="#666666" points="1129,-426.5 1129,-426.5 1144,-426.5 1144,-426.5 1129,-426.5"/>
<polygon fill="#666666" stroke="#666666" points="1144,-426.5 1144,-426.5 1252,-426.5 1252,-426.5 1144,-426.5"/>
<polygon fill="none" stroke="#666666" points="1128.5,-245 1128.5,-624 1251.5,-624 1251.5,-245 1128.5,-245"/>
</a>
</g>
</g>
<!-- Node1&#45;&gt;Node14 -->
<g id="edge13_Node000001_Node000014" class="edge">
<title>Node1&#45;&gt;Node14</title>
<g id="a_edge13_Node000001_Node000014"><a xlink:title=" ">
<path fill="none" stroke="#63b8ff" d="M1242.06,-650.03C1240.14,-642.12 1238.01,-633.37 1235.75,-624.05"/>
<polygon fill="none" stroke="#63b8ff" points="1238.7,-651.03 1244.46,-659.93 1245.5,-649.38 1238.7,-651.03"/>
</a>
</g>
</g>
<!-- Node15 -->
<g id="Node000015" class="node">
<title>Node15</title>
<g id="a_Node000015"><a xlink:href="structresolvable.html" target="_top" xlink:title=" ">
<polygon fill="white" stroke="transparent" points="1358,-489 1270,-489 1270,-380 1358,-380 1358,-489"/>
<text text-anchor="start" x="1288" y="-476.5" font-family="Helvetica,sans-Serif" font-size="10.00">resolvable</text>
<text text-anchor="start" x="1310.5" y="-461.5" font-family="Helvetica,sans-Serif" font-size="10.00"> </text>
<text text-anchor="start" x="1274" y="-446.5" font-family="Helvetica,sans-Serif" font-size="10.00">+</text>
<text text-anchor="start" x="1287" y="-446.5" font-family="Helvetica,sans-Serif" font-size="10.00">resolvable()</text>
<text text-anchor="start" x="1274" y="-431.5" font-family="Helvetica,sans-Serif" font-size="10.00">+</text>
<text text-anchor="start" x="1287" y="-431.5" font-family="Helvetica,sans-Serif" font-size="10.00">resolve()</text>
<text text-anchor="start" x="1274" y="-416.5" font-family="Helvetica,sans-Serif" font-size="10.00">+</text>
<text text-anchor="start" x="1287" y="-416.5" font-family="Helvetica,sans-Serif" font-size="10.00">resolve()</text>
<text text-anchor="start" x="1274" y="-401.5" font-family="Helvetica,sans-Serif" font-size="10.00">+</text>
<text text-anchor="start" x="1287" y="-401.5" font-family="Helvetica,sans-Serif" font-size="10.00">resolve()</text>
<text text-anchor="start" x="1274" y="-386.5" font-family="Helvetica,sans-Serif" font-size="10.00">+</text>
<text text-anchor="start" x="1287" y="-386.5" font-family="Helvetica,sans-Serif" font-size="10.00">~resolvable()</text>
<polygon fill="#666666" stroke="#666666" points="1270,-471.5 1270,-471.5 1358,-471.5 1358,-471.5 1270,-471.5"/>
<polygon fill="#666666" stroke="#666666" points="1270,-456.5 1270,-456.5 1358,-456.5 1358,-456.5 1270,-456.5"/>
<polygon fill="none" stroke="#666666" points="1270,-380 1270,-489 1358,-489 1358,-380 1270,-380"/>
</a>
</g>
</g>
<!-- Node1&#45;&gt;Node15 -->
<g id="edge14_Node000001_Node000015" class="edge">
<title>Node1&#45;&gt;Node15</title>
<g id="a_edge14_Node000001_Node000015"><a xlink:title=" ">
<path fill="none" stroke="#63b8ff" d="M1261.96,-649.94C1272.56,-606.26 1289.37,-536.98 1301.01,-489.04"/>
<polygon fill="none" stroke="#63b8ff" points="1258.5,-649.38 1259.54,-659.93 1265.3,-651.03 1258.5,-649.38"/>
</a>
</g>
</g>
<!-- Node21 -->
<g id="Node000021" class="node">
<title>Node21</title>
<g id="a_Node000021"><a xlink:href="structsymbol.html" target="_top" xlink:title=" ">
<polygon fill="white" stroke="transparent" points="1472.5,-489 1375.5,-489 1375.5,-380 1472.5,-380 1472.5,-489"/>
<text text-anchor="start" x="1406" y="-476.5" font-family="Helvetica,sans-Serif" font-size="10.00">symbol</text>
<text text-anchor="start" x="1380" y="-461.5" font-family="Helvetica,sans-Serif" font-size="10.00">+</text>
<text text-anchor="start" x="1393" y="-461.5" font-family="Helvetica,sans-Serif" font-size="10.00">is_label</text>
<text text-anchor="start" x="1380" y="-446.5" font-family="Helvetica,sans-Serif" font-size="10.00">+</text>
<text text-anchor="start" x="1393" y="-446.5" font-family="Helvetica,sans-Serif" font-size="10.00">is_public</text>
<text text-anchor="start" x="1380" y="-431.5" font-family="Helvetica,sans-Serif" font-size="10.00">+</text>
<text text-anchor="start" x="1393" y="-431.5" font-family="Helvetica,sans-Serif" font-size="10.00">name</text>
<text text-anchor="start" x="1380" y="-416.5" font-family="Helvetica,sans-Serif" font-size="10.00">+</text>
<text text-anchor="start" x="1393" y="-416.5" font-family="Helvetica,sans-Serif" font-size="10.00">resolve_started</text>
<text text-anchor="start" x="1380" y="-401.5" font-family="Helvetica,sans-Serif" font-size="10.00">+</text>
<text text-anchor="start" x="1393" y="-401.5" font-family="Helvetica,sans-Serif" font-size="10.00">value</text>
<text text-anchor="start" x="1380" y="-386.5" font-family="Helvetica,sans-Serif" font-size="10.00">+</text>
<text text-anchor="start" x="1393" y="-386.5" font-family="Helvetica,sans-Serif" font-size="10.00">symbol()</text>
<polygon fill="#666666" stroke="#666666" points="1376,-471.5 1376,-471.5 1473,-471.5 1473,-471.5 1376,-471.5"/>
<polygon fill="#666666" stroke="#666666" points="1376,-396.5 1376,-396.5 1391,-396.5 1391,-396.5 1376,-396.5"/>
<polygon fill="#666666" stroke="#666666" points="1391,-396.5 1391,-396.5 1473,-396.5 1473,-396.5 1391,-396.5"/>
<polygon fill="none" stroke="#666666" points="1375.5,-380 1375.5,-489 1472.5,-489 1472.5,-380 1375.5,-380"/>
</a>
</g>
</g>
<!-- Node1&#45;&gt;Node21 -->
<g id="edge20_Node000001_Node000021" class="edge">
<title>Node1&#45;&gt;Node21</title>
<g id="a_edge20_Node000001_Node000021"><a xlink:title=" ">
<path fill="none" stroke="#63b8ff" d="M1297,-674.34C1320.9,-663.38 1348.98,-646.81 1367,-624 1397.72,-585.1 1411.93,-529.79 1418.47,-489.14"/>
<polygon fill="none" stroke="#63b8ff" points="1295.49,-671.18 1287.74,-678.41 1298.3,-677.59 1295.49,-671.18"/>
</a>
</g>
</g>
<!-- Node3 -->
<g id="Node000003" class="node">
<title>Node3</title>
<g id="a_Node000003"><a xlink:href="structinstr__in.html" target="_top" xlink:title=" ">
<polygon fill="white" stroke="transparent" points="88,-186.5 0,-186.5 0,-107.5 88,-107.5 88,-186.5"/>
<text text-anchor="start" x="25.5" y="-174" font-family="Helvetica,sans-Serif" font-size="10.00">instr_in</text>
<text text-anchor="start" x="4" y="-159" font-family="Helvetica,sans-Serif" font-size="10.00">+</text>
<text text-anchor="start" x="17" y="-159" font-family="Helvetica,sans-Serif" font-size="10.00">src</text>
<text text-anchor="start" x="4" y="-144" font-family="Helvetica,sans-Serif" font-size="10.00">+</text>
<text text-anchor="start" x="17" y="-144" font-family="Helvetica,sans-Serif" font-size="10.00">value</text>
<text text-anchor="start" x="4" y="-129" font-family="Helvetica,sans-Serif" font-size="10.00">+</text>
<text text-anchor="start" x="17" y="-129" font-family="Helvetica,sans-Serif" font-size="10.00">instr_in()</text>
<text text-anchor="start" x="4" y="-114" font-family="Helvetica,sans-Serif" font-size="10.00">+</text>
<text text-anchor="start" x="17" y="-114" font-family="Helvetica,sans-Serif" font-size="10.00">raw_encode()</text>
<polygon fill="#666666" stroke="#666666" points="0,-169 0,-169 88,-169 88,-169 0,-169"/>
<polygon fill="#666666" stroke="#666666" points="0,-139 0,-139 15,-139 15,-139 0,-139"/>
<polygon fill="#666666" stroke="#666666" points="15,-139 15,-139 88,-139 88,-139 15,-139"/>
<polygon fill="none" stroke="#666666" points="0,-107.5 0,-186.5 88,-186.5 88,-107.5 0,-107.5"/>
</a>
</g>
</g>
<!-- Node2&#45;&gt;Node3 -->
<g id="edge2_Node000002_Node000003" class="edge">
<title>Node2&#45;&gt;Node3</title>
<g id="a_edge2_Node000002_Node000003"><a xlink:title=" ">
<path fill="none" stroke="#63b8ff" d="M558.87,-418.45C459.59,-389.5 247.12,-319.05 97,-209 88.4,-202.7 80.24,-194.76 73.01,-186.71"/>
<polygon fill="none" stroke="#63b8ff" points="558.11,-421.87 568.69,-421.28 560.05,-415.14 558.11,-421.87"/>
</a>
</g>
</g>
<!-- Node4 -->
<g id="Node000004" class="node">
<title>Node4</title>
<g id="a_Node000004"><a xlink:href="structinstr__irq.html" target="_top" xlink:title=" ">
<polygon fill="white" stroke="transparent" points="194,-194 106,-194 106,-100 194,-100 194,-194"/>
<text text-anchor="start" x="130" y="-182" font-family="Helvetica,sans-Serif" font-size="10.00">instr_irq</text>
<text text-anchor="start" x="110" y="-167" font-family="Helvetica,sans-Serif" font-size="10.00">+</text>
<text text-anchor="start" x="123" y="-167" font-family="Helvetica,sans-Serif" font-size="10.00">irq_type</text>
<text text-anchor="start" x="110" y="-152" font-family="Helvetica,sans-Serif" font-size="10.00">+</text>
<text text-anchor="start" x="123" y="-152" font-family="Helvetica,sans-Serif" font-size="10.00">modifiers</text>
<text text-anchor="start" x="110" y="-137" font-family="Helvetica,sans-Serif" font-size="10.00">+</text>
<text text-anchor="start" x="123" y="-137" font-family="Helvetica,sans-Serif" font-size="10.00">num</text>
<text text-anchor="start" x="110" y="-122" font-family="Helvetica,sans-Serif" font-size="10.00">+</text>
<text text-anchor="start" x="123" y="-122" font-family="Helvetica,sans-Serif" font-size="10.00">instr_irq()</text>
<text text-anchor="start" x="110" y="-107" font-family="Helvetica,sans-Serif" font-size="10.00">+</text>
<text text-anchor="start" x="123" y="-107" font-family="Helvetica,sans-Serif" font-size="10.00">raw_encode()</text>
<polygon fill="#666666" stroke="#666666" points="106,-177 106,-177 194,-177 194,-177 106,-177"/>
<polygon fill="#666666" stroke="#666666" points="106,-132 106,-132 121,-132 121,-132 106,-132"/>
<polygon fill="#666666" stroke="#666666" points="121,-132 121,-132 194,-132 194,-132 121,-132"/>
<polygon fill="none" stroke="#666666" points="106,-100 106,-194 194,-194 194,-100 106,-100"/>
</a>
</g>
</g>
<!-- Node2&#45;&gt;Node4 -->
<g id="edge3_Node000002_Node000004" class="edge">
<title>Node2&#45;&gt;Node4</title>
<g id="a_edge3_Node000002_Node000004"><a xlink:title=" ">
<path fill="none" stroke="#63b8ff" d="M559.45,-411.21C477.03,-375.95 318.15,-301.68 203,-209 197.43,-204.51 191.97,-199.39 186.81,-194.07"/>
<polygon fill="none" stroke="#63b8ff" points="558.31,-414.53 568.88,-415.22 561.04,-408.08 558.31,-414.53"/>
</a>
</g>
</g>
<!-- Node5 -->
<g id="Node000005" class="node">
<title>Node5</title>
<g id="a_Node000005"><a xlink:href="structinstr__jmp.html" target="_top" xlink:title=" ">
<polygon fill="white" stroke="transparent" points="300,-186.5 212,-186.5 212,-107.5 300,-107.5 300,-186.5"/>
<text text-anchor="start" x="233" y="-174" font-family="Helvetica,sans-Serif" font-size="10.00">instr_jmp</text>
<text text-anchor="start" x="216" y="-159" font-family="Helvetica,sans-Serif" font-size="10.00">+</text>
<text text-anchor="start" x="229" y="-159" font-family="Helvetica,sans-Serif" font-size="10.00">cond</text>
<text text-anchor="start" x="216" y="-144" font-family="Helvetica,sans-Serif" font-size="10.00">+</text>
<text text-anchor="start" x="229" y="-144" font-family="Helvetica,sans-Serif" font-size="10.00">target</text>
<text text-anchor="start" x="216" y="-129" font-family="Helvetica,sans-Serif" font-size="10.00">+</text>
<text text-anchor="start" x="229" y="-129" font-family="Helvetica,sans-Serif" font-size="10.00">instr_jmp()</text>
<text text-anchor="start" x="216" y="-114" font-family="Helvetica,sans-Serif" font-size="10.00">+</text>
<text text-anchor="start" x="229" y="-114" font-family="Helvetica,sans-Serif" font-size="10.00">raw_encode()</text>
<polygon fill="#666666" stroke="#666666" points="212,-169 212,-169 300,-169 300,-169 212,-169"/>
<polygon fill="#666666" stroke="#666666" points="212,-139 212,-139 227,-139 227,-139 212,-139"/>
<polygon fill="#666666" stroke="#666666" points="227,-139 227,-139 300,-139 300,-139 227,-139"/>
<polygon fill="none" stroke="#666666" points="212,-107.5 212,-186.5 300,-186.5 300,-107.5 212,-107.5"/>
</a>
</g>
</g>
<!-- Node2&#45;&gt;Node5 -->
<g id="edge4_Node000002_Node000005" class="edge">
<title>Node2&#45;&gt;Node5</title>
<g id="a_edge4_Node000002_Node000005"><a xlink:title=" ">
<path fill="none" stroke="#63b8ff" d="M560.35,-399.3C497.2,-357.88 390.59,-284.25 309,-209 301.57,-202.15 294.13,-194.33 287.27,-186.63"/>
<polygon fill="none" stroke="#63b8ff" points="558.68,-402.39 568.97,-404.93 562.51,-396.53 558.68,-402.39"/>
</a>
</g>
</g>
<!-- Node6 -->
<g id="Node000006" class="node">
<title>Node6</title>
<g id="a_Node000006"><a xlink:href="structinstr__mov.html" target="_top" xlink:title=" ">
<polygon fill="white" stroke="transparent" points="445.5,-209 318.5,-209 318.5,-85 445.5,-85 445.5,-209"/>
<text text-anchor="start" x="358" y="-197" font-family="Helvetica,sans-Serif" font-size="10.00">instr_mov</text>
<text text-anchor="start" x="323" y="-182" font-family="Helvetica,sans-Serif" font-size="10.00">+</text>
<text text-anchor="start" x="336" y="-182" font-family="Helvetica,sans-Serif" font-size="10.00">dest</text>
<text text-anchor="start" x="323" y="-167" font-family="Helvetica,sans-Serif" font-size="10.00">+</text>
<text text-anchor="start" x="336" y="-167" font-family="Helvetica,sans-Serif" font-size="10.00">op</text>
<text text-anchor="start" x="323" y="-152" font-family="Helvetica,sans-Serif" font-size="10.00">+</text>
<text text-anchor="start" x="336" y="-152" font-family="Helvetica,sans-Serif" font-size="10.00">src</text>
<text text-anchor="start" x="323" y="-137" font-family="Helvetica,sans-Serif" font-size="10.00">+</text>
<text text-anchor="start" x="336" y="-137" font-family="Helvetica,sans-Serif" font-size="10.00">get_push_get_index()</text>
<text text-anchor="start" x="323" y="-122" font-family="Helvetica,sans-Serif" font-size="10.00">+</text>
<text text-anchor="start" x="336" y="-122" font-family="Helvetica,sans-Serif" font-size="10.00">instr_mov()</text>
<text text-anchor="start" x="323" y="-107" font-family="Helvetica,sans-Serif" font-size="10.00">+</text>
<text text-anchor="start" x="336" y="-107" font-family="Helvetica,sans-Serif" font-size="10.00">pre_validate()</text>
<text text-anchor="start" x="323" y="-92" font-family="Helvetica,sans-Serif" font-size="10.00">+</text>
<text text-anchor="start" x="336" y="-92" font-family="Helvetica,sans-Serif" font-size="10.00">raw_encode()</text>
<polygon fill="#666666" stroke="#666666" points="319,-192 319,-192 446,-192 446,-192 319,-192"/>
<polygon fill="#666666" stroke="#666666" points="319,-147 319,-147 334,-147 334,-147 319,-147"/>
<polygon fill="#666666" stroke="#666666" points="334,-147 334,-147 446,-147 446,-147 334,-147"/>
<polygon fill="none" stroke="#666666" points="318.5,-85 318.5,-209 445.5,-209 445.5,-85 318.5,-85"/>
</a>
</g>
</g>
<!-- Node2&#45;&gt;Node6 -->
<g id="edge5_Node000002_Node000006" class="edge">
<title>Node2&#45;&gt;Node6</title>
<g id="a_edge5_Node000002_Node000006"><a xlink:title=" ">
<path fill="none" stroke="#63b8ff" d="M563.97,-371.94C524.85,-323.79 470.72,-257.18 431.68,-209.14"/>
<polygon fill="none" stroke="#63b8ff" points="561.34,-374.25 570.36,-379.8 566.77,-369.83 561.34,-374.25"/>
</a>
</g>
</g>
<!-- Node8 -->
<g id="Node000008" class="node">
<title>Node8</title>
<g id="a_Node000008"><a xlink:href="structinstr__out.html" target="_top" xlink:title=" ">
<polygon fill="white" stroke="transparent" points="552,-186.5 464,-186.5 464,-107.5 552,-107.5 552,-186.5"/>
<text text-anchor="start" x="486.5" y="-174" font-family="Helvetica,sans-Serif" font-size="10.00">instr_out</text>
<text text-anchor="start" x="468" y="-159" font-family="Helvetica,sans-Serif" font-size="10.00">+</text>
<text text-anchor="start" x="481" y="-159" font-family="Helvetica,sans-Serif" font-size="10.00">dest</text>
<text text-anchor="start" x="468" y="-144" font-family="Helvetica,sans-Serif" font-size="10.00">+</text>
<text text-anchor="start" x="481" y="-144" font-family="Helvetica,sans-Serif" font-size="10.00">value</text>
<text text-anchor="start" x="468" y="-129" font-family="Helvetica,sans-Serif" font-size="10.00">+</text>
<text text-anchor="start" x="481" y="-129" font-family="Helvetica,sans-Serif" font-size="10.00">instr_out()</text>
<text text-anchor="start" x="468" y="-114" font-family="Helvetica,sans-Serif" font-size="10.00">+</text>
<text text-anchor="start" x="481" y="-114" font-family="Helvetica,sans-Serif" font-size="10.00">raw_encode()</text>
<polygon fill="#666666" stroke="#666666" points="464,-169 464,-169 552,-169 552,-169 464,-169"/>
<polygon fill="#666666" stroke="#666666" points="464,-139 464,-139 479,-139 479,-139 464,-139"/>
<polygon fill="#666666" stroke="#666666" points="479,-139 479,-139 552,-139 552,-139 479,-139"/>
<polygon fill="none" stroke="#666666" points="464,-107.5 464,-186.5 552,-186.5 552,-107.5 464,-107.5"/>
</a>
</g>
</g>
<!-- Node2&#45;&gt;Node8 -->
<g id="edge7_Node000002_Node000008" class="edge">
<title>Node2&#45;&gt;Node8</title>
<g id="a_edge7_Node000002_Node000008"><a xlink:title=" ">
<path fill="none" stroke="#63b8ff" d="M590.54,-370.31C569.7,-314.2 539.92,-233.97 522.41,-186.81"/>
<polygon fill="none" stroke="#63b8ff" points="587.3,-371.64 594.06,-379.8 593.86,-369.21 587.3,-371.64"/>
</a>
</g>
</g>
<!-- Node9 -->
<g id="Node000009" class="node">
<title>Node9</title>
<g id="a_Node000009"><a xlink:href="structinstr__pull.html" target="_top" xlink:title=" ">
<polygon fill="white" stroke="transparent" points="658,-186.5 570,-186.5 570,-107.5 658,-107.5 658,-186.5"/>
<text text-anchor="start" x="591" y="-174" font-family="Helvetica,sans-Serif" font-size="10.00">instr_pull</text>
<text text-anchor="start" x="574" y="-159" font-family="Helvetica,sans-Serif" font-size="10.00">+</text>
<text text-anchor="start" x="587" y="-159" font-family="Helvetica,sans-Serif" font-size="10.00">blocking</text>
<text text-anchor="start" x="574" y="-144" font-family="Helvetica,sans-Serif" font-size="10.00">+</text>
<text text-anchor="start" x="587" y="-144" font-family="Helvetica,sans-Serif" font-size="10.00">if_empty</text>
<text text-anchor="start" x="574" y="-129" font-family="Helvetica,sans-Serif" font-size="10.00">+</text>
<text text-anchor="start" x="587" y="-129" font-family="Helvetica,sans-Serif" font-size="10.00">instr_pull()</text>
<text text-anchor="start" x="574" y="-114" font-family="Helvetica,sans-Serif" font-size="10.00">+</text>
<text text-anchor="start" x="587" y="-114" font-family="Helvetica,sans-Serif" font-size="10.00">raw_encode()</text>
<polygon fill="#666666" stroke="#666666" points="570,-169 570,-169 658,-169 658,-169 570,-169"/>
<polygon fill="#666666" stroke="#666666" points="570,-139 570,-139 585,-139 585,-139 570,-139"/>
<polygon fill="#666666" stroke="#666666" points="585,-139 585,-139 658,-139 658,-139 585,-139"/>
<polygon fill="none" stroke="#666666" points="570,-107.5 570,-186.5 658,-186.5 658,-107.5 570,-107.5"/>
</a>
</g>
</g>
<!-- Node2&#45;&gt;Node9 -->
<g id="edge8_Node000002_Node000009" class="edge">
<title>Node2&#45;&gt;Node9</title>
<g id="a_edge8_Node000002_Node000009"><a xlink:title=" ">
<path fill="none" stroke="#63b8ff" d="M614,-369.62C614,-313.53 614,-233.78 614,-186.81"/>
<polygon fill="none" stroke="#63b8ff" points="610.5,-369.8 614,-379.8 617.5,-369.8 610.5,-369.8"/>
</a>
</g>
</g>
<!-- Node10 -->
<g id="Node000010" class="node">
<title>Node10</title>
<g id="a_Node000010"><a xlink:href="structinstr__push.html" target="_top" xlink:title=" ">
<polygon fill="white" stroke="transparent" points="766,-194 676,-194 676,-100 766,-100 766,-194"/>
<text text-anchor="start" x="695.5" y="-182" font-family="Helvetica,sans-Serif" font-size="10.00">instr_push</text>
<text text-anchor="start" x="680" y="-167" font-family="Helvetica,sans-Serif" font-size="10.00">+</text>
<text text-anchor="start" x="693" y="-167" font-family="Helvetica,sans-Serif" font-size="10.00">blocking</text>
<text text-anchor="start" x="680" y="-152" font-family="Helvetica,sans-Serif" font-size="10.00">+</text>
<text text-anchor="start" x="693" y="-152" font-family="Helvetica,sans-Serif" font-size="10.00">if_full</text>
<text text-anchor="start" x="680" y="-137" font-family="Helvetica,sans-Serif" font-size="10.00">+</text>
<text text-anchor="start" x="693" y="-137" font-family="Helvetica,sans-Serif" font-size="10.00">instr_push()</text>
<text text-anchor="start" x="680" y="-122" font-family="Helvetica,sans-Serif" font-size="10.00">+</text>
<text text-anchor="start" x="693" y="-122" font-family="Helvetica,sans-Serif" font-size="10.00">pre_validate()</text>
<text text-anchor="start" x="680" y="-107" font-family="Helvetica,sans-Serif" font-size="10.00">+</text>
<text text-anchor="start" x="693" y="-107" font-family="Helvetica,sans-Serif" font-size="10.00">raw_encode()</text>
<polygon fill="#666666" stroke="#666666" points="676,-177 676,-177 766,-177 766,-177 676,-177"/>
<polygon fill="#666666" stroke="#666666" points="676,-147 676,-147 691,-147 691,-147 676,-147"/>
<polygon fill="#666666" stroke="#666666" points="691,-147 691,-147 766,-147 766,-147 691,-147"/>
<polygon fill="none" stroke="#666666" points="676,-100 676,-194 766,-194 766,-100 676,-100"/>
</a>
</g>
</g>
<!-- Node2&#45;&gt;Node10 -->
<g id="edge9_Node000002_Node000010" class="edge">
<title>Node2&#45;&gt;Node10</title>
<g id="a_edge9_Node000002_Node000010"><a xlink:title=" ">
<path fill="none" stroke="#63b8ff" d="M637.75,-370.13C657.69,-316.92 685.72,-242.15 703.62,-194.38"/>
<polygon fill="none" stroke="#63b8ff" points="634.36,-369.21 634.13,-379.8 640.91,-371.66 634.36,-369.21"/>
</a>
</g>
</g>
<!-- Node11 -->
<g id="Node000011" class="node">
<title>Node11</title>
<g id="a_Node000011"><a xlink:href="structinstr__set.html" target="_top" xlink:title=" ">
<polygon fill="white" stroke="transparent" points="872,-186.5 784,-186.5 784,-107.5 872,-107.5 872,-186.5"/>
<text text-anchor="start" x="806.5" y="-174" font-family="Helvetica,sans-Serif" font-size="10.00">instr_set</text>
<text text-anchor="start" x="788" y="-159" font-family="Helvetica,sans-Serif" font-size="10.00">+</text>
<text text-anchor="start" x="801" y="-159" font-family="Helvetica,sans-Serif" font-size="10.00">dest</text>
<text text-anchor="start" x="788" y="-144" font-family="Helvetica,sans-Serif" font-size="10.00">+</text>
<text text-anchor="start" x="801" y="-144" font-family="Helvetica,sans-Serif" font-size="10.00">value</text>
<text text-anchor="start" x="788" y="-129" font-family="Helvetica,sans-Serif" font-size="10.00">+</text>
<text text-anchor="start" x="801" y="-129" font-family="Helvetica,sans-Serif" font-size="10.00">instr_set()</text>
<text text-anchor="start" x="788" y="-114" font-family="Helvetica,sans-Serif" font-size="10.00">+</text>
<text text-anchor="start" x="801" y="-114" font-family="Helvetica,sans-Serif" font-size="10.00">raw_encode()</text>
<polygon fill="#666666" stroke="#666666" points="784,-169 784,-169 872,-169 872,-169 784,-169"/>
<polygon fill="#666666" stroke="#666666" points="784,-139 784,-139 799,-139 799,-139 784,-139"/>
<polygon fill="#666666" stroke="#666666" points="799,-139 799,-139 872,-139 872,-139 799,-139"/>
<polygon fill="none" stroke="#666666" points="784,-107.5 784,-186.5 872,-186.5 872,-107.5 784,-107.5"/>
</a>
</g>
</g>
<!-- Node2&#45;&gt;Node11 -->
<g id="edge10_Node000002_Node000011" class="edge">
<title>Node2&#45;&gt;Node11</title>
<g id="a_edge10_Node000002_Node000011"><a xlink:title=" ">
<path fill="none" stroke="#63b8ff" d="M660.32,-371.7C702.43,-315.52 763.26,-234.36 798.91,-186.81"/>
<polygon fill="none" stroke="#63b8ff" points="657.45,-369.7 654.25,-379.8 663.05,-373.9 657.45,-369.7"/>
</a>
</g>
</g>
<!-- Node12 -->
<g id="Node000012" class="node">
<title>Node12</title>
<g id="a_Node000012"><a xlink:href="structinstr__wait.html" target="_top" xlink:title=" ">
<polygon fill="white" stroke="transparent" points="978,-186.5 890,-186.5 890,-107.5 978,-107.5 978,-186.5"/>
<text text-anchor="start" x="909.5" y="-174" font-family="Helvetica,sans-Serif" font-size="10.00">instr_wait</text>
<text text-anchor="start" x="894" y="-159" font-family="Helvetica,sans-Serif" font-size="10.00">+</text>
<text text-anchor="start" x="907" y="-159" font-family="Helvetica,sans-Serif" font-size="10.00">polarity</text>
<text text-anchor="start" x="894" y="-144" font-family="Helvetica,sans-Serif" font-size="10.00">+</text>
<text text-anchor="start" x="907" y="-144" font-family="Helvetica,sans-Serif" font-size="10.00">source</text>
<text text-anchor="start" x="894" y="-129" font-family="Helvetica,sans-Serif" font-size="10.00">+</text>
<text text-anchor="start" x="907" y="-129" font-family="Helvetica,sans-Serif" font-size="10.00">instr_wait()</text>
<text text-anchor="start" x="894" y="-114" font-family="Helvetica,sans-Serif" font-size="10.00">+</text>
<text text-anchor="start" x="907" y="-114" font-family="Helvetica,sans-Serif" font-size="10.00">raw_encode()</text>
<polygon fill="#666666" stroke="#666666" points="890,-169 890,-169 978,-169 978,-169 890,-169"/>
<polygon fill="#666666" stroke="#666666" points="890,-139 890,-139 905,-139 905,-139 890,-139"/>
<polygon fill="#666666" stroke="#666666" points="905,-139 905,-139 978,-139 978,-139 905,-139"/>
<polygon fill="none" stroke="#666666" points="890,-107.5 890,-186.5 978,-186.5 978,-107.5 890,-107.5"/>
</a>
</g>
</g>
<!-- Node2&#45;&gt;Node12 -->
<g id="edge11_Node000002_Node000012" class="edge">
<title>Node2&#45;&gt;Node12</title>
<g id="a_edge11_Node000002_Node000012"><a xlink:title=" ">
<path fill="none" stroke="#63b8ff" d="M667.24,-392.78C722.69,-349.46 811.05,-277.82 881,-209 888.1,-202.01 895.34,-194.21 902.09,-186.58"/>
<polygon fill="none" stroke="#63b8ff" points="665.04,-390.06 659.3,-398.96 669.34,-395.58 665.04,-390.06"/>
</a>
</g>
</g>
<!-- Node13 -->
<g id="Node000013" class="node">
<title>Node13</title>
<g id="a_Node000013"><a xlink:href="structinstr__word.html" target="_top" xlink:title=" ">
<polygon fill="white" stroke="transparent" points="1076,-179 996,-179 996,-115 1076,-115 1076,-179"/>
<text text-anchor="start" x="1010" y="-167" font-family="Helvetica,sans-Serif" font-size="10.00">instr_word</text>
<text text-anchor="start" x="1000" y="-152" font-family="Helvetica,sans-Serif" font-size="10.00">+</text>
<text text-anchor="start" x="1013" y="-152" font-family="Helvetica,sans-Serif" font-size="10.00">encoding</text>
<text text-anchor="start" x="1000" y="-137" font-family="Helvetica,sans-Serif" font-size="10.00">+</text>
<text text-anchor="start" x="1013" y="-137" font-family="Helvetica,sans-Serif" font-size="10.00">encode()</text>
<text text-anchor="start" x="1000" y="-122" font-family="Helvetica,sans-Serif" font-size="10.00">+</text>
<text text-anchor="start" x="1013" y="-122" font-family="Helvetica,sans-Serif" font-size="10.00">instr_word()</text>
<polygon fill="#666666" stroke="#666666" points="996,-162 996,-162 1076,-162 1076,-162 996,-162"/>
<polygon fill="#666666" stroke="#666666" points="996,-147 996,-147 1011,-147 1011,-147 996,-147"/>
<polygon fill="#666666" stroke="#666666" points="1011,-147 1011,-147 1076,-147 1076,-147 1011,-147"/>
<polygon fill="none" stroke="#666666" points="996,-115 996,-179 1076,-179 1076,-115 996,-115"/>
</a>
</g>
</g>
<!-- Node2&#45;&gt;Node13 -->
<g id="edge12_Node000002_Node000013" class="edge">
<title>Node2&#45;&gt;Node13</title>
<g id="a_edge12_Node000002_Node000013"><a xlink:title=" ">
<path fill="none" stroke="#63b8ff" d="M668.7,-408.26C745.09,-371.38 885.73,-297.45 987,-209 997.03,-200.24 1006.56,-189.25 1014.5,-179.02"/>
<polygon fill="none" stroke="#63b8ff" points="666.76,-405.3 659.26,-412.78 669.79,-411.62 666.76,-405.3"/>
</a>
</g>
</g>
<!-- Node7 -->
<g id="Node000007" class="node">
<title>Node7</title>
<g id="a_Node000007"><a xlink:href="structinstr__nop.html" target="_top" xlink:title=" ">
<polygon fill="white" stroke="transparent" points="419,-49 345,-49 345,0 419,0 419,-49"/>
<text text-anchor="start" x="359" y="-36.5" font-family="Helvetica,sans-Serif" font-size="10.00">instr_nop</text>
<text text-anchor="start" x="378.5" y="-21.5" font-family="Helvetica,sans-Serif" font-size="10.00"> </text>
<text text-anchor="start" x="349" y="-6.5" font-family="Helvetica,sans-Serif" font-size="10.00">+</text>
<text text-anchor="start" x="362" y="-6.5" font-family="Helvetica,sans-Serif" font-size="10.00">instr_nop()</text>
<polygon fill="#666666" stroke="#666666" points="345,-31.5 345,-31.5 419,-31.5 419,-31.5 345,-31.5"/>
<polygon fill="#666666" stroke="#666666" points="345,-16.5 345,-16.5 419,-16.5 419,-16.5 345,-16.5"/>
<polygon fill="none" stroke="#666666" points="345,0 345,-49 419,-49 419,0 345,0"/>
</a>
</g>
</g>
<!-- Node6&#45;&gt;Node7 -->
<g id="edge6_Node000006_Node000007" class="edge">
<title>Node6&#45;&gt;Node7</title>
<g id="a_edge6_Node000006_Node000007"><a xlink:title=" ">
<path fill="none" stroke="#63b8ff" d="M382,-74.65C382,-65.48 382,-56.67 382,-49.1"/>
<polygon fill="none" stroke="#63b8ff" points="378.5,-74.69 382,-84.69 385.5,-74.69 378.5,-74.69"/>
</a>
</g>
</g>
<!-- Node16 -->
<g id="Node000016" class="node">
<title>Node16</title>
<g id="a_Node000016"><a xlink:href="structbinary__operation.html" target="_top" xlink:title=" ">
<polygon fill="white" stroke="transparent" points="1206,-194 1094,-194 1094,-100 1206,-100 1206,-194"/>
<text text-anchor="start" x="1108.5" y="-182" font-family="Helvetica,sans-Serif" font-size="10.00">binary_operation</text>
<text text-anchor="start" x="1098" y="-167" font-family="Helvetica,sans-Serif" font-size="10.00">+</text>
<text text-anchor="start" x="1111" y="-167" font-family="Helvetica,sans-Serif" font-size="10.00">left</text>
<text text-anchor="start" x="1098" y="-152" font-family="Helvetica,sans-Serif" font-size="10.00">+</text>
<text text-anchor="start" x="1111" y="-152" font-family="Helvetica,sans-Serif" font-size="10.00">op</text>
<text text-anchor="start" x="1098" y="-137" font-family="Helvetica,sans-Serif" font-size="10.00">+</text>
<text text-anchor="start" x="1111" y="-137" font-family="Helvetica,sans-Serif" font-size="10.00">right</text>
<text text-anchor="start" x="1098" y="-122" font-family="Helvetica,sans-Serif" font-size="10.00">+</text>
<text text-anchor="start" x="1111" y="-122" font-family="Helvetica,sans-Serif" font-size="10.00">binary_operation()</text>
<text text-anchor="start" x="1098" y="-107" font-family="Helvetica,sans-Serif" font-size="10.00">+</text>
<text text-anchor="start" x="1111" y="-107" font-family="Helvetica,sans-Serif" font-size="10.00">resolve()</text>
<polygon fill="#666666" stroke="#666666" points="1094,-177 1094,-177 1206,-177 1206,-177 1094,-177"/>
<polygon fill="#666666" stroke="#666666" points="1094,-132 1094,-132 1109,-132 1109,-132 1094,-132"/>
<polygon fill="#666666" stroke="#666666" points="1109,-132 1109,-132 1206,-132 1206,-132 1109,-132"/>
<polygon fill="none" stroke="#666666" points="1094,-100 1094,-194 1206,-194 1206,-100 1094,-100"/>
</a>
</g>
</g>
<!-- Node15&#45;&gt;Node16 -->
<g id="edge15_Node000015_Node000016" class="edge">
<title>Node15&#45;&gt;Node16</title>
<g id="a_edge15_Node000015_Node000016"><a xlink:title=" ">
<path fill="none" stroke="#63b8ff" d="M1305.75,-369.75C1298.43,-331.15 1284.86,-282.32 1260,-245 1245.8,-223.68 1234.35,-225.78 1215,-209 1209.5,-204.24 1203.84,-199.16 1198.24,-194.06"/>
<polygon fill="none" stroke="#63b8ff" points="1302.35,-370.62 1307.57,-379.84 1309.24,-369.38 1302.35,-370.62"/>
</a>
</g>
</g>
<!-- Node17 -->
<g id="Node000017" class="node">
<title>Node17</title>
<g id="a_Node000017"><a xlink:href="structcode__block.html" target="_top" xlink:title=" ">
<polygon fill="white" stroke="transparent" points="1308,-186.5 1224,-186.5 1224,-107.5 1308,-107.5 1308,-186.5"/>
<text text-anchor="start" x="1238.5" y="-174" font-family="Helvetica,sans-Serif" font-size="10.00">code_block</text>
<text text-anchor="start" x="1228" y="-159" font-family="Helvetica,sans-Serif" font-size="10.00">+</text>
<text text-anchor="start" x="1241" y="-159" font-family="Helvetica,sans-Serif" font-size="10.00">contents</text>
<text text-anchor="start" x="1228" y="-144" font-family="Helvetica,sans-Serif" font-size="10.00">+</text>
<text text-anchor="start" x="1241" y="-144" font-family="Helvetica,sans-Serif" font-size="10.00">lang</text>
<text text-anchor="start" x="1228" y="-129" font-family="Helvetica,sans-Serif" font-size="10.00">+</text>
<text text-anchor="start" x="1241" y="-129" font-family="Helvetica,sans-Serif" font-size="10.00">code_block()</text>
<text text-anchor="start" x="1228" y="-114" font-family="Helvetica,sans-Serif" font-size="10.00">+</text>
<text text-anchor="start" x="1241" y="-114" font-family="Helvetica,sans-Serif" font-size="10.00">resolve()</text>
<polygon fill="#666666" stroke="#666666" points="1224,-169 1224,-169 1308,-169 1308,-169 1224,-169"/>
<polygon fill="#666666" stroke="#666666" points="1224,-139 1224,-139 1239,-139 1239,-139 1224,-139"/>
<polygon fill="#666666" stroke="#666666" points="1239,-139 1239,-139 1308,-139 1308,-139 1239,-139"/>
<polygon fill="none" stroke="#666666" points="1224,-107.5 1224,-186.5 1308,-186.5 1308,-107.5 1224,-107.5"/>
</a>
</g>
</g>
<!-- Node15&#45;&gt;Node17 -->
<g id="edge16_Node000015_Node000017" class="edge">
<title>Node15&#45;&gt;Node17</title>
<g id="a_edge16_Node000015_Node000017"><a xlink:title=" ">
<path fill="none" stroke="#63b8ff" d="M1303.26,-369.62C1293.83,-313.53 1280.42,-233.78 1272.53,-186.81"/>
<polygon fill="none" stroke="#63b8ff" points="1299.86,-370.52 1304.97,-379.8 1306.77,-369.36 1299.86,-370.52"/>
</a>
</g>
</g>
<!-- Node18 -->
<g id="Node000018" class="node">
<title>Node18</title>
<g id="a_Node000018"><a xlink:href="structint__value.html" target="_top" xlink:title=" ">
<polygon fill="white" stroke="transparent" points="1400,-179 1326,-179 1326,-115 1400,-115 1400,-179"/>
<text text-anchor="start" x="1340" y="-167" font-family="Helvetica,sans-Serif" font-size="10.00">int_value</text>
<text text-anchor="start" x="1330" y="-152" font-family="Helvetica,sans-Serif" font-size="10.00">+</text>
<text text-anchor="start" x="1343" y="-152" font-family="Helvetica,sans-Serif" font-size="10.00">value</text>
<text text-anchor="start" x="1330" y="-137" font-family="Helvetica,sans-Serif" font-size="10.00">+</text>
<text text-anchor="start" x="1343" y="-137" font-family="Helvetica,sans-Serif" font-size="10.00">int_value()</text>
<text text-anchor="start" x="1330" y="-122" font-family="Helvetica,sans-Serif" font-size="10.00">+</text>
<text text-anchor="start" x="1343" y="-122" font-family="Helvetica,sans-Serif" font-size="10.00">resolve()</text>
<polygon fill="#666666" stroke="#666666" points="1326,-162 1326,-162 1400,-162 1400,-162 1326,-162"/>
<polygon fill="#666666" stroke="#666666" points="1326,-147 1326,-147 1341,-147 1341,-147 1326,-147"/>
<polygon fill="#666666" stroke="#666666" points="1341,-147 1341,-147 1400,-147 1400,-147 1341,-147"/>
<polygon fill="none" stroke="#666666" points="1326,-115 1326,-179 1400,-179 1400,-115 1326,-115"/>
</a>
</g>
</g>
<!-- Node15&#45;&gt;Node18 -->
<g id="edge17_Node000015_Node000018" class="edge">
<title>Node15&#45;&gt;Node18</title>
<g id="a_edge17_Node000015_Node000018"><a xlink:title=" ">
<path fill="none" stroke="#63b8ff" d="M1324.93,-369.81C1335.09,-310.64 1349.79,-224.99 1357.62,-179.37"/>
<polygon fill="none" stroke="#63b8ff" points="1321.46,-369.35 1323.22,-379.8 1328.36,-370.54 1321.46,-369.35"/>
</a>
</g>
</g>
<!-- Node19 -->
<g id="Node000019" class="node">
<title>Node19</title>
<g id="a_Node000019"><a xlink:href="structname__ref.html" target="_top" xlink:title=" ">
<polygon fill="white" stroke="transparent" points="1494,-179 1418,-179 1418,-115 1494,-115 1494,-179"/>
<text text-anchor="start" x="1432.5" y="-167" font-family="Helvetica,sans-Serif" font-size="10.00">name_ref</text>
<text text-anchor="start" x="1422" y="-152" font-family="Helvetica,sans-Serif" font-size="10.00">+</text>
<text text-anchor="start" x="1435" y="-152" font-family="Helvetica,sans-Serif" font-size="10.00">name</text>
<text text-anchor="start" x="1422" y="-137" font-family="Helvetica,sans-Serif" font-size="10.00">+</text>
<text text-anchor="start" x="1435" y="-137" font-family="Helvetica,sans-Serif" font-size="10.00">name_ref()</text>
<text text-anchor="start" x="1422" y="-122" font-family="Helvetica,sans-Serif" font-size="10.00">+</text>
<text text-anchor="start" x="1435" y="-122" font-family="Helvetica,sans-Serif" font-size="10.00">resolve()</text>
<polygon fill="#666666" stroke="#666666" points="1418,-162 1418,-162 1494,-162 1494,-162 1418,-162"/>
<polygon fill="#666666" stroke="#666666" points="1418,-147 1418,-147 1433,-147 1433,-147 1418,-147"/>
<polygon fill="#666666" stroke="#666666" points="1433,-147 1433,-147 1494,-147 1494,-147 1433,-147"/>
<polygon fill="none" stroke="#666666" points="1418,-115 1418,-179 1494,-179 1494,-115 1418,-115"/>
</a>
</g>
</g>
<!-- Node15&#45;&gt;Node19 -->
<g id="edge18_Node000015_Node000019" class="edge">
<title>Node15&#45;&gt;Node19</title>
<g id="a_edge18_Node000015_Node000019"><a xlink:title=" ">
<path fill="none" stroke="#63b8ff" d="M1322.39,-369.65C1329.67,-331.22 1342.99,-282.61 1367,-245 1380.23,-224.28 1392.07,-226.83 1409,-209 1417.74,-199.79 1426.47,-189.01 1433.99,-179.1"/>
<polygon fill="none" stroke="#63b8ff" points="1318.9,-369.23 1320.57,-379.69 1325.79,-370.47 1318.9,-369.23"/>
</a>
</g>
</g>
<!-- Node20 -->
<g id="Node000020" class="node">
<title>Node20</title>
<g id="a_Node000020"><a xlink:href="structunary__operation.html" target="_top" xlink:title=" ">
<polygon fill="white" stroke="transparent" points="1621.5,-186.5 1512.5,-186.5 1512.5,-107.5 1621.5,-107.5 1621.5,-186.5"/>
<text text-anchor="start" x="1527.5" y="-174" font-family="Helvetica,sans-Serif" font-size="10.00">unary_operation</text>
<text text-anchor="start" x="1517" y="-159" font-family="Helvetica,sans-Serif" font-size="10.00">+</text>
<text text-anchor="start" x="1530" y="-159" font-family="Helvetica,sans-Serif" font-size="10.00">arg</text>
<text text-anchor="start" x="1517" y="-144" font-family="Helvetica,sans-Serif" font-size="10.00">+</text>
<text text-anchor="start" x="1530" y="-144" font-family="Helvetica,sans-Serif" font-size="10.00">op</text>
<text text-anchor="start" x="1517" y="-129" font-family="Helvetica,sans-Serif" font-size="10.00">+</text>
<text text-anchor="start" x="1530" y="-129" font-family="Helvetica,sans-Serif" font-size="10.00">resolve()</text>
<text text-anchor="start" x="1517" y="-114" font-family="Helvetica,sans-Serif" font-size="10.00">+</text>
<text text-anchor="start" x="1530" y="-114" font-family="Helvetica,sans-Serif" font-size="10.00">unary_operation()</text>
<polygon fill="#666666" stroke="#666666" points="1513,-169 1513,-169 1622,-169 1622,-169 1513,-169"/>
<polygon fill="#666666" stroke="#666666" points="1513,-139 1513,-139 1528,-139 1528,-139 1513,-139"/>
<polygon fill="#666666" stroke="#666666" points="1528,-139 1528,-139 1622,-139 1622,-139 1528,-139"/>
<polygon fill="none" stroke="#666666" points="1512.5,-107.5 1512.5,-186.5 1621.5,-186.5 1621.5,-107.5 1512.5,-107.5"/>
</a>
</g>
</g>
<!-- Node15&#45;&gt;Node20 -->
<g id="edge19_Node000015_Node000020" class="edge">
<title>Node15&#45;&gt;Node20</title>
<g id="a_edge19_Node000015_Node000020"><a xlink:title=" ">
<path fill="none" stroke="#63b8ff" d="M1316.31,-369.44C1321.16,-328.59 1334.06,-277.43 1367,-245 1411.55,-201.13 1448.43,-239.53 1503,-209 1513.58,-203.08 1523.73,-195 1532.7,-186.67"/>
<polygon fill="none" stroke="#63b8ff" points="1312.81,-369.27 1315.24,-379.58 1319.77,-370 1312.81,-369.27"/>
</a>
</g>
</g>
</g>
</svg>
