<?xml version="1.0" encoding="UTF-8" standalone="no"?>
<!DOCTYPE svg PUBLIC "-//W3C//DTD SVG 1.1//EN"
 "http://www.w3.org/Graphics/SVG/1.1/DTD/svg11.dtd">
<!-- Generated by graphviz version 2.43.0 (0)
 -->
<!-- Title: clocks_hw_t Pages: 1 -->
<svg width="272pt" height="408pt"
 viewBox="0.00 0.00 271.50 408.00" xmlns="http://www.w3.org/2000/svg" xmlns:xlink="http://www.w3.org/1999/xlink">
<g id="graph0" class="graph" transform="scale(1 1) rotate(0) translate(4 404)">
<title>clocks_hw_t</title>
<!-- Node1 -->
<g id="Node000001" class="node">
<title>Node1</title>
<g id="a_Node000001"><a xlink:title=" ">
<polygon fill="#999999" stroke="transparent" points="182,-199 81,-199 81,0 182,0 182,-199"/>
<text text-anchor="start" x="102" y="-186.5" font-family="Helvetica,sans-Serif" font-size="10.00">clocks_hw_t</text>
<text text-anchor="start" x="85.5" y="-171.5" font-family="Helvetica,sans-Serif" font-size="10.00">+</text>
<text text-anchor="start" x="98.5" y="-171.5" font-family="Helvetica,sans-Serif" font-size="10.00">@3</text>
<text text-anchor="start" x="85.5" y="-156.5" font-family="Helvetica,sans-Serif" font-size="10.00">+</text>
<text text-anchor="start" x="98.5" y="-156.5" font-family="Helvetica,sans-Serif" font-size="10.00">@35</text>
<text text-anchor="start" x="85.5" y="-141.5" font-family="Helvetica,sans-Serif" font-size="10.00">+</text>
<text text-anchor="start" x="98.5" y="-141.5" font-family="Helvetica,sans-Serif" font-size="10.00">@37</text>
<text text-anchor="start" x="85.5" y="-126.5" font-family="Helvetica,sans-Serif" font-size="10.00">+</text>
<text text-anchor="start" x="98.5" y="-126.5" font-family="Helvetica,sans-Serif" font-size="10.00">@39</text>
<text text-anchor="start" x="85.5" y="-111.5" font-family="Helvetica,sans-Serif" font-size="10.00">+</text>
<text text-anchor="start" x="98.5" y="-111.5" font-family="Helvetica,sans-Serif" font-size="10.00">@5</text>
<text text-anchor="start" x="85.5" y="-96.5" font-family="Helvetica,sans-Serif" font-size="10.00">+</text>
<text text-anchor="start" x="98.5" y="-96.5" font-family="Helvetica,sans-Serif" font-size="10.00">@7</text>
<text text-anchor="start" x="85.5" y="-81.5" font-family="Helvetica,sans-Serif" font-size="10.00">+</text>
<text text-anchor="start" x="98.5" y="-81.5" font-family="Helvetica,sans-Serif" font-size="10.00">dftclk_lposc_ctrl</text>
<text text-anchor="start" x="85.5" y="-66.5" font-family="Helvetica,sans-Serif" font-size="10.00">+</text>
<text text-anchor="start" x="98.5" y="-66.5" font-family="Helvetica,sans-Serif" font-size="10.00">dftclk_rosc_ctrl</text>
<text text-anchor="start" x="85.5" y="-51.5" font-family="Helvetica,sans-Serif" font-size="10.00">+</text>
<text text-anchor="start" x="98.5" y="-51.5" font-family="Helvetica,sans-Serif" font-size="10.00">dftclk_xosc_ctrl</text>
<text text-anchor="start" x="85.5" y="-36.5" font-family="Helvetica,sans-Serif" font-size="10.00">+</text>
<text text-anchor="start" x="98.5" y="-36.5" font-family="Helvetica,sans-Serif" font-size="10.00">enabled</text>
<text text-anchor="start" x="98.5" y="-21.5" font-family="Helvetica,sans-Serif" font-size="10.00">e 12 mais...</text>
<text text-anchor="start" x="128.5" y="-6.5" font-family="Helvetica,sans-Serif" font-size="10.00"> </text>
<polygon fill="#666666" stroke="#666666" points="81.5,-181.5 81.5,-181.5 182.5,-181.5 182.5,-181.5 81.5,-181.5"/>
<polygon fill="#666666" stroke="#666666" points="81.5,-16.5 81.5,-16.5 96.5,-16.5 96.5,-16.5 81.5,-16.5"/>
<polygon fill="#666666" stroke="#666666" points="96.5,-16.5 96.5,-16.5 182.5,-16.5 182.5,-16.5 96.5,-16.5"/>
<polygon fill="none" stroke="#666666" points="81,0 81,-199 182,-199 182,0 81,0"/>
</a>
</g>
</g>
<!-- Node2 -->
<g id="Node000002" class="node">
<title>Node2</title>
<g id="a_Node000002"><a xlink:href="structclock__hw__t.html" target="_top" xlink:title="\tag::clock_hw[]">
<polygon fill="white" stroke="transparent" points="65,-362.5 0,-362.5 0,-283.5 65,-283.5 65,-362.5"/>
<text text-anchor="start" x="5.5" y="-350" font-family="Helvetica,sans-Serif" font-size="10.00">clock_hw_t</text>
<text text-anchor="start" x="5" y="-335" font-family="Helvetica,sans-Serif" font-size="10.00">+</text>
<text text-anchor="start" x="18.5" y="-335" font-family="Helvetica,sans-Serif" font-size="10.00">ctrl</text>
<text text-anchor="start" x="5" y="-320" font-family="Helvetica,sans-Serif" font-size="10.00">+</text>
<text text-anchor="start" x="18.5" y="-320" font-family="Helvetica,sans-Serif" font-size="10.00">div</text>
<text text-anchor="start" x="5" y="-305" font-family="Helvetica,sans-Serif" font-size="10.00">+</text>
<text text-anchor="start" x="18.5" y="-305" font-family="Helvetica,sans-Serif" font-size="10.00">selected</text>
<text text-anchor="start" x="29.5" y="-290" font-family="Helvetica,sans-Serif" font-size="10.00"> </text>
<polygon fill="#666666" stroke="#666666" points="0.5,-345 0.5,-345 65.5,-345 65.5,-345 0.5,-345"/>
<polygon fill="#666666" stroke="#666666" points="0.5,-300 0.5,-300 16.5,-300 16.5,-300 0.5,-300"/>
<polygon fill="#666666" stroke="#666666" points="16.5,-300 16.5,-300 65.5,-300 65.5,-300 16.5,-300"/>
<polygon fill="none" stroke="#666666" points="0,-283.5 0,-362.5 65,-362.5 65,-283.5 0,-283.5"/>
</a>
</g>
</g>
<!-- Node2&#45;&gt;Node1 -->
<g id="edge1_Node000001_Node000002" class="edge">
<title>Node2&#45;&gt;Node1</title>
<g id="a_edge1_Node000001_Node000002"><a xlink:title=" ">
<path fill="none" stroke="#63b8ff" d="M49.74,-283.42C58.91,-262.92 70.68,-236.58 82.42,-210.31"/>
<polygon fill="none" stroke="#63b8ff" points="82.55,-210.03 81.34,-202.92 87.44,-199.07 88.65,-206.18 82.55,-210.03"/>
</a>
</g>
<text text-anchor="middle" x="92.5" y="-220" font-family="Helvetica,sans-Serif" font-size="10.00" fill="grey"> +clk</text>
</g>
<!-- Node3 -->
<g id="Node000003" class="node">
<title>Node3</title>
<g id="a_Node000003"><a xlink:href="structclock__resus__hw__t.html" target="_top" xlink:title="\end::clock_hw[]">
<polygon fill="white" stroke="transparent" points="179.5,-355 83.5,-355 83.5,-291 179.5,-291 179.5,-355"/>
<text text-anchor="start" x="88.5" y="-343" font-family="Helvetica,sans-Serif" font-size="10.00">clock_resus_hw_t</text>
<text text-anchor="start" x="98.5" y="-328" font-family="Helvetica,sans-Serif" font-size="10.00">+</text>
<text text-anchor="start" x="122.5" y="-328" font-family="Helvetica,sans-Serif" font-size="10.00">ctrl</text>
<text text-anchor="start" x="98.5" y="-313" font-family="Helvetica,sans-Serif" font-size="10.00">+</text>
<text text-anchor="start" x="122.5" y="-313" font-family="Helvetica,sans-Serif" font-size="10.00">status</text>
<text text-anchor="start" x="128" y="-298" font-family="Helvetica,sans-Serif" font-size="10.00"> </text>
<polygon fill="#666666" stroke="#666666" points="83.5,-338 83.5,-338 179.5,-338 179.5,-338 83.5,-338"/>
<polygon fill="#666666" stroke="#666666" points="83.5,-308 83.5,-308 120.5,-308 120.5,-308 83.5,-308"/>
<polygon fill="#666666" stroke="#666666" points="120.5,-308 120.5,-308 179.5,-308 179.5,-308 120.5,-308"/>
<polygon fill="none" stroke="#666666" points="83.5,-291 83.5,-355 179.5,-355 179.5,-291 83.5,-291"/>
</a>
</g>
</g>
<!-- Node3&#45;&gt;Node1 -->
<g id="edge2_Node000001_Node000003" class="edge">
<title>Node3&#45;&gt;Node1</title>
<g id="a_edge2_Node000001_Node000003"><a xlink:title=" ">
<path fill="none" stroke="#63b8ff" d="M131.5,-290.73C131.5,-269.67 131.5,-240.49 131.5,-211.31"/>
<polygon fill="none" stroke="#63b8ff" points="131.5,-211.27 127.5,-205.27 131.5,-199.27 135.5,-205.27 131.5,-211.27"/>
</a>
</g>
<text text-anchor="middle" x="150.5" y="-220" font-family="Helvetica,sans-Serif" font-size="10.00" fill="grey"> +resus</text>
</g>
<!-- Node4 -->
<g id="Node000004" class="node">
<title>Node4</title>
<g id="a_Node000004"><a xlink:href="structfc__hw__t.html" target="_top" xlink:title=" ">
<polygon fill="white" stroke="transparent" points="263.5,-400 197.5,-400 197.5,-246 263.5,-246 263.5,-400"/>
<text text-anchor="start" x="211.5" y="-388" font-family="Helvetica,sans-Serif" font-size="10.00">fc_hw_t</text>
<text text-anchor="start" x="201.5" y="-373" font-family="Helvetica,sans-Serif" font-size="10.00">+</text>
<text text-anchor="start" x="214.5" y="-373" font-family="Helvetica,sans-Serif" font-size="10.00">delay</text>
<text text-anchor="start" x="201.5" y="-358" font-family="Helvetica,sans-Serif" font-size="10.00">+</text>
<text text-anchor="start" x="214.5" y="-358" font-family="Helvetica,sans-Serif" font-size="10.00">interval</text>
<text text-anchor="start" x="201.5" y="-343" font-family="Helvetica,sans-Serif" font-size="10.00">+</text>
<text text-anchor="start" x="214.5" y="-343" font-family="Helvetica,sans-Serif" font-size="10.00">max_khz</text>
<text text-anchor="start" x="201.5" y="-328" font-family="Helvetica,sans-Serif" font-size="10.00">+</text>
<text text-anchor="start" x="214.5" y="-328" font-family="Helvetica,sans-Serif" font-size="10.00">min_khz</text>
<text text-anchor="start" x="201.5" y="-313" font-family="Helvetica,sans-Serif" font-size="10.00">+</text>
<text text-anchor="start" x="214.5" y="-313" font-family="Helvetica,sans-Serif" font-size="10.00">ref_khz</text>
<text text-anchor="start" x="201.5" y="-298" font-family="Helvetica,sans-Serif" font-size="10.00">+</text>
<text text-anchor="start" x="214.5" y="-298" font-family="Helvetica,sans-Serif" font-size="10.00">result</text>
<text text-anchor="start" x="201.5" y="-283" font-family="Helvetica,sans-Serif" font-size="10.00">+</text>
<text text-anchor="start" x="214.5" y="-283" font-family="Helvetica,sans-Serif" font-size="10.00">src</text>
<text text-anchor="start" x="201.5" y="-268" font-family="Helvetica,sans-Serif" font-size="10.00">+</text>
<text text-anchor="start" x="214.5" y="-268" font-family="Helvetica,sans-Serif" font-size="10.00">status</text>
<text text-anchor="start" x="227" y="-253" font-family="Helvetica,sans-Serif" font-size="10.00"> </text>
<polygon fill="#666666" stroke="#666666" points="197.5,-383 197.5,-383 263.5,-383 263.5,-383 197.5,-383"/>
<polygon fill="#666666" stroke="#666666" points="197.5,-263 197.5,-263 212.5,-263 212.5,-263 197.5,-263"/>
<polygon fill="#666666" stroke="#666666" points="212.5,-263 212.5,-263 263.5,-263 263.5,-263 212.5,-263"/>
<polygon fill="none" stroke="#666666" points="197.5,-246 197.5,-400 263.5,-400 263.5,-246 197.5,-246"/>
</a>
</g>
</g>
<!-- Node4&#45;&gt;Node1 -->
<g id="edge3_Node000001_Node000004" class="edge">
<title>Node4&#45;&gt;Node1</title>
<g id="a_edge3_Node000001_Node000004"><a xlink:title=" ">
<path fill="none" stroke="#63b8ff" d="M197.4,-247.94C192.01,-235.87 186.32,-223.16 180.65,-210.46"/>
<polygon fill="none" stroke="#63b8ff" points="180.56,-210.27 174.46,-206.42 175.67,-199.31 181.77,-203.16 180.56,-210.27"/>
</a>
</g>
<text text-anchor="middle" x="200" y="-220" font-family="Helvetica,sans-Serif" font-size="10.00" fill="grey"> +fc0</text>
</g>
</g>
</svg>
