<?xml version="1.0" encoding="UTF-8" standalone="no"?>
<!DOCTYPE svg PUBLIC "-//W3C//DTD SVG 1.1//EN"
 "http://www.w3.org/Graphics/SVG/1.1/DTD/svg11.dtd">
<!-- Generated by graphviz version 2.43.0 (0)
 -->
<!-- Title: _binary_info_id_and_string Pages: 1 -->
<svg width="116pt" height="179pt"
 viewBox="0.00 0.00 116.00 179.00" xmlns="http://www.w3.org/2000/svg" xmlns:xlink="http://www.w3.org/1999/xlink">
<g id="graph0" class="graph" transform="scale(1 1) rotate(0) translate(4 175)">
<title>_binary_info_id_and_string</title>
<!-- Node1 -->
<g id="Node000001" class="node">
<title>Node1</title>
<g id="a_Node000001"><a xlink:title=" ">
<polygon fill="#999999" stroke="transparent" points="108,-60 0,-60 0,0 108,0 108,-60"/>
<text text-anchor="start" x="5" y="-48" font-family="Helvetica,sans-Serif" font-size="10.00">_binary_info_id_and</text>
<text text-anchor="start" x="37" y="-37" font-family="Helvetica,sans-Serif" font-size="10.00">_string</text>
<text text-anchor="start" x="13" y="-22" font-family="Helvetica,sans-Serif" font-size="10.00">+</text>
<text text-anchor="start" x="35" y="-22" font-family="Helvetica,sans-Serif" font-size="10.00">id</text>
<text text-anchor="start" x="13" y="-7" font-family="Helvetica,sans-Serif" font-size="10.00">+</text>
<text text-anchor="start" x="35" y="-7" font-family="Helvetica,sans-Serif" font-size="10.00">bi_ptr_of()</text>
<polygon fill="#666666" stroke="#666666" points="0,-32 0,-32 108,-32 108,-32 0,-32"/>
<polygon fill="#666666" stroke="#666666" points="0,-17 0,-17 33,-17 33,-17 0,-17"/>
<polygon fill="#666666" stroke="#666666" points="33,-17 33,-17 108,-17 108,-17 33,-17"/>
<polygon fill="none" stroke="#666666" points="0,0 0,-60 108,-60 108,0 0,0"/>
</a>
</g>
</g>
<!-- Node2 -->
<g id="Node000002" class="node">
<title>Node2</title>
<g id="a_Node000002"><a xlink:href="struct__binary__info__core.html" target="_top" xlink:title=" ">
<polygon fill="white" stroke="transparent" points="102.5,-171 5.5,-171 5.5,-107 102.5,-107 102.5,-171"/>
<text text-anchor="start" x="11" y="-159" font-family="Helvetica,sans-Serif" font-size="10.00">_binary_info_core</text>
<text text-anchor="start" x="23.5" y="-144" font-family="Helvetica,sans-Serif" font-size="10.00">+</text>
<text text-anchor="start" x="50" y="-144" font-family="Helvetica,sans-Serif" font-size="10.00">tag</text>
<text text-anchor="start" x="23.5" y="-129" font-family="Helvetica,sans-Serif" font-size="10.00">+</text>
<text text-anchor="start" x="50" y="-129" font-family="Helvetica,sans-Serif" font-size="10.00">type</text>
<text text-anchor="start" x="51" y="-114" font-family="Helvetica,sans-Serif" font-size="10.00"> </text>
<polygon fill="#666666" stroke="#666666" points="6,-154 6,-154 103,-154 103,-154 6,-154"/>
<polygon fill="#666666" stroke="#666666" points="6,-124 6,-124 48,-124 48,-124 6,-124"/>
<polygon fill="#666666" stroke="#666666" points="48,-124 48,-124 103,-124 103,-124 48,-124"/>
<polygon fill="none" stroke="#666666" points="5.5,-107 5.5,-171 102.5,-171 102.5,-107 5.5,-107"/>
</a>
</g>
</g>
<!-- Node2&#45;&gt;Node1 -->
<g id="edge1_Node000001_Node000002" class="edge">
<title>Node2&#45;&gt;Node1</title>
<g id="a_edge1_Node000001_Node000002"><a xlink:title=" ">
<path fill="none" stroke="#63b8ff" d="M54,-106.76C54,-95.98 54,-83.73 54,-72.27"/>
<polygon fill="none" stroke="#63b8ff" points="54,-72.26 50,-66.26 54,-60.26 58,-66.26 54,-72.26"/>
</a>
</g>
<text text-anchor="middle" x="70.5" y="-81" font-family="Helvetica,sans-Serif" font-size="10.00" fill="grey"> +core</text>
</g>
</g>
</svg>
