<?xml version="1.0" encoding="UTF-8" standalone="no"?>
<!DOCTYPE svg PUBLIC "-//W3C//DTD SVG 1.1//EN"
 "http://www.w3.org/Graphics/SVG/1.1/DTD/svg11.dtd">
<!-- Generated by graphviz version 2.43.0 (0)
 -->
<!-- Title: i2c_slave Pages: 1 -->
<svg width="129pt" height="399pt"
 viewBox="0.00 0.00 129.00 399.00" xmlns="http://www.w3.org/2000/svg" xmlns:xlink="http://www.w3.org/1999/xlink">
<g id="graph0" class="graph" transform="scale(1 1) rotate(0) translate(4 395)">
<title>i2c_slave</title>
<!-- Node1 -->
<g id="Node000001" class="node">
<title>Node1</title>
<g id="a_Node000001"><a xlink:title=" ">
<polygon fill="#999999" stroke="transparent" points="121,-49 0,-49 0,0 121,0 121,-49"/>
<text text-anchor="start" x="38" y="-36.5" font-family="Helvetica,sans-Serif" font-size="10.00">i2c_slave</text>
<text text-anchor="start" x="4.5" y="-21.5" font-family="Helvetica,sans-Serif" font-size="10.00">+</text>
<text text-anchor="start" x="17.5" y="-21.5" font-family="Helvetica,sans-Serif" font-size="10.00">transfer_in_progress</text>
<text text-anchor="start" x="57.5" y="-6.5" font-family="Helvetica,sans-Serif" font-size="10.00"> </text>
<polygon fill="#666666" stroke="#666666" points="0.5,-31.5 0.5,-31.5 121.5,-31.5 121.5,-31.5 0.5,-31.5"/>
<polygon fill="#666666" stroke="#666666" points="0.5,-16.5 0.5,-16.5 15.5,-16.5 15.5,-16.5 0.5,-16.5"/>
<polygon fill="#666666" stroke="#666666" points="15.5,-16.5 15.5,-16.5 121.5,-16.5 121.5,-16.5 15.5,-16.5"/>
<polygon fill="none" stroke="#666666" points="0,0 0,-49 121,-49 121,0 0,0"/>
</a>
</g>
</g>
<!-- Node2 -->
<g id="Node000002" class="node">
<title>Node2</title>
<g id="a_Node000002"><a xlink:href="structi2c__inst.html" target="_top" xlink:title=" ">
<polygon fill="white" stroke="transparent" points="109.5,-145 11.5,-145 11.5,-96 109.5,-96 109.5,-145"/>
<text text-anchor="start" x="41.5" y="-132.5" font-family="Helvetica,sans-Serif" font-size="10.00">i2c_inst</text>
<text text-anchor="start" x="15.5" y="-117.5" font-family="Helvetica,sans-Serif" font-size="10.00">+</text>
<text text-anchor="start" x="28.5" y="-117.5" font-family="Helvetica,sans-Serif" font-size="10.00">restart_on_next</text>
<text text-anchor="start" x="57" y="-102.5" font-family="Helvetica,sans-Serif" font-size="10.00"> </text>
<polygon fill="#666666" stroke="#666666" points="11.5,-127.5 11.5,-127.5 109.5,-127.5 109.5,-127.5 11.5,-127.5"/>
<polygon fill="#666666" stroke="#666666" points="11.5,-112.5 11.5,-112.5 26.5,-112.5 26.5,-112.5 11.5,-112.5"/>
<polygon fill="#666666" stroke="#666666" points="26.5,-112.5 26.5,-112.5 109.5,-112.5 109.5,-112.5 26.5,-112.5"/>
<polygon fill="none" stroke="#666666" points="11.5,-96 11.5,-145 109.5,-145 109.5,-96 11.5,-96"/>
</a>
</g>
</g>
<!-- Node2&#45;&gt;Node1 -->
<g id="edge1_Node000001_Node000002" class="edge">
<title>Node2&#45;&gt;Node1</title>
<g id="a_edge1_Node000001_Node000002"><a xlink:title=" ">
<path fill="none" stroke="#63b8ff" d="M60.5,-95.78C60.5,-85.32 60.5,-72.79 60.5,-61.23"/>
<polygon fill="none" stroke="#63b8ff" points="60.5,-61.21 56.5,-55.21 60.5,-49.21 64.5,-55.21 60.5,-61.21"/>
</a>
</g>
<text text-anchor="middle" x="85" y="-70" font-family="Helvetica,sans-Serif" font-size="10.00" fill="grey"> +handler</text>
</g>
<!-- Node3 -->
<g id="Node000003" class="node">
<title>Node3</title>
<g id="a_Node000003"><a xlink:href="structi2c__hw__t.html" target="_top" xlink:title=" ">
<polygon fill="white" stroke="transparent" points="112,-391 9,-391 9,-192 112,-192 112,-391"/>
<text text-anchor="start" x="39.5" y="-378.5" font-family="Helvetica,sans-Serif" font-size="10.00">i2c_hw_t</text>
<text text-anchor="start" x="13.5" y="-363.5" font-family="Helvetica,sans-Serif" font-size="10.00">+</text>
<text text-anchor="start" x="26.5" y="-363.5" font-family="Helvetica,sans-Serif" font-size="10.00">_pad0</text>
<text text-anchor="start" x="13.5" y="-348.5" font-family="Helvetica,sans-Serif" font-size="10.00">+</text>
<text text-anchor="start" x="26.5" y="-348.5" font-family="Helvetica,sans-Serif" font-size="10.00">_pad1</text>
<text text-anchor="start" x="13.5" y="-333.5" font-family="Helvetica,sans-Serif" font-size="10.00">+</text>
<text text-anchor="start" x="26.5" y="-333.5" font-family="Helvetica,sans-Serif" font-size="10.00">_pad2</text>
<text text-anchor="start" x="13.5" y="-318.5" font-family="Helvetica,sans-Serif" font-size="10.00">+</text>
<text text-anchor="start" x="26.5" y="-318.5" font-family="Helvetica,sans-Serif" font-size="10.00">_pad3</text>
<text text-anchor="start" x="13.5" y="-303.5" font-family="Helvetica,sans-Serif" font-size="10.00">+</text>
<text text-anchor="start" x="26.5" y="-303.5" font-family="Helvetica,sans-Serif" font-size="10.00">ack_general_call</text>
<text text-anchor="start" x="13.5" y="-288.5" font-family="Helvetica,sans-Serif" font-size="10.00">+</text>
<text text-anchor="start" x="26.5" y="-288.5" font-family="Helvetica,sans-Serif" font-size="10.00">clr_activity</text>
<text text-anchor="start" x="13.5" y="-273.5" font-family="Helvetica,sans-Serif" font-size="10.00">+</text>
<text text-anchor="start" x="26.5" y="-273.5" font-family="Helvetica,sans-Serif" font-size="10.00">clr_gen_call</text>
<text text-anchor="start" x="13.5" y="-258.5" font-family="Helvetica,sans-Serif" font-size="10.00">+</text>
<text text-anchor="start" x="26.5" y="-258.5" font-family="Helvetica,sans-Serif" font-size="10.00">clr_intr</text>
<text text-anchor="start" x="13.5" y="-243.5" font-family="Helvetica,sans-Serif" font-size="10.00">+</text>
<text text-anchor="start" x="26.5" y="-243.5" font-family="Helvetica,sans-Serif" font-size="10.00">clr_rd_req</text>
<text text-anchor="start" x="13.5" y="-228.5" font-family="Helvetica,sans-Serif" font-size="10.00">+</text>
<text text-anchor="start" x="26.5" y="-228.5" font-family="Helvetica,sans-Serif" font-size="10.00">clr_restart_det</text>
<text text-anchor="start" x="26.5" y="-213.5" font-family="Helvetica,sans-Serif" font-size="10.00">e 36 mais...</text>
<text text-anchor="start" x="57.5" y="-198.5" font-family="Helvetica,sans-Serif" font-size="10.00"> </text>
<polygon fill="#666666" stroke="#666666" points="9.5,-373.5 9.5,-373.5 112.5,-373.5 112.5,-373.5 9.5,-373.5"/>
<polygon fill="#666666" stroke="#666666" points="9.5,-208.5 9.5,-208.5 24.5,-208.5 24.5,-208.5 9.5,-208.5"/>
<polygon fill="#666666" stroke="#666666" points="24.5,-208.5 24.5,-208.5 112.5,-208.5 112.5,-208.5 24.5,-208.5"/>
<polygon fill="none" stroke="#666666" points="9,-192 9,-391 112,-391 112,-192 9,-192"/>
</a>
</g>
</g>
<!-- Node3&#45;&gt;Node2 -->
<g id="edge2_Node000002_Node000003" class="edge">
<title>Node3&#45;&gt;Node2</title>
<g id="a_edge2_Node000002_Node000003"><a xlink:title=" ">
<path fill="none" stroke="#63b8ff" d="M60.5,-191.7C60.5,-179.51 60.5,-167.73 60.5,-157.42"/>
<polygon fill="none" stroke="#63b8ff" points="60.5,-157.21 56.5,-151.21 60.5,-145.21 64.5,-151.21 60.5,-157.21"/>
</a>
</g>
<text text-anchor="middle" x="73.5" y="-166" font-family="Helvetica,sans-Serif" font-size="10.00" fill="grey"> +hw</text>
</g>
</g>
</svg>
