<?xml version="1.0" encoding="UTF-8" standalone="no"?>
<!DOCTYPE svg PUBLIC "-//W3C//DTD SVG 1.1//EN"
 "http://www.w3.org/Graphics/SVG/1.1/DTD/svg11.dtd">
<!-- Generated by graphviz version 2.43.0 (0)
 -->
<!-- Title: SHA256_Type Pages: 1 -->
<svg width="85pt" height="192pt"
 viewBox="0.00 0.00 85.00 192.00" xmlns="http://www.w3.org/2000/svg" xmlns:xlink="http://www.w3.org/1999/xlink">
<g id="graph0" class="graph" transform="scale(1 1) rotate(0) translate(4 188)">
<title>SHA256_Type</title>
<!-- Node1 -->
<g id="Node000001" class="node">
<title>Node1</title>
<g id="a_Node000001"><a xlink:title="SHA&#45;256 hash function implementation (SHA256)">
<polygon fill="#999999" stroke="transparent" points="77,-184 0,-184 0,0 77,0 77,-184"/>
<text text-anchor="start" x="5.5" y="-172" font-family="Helvetica,sans-Serif" font-size="10.00">SHA256_Type</text>
<text text-anchor="start" x="9.5" y="-157" font-family="Helvetica,sans-Serif" font-size="10.00">+</text>
<text text-anchor="start" x="27.5" y="-157" font-family="Helvetica,sans-Serif" font-size="10.00">CSR</text>
<text text-anchor="start" x="9.5" y="-142" font-family="Helvetica,sans-Serif" font-size="10.00">+</text>
<text text-anchor="start" x="27.5" y="-142" font-family="Helvetica,sans-Serif" font-size="10.00">SUM0</text>
<text text-anchor="start" x="9.5" y="-127" font-family="Helvetica,sans-Serif" font-size="10.00">+</text>
<text text-anchor="start" x="27.5" y="-127" font-family="Helvetica,sans-Serif" font-size="10.00">SUM1</text>
<text text-anchor="start" x="9.5" y="-112" font-family="Helvetica,sans-Serif" font-size="10.00">+</text>
<text text-anchor="start" x="27.5" y="-112" font-family="Helvetica,sans-Serif" font-size="10.00">SUM2</text>
<text text-anchor="start" x="9.5" y="-97" font-family="Helvetica,sans-Serif" font-size="10.00">+</text>
<text text-anchor="start" x="27.5" y="-97" font-family="Helvetica,sans-Serif" font-size="10.00">SUM3</text>
<text text-anchor="start" x="9.5" y="-82" font-family="Helvetica,sans-Serif" font-size="10.00">+</text>
<text text-anchor="start" x="27.5" y="-82" font-family="Helvetica,sans-Serif" font-size="10.00">SUM4</text>
<text text-anchor="start" x="9.5" y="-67" font-family="Helvetica,sans-Serif" font-size="10.00">+</text>
<text text-anchor="start" x="27.5" y="-67" font-family="Helvetica,sans-Serif" font-size="10.00">SUM5</text>
<text text-anchor="start" x="9.5" y="-52" font-family="Helvetica,sans-Serif" font-size="10.00">+</text>
<text text-anchor="start" x="27.5" y="-52" font-family="Helvetica,sans-Serif" font-size="10.00">SUM6</text>
<text text-anchor="start" x="9.5" y="-37" font-family="Helvetica,sans-Serif" font-size="10.00">+</text>
<text text-anchor="start" x="27.5" y="-37" font-family="Helvetica,sans-Serif" font-size="10.00">SUM7</text>
<text text-anchor="start" x="9.5" y="-22" font-family="Helvetica,sans-Serif" font-size="10.00">+</text>
<text text-anchor="start" x="27.5" y="-22" font-family="Helvetica,sans-Serif" font-size="10.00">WDATA</text>
<text text-anchor="start" x="35.5" y="-7" font-family="Helvetica,sans-Serif" font-size="10.00"> </text>
<polygon fill="#666666" stroke="#666666" points="0.5,-167 0.5,-167 77.5,-167 77.5,-167 0.5,-167"/>
<polygon fill="#666666" stroke="#666666" points="0.5,-17 0.5,-17 25.5,-17 25.5,-17 0.5,-17"/>
<polygon fill="#666666" stroke="#666666" points="25.5,-17 25.5,-17 77.5,-17 77.5,-17 25.5,-17"/>
<polygon fill="none" stroke="#666666" points="0,0 0,-184 77,-184 77,0 0,0"/>
</a>
</g>
</g>
</g>
</svg>
