<?xml version="1.0" encoding="UTF-8" standalone="no"?>
<!DOCTYPE svg PUBLIC "-//W3C//DTD SVG 1.1//EN"
 "http://www.w3.org/Graphics/SVG/1.1/DTD/svg11.dtd">
<!-- Generated by graphviz version 2.43.0 (0)
 -->
<!-- Title: instruction Pages: 1 -->
<svg width="104pt" height="661pt"
 viewBox="0.00 0.00 104.00 661.00" xmlns="http://www.w3.org/2000/svg" xmlns:xlink="http://www.w3.org/1999/xlink">
<g id="graph0" class="graph" transform="scale(1 1) rotate(0) translate(4 657)">
<title>instruction</title>
<!-- Node1 -->
<g id="Node000001" class="node">
<title>Node1</title>
<g id="a_Node000001"><a xlink:title=" ">
<polygon fill="#999999" stroke="transparent" points="90,-109 0,-109 0,0 90,0 90,-109"/>
<text text-anchor="start" x="19" y="-96.5" font-family="Helvetica,sans-Serif" font-size="10.00">instruction</text>
<text text-anchor="start" x="4" y="-81.5" font-family="Helvetica,sans-Serif" font-size="10.00">+</text>
<text text-anchor="start" x="17" y="-81.5" font-family="Helvetica,sans-Serif" font-size="10.00">delay</text>
<text text-anchor="start" x="4" y="-66.5" font-family="Helvetica,sans-Serif" font-size="10.00">+</text>
<text text-anchor="start" x="17" y="-66.5" font-family="Helvetica,sans-Serif" font-size="10.00">sideset</text>
<text text-anchor="start" x="4" y="-51.5" font-family="Helvetica,sans-Serif" font-size="10.00">+</text>
<text text-anchor="start" x="17" y="-51.5" font-family="Helvetica,sans-Serif" font-size="10.00">encode()</text>
<text text-anchor="start" x="4" y="-36.5" font-family="Helvetica,sans-Serif" font-size="10.00">+</text>
<text text-anchor="start" x="17" y="-36.5" font-family="Helvetica,sans-Serif" font-size="10.00">instruction()</text>
<text text-anchor="start" x="4" y="-21.5" font-family="Helvetica,sans-Serif" font-size="10.00">+</text>
<text text-anchor="start" x="17" y="-21.5" font-family="Helvetica,sans-Serif" font-size="10.00">pre_validate()</text>
<text text-anchor="start" x="4" y="-6.5" font-family="Helvetica,sans-Serif" font-size="10.00">+</text>
<text text-anchor="start" x="17" y="-6.5" font-family="Helvetica,sans-Serif" font-size="10.00">raw_encode()</text>
<polygon fill="#666666" stroke="#666666" points="0,-91.5 0,-91.5 90,-91.5 90,-91.5 0,-91.5"/>
<polygon fill="#666666" stroke="#666666" points="0,-61.5 0,-61.5 15,-61.5 15,-61.5 0,-61.5"/>
<polygon fill="#666666" stroke="#666666" points="15,-61.5 15,-61.5 90,-61.5 90,-61.5 15,-61.5"/>
<polygon fill="none" stroke="#666666" points="0,0 0,-109 90,-109 90,0 0,0"/>
</a>
</g>
</g>
<!-- Node2 -->
<g id="Node000002" class="node">
<title>Node2</title>
<g id="a_Node000002"><a xlink:href="structsrc__item.html" target="_top" xlink:title=" ">
<polygon fill="white" stroke="transparent" points="80.5,-210 9.5,-210 9.5,-146 80.5,-146 80.5,-210"/>
<text text-anchor="start" x="24" y="-198" font-family="Helvetica,sans-Serif" font-size="10.00">src_item</text>
<text text-anchor="start" x="42" y="-183" font-family="Helvetica,sans-Serif" font-size="10.00"> </text>
<text text-anchor="start" x="14" y="-168" font-family="Helvetica,sans-Serif" font-size="10.00">+</text>
<text text-anchor="start" x="27" y="-168" font-family="Helvetica,sans-Serif" font-size="10.00">src_item()</text>
<text text-anchor="start" x="14" y="-153" font-family="Helvetica,sans-Serif" font-size="10.00">+</text>
<text text-anchor="start" x="27" y="-153" font-family="Helvetica,sans-Serif" font-size="10.00">src_item()</text>
<polygon fill="#666666" stroke="#666666" points="10,-193 10,-193 81,-193 81,-193 10,-193"/>
<polygon fill="#666666" stroke="#666666" points="10,-178 10,-178 81,-178 81,-178 10,-178"/>
<polygon fill="none" stroke="#666666" points="9.5,-146 9.5,-210 80.5,-210 80.5,-146 9.5,-146"/>
</a>
</g>
</g>
<!-- Node2&#45;&gt;Node1 -->
<g id="edge1_Node000001_Node000002" class="edge">
<title>Node2&#45;&gt;Node1</title>
<g id="a_edge1_Node000001_Node000002"><a xlink:title=" ">
<path fill="none" stroke="#63b8ff" d="M45,-135.69C45,-127.21 45,-118.16 45,-109.31"/>
<polygon fill="none" stroke="#63b8ff" points="41.5,-135.71 45,-145.71 48.5,-135.71 41.5,-135.71"/>
</a>
</g>
</g>
<!-- Node3 -->
<g id="Node000003" class="node">
<title>Node3</title>
<g id="a_Node000003"><a xlink:href="classyy_1_1location.html" target="_top" xlink:title="Two points in a source file.">
<polygon fill="white" stroke="transparent" points="80.5,-441 9.5,-441 9.5,-257 80.5,-257 80.5,-441"/>
<text text-anchor="start" x="17" y="-429" font-family="Helvetica,sans-Serif" font-size="10.00">yy::location</text>
<text text-anchor="start" x="42" y="-414" font-family="Helvetica,sans-Serif" font-size="10.00"> </text>
<text text-anchor="start" x="14" y="-399" font-family="Helvetica,sans-Serif" font-size="10.00">+</text>
<text text-anchor="start" x="27" y="-399" font-family="Helvetica,sans-Serif" font-size="10.00">initialize()</text>
<text text-anchor="start" x="14" y="-384" font-family="Helvetica,sans-Serif" font-size="10.00">+</text>
<text text-anchor="start" x="27" y="-384" font-family="Helvetica,sans-Serif" font-size="10.00">location()</text>
<text text-anchor="start" x="14" y="-369" font-family="Helvetica,sans-Serif" font-size="10.00">+</text>
<text text-anchor="start" x="27" y="-369" font-family="Helvetica,sans-Serif" font-size="10.00">location()</text>
<text text-anchor="start" x="14" y="-354" font-family="Helvetica,sans-Serif" font-size="10.00">+</text>
<text text-anchor="start" x="27" y="-354" font-family="Helvetica,sans-Serif" font-size="10.00">location()</text>
<text text-anchor="start" x="14" y="-339" font-family="Helvetica,sans-Serif" font-size="10.00">+</text>
<text text-anchor="start" x="27" y="-339" font-family="Helvetica,sans-Serif" font-size="10.00">step()</text>
<text text-anchor="start" x="14" y="-324" font-family="Helvetica,sans-Serif" font-size="10.00">+</text>
<text text-anchor="start" x="27" y="-324" font-family="Helvetica,sans-Serif" font-size="10.00">columns()</text>
<text text-anchor="start" x="14" y="-309" font-family="Helvetica,sans-Serif" font-size="10.00">+</text>
<text text-anchor="start" x="27" y="-309" font-family="Helvetica,sans-Serif" font-size="10.00">lines()</text>
<text text-anchor="start" x="15.5" y="-294" font-family="Helvetica,sans-Serif" font-size="10.00">*</text>
<text text-anchor="start" x="27" y="-294" font-family="Helvetica,sans-Serif" font-size="10.00">step()</text>
<text text-anchor="start" x="15.5" y="-279" font-family="Helvetica,sans-Serif" font-size="10.00">*</text>
<text text-anchor="start" x="27" y="-279" font-family="Helvetica,sans-Serif" font-size="10.00">columns()</text>
<text text-anchor="start" x="15.5" y="-264" font-family="Helvetica,sans-Serif" font-size="10.00">*</text>
<text text-anchor="start" x="27" y="-264" font-family="Helvetica,sans-Serif" font-size="10.00">lines()</text>
<polygon fill="#666666" stroke="#666666" points="10,-424 10,-424 81,-424 81,-424 10,-424"/>
<polygon fill="#666666" stroke="#666666" points="10,-409 10,-409 81,-409 81,-409 10,-409"/>
<polygon fill="none" stroke="#666666" points="9.5,-257 9.5,-441 80.5,-441 80.5,-257 9.5,-257"/>
</a>
</g>
</g>
<!-- Node3&#45;&gt;Node2 -->
<g id="edge2_Node000002_Node000003" class="edge">
<title>Node3&#45;&gt;Node2</title>
<g id="a_edge2_Node000002_Node000003"><a xlink:title=" ">
<path fill="none" stroke="#63b8ff" d="M45,-256.58C45,-244.74 45,-233.09 45,-222.56"/>
<polygon fill="none" stroke="#63b8ff" points="45,-222.33 41,-216.33 45,-210.33 49,-216.33 45,-222.33"/>
</a>
</g>
<text text-anchor="middle" x="70.5" y="-231" font-family="Helvetica,sans-Serif" font-size="10.00" fill="grey"> +location</text>
</g>
<!-- Node4 -->
<g id="Node000004" class="node">
<title>Node4</title>
<g id="a_Node000004"><a xlink:href="classyy_1_1position.html" target="_top" xlink:title="A point in a source file.">
<polygon fill="white" stroke="transparent" points="80.5,-653 9.5,-653 9.5,-499 80.5,-499 80.5,-653"/>
<text text-anchor="start" x="17" y="-641" font-family="Helvetica,sans-Serif" font-size="10.00">yy::position</text>
<text text-anchor="start" x="14" y="-626" font-family="Helvetica,sans-Serif" font-size="10.00">+</text>
<text text-anchor="start" x="27" y="-626" font-family="Helvetica,sans-Serif" font-size="10.00">column</text>
<text text-anchor="start" x="14" y="-611" font-family="Helvetica,sans-Serif" font-size="10.00">+</text>
<text text-anchor="start" x="27" y="-611" font-family="Helvetica,sans-Serif" font-size="10.00">filename</text>
<text text-anchor="start" x="14" y="-596" font-family="Helvetica,sans-Serif" font-size="10.00">+</text>
<text text-anchor="start" x="27" y="-596" font-family="Helvetica,sans-Serif" font-size="10.00">line</text>
<text text-anchor="start" x="14" y="-581" font-family="Helvetica,sans-Serif" font-size="10.00">+</text>
<text text-anchor="start" x="27" y="-581" font-family="Helvetica,sans-Serif" font-size="10.00">initialize()</text>
<text text-anchor="start" x="14" y="-566" font-family="Helvetica,sans-Serif" font-size="10.00">+</text>
<text text-anchor="start" x="27" y="-566" font-family="Helvetica,sans-Serif" font-size="10.00">position()</text>
<text text-anchor="start" x="14" y="-551" font-family="Helvetica,sans-Serif" font-size="10.00">+</text>
<text text-anchor="start" x="27" y="-551" font-family="Helvetica,sans-Serif" font-size="10.00">lines()</text>
<text text-anchor="start" x="14" y="-536" font-family="Helvetica,sans-Serif" font-size="10.00">+</text>
<text text-anchor="start" x="27" y="-536" font-family="Helvetica,sans-Serif" font-size="10.00">columns()</text>
<text text-anchor="start" x="15.5" y="-521" font-family="Helvetica,sans-Serif" font-size="10.00">*</text>
<text text-anchor="start" x="27" y="-521" font-family="Helvetica,sans-Serif" font-size="10.00">lines()</text>
<text text-anchor="start" x="15.5" y="-506" font-family="Helvetica,sans-Serif" font-size="10.00">*</text>
<text text-anchor="start" x="27" y="-506" font-family="Helvetica,sans-Serif" font-size="10.00">columns()</text>
<polygon fill="#666666" stroke="#666666" points="10,-636 10,-636 81,-636 81,-636 10,-636"/>
<polygon fill="#666666" stroke="#666666" points="10,-591 10,-591 25,-591 25,-591 10,-591"/>
<polygon fill="#666666" stroke="#666666" points="25,-591 25,-591 81,-591 81,-591 25,-591"/>
<polygon fill="none" stroke="#666666" points="9.5,-499 9.5,-653 80.5,-653 80.5,-499 9.5,-499"/>
</a>
</g>
</g>
<!-- Node4&#45;&gt;Node3 -->
<g id="edge3_Node000003_Node000004" class="edge">
<title>Node4&#45;&gt;Node3</title>
<g id="a_edge3_Node000003_Node000004"><a xlink:title=" ">
<path fill="none" stroke="#63b8ff" d="M45,-498.83C45,-484.24 45,-468.74 45,-453.46"/>
<polygon fill="none" stroke="#63b8ff" points="45,-453.28 41,-447.28 45,-441.28 49,-447.28 45,-453.28"/>
</a>
</g>
<text text-anchor="middle" x="64.5" y="-473" font-family="Helvetica,sans-Serif" font-size="10.00" fill="grey"> +begin</text>
<text text-anchor="middle" x="64.5" y="-462" font-family="Helvetica,sans-Serif" font-size="10.00" fill="grey">+end</text>
</g>
</g>
</svg>
