<?xml version="1.0" encoding="UTF-8" standalone="no"?>
<!DOCTYPE svg PUBLIC "-//W3C//DTD SVG 1.1//EN"
 "http://www.w3.org/Graphics/SVG/1.1/DTD/svg11.dtd">
<!-- Generated by graphviz version 2.43.0 (0)
 -->
<!-- Title: armv8m_sau_hw_t Pages: 1 -->
<svg width="111pt" height="117pt"
 viewBox="0.00 0.00 111.00 117.00" xmlns="http://www.w3.org/2000/svg" xmlns:xlink="http://www.w3.org/1999/xlink">
<g id="graph0" class="graph" transform="scale(1 1) rotate(0) translate(4 113)">
<title>armv8m_sau_hw_t</title>
<!-- Node1 -->
<g id="Node000001" class="node">
<title>Node1</title>
<g id="a_Node000001"><a xlink:title=" ">
<polygon fill="#999999" stroke="transparent" points="103,-109 0,-109 0,0 103,0 103,-109"/>
<text text-anchor="start" x="5.5" y="-96.5" font-family="Helvetica,sans-Serif" font-size="10.00">armv8m_sau_hw_t</text>
<text text-anchor="start" x="19.5" y="-81.5" font-family="Helvetica,sans-Serif" font-size="10.00">+</text>
<text text-anchor="start" x="47.5" y="-81.5" font-family="Helvetica,sans-Serif" font-size="10.00">ctrl</text>
<text text-anchor="start" x="19.5" y="-66.5" font-family="Helvetica,sans-Serif" font-size="10.00">+</text>
<text text-anchor="start" x="47.5" y="-66.5" font-family="Helvetica,sans-Serif" font-size="10.00">rbar</text>
<text text-anchor="start" x="19.5" y="-51.5" font-family="Helvetica,sans-Serif" font-size="10.00">+</text>
<text text-anchor="start" x="47.5" y="-51.5" font-family="Helvetica,sans-Serif" font-size="10.00">rlar</text>
<text text-anchor="start" x="19.5" y="-36.5" font-family="Helvetica,sans-Serif" font-size="10.00">+</text>
<text text-anchor="start" x="47.5" y="-36.5" font-family="Helvetica,sans-Serif" font-size="10.00">rnr</text>
<text text-anchor="start" x="19.5" y="-21.5" font-family="Helvetica,sans-Serif" font-size="10.00">+</text>
<text text-anchor="start" x="47.5" y="-21.5" font-family="Helvetica,sans-Serif" font-size="10.00">type</text>
<text text-anchor="start" x="48.5" y="-6.5" font-family="Helvetica,sans-Serif" font-size="10.00"> </text>
<polygon fill="#666666" stroke="#666666" points="0.5,-91.5 0.5,-91.5 103.5,-91.5 103.5,-91.5 0.5,-91.5"/>
<polygon fill="#666666" stroke="#666666" points="0.5,-16.5 0.5,-16.5 45.5,-16.5 45.5,-16.5 0.5,-16.5"/>
<polygon fill="#666666" stroke="#666666" points="45.5,-16.5 45.5,-16.5 103.5,-16.5 103.5,-16.5 45.5,-16.5"/>
<polygon fill="none" stroke="#666666" points="0,0 0,-109 103,-109 103,0 0,0"/>
</a>
</g>
</g>
</g>
</svg>
