<?xml version="1.0" encoding="UTF-8" standalone="no"?>
<!DOCTYPE svg PUBLIC "-//W3C//DTD SVG 1.1//EN"
 "http://www.w3.org/Graphics/SVG/1.1/DTD/svg11.dtd">
<!-- Generated by graphviz version 2.43.0 (0)
 -->
<!-- Title: mutex Pages: 1 -->
<svg width="102pt" height="249pt"
 viewBox="0.00 0.00 101.50 249.00" xmlns="http://www.w3.org/2000/svg" xmlns:xlink="http://www.w3.org/1999/xlink">
<g id="graph0" class="graph" transform="scale(1 1) rotate(0) translate(4 245)">
<title>mutex</title>
<!-- Node1 -->
<g id="Node000001" class="node">
<title>Node1</title>
<g id="a_Node000001"><a xlink:title="regular (non recursive) mutex instance">
<polygon fill="#999999" stroke="transparent" points="61.5,-49 9.5,-49 9.5,0 61.5,0 61.5,-49"/>
<text text-anchor="start" x="19.5" y="-36.5" font-family="Helvetica,sans-Serif" font-size="10.00">mutex</text>
<text text-anchor="start" x="13.5" y="-21.5" font-family="Helvetica,sans-Serif" font-size="10.00">+</text>
<text text-anchor="start" x="26.5" y="-21.5" font-family="Helvetica,sans-Serif" font-size="10.00">owner</text>
<text text-anchor="start" x="32" y="-6.5" font-family="Helvetica,sans-Serif" font-size="10.00"> </text>
<polygon fill="#666666" stroke="#666666" points="9.5,-31.5 9.5,-31.5 61.5,-31.5 61.5,-31.5 9.5,-31.5"/>
<polygon fill="#666666" stroke="#666666" points="9.5,-16.5 9.5,-16.5 24.5,-16.5 24.5,-16.5 9.5,-16.5"/>
<polygon fill="#666666" stroke="#666666" points="24.5,-16.5 24.5,-16.5 61.5,-16.5 61.5,-16.5 24.5,-16.5"/>
<polygon fill="none" stroke="#666666" points="9.5,0 9.5,-49 61.5,-49 61.5,0 9.5,0"/>
</a>
</g>
</g>
<!-- Node2 -->
<g id="Node000002" class="node">
<title>Node2</title>
<g id="a_Node000002"><a xlink:href="structlock__core.html" target="_top" xlink:title=" ">
<polygon fill="white" stroke="transparent" points="64,-145 7,-145 7,-96 64,-96 64,-145"/>
<text text-anchor="start" x="12.5" y="-132.5" font-family="Helvetica,sans-Serif" font-size="10.00">lock_core</text>
<text text-anchor="start" x="32.5" y="-117.5" font-family="Helvetica,sans-Serif" font-size="10.00"> </text>
<text text-anchor="start" x="32.5" y="-102.5" font-family="Helvetica,sans-Serif" font-size="10.00"> </text>
<polygon fill="#666666" stroke="#666666" points="7.5,-127.5 7.5,-127.5 64.5,-127.5 64.5,-127.5 7.5,-127.5"/>
<polygon fill="#666666" stroke="#666666" points="7.5,-112.5 7.5,-112.5 64.5,-112.5 64.5,-112.5 7.5,-112.5"/>
<polygon fill="none" stroke="#666666" points="7,-96 7,-145 64,-145 64,-96 7,-96"/>
</a>
</g>
</g>
<!-- Node2&#45;&gt;Node1 -->
<g id="edge1_Node000001_Node000002" class="edge">
<title>Node2&#45;&gt;Node1</title>
<g id="a_edge1_Node000001_Node000002"><a xlink:title=" ">
<path fill="none" stroke="#63b8ff" d="M35.5,-95.78C35.5,-85.32 35.5,-72.79 35.5,-61.23"/>
<polygon fill="none" stroke="#63b8ff" points="35.5,-61.21 31.5,-55.21 35.5,-49.21 39.5,-55.21 35.5,-61.21"/>
</a>
</g>
<text text-anchor="middle" x="52" y="-70" font-family="Helvetica,sans-Serif" font-size="10.00" fill="grey"> +core</text>
</g>
<!-- Node3 -->
<g id="Node000003" class="node">
<title>Node3</title>
<g id="a_Node000003"><a xlink:title=" ">
<polygon fill="white" stroke="transparent" points="71,-241 0,-241 0,-192 71,-192 71,-241"/>
<text text-anchor="start" x="5.5" y="-228.5" font-family="Helvetica,sans-Serif" font-size="10.00">_spin_lock_t</text>
<text text-anchor="start" x="9" y="-213.5" font-family="Helvetica,sans-Serif" font-size="10.00">+</text>
<text text-anchor="start" x="26.5" y="-213.5" font-family="Helvetica,sans-Serif" font-size="10.00">locked</text>
<text text-anchor="start" x="32.5" y="-198.5" font-family="Helvetica,sans-Serif" font-size="10.00"> </text>
<polygon fill="#666666" stroke="#666666" points="0.5,-223.5 0.5,-223.5 71.5,-223.5 71.5,-223.5 0.5,-223.5"/>
<polygon fill="#666666" stroke="#666666" points="0.5,-208.5 0.5,-208.5 24.5,-208.5 24.5,-208.5 0.5,-208.5"/>
<polygon fill="#666666" stroke="#666666" points="24.5,-208.5 24.5,-208.5 71.5,-208.5 71.5,-208.5 24.5,-208.5"/>
<polygon fill="none" stroke="#666666" points="0,-192 0,-241 71,-241 71,-192 0,-192"/>
</a>
</g>
</g>
<!-- Node3&#45;&gt;Node2 -->
<g id="edge2_Node000002_Node000003" class="edge">
<title>Node3&#45;&gt;Node2</title>
<g id="a_edge2_Node000002_Node000003"><a xlink:title=" ">
<path fill="none" stroke="#63b8ff" d="M35.5,-191.78C35.5,-181.32 35.5,-168.79 35.5,-157.23"/>
<polygon fill="none" stroke="#63b8ff" points="35.5,-157.21 31.5,-151.21 35.5,-145.21 39.5,-151.21 35.5,-157.21"/>
</a>
</g>
<text text-anchor="middle" x="64.5" y="-166" font-family="Helvetica,sans-Serif" font-size="10.00" fill="grey"> +spin_lock</text>
</g>
</g>
</svg>
