<?xml version="1.0" encoding="UTF-8" standalone="no"?>
<!DOCTYPE svg PUBLIC "-//W3C//DTD SVG 1.1//EN"
 "http://www.w3.org/Graphics/SVG/1.1/DTD/svg11.dtd">
<!-- Generated by graphviz version 2.43.0 (0)
 -->
<!-- Title: ADC_Type Pages: 1 -->
<svg width="67pt" height="177pt"
 viewBox="0.00 0.00 67.00 177.00" xmlns="http://www.w3.org/2000/svg" xmlns:xlink="http://www.w3.org/1999/xlink">
<g id="graph0" class="graph" transform="scale(1 1) rotate(0) translate(4 173)">
<title>ADC_Type</title>
<!-- Node1 -->
<g id="Node000001" class="node">
<title>Node1</title>
<g id="a_Node000001"><a xlink:title="Control and data interface to SAR ADC (ADC)">
<polygon fill="#999999" stroke="transparent" points="59,-169 0,-169 0,0 59,0 59,-169"/>
<text text-anchor="start" x="5.5" y="-156.5" font-family="Helvetica,sans-Serif" font-size="10.00">ADC_Type</text>
<text text-anchor="start" x="4.5" y="-141.5" font-family="Helvetica,sans-Serif" font-size="10.00">+</text>
<text text-anchor="start" x="17.5" y="-141.5" font-family="Helvetica,sans-Serif" font-size="10.00">CS</text>
<text text-anchor="start" x="4.5" y="-126.5" font-family="Helvetica,sans-Serif" font-size="10.00">+</text>
<text text-anchor="start" x="17.5" y="-126.5" font-family="Helvetica,sans-Serif" font-size="10.00">DIV</text>
<text text-anchor="start" x="4.5" y="-111.5" font-family="Helvetica,sans-Serif" font-size="10.00">+</text>
<text text-anchor="start" x="17.5" y="-111.5" font-family="Helvetica,sans-Serif" font-size="10.00">FCS</text>
<text text-anchor="start" x="4.5" y="-96.5" font-family="Helvetica,sans-Serif" font-size="10.00">+</text>
<text text-anchor="start" x="17.5" y="-96.5" font-family="Helvetica,sans-Serif" font-size="10.00">FIFO</text>
<text text-anchor="start" x="4.5" y="-81.5" font-family="Helvetica,sans-Serif" font-size="10.00">+</text>
<text text-anchor="start" x="17.5" y="-81.5" font-family="Helvetica,sans-Serif" font-size="10.00">INTE</text>
<text text-anchor="start" x="4.5" y="-66.5" font-family="Helvetica,sans-Serif" font-size="10.00">+</text>
<text text-anchor="start" x="17.5" y="-66.5" font-family="Helvetica,sans-Serif" font-size="10.00">INTF</text>
<text text-anchor="start" x="4.5" y="-51.5" font-family="Helvetica,sans-Serif" font-size="10.00">+</text>
<text text-anchor="start" x="17.5" y="-51.5" font-family="Helvetica,sans-Serif" font-size="10.00">INTR</text>
<text text-anchor="start" x="4.5" y="-36.5" font-family="Helvetica,sans-Serif" font-size="10.00">+</text>
<text text-anchor="start" x="17.5" y="-36.5" font-family="Helvetica,sans-Serif" font-size="10.00">INTS</text>
<text text-anchor="start" x="4.5" y="-21.5" font-family="Helvetica,sans-Serif" font-size="10.00">+</text>
<text text-anchor="start" x="17.5" y="-21.5" font-family="Helvetica,sans-Serif" font-size="10.00">RESULT</text>
<text text-anchor="start" x="26.5" y="-6.5" font-family="Helvetica,sans-Serif" font-size="10.00"> </text>
<polygon fill="#666666" stroke="#666666" points="0.5,-151.5 0.5,-151.5 59.5,-151.5 59.5,-151.5 0.5,-151.5"/>
<polygon fill="#666666" stroke="#666666" points="0.5,-16.5 0.5,-16.5 15.5,-16.5 15.5,-16.5 0.5,-16.5"/>
<polygon fill="#666666" stroke="#666666" points="15.5,-16.5 15.5,-16.5 59.5,-16.5 59.5,-16.5 15.5,-16.5"/>
<polygon fill="none" stroke="#666666" points="0,0 0,-169 59,-169 59,0 0,0"/>
</a>
</g>
</g>
</g>
</svg>
