<?xml version="1.0" encoding="UTF-8" standalone="no"?>
<!DOCTYPE svg PUBLIC "-//W3C//DTD SVG 1.1//EN"
 "http://www.w3.org/Graphics/SVG/1.1/DTD/svg11.dtd">
<!-- Generated by graphviz version 2.43.0 (0)
 -->
<!-- Title: sio_hw_t Pages: 1 -->
<svg width="100pt" height="393pt"
 viewBox="0.00 0.00 100.00 393.00" xmlns="http://www.w3.org/2000/svg" xmlns:xlink="http://www.w3.org/1999/xlink">
<g id="graph0" class="graph" transform="scale(1 1) rotate(0) translate(4 389)">
<title>sio_hw_t</title>
<!-- Node1 -->
<g id="Node000001" class="node">
<title>Node1</title>
<g id="a_Node000001"><a xlink:title=" ">
<polygon fill="#999999" stroke="transparent" points="92,-199 0,-199 0,0 92,0 92,-199"/>
<text text-anchor="start" x="24.5" y="-186.5" font-family="Helvetica,sans-Serif" font-size="10.00">sio_hw_t</text>
<text text-anchor="start" x="4" y="-171.5" font-family="Helvetica,sans-Serif" font-size="10.00">+</text>
<text text-anchor="start" x="17" y="-171.5" font-family="Helvetica,sans-Serif" font-size="10.00">_pad0</text>
<text text-anchor="start" x="4" y="-156.5" font-family="Helvetica,sans-Serif" font-size="10.00">+</text>
<text text-anchor="start" x="17" y="-156.5" font-family="Helvetica,sans-Serif" font-size="10.00">_pad1</text>
<text text-anchor="start" x="4" y="-141.5" font-family="Helvetica,sans-Serif" font-size="10.00">+</text>
<text text-anchor="start" x="17" y="-141.5" font-family="Helvetica,sans-Serif" font-size="10.00">_pad2</text>
<text text-anchor="start" x="4" y="-126.5" font-family="Helvetica,sans-Serif" font-size="10.00">+</text>
<text text-anchor="start" x="17" y="-126.5" font-family="Helvetica,sans-Serif" font-size="10.00">_pad3</text>
<text text-anchor="start" x="4" y="-111.5" font-family="Helvetica,sans-Serif" font-size="10.00">+</text>
<text text-anchor="start" x="17" y="-111.5" font-family="Helvetica,sans-Serif" font-size="10.00">cpuid</text>
<text text-anchor="start" x="4" y="-96.5" font-family="Helvetica,sans-Serif" font-size="10.00">+</text>
<text text-anchor="start" x="17" y="-96.5" font-family="Helvetica,sans-Serif" font-size="10.00">div_csr</text>
<text text-anchor="start" x="4" y="-81.5" font-family="Helvetica,sans-Serif" font-size="10.00">+</text>
<text text-anchor="start" x="17" y="-81.5" font-family="Helvetica,sans-Serif" font-size="10.00">div_quotient</text>
<text text-anchor="start" x="4" y="-66.5" font-family="Helvetica,sans-Serif" font-size="10.00">+</text>
<text text-anchor="start" x="17" y="-66.5" font-family="Helvetica,sans-Serif" font-size="10.00">div_remainder</text>
<text text-anchor="start" x="4" y="-51.5" font-family="Helvetica,sans-Serif" font-size="10.00">+</text>
<text text-anchor="start" x="17" y="-51.5" font-family="Helvetica,sans-Serif" font-size="10.00">div_sdividend</text>
<text text-anchor="start" x="4" y="-36.5" font-family="Helvetica,sans-Serif" font-size="10.00">+</text>
<text text-anchor="start" x="17" y="-36.5" font-family="Helvetica,sans-Serif" font-size="10.00">div_sdivisor</text>
<text text-anchor="start" x="17" y="-21.5" font-family="Helvetica,sans-Serif" font-size="10.00">e 46 mais...</text>
<text text-anchor="start" x="42.5" y="-6.5" font-family="Helvetica,sans-Serif" font-size="10.00"> </text>
<polygon fill="#666666" stroke="#666666" points="0,-181.5 0,-181.5 92,-181.5 92,-181.5 0,-181.5"/>
<polygon fill="#666666" stroke="#666666" points="0,-16.5 0,-16.5 15,-16.5 15,-16.5 0,-16.5"/>
<polygon fill="#666666" stroke="#666666" points="15,-16.5 15,-16.5 92,-16.5 92,-16.5 15,-16.5"/>
<polygon fill="none" stroke="#666666" points="0,0 0,-199 92,-199 92,0 0,0"/>
</a>
</g>
</g>
<!-- Node2 -->
<g id="Node000002" class="node">
<title>Node2</title>
<g id="a_Node000002"><a xlink:href="structinterp__hw__t.html" target="_top" xlink:title=" ">
<polygon fill="white" stroke="transparent" points="80,-385 12,-385 12,-246 80,-246 80,-385"/>
<text text-anchor="start" x="17" y="-372.5" font-family="Helvetica,sans-Serif" font-size="10.00">interp_hw_t</text>
<text text-anchor="start" x="17" y="-357.5" font-family="Helvetica,sans-Serif" font-size="10.00">+</text>
<text text-anchor="start" x="31" y="-357.5" font-family="Helvetica,sans-Serif" font-size="10.00">accum</text>
<text text-anchor="start" x="17" y="-342.5" font-family="Helvetica,sans-Serif" font-size="10.00">+</text>
<text text-anchor="start" x="31" y="-342.5" font-family="Helvetica,sans-Serif" font-size="10.00">add_raw</text>
<text text-anchor="start" x="17" y="-327.5" font-family="Helvetica,sans-Serif" font-size="10.00">+</text>
<text text-anchor="start" x="31" y="-327.5" font-family="Helvetica,sans-Serif" font-size="10.00">base</text>
<text text-anchor="start" x="17" y="-312.5" font-family="Helvetica,sans-Serif" font-size="10.00">+</text>
<text text-anchor="start" x="31" y="-312.5" font-family="Helvetica,sans-Serif" font-size="10.00">base01</text>
<text text-anchor="start" x="17" y="-297.5" font-family="Helvetica,sans-Serif" font-size="10.00">+</text>
<text text-anchor="start" x="31" y="-297.5" font-family="Helvetica,sans-Serif" font-size="10.00">ctrl</text>
<text text-anchor="start" x="17" y="-282.5" font-family="Helvetica,sans-Serif" font-size="10.00">+</text>
<text text-anchor="start" x="31" y="-282.5" font-family="Helvetica,sans-Serif" font-size="10.00">peek</text>
<text text-anchor="start" x="17" y="-267.5" font-family="Helvetica,sans-Serif" font-size="10.00">+</text>
<text text-anchor="start" x="31" y="-267.5" font-family="Helvetica,sans-Serif" font-size="10.00">pop</text>
<text text-anchor="start" x="42.5" y="-252.5" font-family="Helvetica,sans-Serif" font-size="10.00"> </text>
<polygon fill="#666666" stroke="#666666" points="12,-367.5 12,-367.5 80,-367.5 80,-367.5 12,-367.5"/>
<polygon fill="#666666" stroke="#666666" points="12,-262.5 12,-262.5 29,-262.5 29,-262.5 12,-262.5"/>
<polygon fill="#666666" stroke="#666666" points="29,-262.5 29,-262.5 80,-262.5 80,-262.5 29,-262.5"/>
<polygon fill="none" stroke="#666666" points="12,-246 12,-385 80,-385 80,-246 12,-246"/>
</a>
</g>
</g>
<!-- Node2&#45;&gt;Node1 -->
<g id="edge1_Node000001_Node000002" class="edge">
<title>Node2&#45;&gt;Node1</title>
<g id="a_edge1_Node000001_Node000002"><a xlink:title=" ">
<path fill="none" stroke="#63b8ff" d="M46,-245.91C46,-234.84 46,-223.13 46,-211.37"/>
<polygon fill="none" stroke="#63b8ff" points="46,-211.11 42,-205.11 46,-199.11 50,-205.11 46,-211.11"/>
</a>
</g>
<text text-anchor="middle" x="66" y="-220" font-family="Helvetica,sans-Serif" font-size="10.00" fill="grey"> +interp</text>
</g>
</g>
</svg>
