<?xml version="1.0" encoding="UTF-8" standalone="no"?>
<!DOCTYPE svg PUBLIC "-//W3C//DTD SVG 1.1//EN"
 "http://www.w3.org/Graphics/SVG/1.1/DTD/svg11.dtd">
<!-- Generated by graphviz version 2.43.0 (0)
 -->
<!-- Title: qmi_mem_hw_t Pages: 1 -->
<svg width="97pt" height="117pt"
 viewBox="0.00 0.00 97.00 117.00" xmlns="http://www.w3.org/2000/svg" xmlns:xlink="http://www.w3.org/1999/xlink">
<g id="graph0" class="graph" transform="scale(1 1) rotate(0) translate(4 113)">
<title>qmi_mem_hw_t</title>
<!-- Node1 -->
<g id="Node000001" class="node">
<title>Node1</title>
<g id="a_Node000001"><a xlink:title=" ">
<polygon fill="#999999" stroke="transparent" points="89,-109 0,-109 0,0 89,0 89,-109"/>
<text text-anchor="start" x="5.5" y="-96.5" font-family="Helvetica,sans-Serif" font-size="10.00">qmi_mem_hw_t</text>
<text text-anchor="start" x="13.5" y="-81.5" font-family="Helvetica,sans-Serif" font-size="10.00">+</text>
<text text-anchor="start" x="35.5" y="-81.5" font-family="Helvetica,sans-Serif" font-size="10.00">rcmd</text>
<text text-anchor="start" x="13.5" y="-66.5" font-family="Helvetica,sans-Serif" font-size="10.00">+</text>
<text text-anchor="start" x="35.5" y="-66.5" font-family="Helvetica,sans-Serif" font-size="10.00">rfmt</text>
<text text-anchor="start" x="13.5" y="-51.5" font-family="Helvetica,sans-Serif" font-size="10.00">+</text>
<text text-anchor="start" x="35.5" y="-51.5" font-family="Helvetica,sans-Serif" font-size="10.00">timing</text>
<text text-anchor="start" x="13.5" y="-36.5" font-family="Helvetica,sans-Serif" font-size="10.00">+</text>
<text text-anchor="start" x="35.5" y="-36.5" font-family="Helvetica,sans-Serif" font-size="10.00">wcmd</text>
<text text-anchor="start" x="13.5" y="-21.5" font-family="Helvetica,sans-Serif" font-size="10.00">+</text>
<text text-anchor="start" x="35.5" y="-21.5" font-family="Helvetica,sans-Serif" font-size="10.00">wfmt</text>
<text text-anchor="start" x="41.5" y="-6.5" font-family="Helvetica,sans-Serif" font-size="10.00"> </text>
<polygon fill="#666666" stroke="#666666" points="0.5,-91.5 0.5,-91.5 89.5,-91.5 89.5,-91.5 0.5,-91.5"/>
<polygon fill="#666666" stroke="#666666" points="0.5,-16.5 0.5,-16.5 33.5,-16.5 33.5,-16.5 0.5,-16.5"/>
<polygon fill="#666666" stroke="#666666" points="33.5,-16.5 33.5,-16.5 89.5,-16.5 89.5,-16.5 33.5,-16.5"/>
<polygon fill="none" stroke="#666666" points="0,0 0,-109 89,-109 89,0 0,0"/>
</a>
</g>
</g>
</g>
</svg>
