<?xml version="1.0" encoding="UTF-8" standalone="no"?>
<!DOCTYPE svg PUBLIC "-//W3C//DTD SVG 1.1//EN"
 "http://www.w3.org/Graphics/SVG/1.1/DTD/svg11.dtd">
<!-- Generated by graphviz version 2.43.0 (0)
 -->
<!-- Title: picoboot_exec2_cmd Pages: 1 -->
<svg width="121pt" height="102pt"
 viewBox="0.00 0.00 121.00 102.00" xmlns="http://www.w3.org/2000/svg" xmlns:xlink="http://www.w3.org/1999/xlink">
<g id="graph0" class="graph" transform="scale(1 1) rotate(0) translate(4 98)">
<title>picoboot_exec2_cmd</title>
<!-- Node1 -->
<g id="Node000001" class="node">
<title>Node1</title>
<g id="a_Node000001"><a xlink:title=" ">
<polygon fill="#999999" stroke="transparent" points="113,-94 0,-94 0,0 113,0 113,-94"/>
<text text-anchor="start" x="5.5" y="-82" font-family="Helvetica,sans-Serif" font-size="10.00">picoboot_exec2_cmd</text>
<text text-anchor="start" x="8.5" y="-67" font-family="Helvetica,sans-Serif" font-size="10.00">+</text>
<text text-anchor="start" x="25.5" y="-67" font-family="Helvetica,sans-Serif" font-size="10.00">image_base</text>
<text text-anchor="start" x="8.5" y="-52" font-family="Helvetica,sans-Serif" font-size="10.00">+</text>
<text text-anchor="start" x="25.5" y="-52" font-family="Helvetica,sans-Serif" font-size="10.00">image_size</text>
<text text-anchor="start" x="8.5" y="-37" font-family="Helvetica,sans-Serif" font-size="10.00">+</text>
<text text-anchor="start" x="25.5" y="-37" font-family="Helvetica,sans-Serif" font-size="10.00">workarea_base</text>
<text text-anchor="start" x="8.5" y="-22" font-family="Helvetica,sans-Serif" font-size="10.00">+</text>
<text text-anchor="start" x="25.5" y="-22" font-family="Helvetica,sans-Serif" font-size="10.00">workarea_size</text>
<text text-anchor="start" x="53.5" y="-7" font-family="Helvetica,sans-Serif" font-size="10.00"> </text>
<polygon fill="#666666" stroke="#666666" points="0.5,-77 0.5,-77 113.5,-77 113.5,-77 0.5,-77"/>
<polygon fill="#666666" stroke="#666666" points="0.5,-17 0.5,-17 23.5,-17 23.5,-17 0.5,-17"/>
<polygon fill="#666666" stroke="#666666" points="23.5,-17 23.5,-17 113.5,-17 113.5,-17 23.5,-17"/>
<polygon fill="none" stroke="#666666" points="0,0 0,-94 113,-94 113,0 0,0"/>
</a>
</g>
</g>
</g>
</svg>
