<?xml version="1.0" encoding="UTF-8" standalone="no"?>
<!DOCTYPE svg PUBLIC "-//W3C//DTD SVG 1.1//EN"
 "http://www.w3.org/Graphics/SVG/1.1/DTD/svg11.dtd">
<!-- Generated by graphviz version 2.43.0 (0)
 -->
<!-- Title: usb_device_dpram_t Pages: 1 -->
<svg width="298pt" height="235pt"
 viewBox="0.00 0.00 297.50 235.00" xmlns="http://www.w3.org/2000/svg" xmlns:xlink="http://www.w3.org/1999/xlink">
<g id="graph0" class="graph" transform="scale(1 1) rotate(0) translate(4 231)">
<title>usb_device_dpram_t</title>
<!-- Node1 -->
<g id="Node000001" class="node">
<title>Node1</title>
<g id="a_Node000001"><a xlink:title=" ">
<polygon fill="#999999" stroke="transparent" points="205.5,-94 94.5,-94 94.5,0 205.5,0 205.5,-94"/>
<text text-anchor="start" x="100" y="-82" font-family="Helvetica,sans-Serif" font-size="10.00">usb_device_dpram_t</text>
<text text-anchor="start" x="105" y="-67" font-family="Helvetica,sans-Serif" font-size="10.00">+</text>
<text text-anchor="start" x="124" y="-67" font-family="Helvetica,sans-Serif" font-size="10.00">ep0_buf_a</text>
<text text-anchor="start" x="105" y="-52" font-family="Helvetica,sans-Serif" font-size="10.00">+</text>
<text text-anchor="start" x="124" y="-52" font-family="Helvetica,sans-Serif" font-size="10.00">ep0_buf_b</text>
<text text-anchor="start" x="105" y="-37" font-family="Helvetica,sans-Serif" font-size="10.00">+</text>
<text text-anchor="start" x="124" y="-37" font-family="Helvetica,sans-Serif" font-size="10.00">epx_data</text>
<text text-anchor="start" x="105" y="-22" font-family="Helvetica,sans-Serif" font-size="10.00">+</text>
<text text-anchor="start" x="124" y="-22" font-family="Helvetica,sans-Serif" font-size="10.00">setup_packet</text>
<text text-anchor="start" x="147" y="-7" font-family="Helvetica,sans-Serif" font-size="10.00"> </text>
<polygon fill="#666666" stroke="#666666" points="95,-77 95,-77 206,-77 206,-77 95,-77"/>
<polygon fill="#666666" stroke="#666666" points="95,-17 95,-17 122,-17 122,-17 95,-17"/>
<polygon fill="#666666" stroke="#666666" points="122,-17 122,-17 206,-17 206,-17 122,-17"/>
<polygon fill="none" stroke="#666666" points="94.5,0 94.5,-94 205.5,-94 205.5,0 94.5,0"/>
</a>
</g>
</g>
<!-- Node2 -->
<g id="Node000002" class="node">
<title>Node2</title>
<g id="a_Node000002"><a xlink:href="structusb__device__dpram__t_1_1usb__device__dpram__ep__ctrl.html" target="_top" xlink:title=" ">
<polygon fill="white" stroke="transparent" points="146,-221.5 0,-221.5 0,-146.5 146,-146.5 146,-221.5"/>
<text text-anchor="start" x="5" y="-209" font-family="Helvetica,sans-Serif" font-size="10.00">usb_device_dpram_t</text>
<text text-anchor="start" x="5" y="-198" font-family="Helvetica,sans-Serif" font-size="10.00">::usb_device_dpram_ep_ctrl</text>
<text text-anchor="start" x="31" y="-183" font-family="Helvetica,sans-Serif" font-size="10.00">+</text>
<text text-anchor="start" x="71" y="-183" font-family="Helvetica,sans-Serif" font-size="10.00">in</text>
<text text-anchor="start" x="31" y="-168" font-family="Helvetica,sans-Serif" font-size="10.00">+</text>
<text text-anchor="start" x="71" y="-168" font-family="Helvetica,sans-Serif" font-size="10.00">out</text>
<text text-anchor="start" x="69.5" y="-153" font-family="Helvetica,sans-Serif" font-size="10.00"> </text>
<polygon fill="#666666" stroke="#666666" points="0,-193 0,-193 146,-193 146,-193 0,-193"/>
<polygon fill="#666666" stroke="#666666" points="0,-163 0,-163 69,-163 69,-163 0,-163"/>
<polygon fill="#666666" stroke="#666666" points="69,-163 69,-163 146,-163 146,-163 69,-163"/>
<polygon fill="none" stroke="#666666" points="0,-146.5 0,-221.5 146,-221.5 146,-146.5 0,-146.5"/>
</a>
</g>
</g>
<!-- Node2&#45;&gt;Node1 -->
<g id="edge1_Node000001_Node000002" class="edge">
<title>Node2&#45;&gt;Node1</title>
<g id="a_edge1_Node000001_Node000002"><a xlink:title=" ">
<path fill="none" stroke="#63b8ff" d="M93.84,-146.47C101.15,-133.65 109.54,-118.93 117.58,-104.84"/>
<polygon fill="none" stroke="#63b8ff" points="117.68,-104.66 117.18,-97.47 123.63,-94.24 124.13,-101.43 117.68,-104.66"/>
</a>
</g>
<text text-anchor="middle" x="134.5" y="-115" font-family="Helvetica,sans-Serif" font-size="10.00" fill="grey"> +ep_ctrl</text>
</g>
<!-- Node3 -->
<g id="Node000003" class="node">
<title>Node3</title>
<g id="a_Node000003"><a xlink:href="structusb__device__dpram__t_1_1usb__device__dpram__ep__buf__ctrl.html" target="_top" xlink:title=" ">
<polygon fill="white" stroke="transparent" points="289.5,-227 164.5,-227 164.5,-141 289.5,-141 289.5,-227"/>
<text text-anchor="start" x="170" y="-215" font-family="Helvetica,sans-Serif" font-size="10.00">usb_device_dpram_t</text>
<text text-anchor="start" x="170" y="-204" font-family="Helvetica,sans-Serif" font-size="10.00">::usb_device_dpram_ep</text>
<text text-anchor="start" x="206" y="-193" font-family="Helvetica,sans-Serif" font-size="10.00">_buf_ctrl</text>
<text text-anchor="start" x="191" y="-178" font-family="Helvetica,sans-Serif" font-size="10.00">+</text>
<text text-anchor="start" x="226" y="-178" font-family="Helvetica,sans-Serif" font-size="10.00">in</text>
<text text-anchor="start" x="191" y="-163" font-family="Helvetica,sans-Serif" font-size="10.00">+</text>
<text text-anchor="start" x="226" y="-163" font-family="Helvetica,sans-Serif" font-size="10.00">out</text>
<text text-anchor="start" x="224" y="-148" font-family="Helvetica,sans-Serif" font-size="10.00"> </text>
<polygon fill="#666666" stroke="#666666" points="165,-188 165,-188 290,-188 290,-188 165,-188"/>
<polygon fill="#666666" stroke="#666666" points="165,-158 165,-158 224,-158 224,-158 165,-158"/>
<polygon fill="#666666" stroke="#666666" points="224,-158 224,-158 290,-158 290,-158 224,-158"/>
<polygon fill="none" stroke="#666666" points="164.5,-141 164.5,-227 289.5,-227 289.5,-141 164.5,-141"/>
</a>
</g>
</g>
<!-- Node3&#45;&gt;Node1 -->
<g id="edge2_Node000001_Node000003" class="edge">
<title>Node3&#45;&gt;Node1</title>
<g id="a_edge2_Node000001_Node000003"><a xlink:title=" ">
<path fill="none" stroke="#63b8ff" d="M202.85,-140.66C196.43,-129.41 189.4,-117.07 182.61,-105.17"/>
<polygon fill="none" stroke="#63b8ff" points="182.42,-104.84 175.97,-101.61 176.47,-94.41 182.92,-97.64 182.42,-104.84"/>
</a>
</g>
<text text-anchor="middle" x="223" y="-115" font-family="Helvetica,sans-Serif" font-size="10.00" fill="grey"> +ep_buf_ctrl</text>
</g>
</g>
</svg>
