<?xml version="1.0" encoding="UTF-8" standalone="no"?>
<!DOCTYPE svg PUBLIC "-//W3C//DTD SVG 1.1//EN"
 "http://www.w3.org/Graphics/SVG/1.1/DTD/svg11.dtd">
<!-- Generated by graphviz version 2.43.0 (0)
 -->
<!-- Title: binary_operation Pages: 1 -->
<svg width="120pt" height="792pt"
 viewBox="0.00 0.00 120.00 792.00" xmlns="http://www.w3.org/2000/svg" xmlns:xlink="http://www.w3.org/1999/xlink">
<g id="graph0" class="graph" transform="scale(1 1) rotate(0) translate(4 788)">
<title>binary_operation</title>
<!-- Node1 -->
<g id="Node000001" class="node">
<title>Node1</title>
<g id="a_Node000001"><a xlink:title=" ">
<polygon fill="#999999" stroke="transparent" points="112,-94 0,-94 0,0 112,0 112,-94"/>
<text text-anchor="start" x="14.5" y="-82" font-family="Helvetica,sans-Serif" font-size="10.00">binary_operation</text>
<text text-anchor="start" x="4" y="-67" font-family="Helvetica,sans-Serif" font-size="10.00">+</text>
<text text-anchor="start" x="17" y="-67" font-family="Helvetica,sans-Serif" font-size="10.00">left</text>
<text text-anchor="start" x="4" y="-52" font-family="Helvetica,sans-Serif" font-size="10.00">+</text>
<text text-anchor="start" x="17" y="-52" font-family="Helvetica,sans-Serif" font-size="10.00">op</text>
<text text-anchor="start" x="4" y="-37" font-family="Helvetica,sans-Serif" font-size="10.00">+</text>
<text text-anchor="start" x="17" y="-37" font-family="Helvetica,sans-Serif" font-size="10.00">right</text>
<text text-anchor="start" x="4" y="-22" font-family="Helvetica,sans-Serif" font-size="10.00">+</text>
<text text-anchor="start" x="17" y="-22" font-family="Helvetica,sans-Serif" font-size="10.00">binary_operation()</text>
<text text-anchor="start" x="4" y="-7" font-family="Helvetica,sans-Serif" font-size="10.00">+</text>
<text text-anchor="start" x="17" y="-7" font-family="Helvetica,sans-Serif" font-size="10.00">resolve()</text>
<polygon fill="#666666" stroke="#666666" points="0,-77 0,-77 112,-77 112,-77 0,-77"/>
<polygon fill="#666666" stroke="#666666" points="0,-32 0,-32 15,-32 15,-32 0,-32"/>
<polygon fill="#666666" stroke="#666666" points="15,-32 15,-32 112,-32 112,-32 15,-32"/>
<polygon fill="none" stroke="#666666" points="0,0 0,-94 112,-94 112,0 0,0"/>
</a>
</g>
</g>
<!-- Node2 -->
<g id="Node000002" class="node">
<title>Node2</title>
<g id="a_Node000002"><a xlink:href="structresolvable.html" target="_top" xlink:title=" ">
<polygon fill="white" stroke="transparent" points="100,-240 12,-240 12,-131 100,-131 100,-240"/>
<text text-anchor="start" x="30" y="-227.5" font-family="Helvetica,sans-Serif" font-size="10.00">resolvable</text>
<text text-anchor="start" x="52.5" y="-212.5" font-family="Helvetica,sans-Serif" font-size="10.00"> </text>
<text text-anchor="start" x="16" y="-197.5" font-family="Helvetica,sans-Serif" font-size="10.00">+</text>
<text text-anchor="start" x="29" y="-197.5" font-family="Helvetica,sans-Serif" font-size="10.00">resolvable()</text>
<text text-anchor="start" x="16" y="-182.5" font-family="Helvetica,sans-Serif" font-size="10.00">+</text>
<text text-anchor="start" x="29" y="-182.5" font-family="Helvetica,sans-Serif" font-size="10.00">resolve()</text>
<text text-anchor="start" x="16" y="-167.5" font-family="Helvetica,sans-Serif" font-size="10.00">+</text>
<text text-anchor="start" x="29" y="-167.5" font-family="Helvetica,sans-Serif" font-size="10.00">resolve()</text>
<text text-anchor="start" x="16" y="-152.5" font-family="Helvetica,sans-Serif" font-size="10.00">+</text>
<text text-anchor="start" x="29" y="-152.5" font-family="Helvetica,sans-Serif" font-size="10.00">resolve()</text>
<text text-anchor="start" x="16" y="-137.5" font-family="Helvetica,sans-Serif" font-size="10.00">+</text>
<text text-anchor="start" x="29" y="-137.5" font-family="Helvetica,sans-Serif" font-size="10.00">~resolvable()</text>
<polygon fill="#666666" stroke="#666666" points="12,-222.5 12,-222.5 100,-222.5 100,-222.5 12,-222.5"/>
<polygon fill="#666666" stroke="#666666" points="12,-207.5 12,-207.5 100,-207.5 100,-207.5 12,-207.5"/>
<polygon fill="none" stroke="#666666" points="12,-131 12,-240 100,-240 100,-131 12,-131"/>
</a>
</g>
</g>
<!-- Node2&#45;&gt;Node1 -->
<g id="edge1_Node000001_Node000002" class="edge">
<title>Node2&#45;&gt;Node1</title>
<g id="a_edge1_Node000001_Node000002"><a xlink:title=" ">
<path fill="none" stroke="#63b8ff" d="M56,-120.91C56,-111.95 56,-102.88 56,-94.32"/>
<polygon fill="none" stroke="#63b8ff" points="52.5,-120.94 56,-130.94 59.5,-120.94 52.5,-120.94"/>
</a>
</g>
</g>
<!-- Node3 -->
<g id="Node000003" class="node">
<title>Node3</title>
<g id="a_Node000003"><a xlink:href="structsrc__item.html" target="_top" xlink:title=" ">
<polygon fill="white" stroke="transparent" points="91.5,-341 20.5,-341 20.5,-277 91.5,-277 91.5,-341"/>
<text text-anchor="start" x="35" y="-329" font-family="Helvetica,sans-Serif" font-size="10.00">src_item</text>
<text text-anchor="start" x="53" y="-314" font-family="Helvetica,sans-Serif" font-size="10.00"> </text>
<text text-anchor="start" x="25" y="-299" font-family="Helvetica,sans-Serif" font-size="10.00">+</text>
<text text-anchor="start" x="38" y="-299" font-family="Helvetica,sans-Serif" font-size="10.00">src_item()</text>
<text text-anchor="start" x="25" y="-284" font-family="Helvetica,sans-Serif" font-size="10.00">+</text>
<text text-anchor="start" x="38" y="-284" font-family="Helvetica,sans-Serif" font-size="10.00">src_item()</text>
<polygon fill="#666666" stroke="#666666" points="21,-324 21,-324 92,-324 92,-324 21,-324"/>
<polygon fill="#666666" stroke="#666666" points="21,-309 21,-309 92,-309 92,-309 21,-309"/>
<polygon fill="none" stroke="#666666" points="20.5,-277 20.5,-341 91.5,-341 91.5,-277 20.5,-277"/>
</a>
</g>
</g>
<!-- Node3&#45;&gt;Node2 -->
<g id="edge2_Node000002_Node000003" class="edge">
<title>Node3&#45;&gt;Node2</title>
<g id="a_edge2_Node000002_Node000003"><a xlink:title=" ">
<path fill="none" stroke="#63b8ff" d="M56,-266.69C56,-258.21 56,-249.16 56,-240.31"/>
<polygon fill="none" stroke="#63b8ff" points="52.5,-266.71 56,-276.71 59.5,-266.71 52.5,-266.71"/>
</a>
</g>
</g>
<!-- Node4 -->
<g id="Node000004" class="node">
<title>Node4</title>
<g id="a_Node000004"><a xlink:href="classyy_1_1location.html" target="_top" xlink:title="Two points in a source file.">
<polygon fill="white" stroke="transparent" points="91.5,-572 20.5,-572 20.5,-388 91.5,-388 91.5,-572"/>
<text text-anchor="start" x="28" y="-560" font-family="Helvetica,sans-Serif" font-size="10.00">yy::location</text>
<text text-anchor="start" x="53" y="-545" font-family="Helvetica,sans-Serif" font-size="10.00"> </text>
<text text-anchor="start" x="25" y="-530" font-family="Helvetica,sans-Serif" font-size="10.00">+</text>
<text text-anchor="start" x="38" y="-530" font-family="Helvetica,sans-Serif" font-size="10.00">initialize()</text>
<text text-anchor="start" x="25" y="-515" font-family="Helvetica,sans-Serif" font-size="10.00">+</text>
<text text-anchor="start" x="38" y="-515" font-family="Helvetica,sans-Serif" font-size="10.00">location()</text>
<text text-anchor="start" x="25" y="-500" font-family="Helvetica,sans-Serif" font-size="10.00">+</text>
<text text-anchor="start" x="38" y="-500" font-family="Helvetica,sans-Serif" font-size="10.00">location()</text>
<text text-anchor="start" x="25" y="-485" font-family="Helvetica,sans-Serif" font-size="10.00">+</text>
<text text-anchor="start" x="38" y="-485" font-family="Helvetica,sans-Serif" font-size="10.00">location()</text>
<text text-anchor="start" x="25" y="-470" font-family="Helvetica,sans-Serif" font-size="10.00">+</text>
<text text-anchor="start" x="38" y="-470" font-family="Helvetica,sans-Serif" font-size="10.00">step()</text>
<text text-anchor="start" x="25" y="-455" font-family="Helvetica,sans-Serif" font-size="10.00">+</text>
<text text-anchor="start" x="38" y="-455" font-family="Helvetica,sans-Serif" font-size="10.00">columns()</text>
<text text-anchor="start" x="25" y="-440" font-family="Helvetica,sans-Serif" font-size="10.00">+</text>
<text text-anchor="start" x="38" y="-440" font-family="Helvetica,sans-Serif" font-size="10.00">lines()</text>
<text text-anchor="start" x="26.5" y="-425" font-family="Helvetica,sans-Serif" font-size="10.00">*</text>
<text text-anchor="start" x="38" y="-425" font-family="Helvetica,sans-Serif" font-size="10.00">step()</text>
<text text-anchor="start" x="26.5" y="-410" font-family="Helvetica,sans-Serif" font-size="10.00">*</text>
<text text-anchor="start" x="38" y="-410" font-family="Helvetica,sans-Serif" font-size="10.00">columns()</text>
<text text-anchor="start" x="26.5" y="-395" font-family="Helvetica,sans-Serif" font-size="10.00">*</text>
<text text-anchor="start" x="38" y="-395" font-family="Helvetica,sans-Serif" font-size="10.00">lines()</text>
<polygon fill="#666666" stroke="#666666" points="21,-555 21,-555 92,-555 92,-555 21,-555"/>
<polygon fill="#666666" stroke="#666666" points="21,-540 21,-540 92,-540 92,-540 21,-540"/>
<polygon fill="none" stroke="#666666" points="20.5,-388 20.5,-572 91.5,-572 91.5,-388 20.5,-388"/>
</a>
</g>
</g>
<!-- Node4&#45;&gt;Node3 -->
<g id="edge3_Node000003_Node000004" class="edge">
<title>Node4&#45;&gt;Node3</title>
<g id="a_edge3_Node000003_Node000004"><a xlink:title=" ">
<path fill="none" stroke="#63b8ff" d="M56,-387.58C56,-375.74 56,-364.09 56,-353.56"/>
<polygon fill="none" stroke="#63b8ff" points="56,-353.33 52,-347.33 56,-341.33 60,-347.33 56,-353.33"/>
</a>
</g>
<text text-anchor="middle" x="81.5" y="-362" font-family="Helvetica,sans-Serif" font-size="10.00" fill="grey"> +location</text>
</g>
<!-- Node5 -->
<g id="Node000005" class="node">
<title>Node5</title>
<g id="a_Node000005"><a xlink:href="classyy_1_1position.html" target="_top" xlink:title="A point in a source file.">
<polygon fill="white" stroke="transparent" points="91.5,-784 20.5,-784 20.5,-630 91.5,-630 91.5,-784"/>
<text text-anchor="start" x="28" y="-772" font-family="Helvetica,sans-Serif" font-size="10.00">yy::position</text>
<text text-anchor="start" x="25" y="-757" font-family="Helvetica,sans-Serif" font-size="10.00">+</text>
<text text-anchor="start" x="38" y="-757" font-family="Helvetica,sans-Serif" font-size="10.00">column</text>
<text text-anchor="start" x="25" y="-742" font-family="Helvetica,sans-Serif" font-size="10.00">+</text>
<text text-anchor="start" x="38" y="-742" font-family="Helvetica,sans-Serif" font-size="10.00">filename</text>
<text text-anchor="start" x="25" y="-727" font-family="Helvetica,sans-Serif" font-size="10.00">+</text>
<text text-anchor="start" x="38" y="-727" font-family="Helvetica,sans-Serif" font-size="10.00">line</text>
<text text-anchor="start" x="25" y="-712" font-family="Helvetica,sans-Serif" font-size="10.00">+</text>
<text text-anchor="start" x="38" y="-712" font-family="Helvetica,sans-Serif" font-size="10.00">initialize()</text>
<text text-anchor="start" x="25" y="-697" font-family="Helvetica,sans-Serif" font-size="10.00">+</text>
<text text-anchor="start" x="38" y="-697" font-family="Helvetica,sans-Serif" font-size="10.00">position()</text>
<text text-anchor="start" x="25" y="-682" font-family="Helvetica,sans-Serif" font-size="10.00">+</text>
<text text-anchor="start" x="38" y="-682" font-family="Helvetica,sans-Serif" font-size="10.00">lines()</text>
<text text-anchor="start" x="25" y="-667" font-family="Helvetica,sans-Serif" font-size="10.00">+</text>
<text text-anchor="start" x="38" y="-667" font-family="Helvetica,sans-Serif" font-size="10.00">columns()</text>
<text text-anchor="start" x="26.5" y="-652" font-family="Helvetica,sans-Serif" font-size="10.00">*</text>
<text text-anchor="start" x="38" y="-652" font-family="Helvetica,sans-Serif" font-size="10.00">lines()</text>
<text text-anchor="start" x="26.5" y="-637" font-family="Helvetica,sans-Serif" font-size="10.00">*</text>
<text text-anchor="start" x="38" y="-637" font-family="Helvetica,sans-Serif" font-size="10.00">columns()</text>
<polygon fill="#666666" stroke="#666666" points="21,-767 21,-767 92,-767 92,-767 21,-767"/>
<polygon fill="#666666" stroke="#666666" points="21,-722 21,-722 36,-722 36,-722 21,-722"/>
<polygon fill="#666666" stroke="#666666" points="36,-722 36,-722 92,-722 92,-722 36,-722"/>
<polygon fill="none" stroke="#666666" points="20.5,-630 20.5,-784 91.5,-784 91.5,-630 20.5,-630"/>
</a>
</g>
</g>
<!-- Node5&#45;&gt;Node4 -->
<g id="edge4_Node000004_Node000005" class="edge">
<title>Node5&#45;&gt;Node4</title>
<g id="a_edge4_Node000004_Node000005"><a xlink:title=" ">
<path fill="none" stroke="#63b8ff" d="M56,-629.83C56,-615.24 56,-599.74 56,-584.46"/>
<polygon fill="none" stroke="#63b8ff" points="56,-584.28 52,-578.28 56,-572.28 60,-578.28 56,-584.28"/>
</a>
</g>
<text text-anchor="middle" x="75.5" y="-604" font-family="Helvetica,sans-Serif" font-size="10.00" fill="grey"> +begin</text>
<text text-anchor="middle" x="75.5" y="-593" font-family="Helvetica,sans-Serif" font-size="10.00" fill="grey">+end</text>
</g>
</g>
</svg>
