<?xml version="1.0" encoding="UTF-8" standalone="no"?>
<!DOCTYPE svg PUBLIC "-//W3C//DTD SVG 1.1//EN"
 "http://www.w3.org/Graphics/SVG/1.1/DTD/svg11.dtd">
<!-- Generated by graphviz version 2.43.0 (0)
 -->
<!-- Title: ssd1306_t Pages: 1 -->
<svg width="111pt" height="504pt"
 viewBox="0.00 0.00 111.00 504.00" xmlns="http://www.w3.org/2000/svg" xmlns:xlink="http://www.w3.org/1999/xlink">
<g id="graph0" class="graph" transform="scale(1 1) rotate(0) translate(4 500)">
<title>ssd1306_t</title>
<!-- Node1 -->
<g id="Node000001" class="node">
<title>Node1</title>
<g id="a_Node000001"><a xlink:title=" ">
<polygon fill="#999999" stroke="transparent" points="93.5,-154 9.5,-154 9.5,0 93.5,0 93.5,-154"/>
<text text-anchor="start" x="26.5" y="-142" font-family="Helvetica,sans-Serif" font-size="10.00">ssd1306_t</text>
<text text-anchor="start" x="13.5" y="-127" font-family="Helvetica,sans-Serif" font-size="10.00">+</text>
<text text-anchor="start" x="26.5" y="-127" font-family="Helvetica,sans-Serif" font-size="10.00">address</text>
<text text-anchor="start" x="13.5" y="-112" font-family="Helvetica,sans-Serif" font-size="10.00">+</text>
<text text-anchor="start" x="26.5" y="-112" font-family="Helvetica,sans-Serif" font-size="10.00">bufsize</text>
<text text-anchor="start" x="13.5" y="-97" font-family="Helvetica,sans-Serif" font-size="10.00">+</text>
<text text-anchor="start" x="26.5" y="-97" font-family="Helvetica,sans-Serif" font-size="10.00">external_vcc</text>
<text text-anchor="start" x="13.5" y="-82" font-family="Helvetica,sans-Serif" font-size="10.00">+</text>
<text text-anchor="start" x="26.5" y="-82" font-family="Helvetica,sans-Serif" font-size="10.00">height</text>
<text text-anchor="start" x="13.5" y="-67" font-family="Helvetica,sans-Serif" font-size="10.00">+</text>
<text text-anchor="start" x="26.5" y="-67" font-family="Helvetica,sans-Serif" font-size="10.00">pages</text>
<text text-anchor="start" x="13.5" y="-52" font-family="Helvetica,sans-Serif" font-size="10.00">+</text>
<text text-anchor="start" x="26.5" y="-52" font-family="Helvetica,sans-Serif" font-size="10.00">port_buffer</text>
<text text-anchor="start" x="13.5" y="-37" font-family="Helvetica,sans-Serif" font-size="10.00">+</text>
<text text-anchor="start" x="26.5" y="-37" font-family="Helvetica,sans-Serif" font-size="10.00">ram_buffer</text>
<text text-anchor="start" x="13.5" y="-22" font-family="Helvetica,sans-Serif" font-size="10.00">+</text>
<text text-anchor="start" x="26.5" y="-22" font-family="Helvetica,sans-Serif" font-size="10.00">width</text>
<text text-anchor="start" x="48" y="-7" font-family="Helvetica,sans-Serif" font-size="10.00"> </text>
<polygon fill="#666666" stroke="#666666" points="9.5,-137 9.5,-137 93.5,-137 93.5,-137 9.5,-137"/>
<polygon fill="#666666" stroke="#666666" points="9.5,-17 9.5,-17 24.5,-17 24.5,-17 9.5,-17"/>
<polygon fill="#666666" stroke="#666666" points="24.5,-17 24.5,-17 93.5,-17 93.5,-17 24.5,-17"/>
<polygon fill="none" stroke="#666666" points="9.5,0 9.5,-154 93.5,-154 93.5,0 9.5,0"/>
</a>
</g>
</g>
<!-- Node2 -->
<g id="Node000002" class="node">
<title>Node2</title>
<g id="a_Node000002"><a xlink:href="structi2c__inst.html" target="_top" xlink:title=" ">
<polygon fill="white" stroke="transparent" points="100.5,-250 2.5,-250 2.5,-201 100.5,-201 100.5,-250"/>
<text text-anchor="start" x="32.5" y="-237.5" font-family="Helvetica,sans-Serif" font-size="10.00">i2c_inst</text>
<text text-anchor="start" x="6.5" y="-222.5" font-family="Helvetica,sans-Serif" font-size="10.00">+</text>
<text text-anchor="start" x="19.5" y="-222.5" font-family="Helvetica,sans-Serif" font-size="10.00">restart_on_next</text>
<text text-anchor="start" x="48" y="-207.5" font-family="Helvetica,sans-Serif" font-size="10.00"> </text>
<polygon fill="#666666" stroke="#666666" points="2.5,-232.5 2.5,-232.5 100.5,-232.5 100.5,-232.5 2.5,-232.5"/>
<polygon fill="#666666" stroke="#666666" points="2.5,-217.5 2.5,-217.5 17.5,-217.5 17.5,-217.5 2.5,-217.5"/>
<polygon fill="#666666" stroke="#666666" points="17.5,-217.5 17.5,-217.5 100.5,-217.5 100.5,-217.5 17.5,-217.5"/>
<polygon fill="none" stroke="#666666" points="2.5,-201 2.5,-250 100.5,-250 100.5,-201 2.5,-201"/>
</a>
</g>
</g>
<!-- Node2&#45;&gt;Node1 -->
<g id="edge1_Node000001_Node000002" class="edge">
<title>Node2&#45;&gt;Node1</title>
<g id="a_edge1_Node000001_Node000002"><a xlink:title=" ">
<path fill="none" stroke="#63b8ff" d="M51.5,-200.96C51.5,-191.16 51.5,-179.1 51.5,-166.4"/>
<polygon fill="none" stroke="#63b8ff" points="51.5,-166.09 47.5,-160.09 51.5,-154.09 55.5,-160.09 51.5,-166.09"/>
</a>
</g>
<text text-anchor="middle" x="77" y="-175" font-family="Helvetica,sans-Serif" font-size="10.00" fill="grey"> +i2c_port</text>
</g>
<!-- Node3 -->
<g id="Node000003" class="node">
<title>Node3</title>
<g id="a_Node000003"><a xlink:href="structi2c__hw__t.html" target="_top" xlink:title=" ">
<polygon fill="white" stroke="transparent" points="103,-496 0,-496 0,-297 103,-297 103,-496"/>
<text text-anchor="start" x="30.5" y="-483.5" font-family="Helvetica,sans-Serif" font-size="10.00">i2c_hw_t</text>
<text text-anchor="start" x="4.5" y="-468.5" font-family="Helvetica,sans-Serif" font-size="10.00">+</text>
<text text-anchor="start" x="17.5" y="-468.5" font-family="Helvetica,sans-Serif" font-size="10.00">_pad0</text>
<text text-anchor="start" x="4.5" y="-453.5" font-family="Helvetica,sans-Serif" font-size="10.00">+</text>
<text text-anchor="start" x="17.5" y="-453.5" font-family="Helvetica,sans-Serif" font-size="10.00">_pad1</text>
<text text-anchor="start" x="4.5" y="-438.5" font-family="Helvetica,sans-Serif" font-size="10.00">+</text>
<text text-anchor="start" x="17.5" y="-438.5" font-family="Helvetica,sans-Serif" font-size="10.00">_pad2</text>
<text text-anchor="start" x="4.5" y="-423.5" font-family="Helvetica,sans-Serif" font-size="10.00">+</text>
<text text-anchor="start" x="17.5" y="-423.5" font-family="Helvetica,sans-Serif" font-size="10.00">_pad3</text>
<text text-anchor="start" x="4.5" y="-408.5" font-family="Helvetica,sans-Serif" font-size="10.00">+</text>
<text text-anchor="start" x="17.5" y="-408.5" font-family="Helvetica,sans-Serif" font-size="10.00">ack_general_call</text>
<text text-anchor="start" x="4.5" y="-393.5" font-family="Helvetica,sans-Serif" font-size="10.00">+</text>
<text text-anchor="start" x="17.5" y="-393.5" font-family="Helvetica,sans-Serif" font-size="10.00">clr_activity</text>
<text text-anchor="start" x="4.5" y="-378.5" font-family="Helvetica,sans-Serif" font-size="10.00">+</text>
<text text-anchor="start" x="17.5" y="-378.5" font-family="Helvetica,sans-Serif" font-size="10.00">clr_gen_call</text>
<text text-anchor="start" x="4.5" y="-363.5" font-family="Helvetica,sans-Serif" font-size="10.00">+</text>
<text text-anchor="start" x="17.5" y="-363.5" font-family="Helvetica,sans-Serif" font-size="10.00">clr_intr</text>
<text text-anchor="start" x="4.5" y="-348.5" font-family="Helvetica,sans-Serif" font-size="10.00">+</text>
<text text-anchor="start" x="17.5" y="-348.5" font-family="Helvetica,sans-Serif" font-size="10.00">clr_rd_req</text>
<text text-anchor="start" x="4.5" y="-333.5" font-family="Helvetica,sans-Serif" font-size="10.00">+</text>
<text text-anchor="start" x="17.5" y="-333.5" font-family="Helvetica,sans-Serif" font-size="10.00">clr_restart_det</text>
<text text-anchor="start" x="17.5" y="-318.5" font-family="Helvetica,sans-Serif" font-size="10.00">e 36 mais...</text>
<text text-anchor="start" x="48.5" y="-303.5" font-family="Helvetica,sans-Serif" font-size="10.00"> </text>
<polygon fill="#666666" stroke="#666666" points="0.5,-478.5 0.5,-478.5 103.5,-478.5 103.5,-478.5 0.5,-478.5"/>
<polygon fill="#666666" stroke="#666666" points="0.5,-313.5 0.5,-313.5 15.5,-313.5 15.5,-313.5 0.5,-313.5"/>
<polygon fill="#666666" stroke="#666666" points="15.5,-313.5 15.5,-313.5 103.5,-313.5 103.5,-313.5 15.5,-313.5"/>
<polygon fill="none" stroke="#666666" points="0,-297 0,-496 103,-496 103,-297 0,-297"/>
</a>
</g>
</g>
<!-- Node3&#45;&gt;Node2 -->
<g id="edge2_Node000002_Node000003" class="edge">
<title>Node3&#45;&gt;Node2</title>
<g id="a_edge2_Node000002_Node000003"><a xlink:title=" ">
<path fill="none" stroke="#63b8ff" d="M51.5,-296.7C51.5,-284.51 51.5,-272.73 51.5,-262.42"/>
<polygon fill="none" stroke="#63b8ff" points="51.5,-262.21 47.5,-256.21 51.5,-250.21 55.5,-256.21 51.5,-262.21"/>
</a>
</g>
<text text-anchor="middle" x="64.5" y="-271" font-family="Helvetica,sans-Serif" font-size="10.00" fill="grey"> +hw</text>
</g>
</g>
</svg>
