<?xml version="1.0" encoding="UTF-8" standalone="no"?>
<!DOCTYPE svg PUBLIC "-//W3C//DTD SVG 1.1//EN"
 "http://www.w3.org/Graphics/SVG/1.1/DTD/svg11.dtd">
<!-- Generated by graphviz version 2.43.0 (0)
 -->
<!-- Title: instr_nop Pages: 1 -->
<svg width="135pt" height="462pt"
 viewBox="0.00 0.00 135.00 462.00" xmlns="http://www.w3.org/2000/svg" xmlns:xlink="http://www.w3.org/1999/xlink">
<g id="graph0" class="graph" transform="scale(1 1) rotate(0) translate(4 458)">
<title>instr_nop</title>
<!-- Node1 -->
<g id="Node000001" class="node">
<title>Node1</title>
<g id="a_Node000001"><a xlink:title=" ">
<polygon fill="#999999" stroke="transparent" points="100.5,-49 26.5,-49 26.5,0 100.5,0 100.5,-49"/>
<text text-anchor="start" x="40.5" y="-36.5" font-family="Helvetica,sans-Serif" font-size="10.00">instr_nop</text>
<text text-anchor="start" x="60" y="-21.5" font-family="Helvetica,sans-Serif" font-size="10.00"> </text>
<text text-anchor="start" x="30.5" y="-6.5" font-family="Helvetica,sans-Serif" font-size="10.00">+</text>
<text text-anchor="start" x="43.5" y="-6.5" font-family="Helvetica,sans-Serif" font-size="10.00">instr_nop()</text>
<polygon fill="#666666" stroke="#666666" points="26.5,-31.5 26.5,-31.5 100.5,-31.5 100.5,-31.5 26.5,-31.5"/>
<polygon fill="#666666" stroke="#666666" points="26.5,-16.5 26.5,-16.5 100.5,-16.5 100.5,-16.5 26.5,-16.5"/>
<polygon fill="none" stroke="#666666" points="26.5,0 26.5,-49 100.5,-49 100.5,0 26.5,0"/>
</a>
</g>
</g>
<!-- Node2 -->
<g id="Node000002" class="node">
<title>Node2</title>
<g id="a_Node000002"><a xlink:href="structinstr__mov.html" target="_top" xlink:title=" ">
<polygon fill="white" stroke="transparent" points="127,-209 0,-209 0,-85 127,-85 127,-209"/>
<text text-anchor="start" x="39.5" y="-197" font-family="Helvetica,sans-Serif" font-size="10.00">instr_mov</text>
<text text-anchor="start" x="4.5" y="-182" font-family="Helvetica,sans-Serif" font-size="10.00">+</text>
<text text-anchor="start" x="17.5" y="-182" font-family="Helvetica,sans-Serif" font-size="10.00">dest</text>
<text text-anchor="start" x="4.5" y="-167" font-family="Helvetica,sans-Serif" font-size="10.00">+</text>
<text text-anchor="start" x="17.5" y="-167" font-family="Helvetica,sans-Serif" font-size="10.00">op</text>
<text text-anchor="start" x="4.5" y="-152" font-family="Helvetica,sans-Serif" font-size="10.00">+</text>
<text text-anchor="start" x="17.5" y="-152" font-family="Helvetica,sans-Serif" font-size="10.00">src</text>
<text text-anchor="start" x="4.5" y="-137" font-family="Helvetica,sans-Serif" font-size="10.00">+</text>
<text text-anchor="start" x="17.5" y="-137" font-family="Helvetica,sans-Serif" font-size="10.00">get_push_get_index()</text>
<text text-anchor="start" x="4.5" y="-122" font-family="Helvetica,sans-Serif" font-size="10.00">+</text>
<text text-anchor="start" x="17.5" y="-122" font-family="Helvetica,sans-Serif" font-size="10.00">instr_mov()</text>
<text text-anchor="start" x="4.5" y="-107" font-family="Helvetica,sans-Serif" font-size="10.00">+</text>
<text text-anchor="start" x="17.5" y="-107" font-family="Helvetica,sans-Serif" font-size="10.00">pre_validate()</text>
<text text-anchor="start" x="4.5" y="-92" font-family="Helvetica,sans-Serif" font-size="10.00">+</text>
<text text-anchor="start" x="17.5" y="-92" font-family="Helvetica,sans-Serif" font-size="10.00">raw_encode()</text>
<polygon fill="#666666" stroke="#666666" points="0.5,-192 0.5,-192 127.5,-192 127.5,-192 0.5,-192"/>
<polygon fill="#666666" stroke="#666666" points="0.5,-147 0.5,-147 15.5,-147 15.5,-147 0.5,-147"/>
<polygon fill="#666666" stroke="#666666" points="15.5,-147 15.5,-147 127.5,-147 127.5,-147 15.5,-147"/>
<polygon fill="none" stroke="#666666" points="0,-85 0,-209 127,-209 127,-85 0,-85"/>
</a>
</g>
</g>
<!-- Node2&#45;&gt;Node1 -->
<g id="edge1_Node000001_Node000002" class="edge">
<title>Node2&#45;&gt;Node1</title>
<g id="a_edge1_Node000001_Node000002"><a xlink:title=" ">
<path fill="none" stroke="#63b8ff" d="M63.5,-74.65C63.5,-65.48 63.5,-56.67 63.5,-49.1"/>
<polygon fill="none" stroke="#63b8ff" points="60,-74.69 63.5,-84.69 67,-74.69 60,-74.69"/>
</a>
</g>
</g>
<!-- Node3 -->
<g id="Node000003" class="node">
<title>Node3</title>
<g id="a_Node000003"><a xlink:href="structinstruction.html" target="_top" xlink:title=" ">
<polygon fill="white" stroke="transparent" points="108.5,-354 18.5,-354 18.5,-245 108.5,-245 108.5,-354"/>
<text text-anchor="start" x="37.5" y="-341.5" font-family="Helvetica,sans-Serif" font-size="10.00">instruction</text>
<text text-anchor="start" x="22.5" y="-326.5" font-family="Helvetica,sans-Serif" font-size="10.00">+</text>
<text text-anchor="start" x="35.5" y="-326.5" font-family="Helvetica,sans-Serif" font-size="10.00">delay</text>
<text text-anchor="start" x="22.5" y="-311.5" font-family="Helvetica,sans-Serif" font-size="10.00">+</text>
<text text-anchor="start" x="35.5" y="-311.5" font-family="Helvetica,sans-Serif" font-size="10.00">sideset</text>
<text text-anchor="start" x="22.5" y="-296.5" font-family="Helvetica,sans-Serif" font-size="10.00">+</text>
<text text-anchor="start" x="35.5" y="-296.5" font-family="Helvetica,sans-Serif" font-size="10.00">encode()</text>
<text text-anchor="start" x="22.5" y="-281.5" font-family="Helvetica,sans-Serif" font-size="10.00">+</text>
<text text-anchor="start" x="35.5" y="-281.5" font-family="Helvetica,sans-Serif" font-size="10.00">instruction()</text>
<text text-anchor="start" x="22.5" y="-266.5" font-family="Helvetica,sans-Serif" font-size="10.00">+</text>
<text text-anchor="start" x="35.5" y="-266.5" font-family="Helvetica,sans-Serif" font-size="10.00">pre_validate()</text>
<text text-anchor="start" x="22.5" y="-251.5" font-family="Helvetica,sans-Serif" font-size="10.00">+</text>
<text text-anchor="start" x="35.5" y="-251.5" font-family="Helvetica,sans-Serif" font-size="10.00">raw_encode()</text>
<polygon fill="#666666" stroke="#666666" points="18.5,-336.5 18.5,-336.5 108.5,-336.5 108.5,-336.5 18.5,-336.5"/>
<polygon fill="#666666" stroke="#666666" points="18.5,-306.5 18.5,-306.5 33.5,-306.5 33.5,-306.5 18.5,-306.5"/>
<polygon fill="#666666" stroke="#666666" points="33.5,-306.5 33.5,-306.5 108.5,-306.5 108.5,-306.5 33.5,-306.5"/>
<polygon fill="none" stroke="#666666" points="18.5,-245 18.5,-354 108.5,-354 108.5,-245 18.5,-245"/>
</a>
</g>
</g>
<!-- Node3&#45;&gt;Node2 -->
<g id="edge2_Node000002_Node000003" class="edge">
<title>Node3&#45;&gt;Node2</title>
<g id="a_edge2_Node000002_Node000003"><a xlink:title=" ">
<path fill="none" stroke="#63b8ff" d="M63.5,-234.49C63.5,-226.11 63.5,-217.54 63.5,-209.21"/>
<polygon fill="none" stroke="#63b8ff" points="60,-234.59 63.5,-244.59 67,-234.59 60,-234.59"/>
</a>
</g>
</g>
<!-- Node4 -->
<g id="Node000004" class="node">
<title>Node4</title>
<g id="a_Node000004"><a xlink:href="structsrc__item.html" target="_top" xlink:title=" ">
<polygon fill="white" stroke="transparent" points="99,-454 28,-454 28,-390 99,-390 99,-454"/>
<text text-anchor="start" x="42.5" y="-442" font-family="Helvetica,sans-Serif" font-size="10.00">src_item</text>
<text text-anchor="start" x="32.5" y="-427" font-family="Helvetica,sans-Serif" font-size="10.00">+</text>
<text text-anchor="start" x="45.5" y="-427" font-family="Helvetica,sans-Serif" font-size="10.00">location</text>
<text text-anchor="start" x="32.5" y="-412" font-family="Helvetica,sans-Serif" font-size="10.00">+</text>
<text text-anchor="start" x="45.5" y="-412" font-family="Helvetica,sans-Serif" font-size="10.00">src_item()</text>
<text text-anchor="start" x="32.5" y="-397" font-family="Helvetica,sans-Serif" font-size="10.00">+</text>
<text text-anchor="start" x="45.5" y="-397" font-family="Helvetica,sans-Serif" font-size="10.00">src_item()</text>
<polygon fill="#666666" stroke="#666666" points="28.5,-437 28.5,-437 99.5,-437 99.5,-437 28.5,-437"/>
<polygon fill="#666666" stroke="#666666" points="28.5,-422 28.5,-422 43.5,-422 43.5,-422 28.5,-422"/>
<polygon fill="#666666" stroke="#666666" points="43.5,-422 43.5,-422 99.5,-422 99.5,-422 43.5,-422"/>
<polygon fill="none" stroke="#666666" points="28,-390 28,-454 99,-454 99,-390 28,-390"/>
</a>
</g>
</g>
<!-- Node4&#45;&gt;Node3 -->
<g id="edge3_Node000003_Node000004" class="edge">
<title>Node4&#45;&gt;Node3</title>
<g id="a_edge3_Node000003_Node000004"><a xlink:title=" ">
<path fill="none" stroke="#63b8ff" d="M63.5,-379.89C63.5,-371.67 63.5,-362.91 63.5,-354.33"/>
<polygon fill="none" stroke="#63b8ff" points="60,-379.97 63.5,-389.97 67,-379.97 60,-379.97"/>
</a>
</g>
</g>
</g>
</svg>
