<?xml version="1.0" encoding="UTF-8" standalone="no"?>
<!DOCTYPE svg PUBLIC "-//W3C//DTD SVG 1.1//EN"
 "http://www.w3.org/Graphics/SVG/1.1/DTD/svg11.dtd">
<!-- Generated by graphviz version 2.43.0 (0)
 -->
<!-- Title: boot_info_t Pages: 1 -->
<svg width="138pt" height="173pt"
 viewBox="0.00 0.00 138.00 173.00" xmlns="http://www.w3.org/2000/svg" xmlns:xlink="http://www.w3.org/1999/xlink">
<g id="graph0" class="graph" transform="scale(1 1) rotate(0) translate(4 169)">
<title>boot_info_t</title>
<!-- Node1 -->
<g id="Node000001" class="node">
<title>Node1</title>
<g id="a_Node000001"><a xlink:title=" ">
<polygon fill="#999999" stroke="transparent" points="130,-165 0,-165 0,0 130,0 130,-165"/>
<text text-anchor="start" x="37.5" y="-152.5" font-family="Helvetica,sans-Serif" font-size="10.00">boot_info_t</text>
<text text-anchor="start" x="4" y="-137.5" font-family="Helvetica,sans-Serif" font-size="10.00">+</text>
<text text-anchor="start" x="17" y="-137.5" font-family="Helvetica,sans-Serif" font-size="10.00">@81</text>
<text text-anchor="start" x="4" y="-122.5" font-family="Helvetica,sans-Serif" font-size="10.00">+</text>
<text text-anchor="start" x="17" y="-122.5" font-family="Helvetica,sans-Serif" font-size="10.00">boot_diagnostic</text>
<text text-anchor="start" x="4" y="-107.5" font-family="Helvetica,sans-Serif" font-size="10.00">+</text>
<text text-anchor="start" x="17" y="-107.5" font-family="Helvetica,sans-Serif" font-size="10.00">boot_type</text>
<text text-anchor="start" x="4" y="-92.5" font-family="Helvetica,sans-Serif" font-size="10.00">+</text>
<text text-anchor="start" x="17" y="-92.5" font-family="Helvetica,sans-Serif" font-size="10.00">boot_word</text>
<text text-anchor="start" x="4" y="-77.5" font-family="Helvetica,sans-Serif" font-size="10.00">+</text>
<text text-anchor="start" x="17" y="-77.5" font-family="Helvetica,sans-Serif" font-size="10.00">diagnostic_partition</text>
<text text-anchor="start" x="17" y="-66.5" font-family="Helvetica,sans-Serif" font-size="10.00">_index</text>
<text text-anchor="start" x="4" y="-51.5" font-family="Helvetica,sans-Serif" font-size="10.00">+</text>
<text text-anchor="start" x="17" y="-51.5" font-family="Helvetica,sans-Serif" font-size="10.00">partition</text>
<text text-anchor="start" x="4" y="-36.5" font-family="Helvetica,sans-Serif" font-size="10.00">+</text>
<text text-anchor="start" x="17" y="-36.5" font-family="Helvetica,sans-Serif" font-size="10.00">reboot_params</text>
<text text-anchor="start" x="4" y="-21.5" font-family="Helvetica,sans-Serif" font-size="10.00">+</text>
<text text-anchor="start" x="17" y="-21.5" font-family="Helvetica,sans-Serif" font-size="10.00">tbyb_and_update_info</text>
<text text-anchor="start" x="61.5" y="-6.5" font-family="Helvetica,sans-Serif" font-size="10.00"> </text>
<polygon fill="#666666" stroke="#666666" points="0,-147.5 0,-147.5 130,-147.5 130,-147.5 0,-147.5"/>
<polygon fill="#666666" stroke="#666666" points="0,-16.5 0,-16.5 15,-16.5 15,-16.5 0,-16.5"/>
<polygon fill="#666666" stroke="#666666" points="15,-16.5 15,-16.5 130,-16.5 130,-16.5 15,-16.5"/>
<polygon fill="none" stroke="#666666" points="0,0 0,-165 130,-165 130,0 0,0"/>
</a>
</g>
</g>
</g>
</svg>
