<?xml version="1.0" encoding="UTF-8" standalone="no"?>
<!DOCTYPE svg PUBLIC "-//W3C//DTD SVG 1.1//EN"
 "http://www.w3.org/Graphics/SVG/1.1/DTD/svg11.dtd">
<!-- Generated by graphviz version 2.43.0 (0)
 -->
<!-- Title: io_bank0_hw_t Pages: 1 -->
<svg width="329pt" height="373pt"
 viewBox="0.00 0.00 329.00 373.00" xmlns="http://www.w3.org/2000/svg" xmlns:xlink="http://www.w3.org/1999/xlink">
<g id="graph0" class="graph" transform="scale(1 1) rotate(0) translate(4 369)">
<title>io_bank0_hw_t</title>
<!-- Node1 -->
<g id="Node000001" class="node">
<title>Node1</title>
<g id="a_Node000001"><a xlink:title="\tagio_bank0_hw[]">
<polygon fill="#999999" stroke="transparent" points="228.5,-206 59.5,-206 59.5,0 228.5,0 228.5,-206"/>
<text text-anchor="start" x="108" y="-194" font-family="Helvetica,sans-Serif" font-size="10.00">io_bank0_hw_t</text>
<text text-anchor="start" x="64" y="-179" font-family="Helvetica,sans-Serif" font-size="10.00">+</text>
<text text-anchor="start" x="77" y="-179" font-family="Helvetica,sans-Serif" font-size="10.00">@19</text>
<text text-anchor="start" x="64" y="-164" font-family="Helvetica,sans-Serif" font-size="10.00">+</text>
<text text-anchor="start" x="77" y="-164" font-family="Helvetica,sans-Serif" font-size="10.00">@51</text>
<text text-anchor="start" x="64" y="-149" font-family="Helvetica,sans-Serif" font-size="10.00">+</text>
<text text-anchor="start" x="77" y="-149" font-family="Helvetica,sans-Serif" font-size="10.00">_pad0</text>
<text text-anchor="start" x="64" y="-134" font-family="Helvetica,sans-Serif" font-size="10.00">+</text>
<text text-anchor="start" x="77" y="-134" font-family="Helvetica,sans-Serif" font-size="10.00">intr</text>
<text text-anchor="start" x="64" y="-119" font-family="Helvetica,sans-Serif" font-size="10.00">+</text>
<text text-anchor="start" x="77" y="-119" font-family="Helvetica,sans-Serif" font-size="10.00">irqsummary_dormant</text>
<text text-anchor="start" x="77" y="-108" font-family="Helvetica,sans-Serif" font-size="10.00">_wake_nonsecure</text>
<text text-anchor="start" x="64" y="-93" font-family="Helvetica,sans-Serif" font-size="10.00">+</text>
<text text-anchor="start" x="77" y="-93" font-family="Helvetica,sans-Serif" font-size="10.00">irqsummary_dormant</text>
<text text-anchor="start" x="77" y="-82" font-family="Helvetica,sans-Serif" font-size="10.00">_wake_secure</text>
<text text-anchor="start" x="64" y="-67" font-family="Helvetica,sans-Serif" font-size="10.00">+</text>
<text text-anchor="start" x="77" y="-67" font-family="Helvetica,sans-Serif" font-size="10.00">irqsummary_proc0_nonsecure</text>
<text text-anchor="start" x="64" y="-52" font-family="Helvetica,sans-Serif" font-size="10.00">+</text>
<text text-anchor="start" x="77" y="-52" font-family="Helvetica,sans-Serif" font-size="10.00">irqsummary_proc0_secure</text>
<text text-anchor="start" x="64" y="-37" font-family="Helvetica,sans-Serif" font-size="10.00">+</text>
<text text-anchor="start" x="77" y="-37" font-family="Helvetica,sans-Serif" font-size="10.00">irqsummary_proc1_nonsecure</text>
<text text-anchor="start" x="64" y="-22" font-family="Helvetica,sans-Serif" font-size="10.00">+</text>
<text text-anchor="start" x="77" y="-22" font-family="Helvetica,sans-Serif" font-size="10.00">irqsummary_proc1_secure</text>
<text text-anchor="start" x="141" y="-7" font-family="Helvetica,sans-Serif" font-size="10.00"> </text>
<polygon fill="#666666" stroke="#666666" points="60,-189 60,-189 229,-189 229,-189 60,-189"/>
<polygon fill="#666666" stroke="#666666" points="60,-17 60,-17 75,-17 75,-17 60,-17"/>
<polygon fill="#666666" stroke="#666666" points="75,-17 75,-17 229,-17 229,-17 75,-17"/>
<polygon fill="none" stroke="#666666" points="59.5,0 59.5,-206 228.5,-206 228.5,0 59.5,0"/>
</a>
</g>
</g>
<!-- Node2 -->
<g id="Node000002" class="node">
<title>Node2</title>
<g id="a_Node000002"><a xlink:href="structio__bank0__status__ctrl__hw__t.html" target="_top" xlink:title=" ">
<polygon fill="white" stroke="transparent" points="140,-357.5 0,-357.5 0,-293.5 140,-293.5 140,-357.5"/>
<text text-anchor="start" x="5" y="-345.5" font-family="Helvetica,sans-Serif" font-size="10.00">io_bank0_status_ctrl_hw_t</text>
<text text-anchor="start" x="26" y="-330.5" font-family="Helvetica,sans-Serif" font-size="10.00">+</text>
<text text-anchor="start" x="61" y="-330.5" font-family="Helvetica,sans-Serif" font-size="10.00">ctrl</text>
<text text-anchor="start" x="26" y="-315.5" font-family="Helvetica,sans-Serif" font-size="10.00">+</text>
<text text-anchor="start" x="61" y="-315.5" font-family="Helvetica,sans-Serif" font-size="10.00">status</text>
<text text-anchor="start" x="66.5" y="-300.5" font-family="Helvetica,sans-Serif" font-size="10.00"> </text>
<polygon fill="#666666" stroke="#666666" points="0,-340.5 0,-340.5 140,-340.5 140,-340.5 0,-340.5"/>
<polygon fill="#666666" stroke="#666666" points="0,-310.5 0,-310.5 59,-310.5 59,-310.5 0,-310.5"/>
<polygon fill="#666666" stroke="#666666" points="59,-310.5 59,-310.5 140,-310.5 140,-310.5 59,-310.5"/>
<polygon fill="none" stroke="#666666" points="0,-293.5 0,-357.5 140,-357.5 140,-293.5 0,-293.5"/>
</a>
</g>
</g>
<!-- Node2&#45;&gt;Node1 -->
<g id="edge1_Node000001_Node000002" class="edge">
<title>Node2&#45;&gt;Node1</title>
<g id="a_edge1_Node000001_Node000002"><a xlink:title=" ">
<path fill="none" stroke="#63b8ff" d="M80.45,-293.38C87.2,-273.24 96.46,-245.66 105.82,-217.78"/>
<polygon fill="none" stroke="#63b8ff" points="105.87,-217.63 103.98,-210.67 109.68,-206.25 111.57,-213.21 105.87,-217.63"/>
</a>
</g>
<text text-anchor="middle" x="113.5" y="-243.5" font-family="Helvetica,sans-Serif" font-size="10.00" fill="grey"> +io</text>
</g>
<!-- Node3 -->
<g id="Node000003" class="node">
<title>Node3</title>
<g id="a_Node000003"><a xlink:href="structio__bank0__irq__ctrl__hw__t.html" target="_top" xlink:title=" ">
<polygon fill="white" stroke="transparent" points="280,-365 158,-365 158,-286 280,-286 280,-365"/>
<text text-anchor="start" x="163" y="-352.5" font-family="Helvetica,sans-Serif" font-size="10.00">io_bank0_irq_ctrl_hw_t</text>
<text text-anchor="start" x="182.5" y="-337.5" font-family="Helvetica,sans-Serif" font-size="10.00">+</text>
<text text-anchor="start" x="216" y="-337.5" font-family="Helvetica,sans-Serif" font-size="10.00">inte</text>
<text text-anchor="start" x="182.5" y="-322.5" font-family="Helvetica,sans-Serif" font-size="10.00">+</text>
<text text-anchor="start" x="216" y="-322.5" font-family="Helvetica,sans-Serif" font-size="10.00">intf</text>
<text text-anchor="start" x="182.5" y="-307.5" font-family="Helvetica,sans-Serif" font-size="10.00">+</text>
<text text-anchor="start" x="216" y="-307.5" font-family="Helvetica,sans-Serif" font-size="10.00">ints</text>
<text text-anchor="start" x="215.5" y="-292.5" font-family="Helvetica,sans-Serif" font-size="10.00"> </text>
<polygon fill="#666666" stroke="#666666" points="158,-347.5 158,-347.5 280,-347.5 280,-347.5 158,-347.5"/>
<polygon fill="#666666" stroke="#666666" points="158,-302.5 158,-302.5 214,-302.5 214,-302.5 158,-302.5"/>
<polygon fill="#666666" stroke="#666666" points="214,-302.5 214,-302.5 280,-302.5 280,-302.5 214,-302.5"/>
<polygon fill="none" stroke="#666666" points="158,-286 158,-365 280,-365 280,-286 158,-286"/>
</a>
</g>
</g>
<!-- Node3&#45;&gt;Node1 -->
<g id="edge2_Node000001_Node000003" class="edge">
<title>Node3&#45;&gt;Node1</title>
<g id="a_edge2_Node000001_Node000003"><a xlink:title=" ">
<path fill="none" stroke="#63b8ff" d="M205.85,-285.84C199.32,-266.65 191.06,-242.35 182.72,-217.83"/>
<polygon fill="none" stroke="#63b8ff" points="182.62,-217.53 176.9,-213.14 178.75,-206.17 184.47,-210.57 182.62,-217.53"/>
</a>
</g>
<text text-anchor="middle" x="259.5" y="-260" font-family="Helvetica,sans-Serif" font-size="10.00" fill="grey"> +dormant_wake_irq_ctrl</text>
<text text-anchor="middle" x="259.5" y="-249" font-family="Helvetica,sans-Serif" font-size="10.00" fill="grey">+irq_ctrl</text>
<text text-anchor="middle" x="259.5" y="-238" font-family="Helvetica,sans-Serif" font-size="10.00" fill="grey">+proc0_irq_ctrl</text>
<text text-anchor="middle" x="259.5" y="-227" font-family="Helvetica,sans-Serif" font-size="10.00" fill="grey">+proc1_irq_ctrl</text>
</g>
</g>
</svg>
