<?xml version="1.0" encoding="UTF-8" standalone="no"?>
<!DOCTYPE svg PUBLIC "-//W3C//DTD SVG 1.1//EN"
 "http://www.w3.org/Graphics/SVG/1.1/DTD/svg11.dtd">
<!-- Generated by graphviz version 2.43.0 (0)
 -->
<!-- Title: lock_core Pages: 1 -->
<svg width="102pt" height="153pt"
 viewBox="0.00 0.00 101.50 153.00" xmlns="http://www.w3.org/2000/svg" xmlns:xlink="http://www.w3.org/1999/xlink">
<g id="graph0" class="graph" transform="scale(1 1) rotate(0) translate(4 149)">
<title>lock_core</title>
<!-- Node1 -->
<g id="Node000001" class="node">
<title>Node1</title>
<g id="a_Node000001"><a xlink:title=" ">
<polygon fill="#999999" stroke="transparent" points="64,-49 7,-49 7,0 64,0 64,-49"/>
<text text-anchor="start" x="12.5" y="-36.5" font-family="Helvetica,sans-Serif" font-size="10.00">lock_core</text>
<text text-anchor="start" x="32.5" y="-21.5" font-family="Helvetica,sans-Serif" font-size="10.00"> </text>
<text text-anchor="start" x="32.5" y="-6.5" font-family="Helvetica,sans-Serif" font-size="10.00"> </text>
<polygon fill="#666666" stroke="#666666" points="7.5,-31.5 7.5,-31.5 64.5,-31.5 64.5,-31.5 7.5,-31.5"/>
<polygon fill="#666666" stroke="#666666" points="7.5,-16.5 7.5,-16.5 64.5,-16.5 64.5,-16.5 7.5,-16.5"/>
<polygon fill="none" stroke="#666666" points="7,0 7,-49 64,-49 64,0 7,0"/>
</a>
</g>
</g>
<!-- Node2 -->
<g id="Node000002" class="node">
<title>Node2</title>
<g id="a_Node000002"><a xlink:title=" ">
<polygon fill="white" stroke="transparent" points="71,-145 0,-145 0,-96 71,-96 71,-145"/>
<text text-anchor="start" x="5.5" y="-132.5" font-family="Helvetica,sans-Serif" font-size="10.00">_spin_lock_t</text>
<text text-anchor="start" x="9" y="-117.5" font-family="Helvetica,sans-Serif" font-size="10.00">+</text>
<text text-anchor="start" x="26.5" y="-117.5" font-family="Helvetica,sans-Serif" font-size="10.00">locked</text>
<text text-anchor="start" x="32.5" y="-102.5" font-family="Helvetica,sans-Serif" font-size="10.00"> </text>
<polygon fill="#666666" stroke="#666666" points="0.5,-127.5 0.5,-127.5 71.5,-127.5 71.5,-127.5 0.5,-127.5"/>
<polygon fill="#666666" stroke="#666666" points="0.5,-112.5 0.5,-112.5 24.5,-112.5 24.5,-112.5 0.5,-112.5"/>
<polygon fill="#666666" stroke="#666666" points="24.5,-112.5 24.5,-112.5 71.5,-112.5 71.5,-112.5 24.5,-112.5"/>
<polygon fill="none" stroke="#666666" points="0,-96 0,-145 71,-145 71,-96 0,-96"/>
</a>
</g>
</g>
<!-- Node2&#45;&gt;Node1 -->
<g id="edge1_Node000001_Node000002" class="edge">
<title>Node2&#45;&gt;Node1</title>
<g id="a_edge1_Node000001_Node000002"><a xlink:title=" ">
<path fill="none" stroke="#63b8ff" d="M35.5,-95.78C35.5,-85.32 35.5,-72.79 35.5,-61.23"/>
<polygon fill="none" stroke="#63b8ff" points="35.5,-61.21 31.5,-55.21 35.5,-49.21 39.5,-55.21 35.5,-61.21"/>
</a>
</g>
<text text-anchor="middle" x="64.5" y="-70" font-family="Helvetica,sans-Serif" font-size="10.00" fill="grey"> +spin_lock</text>
</g>
</g>
</svg>
