<?xml version="1.0" encoding="UTF-8" standalone="no"?>
<!DOCTYPE svg PUBLIC "-//W3C//DTD SVG 1.1//EN"
 "http://www.w3.org/Graphics/SVG/1.1/DTD/svg11.dtd">
<!-- Generated by graphviz version 2.43.0 (0)
 -->
<!-- Title: async_context_threadsafe_background Pages: 1 -->
<svg width="793pt" height="697pt"
 viewBox="0.00 0.00 792.50 697.00" xmlns="http://www.w3.org/2000/svg" xmlns:xlink="http://www.w3.org/1999/xlink">
<g id="graph0" class="graph" transform="scale(1 1) rotate(0) translate(4 693)">
<title>async_context_threadsafe_background</title>
<!-- Node1 -->
<g id="Node000001" class="node">
<title>Node1</title>
<g id="a_Node000001"><a xlink:title=" ">
<polygon fill="#999999" stroke="transparent" points="607.5,-105 468.5,-105 468.5,0 607.5,0 607.5,-105"/>
<text text-anchor="start" x="474" y="-92.5" font-family="Helvetica,sans-Serif" font-size="10.00">async_context_threadsafe</text>
<text text-anchor="start" x="507" y="-81.5" font-family="Helvetica,sans-Serif" font-size="10.00">_background</text>
<text text-anchor="start" x="476.5" y="-66.5" font-family="Helvetica,sans-Serif" font-size="10.00">+</text>
<text text-anchor="start" x="493" y="-66.5" font-family="Helvetica,sans-Serif" font-size="10.00">alarm_id</text>
<text text-anchor="start" x="476.5" y="-51.5" font-family="Helvetica,sans-Serif" font-size="10.00">+</text>
<text text-anchor="start" x="493" y="-51.5" font-family="Helvetica,sans-Serif" font-size="10.00">alarm_pending</text>
<text text-anchor="start" x="476.5" y="-36.5" font-family="Helvetica,sans-Serif" font-size="10.00">+</text>
<text text-anchor="start" x="493" y="-36.5" font-family="Helvetica,sans-Serif" font-size="10.00">last_set_alarm_time</text>
<text text-anchor="start" x="476.5" y="-21.5" font-family="Helvetica,sans-Serif" font-size="10.00">+</text>
<text text-anchor="start" x="493" y="-21.5" font-family="Helvetica,sans-Serif" font-size="10.00">low_priority_irq_num</text>
<text text-anchor="start" x="535" y="-6.5" font-family="Helvetica,sans-Serif" font-size="10.00"> </text>
<polygon fill="#666666" stroke="#666666" points="469,-76.5 469,-76.5 608,-76.5 608,-76.5 469,-76.5"/>
<polygon fill="#666666" stroke="#666666" points="469,-16.5 469,-16.5 491,-16.5 491,-16.5 469,-16.5"/>
<polygon fill="#666666" stroke="#666666" points="491,-16.5 491,-16.5 608,-16.5 608,-16.5 491,-16.5"/>
<polygon fill="none" stroke="#666666" points="468.5,0 468.5,-105 607.5,-105 607.5,0 468.5,0"/>
</a>
</g>
</g>
<!-- Node2 -->
<g id="Node000002" class="node">
<title>Node2</title>
<g id="a_Node000002"><a xlink:href="structasync__context.html" target="_top" xlink:title="Base structure type of all async_contexts.">
<polygon fill="white" stroke="transparent" points="347.5,-231 266.5,-231 266.5,-152 347.5,-152 347.5,-231"/>
<text text-anchor="start" x="272" y="-218.5" font-family="Helvetica,sans-Serif" font-size="10.00">async_context</text>
<text text-anchor="start" x="273.5" y="-203.5" font-family="Helvetica,sans-Serif" font-size="10.00">+</text>
<text text-anchor="start" x="289" y="-203.5" font-family="Helvetica,sans-Serif" font-size="10.00">core_num</text>
<text text-anchor="start" x="273.5" y="-188.5" font-family="Helvetica,sans-Serif" font-size="10.00">+</text>
<text text-anchor="start" x="289" y="-188.5" font-family="Helvetica,sans-Serif" font-size="10.00">flags</text>
<text text-anchor="start" x="273.5" y="-173.5" font-family="Helvetica,sans-Serif" font-size="10.00">+</text>
<text text-anchor="start" x="289" y="-173.5" font-family="Helvetica,sans-Serif" font-size="10.00">next_time</text>
<text text-anchor="start" x="304" y="-158.5" font-family="Helvetica,sans-Serif" font-size="10.00"> </text>
<polygon fill="#666666" stroke="#666666" points="267,-213.5 267,-213.5 348,-213.5 348,-213.5 267,-213.5"/>
<polygon fill="#666666" stroke="#666666" points="267,-168.5 267,-168.5 287,-168.5 287,-168.5 267,-168.5"/>
<polygon fill="#666666" stroke="#666666" points="287,-168.5 287,-168.5 348,-168.5 348,-168.5 287,-168.5"/>
<polygon fill="none" stroke="#666666" points="266.5,-152 266.5,-231 347.5,-231 347.5,-152 266.5,-152"/>
</a>
</g>
</g>
<!-- Node2&#45;&gt;Node1 -->
<g id="edge1_Node000001_Node000002" class="edge">
<title>Node2&#45;&gt;Node1</title>
<g id="a_edge1_Node000001_Node000002"><a xlink:title=" ">
<path fill="none" stroke="#63b8ff" d="M347.5,-166.48C377.9,-148.45 420.5,-123.18 457.72,-101.11"/>
<polygon fill="none" stroke="#63b8ff" points="457.73,-101.1 460.85,-94.6 468.06,-94.98 464.93,-101.48 457.73,-101.1"/>
</a>
</g>
<text text-anchor="middle" x="432.5" y="-126" font-family="Helvetica,sans-Serif" font-size="10.00" fill="grey"> +core</text>
</g>
<!-- Node3 -->
<g id="Node000003" class="node">
<title>Node3</title>
<g id="a_Node000003"><a xlink:href="structasync__context__type.html" target="_top" xlink:title="Implementation of an async_context type, providing methods common to that type.">
<polygon fill="white" stroke="transparent" points="154,-533 0,-533 0,-278 154,-278 154,-533"/>
<text text-anchor="start" x="28" y="-520.5" font-family="Helvetica,sans-Serif" font-size="10.00">async_context_type</text>
<text text-anchor="start" x="4" y="-505.5" font-family="Helvetica,sans-Serif" font-size="10.00">+</text>
<text text-anchor="start" x="17" y="-505.5" font-family="Helvetica,sans-Serif" font-size="10.00">acquire_lock_blocking</text>
<text text-anchor="start" x="4" y="-490.5" font-family="Helvetica,sans-Serif" font-size="10.00">+</text>
<text text-anchor="start" x="17" y="-490.5" font-family="Helvetica,sans-Serif" font-size="10.00">add_at_time_worker</text>
<text text-anchor="start" x="4" y="-475.5" font-family="Helvetica,sans-Serif" font-size="10.00">+</text>
<text text-anchor="start" x="17" y="-475.5" font-family="Helvetica,sans-Serif" font-size="10.00">add_when_pending_worker</text>
<text text-anchor="start" x="4" y="-460.5" font-family="Helvetica,sans-Serif" font-size="10.00">+</text>
<text text-anchor="start" x="17" y="-460.5" font-family="Helvetica,sans-Serif" font-size="10.00">deinit</text>
<text text-anchor="start" x="4" y="-445.5" font-family="Helvetica,sans-Serif" font-size="10.00">+</text>
<text text-anchor="start" x="17" y="-445.5" font-family="Helvetica,sans-Serif" font-size="10.00">execute_sync</text>
<text text-anchor="start" x="4" y="-430.5" font-family="Helvetica,sans-Serif" font-size="10.00">+</text>
<text text-anchor="start" x="17" y="-430.5" font-family="Helvetica,sans-Serif" font-size="10.00">lock_check</text>
<text text-anchor="start" x="4" y="-415.5" font-family="Helvetica,sans-Serif" font-size="10.00">+</text>
<text text-anchor="start" x="17" y="-415.5" font-family="Helvetica,sans-Serif" font-size="10.00">poll</text>
<text text-anchor="start" x="4" y="-400.5" font-family="Helvetica,sans-Serif" font-size="10.00">+</text>
<text text-anchor="start" x="17" y="-400.5" font-family="Helvetica,sans-Serif" font-size="10.00">release_lock</text>
<text text-anchor="start" x="4" y="-385.5" font-family="Helvetica,sans-Serif" font-size="10.00">+</text>
<text text-anchor="start" x="17" y="-385.5" font-family="Helvetica,sans-Serif" font-size="10.00">remove_at_time_worker</text>
<text text-anchor="start" x="4" y="-370.5" font-family="Helvetica,sans-Serif" font-size="10.00">+</text>
<text text-anchor="start" x="17" y="-370.5" font-family="Helvetica,sans-Serif" font-size="10.00">remove_when_pending</text>
<text text-anchor="start" x="17" y="-359.5" font-family="Helvetica,sans-Serif" font-size="10.00">_worker</text>
<text text-anchor="start" x="4" y="-344.5" font-family="Helvetica,sans-Serif" font-size="10.00">+</text>
<text text-anchor="start" x="17" y="-344.5" font-family="Helvetica,sans-Serif" font-size="10.00">set_work_pending</text>
<text text-anchor="start" x="4" y="-329.5" font-family="Helvetica,sans-Serif" font-size="10.00">+</text>
<text text-anchor="start" x="17" y="-329.5" font-family="Helvetica,sans-Serif" font-size="10.00">type</text>
<text text-anchor="start" x="4" y="-314.5" font-family="Helvetica,sans-Serif" font-size="10.00">+</text>
<text text-anchor="start" x="17" y="-314.5" font-family="Helvetica,sans-Serif" font-size="10.00">wait_for_work_until</text>
<text text-anchor="start" x="4" y="-299.5" font-family="Helvetica,sans-Serif" font-size="10.00">+</text>
<text text-anchor="start" x="17" y="-299.5" font-family="Helvetica,sans-Serif" font-size="10.00">wait_until</text>
<text text-anchor="start" x="73.5" y="-284.5" font-family="Helvetica,sans-Serif" font-size="10.00"> </text>
<polygon fill="#666666" stroke="#666666" points="0,-515.5 0,-515.5 154,-515.5 154,-515.5 0,-515.5"/>
<polygon fill="#666666" stroke="#666666" points="0,-294.5 0,-294.5 15,-294.5 15,-294.5 0,-294.5"/>
<polygon fill="#666666" stroke="#666666" points="15,-294.5 15,-294.5 154,-294.5 154,-294.5 15,-294.5"/>
<polygon fill="none" stroke="#666666" points="0,-278 0,-533 154,-533 154,-278 0,-278"/>
</a>
</g>
</g>
<!-- Node3&#45;&gt;Node2 -->
<g id="edge2_Node000002_Node000003" class="edge">
<title>Node3&#45;&gt;Node2</title>
<g id="a_edge2_Node000002_Node000003"><a xlink:title=" ">
<path fill="none" stroke="#63b8ff" d="M154.15,-286.8C157.05,-283.76 160,-280.82 163,-278 190.14,-252.48 226.18,-231.08 255.42,-216.08"/>
<polygon fill="none" stroke="#63b8ff" points="255.53,-216.03 259.11,-209.76 266.26,-210.65 262.69,-216.91 255.53,-216.03"/>
</a>
</g>
<text text-anchor="middle" x="216" y="-252" font-family="Helvetica,sans-Serif" font-size="10.00" fill="grey"> +type</text>
</g>
<!-- Node4 -->
<g id="Node000004" class="node">
<title>Node4</title>
<g id="a_Node000004"><a xlink:href="structasync__when__pending__worker.html" target="_top" xlink:title="A &quot;worker&quot; instance used by an async_context.">
<polygon fill="white" stroke="transparent" points="287.5,-450.5 172.5,-450.5 172.5,-360.5 287.5,-360.5 287.5,-450.5"/>
<text text-anchor="start" x="178" y="-438.5" font-family="Helvetica,sans-Serif" font-size="10.00">async_when_pending</text>
<text text-anchor="start" x="211" y="-427.5" font-family="Helvetica,sans-Serif" font-size="10.00">_worker</text>
<text text-anchor="start" x="183" y="-412.5" font-family="Helvetica,sans-Serif" font-size="10.00">+</text>
<text text-anchor="start" x="202" y="-412.5" font-family="Helvetica,sans-Serif" font-size="10.00">do_work</text>
<text text-anchor="start" x="183" y="-397.5" font-family="Helvetica,sans-Serif" font-size="10.00">+</text>
<text text-anchor="start" x="202" y="-397.5" font-family="Helvetica,sans-Serif" font-size="10.00">user_data</text>
<text text-anchor="start" x="183" y="-382.5" font-family="Helvetica,sans-Serif" font-size="10.00">+</text>
<text text-anchor="start" x="202" y="-382.5" font-family="Helvetica,sans-Serif" font-size="10.00">work_pending</text>
<text text-anchor="start" x="227" y="-367.5" font-family="Helvetica,sans-Serif" font-size="10.00"> </text>
<polygon fill="#666666" stroke="#666666" points="173,-422.5 173,-422.5 288,-422.5 288,-422.5 173,-422.5"/>
<polygon fill="#666666" stroke="#666666" points="173,-377.5 173,-377.5 200,-377.5 200,-377.5 173,-377.5"/>
<polygon fill="#666666" stroke="#666666" points="200,-377.5 200,-377.5 288,-377.5 288,-377.5 200,-377.5"/>
<polygon fill="none" stroke="#666666" points="172.5,-360.5 172.5,-450.5 287.5,-450.5 287.5,-360.5 172.5,-360.5"/>
</a>
</g>
</g>
<!-- Node4&#45;&gt;Node2 -->
<g id="edge3_Node000002_Node000004" class="edge">
<title>Node4&#45;&gt;Node2</title>
<g id="a_edge3_Node000002_Node000004"><a xlink:title=" ">
<path fill="none" stroke="#63b8ff" d="M238.31,-360.45C245.16,-328.67 256.31,-285.17 272,-249 273,-246.68 274.09,-244.35 275.24,-242.02"/>
<polygon fill="none" stroke="#63b8ff" points="275.36,-241.81 274.65,-234.63 281,-231.22 281.71,-238.39 275.36,-241.81"/>
</a>
</g>
<text text-anchor="middle" x="323.5" y="-252" font-family="Helvetica,sans-Serif" font-size="10.00" fill="grey"> +when_pending_list</text>
</g>
<!-- Node4&#45;&gt;Node4 -->
<g id="edge4_Node000004_Node000004" class="edge">
<title>Node4&#45;&gt;Node4</title>
<g id="a_edge4_Node000004_Node000004"><a xlink:title=" ">
<path fill="none" stroke="#63b8ff" d="M287.61,-432.08C298.12,-428.72 305.5,-419.86 305.5,-405.5 305.5,-396.75 302.76,-390.04 298.24,-385.38"/>
<polygon fill="none" stroke="#63b8ff" points="297.86,-385.15 290.66,-385.45 287.61,-378.92 294.81,-378.62 297.86,-385.15"/>
</a>
</g>
<text text-anchor="middle" x="322.5" y="-403" font-family="Helvetica,sans-Serif" font-size="10.00" fill="grey"> +next</text>
</g>
<!-- Node5 -->
<g id="Node000005" class="node">
<title>Node5</title>
<g id="a_Node000005"><a xlink:href="structasync__work__on__timeout.html" target="_top" xlink:title="A &quot;timeout&quot; instance used by an async_context.">
<polygon fill="white" stroke="transparent" points="486.5,-445 357.5,-445 357.5,-366 486.5,-366 486.5,-445"/>
<text text-anchor="start" x="363" y="-432.5" font-family="Helvetica,sans-Serif" font-size="10.00">async_work_on_timeout</text>
<text text-anchor="start" x="376.5" y="-417.5" font-family="Helvetica,sans-Serif" font-size="10.00">+</text>
<text text-anchor="start" x="404" y="-417.5" font-family="Helvetica,sans-Serif" font-size="10.00">do_work</text>
<text text-anchor="start" x="376.5" y="-402.5" font-family="Helvetica,sans-Serif" font-size="10.00">+</text>
<text text-anchor="start" x="404" y="-402.5" font-family="Helvetica,sans-Serif" font-size="10.00">next_time</text>
<text text-anchor="start" x="376.5" y="-387.5" font-family="Helvetica,sans-Serif" font-size="10.00">+</text>
<text text-anchor="start" x="404" y="-387.5" font-family="Helvetica,sans-Serif" font-size="10.00">user_data</text>
<text text-anchor="start" x="419" y="-372.5" font-family="Helvetica,sans-Serif" font-size="10.00"> </text>
<polygon fill="#666666" stroke="#666666" points="358,-427.5 358,-427.5 487,-427.5 487,-427.5 358,-427.5"/>
<polygon fill="#666666" stroke="#666666" points="358,-382.5 358,-382.5 402,-382.5 402,-382.5 358,-382.5"/>
<polygon fill="#666666" stroke="#666666" points="402,-382.5 402,-382.5 487,-382.5 487,-382.5 402,-382.5"/>
<polygon fill="none" stroke="#666666" points="357.5,-366 357.5,-445 486.5,-445 486.5,-366 357.5,-366"/>
</a>
</g>
</g>
<!-- Node5&#45;&gt;Node2 -->
<g id="edge5_Node000002_Node000005" class="edge">
<title>Node5&#45;&gt;Node2</title>
<g id="a_edge5_Node000002_Node000005"><a xlink:title=" ">
<path fill="none" stroke="#63b8ff" d="M416.7,-365.72C410.74,-332.53 398.61,-284.61 375,-249 370.04,-241.52 363.81,-234.52 357.13,-228.16"/>
<polygon fill="none" stroke="#63b8ff" points="356.81,-227.87 349.66,-226.87 347.84,-219.9 354.98,-220.89 356.81,-227.87"/>
</a>
</g>
<text text-anchor="middle" x="415" y="-252" font-family="Helvetica,sans-Serif" font-size="10.00" fill="grey"> +at_time_list</text>
</g>
<!-- Node5&#45;&gt;Node5 -->
<g id="edge6_Node000005_Node000005" class="edge">
<title>Node5&#45;&gt;Node5</title>
<g id="a_edge6_Node000005_Node000005"><a xlink:title=" ">
<path fill="none" stroke="#63b8ff" d="M486.68,-431.52C497.24,-427.8 504.5,-419.12 504.5,-405.5 504.5,-396.99 501.66,-390.4 496.96,-385.76"/>
<polygon fill="none" stroke="#63b8ff" points="496.92,-385.73 489.72,-386.02 486.68,-379.48 493.89,-379.19 496.92,-385.73"/>
</a>
</g>
<text text-anchor="middle" x="521.5" y="-403" font-family="Helvetica,sans-Serif" font-size="10.00" fill="grey"> +next</text>
</g>
<!-- Node6 -->
<g id="Node000006" class="node">
<title>Node6</title>
<g id="a_Node000006"><a xlink:href="structalarm__pool.html" target="_top" xlink:title=" ">
<polygon fill="white" stroke="transparent" points="784.5,-482.5 631.5,-482.5 631.5,-328.5 784.5,-328.5 784.5,-482.5"/>
<text text-anchor="start" x="681" y="-470.5" font-family="Helvetica,sans-Serif" font-size="10.00">alarm_pool</text>
<text text-anchor="start" x="636" y="-455.5" font-family="Helvetica,sans-Serif" font-size="10.00">+</text>
<text text-anchor="start" x="649" y="-455.5" font-family="Helvetica,sans-Serif" font-size="10.00">core_num</text>
<text text-anchor="start" x="636" y="-440.5" font-family="Helvetica,sans-Serif" font-size="10.00">+</text>
<text text-anchor="start" x="649" y="-440.5" font-family="Helvetica,sans-Serif" font-size="10.00">free_head</text>
<text text-anchor="start" x="636" y="-425.5" font-family="Helvetica,sans-Serif" font-size="10.00">+</text>
<text text-anchor="start" x="649" y="-425.5" font-family="Helvetica,sans-Serif" font-size="10.00">has_pending_cancellations</text>
<text text-anchor="start" x="636" y="-410.5" font-family="Helvetica,sans-Serif" font-size="10.00">+</text>
<text text-anchor="start" x="649" y="-410.5" font-family="Helvetica,sans-Serif" font-size="10.00">new_head</text>
<text text-anchor="start" x="636" y="-395.5" font-family="Helvetica,sans-Serif" font-size="10.00">+</text>
<text text-anchor="start" x="649" y="-395.5" font-family="Helvetica,sans-Serif" font-size="10.00">num_entries</text>
<text text-anchor="start" x="636" y="-380.5" font-family="Helvetica,sans-Serif" font-size="10.00">+</text>
<text text-anchor="start" x="649" y="-380.5" font-family="Helvetica,sans-Serif" font-size="10.00">ordered_head</text>
<text text-anchor="start" x="636" y="-365.5" font-family="Helvetica,sans-Serif" font-size="10.00">+</text>
<text text-anchor="start" x="649" y="-365.5" font-family="Helvetica,sans-Serif" font-size="10.00">timer</text>
<text text-anchor="start" x="636" y="-350.5" font-family="Helvetica,sans-Serif" font-size="10.00">+</text>
<text text-anchor="start" x="649" y="-350.5" font-family="Helvetica,sans-Serif" font-size="10.00">timer_alarm_num</text>
<text text-anchor="start" x="705" y="-335.5" font-family="Helvetica,sans-Serif" font-size="10.00"> </text>
<polygon fill="#666666" stroke="#666666" points="632,-465.5 632,-465.5 785,-465.5 785,-465.5 632,-465.5"/>
<polygon fill="#666666" stroke="#666666" points="632,-345.5 632,-345.5 647,-345.5 647,-345.5 632,-345.5"/>
<polygon fill="#666666" stroke="#666666" points="647,-345.5 647,-345.5 785,-345.5 785,-345.5 647,-345.5"/>
<polygon fill="none" stroke="#666666" points="631.5,-328.5 631.5,-482.5 784.5,-482.5 784.5,-328.5 631.5,-328.5"/>
</a>
</g>
</g>
<!-- Node6&#45;&gt;Node1 -->
<g id="edge7_Node000001_Node000006" class="edge">
<title>Node6&#45;&gt;Node1</title>
<g id="a_edge7_Node000001_Node000006"><a xlink:title=" ">
<path fill="none" stroke="#63b8ff" d="M710.93,-328.32C709.58,-267.61 699.08,-183.12 657,-123 646.97,-108.67 632.96,-96.85 618.06,-87.29"/>
<polygon fill="none" stroke="#63b8ff" points="617.92,-87.2 610.72,-87.54 607.64,-81.02 614.85,-80.68 617.92,-87.2"/>
</a>
</g>
<text text-anchor="middle" x="734.5" y="-189" font-family="Helvetica,sans-Serif" font-size="10.00" fill="grey"> +alarm_pool</text>
</g>
<!-- Node7 -->
<g id="Node000007" class="node">
<title>Node7</title>
<g id="a_Node000007"><a xlink:title=" ">
<polygon fill="white" stroke="transparent" points="637.5,-659 566.5,-659 566.5,-610 637.5,-610 637.5,-659"/>
<text text-anchor="start" x="572" y="-646.5" font-family="Helvetica,sans-Serif" font-size="10.00">_spin_lock_t</text>
<text text-anchor="start" x="575.5" y="-631.5" font-family="Helvetica,sans-Serif" font-size="10.00">+</text>
<text text-anchor="start" x="593" y="-631.5" font-family="Helvetica,sans-Serif" font-size="10.00">locked</text>
<text text-anchor="start" x="599" y="-616.5" font-family="Helvetica,sans-Serif" font-size="10.00"> </text>
<polygon fill="#666666" stroke="#666666" points="567,-641.5 567,-641.5 638,-641.5 638,-641.5 567,-641.5"/>
<polygon fill="#666666" stroke="#666666" points="567,-626.5 567,-626.5 591,-626.5 591,-626.5 567,-626.5"/>
<polygon fill="#666666" stroke="#666666" points="591,-626.5 591,-626.5 638,-626.5 638,-626.5 591,-626.5"/>
<polygon fill="none" stroke="#666666" points="566.5,-610 566.5,-659 637.5,-659 637.5,-610 566.5,-610"/>
</a>
</g>
</g>
<!-- Node7&#45;&gt;Node6 -->
<g id="edge8_Node000006_Node000007" class="edge">
<title>Node7&#45;&gt;Node6</title>
<g id="a_edge8_Node000006_Node000007"><a xlink:title=" ">
<path fill="none" stroke="#63b8ff" d="M617.05,-609.81C625.47,-596.1 635.87,-578.38 644,-562 654.77,-540.3 665.28,-516.33 674.57,-493.84"/>
<polygon fill="none" stroke="#63b8ff" points="674.63,-493.7 673.2,-486.63 679.17,-482.59 680.61,-489.66 674.63,-493.7"/>
</a>
</g>
<text text-anchor="middle" x="664" y="-554" font-family="Helvetica,sans-Serif" font-size="10.00" fill="grey"> +lock</text>
</g>
<!-- Node10 -->
<g id="Node000010" class="node">
<title>Node10</title>
<g id="a_Node000010"><a xlink:href="structlock__core.html" target="_top" xlink:title=" ">
<polygon fill="white" stroke="transparent" points="613.5,-430 556.5,-430 556.5,-381 613.5,-381 613.5,-430"/>
<text text-anchor="start" x="562" y="-417.5" font-family="Helvetica,sans-Serif" font-size="10.00">lock_core</text>
<text text-anchor="start" x="582" y="-402.5" font-family="Helvetica,sans-Serif" font-size="10.00"> </text>
<text text-anchor="start" x="582" y="-387.5" font-family="Helvetica,sans-Serif" font-size="10.00"> </text>
<polygon fill="#666666" stroke="#666666" points="557,-412.5 557,-412.5 614,-412.5 614,-412.5 557,-412.5"/>
<polygon fill="#666666" stroke="#666666" points="557,-397.5 557,-397.5 614,-397.5 614,-397.5 557,-397.5"/>
<polygon fill="none" stroke="#666666" points="556.5,-381 556.5,-430 613.5,-430 613.5,-381 556.5,-381"/>
</a>
</g>
</g>
<!-- Node7&#45;&gt;Node10 -->
<g id="edge12_Node000010_Node000007" class="edge">
<title>Node7&#45;&gt;Node10</title>
<g id="a_edge12_Node000010_Node000007"><a xlink:title=" ">
<path fill="none" stroke="#63b8ff" d="M595.38,-609.88C591.84,-596.05 587.84,-578.18 586,-562 581.35,-521.1 581.88,-473.75 583.08,-442.15"/>
<polygon fill="none" stroke="#63b8ff" points="583.08,-442.03 579.34,-435.86 583.59,-430.04 587.33,-436.21 583.08,-442.03"/>
</a>
</g>
<text text-anchor="middle" x="615" y="-554" font-family="Helvetica,sans-Serif" font-size="10.00" fill="grey"> +spin_lock</text>
</g>
<!-- Node8 -->
<g id="Node000008" class="node">
<title>Node8</title>
<g id="a_Node000008"><a xlink:href="structalarm__pool__entry.html" target="_top" xlink:title=" ">
<polygon fill="white" stroke="transparent" points="769,-689 673,-689 673,-580 769,-580 769,-689"/>
<text text-anchor="start" x="678" y="-676.5" font-family="Helvetica,sans-Serif" font-size="10.00">alarm_pool_entry</text>
<text text-anchor="start" x="683.5" y="-661.5" font-family="Helvetica,sans-Serif" font-size="10.00">+</text>
<text text-anchor="start" x="703" y="-661.5" font-family="Helvetica,sans-Serif" font-size="10.00">callback</text>
<text text-anchor="start" x="683.5" y="-646.5" font-family="Helvetica,sans-Serif" font-size="10.00">+</text>
<text text-anchor="start" x="703" y="-646.5" font-family="Helvetica,sans-Serif" font-size="10.00">next</text>
<text text-anchor="start" x="683.5" y="-631.5" font-family="Helvetica,sans-Serif" font-size="10.00">+</text>
<text text-anchor="start" x="703" y="-631.5" font-family="Helvetica,sans-Serif" font-size="10.00">sequence</text>
<text text-anchor="start" x="683.5" y="-616.5" font-family="Helvetica,sans-Serif" font-size="10.00">+</text>
<text text-anchor="start" x="703" y="-616.5" font-family="Helvetica,sans-Serif" font-size="10.00">target</text>
<text text-anchor="start" x="683.5" y="-601.5" font-family="Helvetica,sans-Serif" font-size="10.00">+</text>
<text text-anchor="start" x="703" y="-601.5" font-family="Helvetica,sans-Serif" font-size="10.00">user_data</text>
<text text-anchor="start" x="717.5" y="-586.5" font-family="Helvetica,sans-Serif" font-size="10.00"> </text>
<polygon fill="#666666" stroke="#666666" points="673,-671.5 673,-671.5 769,-671.5 769,-671.5 673,-671.5"/>
<polygon fill="#666666" stroke="#666666" points="673,-596.5 673,-596.5 701,-596.5 701,-596.5 673,-596.5"/>
<polygon fill="#666666" stroke="#666666" points="701,-596.5 701,-596.5 769,-596.5 769,-596.5 701,-596.5"/>
<polygon fill="none" stroke="#666666" points="673,-580 673,-689 769,-689 769,-580 673,-580"/>
</a>
</g>
</g>
<!-- Node8&#45;&gt;Node6 -->
<g id="edge9_Node000006_Node000008" class="edge">
<title>Node8&#45;&gt;Node6</title>
<g id="a_edge9_Node000006_Node000008"><a xlink:title=" ">
<path fill="none" stroke="#63b8ff" d="M717.94,-579.99C716.48,-554.64 714.71,-523.7 713.07,-494.99"/>
<polygon fill="none" stroke="#63b8ff" points="713.06,-494.83 708.72,-489.07 712.37,-482.85 716.71,-488.61 713.06,-494.83"/>
</a>
</g>
<text text-anchor="middle" x="740" y="-554" font-family="Helvetica,sans-Serif" font-size="10.00" fill="grey"> +entries</text>
</g>
<!-- Node9 -->
<g id="Node000009" class="node">
<title>Node9</title>
<g id="a_Node000009"><a xlink:href="structrecursive__mutex__t.html" target="_top" xlink:title="recursive mutex instance">
<polygon fill="white" stroke="transparent" points="648.5,-223.5 547.5,-223.5 547.5,-159.5 648.5,-159.5 648.5,-223.5"/>
<text text-anchor="start" x="553" y="-211.5" font-family="Helvetica,sans-Serif" font-size="10.00">recursive_mutex_t</text>
<text text-anchor="start" x="557.5" y="-196.5" font-family="Helvetica,sans-Serif" font-size="10.00">+</text>
<text text-anchor="start" x="576" y="-196.5" font-family="Helvetica,sans-Serif" font-size="10.00">enter_count</text>
<text text-anchor="start" x="557.5" y="-181.5" font-family="Helvetica,sans-Serif" font-size="10.00">+</text>
<text text-anchor="start" x="576" y="-181.5" font-family="Helvetica,sans-Serif" font-size="10.00">owner</text>
<text text-anchor="start" x="595" y="-166.5" font-family="Helvetica,sans-Serif" font-size="10.00"> </text>
<polygon fill="#666666" stroke="#666666" points="548,-206.5 548,-206.5 649,-206.5 649,-206.5 548,-206.5"/>
<polygon fill="#666666" stroke="#666666" points="548,-176.5 548,-176.5 574,-176.5 574,-176.5 548,-176.5"/>
<polygon fill="#666666" stroke="#666666" points="574,-176.5 574,-176.5 649,-176.5 649,-176.5 574,-176.5"/>
<polygon fill="none" stroke="#666666" points="547.5,-159.5 547.5,-223.5 648.5,-223.5 648.5,-159.5 547.5,-159.5"/>
</a>
</g>
</g>
<!-- Node9&#45;&gt;Node1 -->
<g id="edge10_Node000001_Node000009" class="edge">
<title>Node9&#45;&gt;Node1</title>
<g id="a_edge10_Node000001_Node000009"><a xlink:title=" ">
<path fill="none" stroke="#63b8ff" d="M591.03,-159.34C587.96,-147.71 583.93,-134.53 579,-123 578.01,-120.69 576.96,-118.35 575.86,-116.02"/>
<polygon fill="none" stroke="#63b8ff" points="575.77,-115.84 569.51,-112.27 570.39,-105.11 576.66,-108.68 575.77,-115.84"/>
</a>
</g>
<text text-anchor="middle" x="618.5" y="-126" font-family="Helvetica,sans-Serif" font-size="10.00" fill="grey"> +lock_mutex</text>
</g>
<!-- Node10&#45;&gt;Node9 -->
<g id="edge11_Node000009_Node000010" class="edge">
<title>Node10&#45;&gt;Node9</title>
<g id="a_edge11_Node000009_Node000010"><a xlink:title=" ">
<path fill="none" stroke="#63b8ff" d="M586.47,-380.59C588.62,-345.51 592.67,-279.5 595.35,-235.76"/>
<polygon fill="none" stroke="#63b8ff" points="595.36,-235.48 591.74,-229.25 596.1,-223.51 599.72,-229.74 595.36,-235.48"/>
</a>
</g>
<text text-anchor="middle" x="611.5" y="-252" font-family="Helvetica,sans-Serif" font-size="10.00" fill="grey"> +core</text>
</g>
<!-- Node11 -->
<g id="Node000011" class="node">
<title>Node11</title>
<g id="a_Node000011"><a xlink:href="structsemaphore.html" target="_top" xlink:title=" ">
<polygon fill="white" stroke="transparent" points="522,-223.5 436,-223.5 436,-159.5 522,-159.5 522,-223.5"/>
<text text-anchor="start" x="451.5" y="-211.5" font-family="Helvetica,sans-Serif" font-size="10.00">semaphore</text>
<text text-anchor="start" x="440" y="-196.5" font-family="Helvetica,sans-Serif" font-size="10.00">+</text>
<text text-anchor="start" x="453" y="-196.5" font-family="Helvetica,sans-Serif" font-size="10.00">max_permits</text>
<text text-anchor="start" x="440" y="-181.5" font-family="Helvetica,sans-Serif" font-size="10.00">+</text>
<text text-anchor="start" x="453" y="-181.5" font-family="Helvetica,sans-Serif" font-size="10.00">permits</text>
<text text-anchor="start" x="475.5" y="-166.5" font-family="Helvetica,sans-Serif" font-size="10.00"> </text>
<polygon fill="#666666" stroke="#666666" points="436,-206.5 436,-206.5 522,-206.5 522,-206.5 436,-206.5"/>
<polygon fill="#666666" stroke="#666666" points="436,-176.5 436,-176.5 451,-176.5 451,-176.5 436,-176.5"/>
<polygon fill="#666666" stroke="#666666" points="451,-176.5 451,-176.5 522,-176.5 522,-176.5 451,-176.5"/>
<polygon fill="none" stroke="#666666" points="436,-159.5 436,-223.5 522,-223.5 522,-159.5 436,-159.5"/>
</a>
</g>
</g>
<!-- Node10&#45;&gt;Node11 -->
<g id="edge14_Node000011_Node000010" class="edge">
<title>Node10&#45;&gt;Node11</title>
<g id="a_edge14_Node000011_Node000010"><a xlink:title=" ">
<path fill="none" stroke="#63b8ff" d="M580.66,-380.62C575.25,-354.39 564.53,-311.53 547,-278 538.8,-262.31 527.53,-246.7 516.53,-233.19"/>
<polygon fill="none" stroke="#63b8ff" points="516.33,-232.95 509.41,-230.92 508.62,-223.75 515.54,-225.78 516.33,-232.95"/>
</a>
</g>
<text text-anchor="middle" x="551.5" y="-252" font-family="Helvetica,sans-Serif" font-size="10.00" fill="grey"> +core</text>
</g>
<!-- Node11&#45;&gt;Node1 -->
<g id="edge13_Node000001_Node000011" class="edge">
<title>Node11&#45;&gt;Node1</title>
<g id="a_edge13_Node000001_Node000011"><a xlink:title=" ">
<path fill="none" stroke="#63b8ff" d="M472.49,-159.43C471.33,-147.68 471.65,-134.4 476,-123 476.96,-120.48 478.06,-118 479.27,-115.56"/>
<polygon fill="none" stroke="#63b8ff" points="479.29,-115.52 478.8,-108.33 485.26,-105.12 485.74,-112.31 479.29,-115.52"/>
</a>
</g>
<text text-anchor="middle" x="527.5" y="-126" font-family="Helvetica,sans-Serif" font-size="10.00" fill="grey"> +work_needed_sem</text>
</g>
</g>
</svg>
