<?xml version="1.0" encoding="UTF-8" standalone="no"?>
<!DOCTYPE svg PUBLIC "-//W3C//DTD SVG 1.1//EN"
 "http://www.w3.org/Graphics/SVG/1.1/DTD/svg11.dtd">
<!-- Generated by graphviz version 2.43.0 (0)
 -->
<!-- Title: usb_host_dpram_t Pages: 1 -->
<svg width="285pt" height="254pt"
 viewBox="0.00 0.00 284.50 254.00" xmlns="http://www.w3.org/2000/svg" xmlns:xlink="http://www.w3.org/1999/xlink">
<g id="graph0" class="graph" transform="scale(1 1) rotate(0) translate(4 250)">
<title>usb_host_dpram_t</title>
<!-- Node1 -->
<g id="Node000001" class="node">
<title>Node1</title>
<g id="a_Node000001"><a xlink:title=" ">
<polygon fill="#999999" stroke="transparent" points="184.5,-124 84.5,-124 84.5,0 184.5,0 184.5,-124"/>
<text text-anchor="start" x="89.5" y="-112" font-family="Helvetica,sans-Serif" font-size="10.00">usb_host_dpram_t</text>
<text text-anchor="start" x="92" y="-97" font-family="Helvetica,sans-Serif" font-size="10.00">+</text>
<text text-anchor="start" x="108.5" y="-97" font-family="Helvetica,sans-Serif" font-size="10.00">_spare0</text>
<text text-anchor="start" x="92" y="-82" font-family="Helvetica,sans-Serif" font-size="10.00">+</text>
<text text-anchor="start" x="108.5" y="-82" font-family="Helvetica,sans-Serif" font-size="10.00">_spare1</text>
<text text-anchor="start" x="92" y="-67" font-family="Helvetica,sans-Serif" font-size="10.00">+</text>
<text text-anchor="start" x="108.5" y="-67" font-family="Helvetica,sans-Serif" font-size="10.00">epx_buf_ctrl</text>
<text text-anchor="start" x="92" y="-52" font-family="Helvetica,sans-Serif" font-size="10.00">+</text>
<text text-anchor="start" x="108.5" y="-52" font-family="Helvetica,sans-Serif" font-size="10.00">epx_ctrl</text>
<text text-anchor="start" x="92" y="-37" font-family="Helvetica,sans-Serif" font-size="10.00">+</text>
<text text-anchor="start" x="108.5" y="-37" font-family="Helvetica,sans-Serif" font-size="10.00">epx_data</text>
<text text-anchor="start" x="92" y="-22" font-family="Helvetica,sans-Serif" font-size="10.00">+</text>
<text text-anchor="start" x="108.5" y="-22" font-family="Helvetica,sans-Serif" font-size="10.00">setup_packet</text>
<text text-anchor="start" x="131" y="-7" font-family="Helvetica,sans-Serif" font-size="10.00"> </text>
<polygon fill="#666666" stroke="#666666" points="84.5,-107 84.5,-107 184.5,-107 184.5,-107 84.5,-107"/>
<polygon fill="#666666" stroke="#666666" points="84.5,-17 84.5,-17 106.5,-17 106.5,-17 84.5,-17"/>
<polygon fill="#666666" stroke="#666666" points="106.5,-17 106.5,-17 184.5,-17 184.5,-17 106.5,-17"/>
<polygon fill="none" stroke="#666666" points="84.5,0 84.5,-124 184.5,-124 184.5,0 84.5,0"/>
</a>
</g>
</g>
<!-- Node2 -->
<g id="Node000002" class="node">
<title>Node2</title>
<g id="a_Node000002"><a xlink:href="structusb__host__dpram__t_1_1usb__host__dpram__ep__ctrl.html" target="_top" xlink:title=" ">
<polygon fill="white" stroke="transparent" points="123,-246 0,-246 0,-171 123,-171 123,-246"/>
<text text-anchor="start" x="5.5" y="-233.5" font-family="Helvetica,sans-Serif" font-size="10.00">usb_host_dpram_t::usb</text>
<text text-anchor="start" x="11" y="-222.5" font-family="Helvetica,sans-Serif" font-size="10.00">_host_dpram_ep_ctrl</text>
<text text-anchor="start" x="23" y="-207.5" font-family="Helvetica,sans-Serif" font-size="10.00">+</text>
<text text-anchor="start" x="54.5" y="-207.5" font-family="Helvetica,sans-Serif" font-size="10.00">ctrl</text>
<text text-anchor="start" x="23" y="-192.5" font-family="Helvetica,sans-Serif" font-size="10.00">+</text>
<text text-anchor="start" x="54.5" y="-192.5" font-family="Helvetica,sans-Serif" font-size="10.00">spare</text>
<text text-anchor="start" x="58.5" y="-177.5" font-family="Helvetica,sans-Serif" font-size="10.00"> </text>
<polygon fill="#666666" stroke="#666666" points="0.5,-217.5 0.5,-217.5 123.5,-217.5 123.5,-217.5 0.5,-217.5"/>
<polygon fill="#666666" stroke="#666666" points="0.5,-187.5 0.5,-187.5 52.5,-187.5 52.5,-187.5 0.5,-187.5"/>
<polygon fill="#666666" stroke="#666666" points="52.5,-187.5 52.5,-187.5 123.5,-187.5 123.5,-187.5 52.5,-187.5"/>
<polygon fill="none" stroke="#666666" points="0,-171 0,-246 123,-246 123,-171 0,-171"/>
</a>
</g>
</g>
<!-- Node2&#45;&gt;Node1 -->
<g id="edge1_Node000001_Node000002" class="edge">
<title>Node2&#45;&gt;Node1</title>
<g id="a_edge1_Node000001_Node000002"><a xlink:title=" ">
<path fill="none" stroke="#63b8ff" d="M80.11,-170.66C85.63,-159.73 91.88,-147.37 98.12,-135.01"/>
<polygon fill="none" stroke="#63b8ff" points="98.18,-134.9 97.31,-127.74 103.59,-124.19 104.45,-131.35 98.18,-134.9"/>
</a>
</g>
<text text-anchor="middle" x="126" y="-145" font-family="Helvetica,sans-Serif" font-size="10.00" fill="grey"> +int_ep_ctrl</text>
</g>
<!-- Node3 -->
<g id="Node000003" class="node">
<title>Node3</title>
<g id="a_Node000003"><a xlink:href="structusb__host__dpram__t_1_1usb__host__dpram__ep__buf__ctrl.html" target="_top" xlink:title=" ">
<polygon fill="white" stroke="transparent" points="274,-246 141,-246 141,-171 274,-171 274,-246"/>
<text text-anchor="start" x="146.5" y="-233.5" font-family="Helvetica,sans-Serif" font-size="10.00">usb_host_dpram_t::usb</text>
<text text-anchor="start" x="146.5" y="-222.5" font-family="Helvetica,sans-Serif" font-size="10.00">_host_dpram_ep_buf_ctrl</text>
<text text-anchor="start" x="166.5" y="-207.5" font-family="Helvetica,sans-Serif" font-size="10.00">+</text>
<text text-anchor="start" x="200.5" y="-207.5" font-family="Helvetica,sans-Serif" font-size="10.00">ctrl</text>
<text text-anchor="start" x="166.5" y="-192.5" font-family="Helvetica,sans-Serif" font-size="10.00">+</text>
<text text-anchor="start" x="200.5" y="-192.5" font-family="Helvetica,sans-Serif" font-size="10.00">spare</text>
<text text-anchor="start" x="204.5" y="-177.5" font-family="Helvetica,sans-Serif" font-size="10.00"> </text>
<polygon fill="#666666" stroke="#666666" points="141.5,-217.5 141.5,-217.5 274.5,-217.5 274.5,-217.5 141.5,-217.5"/>
<polygon fill="#666666" stroke="#666666" points="141.5,-187.5 141.5,-187.5 198.5,-187.5 198.5,-187.5 141.5,-187.5"/>
<polygon fill="#666666" stroke="#666666" points="198.5,-187.5 198.5,-187.5 274.5,-187.5 274.5,-187.5 198.5,-187.5"/>
<polygon fill="none" stroke="#666666" points="141,-171 141,-246 274,-246 274,-171 141,-171"/>
</a>
</g>
</g>
<!-- Node3&#45;&gt;Node1 -->
<g id="edge2_Node000001_Node000003" class="edge">
<title>Node3&#45;&gt;Node1</title>
<g id="a_edge2_Node000001_Node000003"><a xlink:title=" ">
<path fill="none" stroke="#63b8ff" d="M188.89,-170.66C183.37,-159.73 177.12,-147.37 170.88,-135.01"/>
<polygon fill="none" stroke="#63b8ff" points="170.82,-134.9 164.55,-131.35 165.41,-124.19 171.69,-127.74 170.82,-134.9"/>
</a>
</g>
<text text-anchor="middle" x="228" y="-145" font-family="Helvetica,sans-Serif" font-size="10.00" fill="grey"> +int_ep_buffer_ctrl</text>
</g>
</g>
</svg>
