<?xml version="1.0" encoding="UTF-8" standalone="no"?>
<!DOCTYPE svg PUBLIC "-//W3C//DTD SVG 1.1//EN"
 "http://www.w3.org/Graphics/SVG/1.1/DTD/svg11.dtd">
<!-- Generated by graphviz version 2.43.0 (0)
 -->
<!-- Title: hex_output Pages: 1 -->
<svg width="132pt" height="277pt"
 viewBox="0.00 0.00 132.00 277.00" xmlns="http://www.w3.org/2000/svg" xmlns:xlink="http://www.w3.org/1999/xlink">
<g id="graph0" class="graph" transform="scale(1 1) rotate(0) translate(4 273)">
<title>hex_output</title>
<!-- Node1 -->
<g id="Node000001" class="node">
<title>Node1</title>
<g id="a_Node000001"><a xlink:title=" ">
<polygon fill="#999999" stroke="transparent" points="114,-79 10,-79 10,0 114,0 114,-79"/>
<text text-anchor="start" x="34.5" y="-66.5" font-family="Helvetica,sans-Serif" font-size="10.00">hex_output</text>
<text text-anchor="start" x="58.5" y="-51.5" font-family="Helvetica,sans-Serif" font-size="10.00"> </text>
<text text-anchor="start" x="14" y="-36.5" font-family="Helvetica,sans-Serif" font-size="10.00">+</text>
<text text-anchor="start" x="27" y="-36.5" font-family="Helvetica,sans-Serif" font-size="10.00">get_description()</text>
<text text-anchor="start" x="14" y="-21.5" font-family="Helvetica,sans-Serif" font-size="10.00">+</text>
<text text-anchor="start" x="27" y="-21.5" font-family="Helvetica,sans-Serif" font-size="10.00">hex_output()</text>
<text text-anchor="start" x="14" y="-6.5" font-family="Helvetica,sans-Serif" font-size="10.00">+</text>
<text text-anchor="start" x="27" y="-6.5" font-family="Helvetica,sans-Serif" font-size="10.00">output()</text>
<polygon fill="#666666" stroke="#666666" points="10,-61.5 10,-61.5 114,-61.5 114,-61.5 10,-61.5"/>
<polygon fill="#666666" stroke="#666666" points="10,-46.5 10,-46.5 114,-46.5 114,-46.5 10,-46.5"/>
<polygon fill="none" stroke="#666666" points="10,0 10,-79 114,-79 114,0 10,0"/>
</a>
</g>
</g>
<!-- Node2 -->
<g id="Node000002" class="node">
<title>Node2</title>
<g id="a_Node000002"><a xlink:href="structoutput__format.html" target="_top" xlink:title=" ">
<polygon fill="white" stroke="transparent" points="124,-269 0,-269 0,-115 124,-115 124,-269"/>
<text text-anchor="start" x="27" y="-257" font-family="Helvetica,sans-Serif" font-size="10.00">output_format</text>
<text text-anchor="start" x="4" y="-242" font-family="Helvetica,sans-Serif" font-size="10.00">+</text>
<text text-anchor="start" x="17" y="-242" font-family="Helvetica,sans-Serif" font-size="10.00">name</text>
<text text-anchor="start" x="4" y="-227" font-family="Helvetica,sans-Serif" font-size="10.00">+</text>
<text text-anchor="start" x="17" y="-227" font-family="Helvetica,sans-Serif" font-size="10.00">default_name</text>
<text text-anchor="start" x="4" y="-212" font-family="Helvetica,sans-Serif" font-size="10.00">+</text>
<text text-anchor="start" x="17" y="-212" font-family="Helvetica,sans-Serif" font-size="10.00">get_description()</text>
<text text-anchor="start" x="4" y="-197" font-family="Helvetica,sans-Serif" font-size="10.00">+</text>
<text text-anchor="start" x="17" y="-197" font-family="Helvetica,sans-Serif" font-size="10.00">open_single_output()</text>
<text text-anchor="start" x="4" y="-182" font-family="Helvetica,sans-Serif" font-size="10.00">+</text>
<text text-anchor="start" x="17" y="-182" font-family="Helvetica,sans-Serif" font-size="10.00">output()</text>
<text text-anchor="start" x="4" y="-167" font-family="Helvetica,sans-Serif" font-size="10.00">+</text>
<text text-anchor="start" x="17" y="-167" font-family="Helvetica,sans-Serif" font-size="10.00">~output_format()</text>
<text text-anchor="start" x="4" y="-152" font-family="Helvetica,sans-Serif" font-size="10.00">+</text>
<text text-anchor="start" x="17" y="-152" font-family="Helvetica,sans-Serif" font-size="10.00">add()</text>
<text text-anchor="start" x="4" y="-137" font-family="Helvetica,sans-Serif" font-size="10.00">+</text>
<text text-anchor="start" x="17" y="-137" font-family="Helvetica,sans-Serif" font-size="10.00">all()</text>
<text text-anchor="start" x="4" y="-122" font-family="Helvetica,sans-Serif" font-size="10.00">#</text>
<text text-anchor="start" x="17" y="-122" font-family="Helvetica,sans-Serif" font-size="10.00">output_format()</text>
<polygon fill="#666666" stroke="#666666" points="0,-252 0,-252 124,-252 124,-252 0,-252"/>
<polygon fill="#666666" stroke="#666666" points="0,-222 0,-222 15,-222 15,-222 0,-222"/>
<polygon fill="#666666" stroke="#666666" points="15,-222 15,-222 124,-222 124,-222 15,-222"/>
<polygon fill="none" stroke="#666666" points="0,-115 0,-269 124,-269 124,-115 0,-115"/>
</a>
</g>
</g>
<!-- Node2&#45;&gt;Node1 -->
<g id="edge1_Node000001_Node000002" class="edge">
<title>Node2&#45;&gt;Node1</title>
<g id="a_edge1_Node000001_Node000002"><a xlink:title=" ">
<path fill="none" stroke="#63b8ff" d="M62,-104.74C62,-95.82 62,-87.11 62,-79.13"/>
<polygon fill="none" stroke="#63b8ff" points="58.5,-104.87 62,-114.87 65.5,-104.87 58.5,-104.87"/>
</a>
</g>
</g>
</g>
</svg>
