<?xml version="1.0" encoding="UTF-8" standalone="no"?>
<!DOCTYPE svg PUBLIC "-//W3C//DTD SVG 1.1//EN"
 "http://www.w3.org/Graphics/SVG/1.1/DTD/svg11.dtd">
<!-- Generated by graphviz version 2.43.0 (0)
 -->
<!-- Title: instr_word Pages: 1 -->
<svg width="98pt" height="317pt"
 viewBox="0.00 0.00 98.00 317.00" xmlns="http://www.w3.org/2000/svg" xmlns:xlink="http://www.w3.org/1999/xlink">
<g id="graph0" class="graph" transform="scale(1 1) rotate(0) translate(4 313)">
<title>instr_word</title>
<!-- Node1 -->
<g id="Node000001" class="node">
<title>Node1</title>
<g id="a_Node000001"><a xlink:title=" ">
<polygon fill="#999999" stroke="transparent" points="85,-64 5,-64 5,0 85,0 85,-64"/>
<text text-anchor="start" x="19" y="-52" font-family="Helvetica,sans-Serif" font-size="10.00">instr_word</text>
<text text-anchor="start" x="9" y="-37" font-family="Helvetica,sans-Serif" font-size="10.00">+</text>
<text text-anchor="start" x="22" y="-37" font-family="Helvetica,sans-Serif" font-size="10.00">encoding</text>
<text text-anchor="start" x="9" y="-22" font-family="Helvetica,sans-Serif" font-size="10.00">+</text>
<text text-anchor="start" x="22" y="-22" font-family="Helvetica,sans-Serif" font-size="10.00">encode()</text>
<text text-anchor="start" x="9" y="-7" font-family="Helvetica,sans-Serif" font-size="10.00">+</text>
<text text-anchor="start" x="22" y="-7" font-family="Helvetica,sans-Serif" font-size="10.00">instr_word()</text>
<polygon fill="#666666" stroke="#666666" points="5,-47 5,-47 85,-47 85,-47 5,-47"/>
<polygon fill="#666666" stroke="#666666" points="5,-32 5,-32 20,-32 20,-32 5,-32"/>
<polygon fill="#666666" stroke="#666666" points="20,-32 20,-32 85,-32 85,-32 20,-32"/>
<polygon fill="none" stroke="#666666" points="5,0 5,-64 85,-64 85,0 5,0"/>
</a>
</g>
</g>
<!-- Node2 -->
<g id="Node000002" class="node">
<title>Node2</title>
<g id="a_Node000002"><a xlink:href="structinstruction.html" target="_top" xlink:title=" ">
<polygon fill="white" stroke="transparent" points="90,-209 0,-209 0,-100 90,-100 90,-209"/>
<text text-anchor="start" x="19" y="-196.5" font-family="Helvetica,sans-Serif" font-size="10.00">instruction</text>
<text text-anchor="start" x="4" y="-181.5" font-family="Helvetica,sans-Serif" font-size="10.00">+</text>
<text text-anchor="start" x="17" y="-181.5" font-family="Helvetica,sans-Serif" font-size="10.00">delay</text>
<text text-anchor="start" x="4" y="-166.5" font-family="Helvetica,sans-Serif" font-size="10.00">+</text>
<text text-anchor="start" x="17" y="-166.5" font-family="Helvetica,sans-Serif" font-size="10.00">sideset</text>
<text text-anchor="start" x="4" y="-151.5" font-family="Helvetica,sans-Serif" font-size="10.00">+</text>
<text text-anchor="start" x="17" y="-151.5" font-family="Helvetica,sans-Serif" font-size="10.00">encode()</text>
<text text-anchor="start" x="4" y="-136.5" font-family="Helvetica,sans-Serif" font-size="10.00">+</text>
<text text-anchor="start" x="17" y="-136.5" font-family="Helvetica,sans-Serif" font-size="10.00">instruction()</text>
<text text-anchor="start" x="4" y="-121.5" font-family="Helvetica,sans-Serif" font-size="10.00">+</text>
<text text-anchor="start" x="17" y="-121.5" font-family="Helvetica,sans-Serif" font-size="10.00">pre_validate()</text>
<text text-anchor="start" x="4" y="-106.5" font-family="Helvetica,sans-Serif" font-size="10.00">+</text>
<text text-anchor="start" x="17" y="-106.5" font-family="Helvetica,sans-Serif" font-size="10.00">raw_encode()</text>
<polygon fill="#666666" stroke="#666666" points="0,-191.5 0,-191.5 90,-191.5 90,-191.5 0,-191.5"/>
<polygon fill="#666666" stroke="#666666" points="0,-161.5 0,-161.5 15,-161.5 15,-161.5 0,-161.5"/>
<polygon fill="#666666" stroke="#666666" points="15,-161.5 15,-161.5 90,-161.5 90,-161.5 15,-161.5"/>
<polygon fill="none" stroke="#666666" points="0,-100 0,-209 90,-209 90,-100 0,-100"/>
</a>
</g>
</g>
<!-- Node2&#45;&gt;Node1 -->
<g id="edge1_Node000001_Node000002" class="edge">
<title>Node2&#45;&gt;Node1</title>
<g id="a_edge1_Node000001_Node000002"><a xlink:title=" ">
<path fill="none" stroke="#63b8ff" d="M45,-89.9C45,-81 45,-72.2 45,-64.28"/>
<polygon fill="none" stroke="#63b8ff" points="41.5,-89.95 45,-99.95 48.5,-89.95 41.5,-89.95"/>
</a>
</g>
</g>
<!-- Node3 -->
<g id="Node000003" class="node">
<title>Node3</title>
<g id="a_Node000003"><a xlink:href="structsrc__item.html" target="_top" xlink:title=" ">
<polygon fill="white" stroke="transparent" points="80.5,-309 9.5,-309 9.5,-245 80.5,-245 80.5,-309"/>
<text text-anchor="start" x="24" y="-297" font-family="Helvetica,sans-Serif" font-size="10.00">src_item</text>
<text text-anchor="start" x="14" y="-282" font-family="Helvetica,sans-Serif" font-size="10.00">+</text>
<text text-anchor="start" x="27" y="-282" font-family="Helvetica,sans-Serif" font-size="10.00">location</text>
<text text-anchor="start" x="14" y="-267" font-family="Helvetica,sans-Serif" font-size="10.00">+</text>
<text text-anchor="start" x="27" y="-267" font-family="Helvetica,sans-Serif" font-size="10.00">src_item()</text>
<text text-anchor="start" x="14" y="-252" font-family="Helvetica,sans-Serif" font-size="10.00">+</text>
<text text-anchor="start" x="27" y="-252" font-family="Helvetica,sans-Serif" font-size="10.00">src_item()</text>
<polygon fill="#666666" stroke="#666666" points="10,-292 10,-292 81,-292 81,-292 10,-292"/>
<polygon fill="#666666" stroke="#666666" points="10,-277 10,-277 25,-277 25,-277 10,-277"/>
<polygon fill="#666666" stroke="#666666" points="25,-277 25,-277 81,-277 81,-277 25,-277"/>
<polygon fill="none" stroke="#666666" points="9.5,-245 9.5,-309 80.5,-309 80.5,-245 9.5,-245"/>
</a>
</g>
</g>
<!-- Node3&#45;&gt;Node2 -->
<g id="edge2_Node000002_Node000003" class="edge">
<title>Node3&#45;&gt;Node2</title>
<g id="a_edge2_Node000002_Node000003"><a xlink:title=" ">
<path fill="none" stroke="#63b8ff" d="M45,-234.89C45,-226.67 45,-217.91 45,-209.33"/>
<polygon fill="none" stroke="#63b8ff" points="41.5,-234.97 45,-244.97 48.5,-234.97 41.5,-234.97"/>
</a>
</g>
</g>
</g>
</svg>
