<?xml version="1.0" encoding="UTF-8" standalone="no"?>
<!DOCTYPE svg PUBLIC "-//W3C//DTD SVG 1.1//EN"
 "http://www.w3.org/Graphics/SVG/1.1/DTD/svg11.dtd">
<!-- Generated by graphviz version 2.43.0 (0)
 -->
<!-- Title: yy::parser::syntax_error Pages: 1 -->
<svg width="199pt" height="541pt"
 viewBox="0.00 0.00 199.00 541.00" xmlns="http://www.w3.org/2000/svg" xmlns:xlink="http://www.w3.org/1999/xlink">
<g id="graph0" class="graph" transform="scale(1 1) rotate(0) translate(4 537)">
<title>yy::parser::syntax_error</title>
<!-- Node1 -->
<g id="Node000001" class="node">
<title>Node1</title>
<g id="a_Node000001"><a xlink:title="Syntax errors thrown from user actions.">
<polygon fill="#999999" stroke="transparent" points="114.5,-90 15.5,-90 15.5,0 114.5,0 114.5,-90"/>
<text text-anchor="start" x="21.5" y="-78" font-family="Helvetica,sans-Serif" font-size="10.00">yy::parser::syntax</text>
<text text-anchor="start" x="51" y="-67" font-family="Helvetica,sans-Serif" font-size="10.00">_error</text>
<text text-anchor="start" x="62" y="-52" font-family="Helvetica,sans-Serif" font-size="10.00"> </text>
<text text-anchor="start" x="20" y="-37" font-family="Helvetica,sans-Serif" font-size="10.00">+</text>
<text text-anchor="start" x="33" y="-37" font-family="Helvetica,sans-Serif" font-size="10.00">syntax_error()</text>
<text text-anchor="start" x="20" y="-22" font-family="Helvetica,sans-Serif" font-size="10.00">+</text>
<text text-anchor="start" x="33" y="-22" font-family="Helvetica,sans-Serif" font-size="10.00">syntax_error()</text>
<text text-anchor="start" x="20" y="-7" font-family="Helvetica,sans-Serif" font-size="10.00">+</text>
<text text-anchor="start" x="33" y="-7" font-family="Helvetica,sans-Serif" font-size="10.00">~syntax_error()</text>
<polygon fill="#666666" stroke="#666666" points="16,-62 16,-62 115,-62 115,-62 16,-62"/>
<polygon fill="#666666" stroke="#666666" points="16,-47 16,-47 115,-47 115,-47 16,-47"/>
<polygon fill="none" stroke="#666666" points="15.5,0 15.5,-90 114.5,-90 114.5,0 15.5,0"/>
</a>
</g>
</g>
<!-- Node2 -->
<g id="Node000002" class="node">
<title>Node2</title>
<g id="a_Node000002"><a xlink:title=" ">
<polygon fill="white" stroke="transparent" points="98,-253.5 0,-253.5 0,-204.5 98,-204.5 98,-253.5"/>
<text text-anchor="start" x="5" y="-241" font-family="Helvetica,sans-Serif" font-size="10.00">std::runtime_error</text>
<text text-anchor="start" x="45.5" y="-226" font-family="Helvetica,sans-Serif" font-size="10.00"> </text>
<text text-anchor="start" x="45.5" y="-211" font-family="Helvetica,sans-Serif" font-size="10.00"> </text>
<polygon fill="#666666" stroke="#666666" points="0,-236 0,-236 98,-236 98,-236 0,-236"/>
<polygon fill="#666666" stroke="#666666" points="0,-221 0,-221 98,-221 98,-221 0,-221"/>
<polygon fill="none" stroke="#666666" points="0,-204.5 0,-253.5 98,-253.5 98,-204.5 0,-204.5"/>
</a>
</g>
</g>
<!-- Node2&#45;&gt;Node1 -->
<g id="edge1_Node000001_Node000002" class="edge">
<title>Node2&#45;&gt;Node1</title>
<g id="a_edge1_Node000001_Node000002"><a xlink:title=" ">
<path fill="none" stroke="#63b8ff" d="M51.99,-194.03C54.57,-164.67 58.32,-122.03 61.13,-90.04"/>
<polygon fill="none" stroke="#63b8ff" points="48.48,-193.94 51.09,-204.21 55.45,-194.55 48.48,-193.94"/>
</a>
</g>
</g>
<!-- Node3 -->
<g id="Node000003" class="node">
<title>Node3</title>
<g id="a_Node000003"><a xlink:href="classyy_1_1location.html" target="_top" xlink:title="Two points in a source file.">
<polygon fill="white" stroke="transparent" points="187.5,-321 116.5,-321 116.5,-137 187.5,-137 187.5,-321"/>
<text text-anchor="start" x="124" y="-309" font-family="Helvetica,sans-Serif" font-size="10.00">yy::location</text>
<text text-anchor="start" x="149" y="-294" font-family="Helvetica,sans-Serif" font-size="10.00"> </text>
<text text-anchor="start" x="121" y="-279" font-family="Helvetica,sans-Serif" font-size="10.00">+</text>
<text text-anchor="start" x="134" y="-279" font-family="Helvetica,sans-Serif" font-size="10.00">initialize()</text>
<text text-anchor="start" x="121" y="-264" font-family="Helvetica,sans-Serif" font-size="10.00">+</text>
<text text-anchor="start" x="134" y="-264" font-family="Helvetica,sans-Serif" font-size="10.00">location()</text>
<text text-anchor="start" x="121" y="-249" font-family="Helvetica,sans-Serif" font-size="10.00">+</text>
<text text-anchor="start" x="134" y="-249" font-family="Helvetica,sans-Serif" font-size="10.00">location()</text>
<text text-anchor="start" x="121" y="-234" font-family="Helvetica,sans-Serif" font-size="10.00">+</text>
<text text-anchor="start" x="134" y="-234" font-family="Helvetica,sans-Serif" font-size="10.00">location()</text>
<text text-anchor="start" x="121" y="-219" font-family="Helvetica,sans-Serif" font-size="10.00">+</text>
<text text-anchor="start" x="134" y="-219" font-family="Helvetica,sans-Serif" font-size="10.00">step()</text>
<text text-anchor="start" x="121" y="-204" font-family="Helvetica,sans-Serif" font-size="10.00">+</text>
<text text-anchor="start" x="134" y="-204" font-family="Helvetica,sans-Serif" font-size="10.00">columns()</text>
<text text-anchor="start" x="121" y="-189" font-family="Helvetica,sans-Serif" font-size="10.00">+</text>
<text text-anchor="start" x="134" y="-189" font-family="Helvetica,sans-Serif" font-size="10.00">lines()</text>
<text text-anchor="start" x="122.5" y="-174" font-family="Helvetica,sans-Serif" font-size="10.00">*</text>
<text text-anchor="start" x="134" y="-174" font-family="Helvetica,sans-Serif" font-size="10.00">step()</text>
<text text-anchor="start" x="122.5" y="-159" font-family="Helvetica,sans-Serif" font-size="10.00">*</text>
<text text-anchor="start" x="134" y="-159" font-family="Helvetica,sans-Serif" font-size="10.00">columns()</text>
<text text-anchor="start" x="122.5" y="-144" font-family="Helvetica,sans-Serif" font-size="10.00">*</text>
<text text-anchor="start" x="134" y="-144" font-family="Helvetica,sans-Serif" font-size="10.00">lines()</text>
<polygon fill="#666666" stroke="#666666" points="117,-304 117,-304 188,-304 188,-304 117,-304"/>
<polygon fill="#666666" stroke="#666666" points="117,-289 117,-289 188,-289 188,-289 117,-289"/>
<polygon fill="none" stroke="#666666" points="116.5,-137 116.5,-321 187.5,-321 187.5,-137 116.5,-137"/>
</a>
</g>
</g>
<!-- Node3&#45;&gt;Node1 -->
<g id="edge2_Node000001_Node000003" class="edge">
<title>Node3&#45;&gt;Node1</title>
<g id="a_edge2_Node000001_Node000003"><a xlink:title=" ">
<path fill="none" stroke="#63b8ff" d="M116.49,-153.71C108.09,-136.14 99.28,-117.71 91.37,-101.16"/>
<polygon fill="none" stroke="#63b8ff" points="91.23,-100.87 85.03,-97.18 86.05,-90.04 92.25,-93.73 91.23,-100.87"/>
</a>
</g>
<text text-anchor="middle" x="123.5" y="-111" font-family="Helvetica,sans-Serif" font-size="10.00" fill="grey"> +location</text>
</g>
<!-- Node4 -->
<g id="Node000004" class="node">
<title>Node4</title>
<g id="a_Node000004"><a xlink:href="classyy_1_1position.html" target="_top" xlink:title="A point in a source file.">
<polygon fill="white" stroke="transparent" points="187.5,-533 116.5,-533 116.5,-379 187.5,-379 187.5,-533"/>
<text text-anchor="start" x="124" y="-521" font-family="Helvetica,sans-Serif" font-size="10.00">yy::position</text>
<text text-anchor="start" x="121" y="-506" font-family="Helvetica,sans-Serif" font-size="10.00">+</text>
<text text-anchor="start" x="134" y="-506" font-family="Helvetica,sans-Serif" font-size="10.00">column</text>
<text text-anchor="start" x="121" y="-491" font-family="Helvetica,sans-Serif" font-size="10.00">+</text>
<text text-anchor="start" x="134" y="-491" font-family="Helvetica,sans-Serif" font-size="10.00">filename</text>
<text text-anchor="start" x="121" y="-476" font-family="Helvetica,sans-Serif" font-size="10.00">+</text>
<text text-anchor="start" x="134" y="-476" font-family="Helvetica,sans-Serif" font-size="10.00">line</text>
<text text-anchor="start" x="121" y="-461" font-family="Helvetica,sans-Serif" font-size="10.00">+</text>
<text text-anchor="start" x="134" y="-461" font-family="Helvetica,sans-Serif" font-size="10.00">initialize()</text>
<text text-anchor="start" x="121" y="-446" font-family="Helvetica,sans-Serif" font-size="10.00">+</text>
<text text-anchor="start" x="134" y="-446" font-family="Helvetica,sans-Serif" font-size="10.00">position()</text>
<text text-anchor="start" x="121" y="-431" font-family="Helvetica,sans-Serif" font-size="10.00">+</text>
<text text-anchor="start" x="134" y="-431" font-family="Helvetica,sans-Serif" font-size="10.00">lines()</text>
<text text-anchor="start" x="121" y="-416" font-family="Helvetica,sans-Serif" font-size="10.00">+</text>
<text text-anchor="start" x="134" y="-416" font-family="Helvetica,sans-Serif" font-size="10.00">columns()</text>
<text text-anchor="start" x="122.5" y="-401" font-family="Helvetica,sans-Serif" font-size="10.00">*</text>
<text text-anchor="start" x="134" y="-401" font-family="Helvetica,sans-Serif" font-size="10.00">lines()</text>
<text text-anchor="start" x="122.5" y="-386" font-family="Helvetica,sans-Serif" font-size="10.00">*</text>
<text text-anchor="start" x="134" y="-386" font-family="Helvetica,sans-Serif" font-size="10.00">columns()</text>
<polygon fill="#666666" stroke="#666666" points="117,-516 117,-516 188,-516 188,-516 117,-516"/>
<polygon fill="#666666" stroke="#666666" points="117,-471 117,-471 132,-471 132,-471 117,-471"/>
<polygon fill="#666666" stroke="#666666" points="132,-471 132,-471 188,-471 188,-471 132,-471"/>
<polygon fill="none" stroke="#666666" points="116.5,-379 116.5,-533 187.5,-533 187.5,-379 116.5,-379"/>
</a>
</g>
</g>
<!-- Node4&#45;&gt;Node3 -->
<g id="edge3_Node000003_Node000004" class="edge">
<title>Node4&#45;&gt;Node3</title>
<g id="a_edge3_Node000003_Node000004"><a xlink:title=" ">
<path fill="none" stroke="#63b8ff" d="M152,-378.83C152,-364.24 152,-348.74 152,-333.46"/>
<polygon fill="none" stroke="#63b8ff" points="152,-333.28 148,-327.28 152,-321.28 156,-327.28 152,-333.28"/>
</a>
</g>
<text text-anchor="middle" x="171.5" y="-353" font-family="Helvetica,sans-Serif" font-size="10.00" fill="grey"> +begin</text>
<text text-anchor="middle" x="171.5" y="-342" font-family="Helvetica,sans-Serif" font-size="10.00" fill="grey">+end</text>
</g>
</g>
</svg>
