<?xml version="1.0" encoding="UTF-8" standalone="no"?>
<!DOCTYPE svg PUBLIC "-//W3C//DTD SVG 1.1//EN"
 "http://www.w3.org/Graphics/SVG/1.1/DTD/svg11.dtd">
<!-- Generated by graphviz version 2.43.0 (0)
 -->
<!-- Title: output_format Pages: 1 -->
<svg width="738pt" height="322pt"
 viewBox="0.00 0.00 738.00 322.00" xmlns="http://www.w3.org/2000/svg" xmlns:xlink="http://www.w3.org/1999/xlink">
<g id="graph0" class="graph" transform="scale(1 1) rotate(0) translate(4 318)">
<title>output_format</title>
<!-- Node1 -->
<g id="Node000001" class="node">
<title>Node1</title>
<g id="a_Node000001"><a xlink:title=" ">
<polygon fill="#999999" stroke="transparent" points="427.5,-314 303.5,-314 303.5,-160 427.5,-160 427.5,-314"/>
<text text-anchor="start" x="330.5" y="-302" font-family="Helvetica,sans-Serif" font-size="10.00">output_format</text>
<text text-anchor="start" x="307.5" y="-287" font-family="Helvetica,sans-Serif" font-size="10.00">+</text>
<text text-anchor="start" x="320.5" y="-287" font-family="Helvetica,sans-Serif" font-size="10.00">name</text>
<text text-anchor="start" x="307.5" y="-272" font-family="Helvetica,sans-Serif" font-size="10.00">+</text>
<text text-anchor="start" x="320.5" y="-272" font-family="Helvetica,sans-Serif" font-size="10.00">default_name</text>
<text text-anchor="start" x="307.5" y="-257" font-family="Helvetica,sans-Serif" font-size="10.00">+</text>
<text text-anchor="start" x="320.5" y="-257" font-family="Helvetica,sans-Serif" font-size="10.00">get_description()</text>
<text text-anchor="start" x="307.5" y="-242" font-family="Helvetica,sans-Serif" font-size="10.00">+</text>
<text text-anchor="start" x="320.5" y="-242" font-family="Helvetica,sans-Serif" font-size="10.00">open_single_output()</text>
<text text-anchor="start" x="307.5" y="-227" font-family="Helvetica,sans-Serif" font-size="10.00">+</text>
<text text-anchor="start" x="320.5" y="-227" font-family="Helvetica,sans-Serif" font-size="10.00">output()</text>
<text text-anchor="start" x="307.5" y="-212" font-family="Helvetica,sans-Serif" font-size="10.00">+</text>
<text text-anchor="start" x="320.5" y="-212" font-family="Helvetica,sans-Serif" font-size="10.00">~output_format()</text>
<text text-anchor="start" x="307.5" y="-197" font-family="Helvetica,sans-Serif" font-size="10.00">+</text>
<text text-anchor="start" x="320.5" y="-197" font-family="Helvetica,sans-Serif" font-size="10.00">add()</text>
<text text-anchor="start" x="307.5" y="-182" font-family="Helvetica,sans-Serif" font-size="10.00">+</text>
<text text-anchor="start" x="320.5" y="-182" font-family="Helvetica,sans-Serif" font-size="10.00">all()</text>
<text text-anchor="start" x="307.5" y="-167" font-family="Helvetica,sans-Serif" font-size="10.00">#</text>
<text text-anchor="start" x="320.5" y="-167" font-family="Helvetica,sans-Serif" font-size="10.00">output_format()</text>
<polygon fill="#666666" stroke="#666666" points="303.5,-297 303.5,-297 427.5,-297 427.5,-297 303.5,-297"/>
<polygon fill="#666666" stroke="#666666" points="303.5,-267 303.5,-267 318.5,-267 318.5,-267 303.5,-267"/>
<polygon fill="#666666" stroke="#666666" points="318.5,-267 318.5,-267 427.5,-267 427.5,-267 318.5,-267"/>
<polygon fill="none" stroke="#666666" points="303.5,-160 303.5,-314 427.5,-314 427.5,-160 303.5,-160"/>
</a>
</g>
</g>
<!-- Node2 -->
<g id="Node000002" class="node">
<title>Node2</title>
<g id="a_Node000002"><a xlink:href="structada__output.html" target="_top" xlink:title=" ">
<polygon fill="white" stroke="transparent" points="107,-124 0,-124 0,0 107,0 107,-124"/>
<text text-anchor="start" x="26.5" y="-112" font-family="Helvetica,sans-Serif" font-size="10.00">ada_output</text>
<text text-anchor="start" x="50.5" y="-97" font-family="Helvetica,sans-Serif" font-size="10.00"> </text>
<text text-anchor="start" x="4.5" y="-82" font-family="Helvetica,sans-Serif" font-size="10.00">+</text>
<text text-anchor="start" x="17.5" y="-82" font-family="Helvetica,sans-Serif" font-size="10.00">ada_case()</text>
<text text-anchor="start" x="4.5" y="-67" font-family="Helvetica,sans-Serif" font-size="10.00">+</text>
<text text-anchor="start" x="17.5" y="-67" font-family="Helvetica,sans-Serif" font-size="10.00">ada_output()</text>
<text text-anchor="start" x="4.5" y="-52" font-family="Helvetica,sans-Serif" font-size="10.00">+</text>
<text text-anchor="start" x="17.5" y="-52" font-family="Helvetica,sans-Serif" font-size="10.00">get_description()</text>
<text text-anchor="start" x="4.5" y="-37" font-family="Helvetica,sans-Serif" font-size="10.00">+</text>
<text text-anchor="start" x="17.5" y="-37" font-family="Helvetica,sans-Serif" font-size="10.00">header()</text>
<text text-anchor="start" x="4.5" y="-22" font-family="Helvetica,sans-Serif" font-size="10.00">+</text>
<text text-anchor="start" x="17.5" y="-22" font-family="Helvetica,sans-Serif" font-size="10.00">output()</text>
<text text-anchor="start" x="4.5" y="-7" font-family="Helvetica,sans-Serif" font-size="10.00">+</text>
<text text-anchor="start" x="17.5" y="-7" font-family="Helvetica,sans-Serif" font-size="10.00">output_symbols()</text>
<polygon fill="#666666" stroke="#666666" points="0.5,-107 0.5,-107 107.5,-107 107.5,-107 0.5,-107"/>
<polygon fill="#666666" stroke="#666666" points="0.5,-92 0.5,-92 107.5,-92 107.5,-92 0.5,-92"/>
<polygon fill="none" stroke="#666666" points="0,0 0,-124 107,-124 107,0 0,0"/>
</a>
</g>
</g>
<!-- Node1&#45;&gt;Node2 -->
<g id="edge1_Node000001_Node000002" class="edge">
<title>Node1&#45;&gt;Node2</title>
<g id="a_edge1_Node000001_Node000002"><a xlink:title=" ">
<path fill="none" stroke="#63b8ff" d="M294.01,-211.78C242,-192.35 171.24,-162.07 115.5,-124 112.76,-122.13 110.03,-120.12 107.33,-118.03"/>
<polygon fill="none" stroke="#63b8ff" points="292.9,-215.1 303.5,-215.28 295.33,-208.53 292.9,-215.1"/>
</a>
</g>
</g>
<!-- Node3 -->
<g id="Node000003" class="node">
<title>Node3</title>
<g id="a_Node000003"><a xlink:href="structc__sdk__output.html" target="_top" xlink:title=" ">
<polygon fill="white" stroke="transparent" points="232,-116.5 125,-116.5 125,-7.5 232,-7.5 232,-116.5"/>
<text text-anchor="start" x="146.5" y="-104" font-family="Helvetica,sans-Serif" font-size="10.00">c_sdk_output</text>
<text text-anchor="start" x="175.5" y="-89" font-family="Helvetica,sans-Serif" font-size="10.00"> </text>
<text text-anchor="start" x="129.5" y="-74" font-family="Helvetica,sans-Serif" font-size="10.00">+</text>
<text text-anchor="start" x="142.5" y="-74" font-family="Helvetica,sans-Serif" font-size="10.00">c_sdk_output()</text>
<text text-anchor="start" x="129.5" y="-59" font-family="Helvetica,sans-Serif" font-size="10.00">+</text>
<text text-anchor="start" x="142.5" y="-59" font-family="Helvetica,sans-Serif" font-size="10.00">get_description()</text>
<text text-anchor="start" x="129.5" y="-44" font-family="Helvetica,sans-Serif" font-size="10.00">+</text>
<text text-anchor="start" x="142.5" y="-44" font-family="Helvetica,sans-Serif" font-size="10.00">header()</text>
<text text-anchor="start" x="129.5" y="-29" font-family="Helvetica,sans-Serif" font-size="10.00">+</text>
<text text-anchor="start" x="142.5" y="-29" font-family="Helvetica,sans-Serif" font-size="10.00">output()</text>
<text text-anchor="start" x="129.5" y="-14" font-family="Helvetica,sans-Serif" font-size="10.00">+</text>
<text text-anchor="start" x="142.5" y="-14" font-family="Helvetica,sans-Serif" font-size="10.00">output_symbols()</text>
<polygon fill="#666666" stroke="#666666" points="125.5,-99 125.5,-99 232.5,-99 232.5,-99 125.5,-99"/>
<polygon fill="#666666" stroke="#666666" points="125.5,-84 125.5,-84 232.5,-84 232.5,-84 125.5,-84"/>
<polygon fill="none" stroke="#666666" points="125,-7.5 125,-116.5 232,-116.5 232,-7.5 125,-7.5"/>
</a>
</g>
</g>
<!-- Node1&#45;&gt;Node3 -->
<g id="edge2_Node000001_Node000003" class="edge">
<title>Node1&#45;&gt;Node3</title>
<g id="a_edge2_Node000001_Node000003"><a xlink:title=" ">
<path fill="none" stroke="#63b8ff" d="M295.64,-174.44C277.53,-158.2 258.16,-140.58 240.5,-124 237.75,-121.42 234.94,-118.75 232.12,-116.06"/>
<polygon fill="none" stroke="#63b8ff" points="293.52,-177.25 303.31,-181.31 298.19,-172.03 293.52,-177.25"/>
</a>
</g>
</g>
<!-- Node4 -->
<g id="Node000004" class="node">
<title>Node4</title>
<g id="a_Node000004"><a xlink:href="structgo__output.html" target="_top" xlink:title=" ">
<polygon fill="white" stroke="transparent" points="357,-116.5 250,-116.5 250,-7.5 357,-7.5 357,-116.5"/>
<text text-anchor="start" x="279.5" y="-104" font-family="Helvetica,sans-Serif" font-size="10.00">go_output</text>
<text text-anchor="start" x="300.5" y="-89" font-family="Helvetica,sans-Serif" font-size="10.00"> </text>
<text text-anchor="start" x="254.5" y="-74" font-family="Helvetica,sans-Serif" font-size="10.00">+</text>
<text text-anchor="start" x="267.5" y="-74" font-family="Helvetica,sans-Serif" font-size="10.00">get_description()</text>
<text text-anchor="start" x="254.5" y="-59" font-family="Helvetica,sans-Serif" font-size="10.00">+</text>
<text text-anchor="start" x="267.5" y="-59" font-family="Helvetica,sans-Serif" font-size="10.00">go_output()</text>
<text text-anchor="start" x="254.5" y="-44" font-family="Helvetica,sans-Serif" font-size="10.00">+</text>
<text text-anchor="start" x="267.5" y="-44" font-family="Helvetica,sans-Serif" font-size="10.00">header()</text>
<text text-anchor="start" x="254.5" y="-29" font-family="Helvetica,sans-Serif" font-size="10.00">+</text>
<text text-anchor="start" x="267.5" y="-29" font-family="Helvetica,sans-Serif" font-size="10.00">output()</text>
<text text-anchor="start" x="254.5" y="-14" font-family="Helvetica,sans-Serif" font-size="10.00">+</text>
<text text-anchor="start" x="267.5" y="-14" font-family="Helvetica,sans-Serif" font-size="10.00">output_symbols()</text>
<polygon fill="#666666" stroke="#666666" points="250.5,-99 250.5,-99 357.5,-99 357.5,-99 250.5,-99"/>
<polygon fill="#666666" stroke="#666666" points="250.5,-84 250.5,-84 357.5,-84 357.5,-84 250.5,-84"/>
<polygon fill="none" stroke="#666666" points="250,-7.5 250,-116.5 357,-116.5 357,-7.5 250,-7.5"/>
</a>
</g>
</g>
<!-- Node1&#45;&gt;Node4 -->
<g id="edge3_Node000001_Node000004" class="edge">
<title>Node1&#45;&gt;Node4</title>
<g id="a_edge3_Node000001_Node000004"><a xlink:title=" ">
<path fill="none" stroke="#63b8ff" d="M334.77,-150.25C330.66,-138.77 326.54,-127.28 322.7,-116.58"/>
<polygon fill="none" stroke="#63b8ff" points="331.55,-151.64 338.22,-159.87 338.14,-149.27 331.55,-151.64"/>
</a>
</g>
</g>
<!-- Node5 -->
<g id="Node000005" class="node">
<title>Node5</title>
<g id="a_Node000005"><a xlink:href="structhex__output.html" target="_top" xlink:title=" ">
<polygon fill="white" stroke="transparent" points="479.5,-101.5 375.5,-101.5 375.5,-22.5 479.5,-22.5 479.5,-101.5"/>
<text text-anchor="start" x="400" y="-89" font-family="Helvetica,sans-Serif" font-size="10.00">hex_output</text>
<text text-anchor="start" x="424" y="-74" font-family="Helvetica,sans-Serif" font-size="10.00"> </text>
<text text-anchor="start" x="379.5" y="-59" font-family="Helvetica,sans-Serif" font-size="10.00">+</text>
<text text-anchor="start" x="392.5" y="-59" font-family="Helvetica,sans-Serif" font-size="10.00">get_description()</text>
<text text-anchor="start" x="379.5" y="-44" font-family="Helvetica,sans-Serif" font-size="10.00">+</text>
<text text-anchor="start" x="392.5" y="-44" font-family="Helvetica,sans-Serif" font-size="10.00">hex_output()</text>
<text text-anchor="start" x="379.5" y="-29" font-family="Helvetica,sans-Serif" font-size="10.00">+</text>
<text text-anchor="start" x="392.5" y="-29" font-family="Helvetica,sans-Serif" font-size="10.00">output()</text>
<polygon fill="#666666" stroke="#666666" points="375.5,-84 375.5,-84 479.5,-84 479.5,-84 375.5,-84"/>
<polygon fill="#666666" stroke="#666666" points="375.5,-69 375.5,-69 479.5,-69 479.5,-69 375.5,-69"/>
<polygon fill="none" stroke="#666666" points="375.5,-22.5 375.5,-101.5 479.5,-101.5 479.5,-22.5 375.5,-22.5"/>
</a>
</g>
</g>
<!-- Node1&#45;&gt;Node5 -->
<g id="edge4_Node000001_Node000005" class="edge">
<title>Node1&#45;&gt;Node5</title>
<g id="a_edge4_Node000001_Node000005"><a xlink:title=" ">
<path fill="none" stroke="#63b8ff" d="M396.18,-150.4C402.3,-133.31 408.44,-116.17 413.65,-101.66"/>
<polygon fill="none" stroke="#63b8ff" points="392.86,-149.27 392.78,-159.87 399.45,-151.64 392.86,-149.27"/>
</a>
</g>
</g>
<!-- Node6 -->
<g id="Node000006" class="node">
<title>Node6</title>
<g id="a_Node000006"><a xlink:href="structjson__output.html" target="_top" xlink:title=" ">
<polygon fill="white" stroke="transparent" points="605,-109 498,-109 498,-15 605,-15 605,-109"/>
<text text-anchor="start" x="523" y="-97" font-family="Helvetica,sans-Serif" font-size="10.00">json_output</text>
<text text-anchor="start" x="548.5" y="-82" font-family="Helvetica,sans-Serif" font-size="10.00"> </text>
<text text-anchor="start" x="502.5" y="-67" font-family="Helvetica,sans-Serif" font-size="10.00">+</text>
<text text-anchor="start" x="515.5" y="-67" font-family="Helvetica,sans-Serif" font-size="10.00">get_description()</text>
<text text-anchor="start" x="502.5" y="-52" font-family="Helvetica,sans-Serif" font-size="10.00">+</text>
<text text-anchor="start" x="515.5" y="-52" font-family="Helvetica,sans-Serif" font-size="10.00">json_output()</text>
<text text-anchor="start" x="502.5" y="-37" font-family="Helvetica,sans-Serif" font-size="10.00">+</text>
<text text-anchor="start" x="515.5" y="-37" font-family="Helvetica,sans-Serif" font-size="10.00">output()</text>
<text text-anchor="start" x="502.5" y="-22" font-family="Helvetica,sans-Serif" font-size="10.00">+</text>
<text text-anchor="start" x="515.5" y="-22" font-family="Helvetica,sans-Serif" font-size="10.00">output_symbols()</text>
<polygon fill="#666666" stroke="#666666" points="498.5,-92 498.5,-92 605.5,-92 605.5,-92 498.5,-92"/>
<polygon fill="#666666" stroke="#666666" points="498.5,-77 498.5,-77 605.5,-77 605.5,-77 498.5,-77"/>
<polygon fill="none" stroke="#666666" points="498,-15 498,-109 605,-109 605,-15 498,-15"/>
</a>
</g>
</g>
<!-- Node1&#45;&gt;Node6 -->
<g id="edge5_Node000001_Node000006" class="edge">
<title>Node1&#45;&gt;Node6</title>
<g id="a_edge5_Node000001_Node000006"><a xlink:title=" ">
<path fill="none" stroke="#63b8ff" d="M435.2,-173.21C452.7,-157.26 471.37,-140.09 488.5,-124 493.61,-119.21 498.91,-114.17 504.18,-109.12"/>
<polygon fill="none" stroke="#63b8ff" points="432.82,-170.65 427.78,-179.96 437.53,-175.82 432.82,-170.65"/>
</a>
</g>
</g>
<!-- Node7 -->
<g id="Node000007" class="node">
<title>Node7</title>
<g id="a_Node000007"><a xlink:href="structpython__output.html" target="_top" xlink:title=" ">
<polygon fill="white" stroke="transparent" points="730,-124 623,-124 623,0 730,0 730,-124"/>
<text text-anchor="start" x="641.5" y="-112" font-family="Helvetica,sans-Serif" font-size="10.00">python_output</text>
<text text-anchor="start" x="673.5" y="-97" font-family="Helvetica,sans-Serif" font-size="10.00"> </text>
<text text-anchor="start" x="627.5" y="-82" font-family="Helvetica,sans-Serif" font-size="10.00">+</text>
<text text-anchor="start" x="640.5" y="-82" font-family="Helvetica,sans-Serif" font-size="10.00">get_description()</text>
<text text-anchor="start" x="627.5" y="-67" font-family="Helvetica,sans-Serif" font-size="10.00">+</text>
<text text-anchor="start" x="640.5" y="-67" font-family="Helvetica,sans-Serif" font-size="10.00">header()</text>
<text text-anchor="start" x="627.5" y="-52" font-family="Helvetica,sans-Serif" font-size="10.00">+</text>
<text text-anchor="start" x="640.5" y="-52" font-family="Helvetica,sans-Serif" font-size="10.00">output()</text>
<text text-anchor="start" x="627.5" y="-37" font-family="Helvetica,sans-Serif" font-size="10.00">+</text>
<text text-anchor="start" x="640.5" y="-37" font-family="Helvetica,sans-Serif" font-size="10.00">output_symbols()</text>
<text text-anchor="start" x="627.5" y="-22" font-family="Helvetica,sans-Serif" font-size="10.00">+</text>
<text text-anchor="start" x="640.5" y="-22" font-family="Helvetica,sans-Serif" font-size="10.00">python_output()</text>
<text text-anchor="start" x="627.5" y="-7" font-family="Helvetica,sans-Serif" font-size="10.00">+</text>
<text text-anchor="start" x="640.5" y="-7" font-family="Helvetica,sans-Serif" font-size="10.00">disassemble()</text>
<polygon fill="#666666" stroke="#666666" points="623.5,-107 623.5,-107 730.5,-107 730.5,-107 623.5,-107"/>
<polygon fill="#666666" stroke="#666666" points="623.5,-92 623.5,-92 730.5,-92 730.5,-92 623.5,-92"/>
<polygon fill="none" stroke="#666666" points="623,0 623,-124 730,-124 730,0 623,0"/>
</a>
</g>
</g>
<!-- Node1&#45;&gt;Node7 -->
<g id="edge6_Node000001_Node000007" class="edge">
<title>Node1&#45;&gt;Node7</title>
<g id="a_edge6_Node000001_Node000007"><a xlink:title=" ">
<path fill="none" stroke="#63b8ff" d="M436.95,-211.63C488.73,-192.17 559.07,-161.92 614.5,-124 617.24,-122.12 619.97,-120.12 622.67,-118.02"/>
<polygon fill="none" stroke="#63b8ff" points="435.67,-208.37 427.51,-215.14 438.1,-214.94 435.67,-208.37"/>
</a>
</g>
</g>
</g>
</svg>
