<?xml version="1.0" encoding="UTF-8" standalone="no"?>
<!DOCTYPE svg PUBLIC "-//W3C//DTD SVG 1.1//EN"
 "http://www.w3.org/Graphics/SVG/1.1/DTD/svg11.dtd">
<!-- Generated by graphviz version 2.43.0 (0)
 -->
<!-- Title: code_block Pages: 1 -->
<svg width="103pt" height="777pt"
 viewBox="0.00 0.00 103.00 777.00" xmlns="http://www.w3.org/2000/svg" xmlns:xlink="http://www.w3.org/1999/xlink">
<g id="graph0" class="graph" transform="scale(1 1) rotate(0) translate(4 773)">
<title>code_block</title>
<!-- Node1 -->
<g id="Node000001" class="node">
<title>Node1</title>
<g id="a_Node000001"><a xlink:title=" ">
<polygon fill="#999999" stroke="transparent" points="86,-79 2,-79 2,0 86,0 86,-79"/>
<text text-anchor="start" x="16.5" y="-66.5" font-family="Helvetica,sans-Serif" font-size="10.00">code_block</text>
<text text-anchor="start" x="6" y="-51.5" font-family="Helvetica,sans-Serif" font-size="10.00">+</text>
<text text-anchor="start" x="19" y="-51.5" font-family="Helvetica,sans-Serif" font-size="10.00">contents</text>
<text text-anchor="start" x="6" y="-36.5" font-family="Helvetica,sans-Serif" font-size="10.00">+</text>
<text text-anchor="start" x="19" y="-36.5" font-family="Helvetica,sans-Serif" font-size="10.00">lang</text>
<text text-anchor="start" x="6" y="-21.5" font-family="Helvetica,sans-Serif" font-size="10.00">+</text>
<text text-anchor="start" x="19" y="-21.5" font-family="Helvetica,sans-Serif" font-size="10.00">code_block()</text>
<text text-anchor="start" x="6" y="-6.5" font-family="Helvetica,sans-Serif" font-size="10.00">+</text>
<text text-anchor="start" x="19" y="-6.5" font-family="Helvetica,sans-Serif" font-size="10.00">resolve()</text>
<polygon fill="#666666" stroke="#666666" points="2,-61.5 2,-61.5 86,-61.5 86,-61.5 2,-61.5"/>
<polygon fill="#666666" stroke="#666666" points="2,-31.5 2,-31.5 17,-31.5 17,-31.5 2,-31.5"/>
<polygon fill="#666666" stroke="#666666" points="17,-31.5 17,-31.5 86,-31.5 86,-31.5 17,-31.5"/>
<polygon fill="none" stroke="#666666" points="2,0 2,-79 86,-79 86,0 2,0"/>
</a>
</g>
</g>
<!-- Node2 -->
<g id="Node000002" class="node">
<title>Node2</title>
<g id="a_Node000002"><a xlink:href="structresolvable.html" target="_top" xlink:title=" ">
<polygon fill="white" stroke="transparent" points="88,-225 0,-225 0,-116 88,-116 88,-225"/>
<text text-anchor="start" x="18" y="-212.5" font-family="Helvetica,sans-Serif" font-size="10.00">resolvable</text>
<text text-anchor="start" x="40.5" y="-197.5" font-family="Helvetica,sans-Serif" font-size="10.00"> </text>
<text text-anchor="start" x="4" y="-182.5" font-family="Helvetica,sans-Serif" font-size="10.00">+</text>
<text text-anchor="start" x="17" y="-182.5" font-family="Helvetica,sans-Serif" font-size="10.00">resolvable()</text>
<text text-anchor="start" x="4" y="-167.5" font-family="Helvetica,sans-Serif" font-size="10.00">+</text>
<text text-anchor="start" x="17" y="-167.5" font-family="Helvetica,sans-Serif" font-size="10.00">resolve()</text>
<text text-anchor="start" x="4" y="-152.5" font-family="Helvetica,sans-Serif" font-size="10.00">+</text>
<text text-anchor="start" x="17" y="-152.5" font-family="Helvetica,sans-Serif" font-size="10.00">resolve()</text>
<text text-anchor="start" x="4" y="-137.5" font-family="Helvetica,sans-Serif" font-size="10.00">+</text>
<text text-anchor="start" x="17" y="-137.5" font-family="Helvetica,sans-Serif" font-size="10.00">resolve()</text>
<text text-anchor="start" x="4" y="-122.5" font-family="Helvetica,sans-Serif" font-size="10.00">+</text>
<text text-anchor="start" x="17" y="-122.5" font-family="Helvetica,sans-Serif" font-size="10.00">~resolvable()</text>
<polygon fill="#666666" stroke="#666666" points="0,-207.5 0,-207.5 88,-207.5 88,-207.5 0,-207.5"/>
<polygon fill="#666666" stroke="#666666" points="0,-192.5 0,-192.5 88,-192.5 88,-192.5 0,-192.5"/>
<polygon fill="none" stroke="#666666" points="0,-116 0,-225 88,-225 88,-116 0,-116"/>
</a>
</g>
</g>
<!-- Node2&#45;&gt;Node1 -->
<g id="edge1_Node000001_Node000002" class="edge">
<title>Node2&#45;&gt;Node1</title>
<g id="a_edge1_Node000001_Node000002"><a xlink:title=" ">
<path fill="none" stroke="#63b8ff" d="M44,-105.72C44,-96.65 44,-87.56 44,-79.18"/>
<polygon fill="none" stroke="#63b8ff" points="40.5,-105.91 44,-115.91 47.5,-105.91 40.5,-105.91"/>
</a>
</g>
</g>
<!-- Node3 -->
<g id="Node000003" class="node">
<title>Node3</title>
<g id="a_Node000003"><a xlink:href="structsrc__item.html" target="_top" xlink:title=" ">
<polygon fill="white" stroke="transparent" points="79.5,-326 8.5,-326 8.5,-262 79.5,-262 79.5,-326"/>
<text text-anchor="start" x="23" y="-314" font-family="Helvetica,sans-Serif" font-size="10.00">src_item</text>
<text text-anchor="start" x="41" y="-299" font-family="Helvetica,sans-Serif" font-size="10.00"> </text>
<text text-anchor="start" x="13" y="-284" font-family="Helvetica,sans-Serif" font-size="10.00">+</text>
<text text-anchor="start" x="26" y="-284" font-family="Helvetica,sans-Serif" font-size="10.00">src_item()</text>
<text text-anchor="start" x="13" y="-269" font-family="Helvetica,sans-Serif" font-size="10.00">+</text>
<text text-anchor="start" x="26" y="-269" font-family="Helvetica,sans-Serif" font-size="10.00">src_item()</text>
<polygon fill="#666666" stroke="#666666" points="9,-309 9,-309 80,-309 80,-309 9,-309"/>
<polygon fill="#666666" stroke="#666666" points="9,-294 9,-294 80,-294 80,-294 9,-294"/>
<polygon fill="none" stroke="#666666" points="8.5,-262 8.5,-326 79.5,-326 79.5,-262 8.5,-262"/>
</a>
</g>
</g>
<!-- Node3&#45;&gt;Node2 -->
<g id="edge2_Node000002_Node000003" class="edge">
<title>Node3&#45;&gt;Node2</title>
<g id="a_edge2_Node000002_Node000003"><a xlink:title=" ">
<path fill="none" stroke="#63b8ff" d="M44,-251.69C44,-243.21 44,-234.16 44,-225.31"/>
<polygon fill="none" stroke="#63b8ff" points="40.5,-251.71 44,-261.71 47.5,-251.71 40.5,-251.71"/>
</a>
</g>
</g>
<!-- Node4 -->
<g id="Node000004" class="node">
<title>Node4</title>
<g id="a_Node000004"><a xlink:href="classyy_1_1location.html" target="_top" xlink:title="Two points in a source file.">
<polygon fill="white" stroke="transparent" points="79.5,-557 8.5,-557 8.5,-373 79.5,-373 79.5,-557"/>
<text text-anchor="start" x="16" y="-545" font-family="Helvetica,sans-Serif" font-size="10.00">yy::location</text>
<text text-anchor="start" x="41" y="-530" font-family="Helvetica,sans-Serif" font-size="10.00"> </text>
<text text-anchor="start" x="13" y="-515" font-family="Helvetica,sans-Serif" font-size="10.00">+</text>
<text text-anchor="start" x="26" y="-515" font-family="Helvetica,sans-Serif" font-size="10.00">initialize()</text>
<text text-anchor="start" x="13" y="-500" font-family="Helvetica,sans-Serif" font-size="10.00">+</text>
<text text-anchor="start" x="26" y="-500" font-family="Helvetica,sans-Serif" font-size="10.00">location()</text>
<text text-anchor="start" x="13" y="-485" font-family="Helvetica,sans-Serif" font-size="10.00">+</text>
<text text-anchor="start" x="26" y="-485" font-family="Helvetica,sans-Serif" font-size="10.00">location()</text>
<text text-anchor="start" x="13" y="-470" font-family="Helvetica,sans-Serif" font-size="10.00">+</text>
<text text-anchor="start" x="26" y="-470" font-family="Helvetica,sans-Serif" font-size="10.00">location()</text>
<text text-anchor="start" x="13" y="-455" font-family="Helvetica,sans-Serif" font-size="10.00">+</text>
<text text-anchor="start" x="26" y="-455" font-family="Helvetica,sans-Serif" font-size="10.00">step()</text>
<text text-anchor="start" x="13" y="-440" font-family="Helvetica,sans-Serif" font-size="10.00">+</text>
<text text-anchor="start" x="26" y="-440" font-family="Helvetica,sans-Serif" font-size="10.00">columns()</text>
<text text-anchor="start" x="13" y="-425" font-family="Helvetica,sans-Serif" font-size="10.00">+</text>
<text text-anchor="start" x="26" y="-425" font-family="Helvetica,sans-Serif" font-size="10.00">lines()</text>
<text text-anchor="start" x="14.5" y="-410" font-family="Helvetica,sans-Serif" font-size="10.00">*</text>
<text text-anchor="start" x="26" y="-410" font-family="Helvetica,sans-Serif" font-size="10.00">step()</text>
<text text-anchor="start" x="14.5" y="-395" font-family="Helvetica,sans-Serif" font-size="10.00">*</text>
<text text-anchor="start" x="26" y="-395" font-family="Helvetica,sans-Serif" font-size="10.00">columns()</text>
<text text-anchor="start" x="14.5" y="-380" font-family="Helvetica,sans-Serif" font-size="10.00">*</text>
<text text-anchor="start" x="26" y="-380" font-family="Helvetica,sans-Serif" font-size="10.00">lines()</text>
<polygon fill="#666666" stroke="#666666" points="9,-540 9,-540 80,-540 80,-540 9,-540"/>
<polygon fill="#666666" stroke="#666666" points="9,-525 9,-525 80,-525 80,-525 9,-525"/>
<polygon fill="none" stroke="#666666" points="8.5,-373 8.5,-557 79.5,-557 79.5,-373 8.5,-373"/>
</a>
</g>
</g>
<!-- Node4&#45;&gt;Node3 -->
<g id="edge3_Node000003_Node000004" class="edge">
<title>Node4&#45;&gt;Node3</title>
<g id="a_edge3_Node000003_Node000004"><a xlink:title=" ">
<path fill="none" stroke="#63b8ff" d="M44,-372.58C44,-360.74 44,-349.09 44,-338.56"/>
<polygon fill="none" stroke="#63b8ff" points="44,-338.33 40,-332.33 44,-326.33 48,-332.33 44,-338.33"/>
</a>
</g>
<text text-anchor="middle" x="69.5" y="-347" font-family="Helvetica,sans-Serif" font-size="10.00" fill="grey"> +location</text>
</g>
<!-- Node5 -->
<g id="Node000005" class="node">
<title>Node5</title>
<g id="a_Node000005"><a xlink:href="classyy_1_1position.html" target="_top" xlink:title="A point in a source file.">
<polygon fill="white" stroke="transparent" points="79.5,-769 8.5,-769 8.5,-615 79.5,-615 79.5,-769"/>
<text text-anchor="start" x="16" y="-757" font-family="Helvetica,sans-Serif" font-size="10.00">yy::position</text>
<text text-anchor="start" x="13" y="-742" font-family="Helvetica,sans-Serif" font-size="10.00">+</text>
<text text-anchor="start" x="26" y="-742" font-family="Helvetica,sans-Serif" font-size="10.00">column</text>
<text text-anchor="start" x="13" y="-727" font-family="Helvetica,sans-Serif" font-size="10.00">+</text>
<text text-anchor="start" x="26" y="-727" font-family="Helvetica,sans-Serif" font-size="10.00">filename</text>
<text text-anchor="start" x="13" y="-712" font-family="Helvetica,sans-Serif" font-size="10.00">+</text>
<text text-anchor="start" x="26" y="-712" font-family="Helvetica,sans-Serif" font-size="10.00">line</text>
<text text-anchor="start" x="13" y="-697" font-family="Helvetica,sans-Serif" font-size="10.00">+</text>
<text text-anchor="start" x="26" y="-697" font-family="Helvetica,sans-Serif" font-size="10.00">initialize()</text>
<text text-anchor="start" x="13" y="-682" font-family="Helvetica,sans-Serif" font-size="10.00">+</text>
<text text-anchor="start" x="26" y="-682" font-family="Helvetica,sans-Serif" font-size="10.00">position()</text>
<text text-anchor="start" x="13" y="-667" font-family="Helvetica,sans-Serif" font-size="10.00">+</text>
<text text-anchor="start" x="26" y="-667" font-family="Helvetica,sans-Serif" font-size="10.00">lines()</text>
<text text-anchor="start" x="13" y="-652" font-family="Helvetica,sans-Serif" font-size="10.00">+</text>
<text text-anchor="start" x="26" y="-652" font-family="Helvetica,sans-Serif" font-size="10.00">columns()</text>
<text text-anchor="start" x="14.5" y="-637" font-family="Helvetica,sans-Serif" font-size="10.00">*</text>
<text text-anchor="start" x="26" y="-637" font-family="Helvetica,sans-Serif" font-size="10.00">lines()</text>
<text text-anchor="start" x="14.5" y="-622" font-family="Helvetica,sans-Serif" font-size="10.00">*</text>
<text text-anchor="start" x="26" y="-622" font-family="Helvetica,sans-Serif" font-size="10.00">columns()</text>
<polygon fill="#666666" stroke="#666666" points="9,-752 9,-752 80,-752 80,-752 9,-752"/>
<polygon fill="#666666" stroke="#666666" points="9,-707 9,-707 24,-707 24,-707 9,-707"/>
<polygon fill="#666666" stroke="#666666" points="24,-707 24,-707 80,-707 80,-707 24,-707"/>
<polygon fill="none" stroke="#666666" points="8.5,-615 8.5,-769 79.5,-769 79.5,-615 8.5,-615"/>
</a>
</g>
</g>
<!-- Node5&#45;&gt;Node4 -->
<g id="edge4_Node000004_Node000005" class="edge">
<title>Node5&#45;&gt;Node4</title>
<g id="a_edge4_Node000004_Node000005"><a xlink:title=" ">
<path fill="none" stroke="#63b8ff" d="M44,-614.83C44,-600.24 44,-584.74 44,-569.46"/>
<polygon fill="none" stroke="#63b8ff" points="44,-569.28 40,-563.28 44,-557.28 48,-563.28 44,-569.28"/>
</a>
</g>
<text text-anchor="middle" x="63.5" y="-589" font-family="Helvetica,sans-Serif" font-size="10.00" fill="grey"> +begin</text>
<text text-anchor="middle" x="63.5" y="-578" font-family="Helvetica,sans-Serif" font-size="10.00" fill="grey">+end</text>
</g>
</g>
</svg>
