<?xml version="1.0" encoding="UTF-8" standalone="no"?>
<!DOCTYPE svg PUBLIC "-//W3C//DTD SVG 1.1//EN"
 "http://www.w3.org/Graphics/SVG/1.1/DTD/svg11.dtd">
<!-- Generated by graphviz version 2.43.0 (0)
 -->
<!-- Title: async_context_freertos Pages: 1 -->
<svg width="547pt" height="575pt"
 viewBox="0.00 0.00 546.50 575.00" xmlns="http://www.w3.org/2000/svg" xmlns:xlink="http://www.w3.org/1999/xlink">
<g id="graph0" class="graph" transform="scale(1 1) rotate(0) translate(4 571)">
<title>async_context_freertos</title>
<!-- Node1 -->
<g id="Node000001" class="node">
<title>Node1</title>
<g id="a_Node000001"><a xlink:title=" ">
<polygon fill="#999999" stroke="transparent" points="292.5,-139 167.5,-139 167.5,0 292.5,0 292.5,-139"/>
<text text-anchor="start" x="173" y="-126.5" font-family="Helvetica,sans-Serif" font-size="10.00">async_context_freertos</text>
<text text-anchor="start" x="173" y="-111.5" font-family="Helvetica,sans-Serif" font-size="10.00">+</text>
<text text-anchor="start" x="187" y="-111.5" font-family="Helvetica,sans-Serif" font-size="10.00">lock_mutex</text>
<text text-anchor="start" x="173" y="-96.5" font-family="Helvetica,sans-Serif" font-size="10.00">+</text>
<text text-anchor="start" x="187" y="-96.5" font-family="Helvetica,sans-Serif" font-size="10.00">nesting</text>
<text text-anchor="start" x="173" y="-81.5" font-family="Helvetica,sans-Serif" font-size="10.00">+</text>
<text text-anchor="start" x="187" y="-81.5" font-family="Helvetica,sans-Serif" font-size="10.00">task_complete_sem</text>
<text text-anchor="start" x="173" y="-66.5" font-family="Helvetica,sans-Serif" font-size="10.00">+</text>
<text text-anchor="start" x="187" y="-66.5" font-family="Helvetica,sans-Serif" font-size="10.00">task_handle</text>
<text text-anchor="start" x="173" y="-51.5" font-family="Helvetica,sans-Serif" font-size="10.00">+</text>
<text text-anchor="start" x="187" y="-51.5" font-family="Helvetica,sans-Serif" font-size="10.00">task_should_exit</text>
<text text-anchor="start" x="173" y="-36.5" font-family="Helvetica,sans-Serif" font-size="10.00">+</text>
<text text-anchor="start" x="187" y="-36.5" font-family="Helvetica,sans-Serif" font-size="10.00">timer_handle</text>
<text text-anchor="start" x="173" y="-21.5" font-family="Helvetica,sans-Serif" font-size="10.00">+</text>
<text text-anchor="start" x="187" y="-21.5" font-family="Helvetica,sans-Serif" font-size="10.00">work_needed_sem</text>
<text text-anchor="start" x="227" y="-6.5" font-family="Helvetica,sans-Serif" font-size="10.00"> </text>
<polygon fill="#666666" stroke="#666666" points="168,-121.5 168,-121.5 293,-121.5 293,-121.5 168,-121.5"/>
<polygon fill="#666666" stroke="#666666" points="168,-16.5 168,-16.5 185,-16.5 185,-16.5 168,-16.5"/>
<polygon fill="#666666" stroke="#666666" points="185,-16.5 185,-16.5 293,-16.5 293,-16.5 185,-16.5"/>
<polygon fill="none" stroke="#666666" points="167.5,0 167.5,-139 292.5,-139 292.5,0 167.5,0"/>
</a>
</g>
</g>
<!-- Node2 -->
<g id="Node000002" class="node">
<title>Node2</title>
<g id="a_Node000002"><a xlink:href="structasync__context.html" target="_top" xlink:title="Base structure type of all async_contexts.">
<polygon fill="white" stroke="transparent" points="270.5,-265 189.5,-265 189.5,-186 270.5,-186 270.5,-265"/>
<text text-anchor="start" x="195" y="-252.5" font-family="Helvetica,sans-Serif" font-size="10.00">async_context</text>
<text text-anchor="start" x="196.5" y="-237.5" font-family="Helvetica,sans-Serif" font-size="10.00">+</text>
<text text-anchor="start" x="212" y="-237.5" font-family="Helvetica,sans-Serif" font-size="10.00">core_num</text>
<text text-anchor="start" x="196.5" y="-222.5" font-family="Helvetica,sans-Serif" font-size="10.00">+</text>
<text text-anchor="start" x="212" y="-222.5" font-family="Helvetica,sans-Serif" font-size="10.00">flags</text>
<text text-anchor="start" x="196.5" y="-207.5" font-family="Helvetica,sans-Serif" font-size="10.00">+</text>
<text text-anchor="start" x="212" y="-207.5" font-family="Helvetica,sans-Serif" font-size="10.00">next_time</text>
<text text-anchor="start" x="227" y="-192.5" font-family="Helvetica,sans-Serif" font-size="10.00"> </text>
<polygon fill="#666666" stroke="#666666" points="190,-247.5 190,-247.5 271,-247.5 271,-247.5 190,-247.5"/>
<polygon fill="#666666" stroke="#666666" points="190,-202.5 190,-202.5 210,-202.5 210,-202.5 190,-202.5"/>
<polygon fill="#666666" stroke="#666666" points="210,-202.5 210,-202.5 271,-202.5 271,-202.5 210,-202.5"/>
<polygon fill="none" stroke="#666666" points="189.5,-186 189.5,-265 270.5,-265 270.5,-186 189.5,-186"/>
</a>
</g>
</g>
<!-- Node2&#45;&gt;Node1 -->
<g id="edge1_Node000001_Node000002" class="edge">
<title>Node2&#45;&gt;Node1</title>
<g id="a_edge1_Node000001_Node000002"><a xlink:title=" ">
<path fill="none" stroke="#63b8ff" d="M230,-185.64C230,-175.01 230,-163.09 230,-151.05"/>
<polygon fill="none" stroke="#63b8ff" points="230,-151.02 226,-145.02 230,-139.02 234,-145.02 230,-151.02"/>
</a>
</g>
<text text-anchor="middle" x="246.5" y="-160" font-family="Helvetica,sans-Serif" font-size="10.00" fill="grey"> +core</text>
</g>
<!-- Node3 -->
<g id="Node000003" class="node">
<title>Node3</title>
<g id="a_Node000003"><a xlink:href="structasync__context__type.html" target="_top" xlink:title="Implementation of an async_context type, providing methods common to that type.">
<polygon fill="white" stroke="transparent" points="154,-567 0,-567 0,-312 154,-312 154,-567"/>
<text text-anchor="start" x="28" y="-554.5" font-family="Helvetica,sans-Serif" font-size="10.00">async_context_type</text>
<text text-anchor="start" x="4" y="-539.5" font-family="Helvetica,sans-Serif" font-size="10.00">+</text>
<text text-anchor="start" x="17" y="-539.5" font-family="Helvetica,sans-Serif" font-size="10.00">acquire_lock_blocking</text>
<text text-anchor="start" x="4" y="-524.5" font-family="Helvetica,sans-Serif" font-size="10.00">+</text>
<text text-anchor="start" x="17" y="-524.5" font-family="Helvetica,sans-Serif" font-size="10.00">add_at_time_worker</text>
<text text-anchor="start" x="4" y="-509.5" font-family="Helvetica,sans-Serif" font-size="10.00">+</text>
<text text-anchor="start" x="17" y="-509.5" font-family="Helvetica,sans-Serif" font-size="10.00">add_when_pending_worker</text>
<text text-anchor="start" x="4" y="-494.5" font-family="Helvetica,sans-Serif" font-size="10.00">+</text>
<text text-anchor="start" x="17" y="-494.5" font-family="Helvetica,sans-Serif" font-size="10.00">deinit</text>
<text text-anchor="start" x="4" y="-479.5" font-family="Helvetica,sans-Serif" font-size="10.00">+</text>
<text text-anchor="start" x="17" y="-479.5" font-family="Helvetica,sans-Serif" font-size="10.00">execute_sync</text>
<text text-anchor="start" x="4" y="-464.5" font-family="Helvetica,sans-Serif" font-size="10.00">+</text>
<text text-anchor="start" x="17" y="-464.5" font-family="Helvetica,sans-Serif" font-size="10.00">lock_check</text>
<text text-anchor="start" x="4" y="-449.5" font-family="Helvetica,sans-Serif" font-size="10.00">+</text>
<text text-anchor="start" x="17" y="-449.5" font-family="Helvetica,sans-Serif" font-size="10.00">poll</text>
<text text-anchor="start" x="4" y="-434.5" font-family="Helvetica,sans-Serif" font-size="10.00">+</text>
<text text-anchor="start" x="17" y="-434.5" font-family="Helvetica,sans-Serif" font-size="10.00">release_lock</text>
<text text-anchor="start" x="4" y="-419.5" font-family="Helvetica,sans-Serif" font-size="10.00">+</text>
<text text-anchor="start" x="17" y="-419.5" font-family="Helvetica,sans-Serif" font-size="10.00">remove_at_time_worker</text>
<text text-anchor="start" x="4" y="-404.5" font-family="Helvetica,sans-Serif" font-size="10.00">+</text>
<text text-anchor="start" x="17" y="-404.5" font-family="Helvetica,sans-Serif" font-size="10.00">remove_when_pending</text>
<text text-anchor="start" x="17" y="-393.5" font-family="Helvetica,sans-Serif" font-size="10.00">_worker</text>
<text text-anchor="start" x="4" y="-378.5" font-family="Helvetica,sans-Serif" font-size="10.00">+</text>
<text text-anchor="start" x="17" y="-378.5" font-family="Helvetica,sans-Serif" font-size="10.00">set_work_pending</text>
<text text-anchor="start" x="4" y="-363.5" font-family="Helvetica,sans-Serif" font-size="10.00">+</text>
<text text-anchor="start" x="17" y="-363.5" font-family="Helvetica,sans-Serif" font-size="10.00">type</text>
<text text-anchor="start" x="4" y="-348.5" font-family="Helvetica,sans-Serif" font-size="10.00">+</text>
<text text-anchor="start" x="17" y="-348.5" font-family="Helvetica,sans-Serif" font-size="10.00">wait_for_work_until</text>
<text text-anchor="start" x="4" y="-333.5" font-family="Helvetica,sans-Serif" font-size="10.00">+</text>
<text text-anchor="start" x="17" y="-333.5" font-family="Helvetica,sans-Serif" font-size="10.00">wait_until</text>
<text text-anchor="start" x="73.5" y="-318.5" font-family="Helvetica,sans-Serif" font-size="10.00"> </text>
<polygon fill="#666666" stroke="#666666" points="0,-549.5 0,-549.5 154,-549.5 154,-549.5 0,-549.5"/>
<polygon fill="#666666" stroke="#666666" points="0,-328.5 0,-328.5 15,-328.5 15,-328.5 0,-328.5"/>
<polygon fill="#666666" stroke="#666666" points="15,-328.5 15,-328.5 154,-328.5 154,-328.5 15,-328.5"/>
<polygon fill="none" stroke="#666666" points="0,-312 0,-567 154,-567 154,-312 0,-312"/>
</a>
</g>
</g>
<!-- Node3&#45;&gt;Node2 -->
<g id="edge2_Node000002_Node000003" class="edge">
<title>Node3&#45;&gt;Node2</title>
<g id="a_edge2_Node000002_Node000003"><a xlink:title=" ">
<path fill="none" stroke="#63b8ff" d="M154,-325.85C157.36,-321.16 160.7,-316.52 164,-312 172.8,-299.93 182.52,-287.08 191.73,-275.12"/>
<polygon fill="none" stroke="#63b8ff" points="191.97,-274.81 192.48,-267.61 199.32,-265.32 198.81,-272.51 191.97,-274.81"/>
</a>
</g>
<text text-anchor="middle" x="203" y="-286" font-family="Helvetica,sans-Serif" font-size="10.00" fill="grey"> +type</text>
</g>
<!-- Node4 -->
<g id="Node000004" class="node">
<title>Node4</title>
<g id="a_Node000004"><a xlink:href="structasync__when__pending__worker.html" target="_top" xlink:title="A &quot;worker&quot; instance used by an async_context.">
<polygon fill="white" stroke="transparent" points="287.5,-484.5 172.5,-484.5 172.5,-394.5 287.5,-394.5 287.5,-484.5"/>
<text text-anchor="start" x="178" y="-472.5" font-family="Helvetica,sans-Serif" font-size="10.00">async_when_pending</text>
<text text-anchor="start" x="211" y="-461.5" font-family="Helvetica,sans-Serif" font-size="10.00">_worker</text>
<text text-anchor="start" x="183" y="-446.5" font-family="Helvetica,sans-Serif" font-size="10.00">+</text>
<text text-anchor="start" x="202" y="-446.5" font-family="Helvetica,sans-Serif" font-size="10.00">do_work</text>
<text text-anchor="start" x="183" y="-431.5" font-family="Helvetica,sans-Serif" font-size="10.00">+</text>
<text text-anchor="start" x="202" y="-431.5" font-family="Helvetica,sans-Serif" font-size="10.00">user_data</text>
<text text-anchor="start" x="183" y="-416.5" font-family="Helvetica,sans-Serif" font-size="10.00">+</text>
<text text-anchor="start" x="202" y="-416.5" font-family="Helvetica,sans-Serif" font-size="10.00">work_pending</text>
<text text-anchor="start" x="227" y="-401.5" font-family="Helvetica,sans-Serif" font-size="10.00"> </text>
<polygon fill="#666666" stroke="#666666" points="173,-456.5 173,-456.5 288,-456.5 288,-456.5 173,-456.5"/>
<polygon fill="#666666" stroke="#666666" points="173,-411.5 173,-411.5 200,-411.5 200,-411.5 173,-411.5"/>
<polygon fill="#666666" stroke="#666666" points="200,-411.5 200,-411.5 288,-411.5 288,-411.5 200,-411.5"/>
<polygon fill="none" stroke="#666666" points="172.5,-394.5 172.5,-484.5 287.5,-484.5 287.5,-394.5 172.5,-394.5"/>
</a>
</g>
</g>
<!-- Node4&#45;&gt;Node2 -->
<g id="edge3_Node000002_Node000004" class="edge">
<title>Node4&#45;&gt;Node2</title>
<g id="a_edge3_Node000002_Node000004"><a xlink:title=" ">
<path fill="none" stroke="#63b8ff" d="M230,-394.32C230,-360.23 230,-313.04 230,-277.38"/>
<polygon fill="none" stroke="#63b8ff" points="230,-277.28 226,-271.28 230,-265.28 234,-271.28 230,-277.28"/>
</a>
</g>
<text text-anchor="middle" x="281.5" y="-286" font-family="Helvetica,sans-Serif" font-size="10.00" fill="grey"> +when_pending_list</text>
</g>
<!-- Node4&#45;&gt;Node4 -->
<g id="edge4_Node000004_Node000004" class="edge">
<title>Node4&#45;&gt;Node4</title>
<g id="a_edge4_Node000004_Node000004"><a xlink:title=" ">
<path fill="none" stroke="#63b8ff" d="M287.61,-466.08C298.12,-462.72 305.5,-453.86 305.5,-439.5 305.5,-430.75 302.76,-424.04 298.24,-419.38"/>
<polygon fill="none" stroke="#63b8ff" points="297.86,-419.15 290.66,-419.45 287.61,-412.92 294.81,-412.62 297.86,-419.15"/>
</a>
</g>
<text text-anchor="middle" x="322.5" y="-437" font-family="Helvetica,sans-Serif" font-size="10.00" fill="grey"> +next</text>
</g>
<!-- Node5 -->
<g id="Node000005" class="node">
<title>Node5</title>
<g id="a_Node000005"><a xlink:href="structasync__work__on__timeout.html" target="_top" xlink:title="A &quot;timeout&quot; instance used by an async_context.">
<polygon fill="white" stroke="transparent" points="486.5,-479 357.5,-479 357.5,-400 486.5,-400 486.5,-479"/>
<text text-anchor="start" x="363" y="-466.5" font-family="Helvetica,sans-Serif" font-size="10.00">async_work_on_timeout</text>
<text text-anchor="start" x="376.5" y="-451.5" font-family="Helvetica,sans-Serif" font-size="10.00">+</text>
<text text-anchor="start" x="404" y="-451.5" font-family="Helvetica,sans-Serif" font-size="10.00">do_work</text>
<text text-anchor="start" x="376.5" y="-436.5" font-family="Helvetica,sans-Serif" font-size="10.00">+</text>
<text text-anchor="start" x="404" y="-436.5" font-family="Helvetica,sans-Serif" font-size="10.00">next_time</text>
<text text-anchor="start" x="376.5" y="-421.5" font-family="Helvetica,sans-Serif" font-size="10.00">+</text>
<text text-anchor="start" x="404" y="-421.5" font-family="Helvetica,sans-Serif" font-size="10.00">user_data</text>
<text text-anchor="start" x="419" y="-406.5" font-family="Helvetica,sans-Serif" font-size="10.00"> </text>
<polygon fill="#666666" stroke="#666666" points="358,-461.5 358,-461.5 487,-461.5 487,-461.5 358,-461.5"/>
<polygon fill="#666666" stroke="#666666" points="358,-416.5 358,-416.5 402,-416.5 402,-416.5 358,-416.5"/>
<polygon fill="#666666" stroke="#666666" points="402,-416.5 402,-416.5 487,-416.5 487,-416.5 402,-416.5"/>
<polygon fill="none" stroke="#666666" points="357.5,-400 357.5,-479 486.5,-479 486.5,-400 357.5,-400"/>
</a>
</g>
</g>
<!-- Node5&#45;&gt;Node2 -->
<g id="edge5_Node000002_Node000005" class="edge">
<title>Node5&#45;&gt;Node2</title>
<g id="a_edge5_Node000002_Node000005"><a xlink:title=" ">
<path fill="none" stroke="#63b8ff" d="M408.34,-399.95C394.65,-365.78 370.74,-316.26 337,-283 321.37,-267.59 300.67,-255.35 281.65,-246.25"/>
<polygon fill="none" stroke="#63b8ff" points="281.61,-246.24 274.49,-247.39 270.69,-241.26 277.81,-240.11 281.61,-246.24"/>
</a>
</g>
<text text-anchor="middle" x="381" y="-286" font-family="Helvetica,sans-Serif" font-size="10.00" fill="grey"> +at_time_list</text>
</g>
<!-- Node5&#45;&gt;Node5 -->
<g id="edge6_Node000005_Node000005" class="edge">
<title>Node5&#45;&gt;Node5</title>
<g id="a_edge6_Node000005_Node000005"><a xlink:title=" ">
<path fill="none" stroke="#63b8ff" d="M486.68,-465.52C497.24,-461.8 504.5,-453.12 504.5,-439.5 504.5,-430.99 501.66,-424.4 496.96,-419.76"/>
<polygon fill="none" stroke="#63b8ff" points="496.92,-419.73 489.72,-420.02 486.68,-413.48 493.89,-413.19 496.92,-419.73"/>
</a>
</g>
<text text-anchor="middle" x="521.5" y="-437" font-family="Helvetica,sans-Serif" font-size="10.00" fill="grey"> +next</text>
</g>
</g>
</svg>
