<?xml version="1.0" encoding="UTF-8" standalone="no"?>
<!DOCTYPE svg PUBLIC "-//W3C//DTD SVG 1.1//EN"
 "http://www.w3.org/Graphics/SVG/1.1/DTD/svg11.dtd">
<!-- Generated by graphviz version 2.43.0 (0)
 -->
<!-- Title: resolvable Pages: 1 -->
<svg width="103pt" height="661pt"
 viewBox="0.00 0.00 103.00 661.00" xmlns="http://www.w3.org/2000/svg" xmlns:xlink="http://www.w3.org/1999/xlink">
<g id="graph0" class="graph" transform="scale(1 1) rotate(0) translate(4 657)">
<title>resolvable</title>
<!-- Node1 -->
<g id="Node000001" class="node">
<title>Node1</title>
<g id="a_Node000001"><a xlink:title=" ">
<polygon fill="#999999" stroke="transparent" points="88,-109 0,-109 0,0 88,0 88,-109"/>
<text text-anchor="start" x="18" y="-96.5" font-family="Helvetica,sans-Serif" font-size="10.00">resolvable</text>
<text text-anchor="start" x="40.5" y="-81.5" font-family="Helvetica,sans-Serif" font-size="10.00"> </text>
<text text-anchor="start" x="4" y="-66.5" font-family="Helvetica,sans-Serif" font-size="10.00">+</text>
<text text-anchor="start" x="17" y="-66.5" font-family="Helvetica,sans-Serif" font-size="10.00">resolvable()</text>
<text text-anchor="start" x="4" y="-51.5" font-family="Helvetica,sans-Serif" font-size="10.00">+</text>
<text text-anchor="start" x="17" y="-51.5" font-family="Helvetica,sans-Serif" font-size="10.00">resolve()</text>
<text text-anchor="start" x="4" y="-36.5" font-family="Helvetica,sans-Serif" font-size="10.00">+</text>
<text text-anchor="start" x="17" y="-36.5" font-family="Helvetica,sans-Serif" font-size="10.00">resolve()</text>
<text text-anchor="start" x="4" y="-21.5" font-family="Helvetica,sans-Serif" font-size="10.00">+</text>
<text text-anchor="start" x="17" y="-21.5" font-family="Helvetica,sans-Serif" font-size="10.00">resolve()</text>
<text text-anchor="start" x="4" y="-6.5" font-family="Helvetica,sans-Serif" font-size="10.00">+</text>
<text text-anchor="start" x="17" y="-6.5" font-family="Helvetica,sans-Serif" font-size="10.00">~resolvable()</text>
<polygon fill="#666666" stroke="#666666" points="0,-91.5 0,-91.5 88,-91.5 88,-91.5 0,-91.5"/>
<polygon fill="#666666" stroke="#666666" points="0,-76.5 0,-76.5 88,-76.5 88,-76.5 0,-76.5"/>
<polygon fill="none" stroke="#666666" points="0,0 0,-109 88,-109 88,0 0,0"/>
</a>
</g>
</g>
<!-- Node2 -->
<g id="Node000002" class="node">
<title>Node2</title>
<g id="a_Node000002"><a xlink:href="structsrc__item.html" target="_top" xlink:title=" ">
<polygon fill="white" stroke="transparent" points="79.5,-210 8.5,-210 8.5,-146 79.5,-146 79.5,-210"/>
<text text-anchor="start" x="23" y="-198" font-family="Helvetica,sans-Serif" font-size="10.00">src_item</text>
<text text-anchor="start" x="41" y="-183" font-family="Helvetica,sans-Serif" font-size="10.00"> </text>
<text text-anchor="start" x="13" y="-168" font-family="Helvetica,sans-Serif" font-size="10.00">+</text>
<text text-anchor="start" x="26" y="-168" font-family="Helvetica,sans-Serif" font-size="10.00">src_item()</text>
<text text-anchor="start" x="13" y="-153" font-family="Helvetica,sans-Serif" font-size="10.00">+</text>
<text text-anchor="start" x="26" y="-153" font-family="Helvetica,sans-Serif" font-size="10.00">src_item()</text>
<polygon fill="#666666" stroke="#666666" points="9,-193 9,-193 80,-193 80,-193 9,-193"/>
<polygon fill="#666666" stroke="#666666" points="9,-178 9,-178 80,-178 80,-178 9,-178"/>
<polygon fill="none" stroke="#666666" points="8.5,-146 8.5,-210 79.5,-210 79.5,-146 8.5,-146"/>
</a>
</g>
</g>
<!-- Node2&#45;&gt;Node1 -->
<g id="edge1_Node000001_Node000002" class="edge">
<title>Node2&#45;&gt;Node1</title>
<g id="a_edge1_Node000001_Node000002"><a xlink:title=" ">
<path fill="none" stroke="#63b8ff" d="M44,-135.69C44,-127.21 44,-118.16 44,-109.31"/>
<polygon fill="none" stroke="#63b8ff" points="40.5,-135.71 44,-145.71 47.5,-135.71 40.5,-135.71"/>
</a>
</g>
</g>
<!-- Node3 -->
<g id="Node000003" class="node">
<title>Node3</title>
<g id="a_Node000003"><a xlink:href="classyy_1_1location.html" target="_top" xlink:title="Two points in a source file.">
<polygon fill="white" stroke="transparent" points="79.5,-441 8.5,-441 8.5,-257 79.5,-257 79.5,-441"/>
<text text-anchor="start" x="16" y="-429" font-family="Helvetica,sans-Serif" font-size="10.00">yy::location</text>
<text text-anchor="start" x="41" y="-414" font-family="Helvetica,sans-Serif" font-size="10.00"> </text>
<text text-anchor="start" x="13" y="-399" font-family="Helvetica,sans-Serif" font-size="10.00">+</text>
<text text-anchor="start" x="26" y="-399" font-family="Helvetica,sans-Serif" font-size="10.00">initialize()</text>
<text text-anchor="start" x="13" y="-384" font-family="Helvetica,sans-Serif" font-size="10.00">+</text>
<text text-anchor="start" x="26" y="-384" font-family="Helvetica,sans-Serif" font-size="10.00">location()</text>
<text text-anchor="start" x="13" y="-369" font-family="Helvetica,sans-Serif" font-size="10.00">+</text>
<text text-anchor="start" x="26" y="-369" font-family="Helvetica,sans-Serif" font-size="10.00">location()</text>
<text text-anchor="start" x="13" y="-354" font-family="Helvetica,sans-Serif" font-size="10.00">+</text>
<text text-anchor="start" x="26" y="-354" font-family="Helvetica,sans-Serif" font-size="10.00">location()</text>
<text text-anchor="start" x="13" y="-339" font-family="Helvetica,sans-Serif" font-size="10.00">+</text>
<text text-anchor="start" x="26" y="-339" font-family="Helvetica,sans-Serif" font-size="10.00">step()</text>
<text text-anchor="start" x="13" y="-324" font-family="Helvetica,sans-Serif" font-size="10.00">+</text>
<text text-anchor="start" x="26" y="-324" font-family="Helvetica,sans-Serif" font-size="10.00">columns()</text>
<text text-anchor="start" x="13" y="-309" font-family="Helvetica,sans-Serif" font-size="10.00">+</text>
<text text-anchor="start" x="26" y="-309" font-family="Helvetica,sans-Serif" font-size="10.00">lines()</text>
<text text-anchor="start" x="14.5" y="-294" font-family="Helvetica,sans-Serif" font-size="10.00">*</text>
<text text-anchor="start" x="26" y="-294" font-family="Helvetica,sans-Serif" font-size="10.00">step()</text>
<text text-anchor="start" x="14.5" y="-279" font-family="Helvetica,sans-Serif" font-size="10.00">*</text>
<text text-anchor="start" x="26" y="-279" font-family="Helvetica,sans-Serif" font-size="10.00">columns()</text>
<text text-anchor="start" x="14.5" y="-264" font-family="Helvetica,sans-Serif" font-size="10.00">*</text>
<text text-anchor="start" x="26" y="-264" font-family="Helvetica,sans-Serif" font-size="10.00">lines()</text>
<polygon fill="#666666" stroke="#666666" points="9,-424 9,-424 80,-424 80,-424 9,-424"/>
<polygon fill="#666666" stroke="#666666" points="9,-409 9,-409 80,-409 80,-409 9,-409"/>
<polygon fill="none" stroke="#666666" points="8.5,-257 8.5,-441 79.5,-441 79.5,-257 8.5,-257"/>
</a>
</g>
</g>
<!-- Node3&#45;&gt;Node2 -->
<g id="edge2_Node000002_Node000003" class="edge">
<title>Node3&#45;&gt;Node2</title>
<g id="a_edge2_Node000002_Node000003"><a xlink:title=" ">
<path fill="none" stroke="#63b8ff" d="M44,-256.58C44,-244.74 44,-233.09 44,-222.56"/>
<polygon fill="none" stroke="#63b8ff" points="44,-222.33 40,-216.33 44,-210.33 48,-216.33 44,-222.33"/>
</a>
</g>
<text text-anchor="middle" x="69.5" y="-231" font-family="Helvetica,sans-Serif" font-size="10.00" fill="grey"> +location</text>
</g>
<!-- Node4 -->
<g id="Node000004" class="node">
<title>Node4</title>
<g id="a_Node000004"><a xlink:href="classyy_1_1position.html" target="_top" xlink:title="A point in a source file.">
<polygon fill="white" stroke="transparent" points="79.5,-653 8.5,-653 8.5,-499 79.5,-499 79.5,-653"/>
<text text-anchor="start" x="16" y="-641" font-family="Helvetica,sans-Serif" font-size="10.00">yy::position</text>
<text text-anchor="start" x="13" y="-626" font-family="Helvetica,sans-Serif" font-size="10.00">+</text>
<text text-anchor="start" x="26" y="-626" font-family="Helvetica,sans-Serif" font-size="10.00">column</text>
<text text-anchor="start" x="13" y="-611" font-family="Helvetica,sans-Serif" font-size="10.00">+</text>
<text text-anchor="start" x="26" y="-611" font-family="Helvetica,sans-Serif" font-size="10.00">filename</text>
<text text-anchor="start" x="13" y="-596" font-family="Helvetica,sans-Serif" font-size="10.00">+</text>
<text text-anchor="start" x="26" y="-596" font-family="Helvetica,sans-Serif" font-size="10.00">line</text>
<text text-anchor="start" x="13" y="-581" font-family="Helvetica,sans-Serif" font-size="10.00">+</text>
<text text-anchor="start" x="26" y="-581" font-family="Helvetica,sans-Serif" font-size="10.00">initialize()</text>
<text text-anchor="start" x="13" y="-566" font-family="Helvetica,sans-Serif" font-size="10.00">+</text>
<text text-anchor="start" x="26" y="-566" font-family="Helvetica,sans-Serif" font-size="10.00">position()</text>
<text text-anchor="start" x="13" y="-551" font-family="Helvetica,sans-Serif" font-size="10.00">+</text>
<text text-anchor="start" x="26" y="-551" font-family="Helvetica,sans-Serif" font-size="10.00">lines()</text>
<text text-anchor="start" x="13" y="-536" font-family="Helvetica,sans-Serif" font-size="10.00">+</text>
<text text-anchor="start" x="26" y="-536" font-family="Helvetica,sans-Serif" font-size="10.00">columns()</text>
<text text-anchor="start" x="14.5" y="-521" font-family="Helvetica,sans-Serif" font-size="10.00">*</text>
<text text-anchor="start" x="26" y="-521" font-family="Helvetica,sans-Serif" font-size="10.00">lines()</text>
<text text-anchor="start" x="14.5" y="-506" font-family="Helvetica,sans-Serif" font-size="10.00">*</text>
<text text-anchor="start" x="26" y="-506" font-family="Helvetica,sans-Serif" font-size="10.00">columns()</text>
<polygon fill="#666666" stroke="#666666" points="9,-636 9,-636 80,-636 80,-636 9,-636"/>
<polygon fill="#666666" stroke="#666666" points="9,-591 9,-591 24,-591 24,-591 9,-591"/>
<polygon fill="#666666" stroke="#666666" points="24,-591 24,-591 80,-591 80,-591 24,-591"/>
<polygon fill="none" stroke="#666666" points="8.5,-499 8.5,-653 79.5,-653 79.5,-499 8.5,-499"/>
</a>
</g>
</g>
<!-- Node4&#45;&gt;Node3 -->
<g id="edge3_Node000003_Node000004" class="edge">
<title>Node4&#45;&gt;Node3</title>
<g id="a_edge3_Node000003_Node000004"><a xlink:title=" ">
<path fill="none" stroke="#63b8ff" d="M44,-498.83C44,-484.24 44,-468.74 44,-453.46"/>
<polygon fill="none" stroke="#63b8ff" points="44,-453.28 40,-447.28 44,-441.28 48,-447.28 44,-453.28"/>
</a>
</g>
<text text-anchor="middle" x="63.5" y="-473" font-family="Helvetica,sans-Serif" font-size="10.00" fill="grey"> +begin</text>
<text text-anchor="middle" x="63.5" y="-462" font-family="Helvetica,sans-Serif" font-size="10.00" fill="grey">+end</text>
</g>
</g>
</svg>
