<?xml version="1.0" encoding="UTF-8" standalone="no"?>
<!DOCTYPE svg PUBLIC "-//W3C//DTD SVG 1.1//EN"
 "http://www.w3.org/Graphics/SVG/1.1/DTD/svg11.dtd">
<!-- Generated by graphviz version 2.43.0 (0)
 -->
<!-- Title: stdio_driver Pages: 1 -->
<svg width="178pt" height="113pt"
 viewBox="0.00 0.00 178.00 113.00" xmlns="http://www.w3.org/2000/svg" xmlns:xlink="http://www.w3.org/1999/xlink">
<g id="graph0" class="graph" transform="scale(1 1) rotate(0) translate(4 109)">
<title>stdio_driver</title>
<!-- Node1 -->
<g id="Node000001" class="node">
<title>Node1</title>
<g id="a_Node000001"><a xlink:title=" ">
<polygon fill="#999999" stroke="transparent" points="118,-105 0,-105 0,0 118,0 118,-105"/>
<text text-anchor="start" x="30" y="-92.5" font-family="Helvetica,sans-Serif" font-size="10.00">stdio_driver</text>
<text text-anchor="start" x="4" y="-77.5" font-family="Helvetica,sans-Serif" font-size="10.00">+</text>
<text text-anchor="start" x="17" y="-77.5" font-family="Helvetica,sans-Serif" font-size="10.00">in_chars</text>
<text text-anchor="start" x="4" y="-62.5" font-family="Helvetica,sans-Serif" font-size="10.00">+</text>
<text text-anchor="start" x="17" y="-62.5" font-family="Helvetica,sans-Serif" font-size="10.00">out_chars</text>
<text text-anchor="start" x="4" y="-47.5" font-family="Helvetica,sans-Serif" font-size="10.00">+</text>
<text text-anchor="start" x="17" y="-47.5" font-family="Helvetica,sans-Serif" font-size="10.00">out_flush</text>
<text text-anchor="start" x="4" y="-32.5" font-family="Helvetica,sans-Serif" font-size="10.00">+</text>
<text text-anchor="start" x="17" y="-32.5" font-family="Helvetica,sans-Serif" font-size="10.00">set_chars_available</text>
<text text-anchor="start" x="17" y="-21.5" font-family="Helvetica,sans-Serif" font-size="10.00">_callback</text>
<text text-anchor="start" x="55.5" y="-6.5" font-family="Helvetica,sans-Serif" font-size="10.00"> </text>
<polygon fill="#666666" stroke="#666666" points="0,-87.5 0,-87.5 118,-87.5 118,-87.5 0,-87.5"/>
<polygon fill="#666666" stroke="#666666" points="0,-16.5 0,-16.5 15,-16.5 15,-16.5 0,-16.5"/>
<polygon fill="#666666" stroke="#666666" points="15,-16.5 15,-16.5 118,-16.5 118,-16.5 15,-16.5"/>
<polygon fill="none" stroke="#666666" points="0,0 0,-105 118,-105 118,0 0,0"/>
</a>
</g>
</g>
<!-- Node1&#45;&gt;Node1 -->
<g id="edge1_Node000001_Node000001" class="edge">
<title>Node1&#45;&gt;Node1</title>
<g id="a_edge1_Node000001_Node000001"><a xlink:title=" ">
<path fill="none" stroke="#63b8ff" d="M118.08,-70.86C128.63,-68.47 136,-62.35 136,-52.5 136,-46.8 133.54,-42.36 129.42,-39.16"/>
<polygon fill="none" stroke="#63b8ff" points="129.05,-39 121.95,-40.23 118.08,-34.14 125.18,-32.91 129.05,-39"/>
</a>
</g>
<text text-anchor="middle" x="153" y="-50" font-family="Helvetica,sans-Serif" font-size="10.00" fill="grey"> +next</text>
</g>
</g>
</svg>
