<?xml version="1.0" encoding="UTF-8" standalone="no"?>
<!DOCTYPE svg PUBLIC "-//W3C//DTD SVG 1.1//EN"
 "http://www.w3.org/Graphics/SVG/1.1/DTD/svg11.dtd">
<!-- Generated by graphviz version 2.43.0 (0)
 -->
<!-- Title: rvalue_loc Pages: 1 -->
<svg width="99pt" height="515pt"
 viewBox="0.00 0.00 98.50 515.00" xmlns="http://www.w3.org/2000/svg" xmlns:xlink="http://www.w3.org/1999/xlink">
<g id="graph0" class="graph" transform="scale(1 1) rotate(0) translate(4 511)">
<title>rvalue_loc</title>
<!-- Node1 -->
<g id="Node000001" class="node">
<title>Node1</title>
<g id="a_Node000001"><a xlink:title=" ">
<polygon fill="#999999" stroke="transparent" points="79,-64 0,-64 0,0 79,0 79,-64"/>
<text text-anchor="start" x="14.5" y="-52" font-family="Helvetica,sans-Serif" font-size="10.00">rvalue_loc</text>
<text text-anchor="start" x="4.5" y="-37" font-family="Helvetica,sans-Serif" font-size="10.00">+</text>
<text text-anchor="start" x="17.5" y="-37" font-family="Helvetica,sans-Serif" font-size="10.00">value</text>
<text text-anchor="start" x="4.5" y="-22" font-family="Helvetica,sans-Serif" font-size="10.00">+</text>
<text text-anchor="start" x="17.5" y="-22" font-family="Helvetica,sans-Serif" font-size="10.00">rvalue_loc()</text>
<text text-anchor="start" x="4.5" y="-7" font-family="Helvetica,sans-Serif" font-size="10.00">+</text>
<text text-anchor="start" x="17.5" y="-7" font-family="Helvetica,sans-Serif" font-size="10.00">rvalue_loc()</text>
<polygon fill="#666666" stroke="#666666" points="0.5,-47 0.5,-47 79.5,-47 79.5,-47 0.5,-47"/>
<polygon fill="#666666" stroke="#666666" points="0.5,-32 0.5,-32 15.5,-32 15.5,-32 0.5,-32"/>
<polygon fill="#666666" stroke="#666666" points="15.5,-32 15.5,-32 79.5,-32 79.5,-32 15.5,-32"/>
<polygon fill="none" stroke="#666666" points="0,0 0,-64 79,-64 79,0 0,0"/>
</a>
</g>
</g>
<!-- Node2 -->
<g id="Node000002" class="node">
<title>Node2</title>
<g id="a_Node000002"><a xlink:href="classyy_1_1location.html" target="_top" xlink:title="Two points in a source file.">
<polygon fill="white" stroke="transparent" points="75,-295 4,-295 4,-111 75,-111 75,-295"/>
<text text-anchor="start" x="11.5" y="-283" font-family="Helvetica,sans-Serif" font-size="10.00">yy::location</text>
<text text-anchor="start" x="36.5" y="-268" font-family="Helvetica,sans-Serif" font-size="10.00"> </text>
<text text-anchor="start" x="8.5" y="-253" font-family="Helvetica,sans-Serif" font-size="10.00">+</text>
<text text-anchor="start" x="21.5" y="-253" font-family="Helvetica,sans-Serif" font-size="10.00">initialize()</text>
<text text-anchor="start" x="8.5" y="-238" font-family="Helvetica,sans-Serif" font-size="10.00">+</text>
<text text-anchor="start" x="21.5" y="-238" font-family="Helvetica,sans-Serif" font-size="10.00">location()</text>
<text text-anchor="start" x="8.5" y="-223" font-family="Helvetica,sans-Serif" font-size="10.00">+</text>
<text text-anchor="start" x="21.5" y="-223" font-family="Helvetica,sans-Serif" font-size="10.00">location()</text>
<text text-anchor="start" x="8.5" y="-208" font-family="Helvetica,sans-Serif" font-size="10.00">+</text>
<text text-anchor="start" x="21.5" y="-208" font-family="Helvetica,sans-Serif" font-size="10.00">location()</text>
<text text-anchor="start" x="8.5" y="-193" font-family="Helvetica,sans-Serif" font-size="10.00">+</text>
<text text-anchor="start" x="21.5" y="-193" font-family="Helvetica,sans-Serif" font-size="10.00">step()</text>
<text text-anchor="start" x="8.5" y="-178" font-family="Helvetica,sans-Serif" font-size="10.00">+</text>
<text text-anchor="start" x="21.5" y="-178" font-family="Helvetica,sans-Serif" font-size="10.00">columns()</text>
<text text-anchor="start" x="8.5" y="-163" font-family="Helvetica,sans-Serif" font-size="10.00">+</text>
<text text-anchor="start" x="21.5" y="-163" font-family="Helvetica,sans-Serif" font-size="10.00">lines()</text>
<text text-anchor="start" x="10" y="-148" font-family="Helvetica,sans-Serif" font-size="10.00">*</text>
<text text-anchor="start" x="21.5" y="-148" font-family="Helvetica,sans-Serif" font-size="10.00">step()</text>
<text text-anchor="start" x="10" y="-133" font-family="Helvetica,sans-Serif" font-size="10.00">*</text>
<text text-anchor="start" x="21.5" y="-133" font-family="Helvetica,sans-Serif" font-size="10.00">columns()</text>
<text text-anchor="start" x="10" y="-118" font-family="Helvetica,sans-Serif" font-size="10.00">*</text>
<text text-anchor="start" x="21.5" y="-118" font-family="Helvetica,sans-Serif" font-size="10.00">lines()</text>
<polygon fill="#666666" stroke="#666666" points="4.5,-278 4.5,-278 75.5,-278 75.5,-278 4.5,-278"/>
<polygon fill="#666666" stroke="#666666" points="4.5,-263 4.5,-263 75.5,-263 75.5,-263 4.5,-263"/>
<polygon fill="none" stroke="#666666" points="4,-111 4,-295 75,-295 75,-111 4,-111"/>
</a>
</g>
</g>
<!-- Node2&#45;&gt;Node1 -->
<g id="edge1_Node000001_Node000002" class="edge">
<title>Node2&#45;&gt;Node1</title>
<g id="a_edge1_Node000001_Node000002"><a xlink:title=" ">
<path fill="none" stroke="#63b8ff" d="M39.5,-110.58C39.5,-98.74 39.5,-87.09 39.5,-76.56"/>
<polygon fill="none" stroke="#63b8ff" points="39.5,-76.33 35.5,-70.33 39.5,-64.33 43.5,-70.33 39.5,-76.33"/>
</a>
</g>
<text text-anchor="middle" x="65" y="-85" font-family="Helvetica,sans-Serif" font-size="10.00" fill="grey"> +location</text>
</g>
<!-- Node3 -->
<g id="Node000003" class="node">
<title>Node3</title>
<g id="a_Node000003"><a xlink:href="classyy_1_1position.html" target="_top" xlink:title="A point in a source file.">
<polygon fill="white" stroke="transparent" points="75,-507 4,-507 4,-353 75,-353 75,-507"/>
<text text-anchor="start" x="11.5" y="-495" font-family="Helvetica,sans-Serif" font-size="10.00">yy::position</text>
<text text-anchor="start" x="8.5" y="-480" font-family="Helvetica,sans-Serif" font-size="10.00">+</text>
<text text-anchor="start" x="21.5" y="-480" font-family="Helvetica,sans-Serif" font-size="10.00">column</text>
<text text-anchor="start" x="8.5" y="-465" font-family="Helvetica,sans-Serif" font-size="10.00">+</text>
<text text-anchor="start" x="21.5" y="-465" font-family="Helvetica,sans-Serif" font-size="10.00">filename</text>
<text text-anchor="start" x="8.5" y="-450" font-family="Helvetica,sans-Serif" font-size="10.00">+</text>
<text text-anchor="start" x="21.5" y="-450" font-family="Helvetica,sans-Serif" font-size="10.00">line</text>
<text text-anchor="start" x="8.5" y="-435" font-family="Helvetica,sans-Serif" font-size="10.00">+</text>
<text text-anchor="start" x="21.5" y="-435" font-family="Helvetica,sans-Serif" font-size="10.00">initialize()</text>
<text text-anchor="start" x="8.5" y="-420" font-family="Helvetica,sans-Serif" font-size="10.00">+</text>
<text text-anchor="start" x="21.5" y="-420" font-family="Helvetica,sans-Serif" font-size="10.00">position()</text>
<text text-anchor="start" x="8.5" y="-405" font-family="Helvetica,sans-Serif" font-size="10.00">+</text>
<text text-anchor="start" x="21.5" y="-405" font-family="Helvetica,sans-Serif" font-size="10.00">lines()</text>
<text text-anchor="start" x="8.5" y="-390" font-family="Helvetica,sans-Serif" font-size="10.00">+</text>
<text text-anchor="start" x="21.5" y="-390" font-family="Helvetica,sans-Serif" font-size="10.00">columns()</text>
<text text-anchor="start" x="10" y="-375" font-family="Helvetica,sans-Serif" font-size="10.00">*</text>
<text text-anchor="start" x="21.5" y="-375" font-family="Helvetica,sans-Serif" font-size="10.00">lines()</text>
<text text-anchor="start" x="10" y="-360" font-family="Helvetica,sans-Serif" font-size="10.00">*</text>
<text text-anchor="start" x="21.5" y="-360" font-family="Helvetica,sans-Serif" font-size="10.00">columns()</text>
<polygon fill="#666666" stroke="#666666" points="4.5,-490 4.5,-490 75.5,-490 75.5,-490 4.5,-490"/>
<polygon fill="#666666" stroke="#666666" points="4.5,-445 4.5,-445 19.5,-445 19.5,-445 4.5,-445"/>
<polygon fill="#666666" stroke="#666666" points="19.5,-445 19.5,-445 75.5,-445 75.5,-445 19.5,-445"/>
<polygon fill="none" stroke="#666666" points="4,-353 4,-507 75,-507 75,-353 4,-353"/>
</a>
</g>
</g>
<!-- Node3&#45;&gt;Node2 -->
<g id="edge2_Node000002_Node000003" class="edge">
<title>Node3&#45;&gt;Node2</title>
<g id="a_edge2_Node000002_Node000003"><a xlink:title=" ">
<path fill="none" stroke="#63b8ff" d="M39.5,-352.83C39.5,-338.24 39.5,-322.74 39.5,-307.46"/>
<polygon fill="none" stroke="#63b8ff" points="39.5,-307.28 35.5,-301.28 39.5,-295.28 43.5,-301.28 39.5,-307.28"/>
</a>
</g>
<text text-anchor="middle" x="59" y="-327" font-family="Helvetica,sans-Serif" font-size="10.00" fill="grey"> +begin</text>
<text text-anchor="middle" x="59" y="-316" font-family="Helvetica,sans-Serif" font-size="10.00" fill="grey">+end</text>
</g>
</g>
</svg>
