<?xml version="1.0" encoding="UTF-8" standalone="no"?>
<!DOCTYPE svg PUBLIC "-//W3C//DTD SVG 1.1//EN"
 "http://www.w3.org/Graphics/SVG/1.1/DTD/svg11.dtd">
<!-- Generated by graphviz version 2.43.0 (0)
 -->
<!-- Title: busctrl_hw_t Pages: 1 -->
<svg width="110pt" height="198pt"
 viewBox="0.00 0.00 110.00 198.00" xmlns="http://www.w3.org/2000/svg" xmlns:xlink="http://www.w3.org/1999/xlink">
<g id="graph0" class="graph" transform="scale(1 1) rotate(0) translate(4 194)">
<title>busctrl_hw_t</title>
<!-- Node1 -->
<g id="Node000001" class="node">
<title>Node1</title>
<g id="a_Node000001"><a xlink:title=" ">
<polygon fill="#999999" stroke="transparent" points="90.5,-79 11.5,-79 11.5,0 90.5,0 90.5,-79"/>
<text text-anchor="start" x="20.5" y="-66.5" font-family="Helvetica,sans-Serif" font-size="10.00">busctrl_hw_t</text>
<text text-anchor="start" x="16" y="-51.5" font-family="Helvetica,sans-Serif" font-size="10.00">+</text>
<text text-anchor="start" x="29" y="-51.5" font-family="Helvetica,sans-Serif" font-size="10.00">perfctr_en</text>
<text text-anchor="start" x="16" y="-36.5" font-family="Helvetica,sans-Serif" font-size="10.00">+</text>
<text text-anchor="start" x="29" y="-36.5" font-family="Helvetica,sans-Serif" font-size="10.00">priority</text>
<text text-anchor="start" x="16" y="-21.5" font-family="Helvetica,sans-Serif" font-size="10.00">+</text>
<text text-anchor="start" x="29" y="-21.5" font-family="Helvetica,sans-Serif" font-size="10.00">priority_ack</text>
<text text-anchor="start" x="48" y="-6.5" font-family="Helvetica,sans-Serif" font-size="10.00"> </text>
<polygon fill="#666666" stroke="#666666" points="12,-61.5 12,-61.5 91,-61.5 91,-61.5 12,-61.5"/>
<polygon fill="#666666" stroke="#666666" points="12,-16.5 12,-16.5 27,-16.5 27,-16.5 12,-16.5"/>
<polygon fill="#666666" stroke="#666666" points="27,-16.5 27,-16.5 91,-16.5 91,-16.5 27,-16.5"/>
<polygon fill="none" stroke="#666666" points="11.5,0 11.5,-79 90.5,-79 90.5,0 11.5,0"/>
</a>
</g>
</g>
<!-- Node2 -->
<g id="Node000002" class="node">
<title>Node2</title>
<g id="a_Node000002"><a xlink:href="structbus__ctrl__perf__hw__t.html" target="_top" xlink:title=" ">
<polygon fill="white" stroke="transparent" points="102,-190 0,-190 0,-126 102,-126 102,-190"/>
<text text-anchor="start" x="5" y="-178" font-family="Helvetica,sans-Serif" font-size="10.00">bus_ctrl_perf_hw_t</text>
<text text-anchor="start" x="17" y="-163" font-family="Helvetica,sans-Serif" font-size="10.00">+</text>
<text text-anchor="start" x="43" y="-163" font-family="Helvetica,sans-Serif" font-size="10.00">sel</text>
<text text-anchor="start" x="17" y="-148" font-family="Helvetica,sans-Serif" font-size="10.00">+</text>
<text text-anchor="start" x="43" y="-148" font-family="Helvetica,sans-Serif" font-size="10.00">value</text>
<text text-anchor="start" x="47.5" y="-133" font-family="Helvetica,sans-Serif" font-size="10.00"> </text>
<polygon fill="#666666" stroke="#666666" points="0,-173 0,-173 102,-173 102,-173 0,-173"/>
<polygon fill="#666666" stroke="#666666" points="0,-143 0,-143 41,-143 41,-143 0,-143"/>
<polygon fill="#666666" stroke="#666666" points="41,-143 41,-143 102,-143 102,-143 41,-143"/>
<polygon fill="none" stroke="#666666" points="0,-126 0,-190 102,-190 102,-126 0,-126"/>
</a>
</g>
</g>
<!-- Node2&#45;&gt;Node1 -->
<g id="edge1_Node000001_Node000002" class="edge">
<title>Node2&#45;&gt;Node1</title>
<g id="a_edge1_Node000001_Node000002"><a xlink:title=" ">
<path fill="none" stroke="#63b8ff" d="M51,-125.78C51,-115.29 51,-103.29 51,-91.67"/>
<polygon fill="none" stroke="#63b8ff" points="51,-91.31 47,-85.31 51,-79.31 55,-85.31 51,-91.31"/>
</a>
</g>
<text text-anchor="middle" x="75.5" y="-100" font-family="Helvetica,sans-Serif" font-size="10.00" fill="grey"> +counter</text>
</g>
</g>
</svg>
