<?xml version="1.0" encoding="UTF-8" standalone="no"?>
<!DOCTYPE svg PUBLIC "-//W3C//DTD SVG 1.1//EN"
 "http://www.w3.org/Graphics/SVG/1.1/DTD/svg11.dtd">
<!-- Generated by graphviz version 2.43.0 (0)
 -->
<!-- Title: _binary_info_ptr_int32_with_name Pages: 1 -->
<svg width="127pt" height="194pt"
 viewBox="0.00 0.00 127.00 194.00" xmlns="http://www.w3.org/2000/svg" xmlns:xlink="http://www.w3.org/1999/xlink">
<g id="graph0" class="graph" transform="scale(1 1) rotate(0) translate(4 190)">
<title>_binary_info_ptr_int32_with_name</title>
<!-- Node1 -->
<g id="Node000001" class="node">
<title>Node1</title>
<g id="a_Node000001"><a xlink:title=" ">
<polygon fill="#999999" stroke="transparent" points="119,-75 0,-75 0,0 119,0 119,-75"/>
<text text-anchor="start" x="5.5" y="-62.5" font-family="Helvetica,sans-Serif" font-size="10.00">_binary_info_ptr_int32</text>
<text text-anchor="start" x="30" y="-51.5" font-family="Helvetica,sans-Serif" font-size="10.00">_with_name</text>
<text text-anchor="start" x="16" y="-36.5" font-family="Helvetica,sans-Serif" font-size="10.00">+</text>
<text text-anchor="start" x="40.5" y="-36.5" font-family="Helvetica,sans-Serif" font-size="10.00">id</text>
<text text-anchor="start" x="16" y="-21.5" font-family="Helvetica,sans-Serif" font-size="10.00">+</text>
<text text-anchor="start" x="40.5" y="-21.5" font-family="Helvetica,sans-Serif" font-size="10.00">bi_ptr_of()</text>
<text text-anchor="start" x="16" y="-6.5" font-family="Helvetica,sans-Serif" font-size="10.00">+</text>
<text text-anchor="start" x="40.5" y="-6.5" font-family="Helvetica,sans-Serif" font-size="10.00">bi_ptr_of()</text>
<polygon fill="#666666" stroke="#666666" points="0.5,-46.5 0.5,-46.5 119.5,-46.5 119.5,-46.5 0.5,-46.5"/>
<polygon fill="#666666" stroke="#666666" points="0.5,-31.5 0.5,-31.5 38.5,-31.5 38.5,-31.5 0.5,-31.5"/>
<polygon fill="#666666" stroke="#666666" points="38.5,-31.5 38.5,-31.5 119.5,-31.5 119.5,-31.5 38.5,-31.5"/>
<polygon fill="none" stroke="#666666" points="0,0 0,-75 119,-75 119,0 0,0"/>
</a>
</g>
</g>
<!-- Node2 -->
<g id="Node000002" class="node">
<title>Node2</title>
<g id="a_Node000002"><a xlink:href="struct__binary__info__core.html" target="_top" xlink:title=" ">
<polygon fill="white" stroke="transparent" points="108,-186 11,-186 11,-122 108,-122 108,-186"/>
<text text-anchor="start" x="16.5" y="-174" font-family="Helvetica,sans-Serif" font-size="10.00">_binary_info_core</text>
<text text-anchor="start" x="29" y="-159" font-family="Helvetica,sans-Serif" font-size="10.00">+</text>
<text text-anchor="start" x="55.5" y="-159" font-family="Helvetica,sans-Serif" font-size="10.00">tag</text>
<text text-anchor="start" x="29" y="-144" font-family="Helvetica,sans-Serif" font-size="10.00">+</text>
<text text-anchor="start" x="55.5" y="-144" font-family="Helvetica,sans-Serif" font-size="10.00">type</text>
<text text-anchor="start" x="56.5" y="-129" font-family="Helvetica,sans-Serif" font-size="10.00"> </text>
<polygon fill="#666666" stroke="#666666" points="11.5,-169 11.5,-169 108.5,-169 108.5,-169 11.5,-169"/>
<polygon fill="#666666" stroke="#666666" points="11.5,-139 11.5,-139 53.5,-139 53.5,-139 11.5,-139"/>
<polygon fill="#666666" stroke="#666666" points="53.5,-139 53.5,-139 108.5,-139 108.5,-139 53.5,-139"/>
<polygon fill="none" stroke="#666666" points="11,-122 11,-186 108,-186 108,-122 11,-122"/>
</a>
</g>
</g>
<!-- Node2&#45;&gt;Node1 -->
<g id="edge1_Node000001_Node000002" class="edge">
<title>Node2&#45;&gt;Node1</title>
<g id="a_edge1_Node000001_Node000002"><a xlink:title=" ">
<path fill="none" stroke="#63b8ff" d="M59.5,-121.71C59.5,-111.11 59.5,-99.01 59.5,-87.37"/>
<polygon fill="none" stroke="#63b8ff" points="59.5,-87.02 55.5,-81.02 59.5,-75.02 63.5,-81.02 59.5,-87.02"/>
</a>
</g>
<text text-anchor="middle" x="76" y="-96" font-family="Helvetica,sans-Serif" font-size="10.00" fill="grey"> +core</text>
</g>
</g>
</svg>
