<?xml version="1.0" encoding="UTF-8" standalone="no"?>
<!DOCTYPE svg PUBLIC "-//W3C//DTD SVG 1.1//EN"
 "http://www.w3.org/Graphics/SVG/1.1/DTD/svg11.dtd">
<!-- Generated by graphviz version 2.43.0 (0)
 -->
<!-- Title: symbol Pages: 1 -->
<svg width="108pt" height="661pt"
 viewBox="0.00 0.00 107.50 661.00" xmlns="http://www.w3.org/2000/svg" xmlns:xlink="http://www.w3.org/1999/xlink">
<g id="graph0" class="graph" transform="scale(1 1) rotate(0) translate(4 657)">
<title>symbol</title>
<!-- Node1 -->
<g id="Node000001" class="node">
<title>Node1</title>
<g id="a_Node000001"><a xlink:title=" ">
<polygon fill="#999999" stroke="transparent" points="97,-109 0,-109 0,0 97,0 97,-109"/>
<text text-anchor="start" x="30.5" y="-96.5" font-family="Helvetica,sans-Serif" font-size="10.00">symbol</text>
<text text-anchor="start" x="4.5" y="-81.5" font-family="Helvetica,sans-Serif" font-size="10.00">+</text>
<text text-anchor="start" x="17.5" y="-81.5" font-family="Helvetica,sans-Serif" font-size="10.00">is_label</text>
<text text-anchor="start" x="4.5" y="-66.5" font-family="Helvetica,sans-Serif" font-size="10.00">+</text>
<text text-anchor="start" x="17.5" y="-66.5" font-family="Helvetica,sans-Serif" font-size="10.00">is_public</text>
<text text-anchor="start" x="4.5" y="-51.5" font-family="Helvetica,sans-Serif" font-size="10.00">+</text>
<text text-anchor="start" x="17.5" y="-51.5" font-family="Helvetica,sans-Serif" font-size="10.00">name</text>
<text text-anchor="start" x="4.5" y="-36.5" font-family="Helvetica,sans-Serif" font-size="10.00">+</text>
<text text-anchor="start" x="17.5" y="-36.5" font-family="Helvetica,sans-Serif" font-size="10.00">resolve_started</text>
<text text-anchor="start" x="4.5" y="-21.5" font-family="Helvetica,sans-Serif" font-size="10.00">+</text>
<text text-anchor="start" x="17.5" y="-21.5" font-family="Helvetica,sans-Serif" font-size="10.00">value</text>
<text text-anchor="start" x="4.5" y="-6.5" font-family="Helvetica,sans-Serif" font-size="10.00">+</text>
<text text-anchor="start" x="17.5" y="-6.5" font-family="Helvetica,sans-Serif" font-size="10.00">symbol()</text>
<polygon fill="#666666" stroke="#666666" points="0.5,-91.5 0.5,-91.5 97.5,-91.5 97.5,-91.5 0.5,-91.5"/>
<polygon fill="#666666" stroke="#666666" points="0.5,-16.5 0.5,-16.5 15.5,-16.5 15.5,-16.5 0.5,-16.5"/>
<polygon fill="#666666" stroke="#666666" points="15.5,-16.5 15.5,-16.5 97.5,-16.5 97.5,-16.5 15.5,-16.5"/>
<polygon fill="none" stroke="#666666" points="0,0 0,-109 97,-109 97,0 0,0"/>
</a>
</g>
</g>
<!-- Node2 -->
<g id="Node000002" class="node">
<title>Node2</title>
<g id="a_Node000002"><a xlink:href="structsrc__item.html" target="_top" xlink:title=" ">
<polygon fill="white" stroke="transparent" points="84,-210 13,-210 13,-146 84,-146 84,-210"/>
<text text-anchor="start" x="27.5" y="-198" font-family="Helvetica,sans-Serif" font-size="10.00">src_item</text>
<text text-anchor="start" x="45.5" y="-183" font-family="Helvetica,sans-Serif" font-size="10.00"> </text>
<text text-anchor="start" x="17.5" y="-168" font-family="Helvetica,sans-Serif" font-size="10.00">+</text>
<text text-anchor="start" x="30.5" y="-168" font-family="Helvetica,sans-Serif" font-size="10.00">src_item()</text>
<text text-anchor="start" x="17.5" y="-153" font-family="Helvetica,sans-Serif" font-size="10.00">+</text>
<text text-anchor="start" x="30.5" y="-153" font-family="Helvetica,sans-Serif" font-size="10.00">src_item()</text>
<polygon fill="#666666" stroke="#666666" points="13.5,-193 13.5,-193 84.5,-193 84.5,-193 13.5,-193"/>
<polygon fill="#666666" stroke="#666666" points="13.5,-178 13.5,-178 84.5,-178 84.5,-178 13.5,-178"/>
<polygon fill="none" stroke="#666666" points="13,-146 13,-210 84,-210 84,-146 13,-146"/>
</a>
</g>
</g>
<!-- Node2&#45;&gt;Node1 -->
<g id="edge1_Node000001_Node000002" class="edge">
<title>Node2&#45;&gt;Node1</title>
<g id="a_edge1_Node000001_Node000002"><a xlink:title=" ">
<path fill="none" stroke="#63b8ff" d="M48.5,-135.69C48.5,-127.21 48.5,-118.16 48.5,-109.31"/>
<polygon fill="none" stroke="#63b8ff" points="45,-135.71 48.5,-145.71 52,-135.71 45,-135.71"/>
</a>
</g>
</g>
<!-- Node3 -->
<g id="Node000003" class="node">
<title>Node3</title>
<g id="a_Node000003"><a xlink:href="classyy_1_1location.html" target="_top" xlink:title="Two points in a source file.">
<polygon fill="white" stroke="transparent" points="84,-441 13,-441 13,-257 84,-257 84,-441"/>
<text text-anchor="start" x="20.5" y="-429" font-family="Helvetica,sans-Serif" font-size="10.00">yy::location</text>
<text text-anchor="start" x="45.5" y="-414" font-family="Helvetica,sans-Serif" font-size="10.00"> </text>
<text text-anchor="start" x="17.5" y="-399" font-family="Helvetica,sans-Serif" font-size="10.00">+</text>
<text text-anchor="start" x="30.5" y="-399" font-family="Helvetica,sans-Serif" font-size="10.00">initialize()</text>
<text text-anchor="start" x="17.5" y="-384" font-family="Helvetica,sans-Serif" font-size="10.00">+</text>
<text text-anchor="start" x="30.5" y="-384" font-family="Helvetica,sans-Serif" font-size="10.00">location()</text>
<text text-anchor="start" x="17.5" y="-369" font-family="Helvetica,sans-Serif" font-size="10.00">+</text>
<text text-anchor="start" x="30.5" y="-369" font-family="Helvetica,sans-Serif" font-size="10.00">location()</text>
<text text-anchor="start" x="17.5" y="-354" font-family="Helvetica,sans-Serif" font-size="10.00">+</text>
<text text-anchor="start" x="30.5" y="-354" font-family="Helvetica,sans-Serif" font-size="10.00">location()</text>
<text text-anchor="start" x="17.5" y="-339" font-family="Helvetica,sans-Serif" font-size="10.00">+</text>
<text text-anchor="start" x="30.5" y="-339" font-family="Helvetica,sans-Serif" font-size="10.00">step()</text>
<text text-anchor="start" x="17.5" y="-324" font-family="Helvetica,sans-Serif" font-size="10.00">+</text>
<text text-anchor="start" x="30.5" y="-324" font-family="Helvetica,sans-Serif" font-size="10.00">columns()</text>
<text text-anchor="start" x="17.5" y="-309" font-family="Helvetica,sans-Serif" font-size="10.00">+</text>
<text text-anchor="start" x="30.5" y="-309" font-family="Helvetica,sans-Serif" font-size="10.00">lines()</text>
<text text-anchor="start" x="19" y="-294" font-family="Helvetica,sans-Serif" font-size="10.00">*</text>
<text text-anchor="start" x="30.5" y="-294" font-family="Helvetica,sans-Serif" font-size="10.00">step()</text>
<text text-anchor="start" x="19" y="-279" font-family="Helvetica,sans-Serif" font-size="10.00">*</text>
<text text-anchor="start" x="30.5" y="-279" font-family="Helvetica,sans-Serif" font-size="10.00">columns()</text>
<text text-anchor="start" x="19" y="-264" font-family="Helvetica,sans-Serif" font-size="10.00">*</text>
<text text-anchor="start" x="30.5" y="-264" font-family="Helvetica,sans-Serif" font-size="10.00">lines()</text>
<polygon fill="#666666" stroke="#666666" points="13.5,-424 13.5,-424 84.5,-424 84.5,-424 13.5,-424"/>
<polygon fill="#666666" stroke="#666666" points="13.5,-409 13.5,-409 84.5,-409 84.5,-409 13.5,-409"/>
<polygon fill="none" stroke="#666666" points="13,-257 13,-441 84,-441 84,-257 13,-257"/>
</a>
</g>
</g>
<!-- Node3&#45;&gt;Node2 -->
<g id="edge2_Node000002_Node000003" class="edge">
<title>Node3&#45;&gt;Node2</title>
<g id="a_edge2_Node000002_Node000003"><a xlink:title=" ">
<path fill="none" stroke="#63b8ff" d="M48.5,-256.58C48.5,-244.74 48.5,-233.09 48.5,-222.56"/>
<polygon fill="none" stroke="#63b8ff" points="48.5,-222.33 44.5,-216.33 48.5,-210.33 52.5,-216.33 48.5,-222.33"/>
</a>
</g>
<text text-anchor="middle" x="74" y="-231" font-family="Helvetica,sans-Serif" font-size="10.00" fill="grey"> +location</text>
</g>
<!-- Node4 -->
<g id="Node000004" class="node">
<title>Node4</title>
<g id="a_Node000004"><a xlink:href="classyy_1_1position.html" target="_top" xlink:title="A point in a source file.">
<polygon fill="white" stroke="transparent" points="84,-653 13,-653 13,-499 84,-499 84,-653"/>
<text text-anchor="start" x="20.5" y="-641" font-family="Helvetica,sans-Serif" font-size="10.00">yy::position</text>
<text text-anchor="start" x="17.5" y="-626" font-family="Helvetica,sans-Serif" font-size="10.00">+</text>
<text text-anchor="start" x="30.5" y="-626" font-family="Helvetica,sans-Serif" font-size="10.00">column</text>
<text text-anchor="start" x="17.5" y="-611" font-family="Helvetica,sans-Serif" font-size="10.00">+</text>
<text text-anchor="start" x="30.5" y="-611" font-family="Helvetica,sans-Serif" font-size="10.00">filename</text>
<text text-anchor="start" x="17.5" y="-596" font-family="Helvetica,sans-Serif" font-size="10.00">+</text>
<text text-anchor="start" x="30.5" y="-596" font-family="Helvetica,sans-Serif" font-size="10.00">line</text>
<text text-anchor="start" x="17.5" y="-581" font-family="Helvetica,sans-Serif" font-size="10.00">+</text>
<text text-anchor="start" x="30.5" y="-581" font-family="Helvetica,sans-Serif" font-size="10.00">initialize()</text>
<text text-anchor="start" x="17.5" y="-566" font-family="Helvetica,sans-Serif" font-size="10.00">+</text>
<text text-anchor="start" x="30.5" y="-566" font-family="Helvetica,sans-Serif" font-size="10.00">position()</text>
<text text-anchor="start" x="17.5" y="-551" font-family="Helvetica,sans-Serif" font-size="10.00">+</text>
<text text-anchor="start" x="30.5" y="-551" font-family="Helvetica,sans-Serif" font-size="10.00">lines()</text>
<text text-anchor="start" x="17.5" y="-536" font-family="Helvetica,sans-Serif" font-size="10.00">+</text>
<text text-anchor="start" x="30.5" y="-536" font-family="Helvetica,sans-Serif" font-size="10.00">columns()</text>
<text text-anchor="start" x="19" y="-521" font-family="Helvetica,sans-Serif" font-size="10.00">*</text>
<text text-anchor="start" x="30.5" y="-521" font-family="Helvetica,sans-Serif" font-size="10.00">lines()</text>
<text text-anchor="start" x="19" y="-506" font-family="Helvetica,sans-Serif" font-size="10.00">*</text>
<text text-anchor="start" x="30.5" y="-506" font-family="Helvetica,sans-Serif" font-size="10.00">columns()</text>
<polygon fill="#666666" stroke="#666666" points="13.5,-636 13.5,-636 84.5,-636 84.5,-636 13.5,-636"/>
<polygon fill="#666666" stroke="#666666" points="13.5,-591 13.5,-591 28.5,-591 28.5,-591 13.5,-591"/>
<polygon fill="#666666" stroke="#666666" points="28.5,-591 28.5,-591 84.5,-591 84.5,-591 28.5,-591"/>
<polygon fill="none" stroke="#666666" points="13,-499 13,-653 84,-653 84,-499 13,-499"/>
</a>
</g>
</g>
<!-- Node4&#45;&gt;Node3 -->
<g id="edge3_Node000003_Node000004" class="edge">
<title>Node4&#45;&gt;Node3</title>
<g id="a_edge3_Node000003_Node000004"><a xlink:title=" ">
<path fill="none" stroke="#63b8ff" d="M48.5,-498.83C48.5,-484.24 48.5,-468.74 48.5,-453.46"/>
<polygon fill="none" stroke="#63b8ff" points="48.5,-453.28 44.5,-447.28 48.5,-441.28 52.5,-447.28 48.5,-453.28"/>
</a>
</g>
<text text-anchor="middle" x="68" y="-473" font-family="Helvetica,sans-Serif" font-size="10.00" fill="grey"> +begin</text>
<text text-anchor="middle" x="68" y="-462" font-family="Helvetica,sans-Serif" font-size="10.00" fill="grey">+end</text>
</g>
</g>
</svg>
