<?xml version="1.0" encoding="UTF-8" standalone="no"?>
<!DOCTYPE svg PUBLIC "-//W3C//DTD SVG 1.1//EN"
 "http://www.w3.org/Graphics/SVG/1.1/DTD/svg11.dtd">
<!-- Generated by graphviz version 2.43.0 (0)
 -->
<!-- Title: compiled_source::program Pages: 1 -->
<svg width="296pt" height="434pt"
 viewBox="0.00 0.00 295.50 434.00" xmlns="http://www.w3.org/2000/svg" xmlns:xlink="http://www.w3.org/1999/xlink">
<g id="graph0" class="graph" transform="scale(1 1) rotate(0) translate(4 430)">
<title>compiled_source::program</title>
<!-- Node1 -->
<g id="Node000001" class="node">
<title>Node1</title>
<g id="a_Node000001"><a xlink:title=" ">
<polygon fill="#999999" stroke="transparent" points="212,-199 72,-199 72,0 212,0 212,-199"/>
<text text-anchor="start" x="77" y="-186.5" font-family="Helvetica,sans-Serif" font-size="10.00">compiled_source::program</text>
<text text-anchor="start" x="84.5" y="-171.5" font-family="Helvetica,sans-Serif" font-size="10.00">+</text>
<text text-anchor="start" x="106" y="-171.5" font-family="Helvetica,sans-Serif" font-size="10.00">clock_div_frac</text>
<text text-anchor="start" x="84.5" y="-156.5" font-family="Helvetica,sans-Serif" font-size="10.00">+</text>
<text text-anchor="start" x="106" y="-156.5" font-family="Helvetica,sans-Serif" font-size="10.00">clock_div_int</text>
<text text-anchor="start" x="84.5" y="-141.5" font-family="Helvetica,sans-Serif" font-size="10.00">+</text>
<text text-anchor="start" x="106" y="-141.5" font-family="Helvetica,sans-Serif" font-size="10.00">code_blocks</text>
<text text-anchor="start" x="84.5" y="-126.5" font-family="Helvetica,sans-Serif" font-size="10.00">+</text>
<text text-anchor="start" x="106" y="-126.5" font-family="Helvetica,sans-Serif" font-size="10.00">fifo</text>
<text text-anchor="start" x="84.5" y="-111.5" font-family="Helvetica,sans-Serif" font-size="10.00">+</text>
<text text-anchor="start" x="106" y="-111.5" font-family="Helvetica,sans-Serif" font-size="10.00">instructions</text>
<text text-anchor="start" x="84.5" y="-96.5" font-family="Helvetica,sans-Serif" font-size="10.00">+</text>
<text text-anchor="start" x="106" y="-96.5" font-family="Helvetica,sans-Serif" font-size="10.00">lang_opts</text>
<text text-anchor="start" x="84.5" y="-81.5" font-family="Helvetica,sans-Serif" font-size="10.00">+</text>
<text text-anchor="start" x="106" y="-81.5" font-family="Helvetica,sans-Serif" font-size="10.00">mov_status_n</text>
<text text-anchor="start" x="84.5" y="-66.5" font-family="Helvetica,sans-Serif" font-size="10.00">+</text>
<text text-anchor="start" x="106" y="-66.5" font-family="Helvetica,sans-Serif" font-size="10.00">mov_status_type</text>
<text text-anchor="start" x="84.5" y="-51.5" font-family="Helvetica,sans-Serif" font-size="10.00">+</text>
<text text-anchor="start" x="106" y="-51.5" font-family="Helvetica,sans-Serif" font-size="10.00">name</text>
<text text-anchor="start" x="84.5" y="-36.5" font-family="Helvetica,sans-Serif" font-size="10.00">+</text>
<text text-anchor="start" x="106" y="-36.5" font-family="Helvetica,sans-Serif" font-size="10.00">pio_version</text>
<text text-anchor="start" x="106" y="-21.5" font-family="Helvetica,sans-Serif" font-size="10.00">e 7 mais...</text>
<text text-anchor="start" x="84.5" y="-6.5" font-family="Helvetica,sans-Serif" font-size="10.00">+</text>
<text text-anchor="start" x="106" y="-6.5" font-family="Helvetica,sans-Serif" font-size="10.00">program()</text>
<polygon fill="#666666" stroke="#666666" points="72,-181.5 72,-181.5 212,-181.5 212,-181.5 72,-181.5"/>
<polygon fill="#666666" stroke="#666666" points="72,-16.5 72,-16.5 104,-16.5 104,-16.5 72,-16.5"/>
<polygon fill="#666666" stroke="#666666" points="104,-16.5 104,-16.5 212,-16.5 212,-16.5 104,-16.5"/>
<polygon fill="none" stroke="#666666" points="72,0 72,-199 212,-199 212,0 72,0"/>
</a>
</g>
</g>
<!-- Node2 -->
<g id="Node000002" class="node">
<title>Node2</title>
<g id="a_Node000002"><a xlink:href="structsimple__optional.html" target="_top" xlink:title=" ">
<polygon fill="white" stroke="transparent" points="124,-426 0,-426 0,-257 124,-257 124,-426"/>
<text text-anchor="start" x="5" y="-413.5" font-family="Helvetica,sans-Serif" font-size="10.00">simple_optional&lt; int &gt;</text>
<text text-anchor="start" x="8" y="-398.5" font-family="Helvetica,sans-Serif" font-size="10.00">+</text>
<text text-anchor="start" x="25" y="-398.5" font-family="Helvetica,sans-Serif" font-size="10.00">default_value</text>
<text text-anchor="start" x="8" y="-383.5" font-family="Helvetica,sans-Serif" font-size="10.00">+</text>
<text text-anchor="start" x="25" y="-383.5" font-family="Helvetica,sans-Serif" font-size="10.00">specified</text>
<text text-anchor="start" x="8" y="-368.5" font-family="Helvetica,sans-Serif" font-size="10.00">+</text>
<text text-anchor="start" x="25" y="-368.5" font-family="Helvetica,sans-Serif" font-size="10.00">value</text>
<text text-anchor="start" x="8" y="-353.5" font-family="Helvetica,sans-Serif" font-size="10.00">+</text>
<text text-anchor="start" x="25" y="-353.5" font-family="Helvetica,sans-Serif" font-size="10.00">get()</text>
<text text-anchor="start" x="8" y="-338.5" font-family="Helvetica,sans-Serif" font-size="10.00">+</text>
<text text-anchor="start" x="25" y="-338.5" font-family="Helvetica,sans-Serif" font-size="10.00">is_specified()</text>
<text text-anchor="start" x="8" y="-323.5" font-family="Helvetica,sans-Serif" font-size="10.00">+</text>
<text text-anchor="start" x="25" y="-323.5" font-family="Helvetica,sans-Serif" font-size="10.00">operator bool()</text>
<text text-anchor="start" x="8" y="-308.5" font-family="Helvetica,sans-Serif" font-size="10.00">+</text>
<text text-anchor="start" x="25" y="-308.5" font-family="Helvetica,sans-Serif" font-size="10.00">operator=()</text>
<text text-anchor="start" x="8" y="-293.5" font-family="Helvetica,sans-Serif" font-size="10.00">+</text>
<text text-anchor="start" x="25" y="-293.5" font-family="Helvetica,sans-Serif" font-size="10.00">simple_optional()</text>
<text text-anchor="start" x="8" y="-278.5" font-family="Helvetica,sans-Serif" font-size="10.00">+</text>
<text text-anchor="start" x="25" y="-278.5" font-family="Helvetica,sans-Serif" font-size="10.00">simple_optional()</text>
<text text-anchor="start" x="8" y="-263.5" font-family="Helvetica,sans-Serif" font-size="10.00">+</text>
<text text-anchor="start" x="25" y="-263.5" font-family="Helvetica,sans-Serif" font-size="10.00">with_default()</text>
<polygon fill="#666666" stroke="#666666" points="0,-408.5 0,-408.5 124,-408.5 124,-408.5 0,-408.5"/>
<polygon fill="#666666" stroke="#666666" points="0,-363.5 0,-363.5 23,-363.5 23,-363.5 0,-363.5"/>
<polygon fill="#666666" stroke="#666666" points="23,-363.5 23,-363.5 124,-363.5 124,-363.5 23,-363.5"/>
<polygon fill="none" stroke="#666666" points="0,-257 0,-426 124,-426 124,-257 0,-257"/>
</a>
</g>
</g>
<!-- Node2&#45;&gt;Node1 -->
<g id="edge1_Node000001_Node000002" class="edge">
<title>Node2&#45;&gt;Node1</title>
<g id="a_edge1_Node000001_Node000002"><a xlink:title=" ">
<path fill="none" stroke="#63b8ff" d="M56.06,-256.76C56.98,-243.26 59.08,-229.59 63,-217 64.18,-213.21 65.53,-209.43 67.02,-205.68"/>
<polygon fill="none" stroke="#63b8ff" points="67.1,-205.5 65.83,-198.4 71.9,-194.5 73.16,-201.6 67.1,-205.5"/>
</a>
</g>
<text text-anchor="middle" x="132" y="-231" font-family="Helvetica,sans-Serif" font-size="10.00" fill="grey"> +origin</text>
<text text-anchor="middle" x="132" y="-220" font-family="Helvetica,sans-Serif" font-size="10.00" fill="grey">+sideset_bits_including_opt</text>
</g>
<!-- Node3 -->
<g id="Node000003" class="node">
<title>Node3</title>
<g id="a_Node000003"><a xlink:href="structcompiled__source_1_1in__out.html" target="_top" xlink:title=" ">
<polygon fill="white" stroke="transparent" points="287.5,-388.5 158.5,-388.5 158.5,-294.5 287.5,-294.5 287.5,-388.5"/>
<text text-anchor="start" x="164" y="-376.5" font-family="Helvetica,sans-Serif" font-size="10.00">compiled_source::in_out</text>
<text text-anchor="start" x="178" y="-361.5" font-family="Helvetica,sans-Serif" font-size="10.00">+</text>
<text text-anchor="start" x="206" y="-361.5" font-family="Helvetica,sans-Serif" font-size="10.00">autop</text>
<text text-anchor="start" x="178" y="-346.5" font-family="Helvetica,sans-Serif" font-size="10.00">+</text>
<text text-anchor="start" x="206" y="-346.5" font-family="Helvetica,sans-Serif" font-size="10.00">pin_count</text>
<text text-anchor="start" x="178" y="-331.5" font-family="Helvetica,sans-Serif" font-size="10.00">+</text>
<text text-anchor="start" x="206" y="-331.5" font-family="Helvetica,sans-Serif" font-size="10.00">right</text>
<text text-anchor="start" x="178" y="-316.5" font-family="Helvetica,sans-Serif" font-size="10.00">+</text>
<text text-anchor="start" x="206" y="-316.5" font-family="Helvetica,sans-Serif" font-size="10.00">threshold</text>
<text text-anchor="start" x="220" y="-301.5" font-family="Helvetica,sans-Serif" font-size="10.00"> </text>
<polygon fill="#666666" stroke="#666666" points="159,-371.5 159,-371.5 288,-371.5 288,-371.5 159,-371.5"/>
<polygon fill="#666666" stroke="#666666" points="159,-311.5 159,-311.5 204,-311.5 204,-311.5 159,-311.5"/>
<polygon fill="#666666" stroke="#666666" points="204,-311.5 204,-311.5 288,-311.5 288,-311.5 204,-311.5"/>
<polygon fill="none" stroke="#666666" points="158.5,-294.5 158.5,-388.5 287.5,-388.5 287.5,-294.5 158.5,-294.5"/>
</a>
</g>
</g>
<!-- Node3&#45;&gt;Node1 -->
<g id="edge2_Node000001_Node000003" class="edge">
<title>Node3&#45;&gt;Node1</title>
<g id="a_edge2_Node000001_Node000003"><a xlink:title=" ">
<path fill="none" stroke="#63b8ff" d="M218.03,-294.25C214.68,-270.71 209.32,-241.89 201,-217 200.29,-214.87 199.55,-212.74 198.77,-210.6"/>
<polygon fill="none" stroke="#63b8ff" points="198.67,-210.33 192.79,-206.16 194.38,-199.12 200.26,-203.3 198.67,-210.33"/>
</a>
</g>
<text text-anchor="middle" x="218.5" y="-231" font-family="Helvetica,sans-Serif" font-size="10.00" fill="grey"> +in</text>
<text text-anchor="middle" x="218.5" y="-220" font-family="Helvetica,sans-Serif" font-size="10.00" fill="grey">+out</text>
</g>
</g>
</svg>
