<?xml version="1.0" encoding="UTF-8" standalone="no"?>
<!DOCTYPE svg PUBLIC "-//W3C//DTD SVG 1.1//EN"
 "http://www.w3.org/Graphics/SVG/1.1/DTD/svg11.dtd">
<!-- Generated by graphviz version 2.43.0 (0)
 -->
<!-- Title: usb_host_dpram_t::usb_host_dpram_ep_buf_ctrl Pages: 1 -->
<svg width="141pt" height="83pt"
 viewBox="0.00 0.00 141.00 83.00" xmlns="http://www.w3.org/2000/svg" xmlns:xlink="http://www.w3.org/1999/xlink">
<g id="graph0" class="graph" transform="scale(1 1) rotate(0) translate(4 79)">
<title>usb_host_dpram_t::usb_host_dpram_ep_buf_ctrl</title>
<!-- Node1 -->
<g id="Node000001" class="node">
<title>Node1</title>
<g id="a_Node000001"><a xlink:title=" ">
<polygon fill="#999999" stroke="transparent" points="133,-75 0,-75 0,0 133,0 133,-75"/>
<text text-anchor="start" x="5.5" y="-62.5" font-family="Helvetica,sans-Serif" font-size="10.00">usb_host_dpram_t::usb</text>
<text text-anchor="start" x="5.5" y="-51.5" font-family="Helvetica,sans-Serif" font-size="10.00">_host_dpram_ep_buf_ctrl</text>
<text text-anchor="start" x="25.5" y="-36.5" font-family="Helvetica,sans-Serif" font-size="10.00">+</text>
<text text-anchor="start" x="59.5" y="-36.5" font-family="Helvetica,sans-Serif" font-size="10.00">ctrl</text>
<text text-anchor="start" x="25.5" y="-21.5" font-family="Helvetica,sans-Serif" font-size="10.00">+</text>
<text text-anchor="start" x="59.5" y="-21.5" font-family="Helvetica,sans-Serif" font-size="10.00">spare</text>
<text text-anchor="start" x="63.5" y="-6.5" font-family="Helvetica,sans-Serif" font-size="10.00"> </text>
<polygon fill="#666666" stroke="#666666" points="0.5,-46.5 0.5,-46.5 133.5,-46.5 133.5,-46.5 0.5,-46.5"/>
<polygon fill="#666666" stroke="#666666" points="0.5,-16.5 0.5,-16.5 57.5,-16.5 57.5,-16.5 0.5,-16.5"/>
<polygon fill="#666666" stroke="#666666" points="57.5,-16.5 57.5,-16.5 133.5,-16.5 133.5,-16.5 57.5,-16.5"/>
<polygon fill="none" stroke="#666666" points="0,0 0,-75 133,-75 133,0 0,0"/>
</a>
</g>
</g>
</g>
</svg>
