<?xml version="1.0" encoding="UTF-8" standalone="no"?>
<!DOCTYPE svg PUBLIC "-//W3C//DTD SVG 1.1//EN"
 "http://www.w3.org/Graphics/SVG/1.1/DTD/svg11.dtd">
<!-- Generated by graphviz version 2.43.0 (0)
 -->
<!-- Title: binary_operation Pages: 1 -->
<svg width="120pt" height="347pt"
 viewBox="0.00 0.00 120.00 347.00" xmlns="http://www.w3.org/2000/svg" xmlns:xlink="http://www.w3.org/1999/xlink">
<g id="graph0" class="graph" transform="scale(1 1) rotate(0) translate(4 343)">
<title>binary_operation</title>
<!-- Node1 -->
<g id="Node000001" class="node">
<title>Node1</title>
<g id="a_Node000001"><a xlink:title=" ">
<polygon fill="#999999" stroke="transparent" points="112,-94 0,-94 0,0 112,0 112,-94"/>
<text text-anchor="start" x="14.5" y="-82" font-family="Helvetica,sans-Serif" font-size="10.00">binary_operation</text>
<text text-anchor="start" x="4" y="-67" font-family="Helvetica,sans-Serif" font-size="10.00">+</text>
<text text-anchor="start" x="17" y="-67" font-family="Helvetica,sans-Serif" font-size="10.00">left</text>
<text text-anchor="start" x="4" y="-52" font-family="Helvetica,sans-Serif" font-size="10.00">+</text>
<text text-anchor="start" x="17" y="-52" font-family="Helvetica,sans-Serif" font-size="10.00">op</text>
<text text-anchor="start" x="4" y="-37" font-family="Helvetica,sans-Serif" font-size="10.00">+</text>
<text text-anchor="start" x="17" y="-37" font-family="Helvetica,sans-Serif" font-size="10.00">right</text>
<text text-anchor="start" x="4" y="-22" font-family="Helvetica,sans-Serif" font-size="10.00">+</text>
<text text-anchor="start" x="17" y="-22" font-family="Helvetica,sans-Serif" font-size="10.00">binary_operation()</text>
<text text-anchor="start" x="4" y="-7" font-family="Helvetica,sans-Serif" font-size="10.00">+</text>
<text text-anchor="start" x="17" y="-7" font-family="Helvetica,sans-Serif" font-size="10.00">resolve()</text>
<polygon fill="#666666" stroke="#666666" points="0,-77 0,-77 112,-77 112,-77 0,-77"/>
<polygon fill="#666666" stroke="#666666" points="0,-32 0,-32 15,-32 15,-32 0,-32"/>
<polygon fill="#666666" stroke="#666666" points="15,-32 15,-32 112,-32 112,-32 15,-32"/>
<polygon fill="none" stroke="#666666" points="0,0 0,-94 112,-94 112,0 0,0"/>
</a>
</g>
</g>
<!-- Node2 -->
<g id="Node000002" class="node">
<title>Node2</title>
<g id="a_Node000002"><a xlink:href="structresolvable.html" target="_top" xlink:title=" ">
<polygon fill="white" stroke="transparent" points="100,-239 12,-239 12,-130 100,-130 100,-239"/>
<text text-anchor="start" x="30" y="-226.5" font-family="Helvetica,sans-Serif" font-size="10.00">resolvable</text>
<text text-anchor="start" x="52.5" y="-211.5" font-family="Helvetica,sans-Serif" font-size="10.00"> </text>
<text text-anchor="start" x="16" y="-196.5" font-family="Helvetica,sans-Serif" font-size="10.00">+</text>
<text text-anchor="start" x="29" y="-196.5" font-family="Helvetica,sans-Serif" font-size="10.00">resolvable()</text>
<text text-anchor="start" x="16" y="-181.5" font-family="Helvetica,sans-Serif" font-size="10.00">+</text>
<text text-anchor="start" x="29" y="-181.5" font-family="Helvetica,sans-Serif" font-size="10.00">resolve()</text>
<text text-anchor="start" x="16" y="-166.5" font-family="Helvetica,sans-Serif" font-size="10.00">+</text>
<text text-anchor="start" x="29" y="-166.5" font-family="Helvetica,sans-Serif" font-size="10.00">resolve()</text>
<text text-anchor="start" x="16" y="-151.5" font-family="Helvetica,sans-Serif" font-size="10.00">+</text>
<text text-anchor="start" x="29" y="-151.5" font-family="Helvetica,sans-Serif" font-size="10.00">resolve()</text>
<text text-anchor="start" x="16" y="-136.5" font-family="Helvetica,sans-Serif" font-size="10.00">+</text>
<text text-anchor="start" x="29" y="-136.5" font-family="Helvetica,sans-Serif" font-size="10.00">~resolvable()</text>
<polygon fill="#666666" stroke="#666666" points="12,-221.5 12,-221.5 100,-221.5 100,-221.5 12,-221.5"/>
<polygon fill="#666666" stroke="#666666" points="12,-206.5 12,-206.5 100,-206.5 100,-206.5 12,-206.5"/>
<polygon fill="none" stroke="#666666" points="12,-130 12,-239 100,-239 100,-130 12,-130"/>
</a>
</g>
</g>
<!-- Node2&#45;&gt;Node1 -->
<g id="edge1_Node000001_Node000002" class="edge">
<title>Node2&#45;&gt;Node1</title>
<g id="a_edge1_Node000001_Node000002"><a xlink:title=" ">
<path fill="none" stroke="#63b8ff" d="M56,-119.85C56,-111.19 56,-102.43 56,-94.16"/>
<polygon fill="none" stroke="#63b8ff" points="52.5,-119.95 56,-129.95 59.5,-119.95 52.5,-119.95"/>
</a>
</g>
</g>
<!-- Node3 -->
<g id="Node000003" class="node">
<title>Node3</title>
<g id="a_Node000003"><a xlink:href="structsrc__item.html" target="_top" xlink:title=" ">
<polygon fill="white" stroke="transparent" points="91.5,-339 20.5,-339 20.5,-275 91.5,-275 91.5,-339"/>
<text text-anchor="start" x="35" y="-327" font-family="Helvetica,sans-Serif" font-size="10.00">src_item</text>
<text text-anchor="start" x="25" y="-312" font-family="Helvetica,sans-Serif" font-size="10.00">+</text>
<text text-anchor="start" x="38" y="-312" font-family="Helvetica,sans-Serif" font-size="10.00">location</text>
<text text-anchor="start" x="25" y="-297" font-family="Helvetica,sans-Serif" font-size="10.00">+</text>
<text text-anchor="start" x="38" y="-297" font-family="Helvetica,sans-Serif" font-size="10.00">src_item()</text>
<text text-anchor="start" x="25" y="-282" font-family="Helvetica,sans-Serif" font-size="10.00">+</text>
<text text-anchor="start" x="38" y="-282" font-family="Helvetica,sans-Serif" font-size="10.00">src_item()</text>
<polygon fill="#666666" stroke="#666666" points="21,-322 21,-322 92,-322 92,-322 21,-322"/>
<polygon fill="#666666" stroke="#666666" points="21,-307 21,-307 36,-307 36,-307 21,-307"/>
<polygon fill="#666666" stroke="#666666" points="36,-307 36,-307 92,-307 92,-307 36,-307"/>
<polygon fill="none" stroke="#666666" points="20.5,-275 20.5,-339 91.5,-339 91.5,-275 20.5,-275"/>
</a>
</g>
</g>
<!-- Node3&#45;&gt;Node2 -->
<g id="edge2_Node000002_Node000003" class="edge">
<title>Node3&#45;&gt;Node2</title>
<g id="a_edge2_Node000002_Node000003"><a xlink:title=" ">
<path fill="none" stroke="#63b8ff" d="M56,-264.89C56,-256.67 56,-247.91 56,-239.33"/>
<polygon fill="none" stroke="#63b8ff" points="52.5,-264.97 56,-274.97 59.5,-264.97 52.5,-264.97"/>
</a>
</g>
</g>
</g>
</svg>
