<?xml version="1.0" encoding="UTF-8" standalone="no"?>
<!DOCTYPE svg PUBLIC "-//W3C//DTD SVG 1.1//EN"
 "http://www.w3.org/Graphics/SVG/1.1/DTD/svg11.dtd">
<!-- Generated by graphviz version 2.43.0 (0)
 -->
<!-- Title: picobin_load_map Pages: 1 -->
<svg width="138pt" height="183pt"
 viewBox="0.00 0.00 138.00 183.00" xmlns="http://www.w3.org/2000/svg" xmlns:xlink="http://www.w3.org/1999/xlink">
<g id="graph0" class="graph" transform="scale(1 1) rotate(0) translate(4 179)">
<title>picobin_load_map</title>
<!-- Node1 -->
<g id="Node000001" class="node">
<title>Node1</title>
<g id="a_Node000001"><a xlink:title=" ">
<polygon fill="#999999" stroke="transparent" points="114.5,-49 15.5,-49 15.5,0 114.5,0 114.5,-49"/>
<text text-anchor="start" x="21" y="-36.5" font-family="Helvetica,sans-Serif" font-size="10.00">picobin_load_map</text>
<text text-anchor="start" x="31" y="-21.5" font-family="Helvetica,sans-Serif" font-size="10.00">+</text>
<text text-anchor="start" x="55" y="-21.5" font-family="Helvetica,sans-Serif" font-size="10.00">header</text>
<text text-anchor="start" x="62" y="-6.5" font-family="Helvetica,sans-Serif" font-size="10.00"> </text>
<polygon fill="#666666" stroke="#666666" points="16,-31.5 16,-31.5 115,-31.5 115,-31.5 16,-31.5"/>
<polygon fill="#666666" stroke="#666666" points="16,-16.5 16,-16.5 53,-16.5 53,-16.5 16,-16.5"/>
<polygon fill="#666666" stroke="#666666" points="53,-16.5 53,-16.5 115,-16.5 115,-16.5 53,-16.5"/>
<polygon fill="none" stroke="#666666" points="15.5,0 15.5,-49 114.5,-49 114.5,0 15.5,0"/>
</a>
</g>
</g>
<!-- Node2 -->
<g id="Node000002" class="node">
<title>Node2</title>
<g id="a_Node000002"><a xlink:href="structpicobin__load__map__entry.html" target="_top" xlink:title=" ">
<polygon fill="white" stroke="transparent" points="130,-175 0,-175 0,-96 130,-96 130,-175"/>
<text text-anchor="start" x="5" y="-162.5" font-family="Helvetica,sans-Serif" font-size="10.00">picobin_load_map_entry</text>
<text text-anchor="start" x="6.5" y="-147.5" font-family="Helvetica,sans-Serif" font-size="10.00">+</text>
<text text-anchor="start" x="22" y="-147.5" font-family="Helvetica,sans-Serif" font-size="10.00">runtime_address</text>
<text text-anchor="start" x="6.5" y="-132.5" font-family="Helvetica,sans-Serif" font-size="10.00">+</text>
<text text-anchor="start" x="22" y="-132.5" font-family="Helvetica,sans-Serif" font-size="10.00">size</text>
<text text-anchor="start" x="6.5" y="-117.5" font-family="Helvetica,sans-Serif" font-size="10.00">+</text>
<text text-anchor="start" x="22" y="-117.5" font-family="Helvetica,sans-Serif" font-size="10.00">storage_address_rel</text>
<text text-anchor="start" x="61.5" y="-102.5" font-family="Helvetica,sans-Serif" font-size="10.00"> </text>
<polygon fill="#666666" stroke="#666666" points="0,-157.5 0,-157.5 130,-157.5 130,-157.5 0,-157.5"/>
<polygon fill="#666666" stroke="#666666" points="0,-112.5 0,-112.5 20,-112.5 20,-112.5 0,-112.5"/>
<polygon fill="#666666" stroke="#666666" points="20,-112.5 20,-112.5 130,-112.5 130,-112.5 20,-112.5"/>
<polygon fill="none" stroke="#666666" points="0,-96 0,-175 130,-175 130,-96 0,-96"/>
</a>
</g>
</g>
<!-- Node2&#45;&gt;Node1 -->
<g id="edge1_Node000001_Node000002" class="edge">
<title>Node2&#45;&gt;Node1</title>
<g id="a_edge1_Node000001_Node000002"><a xlink:title=" ">
<path fill="none" stroke="#63b8ff" d="M65,-95.76C65,-84.59 65,-72.45 65,-61.46"/>
<polygon fill="none" stroke="#63b8ff" points="65,-61.2 61,-55.2 65,-49.2 69,-55.2 65,-61.2"/>
</a>
</g>
<text text-anchor="middle" x="88" y="-70" font-family="Helvetica,sans-Serif" font-size="10.00" fill="grey"> +entries</text>
</g>
</g>
</svg>
