<?xml version="1.0" encoding="UTF-8" standalone="no"?>
<!DOCTYPE svg PUBLIC "-//W3C//DTD SVG 1.1//EN"
 "http://www.w3.org/Graphics/SVG/1.1/DTD/svg11.dtd">
<!-- Generated by graphviz version 2.43.0 (0)
 -->
<!-- Title: sync_func_call Pages: 1 -->
<svg width="175pt" height="239pt"
 viewBox="0.00 0.00 175.00 239.00" xmlns="http://www.w3.org/2000/svg" xmlns:xlink="http://www.w3.org/1999/xlink">
<g id="graph0" class="graph" transform="scale(1 1) rotate(0) translate(4 235)">
<title>sync_func_call</title>
<!-- Node1 -->
<g id="Node000001" class="node">
<title>Node1</title>
<g id="a_Node000001"><a xlink:title=" ">
<polygon fill="#999999" stroke="transparent" points="98.5,-94 16.5,-94 16.5,0 98.5,0 98.5,-94"/>
<text text-anchor="start" x="21.5" y="-82" font-family="Helvetica,sans-Serif" font-size="10.00">sync_func_call</text>
<text text-anchor="start" x="27.5" y="-67" font-family="Helvetica,sans-Serif" font-size="10.00">+</text>
<text text-anchor="start" x="47.5" y="-67" font-family="Helvetica,sans-Serif" font-size="10.00">func</text>
<text text-anchor="start" x="27.5" y="-52" font-family="Helvetica,sans-Serif" font-size="10.00">+</text>
<text text-anchor="start" x="47.5" y="-52" font-family="Helvetica,sans-Serif" font-size="10.00">param</text>
<text text-anchor="start" x="27.5" y="-37" font-family="Helvetica,sans-Serif" font-size="10.00">+</text>
<text text-anchor="start" x="47.5" y="-37" font-family="Helvetica,sans-Serif" font-size="10.00">rc</text>
<text text-anchor="start" x="27.5" y="-22" font-family="Helvetica,sans-Serif" font-size="10.00">+</text>
<text text-anchor="start" x="47.5" y="-22" font-family="Helvetica,sans-Serif" font-size="10.00">sem</text>
<text text-anchor="start" x="54" y="-7" font-family="Helvetica,sans-Serif" font-size="10.00"> </text>
<polygon fill="#666666" stroke="#666666" points="16.5,-77 16.5,-77 98.5,-77 98.5,-77 16.5,-77"/>
<polygon fill="#666666" stroke="#666666" points="16.5,-17 16.5,-17 45.5,-17 45.5,-17 16.5,-17"/>
<polygon fill="#666666" stroke="#666666" points="45.5,-17 45.5,-17 98.5,-17 98.5,-17 45.5,-17"/>
<polygon fill="none" stroke="#666666" points="16.5,0 16.5,-94 98.5,-94 98.5,0 16.5,0"/>
</a>
</g>
</g>
<!-- Node2 -->
<g id="Node000002" class="node">
<title>Node2</title>
<g id="a_Node000002"><a xlink:href="structasync__when__pending__worker.html" target="_top" xlink:title="A &quot;worker&quot; instance used by an async_context.">
<polygon fill="white" stroke="transparent" points="115,-231 0,-231 0,-141 115,-141 115,-231"/>
<text text-anchor="start" x="5.5" y="-219" font-family="Helvetica,sans-Serif" font-size="10.00">async_when_pending</text>
<text text-anchor="start" x="38.5" y="-208" font-family="Helvetica,sans-Serif" font-size="10.00">_worker</text>
<text text-anchor="start" x="10.5" y="-193" font-family="Helvetica,sans-Serif" font-size="10.00">+</text>
<text text-anchor="start" x="29.5" y="-193" font-family="Helvetica,sans-Serif" font-size="10.00">do_work</text>
<text text-anchor="start" x="10.5" y="-178" font-family="Helvetica,sans-Serif" font-size="10.00">+</text>
<text text-anchor="start" x="29.5" y="-178" font-family="Helvetica,sans-Serif" font-size="10.00">user_data</text>
<text text-anchor="start" x="10.5" y="-163" font-family="Helvetica,sans-Serif" font-size="10.00">+</text>
<text text-anchor="start" x="29.5" y="-163" font-family="Helvetica,sans-Serif" font-size="10.00">work_pending</text>
<text text-anchor="start" x="54.5" y="-148" font-family="Helvetica,sans-Serif" font-size="10.00"> </text>
<polygon fill="#666666" stroke="#666666" points="0.5,-203 0.5,-203 115.5,-203 115.5,-203 0.5,-203"/>
<polygon fill="#666666" stroke="#666666" points="0.5,-158 0.5,-158 27.5,-158 27.5,-158 0.5,-158"/>
<polygon fill="#666666" stroke="#666666" points="27.5,-158 27.5,-158 115.5,-158 115.5,-158 27.5,-158"/>
<polygon fill="none" stroke="#666666" points="0,-141 0,-231 115,-231 115,-141 0,-141"/>
</a>
</g>
</g>
<!-- Node2&#45;&gt;Node1 -->
<g id="edge1_Node000001_Node000002" class="edge">
<title>Node2&#45;&gt;Node1</title>
<g id="a_edge1_Node000001_Node000002"><a xlink:title=" ">
<path fill="none" stroke="#63b8ff" d="M57.5,-140.9C57.5,-129.98 57.5,-118.12 57.5,-106.63"/>
<polygon fill="none" stroke="#63b8ff" points="57.5,-106.38 53.5,-100.38 57.5,-94.38 61.5,-100.38 57.5,-106.38"/>
</a>
</g>
<text text-anchor="middle" x="80" y="-115" font-family="Helvetica,sans-Serif" font-size="10.00" fill="grey"> +worker</text>
</g>
<!-- Node2&#45;&gt;Node2 -->
<g id="edge2_Node000002_Node000002" class="edge">
<title>Node2&#45;&gt;Node2</title>
<g id="a_edge2_Node000002_Node000002"><a xlink:title=" ">
<path fill="none" stroke="#63b8ff" d="M115.11,-198.05C125.62,-196.52 133,-192.51 133,-186 133,-182.34 130.67,-179.47 126.75,-177.38"/>
<polygon fill="none" stroke="#63b8ff" points="126.62,-177.34 119.73,-179.48 115.11,-173.95 121.99,-171.81 126.62,-177.34"/>
</a>
</g>
<text text-anchor="middle" x="150" y="-183.5" font-family="Helvetica,sans-Serif" font-size="10.00" fill="grey"> +next</text>
</g>
</g>
</svg>
