<?xml version="1.0" encoding="UTF-8" standalone="no"?>
<!DOCTYPE svg PUBLIC "-//W3C//DTD SVG 1.1//EN"
 "http://www.w3.org/Graphics/SVG/1.1/DTD/svg11.dtd">
<!-- Generated by graphviz version 2.43.0 (0)
 -->
<!-- Title: io_qspi_hw_t Pages: 1 -->
<svg width="319pt" height="433pt"
 viewBox="0.00 0.00 319.00 433.00" xmlns="http://www.w3.org/2000/svg" xmlns:xlink="http://www.w3.org/1999/xlink">
<g id="graph0" class="graph" transform="scale(1 1) rotate(0) translate(4 429)">
<title>io_qspi_hw_t</title>
<!-- Node1 -->
<g id="Node000001" class="node">
<title>Node1</title>
<g id="a_Node000001"><a xlink:title=" ">
<polygon fill="#999999" stroke="transparent" points="219.5,-266 50.5,-266 50.5,0 219.5,0 219.5,-266"/>
<text text-anchor="start" x="103.5" y="-254" font-family="Helvetica,sans-Serif" font-size="10.00">io_qspi_hw_t</text>
<text text-anchor="start" x="55" y="-239" font-family="Helvetica,sans-Serif" font-size="10.00">+</text>
<text text-anchor="start" x="68" y="-239" font-family="Helvetica,sans-Serif" font-size="10.00">@23</text>
<text text-anchor="start" x="55" y="-224" font-family="Helvetica,sans-Serif" font-size="10.00">+</text>
<text text-anchor="start" x="68" y="-224" font-family="Helvetica,sans-Serif" font-size="10.00">@55</text>
<text text-anchor="start" x="55" y="-209" font-family="Helvetica,sans-Serif" font-size="10.00">+</text>
<text text-anchor="start" x="68" y="-209" font-family="Helvetica,sans-Serif" font-size="10.00">_pad0</text>
<text text-anchor="start" x="55" y="-194" font-family="Helvetica,sans-Serif" font-size="10.00">+</text>
<text text-anchor="start" x="68" y="-194" font-family="Helvetica,sans-Serif" font-size="10.00">intr</text>
<text text-anchor="start" x="55" y="-179" font-family="Helvetica,sans-Serif" font-size="10.00">+</text>
<text text-anchor="start" x="68" y="-179" font-family="Helvetica,sans-Serif" font-size="10.00">irqsummary_dormant</text>
<text text-anchor="start" x="68" y="-168" font-family="Helvetica,sans-Serif" font-size="10.00">_wake_nonsecure</text>
<text text-anchor="start" x="55" y="-153" font-family="Helvetica,sans-Serif" font-size="10.00">+</text>
<text text-anchor="start" x="68" y="-153" font-family="Helvetica,sans-Serif" font-size="10.00">irqsummary_dormant</text>
<text text-anchor="start" x="68" y="-142" font-family="Helvetica,sans-Serif" font-size="10.00">_wake_secure</text>
<text text-anchor="start" x="55" y="-127" font-family="Helvetica,sans-Serif" font-size="10.00">+</text>
<text text-anchor="start" x="68" y="-127" font-family="Helvetica,sans-Serif" font-size="10.00">irqsummary_proc0_nonsecure</text>
<text text-anchor="start" x="55" y="-112" font-family="Helvetica,sans-Serif" font-size="10.00">+</text>
<text text-anchor="start" x="68" y="-112" font-family="Helvetica,sans-Serif" font-size="10.00">irqsummary_proc0_secure</text>
<text text-anchor="start" x="55" y="-97" font-family="Helvetica,sans-Serif" font-size="10.00">+</text>
<text text-anchor="start" x="68" y="-97" font-family="Helvetica,sans-Serif" font-size="10.00">irqsummary_proc1_nonsecure</text>
<text text-anchor="start" x="55" y="-82" font-family="Helvetica,sans-Serif" font-size="10.00">+</text>
<text text-anchor="start" x="68" y="-82" font-family="Helvetica,sans-Serif" font-size="10.00">irqsummary_proc1_secure</text>
<text text-anchor="start" x="55" y="-67" font-family="Helvetica,sans-Serif" font-size="10.00">+</text>
<text text-anchor="start" x="68" y="-67" font-family="Helvetica,sans-Serif" font-size="10.00">usbphy_dm_ctrl</text>
<text text-anchor="start" x="55" y="-52" font-family="Helvetica,sans-Serif" font-size="10.00">+</text>
<text text-anchor="start" x="68" y="-52" font-family="Helvetica,sans-Serif" font-size="10.00">usbphy_dm_status</text>
<text text-anchor="start" x="55" y="-37" font-family="Helvetica,sans-Serif" font-size="10.00">+</text>
<text text-anchor="start" x="68" y="-37" font-family="Helvetica,sans-Serif" font-size="10.00">usbphy_dp_ctrl</text>
<text text-anchor="start" x="55" y="-22" font-family="Helvetica,sans-Serif" font-size="10.00">+</text>
<text text-anchor="start" x="68" y="-22" font-family="Helvetica,sans-Serif" font-size="10.00">usbphy_dp_status</text>
<text text-anchor="start" x="132" y="-7" font-family="Helvetica,sans-Serif" font-size="10.00"> </text>
<polygon fill="#666666" stroke="#666666" points="51,-249 51,-249 220,-249 220,-249 51,-249"/>
<polygon fill="#666666" stroke="#666666" points="51,-17 51,-17 66,-17 66,-17 51,-17"/>
<polygon fill="#666666" stroke="#666666" points="66,-17 66,-17 220,-17 220,-17 66,-17"/>
<polygon fill="none" stroke="#666666" points="50.5,0 50.5,-266 219.5,-266 219.5,0 50.5,0"/>
</a>
</g>
</g>
<!-- Node2 -->
<g id="Node000002" class="node">
<title>Node2</title>
<g id="a_Node000002"><a xlink:href="structio__qspi__status__ctrl__hw__t.html" target="_top" xlink:title=" ">
<polygon fill="white" stroke="transparent" points="130,-417.5 0,-417.5 0,-353.5 130,-353.5 130,-417.5"/>
<text text-anchor="start" x="5" y="-405.5" font-family="Helvetica,sans-Serif" font-size="10.00">io_qspi_status_ctrl_hw_t</text>
<text text-anchor="start" x="23.5" y="-390.5" font-family="Helvetica,sans-Serif" font-size="10.00">+</text>
<text text-anchor="start" x="56" y="-390.5" font-family="Helvetica,sans-Serif" font-size="10.00">ctrl</text>
<text text-anchor="start" x="23.5" y="-375.5" font-family="Helvetica,sans-Serif" font-size="10.00">+</text>
<text text-anchor="start" x="56" y="-375.5" font-family="Helvetica,sans-Serif" font-size="10.00">status</text>
<text text-anchor="start" x="61.5" y="-360.5" font-family="Helvetica,sans-Serif" font-size="10.00"> </text>
<polygon fill="#666666" stroke="#666666" points="0,-400.5 0,-400.5 130,-400.5 130,-400.5 0,-400.5"/>
<polygon fill="#666666" stroke="#666666" points="0,-370.5 0,-370.5 54,-370.5 54,-370.5 0,-370.5"/>
<polygon fill="#666666" stroke="#666666" points="54,-370.5 54,-370.5 130,-370.5 130,-370.5 54,-370.5"/>
<polygon fill="none" stroke="#666666" points="0,-353.5 0,-417.5 130,-417.5 130,-353.5 0,-353.5"/>
</a>
</g>
</g>
<!-- Node2&#45;&gt;Node1 -->
<g id="edge1_Node000001_Node000002" class="edge">
<title>Node2&#45;&gt;Node1</title>
<g id="a_edge1_Node000001_Node000002"><a xlink:title=" ">
<path fill="none" stroke="#63b8ff" d="M73.72,-353.28C79.25,-333.51 86.83,-306.38 94.78,-277.93"/>
<polygon fill="none" stroke="#63b8ff" points="94.85,-277.67 92.62,-270.81 98.08,-266.11 100.32,-272.96 94.85,-277.67"/>
</a>
</g>
<text text-anchor="middle" x="102.5" y="-303.5" font-family="Helvetica,sans-Serif" font-size="10.00" fill="grey"> +io</text>
</g>
<!-- Node3 -->
<g id="Node000003" class="node">
<title>Node3</title>
<g id="a_Node000003"><a xlink:href="structio__qspi__irq__ctrl__hw__t.html" target="_top" xlink:title=" ">
<polygon fill="white" stroke="transparent" points="261.5,-425 148.5,-425 148.5,-346 261.5,-346 261.5,-425"/>
<text text-anchor="start" x="154" y="-412.5" font-family="Helvetica,sans-Serif" font-size="10.00">io_qspi_irq_ctrl_hw_t</text>
<text text-anchor="start" x="171" y="-397.5" font-family="Helvetica,sans-Serif" font-size="10.00">+</text>
<text text-anchor="start" x="202" y="-397.5" font-family="Helvetica,sans-Serif" font-size="10.00">inte</text>
<text text-anchor="start" x="171" y="-382.5" font-family="Helvetica,sans-Serif" font-size="10.00">+</text>
<text text-anchor="start" x="202" y="-382.5" font-family="Helvetica,sans-Serif" font-size="10.00">intf</text>
<text text-anchor="start" x="171" y="-367.5" font-family="Helvetica,sans-Serif" font-size="10.00">+</text>
<text text-anchor="start" x="202" y="-367.5" font-family="Helvetica,sans-Serif" font-size="10.00">ints</text>
<text text-anchor="start" x="202" y="-352.5" font-family="Helvetica,sans-Serif" font-size="10.00"> </text>
<polygon fill="#666666" stroke="#666666" points="149,-407.5 149,-407.5 262,-407.5 262,-407.5 149,-407.5"/>
<polygon fill="#666666" stroke="#666666" points="149,-362.5 149,-362.5 200,-362.5 200,-362.5 149,-362.5"/>
<polygon fill="#666666" stroke="#666666" points="200,-362.5 200,-362.5 262,-362.5 262,-362.5 200,-362.5"/>
<polygon fill="none" stroke="#666666" points="148.5,-346 148.5,-425 261.5,-425 261.5,-346 148.5,-346"/>
</a>
</g>
</g>
<!-- Node3&#45;&gt;Node1 -->
<g id="edge2_Node000001_Node000003" class="edge">
<title>Node3&#45;&gt;Node1</title>
<g id="a_edge2_Node000001_Node000003"><a xlink:title=" ">
<path fill="none" stroke="#63b8ff" d="M194.22,-345.91C188.93,-326.99 182.19,-302.89 175.18,-277.77"/>
<polygon fill="none" stroke="#63b8ff" points="175.16,-277.73 169.7,-273.03 171.93,-266.17 177.4,-270.88 175.16,-277.73"/>
</a>
</g>
<text text-anchor="middle" x="249.5" y="-320" font-family="Helvetica,sans-Serif" font-size="10.00" fill="grey"> +dormant_wake_irq_ctrl</text>
<text text-anchor="middle" x="249.5" y="-309" font-family="Helvetica,sans-Serif" font-size="10.00" fill="grey">+irq_ctrl</text>
<text text-anchor="middle" x="249.5" y="-298" font-family="Helvetica,sans-Serif" font-size="10.00" fill="grey">+proc0_irq_ctrl</text>
<text text-anchor="middle" x="249.5" y="-287" font-family="Helvetica,sans-Serif" font-size="10.00" fill="grey">+proc1_irq_ctrl</text>
</g>
</g>
</svg>
