<?xml version="1.0" encoding="UTF-8" standalone="no"?>
<!DOCTYPE svg PUBLIC "-//W3C//DTD SVG 1.1//EN"
 "http://www.w3.org/Graphics/SVG/1.1/DTD/svg11.dtd">
<!-- Generated by graphviz version 2.43.0 (0)
 -->
<!-- Title: _binary_info_ptr_string_with_name Pages: 1 -->
<svg width="130pt" height="209pt"
 viewBox="0.00 0.00 130.00 209.00" xmlns="http://www.w3.org/2000/svg" xmlns:xlink="http://www.w3.org/1999/xlink">
<g id="graph0" class="graph" transform="scale(1 1) rotate(0) translate(4 205)">
<title>_binary_info_ptr_string_with_name</title>
<!-- Node1 -->
<g id="Node000001" class="node">
<title>Node1</title>
<g id="a_Node000001"><a xlink:title=" ">
<polygon fill="#999999" stroke="transparent" points="122,-90 0,-90 0,0 122,0 122,-90"/>
<text text-anchor="start" x="5" y="-78" font-family="Helvetica,sans-Serif" font-size="10.00">_binary_info_ptr_string</text>
<text text-anchor="start" x="31" y="-67" font-family="Helvetica,sans-Serif" font-size="10.00">_with_name</text>
<text text-anchor="start" x="16.5" y="-52" font-family="Helvetica,sans-Serif" font-size="10.00">+</text>
<text text-anchor="start" x="42" y="-52" font-family="Helvetica,sans-Serif" font-size="10.00">id</text>
<text text-anchor="start" x="16.5" y="-37" font-family="Helvetica,sans-Serif" font-size="10.00">+</text>
<text text-anchor="start" x="42" y="-37" font-family="Helvetica,sans-Serif" font-size="10.00">len</text>
<text text-anchor="start" x="16.5" y="-22" font-family="Helvetica,sans-Serif" font-size="10.00">+</text>
<text text-anchor="start" x="42" y="-22" font-family="Helvetica,sans-Serif" font-size="10.00">bi_ptr_of()</text>
<text text-anchor="start" x="16.5" y="-7" font-family="Helvetica,sans-Serif" font-size="10.00">+</text>
<text text-anchor="start" x="42" y="-7" font-family="Helvetica,sans-Serif" font-size="10.00">bi_ptr_of()</text>
<polygon fill="#666666" stroke="#666666" points="0,-62 0,-62 122,-62 122,-62 0,-62"/>
<polygon fill="#666666" stroke="#666666" points="0,-32 0,-32 40,-32 40,-32 0,-32"/>
<polygon fill="#666666" stroke="#666666" points="40,-32 40,-32 122,-32 122,-32 40,-32"/>
<polygon fill="none" stroke="#666666" points="0,0 0,-90 122,-90 122,0 0,0"/>
</a>
</g>
</g>
<!-- Node2 -->
<g id="Node000002" class="node">
<title>Node2</title>
<g id="a_Node000002"><a xlink:href="struct__binary__info__core.html" target="_top" xlink:title=" ">
<polygon fill="white" stroke="transparent" points="109.5,-201 12.5,-201 12.5,-137 109.5,-137 109.5,-201"/>
<text text-anchor="start" x="18" y="-189" font-family="Helvetica,sans-Serif" font-size="10.00">_binary_info_core</text>
<text text-anchor="start" x="30.5" y="-174" font-family="Helvetica,sans-Serif" font-size="10.00">+</text>
<text text-anchor="start" x="57" y="-174" font-family="Helvetica,sans-Serif" font-size="10.00">tag</text>
<text text-anchor="start" x="30.5" y="-159" font-family="Helvetica,sans-Serif" font-size="10.00">+</text>
<text text-anchor="start" x="57" y="-159" font-family="Helvetica,sans-Serif" font-size="10.00">type</text>
<text text-anchor="start" x="58" y="-144" font-family="Helvetica,sans-Serif" font-size="10.00"> </text>
<polygon fill="#666666" stroke="#666666" points="13,-184 13,-184 110,-184 110,-184 13,-184"/>
<polygon fill="#666666" stroke="#666666" points="13,-154 13,-154 55,-154 55,-154 13,-154"/>
<polygon fill="#666666" stroke="#666666" points="55,-154 55,-154 110,-154 110,-154 55,-154"/>
<polygon fill="none" stroke="#666666" points="12.5,-137 12.5,-201 109.5,-201 109.5,-137 12.5,-137"/>
</a>
</g>
</g>
<!-- Node2&#45;&gt;Node1 -->
<g id="edge1_Node000001_Node000002" class="edge">
<title>Node2&#45;&gt;Node1</title>
<g id="a_edge1_Node000001_Node000002"><a xlink:title=" ">
<path fill="none" stroke="#63b8ff" d="M61,-136.9C61,-126.42 61,-114.38 61,-102.56"/>
<polygon fill="none" stroke="#63b8ff" points="61,-102.4 57,-96.4 61,-90.4 65,-96.4 61,-102.4"/>
</a>
</g>
<text text-anchor="middle" x="77.5" y="-111" font-family="Helvetica,sans-Serif" font-size="10.00" fill="grey"> +core</text>
</g>
</g>
</svg>
