<?xml version="1.0" encoding="UTF-8" standalone="no"?>
<!DOCTYPE svg PUBLIC "-//W3C//DTD SVG 1.1//EN"
 "http://www.w3.org/Graphics/SVG/1.1/DTD/svg11.dtd">
<!-- Generated by graphviz version 2.43.0 (0)
 -->
<!-- Title: _binary_info_raw_data Pages: 1 -->
<svg width="129pt" height="168pt"
 viewBox="0.00 0.00 129.00 168.00" xmlns="http://www.w3.org/2000/svg" xmlns:xlink="http://www.w3.org/1999/xlink">
<g id="graph0" class="graph" transform="scale(1 1) rotate(0) translate(4 164)">
<title>_binary_info_raw_data</title>
<!-- Node1 -->
<g id="Node000001" class="node">
<title>Node1</title>
<g id="a_Node000001"><a xlink:title=" ">
<polygon fill="#999999" stroke="transparent" points="121,-49 0,-49 0,0 121,0 121,-49"/>
<text text-anchor="start" x="5.5" y="-36.5" font-family="Helvetica,sans-Serif" font-size="10.00">_binary_info_raw_data</text>
<text text-anchor="start" x="22.5" y="-21.5" font-family="Helvetica,sans-Serif" font-size="10.00">+</text>
<text text-anchor="start" x="53.5" y="-21.5" font-family="Helvetica,sans-Serif" font-size="10.00">bytes</text>
<text text-anchor="start" x="57.5" y="-6.5" font-family="Helvetica,sans-Serif" font-size="10.00"> </text>
<polygon fill="#666666" stroke="#666666" points="0.5,-31.5 0.5,-31.5 121.5,-31.5 121.5,-31.5 0.5,-31.5"/>
<polygon fill="#666666" stroke="#666666" points="0.5,-16.5 0.5,-16.5 51.5,-16.5 51.5,-16.5 0.5,-16.5"/>
<polygon fill="#666666" stroke="#666666" points="51.5,-16.5 51.5,-16.5 121.5,-16.5 121.5,-16.5 51.5,-16.5"/>
<polygon fill="none" stroke="#666666" points="0,0 0,-49 121,-49 121,0 0,0"/>
</a>
</g>
</g>
<!-- Node2 -->
<g id="Node000002" class="node">
<title>Node2</title>
<g id="a_Node000002"><a xlink:href="struct__binary__info__core.html" target="_top" xlink:title=" ">
<polygon fill="white" stroke="transparent" points="109,-160 12,-160 12,-96 109,-96 109,-160"/>
<text text-anchor="start" x="17.5" y="-148" font-family="Helvetica,sans-Serif" font-size="10.00">_binary_info_core</text>
<text text-anchor="start" x="30" y="-133" font-family="Helvetica,sans-Serif" font-size="10.00">+</text>
<text text-anchor="start" x="56.5" y="-133" font-family="Helvetica,sans-Serif" font-size="10.00">tag</text>
<text text-anchor="start" x="30" y="-118" font-family="Helvetica,sans-Serif" font-size="10.00">+</text>
<text text-anchor="start" x="56.5" y="-118" font-family="Helvetica,sans-Serif" font-size="10.00">type</text>
<text text-anchor="start" x="57.5" y="-103" font-family="Helvetica,sans-Serif" font-size="10.00"> </text>
<polygon fill="#666666" stroke="#666666" points="12.5,-143 12.5,-143 109.5,-143 109.5,-143 12.5,-143"/>
<polygon fill="#666666" stroke="#666666" points="12.5,-113 12.5,-113 54.5,-113 54.5,-113 12.5,-113"/>
<polygon fill="#666666" stroke="#666666" points="54.5,-113 54.5,-113 109.5,-113 109.5,-113 54.5,-113"/>
<polygon fill="none" stroke="#666666" points="12,-96 12,-160 109,-160 109,-96 12,-96"/>
</a>
</g>
</g>
<!-- Node2&#45;&gt;Node1 -->
<g id="edge1_Node000001_Node000002" class="edge">
<title>Node2&#45;&gt;Node1</title>
<g id="a_edge1_Node000001_Node000002"><a xlink:title=" ">
<path fill="none" stroke="#63b8ff" d="M60.5,-96C60.5,-85.07 60.5,-72.69 60.5,-61.39"/>
<polygon fill="none" stroke="#63b8ff" points="60.5,-61.23 56.5,-55.23 60.5,-49.23 64.5,-55.23 60.5,-61.23"/>
</a>
</g>
<text text-anchor="middle" x="77" y="-70" font-family="Helvetica,sans-Serif" font-size="10.00" fill="grey"> +core</text>
</g>
</g>
</svg>
