<?xml version="1.0" encoding="UTF-8" standalone="no"?>
<!DOCTYPE svg PUBLIC "-//W3C//DTD SVG 1.1//EN"
 "http://www.w3.org/Graphics/SVG/1.1/DTD/svg11.dtd">
<!-- Generated by graphviz version 2.43.0 (0)
 -->
<!-- Title: repeating_timer Pages: 1 -->
<svg width="209pt" height="444pt"
 viewBox="0.00 0.00 209.00 444.00" xmlns="http://www.w3.org/2000/svg" xmlns:xlink="http://www.w3.org/1999/xlink">
<g id="graph0" class="graph" transform="scale(1 1) rotate(0) translate(4 440)">
<title>repeating_timer</title>
<!-- Node1 -->
<g id="Node000001" class="node">
<title>Node1</title>
<g id="a_Node000001"><a xlink:title="Information about a repeating timer.">
<polygon fill="#999999" stroke="transparent" points="131,-79 42,-79 42,0 131,0 131,-79"/>
<text text-anchor="start" x="47.5" y="-66.5" font-family="Helvetica,sans-Serif" font-size="10.00">repeating_timer</text>
<text text-anchor="start" x="51" y="-51.5" font-family="Helvetica,sans-Serif" font-size="10.00">+</text>
<text text-anchor="start" x="68.5" y="-51.5" font-family="Helvetica,sans-Serif" font-size="10.00">alarm_id</text>
<text text-anchor="start" x="51" y="-36.5" font-family="Helvetica,sans-Serif" font-size="10.00">+</text>
<text text-anchor="start" x="68.5" y="-36.5" font-family="Helvetica,sans-Serif" font-size="10.00">delay_us</text>
<text text-anchor="start" x="51" y="-21.5" font-family="Helvetica,sans-Serif" font-size="10.00">+</text>
<text text-anchor="start" x="68.5" y="-21.5" font-family="Helvetica,sans-Serif" font-size="10.00">user_data</text>
<text text-anchor="start" x="83.5" y="-6.5" font-family="Helvetica,sans-Serif" font-size="10.00"> </text>
<polygon fill="#666666" stroke="#666666" points="42.5,-61.5 42.5,-61.5 131.5,-61.5 131.5,-61.5 42.5,-61.5"/>
<polygon fill="#666666" stroke="#666666" points="42.5,-16.5 42.5,-16.5 66.5,-16.5 66.5,-16.5 42.5,-16.5"/>
<polygon fill="#666666" stroke="#666666" points="66.5,-16.5 66.5,-16.5 131.5,-16.5 131.5,-16.5 66.5,-16.5"/>
<polygon fill="none" stroke="#666666" points="42,0 42,-79 131,-79 131,0 42,0"/>
</a>
</g>
</g>
<!-- Node1&#45;&gt;Node1 -->
<g id="edge4_Node000001_Node000001" class="edge">
<title>Node1&#45;&gt;Node1</title>
<g id="a_edge4_Node000001_Node000001"><a xlink:title=" ">
<path fill="none" stroke="#63b8ff" d="M131.16,-50.87C141.45,-49.89 149,-46.1 149,-39.5 149,-35.89 146.74,-33.12 143.01,-31.19"/>
<polygon fill="none" stroke="#63b8ff" points="142.78,-31.13 135.97,-33.51 131.16,-28.13 137.97,-25.76 142.78,-31.13"/>
</a>
</g>
<text text-anchor="middle" x="175" y="-37" font-family="Helvetica,sans-Serif" font-size="10.00" fill="grey"> +callback</text>
</g>
<!-- Node2 -->
<g id="Node000002" class="node">
<title>Node2</title>
<g id="a_Node000002"><a xlink:href="structalarm__pool.html" target="_top" xlink:title=" ">
<polygon fill="white" stroke="transparent" points="163,-280 10,-280 10,-126 163,-126 163,-280"/>
<text text-anchor="start" x="59.5" y="-268" font-family="Helvetica,sans-Serif" font-size="10.00">alarm_pool</text>
<text text-anchor="start" x="14.5" y="-253" font-family="Helvetica,sans-Serif" font-size="10.00">+</text>
<text text-anchor="start" x="27.5" y="-253" font-family="Helvetica,sans-Serif" font-size="10.00">core_num</text>
<text text-anchor="start" x="14.5" y="-238" font-family="Helvetica,sans-Serif" font-size="10.00">+</text>
<text text-anchor="start" x="27.5" y="-238" font-family="Helvetica,sans-Serif" font-size="10.00">free_head</text>
<text text-anchor="start" x="14.5" y="-223" font-family="Helvetica,sans-Serif" font-size="10.00">+</text>
<text text-anchor="start" x="27.5" y="-223" font-family="Helvetica,sans-Serif" font-size="10.00">has_pending_cancellations</text>
<text text-anchor="start" x="14.5" y="-208" font-family="Helvetica,sans-Serif" font-size="10.00">+</text>
<text text-anchor="start" x="27.5" y="-208" font-family="Helvetica,sans-Serif" font-size="10.00">new_head</text>
<text text-anchor="start" x="14.5" y="-193" font-family="Helvetica,sans-Serif" font-size="10.00">+</text>
<text text-anchor="start" x="27.5" y="-193" font-family="Helvetica,sans-Serif" font-size="10.00">num_entries</text>
<text text-anchor="start" x="14.5" y="-178" font-family="Helvetica,sans-Serif" font-size="10.00">+</text>
<text text-anchor="start" x="27.5" y="-178" font-family="Helvetica,sans-Serif" font-size="10.00">ordered_head</text>
<text text-anchor="start" x="14.5" y="-163" font-family="Helvetica,sans-Serif" font-size="10.00">+</text>
<text text-anchor="start" x="27.5" y="-163" font-family="Helvetica,sans-Serif" font-size="10.00">timer</text>
<text text-anchor="start" x="14.5" y="-148" font-family="Helvetica,sans-Serif" font-size="10.00">+</text>
<text text-anchor="start" x="27.5" y="-148" font-family="Helvetica,sans-Serif" font-size="10.00">timer_alarm_num</text>
<text text-anchor="start" x="83.5" y="-133" font-family="Helvetica,sans-Serif" font-size="10.00"> </text>
<polygon fill="#666666" stroke="#666666" points="10.5,-263 10.5,-263 163.5,-263 163.5,-263 10.5,-263"/>
<polygon fill="#666666" stroke="#666666" points="10.5,-143 10.5,-143 25.5,-143 25.5,-143 10.5,-143"/>
<polygon fill="#666666" stroke="#666666" points="25.5,-143 25.5,-143 163.5,-143 163.5,-143 25.5,-143"/>
<polygon fill="none" stroke="#666666" points="10,-126 10,-280 163,-280 163,-126 10,-126"/>
</a>
</g>
</g>
<!-- Node2&#45;&gt;Node1 -->
<g id="edge1_Node000001_Node000002" class="edge">
<title>Node2&#45;&gt;Node1</title>
<g id="a_edge1_Node000001_Node000002"><a xlink:title=" ">
<path fill="none" stroke="#63b8ff" d="M86.5,-125.98C86.5,-114.21 86.5,-102.31 86.5,-91.27"/>
<polygon fill="none" stroke="#63b8ff" points="86.5,-91.24 82.5,-85.24 86.5,-79.24 90.5,-85.24 86.5,-91.24"/>
</a>
</g>
<text text-anchor="middle" x="103" y="-100" font-family="Helvetica,sans-Serif" font-size="10.00" fill="grey"> +pool</text>
</g>
<!-- Node3 -->
<g id="Node000003" class="node">
<title>Node3</title>
<g id="a_Node000003"><a xlink:title=" ">
<polygon fill="white" stroke="transparent" points="71,-406 0,-406 0,-357 71,-357 71,-406"/>
<text text-anchor="start" x="5.5" y="-393.5" font-family="Helvetica,sans-Serif" font-size="10.00">_spin_lock_t</text>
<text text-anchor="start" x="9" y="-378.5" font-family="Helvetica,sans-Serif" font-size="10.00">+</text>
<text text-anchor="start" x="26.5" y="-378.5" font-family="Helvetica,sans-Serif" font-size="10.00">locked</text>
<text text-anchor="start" x="32.5" y="-363.5" font-family="Helvetica,sans-Serif" font-size="10.00"> </text>
<polygon fill="#666666" stroke="#666666" points="0.5,-388.5 0.5,-388.5 71.5,-388.5 71.5,-388.5 0.5,-388.5"/>
<polygon fill="#666666" stroke="#666666" points="0.5,-373.5 0.5,-373.5 24.5,-373.5 24.5,-373.5 0.5,-373.5"/>
<polygon fill="#666666" stroke="#666666" points="24.5,-373.5 24.5,-373.5 71.5,-373.5 71.5,-373.5 24.5,-373.5"/>
<polygon fill="none" stroke="#666666" points="0,-357 0,-406 71,-406 71,-357 0,-357"/>
</a>
</g>
</g>
<!-- Node3&#45;&gt;Node2 -->
<g id="edge2_Node000002_Node000003" class="edge">
<title>Node3&#45;&gt;Node2</title>
<g id="a_edge2_Node000002_Node000003"><a xlink:title=" ">
<path fill="none" stroke="#63b8ff" d="M42.38,-356.7C47.28,-339.72 54.21,-315.73 61.13,-291.8"/>
<polygon fill="none" stroke="#63b8ff" points="61.19,-291.61 59.01,-284.73 64.52,-280.08 66.69,-286.96 61.19,-291.61"/>
</a>
</g>
<text text-anchor="middle" x="74.5" y="-301" font-family="Helvetica,sans-Serif" font-size="10.00" fill="grey"> +lock</text>
</g>
<!-- Node4 -->
<g id="Node000004" class="node">
<title>Node4</title>
<g id="a_Node000004"><a xlink:href="structalarm__pool__entry.html" target="_top" xlink:title=" ">
<polygon fill="white" stroke="transparent" points="185.5,-436 89.5,-436 89.5,-327 185.5,-327 185.5,-436"/>
<text text-anchor="start" x="94.5" y="-423.5" font-family="Helvetica,sans-Serif" font-size="10.00">alarm_pool_entry</text>
<text text-anchor="start" x="100" y="-408.5" font-family="Helvetica,sans-Serif" font-size="10.00">+</text>
<text text-anchor="start" x="119.5" y="-408.5" font-family="Helvetica,sans-Serif" font-size="10.00">callback</text>
<text text-anchor="start" x="100" y="-393.5" font-family="Helvetica,sans-Serif" font-size="10.00">+</text>
<text text-anchor="start" x="119.5" y="-393.5" font-family="Helvetica,sans-Serif" font-size="10.00">next</text>
<text text-anchor="start" x="100" y="-378.5" font-family="Helvetica,sans-Serif" font-size="10.00">+</text>
<text text-anchor="start" x="119.5" y="-378.5" font-family="Helvetica,sans-Serif" font-size="10.00">sequence</text>
<text text-anchor="start" x="100" y="-363.5" font-family="Helvetica,sans-Serif" font-size="10.00">+</text>
<text text-anchor="start" x="119.5" y="-363.5" font-family="Helvetica,sans-Serif" font-size="10.00">target</text>
<text text-anchor="start" x="100" y="-348.5" font-family="Helvetica,sans-Serif" font-size="10.00">+</text>
<text text-anchor="start" x="119.5" y="-348.5" font-family="Helvetica,sans-Serif" font-size="10.00">user_data</text>
<text text-anchor="start" x="134" y="-333.5" font-family="Helvetica,sans-Serif" font-size="10.00"> </text>
<polygon fill="#666666" stroke="#666666" points="89.5,-418.5 89.5,-418.5 185.5,-418.5 185.5,-418.5 89.5,-418.5"/>
<polygon fill="#666666" stroke="#666666" points="89.5,-343.5 89.5,-343.5 117.5,-343.5 117.5,-343.5 89.5,-343.5"/>
<polygon fill="#666666" stroke="#666666" points="117.5,-343.5 117.5,-343.5 185.5,-343.5 185.5,-343.5 117.5,-343.5"/>
<polygon fill="none" stroke="#666666" points="89.5,-327 89.5,-436 185.5,-436 185.5,-327 89.5,-327"/>
</a>
</g>
</g>
<!-- Node4&#45;&gt;Node2 -->
<g id="edge3_Node000002_Node000004" class="edge">
<title>Node4&#45;&gt;Node2</title>
<g id="a_edge3_Node000002_Node000004"><a xlink:title=" ">
<path fill="none" stroke="#63b8ff" d="M121.92,-326.59C118.74,-315.56 115.31,-303.69 111.88,-291.83"/>
<polygon fill="none" stroke="#63b8ff" points="111.79,-291.53 106.28,-286.87 108.46,-280 113.97,-284.65 111.79,-291.53"/>
</a>
</g>
<text text-anchor="middle" x="139.5" y="-301" font-family="Helvetica,sans-Serif" font-size="10.00" fill="grey"> +entries</text>
</g>
</g>
</svg>
