<?xml version="1.0" encoding="UTF-8" standalone="no"?>
<!DOCTYPE svg PUBLIC "-//W3C//DTD SVG 1.1//EN"
 "http://www.w3.org/Graphics/SVG/1.1/DTD/svg11.dtd">
<!-- Generated by graphviz version 2.43.0 (0)
 -->
<!-- Title: pwm_hw_t Pages: 1 -->
<svg width="220pt" height="348pt"
 viewBox="0.00 0.00 219.50 348.00" xmlns="http://www.w3.org/2000/svg" xmlns:xlink="http://www.w3.org/1999/xlink">
<g id="graph0" class="graph" transform="scale(1 1) rotate(0) translate(4 344)">
<title>pwm_hw_t</title>
<!-- Node1 -->
<g id="Node000001" class="node">
<title>Node1</title>
<g id="a_Node000001"><a xlink:title=" ">
<polygon fill="#999999" stroke="transparent" points="134,-184 71,-184 71,0 134,0 134,-184"/>
<text text-anchor="start" x="76.5" y="-172" font-family="Helvetica,sans-Serif" font-size="10.00">pwm_hw_t</text>
<text text-anchor="start" x="79.5" y="-157" font-family="Helvetica,sans-Serif" font-size="10.00">+</text>
<text text-anchor="start" x="96.5" y="-157" font-family="Helvetica,sans-Serif" font-size="10.00">@31</text>
<text text-anchor="start" x="79.5" y="-142" font-family="Helvetica,sans-Serif" font-size="10.00">+</text>
<text text-anchor="start" x="96.5" y="-142" font-family="Helvetica,sans-Serif" font-size="10.00">@63</text>
<text text-anchor="start" x="79.5" y="-127" font-family="Helvetica,sans-Serif" font-size="10.00">+</text>
<text text-anchor="start" x="96.5" y="-127" font-family="Helvetica,sans-Serif" font-size="10.00">en</text>
<text text-anchor="start" x="79.5" y="-112" font-family="Helvetica,sans-Serif" font-size="10.00">+</text>
<text text-anchor="start" x="96.5" y="-112" font-family="Helvetica,sans-Serif" font-size="10.00">inte</text>
<text text-anchor="start" x="79.5" y="-97" font-family="Helvetica,sans-Serif" font-size="10.00">+</text>
<text text-anchor="start" x="96.5" y="-97" font-family="Helvetica,sans-Serif" font-size="10.00">inte1</text>
<text text-anchor="start" x="79.5" y="-82" font-family="Helvetica,sans-Serif" font-size="10.00">+</text>
<text text-anchor="start" x="96.5" y="-82" font-family="Helvetica,sans-Serif" font-size="10.00">intf</text>
<text text-anchor="start" x="79.5" y="-67" font-family="Helvetica,sans-Serif" font-size="10.00">+</text>
<text text-anchor="start" x="96.5" y="-67" font-family="Helvetica,sans-Serif" font-size="10.00">intf1</text>
<text text-anchor="start" x="79.5" y="-52" font-family="Helvetica,sans-Serif" font-size="10.00">+</text>
<text text-anchor="start" x="96.5" y="-52" font-family="Helvetica,sans-Serif" font-size="10.00">intr</text>
<text text-anchor="start" x="79.5" y="-37" font-family="Helvetica,sans-Serif" font-size="10.00">+</text>
<text text-anchor="start" x="96.5" y="-37" font-family="Helvetica,sans-Serif" font-size="10.00">ints</text>
<text text-anchor="start" x="79.5" y="-22" font-family="Helvetica,sans-Serif" font-size="10.00">+</text>
<text text-anchor="start" x="96.5" y="-22" font-family="Helvetica,sans-Serif" font-size="10.00">ints1</text>
<text text-anchor="start" x="99.5" y="-7" font-family="Helvetica,sans-Serif" font-size="10.00"> </text>
<polygon fill="#666666" stroke="#666666" points="71.5,-167 71.5,-167 134.5,-167 134.5,-167 71.5,-167"/>
<polygon fill="#666666" stroke="#666666" points="71.5,-17 71.5,-17 94.5,-17 94.5,-17 71.5,-17"/>
<polygon fill="#666666" stroke="#666666" points="94.5,-17 94.5,-17 134.5,-17 134.5,-17 94.5,-17"/>
<polygon fill="none" stroke="#666666" points="71,0 71,-184 134,-184 134,0 71,0"/>
</a>
</g>
</g>
<!-- Node2 -->
<g id="Node000002" class="node">
<title>Node2</title>
<g id="a_Node000002"><a xlink:href="structpwm__slice__hw__t.html" target="_top" xlink:title=" ">
<polygon fill="white" stroke="transparent" points="91,-340 0,-340 0,-231 91,-231 91,-340"/>
<text text-anchor="start" x="5.5" y="-327.5" font-family="Helvetica,sans-Serif" font-size="10.00">pwm_slice_hw_t</text>
<text text-anchor="start" x="18" y="-312.5" font-family="Helvetica,sans-Serif" font-size="10.00">+</text>
<text text-anchor="start" x="44.5" y="-312.5" font-family="Helvetica,sans-Serif" font-size="10.00">cc</text>
<text text-anchor="start" x="18" y="-297.5" font-family="Helvetica,sans-Serif" font-size="10.00">+</text>
<text text-anchor="start" x="44.5" y="-297.5" font-family="Helvetica,sans-Serif" font-size="10.00">csr</text>
<text text-anchor="start" x="18" y="-282.5" font-family="Helvetica,sans-Serif" font-size="10.00">+</text>
<text text-anchor="start" x="44.5" y="-282.5" font-family="Helvetica,sans-Serif" font-size="10.00">ctr</text>
<text text-anchor="start" x="18" y="-267.5" font-family="Helvetica,sans-Serif" font-size="10.00">+</text>
<text text-anchor="start" x="44.5" y="-267.5" font-family="Helvetica,sans-Serif" font-size="10.00">div</text>
<text text-anchor="start" x="18" y="-252.5" font-family="Helvetica,sans-Serif" font-size="10.00">+</text>
<text text-anchor="start" x="44.5" y="-252.5" font-family="Helvetica,sans-Serif" font-size="10.00">top</text>
<text text-anchor="start" x="42.5" y="-237.5" font-family="Helvetica,sans-Serif" font-size="10.00"> </text>
<polygon fill="#666666" stroke="#666666" points="0.5,-322.5 0.5,-322.5 91.5,-322.5 91.5,-322.5 0.5,-322.5"/>
<polygon fill="#666666" stroke="#666666" points="0.5,-247.5 0.5,-247.5 42.5,-247.5 42.5,-247.5 0.5,-247.5"/>
<polygon fill="#666666" stroke="#666666" points="42.5,-247.5 42.5,-247.5 91.5,-247.5 91.5,-247.5 42.5,-247.5"/>
<polygon fill="none" stroke="#666666" points="0,-231 0,-340 91,-340 91,-231 0,-231"/>
</a>
</g>
</g>
<!-- Node2&#45;&gt;Node1 -->
<g id="edge1_Node000001_Node000002" class="edge">
<title>Node2&#45;&gt;Node1</title>
<g id="a_edge1_Node000001_Node000002"><a xlink:title=" ">
<path fill="none" stroke="#63b8ff" d="M61.45,-230.9C64.72,-219.92 68.27,-208.01 71.86,-195.95"/>
<polygon fill="none" stroke="#63b8ff" points="71.88,-195.86 69.76,-188.97 75.31,-184.36 77.43,-191.25 71.88,-195.86"/>
</a>
</g>
<text text-anchor="middle" x="86.5" y="-205" font-family="Helvetica,sans-Serif" font-size="10.00" fill="grey"> +slice</text>
</g>
<!-- Node3 -->
<g id="Node000003" class="node">
<title>Node3</title>
<g id="a_Node000003"><a xlink:href="structpwm__irq__ctrl__hw__t.html" target="_top" xlink:title=" ">
<polygon fill="white" stroke="transparent" points="211.5,-325 109.5,-325 109.5,-246 211.5,-246 211.5,-325"/>
<text text-anchor="start" x="114.5" y="-312.5" font-family="Helvetica,sans-Serif" font-size="10.00">pwm_irq_ctrl_hw_t</text>
<text text-anchor="start" x="129" y="-297.5" font-family="Helvetica,sans-Serif" font-size="10.00">+</text>
<text text-anchor="start" x="157.5" y="-297.5" font-family="Helvetica,sans-Serif" font-size="10.00">inte</text>
<text text-anchor="start" x="129" y="-282.5" font-family="Helvetica,sans-Serif" font-size="10.00">+</text>
<text text-anchor="start" x="157.5" y="-282.5" font-family="Helvetica,sans-Serif" font-size="10.00">intf</text>
<text text-anchor="start" x="129" y="-267.5" font-family="Helvetica,sans-Serif" font-size="10.00">+</text>
<text text-anchor="start" x="157.5" y="-267.5" font-family="Helvetica,sans-Serif" font-size="10.00">ints</text>
<text text-anchor="start" x="157" y="-252.5" font-family="Helvetica,sans-Serif" font-size="10.00"> </text>
<polygon fill="#666666" stroke="#666666" points="109.5,-307.5 109.5,-307.5 211.5,-307.5 211.5,-307.5 109.5,-307.5"/>
<polygon fill="#666666" stroke="#666666" points="109.5,-262.5 109.5,-262.5 155.5,-262.5 155.5,-262.5 109.5,-262.5"/>
<polygon fill="#666666" stroke="#666666" points="155.5,-262.5 155.5,-262.5 211.5,-262.5 211.5,-262.5 155.5,-262.5"/>
<polygon fill="none" stroke="#666666" points="109.5,-246 109.5,-325 211.5,-325 211.5,-246 109.5,-246"/>
</a>
</g>
</g>
<!-- Node3&#45;&gt;Node1 -->
<g id="edge2_Node000001_Node000003" class="edge">
<title>Node3&#45;&gt;Node1</title>
<g id="a_edge2_Node000001_Node000003"><a xlink:title=" ">
<path fill="none" stroke="#63b8ff" d="M148.76,-245.75C144.34,-231.13 139.07,-213.74 133.7,-196"/>
<polygon fill="none" stroke="#63b8ff" points="133.64,-195.81 128.07,-191.23 130.16,-184.33 135.73,-188.91 133.64,-195.81"/>
</a>
</g>
<text text-anchor="middle" x="160.5" y="-205" font-family="Helvetica,sans-Serif" font-size="10.00" fill="grey"> +irq_ctrl</text>
</g>
</g>
</svg>
