<?xml version="1.0" encoding="UTF-8" standalone="no"?>
<!DOCTYPE svg PUBLIC "-//W3C//DTD SVG 1.1//EN"
 "http://www.w3.org/Graphics/SVG/1.1/DTD/svg11.dtd">
<!-- Generated by graphviz version 2.43.0 (0)
 -->
<!-- Title: recursive_mutex_t Pages: 1 -->
<svg width="117pt" height="264pt"
 viewBox="0.00 0.00 116.50 264.00" xmlns="http://www.w3.org/2000/svg" xmlns:xlink="http://www.w3.org/1999/xlink">
<g id="graph0" class="graph" transform="scale(1 1) rotate(0) translate(4 260)">
<title>recursive_mutex_t</title>
<!-- Node1 -->
<g id="Node000001" class="node">
<title>Node1</title>
<g id="a_Node000001"><a xlink:title="recursive mutex instance">
<polygon fill="#999999" stroke="transparent" points="101,-64 0,-64 0,0 101,0 101,-64"/>
<text text-anchor="start" x="5.5" y="-52" font-family="Helvetica,sans-Serif" font-size="10.00">recursive_mutex_t</text>
<text text-anchor="start" x="10" y="-37" font-family="Helvetica,sans-Serif" font-size="10.00">+</text>
<text text-anchor="start" x="28.5" y="-37" font-family="Helvetica,sans-Serif" font-size="10.00">enter_count</text>
<text text-anchor="start" x="10" y="-22" font-family="Helvetica,sans-Serif" font-size="10.00">+</text>
<text text-anchor="start" x="28.5" y="-22" font-family="Helvetica,sans-Serif" font-size="10.00">owner</text>
<text text-anchor="start" x="47.5" y="-7" font-family="Helvetica,sans-Serif" font-size="10.00"> </text>
<polygon fill="#666666" stroke="#666666" points="0.5,-47 0.5,-47 101.5,-47 101.5,-47 0.5,-47"/>
<polygon fill="#666666" stroke="#666666" points="0.5,-17 0.5,-17 26.5,-17 26.5,-17 0.5,-17"/>
<polygon fill="#666666" stroke="#666666" points="26.5,-17 26.5,-17 101.5,-17 101.5,-17 26.5,-17"/>
<polygon fill="none" stroke="#666666" points="0,0 0,-64 101,-64 101,0 0,0"/>
</a>
</g>
</g>
<!-- Node2 -->
<g id="Node000002" class="node">
<title>Node2</title>
<g id="a_Node000002"><a xlink:href="structlock__core.html" target="_top" xlink:title=" ">
<polygon fill="white" stroke="transparent" points="79,-160 22,-160 22,-111 79,-111 79,-160"/>
<text text-anchor="start" x="27.5" y="-147.5" font-family="Helvetica,sans-Serif" font-size="10.00">lock_core</text>
<text text-anchor="start" x="47.5" y="-132.5" font-family="Helvetica,sans-Serif" font-size="10.00"> </text>
<text text-anchor="start" x="47.5" y="-117.5" font-family="Helvetica,sans-Serif" font-size="10.00"> </text>
<polygon fill="#666666" stroke="#666666" points="22.5,-142.5 22.5,-142.5 79.5,-142.5 79.5,-142.5 22.5,-142.5"/>
<polygon fill="#666666" stroke="#666666" points="22.5,-127.5 22.5,-127.5 79.5,-127.5 79.5,-127.5 22.5,-127.5"/>
<polygon fill="none" stroke="#666666" points="22,-111 22,-160 79,-160 79,-111 22,-111"/>
</a>
</g>
</g>
<!-- Node2&#45;&gt;Node1 -->
<g id="edge1_Node000001_Node000002" class="edge">
<title>Node2&#45;&gt;Node1</title>
<g id="a_edge1_Node000001_Node000002"><a xlink:title=" ">
<path fill="none" stroke="#63b8ff" d="M50.5,-110.96C50.5,-100.61 50.5,-88.13 50.5,-76.21"/>
<polygon fill="none" stroke="#63b8ff" points="50.5,-76.11 46.5,-70.11 50.5,-64.11 54.5,-70.11 50.5,-76.11"/>
</a>
</g>
<text text-anchor="middle" x="67" y="-85" font-family="Helvetica,sans-Serif" font-size="10.00" fill="grey"> +core</text>
</g>
<!-- Node3 -->
<g id="Node000003" class="node">
<title>Node3</title>
<g id="a_Node000003"><a xlink:title=" ">
<polygon fill="white" stroke="transparent" points="86,-256 15,-256 15,-207 86,-207 86,-256"/>
<text text-anchor="start" x="20.5" y="-243.5" font-family="Helvetica,sans-Serif" font-size="10.00">_spin_lock_t</text>
<text text-anchor="start" x="24" y="-228.5" font-family="Helvetica,sans-Serif" font-size="10.00">+</text>
<text text-anchor="start" x="41.5" y="-228.5" font-family="Helvetica,sans-Serif" font-size="10.00">locked</text>
<text text-anchor="start" x="47.5" y="-213.5" font-family="Helvetica,sans-Serif" font-size="10.00"> </text>
<polygon fill="#666666" stroke="#666666" points="15.5,-238.5 15.5,-238.5 86.5,-238.5 86.5,-238.5 15.5,-238.5"/>
<polygon fill="#666666" stroke="#666666" points="15.5,-223.5 15.5,-223.5 39.5,-223.5 39.5,-223.5 15.5,-223.5"/>
<polygon fill="#666666" stroke="#666666" points="39.5,-223.5 39.5,-223.5 86.5,-223.5 86.5,-223.5 39.5,-223.5"/>
<polygon fill="none" stroke="#666666" points="15,-207 15,-256 86,-256 86,-207 15,-207"/>
</a>
</g>
</g>
<!-- Node3&#45;&gt;Node2 -->
<g id="edge2_Node000002_Node000003" class="edge">
<title>Node3&#45;&gt;Node2</title>
<g id="a_edge2_Node000002_Node000003"><a xlink:title=" ">
<path fill="none" stroke="#63b8ff" d="M50.5,-206.78C50.5,-196.32 50.5,-183.79 50.5,-172.23"/>
<polygon fill="none" stroke="#63b8ff" points="50.5,-172.21 46.5,-166.21 50.5,-160.21 54.5,-166.21 50.5,-172.21"/>
</a>
</g>
<text text-anchor="middle" x="79.5" y="-181" font-family="Helvetica,sans-Serif" font-size="10.00" fill="grey"> +spin_lock</text>
</g>
</g>
</svg>
