<?xml version="1.0" encoding="UTF-8" standalone="no"?>
<!DOCTYPE svg PUBLIC "-//W3C//DTD SVG 1.1//EN"
 "http://www.w3.org/Graphics/SVG/1.1/DTD/svg11.dtd">
<!-- Generated by graphviz version 2.43.0 (0)
 -->
<!-- Title: program Pages: 1 -->
<svg width="585pt" height="1248pt"
 viewBox="0.00 0.00 585.16 1248.00" xmlns="http://www.w3.org/2000/svg" xmlns:xlink="http://www.w3.org/1999/xlink">
<g id="graph0" class="graph" transform="scale(1 1) rotate(0) translate(4 1244)">
<title>program</title>
<!-- Node1 -->
<g id="Node000001" class="node">
<title>Node1</title>
<g id="a_Node000001"><a xlink:title=" ">
<polygon fill="#999999" stroke="transparent" points="342.66,-379 219.66,-379 219.66,0 342.66,0 342.66,-379"/>
<text text-anchor="start" x="260.66" y="-366.5" font-family="Helvetica,sans-Serif" font-size="10.00">program</text>
<text text-anchor="start" x="224.16" y="-351.5" font-family="Helvetica,sans-Serif" font-size="10.00">+</text>
<text text-anchor="start" x="237.16" y="-351.5" font-family="Helvetica,sans-Serif" font-size="10.00">clock_div_frac</text>
<text text-anchor="start" x="224.16" y="-336.5" font-family="Helvetica,sans-Serif" font-size="10.00">+</text>
<text text-anchor="start" x="237.16" y="-336.5" font-family="Helvetica,sans-Serif" font-size="10.00">clock_div_int</text>
<text text-anchor="start" x="224.16" y="-321.5" font-family="Helvetica,sans-Serif" font-size="10.00">+</text>
<text text-anchor="start" x="237.16" y="-321.5" font-family="Helvetica,sans-Serif" font-size="10.00">code_blocks</text>
<text text-anchor="start" x="224.16" y="-306.5" font-family="Helvetica,sans-Serif" font-size="10.00">+</text>
<text text-anchor="start" x="237.16" y="-306.5" font-family="Helvetica,sans-Serif" font-size="10.00">delay_max</text>
<text text-anchor="start" x="224.16" y="-291.5" font-family="Helvetica,sans-Serif" font-size="10.00">+</text>
<text text-anchor="start" x="237.16" y="-291.5" font-family="Helvetica,sans-Serif" font-size="10.00">fifo</text>
<text text-anchor="start" x="224.16" y="-276.5" font-family="Helvetica,sans-Serif" font-size="10.00">+</text>
<text text-anchor="start" x="237.16" y="-276.5" font-family="Helvetica,sans-Serif" font-size="10.00">final_in_count</text>
<text text-anchor="start" x="224.16" y="-261.5" font-family="Helvetica,sans-Serif" font-size="10.00">+</text>
<text text-anchor="start" x="237.16" y="-261.5" font-family="Helvetica,sans-Serif" font-size="10.00">final_n</text>
<text text-anchor="start" x="224.16" y="-246.5" font-family="Helvetica,sans-Serif" font-size="10.00">+</text>
<text text-anchor="start" x="237.16" y="-246.5" font-family="Helvetica,sans-Serif" font-size="10.00">final_out_count</text>
<text text-anchor="start" x="224.16" y="-231.5" font-family="Helvetica,sans-Serif" font-size="10.00">+</text>
<text text-anchor="start" x="237.16" y="-231.5" font-family="Helvetica,sans-Serif" font-size="10.00">final_set_count</text>
<text text-anchor="start" x="224.16" y="-216.5" font-family="Helvetica,sans-Serif" font-size="10.00">+</text>
<text text-anchor="start" x="237.16" y="-216.5" font-family="Helvetica,sans-Serif" font-size="10.00">instructions</text>
<text text-anchor="start" x="237.16" y="-201.5" font-family="Helvetica,sans-Serif" font-size="10.00">e 16 mais...</text>
<text text-anchor="start" x="224.16" y="-186.5" font-family="Helvetica,sans-Serif" font-size="10.00">+</text>
<text text-anchor="start" x="237.16" y="-186.5" font-family="Helvetica,sans-Serif" font-size="10.00">MAX_INSTRUCTIONS</text>
<text text-anchor="start" x="224.16" y="-171.5" font-family="Helvetica,sans-Serif" font-size="10.00">+</text>
<text text-anchor="start" x="237.16" y="-171.5" font-family="Helvetica,sans-Serif" font-size="10.00">add_code_block()</text>
<text text-anchor="start" x="224.16" y="-156.5" font-family="Helvetica,sans-Serif" font-size="10.00">+</text>
<text text-anchor="start" x="237.16" y="-156.5" font-family="Helvetica,sans-Serif" font-size="10.00">add_instruction()</text>
<text text-anchor="start" x="224.16" y="-141.5" font-family="Helvetica,sans-Serif" font-size="10.00">+</text>
<text text-anchor="start" x="237.16" y="-141.5" font-family="Helvetica,sans-Serif" font-size="10.00">add_label()</text>
<text text-anchor="start" x="224.16" y="-126.5" font-family="Helvetica,sans-Serif" font-size="10.00">+</text>
<text text-anchor="start" x="237.16" y="-126.5" font-family="Helvetica,sans-Serif" font-size="10.00">add_lang_opt()</text>
<text text-anchor="start" x="224.16" y="-111.5" font-family="Helvetica,sans-Serif" font-size="10.00">+</text>
<text text-anchor="start" x="237.16" y="-111.5" font-family="Helvetica,sans-Serif" font-size="10.00">add_symbol()</text>
<text text-anchor="start" x="224.16" y="-96.5" font-family="Helvetica,sans-Serif" font-size="10.00">+</text>
<text text-anchor="start" x="237.16" y="-96.5" font-family="Helvetica,sans-Serif" font-size="10.00">finalize()</text>
<text text-anchor="start" x="224.16" y="-81.5" font-family="Helvetica,sans-Serif" font-size="10.00">+</text>
<text text-anchor="start" x="237.16" y="-81.5" font-family="Helvetica,sans-Serif" font-size="10.00">program()</text>
<text text-anchor="start" x="224.16" y="-66.5" font-family="Helvetica,sans-Serif" font-size="10.00">+</text>
<text text-anchor="start" x="237.16" y="-66.5" font-family="Helvetica,sans-Serif" font-size="10.00">set_clock_div()</text>
<text text-anchor="start" x="224.16" y="-51.5" font-family="Helvetica,sans-Serif" font-size="10.00">+</text>
<text text-anchor="start" x="237.16" y="-51.5" font-family="Helvetica,sans-Serif" font-size="10.00">set_fifo_config()</text>
<text text-anchor="start" x="224.16" y="-36.5" font-family="Helvetica,sans-Serif" font-size="10.00">+</text>
<text text-anchor="start" x="237.16" y="-36.5" font-family="Helvetica,sans-Serif" font-size="10.00">set_in()</text>
<text text-anchor="start" x="237.16" y="-21.5" font-family="Helvetica,sans-Serif" font-size="10.00">e 8 mais...</text>
<text text-anchor="start" x="224.16" y="-6.5" font-family="Helvetica,sans-Serif" font-size="10.00">#</text>
<text text-anchor="start" x="237.16" y="-6.5" font-family="Helvetica,sans-Serif" font-size="10.00">init_pio_version()</text>
<polygon fill="#666666" stroke="#666666" points="220.16,-361.5 220.16,-361.5 343.16,-361.5 343.16,-361.5 220.16,-361.5"/>
<polygon fill="#666666" stroke="#666666" points="220.16,-181.5 220.16,-181.5 235.16,-181.5 235.16,-181.5 220.16,-181.5"/>
<polygon fill="#666666" stroke="#666666" points="235.16,-181.5 235.16,-181.5 343.16,-181.5 343.16,-181.5 235.16,-181.5"/>
<polygon fill="none" stroke="#666666" points="219.66,0 219.66,-379 342.66,-379 342.66,0 219.66,0"/>
</a>
</g>
</g>
<!-- Node2 -->
<g id="Node000002" class="node">
<title>Node2</title>
<g id="a_Node000002"><a xlink:href="structsrc__item.html" target="_top" xlink:title=" ">
<polygon fill="white" stroke="transparent" points="178.66,-654.5 107.66,-654.5 107.66,-590.5 178.66,-590.5 178.66,-654.5"/>
<text text-anchor="start" x="122.16" y="-642.5" font-family="Helvetica,sans-Serif" font-size="10.00">src_item</text>
<text text-anchor="start" x="140.16" y="-627.5" font-family="Helvetica,sans-Serif" font-size="10.00"> </text>
<text text-anchor="start" x="112.16" y="-612.5" font-family="Helvetica,sans-Serif" font-size="10.00">+</text>
<text text-anchor="start" x="125.16" y="-612.5" font-family="Helvetica,sans-Serif" font-size="10.00">src_item()</text>
<text text-anchor="start" x="112.16" y="-597.5" font-family="Helvetica,sans-Serif" font-size="10.00">+</text>
<text text-anchor="start" x="125.16" y="-597.5" font-family="Helvetica,sans-Serif" font-size="10.00">src_item()</text>
<polygon fill="#666666" stroke="#666666" points="108.16,-637.5 108.16,-637.5 179.16,-637.5 179.16,-637.5 108.16,-637.5"/>
<polygon fill="#666666" stroke="#666666" points="108.16,-622.5 108.16,-622.5 179.16,-622.5 179.16,-622.5 108.16,-622.5"/>
<polygon fill="none" stroke="#666666" points="107.66,-590.5 107.66,-654.5 178.66,-654.5 178.66,-590.5 107.66,-590.5"/>
</a>
</g>
</g>
<!-- Node2&#45;&gt;Node1 -->
<g id="edge1_Node000001_Node000002" class="edge">
<title>Node2&#45;&gt;Node1</title>
<g id="a_edge1_Node000001_Node000002"><a xlink:title=" ">
<path fill="none" stroke="#63b8ff" d="M152.38,-580.25C160.57,-544.89 173.36,-492.73 187.16,-448 196.88,-416.51 208.21,-383.21 219.58,-351.39"/>
<polygon fill="none" stroke="#63b8ff" points="148.92,-579.68 150.09,-590.21 155.74,-581.25 148.92,-579.68"/>
</a>
</g>
</g>
<!-- Node3 -->
<g id="Node000003" class="node">
<title>Node3</title>
<g id="a_Node000003"><a xlink:href="classyy_1_1location.html" target="_top" xlink:title="Two points in a source file.">
<polygon fill="white" stroke="transparent" points="316.66,-1028 245.66,-1028 245.66,-844 316.66,-844 316.66,-1028"/>
<text text-anchor="start" x="253.16" y="-1016" font-family="Helvetica,sans-Serif" font-size="10.00">yy::location</text>
<text text-anchor="start" x="278.16" y="-1001" font-family="Helvetica,sans-Serif" font-size="10.00"> </text>
<text text-anchor="start" x="250.16" y="-986" font-family="Helvetica,sans-Serif" font-size="10.00">+</text>
<text text-anchor="start" x="263.16" y="-986" font-family="Helvetica,sans-Serif" font-size="10.00">initialize()</text>
<text text-anchor="start" x="250.16" y="-971" font-family="Helvetica,sans-Serif" font-size="10.00">+</text>
<text text-anchor="start" x="263.16" y="-971" font-family="Helvetica,sans-Serif" font-size="10.00">location()</text>
<text text-anchor="start" x="250.16" y="-956" font-family="Helvetica,sans-Serif" font-size="10.00">+</text>
<text text-anchor="start" x="263.16" y="-956" font-family="Helvetica,sans-Serif" font-size="10.00">location()</text>
<text text-anchor="start" x="250.16" y="-941" font-family="Helvetica,sans-Serif" font-size="10.00">+</text>
<text text-anchor="start" x="263.16" y="-941" font-family="Helvetica,sans-Serif" font-size="10.00">location()</text>
<text text-anchor="start" x="250.16" y="-926" font-family="Helvetica,sans-Serif" font-size="10.00">+</text>
<text text-anchor="start" x="263.16" y="-926" font-family="Helvetica,sans-Serif" font-size="10.00">step()</text>
<text text-anchor="start" x="250.16" y="-911" font-family="Helvetica,sans-Serif" font-size="10.00">+</text>
<text text-anchor="start" x="263.16" y="-911" font-family="Helvetica,sans-Serif" font-size="10.00">columns()</text>
<text text-anchor="start" x="250.16" y="-896" font-family="Helvetica,sans-Serif" font-size="10.00">+</text>
<text text-anchor="start" x="263.16" y="-896" font-family="Helvetica,sans-Serif" font-size="10.00">lines()</text>
<text text-anchor="start" x="251.66" y="-881" font-family="Helvetica,sans-Serif" font-size="10.00">*</text>
<text text-anchor="start" x="263.16" y="-881" font-family="Helvetica,sans-Serif" font-size="10.00">step()</text>
<text text-anchor="start" x="251.66" y="-866" font-family="Helvetica,sans-Serif" font-size="10.00">*</text>
<text text-anchor="start" x="263.16" y="-866" font-family="Helvetica,sans-Serif" font-size="10.00">columns()</text>
<text text-anchor="start" x="251.66" y="-851" font-family="Helvetica,sans-Serif" font-size="10.00">*</text>
<text text-anchor="start" x="263.16" y="-851" font-family="Helvetica,sans-Serif" font-size="10.00">lines()</text>
<polygon fill="#666666" stroke="#666666" points="246.16,-1011 246.16,-1011 317.16,-1011 317.16,-1011 246.16,-1011"/>
<polygon fill="#666666" stroke="#666666" points="246.16,-996 246.16,-996 317.16,-996 317.16,-996 246.16,-996"/>
<polygon fill="none" stroke="#666666" points="245.66,-844 245.66,-1028 316.66,-1028 316.66,-844 245.66,-844"/>
</a>
</g>
</g>
<!-- Node3&#45;&gt;Node1 -->
<g id="edge10_Node000001_Node000003" class="edge">
<title>Node3&#45;&gt;Node1</title>
<g id="a_edge10_Node000001_Node000003"><a xlink:title=" ">
<path fill="none" stroke="#63b8ff" d="M245.38,-925.74C191.72,-909.71 92.24,-871.15 50.16,-797 -26.39,-662.1 -5.29,-592.86 50.16,-448 82.08,-364.63 154.82,-291.25 210.21,-244.38"/>
<polygon fill="none" stroke="#63b8ff" points="210.42,-244.2 212.46,-237.29 219.63,-236.52 217.59,-243.43 210.42,-244.2"/>
</a>
</g>
<text text-anchor="middle" x="74.16" y="-620" font-family="Helvetica,sans-Serif" font-size="10.00" fill="grey"> +fifo_loc</text>
</g>
<!-- Node3&#45;&gt;Node2 -->
<g id="edge2_Node000002_Node000003" class="edge">
<title>Node3&#45;&gt;Node2</title>
<g id="a_edge2_Node000002_Node000003"><a xlink:title=" ">
<path fill="none" stroke="#63b8ff" d="M245.59,-891.37C225.9,-865.33 202.4,-830.83 187.16,-797 168.1,-754.67 156.3,-702.66 149.78,-666.69"/>
<polygon fill="none" stroke="#63b8ff" points="149.75,-666.49 144.78,-661.27 147.69,-654.67 152.66,-659.9 149.75,-666.49"/>
</a>
</g>
<text text-anchor="middle" x="227.66" y="-818" font-family="Helvetica,sans-Serif" font-size="10.00" fill="grey"> +location</text>
</g>
<!-- Node5 -->
<g id="Node000005" class="node">
<title>Node5</title>
<g id="a_Node000005"><a xlink:href="structpio__assembler.html" target="_top" xlink:title=" ">
<polygon fill="white" stroke="transparent" points="365.66,-797 196.66,-797 196.66,-448 365.66,-448 365.66,-797"/>
<text text-anchor="start" x="245.66" y="-784.5" font-family="Helvetica,sans-Serif" font-size="10.00">pio_assembler</text>
<text text-anchor="start" x="201.16" y="-769.5" font-family="Helvetica,sans-Serif" font-size="10.00">+</text>
<text text-anchor="start" x="214.16" y="-769.5" font-family="Helvetica,sans-Serif" font-size="10.00">default_pio_version</text>
<text text-anchor="start" x="201.16" y="-754.5" font-family="Helvetica,sans-Serif" font-size="10.00">+</text>
<text text-anchor="start" x="214.16" y="-754.5" font-family="Helvetica,sans-Serif" font-size="10.00">dest</text>
<text text-anchor="start" x="201.16" y="-739.5" font-family="Helvetica,sans-Serif" font-size="10.00">+</text>
<text text-anchor="start" x="214.16" y="-739.5" font-family="Helvetica,sans-Serif" font-size="10.00">dummy_global_program</text>
<text text-anchor="start" x="201.16" y="-724.5" font-family="Helvetica,sans-Serif" font-size="10.00">+</text>
<text text-anchor="start" x="214.16" y="-724.5" font-family="Helvetica,sans-Serif" font-size="10.00">error_count</text>
<text text-anchor="start" x="201.16" y="-709.5" font-family="Helvetica,sans-Serif" font-size="10.00">+</text>
<text text-anchor="start" x="214.16" y="-709.5" font-family="Helvetica,sans-Serif" font-size="10.00">format</text>
<text text-anchor="start" x="201.16" y="-694.5" font-family="Helvetica,sans-Serif" font-size="10.00">+</text>
<text text-anchor="start" x="214.16" y="-694.5" font-family="Helvetica,sans-Serif" font-size="10.00">options</text>
<text text-anchor="start" x="201.16" y="-679.5" font-family="Helvetica,sans-Serif" font-size="10.00">+</text>
<text text-anchor="start" x="214.16" y="-679.5" font-family="Helvetica,sans-Serif" font-size="10.00">programs</text>
<text text-anchor="start" x="201.16" y="-664.5" font-family="Helvetica,sans-Serif" font-size="10.00">+</text>
<text text-anchor="start" x="214.16" y="-664.5" font-family="Helvetica,sans-Serif" font-size="10.00">source</text>
<text text-anchor="start" x="201.16" y="-649.5" font-family="Helvetica,sans-Serif" font-size="10.00">+</text>
<text text-anchor="start" x="214.16" y="-649.5" font-family="Helvetica,sans-Serif" font-size="10.00">add_program()</text>
<text text-anchor="start" x="201.16" y="-634.5" font-family="Helvetica,sans-Serif" font-size="10.00">+</text>
<text text-anchor="start" x="214.16" y="-634.5" font-family="Helvetica,sans-Serif" font-size="10.00">check_version()</text>
<text text-anchor="start" x="201.16" y="-619.5" font-family="Helvetica,sans-Serif" font-size="10.00">+</text>
<text text-anchor="start" x="214.16" y="-619.5" font-family="Helvetica,sans-Serif" font-size="10.00">generate()</text>
<text text-anchor="start" x="201.16" y="-604.5" font-family="Helvetica,sans-Serif" font-size="10.00">+</text>
<text text-anchor="start" x="214.16" y="-604.5" font-family="Helvetica,sans-Serif" font-size="10.00">get_current_pio_version()</text>
<text text-anchor="start" x="201.16" y="-589.5" font-family="Helvetica,sans-Serif" font-size="10.00">+</text>
<text text-anchor="start" x="214.16" y="-589.5" font-family="Helvetica,sans-Serif" font-size="10.00">get_current_program()</text>
<text text-anchor="start" x="201.16" y="-574.5" font-family="Helvetica,sans-Serif" font-size="10.00">+</text>
<text text-anchor="start" x="214.16" y="-574.5" font-family="Helvetica,sans-Serif" font-size="10.00">get_default_pio_version()</text>
<text text-anchor="start" x="201.16" y="-559.5" font-family="Helvetica,sans-Serif" font-size="10.00">+</text>
<text text-anchor="start" x="214.16" y="-559.5" font-family="Helvetica,sans-Serif" font-size="10.00">get_dummy_global_program()</text>
<text text-anchor="start" x="201.16" y="-544.5" font-family="Helvetica,sans-Serif" font-size="10.00">+</text>
<text text-anchor="start" x="214.16" y="-544.5" font-family="Helvetica,sans-Serif" font-size="10.00">get_symbol()</text>
<text text-anchor="start" x="201.16" y="-529.5" font-family="Helvetica,sans-Serif" font-size="10.00">+</text>
<text text-anchor="start" x="214.16" y="-529.5" font-family="Helvetica,sans-Serif" font-size="10.00">pio_assembler()</text>
<text text-anchor="start" x="201.16" y="-514.5" font-family="Helvetica,sans-Serif" font-size="10.00">+</text>
<text text-anchor="start" x="214.16" y="-514.5" font-family="Helvetica,sans-Serif" font-size="10.00">public_symbols()</text>
<text text-anchor="start" x="201.16" y="-499.5" font-family="Helvetica,sans-Serif" font-size="10.00">+</text>
<text text-anchor="start" x="214.16" y="-499.5" font-family="Helvetica,sans-Serif" font-size="10.00">scan_begin()</text>
<text text-anchor="start" x="201.16" y="-484.5" font-family="Helvetica,sans-Serif" font-size="10.00">+</text>
<text text-anchor="start" x="214.16" y="-484.5" font-family="Helvetica,sans-Serif" font-size="10.00">scan_end()</text>
<text text-anchor="start" x="201.16" y="-469.5" font-family="Helvetica,sans-Serif" font-size="10.00">+</text>
<text text-anchor="start" x="214.16" y="-469.5" font-family="Helvetica,sans-Serif" font-size="10.00">version_string()</text>
<text text-anchor="start" x="201.16" y="-454.5" font-family="Helvetica,sans-Serif" font-size="10.00">+</text>
<text text-anchor="start" x="214.16" y="-454.5" font-family="Helvetica,sans-Serif" font-size="10.00">write_output()</text>
<polygon fill="#666666" stroke="#666666" points="197.16,-779.5 197.16,-779.5 366.16,-779.5 366.16,-779.5 197.16,-779.5"/>
<polygon fill="#666666" stroke="#666666" points="197.16,-659.5 197.16,-659.5 212.16,-659.5 212.16,-659.5 197.16,-659.5"/>
<polygon fill="#666666" stroke="#666666" points="212.16,-659.5 212.16,-659.5 366.16,-659.5 366.16,-659.5 212.16,-659.5"/>
<polygon fill="none" stroke="#666666" points="196.66,-448 196.66,-797 365.66,-797 365.66,-448 196.66,-448"/>
</a>
</g>
</g>
<!-- Node3&#45;&gt;Node5 -->
<g id="edge5_Node000005_Node000003" class="edge">
<title>Node3&#45;&gt;Node5</title>
<g id="a_edge5_Node000005_Node000003"><a xlink:title=" ">
<path fill="none" stroke="#63b8ff" d="M281.16,-843.64C281.16,-832.65 281.16,-821.14 281.16,-809.39"/>
<polygon fill="none" stroke="#63b8ff" points="281.16,-809.07 277.16,-803.07 281.16,-797.07 285.16,-803.07 281.16,-809.07"/>
</a>
</g>
<text text-anchor="middle" x="306.66" y="-818" font-family="Helvetica,sans-Serif" font-size="10.00" fill="grey"> +location</text>
</g>
<!-- Node6 -->
<g id="Node000006" class="node">
<title>Node6</title>
<g id="a_Node000006"><a xlink:href="structrvalue__loc.html" target="_top" xlink:title=" ">
<polygon fill="white" stroke="transparent" points="462.66,-654.5 383.66,-654.5 383.66,-590.5 462.66,-590.5 462.66,-654.5"/>
<text text-anchor="start" x="398.16" y="-642.5" font-family="Helvetica,sans-Serif" font-size="10.00">rvalue_loc</text>
<text text-anchor="start" x="388.16" y="-627.5" font-family="Helvetica,sans-Serif" font-size="10.00">+</text>
<text text-anchor="start" x="401.16" y="-627.5" font-family="Helvetica,sans-Serif" font-size="10.00">value</text>
<text text-anchor="start" x="388.16" y="-612.5" font-family="Helvetica,sans-Serif" font-size="10.00">+</text>
<text text-anchor="start" x="401.16" y="-612.5" font-family="Helvetica,sans-Serif" font-size="10.00">rvalue_loc()</text>
<text text-anchor="start" x="388.16" y="-597.5" font-family="Helvetica,sans-Serif" font-size="10.00">+</text>
<text text-anchor="start" x="401.16" y="-597.5" font-family="Helvetica,sans-Serif" font-size="10.00">rvalue_loc()</text>
<polygon fill="#666666" stroke="#666666" points="384.16,-637.5 384.16,-637.5 463.16,-637.5 463.16,-637.5 384.16,-637.5"/>
<polygon fill="#666666" stroke="#666666" points="384.16,-622.5 384.16,-622.5 399.16,-622.5 399.16,-622.5 384.16,-622.5"/>
<polygon fill="#666666" stroke="#666666" points="399.16,-622.5 399.16,-622.5 463.16,-622.5 463.16,-622.5 399.16,-622.5"/>
<polygon fill="none" stroke="#666666" points="383.66,-590.5 383.66,-654.5 462.66,-654.5 462.66,-590.5 383.66,-590.5"/>
</a>
</g>
</g>
<!-- Node3&#45;&gt;Node6 -->
<g id="edge7_Node000006_Node000003" class="edge">
<title>Node3&#45;&gt;Node6</title>
<g id="a_edge7_Node000006_Node000003"><a xlink:title=" ">
<path fill="none" stroke="#63b8ff" d="M316.68,-890.24C335.9,-864.24 358.79,-830.16 374.16,-797 393.83,-754.58 407.23,-702.59 414.98,-666.64"/>
<polygon fill="none" stroke="#63b8ff" points="415.03,-666.38 412.34,-659.69 417.48,-654.63 420.17,-661.33 415.03,-666.38"/>
</a>
</g>
<text text-anchor="middle" x="389.66" y="-818" font-family="Helvetica,sans-Serif" font-size="10.00" fill="grey"> +location</text>
</g>
<!-- Node7 -->
<g id="Node000007" class="node">
<title>Node7</title>
<g id="a_Node000007"><a xlink:href="structin__out.html" target="_top" xlink:title=" ">
<polygon fill="white" stroke="transparent" points="577.16,-684.5 481.16,-684.5 481.16,-560.5 577.16,-560.5 577.16,-684.5"/>
<text text-anchor="start" x="513.66" y="-672.5" font-family="Helvetica,sans-Serif" font-size="10.00">in_out</text>
<text text-anchor="start" x="485.16" y="-657.5" font-family="Helvetica,sans-Serif" font-size="10.00">+</text>
<text text-anchor="start" x="498.16" y="-657.5" font-family="Helvetica,sans-Serif" font-size="10.00">autop</text>
<text text-anchor="start" x="485.16" y="-642.5" font-family="Helvetica,sans-Serif" font-size="10.00">+</text>
<text text-anchor="start" x="498.16" y="-642.5" font-family="Helvetica,sans-Serif" font-size="10.00">final_pin_count</text>
<text text-anchor="start" x="485.16" y="-627.5" font-family="Helvetica,sans-Serif" font-size="10.00">+</text>
<text text-anchor="start" x="498.16" y="-627.5" font-family="Helvetica,sans-Serif" font-size="10.00">final_threshold</text>
<text text-anchor="start" x="485.16" y="-612.5" font-family="Helvetica,sans-Serif" font-size="10.00">+</text>
<text text-anchor="start" x="498.16" y="-612.5" font-family="Helvetica,sans-Serif" font-size="10.00">pin_count</text>
<text text-anchor="start" x="485.16" y="-597.5" font-family="Helvetica,sans-Serif" font-size="10.00">+</text>
<text text-anchor="start" x="498.16" y="-597.5" font-family="Helvetica,sans-Serif" font-size="10.00">right</text>
<text text-anchor="start" x="485.16" y="-582.5" font-family="Helvetica,sans-Serif" font-size="10.00">+</text>
<text text-anchor="start" x="498.16" y="-582.5" font-family="Helvetica,sans-Serif" font-size="10.00">threshold</text>
<text text-anchor="start" x="525.66" y="-567.5" font-family="Helvetica,sans-Serif" font-size="10.00"> </text>
<polygon fill="#666666" stroke="#666666" points="481.16,-667.5 481.16,-667.5 577.16,-667.5 577.16,-667.5 481.16,-667.5"/>
<polygon fill="#666666" stroke="#666666" points="481.16,-577.5 481.16,-577.5 496.16,-577.5 496.16,-577.5 481.16,-577.5"/>
<polygon fill="#666666" stroke="#666666" points="496.16,-577.5 496.16,-577.5 577.16,-577.5 577.16,-577.5 496.16,-577.5"/>
<polygon fill="none" stroke="#666666" points="481.16,-560.5 481.16,-684.5 577.16,-684.5 577.16,-560.5 481.16,-560.5"/>
</a>
</g>
</g>
<!-- Node3&#45;&gt;Node7 -->
<g id="edge9_Node000007_Node000003" class="edge">
<title>Node3&#45;&gt;Node7</title>
<g id="a_edge9_Node000007_Node000003"><a xlink:title=" ">
<path fill="none" stroke="#63b8ff" d="M316.83,-917.86C359.43,-895.66 430.06,-853.06 471.16,-797 492.74,-767.57 506.63,-729.61 515.39,-696.71"/>
<polygon fill="none" stroke="#63b8ff" points="515.45,-696.47 513.04,-689.67 518.39,-684.84 520.79,-691.63 515.45,-696.47"/>
</a>
</g>
<text text-anchor="middle" x="481.66" y="-818" font-family="Helvetica,sans-Serif" font-size="10.00" fill="grey"> +location</text>
</g>
<!-- Node4 -->
<g id="Node000004" class="node">
<title>Node4</title>
<g id="a_Node000004"><a xlink:href="classyy_1_1position.html" target="_top" xlink:title="A point in a source file.">
<polygon fill="white" stroke="transparent" points="316.66,-1240 245.66,-1240 245.66,-1086 316.66,-1086 316.66,-1240"/>
<text text-anchor="start" x="253.16" y="-1228" font-family="Helvetica,sans-Serif" font-size="10.00">yy::position</text>
<text text-anchor="start" x="250.16" y="-1213" font-family="Helvetica,sans-Serif" font-size="10.00">+</text>
<text text-anchor="start" x="263.16" y="-1213" font-family="Helvetica,sans-Serif" font-size="10.00">column</text>
<text text-anchor="start" x="250.16" y="-1198" font-family="Helvetica,sans-Serif" font-size="10.00">+</text>
<text text-anchor="start" x="263.16" y="-1198" font-family="Helvetica,sans-Serif" font-size="10.00">filename</text>
<text text-anchor="start" x="250.16" y="-1183" font-family="Helvetica,sans-Serif" font-size="10.00">+</text>
<text text-anchor="start" x="263.16" y="-1183" font-family="Helvetica,sans-Serif" font-size="10.00">line</text>
<text text-anchor="start" x="250.16" y="-1168" font-family="Helvetica,sans-Serif" font-size="10.00">+</text>
<text text-anchor="start" x="263.16" y="-1168" font-family="Helvetica,sans-Serif" font-size="10.00">initialize()</text>
<text text-anchor="start" x="250.16" y="-1153" font-family="Helvetica,sans-Serif" font-size="10.00">+</text>
<text text-anchor="start" x="263.16" y="-1153" font-family="Helvetica,sans-Serif" font-size="10.00">position()</text>
<text text-anchor="start" x="250.16" y="-1138" font-family="Helvetica,sans-Serif" font-size="10.00">+</text>
<text text-anchor="start" x="263.16" y="-1138" font-family="Helvetica,sans-Serif" font-size="10.00">lines()</text>
<text text-anchor="start" x="250.16" y="-1123" font-family="Helvetica,sans-Serif" font-size="10.00">+</text>
<text text-anchor="start" x="263.16" y="-1123" font-family="Helvetica,sans-Serif" font-size="10.00">columns()</text>
<text text-anchor="start" x="251.66" y="-1108" font-family="Helvetica,sans-Serif" font-size="10.00">*</text>
<text text-anchor="start" x="263.16" y="-1108" font-family="Helvetica,sans-Serif" font-size="10.00">lines()</text>
<text text-anchor="start" x="251.66" y="-1093" font-family="Helvetica,sans-Serif" font-size="10.00">*</text>
<text text-anchor="start" x="263.16" y="-1093" font-family="Helvetica,sans-Serif" font-size="10.00">columns()</text>
<polygon fill="#666666" stroke="#666666" points="246.16,-1223 246.16,-1223 317.16,-1223 317.16,-1223 246.16,-1223"/>
<polygon fill="#666666" stroke="#666666" points="246.16,-1178 246.16,-1178 261.16,-1178 261.16,-1178 246.16,-1178"/>
<polygon fill="#666666" stroke="#666666" points="261.16,-1178 261.16,-1178 317.16,-1178 317.16,-1178 261.16,-1178"/>
<polygon fill="none" stroke="#666666" points="245.66,-1086 245.66,-1240 316.66,-1240 316.66,-1086 245.66,-1086"/>
</a>
</g>
</g>
<!-- Node4&#45;&gt;Node3 -->
<g id="edge3_Node000003_Node000004" class="edge">
<title>Node4&#45;&gt;Node3</title>
<g id="a_edge3_Node000003_Node000004"><a xlink:title=" ">
<path fill="none" stroke="#63b8ff" d="M281.16,-1085.83C281.16,-1071.24 281.16,-1055.74 281.16,-1040.46"/>
<polygon fill="none" stroke="#63b8ff" points="281.16,-1040.28 277.16,-1034.28 281.16,-1028.28 285.16,-1034.28 281.16,-1040.28"/>
</a>
</g>
<text text-anchor="middle" x="300.66" y="-1060" font-family="Helvetica,sans-Serif" font-size="10.00" fill="grey"> +begin</text>
<text text-anchor="middle" x="300.66" y="-1049" font-family="Helvetica,sans-Serif" font-size="10.00" fill="grey">+end</text>
</g>
<!-- Node5&#45;&gt;Node1 -->
<g id="edge4_Node000001_Node000005" class="edge">
<title>Node5&#45;&gt;Node1</title>
<g id="a_edge4_Node000001_Node000005"><a xlink:title=" ">
<path fill="none" stroke="#63b8ff" d="M281.16,-447.75C281.16,-429.16 281.16,-410.13 281.16,-391.26"/>
<polygon fill="none" stroke="#63b8ff" points="281.16,-391.21 277.16,-385.21 281.16,-379.21 285.16,-385.21 281.16,-391.21"/>
</a>
</g>
<text text-anchor="middle" x="305.16" y="-411" font-family="Helvetica,sans-Serif" font-size="10.00" fill="grey"> +pioasm</text>
</g>
<!-- Node6&#45;&gt;Node1 -->
<g id="edge6_Node000001_Node000006" class="edge">
<title>Node6&#45;&gt;Node1</title>
<g id="a_edge6_Node000001_Node000006"><a xlink:title=" ">
<path fill="none" stroke="#63b8ff" d="M415.06,-590.27C405.85,-555.38 390.01,-497.32 374.16,-448 365.7,-421.67 356.28,-394 346.78,-366.97"/>
<polygon fill="none" stroke="#63b8ff" points="346.7,-366.75 340.93,-362.42 342.7,-355.43 348.47,-359.76 346.7,-366.75"/>
</a>
</g>
<text text-anchor="middle" x="396.16" y="-422" font-family="Helvetica,sans-Serif" font-size="10.00" fill="grey"> +origin</text>
<text text-anchor="middle" x="396.16" y="-411" font-family="Helvetica,sans-Serif" font-size="10.00" fill="grey">+set_count</text>
<text text-anchor="middle" x="396.16" y="-400" font-family="Helvetica,sans-Serif" font-size="10.00" fill="grey">+sideset</text>
</g>
<!-- Node7&#45;&gt;Node1 -->
<g id="edge8_Node000001_Node000007" class="edge">
<title>Node7&#45;&gt;Node1</title>
<g id="a_edge8_Node000001_Node000007"><a xlink:title=" ">
<path fill="none" stroke="#63b8ff" d="M513.75,-560.19C503.95,-526.1 489.61,-483.51 471.16,-448 438.08,-384.33 390.03,-319.37 350.52,-270.63"/>
<polygon fill="none" stroke="#63b8ff" points="350.33,-270.39 343.44,-268.28 342.74,-261.1 349.64,-263.22 350.33,-270.39"/>
</a>
</g>
<text text-anchor="middle" x="471.66" y="-416.5" font-family="Helvetica,sans-Serif" font-size="10.00" fill="grey"> +in</text>
<text text-anchor="middle" x="471.66" y="-405.5" font-family="Helvetica,sans-Serif" font-size="10.00" fill="grey">+out</text>
</g>
</g>
</svg>
