<?xml version="1.0" encoding="UTF-8" standalone="no"?>
<!DOCTYPE svg PUBLIC "-//W3C//DTD SVG 1.1//EN"
 "http://www.w3.org/Graphics/SVG/1.1/DTD/svg11.dtd">
<!-- Generated by graphviz version 2.43.0 (0)
 -->
<!-- Title: unary_operation Pages: 1 -->
<svg width="117pt" height="777pt"
 viewBox="0.00 0.00 117.00 777.00" xmlns="http://www.w3.org/2000/svg" xmlns:xlink="http://www.w3.org/1999/xlink">
<g id="graph0" class="graph" transform="scale(1 1) rotate(0) translate(4 773)">
<title>unary_operation</title>
<!-- Node1 -->
<g id="Node000001" class="node">
<title>Node1</title>
<g id="a_Node000001"><a xlink:title=" ">
<polygon fill="#999999" stroke="transparent" points="109,-79 0,-79 0,0 109,0 109,-79"/>
<text text-anchor="start" x="15" y="-66.5" font-family="Helvetica,sans-Serif" font-size="10.00">unary_operation</text>
<text text-anchor="start" x="4.5" y="-51.5" font-family="Helvetica,sans-Serif" font-size="10.00">+</text>
<text text-anchor="start" x="17.5" y="-51.5" font-family="Helvetica,sans-Serif" font-size="10.00">arg</text>
<text text-anchor="start" x="4.5" y="-36.5" font-family="Helvetica,sans-Serif" font-size="10.00">+</text>
<text text-anchor="start" x="17.5" y="-36.5" font-family="Helvetica,sans-Serif" font-size="10.00">op</text>
<text text-anchor="start" x="4.5" y="-21.5" font-family="Helvetica,sans-Serif" font-size="10.00">+</text>
<text text-anchor="start" x="17.5" y="-21.5" font-family="Helvetica,sans-Serif" font-size="10.00">resolve()</text>
<text text-anchor="start" x="4.5" y="-6.5" font-family="Helvetica,sans-Serif" font-size="10.00">+</text>
<text text-anchor="start" x="17.5" y="-6.5" font-family="Helvetica,sans-Serif" font-size="10.00">unary_operation()</text>
<polygon fill="#666666" stroke="#666666" points="0.5,-61.5 0.5,-61.5 109.5,-61.5 109.5,-61.5 0.5,-61.5"/>
<polygon fill="#666666" stroke="#666666" points="0.5,-31.5 0.5,-31.5 15.5,-31.5 15.5,-31.5 0.5,-31.5"/>
<polygon fill="#666666" stroke="#666666" points="15.5,-31.5 15.5,-31.5 109.5,-31.5 109.5,-31.5 15.5,-31.5"/>
<polygon fill="none" stroke="#666666" points="0,0 0,-79 109,-79 109,0 0,0"/>
</a>
</g>
</g>
<!-- Node2 -->
<g id="Node000002" class="node">
<title>Node2</title>
<g id="a_Node000002"><a xlink:href="structresolvable.html" target="_top" xlink:title=" ">
<polygon fill="white" stroke="transparent" points="98.5,-225 10.5,-225 10.5,-116 98.5,-116 98.5,-225"/>
<text text-anchor="start" x="28.5" y="-212.5" font-family="Helvetica,sans-Serif" font-size="10.00">resolvable</text>
<text text-anchor="start" x="51" y="-197.5" font-family="Helvetica,sans-Serif" font-size="10.00"> </text>
<text text-anchor="start" x="14.5" y="-182.5" font-family="Helvetica,sans-Serif" font-size="10.00">+</text>
<text text-anchor="start" x="27.5" y="-182.5" font-family="Helvetica,sans-Serif" font-size="10.00">resolvable()</text>
<text text-anchor="start" x="14.5" y="-167.5" font-family="Helvetica,sans-Serif" font-size="10.00">+</text>
<text text-anchor="start" x="27.5" y="-167.5" font-family="Helvetica,sans-Serif" font-size="10.00">resolve()</text>
<text text-anchor="start" x="14.5" y="-152.5" font-family="Helvetica,sans-Serif" font-size="10.00">+</text>
<text text-anchor="start" x="27.5" y="-152.5" font-family="Helvetica,sans-Serif" font-size="10.00">resolve()</text>
<text text-anchor="start" x="14.5" y="-137.5" font-family="Helvetica,sans-Serif" font-size="10.00">+</text>
<text text-anchor="start" x="27.5" y="-137.5" font-family="Helvetica,sans-Serif" font-size="10.00">resolve()</text>
<text text-anchor="start" x="14.5" y="-122.5" font-family="Helvetica,sans-Serif" font-size="10.00">+</text>
<text text-anchor="start" x="27.5" y="-122.5" font-family="Helvetica,sans-Serif" font-size="10.00">~resolvable()</text>
<polygon fill="#666666" stroke="#666666" points="10.5,-207.5 10.5,-207.5 98.5,-207.5 98.5,-207.5 10.5,-207.5"/>
<polygon fill="#666666" stroke="#666666" points="10.5,-192.5 10.5,-192.5 98.5,-192.5 98.5,-192.5 10.5,-192.5"/>
<polygon fill="none" stroke="#666666" points="10.5,-116 10.5,-225 98.5,-225 98.5,-116 10.5,-116"/>
</a>
</g>
</g>
<!-- Node2&#45;&gt;Node1 -->
<g id="edge1_Node000001_Node000002" class="edge">
<title>Node2&#45;&gt;Node1</title>
<g id="a_edge1_Node000001_Node000002"><a xlink:title=" ">
<path fill="none" stroke="#63b8ff" d="M54.5,-105.72C54.5,-96.65 54.5,-87.56 54.5,-79.18"/>
<polygon fill="none" stroke="#63b8ff" points="51,-105.91 54.5,-115.91 58,-105.91 51,-105.91"/>
</a>
</g>
</g>
<!-- Node3 -->
<g id="Node000003" class="node">
<title>Node3</title>
<g id="a_Node000003"><a xlink:href="structsrc__item.html" target="_top" xlink:title=" ">
<polygon fill="white" stroke="transparent" points="90,-326 19,-326 19,-262 90,-262 90,-326"/>
<text text-anchor="start" x="33.5" y="-314" font-family="Helvetica,sans-Serif" font-size="10.00">src_item</text>
<text text-anchor="start" x="51.5" y="-299" font-family="Helvetica,sans-Serif" font-size="10.00"> </text>
<text text-anchor="start" x="23.5" y="-284" font-family="Helvetica,sans-Serif" font-size="10.00">+</text>
<text text-anchor="start" x="36.5" y="-284" font-family="Helvetica,sans-Serif" font-size="10.00">src_item()</text>
<text text-anchor="start" x="23.5" y="-269" font-family="Helvetica,sans-Serif" font-size="10.00">+</text>
<text text-anchor="start" x="36.5" y="-269" font-family="Helvetica,sans-Serif" font-size="10.00">src_item()</text>
<polygon fill="#666666" stroke="#666666" points="19.5,-309 19.5,-309 90.5,-309 90.5,-309 19.5,-309"/>
<polygon fill="#666666" stroke="#666666" points="19.5,-294 19.5,-294 90.5,-294 90.5,-294 19.5,-294"/>
<polygon fill="none" stroke="#666666" points="19,-262 19,-326 90,-326 90,-262 19,-262"/>
</a>
</g>
</g>
<!-- Node3&#45;&gt;Node2 -->
<g id="edge2_Node000002_Node000003" class="edge">
<title>Node3&#45;&gt;Node2</title>
<g id="a_edge2_Node000002_Node000003"><a xlink:title=" ">
<path fill="none" stroke="#63b8ff" d="M54.5,-251.69C54.5,-243.21 54.5,-234.16 54.5,-225.31"/>
<polygon fill="none" stroke="#63b8ff" points="51,-251.71 54.5,-261.71 58,-251.71 51,-251.71"/>
</a>
</g>
</g>
<!-- Node4 -->
<g id="Node000004" class="node">
<title>Node4</title>
<g id="a_Node000004"><a xlink:href="classyy_1_1location.html" target="_top" xlink:title="Two points in a source file.">
<polygon fill="white" stroke="transparent" points="90,-557 19,-557 19,-373 90,-373 90,-557"/>
<text text-anchor="start" x="26.5" y="-545" font-family="Helvetica,sans-Serif" font-size="10.00">yy::location</text>
<text text-anchor="start" x="51.5" y="-530" font-family="Helvetica,sans-Serif" font-size="10.00"> </text>
<text text-anchor="start" x="23.5" y="-515" font-family="Helvetica,sans-Serif" font-size="10.00">+</text>
<text text-anchor="start" x="36.5" y="-515" font-family="Helvetica,sans-Serif" font-size="10.00">initialize()</text>
<text text-anchor="start" x="23.5" y="-500" font-family="Helvetica,sans-Serif" font-size="10.00">+</text>
<text text-anchor="start" x="36.5" y="-500" font-family="Helvetica,sans-Serif" font-size="10.00">location()</text>
<text text-anchor="start" x="23.5" y="-485" font-family="Helvetica,sans-Serif" font-size="10.00">+</text>
<text text-anchor="start" x="36.5" y="-485" font-family="Helvetica,sans-Serif" font-size="10.00">location()</text>
<text text-anchor="start" x="23.5" y="-470" font-family="Helvetica,sans-Serif" font-size="10.00">+</text>
<text text-anchor="start" x="36.5" y="-470" font-family="Helvetica,sans-Serif" font-size="10.00">location()</text>
<text text-anchor="start" x="23.5" y="-455" font-family="Helvetica,sans-Serif" font-size="10.00">+</text>
<text text-anchor="start" x="36.5" y="-455" font-family="Helvetica,sans-Serif" font-size="10.00">step()</text>
<text text-anchor="start" x="23.5" y="-440" font-family="Helvetica,sans-Serif" font-size="10.00">+</text>
<text text-anchor="start" x="36.5" y="-440" font-family="Helvetica,sans-Serif" font-size="10.00">columns()</text>
<text text-anchor="start" x="23.5" y="-425" font-family="Helvetica,sans-Serif" font-size="10.00">+</text>
<text text-anchor="start" x="36.5" y="-425" font-family="Helvetica,sans-Serif" font-size="10.00">lines()</text>
<text text-anchor="start" x="25" y="-410" font-family="Helvetica,sans-Serif" font-size="10.00">*</text>
<text text-anchor="start" x="36.5" y="-410" font-family="Helvetica,sans-Serif" font-size="10.00">step()</text>
<text text-anchor="start" x="25" y="-395" font-family="Helvetica,sans-Serif" font-size="10.00">*</text>
<text text-anchor="start" x="36.5" y="-395" font-family="Helvetica,sans-Serif" font-size="10.00">columns()</text>
<text text-anchor="start" x="25" y="-380" font-family="Helvetica,sans-Serif" font-size="10.00">*</text>
<text text-anchor="start" x="36.5" y="-380" font-family="Helvetica,sans-Serif" font-size="10.00">lines()</text>
<polygon fill="#666666" stroke="#666666" points="19.5,-540 19.5,-540 90.5,-540 90.5,-540 19.5,-540"/>
<polygon fill="#666666" stroke="#666666" points="19.5,-525 19.5,-525 90.5,-525 90.5,-525 19.5,-525"/>
<polygon fill="none" stroke="#666666" points="19,-373 19,-557 90,-557 90,-373 19,-373"/>
</a>
</g>
</g>
<!-- Node4&#45;&gt;Node3 -->
<g id="edge3_Node000003_Node000004" class="edge">
<title>Node4&#45;&gt;Node3</title>
<g id="a_edge3_Node000003_Node000004"><a xlink:title=" ">
<path fill="none" stroke="#63b8ff" d="M54.5,-372.58C54.5,-360.74 54.5,-349.09 54.5,-338.56"/>
<polygon fill="none" stroke="#63b8ff" points="54.5,-338.33 50.5,-332.33 54.5,-326.33 58.5,-332.33 54.5,-338.33"/>
</a>
</g>
<text text-anchor="middle" x="80" y="-347" font-family="Helvetica,sans-Serif" font-size="10.00" fill="grey"> +location</text>
</g>
<!-- Node5 -->
<g id="Node000005" class="node">
<title>Node5</title>
<g id="a_Node000005"><a xlink:href="classyy_1_1position.html" target="_top" xlink:title="A point in a source file.">
<polygon fill="white" stroke="transparent" points="90,-769 19,-769 19,-615 90,-615 90,-769"/>
<text text-anchor="start" x="26.5" y="-757" font-family="Helvetica,sans-Serif" font-size="10.00">yy::position</text>
<text text-anchor="start" x="23.5" y="-742" font-family="Helvetica,sans-Serif" font-size="10.00">+</text>
<text text-anchor="start" x="36.5" y="-742" font-family="Helvetica,sans-Serif" font-size="10.00">column</text>
<text text-anchor="start" x="23.5" y="-727" font-family="Helvetica,sans-Serif" font-size="10.00">+</text>
<text text-anchor="start" x="36.5" y="-727" font-family="Helvetica,sans-Serif" font-size="10.00">filename</text>
<text text-anchor="start" x="23.5" y="-712" font-family="Helvetica,sans-Serif" font-size="10.00">+</text>
<text text-anchor="start" x="36.5" y="-712" font-family="Helvetica,sans-Serif" font-size="10.00">line</text>
<text text-anchor="start" x="23.5" y="-697" font-family="Helvetica,sans-Serif" font-size="10.00">+</text>
<text text-anchor="start" x="36.5" y="-697" font-family="Helvetica,sans-Serif" font-size="10.00">initialize()</text>
<text text-anchor="start" x="23.5" y="-682" font-family="Helvetica,sans-Serif" font-size="10.00">+</text>
<text text-anchor="start" x="36.5" y="-682" font-family="Helvetica,sans-Serif" font-size="10.00">position()</text>
<text text-anchor="start" x="23.5" y="-667" font-family="Helvetica,sans-Serif" font-size="10.00">+</text>
<text text-anchor="start" x="36.5" y="-667" font-family="Helvetica,sans-Serif" font-size="10.00">lines()</text>
<text text-anchor="start" x="23.5" y="-652" font-family="Helvetica,sans-Serif" font-size="10.00">+</text>
<text text-anchor="start" x="36.5" y="-652" font-family="Helvetica,sans-Serif" font-size="10.00">columns()</text>
<text text-anchor="start" x="25" y="-637" font-family="Helvetica,sans-Serif" font-size="10.00">*</text>
<text text-anchor="start" x="36.5" y="-637" font-family="Helvetica,sans-Serif" font-size="10.00">lines()</text>
<text text-anchor="start" x="25" y="-622" font-family="Helvetica,sans-Serif" font-size="10.00">*</text>
<text text-anchor="start" x="36.5" y="-622" font-family="Helvetica,sans-Serif" font-size="10.00">columns()</text>
<polygon fill="#666666" stroke="#666666" points="19.5,-752 19.5,-752 90.5,-752 90.5,-752 19.5,-752"/>
<polygon fill="#666666" stroke="#666666" points="19.5,-707 19.5,-707 34.5,-707 34.5,-707 19.5,-707"/>
<polygon fill="#666666" stroke="#666666" points="34.5,-707 34.5,-707 90.5,-707 90.5,-707 34.5,-707"/>
<polygon fill="none" stroke="#666666" points="19,-615 19,-769 90,-769 90,-615 19,-615"/>
</a>
</g>
</g>
<!-- Node5&#45;&gt;Node4 -->
<g id="edge4_Node000004_Node000005" class="edge">
<title>Node5&#45;&gt;Node4</title>
<g id="a_edge4_Node000004_Node000005"><a xlink:title=" ">
<path fill="none" stroke="#63b8ff" d="M54.5,-614.83C54.5,-600.24 54.5,-584.74 54.5,-569.46"/>
<polygon fill="none" stroke="#63b8ff" points="54.5,-569.28 50.5,-563.28 54.5,-557.28 58.5,-563.28 54.5,-569.28"/>
</a>
</g>
<text text-anchor="middle" x="74" y="-589" font-family="Helvetica,sans-Serif" font-size="10.00" fill="grey"> +begin</text>
<text text-anchor="middle" x="74" y="-578" font-family="Helvetica,sans-Serif" font-size="10.00" fill="grey">+end</text>
</g>
</g>
</svg>
