<?xml version="1.0" encoding="UTF-8" standalone="no"?>
<!DOCTYPE svg PUBLIC "-//W3C//DTD SVG 1.1//EN"
 "http://www.w3.org/Graphics/SVG/1.1/DTD/svg11.dtd">
<!-- Generated by graphviz version 2.43.0 (0)
 -->
<!-- Title: OTP_DATA_RAW_Type Pages: 1 -->
<svg width="124pt" height="207pt"
 viewBox="0.00 0.00 124.00 207.00" xmlns="http://www.w3.org/2000/svg" xmlns:xlink="http://www.w3.org/1999/xlink">
<g id="graph0" class="graph" transform="scale(1 1) rotate(0) translate(4 203)">
<title>OTP_DATA_RAW_Type</title>
<!-- Node1 -->
<g id="Node000001" class="node">
<title>Node1</title>
<g id="a_Node000001"><a xlink:title="Predefined OTP data layout for RP2350 (OTP_DATA_RAW)">
<polygon fill="#999999" stroke="transparent" points="116,-199 0,-199 0,0 116,0 116,-199"/>
<text text-anchor="start" x="5" y="-186.5" font-family="Helvetica,sans-Serif" font-size="10.00">OTP_DATA_RAW_Type</text>
<text text-anchor="start" x="5" y="-171.5" font-family="Helvetica,sans-Serif" font-size="10.00">+</text>
<text text-anchor="start" x="19" y="-171.5" font-family="Helvetica,sans-Serif" font-size="10.00">BOOT_FLAGS0</text>
<text text-anchor="start" x="5" y="-156.5" font-family="Helvetica,sans-Serif" font-size="10.00">+</text>
<text text-anchor="start" x="19" y="-156.5" font-family="Helvetica,sans-Serif" font-size="10.00">BOOT_FLAGS0_R1</text>
<text text-anchor="start" x="5" y="-141.5" font-family="Helvetica,sans-Serif" font-size="10.00">+</text>
<text text-anchor="start" x="19" y="-141.5" font-family="Helvetica,sans-Serif" font-size="10.00">BOOT_FLAGS0_R2</text>
<text text-anchor="start" x="5" y="-126.5" font-family="Helvetica,sans-Serif" font-size="10.00">+</text>
<text text-anchor="start" x="19" y="-126.5" font-family="Helvetica,sans-Serif" font-size="10.00">BOOT_FLAGS1</text>
<text text-anchor="start" x="5" y="-111.5" font-family="Helvetica,sans-Serif" font-size="10.00">+</text>
<text text-anchor="start" x="19" y="-111.5" font-family="Helvetica,sans-Serif" font-size="10.00">BOOT_FLAGS1_R1</text>
<text text-anchor="start" x="5" y="-96.5" font-family="Helvetica,sans-Serif" font-size="10.00">+</text>
<text text-anchor="start" x="19" y="-96.5" font-family="Helvetica,sans-Serif" font-size="10.00">BOOT_FLAGS1_R2</text>
<text text-anchor="start" x="5" y="-81.5" font-family="Helvetica,sans-Serif" font-size="10.00">+</text>
<text text-anchor="start" x="19" y="-81.5" font-family="Helvetica,sans-Serif" font-size="10.00">BOOTKEY0_0</text>
<text text-anchor="start" x="5" y="-66.5" font-family="Helvetica,sans-Serif" font-size="10.00">+</text>
<text text-anchor="start" x="19" y="-66.5" font-family="Helvetica,sans-Serif" font-size="10.00">BOOTKEY0_1</text>
<text text-anchor="start" x="5" y="-51.5" font-family="Helvetica,sans-Serif" font-size="10.00">+</text>
<text text-anchor="start" x="19" y="-51.5" font-family="Helvetica,sans-Serif" font-size="10.00">BOOTKEY0_10</text>
<text text-anchor="start" x="5" y="-36.5" font-family="Helvetica,sans-Serif" font-size="10.00">+</text>
<text text-anchor="start" x="19" y="-36.5" font-family="Helvetica,sans-Serif" font-size="10.00">BOOTKEY0_11</text>
<text text-anchor="start" x="19" y="-21.5" font-family="Helvetica,sans-Serif" font-size="10.00">e 302 mais...</text>
<text text-anchor="start" x="54.5" y="-6.5" font-family="Helvetica,sans-Serif" font-size="10.00"> </text>
<polygon fill="#666666" stroke="#666666" points="0,-181.5 0,-181.5 116,-181.5 116,-181.5 0,-181.5"/>
<polygon fill="#666666" stroke="#666666" points="0,-16.5 0,-16.5 17,-16.5 17,-16.5 0,-16.5"/>
<polygon fill="#666666" stroke="#666666" points="17,-16.5 17,-16.5 116,-16.5 116,-16.5 17,-16.5"/>
<polygon fill="none" stroke="#666666" points="0,0 0,-199 116,-199 116,0 0,0"/>
</a>
</g>
</g>
</g>
</svg>
