<?xml version="1.0" encoding="UTF-8" standalone="no"?>
<!DOCTYPE svg PUBLIC "-//W3C//DTD SVG 1.1//EN"
 "http://www.w3.org/Graphics/SVG/1.1/DTD/svg11.dtd">
<!-- Generated by graphviz version 2.43.0 (0)
 -->
<!-- Title: _binary_info_id_and_int Pages: 1 -->
<svg width="134pt" height="183pt"
 viewBox="0.00 0.00 134.00 183.00" xmlns="http://www.w3.org/2000/svg" xmlns:xlink="http://www.w3.org/1999/xlink">
<g id="graph0" class="graph" transform="scale(1 1) rotate(0) translate(4 179)">
<title>_binary_info_id_and_int</title>
<!-- Node1 -->
<g id="Node000001" class="node">
<title>Node1</title>
<g id="a_Node000001"><a xlink:title=" ">
<polygon fill="#999999" stroke="transparent" points="126,-64 0,-64 0,0 126,0 126,-64"/>
<text text-anchor="start" x="5" y="-52" font-family="Helvetica,sans-Serif" font-size="10.00">_binary_info_id_and_int</text>
<text text-anchor="start" x="23" y="-37" font-family="Helvetica,sans-Serif" font-size="10.00">+</text>
<text text-anchor="start" x="55" y="-37" font-family="Helvetica,sans-Serif" font-size="10.00">id</text>
<text text-anchor="start" x="23" y="-22" font-family="Helvetica,sans-Serif" font-size="10.00">+</text>
<text text-anchor="start" x="55" y="-22" font-family="Helvetica,sans-Serif" font-size="10.00">value</text>
<text text-anchor="start" x="59.5" y="-7" font-family="Helvetica,sans-Serif" font-size="10.00"> </text>
<polygon fill="#666666" stroke="#666666" points="0,-47 0,-47 126,-47 126,-47 0,-47"/>
<polygon fill="#666666" stroke="#666666" points="0,-17 0,-17 53,-17 53,-17 0,-17"/>
<polygon fill="#666666" stroke="#666666" points="53,-17 53,-17 126,-17 126,-17 53,-17"/>
<polygon fill="none" stroke="#666666" points="0,0 0,-64 126,-64 126,0 0,0"/>
</a>
</g>
</g>
<!-- Node2 -->
<g id="Node000002" class="node">
<title>Node2</title>
<g id="a_Node000002"><a xlink:href="struct__binary__info__core.html" target="_top" xlink:title=" ">
<polygon fill="white" stroke="transparent" points="111.5,-175 14.5,-175 14.5,-111 111.5,-111 111.5,-175"/>
<text text-anchor="start" x="20" y="-163" font-family="Helvetica,sans-Serif" font-size="10.00">_binary_info_core</text>
<text text-anchor="start" x="32.5" y="-148" font-family="Helvetica,sans-Serif" font-size="10.00">+</text>
<text text-anchor="start" x="59" y="-148" font-family="Helvetica,sans-Serif" font-size="10.00">tag</text>
<text text-anchor="start" x="32.5" y="-133" font-family="Helvetica,sans-Serif" font-size="10.00">+</text>
<text text-anchor="start" x="59" y="-133" font-family="Helvetica,sans-Serif" font-size="10.00">type</text>
<text text-anchor="start" x="60" y="-118" font-family="Helvetica,sans-Serif" font-size="10.00"> </text>
<polygon fill="#666666" stroke="#666666" points="15,-158 15,-158 112,-158 112,-158 15,-158"/>
<polygon fill="#666666" stroke="#666666" points="15,-128 15,-128 57,-128 57,-128 15,-128"/>
<polygon fill="#666666" stroke="#666666" points="57,-128 57,-128 112,-128 112,-128 57,-128"/>
<polygon fill="none" stroke="#666666" points="14.5,-111 14.5,-175 111.5,-175 111.5,-111 14.5,-111"/>
</a>
</g>
</g>
<!-- Node2&#45;&gt;Node1 -->
<g id="edge1_Node000001_Node000002" class="edge">
<title>Node2&#45;&gt;Node1</title>
<g id="a_edge1_Node000001_Node000002"><a xlink:title=" ">
<path fill="none" stroke="#63b8ff" d="M63,-110.76C63,-100.05 63,-87.85 63,-76.35"/>
<polygon fill="none" stroke="#63b8ff" points="63,-76.24 59,-70.24 63,-64.24 67,-70.24 63,-76.24"/>
</a>
</g>
<text text-anchor="middle" x="79.5" y="-85" font-family="Helvetica,sans-Serif" font-size="10.00" fill="grey"> +core</text>
</g>
</g>
</svg>
