<?xml version="1.0" encoding="UTF-8" standalone="no"?>
<!DOCTYPE svg PUBLIC "-//W3C//DTD SVG 1.1//EN"
 "http://www.w3.org/Graphics/SVG/1.1/DTD/svg11.dtd">
<!-- Generated by graphviz version 2.43.0 (0)
 -->
<!-- Title: flash_hardware_save_state Pages: 1 -->
<svg width="134pt" height="205pt"
 viewBox="0.00 0.00 134.00 205.00" xmlns="http://www.w3.org/2000/svg" xmlns:xlink="http://www.w3.org/1999/xlink">
<g id="graph0" class="graph" transform="scale(1 1) rotate(0) translate(4 201)">
<title>flash_hardware_save_state</title>
<!-- Node1 -->
<g id="Node000001" class="node">
<title>Node1</title>
<g id="a_Node000001"><a xlink:title=" ">
<polygon fill="#999999" stroke="transparent" points="120,-60 6,-60 6,0 120,0 120,-60"/>
<text text-anchor="start" x="11" y="-48" font-family="Helvetica,sans-Serif" font-size="10.00">flash_hardware_save</text>
<text text-anchor="start" x="47.5" y="-37" font-family="Helvetica,sans-Serif" font-size="10.00">_state</text>
<text text-anchor="start" x="21" y="-22" font-family="Helvetica,sans-Serif" font-size="10.00">+</text>
<text text-anchor="start" x="45" y="-22" font-family="Helvetica,sans-Serif" font-size="10.00">qspi_pads</text>
<text text-anchor="start" x="59.5" y="-7" font-family="Helvetica,sans-Serif" font-size="10.00"> </text>
<polygon fill="#666666" stroke="#666666" points="6,-32 6,-32 120,-32 120,-32 6,-32"/>
<polygon fill="#666666" stroke="#666666" points="6,-17 6,-17 43,-17 43,-17 6,-17"/>
<polygon fill="#666666" stroke="#666666" points="43,-17 43,-17 120,-17 120,-17 43,-17"/>
<polygon fill="none" stroke="#666666" points="6,0 6,-60 120,-60 120,0 6,0"/>
</a>
</g>
</g>
<!-- Node2 -->
<g id="Node000002" class="node">
<title>Node2</title>
<g id="a_Node000002"><a xlink:href="structflash__rp2350__qmi__save__state.html" target="_top" xlink:title=" ">
<polygon fill="white" stroke="transparent" points="126,-197 0,-197 0,-107 126,-107 126,-197"/>
<text text-anchor="start" x="5" y="-185" font-family="Helvetica,sans-Serif" font-size="10.00">flash_rp2350_qmi_save</text>
<text text-anchor="start" x="47.5" y="-174" font-family="Helvetica,sans-Serif" font-size="10.00">_state</text>
<text text-anchor="start" x="22" y="-159" font-family="Helvetica,sans-Serif" font-size="10.00">+</text>
<text text-anchor="start" x="53" y="-159" font-family="Helvetica,sans-Serif" font-size="10.00">rcmd</text>
<text text-anchor="start" x="22" y="-144" font-family="Helvetica,sans-Serif" font-size="10.00">+</text>
<text text-anchor="start" x="53" y="-144" font-family="Helvetica,sans-Serif" font-size="10.00">rfmt</text>
<text text-anchor="start" x="22" y="-129" font-family="Helvetica,sans-Serif" font-size="10.00">+</text>
<text text-anchor="start" x="53" y="-129" font-family="Helvetica,sans-Serif" font-size="10.00">timing</text>
<text text-anchor="start" x="59.5" y="-114" font-family="Helvetica,sans-Serif" font-size="10.00"> </text>
<polygon fill="#666666" stroke="#666666" points="0,-169 0,-169 126,-169 126,-169 0,-169"/>
<polygon fill="#666666" stroke="#666666" points="0,-124 0,-124 51,-124 51,-124 0,-124"/>
<polygon fill="#666666" stroke="#666666" points="51,-124 51,-124 126,-124 126,-124 51,-124"/>
<polygon fill="none" stroke="#666666" points="0,-107 0,-197 126,-197 126,-107 0,-107"/>
</a>
</g>
</g>
<!-- Node2&#45;&gt;Node1 -->
<g id="edge1_Node000001_Node000002" class="edge">
<title>Node2&#45;&gt;Node1</title>
<g id="a_edge1_Node000001_Node000002"><a xlink:title=" ">
<path fill="none" stroke="#63b8ff" d="M63,-107C63,-95.63 63,-83.43 63,-72.2"/>
<polygon fill="none" stroke="#63b8ff" points="63,-72.04 59,-66.04 63,-60.04 67,-66.04 63,-72.04"/>
</a>
</g>
<text text-anchor="middle" x="92.5" y="-81" font-family="Helvetica,sans-Serif" font-size="10.00" fill="grey"> +qmi_save</text>
</g>
</g>
</svg>
