<?xml version="1.0" encoding="UTF-8" standalone="no"?>
<!DOCTYPE svg PUBLIC "-//W3C//DTD SVG 1.1//EN"
 "http://www.w3.org/Graphics/SVG/1.1/DTD/svg11.dtd">
<!-- Generated by graphviz version 2.43.0 (0)
 -->
<!-- Title: instruction Pages: 1 -->
<svg width="1084pt" height="462pt"
 viewBox="0.00 0.00 1084.00 462.00" xmlns="http://www.w3.org/2000/svg" xmlns:xlink="http://www.w3.org/1999/xlink">
<g id="graph0" class="graph" transform="scale(1 1) rotate(0) translate(4 458)">
<title>instruction</title>
<!-- Node1 -->
<g id="Node000001" class="node">
<title>Node1</title>
<g id="a_Node000001"><a xlink:title=" ">
<polygon fill="#999999" stroke="transparent" points="606,-354 516,-354 516,-245 606,-245 606,-354"/>
<text text-anchor="start" x="535" y="-341.5" font-family="Helvetica,sans-Serif" font-size="10.00">instruction</text>
<text text-anchor="start" x="520" y="-326.5" font-family="Helvetica,sans-Serif" font-size="10.00">+</text>
<text text-anchor="start" x="533" y="-326.5" font-family="Helvetica,sans-Serif" font-size="10.00">delay</text>
<text text-anchor="start" x="520" y="-311.5" font-family="Helvetica,sans-Serif" font-size="10.00">+</text>
<text text-anchor="start" x="533" y="-311.5" font-family="Helvetica,sans-Serif" font-size="10.00">sideset</text>
<text text-anchor="start" x="520" y="-296.5" font-family="Helvetica,sans-Serif" font-size="10.00">+</text>
<text text-anchor="start" x="533" y="-296.5" font-family="Helvetica,sans-Serif" font-size="10.00">encode()</text>
<text text-anchor="start" x="520" y="-281.5" font-family="Helvetica,sans-Serif" font-size="10.00">+</text>
<text text-anchor="start" x="533" y="-281.5" font-family="Helvetica,sans-Serif" font-size="10.00">instruction()</text>
<text text-anchor="start" x="520" y="-266.5" font-family="Helvetica,sans-Serif" font-size="10.00">+</text>
<text text-anchor="start" x="533" y="-266.5" font-family="Helvetica,sans-Serif" font-size="10.00">pre_validate()</text>
<text text-anchor="start" x="520" y="-251.5" font-family="Helvetica,sans-Serif" font-size="10.00">+</text>
<text text-anchor="start" x="533" y="-251.5" font-family="Helvetica,sans-Serif" font-size="10.00">raw_encode()</text>
<polygon fill="#666666" stroke="#666666" points="516,-336.5 516,-336.5 606,-336.5 606,-336.5 516,-336.5"/>
<polygon fill="#666666" stroke="#666666" points="516,-306.5 516,-306.5 531,-306.5 531,-306.5 516,-306.5"/>
<polygon fill="#666666" stroke="#666666" points="531,-306.5 531,-306.5 606,-306.5 606,-306.5 531,-306.5"/>
<polygon fill="none" stroke="#666666" points="516,-245 516,-354 606,-354 606,-245 516,-245"/>
</a>
</g>
</g>
<!-- Node3 -->
<g id="Node000003" class="node">
<title>Node3</title>
<g id="a_Node000003"><a xlink:href="structinstr__in.html" target="_top" xlink:title=" ">
<polygon fill="white" stroke="transparent" points="88,-186.5 0,-186.5 0,-107.5 88,-107.5 88,-186.5"/>
<text text-anchor="start" x="25.5" y="-174" font-family="Helvetica,sans-Serif" font-size="10.00">instr_in</text>
<text text-anchor="start" x="4" y="-159" font-family="Helvetica,sans-Serif" font-size="10.00">+</text>
<text text-anchor="start" x="17" y="-159" font-family="Helvetica,sans-Serif" font-size="10.00">src</text>
<text text-anchor="start" x="4" y="-144" font-family="Helvetica,sans-Serif" font-size="10.00">+</text>
<text text-anchor="start" x="17" y="-144" font-family="Helvetica,sans-Serif" font-size="10.00">value</text>
<text text-anchor="start" x="4" y="-129" font-family="Helvetica,sans-Serif" font-size="10.00">+</text>
<text text-anchor="start" x="17" y="-129" font-family="Helvetica,sans-Serif" font-size="10.00">instr_in()</text>
<text text-anchor="start" x="4" y="-114" font-family="Helvetica,sans-Serif" font-size="10.00">+</text>
<text text-anchor="start" x="17" y="-114" font-family="Helvetica,sans-Serif" font-size="10.00">raw_encode()</text>
<polygon fill="#666666" stroke="#666666" points="0,-169 0,-169 88,-169 88,-169 0,-169"/>
<polygon fill="#666666" stroke="#666666" points="0,-139 0,-139 15,-139 15,-139 0,-139"/>
<polygon fill="#666666" stroke="#666666" points="15,-139 15,-139 88,-139 88,-139 15,-139"/>
<polygon fill="none" stroke="#666666" points="0,-107.5 0,-186.5 88,-186.5 88,-107.5 0,-107.5"/>
</a>
</g>
</g>
<!-- Node1&#45;&gt;Node3 -->
<g id="edge2_Node000001_Node000003" class="edge">
<title>Node1&#45;&gt;Node3</title>
<g id="a_edge2_Node000001_Node000003"><a xlink:title=" ">
<path fill="none" stroke="#63b8ff" d="M505.66,-299.18C414.39,-297.94 229.25,-285.25 97,-209 87.16,-203.32 78.23,-195.13 70.64,-186.59"/>
<polygon fill="none" stroke="#63b8ff" points="505.76,-302.68 515.79,-299.28 505.82,-295.68 505.76,-302.68"/>
</a>
</g>
</g>
<!-- Node4 -->
<g id="Node000004" class="node">
<title>Node4</title>
<g id="a_Node000004"><a xlink:href="structinstr__irq.html" target="_top" xlink:title=" ">
<polygon fill="white" stroke="transparent" points="194,-194 106,-194 106,-100 194,-100 194,-194"/>
<text text-anchor="start" x="130" y="-182" font-family="Helvetica,sans-Serif" font-size="10.00">instr_irq</text>
<text text-anchor="start" x="110" y="-167" font-family="Helvetica,sans-Serif" font-size="10.00">+</text>
<text text-anchor="start" x="123" y="-167" font-family="Helvetica,sans-Serif" font-size="10.00">irq_type</text>
<text text-anchor="start" x="110" y="-152" font-family="Helvetica,sans-Serif" font-size="10.00">+</text>
<text text-anchor="start" x="123" y="-152" font-family="Helvetica,sans-Serif" font-size="10.00">modifiers</text>
<text text-anchor="start" x="110" y="-137" font-family="Helvetica,sans-Serif" font-size="10.00">+</text>
<text text-anchor="start" x="123" y="-137" font-family="Helvetica,sans-Serif" font-size="10.00">num</text>
<text text-anchor="start" x="110" y="-122" font-family="Helvetica,sans-Serif" font-size="10.00">+</text>
<text text-anchor="start" x="123" y="-122" font-family="Helvetica,sans-Serif" font-size="10.00">instr_irq()</text>
<text text-anchor="start" x="110" y="-107" font-family="Helvetica,sans-Serif" font-size="10.00">+</text>
<text text-anchor="start" x="123" y="-107" font-family="Helvetica,sans-Serif" font-size="10.00">raw_encode()</text>
<polygon fill="#666666" stroke="#666666" points="106,-177 106,-177 194,-177 194,-177 106,-177"/>
<polygon fill="#666666" stroke="#666666" points="106,-132 106,-132 121,-132 121,-132 106,-132"/>
<polygon fill="#666666" stroke="#666666" points="121,-132 121,-132 194,-132 194,-132 121,-132"/>
<polygon fill="none" stroke="#666666" points="106,-100 106,-194 194,-194 194,-100 106,-100"/>
</a>
</g>
</g>
<!-- Node1&#45;&gt;Node4 -->
<g id="edge3_Node000001_Node000004" class="edge">
<title>Node1&#45;&gt;Node4</title>
<g id="a_edge3_Node000001_Node000004"><a xlink:title=" ">
<path fill="none" stroke="#63b8ff" d="M505.79,-294.98C431.88,-288.09 298.97,-267.87 203,-209 196.42,-204.97 190.23,-199.85 184.55,-194.3"/>
<polygon fill="none" stroke="#63b8ff" points="505.55,-298.48 515.82,-295.87 506.17,-291.5 505.55,-298.48"/>
</a>
</g>
</g>
<!-- Node5 -->
<g id="Node000005" class="node">
<title>Node5</title>
<g id="a_Node000005"><a xlink:href="structinstr__jmp.html" target="_top" xlink:title=" ">
<polygon fill="white" stroke="transparent" points="300,-186.5 212,-186.5 212,-107.5 300,-107.5 300,-186.5"/>
<text text-anchor="start" x="233" y="-174" font-family="Helvetica,sans-Serif" font-size="10.00">instr_jmp</text>
<text text-anchor="start" x="216" y="-159" font-family="Helvetica,sans-Serif" font-size="10.00">+</text>
<text text-anchor="start" x="229" y="-159" font-family="Helvetica,sans-Serif" font-size="10.00">cond</text>
<text text-anchor="start" x="216" y="-144" font-family="Helvetica,sans-Serif" font-size="10.00">+</text>
<text text-anchor="start" x="229" y="-144" font-family="Helvetica,sans-Serif" font-size="10.00">target</text>
<text text-anchor="start" x="216" y="-129" font-family="Helvetica,sans-Serif" font-size="10.00">+</text>
<text text-anchor="start" x="229" y="-129" font-family="Helvetica,sans-Serif" font-size="10.00">instr_jmp()</text>
<text text-anchor="start" x="216" y="-114" font-family="Helvetica,sans-Serif" font-size="10.00">+</text>
<text text-anchor="start" x="229" y="-114" font-family="Helvetica,sans-Serif" font-size="10.00">raw_encode()</text>
<polygon fill="#666666" stroke="#666666" points="212,-169 212,-169 300,-169 300,-169 212,-169"/>
<polygon fill="#666666" stroke="#666666" points="212,-139 212,-139 227,-139 227,-139 212,-139"/>
<polygon fill="#666666" stroke="#666666" points="227,-139 227,-139 300,-139 300,-139 227,-139"/>
<polygon fill="none" stroke="#666666" points="212,-107.5 212,-186.5 300,-186.5 300,-107.5 212,-107.5"/>
</a>
</g>
</g>
<!-- Node1&#45;&gt;Node5 -->
<g id="edge4_Node000001_Node000005" class="edge">
<title>Node1&#45;&gt;Node5</title>
<g id="a_edge4_Node000001_Node000005"><a xlink:title=" ">
<path fill="none" stroke="#63b8ff" d="M505.91,-287.54C452.19,-274.96 369.9,-250.52 309,-209 299.96,-202.84 291.51,-194.77 284.12,-186.52"/>
<polygon fill="none" stroke="#63b8ff" points="505.4,-291.02 515.93,-289.83 506.96,-284.19 505.4,-291.02"/>
</a>
</g>
</g>
<!-- Node6 -->
<g id="Node000006" class="node">
<title>Node6</title>
<g id="a_Node000006"><a xlink:href="structinstr__mov.html" target="_top" xlink:title=" ">
<polygon fill="white" stroke="transparent" points="445.5,-209 318.5,-209 318.5,-85 445.5,-85 445.5,-209"/>
<text text-anchor="start" x="358" y="-197" font-family="Helvetica,sans-Serif" font-size="10.00">instr_mov</text>
<text text-anchor="start" x="323" y="-182" font-family="Helvetica,sans-Serif" font-size="10.00">+</text>
<text text-anchor="start" x="336" y="-182" font-family="Helvetica,sans-Serif" font-size="10.00">dest</text>
<text text-anchor="start" x="323" y="-167" font-family="Helvetica,sans-Serif" font-size="10.00">+</text>
<text text-anchor="start" x="336" y="-167" font-family="Helvetica,sans-Serif" font-size="10.00">op</text>
<text text-anchor="start" x="323" y="-152" font-family="Helvetica,sans-Serif" font-size="10.00">+</text>
<text text-anchor="start" x="336" y="-152" font-family="Helvetica,sans-Serif" font-size="10.00">src</text>
<text text-anchor="start" x="323" y="-137" font-family="Helvetica,sans-Serif" font-size="10.00">+</text>
<text text-anchor="start" x="336" y="-137" font-family="Helvetica,sans-Serif" font-size="10.00">get_push_get_index()</text>
<text text-anchor="start" x="323" y="-122" font-family="Helvetica,sans-Serif" font-size="10.00">+</text>
<text text-anchor="start" x="336" y="-122" font-family="Helvetica,sans-Serif" font-size="10.00">instr_mov()</text>
<text text-anchor="start" x="323" y="-107" font-family="Helvetica,sans-Serif" font-size="10.00">+</text>
<text text-anchor="start" x="336" y="-107" font-family="Helvetica,sans-Serif" font-size="10.00">pre_validate()</text>
<text text-anchor="start" x="323" y="-92" font-family="Helvetica,sans-Serif" font-size="10.00">+</text>
<text text-anchor="start" x="336" y="-92" font-family="Helvetica,sans-Serif" font-size="10.00">raw_encode()</text>
<polygon fill="#666666" stroke="#666666" points="319,-192 319,-192 446,-192 446,-192 319,-192"/>
<polygon fill="#666666" stroke="#666666" points="319,-147 319,-147 334,-147 334,-147 319,-147"/>
<polygon fill="#666666" stroke="#666666" points="334,-147 334,-147 446,-147 446,-147 334,-147"/>
<polygon fill="none" stroke="#666666" points="318.5,-85 318.5,-209 445.5,-209 445.5,-85 318.5,-85"/>
</a>
</g>
</g>
<!-- Node1&#45;&gt;Node6 -->
<g id="edge5_Node000001_Node000006" class="edge">
<title>Node1&#45;&gt;Node6</title>
<g id="a_edge5_Node000001_Node000006"><a xlink:title=" ">
<path fill="none" stroke="#63b8ff" d="M507.93,-253.88C488.42,-237.47 466.11,-218.72 445.75,-201.6"/>
<polygon fill="none" stroke="#63b8ff" points="505.92,-256.77 515.83,-260.52 510.43,-251.41 505.92,-256.77"/>
</a>
</g>
</g>
<!-- Node8 -->
<g id="Node000008" class="node">
<title>Node8</title>
<g id="a_Node000008"><a xlink:href="structinstr__out.html" target="_top" xlink:title=" ">
<polygon fill="white" stroke="transparent" points="552,-186.5 464,-186.5 464,-107.5 552,-107.5 552,-186.5"/>
<text text-anchor="start" x="486.5" y="-174" font-family="Helvetica,sans-Serif" font-size="10.00">instr_out</text>
<text text-anchor="start" x="468" y="-159" font-family="Helvetica,sans-Serif" font-size="10.00">+</text>
<text text-anchor="start" x="481" y="-159" font-family="Helvetica,sans-Serif" font-size="10.00">dest</text>
<text text-anchor="start" x="468" y="-144" font-family="Helvetica,sans-Serif" font-size="10.00">+</text>
<text text-anchor="start" x="481" y="-144" font-family="Helvetica,sans-Serif" font-size="10.00">value</text>
<text text-anchor="start" x="468" y="-129" font-family="Helvetica,sans-Serif" font-size="10.00">+</text>
<text text-anchor="start" x="481" y="-129" font-family="Helvetica,sans-Serif" font-size="10.00">instr_out()</text>
<text text-anchor="start" x="468" y="-114" font-family="Helvetica,sans-Serif" font-size="10.00">+</text>
<text text-anchor="start" x="481" y="-114" font-family="Helvetica,sans-Serif" font-size="10.00">raw_encode()</text>
<polygon fill="#666666" stroke="#666666" points="464,-169 464,-169 552,-169 552,-169 464,-169"/>
<polygon fill="#666666" stroke="#666666" points="464,-139 464,-139 479,-139 479,-139 464,-139"/>
<polygon fill="#666666" stroke="#666666" points="479,-139 479,-139 552,-139 552,-139 479,-139"/>
<polygon fill="none" stroke="#666666" points="464,-107.5 464,-186.5 552,-186.5 552,-107.5 464,-107.5"/>
</a>
</g>
</g>
<!-- Node1&#45;&gt;Node8 -->
<g id="edge7_Node000001_Node000008" class="edge">
<title>Node1&#45;&gt;Node8</title>
<g id="a_edge7_Node000001_Node000008"><a xlink:title=" ">
<path fill="none" stroke="#63b8ff" d="M538.66,-235.07C532.9,-218.71 526.87,-201.59 521.7,-186.9"/>
<polygon fill="none" stroke="#63b8ff" points="535.39,-236.32 542.02,-244.59 542,-234 535.39,-236.32"/>
</a>
</g>
</g>
<!-- Node9 -->
<g id="Node000009" class="node">
<title>Node9</title>
<g id="a_Node000009"><a xlink:href="structinstr__pull.html" target="_top" xlink:title=" ">
<polygon fill="white" stroke="transparent" points="658,-186.5 570,-186.5 570,-107.5 658,-107.5 658,-186.5"/>
<text text-anchor="start" x="591" y="-174" font-family="Helvetica,sans-Serif" font-size="10.00">instr_pull</text>
<text text-anchor="start" x="574" y="-159" font-family="Helvetica,sans-Serif" font-size="10.00">+</text>
<text text-anchor="start" x="587" y="-159" font-family="Helvetica,sans-Serif" font-size="10.00">blocking</text>
<text text-anchor="start" x="574" y="-144" font-family="Helvetica,sans-Serif" font-size="10.00">+</text>
<text text-anchor="start" x="587" y="-144" font-family="Helvetica,sans-Serif" font-size="10.00">if_empty</text>
<text text-anchor="start" x="574" y="-129" font-family="Helvetica,sans-Serif" font-size="10.00">+</text>
<text text-anchor="start" x="587" y="-129" font-family="Helvetica,sans-Serif" font-size="10.00">instr_pull()</text>
<text text-anchor="start" x="574" y="-114" font-family="Helvetica,sans-Serif" font-size="10.00">+</text>
<text text-anchor="start" x="587" y="-114" font-family="Helvetica,sans-Serif" font-size="10.00">raw_encode()</text>
<polygon fill="#666666" stroke="#666666" points="570,-169 570,-169 658,-169 658,-169 570,-169"/>
<polygon fill="#666666" stroke="#666666" points="570,-139 570,-139 585,-139 585,-139 570,-139"/>
<polygon fill="#666666" stroke="#666666" points="585,-139 585,-139 658,-139 658,-139 585,-139"/>
<polygon fill="none" stroke="#666666" points="570,-107.5 570,-186.5 658,-186.5 658,-107.5 570,-107.5"/>
</a>
</g>
</g>
<!-- Node1&#45;&gt;Node9 -->
<g id="edge8_Node000001_Node000009" class="edge">
<title>Node1&#45;&gt;Node9</title>
<g id="a_edge8_Node000001_Node000009"><a xlink:title=" ">
<path fill="none" stroke="#63b8ff" d="M583.34,-235.07C589.1,-218.71 595.13,-201.59 600.3,-186.9"/>
<polygon fill="none" stroke="#63b8ff" points="580,-234 579.98,-244.59 586.61,-236.32 580,-234"/>
</a>
</g>
</g>
<!-- Node10 -->
<g id="Node000010" class="node">
<title>Node10</title>
<g id="a_Node000010"><a xlink:href="structinstr__push.html" target="_top" xlink:title=" ">
<polygon fill="white" stroke="transparent" points="766,-194 676,-194 676,-100 766,-100 766,-194"/>
<text text-anchor="start" x="695.5" y="-182" font-family="Helvetica,sans-Serif" font-size="10.00">instr_push</text>
<text text-anchor="start" x="680" y="-167" font-family="Helvetica,sans-Serif" font-size="10.00">+</text>
<text text-anchor="start" x="693" y="-167" font-family="Helvetica,sans-Serif" font-size="10.00">blocking</text>
<text text-anchor="start" x="680" y="-152" font-family="Helvetica,sans-Serif" font-size="10.00">+</text>
<text text-anchor="start" x="693" y="-152" font-family="Helvetica,sans-Serif" font-size="10.00">if_full</text>
<text text-anchor="start" x="680" y="-137" font-family="Helvetica,sans-Serif" font-size="10.00">+</text>
<text text-anchor="start" x="693" y="-137" font-family="Helvetica,sans-Serif" font-size="10.00">instr_push()</text>
<text text-anchor="start" x="680" y="-122" font-family="Helvetica,sans-Serif" font-size="10.00">+</text>
<text text-anchor="start" x="693" y="-122" font-family="Helvetica,sans-Serif" font-size="10.00">pre_validate()</text>
<text text-anchor="start" x="680" y="-107" font-family="Helvetica,sans-Serif" font-size="10.00">+</text>
<text text-anchor="start" x="693" y="-107" font-family="Helvetica,sans-Serif" font-size="10.00">raw_encode()</text>
<polygon fill="#666666" stroke="#666666" points="676,-177 676,-177 766,-177 766,-177 676,-177"/>
<polygon fill="#666666" stroke="#666666" points="676,-147 676,-147 691,-147 691,-147 676,-147"/>
<polygon fill="#666666" stroke="#666666" points="691,-147 691,-147 766,-147 766,-147 691,-147"/>
<polygon fill="none" stroke="#666666" points="676,-100 676,-194 766,-194 766,-100 676,-100"/>
</a>
</g>
</g>
<!-- Node1&#45;&gt;Node10 -->
<g id="edge9_Node000001_Node000010" class="edge">
<title>Node1&#45;&gt;Node10</title>
<g id="a_edge9_Node000001_Node000010"><a xlink:title=" ">
<path fill="none" stroke="#63b8ff" d="M613.94,-256.37C631.32,-241.87 650.42,-225.2 667,-209 671.76,-204.35 676.58,-199.36 681.3,-194.3"/>
<polygon fill="none" stroke="#63b8ff" points="611.56,-253.79 606.09,-262.87 616.03,-259.19 611.56,-253.79"/>
</a>
</g>
</g>
<!-- Node11 -->
<g id="Node000011" class="node">
<title>Node11</title>
<g id="a_Node000011"><a xlink:href="structinstr__set.html" target="_top" xlink:title=" ">
<polygon fill="white" stroke="transparent" points="872,-186.5 784,-186.5 784,-107.5 872,-107.5 872,-186.5"/>
<text text-anchor="start" x="806.5" y="-174" font-family="Helvetica,sans-Serif" font-size="10.00">instr_set</text>
<text text-anchor="start" x="788" y="-159" font-family="Helvetica,sans-Serif" font-size="10.00">+</text>
<text text-anchor="start" x="801" y="-159" font-family="Helvetica,sans-Serif" font-size="10.00">dest</text>
<text text-anchor="start" x="788" y="-144" font-family="Helvetica,sans-Serif" font-size="10.00">+</text>
<text text-anchor="start" x="801" y="-144" font-family="Helvetica,sans-Serif" font-size="10.00">value</text>
<text text-anchor="start" x="788" y="-129" font-family="Helvetica,sans-Serif" font-size="10.00">+</text>
<text text-anchor="start" x="801" y="-129" font-family="Helvetica,sans-Serif" font-size="10.00">instr_set()</text>
<text text-anchor="start" x="788" y="-114" font-family="Helvetica,sans-Serif" font-size="10.00">+</text>
<text text-anchor="start" x="801" y="-114" font-family="Helvetica,sans-Serif" font-size="10.00">raw_encode()</text>
<polygon fill="#666666" stroke="#666666" points="784,-169 784,-169 872,-169 872,-169 784,-169"/>
<polygon fill="#666666" stroke="#666666" points="784,-139 784,-139 799,-139 799,-139 784,-139"/>
<polygon fill="#666666" stroke="#666666" points="799,-139 799,-139 872,-139 872,-139 799,-139"/>
<polygon fill="none" stroke="#666666" points="784,-107.5 784,-186.5 872,-186.5 872,-107.5 784,-107.5"/>
</a>
</g>
</g>
<!-- Node1&#45;&gt;Node11 -->
<g id="edge10_Node000001_Node000011" class="edge">
<title>Node1&#45;&gt;Node11</title>
<g id="a_edge10_Node000001_Node000011"><a xlink:title=" ">
<path fill="none" stroke="#63b8ff" d="M615.93,-283.24C661.39,-268.87 726.19,-244.27 775,-209 783.64,-202.75 791.82,-194.84 799.06,-186.8"/>
<polygon fill="none" stroke="#63b8ff" points="614.77,-279.93 606.25,-286.23 616.84,-286.62 614.77,-279.93"/>
</a>
</g>
</g>
<!-- Node12 -->
<g id="Node000012" class="node">
<title>Node12</title>
<g id="a_Node000012"><a xlink:href="structinstr__wait.html" target="_top" xlink:title=" ">
<polygon fill="white" stroke="transparent" points="978,-186.5 890,-186.5 890,-107.5 978,-107.5 978,-186.5"/>
<text text-anchor="start" x="909.5" y="-174" font-family="Helvetica,sans-Serif" font-size="10.00">instr_wait</text>
<text text-anchor="start" x="894" y="-159" font-family="Helvetica,sans-Serif" font-size="10.00">+</text>
<text text-anchor="start" x="907" y="-159" font-family="Helvetica,sans-Serif" font-size="10.00">polarity</text>
<text text-anchor="start" x="894" y="-144" font-family="Helvetica,sans-Serif" font-size="10.00">+</text>
<text text-anchor="start" x="907" y="-144" font-family="Helvetica,sans-Serif" font-size="10.00">source</text>
<text text-anchor="start" x="894" y="-129" font-family="Helvetica,sans-Serif" font-size="10.00">+</text>
<text text-anchor="start" x="907" y="-129" font-family="Helvetica,sans-Serif" font-size="10.00">instr_wait()</text>
<text text-anchor="start" x="894" y="-114" font-family="Helvetica,sans-Serif" font-size="10.00">+</text>
<text text-anchor="start" x="907" y="-114" font-family="Helvetica,sans-Serif" font-size="10.00">raw_encode()</text>
<polygon fill="#666666" stroke="#666666" points="890,-169 890,-169 978,-169 978,-169 890,-169"/>
<polygon fill="#666666" stroke="#666666" points="890,-139 890,-139 905,-139 905,-139 890,-139"/>
<polygon fill="#666666" stroke="#666666" points="905,-139 905,-139 978,-139 978,-139 905,-139"/>
<polygon fill="none" stroke="#666666" points="890,-107.5 890,-186.5 978,-186.5 978,-107.5 890,-107.5"/>
</a>
</g>
</g>
<!-- Node1&#45;&gt;Node12 -->
<g id="edge11_Node000001_Node000012" class="edge">
<title>Node1&#45;&gt;Node12</title>
<g id="a_edge11_Node000001_Node000012"><a xlink:title=" ">
<path fill="none" stroke="#63b8ff" d="M616.15,-292.85C683.22,-283.89 797.77,-261.66 881,-209 890.37,-203.07 899,-195 906.46,-186.66"/>
<polygon fill="none" stroke="#63b8ff" points="615.68,-289.38 606.21,-294.13 616.57,-296.33 615.68,-289.38"/>
</a>
</g>
</g>
<!-- Node13 -->
<g id="Node000013" class="node">
<title>Node13</title>
<g id="a_Node000013"><a xlink:href="structinstr__word.html" target="_top" xlink:title=" ">
<polygon fill="white" stroke="transparent" points="1076,-179 996,-179 996,-115 1076,-115 1076,-179"/>
<text text-anchor="start" x="1010" y="-167" font-family="Helvetica,sans-Serif" font-size="10.00">instr_word</text>
<text text-anchor="start" x="1000" y="-152" font-family="Helvetica,sans-Serif" font-size="10.00">+</text>
<text text-anchor="start" x="1013" y="-152" font-family="Helvetica,sans-Serif" font-size="10.00">encoding</text>
<text text-anchor="start" x="1000" y="-137" font-family="Helvetica,sans-Serif" font-size="10.00">+</text>
<text text-anchor="start" x="1013" y="-137" font-family="Helvetica,sans-Serif" font-size="10.00">encode()</text>
<text text-anchor="start" x="1000" y="-122" font-family="Helvetica,sans-Serif" font-size="10.00">+</text>
<text text-anchor="start" x="1013" y="-122" font-family="Helvetica,sans-Serif" font-size="10.00">instr_word()</text>
<polygon fill="#666666" stroke="#666666" points="996,-162 996,-162 1076,-162 1076,-162 996,-162"/>
<polygon fill="#666666" stroke="#666666" points="996,-147 996,-147 1011,-147 1011,-147 996,-147"/>
<polygon fill="#666666" stroke="#666666" points="1011,-147 1011,-147 1076,-147 1076,-147 1011,-147"/>
<polygon fill="none" stroke="#666666" points="996,-115 996,-179 1076,-179 1076,-115 996,-115"/>
</a>
</g>
</g>
<!-- Node1&#45;&gt;Node13 -->
<g id="edge12_Node000001_Node000013" class="edge">
<title>Node1&#45;&gt;Node13</title>
<g id="a_edge12_Node000001_Node000013"><a xlink:title=" ">
<path fill="none" stroke="#63b8ff" d="M616.33,-298.47C701.99,-296.01 869.1,-281.38 987,-209 999.04,-201.61 1009.38,-190.16 1017.42,-179.16"/>
<polygon fill="none" stroke="#63b8ff" points="616.21,-294.97 606.3,-298.71 616.38,-301.97 616.21,-294.97"/>
</a>
</g>
</g>
<!-- Node2 -->
<g id="Node000002" class="node">
<title>Node2</title>
<g id="a_Node000002"><a xlink:href="structsrc__item.html" target="_top" xlink:title=" ">
<polygon fill="white" stroke="transparent" points="596.5,-454 525.5,-454 525.5,-390 596.5,-390 596.5,-454"/>
<text text-anchor="start" x="540" y="-442" font-family="Helvetica,sans-Serif" font-size="10.00">src_item</text>
<text text-anchor="start" x="530" y="-427" font-family="Helvetica,sans-Serif" font-size="10.00">+</text>
<text text-anchor="start" x="543" y="-427" font-family="Helvetica,sans-Serif" font-size="10.00">location</text>
<text text-anchor="start" x="530" y="-412" font-family="Helvetica,sans-Serif" font-size="10.00">+</text>
<text text-anchor="start" x="543" y="-412" font-family="Helvetica,sans-Serif" font-size="10.00">src_item()</text>
<text text-anchor="start" x="530" y="-397" font-family="Helvetica,sans-Serif" font-size="10.00">+</text>
<text text-anchor="start" x="543" y="-397" font-family="Helvetica,sans-Serif" font-size="10.00">src_item()</text>
<polygon fill="#666666" stroke="#666666" points="526,-437 526,-437 597,-437 597,-437 526,-437"/>
<polygon fill="#666666" stroke="#666666" points="526,-422 526,-422 541,-422 541,-422 526,-422"/>
<polygon fill="#666666" stroke="#666666" points="541,-422 541,-422 597,-422 597,-422 541,-422"/>
<polygon fill="none" stroke="#666666" points="525.5,-390 525.5,-454 596.5,-454 596.5,-390 525.5,-390"/>
</a>
</g>
</g>
<!-- Node2&#45;&gt;Node1 -->
<g id="edge1_Node000001_Node000002" class="edge">
<title>Node2&#45;&gt;Node1</title>
<g id="a_edge1_Node000001_Node000002"><a xlink:title=" ">
<path fill="none" stroke="#63b8ff" d="M561,-379.89C561,-371.67 561,-362.91 561,-354.33"/>
<polygon fill="none" stroke="#63b8ff" points="557.5,-379.97 561,-389.97 564.5,-379.97 557.5,-379.97"/>
</a>
</g>
</g>
<!-- Node7 -->
<g id="Node000007" class="node">
<title>Node7</title>
<g id="a_Node000007"><a xlink:href="structinstr__nop.html" target="_top" xlink:title=" ">
<polygon fill="white" stroke="transparent" points="419,-49 345,-49 345,0 419,0 419,-49"/>
<text text-anchor="start" x="359" y="-36.5" font-family="Helvetica,sans-Serif" font-size="10.00">instr_nop</text>
<text text-anchor="start" x="378.5" y="-21.5" font-family="Helvetica,sans-Serif" font-size="10.00"> </text>
<text text-anchor="start" x="349" y="-6.5" font-family="Helvetica,sans-Serif" font-size="10.00">+</text>
<text text-anchor="start" x="362" y="-6.5" font-family="Helvetica,sans-Serif" font-size="10.00">instr_nop()</text>
<polygon fill="#666666" stroke="#666666" points="345,-31.5 345,-31.5 419,-31.5 419,-31.5 345,-31.5"/>
<polygon fill="#666666" stroke="#666666" points="345,-16.5 345,-16.5 419,-16.5 419,-16.5 345,-16.5"/>
<polygon fill="none" stroke="#666666" points="345,0 345,-49 419,-49 419,0 345,0"/>
</a>
</g>
</g>
<!-- Node6&#45;&gt;Node7 -->
<g id="edge6_Node000006_Node000007" class="edge">
<title>Node6&#45;&gt;Node7</title>
<g id="a_edge6_Node000006_Node000007"><a xlink:title=" ">
<path fill="none" stroke="#63b8ff" d="M382,-74.65C382,-65.48 382,-56.67 382,-49.1"/>
<polygon fill="none" stroke="#63b8ff" points="378.5,-74.69 382,-84.69 385.5,-74.69 378.5,-74.69"/>
</a>
</g>
</g>
</g>
</svg>
