<?xml version="1.0" encoding="UTF-8" standalone="no"?>
<!DOCTYPE svg PUBLIC "-//W3C//DTD SVG 1.1//EN"
 "http://www.w3.org/Graphics/SVG/1.1/DTD/svg11.dtd">
<!-- Generated by graphviz version 2.43.0 (0)
 -->
<!-- Title: usb_device_dpram_t::usb_device_dpram_ep_buf_ctrl Pages: 1 -->
<svg width="133pt" height="94pt"
 viewBox="0.00 0.00 133.00 94.00" xmlns="http://www.w3.org/2000/svg" xmlns:xlink="http://www.w3.org/1999/xlink">
<g id="graph0" class="graph" transform="scale(1 1) rotate(0) translate(4 90)">
<title>usb_device_dpram_t::usb_device_dpram_ep_buf_ctrl</title>
<!-- Node1 -->
<g id="Node000001" class="node">
<title>Node1</title>
<g id="a_Node000001"><a xlink:title=" ">
<polygon fill="#999999" stroke="transparent" points="125,-86 0,-86 0,0 125,0 125,-86"/>
<text text-anchor="start" x="5.5" y="-74" font-family="Helvetica,sans-Serif" font-size="10.00">usb_device_dpram_t</text>
<text text-anchor="start" x="5.5" y="-63" font-family="Helvetica,sans-Serif" font-size="10.00">::usb_device_dpram_ep</text>
<text text-anchor="start" x="41.5" y="-52" font-family="Helvetica,sans-Serif" font-size="10.00">_buf_ctrl</text>
<text text-anchor="start" x="26.5" y="-37" font-family="Helvetica,sans-Serif" font-size="10.00">+</text>
<text text-anchor="start" x="61.5" y="-37" font-family="Helvetica,sans-Serif" font-size="10.00">in</text>
<text text-anchor="start" x="26.5" y="-22" font-family="Helvetica,sans-Serif" font-size="10.00">+</text>
<text text-anchor="start" x="61.5" y="-22" font-family="Helvetica,sans-Serif" font-size="10.00">out</text>
<text text-anchor="start" x="59.5" y="-7" font-family="Helvetica,sans-Serif" font-size="10.00"> </text>
<polygon fill="#666666" stroke="#666666" points="0.5,-47 0.5,-47 125.5,-47 125.5,-47 0.5,-47"/>
<polygon fill="#666666" stroke="#666666" points="0.5,-17 0.5,-17 59.5,-17 59.5,-17 0.5,-17"/>
<polygon fill="#666666" stroke="#666666" points="59.5,-17 59.5,-17 125.5,-17 125.5,-17 59.5,-17"/>
<polygon fill="none" stroke="#666666" points="0,0 0,-86 125,-86 125,0 0,0"/>
</a>
</g>
</g>
</g>
</svg>
