<?xml version="1.0" encoding="UTF-8" standalone="no"?>
<!DOCTYPE svg PUBLIC "-//W3C//DTD SVG 1.1//EN"
 "http://www.w3.org/Graphics/SVG/1.1/DTD/svg11.dtd">
<!-- Generated by graphviz version 2.43.0 (0)
 -->
<!-- Title: dma_mpu_region_hw_t Pages: 1 -->
<svg width="132pt" height="72pt"
 viewBox="0.00 0.00 132.00 72.00" xmlns="http://www.w3.org/2000/svg" xmlns:xlink="http://www.w3.org/1999/xlink">
<g id="graph0" class="graph" transform="scale(1 1) rotate(0) translate(4 68)">
<title>dma_mpu_region_hw_t</title>
<!-- Node1 -->
<g id="Node000001" class="node">
<title>Node1</title>
<g id="a_Node000001"><a xlink:title=" ">
<polygon fill="#999999" stroke="transparent" points="124,-64 0,-64 0,0 124,0 124,-64"/>
<text text-anchor="start" x="5" y="-52" font-family="Helvetica,sans-Serif" font-size="10.00">dma_mpu_region_hw_t</text>
<text text-anchor="start" x="25.5" y="-37" font-family="Helvetica,sans-Serif" font-size="10.00">+</text>
<text text-anchor="start" x="60" y="-37" font-family="Helvetica,sans-Serif" font-size="10.00">bar</text>
<text text-anchor="start" x="25.5" y="-22" font-family="Helvetica,sans-Serif" font-size="10.00">+</text>
<text text-anchor="start" x="60" y="-22" font-family="Helvetica,sans-Serif" font-size="10.00">lar</text>
<text text-anchor="start" x="58.5" y="-7" font-family="Helvetica,sans-Serif" font-size="10.00"> </text>
<polygon fill="#666666" stroke="#666666" points="0,-47 0,-47 124,-47 124,-47 0,-47"/>
<polygon fill="#666666" stroke="#666666" points="0,-17 0,-17 58,-17 58,-17 0,-17"/>
<polygon fill="#666666" stroke="#666666" points="58,-17 58,-17 124,-17 124,-17 58,-17"/>
<polygon fill="none" stroke="#666666" points="0,0 0,-64 124,-64 124,0 0,0"/>
</a>
</g>
</g>
</g>
</svg>
