<?xml version="1.0" encoding="UTF-8" standalone="no"?>
<!DOCTYPE svg PUBLIC "-//W3C//DTD SVG 1.1//EN"
 "http://www.w3.org/Graphics/SVG/1.1/DTD/svg11.dtd">
<!-- Generated by graphviz version 2.43.0 (0)
 -->
<!-- Title: _binary_info_list_zero_terminated Pages: 1 -->
<svg width="125pt" height="179pt"
 viewBox="0.00 0.00 125.00 179.00" xmlns="http://www.w3.org/2000/svg" xmlns:xlink="http://www.w3.org/1999/xlink">
<g id="graph0" class="graph" transform="scale(1 1) rotate(0) translate(4 175)">
<title>_binary_info_list_zero_terminated</title>
<!-- Node1 -->
<g id="Node000001" class="node">
<title>Node1</title>
<g id="a_Node000001"><a xlink:title=" ">
<polygon fill="#999999" stroke="transparent" points="117,-60 0,-60 0,0 117,0 117,-60"/>
<text text-anchor="start" x="5.5" y="-48" font-family="Helvetica,sans-Serif" font-size="10.00">_binary_info_list_zero</text>
<text text-anchor="start" x="29" y="-37" font-family="Helvetica,sans-Serif" font-size="10.00">_terminated</text>
<text text-anchor="start" x="55.5" y="-22" font-family="Helvetica,sans-Serif" font-size="10.00"> </text>
<text text-anchor="start" x="15.5" y="-7" font-family="Helvetica,sans-Serif" font-size="10.00">+</text>
<text text-anchor="start" x="39.5" y="-7" font-family="Helvetica,sans-Serif" font-size="10.00">bi_ptr_of()</text>
<polygon fill="#666666" stroke="#666666" points="0.5,-32 0.5,-32 117.5,-32 117.5,-32 0.5,-32"/>
<polygon fill="#666666" stroke="#666666" points="0.5,-17 0.5,-17 117.5,-17 117.5,-17 0.5,-17"/>
<polygon fill="none" stroke="#666666" points="0,0 0,-60 117,-60 117,0 0,0"/>
</a>
</g>
</g>
<!-- Node2 -->
<g id="Node000002" class="node">
<title>Node2</title>
<g id="a_Node000002"><a xlink:href="struct__binary__info__core.html" target="_top" xlink:title=" ">
<polygon fill="white" stroke="transparent" points="107,-171 10,-171 10,-107 107,-107 107,-171"/>
<text text-anchor="start" x="15.5" y="-159" font-family="Helvetica,sans-Serif" font-size="10.00">_binary_info_core</text>
<text text-anchor="start" x="28" y="-144" font-family="Helvetica,sans-Serif" font-size="10.00">+</text>
<text text-anchor="start" x="54.5" y="-144" font-family="Helvetica,sans-Serif" font-size="10.00">tag</text>
<text text-anchor="start" x="28" y="-129" font-family="Helvetica,sans-Serif" font-size="10.00">+</text>
<text text-anchor="start" x="54.5" y="-129" font-family="Helvetica,sans-Serif" font-size="10.00">type</text>
<text text-anchor="start" x="55.5" y="-114" font-family="Helvetica,sans-Serif" font-size="10.00"> </text>
<polygon fill="#666666" stroke="#666666" points="10.5,-154 10.5,-154 107.5,-154 107.5,-154 10.5,-154"/>
<polygon fill="#666666" stroke="#666666" points="10.5,-124 10.5,-124 52.5,-124 52.5,-124 10.5,-124"/>
<polygon fill="#666666" stroke="#666666" points="52.5,-124 52.5,-124 107.5,-124 107.5,-124 52.5,-124"/>
<polygon fill="none" stroke="#666666" points="10,-107 10,-171 107,-171 107,-107 10,-107"/>
</a>
</g>
</g>
<!-- Node2&#45;&gt;Node1 -->
<g id="edge1_Node000001_Node000002" class="edge">
<title>Node2&#45;&gt;Node1</title>
<g id="a_edge1_Node000001_Node000002"><a xlink:title=" ">
<path fill="none" stroke="#63b8ff" d="M58.5,-106.76C58.5,-95.98 58.5,-83.73 58.5,-72.27"/>
<polygon fill="none" stroke="#63b8ff" points="58.5,-72.26 54.5,-66.26 58.5,-60.26 62.5,-66.26 58.5,-72.26"/>
</a>
</g>
<text text-anchor="middle" x="75" y="-81" font-family="Helvetica,sans-Serif" font-size="10.00" fill="grey"> +core</text>
</g>
</g>
</svg>
