<?xml version="1.0" encoding="UTF-8" standalone="no"?>
<!DOCTYPE svg PUBLIC "-//W3C//DTD SVG 1.1//EN"
 "http://www.w3.org/Graphics/SVG/1.1/DTD/svg11.dtd">
<!-- Generated by graphviz version 2.43.0 (0)
 -->
<!-- Title: qmi_hw_t Pages: 1 -->
<svg width="97pt" height="258pt"
 viewBox="0.00 0.00 97.00 258.00" xmlns="http://www.w3.org/2000/svg" xmlns:xlink="http://www.w3.org/1999/xlink">
<g id="graph0" class="graph" transform="scale(1 1) rotate(0) translate(4 254)">
<title>qmi_hw_t</title>
<!-- Node1 -->
<g id="Node000001" class="node">
<title>Node1</title>
<g id="a_Node000001"><a xlink:title=" ">
<polygon fill="#999999" stroke="transparent" points="79,-94 10,-94 10,0 79,0 79,-94"/>
<text text-anchor="start" x="21" y="-82" font-family="Helvetica,sans-Serif" font-size="10.00">qmi_hw_t</text>
<text text-anchor="start" x="14.5" y="-67" font-family="Helvetica,sans-Serif" font-size="10.00">+</text>
<text text-anchor="start" x="27.5" y="-67" font-family="Helvetica,sans-Serif" font-size="10.00">atrans</text>
<text text-anchor="start" x="14.5" y="-52" font-family="Helvetica,sans-Serif" font-size="10.00">+</text>
<text text-anchor="start" x="27.5" y="-52" font-family="Helvetica,sans-Serif" font-size="10.00">direct_csr</text>
<text text-anchor="start" x="14.5" y="-37" font-family="Helvetica,sans-Serif" font-size="10.00">+</text>
<text text-anchor="start" x="27.5" y="-37" font-family="Helvetica,sans-Serif" font-size="10.00">direct_rx</text>
<text text-anchor="start" x="14.5" y="-22" font-family="Helvetica,sans-Serif" font-size="10.00">+</text>
<text text-anchor="start" x="27.5" y="-22" font-family="Helvetica,sans-Serif" font-size="10.00">direct_tx</text>
<text text-anchor="start" x="41.5" y="-7" font-family="Helvetica,sans-Serif" font-size="10.00"> </text>
<polygon fill="#666666" stroke="#666666" points="10.5,-77 10.5,-77 79.5,-77 79.5,-77 10.5,-77"/>
<polygon fill="#666666" stroke="#666666" points="10.5,-17 10.5,-17 25.5,-17 25.5,-17 10.5,-17"/>
<polygon fill="#666666" stroke="#666666" points="25.5,-17 25.5,-17 79.5,-17 79.5,-17 25.5,-17"/>
<polygon fill="none" stroke="#666666" points="10,0 10,-94 79,-94 79,0 10,0"/>
</a>
</g>
</g>
<!-- Node2 -->
<g id="Node000002" class="node">
<title>Node2</title>
<g id="a_Node000002"><a xlink:href="structqmi__mem__hw__t.html" target="_top" xlink:title=" ">
<polygon fill="white" stroke="transparent" points="89,-250 0,-250 0,-141 89,-141 89,-250"/>
<text text-anchor="start" x="5.5" y="-237.5" font-family="Helvetica,sans-Serif" font-size="10.00">qmi_mem_hw_t</text>
<text text-anchor="start" x="13.5" y="-222.5" font-family="Helvetica,sans-Serif" font-size="10.00">+</text>
<text text-anchor="start" x="35.5" y="-222.5" font-family="Helvetica,sans-Serif" font-size="10.00">rcmd</text>
<text text-anchor="start" x="13.5" y="-207.5" font-family="Helvetica,sans-Serif" font-size="10.00">+</text>
<text text-anchor="start" x="35.5" y="-207.5" font-family="Helvetica,sans-Serif" font-size="10.00">rfmt</text>
<text text-anchor="start" x="13.5" y="-192.5" font-family="Helvetica,sans-Serif" font-size="10.00">+</text>
<text text-anchor="start" x="35.5" y="-192.5" font-family="Helvetica,sans-Serif" font-size="10.00">timing</text>
<text text-anchor="start" x="13.5" y="-177.5" font-family="Helvetica,sans-Serif" font-size="10.00">+</text>
<text text-anchor="start" x="35.5" y="-177.5" font-family="Helvetica,sans-Serif" font-size="10.00">wcmd</text>
<text text-anchor="start" x="13.5" y="-162.5" font-family="Helvetica,sans-Serif" font-size="10.00">+</text>
<text text-anchor="start" x="35.5" y="-162.5" font-family="Helvetica,sans-Serif" font-size="10.00">wfmt</text>
<text text-anchor="start" x="41.5" y="-147.5" font-family="Helvetica,sans-Serif" font-size="10.00"> </text>
<polygon fill="#666666" stroke="#666666" points="0.5,-232.5 0.5,-232.5 89.5,-232.5 89.5,-232.5 0.5,-232.5"/>
<polygon fill="#666666" stroke="#666666" points="0.5,-157.5 0.5,-157.5 33.5,-157.5 33.5,-157.5 0.5,-157.5"/>
<polygon fill="#666666" stroke="#666666" points="33.5,-157.5 33.5,-157.5 89.5,-157.5 89.5,-157.5 33.5,-157.5"/>
<polygon fill="none" stroke="#666666" points="0,-141 0,-250 89,-250 89,-141 0,-141"/>
</a>
</g>
</g>
<!-- Node2&#45;&gt;Node1 -->
<g id="edge1_Node000001_Node000002" class="edge">
<title>Node2&#45;&gt;Node1</title>
<g id="a_edge1_Node000001_Node000002"><a xlink:title=" ">
<path fill="none" stroke="#63b8ff" d="M44.5,-140.78C44.5,-129.63 44.5,-117.82 44.5,-106.5"/>
<polygon fill="none" stroke="#63b8ff" points="44.5,-106.47 40.5,-100.47 44.5,-94.47 48.5,-100.47 44.5,-106.47"/>
</a>
</g>
<text text-anchor="middle" x="55.5" y="-115" font-family="Helvetica,sans-Serif" font-size="10.00" fill="grey"> +m</text>
</g>
</g>
</svg>
