<?xml version="1.0" encoding="UTF-8" standalone="no"?>
<!DOCTYPE svg PUBLIC "-//W3C//DTD SVG 1.1//EN"
 "http://www.w3.org/Graphics/SVG/1.1/DTD/svg11.dtd">
<!-- Generated by graphviz version 2.43.0 (0)
 -->
<!-- Title: pio_hw_t Pages: 1 -->
<svg width="194pt" height="378pt"
 viewBox="0.00 0.00 193.50 378.00" xmlns="http://www.w3.org/2000/svg" xmlns:xlink="http://www.w3.org/1999/xlink">
<g id="graph0" class="graph" transform="scale(1 1) rotate(0) translate(4 374)">
<title>pio_hw_t</title>
<!-- Node1 -->
<g id="Node000001" class="node">
<title>Node1</title>
<g id="a_Node000001"><a xlink:title=" ">
<polygon fill="#999999" stroke="transparent" points="127.5,-199 48.5,-199 48.5,0 127.5,0 127.5,-199"/>
<text text-anchor="start" x="66.5" y="-186.5" font-family="Helvetica,sans-Serif" font-size="10.00">pio_hw_t</text>
<text text-anchor="start" x="53" y="-171.5" font-family="Helvetica,sans-Serif" font-size="10.00">+</text>
<text text-anchor="start" x="66" y="-171.5" font-family="Helvetica,sans-Serif" font-size="10.00">@27</text>
<text text-anchor="start" x="53" y="-156.5" font-family="Helvetica,sans-Serif" font-size="10.00">+</text>
<text text-anchor="start" x="66" y="-156.5" font-family="Helvetica,sans-Serif" font-size="10.00">@59</text>
<text text-anchor="start" x="53" y="-141.5" font-family="Helvetica,sans-Serif" font-size="10.00">+</text>
<text text-anchor="start" x="66" y="-141.5" font-family="Helvetica,sans-Serif" font-size="10.00">ctrl</text>
<text text-anchor="start" x="53" y="-126.5" font-family="Helvetica,sans-Serif" font-size="10.00">+</text>
<text text-anchor="start" x="66" y="-126.5" font-family="Helvetica,sans-Serif" font-size="10.00">dbg_cfginfo</text>
<text text-anchor="start" x="53" y="-111.5" font-family="Helvetica,sans-Serif" font-size="10.00">+</text>
<text text-anchor="start" x="66" y="-111.5" font-family="Helvetica,sans-Serif" font-size="10.00">dbg_padoe</text>
<text text-anchor="start" x="53" y="-96.5" font-family="Helvetica,sans-Serif" font-size="10.00">+</text>
<text text-anchor="start" x="66" y="-96.5" font-family="Helvetica,sans-Serif" font-size="10.00">dbg_padout</text>
<text text-anchor="start" x="53" y="-81.5" font-family="Helvetica,sans-Serif" font-size="10.00">+</text>
<text text-anchor="start" x="66" y="-81.5" font-family="Helvetica,sans-Serif" font-size="10.00">fdebug</text>
<text text-anchor="start" x="53" y="-66.5" font-family="Helvetica,sans-Serif" font-size="10.00">+</text>
<text text-anchor="start" x="66" y="-66.5" font-family="Helvetica,sans-Serif" font-size="10.00">flevel</text>
<text text-anchor="start" x="53" y="-51.5" font-family="Helvetica,sans-Serif" font-size="10.00">+</text>
<text text-anchor="start" x="66" y="-51.5" font-family="Helvetica,sans-Serif" font-size="10.00">fstat</text>
<text text-anchor="start" x="53" y="-36.5" font-family="Helvetica,sans-Serif" font-size="10.00">+</text>
<text text-anchor="start" x="66" y="-36.5" font-family="Helvetica,sans-Serif" font-size="10.00">gpiobase</text>
<text text-anchor="start" x="66" y="-21.5" font-family="Helvetica,sans-Serif" font-size="10.00">e 14 mais...</text>
<text text-anchor="start" x="85" y="-6.5" font-family="Helvetica,sans-Serif" font-size="10.00"> </text>
<polygon fill="#666666" stroke="#666666" points="49,-181.5 49,-181.5 128,-181.5 128,-181.5 49,-181.5"/>
<polygon fill="#666666" stroke="#666666" points="49,-16.5 49,-16.5 64,-16.5 64,-16.5 49,-16.5"/>
<polygon fill="#666666" stroke="#666666" points="64,-16.5 64,-16.5 128,-16.5 128,-16.5 64,-16.5"/>
<polygon fill="none" stroke="#666666" points="48.5,0 48.5,-199 127.5,-199 127.5,0 48.5,0"/>
</a>
</g>
</g>
<!-- Node2 -->
<g id="Node000002" class="node">
<title>Node2</title>
<g id="a_Node000002"><a xlink:href="structpio__sm__hw__t.html" target="_top" xlink:title=" ">
<polygon fill="white" stroke="transparent" points="74,-370 0,-370 0,-246 74,-246 74,-370"/>
<text text-anchor="start" x="5" y="-358" font-family="Helvetica,sans-Serif" font-size="10.00">pio_sm_hw_t</text>
<text text-anchor="start" x="7" y="-343" font-family="Helvetica,sans-Serif" font-size="10.00">+</text>
<text text-anchor="start" x="23" y="-343" font-family="Helvetica,sans-Serif" font-size="10.00">addr</text>
<text text-anchor="start" x="7" y="-328" font-family="Helvetica,sans-Serif" font-size="10.00">+</text>
<text text-anchor="start" x="23" y="-328" font-family="Helvetica,sans-Serif" font-size="10.00">clkdiv</text>
<text text-anchor="start" x="7" y="-313" font-family="Helvetica,sans-Serif" font-size="10.00">+</text>
<text text-anchor="start" x="23" y="-313" font-family="Helvetica,sans-Serif" font-size="10.00">execctrl</text>
<text text-anchor="start" x="7" y="-298" font-family="Helvetica,sans-Serif" font-size="10.00">+</text>
<text text-anchor="start" x="23" y="-298" font-family="Helvetica,sans-Serif" font-size="10.00">instr</text>
<text text-anchor="start" x="7" y="-283" font-family="Helvetica,sans-Serif" font-size="10.00">+</text>
<text text-anchor="start" x="23" y="-283" font-family="Helvetica,sans-Serif" font-size="10.00">pinctrl</text>
<text text-anchor="start" x="7" y="-268" font-family="Helvetica,sans-Serif" font-size="10.00">+</text>
<text text-anchor="start" x="23" y="-268" font-family="Helvetica,sans-Serif" font-size="10.00">shiftctrl</text>
<text text-anchor="start" x="33.5" y="-253" font-family="Helvetica,sans-Serif" font-size="10.00"> </text>
<polygon fill="#666666" stroke="#666666" points="0,-353 0,-353 74,-353 74,-353 0,-353"/>
<polygon fill="#666666" stroke="#666666" points="0,-263 0,-263 21,-263 21,-263 0,-263"/>
<polygon fill="#666666" stroke="#666666" points="21,-263 21,-263 74,-263 74,-263 21,-263"/>
<polygon fill="none" stroke="#666666" points="0,-246 0,-370 74,-370 74,-246 0,-246"/>
</a>
</g>
</g>
<!-- Node2&#45;&gt;Node1 -->
<g id="edge1_Node000001_Node000002" class="edge">
<title>Node2&#45;&gt;Node1</title>
<g id="a_edge1_Node000001_Node000002"><a xlink:title=" ">
<path fill="none" stroke="#63b8ff" d="M52.09,-245.88C54.83,-234.82 57.75,-222.98 60.71,-211.01"/>
<polygon fill="none" stroke="#63b8ff" points="60.79,-210.67 58.35,-203.89 63.67,-199.02 66.11,-205.81 60.79,-210.67"/>
</a>
</g>
<text text-anchor="middle" x="71.5" y="-220" font-family="Helvetica,sans-Serif" font-size="10.00" fill="grey"> +sm</text>
</g>
<!-- Node3 -->
<g id="Node000003" class="node">
<title>Node3</title>
<g id="a_Node000003"><a xlink:href="structpio__irq__ctrl__hw__t.html" target="_top" xlink:title=" ">
<polygon fill="white" stroke="transparent" points="185.5,-347.5 92.5,-347.5 92.5,-268.5 185.5,-268.5 185.5,-347.5"/>
<text text-anchor="start" x="98" y="-335" font-family="Helvetica,sans-Serif" font-size="10.00">pio_irq_ctrl_hw_t</text>
<text text-anchor="start" x="110" y="-320" font-family="Helvetica,sans-Serif" font-size="10.00">+</text>
<text text-anchor="start" x="136" y="-320" font-family="Helvetica,sans-Serif" font-size="10.00">inte</text>
<text text-anchor="start" x="110" y="-305" font-family="Helvetica,sans-Serif" font-size="10.00">+</text>
<text text-anchor="start" x="136" y="-305" font-family="Helvetica,sans-Serif" font-size="10.00">intf</text>
<text text-anchor="start" x="110" y="-290" font-family="Helvetica,sans-Serif" font-size="10.00">+</text>
<text text-anchor="start" x="136" y="-290" font-family="Helvetica,sans-Serif" font-size="10.00">ints</text>
<text text-anchor="start" x="136" y="-275" font-family="Helvetica,sans-Serif" font-size="10.00"> </text>
<polygon fill="#666666" stroke="#666666" points="93,-330 93,-330 186,-330 186,-330 93,-330"/>
<polygon fill="#666666" stroke="#666666" points="93,-285 93,-285 134,-285 134,-285 93,-285"/>
<polygon fill="#666666" stroke="#666666" points="134,-285 134,-285 186,-285 186,-285 134,-285"/>
<polygon fill="none" stroke="#666666" points="92.5,-268.5 92.5,-347.5 185.5,-347.5 185.5,-268.5 92.5,-268.5"/>
</a>
</g>
</g>
<!-- Node3&#45;&gt;Node1 -->
<g id="edge2_Node000001_Node000003" class="edge">
<title>Node3&#45;&gt;Node1</title>
<g id="a_edge2_Node000001_Node000003"><a xlink:title=" ">
<path fill="none" stroke="#63b8ff" d="M129.41,-268.16C125.34,-251.67 120.36,-231.54 115.3,-211.03"/>
<polygon fill="none" stroke="#63b8ff" points="115.27,-210.92 109.95,-206.05 112.39,-199.27 117.72,-204.14 115.27,-210.92"/>
</a>
</g>
<text text-anchor="middle" x="141" y="-220" font-family="Helvetica,sans-Serif" font-size="10.00" fill="grey"> +irq_ctrl</text>
</g>
</g>
</svg>
