<?xml version="1.0" encoding="UTF-8" standalone="no"?>
<!DOCTYPE svg PUBLIC "-//W3C//DTD SVG 1.1//EN"
 "http://www.w3.org/Graphics/SVG/1.1/DTD/svg11.dtd">
<!-- Generated by graphviz version 2.43.0 (0)
 -->
<!-- Title: sync_spin_lock.c Pages: 1 -->
<svg width="170pt" height="148pt"
 viewBox="0.00 0.00 169.50 148.00" xmlns="http://www.w3.org/2000/svg" xmlns:xlink="http://www.w3.org/1999/xlink">
<g id="graph0" class="graph" transform="scale(1 1) rotate(0) translate(4 144)">
<title>sync_spin_lock.c</title>
<!-- Node1 -->
<g id="Node000001" class="node">
<title>Node1</title>
<g id="a_Node000001"><a xlink:title=" ">
<polygon fill="#999999" stroke="#666666" points="117,-140 19,-140 19,-121 117,-121 117,-140"/>
<text text-anchor="middle" x="68" y="-128" font-family="Helvetica,sans-Serif" font-size="10.00">sync_spin_lock.c</text>
</a>
</g>
</g>
<!-- Node2 -->
<g id="Node000002" class="node">
<title>Node2</title>
<g id="a_Node000002"><a xlink:href="spin__lock_8h.html" target="_top" xlink:title=" ">
<polygon fill="white" stroke="#666666" points="123.5,-85 12.5,-85 12.5,-55 123.5,-55 123.5,-85"/>
<text text-anchor="start" x="20.5" y="-73" font-family="Helvetica,sans-Serif" font-size="10.00">hardware/sync/spin</text>
<text text-anchor="middle" x="68" y="-62" font-family="Helvetica,sans-Serif" font-size="10.00">_lock.h</text>
</a>
</g>
</g>
<!-- Node1&#45;&gt;Node2 -->
<g id="edge1_Node000001_Node000002" class="edge">
<title>Node1&#45;&gt;Node2</title>
<g id="a_edge1_Node000001_Node000002"><a xlink:title=" ">
<path fill="none" stroke="#63b8ff" d="M68,-120.87C68,-114.11 68,-104.35 68,-95.26"/>
<polygon fill="#63b8ff" stroke="#63b8ff" points="71.5,-95.11 68,-85.11 64.5,-95.11 71.5,-95.11"/>
</a>
</g>
</g>
<!-- Node3 -->
<g id="Node000003" class="node">
<title>Node3</title>
<g id="a_Node000003"><a xlink:title=" ">
<polygon fill="#e0e0e0" stroke="#999999" points="46,-19 0,-19 0,0 46,0 46,-19"/>
<text text-anchor="middle" x="23" y="-7" font-family="Helvetica,sans-Serif" font-size="10.00">pico.h</text>
</a>
</g>
</g>
<!-- Node2&#45;&gt;Node3 -->
<g id="edge2_Node000002_Node000003" class="edge">
<title>Node2&#45;&gt;Node3</title>
<g id="a_edge2_Node000002_Node000003"><a xlink:title=" ">
<path fill="none" stroke="#63b8ff" d="M57.11,-54.84C50.71,-46.52 42.58,-35.96 35.87,-27.23"/>
<polygon fill="#63b8ff" stroke="#63b8ff" points="38.61,-25.06 29.74,-19.27 33.07,-29.33 38.61,-25.06"/>
</a>
</g>
</g>
<!-- Node4 -->
<g id="Node000004" class="node">
<title>Node4</title>
<g id="a_Node000004"><a xlink:title=" ">
<polygon fill="#e0e0e0" stroke="#999999" points="161.5,-19 64.5,-19 64.5,0 161.5,0 161.5,-19"/>
<text text-anchor="middle" x="113" y="-7" font-family="Helvetica,sans-Serif" font-size="10.00">hardware/sync.h</text>
</a>
</g>
</g>
<!-- Node2&#45;&gt;Node4 -->
<g id="edge3_Node000002_Node000004" class="edge">
<title>Node2&#45;&gt;Node4</title>
<g id="a_edge3_Node000002_Node000004"><a xlink:title=" ">
<path fill="none" stroke="#63b8ff" d="M78.89,-54.84C85.29,-46.52 93.42,-35.96 100.13,-27.23"/>
<polygon fill="#63b8ff" stroke="#63b8ff" points="102.93,-29.33 106.26,-19.27 97.39,-25.06 102.93,-29.33"/>
</a>
</g>
</g>
</g>
</svg>
