<?xml version="1.0" encoding="UTF-8" standalone="no"?>
<!DOCTYPE svg PUBLIC "-//W3C//DTD SVG 1.1//EN"
 "http://www.w3.org/Graphics/SVG/1.1/DTD/svg11.dtd">
<!-- Generated by graphviz version 2.43.0 (0)
 -->
<!-- Title: system_RP2040.h Pages: 1 -->
<svg width="112pt" height="137pt"
 viewBox="0.00 0.00 112.00 137.00" xmlns="http://www.w3.org/2000/svg" xmlns:xlink="http://www.w3.org/1999/xlink">
<g id="graph0" class="graph" transform="scale(1 1) rotate(0) translate(4 133)">
<title>system_RP2040.h</title>
<!-- Node1 -->
<g id="Node000001" class="node">
<title>Node1</title>
<g id="a_Node000001"><a xlink:title="CMSIS&#45;Core(M) Device Peripheral Access Layer Header File for Device RP2040.">
<polygon fill="#999999" stroke="#666666" points="104,-129 0,-129 0,-110 104,-110 104,-129"/>
<text text-anchor="middle" x="52" y="-117" font-family="Helvetica,sans-Serif" font-size="10.00">system_RP2040.h</text>
</a>
</g>
</g>
<!-- Node2 -->
<g id="Node000002" class="node">
<title>Node2</title>
<g id="a_Node000002"><a xlink:href="RP2040_8h.html" target="_top" xlink:title=" ">
<polygon fill="white" stroke="#666666" points="83,-74 21,-74 21,-55 83,-55 83,-74"/>
<text text-anchor="middle" x="52" y="-62" font-family="Helvetica,sans-Serif" font-size="10.00">RP2040.h</text>
</a>
</g>
</g>
<!-- Node1&#45;&gt;Node2 -->
<g id="edge1_Node000001_Node000002" class="edge">
<title>Node1&#45;&gt;Node2</title>
<g id="a_edge1_Node000001_Node000002"><a xlink:title=" ">
<path fill="none" stroke="#63b8ff" d="M52,-99.66C52,-90.93 52,-80.99 52,-74.09"/>
<polygon fill="#63b8ff" stroke="#63b8ff" points="48.5,-99.75 52,-109.75 55.5,-99.75 48.5,-99.75"/>
</a>
</g>
</g>
<!-- Node3 -->
<g id="Node000003" class="node">
<title>Node3</title>
<g id="a_Node000003"><a xlink:href="system__RP2040_8c.html" target="_top" xlink:title="CMSIS&#45;Core(M) Device Peripheral Access Layer Header File for Device RP2040.">
<polygon fill="white" stroke="#666666" points="103.5,-19 0.5,-19 0.5,0 103.5,0 103.5,-19"/>
<text text-anchor="middle" x="52" y="-7" font-family="Helvetica,sans-Serif" font-size="10.00">system_RP2040.c</text>
</a>
</g>
</g>
<!-- Node2&#45;&gt;Node3 -->
<g id="edge2_Node000002_Node000003" class="edge">
<title>Node2&#45;&gt;Node3</title>
<g id="a_edge2_Node000002_Node000003"><a xlink:title=" ">
<path fill="none" stroke="#63b8ff" d="M52,-44.66C52,-35.93 52,-25.99 52,-19.09"/>
<polygon fill="#63b8ff" stroke="#63b8ff" points="48.5,-44.75 52,-54.75 55.5,-44.75 48.5,-44.75"/>
</a>
</g>
</g>
</g>
</svg>
