<?xml version="1.0" encoding="UTF-8" standalone="no"?>
<!DOCTYPE svg PUBLIC "-//W3C//DTD SVG 1.1//EN"
 "http://www.w3.org/Graphics/SVG/1.1/DTD/svg11.dtd">
<!-- Generated by graphviz version 2.43.0 (0)
 -->
<!-- Title: system_RP2350.c Pages: 1 -->
<svg width="473pt" height="247pt"
 viewBox="0.00 0.00 473.00 247.00" xmlns="http://www.w3.org/2000/svg" xmlns:xlink="http://www.w3.org/1999/xlink">
<g id="graph0" class="graph" transform="scale(1 1) rotate(0) translate(4 243)">
<title>system_RP2350.c</title>
<!-- Node1 -->
<g id="Node000001" class="node">
<title>Node1</title>
<g id="a_Node000001"><a xlink:title="CMSIS&#45;Core(M) Device Peripheral Access Layer Header File for Device RP2350.">
<polygon fill="#999999" stroke="#666666" points="181,-239 78,-239 78,-220 181,-220 181,-239"/>
<text text-anchor="middle" x="129.5" y="-227" font-family="Helvetica,sans-Serif" font-size="10.00">system_RP2350.c</text>
</a>
</g>
</g>
<!-- Node2 -->
<g id="Node000002" class="node">
<title>Node2</title>
<g id="a_Node000002"><a xlink:title=" ">
<polygon fill="#e0e0e0" stroke="#999999" points="53,-19 0,-19 0,0 53,0 53,-19"/>
<text text-anchor="middle" x="26.5" y="-7" font-family="Helvetica,sans-Serif" font-size="10.00">stdint.h</text>
</a>
</g>
</g>
<!-- Node1&#45;&gt;Node2 -->
<g id="edge1_Node000001_Node000002" class="edge">
<title>Node1&#45;&gt;Node2</title>
<g id="a_edge1_Node000001_Node000002"><a xlink:title=" ">
<path fill="none" stroke="#63b8ff" d="M115.74,-219.83C93.08,-204.64 48.59,-170.82 30.5,-129 16.32,-96.22 19.52,-53.43 23.06,-29.27"/>
<polygon fill="#63b8ff" stroke="#63b8ff" points="26.53,-29.74 24.7,-19.3 19.62,-28.6 26.53,-29.74"/>
</a>
</g>
</g>
<!-- Node3 -->
<g id="Node000003" class="node">
<title>Node3</title>
<g id="a_Node000003"><a xlink:href="RP2350_8h.html" target="_top" xlink:title=" ">
<polygon fill="white" stroke="#666666" points="160.5,-184 98.5,-184 98.5,-165 160.5,-165 160.5,-184"/>
<text text-anchor="middle" x="129.5" y="-172" font-family="Helvetica,sans-Serif" font-size="10.00">RP2350.h</text>
</a>
</g>
</g>
<!-- Node1&#45;&gt;Node3 -->
<g id="edge2_Node000001_Node000003" class="edge">
<title>Node1&#45;&gt;Node3</title>
<g id="a_edge2_Node000001_Node000003"><a xlink:title=" ">
<path fill="none" stroke="#63b8ff" d="M129.5,-219.75C129.5,-212.8 129.5,-202.85 129.5,-194.13"/>
<polygon fill="#63b8ff" stroke="#63b8ff" points="133,-194.09 129.5,-184.09 126,-194.09 133,-194.09"/>
</a>
</g>
</g>
<!-- Node8 -->
<g id="Node000008" class="node">
<title>Node8</title>
<g id="a_Node000008"><a xlink:href="rp2__common_2hardware__clocks_2include_2hardware_2clocks_8h.html" target="_top" xlink:title=" ">
<polygon fill="white" stroke="#666666" points="335,-184 230,-184 230,-165 335,-165 335,-184"/>
<text text-anchor="middle" x="282.5" y="-172" font-family="Helvetica,sans-Serif" font-size="10.00">hardware/clocks.h</text>
</a>
</g>
</g>
<!-- Node1&#45;&gt;Node8 -->
<g id="edge9_Node000001_Node000008" class="edge">
<title>Node1&#45;&gt;Node8</title>
<g id="a_edge9_Node000001_Node000008"><a xlink:title=" ">
<path fill="none" stroke="#63b8ff" d="M154.08,-219.98C179.55,-211.16 219.54,-197.31 248.13,-187.41"/>
<polygon fill="#63b8ff" stroke="#63b8ff" points="249.42,-190.66 257.73,-184.08 247.13,-184.05 249.42,-190.66"/>
</a>
</g>
</g>
<!-- Node4 -->
<g id="Node000004" class="node">
<title>Node4</title>
<g id="a_Node000004"><a xlink:href="core__cm33_8h.html" target="_top" xlink:title=" ">
<polygon fill="white" stroke="#666666" points="119,-129 40,-129 40,-110 119,-110 119,-129"/>
<text text-anchor="middle" x="79.5" y="-117" font-family="Helvetica,sans-Serif" font-size="10.00">core_cm33.h</text>
</a>
</g>
</g>
<!-- Node3&#45;&gt;Node4 -->
<g id="edge3_Node000003_Node000004" class="edge">
<title>Node3&#45;&gt;Node4</title>
<g id="a_edge3_Node000003_Node000004"><a xlink:title=" ">
<path fill="none" stroke="#63b8ff" d="M121.24,-164.75C114.04,-157.11 103.39,-145.82 94.65,-136.56"/>
<polygon fill="#63b8ff" stroke="#63b8ff" points="97.01,-133.96 87.6,-129.09 91.92,-138.76 97.01,-133.96"/>
</a>
</g>
</g>
<!-- Node7 -->
<g id="Node000007" class="node">
<title>Node7</title>
<g id="a_Node000007"><a xlink:href="system__RP2350_8h.html" target="_top" xlink:title="CMSIS&#45;Core(M) Device Peripheral Access Layer Header File for Device RP2350.">
<polygon fill="white" stroke="#666666" points="241.5,-129 137.5,-129 137.5,-110 241.5,-110 241.5,-129"/>
<text text-anchor="middle" x="189.5" y="-117" font-family="Helvetica,sans-Serif" font-size="10.00">system_RP2350.h</text>
</a>
</g>
</g>
<!-- Node3&#45;&gt;Node7 -->
<g id="edge8_Node000003_Node000007" class="edge">
<title>Node3&#45;&gt;Node7</title>
<g id="a_edge8_Node000003_Node000007"><a xlink:title=" ">
<path fill="none" stroke="#63b8ff" d="M139.14,-164.98C148.01,-157.15 161.37,-145.34 172.11,-135.86"/>
<polygon fill="#63b8ff" stroke="#63b8ff" points="174.51,-138.41 179.68,-129.17 169.87,-133.17 174.51,-138.41"/>
</a>
</g>
</g>
<!-- Node4&#45;&gt;Node2 -->
<g id="edge4_Node000004_Node000002" class="edge">
<title>Node4&#45;&gt;Node2</title>
<g id="a_edge4_Node000004_Node000002"><a xlink:title=" ">
<path fill="none" stroke="#63b8ff" d="M71.44,-109.95C63.79,-101.43 52.48,-87.69 45.5,-74 38.22,-59.73 33.24,-42.2 30.21,-29.18"/>
<polygon fill="#63b8ff" stroke="#63b8ff" points="33.57,-28.13 28.04,-19.09 26.72,-29.6 33.57,-28.13"/>
</a>
</g>
</g>
<!-- Node5 -->
<g id="Node000005" class="node">
<title>Node5</title>
<g id="a_Node000005"><a xlink:href="cmsis__version_8h.html" target="_top" xlink:title=" ">
<polygon fill="white" stroke="#666666" points="150,-74 55,-74 55,-55 150,-55 150,-74"/>
<text text-anchor="middle" x="102.5" y="-62" font-family="Helvetica,sans-Serif" font-size="10.00">cmsis_version.h</text>
</a>
</g>
</g>
<!-- Node4&#45;&gt;Node5 -->
<g id="edge5_Node000004_Node000005" class="edge">
<title>Node4&#45;&gt;Node5</title>
<g id="a_edge5_Node000004_Node000005"><a xlink:title=" ">
<path fill="none" stroke="#63b8ff" d="M83.3,-109.75C86.41,-102.57 90.92,-92.18 94.79,-83.27"/>
<polygon fill="#63b8ff" stroke="#63b8ff" points="98,-84.66 98.77,-74.09 91.58,-81.87 98,-84.66"/>
</a>
</g>
</g>
<!-- Node6 -->
<g id="Node000006" class="node">
<title>Node6</title>
<g id="a_Node000006"><a xlink:href="cmsis__compiler_8h.html" target="_top" xlink:title=" ">
<polygon fill="white" stroke="#666666" points="270.5,-74 168.5,-74 168.5,-55 270.5,-55 270.5,-74"/>
<text text-anchor="middle" x="219.5" y="-62" font-family="Helvetica,sans-Serif" font-size="10.00">cmsis_compiler.h</text>
</a>
</g>
</g>
<!-- Node4&#45;&gt;Node6 -->
<g id="edge6_Node000004_Node000006" class="edge">
<title>Node4&#45;&gt;Node6</title>
<g id="a_edge6_Node000004_Node000006"><a xlink:title=" ">
<path fill="none" stroke="#63b8ff" d="M101.99,-109.98C125.02,-101.27 161.04,-87.63 187.13,-77.75"/>
<polygon fill="#63b8ff" stroke="#63b8ff" points="188.48,-80.98 196.6,-74.17 186.01,-74.44 188.48,-80.98"/>
</a>
</g>
</g>
<!-- Node6&#45;&gt;Node2 -->
<g id="edge7_Node000006_Node000002" class="edge">
<title>Node6&#45;&gt;Node2</title>
<g id="a_edge7_Node000006_Node000002"><a xlink:title=" ">
<path fill="none" stroke="#63b8ff" d="M188.49,-54.98C154.21,-45.57 99.04,-30.42 62.78,-20.46"/>
<polygon fill="#63b8ff" stroke="#63b8ff" points="63.65,-17.07 53.08,-17.8 61.8,-23.82 63.65,-17.07"/>
</a>
</g>
</g>
<!-- Node9 -->
<g id="Node000009" class="node">
<title>Node9</title>
<g id="a_Node000009"><a xlink:title=" ">
<polygon fill="#e0e0e0" stroke="#999999" points="305.5,-129 259.5,-129 259.5,-110 305.5,-110 305.5,-129"/>
<text text-anchor="middle" x="282.5" y="-117" font-family="Helvetica,sans-Serif" font-size="10.00">pico.h</text>
</a>
</g>
</g>
<!-- Node8&#45;&gt;Node9 -->
<g id="edge10_Node000008_Node000009" class="edge">
<title>Node8&#45;&gt;Node9</title>
<g id="a_edge10_Node000008_Node000009"><a xlink:title=" ">
<path fill="none" stroke="#63b8ff" d="M282.5,-164.75C282.5,-157.8 282.5,-147.85 282.5,-139.13"/>
<polygon fill="#63b8ff" stroke="#63b8ff" points="286,-139.09 282.5,-129.09 279,-139.09 286,-139.09"/>
</a>
</g>
</g>
<!-- Node10 -->
<g id="Node000010" class="node">
<title>Node10</title>
<g id="a_Node000010"><a xlink:title=" ">
<polygon fill="#e0e0e0" stroke="#999999" points="465,-129 324,-129 324,-110 465,-110 465,-129"/>
<text text-anchor="middle" x="394.5" y="-117" font-family="Helvetica,sans-Serif" font-size="10.00">hardware/structs/clocks.h</text>
</a>
</g>
</g>
<!-- Node8&#45;&gt;Node10 -->
<g id="edge11_Node000008_Node000010" class="edge">
<title>Node8&#45;&gt;Node10</title>
<g id="a_edge11_Node000008_Node000010"><a xlink:title=" ">
<path fill="none" stroke="#63b8ff" d="M300.49,-164.98C318.43,-156.5 346.22,-143.35 366.93,-133.54"/>
<polygon fill="#63b8ff" stroke="#63b8ff" points="368.64,-136.61 376.18,-129.17 365.64,-130.28 368.64,-136.61"/>
</a>
</g>
</g>
</g>
</svg>
