<?xml version="1.0" encoding="UTF-8" standalone="no"?>
<!DOCTYPE svg PUBLIC "-//W3C//DTD SVG 1.1//EN"
 "http://www.w3.org/Graphics/SVG/1.1/DTD/svg11.dtd">
<!-- Generated by graphviz version 2.43.0 (0)
 -->
<!-- Title: system_RP2040.c Pages: 1 -->
<svg width="483pt" height="247pt"
 viewBox="0.00 0.00 483.00 247.00" xmlns="http://www.w3.org/2000/svg" xmlns:xlink="http://www.w3.org/1999/xlink">
<g id="graph0" class="graph" transform="scale(1 1) rotate(0) translate(4 243)">
<title>system_RP2040.c</title>
<!-- Node1 -->
<g id="Node000001" class="node">
<title>Node1</title>
<g id="a_Node000001"><a xlink:title="CMSIS&#45;Core(M) Device Peripheral Access Layer Header File for Device RP2040.">
<polygon fill="#999999" stroke="#666666" points="188,-239 85,-239 85,-220 188,-220 188,-239"/>
<text text-anchor="middle" x="136.5" y="-227" font-family="Helvetica,sans-Serif" font-size="10.00">system_RP2040.c</text>
</a>
</g>
</g>
<!-- Node2 -->
<g id="Node000002" class="node">
<title>Node2</title>
<g id="a_Node000002"><a xlink:title=" ">
<polygon fill="#e0e0e0" stroke="#999999" points="53,-19 0,-19 0,0 53,0 53,-19"/>
<text text-anchor="middle" x="26.5" y="-7" font-family="Helvetica,sans-Serif" font-size="10.00">stdint.h</text>
</a>
</g>
</g>
<!-- Node1&#45;&gt;Node2 -->
<g id="edge1_Node000001_Node000002" class="edge">
<title>Node1&#45;&gt;Node2</title>
<g id="a_edge1_Node000001_Node000002"><a xlink:title=" ">
<path fill="none" stroke="#63b8ff" d="M120.27,-219.83C94.67,-205.11 45.83,-172.54 26.5,-129 11.95,-96.21 17.22,-53.11 22.06,-28.96"/>
<polygon fill="#63b8ff" stroke="#63b8ff" points="25.52,-29.54 24.25,-19.02 18.68,-28.04 25.52,-29.54"/>
</a>
</g>
</g>
<!-- Node3 -->
<g id="Node000003" class="node">
<title>Node3</title>
<g id="a_Node000003"><a xlink:href="RP2040_8h.html" target="_top" xlink:title=" ">
<polygon fill="white" stroke="#666666" points="167.5,-184 105.5,-184 105.5,-165 167.5,-165 167.5,-184"/>
<text text-anchor="middle" x="136.5" y="-172" font-family="Helvetica,sans-Serif" font-size="10.00">RP2040.h</text>
</a>
</g>
</g>
<!-- Node1&#45;&gt;Node3 -->
<g id="edge2_Node000001_Node000003" class="edge">
<title>Node1&#45;&gt;Node3</title>
<g id="a_edge2_Node000001_Node000003"><a xlink:title=" ">
<path fill="none" stroke="#63b8ff" d="M136.5,-219.75C136.5,-212.8 136.5,-202.85 136.5,-194.13"/>
<polygon fill="#63b8ff" stroke="#63b8ff" points="140,-194.09 136.5,-184.09 133,-194.09 140,-194.09"/>
</a>
</g>
</g>
<!-- Node8 -->
<g id="Node000008" class="node">
<title>Node8</title>
<g id="a_Node000008"><a xlink:href="rp2__common_2hardware__clocks_2include_2hardware_2clocks_8h.html" target="_top" xlink:title=" ">
<polygon fill="white" stroke="#666666" points="345,-184 240,-184 240,-165 345,-165 345,-184"/>
<text text-anchor="middle" x="292.5" y="-172" font-family="Helvetica,sans-Serif" font-size="10.00">hardware/clocks.h</text>
</a>
</g>
</g>
<!-- Node1&#45;&gt;Node8 -->
<g id="edge9_Node000001_Node000008" class="edge">
<title>Node1&#45;&gt;Node8</title>
<g id="a_edge9_Node000001_Node000008"><a xlink:title=" ">
<path fill="none" stroke="#63b8ff" d="M161.56,-219.98C187.53,-211.16 228.31,-197.31 257.46,-187.41"/>
<polygon fill="#63b8ff" stroke="#63b8ff" points="258.9,-190.61 267.24,-184.08 256.65,-183.99 258.9,-190.61"/>
</a>
</g>
</g>
<!-- Node4 -->
<g id="Node000004" class="node">
<title>Node4</title>
<g id="a_Node000004"><a xlink:href="core__cm0plus_8h.html" target="_top" xlink:title=" ">
<polygon fill="white" stroke="#666666" points="129,-129 36,-129 36,-110 129,-110 129,-129"/>
<text text-anchor="middle" x="82.5" y="-117" font-family="Helvetica,sans-Serif" font-size="10.00">core_cm0plus.h</text>
</a>
</g>
</g>
<!-- Node3&#45;&gt;Node4 -->
<g id="edge3_Node000003_Node000004" class="edge">
<title>Node3&#45;&gt;Node4</title>
<g id="a_edge3_Node000003_Node000004"><a xlink:title=" ">
<path fill="none" stroke="#63b8ff" d="M127.58,-164.75C119.72,-157.03 108.07,-145.6 98.58,-136.28"/>
<polygon fill="#63b8ff" stroke="#63b8ff" points="100.84,-133.6 91.25,-129.09 95.94,-138.59 100.84,-133.6"/>
</a>
</g>
</g>
<!-- Node7 -->
<g id="Node000007" class="node">
<title>Node7</title>
<g id="a_Node000007"><a xlink:href="system__RP2040_8h.html" target="_top" xlink:title="CMSIS&#45;Core(M) Device Peripheral Access Layer Header File for Device RP2040.">
<polygon fill="white" stroke="#666666" points="251.5,-129 147.5,-129 147.5,-110 251.5,-110 251.5,-129"/>
<text text-anchor="middle" x="199.5" y="-117" font-family="Helvetica,sans-Serif" font-size="10.00">system_RP2040.h</text>
</a>
</g>
</g>
<!-- Node3&#45;&gt;Node7 -->
<g id="edge8_Node000003_Node000007" class="edge">
<title>Node3&#45;&gt;Node7</title>
<g id="a_edge8_Node000003_Node000007"><a xlink:title=" ">
<path fill="none" stroke="#63b8ff" d="M146.62,-164.98C155.94,-157.15 169.97,-145.34 181.24,-135.86"/>
<polygon fill="#63b8ff" stroke="#63b8ff" points="183.79,-138.29 189.19,-129.17 179.29,-132.93 183.79,-138.29"/>
</a>
</g>
</g>
<!-- Node4&#45;&gt;Node2 -->
<g id="edge4_Node000004_Node000002" class="edge">
<title>Node4&#45;&gt;Node2</title>
<g id="a_edge4_Node000004_Node000002"><a xlink:title=" ">
<path fill="none" stroke="#63b8ff" d="M73.36,-109.76C65.03,-101.32 52.91,-87.81 45.5,-74 37.93,-59.88 32.97,-42.34 30.03,-29.27"/>
<polygon fill="#63b8ff" stroke="#63b8ff" points="33.39,-28.23 27.94,-19.14 26.53,-29.64 33.39,-28.23"/>
</a>
</g>
</g>
<!-- Node5 -->
<g id="Node000005" class="node">
<title>Node5</title>
<g id="a_Node000005"><a xlink:href="cmsis__version_8h.html" target="_top" xlink:title=" ">
<polygon fill="white" stroke="#666666" points="150,-74 55,-74 55,-55 150,-55 150,-74"/>
<text text-anchor="middle" x="102.5" y="-62" font-family="Helvetica,sans-Serif" font-size="10.00">cmsis_version.h</text>
</a>
</g>
</g>
<!-- Node4&#45;&gt;Node5 -->
<g id="edge5_Node000004_Node000005" class="edge">
<title>Node4&#45;&gt;Node5</title>
<g id="a_edge5_Node000004_Node000005"><a xlink:title=" ">
<path fill="none" stroke="#63b8ff" d="M85.8,-109.75C88.48,-102.65 92.35,-92.4 95.69,-83.56"/>
<polygon fill="#63b8ff" stroke="#63b8ff" points="99,-84.68 99.26,-74.09 92.45,-82.21 99,-84.68"/>
</a>
</g>
</g>
<!-- Node6 -->
<g id="Node000006" class="node">
<title>Node6</title>
<g id="a_Node000006"><a xlink:href="cmsis__compiler_8h.html" target="_top" xlink:title=" ">
<polygon fill="white" stroke="#666666" points="270.5,-74 168.5,-74 168.5,-55 270.5,-55 270.5,-74"/>
<text text-anchor="middle" x="219.5" y="-62" font-family="Helvetica,sans-Serif" font-size="10.00">cmsis_compiler.h</text>
</a>
</g>
</g>
<!-- Node4&#45;&gt;Node6 -->
<g id="edge6_Node000004_Node000006" class="edge">
<title>Node4&#45;&gt;Node6</title>
<g id="a_edge6_Node000004_Node000006"><a xlink:title=" ">
<path fill="none" stroke="#63b8ff" d="M104.51,-109.98C126.95,-101.3 161.98,-87.75 187.49,-77.88"/>
<polygon fill="#63b8ff" stroke="#63b8ff" points="189.02,-81.04 197.09,-74.17 186.5,-74.51 189.02,-81.04"/>
</a>
</g>
</g>
<!-- Node6&#45;&gt;Node2 -->
<g id="edge7_Node000006_Node000002" class="edge">
<title>Node6&#45;&gt;Node2</title>
<g id="a_edge7_Node000006_Node000002"><a xlink:title=" ">
<path fill="none" stroke="#63b8ff" d="M188.49,-54.98C154.21,-45.57 99.04,-30.42 62.78,-20.46"/>
<polygon fill="#63b8ff" stroke="#63b8ff" points="63.65,-17.07 53.08,-17.8 61.8,-23.82 63.65,-17.07"/>
</a>
</g>
</g>
<!-- Node9 -->
<g id="Node000009" class="node">
<title>Node9</title>
<g id="a_Node000009"><a xlink:title=" ">
<polygon fill="#e0e0e0" stroke="#999999" points="315.5,-129 269.5,-129 269.5,-110 315.5,-110 315.5,-129"/>
<text text-anchor="middle" x="292.5" y="-117" font-family="Helvetica,sans-Serif" font-size="10.00">pico.h</text>
</a>
</g>
</g>
<!-- Node8&#45;&gt;Node9 -->
<g id="edge10_Node000008_Node000009" class="edge">
<title>Node8&#45;&gt;Node9</title>
<g id="a_edge10_Node000008_Node000009"><a xlink:title=" ">
<path fill="none" stroke="#63b8ff" d="M292.5,-164.75C292.5,-157.8 292.5,-147.85 292.5,-139.13"/>
<polygon fill="#63b8ff" stroke="#63b8ff" points="296,-139.09 292.5,-129.09 289,-139.09 296,-139.09"/>
</a>
</g>
</g>
<!-- Node10 -->
<g id="Node000010" class="node">
<title>Node10</title>
<g id="a_Node000010"><a xlink:title=" ">
<polygon fill="#e0e0e0" stroke="#999999" points="475,-129 334,-129 334,-110 475,-110 475,-129"/>
<text text-anchor="middle" x="404.5" y="-117" font-family="Helvetica,sans-Serif" font-size="10.00">hardware/structs/clocks.h</text>
</a>
</g>
</g>
<!-- Node8&#45;&gt;Node10 -->
<g id="edge11_Node000008_Node000010" class="edge">
<title>Node8&#45;&gt;Node10</title>
<g id="a_edge11_Node000008_Node000010"><a xlink:title=" ">
<path fill="none" stroke="#63b8ff" d="M310.49,-164.98C328.43,-156.5 356.22,-143.35 376.93,-133.54"/>
<polygon fill="#63b8ff" stroke="#63b8ff" points="378.64,-136.61 386.18,-129.17 375.64,-130.28 378.64,-136.61"/>
</a>
</g>
</g>
</g>
</svg>
