<?xml version="1.0" encoding="UTF-8" standalone="no"?>
<!DOCTYPE svg PUBLIC "-//W3C//DTD SVG 1.1//EN"
 "http://www.w3.org/Graphics/SVG/1.1/DTD/svg11.dtd">
<!-- Generated by graphviz version 2.43.0 (0)
 -->
<!-- Title: timeout_helper.h Pages: 1 -->
<svg width="164pt" height="82pt"
 viewBox="0.00 0.00 164.00 82.00" xmlns="http://www.w3.org/2000/svg" xmlns:xlink="http://www.w3.org/1999/xlink">
<g id="graph0" class="graph" transform="scale(1 1) rotate(0) translate(4 78)">
<title>timeout_helper.h</title>
<!-- Node1 -->
<g id="Node000001" class="node">
<title>Node1</title>
<g id="a_Node000001"><a xlink:title=" ">
<polygon fill="#999999" stroke="#666666" points="112.5,-74 12.5,-74 12.5,-55 112.5,-55 112.5,-74"/>
<text text-anchor="middle" x="62.5" y="-62" font-family="Helvetica,sans-Serif" font-size="10.00">timeout_helper.h</text>
</a>
</g>
</g>
<!-- Node2 -->
<g id="Node000002" class="node">
<title>Node2</title>
<g id="a_Node000002"><a xlink:href="i2c_8c.html" target="_top" xlink:title=" ">
<polygon fill="white" stroke="#666666" points="39,-19 0,-19 0,0 39,0 39,-19"/>
<text text-anchor="middle" x="19.5" y="-7" font-family="Helvetica,sans-Serif" font-size="10.00">i2c.c</text>
</a>
</g>
</g>
<!-- Node1&#45;&gt;Node2 -->
<g id="edge1_Node000001_Node000002" class="edge">
<title>Node1&#45;&gt;Node2</title>
<g id="a_edge1_Node000001_Node000002"><a xlink:title=" ">
<path fill="none" stroke="#63b8ff" d="M49.08,-46.96C41.59,-37.72 32.56,-26.6 26.47,-19.09"/>
<polygon fill="#63b8ff" stroke="#63b8ff" points="46.38,-49.19 55.4,-54.75 51.82,-44.78 46.38,-49.19"/>
</a>
</g>
</g>
<!-- Node3 -->
<g id="Node000003" class="node">
<title>Node3</title>
<g id="a_Node000003"><a xlink:href="timeout__helper_8c.html" target="_top" xlink:title=" ">
<polygon fill="white" stroke="#666666" points="156,-19 57,-19 57,0 156,0 156,-19"/>
<text text-anchor="middle" x="106.5" y="-7" font-family="Helvetica,sans-Serif" font-size="10.00">timeout_helper.c</text>
</a>
</g>
</g>
<!-- Node1&#45;&gt;Node3 -->
<g id="edge2_Node000001_Node000003" class="edge">
<title>Node1&#45;&gt;Node3</title>
<g id="a_edge2_Node000001_Node000003"><a xlink:title=" ">
<path fill="none" stroke="#63b8ff" d="M76.23,-46.96C83.9,-37.72 93.13,-26.6 99.37,-19.09"/>
<polygon fill="#63b8ff" stroke="#63b8ff" points="73.46,-44.82 69.77,-54.75 78.85,-49.29 73.46,-44.82"/>
</a>
</g>
</g>
</g>
</svg>
