<?xml version="1.0" encoding="UTF-8" standalone="no"?>
<!DOCTYPE svg PUBLIC "-//W3C//DTD SVG 1.1//EN"
 "http://www.w3.org/Graphics/SVG/1.1/DTD/svg11.dtd">
<!-- Generated by graphviz version 2.43.0 (0)
 -->
<!-- Title: time.c Pages: 1 -->
<svg width="1033pt" height="302pt"
 viewBox="0.00 0.00 1033.00 302.00" xmlns="http://www.w3.org/2000/svg" xmlns:xlink="http://www.w3.org/1999/xlink">
<g id="graph0" class="graph" transform="scale(1 1) rotate(0) translate(4 298)">
<title>time.c</title>
<!-- Node1 -->
<g id="Node000001" class="node">
<title>Node1</title>
<g id="a_Node000001"><a xlink:title=" ">
<polygon fill="#999999" stroke="#666666" points="704.5,-294 657.5,-294 657.5,-275 704.5,-275 704.5,-294"/>
<text text-anchor="middle" x="681" y="-282" font-family="Helvetica,sans-Serif" font-size="10.00">time.c</text>
</a>
</g>
</g>
<!-- Node2 -->
<g id="Node000002" class="node">
<title>Node2</title>
<g id="a_Node000002"><a xlink:href="stdlib_8h.html" target="_top" xlink:title=" ">
<polygon fill="white" stroke="#666666" points="573.5,-239 520.5,-239 520.5,-220 573.5,-220 573.5,-239"/>
<text text-anchor="middle" x="547" y="-227" font-family="Helvetica,sans-Serif" font-size="10.00">stdlib.h</text>
</a>
</g>
</g>
<!-- Node1&#45;&gt;Node2 -->
<g id="edge1_Node000001_Node000002" class="edge">
<title>Node1&#45;&gt;Node2</title>
<g id="a_edge1_Node000001_Node000002"><a xlink:title=" ">
<path fill="none" stroke="#63b8ff" d="M659.47,-274.98C637.53,-266.3 603.26,-252.75 578.31,-242.88"/>
<polygon fill="#63b8ff" stroke="#63b8ff" points="579.51,-239.59 568.92,-239.17 576.93,-246.1 579.51,-239.59"/>
</a>
</g>
</g>
<!-- Node3 -->
<g id="Node000003" class="node">
<title>Node3</title>
<g id="a_Node000003"><a xlink:title=" ">
<polygon fill="#e0e0e0" stroke="#999999" points="318,-19 272,-19 272,0 318,0 318,-19"/>
<text text-anchor="middle" x="295" y="-7" font-family="Helvetica,sans-Serif" font-size="10.00">pico.h</text>
</a>
</g>
</g>
<!-- Node1&#45;&gt;Node3 -->
<g id="edge9_Node000001_Node000003" class="edge">
<title>Node1&#45;&gt;Node3</title>
<g id="a_edge9_Node000001_Node000003"><a xlink:title=" ">
<path fill="none" stroke="#63b8ff" d="M657.16,-282.29C536.63,-275.88 0,-243.51 0,-175.5 0,-175.5 0,-175.5 0,-118.5 0,-63.29 184.54,-27.85 261.71,-15.45"/>
<polygon fill="#63b8ff" stroke="#63b8ff" points="262.52,-18.86 271.85,-13.85 261.43,-11.95 262.52,-18.86"/>
</a>
</g>
</g>
<!-- Node5 -->
<g id="Node000005" class="node">
<title>Node5</title>
<g id="a_Node000005"><a xlink:href="common_2pico__time_2include_2pico_2time_8h.html" target="_top" xlink:title=" ">
<polygon fill="white" stroke="#666666" points="506.5,-74 435.5,-74 435.5,-55 506.5,-55 506.5,-74"/>
<text text-anchor="middle" x="471" y="-62" font-family="Helvetica,sans-Serif" font-size="10.00">pico/time.h</text>
</a>
</g>
</g>
<!-- Node1&#45;&gt;Node5 -->
<g id="edge10_Node000001_Node000005" class="edge">
<title>Node1&#45;&gt;Node5</title>
<g id="a_edge10_Node000001_Node000005"><a xlink:title=" ">
<path fill="none" stroke="#63b8ff" d="M691.05,-274.96C713.61,-254.76 764.31,-202.88 738,-165 687.98,-92.98 579.23,-72.99 517.06,-67.51"/>
<polygon fill="#63b8ff" stroke="#63b8ff" points="517,-63.99 506.75,-66.7 516.45,-70.97 517,-63.99"/>
</a>
</g>
</g>
<!-- Node7 -->
<g id="Node000007" class="node">
<title>Node7</title>
<g id="a_Node000007"><a xlink:title=" ">
<polygon fill="#e0e0e0" stroke="#999999" points="728.5,-184 633.5,-184 633.5,-165 728.5,-165 728.5,-184"/>
<text text-anchor="middle" x="681" y="-172" font-family="Helvetica,sans-Serif" font-size="10.00">hardware/gpio.h</text>
</a>
</g>
</g>
<!-- Node1&#45;&gt;Node7 -->
<g id="edge24_Node000001_Node000007" class="edge">
<title>Node1&#45;&gt;Node7</title>
<g id="a_edge24_Node000001_Node000007"><a xlink:title=" ">
<path fill="none" stroke="#63b8ff" d="M681,-274.66C681,-257.17 681,-217.8 681,-194.27"/>
<polygon fill="#63b8ff" stroke="#63b8ff" points="684.5,-194.16 681,-184.16 677.5,-194.16 684.5,-194.16"/>
</a>
</g>
</g>
<!-- Node9 -->
<g id="Node000009" class="node">
<title>Node9</title>
<g id="a_Node000009"><a xlink:href="common_2pico__sync_2include_2pico_2sync_8h.html" target="_top" xlink:title=" ">
<polygon fill="white" stroke="#666666" points="289.5,-239 218.5,-239 218.5,-220 289.5,-220 289.5,-239"/>
<text text-anchor="middle" x="254" y="-227" font-family="Helvetica,sans-Serif" font-size="10.00">pico/sync.h</text>
</a>
</g>
</g>
<!-- Node1&#45;&gt;Node9 -->
<g id="edge11_Node000001_Node000009" class="edge">
<title>Node1&#45;&gt;Node9</title>
<g id="a_edge11_Node000001_Node000009"><a xlink:title=" ">
<path fill="none" stroke="#63b8ff" d="M657.43,-280.57C589.09,-272.09 389.91,-247.37 299.54,-236.15"/>
<polygon fill="#63b8ff" stroke="#63b8ff" points="299.94,-232.68 289.59,-234.92 299.08,-239.62 299.94,-232.68"/>
</a>
</g>
</g>
<!-- Node15 -->
<g id="Node000015" class="node">
<title>Node15</title>
<g id="a_Node000015"><a xlink:title=" ">
<polygon fill="#e0e0e0" stroke="#999999" points="893,-239 785,-239 785,-220 893,-220 893,-239"/>
<text text-anchor="middle" x="839" y="-227" font-family="Helvetica,sans-Serif" font-size="10.00">pico/runtime_init.h</text>
</a>
</g>
</g>
<!-- Node1&#45;&gt;Node15 -->
<g id="edge22_Node000001_Node000015" class="edge">
<title>Node1&#45;&gt;Node15</title>
<g id="a_edge22_Node000001_Node000015"><a xlink:title=" ">
<path fill="none" stroke="#63b8ff" d="M704.65,-275.57C730.95,-266.74 773.69,-252.41 803.89,-242.28"/>
<polygon fill="#63b8ff" stroke="#63b8ff" points="805.24,-245.51 813.61,-239.02 803.02,-238.88 805.24,-245.51"/>
</a>
</g>
</g>
<!-- Node16 -->
<g id="Node000016" class="node">
<title>Node16</title>
<g id="a_Node000016"><a xlink:title=" ">
<polygon fill="#e0e0e0" stroke="#999999" points="1025,-239 911,-239 911,-220 1025,-220 1025,-239"/>
<text text-anchor="middle" x="968" y="-227" font-family="Helvetica,sans-Serif" font-size="10.00">pico/time_adapter.h</text>
</a>
</g>
</g>
<!-- Node1&#45;&gt;Node16 -->
<g id="edge23_Node000001_Node000016" class="edge">
<title>Node1&#45;&gt;Node16</title>
<g id="a_edge23_Node000001_Node000016"><a xlink:title=" ">
<path fill="none" stroke="#63b8ff" d="M704.98,-279.07C750.15,-270.73 848.98,-252.48 911.8,-240.88"/>
<polygon fill="#63b8ff" stroke="#63b8ff" points="912.74,-244.26 921.94,-239.01 911.47,-237.38 912.74,-244.26"/>
</a>
</g>
</g>
<!-- Node2&#45;&gt;Node3 -->
<g id="edge2_Node000002_Node000003" class="edge">
<title>Node2&#45;&gt;Node3</title>
<g id="a_edge2_Node000002_Node000003"><a xlink:title=" ">
<path fill="none" stroke="#63b8ff" d="M520.46,-227.76C485.33,-225.47 423.16,-216.68 383,-184 332.42,-142.83 308.07,-65.05 299.17,-29.32"/>
<polygon fill="#63b8ff" stroke="#63b8ff" points="302.5,-28.22 296.8,-19.29 295.69,-29.83 302.5,-28.22"/>
</a>
</g>
</g>
<!-- Node4 -->
<g id="Node000004" class="node">
<title>Node4</title>
<g id="a_Node000004"><a xlink:title=" ">
<polygon fill="#e0e0e0" stroke="#999999" points="615.5,-184 542.5,-184 542.5,-165 615.5,-165 615.5,-184"/>
<text text-anchor="middle" x="579" y="-172" font-family="Helvetica,sans-Serif" font-size="10.00">pico/stdio.h</text>
</a>
</g>
</g>
<!-- Node2&#45;&gt;Node4 -->
<g id="edge3_Node000002_Node000004" class="edge">
<title>Node2&#45;&gt;Node4</title>
<g id="a_edge3_Node000002_Node000004"><a xlink:title=" ">
<path fill="none" stroke="#63b8ff" d="M552.28,-219.75C556.71,-212.42 563.16,-201.73 568.62,-192.7"/>
<polygon fill="#63b8ff" stroke="#63b8ff" points="571.64,-194.46 573.81,-184.09 565.65,-190.84 571.64,-194.46"/>
</a>
</g>
</g>
<!-- Node2&#45;&gt;Node5 -->
<g id="edge4_Node000002_Node000005" class="edge">
<title>Node2&#45;&gt;Node5</title>
<g id="a_edge4_Node000002_Node000005"><a xlink:title=" ">
<path fill="none" stroke="#63b8ff" d="M542.91,-219.74C530.95,-194.09 495.84,-118.78 479.52,-83.78"/>
<polygon fill="#63b8ff" stroke="#63b8ff" points="482.5,-81.89 475.11,-74.31 476.16,-84.85 482.5,-81.89"/>
</a>
</g>
</g>
<!-- Node2&#45;&gt;Node7 -->
<g id="edge7_Node000002_Node000007" class="edge">
<title>Node2&#45;&gt;Node7</title>
<g id="a_edge7_Node000002_Node000007"><a xlink:title=" ">
<path fill="none" stroke="#63b8ff" d="M568.53,-219.98C590.47,-211.3 624.74,-197.75 649.69,-187.88"/>
<polygon fill="#63b8ff" stroke="#63b8ff" points="651.07,-191.1 659.08,-184.17 648.49,-184.59 651.07,-191.1"/>
</a>
</g>
</g>
<!-- Node8 -->
<g id="Node000008" class="node">
<title>Node8</title>
<g id="a_Node000008"><a xlink:title=" ">
<polygon fill="#e0e0e0" stroke="#999999" points="486,-184 392,-184 392,-165 486,-165 486,-184"/>
<text text-anchor="middle" x="439" y="-172" font-family="Helvetica,sans-Serif" font-size="10.00">hardware/uart.h</text>
</a>
</g>
</g>
<!-- Node2&#45;&gt;Node8 -->
<g id="edge8_Node000002_Node000008" class="edge">
<title>Node2&#45;&gt;Node8</title>
<g id="a_edge8_Node000002_Node000008"><a xlink:title=" ">
<path fill="none" stroke="#63b8ff" d="M529.65,-219.98C512.43,-211.54 485.8,-198.47 465.85,-188.68"/>
<polygon fill="#63b8ff" stroke="#63b8ff" points="467.19,-185.43 456.67,-184.17 464.1,-191.72 467.19,-185.43"/>
</a>
</g>
</g>
<!-- Node5&#45;&gt;Node3 -->
<g id="edge5_Node000005_Node000003" class="edge">
<title>Node5&#45;&gt;Node3</title>
<g id="a_edge5_Node000005_Node000003"><a xlink:title=" ">
<path fill="none" stroke="#63b8ff" d="M442.72,-54.98C411.37,-45.54 360.88,-30.34 327.81,-20.38"/>
<polygon fill="#63b8ff" stroke="#63b8ff" points="328.73,-17 318.15,-17.47 326.72,-23.71 328.73,-17"/>
</a>
</g>
</g>
<!-- Node6 -->
<g id="Node000006" class="node">
<title>Node6</title>
<g id="a_Node000006"><a xlink:title=" ">
<polygon fill="#e0e0e0" stroke="#999999" points="521.5,-19 420.5,-19 420.5,0 521.5,0 521.5,-19"/>
<text text-anchor="middle" x="471" y="-7" font-family="Helvetica,sans-Serif" font-size="10.00">hardware/timer.h</text>
</a>
</g>
</g>
<!-- Node5&#45;&gt;Node6 -->
<g id="edge6_Node000005_Node000006" class="edge">
<title>Node5&#45;&gt;Node6</title>
<g id="a_edge6_Node000005_Node000006"><a xlink:title=" ">
<path fill="none" stroke="#63b8ff" d="M471,-54.75C471,-47.8 471,-37.85 471,-29.13"/>
<polygon fill="#63b8ff" stroke="#63b8ff" points="474.5,-29.09 471,-19.09 467.5,-29.09 474.5,-29.09"/>
</a>
</g>
</g>
<!-- Node10 -->
<g id="Node000010" class="node">
<title>Node10</title>
<g id="a_Node000010"><a xlink:href="sem_8h.html" target="_top" xlink:title=" ">
<polygon fill="white" stroke="#666666" points="336,-184 266,-184 266,-165 336,-165 336,-184"/>
<text text-anchor="middle" x="301" y="-172" font-family="Helvetica,sans-Serif" font-size="10.00">pico/sem.h</text>
</a>
</g>
</g>
<!-- Node9&#45;&gt;Node10 -->
<g id="edge12_Node000009_Node000010" class="edge">
<title>Node9&#45;&gt;Node10</title>
<g id="a_edge12_Node000009_Node000010"><a xlink:title=" ">
<path fill="none" stroke="#63b8ff" d="M261.76,-219.75C268.47,-212.18 278.34,-201.05 286.51,-191.84"/>
<polygon fill="#63b8ff" stroke="#63b8ff" points="289.37,-193.89 293.38,-184.09 284.13,-189.25 289.37,-193.89"/>
</a>
</g>
</g>
<!-- Node13 -->
<g id="Node000013" class="node">
<title>Node13</title>
<g id="a_Node000013"><a xlink:href="mutex_8h.html" target="_top" xlink:title=" ">
<polygon fill="white" stroke="#666666" points="248,-184 168,-184 168,-165 248,-165 248,-184"/>
<text text-anchor="middle" x="208" y="-172" font-family="Helvetica,sans-Serif" font-size="10.00">pico/mutex.h</text>
</a>
</g>
</g>
<!-- Node9&#45;&gt;Node13 -->
<g id="edge17_Node000009_Node000013" class="edge">
<title>Node9&#45;&gt;Node13</title>
<g id="a_edge17_Node000009_Node000013"><a xlink:title=" ">
<path fill="none" stroke="#63b8ff" d="M246.4,-219.75C239.84,-212.18 230.18,-201.05 222.19,-191.84"/>
<polygon fill="#63b8ff" stroke="#63b8ff" points="224.65,-189.35 215.45,-184.09 219.37,-193.94 224.65,-189.35"/>
</a>
</g>
</g>
<!-- Node14 -->
<g id="Node000014" class="node">
<title>Node14</title>
<g id="a_Node000014"><a xlink:href="critical__section_8h.html" target="_top" xlink:title=" ">
<polygon fill="white" stroke="#666666" points="150,-184 28,-184 28,-165 150,-165 150,-184"/>
<text text-anchor="middle" x="89" y="-172" font-family="Helvetica,sans-Serif" font-size="10.00">pico/critical_section.h</text>
</a>
</g>
</g>
<!-- Node9&#45;&gt;Node14 -->
<g id="edge19_Node000009_Node000014" class="edge">
<title>Node9&#45;&gt;Node14</title>
<g id="a_edge19_Node000009_Node000014"><a xlink:title=" ">
<path fill="none" stroke="#63b8ff" d="M227.49,-219.98C199.79,-211.09 156.14,-197.07 125.26,-187.15"/>
<polygon fill="#63b8ff" stroke="#63b8ff" points="126.31,-183.81 115.72,-184.08 124.17,-190.47 126.31,-183.81"/>
</a>
</g>
</g>
<!-- Node11 -->
<g id="Node000011" class="node">
<title>Node11</title>
<g id="a_Node000011"><a xlink:href="lock__core_8h.html" target="_top" xlink:title="Base implementation for locking primitives protected by a spin lock.">
<polygon fill="white" stroke="#666666" points="286.5,-129 191.5,-129 191.5,-110 286.5,-110 286.5,-129"/>
<text text-anchor="middle" x="239" y="-117" font-family="Helvetica,sans-Serif" font-size="10.00">pico/lock_core.h</text>
</a>
</g>
</g>
<!-- Node10&#45;&gt;Node11 -->
<g id="edge13_Node000010_Node000011" class="edge">
<title>Node10&#45;&gt;Node11</title>
<g id="a_edge13_Node000010_Node000011"><a xlink:title=" ">
<path fill="none" stroke="#63b8ff" d="M291.04,-164.98C281.87,-157.15 268.06,-145.34 256.97,-135.86"/>
<polygon fill="#63b8ff" stroke="#63b8ff" points="259.02,-133.01 249.14,-129.17 254.47,-138.33 259.02,-133.01"/>
</a>
</g>
</g>
<!-- Node11&#45;&gt;Node3 -->
<g id="edge14_Node000011_Node000003" class="edge">
<title>Node11&#45;&gt;Node3</title>
<g id="a_edge14_Node000011_Node000003"><a xlink:title=" ">
<path fill="none" stroke="#63b8ff" d="M247.83,-109.69C255.9,-101.2 267.67,-87.66 275,-74 282.61,-59.82 287.86,-42.29 291.06,-29.24"/>
<polygon fill="#63b8ff" stroke="#63b8ff" points="294.56,-29.65 293.36,-19.12 287.73,-28.1 294.56,-29.65"/>
</a>
</g>
</g>
<!-- Node11&#45;&gt;Node5 -->
<g id="edge15_Node000011_Node000005" class="edge">
<title>Node11&#45;&gt;Node5</title>
<g id="a_edge15_Node000011_Node000005"><a xlink:title=" ">
<path fill="none" stroke="#63b8ff" d="M276.27,-109.98C316.92,-100.7 381.97,-85.84 425.57,-75.88"/>
<polygon fill="#63b8ff" stroke="#63b8ff" points="426.37,-79.29 435.34,-73.65 424.81,-72.46 426.37,-79.29"/>
</a>
</g>
</g>
<!-- Node12 -->
<g id="Node000012" class="node">
<title>Node12</title>
<g id="a_Node000012"><a xlink:title=" ">
<polygon fill="#e0e0e0" stroke="#999999" points="266.5,-74 169.5,-74 169.5,-55 266.5,-55 266.5,-74"/>
<text text-anchor="middle" x="218" y="-62" font-family="Helvetica,sans-Serif" font-size="10.00">hardware/sync.h</text>
</a>
</g>
</g>
<!-- Node11&#45;&gt;Node12 -->
<g id="edge16_Node000011_Node000012" class="edge">
<title>Node11&#45;&gt;Node12</title>
<g id="a_edge16_Node000011_Node000012"><a xlink:title=" ">
<path fill="none" stroke="#63b8ff" d="M235.53,-109.75C232.72,-102.65 228.66,-92.4 225.15,-83.56"/>
<polygon fill="#63b8ff" stroke="#63b8ff" points="228.34,-82.1 221.4,-74.09 221.83,-84.68 228.34,-82.1"/>
</a>
</g>
</g>
<!-- Node13&#45;&gt;Node11 -->
<g id="edge18_Node000013_Node000011" class="edge">
<title>Node13&#45;&gt;Node11</title>
<g id="a_edge18_Node000013_Node000011"><a xlink:title=" ">
<path fill="none" stroke="#63b8ff" d="M213.12,-164.75C217.36,-157.49 223.53,-146.95 228.78,-137.98"/>
<polygon fill="#63b8ff" stroke="#63b8ff" points="231.95,-139.49 233.98,-129.09 225.91,-135.95 231.95,-139.49"/>
</a>
</g>
</g>
<!-- Node14&#45;&gt;Node3 -->
<g id="edge20_Node000014_Node000003" class="edge">
<title>Node14&#45;&gt;Node3</title>
<g id="a_edge20_Node000014_Node000003"><a xlink:title=" ">
<path fill="none" stroke="#63b8ff" d="M91.76,-164.92C99.17,-143.22 121.61,-85.71 160,-55 189.52,-31.39 232.05,-20.1 261.45,-14.84"/>
<polygon fill="#63b8ff" stroke="#63b8ff" points="262.34,-18.24 271.64,-13.17 261.2,-11.33 262.34,-18.24"/>
</a>
</g>
</g>
<!-- Node14&#45;&gt;Node11 -->
<g id="edge21_Node000014_Node000011" class="edge">
<title>Node14&#45;&gt;Node11</title>
<g id="a_edge21_Node000014_Node000011"><a xlink:title=" ">
<path fill="none" stroke="#63b8ff" d="M113.1,-164.98C137.88,-156.23 176.7,-142.51 204.69,-132.62"/>
<polygon fill="#63b8ff" stroke="#63b8ff" points="206.2,-135.8 214.46,-129.17 203.87,-129.2 206.2,-135.8"/>
</a>
</g>
</g>
</g>
</svg>
