<?xml version="1.0" encoding="UTF-8" standalone="no"?>
<!DOCTYPE svg PUBLIC "-//W3C//DTD SVG 1.1//EN"
 "http://www.w3.org/Graphics/SVG/1.1/DTD/svg11.dtd">
<!-- Generated by graphviz version 2.43.0 (0)
 -->
<!-- Title: uf2.h Pages: 1 -->
<svg width="154pt" height="137pt"
 viewBox="0.00 0.00 153.50 137.00" xmlns="http://www.w3.org/2000/svg" xmlns:xlink="http://www.w3.org/1999/xlink">
<g id="graph0" class="graph" transform="scale(1 1) rotate(0) translate(4 133)">
<title>uf2.h</title>
<!-- Node1 -->
<g id="Node000001" class="node">
<title>Node1</title>
<g id="a_Node000001"><a xlink:title=" ">
<polygon fill="#999999" stroke="#666666" points="83,-129 42,-129 42,-110 83,-110 83,-129"/>
<text text-anchor="middle" x="62.5" y="-117" font-family="Helvetica,sans-Serif" font-size="10.00">uf2.h</text>
</a>
</g>
</g>
<!-- Node2 -->
<g id="Node000002" class="node">
<title>Node2</title>
<g id="a_Node000002"><a xlink:title=" ">
<polygon fill="#e0e0e0" stroke="#999999" points="53,-74 0,-74 0,-55 53,-55 53,-74"/>
<text text-anchor="middle" x="26.5" y="-62" font-family="Helvetica,sans-Serif" font-size="10.00">stdint.h</text>
</a>
</g>
</g>
<!-- Node1&#45;&gt;Node2 -->
<g id="edge1_Node000001_Node000002" class="edge">
<title>Node1&#45;&gt;Node2</title>
<g id="a_edge1_Node000001_Node000002"><a xlink:title=" ">
<path fill="none" stroke="#63b8ff" d="M56.56,-109.75C51.52,-102.34 44.16,-91.5 37.99,-82.41"/>
<polygon fill="#63b8ff" stroke="#63b8ff" points="40.85,-80.39 32.33,-74.09 35.06,-84.33 40.85,-80.39"/>
</a>
</g>
</g>
<!-- Node3 -->
<g id="Node000003" class="node">
<title>Node3</title>
<g id="a_Node000003"><a xlink:href="assert_8h.html" target="_top" xlink:title=" ">
<polygon fill="white" stroke="#666666" points="127.5,-74 71.5,-74 71.5,-55 127.5,-55 127.5,-74"/>
<text text-anchor="middle" x="99.5" y="-62" font-family="Helvetica,sans-Serif" font-size="10.00">assert.h</text>
</a>
</g>
</g>
<!-- Node1&#45;&gt;Node3 -->
<g id="edge2_Node000001_Node000003" class="edge">
<title>Node1&#45;&gt;Node3</title>
<g id="a_edge2_Node000001_Node000003"><a xlink:title=" ">
<path fill="none" stroke="#63b8ff" d="M68.61,-109.75C73.78,-102.34 81.35,-91.5 87.69,-82.41"/>
<polygon fill="#63b8ff" stroke="#63b8ff" points="90.65,-84.29 93.5,-74.09 84.91,-80.29 90.65,-84.29"/>
</a>
</g>
</g>
<!-- Node3&#45;&gt;Node3 -->
<g id="edge4_Node000003_Node000003" class="edge">
<title>Node3&#45;&gt;Node3</title>
<g id="a_edge4_Node000003_Node000003"><a xlink:title=" ">
<path fill="none" stroke="#63b8ff" d="M121.27,-74.07C133.82,-76.02 145.5,-72.83 145.5,-64.5 145.5,-58.51 139.47,-55.18 131.41,-54.5"/>
<polygon fill="#63b8ff" stroke="#63b8ff" points="131.11,-51.01 121.27,-54.93 131.41,-58.01 131.11,-51.01"/>
</a>
</g>
</g>
<!-- Node4 -->
<g id="Node000004" class="node">
<title>Node4</title>
<g id="a_Node000004"><a xlink:title=" ">
<polygon fill="#e0e0e0" stroke="#999999" points="130.5,-19 68.5,-19 68.5,0 130.5,0 130.5,-19"/>
<text text-anchor="middle" x="99.5" y="-7" font-family="Helvetica,sans-Serif" font-size="10.00">stdbool.h</text>
</a>
</g>
</g>
<!-- Node3&#45;&gt;Node4 -->
<g id="edge3_Node000003_Node000004" class="edge">
<title>Node3&#45;&gt;Node4</title>
<g id="a_edge3_Node000003_Node000004"><a xlink:title=" ">
<path fill="none" stroke="#63b8ff" d="M99.5,-54.75C99.5,-47.8 99.5,-37.85 99.5,-29.13"/>
<polygon fill="#63b8ff" stroke="#63b8ff" points="103,-29.09 99.5,-19.09 96,-29.09 103,-29.09"/>
</a>
</g>
</g>
</g>
</svg>
