<?xml version="1.0" encoding="UTF-8" standalone="no"?>
<!DOCTYPE svg PUBLIC "-//W3C//DTD SVG 1.1//EN"
 "http://www.w3.org/Graphics/SVG/1.1/DTD/svg11.dtd">
<!-- Generated by graphviz version 2.43.0 (0)
 -->
<!-- Title: unique_id.c Pages: 1 -->
<svg width="569pt" height="302pt"
 viewBox="0.00 0.00 569.00 302.00" xmlns="http://www.w3.org/2000/svg" xmlns:xlink="http://www.w3.org/1999/xlink">
<g id="graph0" class="graph" transform="scale(1 1) rotate(0) translate(4 298)">
<title>unique_id.c</title>
<!-- Node1 -->
<g id="Node000001" class="node">
<title>Node1</title>
<g id="a_Node000001"><a xlink:title=" ">
<polygon fill="#999999" stroke="#666666" points="471,-294 399,-294 399,-275 471,-275 471,-294"/>
<text text-anchor="middle" x="435" y="-282" font-family="Helvetica,sans-Serif" font-size="10.00">unique_id.c</text>
</a>
</g>
</g>
<!-- Node2 -->
<g id="Node000002" class="node">
<title>Node2</title>
<g id="a_Node000002"><a xlink:href="hardware__flash_2include_2hardware_2flash_8h.html" target="_top" xlink:title=" ">
<polygon fill="white" stroke="#666666" points="561,-129 463,-129 463,-110 561,-110 561,-129"/>
<text text-anchor="middle" x="512" y="-117" font-family="Helvetica,sans-Serif" font-size="10.00">hardware/flash.h</text>
</a>
</g>
</g>
<!-- Node1&#45;&gt;Node2 -->
<g id="edge1_Node000001_Node000002" class="edge">
<title>Node1&#45;&gt;Node2</title>
<g id="a_edge1_Node000001_Node000002"><a xlink:title=" ">
<path fill="none" stroke="#63b8ff" d="M451.79,-274.94C464.92,-267.34 482.49,-254.96 492,-239 510.63,-207.75 513.16,-164.09 512.88,-139.42"/>
<polygon fill="#63b8ff" stroke="#63b8ff" points="516.37,-139.16 512.59,-129.26 509.38,-139.36 516.37,-139.16"/>
</a>
</g>
</g>
<!-- Node4 -->
<g id="Node000004" class="node">
<title>Node4</title>
<g id="a_Node000004"><a xlink:href="bootrom_8h.html" target="_top" xlink:title=" ">
<polygon fill="white" stroke="#666666" points="333,-239 243,-239 243,-220 333,-220 333,-239"/>
<text text-anchor="middle" x="288" y="-227" font-family="Helvetica,sans-Serif" font-size="10.00">pico/bootrom.h</text>
</a>
</g>
</g>
<!-- Node1&#45;&gt;Node4 -->
<g id="edge3_Node000001_Node000004" class="edge">
<title>Node1&#45;&gt;Node4</title>
<g id="a_edge3_Node000001_Node000004"><a xlink:title=" ">
<path fill="none" stroke="#63b8ff" d="M411.38,-274.98C387.1,-266.23 349.05,-252.51 321.63,-242.62"/>
<polygon fill="#63b8ff" stroke="#63b8ff" points="322.64,-239.27 312.05,-239.17 320.27,-245.85 322.64,-239.27"/>
</a>
</g>
</g>
<!-- Node12 -->
<g id="Node000012" class="node">
<title>Node12</title>
<g id="a_Node000012"><a xlink:href="unique__id_8h.html" target="_top" xlink:title=" ">
<polygon fill="white" stroke="#666666" points="483,-239 387,-239 387,-220 483,-220 483,-239"/>
<text text-anchor="middle" x="435" y="-227" font-family="Helvetica,sans-Serif" font-size="10.00">pico/unique_id.h</text>
</a>
</g>
</g>
<!-- Node1&#45;&gt;Node12 -->
<g id="edge15_Node000001_Node000012" class="edge">
<title>Node1&#45;&gt;Node12</title>
<g id="a_edge15_Node000001_Node000012"><a xlink:title=" ">
<path fill="none" stroke="#63b8ff" d="M435,-274.75C435,-267.8 435,-257.85 435,-249.13"/>
<polygon fill="#63b8ff" stroke="#63b8ff" points="438.5,-249.09 435,-239.09 431.5,-249.09 438.5,-249.09"/>
</a>
</g>
</g>
<!-- Node3 -->
<g id="Node000003" class="node">
<title>Node3</title>
<g id="a_Node000003"><a xlink:title=" ">
<polygon fill="#e0e0e0" stroke="#999999" points="420,-74 374,-74 374,-55 420,-55 420,-74"/>
<text text-anchor="middle" x="397" y="-62" font-family="Helvetica,sans-Serif" font-size="10.00">pico.h</text>
</a>
</g>
</g>
<!-- Node2&#45;&gt;Node3 -->
<g id="edge2_Node000002_Node000003" class="edge">
<title>Node2&#45;&gt;Node3</title>
<g id="a_edge2_Node000002_Node000003"><a xlink:title=" ">
<path fill="none" stroke="#63b8ff" d="M493.52,-109.98C475.02,-101.46 446.32,-88.23 425.02,-78.41"/>
<polygon fill="#63b8ff" stroke="#63b8ff" points="426.36,-75.18 415.81,-74.17 423.43,-81.53 426.36,-75.18"/>
</a>
</g>
</g>
<!-- Node4&#45;&gt;Node3 -->
<g id="edge4_Node000004_Node000003" class="edge">
<title>Node4&#45;&gt;Node3</title>
<g id="a_edge4_Node000004_Node000003"><a xlink:title=" ">
<path fill="none" stroke="#63b8ff" d="M321.75,-219.89C340.9,-213.24 363.64,-202.05 377,-184 398.85,-154.48 400.11,-109.52 398.76,-84.32"/>
<polygon fill="#63b8ff" stroke="#63b8ff" points="402.24,-83.97 398.02,-74.26 395.26,-84.49 402.24,-83.97"/>
</a>
</g>
</g>
<!-- Node5 -->
<g id="Node000005" class="node">
<title>Node5</title>
<g id="a_Node000005"><a xlink:href="pico__bootrom_2include_2pico_2bootrom__constants_8h.html" target="_top" xlink:title=" ">
<polygon fill="white" stroke="#666666" points="143.5,-129 0.5,-129 0.5,-110 143.5,-110 143.5,-129"/>
<text text-anchor="middle" x="72" y="-117" font-family="Helvetica,sans-Serif" font-size="10.00">pico/bootrom_constants.h</text>
</a>
</g>
</g>
<!-- Node4&#45;&gt;Node5 -->
<g id="edge5_Node000004_Node000005" class="edge">
<title>Node4&#45;&gt;Node5</title>
<g id="a_edge5_Node000004_Node000005"><a xlink:title=" ">
<path fill="none" stroke="#63b8ff" d="M242.61,-224.39C189.37,-218.61 105.61,-206.22 84,-184 72.64,-172.32 70.31,-153.47 70.42,-139.33"/>
<polygon fill="#63b8ff" stroke="#63b8ff" points="73.92,-139.39 70.9,-129.23 66.92,-139.05 73.92,-139.39"/>
</a>
</g>
</g>
<!-- Node8 -->
<g id="Node000008" class="node">
<title>Node8</title>
<g id="a_Node000008"><a xlink:title=" ">
<polygon fill="#e0e0e0" stroke="#999999" points="277.5,-184 224.5,-184 224.5,-165 277.5,-165 277.5,-184"/>
<text text-anchor="middle" x="251" y="-172" font-family="Helvetica,sans-Serif" font-size="10.00">string.h</text>
</a>
</g>
</g>
<!-- Node4&#45;&gt;Node8 -->
<g id="edge8_Node000004_Node000008" class="edge">
<title>Node4&#45;&gt;Node8</title>
<g id="a_edge8_Node000004_Node000008"><a xlink:title=" ">
<path fill="none" stroke="#63b8ff" d="M281.89,-219.75C276.72,-212.34 269.15,-201.5 262.81,-192.41"/>
<polygon fill="#63b8ff" stroke="#63b8ff" points="265.59,-190.29 257,-184.09 259.85,-194.29 265.59,-190.29"/>
</a>
</g>
</g>
<!-- Node9 -->
<g id="Node000009" class="node">
<title>Node9</title>
<g id="a_Node000009"><a xlink:href="lock_8h.html" target="_top" xlink:title=" ">
<polygon fill="white" stroke="#666666" points="206.5,-184 93.5,-184 93.5,-165 206.5,-165 206.5,-184"/>
<text text-anchor="middle" x="150" y="-172" font-family="Helvetica,sans-Serif" font-size="10.00">pico/bootrom/lock.h</text>
</a>
</g>
</g>
<!-- Node4&#45;&gt;Node9 -->
<g id="edge9_Node000004_Node000009" class="edge">
<title>Node4&#45;&gt;Node9</title>
<g id="a_edge9_Node000004_Node000009"><a xlink:title=" ">
<path fill="none" stroke="#63b8ff" d="M265.83,-219.98C243.23,-211.3 207.94,-197.75 182.25,-187.88"/>
<polygon fill="#63b8ff" stroke="#63b8ff" points="183.17,-184.49 172.58,-184.17 180.66,-191.02 183.17,-184.49"/>
</a>
</g>
</g>
<!-- Node11 -->
<g id="Node000011" class="node">
<title>Node11</title>
<g id="a_Node000011"><a xlink:href="pico__flash_2include_2pico_2flash_8h.html" target="_top" xlink:title=" ">
<polygon fill="white" stroke="#666666" points="368.5,-184 295.5,-184 295.5,-165 368.5,-165 368.5,-184"/>
<text text-anchor="middle" x="332" y="-172" font-family="Helvetica,sans-Serif" font-size="10.00">pico/flash.h</text>
</a>
</g>
</g>
<!-- Node4&#45;&gt;Node11 -->
<g id="edge13_Node000004_Node000011" class="edge">
<title>Node4&#45;&gt;Node11</title>
<g id="a_edge13_Node000004_Node000011"><a xlink:title=" ">
<path fill="none" stroke="#63b8ff" d="M295.27,-219.75C301.54,-212.18 310.79,-201.05 318.43,-191.84"/>
<polygon fill="#63b8ff" stroke="#63b8ff" points="321.17,-194.02 324.87,-184.09 315.79,-189.55 321.17,-194.02"/>
</a>
</g>
</g>
<!-- Node6 -->
<g id="Node000006" class="node">
<title>Node6</title>
<g id="a_Node000006"><a xlink:href="boot__bootrom__headers_2include_2boot_2bootrom__constants_8h.html" target="_top" xlink:title=" ">
<polygon fill="white" stroke="#666666" points="144,-74 0,-74 0,-55 144,-55 144,-74"/>
<text text-anchor="middle" x="72" y="-62" font-family="Helvetica,sans-Serif" font-size="10.00">boot/bootrom_constants.h</text>
</a>
</g>
</g>
<!-- Node5&#45;&gt;Node6 -->
<g id="edge6_Node000005_Node000006" class="edge">
<title>Node5&#45;&gt;Node6</title>
<g id="a_edge6_Node000005_Node000006"><a xlink:title=" ">
<path fill="none" stroke="#63b8ff" d="M72,-109.75C72,-102.8 72,-92.85 72,-84.13"/>
<polygon fill="#63b8ff" stroke="#63b8ff" points="75.5,-84.09 72,-74.09 68.5,-84.09 75.5,-84.09"/>
</a>
</g>
</g>
<!-- Node7 -->
<g id="Node000007" class="node">
<title>Node7</title>
<g id="a_Node000007"><a xlink:title=" ">
<polygon fill="#e0e0e0" stroke="#999999" points="117.5,-19 26.5,-19 26.5,0 117.5,0 117.5,-19"/>
<text text-anchor="middle" x="72" y="-7" font-family="Helvetica,sans-Serif" font-size="10.00">pico/platform.h</text>
</a>
</g>
</g>
<!-- Node6&#45;&gt;Node7 -->
<g id="edge7_Node000006_Node000007" class="edge">
<title>Node6&#45;&gt;Node7</title>
<g id="a_edge7_Node000006_Node000007"><a xlink:title=" ">
<path fill="none" stroke="#63b8ff" d="M72,-54.75C72,-47.8 72,-37.85 72,-29.13"/>
<polygon fill="#63b8ff" stroke="#63b8ff" points="75.5,-29.09 72,-19.09 68.5,-29.09 75.5,-29.09"/>
</a>
</g>
</g>
<!-- Node9&#45;&gt;Node5 -->
<g id="edge12_Node000009_Node000005" class="edge">
<title>Node9&#45;&gt;Node5</title>
<g id="a_edge12_Node000009_Node000005"><a xlink:title=" ">
<path fill="none" stroke="#63b8ff" d="M137.47,-164.98C125.6,-156.92 107.54,-144.65 93.39,-135.03"/>
<polygon fill="#63b8ff" stroke="#63b8ff" points="95,-131.9 84.76,-129.17 91.06,-137.69 95,-131.9"/>
</a>
</g>
</g>
<!-- Node10 -->
<g id="Node000010" class="node">
<title>Node10</title>
<g id="a_Node000010"><a xlink:href="boot__lock_8h.html" target="_top" xlink:title=" ">
<polygon fill="white" stroke="#666666" points="311,-129 189,-129 189,-110 311,-110 311,-129"/>
<text text-anchor="middle" x="250" y="-117" font-family="Helvetica,sans-Serif" font-size="10.00">hardware/boot_lock.h</text>
</a>
</g>
</g>
<!-- Node9&#45;&gt;Node10 -->
<g id="edge10_Node000009_Node000010" class="edge">
<title>Node9&#45;&gt;Node10</title>
<g id="a_edge10_Node000009_Node000010"><a xlink:title=" ">
<path fill="none" stroke="#63b8ff" d="M166.07,-164.98C181.86,-156.61 206.22,-143.7 224.63,-133.95"/>
<polygon fill="#63b8ff" stroke="#63b8ff" points="226.44,-136.95 233.64,-129.17 223.17,-130.76 226.44,-136.95"/>
</a>
</g>
</g>
<!-- Node10&#45;&gt;Node3 -->
<g id="edge11_Node000010_Node000003" class="edge">
<title>Node10&#45;&gt;Node3</title>
<g id="a_edge11_Node000010_Node000003"><a xlink:title=" ">
<path fill="none" stroke="#63b8ff" d="M273.62,-109.98C298.19,-101.12 336.86,-87.18 364.35,-77.27"/>
<polygon fill="#63b8ff" stroke="#63b8ff" points="365.71,-80.5 373.93,-73.82 363.33,-73.92 365.71,-80.5"/>
</a>
</g>
</g>
<!-- Node11&#45;&gt;Node3 -->
<g id="edge14_Node000011_Node000003" class="edge">
<title>Node11&#45;&gt;Node3</title>
<g id="a_edge14_Node000011_Node000003"><a xlink:title=" ">
<path fill="none" stroke="#63b8ff" d="M337.32,-164.66C348.04,-146.85 372.4,-106.37 386.46,-83.01"/>
<polygon fill="#63b8ff" stroke="#63b8ff" points="389.63,-84.53 391.79,-74.16 383.63,-80.92 389.63,-84.53"/>
</a>
</g>
</g>
<!-- Node12&#45;&gt;Node3 -->
<g id="edge16_Node000012_Node000003" class="edge">
<title>Node12&#45;&gt;Node3</title>
<g id="a_edge16_Node000012_Node000003"><a xlink:title=" ">
<path fill="none" stroke="#63b8ff" d="M433.56,-219.81C430.23,-200.11 421.48,-150.65 411,-110 408.78,-101.37 405.88,-91.94 403.3,-83.99"/>
<polygon fill="#63b8ff" stroke="#63b8ff" points="406.54,-82.67 400.06,-74.29 399.9,-84.88 406.54,-82.67"/>
</a>
</g>
</g>
</g>
</svg>
