<?xml version="1.0" encoding="UTF-8" standalone="no"?>
<!DOCTYPE svg PUBLIC "-//W3C//DTD SVG 1.1//EN"
 "http://www.w3.org/Graphics/SVG/1.1/DTD/svg11.dtd">
<!-- Generated by graphviz version 2.43.0 (0)
 -->
<!-- Title: unique_id.h Pages: 1 -->
<svg width="440pt" height="82pt"
 viewBox="0.00 0.00 439.50 82.00" xmlns="http://www.w3.org/2000/svg" xmlns:xlink="http://www.w3.org/1999/xlink">
<g id="graph0" class="graph" transform="scale(1 1) rotate(0) translate(4 78)">
<title>unique_id.h</title>
<!-- Node1 -->
<g id="Node000001" class="node">
<title>Node1</title>
<g id="a_Node000001"><a xlink:title=" ">
<polygon fill="#999999" stroke="#666666" points="247,-74 174,-74 174,-55 247,-55 247,-74"/>
<text text-anchor="middle" x="210.5" y="-62" font-family="Helvetica,sans-Serif" font-size="10.00">unique_id.h</text>
</a>
</g>
</g>
<!-- Node2 -->
<g id="Node000002" class="node">
<title>Node2</title>
<g id="a_Node000002"><a xlink:href="cyw43__arch_8c.html" target="_top" xlink:title=" ">
<polygon fill="white" stroke="#666666" points="83,-19 0,-19 0,0 83,0 83,-19"/>
<text text-anchor="middle" x="41.5" y="-7" font-family="Helvetica,sans-Serif" font-size="10.00">cyw43_arch.c</text>
</a>
</g>
</g>
<!-- Node1&#45;&gt;Node2 -->
<g id="edge1_Node000001_Node000002" class="edge">
<title>Node1&#45;&gt;Node2</title>
<g id="a_edge1_Node000001_Node000002"><a xlink:title=" ">
<path fill="none" stroke="#63b8ff" d="M173.6,-51.93C142.03,-42.03 97.32,-28.01 68.87,-19.08"/>
<polygon fill="#63b8ff" stroke="#63b8ff" points="172.76,-55.33 183.35,-54.98 174.85,-48.65 172.76,-55.33"/>
</a>
</g>
</g>
<!-- Node3 -->
<g id="Node000003" class="node">
<title>Node3</title>
<g id="a_Node000003"><a xlink:href="cyw43__driver_8c.html" target="_top" xlink:title=" ">
<polygon fill="white" stroke="#666666" points="191.5,-19 101.5,-19 101.5,0 191.5,0 191.5,-19"/>
<text text-anchor="middle" x="146.5" y="-7" font-family="Helvetica,sans-Serif" font-size="10.00">cyw43_driver.c</text>
</a>
</g>
</g>
<!-- Node1&#45;&gt;Node3 -->
<g id="edge2_Node000001_Node000003" class="edge">
<title>Node1&#45;&gt;Node3</title>
<g id="a_edge2_Node000001_Node000003"><a xlink:title=" ">
<path fill="none" stroke="#63b8ff" d="M192.51,-48.6C181.04,-39.11 166.59,-27.13 156.97,-19.17"/>
<polygon fill="#63b8ff" stroke="#63b8ff" points="190.28,-51.3 200.22,-54.98 194.75,-45.91 190.28,-51.3"/>
</a>
</g>
</g>
<!-- Node4 -->
<g id="Node000004" class="node">
<title>Node4</title>
<g id="a_Node000004"><a xlink:href="stdio__usb__descriptors_8c.html" target="_top" xlink:title=" ">
<polygon fill="white" stroke="#666666" points="341,-19 210,-19 210,0 341,0 341,-19"/>
<text text-anchor="middle" x="275.5" y="-7" font-family="Helvetica,sans-Serif" font-size="10.00">stdio_usb_descriptors.c</text>
</a>
</g>
</g>
<!-- Node1&#45;&gt;Node4 -->
<g id="edge3_Node000001_Node000004" class="edge">
<title>Node1&#45;&gt;Node4</title>
<g id="a_edge3_Node000001_Node000004"><a xlink:title=" ">
<path fill="none" stroke="#63b8ff" d="M228.77,-48.6C240.42,-39.11 255.1,-27.13 264.87,-19.17"/>
<polygon fill="#63b8ff" stroke="#63b8ff" points="226.48,-45.95 220.94,-54.98 230.91,-51.38 226.48,-45.95"/>
</a>
</g>
</g>
<!-- Node5 -->
<g id="Node000005" class="node">
<title>Node5</title>
<g id="a_Node000005"><a xlink:href="unique__id_8c.html" target="_top" xlink:title=" ">
<polygon fill="white" stroke="#666666" points="431.5,-19 359.5,-19 359.5,0 431.5,0 431.5,-19"/>
<text text-anchor="middle" x="395.5" y="-7" font-family="Helvetica,sans-Serif" font-size="10.00">unique_id.c</text>
</a>
</g>
</g>
<!-- Node1&#45;&gt;Node5 -->
<g id="edge4_Node000001_Node000005" class="edge">
<title>Node1&#45;&gt;Node5</title>
<g id="a_edge4_Node000001_Node000005"><a xlink:title=" ">
<path fill="none" stroke="#63b8ff" d="M250,-52.18C284.6,-42.27 334.13,-28.08 365.54,-19.08"/>
<polygon fill="#63b8ff" stroke="#63b8ff" points="248.87,-48.87 240.22,-54.98 250.8,-55.6 248.87,-48.87"/>
</a>
</g>
</g>
</g>
</svg>
