<?xml version="1.0" encoding="UTF-8" standalone="no"?>
<!DOCTYPE svg PUBLIC "-//W3C//DTD SVG 1.1//EN"
 "http://www.w3.org/Graphics/SVG/1.1/DTD/svg11.dtd">
<!-- Generated by graphviz version 2.43.0 (0)
 -->
<!-- Title: unistd.h Pages: 1 -->
<svg width="393pt" height="82pt"
 viewBox="0.00 0.00 392.50 82.00" xmlns="http://www.w3.org/2000/svg" xmlns:xlink="http://www.w3.org/1999/xlink">
<g id="graph0" class="graph" transform="scale(1 1) rotate(0) translate(4 78)">
<title>unistd.h</title>
<!-- Node1 -->
<g id="Node000001" class="node">
<title>Node1</title>
<g id="a_Node000001"><a xlink:title=" ">
<polygon fill="#999999" stroke="#666666" points="209,-74 153,-74 153,-55 209,-55 209,-74"/>
<text text-anchor="middle" x="181" y="-62" font-family="Helvetica,sans-Serif" font-size="10.00">unistd.h</text>
</a>
</g>
</g>
<!-- Node2 -->
<g id="Node000002" class="node">
<title>Node2</title>
<g id="a_Node000002"><a xlink:href="lexer_8cpp.html" target="_top" xlink:title=" ">
<polygon fill="white" stroke="#666666" points="62,-19 0,-19 0,0 62,0 62,-19"/>
<text text-anchor="middle" x="31" y="-7" font-family="Helvetica,sans-Serif" font-size="10.00">lexer.cpp</text>
</a>
</g>
</g>
<!-- Node1&#45;&gt;Node2 -->
<g id="edge1_Node000001_Node000002" class="edge">
<title>Node1&#45;&gt;Node2</title>
<g id="a_edge1_Node000001_Node000002"><a xlink:title=" ">
<path fill="none" stroke="#63b8ff" d="M147.18,-51.55C119.32,-41.71 80.49,-27.98 55.54,-19.17"/>
<polygon fill="#63b8ff" stroke="#63b8ff" points="146.31,-54.95 156.9,-54.98 148.64,-48.35 146.31,-54.95"/>
</a>
</g>
</g>
<!-- Node3 -->
<g id="Node000003" class="node">
<title>Node3</title>
<g id="a_Node000003"><a xlink:href="newlib__interface_8c.html" target="_top" xlink:title=" ">
<polygon fill="white" stroke="#666666" points="186,-19 80,-19 80,0 186,0 186,-19"/>
<text text-anchor="middle" x="133" y="-7" font-family="Helvetica,sans-Serif" font-size="10.00">newlib_interface.c</text>
</a>
</g>
</g>
<!-- Node1&#45;&gt;Node3 -->
<g id="edge2_Node000001_Node000003" class="edge">
<title>Node1&#45;&gt;Node3</title>
<g id="a_edge2_Node000001_Node000003"><a xlink:title=" ">
<path fill="none" stroke="#63b8ff" d="M166.27,-47.24C157.86,-37.95 147.65,-26.68 140.78,-19.09"/>
<polygon fill="#63b8ff" stroke="#63b8ff" points="163.77,-49.69 173.07,-54.75 168.96,-44.99 163.77,-49.69"/>
</a>
</g>
</g>
<!-- Node4 -->
<g id="Node000004" class="node">
<title>Node4</title>
<g id="a_Node000004"><a xlink:href="panic_8c.html" target="_top" xlink:title=" ">
<polygon fill="white" stroke="#666666" points="255.5,-19 204.5,-19 204.5,0 255.5,0 255.5,-19"/>
<text text-anchor="middle" x="230" y="-7" font-family="Helvetica,sans-Serif" font-size="10.00">panic.c</text>
</a>
</g>
</g>
<!-- Node1&#45;&gt;Node4 -->
<g id="edge3_Node000001_Node000004" class="edge">
<title>Node1&#45;&gt;Node4</title>
<g id="a_edge3_Node000001_Node000004"><a xlink:title=" ">
<path fill="none" stroke="#63b8ff" d="M196.03,-47.24C204.62,-37.95 215.04,-26.68 222.06,-19.09"/>
<polygon fill="#63b8ff" stroke="#63b8ff" points="193.31,-45.03 189.09,-54.75 198.45,-49.78 193.31,-45.03"/>
</a>
</g>
</g>
<!-- Node5 -->
<g id="Node000005" class="node">
<title>Node5</title>
<g id="a_Node000005"><a xlink:href="picolibc__interface_8c.html" target="_top" xlink:title=" ">
<polygon fill="white" stroke="#666666" points="384.5,-19 273.5,-19 273.5,0 384.5,0 384.5,-19"/>
<text text-anchor="middle" x="329" y="-7" font-family="Helvetica,sans-Serif" font-size="10.00">picolibc_interface.c</text>
</a>
</g>
</g>
<!-- Node1&#45;&gt;Node5 -->
<g id="edge4_Node000001_Node000005" class="edge">
<title>Node1&#45;&gt;Node5</title>
<g id="a_edge4_Node000001_Node000005"><a xlink:title=" ">
<path fill="none" stroke="#63b8ff" d="M214.37,-51.55C241.85,-41.71 280.17,-27.98 304.79,-19.17"/>
<polygon fill="#63b8ff" stroke="#63b8ff" points="213.01,-48.32 204.78,-54.98 215.37,-54.91 213.01,-48.32"/>
</a>
</g>
</g>
</g>
</svg>
