<?xml version="1.0" encoding="UTF-8" standalone="no"?>
<!DOCTYPE svg PUBLIC "-//W3C//DTD SVG 1.1//EN"
 "http://www.w3.org/Graphics/SVG/1.1/DTD/svg11.dtd">
<!-- Generated by graphviz version 2.43.0 (0)
 -->
<!-- Title: vreg.c Pages: 1 -->
<svg width="407pt" height="302pt"
 viewBox="0.00 0.00 406.50 302.00" xmlns="http://www.w3.org/2000/svg" xmlns:xlink="http://www.w3.org/1999/xlink">
<g id="graph0" class="graph" transform="scale(1 1) rotate(0) translate(4 298)">
<title>vreg.c</title>
<!-- Node1 -->
<g id="Node000001" class="node">
<title>Node1</title>
<g id="a_Node000001"><a xlink:title=" ">
<polygon fill="#999999" stroke="#666666" points="72.5,-294 25.5,-294 25.5,-275 72.5,-275 72.5,-294"/>
<text text-anchor="middle" x="49" y="-282" font-family="Helvetica,sans-Serif" font-size="10.00">vreg.c</text>
</a>
</g>
</g>
<!-- Node2 -->
<g id="Node000002" class="node">
<title>Node2</title>
<g id="a_Node000002"><a xlink:title=" ">
<polygon fill="#e0e0e0" stroke="#999999" points="46,-74 0,-74 0,-55 46,-55 46,-74"/>
<text text-anchor="middle" x="23" y="-62" font-family="Helvetica,sans-Serif" font-size="10.00">pico.h</text>
</a>
</g>
</g>
<!-- Node1&#45;&gt;Node2 -->
<g id="edge1_Node000001_Node000002" class="edge">
<title>Node1&#45;&gt;Node2</title>
<g id="a_edge1_Node000001_Node000002"><a xlink:title=" ">
<path fill="none" stroke="#63b8ff" d="M44.24,-274.95C39.64,-266.22 32.96,-252.11 30,-239 17.59,-184 19.58,-116.76 21.55,-84.52"/>
<polygon fill="#63b8ff" stroke="#63b8ff" points="25.06,-84.53 22.25,-74.31 18.07,-84.05 25.06,-84.53"/>
</a>
</g>
</g>
<!-- Node3 -->
<g id="Node000003" class="node">
<title>Node3</title>
<g id="a_Node000003"><a xlink:href="vreg_8h.html" target="_top" xlink:title=" ">
<polygon fill="white" stroke="#666666" points="135,-239 39,-239 39,-220 135,-220 135,-239"/>
<text text-anchor="middle" x="87" y="-227" font-family="Helvetica,sans-Serif" font-size="10.00">hardware/vreg.h</text>
</a>
</g>
</g>
<!-- Node1&#45;&gt;Node3 -->
<g id="edge2_Node000001_Node000003" class="edge">
<title>Node1&#45;&gt;Node3</title>
<g id="a_edge2_Node000001_Node000003"><a xlink:title=" ">
<path fill="none" stroke="#63b8ff" d="M55.27,-274.75C60.59,-267.34 68.36,-256.5 74.88,-247.41"/>
<polygon fill="#63b8ff" stroke="#63b8ff" points="77.86,-249.26 80.84,-239.09 72.17,-245.18 77.86,-249.26"/>
</a>
</g>
</g>
<!-- Node3&#45;&gt;Node2 -->
<g id="edge3_Node000003_Node000002" class="edge">
<title>Node3&#45;&gt;Node2</title>
<g id="a_edge3_Node000003_Node000002"><a xlink:title=" ">
<path fill="none" stroke="#63b8ff" d="M83.56,-219.74C73.49,-194.09 43.92,-118.78 30.18,-83.78"/>
<polygon fill="#63b8ff" stroke="#63b8ff" points="33.37,-82.34 26.46,-74.31 26.85,-84.89 33.37,-82.34"/>
</a>
</g>
</g>
<!-- Node4 -->
<g id="Node000004" class="node">
<title>Node4</title>
<g id="a_Node000004"><a xlink:href="rp2350_2hardware__structs_2include_2hardware_2structs_2powman_8h.html" target="_top" xlink:title=" ">
<polygon fill="white" stroke="#666666" points="232,-184 80,-184 80,-165 232,-165 232,-184"/>
<text text-anchor="middle" x="156" y="-172" font-family="Helvetica,sans-Serif" font-size="10.00">hardware/structs/powman.h</text>
</a>
</g>
</g>
<!-- Node3&#45;&gt;Node4 -->
<g id="edge4_Node000003_Node000004" class="edge">
<title>Node3&#45;&gt;Node4</title>
<g id="a_edge4_Node000003_Node000004"><a xlink:title=" ">
<path fill="none" stroke="#63b8ff" d="M98.09,-219.98C108.49,-212 124.26,-199.88 136.72,-190.31"/>
<polygon fill="#63b8ff" stroke="#63b8ff" points="138.91,-193.04 144.71,-184.17 134.65,-187.49 138.91,-193.04"/>
</a>
</g>
</g>
<!-- Node5 -->
<g id="Node000005" class="node">
<title>Node5</title>
<g id="a_Node000005"><a xlink:href="address__mapped_8h.html" target="_top" xlink:title=" ">
<polygon fill="white" stroke="#666666" points="235,-129 77,-129 77,-110 235,-110 235,-129"/>
<text text-anchor="middle" x="156" y="-117" font-family="Helvetica,sans-Serif" font-size="10.00">hardware/address_mapped.h</text>
</a>
</g>
</g>
<!-- Node4&#45;&gt;Node5 -->
<g id="edge5_Node000004_Node000005" class="edge">
<title>Node4&#45;&gt;Node5</title>
<g id="a_edge5_Node000004_Node000005"><a xlink:title=" ">
<path fill="none" stroke="#63b8ff" d="M156,-164.75C156,-157.8 156,-147.85 156,-139.13"/>
<polygon fill="#63b8ff" stroke="#63b8ff" points="159.5,-139.09 156,-129.09 152.5,-139.09 159.5,-139.09"/>
</a>
</g>
</g>
<!-- Node9 -->
<g id="Node000009" class="node">
<title>Node9</title>
<g id="a_Node000009"><a xlink:href="rp2350_2hardware__regs_2include_2hardware_2regs_2powman_8h.html" target="_top" xlink:title=" ">
<polygon fill="white" stroke="#666666" points="393,-129 253,-129 253,-110 393,-110 393,-129"/>
<text text-anchor="middle" x="323" y="-117" font-family="Helvetica,sans-Serif" font-size="10.00">hardware/regs/powman.h</text>
</a>
</g>
</g>
<!-- Node4&#45;&gt;Node9 -->
<g id="edge11_Node000004_Node000009" class="edge">
<title>Node4&#45;&gt;Node9</title>
<g id="a_edge11_Node000004_Node000009"><a xlink:title=" ">
<path fill="none" stroke="#63b8ff" d="M182.83,-164.98C210.87,-156.09 255.05,-142.07 286.3,-132.15"/>
<polygon fill="#63b8ff" stroke="#63b8ff" points="287.49,-135.44 295.96,-129.08 285.37,-128.77 287.49,-135.44"/>
</a>
</g>
</g>
<!-- Node5&#45;&gt;Node2 -->
<g id="edge6_Node000005_Node000002" class="edge">
<title>Node5&#45;&gt;Node2</title>
<g id="a_edge6_Node000005_Node000002"><a xlink:title=" ">
<path fill="none" stroke="#63b8ff" d="M134.63,-109.98C112.85,-101.3 78.84,-87.75 54.08,-77.88"/>
<polygon fill="#63b8ff" stroke="#63b8ff" points="55.34,-74.62 44.76,-74.17 52.75,-81.12 55.34,-74.62"/>
</a>
</g>
</g>
<!-- Node6 -->
<g id="Node000006" class="node">
<title>Node6</title>
<g id="a_Node000006"><a xlink:title=" ">
<polygon fill="#e0e0e0" stroke="#999999" points="222,-74 64,-74 64,-55 222,-55 222,-74"/>
<text text-anchor="middle" x="143" y="-62" font-family="Helvetica,sans-Serif" font-size="10.00">hardware/regs/addressmap.h</text>
</a>
</g>
</g>
<!-- Node5&#45;&gt;Node6 -->
<g id="edge7_Node000005_Node000006" class="edge">
<title>Node5&#45;&gt;Node6</title>
<g id="a_edge7_Node000005_Node000006"><a xlink:title=" ">
<path fill="none" stroke="#63b8ff" d="M153.85,-109.75C152.13,-102.72 149.65,-92.62 147.5,-83.84"/>
<polygon fill="#63b8ff" stroke="#63b8ff" points="150.89,-82.97 145.11,-74.09 144.09,-84.63 150.89,-82.97"/>
</a>
</g>
</g>
<!-- Node7 -->
<g id="Node000007" class="node">
<title>Node7</title>
<g id="a_Node000007"><a xlink:href="hardware__structs_2include_2hardware_2structs_2accessctrl_8h.html" target="_top" xlink:title=" ">
<polygon fill="white" stroke="#666666" points="398.5,-74 239.5,-74 239.5,-55 398.5,-55 398.5,-74"/>
<text text-anchor="middle" x="319" y="-62" font-family="Helvetica,sans-Serif" font-size="10.00">hardware/structs/accessctrl.h</text>
</a>
</g>
</g>
<!-- Node5&#45;&gt;Node7 -->
<g id="edge8_Node000005_Node000007" class="edge">
<title>Node5&#45;&gt;Node7</title>
<g id="a_edge8_Node000005_Node000007"><a xlink:title=" ">
<path fill="none" stroke="#63b8ff" d="M177.07,-109.98C202.59,-101.05 245.77,-86.94 277.89,-77.02"/>
<polygon fill="#63b8ff" stroke="#63b8ff" points="278.94,-80.36 287.48,-74.08 276.89,-73.67 278.94,-80.36"/>
</a>
</g>
</g>
<!-- Node7&#45;&gt;Node5 -->
<g id="edge9_Node000007_Node000005" class="edge">
<title>Node7&#45;&gt;Node5</title>
<g id="a_edge9_Node000007_Node000005"><a xlink:title=" ">
<path fill="none" stroke="#63b8ff" d="M297.48,-74.17C271.95,-83.1 229.17,-97.07 197.25,-106.94"/>
<polygon fill="#63b8ff" stroke="#63b8ff" points="195.84,-103.71 187.3,-109.98 197.89,-110.4 195.84,-103.71"/>
</a>
</g>
</g>
<!-- Node8 -->
<g id="Node000008" class="node">
<title>Node8</title>
<g id="a_Node000008"><a xlink:href="hardware__regs_2include_2hardware_2regs_2accessctrl_8h.html" target="_top" xlink:title=" ">
<polygon fill="white" stroke="#666666" points="392.5,-19 245.5,-19 245.5,0 392.5,0 392.5,-19"/>
<text text-anchor="middle" x="319" y="-7" font-family="Helvetica,sans-Serif" font-size="10.00">hardware/regs/accessctrl.h</text>
</a>
</g>
</g>
<!-- Node7&#45;&gt;Node8 -->
<g id="edge10_Node000007_Node000008" class="edge">
<title>Node7&#45;&gt;Node8</title>
<g id="a_edge10_Node000007_Node000008"><a xlink:title=" ">
<path fill="none" stroke="#63b8ff" d="M319,-54.75C319,-47.8 319,-37.85 319,-29.13"/>
<polygon fill="#63b8ff" stroke="#63b8ff" points="322.5,-29.09 319,-19.09 315.5,-29.09 322.5,-29.09"/>
</a>
</g>
</g>
</g>
</svg>
