<?xml version="1.0" encoding="UTF-8" standalone="no"?>
<!DOCTYPE svg PUBLIC "-//W3C//DTD SVG 1.1//EN"
 "http://www.w3.org/Graphics/SVG/1.1/DTD/svg11.dtd">
<!-- Generated by graphviz version 2.43.0 (0)
 -->
<!-- Title: watchdog.c Pages: 1 -->
<svg width="991pt" height="302pt"
 viewBox="0.00 0.00 990.50 302.00" xmlns="http://www.w3.org/2000/svg" xmlns:xlink="http://www.w3.org/1999/xlink">
<g id="graph0" class="graph" transform="scale(1 1) rotate(0) translate(4 298)">
<title>watchdog.c</title>
<!-- Node1 -->
<g id="Node000001" class="node">
<title>Node1</title>
<g id="a_Node000001"><a xlink:title=" ">
<polygon fill="#999999" stroke="#666666" points="512.5,-294 440.5,-294 440.5,-275 512.5,-275 512.5,-294"/>
<text text-anchor="middle" x="476.5" y="-282" font-family="Helvetica,sans-Serif" font-size="10.00">watchdog.c</text>
</a>
</g>
</g>
<!-- Node2 -->
<g id="Node000002" class="node">
<title>Node2</title>
<g id="a_Node000002"><a xlink:title=" ">
<polygon fill="#e0e0e0" stroke="#999999" points="273.5,-239 223.5,-239 223.5,-220 273.5,-220 273.5,-239"/>
<text text-anchor="middle" x="248.5" y="-227" font-family="Helvetica,sans-Serif" font-size="10.00">stdio.h</text>
</a>
</g>
</g>
<!-- Node1&#45;&gt;Node2 -->
<g id="edge1_Node000001_Node000002" class="edge">
<title>Node1&#45;&gt;Node2</title>
<g id="a_edge1_Node000001_Node000002"><a xlink:title=" ">
<path fill="none" stroke="#63b8ff" d="M440.34,-275.43C403.39,-267.13 344.11,-253.68 283.81,-239.28"/>
<polygon fill="#63b8ff" stroke="#63b8ff" points="284.28,-235.79 273.74,-236.87 282.65,-242.6 284.28,-235.79"/>
</a>
</g>
</g>
<!-- Node3 -->
<g id="Node000003" class="node">
<title>Node3</title>
<g id="a_Node000003"><a xlink:href="rp2__common_2hardware__watchdog_2include_2hardware_2watchdog_8h.html" target="_top" xlink:title=" ">
<polygon fill="white" stroke="#666666" points="582.5,-239 460.5,-239 460.5,-220 582.5,-220 582.5,-239"/>
<text text-anchor="middle" x="521.5" y="-227" font-family="Helvetica,sans-Serif" font-size="10.00">hardware/watchdog.h</text>
</a>
</g>
</g>
<!-- Node1&#45;&gt;Node3 -->
<g id="edge2_Node000001_Node000003" class="edge">
<title>Node1&#45;&gt;Node3</title>
<g id="a_edge2_Node000001_Node000003"><a xlink:title=" ">
<path fill="none" stroke="#63b8ff" d="M483.93,-274.75C490.35,-267.18 499.81,-256.05 507.62,-246.84"/>
<polygon fill="#63b8ff" stroke="#63b8ff" points="510.4,-248.98 514.21,-239.09 505.07,-244.45 510.4,-248.98"/>
</a>
</g>
</g>
<!-- Node5 -->
<g id="Node000005" class="node">
<title>Node5</title>
<g id="a_Node000005"><a xlink:title=" ">
<polygon fill="#e0e0e0" stroke="#999999" points="512.5,-184 354.5,-184 354.5,-165 512.5,-165 512.5,-184"/>
<text text-anchor="middle" x="433.5" y="-172" font-family="Helvetica,sans-Serif" font-size="10.00">hardware/structs/watchdog.h</text>
</a>
</g>
</g>
<!-- Node1&#45;&gt;Node5 -->
<g id="edge5_Node000001_Node000005" class="edge">
<title>Node1&#45;&gt;Node5</title>
<g id="a_edge5_Node000001_Node000005"><a xlink:title=" ">
<path fill="none" stroke="#63b8ff" d="M470.89,-274.94C465.35,-266.2 456.94,-252.09 451.5,-239 445.44,-224.43 440.7,-207.17 437.6,-194.32"/>
<polygon fill="#63b8ff" stroke="#63b8ff" points="440.96,-193.31 435.31,-184.35 434.14,-194.88 440.96,-193.31"/>
</a>
</g>
</g>
<!-- Node6 -->
<g id="Node000006" class="node">
<title>Node6</title>
<g id="a_Node000006"><a xlink:title=" ">
<polygon fill="#e0e0e0" stroke="#999999" points="840,-239 709,-239 709,-220 840,-220 840,-239"/>
<text text-anchor="middle" x="774.5" y="-227" font-family="Helvetica,sans-Serif" font-size="10.00">hardware/structs/psm.h</text>
</a>
</g>
</g>
<!-- Node1&#45;&gt;Node6 -->
<g id="edge6_Node000001_Node000006" class="edge">
<title>Node1&#45;&gt;Node6</title>
<g id="a_edge6_Node000001_Node000006"><a xlink:title=" ">
<path fill="none" stroke="#63b8ff" d="M512.74,-277.05C563.4,-268.04 655.94,-251.59 716.32,-240.85"/>
<polygon fill="#63b8ff" stroke="#63b8ff" points="717.23,-244.24 726.46,-239.04 716,-237.35 717.23,-244.24"/>
</a>
</g>
</g>
<!-- Node7 -->
<g id="Node000007" class="node">
<title>Node7</title>
<g id="a_Node000007"><a xlink:href="rp2__common_2hardware__ticks_2include_2hardware_2ticks_8h.html" target="_top" xlink:title=" ">
<polygon fill="white" stroke="#666666" points="389.5,-239 291.5,-239 291.5,-220 389.5,-220 389.5,-239"/>
<text text-anchor="middle" x="340.5" y="-227" font-family="Helvetica,sans-Serif" font-size="10.00">hardware/ticks.h</text>
</a>
</g>
</g>
<!-- Node1&#45;&gt;Node7 -->
<g id="edge7_Node000001_Node000007" class="edge">
<title>Node1&#45;&gt;Node7</title>
<g id="a_edge7_Node000001_Node000007"><a xlink:title=" ">
<path fill="none" stroke="#63b8ff" d="M454.65,-274.98C432.38,-266.3 397.6,-252.75 372.28,-242.88"/>
<polygon fill="#63b8ff" stroke="#63b8ff" points="373.34,-239.54 362.75,-239.17 370.79,-246.06 373.34,-239.54"/>
</a>
</g>
</g>
<!-- Node14 -->
<g id="Node000014" class="node">
<title>Node14</title>
<g id="a_Node000014"><a xlink:href="bootrom_8h.html" target="_top" xlink:title=" ">
<polygon fill="white" stroke="#666666" points="690.5,-239 600.5,-239 600.5,-220 690.5,-220 690.5,-239"/>
<text text-anchor="middle" x="645.5" y="-227" font-family="Helvetica,sans-Serif" font-size="10.00">pico/bootrom.h</text>
</a>
</g>
</g>
<!-- Node1&#45;&gt;Node14 -->
<g id="edge17_Node000001_Node000014" class="edge">
<title>Node1&#45;&gt;Node14</title>
<g id="a_edge17_Node000001_Node000014"><a xlink:title=" ">
<path fill="none" stroke="#63b8ff" d="M503.65,-274.98C532.03,-266.09 576.73,-252.07 608.36,-242.15"/>
<polygon fill="#63b8ff" stroke="#63b8ff" points="609.64,-245.41 618.13,-239.08 607.55,-238.73 609.64,-245.41"/>
</a>
</g>
</g>
<!-- Node4 -->
<g id="Node000004" class="node">
<title>Node4</title>
<g id="a_Node000004"><a xlink:title=" ">
<polygon fill="#e0e0e0" stroke="#999999" points="582.5,-74 536.5,-74 536.5,-55 582.5,-55 582.5,-74"/>
<text text-anchor="middle" x="559.5" y="-62" font-family="Helvetica,sans-Serif" font-size="10.00">pico.h</text>
</a>
</g>
</g>
<!-- Node3&#45;&gt;Node4 -->
<g id="edge3_Node000003_Node000004" class="edge">
<title>Node3&#45;&gt;Node4</title>
<g id="a_edge3_Node000003_Node000004"><a xlink:title=" ">
<path fill="none" stroke="#63b8ff" d="M523.54,-219.74C529.5,-194.2 546.93,-119.43 555.13,-84.23"/>
<polygon fill="#63b8ff" stroke="#63b8ff" points="558.58,-84.84 557.45,-74.31 551.77,-83.25 558.58,-84.84"/>
</a>
</g>
</g>
<!-- Node3&#45;&gt;Node5 -->
<g id="edge4_Node000003_Node000005" class="edge">
<title>Node3&#45;&gt;Node5</title>
<g id="a_edge4_Node000003_Node000005"><a xlink:title=" ">
<path fill="none" stroke="#63b8ff" d="M507.36,-219.98C493.71,-211.77 472.81,-199.18 456.72,-189.49"/>
<polygon fill="#63b8ff" stroke="#63b8ff" points="458.27,-186.33 447.9,-184.17 454.66,-192.33 458.27,-186.33"/>
</a>
</g>
</g>
<!-- Node7&#45;&gt;Node4 -->
<g id="edge8_Node000007_Node000004" class="edge">
<title>Node7&#45;&gt;Node4</title>
<g id="a_edge8_Node000007_Node000004"><a xlink:title=" ">
<path fill="none" stroke="#63b8ff" d="M338.63,-219.79C336.34,-206.65 334.02,-181.53 345.5,-165 387.85,-104.02 477.47,-79.52 526.22,-70.4"/>
<polygon fill="#63b8ff" stroke="#63b8ff" points="527.01,-73.82 536.25,-68.64 525.8,-66.92 527.01,-73.82"/>
</a>
</g>
</g>
<!-- Node8 -->
<g id="Node000008" class="node">
<title>Node8</title>
<g id="a_Node000008"><a xlink:href="rp2350_2hardware__structs_2include_2hardware_2structs_2ticks_8h.html" target="_top" xlink:title=" ">
<polygon fill="white" stroke="#666666" points="298.5,-184 164.5,-184 164.5,-165 298.5,-165 298.5,-184"/>
<text text-anchor="middle" x="231.5" y="-172" font-family="Helvetica,sans-Serif" font-size="10.00">hardware/structs/ticks.h</text>
</a>
</g>
</g>
<!-- Node7&#45;&gt;Node8 -->
<g id="edge9_Node000007_Node000008" class="edge">
<title>Node7&#45;&gt;Node8</title>
<g id="a_edge9_Node000007_Node000008"><a xlink:title=" ">
<path fill="none" stroke="#63b8ff" d="M322.99,-219.98C305.53,-211.5 278.49,-198.35 258.33,-188.54"/>
<polygon fill="#63b8ff" stroke="#63b8ff" points="259.86,-185.4 249.33,-184.17 256.79,-191.69 259.86,-185.4"/>
</a>
</g>
</g>
<!-- Node9 -->
<g id="Node000009" class="node">
<title>Node9</title>
<g id="a_Node000009"><a xlink:href="address__mapped_8h.html" target="_top" xlink:title=" ">
<polygon fill="white" stroke="#666666" points="158.5,-129 0.5,-129 0.5,-110 158.5,-110 158.5,-129"/>
<text text-anchor="middle" x="79.5" y="-117" font-family="Helvetica,sans-Serif" font-size="10.00">hardware/address_mapped.h</text>
</a>
</g>
</g>
<!-- Node8&#45;&gt;Node9 -->
<g id="edge10_Node000008_Node000009" class="edge">
<title>Node8&#45;&gt;Node9</title>
<g id="a_edge10_Node000008_Node000009"><a xlink:title=" ">
<path fill="none" stroke="#63b8ff" d="M207.08,-164.98C181.78,-156.16 142.05,-142.31 113.64,-132.41"/>
<polygon fill="#63b8ff" stroke="#63b8ff" points="114.71,-129.07 104.11,-129.08 112.4,-135.68 114.71,-129.07"/>
</a>
</g>
</g>
<!-- Node13 -->
<g id="Node000013" class="node">
<title>Node13</title>
<g id="a_Node000013"><a xlink:href="rp2350_2hardware__regs_2include_2hardware_2regs_2ticks_8h.html" target="_top" xlink:title=" ">
<polygon fill="white" stroke="#666666" points="298.5,-129 176.5,-129 176.5,-110 298.5,-110 298.5,-129"/>
<text text-anchor="middle" x="237.5" y="-117" font-family="Helvetica,sans-Serif" font-size="10.00">hardware/regs/ticks.h</text>
</a>
</g>
</g>
<!-- Node8&#45;&gt;Node13 -->
<g id="edge16_Node000008_Node000013" class="edge">
<title>Node8&#45;&gt;Node13</title>
<g id="a_edge16_Node000008_Node000013"><a xlink:title=" ">
<path fill="none" stroke="#63b8ff" d="M232.49,-164.75C233.28,-157.8 234.4,-147.85 235.39,-139.13"/>
<polygon fill="#63b8ff" stroke="#63b8ff" points="238.88,-139.42 236.53,-129.09 231.92,-138.63 238.88,-139.42"/>
</a>
</g>
</g>
<!-- Node9&#45;&gt;Node4 -->
<g id="edge11_Node000009_Node000004" class="edge">
<title>Node9&#45;&gt;Node4</title>
<g id="a_edge11_Node000009_Node000004"><a xlink:title=" ">
<path fill="none" stroke="#63b8ff" d="M156.62,-109.98C262.96,-98.24 450.07,-77.58 526.04,-69.19"/>
<polygon fill="#63b8ff" stroke="#63b8ff" points="526.86,-72.63 536.42,-68.05 526.09,-65.67 526.86,-72.63"/>
</a>
</g>
</g>
<!-- Node10 -->
<g id="Node000010" class="node">
<title>Node10</title>
<g id="a_Node000010"><a xlink:title=" ">
<polygon fill="#e0e0e0" stroke="#999999" points="334.5,-74 176.5,-74 176.5,-55 334.5,-55 334.5,-74"/>
<text text-anchor="middle" x="255.5" y="-62" font-family="Helvetica,sans-Serif" font-size="10.00">hardware/regs/addressmap.h</text>
</a>
</g>
</g>
<!-- Node9&#45;&gt;Node10 -->
<g id="edge12_Node000009_Node000010" class="edge">
<title>Node9&#45;&gt;Node10</title>
<g id="a_edge12_Node000009_Node000010"><a xlink:title=" ">
<path fill="none" stroke="#63b8ff" d="M107.78,-109.98C137.45,-101.05 184.29,-86.94 217.25,-77.02"/>
<polygon fill="#63b8ff" stroke="#63b8ff" points="218.43,-80.32 227,-74.08 216.42,-73.61 218.43,-80.32"/>
</a>
</g>
</g>
<!-- Node11 -->
<g id="Node000011" class="node">
<title>Node11</title>
<g id="a_Node000011"><a xlink:href="hardware__structs_2include_2hardware_2structs_2accessctrl_8h.html" target="_top" xlink:title=" ">
<polygon fill="white" stroke="#666666" points="159,-74 0,-74 0,-55 159,-55 159,-74"/>
<text text-anchor="middle" x="79.5" y="-62" font-family="Helvetica,sans-Serif" font-size="10.00">hardware/structs/accessctrl.h</text>
</a>
</g>
</g>
<!-- Node9&#45;&gt;Node11 -->
<g id="edge13_Node000009_Node000011" class="edge">
<title>Node9&#45;&gt;Node11</title>
<g id="a_edge13_Node000009_Node000011"><a xlink:title=" ">
<path fill="none" stroke="#63b8ff" d="M74.33,-109.75C72.84,-102.8 72.4,-92.85 73.02,-84.13"/>
<polygon fill="#63b8ff" stroke="#63b8ff" points="76.51,-84.47 74.37,-74.09 69.57,-83.53 76.51,-84.47"/>
</a>
</g>
</g>
<!-- Node11&#45;&gt;Node9 -->
<g id="edge14_Node000011_Node000009" class="edge">
<title>Node11&#45;&gt;Node9</title>
<g id="a_edge14_Node000011_Node000009"><a xlink:title=" ">
<path fill="none" stroke="#63b8ff" d="M84.63,-74.09C86.14,-80.99 86.59,-90.93 85.99,-99.66"/>
<polygon fill="#63b8ff" stroke="#63b8ff" points="82.5,-99.38 84.67,-109.75 89.44,-100.29 82.5,-99.38"/>
</a>
</g>
</g>
<!-- Node12 -->
<g id="Node000012" class="node">
<title>Node12</title>
<g id="a_Node000012"><a xlink:href="hardware__regs_2include_2hardware_2regs_2accessctrl_8h.html" target="_top" xlink:title=" ">
<polygon fill="white" stroke="#666666" points="153,-19 6,-19 6,0 153,0 153,-19"/>
<text text-anchor="middle" x="79.5" y="-7" font-family="Helvetica,sans-Serif" font-size="10.00">hardware/regs/accessctrl.h</text>
</a>
</g>
</g>
<!-- Node11&#45;&gt;Node12 -->
<g id="edge15_Node000011_Node000012" class="edge">
<title>Node11&#45;&gt;Node12</title>
<g id="a_edge15_Node000011_Node000012"><a xlink:title=" ">
<path fill="none" stroke="#63b8ff" d="M79.5,-54.75C79.5,-47.8 79.5,-37.85 79.5,-29.13"/>
<polygon fill="#63b8ff" stroke="#63b8ff" points="83,-29.09 79.5,-19.09 76,-29.09 83,-29.09"/>
</a>
</g>
</g>
<!-- Node14&#45;&gt;Node4 -->
<g id="edge18_Node000014_Node000004" class="edge">
<title>Node14&#45;&gt;Node4</title>
<g id="a_edge18_Node000014_Node000004"><a xlink:title=" ">
<path fill="none" stroke="#63b8ff" d="M640.88,-219.74C627.29,-193.98 587.27,-118.13 568.91,-83.33"/>
<polygon fill="#63b8ff" stroke="#63b8ff" points="571.91,-81.52 564.15,-74.31 565.72,-84.78 571.91,-81.52"/>
</a>
</g>
</g>
<!-- Node15 -->
<g id="Node000015" class="node">
<title>Node15</title>
<g id="a_Node000015"><a xlink:href="pico__bootrom_2include_2pico_2bootrom__constants_8h.html" target="_top" xlink:title=" ">
<polygon fill="white" stroke="#666666" points="982,-129 839,-129 839,-110 982,-110 982,-129"/>
<text text-anchor="middle" x="910.5" y="-117" font-family="Helvetica,sans-Serif" font-size="10.00">pico/bootrom_constants.h</text>
</a>
</g>
</g>
<!-- Node14&#45;&gt;Node15 -->
<g id="edge19_Node000014_Node000015" class="edge">
<title>Node14&#45;&gt;Node15</title>
<g id="a_edge19_Node000014_Node000015"><a xlink:title=" ">
<path fill="none" stroke="#63b8ff" d="M690.71,-220.97C756.59,-209.85 872.01,-189.72 879.5,-184 893.95,-172.96 902.06,-153.42 906.33,-138.92"/>
<polygon fill="#63b8ff" stroke="#63b8ff" points="909.77,-139.6 908.88,-129.04 902.99,-137.85 909.77,-139.6"/>
</a>
</g>
</g>
<!-- Node18 -->
<g id="Node000018" class="node">
<title>Node18</title>
<g id="a_Node000018"><a xlink:title=" ">
<polygon fill="#e0e0e0" stroke="#999999" points="870,-184 817,-184 817,-165 870,-165 870,-184"/>
<text text-anchor="middle" x="843.5" y="-172" font-family="Helvetica,sans-Serif" font-size="10.00">string.h</text>
</a>
</g>
</g>
<!-- Node14&#45;&gt;Node18 -->
<g id="edge22_Node000014_Node000018" class="edge">
<title>Node14&#45;&gt;Node18</title>
<g id="a_edge22_Node000014_Node000018"><a xlink:title=" ">
<path fill="none" stroke="#63b8ff" d="M677.31,-219.98C712.68,-210.52 769.72,-195.25 806.92,-185.29"/>
<polygon fill="#63b8ff" stroke="#63b8ff" points="808.09,-188.6 816.85,-182.63 806.28,-181.84 808.09,-188.6"/>
</a>
</g>
</g>
<!-- Node19 -->
<g id="Node000019" class="node">
<title>Node19</title>
<g id="a_Node000019"><a xlink:href="lock_8h.html" target="_top" xlink:title=" ">
<polygon fill="white" stroke="#666666" points="799,-184 686,-184 686,-165 799,-165 799,-184"/>
<text text-anchor="middle" x="742.5" y="-172" font-family="Helvetica,sans-Serif" font-size="10.00">pico/bootrom/lock.h</text>
</a>
</g>
</g>
<!-- Node14&#45;&gt;Node19 -->
<g id="edge23_Node000014_Node000019" class="edge">
<title>Node14&#45;&gt;Node19</title>
<g id="a_edge23_Node000014_Node000019"><a xlink:title=" ">
<path fill="none" stroke="#63b8ff" d="M661.08,-219.98C676.27,-211.69 699.6,-198.94 717.4,-189.22"/>
<polygon fill="#63b8ff" stroke="#63b8ff" points="719.53,-192.04 726.63,-184.17 716.18,-185.89 719.53,-192.04"/>
</a>
</g>
</g>
<!-- Node21 -->
<g id="Node000021" class="node">
<title>Node21</title>
<g id="a_Node000021"><a xlink:href="pico__flash_2include_2pico_2flash_8h.html" target="_top" xlink:title=" ">
<polygon fill="white" stroke="#666666" points="680,-129 607,-129 607,-110 680,-110 680,-129"/>
<text text-anchor="middle" x="643.5" y="-117" font-family="Helvetica,sans-Serif" font-size="10.00">pico/flash.h</text>
</a>
</g>
</g>
<!-- Node14&#45;&gt;Node21 -->
<g id="edge27_Node000014_Node000021" class="edge">
<title>Node14&#45;&gt;Node21</title>
<g id="a_edge27_Node000014_Node000021"><a xlink:title=" ">
<path fill="none" stroke="#63b8ff" d="M645.34,-219.66C645.01,-202.17 644.28,-162.8 643.85,-139.27"/>
<polygon fill="#63b8ff" stroke="#63b8ff" points="647.34,-139.09 643.66,-129.16 640.35,-139.22 647.34,-139.09"/>
</a>
</g>
</g>
<!-- Node16 -->
<g id="Node000016" class="node">
<title>Node16</title>
<g id="a_Node000016"><a xlink:href="boot__bootrom__headers_2include_2boot_2bootrom__constants_8h.html" target="_top" xlink:title=" ">
<polygon fill="white" stroke="#666666" points="982.5,-74 838.5,-74 838.5,-55 982.5,-55 982.5,-74"/>
<text text-anchor="middle" x="910.5" y="-62" font-family="Helvetica,sans-Serif" font-size="10.00">boot/bootrom_constants.h</text>
</a>
</g>
</g>
<!-- Node15&#45;&gt;Node16 -->
<g id="edge20_Node000015_Node000016" class="edge">
<title>Node15&#45;&gt;Node16</title>
<g id="a_edge20_Node000015_Node000016"><a xlink:title=" ">
<path fill="none" stroke="#63b8ff" d="M910.5,-109.75C910.5,-102.8 910.5,-92.85 910.5,-84.13"/>
<polygon fill="#63b8ff" stroke="#63b8ff" points="914,-84.09 910.5,-74.09 907,-84.09 914,-84.09"/>
</a>
</g>
</g>
<!-- Node17 -->
<g id="Node000017" class="node">
<title>Node17</title>
<g id="a_Node000017"><a xlink:title=" ">
<polygon fill="#e0e0e0" stroke="#999999" points="956,-19 865,-19 865,0 956,0 956,-19"/>
<text text-anchor="middle" x="910.5" y="-7" font-family="Helvetica,sans-Serif" font-size="10.00">pico/platform.h</text>
</a>
</g>
</g>
<!-- Node16&#45;&gt;Node17 -->
<g id="edge21_Node000016_Node000017" class="edge">
<title>Node16&#45;&gt;Node17</title>
<g id="a_edge21_Node000016_Node000017"><a xlink:title=" ">
<path fill="none" stroke="#63b8ff" d="M910.5,-54.75C910.5,-47.8 910.5,-37.85 910.5,-29.13"/>
<polygon fill="#63b8ff" stroke="#63b8ff" points="914,-29.09 910.5,-19.09 907,-29.09 914,-29.09"/>
</a>
</g>
</g>
<!-- Node19&#45;&gt;Node15 -->
<g id="edge26_Node000019_Node000015" class="edge">
<title>Node19&#45;&gt;Node15</title>
<g id="a_edge26_Node000019_Node000015"><a xlink:title=" ">
<path fill="none" stroke="#63b8ff" d="M769.49,-164.98C797.7,-156.09 842.14,-142.07 873.58,-132.15"/>
<polygon fill="#63b8ff" stroke="#63b8ff" points="874.81,-135.43 883.3,-129.08 872.71,-128.75 874.81,-135.43"/>
</a>
</g>
</g>
<!-- Node20 -->
<g id="Node000020" class="node">
<title>Node20</title>
<g id="a_Node000020"><a xlink:href="boot__lock_8h.html" target="_top" xlink:title=" ">
<polygon fill="white" stroke="#666666" points="820.5,-129 698.5,-129 698.5,-110 820.5,-110 820.5,-129"/>
<text text-anchor="middle" x="759.5" y="-117" font-family="Helvetica,sans-Serif" font-size="10.00">hardware/boot_lock.h</text>
</a>
</g>
</g>
<!-- Node19&#45;&gt;Node20 -->
<g id="edge24_Node000019_Node000020" class="edge">
<title>Node19&#45;&gt;Node20</title>
<g id="a_edge24_Node000019_Node000020"><a xlink:title=" ">
<path fill="none" stroke="#63b8ff" d="M745.31,-164.75C747.56,-157.72 750.8,-147.62 753.62,-138.84"/>
<polygon fill="#63b8ff" stroke="#63b8ff" points="757.02,-139.68 756.75,-129.09 750.36,-137.54 757.02,-139.68"/>
</a>
</g>
</g>
<!-- Node20&#45;&gt;Node4 -->
<g id="edge25_Node000020_Node000004" class="edge">
<title>Node20&#45;&gt;Node4</title>
<g id="a_edge25_Node000020_Node000004"><a xlink:title=" ">
<path fill="none" stroke="#63b8ff" d="M727.37,-109.98C690.32,-100.17 629.76,-84.12 592.4,-74.22"/>
<polygon fill="#63b8ff" stroke="#63b8ff" points="593.08,-70.78 582.51,-71.6 591.28,-77.54 593.08,-70.78"/>
</a>
</g>
</g>
<!-- Node21&#45;&gt;Node4 -->
<g id="edge28_Node000021_Node000004" class="edge">
<title>Node21&#45;&gt;Node4</title>
<g id="a_edge28_Node000021_Node000004"><a xlink:title=" ">
<path fill="none" stroke="#63b8ff" d="M630,-109.98C617.1,-101.84 597.4,-89.41 582.1,-79.76"/>
<polygon fill="#63b8ff" stroke="#63b8ff" points="583.57,-76.55 573.24,-74.17 579.83,-82.47 583.57,-76.55"/>
</a>
</g>
</g>
</g>
</svg>
